%TF.GenerationSoftware,KiCad,Pcbnew,(6.0.5)*%
%TF.CreationDate,2022-08-19T16:14:06-07:00*%
%TF.ProjectId,Coil_Panels_Z,436f696c-5f50-4616-9e65-6c735f5a2e6b,rev?*%
%TF.SameCoordinates,Original*%
%TF.FileFunction,Copper,L6,Bot*%
%TF.FilePolarity,Positive*%
%FSLAX46Y46*%
G04 Gerber Fmt 4.6, Leading zero omitted, Abs format (unit mm)*
G04 Created by KiCad (PCBNEW (6.0.5)) date 2022-08-19 16:14:06*
%MOMM*%
%LPD*%
G01*
G04 APERTURE LIST*
%TA.AperFunction,ComponentPad*%
%ADD10C,2.600000*%
%TD*%
%TA.AperFunction,ConnectorPad*%
%ADD11C,3.800000*%
%TD*%
%TA.AperFunction,ComponentPad*%
%ADD12R,1.700000X1.700000*%
%TD*%
%TA.AperFunction,ComponentPad*%
%ADD13O,1.700000X1.700000*%
%TD*%
%TA.AperFunction,SMDPad,CuDef*%
%ADD14R,1.100000X1.450000*%
%TD*%
%TA.AperFunction,SMDPad,CuDef*%
%ADD15R,1.350000X2.900000*%
%TD*%
%TA.AperFunction,ViaPad*%
%ADD16C,0.650000*%
%TD*%
%TA.AperFunction,Conductor*%
%ADD17C,1.000000*%
%TD*%
%TA.AperFunction,Conductor*%
%ADD18C,0.306000*%
%TD*%
G04 APERTURE END LIST*
D10*
%TO.P,H1,1,1*%
%TO.N,unconnected-(H1-Pad1)*%
X119708000Y-136558000D03*
D11*
X119708000Y-136558000D03*
%TD*%
D10*
%TO.P,TP1,1,1*%
%TO.N,Coil_IN*%
X124500000Y-96190000D03*
%TO.P,TP1,2,2*%
X124500000Y-103810000D03*
%TD*%
D12*
%TO.P,J1,1,Pin_1*%
%TO.N,Net-(J1-Pad1)*%
X125310000Y-54370000D03*
D13*
%TO.P,J1,2,Pin_2*%
%TO.N,Net-(J1-Pad2)*%
X127850000Y-54370000D03*
%TO.P,J1,3,Pin_3*%
%TO.N,Net-(J1-Pad3)*%
X130390000Y-54370000D03*
%TO.P,J1,4,Pin_4*%
%TO.N,Net-(J1-Pad4)*%
X132930000Y-54370000D03*
%TO.P,J1,5,Pin_5*%
%TO.N,Net-(J1-Pad5)*%
X135470000Y-54370000D03*
%TO.P,J1,6,Pin_6*%
%TO.N,Net-(J1-Pad6)*%
X138010000Y-54370000D03*
%TD*%
D11*
%TO.P,H4,1,1*%
%TO.N,unconnected-(H4-Pad1)*%
X176382000Y-136558000D03*
D10*
X176382000Y-136558000D03*
%TD*%
D11*
%TO.P,H2,1,1*%
%TO.N,unconnected-(H2-Pad1)*%
X119708000Y-51558000D03*
D10*
X119708000Y-51558000D03*
%TD*%
%TO.P,H3,1,1*%
%TO.N,unconnected-(H3-Pad1)*%
X176382000Y-51558000D03*
D11*
X176382000Y-51558000D03*
%TD*%
D14*
%TO.P,J2,1,1*%
%TO.N,Net-(J1-Pad6)*%
X145680000Y-68120000D03*
%TO.P,J2,2,2*%
%TO.N,Net-(J1-Pad5)*%
X143680000Y-68120000D03*
%TO.P,J2,3,3*%
%TO.N,Net-(J1-Pad4)*%
X141680000Y-68120000D03*
%TO.P,J2,4,4*%
%TO.N,Net-(J1-Pad3)*%
X139680000Y-68120000D03*
%TO.P,J2,5,5*%
%TO.N,Net-(J1-Pad2)*%
X137680000Y-68120000D03*
%TO.P,J2,6,6*%
%TO.N,Net-(J1-Pad1)*%
X135680000Y-68120000D03*
D15*
%TO.P,J2,S1,SHIELD1*%
%TO.N,unconnected-(J2-PadS1)*%
X148575000Y-74095000D03*
%TO.P,J2,S2,SHIELD2*%
%TO.N,unconnected-(J2-PadS2)*%
X132785000Y-74095000D03*
%TD*%
D16*
%TO.N,Coil_IN*%
X124656000Y-106452799D03*
X125880000Y-106452799D03*
X112930000Y-131544800D03*
X128328000Y-106452799D03*
X115378000Y-131544800D03*
X116602000Y-131544800D03*
X99260000Y-130650000D03*
X114154000Y-131544800D03*
X123432000Y-106452799D03*
X127104000Y-106452799D03*
%TD*%
D17*
%TO.N,Net-(J1-Pad1)*%
X125310000Y-57750000D02*
X135680000Y-68120000D01*
X125310000Y-54370000D02*
X125310000Y-57750000D01*
%TO.N,Net-(J1-Pad2)*%
X137680000Y-67180000D02*
X127850000Y-57350000D01*
X127850000Y-57350000D02*
X127850000Y-54370000D01*
X137680000Y-68120000D02*
X137680000Y-67180000D01*
%TO.N,Net-(J1-Pad3)*%
X139680000Y-66510000D02*
X130390000Y-57220000D01*
X130390000Y-57220000D02*
X130390000Y-54370000D01*
X139680000Y-68120000D02*
X139680000Y-66510000D01*
%TO.N,Net-(J1-Pad4)*%
X141680000Y-68120000D02*
X141680000Y-65870000D01*
X141680000Y-65870000D02*
X132930000Y-57120000D01*
X132930000Y-57120000D02*
X132930000Y-54370000D01*
%TO.N,Net-(J1-Pad5)*%
X135470000Y-56690000D02*
X135470000Y-54370000D01*
X143680000Y-68120000D02*
X143680000Y-64900000D01*
X143680000Y-64900000D02*
X135470000Y-56690000D01*
%TO.N,Net-(J1-Pad6)*%
X145680000Y-68120000D02*
X145680000Y-63850000D01*
X145680000Y-63850000D02*
X138010000Y-56180000D01*
X138010000Y-56180000D02*
X138010000Y-54370000D01*
D18*
%TO.N,Coil_IN*%
X99260000Y-130650000D02*
X118250000Y-111660000D01*
X118250000Y-99360000D02*
X121420000Y-96190000D01*
X114154000Y-131544800D02*
X124656000Y-106452799D01*
X115378000Y-131544800D02*
X125880000Y-106452799D01*
X118250000Y-111660000D02*
X118250000Y-99360000D01*
X125685201Y-103810000D02*
X124500000Y-103810000D01*
X128328000Y-106452799D02*
X125685201Y-103810000D01*
X112930000Y-131544800D02*
X123432000Y-106452799D01*
X121420000Y-96190000D02*
X124500000Y-96190000D01*
X116602000Y-131544800D02*
X127104000Y-106452799D01*
%TD*%
M02*
