%TF.GenerationSoftware,KiCad,Pcbnew,(6.0.5)*%
%TF.CreationDate,2022-08-19T16:14:06-07:00*%
%TF.ProjectId,Coil_Panels_Z,436f696c-5f50-4616-9e65-6c735f5a2e6b,rev?*%
%TF.SameCoordinates,Original*%
%TF.FileFunction,Profile,NP*%
%FSLAX46Y46*%
G04 Gerber Fmt 4.6, Leading zero omitted, Abs format (unit mm)*
G04 Created by KiCad (PCBNEW (6.0.5)) date 2022-08-19 16:14:06*
%MOMM*%
%LPD*%
G01*
G04 APERTURE LIST*
%TA.AperFunction,Profile*%
%ADD10C,0.050000*%
%TD*%
G04 APERTURE END LIST*
D10*
X121238000Y-46399200D02*
X109964000Y-46399200D01*
X173110000Y-45399200D02*
X121238000Y-45399200D01*
X184384000Y-56914800D02*
X184384000Y-46399200D01*
X130380000Y-105200000D02*
G75*
G03*
X131380000Y-106200000I1000000J0D01*
G01*
X121236000Y-142728000D02*
X121236000Y-141728000D01*
X170380000Y-82200000D02*
G75*
G03*
X169380000Y-81200000I-1000000J0D01*
G01*
X169380000Y-106200000D02*
G75*
G03*
X170380000Y-105200000I0J1000000D01*
G01*
X121238000Y-46399200D02*
X121238000Y-45399200D01*
X169380000Y-106200000D02*
X131380000Y-106200000D01*
X121236000Y-141728000D02*
X109962000Y-141728000D01*
X184382000Y-141728000D02*
X173108000Y-141728000D01*
X195656000Y-131212400D02*
X195658000Y-56914800D01*
X109962000Y-141728000D02*
X109962000Y-131212400D01*
X98690000Y-56914800D02*
X98688000Y-131212400D01*
X173110000Y-45399200D02*
X173110000Y-46399200D01*
X109964000Y-56914800D02*
X98690000Y-56914800D01*
X195658000Y-56914800D02*
X184384000Y-56914800D01*
X184384000Y-46399200D02*
X173110000Y-46399200D01*
X173108000Y-142728000D02*
X121236000Y-142728000D01*
X131380000Y-81200000D02*
G75*
G03*
X130380000Y-82200000I0J-1000000D01*
G01*
X170380000Y-82200000D02*
X170380000Y-105200000D01*
X195656000Y-131212400D02*
X184382000Y-131212400D01*
X109964000Y-56914800D02*
X109964000Y-46399200D01*
X109962000Y-131212400D02*
X98688000Y-131212400D01*
X173108000Y-141728000D02*
X173108000Y-142728000D01*
X169380000Y-81200000D02*
X131380000Y-81200000D01*
X130380000Y-82200000D02*
X130380000Y-105200000D01*
X184382000Y-141728000D02*
X184382000Y-131212400D01*
M02*
