%TF.GenerationSoftware,KiCad,Pcbnew,(6.0.5)*%
%TF.CreationDate,2022-08-19T16:14:06-07:00*%
%TF.ProjectId,Coil_Panels_Z,436f696c-5f50-4616-9e65-6c735f5a2e6b,rev?*%
%TF.SameCoordinates,Original*%
%TF.FileFunction,Copper,L2,Inr*%
%TF.FilePolarity,Positive*%
%FSLAX46Y46*%
G04 Gerber Fmt 4.6, Leading zero omitted, Abs format (unit mm)*
G04 Created by KiCad (PCBNEW (6.0.5)) date 2022-08-19 16:14:06*
%MOMM*%
%LPD*%
G01*
G04 APERTURE LIST*
%TA.AperFunction,ComponentPad*%
%ADD10C,2.600000*%
%TD*%
%TA.AperFunction,ComponentPad*%
%ADD11R,1.700000X1.700000*%
%TD*%
%TA.AperFunction,ComponentPad*%
%ADD12O,1.700000X1.700000*%
%TD*%
%TA.AperFunction,ViaPad*%
%ADD13C,0.650000*%
%TD*%
%TA.AperFunction,Conductor*%
%ADD14C,0.306000*%
%TD*%
G04 APERTURE END LIST*
D10*
%TO.N,unconnected-(H1-Pad1)*%
%TO.C,H1*%
X119708000Y-136558000D03*
%TD*%
%TO.N,Coil_IN*%
%TO.C,TP1*%
X124500000Y-96190000D03*
X124500000Y-103810000D03*
%TD*%
D11*
%TO.N,Net-(J1-Pad1)*%
%TO.C,J1*%
X125310000Y-54370000D03*
D12*
%TO.N,Net-(J1-Pad2)*%
X127850000Y-54370000D03*
%TO.N,Net-(J1-Pad3)*%
X130390000Y-54370000D03*
%TO.N,Net-(J1-Pad4)*%
X132930000Y-54370000D03*
%TO.N,Net-(J1-Pad5)*%
X135470000Y-54370000D03*
%TO.N,Net-(J1-Pad6)*%
X138010000Y-54370000D03*
%TD*%
D10*
%TO.N,unconnected-(H4-Pad1)*%
%TO.C,H4*%
X176382000Y-136558000D03*
%TD*%
%TO.N,unconnected-(H2-Pad1)*%
%TO.C,H2*%
X119708000Y-51558000D03*
%TD*%
%TO.N,unconnected-(H3-Pad1)*%
%TO.C,H3*%
X176382000Y-51558000D03*
%TD*%
D13*
%TO.N,Coil_IN*%
X124656000Y-106452799D03*
X125880000Y-106452799D03*
X112930000Y-131544800D03*
X128328000Y-106452799D03*
X115378000Y-131544800D03*
X116602000Y-131544800D03*
X99260000Y-130650000D03*
X114154000Y-131544800D03*
X123432000Y-106452799D03*
X127104000Y-106452799D03*
%TD*%
D14*
%TO.N,Coil_IN*%
X176428000Y-112266800D02*
X118536000Y-112266800D01*
X186832000Y-65970800D02*
X186832000Y-121446800D01*
X104460000Y-62910800D02*
X104460000Y-125118800D01*
X183160000Y-118998800D02*
X111804000Y-118998800D01*
X178876000Y-113490800D02*
X178264000Y-114102800D01*
X186219999Y-66582800D02*
X186219999Y-120834800D01*
X117312000Y-113490800D02*
X116700000Y-112878800D01*
X175204000Y-109818800D02*
X174592000Y-110430800D01*
X192340000Y-126954800D02*
X191728000Y-127566800D01*
X186220000Y-65358800D02*
X186832000Y-65970800D01*
X173368000Y-79434799D02*
X173368000Y-107982800D01*
X192952000Y-59850800D02*
X192952000Y-127566800D01*
X118536000Y-75762800D02*
X175816000Y-75762800D01*
X189892000Y-125730800D02*
X105072000Y-125730800D01*
X108744000Y-67194800D02*
X108744000Y-120834800D01*
X107520000Y-65970800D02*
X108132000Y-65358800D01*
X102011999Y-59238800D02*
X192340000Y-59238800D01*
X105072000Y-63522800D02*
X105072000Y-124506800D01*
X172144000Y-80658799D02*
X172144000Y-106758800D01*
X186832000Y-121446800D02*
X186220000Y-122058800D01*
X186219999Y-120834800D02*
X185608000Y-121446800D01*
X119148000Y-77598800D02*
X119148000Y-110430800D01*
X191728000Y-127566800D02*
X103236000Y-127566800D01*
X108132000Y-122670800D02*
X107520000Y-122058800D01*
X107520000Y-64746800D02*
X186832000Y-64746800D01*
X191728000Y-59850800D02*
X192340000Y-60462800D01*
X185608000Y-67194800D02*
X185608000Y-120222800D01*
X177652000Y-73926800D02*
X178264000Y-74538800D01*
X181324000Y-117162800D02*
X113640000Y-117162800D01*
X119760000Y-78210800D02*
X119760000Y-109818800D01*
X105684000Y-64134800D02*
X106296000Y-63522800D01*
X184996000Y-119610800D02*
X184384000Y-120222800D01*
X111804000Y-69030800D02*
X182548000Y-69030800D01*
X194176000Y-130014800D02*
X100788000Y-130014800D01*
X119148000Y-77598800D02*
X119760000Y-76986800D01*
X181936000Y-116550800D02*
X181324000Y-117162800D01*
X182548000Y-118386800D02*
X112416000Y-118386800D01*
X183772000Y-69030800D02*
X183772000Y-118386800D01*
X106296000Y-64746800D02*
X106296000Y-123282800D01*
X180100000Y-115938800D02*
X114864000Y-115938800D01*
X115476000Y-73926799D02*
X115476000Y-114102800D01*
X188056000Y-123894800D02*
X106908000Y-123894800D01*
X119760000Y-76986800D02*
X174592000Y-76986800D01*
X119760000Y-111042800D02*
X119148000Y-110430800D01*
X113028000Y-70254800D02*
X181324000Y-70254800D01*
X189892000Y-61686800D02*
X190504000Y-62298800D01*
X193563999Y-59238800D02*
X193563999Y-128178800D01*
X111192000Y-69642800D02*
X111192000Y-118386800D01*
X106908000Y-64134800D02*
X187444000Y-64134800D01*
X177040000Y-74538800D02*
X177652000Y-75150800D01*
X194788000Y-58014800D02*
X194788000Y-129402800D01*
X113028000Y-117774800D02*
X112416000Y-117162800D01*
X122820000Y-80046800D02*
X171532000Y-80046800D01*
X180099999Y-114714800D02*
X179487999Y-115326800D01*
X181324000Y-70254800D02*
X181936000Y-70866800D01*
X177040000Y-75762799D02*
X177040000Y-111654800D01*
X172144000Y-79434800D02*
X172755999Y-80046800D01*
X173980000Y-108594800D02*
X173368000Y-109206800D01*
X188668000Y-62910800D02*
X189279999Y-63522800D01*
X191116000Y-126954800D02*
X103848000Y-126954800D01*
X108744000Y-67194800D02*
X109356000Y-66582800D01*
X186832000Y-122670800D02*
X108132000Y-122670800D01*
X183159999Y-69642800D02*
X183159999Y-117774800D01*
X180712000Y-115326800D02*
X180100000Y-115938800D01*
X184996000Y-67806800D02*
X184996000Y-119610800D01*
X102624000Y-59850800D02*
X191728000Y-59850800D01*
X108132000Y-66582800D02*
X108743999Y-65970800D01*
X117924000Y-76374800D02*
X117924000Y-111654800D01*
X183772000Y-119610800D02*
X111192000Y-119610800D01*
X102624000Y-61074800D02*
X103236000Y-60462800D01*
X188056000Y-64746800D02*
X188056000Y-122670800D01*
X116088000Y-114714800D02*
X115476000Y-114102800D01*
X122208000Y-80658799D02*
X122820000Y-80046800D01*
X116088000Y-74538800D02*
X116088000Y-113490800D01*
X178264000Y-114102800D02*
X116700000Y-114102800D01*
X173980000Y-77598800D02*
X174592000Y-78210800D01*
X112416000Y-70866800D02*
X113028000Y-70254800D01*
X174592000Y-76986800D02*
X175204000Y-77598800D01*
X191728000Y-126342800D02*
X191116000Y-126954800D01*
X111192000Y-69642800D02*
X111804000Y-69030800D01*
X113640000Y-72090799D02*
X113640000Y-115938800D01*
X179487999Y-72090799D02*
X180099999Y-72702799D01*
X173368000Y-109206800D02*
X121596000Y-109206800D01*
X180712000Y-116550800D02*
X114252000Y-116550800D01*
X116088000Y-74538800D02*
X116700000Y-73926800D01*
X116088000Y-73314800D02*
X178264000Y-73314800D01*
X173980000Y-109818800D02*
X120984000Y-109818800D01*
X182548000Y-70254800D02*
X182548000Y-117162800D01*
X103848000Y-126954800D02*
X103236000Y-126342800D01*
X113028000Y-71478800D02*
X113640000Y-70866800D01*
X192951999Y-58626800D02*
X193563999Y-59238800D01*
X177652000Y-113490800D02*
X117312000Y-113490800D01*
X178876000Y-73926799D02*
X178876000Y-113490800D01*
X192952000Y-127566800D02*
X192340000Y-128178800D01*
X113028000Y-71478800D02*
X113028000Y-116550800D01*
X111804000Y-118998800D02*
X111192000Y-118386800D01*
X193564000Y-58014800D02*
X194176000Y-58626800D01*
X107520000Y-123282800D02*
X106908000Y-122670800D01*
X114864000Y-73314800D02*
X115475999Y-72702800D01*
X120372000Y-78822800D02*
X120984000Y-78210800D01*
X189892000Y-62910800D02*
X189892000Y-124506800D01*
X194176000Y-57402800D02*
X194788000Y-58014800D01*
X184384000Y-68418800D02*
X184384000Y-118998800D01*
X174592000Y-109206800D02*
X173980000Y-109818800D01*
X191116000Y-60462800D02*
X191728000Y-61074800D01*
X115476000Y-73926799D02*
X116088000Y-73314800D01*
X112416000Y-70866800D02*
X112416000Y-117162800D01*
X188056000Y-63522800D02*
X188668000Y-64134800D01*
X99564000Y-58014800D02*
X100176000Y-57402800D01*
X117924000Y-112878800D02*
X117312000Y-112266800D01*
X187444000Y-65358800D02*
X187444000Y-122058800D01*
X100176000Y-58626800D02*
X100176000Y-129402800D01*
X175204000Y-76374800D02*
X175816000Y-76986800D01*
X171532000Y-107370800D02*
X125268000Y-107370800D01*
X181324000Y-115938800D02*
X180712000Y-116550800D01*
X171532000Y-80046800D02*
X172144000Y-80658799D01*
X120984000Y-78210800D02*
X173368000Y-78210800D01*
X103236000Y-61686800D02*
X103236000Y-126342800D01*
X184384000Y-120222800D02*
X110580000Y-120222800D01*
X116700000Y-73926800D02*
X177652000Y-73926800D01*
X116700000Y-75150800D02*
X117312000Y-74538800D01*
X172144000Y-106758800D02*
X171532000Y-107370800D01*
X117312000Y-75762799D02*
X117924000Y-75150800D01*
X179487999Y-73314800D02*
X179487999Y-114102800D01*
X111804000Y-70254800D02*
X112415999Y-69642800D01*
X112415999Y-69642800D02*
X181936000Y-69642800D01*
X103236000Y-127566800D02*
X102624000Y-126954800D01*
X172756000Y-78822800D02*
X173368000Y-79434799D01*
X174592000Y-78210800D02*
X174592000Y-109206800D01*
X116700000Y-75150800D02*
X116700000Y-112878800D01*
X188056000Y-122670800D02*
X187444000Y-123282800D01*
X105684000Y-125118800D02*
X105072000Y-124506800D01*
X177040000Y-111654800D02*
X176428000Y-112266800D01*
X184996000Y-120834800D02*
X109968000Y-120834800D01*
X122208000Y-80658799D02*
X122208000Y-107370800D01*
X191116000Y-61686800D02*
X191116000Y-125730800D01*
X102012000Y-60462800D02*
X102624000Y-59850800D01*
X119148000Y-111654800D02*
X118536000Y-111042800D01*
X100788000Y-130014800D02*
X100176000Y-129402800D01*
X103848000Y-61074800D02*
X190504000Y-61074800D01*
X117312000Y-75762799D02*
X117312000Y-112266800D01*
X120984000Y-79434799D02*
X121596000Y-78822800D01*
X109356000Y-66582800D02*
X184996000Y-66582800D01*
X109968000Y-68418800D02*
X110580000Y-67806800D01*
X106296000Y-63522800D02*
X188056000Y-63522800D01*
X175816000Y-110430800D02*
X175204000Y-111042800D01*
X190504000Y-62298800D02*
X190504000Y-125118800D01*
X114864000Y-115938800D02*
X114252000Y-115326800D01*
X115475999Y-72702800D02*
X178876000Y-72702800D01*
X189279999Y-63522800D02*
X189279999Y-123894800D01*
X103236000Y-61686800D02*
X103848000Y-61074800D01*
X110580000Y-69030800D02*
X110580000Y-118998800D01*
X116700000Y-114102800D02*
X116088000Y-113490800D01*
X111804000Y-70254800D02*
X111804000Y-117774800D01*
X184384000Y-118998800D02*
X183772000Y-119610800D01*
X101400000Y-58626800D02*
X192951999Y-58626800D01*
X174592000Y-110430800D02*
X120372000Y-110430800D01*
X175204000Y-111042800D02*
X119760000Y-111042800D01*
X176427999Y-111042800D02*
X175816000Y-111654800D01*
X191728000Y-61074800D02*
X191728000Y-126342800D01*
X181324000Y-71478800D02*
X181324000Y-115938800D01*
X103848000Y-62298800D02*
X103848000Y-125730800D01*
X103236000Y-60462800D02*
X191116000Y-60462800D01*
X106296000Y-124506800D02*
X105684000Y-123894800D01*
X100788000Y-58014800D02*
X193564000Y-58014800D01*
X187444000Y-122058800D02*
X186832000Y-122670800D01*
X120372000Y-110430800D02*
X119760000Y-109818800D01*
X104460000Y-126342800D02*
X103848000Y-125730800D01*
X107520000Y-65970800D02*
X107520000Y-122058800D01*
X186832000Y-64746800D02*
X187444000Y-65358800D01*
X110580000Y-69030800D02*
X111192000Y-68418800D01*
X108743999Y-65970800D02*
X185608000Y-65970800D01*
X108132000Y-65358800D02*
X186220000Y-65358800D01*
X109356000Y-67806800D02*
X109968000Y-67194800D01*
X177652000Y-112266800D02*
X177040000Y-112878800D01*
X121596000Y-80046800D02*
X122207999Y-79434800D01*
X121596000Y-78822800D02*
X172756000Y-78822800D01*
X105072000Y-125730800D02*
X104460000Y-125118800D01*
X184384000Y-67194800D02*
X184996000Y-67806800D01*
X180099999Y-72702799D02*
X180099999Y-114714800D01*
X121596000Y-80046800D02*
X121596000Y-107982800D01*
X113640000Y-72090799D02*
X114252000Y-71478800D01*
X192951999Y-128790800D02*
X102012000Y-128790800D01*
X192340000Y-59238800D02*
X192952000Y-59850800D01*
X103848000Y-62298800D02*
X104460000Y-61686800D01*
X188668000Y-124506800D02*
X106296000Y-124506800D01*
X181936000Y-70866800D02*
X181936000Y-116550800D01*
X191116000Y-125730800D02*
X190504000Y-126342800D01*
X118536000Y-76986800D02*
X118536000Y-111042800D01*
X187444000Y-123282800D02*
X107520000Y-123282800D01*
X100176000Y-130626800D02*
X112012000Y-130626800D01*
X188668000Y-64134800D02*
X188668000Y-123282800D01*
X177652000Y-75150800D02*
X177652000Y-112266800D01*
X105683999Y-62910800D02*
X188668000Y-62910800D01*
X190504000Y-61074800D02*
X191116000Y-61686800D01*
X100176000Y-58626800D02*
X100788000Y-58014800D01*
X183772000Y-118386800D02*
X183160000Y-118998800D01*
X185608000Y-121446800D02*
X109356000Y-121446800D01*
X189892000Y-124506800D02*
X189280000Y-125118800D01*
X114864000Y-72090799D02*
X179487999Y-72090799D01*
X100176000Y-57402800D02*
X194176000Y-57402800D01*
X125268000Y-107370800D02*
X124656000Y-106452799D01*
X175816000Y-111654800D02*
X119148000Y-111654800D01*
X113640000Y-70866800D02*
X180712000Y-70866800D01*
X173368000Y-78210800D02*
X173980000Y-78822800D01*
X189280000Y-62298800D02*
X189892000Y-62910800D01*
X172755999Y-107370800D02*
X172144000Y-107982800D01*
X113640000Y-117162800D02*
X113028000Y-116550800D01*
X114252000Y-72702799D02*
X114252000Y-115326800D01*
X101400000Y-59850800D02*
X101400000Y-128178800D01*
X179487999Y-114102800D02*
X178876000Y-114714800D01*
X109968000Y-120834800D02*
X109356000Y-120222800D01*
X173368000Y-107982800D02*
X172756000Y-108594800D01*
X183160000Y-68418800D02*
X183772000Y-69030800D01*
X180100000Y-71478800D02*
X180712000Y-72090799D01*
X108744000Y-122058800D02*
X108132000Y-121446800D01*
X105072000Y-63522800D02*
X105683999Y-62910800D01*
X106908000Y-65358800D02*
X106908000Y-122670800D01*
X182548000Y-117162800D02*
X181936000Y-117774800D01*
X120984000Y-79434799D02*
X120984000Y-108594800D01*
X121596000Y-109206800D02*
X120984000Y-108594800D01*
X101400000Y-129402800D02*
X100788000Y-128790800D01*
X122208000Y-108594800D02*
X121596000Y-107982800D01*
X193564000Y-129402800D02*
X101400000Y-129402800D01*
X180712000Y-70866800D02*
X181324000Y-71478800D01*
X109968000Y-68418800D02*
X109968000Y-119610800D01*
X178876000Y-114714800D02*
X116088000Y-114714800D01*
X194176000Y-58626800D02*
X194176000Y-128790800D01*
X102624000Y-61074800D02*
X102624000Y-126954800D01*
X190504000Y-126342800D02*
X104460000Y-126342800D01*
X114252000Y-116550800D02*
X113640000Y-115938800D01*
X118536000Y-76986800D02*
X119148000Y-76374800D01*
X114252000Y-71478800D02*
X180100000Y-71478800D01*
X177040000Y-112878800D02*
X117924000Y-112878800D01*
X111192000Y-68418800D02*
X183160000Y-68418800D01*
X178264000Y-74538800D02*
X178264000Y-112878800D01*
X175816000Y-76986800D02*
X175816000Y-110430800D01*
X190504000Y-125118800D02*
X189892000Y-125730800D01*
X122820000Y-107982800D02*
X122208000Y-107370800D01*
X176428000Y-75150800D02*
X177040000Y-75762799D01*
X179487999Y-115326800D02*
X115476000Y-115326800D01*
X104460000Y-61686800D02*
X189892000Y-61686800D01*
X118536000Y-112266800D02*
X117924000Y-111654800D01*
X172756000Y-108594800D02*
X122208000Y-108594800D01*
X178264000Y-73314800D02*
X178876000Y-73926799D01*
X172755999Y-80046800D02*
X172755999Y-107370800D01*
X188668000Y-123282800D02*
X188056000Y-123894800D01*
X173980000Y-78822800D02*
X173980000Y-108594800D01*
X109356000Y-67806800D02*
X109356000Y-120222800D01*
X193563999Y-128178800D02*
X192951999Y-128790800D01*
X189279999Y-123894800D02*
X188668000Y-124506800D01*
X106908000Y-123894800D02*
X106296000Y-123282800D01*
X172144000Y-107982800D02*
X122820000Y-107982800D01*
X111192000Y-119610800D02*
X110580000Y-118998800D01*
X181936000Y-117774800D02*
X113028000Y-117774800D01*
X181936000Y-69642800D02*
X182548000Y-70254800D01*
X122207999Y-79434800D02*
X172144000Y-79434800D01*
X109356000Y-121446800D02*
X108744000Y-120834800D01*
X176427999Y-76374800D02*
X176427999Y-111042800D01*
X109968000Y-67194800D02*
X184384000Y-67194800D01*
X102624000Y-128178800D02*
X102012000Y-127566800D01*
X194788000Y-129402800D02*
X194176000Y-130014800D01*
X112416000Y-118386800D02*
X111804000Y-117774800D01*
X117924000Y-75150800D02*
X176428000Y-75150800D01*
X119760000Y-78210800D02*
X120372000Y-77598800D01*
X108132000Y-66582800D02*
X108132000Y-121446800D01*
X184996000Y-66582800D02*
X185608000Y-67194800D01*
X183159999Y-117774800D02*
X182548000Y-118386800D01*
X102012000Y-128790800D02*
X101400000Y-128178800D01*
X183772000Y-67806800D02*
X184384000Y-68418800D01*
X182548000Y-69030800D02*
X183159999Y-69642800D01*
X106908000Y-65358800D02*
X107520000Y-64746800D01*
X120372000Y-78822800D02*
X120372000Y-109206800D01*
X105072000Y-62298800D02*
X189280000Y-62298800D01*
X104460000Y-62910800D02*
X105072000Y-62298800D01*
X114864000Y-73314800D02*
X114864000Y-114714800D01*
X189280000Y-125118800D02*
X105684000Y-125118800D01*
X115476000Y-115326800D02*
X114864000Y-114714800D01*
X178264000Y-112878800D02*
X177652000Y-113490800D01*
X101400000Y-59850800D02*
X102011999Y-59238800D01*
X192340000Y-128178800D02*
X102624000Y-128178800D01*
X178876000Y-72702800D02*
X179487999Y-73314800D01*
X186220000Y-122058800D02*
X108744000Y-122058800D01*
X120984000Y-109818800D02*
X120372000Y-109206800D01*
X110580000Y-120222800D02*
X109968000Y-119610800D01*
X102012000Y-60462800D02*
X102012000Y-127566800D01*
X120372000Y-77598800D02*
X173980000Y-77598800D01*
X185608000Y-120222800D02*
X184996000Y-120834800D01*
X175816000Y-75762800D02*
X176427999Y-76374800D01*
X117312000Y-74538800D02*
X177040000Y-74538800D01*
X99564000Y-58014800D02*
X99564000Y-130014800D01*
X180712000Y-72090799D02*
X180712000Y-115326800D01*
X112012000Y-130626800D02*
X112930000Y-131544800D01*
X100788000Y-59238800D02*
X101400000Y-58626800D01*
X106296000Y-64746800D02*
X106908000Y-64134800D01*
X175204000Y-77598800D02*
X175204000Y-109818800D01*
X110580000Y-67806800D02*
X183772000Y-67806800D01*
X194176000Y-128790800D02*
X193564000Y-129402800D01*
X117924000Y-76374800D02*
X118536000Y-75762800D01*
X187444000Y-64134800D02*
X188056000Y-64746800D01*
X114252000Y-72702799D02*
X114864000Y-72090799D01*
X185608000Y-65970800D02*
X186219999Y-66582800D01*
X192340000Y-60462800D02*
X192340000Y-126954800D01*
X119148000Y-76374800D02*
X175204000Y-76374800D01*
X105684000Y-64134800D02*
X105684000Y-123894800D01*
X99564000Y-130014800D02*
X100176000Y-130626800D01*
X100788000Y-59238800D02*
X100788000Y-128790800D01*
%TD*%
M02*
