G04 #@! TF.GenerationSoftware,KiCad,Pcbnew,(6.0.5)*
G04 #@! TF.CreationDate,2023-05-08T02:17:39-07:00*
G04 #@! TF.ProjectId,X_Y_Panels,585f595f-5061-46e6-956c-732e6b696361,rev?*
G04 #@! TF.SameCoordinates,Original*
G04 #@! TF.FileFunction,Legend,Bot*
G04 #@! TF.FilePolarity,Positive*
%FSLAX46Y46*%
G04 Gerber Fmt 4.6, Leading zero omitted, Abs format (unit mm)*
G04 Created by KiCad (PCBNEW (6.0.5)) date 2023-05-08 02:17:39*
%MOMM*%
%LPD*%
G01*
G04 APERTURE LIST*
%ADD10C,0.150000*%
%ADD11C,0.127000*%
%ADD12C,0.010000*%
%ADD13C,3.000000*%
%ADD14R,1.700000X1.700000*%
%ADD15O,1.700000X1.700000*%
%ADD16C,3.800000*%
%ADD17C,2.600000*%
G04 APERTURE END LIST*
D10*
X147498380Y-93252666D02*
X148212666Y-93252666D01*
X148355523Y-93205047D01*
X148450761Y-93109809D01*
X148498380Y-92966952D01*
X148498380Y-92871714D01*
X147593619Y-93681238D02*
X147546000Y-93728857D01*
X147498380Y-93824095D01*
X147498380Y-94062190D01*
X147546000Y-94157428D01*
X147593619Y-94205047D01*
X147688857Y-94252666D01*
X147784095Y-94252666D01*
X147926952Y-94205047D01*
X148498380Y-93633619D01*
X148498380Y-94252666D01*
G36*
X152162667Y-51031133D02*
G01*
X152122403Y-51151516D01*
X152039898Y-51241620D01*
X151928590Y-51285068D01*
X151921339Y-51285820D01*
X151841353Y-51289171D01*
X151714886Y-51289991D01*
X151557815Y-51288307D01*
X151386014Y-51284146D01*
X151243951Y-51279712D01*
X151085370Y-51274949D01*
X150965871Y-51272178D01*
X150870280Y-51271544D01*
X150783424Y-51273188D01*
X150690131Y-51277255D01*
X150575225Y-51283888D01*
X150423535Y-51293230D01*
X150028744Y-51317447D01*
X149991845Y-51175279D01*
X149983430Y-51143553D01*
X149945242Y-51008076D01*
X149896336Y-50842983D01*
X149842402Y-50666681D01*
X149789126Y-50497574D01*
X149742196Y-50354068D01*
X149707302Y-50254567D01*
X149686987Y-50199469D01*
X149642513Y-50073681D01*
X149599327Y-49946394D01*
X149596956Y-49939286D01*
X150452065Y-49939286D01*
X150557653Y-50291563D01*
X150592656Y-50403890D01*
X150646883Y-50564776D01*
X150698927Y-50705955D01*
X150741156Y-50806036D01*
X150819072Y-50968233D01*
X151063453Y-50977587D01*
X151084186Y-50978310D01*
X151200758Y-50979565D01*
X151287500Y-50975857D01*
X151326941Y-50967834D01*
X151326917Y-50960100D01*
X151313773Y-50904084D01*
X151285786Y-50805123D01*
X151247033Y-50676077D01*
X151201595Y-50529808D01*
X151153549Y-50379175D01*
X151106976Y-50237041D01*
X151065954Y-50116265D01*
X151034562Y-50029710D01*
X151016879Y-49990234D01*
X151010668Y-49988842D01*
X150956424Y-49982531D01*
X150858713Y-49973211D01*
X150732513Y-49962351D01*
X150452065Y-49939286D01*
X149596956Y-49939286D01*
X149573248Y-49868216D01*
X149526569Y-49729900D01*
X149471469Y-49567821D01*
X149415086Y-49403035D01*
X149289762Y-49038092D01*
X150173253Y-49038092D01*
X150233016Y-49273277D01*
X150269190Y-49406884D01*
X150308124Y-49536568D01*
X150340667Y-49631503D01*
X150355148Y-49668195D01*
X150381736Y-49722276D01*
X150404015Y-49726363D01*
X150434973Y-49688272D01*
X150446878Y-49672850D01*
X150475670Y-49649816D01*
X150521569Y-49634987D01*
X150596517Y-49626590D01*
X150712454Y-49622852D01*
X150881319Y-49622000D01*
X150947353Y-49622347D01*
X151182612Y-49631790D01*
X151367147Y-49656262D01*
X151511522Y-49698604D01*
X151626300Y-49761660D01*
X151722042Y-49848271D01*
X151726629Y-49853485D01*
X151785605Y-49937191D01*
X151852796Y-50055070D01*
X151919756Y-50189238D01*
X151978040Y-50321809D01*
X152019203Y-50434900D01*
X152034801Y-50510626D01*
X152039557Y-50541326D01*
X152063085Y-50623373D01*
X152099680Y-50724938D01*
X152121298Y-50785984D01*
X152152355Y-50903703D01*
X152160699Y-50967834D01*
X152164559Y-50997498D01*
X152162667Y-51031133D01*
G37*
G36*
X149554651Y-50518618D02*
G01*
X149610687Y-50691518D01*
X149656648Y-50846581D01*
X149687740Y-50969723D01*
X149699169Y-51046856D01*
X149699055Y-51055988D01*
X149669932Y-51173189D01*
X149590743Y-51249699D01*
X149463432Y-51283564D01*
X149418339Y-51285839D01*
X149307738Y-51288933D01*
X149150706Y-51291831D01*
X148957933Y-51294376D01*
X148740111Y-51296408D01*
X148507932Y-51297768D01*
X147689748Y-51301139D01*
X147591521Y-51148065D01*
X147551726Y-51083501D01*
X147509619Y-51007148D01*
X147493267Y-50965393D01*
X147493675Y-50964285D01*
X147531438Y-50955058D01*
X147624538Y-50947209D01*
X147764406Y-50941124D01*
X147942471Y-50937190D01*
X148150163Y-50935793D01*
X148807087Y-50935793D01*
X148799172Y-50854695D01*
X148793752Y-50789746D01*
X148786879Y-50731715D01*
X148771625Y-50689379D01*
X148739922Y-50660285D01*
X148683700Y-50641980D01*
X148594891Y-50632009D01*
X148465426Y-50627918D01*
X148287237Y-50627255D01*
X148052255Y-50627566D01*
X147347317Y-50627512D01*
X147255491Y-50349176D01*
X147243356Y-50311386D01*
X147199628Y-50158374D01*
X147164942Y-50011821D01*
X147153917Y-49946394D01*
X147972664Y-49946394D01*
X147994223Y-50068041D01*
X147996761Y-50082132D01*
X148015555Y-50176569D01*
X148031763Y-50244266D01*
X148034977Y-50252766D01*
X148059234Y-50276544D01*
X148112633Y-50292270D01*
X148207085Y-50302339D01*
X148354500Y-50309145D01*
X148433011Y-50311542D01*
X148550394Y-50314057D01*
X148631152Y-50314345D01*
X148661183Y-50312261D01*
X148652418Y-50289248D01*
X148623649Y-50221433D01*
X148581797Y-50125735D01*
X148502484Y-49946394D01*
X147972664Y-49946394D01*
X147153917Y-49946394D01*
X147145925Y-49898961D01*
X147128186Y-49727081D01*
X147253971Y-49682650D01*
X147301971Y-49670106D01*
X147390231Y-49657779D01*
X147516537Y-49648745D01*
X147687591Y-49642686D01*
X147910092Y-49639284D01*
X148190740Y-49638220D01*
X148227341Y-49638224D01*
X148494004Y-49638974D01*
X148704970Y-49642372D01*
X148868426Y-49650352D01*
X148992558Y-49664852D01*
X149085551Y-49687807D01*
X149155592Y-49721153D01*
X149210866Y-49766826D01*
X149259560Y-49826762D01*
X149309858Y-49902897D01*
X149325620Y-49930353D01*
X149374023Y-50033748D01*
X149431526Y-50175647D01*
X149482294Y-50312261D01*
X149493333Y-50341966D01*
X149554651Y-50518618D01*
G37*
G36*
X129057027Y-46157245D02*
G01*
X129196720Y-46160244D01*
X129462863Y-46169131D01*
X129675886Y-46184457D01*
X129843890Y-46210317D01*
X129974974Y-46250805D01*
X130077239Y-46310017D01*
X130158786Y-46392047D01*
X130227716Y-46500990D01*
X130292127Y-46640942D01*
X130360122Y-46815998D01*
X130414254Y-46964369D01*
X130493644Y-47205204D01*
X130542158Y-47396956D01*
X130559539Y-47544991D01*
X130545530Y-47654671D01*
X130499874Y-47731363D01*
X130422312Y-47780429D01*
X130312589Y-47807234D01*
X130219003Y-47815835D01*
X130078239Y-47822992D01*
X129905639Y-47828383D01*
X129715013Y-47831900D01*
X129520170Y-47833437D01*
X129334919Y-47832885D01*
X129173071Y-47830138D01*
X129048433Y-47825088D01*
X128974816Y-47817628D01*
X128920529Y-47799306D01*
X128850608Y-47743134D01*
X128776425Y-47639211D01*
X128736177Y-47569665D01*
X128705464Y-47505033D01*
X128703109Y-47479501D01*
X128716623Y-47479271D01*
X128785520Y-47479152D01*
X128901226Y-47479417D01*
X129051942Y-47480032D01*
X129225870Y-47480965D01*
X129300484Y-47481365D01*
X129469022Y-47481450D01*
X129584911Y-47479183D01*
X129657161Y-47473520D01*
X129694781Y-47463415D01*
X129706780Y-47447823D01*
X129702166Y-47425699D01*
X129690294Y-47389553D01*
X129665063Y-47298999D01*
X129637604Y-47189050D01*
X129637142Y-47187099D01*
X129594756Y-47041515D01*
X129535012Y-46876072D01*
X129468692Y-46718433D01*
X129406575Y-46596258D01*
X129349557Y-46550238D01*
X129237085Y-46515969D01*
X129082025Y-46498586D01*
X128895053Y-46499234D01*
X128686847Y-46519059D01*
X128564160Y-46536370D01*
X128463619Y-46546026D01*
X128403839Y-46535504D01*
X128371712Y-46496606D01*
X128354128Y-46421136D01*
X128337978Y-46300895D01*
X128316417Y-46142626D01*
X129057027Y-46157245D01*
G37*
G36*
X146846794Y-49821165D02*
G01*
X146947332Y-50020331D01*
X146790492Y-49999966D01*
X146739443Y-49994178D01*
X146611738Y-49982665D01*
X146455277Y-49970983D01*
X146293039Y-49960936D01*
X145952426Y-49942272D01*
X146260599Y-50236743D01*
X146296782Y-50271233D01*
X146446536Y-50412853D01*
X146620079Y-50575644D01*
X146798698Y-50742096D01*
X146963679Y-50894695D01*
X147059438Y-50984036D01*
X147176214Y-51096774D01*
X147267433Y-51189439D01*
X147325528Y-51254272D01*
X147342926Y-51283511D01*
X147320768Y-51288639D01*
X147241671Y-51294357D01*
X147114311Y-51299071D01*
X146948040Y-51302779D01*
X146752208Y-51305479D01*
X146536167Y-51307167D01*
X146309268Y-51307843D01*
X146080863Y-51307503D01*
X145860302Y-51306145D01*
X145656937Y-51303769D01*
X145480120Y-51300370D01*
X145339201Y-51295947D01*
X145243533Y-51290497D01*
X145202465Y-51284020D01*
X145180388Y-51259856D01*
X145134561Y-51189535D01*
X145082661Y-51094597D01*
X144999152Y-50929006D01*
X145394691Y-50941624D01*
X145548873Y-50946917D01*
X145700565Y-50952871D01*
X145821910Y-50958420D01*
X145895657Y-50962833D01*
X145904090Y-50963464D01*
X145972734Y-50963409D01*
X146000665Y-50953609D01*
X145999627Y-50951692D01*
X145967526Y-50917521D01*
X145894944Y-50846258D01*
X145787863Y-50743605D01*
X145652264Y-50615262D01*
X145494129Y-50466931D01*
X145319439Y-50304314D01*
X145282802Y-50270294D01*
X145110924Y-50109680D01*
X144956868Y-49964082D01*
X144826623Y-49839278D01*
X144726176Y-49741047D01*
X144661517Y-49675168D01*
X144638633Y-49647417D01*
X144650893Y-49643550D01*
X144718594Y-49637731D01*
X144838812Y-49632558D01*
X145003925Y-49628215D01*
X145206315Y-49624885D01*
X145438361Y-49622752D01*
X145692444Y-49622000D01*
X146746255Y-49622000D01*
X146846794Y-49821165D01*
G37*
G36*
X142373565Y-53678128D02*
G01*
X142416538Y-53709357D01*
X142421735Y-53721809D01*
X142404147Y-53741796D01*
X142394632Y-53740585D01*
X142351659Y-53709357D01*
X142346463Y-53696904D01*
X142364050Y-53676917D01*
X142373565Y-53678128D01*
G37*
G36*
X157096514Y-50639806D02*
G01*
X157146538Y-50818149D01*
X157180123Y-50967997D01*
X157192159Y-51074023D01*
X157189875Y-51118842D01*
X157162698Y-51201211D01*
X157095351Y-51250237D01*
X156975950Y-51277079D01*
X156931780Y-51280937D01*
X156818616Y-51286264D01*
X156659088Y-51290823D01*
X156464307Y-51294380D01*
X156245384Y-51296696D01*
X156013433Y-51297536D01*
X155805202Y-51297179D01*
X155592069Y-51295413D01*
X155430885Y-51291812D01*
X155314411Y-51285982D01*
X155235404Y-51277531D01*
X155186625Y-51266064D01*
X155160833Y-51251188D01*
X155134959Y-51217862D01*
X155089141Y-51145930D01*
X155040733Y-51061684D01*
X155002385Y-50987361D01*
X154986748Y-50945196D01*
X154989123Y-50944435D01*
X155035974Y-50942355D01*
X155135517Y-50941391D01*
X155278184Y-50941544D01*
X155454407Y-50942813D01*
X155654617Y-50945197D01*
X156322517Y-50954601D01*
X156301014Y-50847879D01*
X156290170Y-50789591D01*
X156278004Y-50731311D01*
X156259918Y-50688874D01*
X156227493Y-50659791D01*
X156172308Y-50641575D01*
X156085944Y-50631738D01*
X155959980Y-50627791D01*
X155785997Y-50627248D01*
X155555574Y-50627620D01*
X154863606Y-50627620D01*
X154778918Y-50392435D01*
X154758346Y-50332837D01*
X154709449Y-50171271D01*
X154706602Y-50160008D01*
X155505995Y-50160008D01*
X155525500Y-50251914D01*
X155527644Y-50256769D01*
X155552545Y-50279909D01*
X155606643Y-50294115D01*
X155701804Y-50301261D01*
X155849894Y-50303226D01*
X155926426Y-50302671D01*
X156043742Y-50299257D01*
X156124522Y-50293421D01*
X156154597Y-50285965D01*
X156142817Y-50234175D01*
X156101079Y-50145464D01*
X156044316Y-50057911D01*
X155988609Y-49999292D01*
X155982187Y-49995133D01*
X155894989Y-49964396D01*
X155775908Y-49947833D01*
X155653699Y-49947658D01*
X155557122Y-49966084D01*
X155531178Y-49991641D01*
X155508790Y-50065090D01*
X155505995Y-50160008D01*
X154706602Y-50160008D01*
X154668516Y-50009355D01*
X154640399Y-49867487D01*
X154629948Y-49766065D01*
X154632159Y-49750018D01*
X154657580Y-49716465D01*
X154715710Y-49689854D01*
X154811898Y-49669536D01*
X154951494Y-49654862D01*
X155139847Y-49645184D01*
X155382308Y-49639853D01*
X155684226Y-49638220D01*
X155699021Y-49638221D01*
X155947854Y-49638557D01*
X156140868Y-49639936D01*
X156286667Y-49642979D01*
X156393857Y-49648305D01*
X156471044Y-49656535D01*
X156526833Y-49668290D01*
X156569829Y-49684189D01*
X156608637Y-49704852D01*
X156618452Y-49710843D01*
X156714680Y-49787599D01*
X156792838Y-49876506D01*
X156834256Y-49948013D01*
X156898924Y-50087072D01*
X156967597Y-50258941D01*
X156977240Y-50285965D01*
X157035164Y-50448295D01*
X157096514Y-50639806D01*
G37*
G36*
X135607324Y-47730008D02*
G01*
X135659657Y-47902303D01*
X135707410Y-48074695D01*
X135746534Y-48231796D01*
X135772979Y-48358215D01*
X135782694Y-48438562D01*
X135766521Y-48448631D01*
X135709705Y-48463730D01*
X135683151Y-48467214D01*
X135592945Y-48473575D01*
X135466227Y-48478868D01*
X135321575Y-48482206D01*
X135179757Y-48483586D01*
X135071725Y-48476486D01*
X135002463Y-48450024D01*
X134958235Y-48393571D01*
X134925305Y-48296499D01*
X134889939Y-48148176D01*
X134871919Y-48071813D01*
X134836270Y-47937841D01*
X134803158Y-47853574D01*
X134765885Y-47809242D01*
X134717749Y-47795077D01*
X134652052Y-47801308D01*
X134605265Y-47807266D01*
X134479834Y-47815448D01*
X134320329Y-47819995D01*
X134146520Y-47820898D01*
X133978175Y-47818150D01*
X133835065Y-47811743D01*
X133736960Y-47801669D01*
X133635292Y-47777183D01*
X133522758Y-47725591D01*
X133424597Y-47644704D01*
X133335777Y-47527588D01*
X133251262Y-47367305D01*
X133166021Y-47156921D01*
X133075019Y-46889497D01*
X133018502Y-46702443D01*
X132979011Y-46527374D01*
X133812531Y-46527374D01*
X133820209Y-46588052D01*
X133846374Y-46690379D01*
X133886406Y-46821375D01*
X133935686Y-46968059D01*
X133989592Y-47117453D01*
X134043505Y-47256574D01*
X134092805Y-47372444D01*
X134132870Y-47452081D01*
X134159081Y-47482506D01*
X134204935Y-47485869D01*
X134335117Y-47491093D01*
X134461865Y-47491062D01*
X134569838Y-47486311D01*
X134643692Y-47477374D01*
X134668085Y-47464784D01*
X134656108Y-47428441D01*
X134630574Y-47345177D01*
X134598656Y-47237709D01*
X134596042Y-47228830D01*
X134547920Y-47076871D01*
X134493081Y-46920618D01*
X134436792Y-46773297D01*
X134384317Y-46648138D01*
X134340922Y-46558367D01*
X134311871Y-46517213D01*
X134308576Y-46515579D01*
X134254322Y-46506056D01*
X134161300Y-46500510D01*
X134050217Y-46498919D01*
X133941778Y-46501264D01*
X133856690Y-46507526D01*
X133815659Y-46517685D01*
X133812531Y-46527374D01*
X132979011Y-46527374D01*
X132977852Y-46522238D01*
X132972318Y-46387281D01*
X133006764Y-46291454D01*
X133086059Y-46228639D01*
X133215069Y-46192718D01*
X133398659Y-46177573D01*
X133641698Y-46177086D01*
X133654430Y-46177308D01*
X133835520Y-46180456D01*
X134009270Y-46183442D01*
X134156504Y-46185939D01*
X134258045Y-46187620D01*
X134305255Y-46187665D01*
X134439908Y-46184216D01*
X134601761Y-46176835D01*
X134765451Y-46166572D01*
X135094441Y-46142656D01*
X135147009Y-46333350D01*
X135157643Y-46371236D01*
X135213065Y-46556478D01*
X135285409Y-46784309D01*
X135369908Y-47040229D01*
X135461794Y-47309734D01*
X135516350Y-47464784D01*
X135556300Y-47578322D01*
X135607324Y-47730008D01*
G37*
G36*
X158615703Y-49889625D02*
G01*
X158626771Y-49932626D01*
X158706687Y-50212786D01*
X158800899Y-50502082D01*
X158901075Y-50776138D01*
X158998882Y-51010579D01*
X159012385Y-51040540D01*
X159060325Y-51151458D01*
X159093916Y-51236447D01*
X159106576Y-51279094D01*
X159106450Y-51279981D01*
X159071320Y-51292034D01*
X158978359Y-51299872D01*
X158834090Y-51303175D01*
X158645035Y-51301627D01*
X158183494Y-51292626D01*
X158146646Y-51130429D01*
X158127479Y-51050580D01*
X158079921Y-50875634D01*
X158025491Y-50697945D01*
X157969651Y-50533981D01*
X157917863Y-50400210D01*
X157875587Y-50313099D01*
X157817255Y-50229059D01*
X157744101Y-50162299D01*
X157652066Y-50125248D01*
X157526262Y-50112363D01*
X157351800Y-50118100D01*
X157059768Y-50137019D01*
X157025068Y-50049816D01*
X156996793Y-49969572D01*
X156966762Y-49865295D01*
X156945132Y-49782102D01*
X156919743Y-49694989D01*
X156913697Y-49674720D01*
X156913183Y-49644915D01*
X156939736Y-49629189D01*
X157005960Y-49623049D01*
X157124457Y-49622000D01*
X157241448Y-49626796D01*
X157442949Y-49658634D01*
X157614156Y-49716418D01*
X157738882Y-49795574D01*
X157814739Y-49865295D01*
X157792041Y-49743648D01*
X157769343Y-49622000D01*
X158548000Y-49622000D01*
X158615703Y-49889625D01*
G37*
G36*
X142620719Y-51149797D02*
G01*
X142594065Y-51212561D01*
X142538464Y-51255423D01*
X142444955Y-51282529D01*
X142304576Y-51298025D01*
X142108364Y-51306054D01*
X141929948Y-51310515D01*
X142089838Y-51392614D01*
X142335951Y-51534113D01*
X142597031Y-51716762D01*
X142835925Y-51917143D01*
X143039119Y-52123828D01*
X143193095Y-52325391D01*
X143246552Y-52403769D01*
X143332360Y-52509236D01*
X143439145Y-52616567D01*
X143578150Y-52736765D01*
X143760618Y-52880836D01*
X143766811Y-52885588D01*
X143853537Y-52950459D01*
X143910036Y-52986297D01*
X143935686Y-52988727D01*
X143929864Y-52953376D01*
X143891947Y-52875870D01*
X143821312Y-52751833D01*
X143717337Y-52576893D01*
X143698377Y-52545197D01*
X143542221Y-52281443D01*
X143421334Y-52071787D01*
X143335714Y-51916268D01*
X143285359Y-51814928D01*
X143270268Y-51767807D01*
X143290441Y-51774945D01*
X143345877Y-51836384D01*
X143436573Y-51952163D01*
X143562530Y-52122323D01*
X143723745Y-52346904D01*
X143836002Y-52504166D01*
X143946637Y-52657581D01*
X144042507Y-52788934D01*
X144116075Y-52887901D01*
X144159805Y-52944160D01*
X144238747Y-53038606D01*
X144259964Y-52425131D01*
X144266406Y-52251327D01*
X144275423Y-52036896D01*
X144284878Y-51837909D01*
X144293979Y-51670835D01*
X144301935Y-51552141D01*
X144322689Y-51292626D01*
X143937302Y-51301707D01*
X143788502Y-51303250D01*
X143657392Y-51300758D01*
X143563038Y-51294656D01*
X143519476Y-51285488D01*
X143490478Y-51253369D01*
X143430965Y-51179295D01*
X143350449Y-51075061D01*
X143257832Y-50952013D01*
X143093127Y-50730728D01*
X142945188Y-50532457D01*
X142823364Y-50369897D01*
X142721175Y-50234465D01*
X142632147Y-50117581D01*
X142549800Y-50010664D01*
X142467660Y-49905131D01*
X142413095Y-49834727D01*
X142339660Y-49737662D01*
X142289273Y-49668018D01*
X142270561Y-49637507D01*
X142296770Y-49629986D01*
X142371610Y-49624211D01*
X142478035Y-49622000D01*
X142685509Y-49622000D01*
X142792912Y-49792307D01*
X142820916Y-49835127D01*
X142895589Y-49943727D01*
X142994380Y-50083101D01*
X143107738Y-50239843D01*
X143226114Y-50400544D01*
X143551915Y-50838475D01*
X143589388Y-50514082D01*
X143595170Y-50460991D01*
X143611904Y-50270190D01*
X143624273Y-50073443D01*
X143629937Y-49905844D01*
X143633013Y-49622000D01*
X144582112Y-49622000D01*
X144562061Y-49776087D01*
X144552277Y-49862287D01*
X144538739Y-49999118D01*
X144523789Y-50163333D01*
X144509246Y-50335666D01*
X144495245Y-50491526D01*
X144475972Y-50672468D01*
X144455832Y-50833421D01*
X144437434Y-50952013D01*
X144422857Y-51065478D01*
X144410790Y-51237205D01*
X144402552Y-51447185D01*
X144398264Y-51681685D01*
X144398047Y-51926970D01*
X144402021Y-52169307D01*
X144410308Y-52394962D01*
X144423027Y-52590200D01*
X144430408Y-52679328D01*
X144440569Y-52812919D01*
X144447283Y-52915938D01*
X144449373Y-52971362D01*
X144450095Y-53001208D01*
X144457532Y-53028131D01*
X144459189Y-53027114D01*
X144486830Y-52993507D01*
X144539511Y-52921918D01*
X144607585Y-52825385D01*
X144664470Y-52743506D01*
X144814900Y-52528664D01*
X144958675Y-52325608D01*
X145090766Y-52141276D01*
X145206144Y-51982605D01*
X145299780Y-51856532D01*
X145366645Y-51769996D01*
X145401708Y-51729934D01*
X145403910Y-51739716D01*
X145379083Y-51796382D01*
X145330525Y-51892715D01*
X145262959Y-52020227D01*
X145181108Y-52170432D01*
X145089693Y-52334843D01*
X144993437Y-52504972D01*
X144897062Y-52672333D01*
X144805290Y-52828439D01*
X144722844Y-52964802D01*
X144654447Y-53072935D01*
X144593156Y-53166398D01*
X144672663Y-53143817D01*
X144719590Y-53128512D01*
X144818695Y-53091853D01*
X144930587Y-53047127D01*
X145041386Y-53001258D01*
X145300144Y-52894991D01*
X145577335Y-52782102D01*
X145844743Y-52674103D01*
X145965807Y-52628376D01*
X146070354Y-52594675D01*
X146143350Y-52577229D01*
X146177332Y-52577212D01*
X146164837Y-52595799D01*
X146098403Y-52634165D01*
X145840508Y-52765492D01*
X145580610Y-52898907D01*
X145345539Y-53020690D01*
X145140819Y-53127926D01*
X144971976Y-53217699D01*
X144844534Y-53287094D01*
X144764017Y-53333197D01*
X144735951Y-53353091D01*
X144748996Y-53360906D01*
X144813174Y-53379751D01*
X144918791Y-53403994D01*
X145052234Y-53430312D01*
X145095583Y-53438357D01*
X145286249Y-53475030D01*
X145486740Y-53515186D01*
X145660194Y-53551478D01*
X145706108Y-53561210D01*
X145860679Y-53591652D01*
X146004258Y-53616877D01*
X146110731Y-53632206D01*
X146159897Y-53638444D01*
X146264860Y-53656404D01*
X146337552Y-53675035D01*
X146405511Y-53700175D01*
X146334280Y-53722782D01*
X146281956Y-53730154D01*
X146205056Y-53714627D01*
X146203221Y-53713708D01*
X146140130Y-53698141D01*
X146035104Y-53686222D01*
X145909874Y-53680468D01*
X145834719Y-53677791D01*
X145687940Y-53668199D01*
X145511903Y-53653343D01*
X145322269Y-53634867D01*
X145134701Y-53614418D01*
X144964862Y-53593641D01*
X144828412Y-53574180D01*
X144741015Y-53557681D01*
X144691235Y-53552164D01*
X144674952Y-53569025D01*
X144692435Y-53589883D01*
X144751718Y-53650956D01*
X144846543Y-53745011D01*
X144970413Y-53865680D01*
X145116834Y-54006598D01*
X145279309Y-54161398D01*
X145415000Y-54290294D01*
X145591021Y-54458686D01*
X145722445Y-54586487D01*
X145811122Y-54675824D01*
X145858898Y-54728823D01*
X145867623Y-54747610D01*
X145839144Y-54734310D01*
X145775311Y-54691051D01*
X145677970Y-54619957D01*
X145609831Y-54568160D01*
X145503394Y-54485785D01*
X145370688Y-54382256D01*
X145222780Y-54266288D01*
X145070738Y-54146593D01*
X144925629Y-54031885D01*
X144798522Y-53930878D01*
X144700485Y-53852285D01*
X144642585Y-53804819D01*
X144602336Y-53772564D01*
X144561413Y-53753673D01*
X144553931Y-53785928D01*
X144575639Y-53873702D01*
X144602933Y-53980453D01*
X144622788Y-54084607D01*
X144627488Y-54112123D01*
X144648306Y-54209129D01*
X144679550Y-54339185D01*
X144716435Y-54481989D01*
X144736614Y-54559705D01*
X144763369Y-54672985D01*
X144778201Y-54750881D01*
X144778298Y-54779855D01*
X144774431Y-54786864D01*
X144796576Y-54823389D01*
X144812972Y-54848548D01*
X144816129Y-54883500D01*
X144815188Y-54884815D01*
X144814866Y-54928735D01*
X144828903Y-55015963D01*
X144853315Y-55129351D01*
X144884116Y-55251749D01*
X144917320Y-55366006D01*
X144948942Y-55454975D01*
X144954901Y-55469559D01*
X144983403Y-55550615D01*
X144994479Y-55602910D01*
X144988037Y-55612189D01*
X144964984Y-55579304D01*
X144929940Y-55506960D01*
X144887883Y-55407611D01*
X144843793Y-55293711D01*
X144802650Y-55177714D01*
X144769433Y-55072074D01*
X144749122Y-54989247D01*
X144741505Y-54957818D01*
X144711233Y-54865774D01*
X144669891Y-54760880D01*
X144650927Y-54714774D01*
X144606499Y-54593685D01*
X144575340Y-54491160D01*
X144573649Y-54484497D01*
X144546675Y-54391304D01*
X144506413Y-54265051D01*
X144460912Y-54131068D01*
X144451858Y-54105272D01*
X144410426Y-53986952D01*
X144377670Y-53892986D01*
X144360018Y-53841799D01*
X144354550Y-53829274D01*
X144326680Y-53818185D01*
X144294856Y-53857249D01*
X144268757Y-53936432D01*
X144263497Y-53957018D01*
X144238360Y-54039601D01*
X144197764Y-54164255D01*
X144145978Y-54318010D01*
X144087270Y-54487901D01*
X144057643Y-54572859D01*
X144002710Y-54731946D01*
X143957113Y-54866040D01*
X143924935Y-54963078D01*
X143910259Y-55010996D01*
X143900190Y-55044999D01*
X143870490Y-55124626D01*
X143831745Y-55216914D01*
X143792102Y-55303585D01*
X143759709Y-55366358D01*
X143742710Y-55386954D01*
X143742168Y-55385930D01*
X143746799Y-55345858D01*
X143766042Y-55261978D01*
X143796162Y-55150782D01*
X143829570Y-55026401D01*
X143858660Y-54902203D01*
X143875122Y-54812294D01*
X143883530Y-54762429D01*
X143908952Y-54643951D01*
X143946823Y-54484940D01*
X143993887Y-54298512D01*
X144046888Y-54097787D01*
X144102572Y-53895883D01*
X144116963Y-53841020D01*
X144131057Y-53769707D01*
X144129385Y-53741796D01*
X144113567Y-53750782D01*
X144054105Y-53792833D01*
X143960258Y-53862469D01*
X143841813Y-53952135D01*
X143708557Y-54054281D01*
X143570276Y-54161352D01*
X143436758Y-54265796D01*
X143317788Y-54360062D01*
X143223154Y-54436596D01*
X143162643Y-54487846D01*
X143136849Y-54510426D01*
X143038179Y-54591412D01*
X142936119Y-54669438D01*
X142806913Y-54763635D01*
X142881478Y-54666317D01*
X142892201Y-54653314D01*
X142951823Y-54588781D01*
X143047637Y-54490570D01*
X143171539Y-54366807D01*
X143315423Y-54225616D01*
X143471183Y-54075125D01*
X143594732Y-53955871D01*
X143747693Y-53804504D01*
X143855853Y-53691301D01*
X143921554Y-53613376D01*
X143947141Y-53567842D01*
X143934957Y-53551810D01*
X143887345Y-53562395D01*
X143870629Y-53567633D01*
X143777170Y-53587223D01*
X143641962Y-53606828D01*
X143476804Y-53625608D01*
X143293494Y-53642720D01*
X143103832Y-53657323D01*
X142919614Y-53668576D01*
X142752639Y-53675637D01*
X142614707Y-53677665D01*
X142517615Y-53673818D01*
X142473161Y-53663255D01*
X142471623Y-53660634D01*
X142496965Y-53649217D01*
X142565218Y-53644693D01*
X142588652Y-53643830D01*
X142686026Y-53633960D01*
X142819155Y-53615669D01*
X142968010Y-53592220D01*
X143112559Y-53566878D01*
X143232772Y-53542905D01*
X143308620Y-53523566D01*
X143311075Y-53522189D01*
X143289379Y-53508847D01*
X143215800Y-53487561D01*
X143100520Y-53460967D01*
X142953717Y-53431700D01*
X142935947Y-53428400D01*
X142783285Y-53401642D01*
X142655475Y-53381965D01*
X142565448Y-53371200D01*
X142526137Y-53371178D01*
X142519740Y-53373955D01*
X142484815Y-53358023D01*
X142449145Y-53338296D01*
X142377146Y-53327064D01*
X142353815Y-53325150D01*
X142261836Y-53310994D01*
X142135457Y-53286396D01*
X141994827Y-53255147D01*
X141939905Y-53242374D01*
X141796771Y-53210786D01*
X141672570Y-53185605D01*
X141589335Y-53171382D01*
X141557837Y-53166316D01*
X141454140Y-53144955D01*
X141318746Y-53113278D01*
X141172698Y-53076095D01*
X141093251Y-53055887D01*
X140971819Y-53028816D01*
X140882404Y-53013833D01*
X140840195Y-53013787D01*
X140829505Y-53017899D01*
X140810791Y-52995691D01*
X140808883Y-52983788D01*
X140782602Y-52976845D01*
X140772272Y-52978723D01*
X140709886Y-52971293D01*
X140607973Y-52949206D01*
X140482538Y-52915723D01*
X140441851Y-52904084D01*
X140306245Y-52866822D01*
X140189530Y-52836882D01*
X140113345Y-52819883D01*
X140087490Y-52814696D01*
X139979782Y-52788485D01*
X139823490Y-52746438D01*
X139628273Y-52691265D01*
X139403788Y-52625674D01*
X139159697Y-52552376D01*
X139108209Y-52536783D01*
X138988236Y-52501007D01*
X138897154Y-52474634D01*
X138851523Y-52462494D01*
X138820063Y-52453981D01*
X138734138Y-52427545D01*
X138610635Y-52388024D01*
X138463211Y-52339915D01*
X138305525Y-52287718D01*
X138151234Y-52235931D01*
X138013996Y-52189051D01*
X137907470Y-52151577D01*
X137618517Y-52035011D01*
X137232725Y-51842763D01*
X136828342Y-51600756D01*
X136399041Y-51305440D01*
X136280710Y-51221363D01*
X136136994Y-51122296D01*
X136001130Y-51031214D01*
X135814208Y-50904946D01*
X135616717Y-50764573D01*
X135434209Y-50628006D01*
X135276662Y-50502940D01*
X135154053Y-50397068D01*
X135076360Y-50318084D01*
X135055318Y-50290995D01*
X134962109Y-50133306D01*
X134883703Y-49943236D01*
X134829653Y-49747473D01*
X134809514Y-49572702D01*
X134819379Y-49437243D01*
X134883938Y-49204118D01*
X135003278Y-48992104D01*
X135171069Y-48811184D01*
X135380983Y-48671343D01*
X135422004Y-48651605D01*
X135593619Y-48582069D01*
X135806291Y-48510307D01*
X136042213Y-48441617D01*
X136283578Y-48381298D01*
X136512579Y-48334647D01*
X136558892Y-48326865D01*
X136640927Y-48315106D01*
X136730253Y-48305483D01*
X136833271Y-48297838D01*
X136956376Y-48292015D01*
X137105969Y-48287857D01*
X137288446Y-48285207D01*
X137510205Y-48283909D01*
X137777645Y-48283806D01*
X138097164Y-48284740D01*
X138475159Y-48286556D01*
X138534241Y-48286865D01*
X138935195Y-48288387D01*
X139275599Y-48288515D01*
X139559254Y-48287186D01*
X139789960Y-48284336D01*
X139971519Y-48279900D01*
X140107732Y-48273815D01*
X140202399Y-48266016D01*
X140259322Y-48256439D01*
X140359512Y-48222368D01*
X140505578Y-48139138D01*
X140610903Y-48032834D01*
X140667492Y-47912639D01*
X140667351Y-47787737D01*
X140667035Y-47786505D01*
X140621531Y-47698893D01*
X140531501Y-47590322D01*
X140408806Y-47471395D01*
X140265309Y-47352714D01*
X140112869Y-47244879D01*
X139963348Y-47158493D01*
X139907214Y-47130836D01*
X139793262Y-47077549D01*
X139706056Y-47040647D01*
X139661031Y-47026853D01*
X139615859Y-47016314D01*
X139528708Y-46986802D01*
X139420211Y-46944972D01*
X139316653Y-46905431D01*
X139206765Y-46868782D01*
X139130774Y-46849471D01*
X139106356Y-46844816D01*
X139015218Y-46823012D01*
X138890210Y-46789737D01*
X138750893Y-46750107D01*
X138544312Y-46689638D01*
X138304586Y-46620237D01*
X138117050Y-46567090D01*
X137975961Y-46528605D01*
X137875576Y-46503190D01*
X137810152Y-46489251D01*
X137737158Y-46473284D01*
X137622106Y-46443726D01*
X137496045Y-46408193D01*
X137492367Y-46407109D01*
X137381095Y-46376201D01*
X137295108Y-46355721D01*
X137252750Y-46350052D01*
X137236266Y-46350808D01*
X137177585Y-46338011D01*
X137110760Y-46320408D01*
X136982699Y-46298850D01*
X136820154Y-46279131D01*
X136639924Y-46262960D01*
X136458811Y-46252045D01*
X136293613Y-46248095D01*
X135977330Y-46248309D01*
X135977330Y-46395328D01*
X135965072Y-46536506D01*
X135924317Y-46665314D01*
X135860592Y-46751885D01*
X135779699Y-46788750D01*
X135687440Y-46768443D01*
X135669843Y-46756109D01*
X135607756Y-46697395D01*
X135525085Y-46607085D01*
X135434810Y-46499022D01*
X135384184Y-46435919D01*
X135265416Y-46289051D01*
X135135870Y-46130011D01*
X135015755Y-45983654D01*
X134940518Y-45888781D01*
X134850501Y-45764900D01*
X134781713Y-45658067D01*
X134744917Y-45584157D01*
X134738872Y-45564637D01*
X134721130Y-45403796D01*
X134762641Y-45263505D01*
X134859315Y-45151685D01*
X135007065Y-45076257D01*
X135018229Y-45073194D01*
X135100203Y-45060366D01*
X135222410Y-45049592D01*
X135369860Y-45041274D01*
X135527563Y-45035816D01*
X135680529Y-45033620D01*
X135813769Y-45035089D01*
X135912292Y-45040626D01*
X135961110Y-45050632D01*
X135964054Y-45052195D01*
X136017798Y-45065125D01*
X136114979Y-45078832D01*
X136236845Y-45090597D01*
X136373561Y-45105558D01*
X136537462Y-45131800D01*
X136674776Y-45161969D01*
X136765349Y-45185340D01*
X136876162Y-45211106D01*
X136952248Y-45225446D01*
X136954196Y-45225713D01*
X137034642Y-45243654D01*
X137162375Y-45279733D01*
X137324340Y-45329706D01*
X137507484Y-45389327D01*
X137698752Y-45454349D01*
X137885091Y-45520527D01*
X138053447Y-45583615D01*
X138132239Y-45614118D01*
X138276392Y-45669652D01*
X138400997Y-45717326D01*
X138485600Y-45749299D01*
X138546000Y-45773395D01*
X138686340Y-45835064D01*
X138863580Y-45917530D01*
X139065025Y-46014495D01*
X139277978Y-46119658D01*
X139489745Y-46226720D01*
X139687630Y-46329381D01*
X139858938Y-46421341D01*
X139990974Y-46496300D01*
X140009623Y-46507430D01*
X140415927Y-46769703D01*
X140761642Y-47033463D01*
X141046069Y-47297886D01*
X141268506Y-47562144D01*
X141428256Y-47825412D01*
X141524619Y-48086864D01*
X141556896Y-48345674D01*
X141554874Y-48410165D01*
X141530789Y-48538038D01*
X141473355Y-48631628D01*
X141374880Y-48697027D01*
X141227673Y-48740323D01*
X141024042Y-48767610D01*
X140794571Y-48788472D01*
X140535057Y-49038533D01*
X140505201Y-49067068D01*
X140307640Y-49241565D01*
X140136521Y-49364301D01*
X139986107Y-49438884D01*
X139850659Y-49468921D01*
X139829142Y-49470644D01*
X139743035Y-49482335D01*
X139691634Y-49496902D01*
X139691213Y-49497111D01*
X139649587Y-49501612D01*
X139550825Y-49506002D01*
X139402325Y-49510136D01*
X139211487Y-49513868D01*
X138985711Y-49517052D01*
X138732395Y-49519543D01*
X138458939Y-49521195D01*
X138187432Y-49522768D01*
X137922603Y-49525158D01*
X137680932Y-49528190D01*
X137470762Y-49531723D01*
X137300439Y-49535616D01*
X137178305Y-49539728D01*
X137112707Y-49543918D01*
X136889815Y-49576079D01*
X136602061Y-49637231D01*
X136367813Y-49713471D01*
X136190519Y-49803594D01*
X136073631Y-49906396D01*
X136067170Y-49915223D01*
X136028676Y-50019293D01*
X136023927Y-50152232D01*
X136051317Y-50291174D01*
X136109239Y-50413256D01*
X136109951Y-50414289D01*
X136190419Y-50502367D01*
X136315157Y-50605583D01*
X136469119Y-50713391D01*
X136637259Y-50815246D01*
X136804533Y-50900603D01*
X136905138Y-50945163D01*
X137066841Y-51013070D01*
X137230143Y-51078054D01*
X137379815Y-51134273D01*
X137500630Y-51175887D01*
X137577359Y-51197054D01*
X137598083Y-51201409D01*
X137689281Y-51226215D01*
X137793320Y-51259970D01*
X137834620Y-51274432D01*
X137906992Y-51299094D01*
X137938768Y-51308846D01*
X137939197Y-51306505D01*
X137932607Y-51262599D01*
X137915418Y-51174567D01*
X137890515Y-51057441D01*
X137871512Y-50974748D01*
X137845428Y-50873315D01*
X137812859Y-50760329D01*
X137770687Y-50625901D01*
X137715790Y-50460138D01*
X137645048Y-50253152D01*
X137555341Y-49995053D01*
X137553165Y-49988820D01*
X137511068Y-49866694D01*
X137475649Y-49761353D01*
X137454377Y-49694989D01*
X137432728Y-49622000D01*
X138341426Y-49622000D01*
X138362855Y-49776087D01*
X138365495Y-49793537D01*
X138394808Y-49931721D01*
X138441832Y-50106831D01*
X138500296Y-50299100D01*
X138563932Y-50488759D01*
X138626468Y-50656040D01*
X138681637Y-50781177D01*
X138765581Y-50946834D01*
X139009718Y-50957533D01*
X139135252Y-50961133D01*
X139209647Y-50956823D01*
X139244898Y-50942374D01*
X139253778Y-50915591D01*
X139250822Y-50893884D01*
X139228711Y-50807561D01*
X139186028Y-50666260D01*
X139124011Y-50473870D01*
X139043898Y-50234285D01*
X138946929Y-49951396D01*
X138939403Y-49929469D01*
X138901352Y-49812114D01*
X138874561Y-49718615D01*
X138864431Y-49667552D01*
X138875638Y-49648834D01*
X138915768Y-49635684D01*
X138993804Y-49627455D01*
X139118725Y-49623207D01*
X139299511Y-49622000D01*
X139734590Y-49622000D01*
X139756596Y-49759867D01*
X139762597Y-49790093D01*
X139788749Y-49892945D01*
X139829525Y-50035707D01*
X139880653Y-50203716D01*
X139937864Y-50382305D01*
X140009499Y-50608976D01*
X140059522Y-50791719D01*
X140086525Y-50931409D01*
X140091601Y-51036539D01*
X140075847Y-51115603D01*
X140040357Y-51177096D01*
X140015611Y-51202956D01*
X139948148Y-51244524D01*
X139850451Y-51272582D01*
X139713998Y-51288396D01*
X139530264Y-51293231D01*
X139290728Y-51288351D01*
X139249661Y-51286938D01*
X139087240Y-51281406D01*
X138949059Y-51276785D01*
X138848653Y-51273523D01*
X138799552Y-51272068D01*
X138766215Y-51272039D01*
X138667952Y-51274975D01*
X138541468Y-51281071D01*
X138402268Y-51289302D01*
X138265857Y-51298643D01*
X138147741Y-51308067D01*
X138063425Y-51316551D01*
X138028413Y-51323067D01*
X138028220Y-51323270D01*
X138045452Y-51339531D01*
X138106388Y-51357448D01*
X138124608Y-51361507D01*
X138214124Y-51384007D01*
X138337992Y-51417305D01*
X138475159Y-51455788D01*
X138519515Y-51468354D01*
X138655639Y-51505237D01*
X138772331Y-51534546D01*
X138848211Y-51550835D01*
X138859697Y-51552866D01*
X138947265Y-51571620D01*
X139069976Y-51600999D01*
X139205044Y-51635593D01*
X139216904Y-51638714D01*
X139369094Y-51675999D01*
X139521563Y-51709227D01*
X139642975Y-51731530D01*
X139680747Y-51737606D01*
X139812312Y-51761135D01*
X139970712Y-51791772D01*
X140129565Y-51824476D01*
X140194636Y-51838032D01*
X140348219Y-51867805D01*
X140485791Y-51891708D01*
X140583716Y-51905522D01*
X140640391Y-51912707D01*
X140765028Y-51931749D01*
X140918156Y-51957597D01*
X141078647Y-51986783D01*
X141195833Y-52007389D01*
X141327237Y-52026433D01*
X141425741Y-52035963D01*
X141476029Y-52034153D01*
X141500723Y-52029192D01*
X141524456Y-52047656D01*
X141526997Y-52054115D01*
X141570143Y-52073015D01*
X141649760Y-52081471D01*
X141663389Y-52081887D01*
X141764991Y-52091069D01*
X141899849Y-52109554D01*
X142042615Y-52133954D01*
X142084634Y-52141844D01*
X142206191Y-52163714D01*
X142298834Y-52178973D01*
X142345183Y-52184708D01*
X142346645Y-52180609D01*
X142320327Y-52141905D01*
X142258090Y-52068909D01*
X142166973Y-51969663D01*
X142054017Y-51852205D01*
X142018019Y-51815220D01*
X141898487Y-51688233D01*
X141794999Y-51572164D01*
X141717611Y-51478551D01*
X141676381Y-51418934D01*
X141624928Y-51318167D01*
X141187478Y-51301474D01*
X141161314Y-51300446D01*
X140953178Y-51288552D01*
X140796725Y-51269271D01*
X140680098Y-51238254D01*
X140591436Y-51191153D01*
X140518882Y-51123622D01*
X140450575Y-51031312D01*
X140439578Y-51013601D01*
X140384801Y-50904269D01*
X140321432Y-50752421D01*
X140255156Y-50574629D01*
X140191656Y-50387461D01*
X140136617Y-50207489D01*
X140095723Y-50051281D01*
X140081425Y-49972641D01*
X140918143Y-49972641D01*
X140923101Y-50003162D01*
X140929490Y-50022065D01*
X140951047Y-50103890D01*
X140972877Y-50205908D01*
X141000973Y-50318920D01*
X141045893Y-50459648D01*
X141100329Y-50608006D01*
X141157461Y-50746486D01*
X141210469Y-50857582D01*
X141252534Y-50923786D01*
X141275054Y-50944334D01*
X141328893Y-50968861D01*
X141414598Y-50981114D01*
X141548555Y-50984452D01*
X141789674Y-50984452D01*
X141766667Y-50846585D01*
X141745207Y-50749685D01*
X141708312Y-50617001D01*
X141664825Y-50481643D01*
X141659855Y-50467334D01*
X141592420Y-50278004D01*
X141536071Y-50141178D01*
X141482030Y-50048335D01*
X141421518Y-49990955D01*
X141345758Y-49960519D01*
X141245972Y-49948505D01*
X141113382Y-49946394D01*
X141005053Y-49947982D01*
X140941299Y-49955489D01*
X140918143Y-49972641D01*
X140081425Y-49972641D01*
X140074656Y-49935407D01*
X140071645Y-49903974D01*
X140069329Y-49810955D01*
X140086711Y-49751901D01*
X140129375Y-49703099D01*
X140141920Y-49692402D01*
X140168733Y-49675367D01*
X140205865Y-49662326D01*
X140261110Y-49652748D01*
X140342263Y-49646102D01*
X140457118Y-49641857D01*
X140613469Y-49639483D01*
X140819110Y-49638447D01*
X141081835Y-49638220D01*
X141259805Y-49638300D01*
X141506337Y-49639554D01*
X141700623Y-49643771D01*
X141850530Y-49652749D01*
X141963929Y-49668287D01*
X142048686Y-49692187D01*
X142112671Y-49726247D01*
X142163752Y-49772266D01*
X142209798Y-49832046D01*
X142258676Y-49907385D01*
X142304663Y-49988857D01*
X142380170Y-50153717D01*
X142454383Y-50347676D01*
X142521757Y-50553307D01*
X142576747Y-50753187D01*
X142613808Y-50929890D01*
X142619254Y-50984452D01*
X142627394Y-51065992D01*
X142620719Y-51149797D01*
G37*
G36*
X153385445Y-49719003D02*
G01*
X153446760Y-49760431D01*
X153514724Y-49798592D01*
X153548018Y-49806442D01*
X153548695Y-49805628D01*
X153534417Y-49777173D01*
X153481166Y-49734399D01*
X153480627Y-49734045D01*
X153421725Y-49686687D01*
X153397253Y-49649793D01*
X153398468Y-49647499D01*
X153440525Y-49637469D01*
X153534877Y-49630749D01*
X153671037Y-49627828D01*
X153838519Y-49629195D01*
X154279784Y-49638220D01*
X154353778Y-49930174D01*
X154425073Y-50192022D01*
X154561735Y-50610139D01*
X154712818Y-50978762D01*
X154728007Y-51012046D01*
X154777204Y-51126221D01*
X154811625Y-51216161D01*
X154824584Y-51264755D01*
X154812614Y-51282474D01*
X154769855Y-51295254D01*
X154687787Y-51303358D01*
X154557901Y-51307612D01*
X154371684Y-51308846D01*
X153918783Y-51308846D01*
X153886543Y-51187198D01*
X153880194Y-51162915D01*
X153849987Y-51042109D01*
X153820929Y-50919574D01*
X153820032Y-50915706D01*
X153794954Y-50823574D01*
X153756203Y-50698198D01*
X153708527Y-50553163D01*
X153656676Y-50402055D01*
X153605399Y-50258460D01*
X153559445Y-50135964D01*
X153523563Y-50048152D01*
X153502502Y-50008612D01*
X153497981Y-50005940D01*
X153443749Y-49992428D01*
X153346226Y-49977839D01*
X153222835Y-49964895D01*
X153110940Y-49955701D01*
X153029068Y-49952403D01*
X152988812Y-49959803D01*
X152977741Y-49980641D01*
X152983428Y-50017657D01*
X152992151Y-50056825D01*
X153066566Y-50334558D01*
X153163106Y-50625714D01*
X153270182Y-50894844D01*
X153306932Y-50978940D01*
X153360000Y-51102916D01*
X153399858Y-51199224D01*
X153419890Y-51252077D01*
X153420232Y-51253214D01*
X153421759Y-51275104D01*
X153405026Y-51290381D01*
X153360710Y-51300220D01*
X153279488Y-51305795D01*
X153152038Y-51308279D01*
X152969037Y-51308846D01*
X152500815Y-51308846D01*
X152443630Y-51057441D01*
X152406185Y-50908043D01*
X152357895Y-50738778D01*
X152311337Y-50595180D01*
X152293942Y-50545813D01*
X152227940Y-50347036D01*
X152176838Y-50173809D01*
X152143832Y-50037641D01*
X152132119Y-49950041D01*
X152134769Y-49917317D01*
X152166265Y-49816352D01*
X152221377Y-49724521D01*
X152285006Y-49669528D01*
X152292927Y-49666963D01*
X152360035Y-49656502D01*
X152474674Y-49646029D01*
X152623073Y-49636634D01*
X152791454Y-49629409D01*
X153239933Y-49614504D01*
X153385445Y-49719003D01*
G37*
G36*
X128438122Y-47314344D02*
G01*
X128475178Y-47441609D01*
X128500349Y-47542603D01*
X128508595Y-47609942D01*
X128501562Y-47658617D01*
X128480898Y-47703616D01*
X128474687Y-47714408D01*
X128442668Y-47755230D01*
X128395791Y-47780396D01*
X128317396Y-47795882D01*
X128190822Y-47807663D01*
X128097477Y-47813377D01*
X127942435Y-47819621D01*
X127758156Y-47824557D01*
X127555095Y-47828151D01*
X127343709Y-47830372D01*
X127134451Y-47831186D01*
X126937776Y-47830561D01*
X126764140Y-47828464D01*
X126623999Y-47824861D01*
X126527805Y-47819721D01*
X126486016Y-47813011D01*
X126465536Y-47791923D01*
X126417452Y-47725449D01*
X126361286Y-47635091D01*
X126271804Y-47481004D01*
X127607981Y-47481004D01*
X127607538Y-47408016D01*
X127604074Y-47355986D01*
X127587535Y-47262039D01*
X127587206Y-47260812D01*
X127579266Y-47237166D01*
X127564355Y-47219385D01*
X127534200Y-47206633D01*
X127480529Y-47198074D01*
X127395068Y-47192872D01*
X127269547Y-47190192D01*
X127095691Y-47189196D01*
X126865230Y-47189050D01*
X126162484Y-47189050D01*
X126057092Y-46872767D01*
X126026269Y-46777041D01*
X125972822Y-46580177D01*
X125961758Y-46507824D01*
X126766180Y-46507824D01*
X126786414Y-46613252D01*
X126807776Y-46706092D01*
X126833459Y-46791668D01*
X126847505Y-46821873D01*
X126874323Y-46845264D01*
X126925089Y-46858114D01*
X127013444Y-46863540D01*
X127153028Y-46864657D01*
X127218936Y-46863891D01*
X127335329Y-46858142D01*
X127415762Y-46847991D01*
X127445785Y-46834907D01*
X127442054Y-46816196D01*
X127419064Y-46748387D01*
X127382059Y-46656490D01*
X127318333Y-46507824D01*
X126766180Y-46507824D01*
X125961758Y-46507824D01*
X125950147Y-46431891D01*
X125957662Y-46326439D01*
X125994785Y-46258076D01*
X126019438Y-46238359D01*
X126081819Y-46210099D01*
X126175257Y-46188393D01*
X126306503Y-46172533D01*
X126482306Y-46161808D01*
X126709418Y-46155509D01*
X126994588Y-46152925D01*
X127262653Y-46154220D01*
X127478760Y-46161038D01*
X127647846Y-46174934D01*
X127778838Y-46197447D01*
X127880662Y-46230119D01*
X127962243Y-46274491D01*
X128032507Y-46332104D01*
X128040782Y-46340555D01*
X128105364Y-46434463D01*
X128179925Y-46584937D01*
X128261929Y-46785837D01*
X128279323Y-46834907D01*
X128348840Y-47031020D01*
X128438122Y-47314344D01*
G37*
G36*
X133064110Y-47642457D02*
G01*
X133064742Y-47649693D01*
X133066565Y-47711272D01*
X133048686Y-47747224D01*
X132996548Y-47770723D01*
X132895593Y-47794941D01*
X132751637Y-47814596D01*
X132548521Y-47822533D01*
X132295465Y-47817981D01*
X132111697Y-47810849D01*
X131956957Y-47805653D01*
X131833481Y-47803283D01*
X131723737Y-47803853D01*
X131610193Y-47807473D01*
X131475318Y-47814256D01*
X131301580Y-47824312D01*
X130924042Y-47846566D01*
X130886636Y-47672149D01*
X130884615Y-47663009D01*
X130857730Y-47559179D01*
X130815742Y-47414185D01*
X130764001Y-47245978D01*
X130707860Y-47072508D01*
X130697590Y-47041348D01*
X130694865Y-47032625D01*
X131518256Y-47032625D01*
X131528661Y-47073308D01*
X131559760Y-47154947D01*
X131605726Y-47262039D01*
X131703997Y-47481004D01*
X131959182Y-47481004D01*
X131992156Y-47480757D01*
X132105288Y-47475645D01*
X132184518Y-47465279D01*
X132214367Y-47451451D01*
X132207674Y-47421247D01*
X132182849Y-47344229D01*
X132145989Y-47243216D01*
X132077611Y-47064534D01*
X131803927Y-47041736D01*
X131755673Y-47037919D01*
X131638286Y-47030529D01*
X131554115Y-47028028D01*
X131518849Y-47031006D01*
X131518256Y-47032625D01*
X130694865Y-47032625D01*
X130645536Y-46874706D01*
X130602186Y-46721864D01*
X130571814Y-46598623D01*
X130558691Y-46520785D01*
X130554644Y-46437955D01*
X130557428Y-46359285D01*
X130574317Y-46297547D01*
X130611659Y-46250566D01*
X130675799Y-46216165D01*
X130773084Y-46192170D01*
X130909860Y-46176405D01*
X131092474Y-46166693D01*
X131327272Y-46160860D01*
X131620600Y-46156729D01*
X132470384Y-46146246D01*
X132553231Y-46309737D01*
X132587213Y-46379124D01*
X132622425Y-46458156D01*
X132636078Y-46499507D01*
X132634596Y-46501251D01*
X132591105Y-46508180D01*
X132494512Y-46513011D01*
X132354492Y-46515546D01*
X132180715Y-46515585D01*
X131982854Y-46512930D01*
X131329630Y-46500074D01*
X131390836Y-46582779D01*
X131407314Y-46604189D01*
X131445222Y-46642778D01*
X131493064Y-46669610D01*
X131561826Y-46686827D01*
X131662496Y-46696569D01*
X131806062Y-46700979D01*
X132003511Y-46702198D01*
X132011063Y-46702215D01*
X132183049Y-46705409D01*
X132342706Y-46713215D01*
X132472520Y-46724493D01*
X132554980Y-46738103D01*
X132662242Y-46781183D01*
X132805416Y-46891384D01*
X132909989Y-47043812D01*
X132919283Y-47064528D01*
X132964471Y-47190870D01*
X133008440Y-47347828D01*
X133031524Y-47451451D01*
X133044037Y-47507618D01*
X133064110Y-47642457D01*
G37*
G36*
X150420987Y-141770148D02*
G01*
X150433487Y-142565696D01*
X150745987Y-142164907D01*
X151058487Y-141764119D01*
X151114737Y-141767133D01*
X151170987Y-141770148D01*
X151174253Y-142279523D01*
X151177518Y-142788898D01*
X151052575Y-142788898D01*
X151049281Y-142378086D01*
X151045987Y-141967275D01*
X150723248Y-142378086D01*
X150400508Y-142788898D01*
X150302237Y-142788898D01*
X150302237Y-141762528D01*
X150420987Y-141770148D01*
G37*
G36*
X134495987Y-141770148D02*
G01*
X134508487Y-142565696D01*
X134820987Y-142164907D01*
X135133487Y-141764119D01*
X135189737Y-141767133D01*
X135245987Y-141770148D01*
X135249253Y-142279523D01*
X135252518Y-142788898D01*
X135127575Y-142788898D01*
X135124281Y-142378086D01*
X135120987Y-141967275D01*
X134798248Y-142378086D01*
X134475508Y-142788898D01*
X134377237Y-142788898D01*
X134377237Y-141762528D01*
X134495987Y-141770148D01*
G37*
G36*
X142620987Y-143982648D02*
G01*
X142430362Y-143986098D01*
X142239737Y-143989549D01*
X142239737Y-145013898D01*
X142102237Y-145013898D01*
X142102237Y-143988898D01*
X141714737Y-143988898D01*
X141714737Y-143863898D01*
X142628607Y-143863898D01*
X142620987Y-143982648D01*
G37*
G36*
X153300835Y-131649893D02*
G01*
X153300143Y-131734393D01*
X153298644Y-131806835D01*
X153296276Y-131870369D01*
X153292975Y-131928147D01*
X153288678Y-131983320D01*
X153283323Y-132039040D01*
X153278965Y-132081560D01*
X153271661Y-132154675D01*
X153265295Y-132220670D01*
X153260433Y-132273632D01*
X153257640Y-132307648D01*
X153256770Y-132318993D01*
X153250758Y-132378541D01*
X153241413Y-132455350D01*
X153229599Y-132543523D01*
X153216180Y-132637166D01*
X153202019Y-132730382D01*
X153187980Y-132817276D01*
X153174928Y-132891954D01*
X153163727Y-132948519D01*
X153161890Y-132957101D01*
X153152984Y-133003679D01*
X153146533Y-133044755D01*
X153145381Y-133052845D01*
X153137105Y-133096387D01*
X153126188Y-133141384D01*
X153122741Y-133154196D01*
X153113371Y-133192623D01*
X153108005Y-133220148D01*
X153104258Y-133243198D01*
X153095431Y-133289841D01*
X153083321Y-133349855D01*
X153069247Y-133417057D01*
X153054528Y-133485261D01*
X153040484Y-133548283D01*
X153028434Y-133599940D01*
X153019698Y-133634048D01*
X153013161Y-133657474D01*
X153002729Y-133697095D01*
X152996444Y-133724029D01*
X152993247Y-133738192D01*
X152983894Y-133774094D01*
X152971929Y-133816379D01*
X152966302Y-133835577D01*
X152951614Y-133885976D01*
X152934079Y-133946401D01*
X152916370Y-134007648D01*
X152906351Y-134041644D01*
X152888692Y-134098623D01*
X152872614Y-134147198D01*
X152860658Y-134179523D01*
X152856094Y-134190733D01*
X152847031Y-134216221D01*
X152845631Y-134226398D01*
X152845666Y-134226402D01*
X152843390Y-134237808D01*
X152834082Y-134268078D01*
X152819210Y-134312666D01*
X152800241Y-134367023D01*
X152781661Y-134419728D01*
X152762297Y-134475659D01*
X152746907Y-134521191D01*
X152737737Y-134549761D01*
X152727316Y-134582645D01*
X152699033Y-134661540D01*
X152661485Y-134757268D01*
X152616256Y-134866346D01*
X152564932Y-134985289D01*
X152509100Y-135110612D01*
X152450344Y-135238831D01*
X152390251Y-135366460D01*
X152330405Y-135490017D01*
X152272393Y-135606015D01*
X152217799Y-135710970D01*
X152168210Y-135801398D01*
X152161491Y-135813233D01*
X152139952Y-135851174D01*
X152112374Y-135899759D01*
X152083063Y-135951398D01*
X152072168Y-135970479D01*
X152038685Y-136028052D01*
X152005811Y-136083273D01*
X151979323Y-136126398D01*
X151958338Y-136159788D01*
X151932342Y-136201577D01*
X151913311Y-136232648D01*
X151899381Y-136254836D01*
X151873399Y-136294909D01*
X151839191Y-136346945D01*
X151799504Y-136406838D01*
X151757082Y-136470481D01*
X151714671Y-136533768D01*
X151675017Y-136592593D01*
X151640863Y-136642849D01*
X151614956Y-136680430D01*
X151600041Y-136701230D01*
X151586664Y-136718956D01*
X151560501Y-136754033D01*
X151525015Y-136801830D01*
X151483072Y-136858488D01*
X151437535Y-136920148D01*
X151396147Y-136975798D01*
X151351760Y-137034472D01*
X151312675Y-137085108D01*
X151282027Y-137123648D01*
X151262952Y-137146032D01*
X151262491Y-137146521D01*
X151236099Y-137176350D01*
X151202047Y-137217224D01*
X151167582Y-137260447D01*
X151124236Y-137314910D01*
X151020567Y-137437561D01*
X150901436Y-137570134D01*
X150770100Y-137709460D01*
X150629816Y-137852369D01*
X150483842Y-137995694D01*
X150335435Y-138136266D01*
X150187852Y-138270916D01*
X150044352Y-138396475D01*
X149908191Y-138509775D01*
X149782626Y-138607648D01*
X149752918Y-138629941D01*
X149704277Y-138666600D01*
X149648717Y-138708597D01*
X149593368Y-138750545D01*
X149570091Y-138768206D01*
X149508641Y-138814669D01*
X149460166Y-138850906D01*
X149419464Y-138880690D01*
X149381331Y-138907790D01*
X149340565Y-138935980D01*
X149291962Y-138969030D01*
X149283693Y-138974633D01*
X149225067Y-139014496D01*
X149162866Y-139056981D01*
X149109242Y-139093789D01*
X149074179Y-139117322D01*
X149004990Y-139161756D01*
X148921847Y-139213432D01*
X148829588Y-139269453D01*
X148733051Y-139326920D01*
X148637072Y-139382935D01*
X148546491Y-139434600D01*
X148466145Y-139479018D01*
X148427213Y-139499804D01*
X148351611Y-139539127D01*
X148266205Y-139582557D01*
X148175564Y-139627853D01*
X148084253Y-139672775D01*
X147996837Y-139715085D01*
X147917885Y-139752543D01*
X147851961Y-139782909D01*
X147803632Y-139803944D01*
X147766925Y-139819043D01*
X147693950Y-139849100D01*
X147616434Y-139881067D01*
X147545987Y-139910157D01*
X147492662Y-139931985D01*
X147372116Y-139979588D01*
X147251702Y-140024456D01*
X147127331Y-140067950D01*
X146994913Y-140111429D01*
X146850359Y-140156254D01*
X146689581Y-140203787D01*
X146508487Y-140255388D01*
X146502179Y-140257155D01*
X146427415Y-140277523D01*
X146344467Y-140299257D01*
X146257951Y-140321231D01*
X146172486Y-140342323D01*
X146092690Y-140361407D01*
X146023179Y-140377360D01*
X145968573Y-140389058D01*
X145933487Y-140395375D01*
X145914159Y-140399032D01*
X145876327Y-140407668D01*
X145831683Y-140418846D01*
X145795333Y-140427262D01*
X145747132Y-140435650D01*
X145710625Y-140438898D01*
X145679850Y-140440906D01*
X145632056Y-140447082D01*
X145581180Y-140455975D01*
X145577368Y-140456732D01*
X145520211Y-140467125D01*
X145453089Y-140478051D01*
X145389737Y-140487266D01*
X145387004Y-140487632D01*
X145331680Y-140495069D01*
X145260946Y-140504624D01*
X145183611Y-140515105D01*
X145108487Y-140525318D01*
X145012306Y-140537012D01*
X144887034Y-140549415D01*
X144750501Y-140560535D01*
X144609971Y-140569843D01*
X144472711Y-140576810D01*
X144345987Y-140580905D01*
X144317125Y-140581425D01*
X144204450Y-140582287D01*
X144077965Y-140581769D01*
X143944137Y-140580002D01*
X143809433Y-140577116D01*
X143680320Y-140573244D01*
X143563266Y-140568515D01*
X143464737Y-140563061D01*
X143448472Y-140561951D01*
X143312353Y-140550610D01*
X143159302Y-140534797D01*
X142995916Y-140515380D01*
X142828794Y-140493227D01*
X142664533Y-140469208D01*
X142509731Y-140444192D01*
X142370987Y-140419046D01*
X142359519Y-140416828D01*
X142310198Y-140407421D01*
X142269743Y-140399905D01*
X142245987Y-140395738D01*
X142223248Y-140391136D01*
X142178088Y-140380880D01*
X142113466Y-140365631D01*
X142031823Y-140345972D01*
X141935600Y-140322487D01*
X141827237Y-140295757D01*
X141813925Y-140292447D01*
X141767602Y-140280711D01*
X141721250Y-140268525D01*
X141670078Y-140254568D01*
X141609296Y-140237518D01*
X141534113Y-140216053D01*
X141439737Y-140188851D01*
X141405074Y-140178667D01*
X141325021Y-140154239D01*
X141236342Y-140126213D01*
X141143688Y-140096145D01*
X141051707Y-140065586D01*
X140965047Y-140036091D01*
X140888358Y-140009214D01*
X140826289Y-139986508D01*
X140783487Y-139969527D01*
X140782113Y-139968938D01*
X140756996Y-139958365D01*
X140713454Y-139940205D01*
X140655732Y-139916222D01*
X140588078Y-139888180D01*
X140514737Y-139857845D01*
X140430146Y-139821894D01*
X140310218Y-139768406D01*
X140181308Y-139708597D01*
X140048777Y-139645083D01*
X139917984Y-139580480D01*
X139794288Y-139517404D01*
X139683049Y-139458470D01*
X139589626Y-139406296D01*
X139580980Y-139401288D01*
X139525858Y-139369374D01*
X139477520Y-139341414D01*
X139440913Y-139320268D01*
X139420987Y-139308797D01*
X139411962Y-139303489D01*
X139380839Y-139284371D01*
X139344763Y-139261495D01*
X139332083Y-139253434D01*
X139288943Y-139227113D01*
X139251013Y-139205327D01*
X139221074Y-139187832D01*
X139178114Y-139161006D01*
X139133487Y-139131816D01*
X139109682Y-139115809D01*
X139016038Y-139052403D01*
X138923739Y-138989268D01*
X138836684Y-138929110D01*
X138758774Y-138874635D01*
X138693908Y-138828549D01*
X138645987Y-138793558D01*
X138622682Y-138776106D01*
X138509792Y-138690987D01*
X138414408Y-138617944D01*
X138334050Y-138555040D01*
X138266237Y-138500337D01*
X138208487Y-138451898D01*
X138185390Y-138432087D01*
X138131524Y-138385960D01*
X138079317Y-138341336D01*
X138037417Y-138305612D01*
X138011188Y-138283093D01*
X137893545Y-138177932D01*
X137765751Y-138057832D01*
X137631760Y-137926844D01*
X137495526Y-137789018D01*
X137361005Y-137648405D01*
X137232150Y-137509055D01*
X137112917Y-137375021D01*
X137007259Y-137250352D01*
X136911785Y-137132173D01*
X136759917Y-136936230D01*
X136612462Y-136736638D01*
X136476804Y-136543238D01*
X136371855Y-136386840D01*
X136273584Y-136235038D01*
X136182449Y-136087748D01*
X136095186Y-135939417D01*
X136008532Y-135784491D01*
X135919222Y-135617419D01*
X135823992Y-135432648D01*
X135811098Y-135407043D01*
X135782921Y-135349791D01*
X135757742Y-135297045D01*
X135739817Y-135257648D01*
X135739672Y-135257314D01*
X135723848Y-135221107D01*
X135700909Y-135169073D01*
X135673906Y-135108118D01*
X135645893Y-135045148D01*
X135642483Y-135037496D01*
X135601580Y-134944845D01*
X135567825Y-134866040D01*
X135538224Y-134793560D01*
X135509786Y-134719890D01*
X135479519Y-134637508D01*
X135444431Y-134538898D01*
X135417639Y-134462791D01*
X135389571Y-134382652D01*
X135367108Y-134317734D01*
X135348694Y-134263358D01*
X135332772Y-134214842D01*
X135317784Y-134167506D01*
X135302175Y-134116668D01*
X135284388Y-134057648D01*
X135266044Y-133996616D01*
X135249192Y-133940791D01*
X135235770Y-133896578D01*
X135227645Y-133870148D01*
X135227423Y-133869434D01*
X135220066Y-133843390D01*
X135208404Y-133799690D01*
X135193963Y-133744310D01*
X135178269Y-133683225D01*
X135162848Y-133622410D01*
X135149226Y-133567843D01*
X135138927Y-133525497D01*
X135133479Y-133501349D01*
X135132582Y-133496984D01*
X135126092Y-133469004D01*
X135117017Y-133432599D01*
X135115183Y-133425207D01*
X135104942Y-133376285D01*
X135097047Y-133327539D01*
X135093619Y-133304992D01*
X135083788Y-133253484D01*
X135072094Y-133202539D01*
X135065869Y-133176955D01*
X135049955Y-133103906D01*
X135032282Y-133014432D01*
X135013839Y-132914337D01*
X134995620Y-132809424D01*
X134978615Y-132705496D01*
X134963817Y-132608355D01*
X134952216Y-132523804D01*
X134944805Y-132457648D01*
X134941627Y-132426706D01*
X134936082Y-132377157D01*
X134929006Y-132316421D01*
X134921189Y-132251398D01*
X134913468Y-132178039D01*
X134904571Y-132061345D01*
X134897408Y-131927665D01*
X134891978Y-131780811D01*
X134888281Y-131624593D01*
X134886317Y-131462823D01*
X134886232Y-131402320D01*
X135279787Y-131402320D01*
X135280645Y-131538008D01*
X135282583Y-131669479D01*
X135285581Y-131792582D01*
X135289624Y-131903163D01*
X135294693Y-131997069D01*
X135300771Y-132070148D01*
X135312904Y-132182885D01*
X135324608Y-132290644D01*
X135334369Y-132378987D01*
X135342533Y-132450818D01*
X135349445Y-132509039D01*
X135355451Y-132556554D01*
X135360898Y-132596266D01*
X135366130Y-132631080D01*
X135371494Y-132663898D01*
X135373807Y-132677659D01*
X135382762Y-132732450D01*
X135390325Y-132780914D01*
X135395058Y-132813898D01*
X135396656Y-132825498D01*
X135403824Y-132871034D01*
X135414257Y-132932233D01*
X135426811Y-133002630D01*
X135440340Y-133075757D01*
X135453700Y-133145148D01*
X135461107Y-133180493D01*
X135473828Y-133237518D01*
X135489108Y-133303491D01*
X135505063Y-133370148D01*
X135505180Y-133370627D01*
X135519750Y-133430697D01*
X135532449Y-133483613D01*
X135541917Y-133523666D01*
X135546791Y-133545148D01*
X135549128Y-133555715D01*
X135560231Y-133599639D01*
X135576679Y-133659772D01*
X135596972Y-133731077D01*
X135619608Y-133808515D01*
X135643088Y-133887047D01*
X135665911Y-133961636D01*
X135686576Y-134027244D01*
X135703582Y-134078832D01*
X135715430Y-134111361D01*
X135722618Y-134132876D01*
X135727237Y-134159472D01*
X135727256Y-134160399D01*
X135732637Y-134185635D01*
X135744708Y-134218258D01*
X135746914Y-134223372D01*
X135760648Y-134258040D01*
X135778371Y-134305708D01*
X135796819Y-134357648D01*
X135802459Y-134373783D01*
X135818805Y-134418919D01*
X135832046Y-134453175D01*
X135839737Y-134470148D01*
X135847748Y-134487429D01*
X135860976Y-134521149D01*
X135876498Y-134563898D01*
X135891757Y-134606259D01*
X135908741Y-134651090D01*
X135921632Y-134682648D01*
X135931507Y-134705096D01*
X135949612Y-134746465D01*
X135973924Y-134802130D01*
X136002538Y-134867727D01*
X136033549Y-134938898D01*
X136088921Y-135062130D01*
X136178241Y-135248925D01*
X136276376Y-135442403D01*
X136379358Y-135635008D01*
X136483219Y-135819179D01*
X136583990Y-135987358D01*
X136610066Y-136028549D01*
X136647234Y-136085983D01*
X136691221Y-136153099D01*
X136739109Y-136225518D01*
X136787979Y-136298862D01*
X136834914Y-136368750D01*
X136876995Y-136430805D01*
X136911303Y-136480647D01*
X136934919Y-136513898D01*
X136949376Y-136533469D01*
X137066899Y-136688426D01*
X137192415Y-136847279D01*
X137322857Y-137006464D01*
X137455154Y-137162417D01*
X137586238Y-137311576D01*
X137713039Y-137450376D01*
X137832489Y-137575254D01*
X137941519Y-137682648D01*
X137999133Y-137736970D01*
X138164258Y-137889249D01*
X138322676Y-138030277D01*
X138471331Y-138157367D01*
X138607166Y-138267832D01*
X138668731Y-138315806D01*
X138756471Y-138382652D01*
X138849910Y-138452405D01*
X138945863Y-138522791D01*
X139041143Y-138591537D01*
X139132566Y-138656367D01*
X139216947Y-138715008D01*
X139291101Y-138765186D01*
X139351843Y-138804626D01*
X139395987Y-138831055D01*
X139429325Y-138850028D01*
X139457757Y-138867181D01*
X139485281Y-138884578D01*
X139617669Y-138965032D01*
X139763658Y-139049251D01*
X139917571Y-139134215D01*
X140073730Y-139216903D01*
X140226457Y-139294295D01*
X140370074Y-139363369D01*
X140498903Y-139421105D01*
X140545377Y-139441024D01*
X140602395Y-139465637D01*
X140650625Y-139486643D01*
X140682955Y-139500959D01*
X140733674Y-139523103D01*
X140828819Y-139562045D01*
X140939204Y-139604833D01*
X141060040Y-139649785D01*
X141186536Y-139695219D01*
X141313902Y-139739455D01*
X141437349Y-139780809D01*
X141552085Y-139817601D01*
X141653322Y-139848148D01*
X141736268Y-139870769D01*
X141753640Y-139875128D01*
X141791530Y-139884638D01*
X141845322Y-139898141D01*
X141910734Y-139914562D01*
X141983487Y-139932828D01*
X142060200Y-139951997D01*
X142155264Y-139975340D01*
X142233477Y-139993871D01*
X142299185Y-140008549D01*
X142356734Y-140020333D01*
X142410469Y-140030182D01*
X142464737Y-140039056D01*
X142516968Y-140047443D01*
X142588208Y-140059413D01*
X142652237Y-140070674D01*
X142675688Y-140074828D01*
X142757575Y-140088167D01*
X142853143Y-140102380D01*
X142957595Y-140116872D01*
X143066133Y-140131045D01*
X143173962Y-140144305D01*
X143276284Y-140156054D01*
X143368302Y-140165698D01*
X143445219Y-140172639D01*
X143502237Y-140176283D01*
X143543910Y-140177611D01*
X143605574Y-140179032D01*
X143680914Y-140180395D01*
X143766707Y-140181674D01*
X143859730Y-140182845D01*
X143956761Y-140183880D01*
X144054577Y-140184754D01*
X144149955Y-140185441D01*
X144239672Y-140185916D01*
X144320506Y-140186152D01*
X144389233Y-140186125D01*
X144442632Y-140185807D01*
X144477479Y-140185173D01*
X144490551Y-140184198D01*
X144495898Y-140182367D01*
X144521850Y-140179334D01*
X144563698Y-140177052D01*
X144615551Y-140175911D01*
X144663962Y-140174519D01*
X144737993Y-140170258D01*
X144817729Y-140163893D01*
X144892628Y-140156174D01*
X144897641Y-140155583D01*
X144960163Y-140148451D01*
X145015289Y-140142563D01*
X145057213Y-140138517D01*
X145080128Y-140136909D01*
X145096674Y-140135713D01*
X145138106Y-140130860D01*
X145196646Y-140122920D01*
X145267880Y-140112578D01*
X145347396Y-140100519D01*
X145430780Y-140087429D01*
X145513619Y-140073991D01*
X145591501Y-140060891D01*
X145660011Y-140048812D01*
X145714737Y-140038441D01*
X145727326Y-140035964D01*
X145772045Y-140027713D01*
X145808487Y-140021707D01*
X145822254Y-140019454D01*
X145863565Y-140011435D01*
X145908487Y-140001537D01*
X145928888Y-139996898D01*
X145972605Y-139987861D01*
X146005600Y-139982177D01*
X146023207Y-139979095D01*
X146063754Y-139969983D01*
X146108725Y-139958211D01*
X146131739Y-139951726D01*
X146190277Y-139935246D01*
X146243961Y-139920148D01*
X146270893Y-139913023D01*
X146308260Y-139904658D01*
X146331631Y-139901398D01*
X146345072Y-139899802D01*
X146374282Y-139889630D01*
X146391437Y-139882335D01*
X146427450Y-139869955D01*
X146470987Y-139856888D01*
X146531333Y-139839684D01*
X146614704Y-139815091D01*
X146701759Y-139788650D01*
X146788544Y-139761627D01*
X146871104Y-139735288D01*
X146945484Y-139710896D01*
X147007731Y-139689718D01*
X147053889Y-139673018D01*
X147080004Y-139662061D01*
X147081279Y-139661431D01*
X147103409Y-139652234D01*
X147143227Y-139636951D01*
X147195502Y-139617557D01*
X147255004Y-139596026D01*
X147284234Y-139585430D01*
X147451000Y-139520266D01*
X147632043Y-139442455D01*
X147822785Y-139354297D01*
X148018649Y-139258092D01*
X148215057Y-139156142D01*
X148407431Y-139050746D01*
X148591194Y-138944205D01*
X148761767Y-138838819D01*
X148791272Y-138819943D01*
X148850303Y-138782296D01*
X148902756Y-138748994D01*
X148943811Y-138723093D01*
X148968651Y-138707648D01*
X148985935Y-138696960D01*
X149062921Y-138646363D01*
X149153921Y-138582774D01*
X149255216Y-138509049D01*
X149363090Y-138428047D01*
X149473825Y-138342625D01*
X149583705Y-138255642D01*
X149689012Y-138169954D01*
X149786029Y-138088420D01*
X149871039Y-138013898D01*
X149883184Y-138002970D01*
X149925921Y-137964625D01*
X149979543Y-137916622D01*
X150038399Y-137864020D01*
X150096836Y-137811873D01*
X150192783Y-137723149D01*
X150300218Y-137618160D01*
X150413741Y-137502456D01*
X150528911Y-137380733D01*
X150641286Y-137257685D01*
X150746424Y-137138008D01*
X150839884Y-137026398D01*
X150869398Y-136990361D01*
X150907666Y-136944247D01*
X150939617Y-136906368D01*
X150946130Y-136898660D01*
X150977449Y-136860207D01*
X151015072Y-136812521D01*
X151052237Y-136764139D01*
X151066736Y-136745025D01*
X151097120Y-136705404D01*
X151120900Y-136674985D01*
X151133878Y-136659168D01*
X151153342Y-136635893D01*
X151187407Y-136591066D01*
X151230524Y-136531539D01*
X151280305Y-136460839D01*
X151334361Y-136382492D01*
X151390304Y-136300023D01*
X151445746Y-136216959D01*
X151498299Y-136136825D01*
X151545574Y-136063147D01*
X151585183Y-135999451D01*
X151614737Y-135949264D01*
X151638520Y-135908159D01*
X151669852Y-135856572D01*
X151696929Y-135814503D01*
X151697309Y-135813940D01*
X151723136Y-135773299D01*
X151753799Y-135721692D01*
X151782743Y-135670148D01*
X151785275Y-135665477D01*
X151811737Y-135617331D01*
X151836568Y-135573168D01*
X151854696Y-135542023D01*
X151859475Y-135533877D01*
X151870963Y-135510709D01*
X151871929Y-135501398D01*
X151873192Y-135495114D01*
X151883616Y-135469954D01*
X151902425Y-135428942D01*
X151927941Y-135375712D01*
X151958487Y-135313898D01*
X151982392Y-135266960D01*
X152012078Y-135210992D01*
X152037104Y-135166452D01*
X152055380Y-135137025D01*
X152064816Y-135126398D01*
X152067700Y-135126089D01*
X152077237Y-135115124D01*
X152078510Y-135109863D01*
X152087990Y-135085200D01*
X152104705Y-135046514D01*
X152126241Y-134999499D01*
X152156341Y-134934062D01*
X152232216Y-134758150D01*
X152308818Y-134565948D01*
X152383896Y-134363437D01*
X152455202Y-134156594D01*
X152520487Y-133951398D01*
X152528341Y-133925564D01*
X152553444Y-133842879D01*
X152574087Y-133774275D01*
X152591404Y-133715482D01*
X152606526Y-133662232D01*
X152620588Y-133610259D01*
X152634723Y-133555293D01*
X152650065Y-133493067D01*
X152667746Y-133419313D01*
X152688900Y-133329762D01*
X152714660Y-133220148D01*
X152718714Y-133202611D01*
X152742471Y-133089512D01*
X152766259Y-132959690D01*
X152788782Y-132820148D01*
X152791603Y-132801494D01*
X152800644Y-132741887D01*
X152811048Y-132673473D01*
X152821084Y-132607648D01*
X152825647Y-132577192D01*
X152834229Y-132516939D01*
X152841270Y-132463733D01*
X152845578Y-132426398D01*
X152848667Y-132397012D01*
X152854402Y-132346390D01*
X152861641Y-132284942D01*
X152869516Y-132220148D01*
X152874644Y-132171207D01*
X152880686Y-132099192D01*
X152886941Y-132012081D01*
X152893067Y-131914996D01*
X152898720Y-131813061D01*
X152903559Y-131711398D01*
X152909926Y-131495641D01*
X152905513Y-131070736D01*
X152878847Y-130638052D01*
X152829851Y-130196539D01*
X152758448Y-129745148D01*
X152747276Y-129687083D01*
X152731525Y-129610916D01*
X152712757Y-129523950D01*
X152692123Y-129431226D01*
X152670775Y-129337783D01*
X152649866Y-129248664D01*
X152630547Y-129168907D01*
X152613972Y-129103555D01*
X152601292Y-129057648D01*
X152576620Y-128975480D01*
X152540089Y-128854347D01*
X152509240Y-128752922D01*
X152483222Y-128668515D01*
X152461187Y-128598438D01*
X152442283Y-128540002D01*
X152425662Y-128490517D01*
X152410473Y-128447295D01*
X152395867Y-128407648D01*
X152394960Y-128405238D01*
X152377250Y-128357727D01*
X152361997Y-128316019D01*
X152352415Y-128288898D01*
X152346756Y-128273414D01*
X152332365Y-128236463D01*
X152312705Y-128187411D01*
X152290316Y-128132648D01*
X152279245Y-128105792D01*
X152249455Y-128033277D01*
X152219019Y-127958903D01*
X152193047Y-127895148D01*
X152174262Y-127850989D01*
X152139005Y-127773612D01*
X152094939Y-127681186D01*
X152044074Y-127577631D01*
X151988422Y-127466862D01*
X151929996Y-127352798D01*
X151870807Y-127239356D01*
X151812866Y-127130452D01*
X151758185Y-127030005D01*
X151708777Y-126941931D01*
X151666653Y-126870148D01*
X151656699Y-126853752D01*
X151581562Y-126731171D01*
X151512564Y-126621176D01*
X151446584Y-126519190D01*
X151380505Y-126420636D01*
X151311207Y-126320934D01*
X151235570Y-126215507D01*
X151150477Y-126099777D01*
X151052807Y-125969166D01*
X151028538Y-125937306D01*
X150934429Y-125819372D01*
X150825735Y-125690314D01*
X150706007Y-125553932D01*
X150578799Y-125414029D01*
X150447664Y-125274404D01*
X150316154Y-125138858D01*
X150187824Y-125011192D01*
X150066225Y-124895206D01*
X149954911Y-124794702D01*
X149874461Y-124725015D01*
X149722764Y-124596438D01*
X149580451Y-124480164D01*
X149442377Y-124372221D01*
X149303401Y-124268633D01*
X149158376Y-124165428D01*
X149002161Y-124058629D01*
X148995047Y-124053851D01*
X148829633Y-123944504D01*
X148676755Y-123847357D01*
X148530074Y-123758674D01*
X148383247Y-123674723D01*
X148229933Y-123591768D01*
X148063791Y-123506077D01*
X148037237Y-123492655D01*
X147967624Y-123457542D01*
X147913653Y-123430557D01*
X147870291Y-123409295D01*
X147832503Y-123391352D01*
X147795254Y-123374322D01*
X147753511Y-123355801D01*
X147702237Y-123333384D01*
X147700269Y-123332525D01*
X147644084Y-123307826D01*
X147586518Y-123282226D01*
X147539737Y-123261133D01*
X147538245Y-123260453D01*
X147471501Y-123231652D01*
X147385688Y-123197001D01*
X147285432Y-123158191D01*
X147175360Y-123116910D01*
X147060102Y-123074847D01*
X146944283Y-123033693D01*
X146832531Y-122995136D01*
X146729473Y-122960865D01*
X146639737Y-122932571D01*
X146572765Y-122912480D01*
X146462359Y-122880375D01*
X146359061Y-122851569D01*
X146267033Y-122827182D01*
X146190439Y-122808336D01*
X146133439Y-122796153D01*
X146128588Y-122795201D01*
X146096834Y-122788010D01*
X146058439Y-122778382D01*
X146017782Y-122768517D01*
X145951942Y-122754151D01*
X145871940Y-122737831D01*
X145782603Y-122720442D01*
X145688761Y-122702868D01*
X145595243Y-122685995D01*
X145506878Y-122670708D01*
X145428494Y-122657892D01*
X145364921Y-122648433D01*
X145320987Y-122643214D01*
X145306093Y-122641705D01*
X145257434Y-122635132D01*
X145208487Y-122626777D01*
X145182009Y-122622134D01*
X145125631Y-122614029D01*
X145070987Y-122607940D01*
X145058425Y-122606810D01*
X145011109Y-122602511D01*
X144948169Y-122596753D01*
X144876310Y-122590150D01*
X144802237Y-122583317D01*
X144617598Y-122569266D01*
X144360142Y-122558144D01*
X144090811Y-122555124D01*
X143816230Y-122560064D01*
X143543024Y-122572823D01*
X143277818Y-122593260D01*
X143027237Y-122621233D01*
X142976180Y-122627909D01*
X142917677Y-122635469D01*
X142869844Y-122641552D01*
X142839737Y-122645256D01*
X142737062Y-122659350D01*
X142602682Y-122682049D01*
X142445497Y-122712288D01*
X142266013Y-122749970D01*
X142064737Y-122794998D01*
X141830753Y-122852381D01*
X141441830Y-122964462D01*
X141055593Y-123097093D01*
X140669715Y-123251161D01*
X140281872Y-123427558D01*
X139889737Y-123627174D01*
X139879653Y-123632593D01*
X139817260Y-123666827D01*
X139750685Y-123704362D01*
X139683646Y-123742993D01*
X139619863Y-123780510D01*
X139563053Y-123814708D01*
X139516937Y-123843379D01*
X139485233Y-123864316D01*
X139471659Y-123875311D01*
X139471054Y-123881065D01*
X139480123Y-123904664D01*
X139500496Y-123939155D01*
X139528748Y-123979063D01*
X139561455Y-124018912D01*
X139601923Y-124064409D01*
X139648955Y-124034805D01*
X139716732Y-123993329D01*
X139813071Y-123936942D01*
X139920047Y-123876488D01*
X140031154Y-123815580D01*
X140139886Y-123757830D01*
X140239737Y-123706848D01*
X140277255Y-123688322D01*
X140350759Y-123652660D01*
X140429068Y-123615335D01*
X140508766Y-123577911D01*
X140586439Y-123541953D01*
X140658669Y-123509024D01*
X140722041Y-123480690D01*
X140773139Y-123458515D01*
X140808546Y-123444063D01*
X140824848Y-123438897D01*
X140834722Y-123436147D01*
X140863702Y-123425811D01*
X140905904Y-123409834D01*
X140955781Y-123390385D01*
X141007785Y-123369632D01*
X141056370Y-123349744D01*
X141095987Y-123332891D01*
X141107668Y-123328085D01*
X141147910Y-123313084D01*
X141205091Y-123292921D01*
X141274495Y-123269158D01*
X141351406Y-123243357D01*
X141431107Y-123217077D01*
X141508883Y-123191881D01*
X141580015Y-123169331D01*
X141639789Y-123150986D01*
X141683487Y-123138409D01*
X141687722Y-123137269D01*
X141746453Y-123121471D01*
X141805341Y-123105638D01*
X141852237Y-123093037D01*
X142092176Y-123031762D01*
X142338300Y-122976370D01*
X142564737Y-122933767D01*
X142577661Y-122931608D01*
X142650486Y-122919449D01*
X142728183Y-122906480D01*
X142795987Y-122895167D01*
X142814334Y-122892154D01*
X142872238Y-122883176D01*
X142924468Y-122875785D01*
X142961548Y-122871344D01*
X142978825Y-122869654D01*
X143024619Y-122865021D01*
X143082099Y-122859083D01*
X143142798Y-122852710D01*
X143228597Y-122844085D01*
X143532920Y-122820483D01*
X143841961Y-122806845D01*
X144150191Y-122803175D01*
X144452083Y-122809474D01*
X144742108Y-122825744D01*
X145014737Y-122851987D01*
X145024297Y-122853120D01*
X145083636Y-122859900D01*
X145140407Y-122866032D01*
X145183487Y-122870309D01*
X145217204Y-122874000D01*
X145284199Y-122883119D01*
X145369874Y-122896248D01*
X145470784Y-122912853D01*
X145583487Y-122932399D01*
X145592444Y-122933987D01*
X145644813Y-122943223D01*
X145690679Y-122951241D01*
X145720987Y-122956456D01*
X145732579Y-122958559D01*
X145770442Y-122966061D01*
X145821224Y-122976599D01*
X145877237Y-122988589D01*
X145906778Y-122995003D01*
X145957906Y-123006063D01*
X145998250Y-123014736D01*
X146020987Y-123019554D01*
X146034321Y-123022591D01*
X146074449Y-123032617D01*
X146134307Y-123048170D01*
X146211150Y-123068533D01*
X146302237Y-123092992D01*
X146317494Y-123097110D01*
X146368126Y-123110781D01*
X146428873Y-123127185D01*
X146489737Y-123143620D01*
X146503222Y-123147334D01*
X146564531Y-123165276D01*
X146638972Y-123188258D01*
X146718358Y-123213713D01*
X146794498Y-123239077D01*
X147176658Y-123378495D01*
X147597338Y-123554939D01*
X148003249Y-123750743D01*
X148395855Y-123966720D01*
X148776621Y-124203680D01*
X149147010Y-124462436D01*
X149508487Y-124743799D01*
X149561880Y-124788075D01*
X149673063Y-124883146D01*
X149788520Y-124985236D01*
X149904246Y-125090620D01*
X150016238Y-125195574D01*
X150120492Y-125296372D01*
X150213005Y-125389291D01*
X150289772Y-125470606D01*
X150344724Y-125531011D01*
X150401350Y-125593246D01*
X150453418Y-125650461D01*
X150496840Y-125698164D01*
X150527529Y-125731864D01*
X150539619Y-125745259D01*
X150594633Y-125808398D01*
X150657093Y-125882841D01*
X150721145Y-125961530D01*
X150780935Y-126037406D01*
X150789205Y-126048047D01*
X150816053Y-126081894D01*
X150837212Y-126107648D01*
X150853106Y-126127537D01*
X150879193Y-126161969D01*
X150908102Y-126201398D01*
X150933906Y-126236613D01*
X150954575Y-126263741D01*
X150965263Y-126276398D01*
X150965751Y-126276846D01*
X150977350Y-126291335D01*
X150998428Y-126320173D01*
X151024797Y-126357648D01*
X151037380Y-126375746D01*
X151072851Y-126426346D01*
X151113428Y-126483816D01*
X151152581Y-126538898D01*
X151171401Y-126565547D01*
X151208492Y-126619498D01*
X151241764Y-126669583D01*
X151265746Y-126707648D01*
X151290282Y-126748172D01*
X151322668Y-126800783D01*
X151354275Y-126851398D01*
X151397872Y-126921713D01*
X151519576Y-127129443D01*
X151641766Y-127353829D01*
X151761538Y-127589043D01*
X151875984Y-127829260D01*
X151982201Y-128068654D01*
X152077284Y-128301398D01*
X152085321Y-128322810D01*
X152104104Y-128375581D01*
X152128181Y-128445456D01*
X152156152Y-128528199D01*
X152186617Y-128619572D01*
X152218175Y-128715341D01*
X152249425Y-128811270D01*
X152278967Y-128903121D01*
X152305400Y-128986659D01*
X152327324Y-129057648D01*
X152335973Y-129088581D01*
X152349657Y-129141489D01*
X152366237Y-129208172D01*
X152384368Y-129283007D01*
X152402704Y-129360370D01*
X152419898Y-129434639D01*
X152434606Y-129500189D01*
X152445481Y-129551398D01*
X152446832Y-129558087D01*
X152459606Y-129621197D01*
X152472728Y-129685801D01*
X152483556Y-129738898D01*
X152495732Y-129800330D01*
X152525127Y-129964997D01*
X152552241Y-130139627D01*
X152576197Y-130317410D01*
X152596118Y-130491533D01*
X152611128Y-130655184D01*
X152620349Y-130801552D01*
X152627316Y-130957957D01*
X152399152Y-130954108D01*
X152394562Y-130954029D01*
X152307834Y-130952043D01*
X152205010Y-130948962D01*
X152094442Y-130945077D01*
X151984483Y-130940681D01*
X151883487Y-130936066D01*
X151839543Y-130934181D01*
X151747141Y-130931326D01*
X151634282Y-130928880D01*
X151503815Y-130926842D01*
X151358590Y-130925211D01*
X151201459Y-130923986D01*
X151035270Y-130923166D01*
X150862873Y-130922749D01*
X150687120Y-130922735D01*
X150510859Y-130923122D01*
X150336942Y-130923910D01*
X150168217Y-130925097D01*
X150007535Y-130926682D01*
X149857746Y-130928664D01*
X149721700Y-130931042D01*
X149602247Y-130933815D01*
X149502237Y-130936982D01*
X149444937Y-130939162D01*
X149245582Y-130947094D01*
X149045400Y-130955564D01*
X148848080Y-130964394D01*
X148657310Y-130973407D01*
X148476778Y-130982425D01*
X148310171Y-130991270D01*
X148161178Y-130999765D01*
X148033487Y-131007733D01*
X147937859Y-131014031D01*
X147832669Y-131020934D01*
X147727881Y-131027790D01*
X147631677Y-131034063D01*
X147552237Y-131039217D01*
X147475365Y-131044238D01*
X147324644Y-131054463D01*
X147195901Y-131063795D01*
X147087080Y-131072392D01*
X146996128Y-131080413D01*
X146920987Y-131088017D01*
X146904216Y-131089838D01*
X146843526Y-131096261D01*
X146768720Y-131104007D01*
X146687731Y-131112260D01*
X146608487Y-131120201D01*
X146585800Y-131122462D01*
X146495565Y-131131659D01*
X146404268Y-131141334D01*
X146307159Y-131152016D01*
X146199492Y-131164234D01*
X146076518Y-131178517D01*
X145933487Y-131195394D01*
X145891862Y-131200336D01*
X145769609Y-131214907D01*
X145668284Y-131227093D01*
X145584888Y-131237273D01*
X145516425Y-131245825D01*
X145459896Y-131253127D01*
X145412304Y-131259558D01*
X145370651Y-131265497D01*
X145331939Y-131271321D01*
X145310957Y-131274441D01*
X145254486Y-131281830D01*
X145205077Y-131286970D01*
X145171523Y-131288898D01*
X145162949Y-131289112D01*
X145137484Y-131293294D01*
X145129321Y-131301131D01*
X145129548Y-131301633D01*
X145140532Y-131315973D01*
X145165551Y-131345319D01*
X145201936Y-131386637D01*
X145247019Y-131436895D01*
X145298133Y-131493059D01*
X145462778Y-131672754D01*
X145604383Y-131650691D01*
X145647218Y-131644115D01*
X145727094Y-131632321D01*
X145804660Y-131621406D01*
X145875436Y-131611958D01*
X145934944Y-131604568D01*
X145978704Y-131599825D01*
X146002237Y-131598319D01*
X146014270Y-131597687D01*
X146048028Y-131594518D01*
X146096057Y-131589266D01*
X146152237Y-131582574D01*
X146160176Y-131581597D01*
X146226125Y-131573692D01*
X146306168Y-131564372D01*
X146390917Y-131554719D01*
X146470987Y-131545815D01*
X146500001Y-131542637D01*
X146588166Y-131532969D01*
X146687166Y-131522100D01*
X146786892Y-131511142D01*
X146877237Y-131501203D01*
X146923612Y-131496119D01*
X147073433Y-131480045D01*
X147199654Y-131467117D01*
X147303202Y-131457245D01*
X147385005Y-131450340D01*
X147445987Y-131446313D01*
X147450494Y-131446073D01*
X147494541Y-131443323D01*
X147555063Y-131439088D01*
X147624673Y-131433899D01*
X147695987Y-131428289D01*
X147715274Y-131426730D01*
X147857041Y-131415439D01*
X147979613Y-131406048D01*
X148088059Y-131398221D01*
X148187448Y-131391616D01*
X148282848Y-131385897D01*
X148379328Y-131380724D01*
X148481956Y-131375758D01*
X148571564Y-131371372D01*
X148666668Y-131366292D01*
X148758250Y-131361017D01*
X148839157Y-131355960D01*
X148902237Y-131351532D01*
X148911346Y-131350849D01*
X149002810Y-131345256D01*
X149116111Y-131340179D01*
X149249017Y-131335621D01*
X149399300Y-131331582D01*
X149564729Y-131328065D01*
X149743073Y-131325069D01*
X149932104Y-131322597D01*
X150129591Y-131320650D01*
X150333304Y-131319229D01*
X150541013Y-131318336D01*
X150750488Y-131317972D01*
X150959498Y-131318138D01*
X151165815Y-131318837D01*
X151367208Y-131320069D01*
X151561447Y-131321835D01*
X151746302Y-131324137D01*
X151919543Y-131326977D01*
X152078940Y-131330355D01*
X152222263Y-131334274D01*
X152347282Y-131338734D01*
X152451767Y-131343737D01*
X152533487Y-131349285D01*
X152633487Y-131357648D01*
X152629617Y-131588898D01*
X152628329Y-131651561D01*
X152626024Y-131732327D01*
X152623227Y-131806835D01*
X152620177Y-131868836D01*
X152617117Y-131912085D01*
X152608487Y-132004022D01*
X152379001Y-132002607D01*
X152308774Y-132001866D01*
X152243336Y-132000549D01*
X152190448Y-131998814D01*
X152154262Y-131996801D01*
X152138925Y-131994646D01*
X152133811Y-131993865D01*
X152106420Y-131992578D01*
X152057584Y-131991441D01*
X151989587Y-131990451D01*
X151904710Y-131989611D01*
X151805237Y-131988918D01*
X151693451Y-131988374D01*
X151571635Y-131987978D01*
X151442072Y-131987729D01*
X151307045Y-131987629D01*
X151168836Y-131987677D01*
X151029729Y-131987872D01*
X150892007Y-131988215D01*
X150757952Y-131988705D01*
X150629848Y-131989342D01*
X150509977Y-131990127D01*
X150400622Y-131991059D01*
X150304067Y-131992138D01*
X150222595Y-131993364D01*
X150158487Y-131994737D01*
X150125321Y-131995615D01*
X150028190Y-131998198D01*
X149931071Y-132000795D01*
X149840210Y-132003236D01*
X149761850Y-132005356D01*
X149702237Y-132006986D01*
X149693837Y-132007223D01*
X149581389Y-132011141D01*
X149448993Y-132016897D01*
X149301228Y-132024216D01*
X149142670Y-132032822D01*
X148977897Y-132042441D01*
X148811485Y-132052796D01*
X148648011Y-132063612D01*
X148492052Y-132074615D01*
X148348185Y-132085529D01*
X148220987Y-132096078D01*
X148169020Y-132100554D01*
X148099803Y-132106275D01*
X148040365Y-132110913D01*
X147995747Y-132114078D01*
X147970987Y-132115383D01*
X147946205Y-132116666D01*
X147898442Y-132120179D01*
X147832338Y-132125602D01*
X147751302Y-132132634D01*
X147658742Y-132140972D01*
X147558064Y-132150314D01*
X147452677Y-132160359D01*
X147345987Y-132170803D01*
X147255097Y-132179855D01*
X147130892Y-132192384D01*
X147023692Y-132203495D01*
X146928694Y-132213757D01*
X146841094Y-132223739D01*
X146756091Y-132234012D01*
X146668881Y-132245145D01*
X146574662Y-132257707D01*
X146468632Y-132272268D01*
X146345987Y-132289398D01*
X146300169Y-132295513D01*
X146240262Y-132302818D01*
X146190367Y-132308200D01*
X146162807Y-132311307D01*
X146130949Y-132316415D01*
X146115978Y-132320990D01*
X146121971Y-132330871D01*
X146143128Y-132355551D01*
X146176858Y-132392103D01*
X146220506Y-132437654D01*
X146271418Y-132489329D01*
X146284946Y-132502905D01*
X146341189Y-132559144D01*
X146385043Y-132600388D01*
X146421310Y-132628436D01*
X146454793Y-132645086D01*
X146490295Y-132652137D01*
X146532618Y-132651386D01*
X146586565Y-132644632D01*
X146656939Y-132633674D01*
X146658445Y-132633440D01*
X146716644Y-132624979D01*
X146790140Y-132615083D01*
X146869675Y-132604962D01*
X146945987Y-132595830D01*
X146986834Y-132591135D01*
X147106115Y-132577440D01*
X147205027Y-132566120D01*
X147286995Y-132556793D01*
X147355444Y-132549077D01*
X147413796Y-132542592D01*
X147465478Y-132536955D01*
X147513912Y-132531785D01*
X147562524Y-132526700D01*
X147614737Y-132521320D01*
X147705626Y-132512151D01*
X148189849Y-132468085D01*
X148697319Y-132429704D01*
X149228408Y-132396981D01*
X149783487Y-132369891D01*
X149862528Y-132367006D01*
X149970314Y-132364045D01*
X150096702Y-132361342D01*
X150238968Y-132358908D01*
X150394388Y-132356756D01*
X150560236Y-132354895D01*
X150733786Y-132353337D01*
X150912315Y-132352093D01*
X151093098Y-132351174D01*
X151273409Y-132350591D01*
X151450523Y-132350355D01*
X151621715Y-132350478D01*
X151784261Y-132350970D01*
X151935436Y-132351842D01*
X152072514Y-132353106D01*
X152192771Y-132354773D01*
X152293482Y-132356854D01*
X152371921Y-132359359D01*
X152577237Y-132367774D01*
X152577238Y-132398662D01*
X152575456Y-132422925D01*
X152569769Y-132469161D01*
X152560886Y-132531404D01*
X152549539Y-132605152D01*
X152536458Y-132685903D01*
X152522373Y-132769155D01*
X152508017Y-132850406D01*
X152494120Y-132925154D01*
X152481412Y-132988898D01*
X152479518Y-132997755D01*
X152468758Y-133041972D01*
X152458660Y-133074691D01*
X152451190Y-133089375D01*
X152438107Y-133090720D01*
X152404673Y-133089587D01*
X152356672Y-133085957D01*
X152299534Y-133080161D01*
X152287317Y-133078799D01*
X152160954Y-133066487D01*
X152013389Y-133054821D01*
X151848045Y-133043914D01*
X151668345Y-133033882D01*
X151477712Y-133024840D01*
X151279569Y-133016903D01*
X151077339Y-133010185D01*
X150874446Y-133004803D01*
X150674312Y-133000870D01*
X150480361Y-132998501D01*
X150296015Y-132997812D01*
X150124699Y-132998918D01*
X149969835Y-133001933D01*
X149842079Y-133005575D01*
X149697905Y-133009977D01*
X149559471Y-133014504D01*
X149428916Y-133019070D01*
X149308378Y-133023586D01*
X149199998Y-133027967D01*
X149105913Y-133032125D01*
X149028263Y-133035973D01*
X148969187Y-133039425D01*
X148930824Y-133042393D01*
X148915314Y-133044791D01*
X148913560Y-133045485D01*
X148892494Y-133048391D01*
X148854731Y-133050705D01*
X148807040Y-133051979D01*
X148783909Y-133052566D01*
X148726183Y-133055277D01*
X148654324Y-133059726D01*
X148575278Y-133065465D01*
X148495987Y-133072045D01*
X148444792Y-133076474D01*
X148374449Y-133082160D01*
X148313348Y-133086642D01*
X148266706Y-133089544D01*
X148239737Y-133090492D01*
X148229344Y-133090765D01*
X148191890Y-133093422D01*
X148137847Y-133098456D01*
X148072776Y-133105330D01*
X148002237Y-133113504D01*
X147995371Y-133114334D01*
X147906504Y-133124930D01*
X147807834Y-133136479D01*
X147710899Y-133147640D01*
X147627237Y-133157073D01*
X147613392Y-133158617D01*
X147539189Y-133167104D01*
X147466864Y-133175688D01*
X147404077Y-133183446D01*
X147358487Y-133189455D01*
X147313472Y-133195316D01*
X147249288Y-133202637D01*
X147193540Y-133207961D01*
X147157469Y-133211646D01*
X147115747Y-133217883D01*
X147088723Y-133224326D01*
X147087135Y-133224920D01*
X147074640Y-133231564D01*
X147074745Y-133240700D01*
X147089867Y-133256564D01*
X147122421Y-133283391D01*
X147126490Y-133286668D01*
X147167911Y-133321108D01*
X147216798Y-133363123D01*
X147263420Y-133404364D01*
X147296233Y-133433330D01*
X147325544Y-133455437D01*
X147353718Y-133469103D01*
X147385929Y-133475271D01*
X147427346Y-133474885D01*
X147483142Y-133468889D01*
X147558487Y-133458226D01*
X147598030Y-133452686D01*
X147652955Y-133445653D01*
X147717321Y-133438109D01*
X147793705Y-133429784D01*
X147884686Y-133420406D01*
X147992841Y-133409704D01*
X148120749Y-133397408D01*
X148270987Y-133383245D01*
X148336518Y-133377301D01*
X148582994Y-133357863D01*
X148848533Y-133341019D01*
X149128601Y-133326880D01*
X149418662Y-133315559D01*
X149714181Y-133307168D01*
X150010622Y-133301819D01*
X150303451Y-133299622D01*
X150588131Y-133300692D01*
X150860129Y-133305138D01*
X151114908Y-133313073D01*
X151212749Y-133317104D01*
X151380167Y-133324678D01*
X151540972Y-133332790D01*
X151693328Y-133341303D01*
X151835396Y-133350080D01*
X151965340Y-133358987D01*
X152081323Y-133367885D01*
X152181506Y-133376640D01*
X152264052Y-133385114D01*
X152327124Y-133393171D01*
X152368885Y-133400675D01*
X152387497Y-133407490D01*
X152388439Y-133411230D01*
X152385927Y-133433135D01*
X152377994Y-133466574D01*
X152375449Y-133475755D01*
X152363048Y-133522499D01*
X152352793Y-133563898D01*
X152350754Y-133572492D01*
X152336662Y-133626939D01*
X152318173Y-133692608D01*
X152296548Y-133765585D01*
X152273049Y-133841953D01*
X152248936Y-133917798D01*
X152225471Y-133989204D01*
X152203915Y-134052258D01*
X152185529Y-134103042D01*
X152171573Y-134137644D01*
X152163309Y-134152146D01*
X152162275Y-134153158D01*
X152152629Y-134171076D01*
X152136958Y-134207035D01*
X152117192Y-134256428D01*
X152095260Y-134314646D01*
X152087665Y-134335235D01*
X152045085Y-134446443D01*
X151996298Y-134568064D01*
X151943410Y-134695253D01*
X151888524Y-134823165D01*
X151833745Y-134946956D01*
X151781177Y-135061780D01*
X151732925Y-135162792D01*
X151691093Y-135245148D01*
X151687014Y-135252823D01*
X151631841Y-135355399D01*
X151575644Y-135457806D01*
X151521517Y-135554517D01*
X151472550Y-135640003D01*
X151431833Y-135708738D01*
X151377997Y-135797329D01*
X151255742Y-135820664D01*
X151139418Y-135836504D01*
X150997093Y-135843267D01*
X150842119Y-135839485D01*
X150679624Y-135825293D01*
X150514737Y-135800830D01*
X150493569Y-135796905D01*
X150384580Y-135773564D01*
X150270299Y-135744605D01*
X150158255Y-135712178D01*
X150055975Y-135678433D01*
X149970987Y-135645520D01*
X149944070Y-135634773D01*
X149900208Y-135618509D01*
X149852237Y-135601636D01*
X149827077Y-135592910D01*
X149796707Y-135581781D01*
X149765564Y-135569394D01*
X149730564Y-135554332D01*
X149688622Y-135535181D01*
X149636653Y-135510524D01*
X149571573Y-135478945D01*
X149490296Y-135439029D01*
X149389737Y-135389360D01*
X149368926Y-135379021D01*
X149285915Y-135336989D01*
X149203924Y-135294346D01*
X149128331Y-135253955D01*
X149064513Y-135218678D01*
X149017846Y-135191377D01*
X148946957Y-135147864D01*
X148887146Y-135111591D01*
X148839047Y-135083064D01*
X148797786Y-135059392D01*
X148758487Y-135037689D01*
X148747833Y-135031775D01*
X148701936Y-135004509D01*
X148658487Y-134976557D01*
X148647309Y-134968979D01*
X148607934Y-134942437D01*
X148558980Y-134909575D01*
X148508487Y-134875796D01*
X148404147Y-134805914D01*
X148308474Y-134741298D01*
X148232641Y-134689387D01*
X148176024Y-134649753D01*
X148138003Y-134621965D01*
X148117955Y-134605592D01*
X148110280Y-134598842D01*
X148081955Y-134576441D01*
X148042014Y-134546601D01*
X147996517Y-134513898D01*
X147972895Y-134497147D01*
X147931995Y-134467663D01*
X147900913Y-134444622D01*
X147884995Y-134431952D01*
X147880693Y-134428202D01*
X147857282Y-134410252D01*
X147826047Y-134388202D01*
X147813665Y-134379559D01*
X147772209Y-134348747D01*
X147732297Y-134316981D01*
X147729108Y-134314338D01*
X147698163Y-134289341D01*
X147653685Y-134254085D01*
X147601139Y-134212882D01*
X147545987Y-134170039D01*
X147491648Y-134127645D01*
X147338301Y-134004393D01*
X147171596Y-133865625D01*
X146994050Y-133713488D01*
X146808184Y-133550129D01*
X146616515Y-133377696D01*
X146572094Y-133336728D01*
X146510567Y-133279066D01*
X146436796Y-133209280D01*
X146353653Y-133130136D01*
X146264013Y-133044399D01*
X146170750Y-132954833D01*
X146076736Y-132864204D01*
X145984845Y-132775278D01*
X145897951Y-132690819D01*
X145818928Y-132613593D01*
X145750649Y-132546364D01*
X145695987Y-132491898D01*
X145660676Y-132456331D01*
X145579234Y-132373933D01*
X145494802Y-132288068D01*
X145409250Y-132200669D01*
X145324442Y-132113670D01*
X145242247Y-132029005D01*
X145164532Y-131948607D01*
X145093163Y-131874412D01*
X145030008Y-131808352D01*
X144976933Y-131752362D01*
X144935807Y-131708375D01*
X144908495Y-131678326D01*
X144896865Y-131664149D01*
X144894115Y-131660150D01*
X144876052Y-131638290D01*
X144844494Y-131602461D01*
X144802156Y-131555676D01*
X144751749Y-131500943D01*
X144695987Y-131441274D01*
X144633848Y-131374683D01*
X144560705Y-131295214D01*
X144487257Y-131214451D01*
X144419367Y-131138844D01*
X144362902Y-131074846D01*
X144333407Y-131040986D01*
X144275469Y-130974540D01*
X144217932Y-130908628D01*
X144166132Y-130849358D01*
X144125402Y-130802841D01*
X144098332Y-130771769D01*
X144053875Y-130719992D01*
X144013508Y-130672159D01*
X143983487Y-130635641D01*
X143974904Y-130625050D01*
X143939109Y-130582195D01*
X143896310Y-130532329D01*
X143853987Y-130484198D01*
X143841054Y-130469599D01*
X143798279Y-130420035D01*
X143757803Y-130371482D01*
X143726925Y-130332648D01*
X143703244Y-130302543D01*
X143662001Y-130252767D01*
X143622536Y-130207648D01*
X143593996Y-130174860D01*
X143566610Y-130140452D01*
X143550175Y-130116209D01*
X143545099Y-130107503D01*
X143541449Y-130099513D01*
X143542016Y-130091192D01*
X143549009Y-130080383D01*
X143564635Y-130064928D01*
X143591102Y-130042672D01*
X143630617Y-130011457D01*
X143685387Y-129969127D01*
X143757621Y-129913524D01*
X143759204Y-129912304D01*
X143815170Y-129867502D01*
X143859006Y-129829164D01*
X143887910Y-129799888D01*
X143899082Y-129782274D01*
X143897462Y-129769882D01*
X143884189Y-129739569D01*
X143861582Y-129705222D01*
X143847251Y-129686718D01*
X143757336Y-129570822D01*
X143676302Y-129466724D01*
X143605202Y-129375765D01*
X143545092Y-129299286D01*
X143497023Y-129238630D01*
X143462051Y-129195136D01*
X143441229Y-129170148D01*
X143431286Y-129158017D01*
X143407116Y-129125862D01*
X143380935Y-129088686D01*
X143360405Y-129060178D01*
X143323901Y-129013480D01*
X143287110Y-128969936D01*
X143256905Y-128934897D01*
X143214486Y-128883374D01*
X143176331Y-128834824D01*
X143172159Y-128829334D01*
X143089564Y-128720703D01*
X143020401Y-128630071D01*
X142963040Y-128555627D01*
X142915852Y-128495557D01*
X142877206Y-128448049D01*
X142845475Y-128411288D01*
X142819027Y-128383464D01*
X142796234Y-128362762D01*
X142775466Y-128347370D01*
X142755093Y-128335474D01*
X142733486Y-128325263D01*
X142709016Y-128314922D01*
X142702380Y-128312148D01*
X142641452Y-128285996D01*
X142573262Y-128255824D01*
X142511358Y-128227619D01*
X142500487Y-128222598D01*
X142440458Y-128195813D01*
X142379652Y-128169941D01*
X142329715Y-128149961D01*
X142328038Y-128149325D01*
X142285394Y-128131152D01*
X142253448Y-128110929D01*
X142224178Y-128082296D01*
X142189561Y-128038898D01*
X142174508Y-128019016D01*
X142130073Y-127960660D01*
X142078662Y-127893499D01*
X142023963Y-127822314D01*
X141969660Y-127751890D01*
X141919439Y-127687010D01*
X141876986Y-127632457D01*
X141845987Y-127593015D01*
X141840563Y-127586168D01*
X141806322Y-127542597D01*
X141766008Y-127490889D01*
X141727237Y-127440808D01*
X141712146Y-127421511D01*
X141682724Y-127385644D01*
X141660401Y-127360807D01*
X141649112Y-127351497D01*
X141645635Y-127350325D01*
X141639737Y-127335568D01*
X141639604Y-127334387D01*
X141629776Y-127316170D01*
X141607442Y-127286503D01*
X141576926Y-127251193D01*
X141554569Y-127226417D01*
X141484221Y-127144342D01*
X141415272Y-127058467D01*
X141356173Y-126979205D01*
X141342144Y-126960005D01*
X141309358Y-126918157D01*
X141280030Y-126884079D01*
X141275039Y-126878663D01*
X141251113Y-126851244D01*
X141220065Y-126813515D01*
X141179951Y-126763035D01*
X141128823Y-126697365D01*
X141064737Y-126614063D01*
X141055463Y-126601983D01*
X141017740Y-126553107D01*
X140974539Y-126497419D01*
X140933487Y-126444761D01*
X140874390Y-126369172D01*
X140826678Y-126308078D01*
X140789239Y-126260029D01*
X140759470Y-126221670D01*
X140734768Y-126189648D01*
X140712531Y-126160610D01*
X140690157Y-126131202D01*
X140658629Y-126090215D01*
X140623971Y-126046159D01*
X140596407Y-126012132D01*
X140587255Y-126001145D01*
X140557007Y-125964825D01*
X140531996Y-125934779D01*
X140531715Y-125934441D01*
X140510870Y-125907309D01*
X140497687Y-125886545D01*
X140496722Y-125884748D01*
X140482979Y-125864932D01*
X140458483Y-125833070D01*
X140427812Y-125795148D01*
X140409885Y-125773157D01*
X140372794Y-125726822D01*
X140323903Y-125665134D01*
X140265249Y-125590699D01*
X140198865Y-125506127D01*
X140126788Y-125414024D01*
X140051052Y-125317000D01*
X139973692Y-125217663D01*
X139896744Y-125118620D01*
X139822243Y-125022479D01*
X139752224Y-124931849D01*
X139688721Y-124849338D01*
X139633771Y-124777554D01*
X139621740Y-124761854D01*
X139588008Y-124718381D01*
X139551797Y-124672308D01*
X139516669Y-124628106D01*
X139486189Y-124590241D01*
X139463918Y-124563182D01*
X139453421Y-124551398D01*
X139453363Y-124551351D01*
X139442084Y-124538649D01*
X139420527Y-124511745D01*
X139393307Y-124476398D01*
X139365665Y-124440386D01*
X139339193Y-124406830D01*
X139321739Y-124385772D01*
X139309744Y-124370068D01*
X139302237Y-124353335D01*
X139295089Y-124339682D01*
X139275826Y-124318960D01*
X139256759Y-124299151D01*
X139227814Y-124265336D01*
X139196863Y-124226398D01*
X139192976Y-124221318D01*
X139161573Y-124180477D01*
X139117593Y-124123511D01*
X139063420Y-124053496D01*
X139001441Y-123973508D01*
X138934039Y-123886625D01*
X138863600Y-123795922D01*
X138792510Y-123704476D01*
X138723154Y-123615364D01*
X138702419Y-123588702D01*
X138656693Y-123529646D01*
X138614461Y-123474777D01*
X138579691Y-123429264D01*
X138556356Y-123398273D01*
X138535972Y-123372295D01*
X138514018Y-123348197D01*
X138501065Y-123338898D01*
X138496177Y-123337153D01*
X138489737Y-123321189D01*
X138488922Y-123313701D01*
X138480166Y-123299314D01*
X138473940Y-123294059D01*
X138455656Y-123272997D01*
X138432149Y-123242256D01*
X138419092Y-123225198D01*
X138387892Y-123189287D01*
X138360440Y-123163200D01*
X138341304Y-123152805D01*
X138301315Y-123135502D01*
X138244678Y-123113024D01*
X138175072Y-123086671D01*
X138096175Y-123057740D01*
X138011665Y-123027531D01*
X137925219Y-122997341D01*
X137840515Y-122968470D01*
X137761231Y-122942215D01*
X137691045Y-122919875D01*
X137633634Y-122902749D01*
X137592678Y-122892135D01*
X137574049Y-122886066D01*
X137557565Y-122874905D01*
X137549043Y-122868628D01*
X137524928Y-122863898D01*
X137514258Y-122862577D01*
X137480949Y-122854841D01*
X137434410Y-122841725D01*
X137381220Y-122825010D01*
X137347600Y-122814155D01*
X137303350Y-122800716D01*
X137272310Y-122792383D01*
X137259706Y-122790635D01*
X137259418Y-122791422D01*
X137259338Y-122808800D01*
X137261627Y-122843440D01*
X137265879Y-122888898D01*
X137266078Y-122890820D01*
X137271076Y-122952393D01*
X137274893Y-123023414D01*
X137276716Y-123088898D01*
X137276776Y-123093872D01*
X137279090Y-123157391D01*
X137283740Y-123222697D01*
X137289794Y-123276398D01*
X137292842Y-123300460D01*
X137298150Y-123353723D01*
X137303823Y-123421622D01*
X137309356Y-123497924D01*
X137314238Y-123576398D01*
X137319535Y-123661286D01*
X137327605Y-123760605D01*
X137336766Y-123839178D01*
X137347393Y-123899486D01*
X137359861Y-123944011D01*
X137374546Y-123975232D01*
X137375028Y-123975995D01*
X137393175Y-124002179D01*
X137422817Y-124042416D01*
X137459975Y-124091499D01*
X137500669Y-124144223D01*
X137540919Y-124195381D01*
X137576747Y-124239766D01*
X137601713Y-124270871D01*
X137635592Y-124314187D01*
X137669571Y-124358516D01*
X137691661Y-124387590D01*
X137769070Y-124487860D01*
X137851991Y-124592674D01*
X137945987Y-124709088D01*
X137986158Y-124759055D01*
X138025863Y-124809609D01*
X138058735Y-124852648D01*
X138080222Y-124882298D01*
X138102383Y-124913204D01*
X138136353Y-124957745D01*
X138171376Y-125001398D01*
X138218205Y-125058049D01*
X138257636Y-125106066D01*
X138286997Y-125142365D01*
X138309421Y-125170871D01*
X138328040Y-125195510D01*
X138345987Y-125220206D01*
X138377368Y-125262839D01*
X138426895Y-125327501D01*
X138480250Y-125394932D01*
X138530360Y-125456083D01*
X138540746Y-125468677D01*
X138576172Y-125513655D01*
X138608487Y-125557079D01*
X138617309Y-125569282D01*
X138646817Y-125609078D01*
X138683350Y-125657416D01*
X138720987Y-125706435D01*
X138737431Y-125727662D01*
X138774219Y-125775192D01*
X138806802Y-125817332D01*
X138829622Y-125846900D01*
X138832399Y-125850506D01*
X138896511Y-125933577D01*
X138948176Y-126000075D01*
X138989969Y-126053207D01*
X139024463Y-126096184D01*
X139054234Y-126132214D01*
X139081855Y-126164507D01*
X139109903Y-126196272D01*
X139134293Y-126224363D01*
X139177450Y-126276273D01*
X139224287Y-126334554D01*
X139268223Y-126391106D01*
X139307262Y-126442211D01*
X139359939Y-126510721D01*
X139414782Y-126581677D01*
X139464737Y-126645931D01*
X139474119Y-126657959D01*
X139513998Y-126709325D01*
X139548879Y-126754606D01*
X139575284Y-126789273D01*
X139589737Y-126808797D01*
X139596309Y-126817868D01*
X139618308Y-126847167D01*
X139648870Y-126887138D01*
X139683487Y-126931862D01*
X139700297Y-126953769D01*
X139734805Y-127000662D01*
X139763478Y-127042084D01*
X139781392Y-127071037D01*
X139785740Y-127078593D01*
X139805914Y-127103746D01*
X139824100Y-127113897D01*
X139833252Y-127115033D01*
X139836152Y-127121649D01*
X139837375Y-127128523D01*
X139850455Y-127151881D01*
X139874279Y-127187099D01*
X139905944Y-127229684D01*
X139923460Y-127252392D01*
X139962883Y-127303839D01*
X139999143Y-127351562D01*
X140026147Y-127387557D01*
X140044666Y-127412115D01*
X140065594Y-127438607D01*
X140077026Y-127451398D01*
X140086611Y-127461991D01*
X140108923Y-127488884D01*
X140140725Y-127528131D01*
X140178982Y-127575923D01*
X140220661Y-127628449D01*
X140262724Y-127681899D01*
X140302138Y-127732463D01*
X140335867Y-127776331D01*
X140360760Y-127809004D01*
X140415470Y-127880472D01*
X140458255Y-127935729D01*
X140491288Y-127977538D01*
X140516742Y-128008662D01*
X140536788Y-128031863D01*
X140540124Y-128035635D01*
X140569803Y-128072294D01*
X140594828Y-128107648D01*
X140599796Y-128115264D01*
X140626034Y-128152021D01*
X140654969Y-128188898D01*
X140668282Y-128205149D01*
X140698610Y-128242902D01*
X140735726Y-128289675D01*
X140774400Y-128338898D01*
X140802066Y-128373835D01*
X140833049Y-128411710D01*
X140856002Y-128438294D01*
X140867330Y-128449314D01*
X140871128Y-128452224D01*
X140877237Y-128470568D01*
X140878643Y-128478440D01*
X140893200Y-128497651D01*
X140903162Y-128506314D01*
X140925811Y-128531073D01*
X140952482Y-128563898D01*
X140971219Y-128587498D01*
X140992987Y-128612811D01*
X141005270Y-128624314D01*
X141007345Y-128625548D01*
X141014737Y-128641654D01*
X141015405Y-128644327D01*
X141026959Y-128663920D01*
X141049903Y-128695416D01*
X141080362Y-128733400D01*
X141117119Y-128777565D01*
X141159081Y-128828994D01*
X141189051Y-128867945D01*
X141209568Y-128898289D01*
X141223174Y-128923899D01*
X141232409Y-128948644D01*
X141239812Y-128976398D01*
X141246288Y-129005097D01*
X141253270Y-129041849D01*
X141255748Y-129063898D01*
X141255741Y-129064264D01*
X141258017Y-129086047D01*
X141264234Y-129124003D01*
X141273088Y-129170148D01*
X141281895Y-129217195D01*
X141290871Y-129274095D01*
X141296419Y-129320148D01*
X141298076Y-129339363D01*
X141304215Y-129407317D01*
X141310791Y-129457806D01*
X141320317Y-129496812D01*
X141335305Y-129530318D01*
X141358268Y-129564304D01*
X141391717Y-129604753D01*
X141438165Y-129657648D01*
X141438722Y-129658284D01*
X141457569Y-129681439D01*
X141485106Y-129717039D01*
X141515578Y-129757648D01*
X141518537Y-129761649D01*
X141546995Y-129799803D01*
X141570241Y-129830413D01*
X141583487Y-129847171D01*
X141596931Y-129863453D01*
X141624491Y-129897784D01*
X141661798Y-129944773D01*
X141705828Y-130000570D01*
X141753556Y-130061325D01*
X141801960Y-130123187D01*
X141848015Y-130182307D01*
X141888699Y-130234835D01*
X141920987Y-130276921D01*
X141943580Y-130306408D01*
X141984324Y-130358984D01*
X142021524Y-130406379D01*
X142050796Y-130443847D01*
X142090779Y-130496034D01*
X142127703Y-130545148D01*
X142131811Y-130550676D01*
X142159034Y-130586885D01*
X142179926Y-130613960D01*
X142190250Y-130626398D01*
X142191166Y-130627334D01*
X142203899Y-130642757D01*
X142226690Y-130671767D01*
X142255310Y-130708997D01*
X142309814Y-130779352D01*
X142354426Y-130834075D01*
X142392862Y-130877710D01*
X142406997Y-130895995D01*
X142414737Y-130913898D01*
X142414797Y-130915476D01*
X142424775Y-130926609D01*
X142448971Y-130922743D01*
X142483219Y-130905339D01*
X142523352Y-130875854D01*
X142551406Y-130852282D01*
X142587105Y-130822304D01*
X142612674Y-130800854D01*
X142635687Y-130783653D01*
X142650404Y-130776397D01*
X142662200Y-130770081D01*
X142687894Y-130751625D01*
X142721217Y-130725280D01*
X142750824Y-130700982D01*
X142790205Y-130668678D01*
X142820272Y-130644030D01*
X142824867Y-130640423D01*
X142856553Y-130621577D01*
X142883546Y-130613898D01*
X142907334Y-130623580D01*
X142934091Y-130647622D01*
X142955792Y-130677438D01*
X142964737Y-130704440D01*
X142966006Y-130708906D01*
X142979597Y-130730797D01*
X143004913Y-130763519D01*
X143038006Y-130801821D01*
X143039537Y-130803511D01*
X143170069Y-130950080D01*
X143289737Y-131089478D01*
X143321698Y-131127480D01*
X143367282Y-131181498D01*
X143401037Y-131221182D01*
X143425626Y-131249653D01*
X143443708Y-131270032D01*
X143446492Y-131273157D01*
X143467651Y-131297942D01*
X143497742Y-131334147D01*
X143531208Y-131375099D01*
X143532808Y-131377071D01*
X143572044Y-131424760D01*
X143612887Y-131473344D01*
X143646745Y-131512599D01*
X143667971Y-131537052D01*
X143709324Y-131586081D01*
X143746745Y-131631901D01*
X143769893Y-131660466D01*
X143801385Y-131698106D01*
X143825570Y-131725651D01*
X143825939Y-131726051D01*
X143848709Y-131752553D01*
X143879657Y-131790797D01*
X143912197Y-131832648D01*
X143944978Y-131874559D01*
X143985245Y-131923855D01*
X144020115Y-131964455D01*
X144061192Y-132010610D01*
X144098591Y-132053700D01*
X144124517Y-132085390D01*
X144142046Y-132109471D01*
X144154256Y-132129731D01*
X144173597Y-132159341D01*
X144207758Y-132203253D01*
X144257601Y-132262449D01*
X144324112Y-132338138D01*
X144349340Y-132367625D01*
X144369506Y-132393793D01*
X144377237Y-132407546D01*
X144381347Y-132416106D01*
X144398373Y-132439161D01*
X144424112Y-132469317D01*
X144457793Y-132508426D01*
X144496739Y-132557696D01*
X144542545Y-132619564D01*
X144598459Y-132698298D01*
X144615274Y-132721484D01*
X144637173Y-132749109D01*
X144650807Y-132763013D01*
X144653697Y-132765503D01*
X144669880Y-132784698D01*
X144694451Y-132817489D01*
X144723335Y-132858512D01*
X144758881Y-132909974D01*
X144810239Y-132982155D01*
X144849579Y-133034232D01*
X144876577Y-133065786D01*
X144890910Y-133076398D01*
X144895245Y-133077630D01*
X144902237Y-133092495D01*
X144903679Y-133098623D01*
X144916823Y-133122344D01*
X144939229Y-133151870D01*
X144949669Y-133164556D01*
X144968962Y-133191275D01*
X144976945Y-133207648D01*
X144976992Y-133208124D01*
X144986510Y-133225198D01*
X145007228Y-133248164D01*
X145033784Y-133279830D01*
X145056333Y-133316914D01*
X145066402Y-133334399D01*
X145093697Y-133371479D01*
X145126148Y-133407648D01*
X145147041Y-133429318D01*
X145168389Y-133454112D01*
X145176826Y-133467857D01*
X145177676Y-133471088D01*
X145188764Y-133491017D01*
X145208487Y-133519036D01*
X145215472Y-133528411D01*
X145232800Y-133554111D01*
X145239737Y-133568570D01*
X145245871Y-133580431D01*
X145263878Y-133606438D01*
X145289603Y-133640217D01*
X145312544Y-133670846D01*
X145340707Y-133712687D01*
X145359777Y-133746100D01*
X145363421Y-133753425D01*
X145379270Y-133778692D01*
X145391471Y-133788898D01*
X145401600Y-133795463D01*
X145415017Y-133817023D01*
X145431550Y-133850385D01*
X145450612Y-133882143D01*
X145465745Y-133901398D01*
X145466922Y-133902542D01*
X145480922Y-133920384D01*
X145504328Y-133953328D01*
X145533701Y-133996236D01*
X145565601Y-134043972D01*
X145596590Y-134091399D01*
X145623229Y-134133381D01*
X145642079Y-134164780D01*
X145655220Y-134186918D01*
X145687606Y-134236821D01*
X145720204Y-134282470D01*
X145739338Y-134308715D01*
X145757658Y-134337096D01*
X145764737Y-134352878D01*
X145771644Y-134368597D01*
X145789729Y-134391768D01*
X145809827Y-134417837D01*
X145830281Y-134453746D01*
X145830488Y-134454212D01*
X145844155Y-134478725D01*
X145855289Y-134488898D01*
X145857867Y-134489405D01*
X145864737Y-134502232D01*
X145865452Y-134506000D01*
X145876277Y-134527688D01*
X145895987Y-134556536D01*
X145902772Y-134565701D01*
X145920247Y-134592530D01*
X145927263Y-134608827D01*
X145927549Y-134610430D01*
X145936413Y-134629120D01*
X145955175Y-134661414D01*
X145980437Y-134701398D01*
X145982613Y-134704730D01*
X146016728Y-134758139D01*
X146054947Y-134819574D01*
X146089402Y-134876398D01*
X146100102Y-134894235D01*
X146124784Y-134934294D01*
X146143694Y-134963463D01*
X146153410Y-134976398D01*
X146161486Y-134986212D01*
X146177598Y-135012945D01*
X146195037Y-135046416D01*
X146209014Y-135077269D01*
X146214737Y-135096150D01*
X146220863Y-135110812D01*
X146239443Y-135132381D01*
X146254568Y-135149854D01*
X146258420Y-135164007D01*
X146258447Y-135169631D01*
X146268175Y-135191559D01*
X146287445Y-135221711D01*
X146288069Y-135222584D01*
X146311654Y-135259058D01*
X146339906Y-135307491D01*
X146366847Y-135357648D01*
X146367082Y-135358109D01*
X146393903Y-135409772D01*
X146421347Y-135461226D01*
X146443507Y-135501398D01*
X146451804Y-135516259D01*
X146478493Y-135566662D01*
X146501832Y-135613898D01*
X146509746Y-135630460D01*
X146530173Y-135670818D01*
X146547123Y-135701398D01*
X146548107Y-135703035D01*
X146566550Y-135737580D01*
X146584472Y-135776398D01*
X146586557Y-135781302D01*
X146602131Y-135815066D01*
X146615007Y-135838898D01*
X146620347Y-135847983D01*
X146637573Y-135880869D01*
X146661703Y-135929519D01*
X146690512Y-135989244D01*
X146721772Y-136055358D01*
X146753256Y-136123171D01*
X146782738Y-136187997D01*
X146807990Y-136245148D01*
X146811834Y-136254034D01*
X146827114Y-136289375D01*
X146847655Y-136336903D01*
X146870120Y-136388898D01*
X146880010Y-136411663D01*
X146900857Y-136458824D01*
X146917797Y-136496067D01*
X146927879Y-136516853D01*
X146933929Y-136530591D01*
X146939737Y-136557478D01*
X146940858Y-136566225D01*
X146949567Y-136576398D01*
X146950750Y-136576884D01*
X146960359Y-136591986D01*
X146974370Y-136623962D01*
X146990192Y-136667023D01*
X146993133Y-136675612D01*
X147008469Y-136718300D01*
X147020969Y-136749829D01*
X147028163Y-136763898D01*
X147031511Y-136769432D01*
X147040826Y-136793831D01*
X147051662Y-136829523D01*
X147057980Y-136850051D01*
X147069582Y-136877956D01*
X147078862Y-136888898D01*
X147080285Y-136889273D01*
X147087005Y-136903724D01*
X147089737Y-136932648D01*
X147089833Y-136938376D01*
X147093502Y-136965405D01*
X147100846Y-136976398D01*
X147102464Y-136976820D01*
X147112004Y-136991395D01*
X147120190Y-137020295D01*
X147122194Y-137029728D01*
X147132168Y-137068263D01*
X147146860Y-137118967D01*
X147163869Y-137173420D01*
X147170082Y-137192883D01*
X147186591Y-137247661D01*
X147199903Y-137296095D01*
X147207592Y-137329523D01*
X147209320Y-137338154D01*
X147218209Y-137365412D01*
X147227804Y-137376398D01*
X147233673Y-137379016D01*
X147239737Y-137396514D01*
X147241398Y-137409818D01*
X147247980Y-137444224D01*
X147258409Y-137492344D01*
X147271434Y-137548191D01*
X147310683Y-137725026D01*
X147342333Y-137899198D01*
X147363619Y-138057648D01*
X147364748Y-138068693D01*
X147370291Y-138136021D01*
X147374435Y-138208910D01*
X147377090Y-138282277D01*
X147378167Y-138351043D01*
X147377577Y-138410127D01*
X147375230Y-138454448D01*
X147371036Y-138478924D01*
X147367750Y-138491518D01*
X147370049Y-138512380D01*
X147371334Y-138519432D01*
X147370419Y-138547711D01*
X147365939Y-138591097D01*
X147358430Y-138643546D01*
X147353603Y-138674406D01*
X147346786Y-138721909D01*
X147342605Y-138756612D01*
X147341824Y-138772590D01*
X147341906Y-138781613D01*
X147337424Y-138810719D01*
X147328750Y-138851211D01*
X147317701Y-138895908D01*
X147306093Y-138937631D01*
X147295745Y-138969198D01*
X147288473Y-138983429D01*
X147281670Y-138993447D01*
X147277237Y-139018662D01*
X147274951Y-139030500D01*
X147262960Y-139063326D01*
X147243416Y-139107611D01*
X147219410Y-139157082D01*
X147194030Y-139205468D01*
X147170368Y-139246494D01*
X147151513Y-139273888D01*
X147134961Y-139297037D01*
X147115814Y-139329579D01*
X147109663Y-139339065D01*
X147093800Y-139354260D01*
X147068462Y-139370252D01*
X147031221Y-139388061D01*
X146979654Y-139408702D01*
X146911335Y-139433193D01*
X146823838Y-139462552D01*
X146714737Y-139497795D01*
X146538025Y-139552664D01*
X146304458Y-139619858D01*
X146076299Y-139678733D01*
X145848494Y-139730332D01*
X145615989Y-139775698D01*
X145373731Y-139815876D01*
X145116665Y-139851907D01*
X144839737Y-139884835D01*
X144833573Y-139885497D01*
X144754560Y-139892020D01*
X144655019Y-139897455D01*
X144538743Y-139901799D01*
X144409522Y-139905052D01*
X144271150Y-139907213D01*
X144127417Y-139908282D01*
X143982117Y-139908258D01*
X143839040Y-139907140D01*
X143701980Y-139904928D01*
X143574727Y-139901621D01*
X143461075Y-139897217D01*
X143364814Y-139891718D01*
X143289737Y-139885120D01*
X143165834Y-139870709D01*
X143048493Y-139855901D01*
X142950457Y-139841912D01*
X142868758Y-139828188D01*
X142800429Y-139814175D01*
X142742503Y-139799318D01*
X142692011Y-139783063D01*
X142645987Y-139764855D01*
X142633925Y-139759976D01*
X142599463Y-139747156D01*
X142558487Y-139732790D01*
X142537874Y-139725588D01*
X142492442Y-139708645D01*
X142456598Y-139693968D01*
X142453025Y-139692389D01*
X142424975Y-139681044D01*
X142409038Y-139676398D01*
X142404312Y-139675351D01*
X142381443Y-139666914D01*
X142348427Y-139652782D01*
X142311149Y-139636622D01*
X142260391Y-139615493D01*
X142208487Y-139594563D01*
X142183761Y-139584247D01*
X142129538Y-139559972D01*
X142060537Y-139527794D01*
X141981285Y-139489921D01*
X141896309Y-139448565D01*
X141810138Y-139405936D01*
X141727301Y-139364244D01*
X141652324Y-139325701D01*
X141589737Y-139292515D01*
X141584799Y-139289826D01*
X141524362Y-139255684D01*
X141453570Y-139213944D01*
X141377772Y-139167931D01*
X141302317Y-139120969D01*
X141232553Y-139076383D01*
X141173828Y-139037499D01*
X141131491Y-139007640D01*
X141069421Y-138960949D01*
X140997371Y-138905814D01*
X140937415Y-138858305D01*
X140884766Y-138814396D01*
X140834636Y-138770063D01*
X140782239Y-138721280D01*
X140722785Y-138664021D01*
X140715474Y-138656885D01*
X140561820Y-138495051D01*
X140432206Y-138333637D01*
X140325775Y-138171342D01*
X140241668Y-138006863D01*
X140179028Y-137838898D01*
X140175856Y-137828437D01*
X140130452Y-137634927D01*
X140109968Y-137440984D01*
X140114344Y-137247024D01*
X140143517Y-137053461D01*
X140197427Y-136860712D01*
X140276013Y-136669192D01*
X140379213Y-136479316D01*
X140387255Y-136466168D01*
X140406199Y-136435498D01*
X140422917Y-136409490D01*
X140440344Y-136384085D01*
X140461418Y-136355220D01*
X140489072Y-136318835D01*
X140526244Y-136270868D01*
X140575867Y-136207259D01*
X140721988Y-136035654D01*
X140895057Y-135861588D01*
X141091714Y-135688953D01*
X141311250Y-135518243D01*
X141552954Y-135349953D01*
X141816115Y-135184577D01*
X142100023Y-135022609D01*
X142403967Y-134864544D01*
X142727237Y-134710874D01*
X142737626Y-134706161D01*
X142863958Y-134650363D01*
X143002655Y-134591529D01*
X143148721Y-134531619D01*
X143297161Y-134472591D01*
X143442978Y-134416405D01*
X143581177Y-134365018D01*
X143706762Y-134320390D01*
X143814737Y-134284479D01*
X143841796Y-134275701D01*
X143889608Y-134259405D01*
X143927237Y-134245666D01*
X143946375Y-134238727D01*
X143989120Y-134224360D01*
X144043491Y-134206868D01*
X144102237Y-134188617D01*
X144142890Y-134176151D01*
X144200975Y-134158116D01*
X144250384Y-134142523D01*
X144283487Y-134131767D01*
X144288624Y-134130062D01*
X144327494Y-134117799D01*
X144383348Y-134100810D01*
X144450281Y-134080843D01*
X144522385Y-134059652D01*
X144593756Y-134038985D01*
X144658487Y-134020595D01*
X144682046Y-134014145D01*
X144732360Y-134000791D01*
X144792938Y-133985041D01*
X144855362Y-133969098D01*
X144902366Y-133956718D01*
X144947643Y-133943618D01*
X144978398Y-133933304D01*
X144989737Y-133927300D01*
X144984039Y-133915707D01*
X144967104Y-133889374D01*
X144942862Y-133854783D01*
X144921812Y-133825443D01*
X144883973Y-133771812D01*
X144849665Y-133722272D01*
X144803342Y-133654453D01*
X144693415Y-133683104D01*
X144655127Y-133693262D01*
X144591607Y-133710471D01*
X144515683Y-133731309D01*
X144433759Y-133754014D01*
X144352237Y-133776829D01*
X144352084Y-133776872D01*
X144277311Y-133797834D01*
X144208555Y-133816964D01*
X144150326Y-133833016D01*
X144107134Y-133844749D01*
X144083487Y-133850919D01*
X144078033Y-133852266D01*
X144038386Y-133863136D01*
X143995987Y-133875998D01*
X143958797Y-133887865D01*
X143872357Y-133914861D01*
X143770987Y-133945751D01*
X143760151Y-133949076D01*
X143714439Y-133963613D01*
X143653894Y-133983359D01*
X143585125Y-134006147D01*
X143514737Y-134029810D01*
X143497552Y-134035633D01*
X143422183Y-134061163D01*
X143346727Y-134086713D01*
X143279104Y-134109603D01*
X143227237Y-134127149D01*
X143159137Y-134150322D01*
X143094057Y-134172948D01*
X143033621Y-134194678D01*
X142972275Y-134217591D01*
X142904466Y-134243765D01*
X142824638Y-134275278D01*
X142727237Y-134314207D01*
X142637522Y-134350264D01*
X142542074Y-134388878D01*
X142465286Y-134420301D01*
X142404569Y-134445605D01*
X142357333Y-134465860D01*
X142320987Y-134482137D01*
X142318811Y-134483139D01*
X142274489Y-134503191D01*
X142219326Y-134527698D01*
X142164737Y-134551585D01*
X142151445Y-134557430D01*
X142091305Y-134585094D01*
X142015506Y-134621319D01*
X141928829Y-134663698D01*
X141836057Y-134709823D01*
X141741972Y-134757287D01*
X141651354Y-134803682D01*
X141568986Y-134846601D01*
X141499650Y-134883636D01*
X141448127Y-134912380D01*
X141414962Y-134931487D01*
X141373993Y-134954666D01*
X141345022Y-134970522D01*
X141332834Y-134976398D01*
X141330834Y-134976803D01*
X141310665Y-134986600D01*
X141273646Y-135007984D01*
X141222851Y-135038962D01*
X141161358Y-135077543D01*
X141092242Y-135121732D01*
X141018579Y-135169536D01*
X140943447Y-135218964D01*
X140869920Y-135268021D01*
X140801075Y-135314715D01*
X140739989Y-135357053D01*
X140689737Y-135393041D01*
X140493231Y-135543664D01*
X140275158Y-135728483D01*
X140079079Y-135915592D01*
X139905490Y-136104404D01*
X139754886Y-136294333D01*
X139627764Y-136484790D01*
X139524620Y-136675190D01*
X139445950Y-136864946D01*
X139398102Y-137018457D01*
X139358578Y-137199943D01*
X139340908Y-137373067D01*
X139344932Y-137539621D01*
X139370487Y-137701398D01*
X139382482Y-137754007D01*
X139399493Y-137826888D01*
X139412749Y-137880663D01*
X139423142Y-137918717D01*
X139431562Y-137944433D01*
X139438901Y-137961195D01*
X139439554Y-137962459D01*
X139450402Y-137986125D01*
X139466851Y-138024580D01*
X139485610Y-138070148D01*
X139502382Y-138108313D01*
X139541627Y-138185050D01*
X139590699Y-138270401D01*
X139646172Y-138359167D01*
X139704625Y-138446145D01*
X139762633Y-138526138D01*
X139816774Y-138593943D01*
X139863623Y-138644361D01*
X139873112Y-138653696D01*
X139893933Y-138677064D01*
X139902237Y-138691236D01*
X139902000Y-138694269D01*
X139893308Y-138701605D01*
X139871143Y-138695223D01*
X139834196Y-138674405D01*
X139781159Y-138638438D01*
X139710720Y-138586605D01*
X139530052Y-138443019D01*
X139354386Y-138287779D01*
X139193428Y-138128891D01*
X139049549Y-137968840D01*
X138925121Y-137810115D01*
X138822515Y-137655201D01*
X138783008Y-137585341D01*
X138711635Y-137438128D01*
X138650595Y-137283593D01*
X138602812Y-137129552D01*
X138571213Y-136983817D01*
X138569130Y-136970326D01*
X138558486Y-136866370D01*
X138554613Y-136751946D01*
X138557344Y-136635732D01*
X138566508Y-136526406D01*
X138581937Y-136432648D01*
X138592068Y-136389474D01*
X138654042Y-136186251D01*
X138738690Y-135987711D01*
X138846292Y-135793510D01*
X138977132Y-135603299D01*
X139131489Y-135416733D01*
X139309647Y-135233465D01*
X139511886Y-135053148D01*
X139738489Y-134875435D01*
X139989737Y-134699980D01*
X140137626Y-134603956D01*
X140294109Y-134507258D01*
X140446655Y-134418859D01*
X140603027Y-134334280D01*
X140770987Y-134249040D01*
X140826157Y-134221739D01*
X140888750Y-134190605D01*
X140941967Y-134163961D01*
X140981454Y-134143989D01*
X141002860Y-134132868D01*
X141005991Y-134131186D01*
X141041251Y-134113814D01*
X141095021Y-134088968D01*
X141163222Y-134058403D01*
X141241777Y-134023875D01*
X141326610Y-133987140D01*
X141413644Y-133949951D01*
X141498800Y-133914065D01*
X141578003Y-133881236D01*
X141647174Y-133853221D01*
X141702237Y-133831773D01*
X141745226Y-133815323D01*
X141784243Y-133799916D01*
X141808487Y-133789780D01*
X141824603Y-133782984D01*
X141863451Y-133767824D01*
X141912912Y-133749282D01*
X141965169Y-133730235D01*
X142012405Y-133713557D01*
X142046802Y-133702124D01*
X142066116Y-133695743D01*
X142107355Y-133681067D01*
X142152237Y-133664222D01*
X142199026Y-133646890D01*
X142257720Y-133626203D01*
X142314737Y-133606971D01*
X142322667Y-133604362D01*
X142370277Y-133588217D01*
X142409847Y-133574045D01*
X142433487Y-133564657D01*
X142449927Y-133558239D01*
X142489894Y-133544558D01*
X142547854Y-133525752D01*
X142620414Y-133502857D01*
X142704183Y-133476905D01*
X142795769Y-133448933D01*
X142891779Y-133419973D01*
X142988823Y-133391062D01*
X143083509Y-133363232D01*
X143172444Y-133337518D01*
X143252237Y-133314955D01*
X143331077Y-133293048D01*
X143480479Y-133251949D01*
X143610626Y-133216805D01*
X143724697Y-133186787D01*
X143825870Y-133161064D01*
X143917324Y-133138808D01*
X144002237Y-133119189D01*
X144056911Y-133106648D01*
X144113657Y-133093192D01*
X144158487Y-133082121D01*
X144176317Y-133077727D01*
X144228272Y-133066235D01*
X144274047Y-133057667D01*
X144287662Y-133055254D01*
X144317726Y-133047824D01*
X144332042Y-133040935D01*
X144332262Y-133040057D01*
X144325839Y-133024185D01*
X144308114Y-132994852D01*
X144282418Y-132957648D01*
X144252417Y-132916067D01*
X144215478Y-132864194D01*
X144184589Y-132820148D01*
X144165815Y-132794444D01*
X144130629Y-132750992D01*
X144098696Y-132716428D01*
X144056071Y-132675209D01*
X143944779Y-132701184D01*
X143918592Y-132707282D01*
X143818916Y-132730146D01*
X143743366Y-132746832D01*
X143691864Y-132757356D01*
X143671207Y-132761786D01*
X143639298Y-132770287D01*
X143629966Y-132772874D01*
X143596642Y-132780323D01*
X143555922Y-132787983D01*
X143539835Y-132791114D01*
X143495883Y-132800956D01*
X143436779Y-132815153D01*
X143368241Y-132832316D01*
X143295987Y-132851059D01*
X143249131Y-132863403D01*
X143185619Y-132880028D01*
X143132808Y-132893726D01*
X143095185Y-132903336D01*
X143077237Y-132907695D01*
X143077099Y-132907723D01*
X143055097Y-132912984D01*
X143015093Y-132923191D01*
X142963134Y-132936756D01*
X142905266Y-132952086D01*
X142847535Y-132967592D01*
X142795987Y-132981682D01*
X142737601Y-132997807D01*
X142647232Y-133022565D01*
X142579520Y-133040802D01*
X142533570Y-133052758D01*
X142508487Y-133058672D01*
X142488400Y-133063906D01*
X142449565Y-133075203D01*
X142398106Y-133090782D01*
X142339737Y-133108940D01*
X142286770Y-133125544D01*
X142203430Y-133151451D01*
X142117086Y-133178094D01*
X142039737Y-133201762D01*
X141976428Y-133221242D01*
X141875805Y-133252961D01*
X141771852Y-133286511D01*
X141668458Y-133320580D01*
X141569512Y-133353855D01*
X141478903Y-133385024D01*
X141400520Y-133412774D01*
X141338252Y-133435793D01*
X141295987Y-133452768D01*
X141282819Y-133458049D01*
X141248142Y-133471094D01*
X141200455Y-133488522D01*
X141145987Y-133508038D01*
X141109307Y-133521227D01*
X141054995Y-133541366D01*
X141010050Y-133558744D01*
X140981598Y-133570647D01*
X140977889Y-133572348D01*
X140949744Y-133584091D01*
X140933487Y-133588898D01*
X140932503Y-133588977D01*
X140914241Y-133594841D01*
X140885377Y-133607156D01*
X140882346Y-133608544D01*
X140848992Y-133622942D01*
X140802600Y-133642056D01*
X140752237Y-133662142D01*
X140712816Y-133677905D01*
X140650346Y-133703544D01*
X140581305Y-133732411D01*
X140514737Y-133760752D01*
X140352548Y-133832063D01*
X140014821Y-133990574D01*
X139692863Y-134155599D01*
X139389733Y-134325533D01*
X139108487Y-134498772D01*
X139027266Y-134552024D01*
X138854866Y-134670472D01*
X138698074Y-134786860D01*
X138551350Y-134905588D01*
X138409153Y-135031053D01*
X138265944Y-135167654D01*
X138094232Y-135346624D01*
X137943080Y-135525228D01*
X137816130Y-135699954D01*
X137713179Y-135871084D01*
X137634023Y-136038898D01*
X137616308Y-136082341D01*
X137600288Y-136121076D01*
X137590071Y-136145148D01*
X137582434Y-136163888D01*
X137561220Y-136229473D01*
X137540208Y-136311706D01*
X137520515Y-136404507D01*
X137503255Y-136501799D01*
X137489545Y-136597501D01*
X137480500Y-136685534D01*
X137477237Y-136759818D01*
X137476957Y-136765669D01*
X137472228Y-136776282D01*
X137460836Y-136774669D01*
X137441710Y-136759632D01*
X137413781Y-136729973D01*
X137375980Y-136684495D01*
X137327236Y-136621999D01*
X137266481Y-136541290D01*
X137192644Y-136441168D01*
X137146733Y-136378358D01*
X137110390Y-136328181D01*
X137080353Y-136285927D01*
X137052306Y-136245444D01*
X137021931Y-136200580D01*
X136984909Y-136145183D01*
X136936330Y-136072271D01*
X136943596Y-135952459D01*
X136947399Y-135902929D01*
X136977052Y-135708717D01*
X137029590Y-135512700D01*
X137103862Y-135318011D01*
X137198719Y-135127782D01*
X137313014Y-134945148D01*
X137324101Y-134929362D01*
X137433482Y-134786755D01*
X137562298Y-134638972D01*
X137707066Y-134489463D01*
X137864302Y-134341675D01*
X138030520Y-134199057D01*
X138202237Y-134065056D01*
X138236370Y-134040347D01*
X138285172Y-134006017D01*
X138343243Y-133965843D01*
X138407266Y-133922054D01*
X138473925Y-133876877D01*
X138539906Y-133832539D01*
X138601892Y-133791268D01*
X138656568Y-133755291D01*
X138700618Y-133726835D01*
X138730726Y-133708128D01*
X138743577Y-133701398D01*
X138754394Y-133696351D01*
X138782658Y-133680826D01*
X138823687Y-133657330D01*
X138872950Y-133628421D01*
X138998546Y-133556602D01*
X139148006Y-133476120D01*
X139311783Y-133392151D01*
X139485111Y-133307033D01*
X139663224Y-133223107D01*
X139841355Y-133142710D01*
X140014737Y-133068182D01*
X140061149Y-133048759D01*
X140123286Y-133022676D01*
X140175685Y-133000589D01*
X140213901Y-132984373D01*
X140233487Y-132975903D01*
X140249163Y-132969135D01*
X140293487Y-132951182D01*
X140354005Y-132927549D01*
X140425973Y-132900029D01*
X140504648Y-132870415D01*
X140585287Y-132840499D01*
X140663148Y-132812073D01*
X140733487Y-132786931D01*
X140759167Y-132777864D01*
X140821372Y-132755740D01*
X140875101Y-132736414D01*
X140915312Y-132721707D01*
X140936967Y-132713439D01*
X140940785Y-132711902D01*
X140973217Y-132700090D01*
X141024686Y-132682444D01*
X141091147Y-132660265D01*
X141168556Y-132634852D01*
X141252868Y-132607504D01*
X141340040Y-132579521D01*
X141426026Y-132552203D01*
X141506783Y-132526849D01*
X141578267Y-132504759D01*
X141636433Y-132487232D01*
X141677237Y-132475568D01*
X141686448Y-132473039D01*
X141725881Y-132461850D01*
X141781081Y-132445876D01*
X141846037Y-132426863D01*
X141914737Y-132406558D01*
X141930614Y-132401869D01*
X142015736Y-132377359D01*
X142112128Y-132350412D01*
X142209106Y-132323985D01*
X142295987Y-132301034D01*
X142331312Y-132291897D01*
X142408061Y-132271997D01*
X142481319Y-132252943D01*
X142544180Y-132236532D01*
X142589737Y-132224563D01*
X142596655Y-132222738D01*
X142644659Y-132210280D01*
X142684620Y-132200238D01*
X142708487Y-132194641D01*
X142713716Y-132193556D01*
X142759249Y-132183650D01*
X142822693Y-132169343D01*
X142898538Y-132151923D01*
X142981276Y-132132677D01*
X143065399Y-132112893D01*
X143145397Y-132093858D01*
X143215763Y-132076860D01*
X143270987Y-132063185D01*
X143278443Y-132061323D01*
X143319337Y-132051728D01*
X143352237Y-132044877D01*
X143418182Y-132031695D01*
X143469607Y-132018910D01*
X143502901Y-132007524D01*
X143514737Y-131998486D01*
X143514615Y-131997530D01*
X143504077Y-131979309D01*
X143476550Y-131942771D01*
X143432044Y-131887925D01*
X143370570Y-131814786D01*
X143292135Y-131723363D01*
X143260743Y-131687545D01*
X143226999Y-131653327D01*
X143198298Y-131634260D01*
X143168298Y-131627998D01*
X143130659Y-131632195D01*
X143079042Y-131644505D01*
X143049207Y-131651973D01*
X143006781Y-131661990D01*
X142977237Y-131668232D01*
X142937857Y-131675684D01*
X142865960Y-131690310D01*
X142782962Y-131708061D01*
X142696632Y-131727263D01*
X142614737Y-131746246D01*
X142579060Y-131754715D01*
X142513793Y-131770176D01*
X142453753Y-131784362D01*
X142408487Y-131795016D01*
X142367240Y-131804711D01*
X142305176Y-131819348D01*
X142246806Y-131833161D01*
X142245681Y-131833428D01*
X142199777Y-131844204D01*
X142162045Y-131852869D01*
X142140556Y-131857569D01*
X142140117Y-131857656D01*
X142106649Y-131864961D01*
X142055887Y-131876836D01*
X141994603Y-131891611D01*
X141929571Y-131907621D01*
X141867564Y-131923197D01*
X141815355Y-131936673D01*
X141779719Y-131946382D01*
X141753340Y-131953873D01*
X141715808Y-131963997D01*
X141692170Y-131969679D01*
X141684390Y-131971365D01*
X141653329Y-131979151D01*
X141614689Y-131989693D01*
X141597820Y-131994448D01*
X141564792Y-132003617D01*
X141545987Y-132008633D01*
X141488106Y-132023327D01*
X141408207Y-132044766D01*
X141314199Y-132070807D01*
X141210862Y-132100061D01*
X141102978Y-132131139D01*
X140995326Y-132162652D01*
X140892688Y-132193212D01*
X140799844Y-132221428D01*
X140721577Y-132245912D01*
X140662666Y-132265275D01*
X140640277Y-132272878D01*
X140591378Y-132288953D01*
X140552261Y-132301102D01*
X140529829Y-132307148D01*
X140513581Y-132311170D01*
X140471727Y-132323705D01*
X140411941Y-132342982D01*
X140337535Y-132367830D01*
X140251820Y-132397078D01*
X140158110Y-132429553D01*
X140059715Y-132464085D01*
X139959948Y-132499502D01*
X139862120Y-132534634D01*
X139769544Y-132568308D01*
X139685533Y-132599353D01*
X139613396Y-132626598D01*
X139556448Y-132648872D01*
X139517999Y-132665003D01*
X139502367Y-132671750D01*
X139469300Y-132684030D01*
X139448624Y-132688898D01*
X139443303Y-132689357D01*
X139420362Y-132699331D01*
X139411680Y-132704700D01*
X139383618Y-132717577D01*
X139345987Y-132732166D01*
X139324774Y-132739898D01*
X139280386Y-132756742D01*
X139245987Y-132770614D01*
X139205603Y-132787938D01*
X138906561Y-132919140D01*
X138629537Y-133046261D01*
X138372415Y-133170488D01*
X138133082Y-133293010D01*
X137909424Y-133415013D01*
X137699324Y-133537685D01*
X137500671Y-133662213D01*
X137311348Y-133789786D01*
X137129241Y-133921590D01*
X136952237Y-134058812D01*
X136840447Y-134150900D01*
X136663837Y-134308938D01*
X136497733Y-134475179D01*
X136333850Y-134657648D01*
X136306614Y-134689053D01*
X136274059Y-134725440D01*
X136249906Y-134751055D01*
X136238002Y-134761719D01*
X136237368Y-134761864D01*
X136226318Y-134751088D01*
X136208644Y-134719386D01*
X136185315Y-134669389D01*
X136157302Y-134603725D01*
X136125575Y-134525024D01*
X136091104Y-134435916D01*
X136054859Y-134339029D01*
X136017810Y-134236993D01*
X135980927Y-134132438D01*
X135945181Y-134027993D01*
X135911541Y-133926287D01*
X135880978Y-133829949D01*
X135854461Y-133741610D01*
X135832961Y-133663898D01*
X135822340Y-133623736D01*
X135807732Y-133569761D01*
X135795638Y-133526398D01*
X135794713Y-133523127D01*
X135783743Y-133480873D01*
X135770720Y-133426226D01*
X135758266Y-133370148D01*
X135756317Y-133361040D01*
X135744624Y-133308521D01*
X135733643Y-133262270D01*
X135725524Y-133231400D01*
X135721035Y-133214656D01*
X135711309Y-133171754D01*
X135702326Y-133125150D01*
X135696026Y-133090654D01*
X135685521Y-133035839D01*
X135672821Y-132971364D01*
X135659451Y-132905049D01*
X135647531Y-132844906D01*
X135635783Y-132781999D01*
X135626568Y-132728746D01*
X135621216Y-132692549D01*
X135617891Y-132665959D01*
X135610432Y-132611234D01*
X135602533Y-132557648D01*
X135600807Y-132546408D01*
X135569798Y-132306904D01*
X135546477Y-132048967D01*
X135530914Y-131777725D01*
X135523183Y-131498304D01*
X135523356Y-131215834D01*
X135531506Y-130935441D01*
X135547705Y-130662253D01*
X135572026Y-130401398D01*
X135578381Y-130347052D01*
X135594353Y-130223748D01*
X135612927Y-130094502D01*
X135633252Y-129964450D01*
X135654477Y-129838727D01*
X135675749Y-129722470D01*
X135696218Y-129620815D01*
X135715031Y-129538898D01*
X135715544Y-129536839D01*
X135723546Y-129502250D01*
X135734733Y-129451097D01*
X135747554Y-129390676D01*
X135760461Y-129328284D01*
X135771901Y-129271217D01*
X135773915Y-129262239D01*
X135782590Y-129229502D01*
X135794174Y-129189967D01*
X135803741Y-129157756D01*
X135818885Y-129104527D01*
X135833419Y-129051398D01*
X135833973Y-129049325D01*
X135851402Y-128987890D01*
X135874631Y-128911263D01*
X135902341Y-128823350D01*
X135933211Y-128728059D01*
X135965921Y-128629298D01*
X135999151Y-128530973D01*
X136031582Y-128436992D01*
X136061893Y-128351261D01*
X136088765Y-128277689D01*
X136110877Y-128220182D01*
X136126909Y-128182648D01*
X136130174Y-128175511D01*
X136143268Y-128145248D01*
X136161626Y-128101591D01*
X136182354Y-128051398D01*
X136188593Y-128036262D01*
X136213010Y-127978619D01*
X136236993Y-127924056D01*
X136256136Y-127882648D01*
X136257169Y-127880511D01*
X136277968Y-127836189D01*
X136303052Y-127781008D01*
X136327222Y-127726398D01*
X136341125Y-127694972D01*
X136385229Y-127600140D01*
X136433996Y-127500963D01*
X136482826Y-127406648D01*
X136527120Y-127326398D01*
X136555300Y-127276914D01*
X136590131Y-127214615D01*
X136621399Y-127157648D01*
X136650555Y-127105300D01*
X136682789Y-127049798D01*
X136710509Y-127004280D01*
X136729967Y-126972850D01*
X136746059Y-126945222D01*
X136752237Y-126932255D01*
X136752737Y-126930651D01*
X136762238Y-126913250D01*
X136781321Y-126881852D01*
X136806720Y-126841873D01*
X136839410Y-126791068D01*
X136876556Y-126732890D01*
X136908366Y-126682648D01*
X136909734Y-126680472D01*
X136931211Y-126646352D01*
X136948826Y-126618682D01*
X136965214Y-126593639D01*
X136983007Y-126567400D01*
X137004838Y-126536139D01*
X137033340Y-126496035D01*
X137071145Y-126443262D01*
X137120887Y-126373997D01*
X137134188Y-126355586D01*
X137178689Y-126295106D01*
X137229612Y-126227208D01*
X137284577Y-126154941D01*
X137341205Y-126081350D01*
X137397118Y-126009482D01*
X137449935Y-125942386D01*
X137497277Y-125883107D01*
X137536765Y-125834693D01*
X137566019Y-125800191D01*
X137582661Y-125782648D01*
X137588638Y-125776759D01*
X137609949Y-125753906D01*
X137642646Y-125717843D01*
X137683553Y-125672085D01*
X137729492Y-125620148D01*
X137754009Y-125592417D01*
X137801513Y-125539377D01*
X137844403Y-125492341D01*
X137878748Y-125455598D01*
X137900620Y-125433434D01*
X137910303Y-125423979D01*
X137931347Y-125400093D01*
X137939737Y-125384963D01*
X137938561Y-125381149D01*
X137926452Y-125359938D01*
X137904025Y-125326300D01*
X137874753Y-125285546D01*
X137809768Y-125197886D01*
X137668134Y-125346517D01*
X137614886Y-125402853D01*
X137526224Y-125499122D01*
X137441032Y-125595244D01*
X137355798Y-125695381D01*
X137267012Y-125803691D01*
X137171162Y-125924336D01*
X137064737Y-126061475D01*
X137058454Y-126069648D01*
X137023839Y-126114836D01*
X136993978Y-126154319D01*
X136966181Y-126191861D01*
X136937754Y-126231227D01*
X136906007Y-126276184D01*
X136868246Y-126330497D01*
X136821781Y-126397931D01*
X136763918Y-126482251D01*
X136761058Y-126486430D01*
X136685976Y-126600209D01*
X136604844Y-126730144D01*
X136519904Y-126872149D01*
X136433399Y-127022139D01*
X136347572Y-127176027D01*
X136264666Y-127329726D01*
X136186925Y-127479151D01*
X136116591Y-127620215D01*
X136055908Y-127748833D01*
X136007118Y-127860917D01*
X135997724Y-127883705D01*
X135976177Y-127935447D01*
X135957633Y-127979306D01*
X135945307Y-128007648D01*
X135937033Y-128026808D01*
X135920032Y-128068580D01*
X135902461Y-128113898D01*
X135891087Y-128143518D01*
X135875566Y-128182294D01*
X135864631Y-128207648D01*
X135857632Y-128223497D01*
X135839522Y-128269580D01*
X135816232Y-128333175D01*
X135789155Y-128410096D01*
X135759684Y-128496159D01*
X135729214Y-128587179D01*
X135699139Y-128678970D01*
X135670853Y-128767347D01*
X135645749Y-128848126D01*
X135625221Y-128917121D01*
X135610664Y-128970148D01*
X135610528Y-128970678D01*
X135603764Y-128995598D01*
X135592486Y-129035771D01*
X135579060Y-129082762D01*
X135578867Y-129083433D01*
X135565291Y-129131597D01*
X135553849Y-129173993D01*
X135547001Y-129201512D01*
X135546075Y-129205638D01*
X135538682Y-129236574D01*
X135527520Y-129281654D01*
X135514621Y-129332648D01*
X135513857Y-129335646D01*
X135494737Y-129414617D01*
X135474330Y-129505428D01*
X135453847Y-129602059D01*
X135434495Y-129698491D01*
X135417485Y-129788704D01*
X135404026Y-129866679D01*
X135395327Y-129926398D01*
X135394151Y-129935507D01*
X135388571Y-129974563D01*
X135380676Y-130026508D01*
X135371778Y-130082648D01*
X135367690Y-130108449D01*
X135348610Y-130243740D01*
X135329950Y-130400189D01*
X135312065Y-130574630D01*
X135295311Y-130763898D01*
X135292279Y-130805987D01*
X135287485Y-130900463D01*
X135283855Y-131011488D01*
X135281374Y-131134907D01*
X135280024Y-131266569D01*
X135279787Y-131402320D01*
X134886232Y-131402320D01*
X134886087Y-131299313D01*
X134887591Y-131137874D01*
X134890829Y-130982318D01*
X134895800Y-130836456D01*
X134902506Y-130704099D01*
X134910946Y-130589059D01*
X134921121Y-130495148D01*
X134927050Y-130449731D01*
X134933908Y-130393364D01*
X134938878Y-130347853D01*
X134941165Y-130320148D01*
X134941342Y-130316550D01*
X134943481Y-130292064D01*
X134947945Y-130255567D01*
X134955101Y-130204529D01*
X134965314Y-130136424D01*
X134978950Y-130048723D01*
X134996377Y-129938898D01*
X135002306Y-129902417D01*
X135024768Y-129773745D01*
X135048385Y-129651594D01*
X135071407Y-129545148D01*
X135072695Y-129539541D01*
X135084090Y-129487450D01*
X135097087Y-129424790D01*
X135109120Y-129363898D01*
X135110414Y-129357277D01*
X135121472Y-129305731D01*
X135137393Y-129236789D01*
X135156758Y-129156208D01*
X135178145Y-129069746D01*
X135200133Y-128983160D01*
X135221301Y-128902208D01*
X135240229Y-128832648D01*
X135243681Y-128820409D01*
X135266375Y-128743315D01*
X135293942Y-128654044D01*
X135325030Y-128556608D01*
X135358283Y-128455014D01*
X135392347Y-128353272D01*
X135425867Y-128255390D01*
X135457489Y-128165377D01*
X135485858Y-128087244D01*
X135509621Y-128024997D01*
X135527421Y-127982648D01*
X135528756Y-127979689D01*
X135540111Y-127952728D01*
X135556766Y-127911583D01*
X135575619Y-127863898D01*
X135581904Y-127848076D01*
X135607098Y-127787513D01*
X135636427Y-127720079D01*
X135664760Y-127657648D01*
X135676426Y-127632474D01*
X135701939Y-127576319D01*
X135724360Y-127525603D01*
X135739873Y-127488898D01*
X135758133Y-127445972D01*
X135796078Y-127364666D01*
X135844203Y-127268149D01*
X135900564Y-127160000D01*
X135963221Y-127043802D01*
X136030232Y-126923136D01*
X136099654Y-126801584D01*
X136169547Y-126682727D01*
X136237968Y-126570148D01*
X136295142Y-126479258D01*
X136380489Y-126347808D01*
X136470476Y-126213427D01*
X136561695Y-126081043D01*
X136650738Y-125955584D01*
X136734195Y-125841976D01*
X136808659Y-125745148D01*
X136811121Y-125742043D01*
X136855064Y-125686456D01*
X136903544Y-125624904D01*
X136946506Y-125570148D01*
X137006936Y-125495023D01*
X137093978Y-125391736D01*
X137192226Y-125279535D01*
X137297776Y-125162865D01*
X137406724Y-125046170D01*
X137567460Y-124876791D01*
X137509844Y-124804719D01*
X137498850Y-124790869D01*
X137460822Y-124742106D01*
X137417928Y-124686181D01*
X137377515Y-124632648D01*
X137366686Y-124618209D01*
X137330252Y-124570509D01*
X137290197Y-124519536D01*
X137243366Y-124461356D01*
X137186603Y-124392038D01*
X137116753Y-124307648D01*
X137101040Y-124288611D01*
X137048658Y-124222292D01*
X137009884Y-124166638D01*
X136981468Y-124116048D01*
X136960161Y-124064919D01*
X136942711Y-124007648D01*
X136938397Y-123990922D01*
X136924364Y-123928525D01*
X136913393Y-123867908D01*
X136907560Y-123820148D01*
X136907240Y-123815462D01*
X136903702Y-123763308D01*
X136899450Y-123700251D01*
X136895334Y-123638898D01*
X136894810Y-123631091D01*
X136890576Y-123570238D01*
X136886213Y-123510542D01*
X136882587Y-123463898D01*
X136882419Y-123461815D01*
X136879723Y-123421176D01*
X136876582Y-123363470D01*
X136873373Y-123296082D01*
X136870472Y-123226398D01*
X136870279Y-123221466D01*
X136866863Y-123151692D01*
X136862452Y-123084748D01*
X136857592Y-123028020D01*
X136852833Y-122988898D01*
X136844388Y-122906993D01*
X136846002Y-122804571D01*
X136859963Y-122706371D01*
X136885298Y-122618705D01*
X136921029Y-122547885D01*
X136944131Y-122518367D01*
X136992085Y-122471800D01*
X137047619Y-122429989D01*
X137103436Y-122398181D01*
X137152237Y-122381624D01*
X137193463Y-122373238D01*
X137234259Y-122362652D01*
X137250253Y-122358993D01*
X137269739Y-122358016D01*
X137295568Y-122360615D01*
X137331270Y-122367471D01*
X137380380Y-122379267D01*
X137446429Y-122396688D01*
X137532948Y-122420416D01*
X137565599Y-122430314D01*
X137615231Y-122447992D01*
X137653918Y-122464755D01*
X137660255Y-122467822D01*
X137698875Y-122483602D01*
X137750115Y-122501668D01*
X137804662Y-122518688D01*
X137808127Y-122519697D01*
X137862189Y-122536167D01*
X137930716Y-122558007D01*
X138005277Y-122582493D01*
X138077441Y-122606898D01*
X138091181Y-122611613D01*
X138158091Y-122634230D01*
X138220957Y-122654967D01*
X138273262Y-122671699D01*
X138308487Y-122682298D01*
X138326268Y-122687641D01*
X138384574Y-122708722D01*
X138449509Y-122736079D01*
X138513475Y-122766201D01*
X138568873Y-122795580D01*
X138608106Y-122820704D01*
X138619904Y-122830572D01*
X138654300Y-122865919D01*
X138684676Y-122904919D01*
X138702797Y-122930866D01*
X138736710Y-122976527D01*
X138771030Y-123020148D01*
X138797951Y-123053911D01*
X138835466Y-123102129D01*
X138878002Y-123157620D01*
X138920554Y-123213898D01*
X138923082Y-123217267D01*
X138963200Y-123270395D01*
X139000662Y-123319452D01*
X139031376Y-123359110D01*
X139051250Y-123384044D01*
X139073178Y-123410998D01*
X139105296Y-123451242D01*
X139138480Y-123493419D01*
X139140941Y-123496559D01*
X139169008Y-123530604D01*
X139191396Y-123554733D01*
X139203452Y-123563898D01*
X139214990Y-123558875D01*
X139243778Y-123542833D01*
X139284833Y-123518390D01*
X139333514Y-123488244D01*
X139376239Y-123461663D01*
X139421455Y-123434323D01*
X139456044Y-123414302D01*
X139474792Y-123404680D01*
X139495578Y-123394534D01*
X139530192Y-123375280D01*
X139570987Y-123351154D01*
X139590385Y-123339690D01*
X139638000Y-123312696D01*
X139698975Y-123279017D01*
X139767723Y-123241677D01*
X139838657Y-123203702D01*
X139906191Y-123168116D01*
X139964737Y-123137946D01*
X140123897Y-123060051D01*
X140326201Y-122967459D01*
X140538112Y-122876605D01*
X140751563Y-122790931D01*
X140958487Y-122713880D01*
X140984883Y-122704450D01*
X141034263Y-122686664D01*
X141073542Y-122672329D01*
X141095987Y-122663891D01*
X141096150Y-122663827D01*
X141146793Y-122645279D01*
X141214763Y-122622518D01*
X141294203Y-122597298D01*
X141379258Y-122571370D01*
X141464069Y-122546486D01*
X141542783Y-122524398D01*
X141609541Y-122506858D01*
X141658487Y-122495617D01*
X141677799Y-122491239D01*
X141716628Y-122481853D01*
X141768394Y-122469035D01*
X141827237Y-122454223D01*
X141874677Y-122442289D01*
X141945863Y-122424681D01*
X142012492Y-122408508D01*
X142064737Y-122396170D01*
X142119006Y-122383674D01*
X142181332Y-122369319D01*
X142233487Y-122357303D01*
X142303861Y-122341460D01*
X142407513Y-122319606D01*
X142514754Y-122298902D01*
X142629841Y-122278610D01*
X142757030Y-122257989D01*
X142900577Y-122236300D01*
X143064737Y-122212803D01*
X143136090Y-122203890D01*
X143226371Y-122195263D01*
X143328254Y-122188197D01*
X143443970Y-122182604D01*
X143575747Y-122178400D01*
X143725814Y-122175497D01*
X143896401Y-122173811D01*
X144089737Y-122173255D01*
X144188533Y-122173388D01*
X144378148Y-122174622D01*
X144545691Y-122177211D01*
X144693124Y-122181233D01*
X144822408Y-122186762D01*
X144935506Y-122193874D01*
X145034379Y-122202646D01*
X145120987Y-122213153D01*
X145149791Y-122217207D01*
X145215627Y-122226502D01*
X145288920Y-122236877D01*
X145358487Y-122246750D01*
X145387504Y-122251170D01*
X145451635Y-122261936D01*
X145531543Y-122276168D01*
X145621825Y-122292834D01*
X145717078Y-122310904D01*
X145811899Y-122329349D01*
X145900884Y-122347138D01*
X145978632Y-122363242D01*
X146039737Y-122376629D01*
X146040501Y-122376804D01*
X146075409Y-122384694D01*
X146124114Y-122395578D01*
X146176321Y-122407155D01*
X146184252Y-122408919D01*
X146228869Y-122419379D01*
X146262581Y-122428153D01*
X146278611Y-122433496D01*
X146282878Y-122435370D01*
X146306951Y-122442297D01*
X146342027Y-122450171D01*
X146352543Y-122452362D01*
X146399937Y-122463145D01*
X146462485Y-122478241D01*
X146533338Y-122495923D01*
X146605648Y-122514467D01*
X146672564Y-122532145D01*
X146727237Y-122547233D01*
X146766191Y-122558776D01*
X146828666Y-122578275D01*
X146901316Y-122601739D01*
X146980367Y-122627873D01*
X147062046Y-122655381D01*
X147142580Y-122682969D01*
X147218195Y-122709340D01*
X147285116Y-122733201D01*
X147339571Y-122753255D01*
X147377786Y-122768207D01*
X147395987Y-122776763D01*
X147399787Y-122779011D01*
X147424134Y-122789479D01*
X147458487Y-122801455D01*
X147481399Y-122809186D01*
X147543267Y-122832604D01*
X147621575Y-122864607D01*
X147712364Y-122903395D01*
X147811673Y-122947167D01*
X147915544Y-122994121D01*
X148020017Y-123042459D01*
X148121133Y-123090377D01*
X148214931Y-123136077D01*
X148297452Y-123177756D01*
X148364737Y-123213615D01*
X148412748Y-123240182D01*
X148469420Y-123271423D01*
X148518251Y-123298221D01*
X148552237Y-123316722D01*
X148602540Y-123344260D01*
X148767511Y-123439392D01*
X148943521Y-123547347D01*
X149125374Y-123664645D01*
X149307875Y-123787804D01*
X149485830Y-123913345D01*
X149654043Y-124037786D01*
X149807321Y-124157648D01*
X149833011Y-124178409D01*
X149913322Y-124243429D01*
X149978836Y-124296764D01*
X150033225Y-124341507D01*
X150080163Y-124380752D01*
X150123321Y-124417590D01*
X150166372Y-124455113D01*
X150212989Y-124496415D01*
X150266844Y-124544588D01*
X150350769Y-124620330D01*
X150445596Y-124707671D01*
X150530227Y-124788239D01*
X150609799Y-124867151D01*
X150689447Y-124949528D01*
X150774309Y-125040487D01*
X150869521Y-125145148D01*
X150921577Y-125203037D01*
X151028303Y-125323102D01*
X151122145Y-125431031D01*
X151206338Y-125530760D01*
X151284113Y-125626225D01*
X151358706Y-125721362D01*
X151433348Y-125820107D01*
X151511273Y-125926398D01*
X151538380Y-125963826D01*
X151579864Y-126021082D01*
X151616215Y-126071224D01*
X151644258Y-126109872D01*
X151660818Y-126132648D01*
X151676242Y-126153968D01*
X151708331Y-126199269D01*
X151739013Y-126243635D01*
X151765001Y-126282219D01*
X151783005Y-126310174D01*
X151789738Y-126322653D01*
X151792124Y-126328212D01*
X151805159Y-126349778D01*
X151825752Y-126380604D01*
X151831568Y-126389037D01*
X151915385Y-126516219D01*
X152004827Y-126661335D01*
X152097083Y-126819232D01*
X152189341Y-126984759D01*
X152278791Y-127152765D01*
X152362623Y-127318099D01*
X152438024Y-127475610D01*
X152502183Y-127620148D01*
X152519855Y-127661412D01*
X152540310Y-127707675D01*
X152556047Y-127741535D01*
X152564638Y-127757648D01*
X152572765Y-127772366D01*
X152589145Y-127809274D01*
X152611417Y-127863796D01*
X152638361Y-127932602D01*
X152668758Y-128012362D01*
X152701386Y-128099745D01*
X152735027Y-128191421D01*
X152768460Y-128284061D01*
X152800464Y-128374333D01*
X152829821Y-128458908D01*
X152855308Y-128534456D01*
X152875708Y-128597646D01*
X152889798Y-128645148D01*
X152889953Y-128645713D01*
X152897576Y-128672775D01*
X152910399Y-128717526D01*
X152926671Y-128773877D01*
X152944639Y-128835740D01*
X152945837Y-128839856D01*
X152963221Y-128900291D01*
X152978232Y-128953732D01*
X152989302Y-128994519D01*
X152994863Y-129016990D01*
X152997676Y-129029775D01*
X153006134Y-129065508D01*
X153018111Y-129114526D01*
X153031989Y-129170148D01*
X153041247Y-129207491D01*
X153057104Y-129275035D01*
X153072788Y-129347313D01*
X153089717Y-129430970D01*
X153109309Y-129532648D01*
X153113674Y-129554054D01*
X153121994Y-129592994D01*
X153132047Y-129638898D01*
X153146923Y-129708650D01*
X153171550Y-129835010D01*
X153195038Y-129968226D01*
X153216416Y-130102072D01*
X153234709Y-130230324D01*
X153248943Y-130346758D01*
X153258146Y-130445148D01*
X153262611Y-130495572D01*
X153270158Y-130563846D01*
X153278453Y-130626398D01*
X153280150Y-130641365D01*
X153283300Y-130686426D01*
X153286432Y-130751782D01*
X153289450Y-130834391D01*
X153292263Y-130931213D01*
X153294774Y-131039206D01*
X153296892Y-131155329D01*
X153298521Y-131276540D01*
X153298696Y-131292527D01*
X153300048Y-131432111D01*
X153300443Y-131495641D01*
X153300782Y-131550183D01*
X153300835Y-131649893D01*
G37*
G36*
X150117505Y-143847408D02*
G01*
X150226895Y-143870269D01*
X150329461Y-143911604D01*
X150421788Y-143970380D01*
X150500461Y-144045559D01*
X150562066Y-144136107D01*
X150594141Y-144202610D01*
X150623019Y-144287891D01*
X150636471Y-144375537D01*
X150636704Y-144475587D01*
X150636251Y-144483792D01*
X150622909Y-144591854D01*
X150595202Y-144684263D01*
X150550712Y-144767005D01*
X150487021Y-144846062D01*
X150454943Y-144878415D01*
X150363276Y-144950775D01*
X150263428Y-145000811D01*
X150152237Y-145030262D01*
X150120581Y-145034446D01*
X150017171Y-145034746D01*
X149911762Y-145017147D01*
X149810541Y-144983535D01*
X149719697Y-144935796D01*
X149645419Y-144875815D01*
X149626249Y-144855384D01*
X149607963Y-144833393D01*
X149603112Y-144823502D01*
X149605760Y-144821513D01*
X149622694Y-144807072D01*
X149648330Y-144784243D01*
X149688048Y-144748339D01*
X149742891Y-144793279D01*
X149774052Y-144817378D01*
X149860272Y-144868206D01*
X149951064Y-144897336D01*
X150052491Y-144906996D01*
X150071216Y-144907042D01*
X150121871Y-144905487D01*
X150160578Y-144899658D01*
X150197374Y-144887420D01*
X150242301Y-144866640D01*
X150299419Y-144833664D01*
X150378700Y-144765929D01*
X150439005Y-144682588D01*
X150479422Y-144585035D01*
X150499039Y-144474662D01*
X150500408Y-144419410D01*
X150486335Y-144313658D01*
X150451244Y-144216536D01*
X150396789Y-144130995D01*
X150324628Y-144059990D01*
X150236416Y-144006472D01*
X150194800Y-143988962D01*
X150155020Y-143977597D01*
X150110933Y-143972312D01*
X150052237Y-143971129D01*
X149982685Y-143975083D01*
X149903839Y-143992498D01*
X149829052Y-144026398D01*
X149750476Y-144079605D01*
X149692464Y-144124151D01*
X149653601Y-144084054D01*
X149643136Y-144072749D01*
X149622811Y-144046909D01*
X149614737Y-144030222D01*
X149623525Y-144012434D01*
X149649815Y-143985860D01*
X149688555Y-143955592D01*
X149734622Y-143925601D01*
X149782895Y-143899859D01*
X149891909Y-143861253D01*
X150004704Y-143844058D01*
X150117505Y-143847408D01*
G37*
G36*
X152372937Y-144756414D02*
G01*
X152410354Y-144838497D01*
X152441439Y-144906613D01*
X152465190Y-144958565D01*
X152480606Y-144992154D01*
X152486682Y-145005180D01*
X152481539Y-145009237D01*
X152457606Y-145011893D01*
X152420134Y-145011430D01*
X152348241Y-145007648D01*
X152218617Y-144720148D01*
X151586410Y-144720148D01*
X151522449Y-144866794D01*
X151458487Y-145013441D01*
X151386612Y-145013669D01*
X151355425Y-145013239D01*
X151326072Y-145011403D01*
X151314737Y-145008584D01*
X151315029Y-145007693D01*
X151322378Y-144990531D01*
X151338893Y-144953314D01*
X151363594Y-144898212D01*
X151395501Y-144827399D01*
X151433634Y-144743045D01*
X151477013Y-144647322D01*
X151509476Y-144575836D01*
X151656819Y-144575836D01*
X151663197Y-144580979D01*
X151679194Y-144584567D01*
X151707887Y-144586877D01*
X151752352Y-144588184D01*
X151815664Y-144588765D01*
X151900900Y-144588898D01*
X151917497Y-144588877D01*
X151992051Y-144588263D01*
X152056535Y-144586892D01*
X152107215Y-144584904D01*
X152140360Y-144582435D01*
X152152237Y-144579623D01*
X152148508Y-144568313D01*
X152136008Y-144537758D01*
X152116369Y-144492065D01*
X152091313Y-144435038D01*
X152062559Y-144370477D01*
X152031828Y-144302186D01*
X152000839Y-144233966D01*
X151971313Y-144169620D01*
X151944969Y-144112950D01*
X151923529Y-144067759D01*
X151908711Y-144037848D01*
X151902237Y-144027020D01*
X151901783Y-144027428D01*
X151893859Y-144042137D01*
X151877892Y-144075167D01*
X151855611Y-144122703D01*
X151828746Y-144180925D01*
X151799026Y-144246016D01*
X151768180Y-144314159D01*
X151737939Y-144381535D01*
X151710031Y-144444327D01*
X151686187Y-144498717D01*
X151668135Y-144540889D01*
X151657605Y-144567023D01*
X151656985Y-144568861D01*
X151656819Y-144575836D01*
X151509476Y-144575836D01*
X151524658Y-144542403D01*
X151575590Y-144430459D01*
X151836442Y-143857648D01*
X151960774Y-143850228D01*
X152221056Y-144422688D01*
X152232728Y-144448359D01*
X152283122Y-144559147D01*
X152292442Y-144579623D01*
X152330193Y-144662565D01*
X152372937Y-144756414D01*
G37*
G36*
X138252518Y-142788898D02*
G01*
X138022241Y-142788898D01*
X137954684Y-142788667D01*
X137882591Y-142787451D01*
X137827360Y-142784869D01*
X137784337Y-142780564D01*
X137748868Y-142774176D01*
X137716299Y-142765348D01*
X137620004Y-142726419D01*
X137526017Y-142665183D01*
X137449729Y-142586569D01*
X137391743Y-142491087D01*
X137389889Y-142487113D01*
X137375771Y-142453982D01*
X137366627Y-142423138D01*
X137361402Y-142387761D01*
X137359040Y-142341033D01*
X137359006Y-142337012D01*
X137478055Y-142337012D01*
X137481549Y-142373601D01*
X137490203Y-142405632D01*
X137505186Y-142441447D01*
X137550733Y-142521082D01*
X137611244Y-142586391D01*
X137687467Y-142635271D01*
X137690533Y-142636773D01*
X137719604Y-142650091D01*
X137746666Y-142659488D01*
X137777122Y-142665792D01*
X137816372Y-142669829D01*
X137869818Y-142672429D01*
X137942862Y-142674419D01*
X138127237Y-142678690D01*
X138127237Y-141873617D01*
X137949112Y-141878534D01*
X137898840Y-141880083D01*
X137839183Y-141882914D01*
X137795214Y-141887055D01*
X137761304Y-141893352D01*
X137731827Y-141902651D01*
X137701156Y-141915797D01*
X137637446Y-141952479D01*
X137565654Y-142015986D01*
X137512508Y-142092354D01*
X137508025Y-142101461D01*
X137493842Y-142141352D01*
X137484884Y-142191663D01*
X137479733Y-142259627D01*
X137478554Y-142287526D01*
X137478055Y-142337012D01*
X137359006Y-142337012D01*
X137358487Y-142276135D01*
X137358568Y-142240194D01*
X137359658Y-142187212D01*
X137363035Y-142148571D01*
X137369960Y-142117284D01*
X137381693Y-142086364D01*
X137399495Y-142048824D01*
X137416583Y-142017194D01*
X137481199Y-141931470D01*
X137563527Y-141861588D01*
X137660985Y-141809439D01*
X137770987Y-141776915D01*
X137776690Y-141775913D01*
X137823072Y-141770893D01*
X137887407Y-141767474D01*
X137963708Y-141765885D01*
X138045987Y-141766357D01*
X138245987Y-141770148D01*
X138246650Y-141873617D01*
X138249253Y-142279523D01*
X138252518Y-142788898D01*
G37*
G36*
X139811826Y-142128803D02*
G01*
X139810306Y-142236731D01*
X139808625Y-142323112D01*
X139806583Y-142390756D01*
X139803975Y-142442797D01*
X139800595Y-142482371D01*
X139796238Y-142512614D01*
X139790700Y-142536661D01*
X139783775Y-142557648D01*
X139770143Y-142587253D01*
X139729378Y-142647353D01*
X139675949Y-142703989D01*
X139616703Y-142750407D01*
X139558487Y-142779853D01*
X139553041Y-142781632D01*
X139505513Y-142792534D01*
X139446737Y-142797791D01*
X139370027Y-142798050D01*
X139327148Y-142796754D01*
X139278321Y-142793345D01*
X139241249Y-142786747D01*
X139207981Y-142775343D01*
X139170564Y-142757518D01*
X139162628Y-142753343D01*
X139090421Y-142701958D01*
X139033860Y-142633388D01*
X138990787Y-142545082D01*
X138986952Y-142534543D01*
X138980103Y-142512729D01*
X138974820Y-142488896D01*
X138970902Y-142459764D01*
X138968147Y-142422047D01*
X138966354Y-142372463D01*
X138965322Y-142307729D01*
X138964850Y-142224562D01*
X138964737Y-142119679D01*
X138964737Y-141763898D01*
X139075498Y-141763898D01*
X139079493Y-142117953D01*
X139083487Y-142472009D01*
X139121083Y-142545475D01*
X139131550Y-142565245D01*
X139156367Y-142603157D01*
X139185358Y-142630030D01*
X139227333Y-142654940D01*
X139247254Y-142665120D01*
X139279465Y-142678837D01*
X139310599Y-142685982D01*
X139349324Y-142688114D01*
X139404309Y-142686794D01*
X139427017Y-142685830D01*
X139475141Y-142682226D01*
X139509086Y-142675588D01*
X139536773Y-142663872D01*
X139566126Y-142645033D01*
X139566324Y-142644894D01*
X139613819Y-142600647D01*
X139651554Y-142545420D01*
X139652818Y-142542963D01*
X139661858Y-142524597D01*
X139668987Y-142506685D01*
X139674494Y-142486046D01*
X139678670Y-142459499D01*
X139681805Y-142423861D01*
X139684189Y-142375952D01*
X139686112Y-142312591D01*
X139687865Y-142230595D01*
X139689737Y-142126785D01*
X139695987Y-141770148D01*
X139816441Y-141762458D01*
X139811826Y-142128803D01*
G37*
G36*
X143502237Y-145013898D02*
G01*
X143364737Y-145013898D01*
X143364737Y-143863898D01*
X143502237Y-143863898D01*
X143502237Y-145013898D01*
G37*
G36*
X146277237Y-145013898D02*
G01*
X146139737Y-145013898D01*
X146139737Y-143863898D01*
X146277237Y-143863898D01*
X146277237Y-145013898D01*
G37*
G36*
X140964737Y-145013898D02*
G01*
X140827237Y-145013898D01*
X140827237Y-143863898D01*
X140964737Y-143863898D01*
X140964737Y-145013898D01*
G37*
G36*
X134995478Y-144342023D02*
G01*
X135015341Y-144389854D01*
X135057044Y-144489930D01*
X135095490Y-144581724D01*
X135129632Y-144662765D01*
X135158423Y-144730582D01*
X135180817Y-144782702D01*
X135195766Y-144816656D01*
X135202223Y-144829973D01*
X135204222Y-144828328D01*
X135214826Y-144808882D01*
X135233318Y-144769764D01*
X135258668Y-144713323D01*
X135289844Y-144641902D01*
X135325819Y-144557848D01*
X135365561Y-144463506D01*
X135408040Y-144361223D01*
X135427802Y-144313373D01*
X135469343Y-144213187D01*
X135507671Y-144121282D01*
X135541740Y-144040134D01*
X135570506Y-143972216D01*
X135592921Y-143920003D01*
X135607940Y-143885971D01*
X135614518Y-143872594D01*
X135624232Y-143868846D01*
X135653462Y-143865922D01*
X135693370Y-143866344D01*
X135763145Y-143870148D01*
X135533052Y-144407648D01*
X135491423Y-144504834D01*
X135446200Y-144610275D01*
X135404375Y-144707647D01*
X135367021Y-144794464D01*
X135335208Y-144868240D01*
X135310007Y-144926488D01*
X135292489Y-144966721D01*
X135283726Y-144986452D01*
X135276182Y-145001811D01*
X135262596Y-145019023D01*
X135242076Y-145024969D01*
X135205660Y-145023952D01*
X135146827Y-145020148D01*
X134899935Y-144445148D01*
X134889256Y-144420276D01*
X134841516Y-144309031D01*
X134797093Y-144205434D01*
X134756923Y-144111673D01*
X134721942Y-144029937D01*
X134693087Y-143962416D01*
X134671295Y-143911297D01*
X134657500Y-143878770D01*
X134652640Y-143867023D01*
X134659846Y-143865652D01*
X134685977Y-143864386D01*
X134724694Y-143863898D01*
X134797150Y-143863898D01*
X134995478Y-144342023D01*
G37*
G36*
X148877237Y-145013898D02*
G01*
X148027237Y-145013898D01*
X148027237Y-144901398D01*
X148739737Y-144901398D01*
X148739737Y-144488898D01*
X148114737Y-144488898D01*
X148114737Y-144376398D01*
X148739737Y-144376398D01*
X148739737Y-143976398D01*
X148039737Y-143976398D01*
X148039737Y-143863898D01*
X148877237Y-143863898D01*
X148877237Y-145013898D01*
G37*
G36*
X133939737Y-145013898D02*
G01*
X133089737Y-145013898D01*
X133089737Y-144901398D01*
X133802237Y-144901398D01*
X133802237Y-144488898D01*
X133177237Y-144488898D01*
X133177237Y-144376398D01*
X133802237Y-144376398D01*
X133802237Y-143976398D01*
X133102237Y-143976398D01*
X133102237Y-143863898D01*
X133939737Y-143863898D01*
X133939737Y-145013898D01*
G37*
G36*
X154214737Y-141876398D02*
G01*
X153877237Y-141876398D01*
X153877237Y-142788898D01*
X153752237Y-142788898D01*
X153752237Y-141876398D01*
X153414737Y-141876398D01*
X153414737Y-141763898D01*
X154214737Y-141763898D01*
X154214737Y-141876398D01*
G37*
G36*
X148223873Y-142332939D02*
G01*
X148203191Y-142443481D01*
X148161495Y-142544147D01*
X148100918Y-142632360D01*
X148023594Y-142705543D01*
X147931656Y-142761121D01*
X147827237Y-142796516D01*
X147797800Y-142802670D01*
X147735756Y-142811294D01*
X147678834Y-142810742D01*
X147614233Y-142801302D01*
X147609954Y-142800473D01*
X147500836Y-142766748D01*
X147404082Y-142712127D01*
X147321796Y-142638478D01*
X147256081Y-142547668D01*
X147209039Y-142441564D01*
X147195569Y-142377652D01*
X147190535Y-142297382D01*
X147190873Y-142289440D01*
X147314743Y-142289440D01*
X147321448Y-142370440D01*
X147339104Y-142440736D01*
X147349239Y-142465014D01*
X147396350Y-142542872D01*
X147458787Y-142608973D01*
X147530807Y-142656843D01*
X147579993Y-142677068D01*
X147672964Y-142696307D01*
X147765259Y-142692706D01*
X147853570Y-142667412D01*
X147934584Y-142621573D01*
X148004990Y-142556338D01*
X148061479Y-142472855D01*
X148073444Y-142448916D01*
X148085234Y-142418440D01*
X148091990Y-142385595D01*
X148095076Y-142342844D01*
X148095853Y-142282648D01*
X148095712Y-142249871D01*
X148093815Y-142197567D01*
X148088656Y-142158413D01*
X148078907Y-142124475D01*
X148063240Y-142087816D01*
X148020379Y-142015807D01*
X147953545Y-141945197D01*
X147872265Y-141893838D01*
X147865384Y-141890761D01*
X147789220Y-141868979D01*
X147703801Y-141862306D01*
X147618790Y-141870729D01*
X147543851Y-141894236D01*
X147536378Y-141897840D01*
X147463076Y-141946238D01*
X147398445Y-142011566D01*
X147349888Y-142086487D01*
X147333082Y-142131447D01*
X147318712Y-142206766D01*
X147314743Y-142289440D01*
X147190873Y-142289440D01*
X147194179Y-142211721D01*
X147206104Y-142129697D01*
X147225909Y-142060340D01*
X147263763Y-141988568D01*
X147323065Y-141913811D01*
X147395499Y-141848325D01*
X147474991Y-141798494D01*
X147501569Y-141785661D01*
X147532957Y-141772459D01*
X147562641Y-141764225D01*
X147597296Y-141759791D01*
X147643599Y-141757989D01*
X147708225Y-141757648D01*
X147746621Y-141757739D01*
X147800524Y-141758792D01*
X147839220Y-141761872D01*
X147869027Y-141768017D01*
X147896260Y-141778265D01*
X147927237Y-141793656D01*
X147985013Y-141827401D01*
X148076352Y-141900289D01*
X148146182Y-141985892D01*
X148194340Y-142083928D01*
X148220668Y-142194115D01*
X148223813Y-142282648D01*
X148225004Y-142316172D01*
X148223873Y-142332939D01*
G37*
G36*
X138283487Y-143982648D02*
G01*
X138092862Y-143986098D01*
X137902237Y-143989549D01*
X137902237Y-145013898D01*
X137764737Y-145013898D01*
X137764737Y-143988898D01*
X137377237Y-143988898D01*
X137377237Y-143863898D01*
X138291107Y-143863898D01*
X138283487Y-143982648D01*
G37*
G36*
X141252237Y-141876398D02*
G01*
X140914737Y-141876398D01*
X140914737Y-142788898D01*
X140789737Y-142788898D01*
X140789737Y-141876398D01*
X140452237Y-141876398D01*
X140452237Y-141763898D01*
X141252237Y-141763898D01*
X141252237Y-141876398D01*
G37*
G36*
X136627237Y-145013898D02*
G01*
X136489737Y-145013898D01*
X136489737Y-143863898D01*
X136627237Y-143863898D01*
X136627237Y-145013898D01*
G37*
G36*
X142237240Y-141757715D02*
G01*
X142313654Y-141761001D01*
X142372590Y-141770857D01*
X142420148Y-141789527D01*
X142462432Y-141819255D01*
X142505543Y-141862284D01*
X142513696Y-141871631D01*
X142555144Y-141937239D01*
X142572569Y-142008207D01*
X142566713Y-142087262D01*
X142563267Y-142102546D01*
X142543953Y-142157263D01*
X142513785Y-142202692D01*
X142469937Y-142240878D01*
X142409584Y-142273868D01*
X142329900Y-142303706D01*
X142228059Y-142332439D01*
X142224572Y-142333326D01*
X142134314Y-142358871D01*
X142066306Y-142384650D01*
X142017948Y-142412602D01*
X141986641Y-142444669D01*
X141969787Y-142482789D01*
X141964784Y-142528902D01*
X141972335Y-142577725D01*
X142000850Y-142627011D01*
X142048855Y-142663724D01*
X142114513Y-142686549D01*
X142195987Y-142694175D01*
X142212588Y-142693968D01*
X142277575Y-142689450D01*
X142334769Y-142677242D01*
X142390603Y-142654910D01*
X142451506Y-142620023D01*
X142523910Y-142570148D01*
X142533094Y-142566504D01*
X142552120Y-142573837D01*
X142579484Y-142600187D01*
X142617806Y-142642726D01*
X142588147Y-142666185D01*
X142530054Y-142706555D01*
X142455379Y-142748204D01*
X142383651Y-142778913D01*
X142369424Y-142783362D01*
X142297105Y-142796383D01*
X142202237Y-142800867D01*
X142199240Y-142800873D01*
X142138012Y-142799785D01*
X142093288Y-142795468D01*
X142056977Y-142786631D01*
X142020987Y-142771987D01*
X141970088Y-142742652D01*
X141910943Y-142689223D01*
X141869074Y-142625893D01*
X141845635Y-142556583D01*
X141841779Y-142485212D01*
X141858658Y-142415700D01*
X141897427Y-142351967D01*
X141905994Y-142342763D01*
X141952724Y-142307675D01*
X142019127Y-142273415D01*
X142101035Y-142241905D01*
X142194279Y-142215067D01*
X142218853Y-142208840D01*
X142307578Y-142181282D01*
X142373520Y-142150677D01*
X142418432Y-142115751D01*
X142444070Y-142075229D01*
X142452191Y-142027837D01*
X142446311Y-141980849D01*
X142420428Y-141930116D01*
X142374295Y-141893520D01*
X142308317Y-141871351D01*
X142222896Y-141863898D01*
X142201273Y-141864037D01*
X142157485Y-141866454D01*
X142121190Y-141873851D01*
X142082691Y-141888764D01*
X142032289Y-141913727D01*
X142013568Y-141923402D01*
X141971338Y-141943948D01*
X141943528Y-141952210D01*
X141924271Y-141947472D01*
X141907699Y-141929019D01*
X141887944Y-141896137D01*
X141887209Y-141894838D01*
X141882182Y-141878869D01*
X141888158Y-141863703D01*
X141908150Y-141846723D01*
X141945172Y-141825313D01*
X142002237Y-141796853D01*
X142012136Y-141792108D01*
X142048017Y-141776190D01*
X142079493Y-141766102D01*
X142113914Y-141760527D01*
X142158629Y-141758148D01*
X142220987Y-141757648D01*
X142237240Y-141757715D01*
G37*
G36*
X133727237Y-141876398D02*
G01*
X133389737Y-141876398D01*
X133389737Y-142788898D01*
X133264737Y-142788898D01*
X133264737Y-141876398D01*
X132927237Y-141876398D01*
X132927237Y-141763898D01*
X133727237Y-141763898D01*
X133727237Y-141876398D01*
G37*
G36*
X155212240Y-141757715D02*
G01*
X155288654Y-141761001D01*
X155347590Y-141770857D01*
X155395148Y-141789527D01*
X155437432Y-141819255D01*
X155480543Y-141862284D01*
X155488696Y-141871631D01*
X155530144Y-141937239D01*
X155547569Y-142008207D01*
X155541713Y-142087262D01*
X155538267Y-142102546D01*
X155518953Y-142157263D01*
X155488785Y-142202692D01*
X155444937Y-142240878D01*
X155384584Y-142273868D01*
X155304900Y-142303706D01*
X155203059Y-142332439D01*
X155199572Y-142333326D01*
X155109314Y-142358871D01*
X155041306Y-142384650D01*
X154992948Y-142412602D01*
X154961641Y-142444669D01*
X154944787Y-142482789D01*
X154939784Y-142528902D01*
X154947335Y-142577725D01*
X154975850Y-142627011D01*
X155023855Y-142663724D01*
X155089513Y-142686549D01*
X155170987Y-142694175D01*
X155187588Y-142693968D01*
X155252575Y-142689450D01*
X155309769Y-142677242D01*
X155365603Y-142654910D01*
X155426506Y-142620023D01*
X155498910Y-142570148D01*
X155508094Y-142566504D01*
X155527120Y-142573837D01*
X155554484Y-142600187D01*
X155592806Y-142642726D01*
X155563147Y-142666185D01*
X155505054Y-142706555D01*
X155430379Y-142748204D01*
X155358651Y-142778913D01*
X155344424Y-142783362D01*
X155272105Y-142796383D01*
X155177237Y-142800867D01*
X155174240Y-142800873D01*
X155113012Y-142799785D01*
X155068288Y-142795468D01*
X155031977Y-142786631D01*
X154995987Y-142771987D01*
X154945088Y-142742652D01*
X154885943Y-142689223D01*
X154844074Y-142625893D01*
X154820635Y-142556583D01*
X154816779Y-142485212D01*
X154833658Y-142415700D01*
X154872427Y-142351967D01*
X154880994Y-142342763D01*
X154927724Y-142307675D01*
X154994127Y-142273415D01*
X155076035Y-142241905D01*
X155169279Y-142215067D01*
X155193853Y-142208840D01*
X155282578Y-142181282D01*
X155348520Y-142150677D01*
X155393432Y-142115751D01*
X155419070Y-142075229D01*
X155427191Y-142027837D01*
X155421311Y-141980849D01*
X155395428Y-141930116D01*
X155349295Y-141893520D01*
X155283317Y-141871351D01*
X155197896Y-141863898D01*
X155176273Y-141864037D01*
X155132485Y-141866454D01*
X155096190Y-141873851D01*
X155057691Y-141888764D01*
X155007289Y-141913727D01*
X154988568Y-141923402D01*
X154946338Y-141943948D01*
X154918528Y-141952210D01*
X154899271Y-141947472D01*
X154882699Y-141929019D01*
X154862944Y-141896137D01*
X154862209Y-141894838D01*
X154857182Y-141878869D01*
X154863158Y-141863703D01*
X154883150Y-141846723D01*
X154920172Y-141825313D01*
X154977237Y-141796853D01*
X154987136Y-141792108D01*
X155023017Y-141776190D01*
X155054493Y-141766102D01*
X155088914Y-141760527D01*
X155133629Y-141758148D01*
X155195987Y-141757648D01*
X155212240Y-141757715D01*
G37*
G36*
X155275584Y-143856863D02*
G01*
X155341485Y-143870620D01*
X155399621Y-143895446D01*
X155456305Y-143932926D01*
X155482020Y-143954613D01*
X155529048Y-144013144D01*
X155556084Y-144083221D01*
X155564737Y-144168342D01*
X155564608Y-144180261D01*
X155557311Y-144248819D01*
X155537353Y-144306898D01*
X155502677Y-144356261D01*
X155451226Y-144398668D01*
X155380946Y-144435883D01*
X155289778Y-144469669D01*
X155175667Y-144501786D01*
X155095560Y-144523285D01*
X155021164Y-144547736D01*
X154966487Y-144573126D01*
X154928767Y-144601636D01*
X154905243Y-144635450D01*
X154893154Y-144676748D01*
X154889737Y-144727712D01*
X154890205Y-144752649D01*
X154895299Y-144784301D01*
X154910013Y-144809684D01*
X154939219Y-144839839D01*
X154971560Y-144865201D01*
X155040183Y-144896296D01*
X155119966Y-144910184D01*
X155206762Y-144907177D01*
X155296422Y-144887590D01*
X155384798Y-144851735D01*
X155467743Y-144799926D01*
X155533487Y-144750162D01*
X155575126Y-144797655D01*
X155616764Y-144845148D01*
X155572583Y-144883469D01*
X155514114Y-144926852D01*
X155427662Y-144973963D01*
X155338430Y-145006616D01*
X155335791Y-145007312D01*
X155270959Y-145018783D01*
X155193579Y-145024474D01*
X155112869Y-145024379D01*
X155038043Y-145018493D01*
X154978319Y-145006811D01*
X154931806Y-144987558D01*
X154868329Y-144945311D01*
X154813572Y-144891356D01*
X154775625Y-144832648D01*
X154770279Y-144819258D01*
X154757388Y-144763037D01*
X154752785Y-144698232D01*
X154756734Y-144635468D01*
X154769497Y-144585371D01*
X154799943Y-144535116D01*
X154852105Y-144485883D01*
X154925027Y-144442448D01*
X155020042Y-144404032D01*
X155138484Y-144369858D01*
X155180103Y-144359208D01*
X155266195Y-144333631D01*
X155330941Y-144307520D01*
X155376879Y-144279039D01*
X155406549Y-144246353D01*
X155422488Y-144207623D01*
X155427237Y-144161015D01*
X155418619Y-144096471D01*
X155390306Y-144041758D01*
X155342532Y-144002471D01*
X155275581Y-143978838D01*
X155189737Y-143971086D01*
X155100940Y-143977786D01*
X155004267Y-144004063D01*
X154914737Y-144051695D01*
X154858487Y-144089416D01*
X154818552Y-144042504D01*
X154802702Y-144023468D01*
X154788664Y-144002308D01*
X154788223Y-143987832D01*
X154799355Y-143972677D01*
X154802747Y-143969402D01*
X154828184Y-143951417D01*
X154867654Y-143928403D01*
X154914163Y-143904515D01*
X154956908Y-143884796D01*
X154994742Y-143870707D01*
X155032479Y-143862091D01*
X155078485Y-143857076D01*
X155141125Y-143853794D01*
X155195605Y-143852588D01*
X155275584Y-143856863D01*
G37*
G36*
X152732269Y-142533960D02*
G01*
X152768198Y-142614612D01*
X152797958Y-142681916D01*
X152820503Y-142733518D01*
X152834792Y-142767066D01*
X152839781Y-142780207D01*
X152836437Y-142783315D01*
X152815131Y-142786778D01*
X152780670Y-142786457D01*
X152721602Y-142782648D01*
X152665045Y-142654707D01*
X152608487Y-142526767D01*
X152328189Y-142529707D01*
X152047891Y-142532648D01*
X151990746Y-142660773D01*
X151933600Y-142788898D01*
X151802869Y-142788898D01*
X151844124Y-142698273D01*
X151857019Y-142669897D01*
X151879812Y-142619668D01*
X151910093Y-142552890D01*
X151946378Y-142472837D01*
X151977911Y-142403247D01*
X152104321Y-142403247D01*
X152113997Y-142406508D01*
X152144916Y-142409466D01*
X152193316Y-142411806D01*
X152255367Y-142413344D01*
X152327237Y-142413898D01*
X152391047Y-142413486D01*
X152456862Y-142411992D01*
X152507501Y-142409563D01*
X152539689Y-142406365D01*
X152550154Y-142402565D01*
X152544252Y-142387742D01*
X152528930Y-142351859D01*
X152507312Y-142302729D01*
X152481227Y-142244362D01*
X152452506Y-142180766D01*
X152422976Y-142115953D01*
X152394467Y-142053931D01*
X152368809Y-141998709D01*
X152347831Y-141954298D01*
X152333362Y-141924707D01*
X152327231Y-141913946D01*
X152325549Y-141916337D01*
X152315347Y-141936337D01*
X152297653Y-141973344D01*
X152274283Y-142023373D01*
X152247052Y-142082435D01*
X152217778Y-142146544D01*
X152188276Y-142211713D01*
X152160363Y-142273954D01*
X152135855Y-142329282D01*
X152116569Y-142373708D01*
X152104321Y-142403247D01*
X151977911Y-142403247D01*
X151987184Y-142382783D01*
X152031027Y-142286004D01*
X152076421Y-142185773D01*
X152267463Y-141763898D01*
X152384563Y-141763898D01*
X152612194Y-142267023D01*
X152646075Y-142342022D01*
X152673324Y-142402565D01*
X152691214Y-142442312D01*
X152732269Y-142533960D01*
G37*
G36*
X149574253Y-142279523D02*
G01*
X149577518Y-142788898D01*
X149452237Y-142788898D01*
X149452237Y-142338898D01*
X148902237Y-142338898D01*
X148902237Y-142238898D01*
X149452237Y-142238898D01*
X149452237Y-141876834D01*
X148833487Y-141870148D01*
X148833487Y-141770148D01*
X149570987Y-141770148D01*
X149574253Y-142279523D01*
G37*
G36*
X145015018Y-142788898D02*
G01*
X144784741Y-142788898D01*
X144717184Y-142788667D01*
X144645091Y-142787451D01*
X144589860Y-142784869D01*
X144546837Y-142780564D01*
X144511368Y-142774176D01*
X144478799Y-142765348D01*
X144382504Y-142726419D01*
X144288517Y-142665183D01*
X144212229Y-142586569D01*
X144154243Y-142491087D01*
X144152389Y-142487113D01*
X144138271Y-142453982D01*
X144129127Y-142423138D01*
X144123902Y-142387761D01*
X144121540Y-142341033D01*
X144121506Y-142337012D01*
X144240555Y-142337012D01*
X144244049Y-142373601D01*
X144252703Y-142405632D01*
X144267686Y-142441447D01*
X144313233Y-142521082D01*
X144373744Y-142586391D01*
X144449967Y-142635271D01*
X144453033Y-142636773D01*
X144482104Y-142650091D01*
X144509166Y-142659488D01*
X144539622Y-142665792D01*
X144578872Y-142669829D01*
X144632318Y-142672429D01*
X144705362Y-142674419D01*
X144889737Y-142678690D01*
X144889737Y-141873617D01*
X144711612Y-141878534D01*
X144661340Y-141880083D01*
X144601683Y-141882914D01*
X144557714Y-141887055D01*
X144523804Y-141893352D01*
X144494327Y-141902651D01*
X144463656Y-141915797D01*
X144399946Y-141952479D01*
X144328154Y-142015986D01*
X144275008Y-142092354D01*
X144270525Y-142101461D01*
X144256342Y-142141352D01*
X144247384Y-142191663D01*
X144242233Y-142259627D01*
X144241054Y-142287526D01*
X144240555Y-142337012D01*
X144121506Y-142337012D01*
X144120987Y-142276135D01*
X144121068Y-142240194D01*
X144122158Y-142187212D01*
X144125535Y-142148571D01*
X144132460Y-142117284D01*
X144144193Y-142086364D01*
X144161995Y-142048824D01*
X144179083Y-142017194D01*
X144243699Y-141931470D01*
X144326027Y-141861588D01*
X144423485Y-141809439D01*
X144533487Y-141776915D01*
X144539190Y-141775913D01*
X144585572Y-141770893D01*
X144649907Y-141767474D01*
X144726208Y-141765885D01*
X144808487Y-141766357D01*
X145008487Y-141770148D01*
X145009150Y-141873617D01*
X145011753Y-142279523D01*
X145015018Y-142788898D01*
G37*
G36*
X136298385Y-141766835D02*
G01*
X136670987Y-141770148D01*
X136674253Y-142279523D01*
X136677518Y-142788898D01*
X135927237Y-142788898D01*
X135927237Y-142688898D01*
X136552237Y-142688898D01*
X136552237Y-142326398D01*
X135989737Y-142326398D01*
X135989737Y-142226398D01*
X136552237Y-142226398D01*
X136552237Y-141876834D01*
X135933487Y-141870148D01*
X135929635Y-141816835D01*
X135925782Y-141763523D01*
X136298385Y-141766835D01*
G37*
G36*
X146502518Y-142788898D02*
G01*
X146377237Y-142788898D01*
X146377237Y-142388898D01*
X146095265Y-142388898D01*
X145945987Y-142588898D01*
X145796710Y-142788898D01*
X145724474Y-142788898D01*
X145692953Y-142788481D01*
X145663576Y-142786982D01*
X145652237Y-142784766D01*
X145652457Y-142784250D01*
X145661951Y-142770347D01*
X145683837Y-142740083D01*
X145715851Y-142696537D01*
X145755732Y-142642791D01*
X145801218Y-142581923D01*
X145809295Y-142571129D01*
X145853668Y-142511009D01*
X145891634Y-142458214D01*
X145921008Y-142415882D01*
X145939602Y-142387154D01*
X145945228Y-142375169D01*
X145932234Y-142367740D01*
X145905182Y-142360111D01*
X145900342Y-142359032D01*
X145850496Y-142338345D01*
X145797941Y-142303064D01*
X145751144Y-142259774D01*
X145718575Y-142215056D01*
X145713831Y-142205282D01*
X145694963Y-142141973D01*
X145689153Y-142076398D01*
X145808904Y-142076398D01*
X145809836Y-142099938D01*
X145825238Y-142163288D01*
X145860984Y-142213769D01*
X145918915Y-142254358D01*
X145941027Y-142264724D01*
X145965386Y-142272443D01*
X145996250Y-142277906D01*
X146038244Y-142281699D01*
X146095990Y-142284405D01*
X146174112Y-142286610D01*
X146377237Y-142291467D01*
X146377237Y-141874290D01*
X146167862Y-141878497D01*
X146117461Y-141879648D01*
X146048555Y-141882068D01*
X145997809Y-141885459D01*
X145960906Y-141890283D01*
X145933531Y-141897006D01*
X145911366Y-141906092D01*
X145895843Y-141914434D01*
X145846567Y-141954982D01*
X145818076Y-142008158D01*
X145808904Y-142076398D01*
X145689153Y-142076398D01*
X145688591Y-142070054D01*
X145694882Y-141999514D01*
X145714001Y-141940341D01*
X145749854Y-141887712D01*
X145810733Y-141833257D01*
X145885298Y-141793558D01*
X145904629Y-141786845D01*
X145929856Y-141780634D01*
X145960994Y-141776149D01*
X146001858Y-141773124D01*
X146056267Y-141771293D01*
X146128037Y-141770389D01*
X146220987Y-141770148D01*
X146495987Y-141770148D01*
X146496655Y-141874290D01*
X146499253Y-142279523D01*
X146502518Y-142788898D01*
G37*
G36*
X153852237Y-145013898D02*
G01*
X153852237Y-144613898D01*
X153692862Y-144613680D01*
X153594030Y-144611436D01*
X153490884Y-144602275D01*
X153405394Y-144585050D01*
X153333918Y-144558692D01*
X153272818Y-144522134D01*
X153218454Y-144474304D01*
X153217554Y-144473374D01*
X153173640Y-144420950D01*
X153145913Y-144368112D01*
X153131457Y-144307042D01*
X153128230Y-144246309D01*
X153267281Y-144246309D01*
X153274794Y-144308676D01*
X153297430Y-144368412D01*
X153337744Y-144415007D01*
X153398773Y-144453243D01*
X153424094Y-144464618D01*
X153449851Y-144472833D01*
X153480939Y-144478521D01*
X153522276Y-144482327D01*
X153578778Y-144484896D01*
X153655362Y-144486871D01*
X153852237Y-144491094D01*
X153852237Y-143986790D01*
X153641836Y-143990969D01*
X153637666Y-143991052D01*
X153561561Y-143992697D01*
X153505700Y-143994610D01*
X153465548Y-143997489D01*
X153436567Y-144002034D01*
X153414220Y-144008942D01*
X153393971Y-144018914D01*
X153371282Y-144032648D01*
X153369266Y-144033911D01*
X153317579Y-144073705D01*
X153285255Y-144118462D01*
X153269439Y-144174043D01*
X153267281Y-144246309D01*
X153128230Y-144246309D01*
X153127360Y-144229924D01*
X153131321Y-144162685D01*
X153151770Y-144079033D01*
X153191148Y-144010023D01*
X153251154Y-143952981D01*
X153333487Y-143905229D01*
X153340871Y-143901784D01*
X153364239Y-143891394D01*
X153386172Y-143883508D01*
X153410447Y-143877722D01*
X153440841Y-143873634D01*
X153481128Y-143870840D01*
X153535085Y-143868937D01*
X153606488Y-143867522D01*
X153699112Y-143866191D01*
X153989737Y-143862235D01*
X153989737Y-145013898D01*
X153852237Y-145013898D01*
G37*
G36*
X145314737Y-145013898D02*
G01*
X145189737Y-145013898D01*
X145189737Y-144549867D01*
X145189684Y-144465623D01*
X145189368Y-144359267D01*
X145188700Y-144274418D01*
X145187601Y-144208983D01*
X145185994Y-144160870D01*
X145183800Y-144127988D01*
X145180941Y-144108243D01*
X145177338Y-144099544D01*
X145172914Y-144099798D01*
X145164729Y-144108905D01*
X145142074Y-144136189D01*
X145106946Y-144179409D01*
X145060968Y-144236539D01*
X145005765Y-144305555D01*
X144942960Y-144384431D01*
X144874177Y-144471141D01*
X144801039Y-144563660D01*
X144445987Y-145013559D01*
X144392862Y-145013728D01*
X144339737Y-145013898D01*
X144339737Y-143863898D01*
X144464429Y-143863898D01*
X144470987Y-144772774D01*
X144827498Y-144321461D01*
X145184008Y-143870148D01*
X145249373Y-143866369D01*
X145314737Y-143862591D01*
X145314737Y-145013898D01*
G37*
G36*
X139985437Y-144756414D02*
G01*
X140022854Y-144838497D01*
X140053939Y-144906613D01*
X140077690Y-144958565D01*
X140093106Y-144992154D01*
X140099182Y-145005180D01*
X140094039Y-145009237D01*
X140070106Y-145011893D01*
X140032634Y-145011430D01*
X139960741Y-145007648D01*
X139831117Y-144720148D01*
X139198910Y-144720148D01*
X139134949Y-144866794D01*
X139070987Y-145013441D01*
X138999112Y-145013669D01*
X138967925Y-145013239D01*
X138938572Y-145011403D01*
X138927237Y-145008584D01*
X138927529Y-145007693D01*
X138934878Y-144990531D01*
X138951393Y-144953314D01*
X138976094Y-144898212D01*
X139008001Y-144827399D01*
X139046134Y-144743045D01*
X139089513Y-144647322D01*
X139121976Y-144575836D01*
X139269319Y-144575836D01*
X139275697Y-144580979D01*
X139291694Y-144584567D01*
X139320387Y-144586877D01*
X139364852Y-144588184D01*
X139428164Y-144588765D01*
X139513400Y-144588898D01*
X139529997Y-144588877D01*
X139604551Y-144588263D01*
X139669035Y-144586892D01*
X139719715Y-144584904D01*
X139752860Y-144582435D01*
X139764737Y-144579623D01*
X139761008Y-144568313D01*
X139748508Y-144537758D01*
X139728869Y-144492065D01*
X139703813Y-144435038D01*
X139675059Y-144370477D01*
X139644328Y-144302186D01*
X139613339Y-144233966D01*
X139583813Y-144169620D01*
X139557469Y-144112950D01*
X139536029Y-144067759D01*
X139521211Y-144037848D01*
X139514737Y-144027020D01*
X139514283Y-144027428D01*
X139506359Y-144042137D01*
X139490392Y-144075167D01*
X139468111Y-144122703D01*
X139441246Y-144180925D01*
X139411526Y-144246016D01*
X139380680Y-144314159D01*
X139350439Y-144381535D01*
X139322531Y-144444327D01*
X139298687Y-144498717D01*
X139280635Y-144540889D01*
X139270105Y-144567023D01*
X139269485Y-144568861D01*
X139269319Y-144575836D01*
X139121976Y-144575836D01*
X139137158Y-144542403D01*
X139188090Y-144430459D01*
X139448942Y-143857648D01*
X139573274Y-143850228D01*
X139833556Y-144422688D01*
X139845228Y-144448359D01*
X139895622Y-144559147D01*
X139904942Y-144579623D01*
X139942693Y-144662565D01*
X139985437Y-144756414D01*
G37*
D11*
X133575000Y-95730000D02*
X133575000Y-100355000D01*
X136650000Y-101500000D02*
X137250000Y-101500000D01*
X133575000Y-100355000D02*
X136050000Y-100355000D01*
X135150000Y-92405000D02*
X148750000Y-92405000D01*
X137250000Y-101500000D02*
X136950000Y-101000000D01*
X136950000Y-101000000D02*
X136650000Y-101500000D01*
X147850000Y-100355000D02*
X150325000Y-100355000D01*
X150325000Y-100355000D02*
X150325000Y-95730000D01*
%LPC*%
G36*
X134806200Y-95481200D02*
G01*
X133303800Y-95481200D01*
X133303800Y-92428800D01*
X134806200Y-92428800D01*
X134806200Y-95481200D01*
G37*
D12*
X134806200Y-95481200D02*
X133303800Y-95481200D01*
X133303800Y-92428800D01*
X134806200Y-92428800D01*
X134806200Y-95481200D01*
G36*
X137576200Y-100731200D02*
G01*
X136323800Y-100731200D01*
X136323800Y-99128800D01*
X137576200Y-99128800D01*
X137576200Y-100731200D01*
G37*
X137576200Y-100731200D02*
X136323800Y-100731200D01*
X136323800Y-99128800D01*
X137576200Y-99128800D01*
X137576200Y-100731200D01*
G36*
X143576200Y-100731200D02*
G01*
X142323800Y-100731200D01*
X142323800Y-99128800D01*
X143576200Y-99128800D01*
X143576200Y-100731200D01*
G37*
X143576200Y-100731200D02*
X142323800Y-100731200D01*
X142323800Y-99128800D01*
X143576200Y-99128800D01*
X143576200Y-100731200D01*
G36*
X139576200Y-100731200D02*
G01*
X138323800Y-100731200D01*
X138323800Y-99128800D01*
X139576200Y-99128800D01*
X139576200Y-100731200D01*
G37*
X139576200Y-100731200D02*
X138323800Y-100731200D01*
X138323800Y-99128800D01*
X139576200Y-99128800D01*
X139576200Y-100731200D01*
G36*
X141576200Y-100731200D02*
G01*
X140323800Y-100731200D01*
X140323800Y-99128800D01*
X141576200Y-99128800D01*
X141576200Y-100731200D01*
G37*
X141576200Y-100731200D02*
X140323800Y-100731200D01*
X140323800Y-99128800D01*
X141576200Y-99128800D01*
X141576200Y-100731200D01*
G36*
X145576200Y-100731200D02*
G01*
X144323800Y-100731200D01*
X144323800Y-99128800D01*
X145576200Y-99128800D01*
X145576200Y-100731200D01*
G37*
X145576200Y-100731200D02*
X144323800Y-100731200D01*
X144323800Y-99128800D01*
X145576200Y-99128800D01*
X145576200Y-100731200D01*
G36*
X147576200Y-100731200D02*
G01*
X146323800Y-100731200D01*
X146323800Y-99128800D01*
X147576200Y-99128800D01*
X147576200Y-100731200D01*
G37*
X147576200Y-100731200D02*
X146323800Y-100731200D01*
X146323800Y-99128800D01*
X147576200Y-99128800D01*
X147576200Y-100731200D01*
G36*
X150596200Y-95481200D02*
G01*
X149093800Y-95481200D01*
X149093800Y-92428800D01*
X150596200Y-92428800D01*
X150596200Y-95481200D01*
G37*
X150596200Y-95481200D02*
X149093800Y-95481200D01*
X149093800Y-92428800D01*
X150596200Y-92428800D01*
X150596200Y-95481200D01*
D13*
X129240000Y-139374000D03*
X129240000Y-130374000D03*
D14*
X135680000Y-104520000D03*
D15*
X138220000Y-104520000D03*
X140760000Y-104520000D03*
X143300000Y-104520000D03*
X145840000Y-104520000D03*
X148380000Y-104520000D03*
D16*
X180792000Y-138997997D03*
D17*
X180792000Y-138997997D03*
D13*
X108022000Y-105058000D03*
X117022000Y-105058000D03*
D15*
X127592000Y-60497997D03*
X130132000Y-60497997D03*
X132672000Y-60497997D03*
X135212000Y-60497997D03*
X137752000Y-60497997D03*
D14*
X140292000Y-60497997D03*
D13*
X117022000Y-95752000D03*
X108022000Y-95752000D03*
X176458000Y-95758000D03*
X167458000Y-95758000D03*
D17*
X103792000Y-44997997D03*
D16*
X103792000Y-44997997D03*
D17*
X103792000Y-138997997D03*
D16*
X103792000Y-138997997D03*
D13*
X155260000Y-45210000D03*
X155260000Y-54210000D03*
D16*
X180792000Y-44997997D03*
D17*
X180792000Y-44997997D03*
X126238000Y-123444000D03*
X133858000Y-123444000D03*
D13*
X167458000Y-105066000D03*
X176458000Y-105066000D03*
M02*
