G04 #@! TF.GenerationSoftware,KiCad,Pcbnew,(6.0.5)*
G04 #@! TF.CreationDate,2023-05-08T02:17:39-07:00*
G04 #@! TF.ProjectId,X_Y_Panels,585f595f-5061-46e6-956c-732e6b696361,rev?*
G04 #@! TF.SameCoordinates,Original*
G04 #@! TF.FileFunction,Soldermask,Bot*
G04 #@! TF.FilePolarity,Negative*
%FSLAX46Y46*%
G04 Gerber Fmt 4.6, Leading zero omitted, Abs format (unit mm)*
G04 Created by KiCad (PCBNEW (6.0.5)) date 2023-05-08 02:17:39*
%MOMM*%
%LPD*%
G01*
G04 APERTURE LIST*
%ADD10C,0.010000*%
%ADD11C,3.000000*%
%ADD12R,1.700000X1.700000*%
%ADD13O,1.700000X1.700000*%
%ADD14C,3.800000*%
%ADD15C,2.600000*%
G04 APERTURE END LIST*
G36*
X134806200Y-95481200D02*
G01*
X133303800Y-95481200D01*
X133303800Y-92428800D01*
X134806200Y-92428800D01*
X134806200Y-95481200D01*
G37*
D10*
X134806200Y-95481200D02*
X133303800Y-95481200D01*
X133303800Y-92428800D01*
X134806200Y-92428800D01*
X134806200Y-95481200D01*
G36*
X137576200Y-100731200D02*
G01*
X136323800Y-100731200D01*
X136323800Y-99128800D01*
X137576200Y-99128800D01*
X137576200Y-100731200D01*
G37*
X137576200Y-100731200D02*
X136323800Y-100731200D01*
X136323800Y-99128800D01*
X137576200Y-99128800D01*
X137576200Y-100731200D01*
G36*
X143576200Y-100731200D02*
G01*
X142323800Y-100731200D01*
X142323800Y-99128800D01*
X143576200Y-99128800D01*
X143576200Y-100731200D01*
G37*
X143576200Y-100731200D02*
X142323800Y-100731200D01*
X142323800Y-99128800D01*
X143576200Y-99128800D01*
X143576200Y-100731200D01*
G36*
X139576200Y-100731200D02*
G01*
X138323800Y-100731200D01*
X138323800Y-99128800D01*
X139576200Y-99128800D01*
X139576200Y-100731200D01*
G37*
X139576200Y-100731200D02*
X138323800Y-100731200D01*
X138323800Y-99128800D01*
X139576200Y-99128800D01*
X139576200Y-100731200D01*
G36*
X141576200Y-100731200D02*
G01*
X140323800Y-100731200D01*
X140323800Y-99128800D01*
X141576200Y-99128800D01*
X141576200Y-100731200D01*
G37*
X141576200Y-100731200D02*
X140323800Y-100731200D01*
X140323800Y-99128800D01*
X141576200Y-99128800D01*
X141576200Y-100731200D01*
G36*
X145576200Y-100731200D02*
G01*
X144323800Y-100731200D01*
X144323800Y-99128800D01*
X145576200Y-99128800D01*
X145576200Y-100731200D01*
G37*
X145576200Y-100731200D02*
X144323800Y-100731200D01*
X144323800Y-99128800D01*
X145576200Y-99128800D01*
X145576200Y-100731200D01*
G36*
X147576200Y-100731200D02*
G01*
X146323800Y-100731200D01*
X146323800Y-99128800D01*
X147576200Y-99128800D01*
X147576200Y-100731200D01*
G37*
X147576200Y-100731200D02*
X146323800Y-100731200D01*
X146323800Y-99128800D01*
X147576200Y-99128800D01*
X147576200Y-100731200D01*
G36*
X150596200Y-95481200D02*
G01*
X149093800Y-95481200D01*
X149093800Y-92428800D01*
X150596200Y-92428800D01*
X150596200Y-95481200D01*
G37*
X150596200Y-95481200D02*
X149093800Y-95481200D01*
X149093800Y-92428800D01*
X150596200Y-92428800D01*
X150596200Y-95481200D01*
D11*
X129240000Y-139374000D03*
X129240000Y-130374000D03*
D12*
X135680000Y-104520000D03*
D13*
X138220000Y-104520000D03*
X140760000Y-104520000D03*
X143300000Y-104520000D03*
X145840000Y-104520000D03*
X148380000Y-104520000D03*
D14*
X180792000Y-138997997D03*
D15*
X180792000Y-138997997D03*
D11*
X108022000Y-105058000D03*
X117022000Y-105058000D03*
D13*
X127592000Y-60497997D03*
X130132000Y-60497997D03*
X132672000Y-60497997D03*
X135212000Y-60497997D03*
X137752000Y-60497997D03*
D12*
X140292000Y-60497997D03*
D11*
X117022000Y-95752000D03*
X108022000Y-95752000D03*
X176458000Y-95758000D03*
X167458000Y-95758000D03*
D15*
X103792000Y-44997997D03*
D14*
X103792000Y-44997997D03*
D15*
X103792000Y-138997997D03*
D14*
X103792000Y-138997997D03*
D11*
X155260000Y-45210000D03*
X155260000Y-54210000D03*
D14*
X180792000Y-44997997D03*
D15*
X180792000Y-44997997D03*
X126238000Y-123444000D03*
X133858000Y-123444000D03*
D11*
X167458000Y-105066000D03*
X176458000Y-105066000D03*
M02*
