%FSLAX45Y45*%
G04 Gerber Fmt 4.5, Leading zero omitted, Abs format (unit mm)*
G04 Created by KiCad (PCBNEW (6.0.5)) date 2023-05-08 02:17:46*
%MOMM*%
%LPD*%
G01*
G04 APERTURE LIST*
%TA.AperFunction,Profile*%
%ADD10C,0.100000*%
%TD*%
%TA.AperFunction,Profile*%
%ADD11C,0.050000*%
%TD*%
%ADD12C,0.200000*%
%ADD13C,0.040000*%
%ADD14C,0.100000*%
%ADD15C,0.130000*%
%ADD16C,0.220000*%
G04 APERTURE END LIST*
D10*
X13179000Y-9968000D02*
X13179000Y-8174799D01*
X13179000Y-9968000D02*
X13179000Y-10223000D01*
D11*
X10129200Y-14599800D02*
X18329200Y-14599800D01*
D10*
X13572000Y-10123000D02*
X13247000Y-10123000D01*
D11*
X18329200Y-3799800D02*
X10129200Y-3799800D01*
D10*
X14825000Y-10122000D02*
X14825000Y-10223000D01*
X13690000Y-8175000D02*
X13179000Y-8174799D01*
X13246000Y-10223000D02*
X13179000Y-10223000D01*
X12428923Y-7359767D02*
G75*
G03*
X12578917Y-7509767I149997J-3D01*
G01*
X13572000Y-10123000D02*
X13572000Y-10221000D01*
X13246000Y-10223000D02*
X13572000Y-10221000D01*
X15880000Y-12140000D02*
G75*
G03*
X16030000Y-11990000I0J150000D01*
G01*
X14825000Y-10223000D02*
X15138000Y-10224000D01*
X13246000Y-9968000D02*
X13247000Y-10123000D01*
X12578566Y-10890066D02*
G75*
G03*
X12428566Y-11040066I4J-150004D01*
G01*
D11*
X18329200Y-14599800D02*
X18329200Y-3799800D01*
D10*
X16029917Y-6409767D02*
X16029917Y-7359767D01*
X15229000Y-8174799D02*
X15229000Y-9969000D01*
X12429000Y-11990000D02*
G75*
G03*
X12579000Y-12140000I150000J0D01*
G01*
X15879917Y-7509767D02*
G75*
G03*
X16029917Y-7359767I3J149997D01*
G01*
X13245000Y-9194500D02*
X13246000Y-9968000D01*
D11*
X10129200Y-14599800D02*
X10129200Y-3799800D01*
D10*
X15879917Y-6259767D02*
X12578483Y-6259833D01*
X14720000Y-8175000D02*
G75*
G03*
X13690000Y-8175000I-515000J205D01*
G01*
X12428917Y-7359767D02*
X12428483Y-6409833D01*
X14720000Y-8175000D02*
X15229000Y-8174799D01*
X15137000Y-10122000D02*
X15162000Y-10122000D01*
X12578483Y-6259833D02*
G75*
G03*
X12428483Y-6409833I-3J-149997D01*
G01*
X15137000Y-10122000D02*
X14825000Y-10122000D01*
X15162000Y-9969000D02*
X15159000Y-9195500D01*
X16029923Y-6409767D02*
G75*
G03*
X15879917Y-6259767I-150003J-3D01*
G01*
X12579000Y-12140000D02*
X15880000Y-12140000D01*
X15229000Y-9969000D02*
X15229000Y-10224000D01*
X16030000Y-11040000D02*
G75*
G03*
X15880000Y-10890000I-150000J0D01*
G01*
X15162000Y-9969000D02*
X15162000Y-10122000D01*
X12429000Y-11990000D02*
X12428566Y-11040066D01*
X15159000Y-9195500D02*
X13245000Y-9194500D01*
X15138000Y-10224000D02*
X15229000Y-10224000D01*
X12578917Y-7509767D02*
X15879917Y-7509767D01*
X15880000Y-10890000D02*
X12578566Y-10890066D01*
X16030000Y-11040000D02*
X16030000Y-11990000D01*
D12*
D13*
X10802800Y-5138800D02*
X10842800Y-5178800D01*
X10842800Y-5138800D02*
X10802800Y-5178800D01*
X10805700Y-4671400D02*
X10845700Y-4711400D01*
X10845700Y-4671400D02*
X10805700Y-4711400D01*
X11130300Y-4168800D02*
X11170300Y-4208800D01*
X11170300Y-4168800D02*
X11130300Y-4208800D01*
X11195300Y-5011300D02*
X11235300Y-5051300D01*
X11235300Y-5011300D02*
X11195300Y-5051300D01*
X11205700Y-4583000D02*
X11245700Y-4623000D01*
X11245700Y-4583000D02*
X11205700Y-4623000D01*
X11477300Y-5239500D02*
X11517300Y-5279500D01*
X11517300Y-5239500D02*
X11477300Y-5279500D01*
X11477450Y-4579250D02*
X11517450Y-4619250D01*
X11517450Y-4579250D02*
X11477450Y-4619250D01*
X11607800Y-5458800D02*
X11647800Y-5498800D01*
X11647800Y-5458800D02*
X11607800Y-5498800D01*
X11680300Y-5606300D02*
X11720300Y-5646300D01*
X11720300Y-5606300D02*
X11680300Y-5646300D01*
X11725700Y-4582000D02*
X11765700Y-4622000D01*
X11765700Y-4582000D02*
X11725700Y-4622000D01*
X11765300Y-4138800D02*
X11805300Y-4178800D01*
X11805300Y-4138800D02*
X11765300Y-4178800D01*
X11816400Y-7854000D02*
X11856400Y-7894000D01*
X11856400Y-7854000D02*
X11816400Y-7894000D01*
X11867800Y-5846300D02*
X11907800Y-5886300D01*
X11907800Y-5846300D02*
X11867800Y-5886300D01*
X11963100Y-11785300D02*
X12003100Y-11825300D01*
X12003100Y-11785300D02*
X11963100Y-11825300D01*
X12150000Y-6160000D02*
X12190000Y-6200000D01*
X12190000Y-6160000D02*
X12150000Y-6200000D01*
X12337000Y-6144000D02*
X12377000Y-6184000D01*
X12377000Y-6144000D02*
X12337000Y-6184000D01*
X15778800Y-10749600D02*
X15818800Y-10789600D01*
X15818800Y-10749600D02*
X15778800Y-10789600D01*
X15944400Y-4003100D02*
X15984400Y-4043100D01*
X15984400Y-4003100D02*
X15944400Y-4043100D01*
X15982000Y-10368600D02*
X16022000Y-10408600D01*
X16022000Y-10368600D02*
X15982000Y-10408600D01*
X15982000Y-10521000D02*
X16022000Y-10561000D01*
X16022000Y-10521000D02*
X15982000Y-10561000D01*
X15982000Y-10673400D02*
X16022000Y-10713400D01*
X16022000Y-10673400D02*
X15982000Y-10713400D01*
X16086900Y-4365600D02*
X16126900Y-4405600D01*
X16126900Y-4365600D02*
X16086900Y-4405600D01*
X16109000Y-10444800D02*
X16149000Y-10484800D01*
X16149000Y-10444800D02*
X16109000Y-10484800D01*
X16109000Y-10597200D02*
X16149000Y-10637200D01*
X16149000Y-10597200D02*
X16109000Y-10637200D01*
X16337600Y-8692200D02*
X16377600Y-8732200D01*
X16377600Y-8692200D02*
X16337600Y-8732200D01*
X16417600Y-5089200D02*
X16457600Y-5129200D01*
X16457600Y-5089200D02*
X16417600Y-5129200D01*
X16539000Y-4254000D02*
X16579000Y-4294000D01*
X16579000Y-4254000D02*
X16539000Y-4294000D01*
X16665600Y-5727300D02*
X16705600Y-5767300D01*
X16705600Y-5727300D02*
X16665600Y-5767300D01*
X16837800Y-5543400D02*
X16877800Y-5583400D01*
X16877800Y-5543400D02*
X16837800Y-5583400D01*
X16873000Y-4272000D02*
X16913000Y-4312000D01*
X16913000Y-4272000D02*
X16873000Y-4312000D01*
X16919400Y-3933100D02*
X16959400Y-3973100D01*
X16959400Y-3933100D02*
X16919400Y-3973100D01*
X16968100Y-4749800D02*
X17008100Y-4789800D01*
X17008100Y-4749800D02*
X16968100Y-4789800D01*
X17084600Y-5735800D02*
X17124600Y-5775800D01*
X17124600Y-5735800D02*
X17084600Y-5775800D01*
X17123600Y-5232800D02*
X17163600Y-5272800D01*
X17163600Y-5232800D02*
X17123600Y-5272800D01*
X17378100Y-5277300D02*
X17418100Y-5317300D01*
X17418100Y-5277300D02*
X17378100Y-5317300D01*
X17408150Y-3920600D02*
X17448150Y-3960600D01*
X17448150Y-3920600D02*
X17408150Y-3960600D01*
X17428100Y-5492300D02*
X17468100Y-5532300D01*
X17468100Y-5492300D02*
X17428100Y-5532300D01*
X17428100Y-5777300D02*
X17468100Y-5817300D01*
X17468100Y-5777300D02*
X17428100Y-5817300D01*
X17430600Y-5134800D02*
X17470600Y-5174800D01*
X17470600Y-5134800D02*
X17430600Y-5174800D01*
X17653100Y-5367300D02*
X17693100Y-5407300D01*
X17693100Y-5367300D02*
X17653100Y-5407300D01*
X17683600Y-4982800D02*
X17723600Y-5022800D01*
X17723600Y-4982800D02*
X17683600Y-5022800D01*
X17758100Y-4384800D02*
X17798100Y-4424800D01*
X17798100Y-4384800D02*
X17758100Y-4424800D01*
X17788100Y-4784800D02*
X17828100Y-4824800D01*
X17828100Y-4784800D02*
X17788100Y-4824800D01*
X17835000Y-5294000D02*
X17875000Y-5334000D01*
X17875000Y-5294000D02*
X17835000Y-5334000D01*
X17930600Y-4847300D02*
X17970600Y-4887300D01*
X17970600Y-4847300D02*
X17930600Y-4887300D01*
X17957800Y-5002000D02*
X17997800Y-5042000D01*
X17997800Y-5002000D02*
X17957800Y-5042000D01*
X17958100Y-5787300D02*
X17998100Y-5827300D01*
X17998100Y-5787300D02*
X17958100Y-5827300D01*
X18039400Y-4145600D02*
X18079400Y-4185600D01*
X18079400Y-4145600D02*
X18039400Y-4185600D01*
X18123100Y-5077300D02*
X18163100Y-5117300D01*
X18163100Y-5077300D02*
X18123100Y-5117300D01*
D14*
X12809200Y-6049800D02*
G75*
G03*
X12809200Y-6049800I-50000J0D01*
G01*
X13063200Y-6049800D02*
G75*
G03*
X13063200Y-6049800I-50000J0D01*
G01*
X13317200Y-6049800D02*
G75*
G03*
X13317200Y-6049800I-50000J0D01*
G01*
X13571200Y-6049800D02*
G75*
G03*
X13571200Y-6049800I-50000J0D01*
G01*
X13618000Y-10452000D02*
G75*
G03*
X13618000Y-10452000I-50000J0D01*
G01*
X13825200Y-6049800D02*
G75*
G03*
X13825200Y-6049800I-50000J0D01*
G01*
X13872000Y-10452000D02*
G75*
G03*
X13872000Y-10452000I-50000J0D01*
G01*
X14079200Y-6049800D02*
G75*
G03*
X14079200Y-6049800I-50000J0D01*
G01*
X14126000Y-10452000D02*
G75*
G03*
X14126000Y-10452000I-50000J0D01*
G01*
X14380000Y-10452000D02*
G75*
G03*
X14380000Y-10452000I-50000J0D01*
G01*
X14634000Y-10452000D02*
G75*
G03*
X14634000Y-10452000I-50000J0D01*
G01*
X14888000Y-10452000D02*
G75*
G03*
X14888000Y-10452000I-50000J0D01*
G01*
D15*
X12623800Y-12279400D02*
X12623800Y-12409400D01*
X12558800Y-12344400D02*
X12688800Y-12344400D01*
X13385800Y-12279400D02*
X13385800Y-12409400D01*
X13320800Y-12344400D02*
X13450800Y-12344400D01*
D12*
X10872911Y-9645911D02*
X10872911Y-9504489D01*
X10731489Y-9504489D01*
X10731489Y-9645911D01*
X10872911Y-9645911D01*
X10872911Y-10576511D02*
X10872911Y-10435089D01*
X10731489Y-10435089D01*
X10731489Y-10576511D01*
X10872911Y-10576511D01*
X11772911Y-9645911D02*
X11772911Y-9504489D01*
X11631489Y-9504489D01*
X11631489Y-9645911D01*
X11772911Y-9645911D01*
X11772911Y-10576511D02*
X11772911Y-10435089D01*
X11631489Y-10435089D01*
X11631489Y-10576511D01*
X11772911Y-10576511D01*
X12994711Y-13108111D02*
X12994711Y-12966689D01*
X12853289Y-12966689D01*
X12853289Y-13108111D01*
X12994711Y-13108111D01*
X12994711Y-14008111D02*
X12994711Y-13866689D01*
X12853289Y-13866689D01*
X12853289Y-14008111D01*
X12994711Y-14008111D01*
X15596711Y-4591711D02*
X15596711Y-4450289D01*
X15455289Y-4450289D01*
X15455289Y-4591711D01*
X15596711Y-4591711D01*
X15596711Y-5491711D02*
X15596711Y-5350289D01*
X15455289Y-5350289D01*
X15455289Y-5491711D01*
X15596711Y-5491711D01*
X16816511Y-9646511D02*
X16816511Y-9505089D01*
X16675089Y-9505089D01*
X16675089Y-9646511D01*
X16816511Y-9646511D01*
X16816511Y-10577311D02*
X16816511Y-10435889D01*
X16675089Y-10435889D01*
X16675089Y-10577311D01*
X16816511Y-10577311D01*
X17716511Y-9646511D02*
X17716511Y-9505089D01*
X17575089Y-9505089D01*
X17575089Y-9646511D01*
X17716511Y-9646511D01*
X17716511Y-10577311D02*
X17716511Y-10435889D01*
X17575089Y-10435889D01*
X17575089Y-10577311D01*
X17716511Y-10577311D01*
D16*
X10379200Y-4609800D02*
X10489200Y-4499800D01*
X10379200Y-4389800D01*
X10269200Y-4499800D01*
X10379200Y-4609800D01*
X10379200Y-14009800D02*
X10489200Y-13899800D01*
X10379200Y-13789800D01*
X10269200Y-13899800D01*
X10379200Y-14009800D01*
X18079200Y-4609800D02*
X18189200Y-4499800D01*
X18079200Y-4389800D01*
X17969200Y-4499800D01*
X18079200Y-4609800D01*
X18079200Y-14009800D02*
X18189200Y-13899800D01*
X18079200Y-13789800D01*
X17969200Y-13899800D01*
X18079200Y-14009800D01*
D12*
X10384319Y-14912776D02*
X10384319Y-14712776D01*
X10431938Y-14712776D01*
X10460510Y-14722300D01*
X10479557Y-14741347D01*
X10489081Y-14760395D01*
X10498605Y-14798490D01*
X10498605Y-14827062D01*
X10489081Y-14865157D01*
X10479557Y-14884204D01*
X10460510Y-14903252D01*
X10431938Y-14912776D01*
X10384319Y-14912776D01*
X10584319Y-14912776D02*
X10584319Y-14779442D01*
X10584319Y-14817538D02*
X10593843Y-14798490D01*
X10603367Y-14788966D01*
X10622414Y-14779442D01*
X10641462Y-14779442D01*
X10708129Y-14912776D02*
X10708129Y-14779442D01*
X10708129Y-14712776D02*
X10698605Y-14722300D01*
X10708129Y-14731823D01*
X10717652Y-14722300D01*
X10708129Y-14712776D01*
X10708129Y-14731823D01*
X10831938Y-14912776D02*
X10812890Y-14903252D01*
X10803367Y-14884204D01*
X10803367Y-14712776D01*
X10936700Y-14912776D02*
X10917652Y-14903252D01*
X10908129Y-14884204D01*
X10908129Y-14712776D01*
X11165271Y-14912776D02*
X11165271Y-14712776D01*
X11231938Y-14855633D01*
X11298605Y-14712776D01*
X11298605Y-14912776D01*
X11479557Y-14912776D02*
X11479557Y-14808014D01*
X11470033Y-14788966D01*
X11450986Y-14779442D01*
X11412890Y-14779442D01*
X11393843Y-14788966D01*
X11479557Y-14903252D02*
X11460509Y-14912776D01*
X11412890Y-14912776D01*
X11393843Y-14903252D01*
X11384319Y-14884204D01*
X11384319Y-14865157D01*
X11393843Y-14846109D01*
X11412890Y-14836585D01*
X11460509Y-14836585D01*
X11479557Y-14827062D01*
X11574795Y-14779442D02*
X11574795Y-14979442D01*
X11574795Y-14788966D02*
X11593843Y-14779442D01*
X11631938Y-14779442D01*
X11650986Y-14788966D01*
X11660509Y-14798490D01*
X11670033Y-14817538D01*
X11670033Y-14874681D01*
X11660509Y-14893728D01*
X11650986Y-14903252D01*
X11631938Y-14912776D01*
X11593843Y-14912776D01*
X11574795Y-14903252D01*
X11755748Y-14893728D02*
X11765271Y-14903252D01*
X11755748Y-14912776D01*
X11746224Y-14903252D01*
X11755748Y-14893728D01*
X11755748Y-14912776D01*
X11755748Y-14788966D02*
X11765271Y-14798490D01*
X11755748Y-14808014D01*
X11746224Y-14798490D01*
X11755748Y-14788966D01*
X11755748Y-14808014D01*
D13*
X10086700Y-15222300D02*
X10126700Y-15262300D01*
X10126700Y-15222300D02*
X10086700Y-15262300D01*
D12*
X10422414Y-15132776D02*
X10441462Y-15132776D01*
X10460510Y-15142300D01*
X10470033Y-15151823D01*
X10479557Y-15170871D01*
X10489081Y-15208966D01*
X10489081Y-15256585D01*
X10479557Y-15294681D01*
X10470033Y-15313728D01*
X10460510Y-15323252D01*
X10441462Y-15332776D01*
X10422414Y-15332776D01*
X10403367Y-15323252D01*
X10393843Y-15313728D01*
X10384319Y-15294681D01*
X10374795Y-15256585D01*
X10374795Y-15208966D01*
X10384319Y-15170871D01*
X10393843Y-15151823D01*
X10403367Y-15142300D01*
X10422414Y-15132776D01*
X10574795Y-15313728D02*
X10584319Y-15323252D01*
X10574795Y-15332776D01*
X10565271Y-15323252D01*
X10574795Y-15313728D01*
X10574795Y-15332776D01*
X10755748Y-15199442D02*
X10755748Y-15332776D01*
X10708129Y-15123252D02*
X10660510Y-15266109D01*
X10784319Y-15266109D01*
X10898605Y-15132776D02*
X10917652Y-15132776D01*
X10936700Y-15142300D01*
X10946224Y-15151823D01*
X10955748Y-15170871D01*
X10965271Y-15208966D01*
X10965271Y-15256585D01*
X10955748Y-15294681D01*
X10946224Y-15313728D01*
X10936700Y-15323252D01*
X10917652Y-15332776D01*
X10898605Y-15332776D01*
X10879557Y-15323252D01*
X10870033Y-15313728D01*
X10860510Y-15294681D01*
X10850986Y-15256585D01*
X10850986Y-15208966D01*
X10860510Y-15170871D01*
X10870033Y-15151823D01*
X10879557Y-15142300D01*
X10898605Y-15132776D01*
X11089081Y-15132776D02*
X11108129Y-15132776D01*
X11127176Y-15142300D01*
X11136700Y-15151823D01*
X11146224Y-15170871D01*
X11155748Y-15208966D01*
X11155748Y-15256585D01*
X11146224Y-15294681D01*
X11136700Y-15313728D01*
X11127176Y-15323252D01*
X11108129Y-15332776D01*
X11089081Y-15332776D01*
X11070033Y-15323252D01*
X11060510Y-15313728D01*
X11050986Y-15294681D01*
X11041462Y-15256585D01*
X11041462Y-15208966D01*
X11050986Y-15170871D01*
X11060510Y-15151823D01*
X11070033Y-15142300D01*
X11089081Y-15132776D01*
X11241462Y-15332776D02*
X11241462Y-15199442D01*
X11241462Y-15218490D02*
X11250986Y-15208966D01*
X11270033Y-15199442D01*
X11298605Y-15199442D01*
X11317652Y-15208966D01*
X11327176Y-15228014D01*
X11327176Y-15332776D01*
X11327176Y-15228014D02*
X11336700Y-15208966D01*
X11355748Y-15199442D01*
X11384319Y-15199442D01*
X11403367Y-15208966D01*
X11412890Y-15228014D01*
X11412890Y-15332776D01*
X11508128Y-15332776D02*
X11508128Y-15199442D01*
X11508128Y-15218490D02*
X11517652Y-15208966D01*
X11536700Y-15199442D01*
X11565271Y-15199442D01*
X11584319Y-15208966D01*
X11593843Y-15228014D01*
X11593843Y-15332776D01*
X11593843Y-15228014D02*
X11603367Y-15208966D01*
X11622414Y-15199442D01*
X11650986Y-15199442D01*
X11670033Y-15208966D01*
X11679557Y-15228014D01*
X11679557Y-15332776D01*
X12070033Y-15123252D02*
X11898605Y-15380395D01*
X12327176Y-15132776D02*
X12346224Y-15132776D01*
X12365271Y-15142300D01*
X12374795Y-15151823D01*
X12384319Y-15170871D01*
X12393843Y-15208966D01*
X12393843Y-15256585D01*
X12384319Y-15294681D01*
X12374795Y-15313728D01*
X12365271Y-15323252D01*
X12346224Y-15332776D01*
X12327176Y-15332776D01*
X12308128Y-15323252D01*
X12298605Y-15313728D01*
X12289081Y-15294681D01*
X12279557Y-15256585D01*
X12279557Y-15208966D01*
X12289081Y-15170871D01*
X12298605Y-15151823D01*
X12308128Y-15142300D01*
X12327176Y-15132776D01*
X12479557Y-15313728D02*
X12489081Y-15323252D01*
X12479557Y-15332776D01*
X12470033Y-15323252D01*
X12479557Y-15313728D01*
X12479557Y-15332776D01*
X12612890Y-15132776D02*
X12631938Y-15132776D01*
X12650986Y-15142300D01*
X12660509Y-15151823D01*
X12670033Y-15170871D01*
X12679557Y-15208966D01*
X12679557Y-15256585D01*
X12670033Y-15294681D01*
X12660509Y-15313728D01*
X12650986Y-15323252D01*
X12631938Y-15332776D01*
X12612890Y-15332776D01*
X12593843Y-15323252D01*
X12584319Y-15313728D01*
X12574795Y-15294681D01*
X12565271Y-15256585D01*
X12565271Y-15208966D01*
X12574795Y-15170871D01*
X12584319Y-15151823D01*
X12593843Y-15142300D01*
X12612890Y-15132776D01*
X12870033Y-15332776D02*
X12755748Y-15332776D01*
X12812890Y-15332776D02*
X12812890Y-15132776D01*
X12793843Y-15161347D01*
X12774795Y-15180395D01*
X12755748Y-15189919D01*
X13050986Y-15132776D02*
X12955748Y-15132776D01*
X12946224Y-15228014D01*
X12955748Y-15218490D01*
X12974795Y-15208966D01*
X13022414Y-15208966D01*
X13041462Y-15218490D01*
X13050986Y-15228014D01*
X13060509Y-15247062D01*
X13060509Y-15294681D01*
X13050986Y-15313728D01*
X13041462Y-15323252D01*
X13022414Y-15332776D01*
X12974795Y-15332776D01*
X12955748Y-15323252D01*
X12946224Y-15313728D01*
X13127176Y-15132776D02*
X13260509Y-15132776D01*
X13174795Y-15332776D01*
X13327176Y-15132776D02*
X13327176Y-15170871D01*
X13403367Y-15132776D02*
X13403367Y-15170871D01*
X13698605Y-15408966D02*
X13689081Y-15399442D01*
X13670033Y-15370871D01*
X13660509Y-15351823D01*
X13650986Y-15323252D01*
X13641462Y-15275633D01*
X13641462Y-15237538D01*
X13650986Y-15189919D01*
X13660509Y-15161347D01*
X13670033Y-15142300D01*
X13689081Y-15113728D01*
X13698605Y-15104204D01*
X13860509Y-15199442D02*
X13860509Y-15332776D01*
X13812890Y-15123252D02*
X13765271Y-15266109D01*
X13889081Y-15266109D01*
X13974795Y-15332776D02*
X14012890Y-15332776D01*
X14031938Y-15323252D01*
X14041462Y-15313728D01*
X14060509Y-15285157D01*
X14070033Y-15247062D01*
X14070033Y-15170871D01*
X14060509Y-15151823D01*
X14050986Y-15142300D01*
X14031938Y-15132776D01*
X13993843Y-15132776D01*
X13974795Y-15142300D01*
X13965271Y-15151823D01*
X13955748Y-15170871D01*
X13955748Y-15218490D01*
X13965271Y-15237538D01*
X13974795Y-15247062D01*
X13993843Y-15256585D01*
X14031938Y-15256585D01*
X14050986Y-15247062D01*
X14060509Y-15237538D01*
X14070033Y-15218490D01*
X14308128Y-15332776D02*
X14308128Y-15132776D01*
X14393843Y-15332776D02*
X14393843Y-15228014D01*
X14384319Y-15208966D01*
X14365271Y-15199442D01*
X14336700Y-15199442D01*
X14317652Y-15208966D01*
X14308128Y-15218490D01*
X14517652Y-15332776D02*
X14498605Y-15323252D01*
X14489081Y-15313728D01*
X14479557Y-15294681D01*
X14479557Y-15237538D01*
X14489081Y-15218490D01*
X14498605Y-15208966D01*
X14517652Y-15199442D01*
X14546224Y-15199442D01*
X14565271Y-15208966D01*
X14574795Y-15218490D01*
X14584319Y-15237538D01*
X14584319Y-15294681D01*
X14574795Y-15313728D01*
X14565271Y-15323252D01*
X14546224Y-15332776D01*
X14517652Y-15332776D01*
X14698605Y-15332776D02*
X14679557Y-15323252D01*
X14670033Y-15304204D01*
X14670033Y-15132776D01*
X14850986Y-15323252D02*
X14831938Y-15332776D01*
X14793843Y-15332776D01*
X14774795Y-15323252D01*
X14765271Y-15304204D01*
X14765271Y-15228014D01*
X14774795Y-15208966D01*
X14793843Y-15199442D01*
X14831938Y-15199442D01*
X14850986Y-15208966D01*
X14860509Y-15228014D01*
X14860509Y-15247062D01*
X14765271Y-15266109D01*
X14936700Y-15323252D02*
X14955748Y-15332776D01*
X14993843Y-15332776D01*
X15012890Y-15323252D01*
X15022414Y-15304204D01*
X15022414Y-15294681D01*
X15012890Y-15275633D01*
X14993843Y-15266109D01*
X14965271Y-15266109D01*
X14946224Y-15256585D01*
X14936700Y-15237538D01*
X14936700Y-15228014D01*
X14946224Y-15208966D01*
X14965271Y-15199442D01*
X14993843Y-15199442D01*
X15012890Y-15208966D01*
X15089081Y-15408966D02*
X15098605Y-15399442D01*
X15117652Y-15370871D01*
X15127176Y-15351823D01*
X15136700Y-15323252D01*
X15146224Y-15275633D01*
X15146224Y-15237538D01*
X15136700Y-15189919D01*
X15127176Y-15161347D01*
X15117652Y-15142300D01*
X15098605Y-15113728D01*
X15089081Y-15104204D01*
D14*
X10126700Y-15506300D02*
G75*
G03*
X10126700Y-15506300I-50000J0D01*
G01*
D12*
X10489081Y-15596776D02*
X10374795Y-15596776D01*
X10431938Y-15596776D02*
X10431938Y-15396776D01*
X10412890Y-15425347D01*
X10393843Y-15444395D01*
X10374795Y-15453919D01*
X10574795Y-15577728D02*
X10584319Y-15587252D01*
X10574795Y-15596776D01*
X10565271Y-15587252D01*
X10574795Y-15577728D01*
X10574795Y-15596776D01*
X10708129Y-15396776D02*
X10727176Y-15396776D01*
X10746224Y-15406300D01*
X10755748Y-15415823D01*
X10765271Y-15434871D01*
X10774795Y-15472966D01*
X10774795Y-15520585D01*
X10765271Y-15558681D01*
X10755748Y-15577728D01*
X10746224Y-15587252D01*
X10727176Y-15596776D01*
X10708129Y-15596776D01*
X10689081Y-15587252D01*
X10679557Y-15577728D01*
X10670033Y-15558681D01*
X10660510Y-15520585D01*
X10660510Y-15472966D01*
X10670033Y-15434871D01*
X10679557Y-15415823D01*
X10689081Y-15406300D01*
X10708129Y-15396776D01*
X10898605Y-15396776D02*
X10917652Y-15396776D01*
X10936700Y-15406300D01*
X10946224Y-15415823D01*
X10955748Y-15434871D01*
X10965271Y-15472966D01*
X10965271Y-15520585D01*
X10955748Y-15558681D01*
X10946224Y-15577728D01*
X10936700Y-15587252D01*
X10917652Y-15596776D01*
X10898605Y-15596776D01*
X10879557Y-15587252D01*
X10870033Y-15577728D01*
X10860510Y-15558681D01*
X10850986Y-15520585D01*
X10850986Y-15472966D01*
X10860510Y-15434871D01*
X10870033Y-15415823D01*
X10879557Y-15406300D01*
X10898605Y-15396776D01*
X11089081Y-15396776D02*
X11108129Y-15396776D01*
X11127176Y-15406300D01*
X11136700Y-15415823D01*
X11146224Y-15434871D01*
X11155748Y-15472966D01*
X11155748Y-15520585D01*
X11146224Y-15558681D01*
X11136700Y-15577728D01*
X11127176Y-15587252D01*
X11108129Y-15596776D01*
X11089081Y-15596776D01*
X11070033Y-15587252D01*
X11060510Y-15577728D01*
X11050986Y-15558681D01*
X11041462Y-15520585D01*
X11041462Y-15472966D01*
X11050986Y-15434871D01*
X11060510Y-15415823D01*
X11070033Y-15406300D01*
X11089081Y-15396776D01*
X11241462Y-15596776D02*
X11241462Y-15463442D01*
X11241462Y-15482490D02*
X11250986Y-15472966D01*
X11270033Y-15463442D01*
X11298605Y-15463442D01*
X11317652Y-15472966D01*
X11327176Y-15492014D01*
X11327176Y-15596776D01*
X11327176Y-15492014D02*
X11336700Y-15472966D01*
X11355748Y-15463442D01*
X11384319Y-15463442D01*
X11403367Y-15472966D01*
X11412890Y-15492014D01*
X11412890Y-15596776D01*
X11508128Y-15596776D02*
X11508128Y-15463442D01*
X11508128Y-15482490D02*
X11517652Y-15472966D01*
X11536700Y-15463442D01*
X11565271Y-15463442D01*
X11584319Y-15472966D01*
X11593843Y-15492014D01*
X11593843Y-15596776D01*
X11593843Y-15492014D02*
X11603367Y-15472966D01*
X11622414Y-15463442D01*
X11650986Y-15463442D01*
X11670033Y-15472966D01*
X11679557Y-15492014D01*
X11679557Y-15596776D01*
X12070033Y-15387252D02*
X11898605Y-15644395D01*
X12327176Y-15396776D02*
X12346224Y-15396776D01*
X12365271Y-15406300D01*
X12374795Y-15415823D01*
X12384319Y-15434871D01*
X12393843Y-15472966D01*
X12393843Y-15520585D01*
X12384319Y-15558681D01*
X12374795Y-15577728D01*
X12365271Y-15587252D01*
X12346224Y-15596776D01*
X12327176Y-15596776D01*
X12308128Y-15587252D01*
X12298605Y-15577728D01*
X12289081Y-15558681D01*
X12279557Y-15520585D01*
X12279557Y-15472966D01*
X12289081Y-15434871D01*
X12298605Y-15415823D01*
X12308128Y-15406300D01*
X12327176Y-15396776D01*
X12479557Y-15577728D02*
X12489081Y-15587252D01*
X12479557Y-15596776D01*
X12470033Y-15587252D01*
X12479557Y-15577728D01*
X12479557Y-15596776D01*
X12612890Y-15396776D02*
X12631938Y-15396776D01*
X12650986Y-15406300D01*
X12660509Y-15415823D01*
X12670033Y-15434871D01*
X12679557Y-15472966D01*
X12679557Y-15520585D01*
X12670033Y-15558681D01*
X12660509Y-15577728D01*
X12650986Y-15587252D01*
X12631938Y-15596776D01*
X12612890Y-15596776D01*
X12593843Y-15587252D01*
X12584319Y-15577728D01*
X12574795Y-15558681D01*
X12565271Y-15520585D01*
X12565271Y-15472966D01*
X12574795Y-15434871D01*
X12584319Y-15415823D01*
X12593843Y-15406300D01*
X12612890Y-15396776D01*
X12746224Y-15396776D02*
X12870033Y-15396776D01*
X12803367Y-15472966D01*
X12831938Y-15472966D01*
X12850986Y-15482490D01*
X12860509Y-15492014D01*
X12870033Y-15511062D01*
X12870033Y-15558681D01*
X12860509Y-15577728D01*
X12850986Y-15587252D01*
X12831938Y-15596776D01*
X12774795Y-15596776D01*
X12755748Y-15587252D01*
X12746224Y-15577728D01*
X12965271Y-15596776D02*
X13003367Y-15596776D01*
X13022414Y-15587252D01*
X13031938Y-15577728D01*
X13050986Y-15549157D01*
X13060509Y-15511062D01*
X13060509Y-15434871D01*
X13050986Y-15415823D01*
X13041462Y-15406300D01*
X13022414Y-15396776D01*
X12984319Y-15396776D01*
X12965271Y-15406300D01*
X12955748Y-15415823D01*
X12946224Y-15434871D01*
X12946224Y-15482490D01*
X12955748Y-15501538D01*
X12965271Y-15511062D01*
X12984319Y-15520585D01*
X13022414Y-15520585D01*
X13041462Y-15511062D01*
X13050986Y-15501538D01*
X13060509Y-15482490D01*
X13231938Y-15463442D02*
X13231938Y-15596776D01*
X13184319Y-15387252D02*
X13136700Y-15530109D01*
X13260509Y-15530109D01*
X13327176Y-15396776D02*
X13327176Y-15434871D01*
X13403367Y-15396776D02*
X13403367Y-15434871D01*
X13698605Y-15672966D02*
X13689081Y-15663442D01*
X13670033Y-15634871D01*
X13660509Y-15615823D01*
X13650986Y-15587252D01*
X13641462Y-15539633D01*
X13641462Y-15501538D01*
X13650986Y-15453919D01*
X13660509Y-15425347D01*
X13670033Y-15406300D01*
X13689081Y-15377728D01*
X13698605Y-15368204D01*
X13879557Y-15596776D02*
X13765271Y-15596776D01*
X13822414Y-15596776D02*
X13822414Y-15396776D01*
X13803367Y-15425347D01*
X13784319Y-15444395D01*
X13765271Y-15453919D01*
X13955748Y-15415823D02*
X13965271Y-15406300D01*
X13984319Y-15396776D01*
X14031938Y-15396776D01*
X14050986Y-15406300D01*
X14060509Y-15415823D01*
X14070033Y-15434871D01*
X14070033Y-15453919D01*
X14060509Y-15482490D01*
X13946224Y-15596776D01*
X14070033Y-15596776D01*
X14308128Y-15596776D02*
X14308128Y-15396776D01*
X14393843Y-15596776D02*
X14393843Y-15492014D01*
X14384319Y-15472966D01*
X14365271Y-15463442D01*
X14336700Y-15463442D01*
X14317652Y-15472966D01*
X14308128Y-15482490D01*
X14517652Y-15596776D02*
X14498605Y-15587252D01*
X14489081Y-15577728D01*
X14479557Y-15558681D01*
X14479557Y-15501538D01*
X14489081Y-15482490D01*
X14498605Y-15472966D01*
X14517652Y-15463442D01*
X14546224Y-15463442D01*
X14565271Y-15472966D01*
X14574795Y-15482490D01*
X14584319Y-15501538D01*
X14584319Y-15558681D01*
X14574795Y-15577728D01*
X14565271Y-15587252D01*
X14546224Y-15596776D01*
X14517652Y-15596776D01*
X14698605Y-15596776D02*
X14679557Y-15587252D01*
X14670033Y-15568204D01*
X14670033Y-15396776D01*
X14850986Y-15587252D02*
X14831938Y-15596776D01*
X14793843Y-15596776D01*
X14774795Y-15587252D01*
X14765271Y-15568204D01*
X14765271Y-15492014D01*
X14774795Y-15472966D01*
X14793843Y-15463442D01*
X14831938Y-15463442D01*
X14850986Y-15472966D01*
X14860509Y-15492014D01*
X14860509Y-15511062D01*
X14765271Y-15530109D01*
X14936700Y-15587252D02*
X14955748Y-15596776D01*
X14993843Y-15596776D01*
X15012890Y-15587252D01*
X15022414Y-15568204D01*
X15022414Y-15558681D01*
X15012890Y-15539633D01*
X14993843Y-15530109D01*
X14965271Y-15530109D01*
X14946224Y-15520585D01*
X14936700Y-15501538D01*
X14936700Y-15492014D01*
X14946224Y-15472966D01*
X14965271Y-15463442D01*
X14993843Y-15463442D01*
X15012890Y-15472966D01*
X15089081Y-15672966D02*
X15098605Y-15663442D01*
X15117652Y-15634871D01*
X15127176Y-15615823D01*
X15136700Y-15587252D01*
X15146224Y-15539633D01*
X15146224Y-15501538D01*
X15136700Y-15453919D01*
X15127176Y-15425347D01*
X15117652Y-15406300D01*
X15098605Y-15377728D01*
X15089081Y-15368204D01*
D15*
X10061700Y-15705300D02*
X10061700Y-15835300D01*
X9996700Y-15770300D02*
X10126700Y-15770300D01*
D12*
X10489081Y-15860776D02*
X10374795Y-15860776D01*
X10431938Y-15860776D02*
X10431938Y-15660776D01*
X10412890Y-15689347D01*
X10393843Y-15708395D01*
X10374795Y-15717919D01*
X10574795Y-15841728D02*
X10584319Y-15851252D01*
X10574795Y-15860776D01*
X10565271Y-15851252D01*
X10574795Y-15841728D01*
X10574795Y-15860776D01*
X10650986Y-15660776D02*
X10774795Y-15660776D01*
X10708129Y-15736966D01*
X10736700Y-15736966D01*
X10755748Y-15746490D01*
X10765271Y-15756014D01*
X10774795Y-15775062D01*
X10774795Y-15822681D01*
X10765271Y-15841728D01*
X10755748Y-15851252D01*
X10736700Y-15860776D01*
X10679557Y-15860776D01*
X10660510Y-15851252D01*
X10650986Y-15841728D01*
X10898605Y-15660776D02*
X10917652Y-15660776D01*
X10936700Y-15670300D01*
X10946224Y-15679823D01*
X10955748Y-15698871D01*
X10965271Y-15736966D01*
X10965271Y-15784585D01*
X10955748Y-15822681D01*
X10946224Y-15841728D01*
X10936700Y-15851252D01*
X10917652Y-15860776D01*
X10898605Y-15860776D01*
X10879557Y-15851252D01*
X10870033Y-15841728D01*
X10860510Y-15822681D01*
X10850986Y-15784585D01*
X10850986Y-15736966D01*
X10860510Y-15698871D01*
X10870033Y-15679823D01*
X10879557Y-15670300D01*
X10898605Y-15660776D01*
X11089081Y-15660776D02*
X11108129Y-15660776D01*
X11127176Y-15670300D01*
X11136700Y-15679823D01*
X11146224Y-15698871D01*
X11155748Y-15736966D01*
X11155748Y-15784585D01*
X11146224Y-15822681D01*
X11136700Y-15841728D01*
X11127176Y-15851252D01*
X11108129Y-15860776D01*
X11089081Y-15860776D01*
X11070033Y-15851252D01*
X11060510Y-15841728D01*
X11050986Y-15822681D01*
X11041462Y-15784585D01*
X11041462Y-15736966D01*
X11050986Y-15698871D01*
X11060510Y-15679823D01*
X11070033Y-15670300D01*
X11089081Y-15660776D01*
X11241462Y-15860776D02*
X11241462Y-15727442D01*
X11241462Y-15746490D02*
X11250986Y-15736966D01*
X11270033Y-15727442D01*
X11298605Y-15727442D01*
X11317652Y-15736966D01*
X11327176Y-15756014D01*
X11327176Y-15860776D01*
X11327176Y-15756014D02*
X11336700Y-15736966D01*
X11355748Y-15727442D01*
X11384319Y-15727442D01*
X11403367Y-15736966D01*
X11412890Y-15756014D01*
X11412890Y-15860776D01*
X11508128Y-15860776D02*
X11508128Y-15727442D01*
X11508128Y-15746490D02*
X11517652Y-15736966D01*
X11536700Y-15727442D01*
X11565271Y-15727442D01*
X11584319Y-15736966D01*
X11593843Y-15756014D01*
X11593843Y-15860776D01*
X11593843Y-15756014D02*
X11603367Y-15736966D01*
X11622414Y-15727442D01*
X11650986Y-15727442D01*
X11670033Y-15736966D01*
X11679557Y-15756014D01*
X11679557Y-15860776D01*
X12070033Y-15651252D02*
X11898605Y-15908395D01*
X12327176Y-15660776D02*
X12346224Y-15660776D01*
X12365271Y-15670300D01*
X12374795Y-15679823D01*
X12384319Y-15698871D01*
X12393843Y-15736966D01*
X12393843Y-15784585D01*
X12384319Y-15822681D01*
X12374795Y-15841728D01*
X12365271Y-15851252D01*
X12346224Y-15860776D01*
X12327176Y-15860776D01*
X12308128Y-15851252D01*
X12298605Y-15841728D01*
X12289081Y-15822681D01*
X12279557Y-15784585D01*
X12279557Y-15736966D01*
X12289081Y-15698871D01*
X12298605Y-15679823D01*
X12308128Y-15670300D01*
X12327176Y-15660776D01*
X12479557Y-15841728D02*
X12489081Y-15851252D01*
X12479557Y-15860776D01*
X12470033Y-15851252D01*
X12479557Y-15841728D01*
X12479557Y-15860776D01*
X12612890Y-15660776D02*
X12631938Y-15660776D01*
X12650986Y-15670300D01*
X12660509Y-15679823D01*
X12670033Y-15698871D01*
X12679557Y-15736966D01*
X12679557Y-15784585D01*
X12670033Y-15822681D01*
X12660509Y-15841728D01*
X12650986Y-15851252D01*
X12631938Y-15860776D01*
X12612890Y-15860776D01*
X12593843Y-15851252D01*
X12584319Y-15841728D01*
X12574795Y-15822681D01*
X12565271Y-15784585D01*
X12565271Y-15736966D01*
X12574795Y-15698871D01*
X12584319Y-15679823D01*
X12593843Y-15670300D01*
X12612890Y-15660776D01*
X12860509Y-15660776D02*
X12765271Y-15660776D01*
X12755748Y-15756014D01*
X12765271Y-15746490D01*
X12784319Y-15736966D01*
X12831938Y-15736966D01*
X12850986Y-15746490D01*
X12860509Y-15756014D01*
X12870033Y-15775062D01*
X12870033Y-15822681D01*
X12860509Y-15841728D01*
X12850986Y-15851252D01*
X12831938Y-15860776D01*
X12784319Y-15860776D01*
X12765271Y-15851252D01*
X12755748Y-15841728D01*
X13060509Y-15860776D02*
X12946224Y-15860776D01*
X13003367Y-15860776D02*
X13003367Y-15660776D01*
X12984319Y-15689347D01*
X12965271Y-15708395D01*
X12946224Y-15717919D01*
X13136700Y-15679823D02*
X13146224Y-15670300D01*
X13165271Y-15660776D01*
X13212890Y-15660776D01*
X13231938Y-15670300D01*
X13241462Y-15679823D01*
X13250986Y-15698871D01*
X13250986Y-15717919D01*
X13241462Y-15746490D01*
X13127176Y-15860776D01*
X13250986Y-15860776D01*
X13327176Y-15660776D02*
X13327176Y-15698871D01*
X13403367Y-15660776D02*
X13403367Y-15698871D01*
X13698605Y-15936966D02*
X13689081Y-15927442D01*
X13670033Y-15898871D01*
X13660509Y-15879823D01*
X13650986Y-15851252D01*
X13641462Y-15803633D01*
X13641462Y-15765538D01*
X13650986Y-15717919D01*
X13660509Y-15689347D01*
X13670033Y-15670300D01*
X13689081Y-15641728D01*
X13698605Y-15632204D01*
X13765271Y-15679823D02*
X13774795Y-15670300D01*
X13793843Y-15660776D01*
X13841462Y-15660776D01*
X13860509Y-15670300D01*
X13870033Y-15679823D01*
X13879557Y-15698871D01*
X13879557Y-15717919D01*
X13870033Y-15746490D01*
X13755748Y-15860776D01*
X13879557Y-15860776D01*
X14117652Y-15860776D02*
X14117652Y-15660776D01*
X14203367Y-15860776D02*
X14203367Y-15756014D01*
X14193843Y-15736966D01*
X14174795Y-15727442D01*
X14146224Y-15727442D01*
X14127176Y-15736966D01*
X14117652Y-15746490D01*
X14327176Y-15860776D02*
X14308128Y-15851252D01*
X14298605Y-15841728D01*
X14289081Y-15822681D01*
X14289081Y-15765538D01*
X14298605Y-15746490D01*
X14308128Y-15736966D01*
X14327176Y-15727442D01*
X14355748Y-15727442D01*
X14374795Y-15736966D01*
X14384319Y-15746490D01*
X14393843Y-15765538D01*
X14393843Y-15822681D01*
X14384319Y-15841728D01*
X14374795Y-15851252D01*
X14355748Y-15860776D01*
X14327176Y-15860776D01*
X14508128Y-15860776D02*
X14489081Y-15851252D01*
X14479557Y-15832204D01*
X14479557Y-15660776D01*
X14660509Y-15851252D02*
X14641462Y-15860776D01*
X14603367Y-15860776D01*
X14584319Y-15851252D01*
X14574795Y-15832204D01*
X14574795Y-15756014D01*
X14584319Y-15736966D01*
X14603367Y-15727442D01*
X14641462Y-15727442D01*
X14660509Y-15736966D01*
X14670033Y-15756014D01*
X14670033Y-15775062D01*
X14574795Y-15794109D01*
X14746224Y-15851252D02*
X14765271Y-15860776D01*
X14803367Y-15860776D01*
X14822414Y-15851252D01*
X14831938Y-15832204D01*
X14831938Y-15822681D01*
X14822414Y-15803633D01*
X14803367Y-15794109D01*
X14774795Y-15794109D01*
X14755748Y-15784585D01*
X14746224Y-15765538D01*
X14746224Y-15756014D01*
X14755748Y-15736966D01*
X14774795Y-15727442D01*
X14803367Y-15727442D01*
X14822414Y-15736966D01*
X14898605Y-15936966D02*
X14908128Y-15927442D01*
X14927176Y-15898871D01*
X14936700Y-15879823D01*
X14946224Y-15851252D01*
X14955748Y-15803633D01*
X14955748Y-15765538D01*
X14946224Y-15717919D01*
X14936700Y-15689347D01*
X14927176Y-15670300D01*
X14908128Y-15641728D01*
X14898605Y-15632204D01*
X10097411Y-16105011D02*
X10097411Y-15963588D01*
X9955989Y-15963588D01*
X9955989Y-16105011D01*
X10097411Y-16105011D01*
X10374795Y-15943823D02*
X10384319Y-15934300D01*
X10403367Y-15924776D01*
X10450986Y-15924776D01*
X10470033Y-15934300D01*
X10479557Y-15943823D01*
X10489081Y-15962871D01*
X10489081Y-15981919D01*
X10479557Y-16010490D01*
X10365271Y-16124776D01*
X10489081Y-16124776D01*
X10574795Y-16105728D02*
X10584319Y-16115252D01*
X10574795Y-16124776D01*
X10565271Y-16115252D01*
X10574795Y-16105728D01*
X10574795Y-16124776D01*
X10708129Y-15924776D02*
X10727176Y-15924776D01*
X10746224Y-15934300D01*
X10755748Y-15943823D01*
X10765271Y-15962871D01*
X10774795Y-16000966D01*
X10774795Y-16048585D01*
X10765271Y-16086681D01*
X10755748Y-16105728D01*
X10746224Y-16115252D01*
X10727176Y-16124776D01*
X10708129Y-16124776D01*
X10689081Y-16115252D01*
X10679557Y-16105728D01*
X10670033Y-16086681D01*
X10660510Y-16048585D01*
X10660510Y-16000966D01*
X10670033Y-15962871D01*
X10679557Y-15943823D01*
X10689081Y-15934300D01*
X10708129Y-15924776D01*
X10898605Y-15924776D02*
X10917652Y-15924776D01*
X10936700Y-15934300D01*
X10946224Y-15943823D01*
X10955748Y-15962871D01*
X10965271Y-16000966D01*
X10965271Y-16048585D01*
X10955748Y-16086681D01*
X10946224Y-16105728D01*
X10936700Y-16115252D01*
X10917652Y-16124776D01*
X10898605Y-16124776D01*
X10879557Y-16115252D01*
X10870033Y-16105728D01*
X10860510Y-16086681D01*
X10850986Y-16048585D01*
X10850986Y-16000966D01*
X10860510Y-15962871D01*
X10870033Y-15943823D01*
X10879557Y-15934300D01*
X10898605Y-15924776D01*
X11089081Y-15924776D02*
X11108129Y-15924776D01*
X11127176Y-15934300D01*
X11136700Y-15943823D01*
X11146224Y-15962871D01*
X11155748Y-16000966D01*
X11155748Y-16048585D01*
X11146224Y-16086681D01*
X11136700Y-16105728D01*
X11127176Y-16115252D01*
X11108129Y-16124776D01*
X11089081Y-16124776D01*
X11070033Y-16115252D01*
X11060510Y-16105728D01*
X11050986Y-16086681D01*
X11041462Y-16048585D01*
X11041462Y-16000966D01*
X11050986Y-15962871D01*
X11060510Y-15943823D01*
X11070033Y-15934300D01*
X11089081Y-15924776D01*
X11241462Y-16124776D02*
X11241462Y-15991442D01*
X11241462Y-16010490D02*
X11250986Y-16000966D01*
X11270033Y-15991442D01*
X11298605Y-15991442D01*
X11317652Y-16000966D01*
X11327176Y-16020014D01*
X11327176Y-16124776D01*
X11327176Y-16020014D02*
X11336700Y-16000966D01*
X11355748Y-15991442D01*
X11384319Y-15991442D01*
X11403367Y-16000966D01*
X11412890Y-16020014D01*
X11412890Y-16124776D01*
X11508128Y-16124776D02*
X11508128Y-15991442D01*
X11508128Y-16010490D02*
X11517652Y-16000966D01*
X11536700Y-15991442D01*
X11565271Y-15991442D01*
X11584319Y-16000966D01*
X11593843Y-16020014D01*
X11593843Y-16124776D01*
X11593843Y-16020014D02*
X11603367Y-16000966D01*
X11622414Y-15991442D01*
X11650986Y-15991442D01*
X11670033Y-16000966D01*
X11679557Y-16020014D01*
X11679557Y-16124776D01*
X12070033Y-15915252D02*
X11898605Y-16172395D01*
X12327176Y-15924776D02*
X12346224Y-15924776D01*
X12365271Y-15934300D01*
X12374795Y-15943823D01*
X12384319Y-15962871D01*
X12393843Y-16000966D01*
X12393843Y-16048585D01*
X12384319Y-16086681D01*
X12374795Y-16105728D01*
X12365271Y-16115252D01*
X12346224Y-16124776D01*
X12327176Y-16124776D01*
X12308128Y-16115252D01*
X12298605Y-16105728D01*
X12289081Y-16086681D01*
X12279557Y-16048585D01*
X12279557Y-16000966D01*
X12289081Y-15962871D01*
X12298605Y-15943823D01*
X12308128Y-15934300D01*
X12327176Y-15924776D01*
X12479557Y-16105728D02*
X12489081Y-16115252D01*
X12479557Y-16124776D01*
X12470033Y-16115252D01*
X12479557Y-16105728D01*
X12479557Y-16124776D01*
X12612890Y-15924776D02*
X12631938Y-15924776D01*
X12650986Y-15934300D01*
X12660509Y-15943823D01*
X12670033Y-15962871D01*
X12679557Y-16000966D01*
X12679557Y-16048585D01*
X12670033Y-16086681D01*
X12660509Y-16105728D01*
X12650986Y-16115252D01*
X12631938Y-16124776D01*
X12612890Y-16124776D01*
X12593843Y-16115252D01*
X12584319Y-16105728D01*
X12574795Y-16086681D01*
X12565271Y-16048585D01*
X12565271Y-16000966D01*
X12574795Y-15962871D01*
X12584319Y-15943823D01*
X12593843Y-15934300D01*
X12612890Y-15924776D01*
X12746224Y-15924776D02*
X12879557Y-15924776D01*
X12793843Y-16124776D01*
X12984319Y-16010490D02*
X12965271Y-16000966D01*
X12955748Y-15991442D01*
X12946224Y-15972395D01*
X12946224Y-15962871D01*
X12955748Y-15943823D01*
X12965271Y-15934300D01*
X12984319Y-15924776D01*
X13022414Y-15924776D01*
X13041462Y-15934300D01*
X13050986Y-15943823D01*
X13060509Y-15962871D01*
X13060509Y-15972395D01*
X13050986Y-15991442D01*
X13041462Y-16000966D01*
X13022414Y-16010490D01*
X12984319Y-16010490D01*
X12965271Y-16020014D01*
X12955748Y-16029538D01*
X12946224Y-16048585D01*
X12946224Y-16086681D01*
X12955748Y-16105728D01*
X12965271Y-16115252D01*
X12984319Y-16124776D01*
X13022414Y-16124776D01*
X13041462Y-16115252D01*
X13050986Y-16105728D01*
X13060509Y-16086681D01*
X13060509Y-16048585D01*
X13050986Y-16029538D01*
X13041462Y-16020014D01*
X13022414Y-16010490D01*
X13127176Y-15924776D02*
X13260509Y-15924776D01*
X13174795Y-16124776D01*
X13327176Y-15924776D02*
X13327176Y-15962871D01*
X13403367Y-15924776D02*
X13403367Y-15962871D01*
X13698605Y-16200966D02*
X13689081Y-16191442D01*
X13670033Y-16162871D01*
X13660509Y-16143823D01*
X13650986Y-16115252D01*
X13641462Y-16067633D01*
X13641462Y-16029538D01*
X13650986Y-15981919D01*
X13660509Y-15953347D01*
X13670033Y-15934300D01*
X13689081Y-15905728D01*
X13698605Y-15896204D01*
X13879557Y-16124776D02*
X13765271Y-16124776D01*
X13822414Y-16124776D02*
X13822414Y-15924776D01*
X13803367Y-15953347D01*
X13784319Y-15972395D01*
X13765271Y-15981919D01*
X13955748Y-15943823D02*
X13965271Y-15934300D01*
X13984319Y-15924776D01*
X14031938Y-15924776D01*
X14050986Y-15934300D01*
X14060509Y-15943823D01*
X14070033Y-15962871D01*
X14070033Y-15981919D01*
X14060509Y-16010490D01*
X13946224Y-16124776D01*
X14070033Y-16124776D01*
X14308128Y-16124776D02*
X14308128Y-15924776D01*
X14393843Y-16124776D02*
X14393843Y-16020014D01*
X14384319Y-16000966D01*
X14365271Y-15991442D01*
X14336700Y-15991442D01*
X14317652Y-16000966D01*
X14308128Y-16010490D01*
X14517652Y-16124776D02*
X14498605Y-16115252D01*
X14489081Y-16105728D01*
X14479557Y-16086681D01*
X14479557Y-16029538D01*
X14489081Y-16010490D01*
X14498605Y-16000966D01*
X14517652Y-15991442D01*
X14546224Y-15991442D01*
X14565271Y-16000966D01*
X14574795Y-16010490D01*
X14584319Y-16029538D01*
X14584319Y-16086681D01*
X14574795Y-16105728D01*
X14565271Y-16115252D01*
X14546224Y-16124776D01*
X14517652Y-16124776D01*
X14698605Y-16124776D02*
X14679557Y-16115252D01*
X14670033Y-16096204D01*
X14670033Y-15924776D01*
X14850986Y-16115252D02*
X14831938Y-16124776D01*
X14793843Y-16124776D01*
X14774795Y-16115252D01*
X14765271Y-16096204D01*
X14765271Y-16020014D01*
X14774795Y-16000966D01*
X14793843Y-15991442D01*
X14831938Y-15991442D01*
X14850986Y-16000966D01*
X14860509Y-16020014D01*
X14860509Y-16039062D01*
X14765271Y-16058109D01*
X14936700Y-16115252D02*
X14955748Y-16124776D01*
X14993843Y-16124776D01*
X15012890Y-16115252D01*
X15022414Y-16096204D01*
X15022414Y-16086681D01*
X15012890Y-16067633D01*
X14993843Y-16058109D01*
X14965271Y-16058109D01*
X14946224Y-16048585D01*
X14936700Y-16029538D01*
X14936700Y-16020014D01*
X14946224Y-16000966D01*
X14965271Y-15991442D01*
X14993843Y-15991442D01*
X15012890Y-16000966D01*
X15089081Y-16200966D02*
X15098605Y-16191442D01*
X15117652Y-16162871D01*
X15127176Y-16143823D01*
X15136700Y-16115252D01*
X15146224Y-16067633D01*
X15146224Y-16029538D01*
X15136700Y-15981919D01*
X15127176Y-15953347D01*
X15117652Y-15934300D01*
X15098605Y-15905728D01*
X15089081Y-15896204D01*
X10026700Y-16454300D02*
X10126700Y-16354300D01*
X10026700Y-16254300D01*
X9926700Y-16354300D01*
X10026700Y-16454300D01*
X10374795Y-16263823D02*
X10384319Y-16254300D01*
X10403367Y-16244776D01*
X10450986Y-16244776D01*
X10470033Y-16254300D01*
X10479557Y-16263823D01*
X10489081Y-16282871D01*
X10489081Y-16301919D01*
X10479557Y-16330490D01*
X10365271Y-16444776D01*
X10489081Y-16444776D01*
X10574795Y-16425728D02*
X10584319Y-16435252D01*
X10574795Y-16444776D01*
X10565271Y-16435252D01*
X10574795Y-16425728D01*
X10574795Y-16444776D01*
X10660510Y-16263823D02*
X10670033Y-16254300D01*
X10689081Y-16244776D01*
X10736700Y-16244776D01*
X10755748Y-16254300D01*
X10765271Y-16263823D01*
X10774795Y-16282871D01*
X10774795Y-16301919D01*
X10765271Y-16330490D01*
X10650986Y-16444776D01*
X10774795Y-16444776D01*
X10898605Y-16244776D02*
X10917652Y-16244776D01*
X10936700Y-16254300D01*
X10946224Y-16263823D01*
X10955748Y-16282871D01*
X10965271Y-16320966D01*
X10965271Y-16368585D01*
X10955748Y-16406681D01*
X10946224Y-16425728D01*
X10936700Y-16435252D01*
X10917652Y-16444776D01*
X10898605Y-16444776D01*
X10879557Y-16435252D01*
X10870033Y-16425728D01*
X10860510Y-16406681D01*
X10850986Y-16368585D01*
X10850986Y-16320966D01*
X10860510Y-16282871D01*
X10870033Y-16263823D01*
X10879557Y-16254300D01*
X10898605Y-16244776D01*
X11089081Y-16244776D02*
X11108129Y-16244776D01*
X11127176Y-16254300D01*
X11136700Y-16263823D01*
X11146224Y-16282871D01*
X11155748Y-16320966D01*
X11155748Y-16368585D01*
X11146224Y-16406681D01*
X11136700Y-16425728D01*
X11127176Y-16435252D01*
X11108129Y-16444776D01*
X11089081Y-16444776D01*
X11070033Y-16435252D01*
X11060510Y-16425728D01*
X11050986Y-16406681D01*
X11041462Y-16368585D01*
X11041462Y-16320966D01*
X11050986Y-16282871D01*
X11060510Y-16263823D01*
X11070033Y-16254300D01*
X11089081Y-16244776D01*
X11241462Y-16444776D02*
X11241462Y-16311442D01*
X11241462Y-16330490D02*
X11250986Y-16320966D01*
X11270033Y-16311442D01*
X11298605Y-16311442D01*
X11317652Y-16320966D01*
X11327176Y-16340014D01*
X11327176Y-16444776D01*
X11327176Y-16340014D02*
X11336700Y-16320966D01*
X11355748Y-16311442D01*
X11384319Y-16311442D01*
X11403367Y-16320966D01*
X11412890Y-16340014D01*
X11412890Y-16444776D01*
X11508128Y-16444776D02*
X11508128Y-16311442D01*
X11508128Y-16330490D02*
X11517652Y-16320966D01*
X11536700Y-16311442D01*
X11565271Y-16311442D01*
X11584319Y-16320966D01*
X11593843Y-16340014D01*
X11593843Y-16444776D01*
X11593843Y-16340014D02*
X11603367Y-16320966D01*
X11622414Y-16311442D01*
X11650986Y-16311442D01*
X11670033Y-16320966D01*
X11679557Y-16340014D01*
X11679557Y-16444776D01*
X12070033Y-16235252D02*
X11898605Y-16492395D01*
X12327176Y-16244776D02*
X12346224Y-16244776D01*
X12365271Y-16254300D01*
X12374795Y-16263823D01*
X12384319Y-16282871D01*
X12393843Y-16320966D01*
X12393843Y-16368585D01*
X12384319Y-16406681D01*
X12374795Y-16425728D01*
X12365271Y-16435252D01*
X12346224Y-16444776D01*
X12327176Y-16444776D01*
X12308128Y-16435252D01*
X12298605Y-16425728D01*
X12289081Y-16406681D01*
X12279557Y-16368585D01*
X12279557Y-16320966D01*
X12289081Y-16282871D01*
X12298605Y-16263823D01*
X12308128Y-16254300D01*
X12327176Y-16244776D01*
X12479557Y-16425728D02*
X12489081Y-16435252D01*
X12479557Y-16444776D01*
X12470033Y-16435252D01*
X12479557Y-16425728D01*
X12479557Y-16444776D01*
X12612890Y-16244776D02*
X12631938Y-16244776D01*
X12650986Y-16254300D01*
X12660509Y-16263823D01*
X12670033Y-16282871D01*
X12679557Y-16320966D01*
X12679557Y-16368585D01*
X12670033Y-16406681D01*
X12660509Y-16425728D01*
X12650986Y-16435252D01*
X12631938Y-16444776D01*
X12612890Y-16444776D01*
X12593843Y-16435252D01*
X12584319Y-16425728D01*
X12574795Y-16406681D01*
X12565271Y-16368585D01*
X12565271Y-16320966D01*
X12574795Y-16282871D01*
X12584319Y-16263823D01*
X12593843Y-16254300D01*
X12612890Y-16244776D01*
X12793843Y-16330490D02*
X12774795Y-16320966D01*
X12765271Y-16311442D01*
X12755748Y-16292395D01*
X12755748Y-16282871D01*
X12765271Y-16263823D01*
X12774795Y-16254300D01*
X12793843Y-16244776D01*
X12831938Y-16244776D01*
X12850986Y-16254300D01*
X12860509Y-16263823D01*
X12870033Y-16282871D01*
X12870033Y-16292395D01*
X12860509Y-16311442D01*
X12850986Y-16320966D01*
X12831938Y-16330490D01*
X12793843Y-16330490D01*
X12774795Y-16340014D01*
X12765271Y-16349538D01*
X12755748Y-16368585D01*
X12755748Y-16406681D01*
X12765271Y-16425728D01*
X12774795Y-16435252D01*
X12793843Y-16444776D01*
X12831938Y-16444776D01*
X12850986Y-16435252D01*
X12860509Y-16425728D01*
X12870033Y-16406681D01*
X12870033Y-16368585D01*
X12860509Y-16349538D01*
X12850986Y-16340014D01*
X12831938Y-16330490D01*
X13041462Y-16244776D02*
X13003367Y-16244776D01*
X12984319Y-16254300D01*
X12974795Y-16263823D01*
X12955748Y-16292395D01*
X12946224Y-16330490D01*
X12946224Y-16406681D01*
X12955748Y-16425728D01*
X12965271Y-16435252D01*
X12984319Y-16444776D01*
X13022414Y-16444776D01*
X13041462Y-16435252D01*
X13050986Y-16425728D01*
X13060509Y-16406681D01*
X13060509Y-16359062D01*
X13050986Y-16340014D01*
X13041462Y-16330490D01*
X13022414Y-16320966D01*
X12984319Y-16320966D01*
X12965271Y-16330490D01*
X12955748Y-16340014D01*
X12946224Y-16359062D01*
X13231938Y-16244776D02*
X13193843Y-16244776D01*
X13174795Y-16254300D01*
X13165271Y-16263823D01*
X13146224Y-16292395D01*
X13136700Y-16330490D01*
X13136700Y-16406681D01*
X13146224Y-16425728D01*
X13155748Y-16435252D01*
X13174795Y-16444776D01*
X13212890Y-16444776D01*
X13231938Y-16435252D01*
X13241462Y-16425728D01*
X13250986Y-16406681D01*
X13250986Y-16359062D01*
X13241462Y-16340014D01*
X13231938Y-16330490D01*
X13212890Y-16320966D01*
X13174795Y-16320966D01*
X13155748Y-16330490D01*
X13146224Y-16340014D01*
X13136700Y-16359062D01*
X13327176Y-16244776D02*
X13327176Y-16282871D01*
X13403367Y-16244776D02*
X13403367Y-16282871D01*
X13698605Y-16520966D02*
X13689081Y-16511442D01*
X13670033Y-16482871D01*
X13660509Y-16463823D01*
X13650986Y-16435252D01*
X13641462Y-16387633D01*
X13641462Y-16349538D01*
X13650986Y-16301919D01*
X13660509Y-16273347D01*
X13670033Y-16254300D01*
X13689081Y-16225728D01*
X13698605Y-16216204D01*
X13860509Y-16311442D02*
X13860509Y-16444776D01*
X13812890Y-16235252D02*
X13765271Y-16378109D01*
X13889081Y-16378109D01*
X14117652Y-16444776D02*
X14117652Y-16244776D01*
X14203367Y-16444776D02*
X14203367Y-16340014D01*
X14193843Y-16320966D01*
X14174795Y-16311442D01*
X14146224Y-16311442D01*
X14127176Y-16320966D01*
X14117652Y-16330490D01*
X14327176Y-16444776D02*
X14308128Y-16435252D01*
X14298605Y-16425728D01*
X14289081Y-16406681D01*
X14289081Y-16349538D01*
X14298605Y-16330490D01*
X14308128Y-16320966D01*
X14327176Y-16311442D01*
X14355748Y-16311442D01*
X14374795Y-16320966D01*
X14384319Y-16330490D01*
X14393843Y-16349538D01*
X14393843Y-16406681D01*
X14384319Y-16425728D01*
X14374795Y-16435252D01*
X14355748Y-16444776D01*
X14327176Y-16444776D01*
X14508128Y-16444776D02*
X14489081Y-16435252D01*
X14479557Y-16416204D01*
X14479557Y-16244776D01*
X14660509Y-16435252D02*
X14641462Y-16444776D01*
X14603367Y-16444776D01*
X14584319Y-16435252D01*
X14574795Y-16416204D01*
X14574795Y-16340014D01*
X14584319Y-16320966D01*
X14603367Y-16311442D01*
X14641462Y-16311442D01*
X14660509Y-16320966D01*
X14670033Y-16340014D01*
X14670033Y-16359062D01*
X14574795Y-16378109D01*
X14746224Y-16435252D02*
X14765271Y-16444776D01*
X14803367Y-16444776D01*
X14822414Y-16435252D01*
X14831938Y-16416204D01*
X14831938Y-16406681D01*
X14822414Y-16387633D01*
X14803367Y-16378109D01*
X14774795Y-16378109D01*
X14755748Y-16368585D01*
X14746224Y-16349538D01*
X14746224Y-16340014D01*
X14755748Y-16320966D01*
X14774795Y-16311442D01*
X14803367Y-16311442D01*
X14822414Y-16320966D01*
X14898605Y-16520966D02*
X14908128Y-16511442D01*
X14927176Y-16482871D01*
X14936700Y-16463823D01*
X14946224Y-16435252D01*
X14955748Y-16387633D01*
X14955748Y-16349538D01*
X14946224Y-16301919D01*
X14936700Y-16273347D01*
X14927176Y-16254300D01*
X14908128Y-16225728D01*
X14898605Y-16216204D01*
M02*
