G04 #@! TF.GenerationSoftware,KiCad,Pcbnew,(6.0.5)*
G04 #@! TF.CreationDate,2023-05-08T02:17:39-07:00*
G04 #@! TF.ProjectId,X_Y_Panels,585f595f-5061-46e6-956c-732e6b696361,rev?*
G04 #@! TF.SameCoordinates,Original*
G04 #@! TF.FileFunction,Copper,L6,Bot*
G04 #@! TF.FilePolarity,Positive*
%FSLAX46Y46*%
G04 Gerber Fmt 4.6, Leading zero omitted, Abs format (unit mm)*
G04 Created by KiCad (PCBNEW (6.0.5)) date 2023-05-08 02:17:39*
%MOMM*%
%LPD*%
G01*
G04 APERTURE LIST*
G04 #@! TA.AperFunction,ComponentPad*
%ADD10C,3.000000*%
G04 #@! TD*
G04 #@! TA.AperFunction,ComponentPad*
%ADD11R,1.700000X1.700000*%
G04 #@! TD*
G04 #@! TA.AperFunction,ComponentPad*
%ADD12O,1.700000X1.700000*%
G04 #@! TD*
G04 #@! TA.AperFunction,ConnectorPad*
%ADD13C,3.800000*%
G04 #@! TD*
G04 #@! TA.AperFunction,ComponentPad*
%ADD14C,2.600000*%
G04 #@! TD*
G04 #@! TA.AperFunction,SMDPad,CuDef*
%ADD15R,1.100000X1.450000*%
G04 #@! TD*
G04 #@! TA.AperFunction,SMDPad,CuDef*
%ADD16R,1.350000X2.900000*%
G04 #@! TD*
G04 #@! TA.AperFunction,ViaPad*
%ADD17C,0.800000*%
G04 #@! TD*
G04 #@! TA.AperFunction,Conductor*
%ADD18C,1.000000*%
G04 #@! TD*
G04 #@! TA.AperFunction,Conductor*
%ADD19C,0.500000*%
G04 #@! TD*
G04 APERTURE END LIST*
D10*
X129240000Y-139374000D03*
X129240000Y-130374000D03*
D11*
X135680000Y-104520000D03*
D12*
X138220000Y-104520000D03*
X140760000Y-104520000D03*
X143300000Y-104520000D03*
X145840000Y-104520000D03*
X148380000Y-104520000D03*
D13*
X180792000Y-138997997D03*
D14*
X180792000Y-138997997D03*
D10*
X108022000Y-105058000D03*
X117022000Y-105058000D03*
D12*
X127592000Y-60497997D03*
X130132000Y-60497997D03*
X132672000Y-60497997D03*
X135212000Y-60497997D03*
X137752000Y-60497997D03*
D11*
X140292000Y-60497997D03*
D10*
X117022000Y-95752000D03*
X108022000Y-95752000D03*
X176458000Y-95758000D03*
X167458000Y-95758000D03*
D14*
X103792000Y-44997997D03*
D13*
X103792000Y-44997997D03*
D14*
X103792000Y-138997997D03*
D13*
X103792000Y-138997997D03*
D10*
X155260000Y-45210000D03*
X155260000Y-54210000D03*
D13*
X180792000Y-44997997D03*
D14*
X180792000Y-44997997D03*
X126238000Y-123444000D03*
X133858000Y-123444000D03*
D10*
X167458000Y-105066000D03*
X176458000Y-105066000D03*
D15*
X136950000Y-99930000D03*
X138950000Y-99930000D03*
X140950000Y-99930000D03*
X142950000Y-99930000D03*
X144950000Y-99930000D03*
X146950000Y-99930000D03*
D16*
X134055000Y-93955000D03*
X149845000Y-93955000D03*
D17*
X165590000Y-42740000D03*
X169881000Y-47698000D03*
X117457000Y-46020000D03*
X114973000Y-52595000D03*
X177036000Y-50028000D03*
X116278000Y-54788000D03*
X160020000Y-103886000D03*
X160020000Y-105410000D03*
X157988000Y-107696000D03*
X161290000Y-104648000D03*
X160020000Y-106934000D03*
X178550000Y-53140000D03*
X171436000Y-52528000D03*
X112153000Y-50313000D03*
X114974500Y-45992500D03*
X108228000Y-51588000D03*
X161290000Y-106172000D03*
X112257000Y-46030000D03*
X168578000Y-55634000D03*
X171046000Y-57558000D03*
X117853000Y-41588000D03*
X108257000Y-46914000D03*
X111503000Y-41888000D03*
X164376000Y-51092000D03*
X179778000Y-50220000D03*
X179781000Y-58073000D03*
X169394000Y-39531000D03*
X161069000Y-43856000D03*
X121700000Y-61800000D03*
X123570000Y-61640000D03*
X119831000Y-118053000D03*
X163576000Y-87122000D03*
X118364000Y-78740000D03*
X159644000Y-40231000D03*
X180594000Y-41656000D03*
X166856000Y-57473000D03*
X117003000Y-56263000D03*
X176731000Y-53873000D03*
X181431000Y-50973000D03*
X118878000Y-58663000D03*
X173981000Y-52973000D03*
X168930000Y-42920000D03*
X174281500Y-39406000D03*
X177781000Y-44048000D03*
X179506000Y-48673000D03*
X174481000Y-57973000D03*
X174481000Y-55123000D03*
X178081000Y-48048000D03*
X174506000Y-51548000D03*
D18*
X120550000Y-59720000D02*
X118364000Y-61906000D01*
X118364000Y-61906000D02*
X118364000Y-78740000D01*
X126220000Y-59720000D02*
X120550000Y-59720000D01*
X126830000Y-60330000D02*
X126220000Y-59720000D01*
X127730000Y-60330000D02*
X126830000Y-60330000D01*
D19*
X136950000Y-102960000D02*
X136950000Y-99930000D01*
X135680000Y-104520000D02*
X135680000Y-104230000D01*
X135680000Y-104230000D02*
X136950000Y-102960000D01*
X138950000Y-103630000D02*
X138950000Y-99930000D01*
X138220000Y-104520000D02*
X138220000Y-104360000D01*
X138220000Y-104360000D02*
X138950000Y-103630000D01*
X140760000Y-104520000D02*
X140760000Y-100120000D01*
X140760000Y-100120000D02*
X140950000Y-99930000D01*
D18*
X163576000Y-62526000D02*
X155260000Y-54210000D01*
X163576000Y-87122000D02*
X163576000Y-62526000D01*
D19*
X143300000Y-104520000D02*
X143300000Y-100280000D01*
X143300000Y-100280000D02*
X142950000Y-99930000D01*
X144950000Y-103630000D02*
X144950000Y-99930000D01*
X145840000Y-104520000D02*
X144950000Y-103630000D01*
X146950000Y-103090000D02*
X146950000Y-99930000D01*
X148380000Y-104520000D02*
X146950000Y-103090000D01*
G04 #@! TA.AperFunction,Conductor*
G36*
X182824391Y-38398709D02*
G01*
X182881354Y-38449175D01*
X182908341Y-38520332D01*
X182909500Y-38539497D01*
X182909500Y-43762030D01*
X182891288Y-43835921D01*
X182840822Y-43892884D01*
X182769665Y-43919871D01*
X182694118Y-43910698D01*
X182631487Y-43867467D01*
X182620414Y-43853456D01*
X182497515Y-43678588D01*
X182485208Y-43667870D01*
X182480994Y-43668946D01*
X182478148Y-43671059D01*
X181164861Y-44984346D01*
X181156418Y-44998312D01*
X181160422Y-45007209D01*
X182471331Y-46318118D01*
X182485297Y-46326561D01*
X182490049Y-46324422D01*
X182491409Y-46323020D01*
X182611724Y-46159232D01*
X182616250Y-46152100D01*
X182671219Y-46099470D01*
X182744351Y-46078413D01*
X182818891Y-46093754D01*
X182877763Y-46141978D01*
X182907481Y-46212038D01*
X182909500Y-46237294D01*
X182909500Y-137762030D01*
X182891288Y-137835921D01*
X182840822Y-137892884D01*
X182769665Y-137919871D01*
X182694118Y-137910698D01*
X182631487Y-137867467D01*
X182620414Y-137853456D01*
X182497515Y-137678588D01*
X182485208Y-137667870D01*
X182480994Y-137668946D01*
X182478148Y-137671059D01*
X181164861Y-138984346D01*
X181156418Y-138998312D01*
X181160422Y-139007209D01*
X182471331Y-140318118D01*
X182485297Y-140326561D01*
X182490049Y-140324422D01*
X182491409Y-140323020D01*
X182611724Y-140159232D01*
X182616250Y-140152100D01*
X182671219Y-140099470D01*
X182744351Y-140078413D01*
X182818891Y-140093754D01*
X182877763Y-140141978D01*
X182907481Y-140212038D01*
X182909500Y-140237294D01*
X182909500Y-145456497D01*
X182891288Y-145530388D01*
X182840822Y-145587351D01*
X182769665Y-145614338D01*
X182750500Y-145615497D01*
X101833500Y-145615497D01*
X101759609Y-145597285D01*
X101702646Y-145546819D01*
X101675659Y-145475662D01*
X101674500Y-145456497D01*
X101674500Y-140691073D01*
X102463657Y-140691073D01*
X102466572Y-140697550D01*
X102518803Y-140741222D01*
X102527538Y-140747568D01*
X102767161Y-140897883D01*
X102776678Y-140902986D01*
X103034484Y-141019391D01*
X103044617Y-141023159D01*
X103315821Y-141103493D01*
X103326383Y-141105853D01*
X103605984Y-141148639D01*
X103616751Y-141149543D01*
X103899577Y-141153986D01*
X103910375Y-141153420D01*
X104191186Y-141119439D01*
X104201793Y-141117416D01*
X104475419Y-141045631D01*
X104485636Y-141042192D01*
X104746980Y-140933940D01*
X104756657Y-140929136D01*
X105000890Y-140786418D01*
X105009810Y-140780357D01*
X105109712Y-140702023D01*
X105119771Y-140689173D01*
X105117868Y-140683075D01*
X103805651Y-139370858D01*
X103791685Y-139362415D01*
X103782788Y-139366419D01*
X102472100Y-140677107D01*
X102463657Y-140691073D01*
X101674500Y-140691073D01*
X101674500Y-140232061D01*
X101692712Y-140158170D01*
X101743178Y-140101207D01*
X101814335Y-140074220D01*
X101889882Y-140083393D01*
X101952513Y-140126624D01*
X101964536Y-140142002D01*
X102085677Y-140318264D01*
X102097871Y-140329111D01*
X102101674Y-140328182D01*
X102105177Y-140325610D01*
X103419139Y-139011648D01*
X103427201Y-138998312D01*
X104156418Y-138998312D01*
X104160422Y-139007209D01*
X105471331Y-140318118D01*
X105485297Y-140326561D01*
X105490049Y-140324422D01*
X105491409Y-140323020D01*
X105611730Y-140159224D01*
X105617513Y-140150112D01*
X105752488Y-139901519D01*
X105756984Y-139891698D01*
X105856972Y-139627086D01*
X105860092Y-139616752D01*
X105923244Y-139341019D01*
X105924933Y-139330357D01*
X105925162Y-139327786D01*
X127475168Y-139327786D01*
X127487722Y-139589153D01*
X127538771Y-139845793D01*
X127540762Y-139851338D01*
X127540763Y-139851342D01*
X127558779Y-139901519D01*
X127627193Y-140092068D01*
X127751046Y-140322569D01*
X127907608Y-140532231D01*
X127911794Y-140536380D01*
X127911796Y-140536383D01*
X128089256Y-140712302D01*
X128089261Y-140712306D01*
X128093440Y-140716449D01*
X128180600Y-140780357D01*
X128299702Y-140867686D01*
X128299706Y-140867688D01*
X128304461Y-140871175D01*
X128309677Y-140873919D01*
X128309683Y-140873923D01*
X128530814Y-140990266D01*
X128530818Y-140990268D01*
X128536034Y-140993012D01*
X128783071Y-141079281D01*
X129040147Y-141128089D01*
X129046049Y-141128321D01*
X129046050Y-141128321D01*
X129088600Y-141129993D01*
X129301613Y-141138362D01*
X129561725Y-141109875D01*
X129567425Y-141108374D01*
X129567432Y-141108373D01*
X129809066Y-141044755D01*
X129809069Y-141044754D01*
X129814770Y-141043253D01*
X130055188Y-140939962D01*
X130060203Y-140936858D01*
X130060208Y-140936856D01*
X130185981Y-140859025D01*
X130277698Y-140802269D01*
X130282201Y-140798457D01*
X130282205Y-140798454D01*
X130409048Y-140691073D01*
X179463657Y-140691073D01*
X179466572Y-140697550D01*
X179518803Y-140741222D01*
X179527538Y-140747568D01*
X179767161Y-140897883D01*
X179776678Y-140902986D01*
X180034484Y-141019391D01*
X180044617Y-141023159D01*
X180315821Y-141103493D01*
X180326383Y-141105853D01*
X180605984Y-141148639D01*
X180616751Y-141149543D01*
X180899577Y-141153986D01*
X180910375Y-141153420D01*
X181191186Y-141119439D01*
X181201793Y-141117416D01*
X181475419Y-141045631D01*
X181485636Y-141042192D01*
X181746980Y-140933940D01*
X181756657Y-140929136D01*
X182000890Y-140786418D01*
X182009810Y-140780357D01*
X182109712Y-140702023D01*
X182119771Y-140689173D01*
X182117868Y-140683075D01*
X180805651Y-139370858D01*
X180791685Y-139362415D01*
X180782788Y-139366419D01*
X179472100Y-140677107D01*
X179463657Y-140691073D01*
X130409048Y-140691073D01*
X130472912Y-140637008D01*
X130472914Y-140637006D01*
X130477411Y-140633199D01*
X130649941Y-140436467D01*
X130791496Y-140216394D01*
X130831935Y-140126624D01*
X130896546Y-139983191D01*
X130898968Y-139977815D01*
X130923256Y-139891698D01*
X130968393Y-139731652D01*
X130969995Y-139725972D01*
X131003018Y-139466396D01*
X131005437Y-139374000D01*
X130986045Y-139113052D01*
X130975723Y-139067435D01*
X130956118Y-138980791D01*
X178633397Y-138980791D01*
X178649680Y-139263190D01*
X178651033Y-139273905D01*
X178705494Y-139551494D01*
X178708284Y-139561908D01*
X178799915Y-139829539D01*
X178804098Y-139839490D01*
X178931201Y-140092204D01*
X178936694Y-140101493D01*
X179085676Y-140318263D01*
X179097871Y-140329111D01*
X179101674Y-140328182D01*
X179105177Y-140325610D01*
X180419139Y-139011648D01*
X180427582Y-138997682D01*
X180423578Y-138988785D01*
X179112039Y-137677246D01*
X179098073Y-137668803D01*
X179093714Y-137670765D01*
X179091810Y-137672749D01*
X178960218Y-137855879D01*
X178954519Y-137865070D01*
X178822152Y-138115066D01*
X178817768Y-138124913D01*
X178720554Y-138390564D01*
X178717541Y-138400935D01*
X178657282Y-138677306D01*
X178655703Y-138687997D01*
X178633509Y-138969996D01*
X178633397Y-138980791D01*
X130956118Y-138980791D01*
X130929600Y-138863597D01*
X130929598Y-138863592D01*
X130928296Y-138857836D01*
X130833457Y-138613960D01*
X130809766Y-138572508D01*
X130706545Y-138391908D01*
X130706544Y-138391907D01*
X130703614Y-138386780D01*
X130541617Y-138181288D01*
X130351026Y-138001998D01*
X130136027Y-137852848D01*
X129951867Y-137762030D01*
X129906631Y-137739722D01*
X129906628Y-137739721D01*
X129901344Y-137737115D01*
X129895732Y-137735318D01*
X129895728Y-137735317D01*
X129657747Y-137659139D01*
X129657746Y-137659139D01*
X129652133Y-137657342D01*
X129599628Y-137648791D01*
X129399697Y-137616230D01*
X129399693Y-137616230D01*
X129393868Y-137615281D01*
X129263046Y-137613569D01*
X129138129Y-137611933D01*
X129138125Y-137611933D01*
X129132223Y-137611856D01*
X129034756Y-137625121D01*
X128878785Y-137646347D01*
X128878782Y-137646348D01*
X128872945Y-137647142D01*
X128867292Y-137648790D01*
X128867286Y-137648791D01*
X128765058Y-137678588D01*
X128621731Y-137720364D01*
X128616383Y-137722830D01*
X128616379Y-137722831D01*
X128389458Y-137827443D01*
X128389453Y-137827446D01*
X128384099Y-137829914D01*
X128379166Y-137833148D01*
X128379161Y-137833151D01*
X128246892Y-137919871D01*
X128165270Y-137973385D01*
X128160867Y-137977314D01*
X128160868Y-137977314D01*
X127983382Y-138135726D01*
X127970051Y-138147624D01*
X127802730Y-138348806D01*
X127799670Y-138353848D01*
X127799669Y-138353850D01*
X127776575Y-138391908D01*
X127666984Y-138572508D01*
X127565794Y-138813819D01*
X127501384Y-139067435D01*
X127500793Y-139073309D01*
X127480594Y-139273905D01*
X127475168Y-139327786D01*
X105925162Y-139327786D01*
X105950281Y-139046322D01*
X105950592Y-139040081D01*
X105951000Y-139001116D01*
X105950821Y-138994891D01*
X105931425Y-138710380D01*
X105929959Y-138699681D01*
X105872600Y-138422703D01*
X105869690Y-138412278D01*
X105775272Y-138145650D01*
X105770977Y-138135726D01*
X105641244Y-137884373D01*
X105635648Y-137875131D01*
X105497515Y-137678588D01*
X105485208Y-137667870D01*
X105480994Y-137668946D01*
X105478148Y-137671059D01*
X104164861Y-138984346D01*
X104156418Y-138998312D01*
X103427201Y-138998312D01*
X103427582Y-138997682D01*
X103423578Y-138988785D01*
X102112039Y-137677246D01*
X102098073Y-137668803D01*
X102093714Y-137670765D01*
X102091810Y-137672749D01*
X101962621Y-137852535D01*
X101904713Y-137901913D01*
X101830490Y-137918724D01*
X101756957Y-137899116D01*
X101700959Y-137847581D01*
X101675325Y-137775926D01*
X101674500Y-137759752D01*
X101674500Y-137306719D01*
X102464191Y-137306719D01*
X102466228Y-137313015D01*
X103778349Y-138625136D01*
X103792315Y-138633579D01*
X103801212Y-138629575D01*
X105111517Y-137319270D01*
X105119105Y-137306719D01*
X179464191Y-137306719D01*
X179466228Y-137313015D01*
X180778349Y-138625136D01*
X180792315Y-138633579D01*
X180801212Y-138629575D01*
X182111517Y-137319270D01*
X182119960Y-137305304D01*
X182117147Y-137299054D01*
X182046872Y-137241534D01*
X182038073Y-137235281D01*
X181796888Y-137087483D01*
X181787312Y-137082477D01*
X181528312Y-136968784D01*
X181518131Y-136965118D01*
X181246090Y-136887626D01*
X181235534Y-136885382D01*
X180955480Y-136845524D01*
X180944714Y-136844734D01*
X180661839Y-136843252D01*
X180651074Y-136843930D01*
X180370610Y-136880853D01*
X180360038Y-136882985D01*
X180087189Y-136957628D01*
X180076980Y-136961184D01*
X179816801Y-137072160D01*
X179807174Y-137077066D01*
X179564464Y-137222324D01*
X179555581Y-137228498D01*
X179474114Y-137293765D01*
X179464191Y-137306719D01*
X105119105Y-137306719D01*
X105119960Y-137305304D01*
X105117147Y-137299054D01*
X105046872Y-137241534D01*
X105038073Y-137235281D01*
X104796888Y-137087483D01*
X104787312Y-137082477D01*
X104528312Y-136968784D01*
X104518131Y-136965118D01*
X104246090Y-136887626D01*
X104235534Y-136885382D01*
X103955480Y-136845524D01*
X103944714Y-136844734D01*
X103661839Y-136843252D01*
X103651074Y-136843930D01*
X103370610Y-136880853D01*
X103360038Y-136882985D01*
X103087189Y-136957628D01*
X103076980Y-136961184D01*
X102816801Y-137072160D01*
X102807174Y-137077066D01*
X102564464Y-137222324D01*
X102555581Y-137228498D01*
X102474114Y-137293765D01*
X102464191Y-137306719D01*
X101674500Y-137306719D01*
X101674500Y-130327786D01*
X127475168Y-130327786D01*
X127487722Y-130589153D01*
X127538771Y-130845793D01*
X127627193Y-131092068D01*
X127751046Y-131322569D01*
X127907608Y-131532231D01*
X127911794Y-131536380D01*
X127911796Y-131536383D01*
X128089256Y-131712302D01*
X128089261Y-131712306D01*
X128093440Y-131716449D01*
X128205281Y-131798454D01*
X128299702Y-131867686D01*
X128299706Y-131867688D01*
X128304461Y-131871175D01*
X128309677Y-131873919D01*
X128309683Y-131873923D01*
X128530814Y-131990266D01*
X128530818Y-131990268D01*
X128536034Y-131993012D01*
X128783071Y-132079281D01*
X129040147Y-132128089D01*
X129046049Y-132128321D01*
X129046050Y-132128321D01*
X129088600Y-132129993D01*
X129301613Y-132138362D01*
X129561725Y-132109875D01*
X129567425Y-132108374D01*
X129567432Y-132108373D01*
X129809066Y-132044755D01*
X129809069Y-132044754D01*
X129814770Y-132043253D01*
X130055188Y-131939962D01*
X130060203Y-131936858D01*
X130060208Y-131936856D01*
X130185981Y-131859025D01*
X130277698Y-131802269D01*
X130282201Y-131798457D01*
X130282205Y-131798454D01*
X130472912Y-131637008D01*
X130472914Y-131637006D01*
X130477411Y-131633199D01*
X130649941Y-131436467D01*
X130791496Y-131216394D01*
X130898968Y-130977815D01*
X130969995Y-130725972D01*
X131003018Y-130466396D01*
X131005437Y-130374000D01*
X130986045Y-130113052D01*
X130975723Y-130067435D01*
X130929600Y-129863597D01*
X130929598Y-129863592D01*
X130928296Y-129857836D01*
X130833457Y-129613960D01*
X130809766Y-129572508D01*
X130706545Y-129391908D01*
X130706544Y-129391907D01*
X130703614Y-129386780D01*
X130541617Y-129181288D01*
X130351026Y-129001998D01*
X130136027Y-128852848D01*
X130028174Y-128799661D01*
X129906631Y-128739722D01*
X129906628Y-128739721D01*
X129901344Y-128737115D01*
X129895732Y-128735318D01*
X129895728Y-128735317D01*
X129657747Y-128659139D01*
X129657746Y-128659139D01*
X129652133Y-128657342D01*
X129599628Y-128648791D01*
X129399697Y-128616230D01*
X129399693Y-128616230D01*
X129393868Y-128615281D01*
X129263046Y-128613569D01*
X129138129Y-128611933D01*
X129138125Y-128611933D01*
X129132223Y-128611856D01*
X129034756Y-128625121D01*
X128878785Y-128646347D01*
X128878782Y-128646348D01*
X128872945Y-128647142D01*
X128867292Y-128648790D01*
X128867286Y-128648791D01*
X128747338Y-128683753D01*
X128621731Y-128720364D01*
X128616383Y-128722830D01*
X128616379Y-128722831D01*
X128389458Y-128827443D01*
X128389453Y-128827446D01*
X128384099Y-128829914D01*
X128379166Y-128833148D01*
X128379161Y-128833151D01*
X128170204Y-128970150D01*
X128165270Y-128973385D01*
X127970051Y-129147624D01*
X127802730Y-129348806D01*
X127666984Y-129572508D01*
X127565794Y-129813819D01*
X127501384Y-130067435D01*
X127475168Y-130327786D01*
X101674500Y-130327786D01*
X101674500Y-118046033D01*
X119165685Y-118046033D01*
X119166736Y-118055553D01*
X119166736Y-118055556D01*
X119168561Y-118072083D01*
X119183228Y-118204933D01*
X119238168Y-118355063D01*
X119243511Y-118363015D01*
X119243512Y-118363016D01*
X119250581Y-118373535D01*
X119327333Y-118487754D01*
X119445575Y-118595346D01*
X119453991Y-118599915D01*
X119453993Y-118599917D01*
X119577645Y-118667055D01*
X119577647Y-118667056D01*
X119586068Y-118671628D01*
X119740702Y-118712195D01*
X119750281Y-118712345D01*
X119750285Y-118712346D01*
X119824405Y-118713510D01*
X119900548Y-118714706D01*
X119910853Y-118712346D01*
X119935828Y-118706626D01*
X120056380Y-118679016D01*
X120199200Y-118607185D01*
X120320763Y-118503360D01*
X120414052Y-118373535D01*
X120473680Y-118225206D01*
X120496205Y-118066934D01*
X120496351Y-118053000D01*
X120477145Y-117894292D01*
X120420636Y-117744746D01*
X120330087Y-117612995D01*
X120317175Y-117601491D01*
X120217880Y-117513022D01*
X120217876Y-117513019D01*
X120210725Y-117506648D01*
X120069440Y-117431841D01*
X119914391Y-117392895D01*
X119834458Y-117392476D01*
X119764107Y-117392108D01*
X119764106Y-117392108D01*
X119754526Y-117392058D01*
X119706131Y-117403677D01*
X119608397Y-117427140D01*
X119608393Y-117427141D01*
X119599077Y-117429378D01*
X119590562Y-117433773D01*
X119590559Y-117433774D01*
X119465530Y-117498307D01*
X119457017Y-117502701D01*
X119336548Y-117607793D01*
X119244624Y-117738588D01*
X119186552Y-117887534D01*
X119165685Y-118046033D01*
X101674500Y-118046033D01*
X101674500Y-110400650D01*
X123898392Y-110400650D01*
X123900350Y-110413013D01*
X123900350Y-110413014D01*
X123901222Y-110418522D01*
X123903180Y-110443322D01*
X123907481Y-119857430D01*
X123905524Y-119882370D01*
X123902732Y-119900000D01*
X123903976Y-119907852D01*
X123919601Y-120146243D01*
X123967743Y-120388272D01*
X124047065Y-120621947D01*
X124156209Y-120843270D01*
X124293308Y-121048452D01*
X124456015Y-121233985D01*
X124459925Y-121237414D01*
X124637634Y-121393260D01*
X124637638Y-121393263D01*
X124641548Y-121396692D01*
X124846731Y-121533791D01*
X125068053Y-121642935D01*
X125072975Y-121644606D01*
X125072978Y-121644607D01*
X125296805Y-121720586D01*
X125301728Y-121722257D01*
X125476696Y-121757060D01*
X125545612Y-121789337D01*
X125591636Y-121849945D01*
X125604222Y-121924999D01*
X125580487Y-121997306D01*
X125527192Y-122049016D01*
X125527357Y-122049285D01*
X125524327Y-122051142D01*
X125323249Y-122174362D01*
X125323245Y-122174365D01*
X125317925Y-122177625D01*
X125131148Y-122337148D01*
X124971625Y-122523925D01*
X124843285Y-122733357D01*
X124749287Y-122960288D01*
X124691947Y-123199129D01*
X124672675Y-123444000D01*
X124691947Y-123688871D01*
X124749287Y-123927712D01*
X124843285Y-124154643D01*
X124971625Y-124364075D01*
X125131148Y-124550852D01*
X125317925Y-124710375D01*
X125323245Y-124713635D01*
X125323249Y-124713638D01*
X125497395Y-124820354D01*
X125527357Y-124838715D01*
X125754288Y-124932713D01*
X125760364Y-124934172D01*
X125760368Y-124934173D01*
X125987059Y-124988596D01*
X125987062Y-124988597D01*
X125993129Y-124990053D01*
X125999349Y-124990543D01*
X125999352Y-124990543D01*
X126231774Y-125008835D01*
X126238000Y-125009325D01*
X126244226Y-125008835D01*
X126476648Y-124990543D01*
X126476651Y-124990543D01*
X126482871Y-124990053D01*
X126488938Y-124988597D01*
X126488941Y-124988596D01*
X126715632Y-124934173D01*
X126715636Y-124934172D01*
X126721712Y-124932713D01*
X126948643Y-124838715D01*
X126978605Y-124820354D01*
X127152751Y-124713638D01*
X127152755Y-124713635D01*
X127158075Y-124710375D01*
X127344852Y-124550852D01*
X127504375Y-124364075D01*
X127632715Y-124154643D01*
X127726713Y-123927712D01*
X127784053Y-123688871D01*
X127803325Y-123444000D01*
X127784053Y-123199129D01*
X127726713Y-122960288D01*
X127632715Y-122733357D01*
X127504375Y-122523925D01*
X127344852Y-122337148D01*
X127158075Y-122177625D01*
X127152755Y-122174365D01*
X127152751Y-122174362D01*
X126993984Y-122077070D01*
X126940497Y-122022933D01*
X126918296Y-121950141D01*
X126932466Y-121875370D01*
X126979761Y-121815748D01*
X127049346Y-121784934D01*
X127077061Y-121782500D01*
X133018939Y-121782500D01*
X133092830Y-121800712D01*
X133149793Y-121851178D01*
X133176780Y-121922335D01*
X133167607Y-121997882D01*
X133124376Y-122060513D01*
X133102016Y-122077070D01*
X132943249Y-122174362D01*
X132943245Y-122174365D01*
X132937925Y-122177625D01*
X132751148Y-122337148D01*
X132591625Y-122523925D01*
X132463285Y-122733357D01*
X132369287Y-122960288D01*
X132311947Y-123199129D01*
X132292675Y-123444000D01*
X132311947Y-123688871D01*
X132369287Y-123927712D01*
X132463285Y-124154643D01*
X132591625Y-124364075D01*
X132751148Y-124550852D01*
X132937925Y-124710375D01*
X132943245Y-124713635D01*
X132943249Y-124713638D01*
X133117395Y-124820354D01*
X133147357Y-124838715D01*
X133374288Y-124932713D01*
X133380364Y-124934172D01*
X133380368Y-124934173D01*
X133607059Y-124988596D01*
X133607062Y-124988597D01*
X133613129Y-124990053D01*
X133619349Y-124990543D01*
X133619352Y-124990543D01*
X133851774Y-125008835D01*
X133858000Y-125009325D01*
X133864226Y-125008835D01*
X134096648Y-124990543D01*
X134096651Y-124990543D01*
X134102871Y-124990053D01*
X134108938Y-124988597D01*
X134108941Y-124988596D01*
X134335632Y-124934173D01*
X134335636Y-124934172D01*
X134341712Y-124932713D01*
X134568643Y-124838715D01*
X134598605Y-124820354D01*
X134772751Y-124713638D01*
X134772755Y-124713635D01*
X134778075Y-124710375D01*
X134964852Y-124550852D01*
X135124375Y-124364075D01*
X135252715Y-124154643D01*
X135346713Y-123927712D01*
X135404053Y-123688871D01*
X135423325Y-123444000D01*
X135404053Y-123199129D01*
X135346713Y-122960288D01*
X135252715Y-122733357D01*
X135124375Y-122523925D01*
X134964852Y-122337148D01*
X134778075Y-122177625D01*
X134772755Y-122174365D01*
X134772751Y-122174362D01*
X134613984Y-122077070D01*
X134560497Y-122022933D01*
X134538296Y-121950141D01*
X134552466Y-121875370D01*
X134599761Y-121815748D01*
X134669346Y-121784934D01*
X134697061Y-121782500D01*
X158757385Y-121782500D01*
X158782246Y-121784456D01*
X158800000Y-121787268D01*
X158807852Y-121786024D01*
X158818336Y-121785337D01*
X158818337Y-121785337D01*
X159041060Y-121770739D01*
X159041064Y-121770738D01*
X159046243Y-121770399D01*
X159288272Y-121722257D01*
X159293195Y-121720586D01*
X159517022Y-121644607D01*
X159517025Y-121644606D01*
X159521947Y-121642935D01*
X159743270Y-121533791D01*
X159948452Y-121396692D01*
X159952366Y-121393260D01*
X160130075Y-121237414D01*
X160133985Y-121233985D01*
X160296692Y-121048452D01*
X160433791Y-120843270D01*
X160542935Y-120621947D01*
X160622257Y-120388272D01*
X160670399Y-120146243D01*
X160686024Y-119907852D01*
X160687268Y-119900000D01*
X160684456Y-119882246D01*
X160682500Y-119857385D01*
X160682501Y-110442615D01*
X160684457Y-110417754D01*
X160687269Y-110400000D01*
X160686024Y-110392137D01*
X160670399Y-110153757D01*
X160622257Y-109911728D01*
X160542935Y-109678053D01*
X160433791Y-109456731D01*
X160329162Y-109300142D01*
X160299584Y-109255876D01*
X160299583Y-109255875D01*
X160296692Y-109251548D01*
X160138010Y-109070605D01*
X160137416Y-109069928D01*
X160137414Y-109069926D01*
X160133985Y-109066016D01*
X159948453Y-108903308D01*
X159743270Y-108766210D01*
X159738609Y-108763911D01*
X159738603Y-108763908D01*
X159526612Y-108659366D01*
X159521948Y-108657066D01*
X159517026Y-108655395D01*
X159517023Y-108655394D01*
X159293199Y-108579416D01*
X159293197Y-108579415D01*
X159288273Y-108577744D01*
X159283177Y-108576730D01*
X159283172Y-108576729D01*
X159120930Y-108544457D01*
X159046244Y-108529601D01*
X159041057Y-108529261D01*
X159041049Y-108529260D01*
X158818762Y-108514691D01*
X158807853Y-108513976D01*
X158800001Y-108512732D01*
X158782245Y-108515544D01*
X158757381Y-108517501D01*
X142294801Y-108517830D01*
X125828269Y-108518160D01*
X125803404Y-108516204D01*
X125785650Y-108513392D01*
X125777798Y-108514636D01*
X125767316Y-108515323D01*
X125767315Y-108515323D01*
X125660600Y-108522320D01*
X125539410Y-108530266D01*
X125534307Y-108531281D01*
X125534308Y-108531281D01*
X125302485Y-108577398D01*
X125302479Y-108577400D01*
X125297385Y-108578413D01*
X125172962Y-108620651D01*
X125068647Y-108656063D01*
X125068642Y-108656065D01*
X125063714Y-108657738D01*
X125059043Y-108660042D01*
X125059042Y-108660042D01*
X124847069Y-108764578D01*
X124847063Y-108764581D01*
X124842396Y-108766883D01*
X124838066Y-108769776D01*
X124838063Y-108769778D01*
X124641555Y-108901082D01*
X124641551Y-108901085D01*
X124637217Y-108903981D01*
X124451687Y-109066687D01*
X124288981Y-109252217D01*
X124286085Y-109256551D01*
X124286082Y-109256555D01*
X124154778Y-109453063D01*
X124151883Y-109457396D01*
X124042738Y-109678714D01*
X123963413Y-109912385D01*
X123915266Y-110154410D01*
X123899636Y-110392798D01*
X123898392Y-110400650D01*
X101674500Y-110400650D01*
X101674500Y-105011786D01*
X106257168Y-105011786D01*
X106269722Y-105273153D01*
X106270873Y-105278939D01*
X106270873Y-105278940D01*
X106276774Y-105308606D01*
X106320771Y-105529793D01*
X106322762Y-105535338D01*
X106322763Y-105535342D01*
X106357712Y-105632682D01*
X106409193Y-105776068D01*
X106429840Y-105814494D01*
X106482959Y-105913352D01*
X106533046Y-106006569D01*
X106689608Y-106216231D01*
X106693794Y-106220380D01*
X106693796Y-106220383D01*
X106871256Y-106396302D01*
X106871261Y-106396306D01*
X106875440Y-106400449D01*
X106987281Y-106482454D01*
X107081702Y-106551686D01*
X107081706Y-106551688D01*
X107086461Y-106555175D01*
X107091677Y-106557919D01*
X107091683Y-106557923D01*
X107312814Y-106674266D01*
X107312818Y-106674268D01*
X107318034Y-106677012D01*
X107565071Y-106763281D01*
X107822147Y-106812089D01*
X107828049Y-106812321D01*
X107828050Y-106812321D01*
X107866789Y-106813843D01*
X108083613Y-106822362D01*
X108343725Y-106793875D01*
X108349425Y-106792374D01*
X108349432Y-106792373D01*
X108591066Y-106728755D01*
X108591069Y-106728754D01*
X108596770Y-106727253D01*
X108813144Y-106634292D01*
X108831765Y-106626292D01*
X108831766Y-106626291D01*
X108837188Y-106623962D01*
X108842203Y-106620858D01*
X108842208Y-106620856D01*
X108967981Y-106543025D01*
X109059698Y-106486269D01*
X109064201Y-106482457D01*
X109064205Y-106482454D01*
X109254912Y-106321008D01*
X109254914Y-106321006D01*
X109259411Y-106317199D01*
X109431941Y-106120467D01*
X109573496Y-105900394D01*
X109680968Y-105661815D01*
X109689185Y-105632682D01*
X109734602Y-105471642D01*
X109751995Y-105409972D01*
X109785018Y-105150396D01*
X109787236Y-105065685D01*
X109787333Y-105061977D01*
X109787333Y-105061975D01*
X109787437Y-105058000D01*
X109784003Y-105011786D01*
X115257168Y-105011786D01*
X115269722Y-105273153D01*
X115270873Y-105278939D01*
X115270873Y-105278940D01*
X115276774Y-105308606D01*
X115320771Y-105529793D01*
X115322762Y-105535338D01*
X115322763Y-105535342D01*
X115357712Y-105632682D01*
X115409193Y-105776068D01*
X115429840Y-105814494D01*
X115482959Y-105913352D01*
X115533046Y-106006569D01*
X115689608Y-106216231D01*
X115693794Y-106220380D01*
X115693796Y-106220383D01*
X115871256Y-106396302D01*
X115871261Y-106396306D01*
X115875440Y-106400449D01*
X115987281Y-106482454D01*
X116081702Y-106551686D01*
X116081706Y-106551688D01*
X116086461Y-106555175D01*
X116091677Y-106557919D01*
X116091683Y-106557923D01*
X116312814Y-106674266D01*
X116312818Y-106674268D01*
X116318034Y-106677012D01*
X116565071Y-106763281D01*
X116822147Y-106812089D01*
X116828049Y-106812321D01*
X116828050Y-106812321D01*
X116866789Y-106813843D01*
X117083613Y-106822362D01*
X117343725Y-106793875D01*
X117349425Y-106792374D01*
X117349432Y-106792373D01*
X117591066Y-106728755D01*
X117591069Y-106728754D01*
X117596770Y-106727253D01*
X117813144Y-106634292D01*
X117831765Y-106626292D01*
X117831766Y-106626291D01*
X117837188Y-106623962D01*
X117842203Y-106620858D01*
X117842208Y-106620856D01*
X117967981Y-106543025D01*
X118059698Y-106486269D01*
X118064201Y-106482457D01*
X118064205Y-106482454D01*
X118254912Y-106321008D01*
X118254914Y-106321006D01*
X118259411Y-106317199D01*
X118431941Y-106120467D01*
X118573496Y-105900394D01*
X118680968Y-105661815D01*
X118689185Y-105632682D01*
X118734602Y-105471642D01*
X118751995Y-105409972D01*
X118785018Y-105150396D01*
X118787236Y-105065685D01*
X118787333Y-105061977D01*
X118787333Y-105061975D01*
X118787437Y-105058000D01*
X118768045Y-104797052D01*
X118762634Y-104773140D01*
X118711600Y-104547597D01*
X118711598Y-104547592D01*
X118710296Y-104541836D01*
X118694980Y-104502450D01*
X118617597Y-104303463D01*
X118615457Y-104297960D01*
X118591766Y-104256508D01*
X118488545Y-104075908D01*
X118488544Y-104075907D01*
X118485614Y-104070780D01*
X118365992Y-103919040D01*
X118327272Y-103869924D01*
X118327270Y-103869922D01*
X118323617Y-103865288D01*
X118133026Y-103685998D01*
X117918027Y-103536848D01*
X117740394Y-103449249D01*
X117688631Y-103423722D01*
X117688628Y-103423721D01*
X117683344Y-103421115D01*
X117677732Y-103419318D01*
X117677728Y-103419317D01*
X117439747Y-103343139D01*
X117439746Y-103343139D01*
X117434133Y-103341342D01*
X117377569Y-103332130D01*
X117181697Y-103300230D01*
X117181693Y-103300230D01*
X117175868Y-103299281D01*
X117045045Y-103297568D01*
X116920129Y-103295933D01*
X116920125Y-103295933D01*
X116914223Y-103295856D01*
X116855440Y-103303856D01*
X116660785Y-103330347D01*
X116660782Y-103330348D01*
X116654945Y-103331142D01*
X116649292Y-103332790D01*
X116649286Y-103332791D01*
X116564583Y-103357480D01*
X116403731Y-103404364D01*
X116398383Y-103406830D01*
X116398379Y-103406831D01*
X116171458Y-103511443D01*
X116171453Y-103511446D01*
X116166099Y-103513914D01*
X116161166Y-103517148D01*
X116161161Y-103517151D01*
X115952204Y-103654150D01*
X115947270Y-103657385D01*
X115919717Y-103681977D01*
X115762107Y-103822649D01*
X115752051Y-103831624D01*
X115748281Y-103836157D01*
X115748278Y-103836160D01*
X115664178Y-103937280D01*
X115584730Y-104032806D01*
X115581670Y-104037848D01*
X115581669Y-104037850D01*
X115580319Y-104040075D01*
X115448984Y-104256508D01*
X115347794Y-104497819D01*
X115346343Y-104503531D01*
X115346343Y-104503532D01*
X115338013Y-104536333D01*
X115283384Y-104751435D01*
X115269913Y-104885218D01*
X115261012Y-104973616D01*
X115257168Y-105011786D01*
X109784003Y-105011786D01*
X109768045Y-104797052D01*
X109762634Y-104773140D01*
X109711600Y-104547597D01*
X109711598Y-104547592D01*
X109710296Y-104541836D01*
X109694980Y-104502450D01*
X109617597Y-104303463D01*
X109615457Y-104297960D01*
X109591766Y-104256508D01*
X109488545Y-104075908D01*
X109488544Y-104075907D01*
X109485614Y-104070780D01*
X109365992Y-103919040D01*
X109327272Y-103869924D01*
X109327270Y-103869922D01*
X109323617Y-103865288D01*
X109133026Y-103685998D01*
X108918027Y-103536848D01*
X108740394Y-103449249D01*
X108688631Y-103423722D01*
X108688628Y-103423721D01*
X108683344Y-103421115D01*
X108677732Y-103419318D01*
X108677728Y-103419317D01*
X108439747Y-103343139D01*
X108439746Y-103343139D01*
X108434133Y-103341342D01*
X108377569Y-103332130D01*
X108181697Y-103300230D01*
X108181693Y-103300230D01*
X108175868Y-103299281D01*
X108045045Y-103297568D01*
X107920129Y-103295933D01*
X107920125Y-103295933D01*
X107914223Y-103295856D01*
X107855440Y-103303856D01*
X107660785Y-103330347D01*
X107660782Y-103330348D01*
X107654945Y-103331142D01*
X107649292Y-103332790D01*
X107649286Y-103332791D01*
X107564583Y-103357480D01*
X107403731Y-103404364D01*
X107398383Y-103406830D01*
X107398379Y-103406831D01*
X107171458Y-103511443D01*
X107171453Y-103511446D01*
X107166099Y-103513914D01*
X107161166Y-103517148D01*
X107161161Y-103517151D01*
X106952204Y-103654150D01*
X106947270Y-103657385D01*
X106919717Y-103681977D01*
X106762107Y-103822649D01*
X106752051Y-103831624D01*
X106748281Y-103836157D01*
X106748278Y-103836160D01*
X106664178Y-103937280D01*
X106584730Y-104032806D01*
X106581670Y-104037848D01*
X106581669Y-104037850D01*
X106580319Y-104040075D01*
X106448984Y-104256508D01*
X106347794Y-104497819D01*
X106346343Y-104503531D01*
X106346343Y-104503532D01*
X106338013Y-104536333D01*
X106283384Y-104751435D01*
X106269913Y-104885218D01*
X106261012Y-104973616D01*
X106257168Y-105011786D01*
X101674500Y-105011786D01*
X101674500Y-95705786D01*
X106257168Y-95705786D01*
X106269722Y-95967153D01*
X106270873Y-95972939D01*
X106270873Y-95972940D01*
X106283443Y-96036132D01*
X106320771Y-96223793D01*
X106322762Y-96229338D01*
X106322763Y-96229342D01*
X106366134Y-96350139D01*
X106409193Y-96470068D01*
X106533046Y-96700569D01*
X106689608Y-96910231D01*
X106693794Y-96914380D01*
X106693796Y-96914383D01*
X106871256Y-97090302D01*
X106871261Y-97090306D01*
X106875440Y-97094449D01*
X106987281Y-97176454D01*
X107081702Y-97245686D01*
X107081706Y-97245688D01*
X107086461Y-97249175D01*
X107091677Y-97251919D01*
X107091683Y-97251923D01*
X107312814Y-97368266D01*
X107312818Y-97368268D01*
X107318034Y-97371012D01*
X107565071Y-97457281D01*
X107822147Y-97506089D01*
X107828049Y-97506321D01*
X107828050Y-97506321D01*
X107870600Y-97507993D01*
X108083613Y-97516362D01*
X108343725Y-97487875D01*
X108349425Y-97486374D01*
X108349432Y-97486373D01*
X108591066Y-97422755D01*
X108591069Y-97422754D01*
X108596770Y-97421253D01*
X108837188Y-97317962D01*
X108842203Y-97314858D01*
X108842208Y-97314856D01*
X108967981Y-97237025D01*
X109059698Y-97180269D01*
X109064201Y-97176457D01*
X109064205Y-97176454D01*
X109254912Y-97015008D01*
X109254914Y-97015006D01*
X109259411Y-97011199D01*
X109431941Y-96814467D01*
X109573496Y-96594394D01*
X109680968Y-96355815D01*
X109751995Y-96103972D01*
X109785018Y-95844396D01*
X109787437Y-95752000D01*
X109784003Y-95705786D01*
X115257168Y-95705786D01*
X115269722Y-95967153D01*
X115270873Y-95972939D01*
X115270873Y-95972940D01*
X115283443Y-96036132D01*
X115320771Y-96223793D01*
X115322762Y-96229338D01*
X115322763Y-96229342D01*
X115366134Y-96350139D01*
X115409193Y-96470068D01*
X115533046Y-96700569D01*
X115689608Y-96910231D01*
X115693794Y-96914380D01*
X115693796Y-96914383D01*
X115871256Y-97090302D01*
X115871261Y-97090306D01*
X115875440Y-97094449D01*
X115987281Y-97176454D01*
X116081702Y-97245686D01*
X116081706Y-97245688D01*
X116086461Y-97249175D01*
X116091677Y-97251919D01*
X116091683Y-97251923D01*
X116312814Y-97368266D01*
X116312818Y-97368268D01*
X116318034Y-97371012D01*
X116565071Y-97457281D01*
X116822147Y-97506089D01*
X116828049Y-97506321D01*
X116828050Y-97506321D01*
X116870600Y-97507993D01*
X117083613Y-97516362D01*
X117343725Y-97487875D01*
X117349425Y-97486374D01*
X117349432Y-97486373D01*
X117591066Y-97422755D01*
X117591069Y-97422754D01*
X117596770Y-97421253D01*
X117837188Y-97317962D01*
X117842203Y-97314858D01*
X117842208Y-97314856D01*
X117967981Y-97237025D01*
X118059698Y-97180269D01*
X118064201Y-97176457D01*
X118064205Y-97176454D01*
X118254912Y-97015008D01*
X118254914Y-97015006D01*
X118259411Y-97011199D01*
X118431941Y-96814467D01*
X118573496Y-96594394D01*
X118680968Y-96355815D01*
X118751995Y-96103972D01*
X118785018Y-95844396D01*
X118787437Y-95752000D01*
X118768045Y-95491052D01*
X118766742Y-95485293D01*
X118711600Y-95241597D01*
X118711598Y-95241592D01*
X118710296Y-95235836D01*
X118615457Y-94991960D01*
X118591766Y-94950508D01*
X118488545Y-94769908D01*
X118488544Y-94769907D01*
X118485614Y-94764780D01*
X118323617Y-94559288D01*
X118133026Y-94379998D01*
X117918027Y-94230848D01*
X117810174Y-94177661D01*
X117688631Y-94117722D01*
X117688628Y-94117721D01*
X117683344Y-94115115D01*
X117677732Y-94113318D01*
X117677728Y-94113317D01*
X117439747Y-94037139D01*
X117439746Y-94037139D01*
X117434133Y-94035342D01*
X117408344Y-94031142D01*
X117181697Y-93994230D01*
X117181693Y-93994230D01*
X117175868Y-93993281D01*
X117045045Y-93991568D01*
X116920129Y-93989933D01*
X116920125Y-93989933D01*
X116914223Y-93989856D01*
X116870136Y-93995856D01*
X116660785Y-94024347D01*
X116660782Y-94024348D01*
X116654945Y-94025142D01*
X116649292Y-94026790D01*
X116649286Y-94026791D01*
X116529338Y-94061753D01*
X116403731Y-94098364D01*
X116398383Y-94100830D01*
X116398379Y-94100831D01*
X116171458Y-94205443D01*
X116171453Y-94205446D01*
X116166099Y-94207914D01*
X116161166Y-94211148D01*
X116161161Y-94211151D01*
X116125948Y-94234238D01*
X115947270Y-94351385D01*
X115752051Y-94525624D01*
X115748281Y-94530157D01*
X115748278Y-94530160D01*
X115743288Y-94536160D01*
X115584730Y-94726806D01*
X115448984Y-94950508D01*
X115347794Y-95191819D01*
X115283384Y-95445435D01*
X115277594Y-95502937D01*
X115261225Y-95665500D01*
X115257168Y-95705786D01*
X109784003Y-95705786D01*
X109768045Y-95491052D01*
X109766742Y-95485293D01*
X109711600Y-95241597D01*
X109711598Y-95241592D01*
X109710296Y-95235836D01*
X109615457Y-94991960D01*
X109591766Y-94950508D01*
X109488545Y-94769908D01*
X109488544Y-94769907D01*
X109485614Y-94764780D01*
X109323617Y-94559288D01*
X109133026Y-94379998D01*
X108918027Y-94230848D01*
X108810174Y-94177661D01*
X108688631Y-94117722D01*
X108688628Y-94117721D01*
X108683344Y-94115115D01*
X108677732Y-94113318D01*
X108677728Y-94113317D01*
X108439747Y-94037139D01*
X108439746Y-94037139D01*
X108434133Y-94035342D01*
X108408344Y-94031142D01*
X108181697Y-93994230D01*
X108181693Y-93994230D01*
X108175868Y-93993281D01*
X108045045Y-93991568D01*
X107920129Y-93989933D01*
X107920125Y-93989933D01*
X107914223Y-93989856D01*
X107870136Y-93995856D01*
X107660785Y-94024347D01*
X107660782Y-94024348D01*
X107654945Y-94025142D01*
X107649292Y-94026790D01*
X107649286Y-94026791D01*
X107529338Y-94061753D01*
X107403731Y-94098364D01*
X107398383Y-94100830D01*
X107398379Y-94100831D01*
X107171458Y-94205443D01*
X107171453Y-94205446D01*
X107166099Y-94207914D01*
X107161166Y-94211148D01*
X107161161Y-94211151D01*
X107125948Y-94234238D01*
X106947270Y-94351385D01*
X106752051Y-94525624D01*
X106748281Y-94530157D01*
X106748278Y-94530160D01*
X106743288Y-94536160D01*
X106584730Y-94726806D01*
X106448984Y-94950508D01*
X106347794Y-95191819D01*
X106283384Y-95445435D01*
X106277594Y-95502937D01*
X106261225Y-95665500D01*
X106257168Y-95705786D01*
X101674500Y-95705786D01*
X101674500Y-81778268D01*
X131403394Y-81778268D01*
X131406558Y-81791027D01*
X131407015Y-81796859D01*
X131407500Y-81809274D01*
X131407500Y-102206285D01*
X131406907Y-102220004D01*
X131403406Y-102260426D01*
X131413631Y-102301588D01*
X131416159Y-102313798D01*
X131423119Y-102355612D01*
X131429308Y-102367083D01*
X131429960Y-102369295D01*
X131430963Y-102371364D01*
X131434105Y-102384010D01*
X131441232Y-102395047D01*
X131441232Y-102395048D01*
X131457106Y-102419632D01*
X131463457Y-102430371D01*
X131483587Y-102467679D01*
X131493158Y-102476527D01*
X131494490Y-102478406D01*
X131496109Y-102480039D01*
X131503179Y-102490987D01*
X131536476Y-102517236D01*
X131545965Y-102525340D01*
X131563980Y-102541993D01*
X131577095Y-102554117D01*
X131589016Y-102559388D01*
X131590883Y-102560732D01*
X131592945Y-102561753D01*
X131603181Y-102569822D01*
X131615582Y-102574177D01*
X131643175Y-102583867D01*
X131654773Y-102588458D01*
X131693561Y-102605606D01*
X131706542Y-102606730D01*
X131710951Y-102608068D01*
X131713891Y-102608701D01*
X131723328Y-102612015D01*
X131728928Y-102612500D01*
X131766285Y-102612500D01*
X131780005Y-102613093D01*
X131807331Y-102615460D01*
X131807332Y-102615460D01*
X131820426Y-102616594D01*
X131833183Y-102613425D01*
X131838710Y-102612990D01*
X131851186Y-102612500D01*
X132392413Y-102612500D01*
X132397995Y-102612603D01*
X132401276Y-102612867D01*
X132460610Y-102612503D01*
X132461585Y-102612500D01*
X132491775Y-102612500D01*
X132492866Y-102612319D01*
X132493212Y-102612303D01*
X135696992Y-102592648D01*
X135711679Y-102593238D01*
X135726458Y-102594518D01*
X135737332Y-102595460D01*
X135737333Y-102595460D01*
X135750426Y-102596594D01*
X135793193Y-102585970D01*
X135804450Y-102583603D01*
X135834913Y-102578340D01*
X135834914Y-102578340D01*
X135847860Y-102576103D01*
X135858499Y-102570278D01*
X135859841Y-102569878D01*
X135860972Y-102569437D01*
X135862232Y-102568821D01*
X135874010Y-102565895D01*
X135911042Y-102541984D01*
X135920916Y-102536104D01*
X135925475Y-102533608D01*
X135959554Y-102514949D01*
X135967736Y-102505988D01*
X135968879Y-102505173D01*
X135969804Y-102504391D01*
X135970794Y-102503402D01*
X135980987Y-102496821D01*
X136008265Y-102462218D01*
X136015713Y-102453444D01*
X136028795Y-102439117D01*
X136045417Y-102420913D01*
X136050254Y-102409787D01*
X136051066Y-102408653D01*
X136051698Y-102407595D01*
X136052312Y-102406345D01*
X136059822Y-102396819D01*
X136064174Y-102384425D01*
X136064176Y-102384422D01*
X136074422Y-102355244D01*
X136078627Y-102344529D01*
X136090951Y-102316184D01*
X136090952Y-102316181D01*
X136096190Y-102304133D01*
X136097163Y-102292042D01*
X136098088Y-102288958D01*
X136098702Y-102286108D01*
X136102015Y-102276672D01*
X136102500Y-102271072D01*
X136102500Y-102232071D01*
X136103012Y-102219323D01*
X136105346Y-102190302D01*
X136106400Y-102177203D01*
X136103154Y-102164469D01*
X136103070Y-102163484D01*
X136102500Y-102150036D01*
X136102500Y-101253715D01*
X136103093Y-101239995D01*
X136105460Y-101212669D01*
X136105460Y-101212668D01*
X136106594Y-101199574D01*
X136096369Y-101158412D01*
X136093840Y-101146198D01*
X136089039Y-101117354D01*
X136086881Y-101104388D01*
X136080692Y-101092918D01*
X136076911Y-101080079D01*
X136076790Y-101079591D01*
X136076685Y-101003489D01*
X136111958Y-100936055D01*
X136174529Y-100892737D01*
X136250063Y-100883459D01*
X136287822Y-100893345D01*
X136298358Y-100900385D01*
X136313717Y-100903440D01*
X136328187Y-100909434D01*
X136327710Y-100910585D01*
X136380439Y-100935282D01*
X136426462Y-100995891D01*
X136439500Y-101058948D01*
X136439500Y-102682684D01*
X136421288Y-102756575D01*
X136392930Y-102795114D01*
X135825114Y-103362930D01*
X135759987Y-103402301D01*
X135712684Y-103409500D01*
X134804346Y-103409500D01*
X134728358Y-103424615D01*
X134642190Y-103482190D01*
X134633489Y-103495212D01*
X134622644Y-103511443D01*
X134584615Y-103568358D01*
X134569500Y-103644346D01*
X134569500Y-105395654D01*
X134584615Y-105471642D01*
X134593316Y-105484664D01*
X134627178Y-105535342D01*
X134642190Y-105557810D01*
X134728358Y-105615385D01*
X134804346Y-105630500D01*
X136555654Y-105630500D01*
X136631642Y-105615385D01*
X136717810Y-105557810D01*
X136732823Y-105535342D01*
X136766684Y-105484664D01*
X136775385Y-105471642D01*
X136790500Y-105395654D01*
X136790500Y-104547508D01*
X136802214Y-104499981D01*
X136801291Y-104497568D01*
X137097640Y-104497568D01*
X137103880Y-104509457D01*
X137108160Y-104537109D01*
X137118474Y-104694465D01*
X137120267Y-104701525D01*
X137166918Y-104885218D01*
X137166920Y-104885223D01*
X137168712Y-104892280D01*
X137171760Y-104898892D01*
X137171762Y-104898897D01*
X137221102Y-105005923D01*
X137254159Y-105077628D01*
X137258361Y-105083574D01*
X137258363Y-105083577D01*
X137305586Y-105150396D01*
X137371952Y-105244301D01*
X137518146Y-105386717D01*
X137687845Y-105500107D01*
X137694546Y-105502986D01*
X137694548Y-105502987D01*
X137842406Y-105566511D01*
X137875367Y-105580672D01*
X137882479Y-105582281D01*
X137882481Y-105582282D01*
X138067313Y-105624106D01*
X138067318Y-105624107D01*
X138074430Y-105625716D01*
X138189869Y-105630252D01*
X138271080Y-105633443D01*
X138271084Y-105633443D01*
X138278368Y-105633729D01*
X138383812Y-105618440D01*
X138473140Y-105605488D01*
X138473143Y-105605487D01*
X138480352Y-105604442D01*
X138673616Y-105538838D01*
X138851689Y-105439113D01*
X138857290Y-105434455D01*
X138857294Y-105434452D01*
X139003003Y-105313266D01*
X139008606Y-105308606D01*
X139013266Y-105303003D01*
X139134452Y-105157294D01*
X139134455Y-105157290D01*
X139139113Y-105151689D01*
X139238838Y-104973616D01*
X139304442Y-104780352D01*
X139308141Y-104754846D01*
X139333056Y-104583010D01*
X139333056Y-104583009D01*
X139333729Y-104578368D01*
X139333827Y-104574617D01*
X139350546Y-104525297D01*
X139348254Y-104519005D01*
X139630487Y-104519005D01*
X139649235Y-104563577D01*
X139650837Y-104577948D01*
X139658474Y-104694465D01*
X139660267Y-104701525D01*
X139706918Y-104885218D01*
X139706920Y-104885223D01*
X139708712Y-104892280D01*
X139711760Y-104898892D01*
X139711762Y-104898897D01*
X139761102Y-105005923D01*
X139794159Y-105077628D01*
X139798361Y-105083574D01*
X139798363Y-105083577D01*
X139845586Y-105150396D01*
X139911952Y-105244301D01*
X140058146Y-105386717D01*
X140227845Y-105500107D01*
X140234546Y-105502986D01*
X140234548Y-105502987D01*
X140382406Y-105566511D01*
X140415367Y-105580672D01*
X140422479Y-105582281D01*
X140422481Y-105582282D01*
X140607313Y-105624106D01*
X140607318Y-105624107D01*
X140614430Y-105625716D01*
X140729869Y-105630252D01*
X140811080Y-105633443D01*
X140811084Y-105633443D01*
X140818368Y-105633729D01*
X140923812Y-105618440D01*
X141013140Y-105605488D01*
X141013143Y-105605487D01*
X141020352Y-105604442D01*
X141213616Y-105538838D01*
X141391689Y-105439113D01*
X141397290Y-105434455D01*
X141397294Y-105434452D01*
X141543003Y-105313266D01*
X141548606Y-105308606D01*
X141553266Y-105303003D01*
X141674452Y-105157294D01*
X141674455Y-105157290D01*
X141679113Y-105151689D01*
X141778838Y-104973616D01*
X141844442Y-104780352D01*
X141848141Y-104754846D01*
X141873056Y-104583010D01*
X141873056Y-104583009D01*
X141873729Y-104578368D01*
X141873827Y-104574617D01*
X141890546Y-104525297D01*
X141870752Y-104470970D01*
X141857249Y-104324020D01*
X141856582Y-104316761D01*
X141852091Y-104300835D01*
X141819011Y-104183544D01*
X141801182Y-104120328D01*
X141795398Y-104108598D01*
X141774907Y-104067048D01*
X141710913Y-103937280D01*
X141659512Y-103868445D01*
X141593155Y-103779583D01*
X141593153Y-103779581D01*
X141588797Y-103773747D01*
X141468072Y-103662150D01*
X141444279Y-103640156D01*
X141444278Y-103640155D01*
X141438925Y-103635207D01*
X141383041Y-103599947D01*
X141344655Y-103575727D01*
X141291882Y-103520895D01*
X141270500Y-103441256D01*
X141270500Y-101074500D01*
X141288712Y-101000609D01*
X141339178Y-100943646D01*
X141410335Y-100916659D01*
X141429500Y-100915500D01*
X141525654Y-100915500D01*
X141601642Y-100900385D01*
X141663294Y-100859191D01*
X141674788Y-100851511D01*
X141687810Y-100842810D01*
X141745385Y-100756642D01*
X141760500Y-100680654D01*
X142139500Y-100680654D01*
X142154615Y-100756642D01*
X142212190Y-100842810D01*
X142225212Y-100851511D01*
X142236706Y-100859191D01*
X142298358Y-100900385D01*
X142374346Y-100915500D01*
X142630500Y-100915500D01*
X142704391Y-100933712D01*
X142761354Y-100984178D01*
X142788341Y-101055335D01*
X142789500Y-101074500D01*
X142789500Y-103441036D01*
X142771288Y-103514927D01*
X142720822Y-103571890D01*
X142711796Y-103577682D01*
X142650732Y-103614011D01*
X142650730Y-103614013D01*
X142644468Y-103617738D01*
X142638986Y-103622545D01*
X142638984Y-103622547D01*
X142556751Y-103694664D01*
X142491021Y-103752308D01*
X142364667Y-103912588D01*
X142269637Y-104093210D01*
X142267478Y-104100163D01*
X142267476Y-104100168D01*
X142229727Y-104221742D01*
X142209114Y-104288125D01*
X142208258Y-104295361D01*
X142208257Y-104295364D01*
X142186983Y-104475109D01*
X142170487Y-104519005D01*
X142189235Y-104563577D01*
X142190837Y-104577948D01*
X142198474Y-104694465D01*
X142200267Y-104701525D01*
X142246918Y-104885218D01*
X142246920Y-104885223D01*
X142248712Y-104892280D01*
X142251760Y-104898892D01*
X142251762Y-104898897D01*
X142301102Y-105005923D01*
X142334159Y-105077628D01*
X142338361Y-105083574D01*
X142338363Y-105083577D01*
X142385586Y-105150396D01*
X142451952Y-105244301D01*
X142598146Y-105386717D01*
X142767845Y-105500107D01*
X142774546Y-105502986D01*
X142774548Y-105502987D01*
X142922406Y-105566511D01*
X142955367Y-105580672D01*
X142962479Y-105582281D01*
X142962481Y-105582282D01*
X143147313Y-105624106D01*
X143147318Y-105624107D01*
X143154430Y-105625716D01*
X143269869Y-105630252D01*
X143351080Y-105633443D01*
X143351084Y-105633443D01*
X143358368Y-105633729D01*
X143463812Y-105618440D01*
X143553140Y-105605488D01*
X143553143Y-105605487D01*
X143560352Y-105604442D01*
X143753616Y-105538838D01*
X143931689Y-105439113D01*
X143937290Y-105434455D01*
X143937294Y-105434452D01*
X144083003Y-105313266D01*
X144088606Y-105308606D01*
X144093266Y-105303003D01*
X144214452Y-105157294D01*
X144214455Y-105157290D01*
X144219113Y-105151689D01*
X144318838Y-104973616D01*
X144384442Y-104780352D01*
X144388141Y-104754846D01*
X144413056Y-104583010D01*
X144413056Y-104583009D01*
X144413729Y-104578368D01*
X144413827Y-104574617D01*
X144430546Y-104525297D01*
X144410752Y-104470970D01*
X144397249Y-104324020D01*
X144396582Y-104316761D01*
X144392091Y-104300835D01*
X144359325Y-104184658D01*
X144356796Y-104108598D01*
X144389905Y-104040075D01*
X144451065Y-103994787D01*
X144526266Y-103983109D01*
X144598280Y-104007716D01*
X144607510Y-104014647D01*
X144610959Y-104018650D01*
X144620464Y-104024811D01*
X144628999Y-104032256D01*
X144628676Y-104032627D01*
X144639126Y-104041082D01*
X144713698Y-104115654D01*
X144753069Y-104180781D01*
X144757664Y-104256745D01*
X144753118Y-104275229D01*
X144749114Y-104288125D01*
X144748258Y-104295355D01*
X144748257Y-104295361D01*
X144726983Y-104475109D01*
X144710487Y-104519005D01*
X144729235Y-104563577D01*
X144730837Y-104577948D01*
X144738474Y-104694465D01*
X144740267Y-104701525D01*
X144786918Y-104885218D01*
X144786920Y-104885223D01*
X144788712Y-104892280D01*
X144791760Y-104898892D01*
X144791762Y-104898897D01*
X144841102Y-105005923D01*
X144874159Y-105077628D01*
X144878361Y-105083574D01*
X144878363Y-105083577D01*
X144925586Y-105150396D01*
X144991952Y-105244301D01*
X145138146Y-105386717D01*
X145307845Y-105500107D01*
X145314546Y-105502986D01*
X145314548Y-105502987D01*
X145462406Y-105566511D01*
X145495367Y-105580672D01*
X145502479Y-105582281D01*
X145502481Y-105582282D01*
X145687313Y-105624106D01*
X145687318Y-105624107D01*
X145694430Y-105625716D01*
X145809869Y-105630252D01*
X145891080Y-105633443D01*
X145891084Y-105633443D01*
X145898368Y-105633729D01*
X146003812Y-105618440D01*
X146093140Y-105605488D01*
X146093143Y-105605487D01*
X146100352Y-105604442D01*
X146293616Y-105538838D01*
X146471689Y-105439113D01*
X146477290Y-105434455D01*
X146477294Y-105434452D01*
X146623003Y-105313266D01*
X146628606Y-105308606D01*
X146633266Y-105303003D01*
X146754452Y-105157294D01*
X146754455Y-105157290D01*
X146759113Y-105151689D01*
X146858838Y-104973616D01*
X146924442Y-104780352D01*
X146928141Y-104754846D01*
X146953056Y-104583010D01*
X146953056Y-104583009D01*
X146953729Y-104578368D01*
X146953827Y-104574617D01*
X146970546Y-104525297D01*
X146950752Y-104470970D01*
X146937249Y-104324020D01*
X146936582Y-104316761D01*
X146932832Y-104303463D01*
X146898411Y-104181416D01*
X146895882Y-104105355D01*
X146928991Y-104036832D01*
X146990151Y-103991545D01*
X147065352Y-103979867D01*
X147137366Y-104004474D01*
X147163871Y-104025827D01*
X147253698Y-104115654D01*
X147293069Y-104180781D01*
X147297664Y-104256745D01*
X147293118Y-104275229D01*
X147289114Y-104288125D01*
X147288258Y-104295355D01*
X147288257Y-104295361D01*
X147266983Y-104475109D01*
X147250487Y-104519005D01*
X147269235Y-104563577D01*
X147270837Y-104577948D01*
X147278474Y-104694465D01*
X147280267Y-104701525D01*
X147326918Y-104885218D01*
X147326920Y-104885223D01*
X147328712Y-104892280D01*
X147331760Y-104898892D01*
X147331762Y-104898897D01*
X147381102Y-105005923D01*
X147414159Y-105077628D01*
X147418361Y-105083574D01*
X147418363Y-105083577D01*
X147465586Y-105150396D01*
X147531952Y-105244301D01*
X147678146Y-105386717D01*
X147847845Y-105500107D01*
X147854546Y-105502986D01*
X147854548Y-105502987D01*
X148002406Y-105566511D01*
X148035367Y-105580672D01*
X148042479Y-105582281D01*
X148042481Y-105582282D01*
X148227313Y-105624106D01*
X148227318Y-105624107D01*
X148234430Y-105625716D01*
X148349869Y-105630252D01*
X148431080Y-105633443D01*
X148431084Y-105633443D01*
X148438368Y-105633729D01*
X148543812Y-105618440D01*
X148633140Y-105605488D01*
X148633143Y-105605487D01*
X148640352Y-105604442D01*
X148833616Y-105538838D01*
X149011689Y-105439113D01*
X149017290Y-105434455D01*
X149017294Y-105434452D01*
X149163003Y-105313266D01*
X149168606Y-105308606D01*
X149173266Y-105303003D01*
X149294452Y-105157294D01*
X149294455Y-105157290D01*
X149299113Y-105151689D01*
X149372982Y-105019786D01*
X165693168Y-105019786D01*
X165705722Y-105281153D01*
X165756771Y-105537793D01*
X165758762Y-105543338D01*
X165758763Y-105543342D01*
X165801333Y-105661909D01*
X165845193Y-105784068D01*
X165847985Y-105789264D01*
X165964371Y-106005868D01*
X165969046Y-106014569D01*
X166125608Y-106224231D01*
X166129794Y-106228380D01*
X166129796Y-106228383D01*
X166307256Y-106404302D01*
X166307261Y-106404306D01*
X166311440Y-106408449D01*
X166392243Y-106467696D01*
X166517702Y-106559686D01*
X166517706Y-106559688D01*
X166522461Y-106563175D01*
X166527677Y-106565919D01*
X166527683Y-106565923D01*
X166748814Y-106682266D01*
X166748818Y-106682268D01*
X166754034Y-106685012D01*
X166759604Y-106686957D01*
X166981310Y-106764380D01*
X167001071Y-106771281D01*
X167258147Y-106820089D01*
X167264049Y-106820321D01*
X167264050Y-106820321D01*
X167299659Y-106821720D01*
X167519613Y-106830362D01*
X167779725Y-106801875D01*
X167785425Y-106800374D01*
X167785432Y-106800373D01*
X168027066Y-106736755D01*
X168027069Y-106736754D01*
X168032770Y-106735253D01*
X168273188Y-106631962D01*
X168278203Y-106628858D01*
X168278208Y-106628856D01*
X168403981Y-106551025D01*
X168495698Y-106494269D01*
X168500201Y-106490457D01*
X168500205Y-106490454D01*
X168520580Y-106473205D01*
X175415529Y-106473205D01*
X175417653Y-106477925D01*
X175419102Y-106479329D01*
X175521154Y-106554156D01*
X175531143Y-106560398D01*
X175751406Y-106676283D01*
X175762208Y-106680980D01*
X175997182Y-106763037D01*
X176008560Y-106766085D01*
X176253097Y-106812512D01*
X176264777Y-106813843D01*
X176513489Y-106823615D01*
X176525247Y-106823205D01*
X176772673Y-106796107D01*
X176784244Y-106793963D01*
X177024942Y-106730592D01*
X177036066Y-106726762D01*
X177264764Y-106628505D01*
X177275192Y-106623076D01*
X177486843Y-106492103D01*
X177493891Y-106486983D01*
X177502904Y-106474534D01*
X177500485Y-106467696D01*
X176471651Y-105438861D01*
X176457685Y-105430418D01*
X176448786Y-105434424D01*
X175423972Y-106459239D01*
X175415529Y-106473205D01*
X168520580Y-106473205D01*
X168690912Y-106329008D01*
X168690914Y-106329006D01*
X168695411Y-106325199D01*
X168867941Y-106128467D01*
X169009496Y-105908394D01*
X169015522Y-105895018D01*
X169068003Y-105778514D01*
X169116968Y-105669815D01*
X169128486Y-105628977D01*
X169169186Y-105484664D01*
X169187995Y-105417972D01*
X169221018Y-105158396D01*
X169223437Y-105066000D01*
X169222843Y-105058000D01*
X169220453Y-105025842D01*
X174699968Y-105025842D01*
X174711910Y-105274464D01*
X174713344Y-105286146D01*
X174761903Y-105530267D01*
X174765045Y-105541599D01*
X174849154Y-105775863D01*
X174853943Y-105786617D01*
X174971751Y-106005868D01*
X174978073Y-106015792D01*
X175039592Y-106098175D01*
X175052203Y-106108535D01*
X175057525Y-106107011D01*
X175058600Y-106106189D01*
X176085139Y-105079651D01*
X176093201Y-105066315D01*
X176822418Y-105066315D01*
X176826424Y-105075214D01*
X177854180Y-106102969D01*
X177868146Y-106111412D01*
X177870563Y-106110324D01*
X177875044Y-106105406D01*
X178000578Y-105910241D01*
X178006189Y-105899907D01*
X178108420Y-105672961D01*
X178112443Y-105661909D01*
X178180006Y-105422350D01*
X178182351Y-105410823D01*
X178214004Y-105162010D01*
X178214612Y-105154063D01*
X178216814Y-105069987D01*
X178216623Y-105062029D01*
X178198035Y-104811900D01*
X178196295Y-104800256D01*
X178141366Y-104557503D01*
X178137922Y-104546238D01*
X178047712Y-104314264D01*
X178042646Y-104303644D01*
X177919141Y-104087556D01*
X177912552Y-104077787D01*
X177877279Y-104033043D01*
X177864403Y-104023018D01*
X177858257Y-104024954D01*
X176830861Y-105052349D01*
X176822418Y-105066315D01*
X176093201Y-105066315D01*
X176093582Y-105065685D01*
X176089576Y-105056786D01*
X175063001Y-104030212D01*
X175049035Y-104021769D01*
X175042616Y-104024658D01*
X175029805Y-104040061D01*
X175022980Y-104049630D01*
X174893854Y-104262423D01*
X174888512Y-104272907D01*
X174792256Y-104502450D01*
X174788524Y-104513603D01*
X174727257Y-104754846D01*
X174725213Y-104766441D01*
X174700275Y-105014094D01*
X174699968Y-105025842D01*
X169220453Y-105025842D01*
X169204482Y-104810937D01*
X169204045Y-104805052D01*
X169192685Y-104754846D01*
X169147600Y-104555597D01*
X169147598Y-104555592D01*
X169146296Y-104549836D01*
X169051457Y-104305960D01*
X169037285Y-104281163D01*
X168924545Y-104083908D01*
X168924544Y-104083907D01*
X168921614Y-104078780D01*
X168840463Y-103975841D01*
X168763272Y-103877924D01*
X168763270Y-103877922D01*
X168759617Y-103873288D01*
X168660006Y-103779583D01*
X168573324Y-103698041D01*
X168573323Y-103698040D01*
X168569026Y-103693998D01*
X168517501Y-103658254D01*
X175413129Y-103658254D01*
X175413780Y-103661194D01*
X175417275Y-103666065D01*
X176444349Y-104693139D01*
X176458315Y-104701582D01*
X176467212Y-104697578D01*
X177492704Y-103672085D01*
X177501147Y-103658119D01*
X177499466Y-103654385D01*
X177496547Y-103651630D01*
X177355570Y-103553831D01*
X177345425Y-103547855D01*
X177122190Y-103437768D01*
X177111287Y-103433362D01*
X176874233Y-103357480D01*
X176862781Y-103354731D01*
X176617129Y-103314724D01*
X176605395Y-103313698D01*
X176356527Y-103310440D01*
X176344773Y-103311159D01*
X176098143Y-103344724D01*
X176086636Y-103347170D01*
X175847679Y-103416819D01*
X175836658Y-103420939D01*
X175610619Y-103525145D01*
X175600322Y-103530853D01*
X175424241Y-103646298D01*
X175413129Y-103658254D01*
X168517501Y-103658254D01*
X168354027Y-103544848D01*
X168219791Y-103478650D01*
X168124631Y-103431722D01*
X168124628Y-103431721D01*
X168119344Y-103429115D01*
X168113732Y-103427318D01*
X168113728Y-103427317D01*
X167875747Y-103351139D01*
X167875746Y-103351139D01*
X167870133Y-103349342D01*
X167841777Y-103344724D01*
X167617697Y-103308230D01*
X167617693Y-103308230D01*
X167611868Y-103307281D01*
X167481045Y-103305568D01*
X167356129Y-103303933D01*
X167356125Y-103303933D01*
X167350223Y-103303856D01*
X167282902Y-103313018D01*
X167096785Y-103338347D01*
X167096782Y-103338348D01*
X167090945Y-103339142D01*
X167085292Y-103340790D01*
X167085286Y-103340791D01*
X166977795Y-103372122D01*
X166839731Y-103412364D01*
X166834383Y-103414830D01*
X166834379Y-103414831D01*
X166607458Y-103519443D01*
X166607453Y-103519446D01*
X166602099Y-103521914D01*
X166597166Y-103525148D01*
X166597161Y-103525151D01*
X166389943Y-103661010D01*
X166383270Y-103665385D01*
X166378867Y-103669314D01*
X166378868Y-103669314D01*
X166200618Y-103828408D01*
X166188051Y-103839624D01*
X166184281Y-103844157D01*
X166184278Y-103844160D01*
X166101393Y-103943819D01*
X166020730Y-104040806D01*
X166017670Y-104045848D01*
X166017669Y-104045850D01*
X165998289Y-104077787D01*
X165884984Y-104264508D01*
X165882704Y-104269944D01*
X165882704Y-104269945D01*
X165860029Y-104324020D01*
X165783794Y-104505819D01*
X165719384Y-104759435D01*
X165715371Y-104799293D01*
X165693974Y-105011786D01*
X165693168Y-105019786D01*
X149372982Y-105019786D01*
X149398838Y-104973616D01*
X149464442Y-104780352D01*
X149467783Y-104757309D01*
X149493057Y-104583006D01*
X149493058Y-104582998D01*
X149493729Y-104578368D01*
X149495257Y-104520000D01*
X149476582Y-104316761D01*
X149472091Y-104300835D01*
X149439011Y-104183544D01*
X149421182Y-104120328D01*
X149415398Y-104108598D01*
X149394907Y-104067048D01*
X149330913Y-103937280D01*
X149279512Y-103868445D01*
X149213155Y-103779583D01*
X149213153Y-103779581D01*
X149208797Y-103773747D01*
X149088072Y-103662150D01*
X149064279Y-103640156D01*
X149064278Y-103640155D01*
X149058925Y-103635207D01*
X148886316Y-103526299D01*
X148742633Y-103468976D01*
X148703513Y-103453368D01*
X148703511Y-103453368D01*
X148696750Y-103450670D01*
X148689611Y-103449250D01*
X148689608Y-103449249D01*
X148503721Y-103412273D01*
X148503718Y-103412273D01*
X148496576Y-103410852D01*
X148405849Y-103409665D01*
X148299794Y-103408276D01*
X148299789Y-103408276D01*
X148292498Y-103408181D01*
X148115613Y-103438575D01*
X148039706Y-103433139D01*
X147976258Y-103394302D01*
X147507070Y-102925114D01*
X147467699Y-102859987D01*
X147460500Y-102812684D01*
X147460500Y-101058948D01*
X147478712Y-100985057D01*
X147529178Y-100928094D01*
X147572033Y-100909962D01*
X147571814Y-100909433D01*
X147586282Y-100903440D01*
X147601642Y-100900385D01*
X147614663Y-100891685D01*
X147614665Y-100891684D01*
X147669441Y-100855084D01*
X147739548Y-100829701D01*
X147734462Y-100791672D01*
X147742219Y-100761380D01*
X147745385Y-100756642D01*
X147760500Y-100680654D01*
X147760500Y-99179346D01*
X147745385Y-99103358D01*
X147687810Y-99017190D01*
X147601642Y-98959615D01*
X147525654Y-98944500D01*
X146374346Y-98944500D01*
X146298358Y-98959615D01*
X146212190Y-99017190D01*
X146154615Y-99103358D01*
X146139500Y-99179346D01*
X146139500Y-100680654D01*
X146154615Y-100756642D01*
X146212190Y-100842810D01*
X146225212Y-100851511D01*
X146236706Y-100859191D01*
X146298358Y-100900385D01*
X146313719Y-100903440D01*
X146328186Y-100909433D01*
X146327709Y-100910585D01*
X146380439Y-100935282D01*
X146426462Y-100995891D01*
X146439500Y-101058948D01*
X146439500Y-103017673D01*
X146438988Y-103030427D01*
X146438412Y-103037585D01*
X146435911Y-103048638D01*
X146439195Y-103101575D01*
X146439500Y-103111420D01*
X146439500Y-103126660D01*
X146440301Y-103132253D01*
X146440301Y-103132255D01*
X146440803Y-103135763D01*
X146442102Y-103148446D01*
X146443091Y-103164388D01*
X146444965Y-103194587D01*
X146448814Y-103205246D01*
X146450727Y-103214484D01*
X146453374Y-103223535D01*
X146454980Y-103234754D01*
X146459670Y-103245068D01*
X146474114Y-103276836D01*
X146478927Y-103288660D01*
X146481333Y-103295325D01*
X146489292Y-103371010D01*
X146461166Y-103441724D01*
X146403400Y-103491268D01*
X146329226Y-103508291D01*
X146272861Y-103496993D01*
X146163517Y-103453369D01*
X146163510Y-103453367D01*
X146156750Y-103450670D01*
X146149611Y-103449250D01*
X146149608Y-103449249D01*
X145963721Y-103412273D01*
X145963718Y-103412273D01*
X145956576Y-103410852D01*
X145865849Y-103409665D01*
X145759794Y-103408276D01*
X145759789Y-103408276D01*
X145752498Y-103408181D01*
X145646423Y-103426408D01*
X145570518Y-103420971D01*
X145505831Y-103380881D01*
X145467185Y-103315322D01*
X145460500Y-103269704D01*
X145460500Y-101058948D01*
X145478712Y-100985057D01*
X145529178Y-100928094D01*
X145572033Y-100909962D01*
X145571814Y-100909433D01*
X145586281Y-100903440D01*
X145601642Y-100900385D01*
X145663294Y-100859191D01*
X145674788Y-100851511D01*
X145687810Y-100842810D01*
X145745385Y-100756642D01*
X145760500Y-100680654D01*
X145760500Y-99179346D01*
X145745385Y-99103358D01*
X145687810Y-99017190D01*
X145601642Y-98959615D01*
X145525654Y-98944500D01*
X144374346Y-98944500D01*
X144298358Y-98959615D01*
X144212190Y-99017190D01*
X144154615Y-99103358D01*
X144139500Y-99179346D01*
X144139500Y-100680654D01*
X144154615Y-100756642D01*
X144212190Y-100842810D01*
X144225212Y-100851511D01*
X144236706Y-100859191D01*
X144298358Y-100900385D01*
X144313719Y-100903440D01*
X144328186Y-100909433D01*
X144327709Y-100910585D01*
X144380439Y-100935282D01*
X144426462Y-100995891D01*
X144439500Y-101058948D01*
X144439500Y-103557673D01*
X144438988Y-103570427D01*
X144438412Y-103577585D01*
X144435911Y-103588638D01*
X144436613Y-103599947D01*
X144439195Y-103641575D01*
X144439500Y-103651420D01*
X144439500Y-103666660D01*
X144440301Y-103672253D01*
X144440301Y-103672255D01*
X144440803Y-103675763D01*
X144442102Y-103688448D01*
X144443236Y-103706727D01*
X144429634Y-103781604D01*
X144382792Y-103841583D01*
X144313443Y-103872923D01*
X144237472Y-103868445D01*
X144172285Y-103829175D01*
X144157145Y-103811710D01*
X144128797Y-103773747D01*
X144008072Y-103662150D01*
X143984279Y-103640156D01*
X143984278Y-103640155D01*
X143978925Y-103635207D01*
X143923041Y-103599947D01*
X143884655Y-103575727D01*
X143831882Y-103520895D01*
X143810500Y-103441256D01*
X143810500Y-100352327D01*
X143811012Y-100339573D01*
X143811588Y-100332415D01*
X143814089Y-100321362D01*
X143810805Y-100268424D01*
X143810500Y-100258580D01*
X143810500Y-100243340D01*
X143809197Y-100234237D01*
X143807898Y-100221554D01*
X143805736Y-100186719D01*
X143805035Y-100175413D01*
X143801188Y-100164758D01*
X143799274Y-100155512D01*
X143796626Y-100146455D01*
X143795020Y-100135246D01*
X143790333Y-100124938D01*
X143790332Y-100124934D01*
X143775884Y-100093159D01*
X143771075Y-100081345D01*
X143769943Y-100078212D01*
X143760500Y-100024233D01*
X143760500Y-99179346D01*
X143745385Y-99103358D01*
X143687810Y-99017190D01*
X143601642Y-98959615D01*
X143525654Y-98944500D01*
X142374346Y-98944500D01*
X142298358Y-98959615D01*
X142212190Y-99017190D01*
X142154615Y-99103358D01*
X142139500Y-99179346D01*
X142139500Y-100680654D01*
X141760500Y-100680654D01*
X141760500Y-99179346D01*
X141745385Y-99103358D01*
X141687810Y-99017190D01*
X141601642Y-98959615D01*
X141525654Y-98944500D01*
X140374346Y-98944500D01*
X140298358Y-98959615D01*
X140212190Y-99017190D01*
X140154615Y-99103358D01*
X140139500Y-99179346D01*
X140139500Y-100680654D01*
X140154615Y-100756642D01*
X140163316Y-100769664D01*
X140212190Y-100842810D01*
X140211442Y-100843310D01*
X140242301Y-100894356D01*
X140249500Y-100941659D01*
X140249500Y-103441036D01*
X140231288Y-103514927D01*
X140180822Y-103571890D01*
X140171796Y-103577682D01*
X140110732Y-103614011D01*
X140110730Y-103614013D01*
X140104468Y-103617738D01*
X140098986Y-103622545D01*
X140098984Y-103622547D01*
X140016751Y-103694664D01*
X139951021Y-103752308D01*
X139824667Y-103912588D01*
X139729637Y-104093210D01*
X139727478Y-104100163D01*
X139727476Y-104100168D01*
X139689727Y-104221742D01*
X139669114Y-104288125D01*
X139668258Y-104295361D01*
X139668257Y-104295364D01*
X139646983Y-104475109D01*
X139630487Y-104519005D01*
X139348254Y-104519005D01*
X139330752Y-104470970D01*
X139317249Y-104324020D01*
X139316582Y-104316761D01*
X139312091Y-104300835D01*
X139269445Y-104149626D01*
X139266916Y-104073566D01*
X139303299Y-104001215D01*
X139319369Y-103983019D01*
X139326115Y-103975841D01*
X139336901Y-103965055D01*
X139340293Y-103960528D01*
X139340298Y-103960523D01*
X139342423Y-103957688D01*
X139350479Y-103947794D01*
X139373567Y-103921652D01*
X139381068Y-103913159D01*
X139385883Y-103902903D01*
X139391061Y-103895020D01*
X139395593Y-103886742D01*
X139402389Y-103877675D01*
X139418615Y-103834391D01*
X139423568Y-103822638D01*
X139438401Y-103791045D01*
X139438403Y-103791038D01*
X139443214Y-103780791D01*
X139444956Y-103769605D01*
X139447716Y-103760577D01*
X139449743Y-103751357D01*
X139453719Y-103740750D01*
X139457144Y-103694658D01*
X139458600Y-103681977D01*
X139459555Y-103675843D01*
X139459555Y-103675842D01*
X139460500Y-103669774D01*
X139460500Y-103655393D01*
X139460937Y-103643611D01*
X139463716Y-103606217D01*
X139463716Y-103606214D01*
X139464555Y-103594921D01*
X139462191Y-103583845D01*
X139461420Y-103572542D01*
X139461911Y-103572509D01*
X139460500Y-103559142D01*
X139460500Y-101058948D01*
X139478712Y-100985057D01*
X139529178Y-100928094D01*
X139572033Y-100909962D01*
X139571814Y-100909433D01*
X139586281Y-100903440D01*
X139601642Y-100900385D01*
X139663294Y-100859191D01*
X139674788Y-100851511D01*
X139687810Y-100842810D01*
X139745385Y-100756642D01*
X139760500Y-100680654D01*
X139760500Y-99179346D01*
X139745385Y-99103358D01*
X139687810Y-99017190D01*
X139601642Y-98959615D01*
X139525654Y-98944500D01*
X138374346Y-98944500D01*
X138298358Y-98959615D01*
X138212190Y-99017190D01*
X138154615Y-99103358D01*
X138139500Y-99179346D01*
X138139500Y-100680654D01*
X138154615Y-100756642D01*
X138212190Y-100842810D01*
X138225212Y-100851511D01*
X138236706Y-100859191D01*
X138298358Y-100900385D01*
X138313719Y-100903440D01*
X138328186Y-100909433D01*
X138327709Y-100910585D01*
X138380439Y-100935282D01*
X138426462Y-100995891D01*
X138439500Y-101058948D01*
X138439500Y-103251105D01*
X138421288Y-103324996D01*
X138370822Y-103381959D01*
X138299665Y-103408946D01*
X138278421Y-103410091D01*
X138243308Y-103409631D01*
X138139794Y-103408276D01*
X138139789Y-103408276D01*
X138132498Y-103408181D01*
X137931350Y-103442744D01*
X137924503Y-103445270D01*
X137784302Y-103496993D01*
X137739869Y-103513385D01*
X137733601Y-103517114D01*
X137733599Y-103517115D01*
X137570737Y-103614008D01*
X137570735Y-103614010D01*
X137564468Y-103617738D01*
X137558985Y-103622547D01*
X137558983Y-103622548D01*
X137477511Y-103693998D01*
X137411021Y-103752308D01*
X137284667Y-103912588D01*
X137189637Y-104093210D01*
X137187478Y-104100163D01*
X137187476Y-104100168D01*
X137149727Y-104221742D01*
X137129114Y-104288125D01*
X137128258Y-104295357D01*
X137128257Y-104295362D01*
X137107398Y-104471602D01*
X137097640Y-104497568D01*
X136801291Y-104497568D01*
X136791718Y-104472555D01*
X136790500Y-104452913D01*
X136790500Y-103907316D01*
X136808712Y-103833425D01*
X136837070Y-103794886D01*
X137259834Y-103372122D01*
X137269212Y-103363469D01*
X137274692Y-103358805D01*
X137284268Y-103352763D01*
X137291763Y-103344277D01*
X137291765Y-103344275D01*
X137319370Y-103313018D01*
X137326115Y-103305841D01*
X137336900Y-103295056D01*
X137340288Y-103290536D01*
X137340298Y-103290524D01*
X137342412Y-103287703D01*
X137350467Y-103277808D01*
X137373570Y-103251649D01*
X137373570Y-103251648D01*
X137381068Y-103243159D01*
X137385882Y-103232905D01*
X137391057Y-103225027D01*
X137395592Y-103216744D01*
X137402388Y-103207676D01*
X137418617Y-103164387D01*
X137423571Y-103152630D01*
X137438400Y-103121045D01*
X137438400Y-103121044D01*
X137443214Y-103110791D01*
X137444957Y-103099598D01*
X137447716Y-103090573D01*
X137449741Y-103081361D01*
X137453719Y-103070750D01*
X137457144Y-103024658D01*
X137458600Y-103011977D01*
X137459555Y-103005843D01*
X137459555Y-103005842D01*
X137460500Y-102999774D01*
X137460500Y-102985393D01*
X137460937Y-102973611D01*
X137463716Y-102936217D01*
X137463716Y-102936214D01*
X137464555Y-102924921D01*
X137462191Y-102913845D01*
X137461420Y-102902542D01*
X137461911Y-102902509D01*
X137460500Y-102889142D01*
X137460500Y-101058948D01*
X137478712Y-100985057D01*
X137529178Y-100928094D01*
X137572033Y-100909962D01*
X137571814Y-100909433D01*
X137586281Y-100903440D01*
X137601642Y-100900385D01*
X137663294Y-100859191D01*
X137674788Y-100851511D01*
X137687810Y-100842810D01*
X137745385Y-100756642D01*
X137760500Y-100680654D01*
X137760500Y-99179346D01*
X137745385Y-99103358D01*
X137687810Y-99017190D01*
X137601642Y-98959615D01*
X137525654Y-98944500D01*
X136374346Y-98944500D01*
X136298358Y-98959615D01*
X136212190Y-99017190D01*
X136154615Y-99103358D01*
X136139500Y-99179346D01*
X136139500Y-100680654D01*
X136141023Y-100688310D01*
X136148815Y-100727485D01*
X136145367Y-100803510D01*
X136106985Y-100869224D01*
X136042459Y-100909573D01*
X135966574Y-100915314D01*
X135916742Y-100898000D01*
X135906819Y-100890178D01*
X135894421Y-100885824D01*
X135894419Y-100885823D01*
X135866825Y-100876133D01*
X135855227Y-100871542D01*
X135816439Y-100854394D01*
X135803458Y-100853270D01*
X135799049Y-100851932D01*
X135796109Y-100851299D01*
X135786672Y-100847985D01*
X135781072Y-100847500D01*
X135743715Y-100847500D01*
X135729995Y-100846907D01*
X135702669Y-100844540D01*
X135702668Y-100844540D01*
X135689574Y-100843406D01*
X135676817Y-100846575D01*
X135671290Y-100847010D01*
X135658814Y-100847500D01*
X133008018Y-100847500D01*
X132934127Y-100829288D01*
X132877164Y-100778822D01*
X132850177Y-100707665D01*
X132849021Y-100689526D01*
X132844729Y-100024233D01*
X132842500Y-99678822D01*
X132842498Y-99678154D01*
X132841864Y-99187152D01*
X132837200Y-95580188D01*
X132855317Y-95506274D01*
X132905709Y-95449245D01*
X132976831Y-95422167D01*
X133052390Y-95431243D01*
X133115077Y-95474393D01*
X133134309Y-95505102D01*
X133134615Y-95506642D01*
X133192190Y-95592810D01*
X133278358Y-95650385D01*
X133354346Y-95665500D01*
X134755654Y-95665500D01*
X134831642Y-95650385D01*
X134917810Y-95592810D01*
X134975385Y-95506642D01*
X134990500Y-95430654D01*
X134990500Y-92487910D01*
X135008712Y-92414019D01*
X135059178Y-92357056D01*
X135130335Y-92330069D01*
X135149582Y-92328910D01*
X136675880Y-92329708D01*
X148750583Y-92336017D01*
X148824465Y-92354268D01*
X148881402Y-92404763D01*
X148908351Y-92475934D01*
X148909500Y-92495017D01*
X148909500Y-95430654D01*
X148924615Y-95506642D01*
X148982190Y-95592810D01*
X149068358Y-95650385D01*
X149144346Y-95665500D01*
X150545654Y-95665500D01*
X150621642Y-95650385D01*
X150707810Y-95592810D01*
X150765385Y-95506642D01*
X150780500Y-95430654D01*
X150780500Y-92496160D01*
X150798712Y-92422269D01*
X150849178Y-92365306D01*
X150920335Y-92338319D01*
X150939580Y-92337160D01*
X151050679Y-92337218D01*
X151124559Y-92355469D01*
X151181497Y-92405964D01*
X151208446Y-92477135D01*
X151209594Y-92495600D01*
X151228516Y-97374266D01*
X151237499Y-99690513D01*
X151237500Y-99691130D01*
X151237500Y-100678500D01*
X151219288Y-100752391D01*
X151168822Y-100809354D01*
X151097665Y-100836341D01*
X151078500Y-100837500D01*
X148273715Y-100837500D01*
X148259995Y-100836907D01*
X148232669Y-100834540D01*
X148232668Y-100834540D01*
X148219574Y-100833406D01*
X148178412Y-100843631D01*
X148166202Y-100846159D01*
X148124388Y-100853119D01*
X148112917Y-100859308D01*
X148110705Y-100859960D01*
X148108636Y-100860963D01*
X148095990Y-100864105D01*
X148084953Y-100871232D01*
X148084952Y-100871232D01*
X148060368Y-100887106D01*
X148049629Y-100893457D01*
X148012321Y-100913587D01*
X148003474Y-100923157D01*
X148001563Y-100924511D01*
X147999930Y-100926129D01*
X147992652Y-100930829D01*
X147992651Y-100930827D01*
X147992600Y-100930863D01*
X147989002Y-100933186D01*
X147988561Y-100932503D01*
X147932443Y-100962829D01*
X147912539Y-100963070D01*
X147911563Y-101027668D01*
X147907802Y-101039946D01*
X147896126Y-101073194D01*
X147891542Y-101084773D01*
X147874394Y-101123561D01*
X147873270Y-101136542D01*
X147871932Y-101140951D01*
X147871299Y-101143891D01*
X147867985Y-101153328D01*
X147867500Y-101158928D01*
X147867500Y-101196285D01*
X147866907Y-101210004D01*
X147863406Y-101250426D01*
X147866575Y-101263183D01*
X147867010Y-101268710D01*
X147867500Y-101281186D01*
X147867500Y-102205434D01*
X147866862Y-102219659D01*
X147865747Y-102232071D01*
X147863311Y-102259191D01*
X147866439Y-102271957D01*
X147866439Y-102271959D01*
X147873607Y-102301215D01*
X147876017Y-102312945D01*
X147883119Y-102355612D01*
X147889086Y-102366670D01*
X147889690Y-102368732D01*
X147890625Y-102370666D01*
X147893615Y-102382872D01*
X147916969Y-102419297D01*
X147923039Y-102429597D01*
X147943587Y-102467679D01*
X147952815Y-102476209D01*
X147954055Y-102477964D01*
X147955565Y-102479491D01*
X147962347Y-102490069D01*
X147972641Y-102498238D01*
X147972644Y-102498241D01*
X147996230Y-102516957D01*
X148005326Y-102524750D01*
X148020599Y-102538868D01*
X148037095Y-102554117D01*
X148048586Y-102559197D01*
X148050326Y-102560455D01*
X148052252Y-102561412D01*
X148062096Y-102569223D01*
X148074483Y-102573617D01*
X148074484Y-102573618D01*
X148102867Y-102583687D01*
X148114000Y-102588116D01*
X148141539Y-102600292D01*
X148141544Y-102600293D01*
X148153561Y-102605606D01*
X148166082Y-102606691D01*
X148169808Y-102607828D01*
X148172683Y-102608456D01*
X148182108Y-102611800D01*
X148187706Y-102612303D01*
X148191146Y-102612314D01*
X148191147Y-102612314D01*
X148225915Y-102612425D01*
X148239127Y-102613017D01*
X148267329Y-102615460D01*
X148267332Y-102615460D01*
X148280426Y-102616594D01*
X148293186Y-102613424D01*
X148296288Y-102613180D01*
X148309263Y-102612691D01*
X150025553Y-102618175D01*
X151314635Y-102622294D01*
X151317247Y-102622355D01*
X151318928Y-102622500D01*
X151379059Y-102622500D01*
X151379567Y-102622501D01*
X151408903Y-102622595D01*
X151408909Y-102622595D01*
X151410553Y-102622600D01*
X151411125Y-102622507D01*
X151411292Y-102622500D01*
X152266285Y-102622500D01*
X152280005Y-102623093D01*
X152307331Y-102625460D01*
X152307332Y-102625460D01*
X152320426Y-102626594D01*
X152361588Y-102616369D01*
X152373798Y-102613841D01*
X152415612Y-102606881D01*
X152427083Y-102600692D01*
X152429295Y-102600040D01*
X152431364Y-102599037D01*
X152444010Y-102595895D01*
X152456058Y-102588116D01*
X152479632Y-102572894D01*
X152490371Y-102566543D01*
X152527679Y-102546413D01*
X152536527Y-102536842D01*
X152538406Y-102535510D01*
X152540039Y-102533891D01*
X152550987Y-102526821D01*
X152577236Y-102493524D01*
X152585340Y-102484035D01*
X152605196Y-102462556D01*
X152605197Y-102462554D01*
X152614117Y-102452905D01*
X152619388Y-102440984D01*
X152620732Y-102439117D01*
X152621753Y-102437055D01*
X152629822Y-102426819D01*
X152643867Y-102386824D01*
X152648462Y-102375217D01*
X152649636Y-102372563D01*
X152665606Y-102336439D01*
X152666730Y-102323458D01*
X152668068Y-102319049D01*
X152668701Y-102316109D01*
X152672015Y-102306672D01*
X152672500Y-102301072D01*
X152672500Y-102263715D01*
X152673093Y-102249995D01*
X152675460Y-102222669D01*
X152675460Y-102222668D01*
X152676594Y-102209574D01*
X152673425Y-102196817D01*
X152672990Y-102191290D01*
X152672500Y-102178814D01*
X152672500Y-95711786D01*
X165693168Y-95711786D01*
X165705722Y-95973153D01*
X165756771Y-96229793D01*
X165845193Y-96476068D01*
X165847985Y-96481264D01*
X165963036Y-96695383D01*
X165969046Y-96706569D01*
X166125608Y-96916231D01*
X166129794Y-96920380D01*
X166129796Y-96920383D01*
X166307256Y-97096302D01*
X166307261Y-97096306D01*
X166311440Y-97100449D01*
X166423281Y-97182454D01*
X166517702Y-97251686D01*
X166517706Y-97251688D01*
X166522461Y-97255175D01*
X166527677Y-97257919D01*
X166527683Y-97257923D01*
X166748814Y-97374266D01*
X166748818Y-97374268D01*
X166754034Y-97377012D01*
X166759604Y-97378957D01*
X166987037Y-97458380D01*
X167001071Y-97463281D01*
X167258147Y-97512089D01*
X167264049Y-97512321D01*
X167264050Y-97512321D01*
X167306600Y-97513993D01*
X167519613Y-97522362D01*
X167779725Y-97493875D01*
X167785425Y-97492374D01*
X167785432Y-97492373D01*
X168027066Y-97428755D01*
X168027069Y-97428754D01*
X168032770Y-97427253D01*
X168273188Y-97323962D01*
X168278203Y-97320858D01*
X168278208Y-97320856D01*
X168403981Y-97243025D01*
X168495698Y-97186269D01*
X168500201Y-97182457D01*
X168500205Y-97182454D01*
X168690912Y-97021008D01*
X168690914Y-97021006D01*
X168695411Y-97017199D01*
X168867941Y-96820467D01*
X169009496Y-96600394D01*
X169116968Y-96361815D01*
X169187995Y-96109972D01*
X169221018Y-95850396D01*
X169223437Y-95758000D01*
X169220003Y-95711786D01*
X174693168Y-95711786D01*
X174705722Y-95973153D01*
X174756771Y-96229793D01*
X174845193Y-96476068D01*
X174847985Y-96481264D01*
X174963036Y-96695383D01*
X174969046Y-96706569D01*
X175125608Y-96916231D01*
X175129794Y-96920380D01*
X175129796Y-96920383D01*
X175307256Y-97096302D01*
X175307261Y-97096306D01*
X175311440Y-97100449D01*
X175423281Y-97182454D01*
X175517702Y-97251686D01*
X175517706Y-97251688D01*
X175522461Y-97255175D01*
X175527677Y-97257919D01*
X175527683Y-97257923D01*
X175748814Y-97374266D01*
X175748818Y-97374268D01*
X175754034Y-97377012D01*
X175759604Y-97378957D01*
X175987037Y-97458380D01*
X176001071Y-97463281D01*
X176258147Y-97512089D01*
X176264049Y-97512321D01*
X176264050Y-97512321D01*
X176306600Y-97513993D01*
X176519613Y-97522362D01*
X176779725Y-97493875D01*
X176785425Y-97492374D01*
X176785432Y-97492373D01*
X177027066Y-97428755D01*
X177027069Y-97428754D01*
X177032770Y-97427253D01*
X177273188Y-97323962D01*
X177278203Y-97320858D01*
X177278208Y-97320856D01*
X177403981Y-97243025D01*
X177495698Y-97186269D01*
X177500201Y-97182457D01*
X177500205Y-97182454D01*
X177690912Y-97021008D01*
X177690914Y-97021006D01*
X177695411Y-97017199D01*
X177867941Y-96820467D01*
X178009496Y-96600394D01*
X178116968Y-96361815D01*
X178187995Y-96109972D01*
X178221018Y-95850396D01*
X178223437Y-95758000D01*
X178204045Y-95497052D01*
X178193695Y-95451309D01*
X178147600Y-95247597D01*
X178147598Y-95247592D01*
X178146296Y-95241836D01*
X178051457Y-94997960D01*
X178027766Y-94956508D01*
X177924545Y-94775908D01*
X177924544Y-94775907D01*
X177921614Y-94770780D01*
X177759617Y-94565288D01*
X177569026Y-94385998D01*
X177354027Y-94236848D01*
X177246174Y-94183661D01*
X177124631Y-94123722D01*
X177124628Y-94123721D01*
X177119344Y-94121115D01*
X177113732Y-94119318D01*
X177113728Y-94119317D01*
X176875747Y-94043139D01*
X176875746Y-94043139D01*
X176870133Y-94041342D01*
X176817628Y-94032791D01*
X176617697Y-94000230D01*
X176617693Y-94000230D01*
X176611868Y-93999281D01*
X176481046Y-93997569D01*
X176356129Y-93995933D01*
X176356125Y-93995933D01*
X176350223Y-93995856D01*
X176252756Y-94009121D01*
X176096785Y-94030347D01*
X176096782Y-94030348D01*
X176090945Y-94031142D01*
X176085292Y-94032790D01*
X176085286Y-94032791D01*
X175965338Y-94067753D01*
X175839731Y-94104364D01*
X175834383Y-94106830D01*
X175834379Y-94106831D01*
X175607458Y-94211443D01*
X175607453Y-94211446D01*
X175602099Y-94213914D01*
X175597166Y-94217148D01*
X175597161Y-94217151D01*
X175392421Y-94351385D01*
X175383270Y-94357385D01*
X175378867Y-94361314D01*
X175378868Y-94361314D01*
X175199178Y-94521693D01*
X175188051Y-94531624D01*
X175020730Y-94732806D01*
X174884984Y-94956508D01*
X174783794Y-95197819D01*
X174782343Y-95203531D01*
X174782343Y-95203532D01*
X174774139Y-95235836D01*
X174719384Y-95451435D01*
X174714791Y-95497052D01*
X174694363Y-95699923D01*
X174693168Y-95711786D01*
X169220003Y-95711786D01*
X169204045Y-95497052D01*
X169193695Y-95451309D01*
X169147600Y-95247597D01*
X169147598Y-95247592D01*
X169146296Y-95241836D01*
X169051457Y-94997960D01*
X169027766Y-94956508D01*
X168924545Y-94775908D01*
X168924544Y-94775907D01*
X168921614Y-94770780D01*
X168759617Y-94565288D01*
X168569026Y-94385998D01*
X168354027Y-94236848D01*
X168246174Y-94183661D01*
X168124631Y-94123722D01*
X168124628Y-94123721D01*
X168119344Y-94121115D01*
X168113732Y-94119318D01*
X168113728Y-94119317D01*
X167875747Y-94043139D01*
X167875746Y-94043139D01*
X167870133Y-94041342D01*
X167817628Y-94032791D01*
X167617697Y-94000230D01*
X167617693Y-94000230D01*
X167611868Y-93999281D01*
X167481046Y-93997569D01*
X167356129Y-93995933D01*
X167356125Y-93995933D01*
X167350223Y-93995856D01*
X167252756Y-94009121D01*
X167096785Y-94030347D01*
X167096782Y-94030348D01*
X167090945Y-94031142D01*
X167085292Y-94032790D01*
X167085286Y-94032791D01*
X166965338Y-94067753D01*
X166839731Y-94104364D01*
X166834383Y-94106830D01*
X166834379Y-94106831D01*
X166607458Y-94211443D01*
X166607453Y-94211446D01*
X166602099Y-94213914D01*
X166597166Y-94217148D01*
X166597161Y-94217151D01*
X166392421Y-94351385D01*
X166383270Y-94357385D01*
X166378867Y-94361314D01*
X166378868Y-94361314D01*
X166199178Y-94521693D01*
X166188051Y-94531624D01*
X166020730Y-94732806D01*
X165884984Y-94956508D01*
X165783794Y-95197819D01*
X165782343Y-95203531D01*
X165782343Y-95203532D01*
X165774139Y-95235836D01*
X165719384Y-95451435D01*
X165714791Y-95497052D01*
X165694363Y-95699923D01*
X165693168Y-95711786D01*
X152672500Y-95711786D01*
X152672500Y-81771600D01*
X152673088Y-81757943D01*
X152675453Y-81730512D01*
X152676582Y-81717416D01*
X152669591Y-81689321D01*
X152666370Y-81676374D01*
X152663823Y-81664089D01*
X152659039Y-81635345D01*
X152659038Y-81635343D01*
X152656881Y-81622382D01*
X152650665Y-81610861D01*
X152650008Y-81608635D01*
X152648995Y-81606547D01*
X152645834Y-81593844D01*
X152638701Y-81582807D01*
X152638700Y-81582804D01*
X152622880Y-81558324D01*
X152616491Y-81547526D01*
X152602654Y-81521882D01*
X152596413Y-81510315D01*
X152586800Y-81501429D01*
X152585457Y-81499535D01*
X152583823Y-81497888D01*
X152576718Y-81486894D01*
X152557170Y-81471496D01*
X152543493Y-81460722D01*
X152533956Y-81452580D01*
X152502905Y-81423877D01*
X152490934Y-81418585D01*
X152489047Y-81417226D01*
X152486966Y-81416197D01*
X152476685Y-81408098D01*
X152436781Y-81394103D01*
X152425119Y-81389488D01*
X152398459Y-81377702D01*
X152386439Y-81372388D01*
X152373397Y-81371258D01*
X152368892Y-81369893D01*
X152366795Y-81369442D01*
X152366758Y-81369433D01*
X152366741Y-81369431D01*
X152365958Y-81369263D01*
X152356521Y-81365953D01*
X152350921Y-81365470D01*
X152347499Y-81365471D01*
X152347492Y-81365471D01*
X152313667Y-81365484D01*
X152299890Y-81364891D01*
X152272672Y-81362534D01*
X152272670Y-81362534D01*
X152259574Y-81361400D01*
X152246817Y-81364569D01*
X152240975Y-81365029D01*
X152228569Y-81365519D01*
X149363678Y-81366648D01*
X147718277Y-81367296D01*
X147644378Y-81349113D01*
X147587395Y-81298670D01*
X147560428Y-81227905D01*
X147512441Y-80841776D01*
X147512439Y-80841764D01*
X147512033Y-80838497D01*
X147418247Y-80390440D01*
X147287771Y-79951661D01*
X147121498Y-79525159D01*
X146920565Y-79113848D01*
X146918881Y-79111020D01*
X146688019Y-78723353D01*
X146688017Y-78723349D01*
X146686343Y-78720539D01*
X146420435Y-78347922D01*
X146124657Y-77998542D01*
X145801030Y-77674787D01*
X145451768Y-77378870D01*
X145079256Y-77112814D01*
X144686041Y-76878436D01*
X144274810Y-76677339D01*
X143848374Y-76510897D01*
X143845239Y-76509964D01*
X143845232Y-76509961D01*
X143412804Y-76381187D01*
X143412794Y-76381185D01*
X143409646Y-76380247D01*
X142961627Y-76286283D01*
X142958372Y-76285877D01*
X142958365Y-76285876D01*
X142510635Y-76230052D01*
X142510627Y-76230051D01*
X142507376Y-76229646D01*
X142504105Y-76229511D01*
X142504097Y-76229510D01*
X142053287Y-76210860D01*
X142050000Y-76210724D01*
X142046713Y-76210860D01*
X141595903Y-76229510D01*
X141595895Y-76229511D01*
X141592624Y-76229646D01*
X141589373Y-76230051D01*
X141589365Y-76230052D01*
X141141635Y-76285876D01*
X141141628Y-76285877D01*
X141138373Y-76286283D01*
X140690354Y-76380247D01*
X140687206Y-76381185D01*
X140687196Y-76381187D01*
X140254768Y-76509961D01*
X140254761Y-76509964D01*
X140251626Y-76510897D01*
X139825190Y-76677339D01*
X139413959Y-76878436D01*
X139020744Y-77112814D01*
X138648232Y-77378870D01*
X138298970Y-77674787D01*
X137975343Y-77998542D01*
X137679565Y-78347922D01*
X137413657Y-78720539D01*
X137411983Y-78723349D01*
X137411981Y-78723353D01*
X137181119Y-79111020D01*
X137179435Y-79113848D01*
X136978502Y-79525159D01*
X136812229Y-79951661D01*
X136681753Y-80390440D01*
X136587967Y-80838497D01*
X136587561Y-80841764D01*
X136587559Y-80841776D01*
X136539572Y-81227905D01*
X136512386Y-81298986D01*
X136455281Y-81349291D01*
X136381724Y-81367296D01*
X133786002Y-81366278D01*
X131813759Y-81365504D01*
X131800117Y-81364911D01*
X131776845Y-81362896D01*
X131772668Y-81362534D01*
X131759574Y-81361400D01*
X131720699Y-81371057D01*
X131718533Y-81371595D01*
X131706246Y-81374138D01*
X131664532Y-81381064D01*
X131653008Y-81387276D01*
X131650778Y-81387933D01*
X131648693Y-81388944D01*
X131635990Y-81392099D01*
X131624952Y-81399226D01*
X131624948Y-81399228D01*
X131600452Y-81415045D01*
X131589654Y-81421428D01*
X131552441Y-81441488D01*
X131543553Y-81451096D01*
X131541657Y-81452439D01*
X131540009Y-81454073D01*
X131529013Y-81461173D01*
X131520876Y-81471496D01*
X131520875Y-81471496D01*
X131502836Y-81494378D01*
X131494687Y-81503916D01*
X131474892Y-81525314D01*
X131474891Y-81525316D01*
X131465967Y-81534962D01*
X131460670Y-81546931D01*
X131459311Y-81548816D01*
X131458281Y-81550896D01*
X131450178Y-81561175D01*
X131445823Y-81573575D01*
X131445823Y-81573576D01*
X131436164Y-81601079D01*
X131431543Y-81612744D01*
X131419750Y-81639390D01*
X131419749Y-81639395D01*
X131414432Y-81651408D01*
X131413297Y-81664449D01*
X131411930Y-81668953D01*
X131411478Y-81671051D01*
X131411470Y-81671084D01*
X131411468Y-81671100D01*
X131411299Y-81671884D01*
X131407985Y-81681322D01*
X131407500Y-81686922D01*
X131407500Y-81724168D01*
X131406902Y-81737951D01*
X131403394Y-81778268D01*
X101674500Y-81778268D01*
X101674500Y-61837935D01*
X117601354Y-61837935D01*
X117601604Y-61847167D01*
X117603442Y-61915097D01*
X117603500Y-61919398D01*
X117603500Y-78784405D01*
X117604034Y-78788983D01*
X117604034Y-78788988D01*
X117610159Y-78841520D01*
X117618859Y-78916144D01*
X117622010Y-78924825D01*
X117622011Y-78924829D01*
X117648544Y-78997923D01*
X117679367Y-79082839D01*
X117776599Y-79231143D01*
X117905341Y-79353102D01*
X118058687Y-79442172D01*
X118067526Y-79444849D01*
X118067528Y-79444850D01*
X118219573Y-79490900D01*
X118219577Y-79490901D01*
X118228410Y-79493576D01*
X118237624Y-79494148D01*
X118237626Y-79494148D01*
X118345539Y-79500843D01*
X118405407Y-79504557D01*
X118414508Y-79502993D01*
X118414511Y-79502993D01*
X118517177Y-79485351D01*
X118580182Y-79474525D01*
X118656216Y-79442172D01*
X118734859Y-79408709D01*
X118734861Y-79408708D01*
X118743361Y-79405091D01*
X118814007Y-79353102D01*
X118878753Y-79305454D01*
X118886190Y-79299981D01*
X119001008Y-79164832D01*
X119081655Y-79006894D01*
X119123806Y-78834639D01*
X119124500Y-78823452D01*
X119124500Y-64098334D01*
X123897562Y-64098334D01*
X123899520Y-64110694D01*
X123899520Y-64110698D01*
X123900391Y-64116194D01*
X123902350Y-64141001D01*
X123906651Y-73555087D01*
X123904693Y-73580037D01*
X123903860Y-73585297D01*
X123901902Y-73597658D01*
X123903253Y-73606189D01*
X123903859Y-73615438D01*
X123903859Y-73615445D01*
X123915409Y-73791722D01*
X123918828Y-73843898D01*
X123919843Y-73849000D01*
X123919843Y-73849002D01*
X123965948Y-74080811D01*
X123966965Y-74085924D01*
X124046280Y-74319597D01*
X124155418Y-74540918D01*
X124224456Y-74644246D01*
X124289617Y-74741771D01*
X124289622Y-74741777D01*
X124292510Y-74746100D01*
X124455211Y-74931633D01*
X124640737Y-75094342D01*
X124645056Y-75097228D01*
X124841595Y-75228558D01*
X124841599Y-75228560D01*
X124845913Y-75231443D01*
X124850568Y-75233739D01*
X124850572Y-75233741D01*
X125062564Y-75338288D01*
X125067230Y-75340589D01*
X125300899Y-75419915D01*
X125306001Y-75420930D01*
X125306005Y-75420931D01*
X125386986Y-75437041D01*
X125542924Y-75468062D01*
X125781310Y-75483691D01*
X125789162Y-75484935D01*
X125806913Y-75482124D01*
X125831782Y-75480167D01*
X158756547Y-75480167D01*
X158781422Y-75482125D01*
X158786804Y-75482978D01*
X158786807Y-75482978D01*
X158799162Y-75484935D01*
X158806982Y-75483697D01*
X158817482Y-75483009D01*
X159040208Y-75468415D01*
X159040212Y-75468414D01*
X159045408Y-75468074D01*
X159050518Y-75467058D01*
X159050523Y-75467057D01*
X159282334Y-75420950D01*
X159282337Y-75420949D01*
X159287441Y-75419934D01*
X159292426Y-75418242D01*
X159516189Y-75342288D01*
X159516196Y-75342285D01*
X159521119Y-75340614D01*
X159742445Y-75231470D01*
X159791390Y-75198766D01*
X159943298Y-75097266D01*
X159943303Y-75097262D01*
X159947630Y-75094371D01*
X160133165Y-74931662D01*
X160295873Y-74746127D01*
X160432972Y-74540941D01*
X160542115Y-74319616D01*
X160621435Y-74085937D01*
X160642529Y-73979884D01*
X160668557Y-73849019D01*
X160668558Y-73849014D01*
X160669574Y-73843904D01*
X160685194Y-73605511D01*
X160686438Y-73597658D01*
X160683628Y-73579919D01*
X160681670Y-73555042D01*
X160681671Y-64140278D01*
X160683628Y-64115409D01*
X160684482Y-64110018D01*
X160684482Y-64110016D01*
X160686439Y-64097658D01*
X160685301Y-64090474D01*
X160669627Y-63851412D01*
X160621478Y-63609380D01*
X160542150Y-63375703D01*
X160432999Y-63154380D01*
X160295894Y-62949196D01*
X160258774Y-62906870D01*
X160136612Y-62767578D01*
X160136610Y-62767576D01*
X160133180Y-62763665D01*
X159947642Y-62600958D01*
X159742453Y-62463862D01*
X159665706Y-62426016D01*
X159564216Y-62375969D01*
X159521125Y-62354720D01*
X159364495Y-62301555D01*
X159292369Y-62277073D01*
X159292364Y-62277072D01*
X159287445Y-62275402D01*
X159053857Y-62228943D01*
X159050514Y-62228278D01*
X159050512Y-62228278D01*
X159045410Y-62227263D01*
X159040225Y-62226923D01*
X159040223Y-62226923D01*
X158817745Y-62212345D01*
X158807016Y-62211642D01*
X158799164Y-62210399D01*
X158786810Y-62212356D01*
X158786803Y-62212356D01*
X158781414Y-62213210D01*
X158756543Y-62215168D01*
X142293972Y-62215497D01*
X125827452Y-62215827D01*
X125802573Y-62213868D01*
X125797201Y-62213017D01*
X125797198Y-62213017D01*
X125784838Y-62211059D01*
X125776954Y-62212308D01*
X125675278Y-62218970D01*
X125543792Y-62227585D01*
X125543787Y-62227586D01*
X125538593Y-62227926D01*
X125533483Y-62228942D01*
X125533478Y-62228943D01*
X125301661Y-62275051D01*
X125301655Y-62275053D01*
X125296560Y-62276066D01*
X125291641Y-62277736D01*
X125291640Y-62277736D01*
X125067804Y-62353714D01*
X125067796Y-62353717D01*
X125062883Y-62355385D01*
X125058221Y-62357684D01*
X124846218Y-62462229D01*
X124846212Y-62462232D01*
X124841557Y-62464528D01*
X124796232Y-62494813D01*
X124640704Y-62598732D01*
X124640699Y-62598736D01*
X124636372Y-62601627D01*
X124450838Y-62764335D01*
X124288129Y-62949869D01*
X124285238Y-62954196D01*
X124285234Y-62954201D01*
X124183734Y-63106109D01*
X124151030Y-63155054D01*
X124041887Y-63376379D01*
X124040216Y-63381302D01*
X124040213Y-63381309D01*
X123986716Y-63538913D01*
X123962567Y-63610057D01*
X123961552Y-63615161D01*
X123961551Y-63615164D01*
X123915579Y-63846297D01*
X123914427Y-63852089D01*
X123898806Y-64090482D01*
X123897562Y-64098334D01*
X119124500Y-64098334D01*
X119124500Y-62286869D01*
X119142712Y-62212978D01*
X119171070Y-62174439D01*
X119552476Y-61793033D01*
X121034685Y-61793033D01*
X121035736Y-61802553D01*
X121035736Y-61802556D01*
X121048161Y-61915097D01*
X121052228Y-61951933D01*
X121107168Y-62102063D01*
X121112511Y-62110015D01*
X121112512Y-62110016D01*
X121187097Y-62221009D01*
X121196333Y-62234754D01*
X121314575Y-62342346D01*
X121322991Y-62346915D01*
X121322993Y-62346917D01*
X121446645Y-62414055D01*
X121446647Y-62414056D01*
X121455068Y-62418628D01*
X121609702Y-62459195D01*
X121619281Y-62459345D01*
X121619285Y-62459346D01*
X121693405Y-62460510D01*
X121769548Y-62461706D01*
X121779853Y-62459346D01*
X121827829Y-62448358D01*
X121925380Y-62426016D01*
X122068200Y-62354185D01*
X122161631Y-62274387D01*
X122182470Y-62256589D01*
X122182471Y-62256588D01*
X122189763Y-62250360D01*
X122283052Y-62120535D01*
X122342680Y-61972206D01*
X122365205Y-61813934D01*
X122365351Y-61800000D01*
X122346145Y-61641292D01*
X122343024Y-61633033D01*
X122904685Y-61633033D01*
X122905736Y-61642553D01*
X122905736Y-61642556D01*
X122909137Y-61673362D01*
X122922228Y-61791933D01*
X122977168Y-61942063D01*
X122982511Y-61950015D01*
X122982512Y-61950016D01*
X123053500Y-62055656D01*
X123066333Y-62074754D01*
X123184575Y-62182346D01*
X123192991Y-62186915D01*
X123192993Y-62186917D01*
X123316645Y-62254055D01*
X123316647Y-62254056D01*
X123325068Y-62258628D01*
X123395377Y-62277073D01*
X123432718Y-62286869D01*
X123479702Y-62299195D01*
X123489281Y-62299345D01*
X123489285Y-62299346D01*
X123563405Y-62300510D01*
X123639548Y-62301706D01*
X123649853Y-62299346D01*
X123747102Y-62277073D01*
X123795380Y-62266016D01*
X123938200Y-62194185D01*
X124024928Y-62120112D01*
X124052470Y-62096589D01*
X124052471Y-62096588D01*
X124059763Y-62090360D01*
X124153052Y-61960535D01*
X124212680Y-61812206D01*
X124235205Y-61653934D01*
X124235351Y-61640000D01*
X124216145Y-61481292D01*
X124171308Y-61362635D01*
X124163022Y-61340706D01*
X124163021Y-61340704D01*
X124159636Y-61331746D01*
X124128611Y-61286603D01*
X124074514Y-61207891D01*
X124074513Y-61207890D01*
X124069087Y-61199995D01*
X124045344Y-61178841D01*
X123956880Y-61100022D01*
X123956876Y-61100019D01*
X123949725Y-61093648D01*
X123808440Y-61018841D01*
X123653391Y-60979895D01*
X123573458Y-60979476D01*
X123503107Y-60979108D01*
X123503106Y-60979108D01*
X123493526Y-60979058D01*
X123445131Y-60990677D01*
X123347397Y-61014140D01*
X123347393Y-61014141D01*
X123338077Y-61016378D01*
X123329562Y-61020773D01*
X123329559Y-61020774D01*
X123242097Y-61065917D01*
X123196017Y-61089701D01*
X123188798Y-61095999D01*
X123188796Y-61096000D01*
X123093834Y-61178841D01*
X123075548Y-61194793D01*
X122983624Y-61325588D01*
X122980142Y-61334520D01*
X122980141Y-61334521D01*
X122951855Y-61407070D01*
X122925552Y-61474534D01*
X122904685Y-61633033D01*
X122343024Y-61633033D01*
X122300002Y-61519178D01*
X122293022Y-61500706D01*
X122293021Y-61500704D01*
X122289636Y-61491746D01*
X122282452Y-61481292D01*
X122204514Y-61367891D01*
X122204513Y-61367890D01*
X122199087Y-61359995D01*
X122183401Y-61346019D01*
X122086880Y-61260022D01*
X122086876Y-61260019D01*
X122079725Y-61253648D01*
X121938440Y-61178841D01*
X121783391Y-61139895D01*
X121703458Y-61139476D01*
X121633107Y-61139108D01*
X121633106Y-61139108D01*
X121623526Y-61139058D01*
X121575131Y-61150677D01*
X121477397Y-61174140D01*
X121477393Y-61174141D01*
X121468077Y-61176378D01*
X121459562Y-61180773D01*
X121459559Y-61180774D01*
X121379109Y-61222298D01*
X121326017Y-61249701D01*
X121318798Y-61255999D01*
X121318796Y-61256000D01*
X121248018Y-61317744D01*
X121205548Y-61354793D01*
X121113624Y-61485588D01*
X121110142Y-61494520D01*
X121110141Y-61494521D01*
X121059841Y-61623534D01*
X121055552Y-61634534D01*
X121034685Y-61793033D01*
X119552476Y-61793033D01*
X120818440Y-60527070D01*
X120883567Y-60487699D01*
X120930870Y-60480500D01*
X125839131Y-60480500D01*
X125913022Y-60498712D01*
X125951560Y-60527070D01*
X126242951Y-60818461D01*
X126258581Y-60836649D01*
X126264541Y-60844748D01*
X126264547Y-60844755D01*
X126270019Y-60852190D01*
X126277057Y-60858169D01*
X126309379Y-60885629D01*
X126318863Y-60894373D01*
X126323644Y-60899154D01*
X126345573Y-60916504D01*
X126349808Y-60919977D01*
X126405168Y-60967008D01*
X126413393Y-60971208D01*
X126416445Y-60973243D01*
X126416855Y-60973541D01*
X126417292Y-60973787D01*
X126420413Y-60975714D01*
X126427658Y-60981447D01*
X126436029Y-60985359D01*
X126493456Y-61012198D01*
X126498405Y-61014616D01*
X126563106Y-61047655D01*
X126572083Y-61049851D01*
X126575513Y-61051127D01*
X126575985Y-61051325D01*
X126576465Y-61051463D01*
X126579952Y-61052623D01*
X126588315Y-61056532D01*
X126590800Y-61057049D01*
X126652424Y-61095928D01*
X126667713Y-61114424D01*
X126739744Y-61216345D01*
X126739749Y-61216350D01*
X126743952Y-61222298D01*
X126890146Y-61364714D01*
X127059845Y-61478104D01*
X127066546Y-61480983D01*
X127066548Y-61480984D01*
X127214406Y-61544508D01*
X127247367Y-61558669D01*
X127254479Y-61560278D01*
X127254481Y-61560279D01*
X127439313Y-61602103D01*
X127439318Y-61602104D01*
X127446430Y-61603713D01*
X127561869Y-61608249D01*
X127643080Y-61611440D01*
X127643084Y-61611440D01*
X127650368Y-61611726D01*
X127755812Y-61596437D01*
X127845140Y-61583485D01*
X127845143Y-61583484D01*
X127852352Y-61582439D01*
X128045616Y-61516835D01*
X128223689Y-61417110D01*
X128229290Y-61412452D01*
X128229294Y-61412449D01*
X128375003Y-61291263D01*
X128380606Y-61286603D01*
X128406058Y-61256000D01*
X128506452Y-61135291D01*
X128506455Y-61135287D01*
X128511113Y-61129686D01*
X128610838Y-60951613D01*
X128676442Y-60758349D01*
X128688896Y-60672462D01*
X128705056Y-60561007D01*
X128705056Y-60561006D01*
X128705729Y-60556365D01*
X128705827Y-60552614D01*
X128722546Y-60503294D01*
X128720254Y-60497002D01*
X129002487Y-60497002D01*
X129021235Y-60541574D01*
X129022837Y-60555945D01*
X129030474Y-60672462D01*
X129032267Y-60679522D01*
X129078918Y-60863215D01*
X129078920Y-60863220D01*
X129080712Y-60870277D01*
X129083760Y-60876889D01*
X129083762Y-60876894D01*
X129128431Y-60973787D01*
X129166159Y-61055625D01*
X129170361Y-61061571D01*
X129170363Y-61061574D01*
X129193031Y-61093648D01*
X129283952Y-61222298D01*
X129430146Y-61364714D01*
X129599845Y-61478104D01*
X129606546Y-61480983D01*
X129606548Y-61480984D01*
X129754406Y-61544508D01*
X129787367Y-61558669D01*
X129794479Y-61560278D01*
X129794481Y-61560279D01*
X129979313Y-61602103D01*
X129979318Y-61602104D01*
X129986430Y-61603713D01*
X130101869Y-61608249D01*
X130183080Y-61611440D01*
X130183084Y-61611440D01*
X130190368Y-61611726D01*
X130295812Y-61596437D01*
X130385140Y-61583485D01*
X130385143Y-61583484D01*
X130392352Y-61582439D01*
X130585616Y-61516835D01*
X130763689Y-61417110D01*
X130769290Y-61412452D01*
X130769294Y-61412449D01*
X130915003Y-61291263D01*
X130920606Y-61286603D01*
X130946058Y-61256000D01*
X131046452Y-61135291D01*
X131046455Y-61135287D01*
X131051113Y-61129686D01*
X131150838Y-60951613D01*
X131216442Y-60758349D01*
X131228896Y-60672462D01*
X131245056Y-60561007D01*
X131245056Y-60561006D01*
X131245729Y-60556365D01*
X131245827Y-60552614D01*
X131262546Y-60503294D01*
X131260254Y-60497002D01*
X131542487Y-60497002D01*
X131561235Y-60541574D01*
X131562837Y-60555945D01*
X131570474Y-60672462D01*
X131572267Y-60679522D01*
X131618918Y-60863215D01*
X131618920Y-60863220D01*
X131620712Y-60870277D01*
X131623760Y-60876889D01*
X131623762Y-60876894D01*
X131668431Y-60973787D01*
X131706159Y-61055625D01*
X131710361Y-61061571D01*
X131710363Y-61061574D01*
X131733031Y-61093648D01*
X131823952Y-61222298D01*
X131970146Y-61364714D01*
X132139845Y-61478104D01*
X132146546Y-61480983D01*
X132146548Y-61480984D01*
X132294406Y-61544508D01*
X132327367Y-61558669D01*
X132334479Y-61560278D01*
X132334481Y-61560279D01*
X132519313Y-61602103D01*
X132519318Y-61602104D01*
X132526430Y-61603713D01*
X132641869Y-61608249D01*
X132723080Y-61611440D01*
X132723084Y-61611440D01*
X132730368Y-61611726D01*
X132835812Y-61596437D01*
X132925140Y-61583485D01*
X132925143Y-61583484D01*
X132932352Y-61582439D01*
X133125616Y-61516835D01*
X133303689Y-61417110D01*
X133309290Y-61412452D01*
X133309294Y-61412449D01*
X133455003Y-61291263D01*
X133460606Y-61286603D01*
X133486058Y-61256000D01*
X133586452Y-61135291D01*
X133586455Y-61135287D01*
X133591113Y-61129686D01*
X133690838Y-60951613D01*
X133756442Y-60758349D01*
X133756634Y-60757027D01*
X134140413Y-60757027D01*
X134141005Y-60766273D01*
X134165071Y-60861037D01*
X134169915Y-60874716D01*
X134248763Y-61045747D01*
X134256017Y-61058311D01*
X134364707Y-61212106D01*
X134374139Y-61223149D01*
X134509030Y-61354553D01*
X134520314Y-61363691D01*
X134676903Y-61468321D01*
X134689655Y-61475244D01*
X134862685Y-61549584D01*
X134876498Y-61554072D01*
X134939169Y-61568253D01*
X134955487Y-61567941D01*
X134956751Y-61566033D01*
X134958000Y-61558830D01*
X134958000Y-61557488D01*
X135466000Y-61557488D01*
X135469905Y-61573333D01*
X135473612Y-61574739D01*
X135477732Y-61573750D01*
X135656058Y-61513215D01*
X135669321Y-61507310D01*
X135833636Y-61415290D01*
X135845596Y-61407070D01*
X135990382Y-61286653D01*
X136000656Y-61276379D01*
X136121073Y-61131593D01*
X136129293Y-61119633D01*
X136221313Y-60955318D01*
X136227218Y-60942055D01*
X136287404Y-60764755D01*
X136286434Y-60754861D01*
X136281594Y-60752175D01*
X136280254Y-60751997D01*
X135485305Y-60751997D01*
X135469460Y-60755902D01*
X135466000Y-60765026D01*
X135466000Y-61557488D01*
X134958000Y-61557488D01*
X134958000Y-60771302D01*
X134954095Y-60755457D01*
X134944971Y-60751997D01*
X134156684Y-60751997D01*
X134140839Y-60755902D01*
X134140413Y-60757027D01*
X133756634Y-60757027D01*
X133767872Y-60679522D01*
X133785057Y-60561003D01*
X133785058Y-60560995D01*
X133785729Y-60556365D01*
X133787257Y-60497997D01*
X133784574Y-60468803D01*
X136637125Y-60468803D01*
X136637601Y-60476066D01*
X136637601Y-60476068D01*
X136639085Y-60498712D01*
X136650474Y-60672462D01*
X136652267Y-60679522D01*
X136698918Y-60863215D01*
X136698920Y-60863220D01*
X136700712Y-60870277D01*
X136703760Y-60876889D01*
X136703762Y-60876894D01*
X136748431Y-60973787D01*
X136786159Y-61055625D01*
X136790361Y-61061571D01*
X136790363Y-61061574D01*
X136813031Y-61093648D01*
X136903952Y-61222298D01*
X137050146Y-61364714D01*
X137219845Y-61478104D01*
X137226546Y-61480983D01*
X137226548Y-61480984D01*
X137374406Y-61544508D01*
X137407367Y-61558669D01*
X137414479Y-61560278D01*
X137414481Y-61560279D01*
X137599313Y-61602103D01*
X137599318Y-61602104D01*
X137606430Y-61603713D01*
X137721869Y-61608249D01*
X137803080Y-61611440D01*
X137803084Y-61611440D01*
X137810368Y-61611726D01*
X137915812Y-61596437D01*
X138005140Y-61583485D01*
X138005143Y-61583484D01*
X138012352Y-61582439D01*
X138205616Y-61516835D01*
X138383689Y-61417110D01*
X138389290Y-61412452D01*
X138389294Y-61412449D01*
X138535003Y-61291263D01*
X138540606Y-61286603D01*
X138566058Y-61256000D01*
X138666452Y-61135291D01*
X138666455Y-61135287D01*
X138671113Y-61129686D01*
X138770838Y-60951613D01*
X138836442Y-60758349D01*
X138848896Y-60672462D01*
X138865146Y-60560386D01*
X138881341Y-60520496D01*
X139164080Y-60520496D01*
X139180742Y-60567698D01*
X139181500Y-60583202D01*
X139181500Y-61373651D01*
X139196615Y-61449639D01*
X139212925Y-61474049D01*
X139230737Y-61500706D01*
X139254190Y-61535807D01*
X139340358Y-61593382D01*
X139416346Y-61608497D01*
X141167654Y-61608497D01*
X141243642Y-61593382D01*
X141329810Y-61535807D01*
X141353264Y-61500706D01*
X141371075Y-61474049D01*
X141387385Y-61449639D01*
X141402500Y-61373651D01*
X141402500Y-59622343D01*
X141387385Y-59546355D01*
X141350654Y-59491382D01*
X141338511Y-59473209D01*
X141329810Y-59460187D01*
X141243642Y-59402612D01*
X141167654Y-59387497D01*
X139416346Y-59387497D01*
X139340358Y-59402612D01*
X139254190Y-59460187D01*
X139245489Y-59473209D01*
X139233346Y-59491382D01*
X139196615Y-59546355D01*
X139181500Y-59622343D01*
X139181500Y-60449820D01*
X139164080Y-60520496D01*
X138881341Y-60520496D01*
X138883043Y-60516304D01*
X138868120Y-60487871D01*
X138864167Y-60464369D01*
X138849249Y-60302017D01*
X138848582Y-60294758D01*
X138842548Y-60273361D01*
X138795162Y-60105347D01*
X138793182Y-60098325D01*
X138702913Y-59915277D01*
X138580797Y-59751744D01*
X138449256Y-59630149D01*
X138436279Y-59618153D01*
X138436278Y-59618152D01*
X138430925Y-59613204D01*
X138258316Y-59504296D01*
X138114633Y-59446973D01*
X138075513Y-59431365D01*
X138075511Y-59431365D01*
X138068750Y-59428667D01*
X138061611Y-59427247D01*
X138061608Y-59427246D01*
X137875721Y-59390270D01*
X137875718Y-59390270D01*
X137868576Y-59388849D01*
X137777849Y-59387662D01*
X137671794Y-59386273D01*
X137671789Y-59386273D01*
X137664498Y-59386178D01*
X137463350Y-59420741D01*
X137271869Y-59491382D01*
X137265601Y-59495111D01*
X137265599Y-59495112D01*
X137102737Y-59592005D01*
X137102735Y-59592007D01*
X137096468Y-59595735D01*
X137090985Y-59600544D01*
X137090983Y-59600545D01*
X137057227Y-59630149D01*
X136943021Y-59730305D01*
X136816667Y-59890585D01*
X136721637Y-60071207D01*
X136719478Y-60078160D01*
X136719476Y-60078165D01*
X136711036Y-60105347D01*
X136661114Y-60266122D01*
X136660258Y-60273354D01*
X136660257Y-60273359D01*
X136639491Y-60448813D01*
X136637125Y-60468803D01*
X133784574Y-60468803D01*
X133768582Y-60294758D01*
X133762548Y-60273361D01*
X133753538Y-60241416D01*
X134139570Y-60241416D01*
X134151622Y-60243997D01*
X134938695Y-60243997D01*
X134954540Y-60240092D01*
X134958000Y-60230968D01*
X134958000Y-60224692D01*
X135466000Y-60224692D01*
X135469905Y-60240537D01*
X135479029Y-60243997D01*
X136268208Y-60243997D01*
X136284053Y-60240092D01*
X136284092Y-60239987D01*
X136283230Y-60228809D01*
X136249069Y-60107686D01*
X136243864Y-60094124D01*
X136160572Y-59925226D01*
X136152985Y-59912844D01*
X136040305Y-59761948D01*
X136030600Y-59751169D01*
X135892306Y-59623331D01*
X135880786Y-59614492D01*
X135721513Y-59513998D01*
X135708586Y-59507411D01*
X135533662Y-59437624D01*
X135519752Y-59433504D01*
X135484935Y-59426578D01*
X135468632Y-59427318D01*
X135466843Y-59430179D01*
X135466000Y-59435448D01*
X135466000Y-60224692D01*
X134958000Y-60224692D01*
X134958000Y-59440687D01*
X134954095Y-59424842D01*
X134949929Y-59423262D01*
X134946576Y-59423345D01*
X134932220Y-59425812D01*
X134918204Y-59429568D01*
X134741523Y-59494749D01*
X134728409Y-59501004D01*
X134566574Y-59597286D01*
X134554820Y-59605826D01*
X134413240Y-59729989D01*
X134403241Y-59740526D01*
X134286655Y-59888413D01*
X134278747Y-59900590D01*
X134191062Y-60067251D01*
X134185505Y-60080667D01*
X134140514Y-60225561D01*
X134139570Y-60241416D01*
X133753538Y-60241416D01*
X133715162Y-60105347D01*
X133713182Y-60098325D01*
X133622913Y-59915277D01*
X133500797Y-59751744D01*
X133369256Y-59630149D01*
X133356279Y-59618153D01*
X133356278Y-59618152D01*
X133350925Y-59613204D01*
X133178316Y-59504296D01*
X133034633Y-59446973D01*
X132995513Y-59431365D01*
X132995511Y-59431365D01*
X132988750Y-59428667D01*
X132981611Y-59427247D01*
X132981608Y-59427246D01*
X132795721Y-59390270D01*
X132795718Y-59390270D01*
X132788576Y-59388849D01*
X132697849Y-59387662D01*
X132591794Y-59386273D01*
X132591789Y-59386273D01*
X132584498Y-59386178D01*
X132383350Y-59420741D01*
X132191869Y-59491382D01*
X132185601Y-59495111D01*
X132185599Y-59495112D01*
X132022737Y-59592005D01*
X132022735Y-59592007D01*
X132016468Y-59595735D01*
X132010985Y-59600544D01*
X132010983Y-59600545D01*
X131977227Y-59630149D01*
X131863021Y-59730305D01*
X131736667Y-59890585D01*
X131641637Y-60071207D01*
X131639478Y-60078160D01*
X131639476Y-60078165D01*
X131631036Y-60105347D01*
X131581114Y-60266122D01*
X131580257Y-60273359D01*
X131580257Y-60273361D01*
X131558983Y-60453106D01*
X131542487Y-60497002D01*
X131260254Y-60497002D01*
X131242752Y-60448967D01*
X131229249Y-60302017D01*
X131228582Y-60294758D01*
X131222548Y-60273361D01*
X131175162Y-60105347D01*
X131173182Y-60098325D01*
X131082913Y-59915277D01*
X130960797Y-59751744D01*
X130829256Y-59630149D01*
X130816279Y-59618153D01*
X130816278Y-59618152D01*
X130810925Y-59613204D01*
X130638316Y-59504296D01*
X130494633Y-59446973D01*
X130455513Y-59431365D01*
X130455511Y-59431365D01*
X130448750Y-59428667D01*
X130441611Y-59427247D01*
X130441608Y-59427246D01*
X130255721Y-59390270D01*
X130255718Y-59390270D01*
X130248576Y-59388849D01*
X130157849Y-59387662D01*
X130051794Y-59386273D01*
X130051789Y-59386273D01*
X130044498Y-59386178D01*
X129843350Y-59420741D01*
X129651869Y-59491382D01*
X129645601Y-59495111D01*
X129645599Y-59495112D01*
X129482737Y-59592005D01*
X129482735Y-59592007D01*
X129476468Y-59595735D01*
X129470985Y-59600544D01*
X129470983Y-59600545D01*
X129437227Y-59630149D01*
X129323021Y-59730305D01*
X129196667Y-59890585D01*
X129101637Y-60071207D01*
X129099478Y-60078160D01*
X129099476Y-60078165D01*
X129091036Y-60105347D01*
X129041114Y-60266122D01*
X129040257Y-60273359D01*
X129040257Y-60273361D01*
X129018983Y-60453106D01*
X129002487Y-60497002D01*
X128720254Y-60497002D01*
X128702752Y-60448967D01*
X128689249Y-60302017D01*
X128688582Y-60294758D01*
X128682548Y-60273361D01*
X128635162Y-60105347D01*
X128633182Y-60098325D01*
X128542913Y-59915277D01*
X128420797Y-59751744D01*
X128289256Y-59630149D01*
X128276279Y-59618153D01*
X128276278Y-59618152D01*
X128270925Y-59613204D01*
X128098316Y-59504296D01*
X127954633Y-59446973D01*
X127915513Y-59431365D01*
X127915511Y-59431365D01*
X127908750Y-59428667D01*
X127901611Y-59427247D01*
X127901608Y-59427246D01*
X127715721Y-59390270D01*
X127715718Y-59390270D01*
X127708576Y-59388849D01*
X127617849Y-59387662D01*
X127511794Y-59386273D01*
X127511789Y-59386273D01*
X127504498Y-59386178D01*
X127303350Y-59420741D01*
X127174503Y-59468275D01*
X127098877Y-59476762D01*
X127027967Y-59449132D01*
X127007042Y-59431532D01*
X126807048Y-59231538D01*
X126791417Y-59213349D01*
X126785457Y-59205250D01*
X126785453Y-59205246D01*
X126779981Y-59197810D01*
X126740621Y-59164371D01*
X126731137Y-59155627D01*
X126726356Y-59150846D01*
X126704427Y-59133496D01*
X126700192Y-59130023D01*
X126644832Y-59082992D01*
X126636607Y-59078792D01*
X126633555Y-59076757D01*
X126633145Y-59076459D01*
X126632708Y-59076213D01*
X126629587Y-59074286D01*
X126622342Y-59068553D01*
X126556544Y-59037802D01*
X126551595Y-59035384D01*
X126486894Y-59002345D01*
X126477917Y-59000149D01*
X126474487Y-58998873D01*
X126474023Y-58998679D01*
X126473538Y-58998539D01*
X126470056Y-58997381D01*
X126461685Y-58993468D01*
X126452639Y-58991586D01*
X126452638Y-58991586D01*
X126390592Y-58978680D01*
X126385180Y-58977455D01*
X126321520Y-58961877D01*
X126321511Y-58961876D01*
X126314639Y-58960194D01*
X126303452Y-58959500D01*
X126302547Y-58959500D01*
X126296691Y-58959148D01*
X126288065Y-58957354D01*
X126214534Y-58959344D01*
X126210903Y-58959442D01*
X126206602Y-58959500D01*
X120619711Y-58959500D01*
X120595797Y-58957691D01*
X120595225Y-58957604D01*
X120576722Y-58954789D01*
X120525234Y-58958977D01*
X120512344Y-58959500D01*
X120505595Y-58959500D01*
X120477857Y-58962734D01*
X120472380Y-58963276D01*
X120438750Y-58966012D01*
X120409174Y-58968417D01*
X120409172Y-58968417D01*
X120399969Y-58969166D01*
X120391182Y-58972013D01*
X120387599Y-58972729D01*
X120387089Y-58972810D01*
X120386612Y-58972943D01*
X120383029Y-58973790D01*
X120373856Y-58974859D01*
X120305541Y-58999656D01*
X120300366Y-59001432D01*
X120231264Y-59023819D01*
X120223364Y-59028613D01*
X120220040Y-59030135D01*
X120219561Y-59030331D01*
X120219134Y-59030567D01*
X120215838Y-59032218D01*
X120207161Y-59035367D01*
X120199439Y-59040430D01*
X120146432Y-59075182D01*
X120141739Y-59078143D01*
X120096538Y-59105572D01*
X120079656Y-59115816D01*
X120071255Y-59123236D01*
X120070606Y-59123885D01*
X120066227Y-59127767D01*
X120058857Y-59132599D01*
X120052507Y-59139302D01*
X120052506Y-59139303D01*
X120005762Y-59188647D01*
X120002762Y-59191729D01*
X117875532Y-61318958D01*
X117857348Y-61334585D01*
X117841810Y-61346019D01*
X117823228Y-61367891D01*
X117808371Y-61385379D01*
X117799627Y-61394863D01*
X117794846Y-61399644D01*
X117777496Y-61421573D01*
X117774023Y-61425808D01*
X117726992Y-61481168D01*
X117722792Y-61489393D01*
X117720757Y-61492445D01*
X117720459Y-61492855D01*
X117720213Y-61493292D01*
X117718286Y-61496413D01*
X117712553Y-61503658D01*
X117708641Y-61512029D01*
X117681802Y-61569456D01*
X117679384Y-61574405D01*
X117646345Y-61639106D01*
X117644149Y-61648083D01*
X117642873Y-61651513D01*
X117642679Y-61651977D01*
X117642539Y-61652462D01*
X117641381Y-61655944D01*
X117637468Y-61664315D01*
X117635586Y-61673361D01*
X117635586Y-61673362D01*
X117622680Y-61735408D01*
X117621455Y-61740820D01*
X117605877Y-61804480D01*
X117605876Y-61804489D01*
X117604194Y-61811361D01*
X117603500Y-61822548D01*
X117603500Y-61823453D01*
X117603148Y-61829309D01*
X117601354Y-61837935D01*
X101674500Y-61837935D01*
X101674500Y-58656033D01*
X118212685Y-58656033D01*
X118213736Y-58665553D01*
X118213736Y-58665556D01*
X118229176Y-58805405D01*
X118230228Y-58814933D01*
X118285168Y-58965063D01*
X118290511Y-58973015D01*
X118290512Y-58973016D01*
X118368432Y-59088972D01*
X118374333Y-59097754D01*
X118492575Y-59205346D01*
X118500991Y-59209915D01*
X118500993Y-59209917D01*
X118624645Y-59277055D01*
X118624647Y-59277056D01*
X118633068Y-59281628D01*
X118787702Y-59322195D01*
X118797281Y-59322345D01*
X118797285Y-59322346D01*
X118871405Y-59323510D01*
X118947548Y-59324706D01*
X118957853Y-59322346D01*
X118982828Y-59316626D01*
X119103380Y-59289016D01*
X119246200Y-59217185D01*
X119358139Y-59121580D01*
X119360470Y-59119589D01*
X119360471Y-59119588D01*
X119367763Y-59113360D01*
X119449829Y-58999153D01*
X119455458Y-58991320D01*
X119455458Y-58991319D01*
X119461052Y-58983535D01*
X119520680Y-58835206D01*
X119543205Y-58676934D01*
X119543351Y-58663000D01*
X119524145Y-58504292D01*
X119482293Y-58393535D01*
X119471022Y-58363706D01*
X119471021Y-58363704D01*
X119467636Y-58354746D01*
X119425568Y-58293535D01*
X119382514Y-58230891D01*
X119382513Y-58230890D01*
X119377087Y-58222995D01*
X119364175Y-58211491D01*
X119264880Y-58123022D01*
X119264876Y-58123019D01*
X119257725Y-58116648D01*
X119116440Y-58041841D01*
X118961391Y-58002895D01*
X118881459Y-58002477D01*
X118811107Y-58002108D01*
X118811106Y-58002108D01*
X118801526Y-58002058D01*
X118773040Y-58008897D01*
X118655397Y-58037140D01*
X118655393Y-58037141D01*
X118646077Y-58039378D01*
X118637562Y-58043773D01*
X118637559Y-58043774D01*
X118530531Y-58099016D01*
X118504017Y-58112701D01*
X118496798Y-58118999D01*
X118496796Y-58119000D01*
X118390772Y-58211491D01*
X118383548Y-58217793D01*
X118291624Y-58348588D01*
X118288142Y-58357520D01*
X118288141Y-58357521D01*
X118268556Y-58407754D01*
X118233552Y-58497534D01*
X118212685Y-58656033D01*
X101674500Y-58656033D01*
X101674500Y-56256033D01*
X116337685Y-56256033D01*
X116338736Y-56265553D01*
X116338736Y-56265556D01*
X116340561Y-56282083D01*
X116355228Y-56414933D01*
X116410168Y-56565063D01*
X116415511Y-56573015D01*
X116415512Y-56573016D01*
X116422581Y-56583535D01*
X116499333Y-56697754D01*
X116617575Y-56805346D01*
X116625991Y-56809915D01*
X116625993Y-56809917D01*
X116749645Y-56877055D01*
X116749647Y-56877056D01*
X116758068Y-56881628D01*
X116769805Y-56884707D01*
X116897882Y-56918307D01*
X116912702Y-56922195D01*
X116922281Y-56922345D01*
X116922285Y-56922346D01*
X116996405Y-56923510D01*
X117072548Y-56924706D01*
X117082853Y-56922346D01*
X117107828Y-56916626D01*
X117228380Y-56889016D01*
X117371200Y-56817185D01*
X117492763Y-56713360D01*
X117586052Y-56583535D01*
X117645680Y-56435206D01*
X117668205Y-56276934D01*
X117668351Y-56263000D01*
X117649145Y-56104292D01*
X117613368Y-56009611D01*
X117596022Y-55963706D01*
X117596021Y-55963704D01*
X117592636Y-55954746D01*
X117586981Y-55946517D01*
X117507514Y-55830891D01*
X117507513Y-55830890D01*
X117502087Y-55822995D01*
X117489175Y-55811491D01*
X117389880Y-55723022D01*
X117389876Y-55723019D01*
X117382725Y-55716648D01*
X117241440Y-55641841D01*
X117086391Y-55602895D01*
X117006459Y-55602477D01*
X116936107Y-55602108D01*
X116936106Y-55602108D01*
X116926526Y-55602058D01*
X116878131Y-55613677D01*
X116780397Y-55637140D01*
X116780393Y-55637141D01*
X116771077Y-55639378D01*
X116762562Y-55643773D01*
X116762559Y-55643774D01*
X116689481Y-55681493D01*
X116629017Y-55712701D01*
X116621798Y-55718999D01*
X116621796Y-55719000D01*
X116548929Y-55782566D01*
X116508548Y-55817793D01*
X116416624Y-55948588D01*
X116413142Y-55957520D01*
X116413141Y-55957521D01*
X116406575Y-55974362D01*
X116358552Y-56097534D01*
X116337685Y-56256033D01*
X101674500Y-56256033D01*
X101674500Y-54163786D01*
X153495168Y-54163786D01*
X153507722Y-54425153D01*
X153558771Y-54681793D01*
X153560762Y-54687338D01*
X153560763Y-54687342D01*
X153573473Y-54722741D01*
X153647193Y-54928068D01*
X153649985Y-54933264D01*
X153762188Y-55142083D01*
X153771046Y-55158569D01*
X153927608Y-55368231D01*
X153931794Y-55372380D01*
X153931796Y-55372383D01*
X154109256Y-55548302D01*
X154109261Y-55548306D01*
X154113440Y-55552449D01*
X154228945Y-55637140D01*
X154319702Y-55703686D01*
X154319706Y-55703688D01*
X154324461Y-55707175D01*
X154329677Y-55709919D01*
X154329683Y-55709923D01*
X154550814Y-55826266D01*
X154550818Y-55826268D01*
X154556034Y-55829012D01*
X154803071Y-55915281D01*
X155060147Y-55964089D01*
X155066049Y-55964321D01*
X155066050Y-55964321D01*
X155108600Y-55965993D01*
X155321613Y-55974362D01*
X155581725Y-55945875D01*
X155761465Y-55898553D01*
X155837554Y-55897352D01*
X155905489Y-55931651D01*
X155914374Y-55939883D01*
X162768930Y-62794440D01*
X162808301Y-62859567D01*
X162815500Y-62906870D01*
X162815500Y-87166405D01*
X162816034Y-87170983D01*
X162816034Y-87170988D01*
X162822159Y-87223520D01*
X162830859Y-87298144D01*
X162834010Y-87306825D01*
X162834011Y-87306829D01*
X162860544Y-87379923D01*
X162891367Y-87464839D01*
X162988599Y-87613143D01*
X163117341Y-87735102D01*
X163270687Y-87824172D01*
X163279526Y-87826849D01*
X163279528Y-87826850D01*
X163431573Y-87872900D01*
X163431577Y-87872901D01*
X163440410Y-87875576D01*
X163449624Y-87876148D01*
X163449626Y-87876148D01*
X163557539Y-87882843D01*
X163617407Y-87886557D01*
X163626508Y-87884993D01*
X163626511Y-87884993D01*
X163729177Y-87867351D01*
X163792182Y-87856525D01*
X163868216Y-87824172D01*
X163946859Y-87790709D01*
X163946861Y-87790708D01*
X163955361Y-87787091D01*
X164026007Y-87735102D01*
X164090753Y-87687454D01*
X164098190Y-87681981D01*
X164213008Y-87546832D01*
X164293655Y-87388894D01*
X164335806Y-87216639D01*
X164336500Y-87205452D01*
X164336500Y-62595705D01*
X164338307Y-62571804D01*
X164341210Y-62552722D01*
X164337023Y-62501243D01*
X164336500Y-62488353D01*
X164336500Y-62481595D01*
X164333269Y-62453879D01*
X164332722Y-62448358D01*
X164327583Y-62385175D01*
X164327583Y-62385173D01*
X164326834Y-62375969D01*
X164323987Y-62367182D01*
X164323271Y-62363599D01*
X164323190Y-62363089D01*
X164323057Y-62362612D01*
X164322210Y-62359029D01*
X164321141Y-62349856D01*
X164296344Y-62281541D01*
X164294568Y-62276366D01*
X164272181Y-62207264D01*
X164267387Y-62199364D01*
X164265865Y-62196040D01*
X164265669Y-62195561D01*
X164265433Y-62195134D01*
X164263782Y-62191838D01*
X164260633Y-62183161D01*
X164220817Y-62122431D01*
X164217857Y-62117739D01*
X164183861Y-62061715D01*
X164183859Y-62061713D01*
X164180184Y-62055656D01*
X164172764Y-62047255D01*
X164172115Y-62046606D01*
X164168233Y-62042227D01*
X164163401Y-62034857D01*
X164107353Y-61981762D01*
X164104271Y-61978762D01*
X159591543Y-57466033D01*
X166190685Y-57466033D01*
X166191736Y-57475553D01*
X166191736Y-57475556D01*
X166207176Y-57615405D01*
X166208228Y-57624933D01*
X166263168Y-57775063D01*
X166268511Y-57783015D01*
X166268512Y-57783016D01*
X166295923Y-57823807D01*
X166352333Y-57907754D01*
X166470575Y-58015346D01*
X166478991Y-58019915D01*
X166478993Y-58019917D01*
X166602645Y-58087055D01*
X166602647Y-58087056D01*
X166611068Y-58091628D01*
X166689351Y-58112165D01*
X166738021Y-58124933D01*
X166765702Y-58132195D01*
X166775281Y-58132345D01*
X166775285Y-58132346D01*
X166849405Y-58133510D01*
X166925548Y-58134706D01*
X166935853Y-58132346D01*
X166960828Y-58126626D01*
X167081380Y-58099016D01*
X167224200Y-58027185D01*
X167295800Y-57966033D01*
X173815685Y-57966033D01*
X173816736Y-57975553D01*
X173816736Y-57975556D01*
X173832176Y-58115405D01*
X173833228Y-58124933D01*
X173888168Y-58275063D01*
X173893511Y-58283015D01*
X173893512Y-58283016D01*
X173961802Y-58384641D01*
X173977333Y-58407754D01*
X174095575Y-58515346D01*
X174103991Y-58519915D01*
X174103993Y-58519917D01*
X174227645Y-58587055D01*
X174227647Y-58587056D01*
X174236068Y-58591628D01*
X174247805Y-58594707D01*
X174371605Y-58627185D01*
X174390702Y-58632195D01*
X174400281Y-58632345D01*
X174400285Y-58632346D01*
X174474405Y-58633510D01*
X174550548Y-58634706D01*
X174560853Y-58632346D01*
X174610584Y-58620956D01*
X174706380Y-58599016D01*
X174849200Y-58527185D01*
X174970763Y-58423360D01*
X175064052Y-58293535D01*
X175123680Y-58145206D01*
X175134948Y-58066033D01*
X179115685Y-58066033D01*
X179116736Y-58075553D01*
X179116736Y-58075556D01*
X179123378Y-58135717D01*
X179133228Y-58224933D01*
X179188168Y-58375063D01*
X179193511Y-58383015D01*
X179193512Y-58383016D01*
X179210136Y-58407754D01*
X179277333Y-58507754D01*
X179395575Y-58615346D01*
X179403991Y-58619915D01*
X179403993Y-58619917D01*
X179527645Y-58687055D01*
X179527647Y-58687056D01*
X179536068Y-58691628D01*
X179690702Y-58732195D01*
X179700281Y-58732345D01*
X179700285Y-58732346D01*
X179774405Y-58733510D01*
X179850548Y-58734706D01*
X179860853Y-58732346D01*
X179885828Y-58726626D01*
X180006380Y-58699016D01*
X180149200Y-58627185D01*
X180270763Y-58523360D01*
X180334753Y-58434308D01*
X180358458Y-58401320D01*
X180358458Y-58401319D01*
X180364052Y-58393535D01*
X180423680Y-58245206D01*
X180446205Y-58086934D01*
X180446351Y-58073000D01*
X180427145Y-57914292D01*
X180386804Y-57807534D01*
X180374022Y-57773706D01*
X180374021Y-57773704D01*
X180370636Y-57764746D01*
X180297677Y-57658588D01*
X180285514Y-57640891D01*
X180285513Y-57640890D01*
X180280087Y-57632995D01*
X180272932Y-57626620D01*
X180167880Y-57533022D01*
X180167876Y-57533019D01*
X180160725Y-57526648D01*
X180019440Y-57451841D01*
X179864391Y-57412895D01*
X179784458Y-57412476D01*
X179714107Y-57412108D01*
X179714106Y-57412108D01*
X179704526Y-57412058D01*
X179678497Y-57418307D01*
X179558397Y-57447140D01*
X179558393Y-57447141D01*
X179549077Y-57449378D01*
X179540562Y-57453773D01*
X179540559Y-57453774D01*
X179466338Y-57492083D01*
X179407017Y-57522701D01*
X179399798Y-57528999D01*
X179399796Y-57529000D01*
X179293772Y-57621491D01*
X179286548Y-57627793D01*
X179194624Y-57758588D01*
X179191142Y-57767520D01*
X179191141Y-57767521D01*
X179172906Y-57814292D01*
X179136552Y-57907534D01*
X179115685Y-58066033D01*
X175134948Y-58066033D01*
X175146205Y-57986934D01*
X175146351Y-57973000D01*
X175127145Y-57814292D01*
X175070636Y-57664746D01*
X175048815Y-57632995D01*
X174985514Y-57540891D01*
X174985513Y-57540890D01*
X174980087Y-57532995D01*
X174967175Y-57521491D01*
X174867880Y-57433022D01*
X174867876Y-57433019D01*
X174860725Y-57426648D01*
X174719440Y-57351841D01*
X174564391Y-57312895D01*
X174484459Y-57312477D01*
X174414107Y-57312108D01*
X174414106Y-57312108D01*
X174404526Y-57312058D01*
X174383808Y-57317032D01*
X174258397Y-57347140D01*
X174258393Y-57347141D01*
X174249077Y-57349378D01*
X174240562Y-57353773D01*
X174240559Y-57353774D01*
X174115530Y-57418307D01*
X174107017Y-57422701D01*
X174099798Y-57428999D01*
X174099796Y-57429000D01*
X174055293Y-57467823D01*
X173986548Y-57527793D01*
X173894624Y-57658588D01*
X173891142Y-57667520D01*
X173891141Y-57667521D01*
X173849741Y-57773706D01*
X173836552Y-57807534D01*
X173815685Y-57966033D01*
X167295800Y-57966033D01*
X167345763Y-57923360D01*
X167428993Y-57807534D01*
X167433458Y-57801320D01*
X167433458Y-57801319D01*
X167439052Y-57793535D01*
X167498680Y-57645206D01*
X167521205Y-57486934D01*
X167521351Y-57473000D01*
X167502145Y-57314292D01*
X167445636Y-57164746D01*
X167355087Y-57032995D01*
X167342175Y-57021491D01*
X167242880Y-56933022D01*
X167242876Y-56933019D01*
X167235725Y-56926648D01*
X167094440Y-56851841D01*
X166939391Y-56812895D01*
X166859458Y-56812476D01*
X166789107Y-56812108D01*
X166789106Y-56812108D01*
X166779526Y-56812058D01*
X166731131Y-56823677D01*
X166633397Y-56847140D01*
X166633393Y-56847141D01*
X166624077Y-56849378D01*
X166615562Y-56853773D01*
X166615559Y-56853774D01*
X166547280Y-56889016D01*
X166482017Y-56922701D01*
X166361548Y-57027793D01*
X166269624Y-57158588D01*
X166211552Y-57307534D01*
X166190685Y-57466033D01*
X159591543Y-57466033D01*
X157241543Y-55116033D01*
X173815685Y-55116033D01*
X173816736Y-55125553D01*
X173816736Y-55125556D01*
X173820381Y-55158569D01*
X173833228Y-55274933D01*
X173888168Y-55425063D01*
X173893511Y-55433015D01*
X173893512Y-55433016D01*
X173900581Y-55443535D01*
X173977333Y-55557754D01*
X174095575Y-55665346D01*
X174103991Y-55669915D01*
X174103993Y-55669917D01*
X174227645Y-55737055D01*
X174227647Y-55737056D01*
X174236068Y-55741628D01*
X174390702Y-55782195D01*
X174400281Y-55782345D01*
X174400285Y-55782346D01*
X174474405Y-55783510D01*
X174550548Y-55784706D01*
X174560853Y-55782346D01*
X174585828Y-55776626D01*
X174706380Y-55749016D01*
X174849200Y-55677185D01*
X174970763Y-55573360D01*
X175064052Y-55443535D01*
X175123680Y-55295206D01*
X175146205Y-55136934D01*
X175146351Y-55123000D01*
X175127145Y-54964292D01*
X175070636Y-54814746D01*
X175059612Y-54798705D01*
X174985514Y-54690891D01*
X174985513Y-54690890D01*
X174980087Y-54682995D01*
X174967175Y-54671491D01*
X174867880Y-54583022D01*
X174867876Y-54583019D01*
X174860725Y-54576648D01*
X174719440Y-54501841D01*
X174564391Y-54462895D01*
X174484458Y-54462476D01*
X174414107Y-54462108D01*
X174414106Y-54462108D01*
X174404526Y-54462058D01*
X174356131Y-54473677D01*
X174258397Y-54497140D01*
X174258393Y-54497141D01*
X174249077Y-54499378D01*
X174240562Y-54503773D01*
X174240559Y-54503774D01*
X174139138Y-54556122D01*
X174107017Y-54572701D01*
X173986548Y-54677793D01*
X173894624Y-54808588D01*
X173891142Y-54817520D01*
X173891141Y-54817521D01*
X173840032Y-54948608D01*
X173836552Y-54957534D01*
X173815685Y-55116033D01*
X157241543Y-55116033D01*
X156989342Y-54863832D01*
X156949971Y-54798705D01*
X156945376Y-54722741D01*
X156948742Y-54708243D01*
X156984058Y-54583022D01*
X156989995Y-54561972D01*
X157023018Y-54302396D01*
X157025437Y-54210000D01*
X157006045Y-53949052D01*
X156995723Y-53903435D01*
X156987260Y-53866033D01*
X176065685Y-53866033D01*
X176066736Y-53875553D01*
X176066736Y-53875556D01*
X176075500Y-53954937D01*
X176083228Y-54024933D01*
X176138168Y-54175063D01*
X176143511Y-54183015D01*
X176143512Y-54183016D01*
X176150581Y-54193535D01*
X176227333Y-54307754D01*
X176345575Y-54415346D01*
X176353991Y-54419915D01*
X176353993Y-54419917D01*
X176477645Y-54487055D01*
X176477647Y-54487056D01*
X176486068Y-54491628D01*
X176640702Y-54532195D01*
X176650281Y-54532345D01*
X176650285Y-54532346D01*
X176724405Y-54533510D01*
X176800548Y-54534706D01*
X176810853Y-54532346D01*
X176835828Y-54526626D01*
X176956380Y-54499016D01*
X177099200Y-54427185D01*
X177220763Y-54323360D01*
X177314052Y-54193535D01*
X177373680Y-54045206D01*
X177396205Y-53886934D01*
X177396351Y-53873000D01*
X177377145Y-53714292D01*
X177333586Y-53599016D01*
X177324022Y-53573706D01*
X177324021Y-53573704D01*
X177320636Y-53564746D01*
X177294822Y-53527185D01*
X177235514Y-53440891D01*
X177235513Y-53440890D01*
X177230087Y-53432995D01*
X177208706Y-53413945D01*
X177117880Y-53333022D01*
X177117876Y-53333019D01*
X177110725Y-53326648D01*
X176969440Y-53251841D01*
X176814391Y-53212895D01*
X176734459Y-53212477D01*
X176664107Y-53212108D01*
X176664106Y-53212108D01*
X176654526Y-53212058D01*
X176629193Y-53218140D01*
X176508397Y-53247140D01*
X176508393Y-53247141D01*
X176499077Y-53249378D01*
X176490562Y-53253773D01*
X176490559Y-53253774D01*
X176365530Y-53318307D01*
X176357017Y-53322701D01*
X176349798Y-53328999D01*
X176349796Y-53329000D01*
X176264432Y-53403468D01*
X176236548Y-53427793D01*
X176144624Y-53558588D01*
X176141142Y-53567520D01*
X176141141Y-53567521D01*
X176114947Y-53634706D01*
X176086552Y-53707534D01*
X176065685Y-53866033D01*
X156987260Y-53866033D01*
X156949600Y-53699597D01*
X156949598Y-53699592D01*
X156948296Y-53693836D01*
X156853457Y-53449960D01*
X156829766Y-53408508D01*
X156726545Y-53227908D01*
X156726544Y-53227907D01*
X156723614Y-53222780D01*
X156561617Y-53017288D01*
X156507131Y-52966033D01*
X173315685Y-52966033D01*
X173316736Y-52975553D01*
X173316736Y-52975556D01*
X173332176Y-53115405D01*
X173333228Y-53124933D01*
X173388168Y-53275063D01*
X173393511Y-53283015D01*
X173393512Y-53283016D01*
X173420180Y-53322701D01*
X173477333Y-53407754D01*
X173595575Y-53515346D01*
X173603991Y-53519915D01*
X173603993Y-53519917D01*
X173727645Y-53587055D01*
X173727647Y-53587056D01*
X173736068Y-53591628D01*
X173890702Y-53632195D01*
X173900281Y-53632345D01*
X173900285Y-53632346D01*
X173974405Y-53633510D01*
X174050548Y-53634706D01*
X174060853Y-53632346D01*
X174085828Y-53626626D01*
X174206380Y-53599016D01*
X174349200Y-53527185D01*
X174470763Y-53423360D01*
X174543479Y-53322165D01*
X174558458Y-53301320D01*
X174558458Y-53301319D01*
X174564052Y-53293535D01*
X174623680Y-53145206D01*
X174646205Y-52986934D01*
X174646351Y-52973000D01*
X174627145Y-52814292D01*
X174591368Y-52719611D01*
X174574022Y-52673706D01*
X174574021Y-52673704D01*
X174570636Y-52664746D01*
X174507661Y-52573115D01*
X174485514Y-52540891D01*
X174485513Y-52540890D01*
X174480087Y-52532995D01*
X174428226Y-52486789D01*
X174385171Y-52424037D01*
X174376211Y-52348464D01*
X174403397Y-52277383D01*
X174460503Y-52227078D01*
X174536492Y-52209093D01*
X174565961Y-52209556D01*
X174565966Y-52209555D01*
X174575548Y-52209706D01*
X174731380Y-52174016D01*
X174874200Y-52102185D01*
X174995763Y-51998360D01*
X175089052Y-51868535D01*
X175148680Y-51720206D01*
X175171205Y-51561934D01*
X175171351Y-51548000D01*
X175152145Y-51389292D01*
X175115961Y-51293535D01*
X175099022Y-51248706D01*
X175099021Y-51248704D01*
X175095636Y-51239746D01*
X175005087Y-51107995D01*
X174992175Y-51096491D01*
X174892880Y-51008022D01*
X174892876Y-51008019D01*
X174885725Y-51001648D01*
X174818460Y-50966033D01*
X180765685Y-50966033D01*
X180766736Y-50975553D01*
X180766736Y-50975556D01*
X180779592Y-51092000D01*
X180783228Y-51124933D01*
X180838168Y-51275063D01*
X180843511Y-51283015D01*
X180843512Y-51283016D01*
X180921321Y-51398807D01*
X180927333Y-51407754D01*
X181045575Y-51515346D01*
X181053991Y-51519915D01*
X181053993Y-51519917D01*
X181177645Y-51587055D01*
X181177647Y-51587056D01*
X181186068Y-51591628D01*
X181197805Y-51594707D01*
X181324319Y-51627897D01*
X181340702Y-51632195D01*
X181350281Y-51632345D01*
X181350285Y-51632346D01*
X181424405Y-51633510D01*
X181500548Y-51634706D01*
X181510853Y-51632346D01*
X181535828Y-51626626D01*
X181656380Y-51599016D01*
X181799200Y-51527185D01*
X181920763Y-51423360D01*
X182014052Y-51293535D01*
X182073680Y-51145206D01*
X182096205Y-50986934D01*
X182096351Y-50973000D01*
X182077145Y-50814292D01*
X182020636Y-50664746D01*
X182008298Y-50646793D01*
X181935514Y-50540891D01*
X181935513Y-50540890D01*
X181930087Y-50532995D01*
X181907717Y-50513064D01*
X181817880Y-50433022D01*
X181817876Y-50433019D01*
X181810725Y-50426648D01*
X181669440Y-50351841D01*
X181514391Y-50312895D01*
X181434458Y-50312476D01*
X181364107Y-50312108D01*
X181364106Y-50312108D01*
X181354526Y-50312058D01*
X181306131Y-50323677D01*
X181208397Y-50347140D01*
X181208393Y-50347141D01*
X181199077Y-50349378D01*
X181190562Y-50353773D01*
X181190559Y-50353774D01*
X181098870Y-50401099D01*
X181057017Y-50422701D01*
X181049798Y-50428999D01*
X181049796Y-50429000D01*
X181001833Y-50470841D01*
X180936548Y-50527793D01*
X180844624Y-50658588D01*
X180841142Y-50667520D01*
X180841141Y-50667521D01*
X180794745Y-50786521D01*
X180786552Y-50807534D01*
X180765685Y-50966033D01*
X174818460Y-50966033D01*
X174744440Y-50926841D01*
X174589391Y-50887895D01*
X174509458Y-50887476D01*
X174439107Y-50887108D01*
X174439106Y-50887108D01*
X174429526Y-50887058D01*
X174381131Y-50898677D01*
X174283397Y-50922140D01*
X174283393Y-50922141D01*
X174274077Y-50924378D01*
X174265562Y-50928773D01*
X174265559Y-50928774D01*
X174140530Y-50993307D01*
X174132017Y-50997701D01*
X174124798Y-51003999D01*
X174124796Y-51004000D01*
X174029855Y-51086823D01*
X174011548Y-51102793D01*
X173919624Y-51233588D01*
X173916142Y-51242520D01*
X173916141Y-51242521D01*
X173913730Y-51248706D01*
X173861552Y-51382534D01*
X173840685Y-51541033D01*
X173841736Y-51550553D01*
X173841736Y-51550556D01*
X173851606Y-51639956D01*
X173858228Y-51699933D01*
X173913168Y-51850063D01*
X173918511Y-51858015D01*
X173918512Y-51858016D01*
X173925581Y-51868535D01*
X174002333Y-51982754D01*
X174009426Y-51989208D01*
X174060532Y-52035711D01*
X174102927Y-52098911D01*
X174111095Y-52174573D01*
X174083165Y-52245365D01*
X174025536Y-52295069D01*
X173952691Y-52312310D01*
X173914108Y-52312108D01*
X173914107Y-52312108D01*
X173904526Y-52312058D01*
X173856131Y-52323677D01*
X173758397Y-52347140D01*
X173758393Y-52347141D01*
X173749077Y-52349378D01*
X173740562Y-52353773D01*
X173740559Y-52353774D01*
X173615530Y-52418307D01*
X173607017Y-52422701D01*
X173599798Y-52428999D01*
X173599796Y-52429000D01*
X173526040Y-52493342D01*
X173486548Y-52527793D01*
X173394624Y-52658588D01*
X173391142Y-52667520D01*
X173391141Y-52667521D01*
X173388730Y-52673706D01*
X173336552Y-52807534D01*
X173315685Y-52966033D01*
X156507131Y-52966033D01*
X156371026Y-52837998D01*
X156156027Y-52688848D01*
X156048174Y-52635661D01*
X155926631Y-52575722D01*
X155926628Y-52575721D01*
X155921344Y-52573115D01*
X155915732Y-52571318D01*
X155915728Y-52571317D01*
X155677747Y-52495139D01*
X155677746Y-52495139D01*
X155672133Y-52493342D01*
X155619628Y-52484791D01*
X155419697Y-52452230D01*
X155419693Y-52452230D01*
X155413868Y-52451281D01*
X155283045Y-52449568D01*
X155158129Y-52447933D01*
X155158125Y-52447933D01*
X155152223Y-52447856D01*
X155054756Y-52461121D01*
X154898785Y-52482347D01*
X154898782Y-52482348D01*
X154892945Y-52483142D01*
X154887292Y-52484790D01*
X154887286Y-52484791D01*
X154767338Y-52519753D01*
X154641731Y-52556364D01*
X154636383Y-52558830D01*
X154636379Y-52558831D01*
X154409458Y-52663443D01*
X154409453Y-52663446D01*
X154404099Y-52665914D01*
X154399166Y-52669148D01*
X154399161Y-52669151D01*
X154191455Y-52805330D01*
X154185270Y-52809385D01*
X154156981Y-52834634D01*
X154007755Y-52967823D01*
X153990051Y-52983624D01*
X153986281Y-52988157D01*
X153986278Y-52988160D01*
X153965416Y-53013244D01*
X153822730Y-53184806D01*
X153819670Y-53189848D01*
X153819669Y-53189850D01*
X153804269Y-53215229D01*
X153686984Y-53408508D01*
X153585794Y-53649819D01*
X153584343Y-53655531D01*
X153584343Y-53655532D01*
X153546887Y-53803016D01*
X153521384Y-53903435D01*
X153495168Y-54163786D01*
X101674500Y-54163786D01*
X101674500Y-51085033D01*
X163710685Y-51085033D01*
X163711736Y-51094553D01*
X163711736Y-51094556D01*
X163717328Y-51145206D01*
X163728228Y-51243933D01*
X163783168Y-51394063D01*
X163788511Y-51402015D01*
X163788512Y-51402016D01*
X163860334Y-51508897D01*
X163872333Y-51526754D01*
X163990575Y-51634346D01*
X163998991Y-51638915D01*
X163998993Y-51638917D01*
X164122645Y-51706055D01*
X164122647Y-51706056D01*
X164131068Y-51710628D01*
X164285702Y-51751195D01*
X164295281Y-51751345D01*
X164295285Y-51751346D01*
X164369405Y-51752510D01*
X164445548Y-51753706D01*
X164455853Y-51751346D01*
X164480828Y-51745626D01*
X164601380Y-51718016D01*
X164744200Y-51646185D01*
X164865763Y-51542360D01*
X164946797Y-51429589D01*
X164953458Y-51420320D01*
X164953458Y-51420319D01*
X164959052Y-51412535D01*
X165018680Y-51264206D01*
X165041205Y-51105934D01*
X165041351Y-51092000D01*
X165022145Y-50933292D01*
X164978214Y-50817032D01*
X164969022Y-50792706D01*
X164969021Y-50792704D01*
X164965636Y-50783746D01*
X164950929Y-50762346D01*
X164880514Y-50659891D01*
X164880513Y-50659890D01*
X164875087Y-50651995D01*
X164862175Y-50640491D01*
X164762880Y-50552022D01*
X164762876Y-50552019D01*
X164755725Y-50545648D01*
X164614440Y-50470841D01*
X164459391Y-50431895D01*
X164379458Y-50431476D01*
X164309107Y-50431108D01*
X164309106Y-50431108D01*
X164299526Y-50431058D01*
X164251131Y-50442677D01*
X164153397Y-50466140D01*
X164153393Y-50466141D01*
X164144077Y-50468378D01*
X164135562Y-50472773D01*
X164135559Y-50472774D01*
X164010530Y-50537307D01*
X164002017Y-50541701D01*
X163994798Y-50547999D01*
X163994796Y-50548000D01*
X163990186Y-50552022D01*
X163881548Y-50646793D01*
X163789624Y-50777588D01*
X163786142Y-50786520D01*
X163786141Y-50786521D01*
X163774245Y-50817032D01*
X163731552Y-50926534D01*
X163710685Y-51085033D01*
X101674500Y-51085033D01*
X101674500Y-48041033D01*
X177415685Y-48041033D01*
X177416736Y-48050553D01*
X177416736Y-48050556D01*
X177423921Y-48115632D01*
X177433228Y-48199933D01*
X177488168Y-48350063D01*
X177493511Y-48358015D01*
X177493512Y-48358016D01*
X177571659Y-48474310D01*
X177577333Y-48482754D01*
X177695575Y-48590346D01*
X177703991Y-48594915D01*
X177703993Y-48594917D01*
X177827645Y-48662055D01*
X177827647Y-48662056D01*
X177836068Y-48666628D01*
X177990702Y-48707195D01*
X178000281Y-48707345D01*
X178000285Y-48707346D01*
X178074405Y-48708510D01*
X178150548Y-48709706D01*
X178160853Y-48707346D01*
X178185828Y-48701626D01*
X178306380Y-48674016D01*
X178449200Y-48602185D01*
X178570763Y-48498360D01*
X178573534Y-48494504D01*
X178634929Y-48453783D01*
X178710634Y-48446010D01*
X178781279Y-48474310D01*
X178830681Y-48532198D01*
X178847522Y-48606413D01*
X178846189Y-48624221D01*
X178842083Y-48655418D01*
X178840685Y-48666033D01*
X178841736Y-48675553D01*
X178841736Y-48675556D01*
X178857176Y-48815405D01*
X178858228Y-48824933D01*
X178913168Y-48975063D01*
X178918511Y-48983015D01*
X178918512Y-48983016D01*
X178925581Y-48993535D01*
X179002333Y-49107754D01*
X179120575Y-49215346D01*
X179128991Y-49219915D01*
X179128993Y-49219917D01*
X179252645Y-49287055D01*
X179252647Y-49287056D01*
X179261068Y-49291628D01*
X179415702Y-49332195D01*
X179425285Y-49332346D01*
X179426902Y-49332567D01*
X179497638Y-49360638D01*
X179547226Y-49418367D01*
X179564306Y-49492527D01*
X179544966Y-49566131D01*
X179493636Y-49622316D01*
X179478250Y-49631386D01*
X179412533Y-49665305D01*
X179412530Y-49665307D01*
X179404017Y-49669701D01*
X179283548Y-49774793D01*
X179191624Y-49905588D01*
X179133552Y-50054534D01*
X179112685Y-50213033D01*
X179113736Y-50222553D01*
X179113736Y-50222556D01*
X179123968Y-50315229D01*
X179130228Y-50371933D01*
X179185168Y-50522063D01*
X179190511Y-50530015D01*
X179190512Y-50530016D01*
X179264749Y-50640491D01*
X179274333Y-50654754D01*
X179392575Y-50762346D01*
X179400991Y-50766915D01*
X179400993Y-50766917D01*
X179524645Y-50834055D01*
X179524647Y-50834056D01*
X179533068Y-50838628D01*
X179687702Y-50879195D01*
X179697281Y-50879345D01*
X179697285Y-50879346D01*
X179771405Y-50880510D01*
X179847548Y-50881706D01*
X179857853Y-50879346D01*
X179882828Y-50873626D01*
X180003380Y-50846016D01*
X180146200Y-50774185D01*
X180267763Y-50670360D01*
X180361052Y-50540535D01*
X180420680Y-50392206D01*
X180443205Y-50233934D01*
X180443351Y-50220000D01*
X180424145Y-50061292D01*
X180367636Y-49911746D01*
X180277087Y-49779995D01*
X180264175Y-49768491D01*
X180164880Y-49680022D01*
X180164876Y-49680019D01*
X180157725Y-49673648D01*
X180016440Y-49598841D01*
X179939526Y-49579521D01*
X179870688Y-49562230D01*
X179870686Y-49562230D01*
X179861391Y-49559895D01*
X179856466Y-49559869D01*
X179787624Y-49533382D01*
X179737433Y-49476177D01*
X179719576Y-49402199D01*
X179738143Y-49328397D01*
X179788881Y-49271676D01*
X179807132Y-49260917D01*
X179865634Y-49231493D01*
X179874200Y-49227185D01*
X179995763Y-49123360D01*
X180089052Y-48993535D01*
X180148680Y-48845206D01*
X180171205Y-48686934D01*
X180171351Y-48673000D01*
X180152145Y-48514292D01*
X180095636Y-48364746D01*
X180027787Y-48266023D01*
X180010514Y-48240891D01*
X180010513Y-48240890D01*
X180005087Y-48232995D01*
X179957285Y-48190405D01*
X179892880Y-48133022D01*
X179892876Y-48133019D01*
X179885725Y-48126648D01*
X179744440Y-48051841D01*
X179589391Y-48012895D01*
X179509459Y-48012477D01*
X179439107Y-48012108D01*
X179439106Y-48012108D01*
X179429526Y-48012058D01*
X179381131Y-48023677D01*
X179283397Y-48047140D01*
X179283393Y-48047141D01*
X179274077Y-48049378D01*
X179265562Y-48053773D01*
X179265559Y-48053774D01*
X179145713Y-48115632D01*
X179132017Y-48122701D01*
X179124798Y-48128999D01*
X179124796Y-48129000D01*
X179043484Y-48199933D01*
X179015152Y-48224649D01*
X179015149Y-48224651D01*
X179011548Y-48227793D01*
X179011165Y-48227354D01*
X178954171Y-48266023D01*
X178878553Y-48274590D01*
X178807615Y-48247033D01*
X178757608Y-48189667D01*
X178739989Y-48115632D01*
X178741570Y-48094507D01*
X178745472Y-48067088D01*
X178745473Y-48067080D01*
X178746205Y-48061934D01*
X178746351Y-48048000D01*
X178727145Y-47889292D01*
X178670636Y-47739746D01*
X178580087Y-47607995D01*
X178567175Y-47596491D01*
X178467880Y-47508022D01*
X178467876Y-47508019D01*
X178460725Y-47501648D01*
X178319440Y-47426841D01*
X178164391Y-47387895D01*
X178084458Y-47387476D01*
X178014107Y-47387108D01*
X178014106Y-47387108D01*
X178004526Y-47387058D01*
X177956131Y-47398677D01*
X177858397Y-47422140D01*
X177858393Y-47422141D01*
X177849077Y-47424378D01*
X177840562Y-47428773D01*
X177840559Y-47428774D01*
X177755856Y-47472493D01*
X177707017Y-47497701D01*
X177699798Y-47503999D01*
X177699796Y-47504000D01*
X177663450Y-47535707D01*
X177586548Y-47602793D01*
X177494624Y-47733588D01*
X177436552Y-47882534D01*
X177415685Y-48041033D01*
X101674500Y-48041033D01*
X101674500Y-46691073D01*
X102463657Y-46691073D01*
X102466572Y-46697550D01*
X102518803Y-46741222D01*
X102527538Y-46747568D01*
X102767161Y-46897883D01*
X102776678Y-46902986D01*
X103034484Y-47019391D01*
X103044617Y-47023159D01*
X103315821Y-47103493D01*
X103326383Y-47105853D01*
X103605984Y-47148639D01*
X103616751Y-47149543D01*
X103899577Y-47153986D01*
X103910375Y-47153420D01*
X104191186Y-47119439D01*
X104201793Y-47117416D01*
X104475419Y-47045631D01*
X104485636Y-47042192D01*
X104746980Y-46933940D01*
X104756657Y-46929136D01*
X104794482Y-46907033D01*
X107591685Y-46907033D01*
X107592736Y-46916553D01*
X107592736Y-46916556D01*
X107608176Y-47056405D01*
X107609228Y-47065933D01*
X107664168Y-47216063D01*
X107669511Y-47224015D01*
X107669512Y-47224016D01*
X107676581Y-47234535D01*
X107753333Y-47348754D01*
X107871575Y-47456346D01*
X107879991Y-47460915D01*
X107879993Y-47460917D01*
X108003645Y-47528055D01*
X108003647Y-47528056D01*
X108012068Y-47532628D01*
X108166702Y-47573195D01*
X108176281Y-47573345D01*
X108176285Y-47573346D01*
X108250405Y-47574510D01*
X108326548Y-47575706D01*
X108336853Y-47573346D01*
X108361828Y-47567626D01*
X108482380Y-47540016D01*
X108625200Y-47468185D01*
X108685981Y-47416273D01*
X108739470Y-47370589D01*
X108739471Y-47370588D01*
X108746763Y-47364360D01*
X108840052Y-47234535D01*
X108899680Y-47086206D01*
X108922205Y-46927934D01*
X108922351Y-46914000D01*
X108903145Y-46755292D01*
X108860100Y-46641377D01*
X108850022Y-46614706D01*
X108850021Y-46614704D01*
X108846636Y-46605746D01*
X108810007Y-46552449D01*
X108761514Y-46481891D01*
X108761513Y-46481890D01*
X108756087Y-46473995D01*
X108743175Y-46462491D01*
X108643880Y-46374022D01*
X108643876Y-46374019D01*
X108636725Y-46367648D01*
X108495440Y-46292841D01*
X108340391Y-46253895D01*
X108260459Y-46253477D01*
X108190107Y-46253108D01*
X108190106Y-46253108D01*
X108180526Y-46253058D01*
X108132131Y-46264677D01*
X108034397Y-46288140D01*
X108034393Y-46288141D01*
X108025077Y-46290378D01*
X108016562Y-46294773D01*
X108016559Y-46294774D01*
X107891530Y-46359307D01*
X107883017Y-46363701D01*
X107875798Y-46369999D01*
X107875796Y-46370000D01*
X107871186Y-46374022D01*
X107762548Y-46468793D01*
X107670624Y-46599588D01*
X107667142Y-46608520D01*
X107667141Y-46608521D01*
X107628677Y-46707175D01*
X107612552Y-46748534D01*
X107591685Y-46907033D01*
X104794482Y-46907033D01*
X105000890Y-46786418D01*
X105009810Y-46780357D01*
X105109712Y-46702023D01*
X105119771Y-46689173D01*
X105117868Y-46683075D01*
X103805651Y-45370858D01*
X103791685Y-45362415D01*
X103782788Y-45366419D01*
X102472100Y-46677107D01*
X102463657Y-46691073D01*
X101674500Y-46691073D01*
X101674500Y-46232061D01*
X101692712Y-46158170D01*
X101743178Y-46101207D01*
X101814335Y-46074220D01*
X101889882Y-46083393D01*
X101952513Y-46126624D01*
X101964536Y-46142002D01*
X102085677Y-46318264D01*
X102097871Y-46329111D01*
X102101674Y-46328182D01*
X102105177Y-46325610D01*
X103419139Y-45011648D01*
X103427201Y-44998312D01*
X104156418Y-44998312D01*
X104160422Y-45007209D01*
X105471331Y-46318118D01*
X105485297Y-46326561D01*
X105490049Y-46324422D01*
X105491409Y-46323020D01*
X105611730Y-46159224D01*
X105617513Y-46150112D01*
X105752488Y-45901519D01*
X105756984Y-45891698D01*
X105856972Y-45627086D01*
X105860092Y-45616752D01*
X105923244Y-45341019D01*
X105924933Y-45330357D01*
X105939798Y-45163786D01*
X153495168Y-45163786D01*
X153507722Y-45425153D01*
X153558771Y-45681793D01*
X153647193Y-45928068D01*
X153649985Y-45933264D01*
X153766502Y-46150112D01*
X153771046Y-46158569D01*
X153927608Y-46368231D01*
X153931794Y-46372380D01*
X153931796Y-46372383D01*
X154109256Y-46548302D01*
X154109261Y-46548306D01*
X154113440Y-46552449D01*
X154225281Y-46634454D01*
X154319702Y-46703686D01*
X154319706Y-46703688D01*
X154324461Y-46707175D01*
X154329677Y-46709919D01*
X154329683Y-46709923D01*
X154550814Y-46826266D01*
X154550818Y-46826268D01*
X154556034Y-46829012D01*
X154803071Y-46915281D01*
X155060147Y-46964089D01*
X155066049Y-46964321D01*
X155066050Y-46964321D01*
X155108600Y-46965993D01*
X155321613Y-46974362D01*
X155581725Y-46945875D01*
X155587425Y-46944374D01*
X155587432Y-46944373D01*
X155829066Y-46880755D01*
X155829069Y-46880754D01*
X155834770Y-46879253D01*
X156050851Y-46786418D01*
X156069765Y-46778292D01*
X156069766Y-46778291D01*
X156075188Y-46775962D01*
X156080203Y-46772858D01*
X156080208Y-46772856D01*
X156212367Y-46691073D01*
X179463657Y-46691073D01*
X179466572Y-46697550D01*
X179518803Y-46741222D01*
X179527538Y-46747568D01*
X179767161Y-46897883D01*
X179776678Y-46902986D01*
X180034484Y-47019391D01*
X180044617Y-47023159D01*
X180315821Y-47103493D01*
X180326383Y-47105853D01*
X180605984Y-47148639D01*
X180616751Y-47149543D01*
X180899577Y-47153986D01*
X180910375Y-47153420D01*
X181191186Y-47119439D01*
X181201793Y-47117416D01*
X181475419Y-47045631D01*
X181485636Y-47042192D01*
X181746980Y-46933940D01*
X181756657Y-46929136D01*
X182000890Y-46786418D01*
X182009810Y-46780357D01*
X182109712Y-46702023D01*
X182119771Y-46689173D01*
X182117868Y-46683075D01*
X180805651Y-45370858D01*
X180791685Y-45362415D01*
X180782788Y-45366419D01*
X179472100Y-46677107D01*
X179463657Y-46691073D01*
X156212367Y-46691073D01*
X156234936Y-46677107D01*
X156297698Y-46638269D01*
X156302201Y-46634457D01*
X156302205Y-46634454D01*
X156492912Y-46473008D01*
X156492914Y-46473006D01*
X156497411Y-46469199D01*
X156669941Y-46272467D01*
X156748642Y-46150112D01*
X156808307Y-46057352D01*
X156808307Y-46057351D01*
X156811496Y-46052394D01*
X156918968Y-45813815D01*
X156989995Y-45561972D01*
X157023018Y-45302396D01*
X157025437Y-45210000D01*
X157008404Y-44980791D01*
X178633397Y-44980791D01*
X178649680Y-45263190D01*
X178651033Y-45273905D01*
X178705494Y-45551494D01*
X178708284Y-45561908D01*
X178799915Y-45829539D01*
X178804098Y-45839490D01*
X178931201Y-46092204D01*
X178936694Y-46101493D01*
X179085676Y-46318263D01*
X179097871Y-46329111D01*
X179101674Y-46328182D01*
X179105177Y-46325610D01*
X180419139Y-45011648D01*
X180427582Y-44997682D01*
X180423578Y-44988785D01*
X179112039Y-43677246D01*
X179098073Y-43668803D01*
X179093714Y-43670765D01*
X179091810Y-43672749D01*
X178960218Y-43855879D01*
X178954519Y-43865070D01*
X178822152Y-44115066D01*
X178817768Y-44124913D01*
X178720554Y-44390564D01*
X178717541Y-44400935D01*
X178657282Y-44677306D01*
X178655703Y-44687997D01*
X178633509Y-44969996D01*
X178633397Y-44980791D01*
X157008404Y-44980791D01*
X157006045Y-44949052D01*
X156995723Y-44903435D01*
X156949600Y-44699597D01*
X156949598Y-44699592D01*
X156948296Y-44693836D01*
X156853457Y-44449960D01*
X156837879Y-44422703D01*
X156726545Y-44227908D01*
X156726544Y-44227907D01*
X156723614Y-44222780D01*
X156589939Y-44053214D01*
X156565272Y-44021924D01*
X156565270Y-44021922D01*
X156561617Y-44017288D01*
X156404975Y-43869934D01*
X156382757Y-43849033D01*
X160403685Y-43849033D01*
X160404736Y-43858553D01*
X160404736Y-43858556D01*
X160418110Y-43979693D01*
X160421228Y-44007933D01*
X160476168Y-44158063D01*
X160481511Y-44166015D01*
X160481512Y-44166016D01*
X160517927Y-44220206D01*
X160565333Y-44290754D01*
X160683575Y-44398346D01*
X160691991Y-44402915D01*
X160691993Y-44402917D01*
X160815645Y-44470055D01*
X160815647Y-44470056D01*
X160824068Y-44474628D01*
X160978702Y-44515195D01*
X160988281Y-44515345D01*
X160988285Y-44515346D01*
X161062405Y-44516510D01*
X161138548Y-44517706D01*
X161148853Y-44515346D01*
X161195820Y-44504589D01*
X161294380Y-44482016D01*
X161437200Y-44410185D01*
X161558763Y-44306360D01*
X161652052Y-44176535D01*
X161706524Y-44041033D01*
X177115685Y-44041033D01*
X177116736Y-44050553D01*
X177116736Y-44050556D01*
X177126139Y-44135726D01*
X177133228Y-44199933D01*
X177188168Y-44350063D01*
X177193511Y-44358015D01*
X177193512Y-44358016D01*
X177271873Y-44474628D01*
X177277333Y-44482754D01*
X177395575Y-44590346D01*
X177403991Y-44594915D01*
X177403993Y-44594917D01*
X177527645Y-44662055D01*
X177527647Y-44662056D01*
X177536068Y-44666628D01*
X177690702Y-44707195D01*
X177700281Y-44707345D01*
X177700285Y-44707346D01*
X177774405Y-44708510D01*
X177850548Y-44709706D01*
X177860853Y-44707346D01*
X177894687Y-44699597D01*
X178006380Y-44674016D01*
X178149200Y-44602185D01*
X178248289Y-44517555D01*
X178263470Y-44504589D01*
X178263471Y-44504588D01*
X178270763Y-44498360D01*
X178364052Y-44368535D01*
X178423680Y-44220206D01*
X178446205Y-44061934D01*
X178446351Y-44048000D01*
X178427145Y-43889292D01*
X178384307Y-43775926D01*
X178374022Y-43748706D01*
X178374021Y-43748704D01*
X178370636Y-43739746D01*
X178341459Y-43697292D01*
X178285514Y-43615891D01*
X178285513Y-43615890D01*
X178280087Y-43607995D01*
X178250581Y-43581706D01*
X178167880Y-43508022D01*
X178167876Y-43508019D01*
X178160725Y-43501648D01*
X178019440Y-43426841D01*
X177864391Y-43387895D01*
X177784458Y-43387476D01*
X177714107Y-43387108D01*
X177714106Y-43387108D01*
X177704526Y-43387058D01*
X177656131Y-43398677D01*
X177558397Y-43422140D01*
X177558393Y-43422141D01*
X177549077Y-43424378D01*
X177540562Y-43428773D01*
X177540559Y-43428774D01*
X177417299Y-43492394D01*
X177407017Y-43497701D01*
X177399798Y-43503999D01*
X177399796Y-43504000D01*
X177310720Y-43581706D01*
X177286548Y-43602793D01*
X177194624Y-43733588D01*
X177191142Y-43742520D01*
X177191141Y-43742521D01*
X177140032Y-43873608D01*
X177136552Y-43882534D01*
X177115685Y-44041033D01*
X161706524Y-44041033D01*
X161711680Y-44028206D01*
X161734205Y-43869934D01*
X161734351Y-43856000D01*
X161715145Y-43697292D01*
X161677055Y-43596491D01*
X161662022Y-43556706D01*
X161662021Y-43556704D01*
X161658636Y-43547746D01*
X161652370Y-43538628D01*
X161573514Y-43423891D01*
X161573513Y-43423890D01*
X161568087Y-43415995D01*
X161539168Y-43390229D01*
X161455880Y-43316022D01*
X161455876Y-43316019D01*
X161448725Y-43309648D01*
X161307440Y-43234841D01*
X161152391Y-43195895D01*
X161072459Y-43195477D01*
X161002107Y-43195108D01*
X161002106Y-43195108D01*
X160992526Y-43195058D01*
X160944131Y-43206677D01*
X160846397Y-43230140D01*
X160846393Y-43230141D01*
X160837077Y-43232378D01*
X160828562Y-43236773D01*
X160828559Y-43236774D01*
X160718142Y-43293765D01*
X160695017Y-43305701D01*
X160687798Y-43311999D01*
X160687796Y-43312000D01*
X160598121Y-43390229D01*
X160574548Y-43410793D01*
X160482624Y-43541588D01*
X160479142Y-43550520D01*
X160479141Y-43550521D01*
X160428032Y-43681608D01*
X160424552Y-43690534D01*
X160403685Y-43849033D01*
X156382757Y-43849033D01*
X156375324Y-43842041D01*
X156375323Y-43842040D01*
X156371026Y-43837998D01*
X156156027Y-43688848D01*
X155981525Y-43602793D01*
X155926631Y-43575722D01*
X155926628Y-43575721D01*
X155921344Y-43573115D01*
X155915732Y-43571318D01*
X155915728Y-43571317D01*
X155677747Y-43495139D01*
X155677746Y-43495139D01*
X155672133Y-43493342D01*
X155619628Y-43484791D01*
X155419697Y-43452230D01*
X155419693Y-43452230D01*
X155413868Y-43451281D01*
X155283046Y-43449569D01*
X155158129Y-43447933D01*
X155158125Y-43447933D01*
X155152223Y-43447856D01*
X155093139Y-43455897D01*
X154898785Y-43482347D01*
X154898782Y-43482348D01*
X154892945Y-43483142D01*
X154887292Y-43484790D01*
X154887286Y-43484791D01*
X154821384Y-43504000D01*
X154641731Y-43556364D01*
X154636383Y-43558830D01*
X154636379Y-43558831D01*
X154409458Y-43663443D01*
X154409453Y-43663446D01*
X154404099Y-43665914D01*
X154399166Y-43669148D01*
X154399161Y-43669151D01*
X154257498Y-43762030D01*
X154185270Y-43809385D01*
X154180867Y-43813314D01*
X154180868Y-43813314D01*
X154062766Y-43918724D01*
X153990051Y-43983624D01*
X153986281Y-43988157D01*
X153986278Y-43988160D01*
X153940816Y-44042823D01*
X153822730Y-44184806D01*
X153819670Y-44189848D01*
X153819669Y-44189850D01*
X153807007Y-44210717D01*
X153686984Y-44408508D01*
X153684704Y-44413944D01*
X153684704Y-44413945D01*
X153671751Y-44444835D01*
X153585794Y-44649819D01*
X153584343Y-44655531D01*
X153584343Y-44655532D01*
X153546887Y-44803016D01*
X153521384Y-44903435D01*
X153495168Y-45163786D01*
X105939798Y-45163786D01*
X105950281Y-45046322D01*
X105950592Y-45040081D01*
X105951000Y-45001116D01*
X105950821Y-44994891D01*
X105931425Y-44710380D01*
X105929959Y-44699681D01*
X105872600Y-44422703D01*
X105869690Y-44412278D01*
X105775272Y-44145650D01*
X105770977Y-44135726D01*
X105641244Y-43884373D01*
X105635648Y-43875131D01*
X105497515Y-43678588D01*
X105485208Y-43667870D01*
X105480994Y-43668946D01*
X105478148Y-43671059D01*
X104164861Y-44984346D01*
X104156418Y-44998312D01*
X103427201Y-44998312D01*
X103427582Y-44997682D01*
X103423578Y-44988785D01*
X102112039Y-43677246D01*
X102098073Y-43668803D01*
X102093714Y-43670765D01*
X102091810Y-43672749D01*
X101962621Y-43852535D01*
X101904713Y-43901913D01*
X101830490Y-43918724D01*
X101756957Y-43899116D01*
X101700959Y-43847581D01*
X101675325Y-43775926D01*
X101674500Y-43759752D01*
X101674500Y-43306719D01*
X102464191Y-43306719D01*
X102466228Y-43313015D01*
X103778349Y-44625136D01*
X103792315Y-44633579D01*
X103801212Y-44629575D01*
X105111517Y-43319270D01*
X105119960Y-43305304D01*
X105117147Y-43299054D01*
X105046872Y-43241534D01*
X105038073Y-43235281D01*
X104796888Y-43087483D01*
X104787312Y-43082477D01*
X104528312Y-42968784D01*
X104518131Y-42965118D01*
X104335283Y-42913033D01*
X168264685Y-42913033D01*
X168265736Y-42922553D01*
X168265736Y-42922556D01*
X168267561Y-42939083D01*
X168282228Y-43071933D01*
X168337168Y-43222063D01*
X168342511Y-43230015D01*
X168342512Y-43230016D01*
X168402489Y-43319270D01*
X168426333Y-43354754D01*
X168544575Y-43462346D01*
X168552991Y-43466915D01*
X168552993Y-43466917D01*
X168676645Y-43534055D01*
X168676647Y-43534056D01*
X168685068Y-43538628D01*
X168753978Y-43556706D01*
X168826464Y-43575722D01*
X168839702Y-43579195D01*
X168849281Y-43579345D01*
X168849285Y-43579346D01*
X168923405Y-43580510D01*
X168999548Y-43581706D01*
X169009853Y-43579346D01*
X169099426Y-43558831D01*
X169155380Y-43546016D01*
X169298200Y-43474185D01*
X169363240Y-43418635D01*
X169412470Y-43376589D01*
X169412471Y-43376588D01*
X169419763Y-43370360D01*
X169465494Y-43306719D01*
X179464191Y-43306719D01*
X179466228Y-43313015D01*
X180778349Y-44625136D01*
X180792315Y-44633579D01*
X180801212Y-44629575D01*
X182111517Y-43319270D01*
X182119960Y-43305304D01*
X182117147Y-43299054D01*
X182046872Y-43241534D01*
X182038073Y-43235281D01*
X181796888Y-43087483D01*
X181787312Y-43082477D01*
X181528312Y-42968784D01*
X181518131Y-42965118D01*
X181246090Y-42887626D01*
X181235534Y-42885382D01*
X180955480Y-42845524D01*
X180944714Y-42844734D01*
X180661839Y-42843252D01*
X180651074Y-42843930D01*
X180370610Y-42880853D01*
X180360038Y-42882985D01*
X180087189Y-42957628D01*
X180076980Y-42961184D01*
X179816801Y-43072160D01*
X179807174Y-43077066D01*
X179564464Y-43222324D01*
X179555581Y-43228498D01*
X179474114Y-43293765D01*
X179464191Y-43306719D01*
X169465494Y-43306719D01*
X169513052Y-43240535D01*
X169572680Y-43092206D01*
X169595205Y-42933934D01*
X169595351Y-42920000D01*
X169576145Y-42761292D01*
X169519636Y-42611746D01*
X169449508Y-42509707D01*
X169434514Y-42487891D01*
X169434513Y-42487890D01*
X169429087Y-42479995D01*
X169386650Y-42442185D01*
X169316880Y-42380022D01*
X169316876Y-42380019D01*
X169309725Y-42373648D01*
X169168440Y-42298841D01*
X169013391Y-42259895D01*
X168933458Y-42259476D01*
X168863107Y-42259108D01*
X168863106Y-42259108D01*
X168853526Y-42259058D01*
X168807720Y-42270055D01*
X168707397Y-42294140D01*
X168707393Y-42294141D01*
X168698077Y-42296378D01*
X168689562Y-42300773D01*
X168689559Y-42300774D01*
X168604670Y-42344589D01*
X168556017Y-42369701D01*
X168548798Y-42375999D01*
X168548796Y-42376000D01*
X168472927Y-42442185D01*
X168435548Y-42474793D01*
X168343624Y-42605588D01*
X168285552Y-42754534D01*
X168264685Y-42913033D01*
X104335283Y-42913033D01*
X104246090Y-42887626D01*
X104235534Y-42885382D01*
X103955480Y-42845524D01*
X103944714Y-42844734D01*
X103661839Y-42843252D01*
X103651074Y-42843930D01*
X103370610Y-42880853D01*
X103360038Y-42882985D01*
X103087189Y-42957628D01*
X103076980Y-42961184D01*
X102816801Y-43072160D01*
X102807174Y-43077066D01*
X102564464Y-43222324D01*
X102555581Y-43228498D01*
X102474114Y-43293765D01*
X102464191Y-43306719D01*
X101674500Y-43306719D01*
X101674500Y-41881033D01*
X110837685Y-41881033D01*
X110838736Y-41890553D01*
X110838736Y-41890556D01*
X110849088Y-41984320D01*
X110855228Y-42039933D01*
X110910168Y-42190063D01*
X110915511Y-42198015D01*
X110915512Y-42198016D01*
X110981696Y-42296507D01*
X110999333Y-42322754D01*
X111117575Y-42430346D01*
X111125991Y-42434915D01*
X111125993Y-42434917D01*
X111249645Y-42502055D01*
X111249647Y-42502056D01*
X111258068Y-42506628D01*
X111412702Y-42547195D01*
X111422281Y-42547345D01*
X111422285Y-42547346D01*
X111496405Y-42548510D01*
X111572548Y-42549706D01*
X111582853Y-42547346D01*
X111607828Y-42541626D01*
X111728380Y-42514016D01*
X111871200Y-42442185D01*
X111992763Y-42338360D01*
X112086052Y-42208535D01*
X112145680Y-42060206D01*
X112168205Y-41901934D01*
X112168351Y-41888000D01*
X112149145Y-41729292D01*
X112093122Y-41581033D01*
X117187685Y-41581033D01*
X117188736Y-41590553D01*
X117188736Y-41590556D01*
X117196244Y-41658556D01*
X117205228Y-41739933D01*
X117260168Y-41890063D01*
X117265511Y-41898015D01*
X117265512Y-41898016D01*
X117272581Y-41908535D01*
X117349333Y-42022754D01*
X117467575Y-42130346D01*
X117475991Y-42134915D01*
X117475993Y-42134917D01*
X117599645Y-42202055D01*
X117599647Y-42202056D01*
X117608068Y-42206628D01*
X117762702Y-42247195D01*
X117772281Y-42247345D01*
X117772285Y-42247346D01*
X117846405Y-42248510D01*
X117922548Y-42249706D01*
X117932853Y-42247346D01*
X117957828Y-42241626D01*
X118078380Y-42214016D01*
X118221200Y-42142185D01*
X118342763Y-42038360D01*
X118436052Y-41908535D01*
X118495680Y-41760206D01*
X118511502Y-41649033D01*
X179928685Y-41649033D01*
X179929736Y-41658553D01*
X179929736Y-41658556D01*
X179945176Y-41798405D01*
X179946228Y-41807933D01*
X180001168Y-41958063D01*
X180006511Y-41966015D01*
X180006512Y-41966016D01*
X180069806Y-42060206D01*
X180090333Y-42090754D01*
X180208575Y-42198346D01*
X180216991Y-42202915D01*
X180216993Y-42202917D01*
X180340645Y-42270055D01*
X180340647Y-42270056D01*
X180349068Y-42274628D01*
X180503702Y-42315195D01*
X180513281Y-42315345D01*
X180513285Y-42315346D01*
X180587405Y-42316510D01*
X180663548Y-42317706D01*
X180673853Y-42315346D01*
X180726339Y-42303325D01*
X180819380Y-42282016D01*
X180962200Y-42210185D01*
X181022981Y-42158273D01*
X181076470Y-42112589D01*
X181076471Y-42112588D01*
X181083763Y-42106360D01*
X181177052Y-41976535D01*
X181236680Y-41828206D01*
X181259205Y-41669934D01*
X181259351Y-41656000D01*
X181240145Y-41497292D01*
X181183636Y-41347746D01*
X181176733Y-41337701D01*
X181098514Y-41223891D01*
X181098513Y-41223890D01*
X181093087Y-41215995D01*
X181080175Y-41204491D01*
X180980880Y-41116022D01*
X180980876Y-41116019D01*
X180973725Y-41109648D01*
X180832440Y-41034841D01*
X180677391Y-40995895D01*
X180597459Y-40995477D01*
X180527107Y-40995108D01*
X180527106Y-40995108D01*
X180517526Y-40995058D01*
X180469131Y-41006677D01*
X180371397Y-41030140D01*
X180371393Y-41030141D01*
X180362077Y-41032378D01*
X180353562Y-41036773D01*
X180353559Y-41036774D01*
X180331767Y-41048022D01*
X180220017Y-41105701D01*
X180212798Y-41111999D01*
X180212796Y-41112000D01*
X180168508Y-41150635D01*
X180099548Y-41210793D01*
X180007624Y-41341588D01*
X180004142Y-41350520D01*
X180004141Y-41350521D01*
X179966137Y-41447995D01*
X179949552Y-41490534D01*
X179928685Y-41649033D01*
X118511502Y-41649033D01*
X118518205Y-41601934D01*
X118518351Y-41588000D01*
X118499145Y-41429292D01*
X118442636Y-41279746D01*
X118436849Y-41271325D01*
X118357514Y-41155891D01*
X118357513Y-41155890D01*
X118352087Y-41147995D01*
X118304617Y-41105701D01*
X118239880Y-41048022D01*
X118239876Y-41048019D01*
X118232725Y-41041648D01*
X118091440Y-40966841D01*
X117936391Y-40927895D01*
X117856459Y-40927477D01*
X117786107Y-40927108D01*
X117786106Y-40927108D01*
X117776526Y-40927058D01*
X117728131Y-40938677D01*
X117630397Y-40962140D01*
X117630393Y-40962141D01*
X117621077Y-40964378D01*
X117612562Y-40968773D01*
X117612559Y-40968774D01*
X117555492Y-40998229D01*
X117479017Y-41037701D01*
X117471798Y-41043999D01*
X117471796Y-41044000D01*
X117389236Y-41116022D01*
X117358548Y-41142793D01*
X117266624Y-41273588D01*
X117263142Y-41282520D01*
X117263141Y-41282521D01*
X117240112Y-41341588D01*
X117208552Y-41422534D01*
X117187685Y-41581033D01*
X112093122Y-41581033D01*
X112092636Y-41579746D01*
X112025189Y-41481608D01*
X112007514Y-41455891D01*
X112007513Y-41455890D01*
X112002087Y-41447995D01*
X111989175Y-41436491D01*
X111889880Y-41348022D01*
X111889876Y-41348019D01*
X111882725Y-41341648D01*
X111741440Y-41266841D01*
X111586391Y-41227895D01*
X111506459Y-41227477D01*
X111436107Y-41227108D01*
X111436106Y-41227108D01*
X111426526Y-41227058D01*
X111378131Y-41238677D01*
X111280397Y-41262140D01*
X111280393Y-41262141D01*
X111271077Y-41264378D01*
X111262562Y-41268773D01*
X111262559Y-41268774D01*
X111137530Y-41333307D01*
X111129017Y-41337701D01*
X111121798Y-41343999D01*
X111121796Y-41344000D01*
X111015772Y-41436491D01*
X111008548Y-41442793D01*
X110916624Y-41573588D01*
X110913142Y-41582520D01*
X110913141Y-41582521D01*
X110887209Y-41649033D01*
X110858552Y-41722534D01*
X110837685Y-41881033D01*
X101674500Y-41881033D01*
X101674500Y-40224033D01*
X158978685Y-40224033D01*
X158979736Y-40233553D01*
X158979736Y-40233556D01*
X158981561Y-40250083D01*
X158996228Y-40382933D01*
X159051168Y-40533063D01*
X159056511Y-40541015D01*
X159056512Y-40541016D01*
X159063581Y-40551535D01*
X159140333Y-40665754D01*
X159258575Y-40773346D01*
X159266991Y-40777915D01*
X159266993Y-40777917D01*
X159390645Y-40845055D01*
X159390647Y-40845056D01*
X159399068Y-40849628D01*
X159553702Y-40890195D01*
X159563281Y-40890345D01*
X159563285Y-40890346D01*
X159637405Y-40891510D01*
X159713548Y-40892706D01*
X159723853Y-40890346D01*
X159748828Y-40884626D01*
X159869380Y-40857016D01*
X160012200Y-40785185D01*
X160133763Y-40681360D01*
X160227052Y-40551535D01*
X160286680Y-40403206D01*
X160309205Y-40244934D01*
X160309351Y-40231000D01*
X160290145Y-40072292D01*
X160252326Y-39972208D01*
X160237022Y-39931706D01*
X160237021Y-39931704D01*
X160233636Y-39922746D01*
X160172000Y-39833063D01*
X160148514Y-39798891D01*
X160148513Y-39798890D01*
X160143087Y-39790995D01*
X160130175Y-39779491D01*
X160030880Y-39691022D01*
X160030876Y-39691019D01*
X160023725Y-39684648D01*
X159882440Y-39609841D01*
X159727391Y-39570895D01*
X159647459Y-39570477D01*
X159577107Y-39570108D01*
X159577106Y-39570108D01*
X159567526Y-39570058D01*
X159533587Y-39578206D01*
X159421397Y-39605140D01*
X159421393Y-39605141D01*
X159412077Y-39607378D01*
X159403562Y-39611773D01*
X159403559Y-39611774D01*
X159278530Y-39676307D01*
X159270017Y-39680701D01*
X159262798Y-39686999D01*
X159262796Y-39687000D01*
X159208552Y-39734320D01*
X159149548Y-39785793D01*
X159057624Y-39916588D01*
X159054142Y-39925520D01*
X159054141Y-39925521D01*
X159035407Y-39973572D01*
X158999552Y-40065534D01*
X158978685Y-40224033D01*
X101674500Y-40224033D01*
X101674500Y-39524033D01*
X168728685Y-39524033D01*
X168729736Y-39533553D01*
X168729736Y-39533556D01*
X168737901Y-39607507D01*
X168746228Y-39682933D01*
X168801168Y-39833063D01*
X168806511Y-39841015D01*
X168806512Y-39841016D01*
X168881707Y-39952917D01*
X168890333Y-39965754D01*
X169008575Y-40073346D01*
X169016991Y-40077915D01*
X169016993Y-40077917D01*
X169140645Y-40145055D01*
X169140647Y-40145056D01*
X169149068Y-40149628D01*
X169303702Y-40190195D01*
X169313281Y-40190345D01*
X169313285Y-40190346D01*
X169387405Y-40191510D01*
X169463548Y-40192706D01*
X169473853Y-40190346D01*
X169498828Y-40184626D01*
X169619380Y-40157016D01*
X169762200Y-40085185D01*
X169883763Y-39981360D01*
X169977052Y-39851535D01*
X170036680Y-39703206D01*
X170059205Y-39544934D01*
X170059351Y-39531000D01*
X170043381Y-39399033D01*
X173616185Y-39399033D01*
X173617236Y-39408553D01*
X173617236Y-39408556D01*
X173631037Y-39533556D01*
X173633728Y-39557933D01*
X173688668Y-39708063D01*
X173694011Y-39716015D01*
X173694012Y-39716016D01*
X173766618Y-39824064D01*
X173777833Y-39840754D01*
X173896075Y-39948346D01*
X173904491Y-39952915D01*
X173904493Y-39952917D01*
X174028145Y-40020055D01*
X174028147Y-40020056D01*
X174036568Y-40024628D01*
X174191202Y-40065195D01*
X174200781Y-40065345D01*
X174200785Y-40065346D01*
X174274905Y-40066510D01*
X174351048Y-40067706D01*
X174361353Y-40065346D01*
X174399505Y-40056608D01*
X174506880Y-40032016D01*
X174649700Y-39960185D01*
X174771263Y-39856360D01*
X174864552Y-39726535D01*
X174924180Y-39578206D01*
X174946705Y-39419934D01*
X174946851Y-39406000D01*
X174927645Y-39247292D01*
X174871136Y-39097746D01*
X174797788Y-38991022D01*
X174786014Y-38973891D01*
X174786013Y-38973890D01*
X174780587Y-38965995D01*
X174722594Y-38914325D01*
X174668380Y-38866022D01*
X174668376Y-38866019D01*
X174661225Y-38859648D01*
X174519940Y-38784841D01*
X174364891Y-38745895D01*
X174284959Y-38745477D01*
X174214607Y-38745108D01*
X174214606Y-38745108D01*
X174205026Y-38745058D01*
X174156631Y-38756677D01*
X174058897Y-38780140D01*
X174058893Y-38780141D01*
X174049577Y-38782378D01*
X174041062Y-38786773D01*
X174041059Y-38786774D01*
X173916030Y-38851307D01*
X173907517Y-38855701D01*
X173900298Y-38861999D01*
X173900296Y-38862000D01*
X173848131Y-38907507D01*
X173787048Y-38960793D01*
X173695124Y-39091588D01*
X173637052Y-39240534D01*
X173616185Y-39399033D01*
X170043381Y-39399033D01*
X170040145Y-39372292D01*
X169983636Y-39222746D01*
X169893087Y-39090995D01*
X169880175Y-39079491D01*
X169780880Y-38991022D01*
X169780876Y-38991019D01*
X169773725Y-38984648D01*
X169632440Y-38909841D01*
X169477391Y-38870895D01*
X169397459Y-38870477D01*
X169327107Y-38870108D01*
X169327106Y-38870108D01*
X169317526Y-38870058D01*
X169269131Y-38881677D01*
X169171397Y-38905140D01*
X169171393Y-38905141D01*
X169162077Y-38907378D01*
X169153562Y-38911773D01*
X169153559Y-38911774D01*
X169048509Y-38965995D01*
X169020017Y-38980701D01*
X168899548Y-39085793D01*
X168807624Y-39216588D01*
X168749552Y-39365534D01*
X168728685Y-39524033D01*
X101674500Y-39524033D01*
X101674500Y-38539497D01*
X101692712Y-38465606D01*
X101743178Y-38408643D01*
X101814335Y-38381656D01*
X101833500Y-38380497D01*
X182750500Y-38380497D01*
X182824391Y-38398709D01*
G37*
G04 #@! TD.AperFunction*
M02*
