M48
; DRILL file {KiCad (6.0.5)} date Wed Aug 17 15:04:20 2022
; FORMAT={-:-/ absolute / metric / decimal}
; #@! TF.CreationDate,2022-08-17T15:04:20-07:00
; #@! TF.GenerationSoftware,Kicad,Pcbnew,(6.0.5)
; #@! TF.FileFunction,Plated,1,6,PTH
FMAT,2
METRIC
; #@! TA.AperFunction,Plated,PTH,ViaDrill
T1C0.300
; #@! TA.AperFunction,Plated,PTH,ViaDrill
T2C0.400
; #@! TA.AperFunction,Plated,PTH,ComponentDrill
T3C1.000
; #@! TA.AperFunction,Plated,PTH,ComponentDrill
T4C1.300
; #@! TA.AperFunction,Plated,PTH,ComponentDrill
T5C2.000
; #@! TA.AperFunction,Plated,PTH,ComponentDrill
T6C2.200
%
G90
G05
T1
X11.002Y-104.002
X11.002Y-208.002
X11.002Y-312.002
X11.002Y-416.002
X24.344Y-104.344
X24.344Y-208.344
X24.344Y-312.344
X24.344Y-416.344
X25.568Y-104.344
X25.568Y-208.344
X25.568Y-312.344
X25.568Y-416.344
X26.792Y-104.344
X26.792Y-208.344
X26.792Y-312.344
X26.792Y-416.344
X28.016Y-104.344
X28.016Y-208.344
X28.016Y-312.344
X28.016Y-416.344
X38.518Y-75.58
X38.518Y-179.58
X38.518Y-283.58
X38.518Y-387.58
X39.742Y-75.58
X39.742Y-179.58
X39.742Y-283.58
X39.742Y-387.58
X40.966Y-75.58
X40.966Y-179.58
X40.966Y-283.58
X40.966Y-387.58
X42.19Y-75.58
X42.19Y-179.58
X42.19Y-283.58
X42.19Y-387.58
X43.414Y-75.58
X43.414Y-179.58
X43.414Y-283.58
X43.414Y-387.58
X97.998Y-103.952
X97.998Y-207.952
X97.998Y-311.952
X97.998Y-415.952
X111.34Y-104.294
X111.34Y-208.294
X111.34Y-312.294
X111.34Y-416.294
X112.564Y-104.294
X112.564Y-208.294
X112.564Y-312.294
X112.564Y-416.294
X113.788Y-104.294
X113.788Y-208.294
X113.788Y-312.294
X113.788Y-416.294
X115.012Y-104.294
X115.012Y-208.294
X115.012Y-312.294
X115.012Y-416.294
X125.514Y-75.53
X125.514Y-179.53
X125.514Y-283.53
X125.514Y-387.53
X126.738Y-75.53
X126.738Y-179.53
X126.738Y-283.53
X126.738Y-387.53
X127.962Y-75.53
X127.962Y-179.53
X127.962Y-283.53
X127.962Y-387.53
X129.186Y-75.53
X129.186Y-179.53
X129.186Y-283.53
X129.186Y-387.53
X130.41Y-75.53
X130.41Y-179.53
X130.41Y-283.53
X130.41Y-387.53
X184.994Y-103.902
X184.994Y-207.902
X184.994Y-311.902
X184.994Y-415.902
X198.336Y-104.244
X198.336Y-208.244
X198.336Y-312.244
X198.336Y-416.244
X199.56Y-104.244
X199.56Y-208.244
X199.56Y-312.244
X199.56Y-416.244
X200.784Y-104.244
X200.784Y-208.244
X200.784Y-312.244
X200.784Y-416.244
X202.008Y-104.244
X202.008Y-208.244
X202.008Y-312.244
X202.008Y-416.244
X212.51Y-75.48
X212.51Y-179.48
X212.51Y-283.48
X212.51Y-387.48
X213.734Y-75.48
X213.734Y-179.48
X213.734Y-283.48
X213.734Y-387.48
X214.958Y-75.48
X214.958Y-179.48
X214.958Y-283.48
X214.958Y-387.48
X216.182Y-75.48
X216.182Y-179.48
X216.182Y-283.48
X216.182Y-387.48
X217.406Y-75.48
X217.406Y-179.48
X217.406Y-283.48
X217.406Y-387.48
X271.99Y-103.852
X271.99Y-207.852
X271.99Y-311.852
X271.99Y-415.852
X285.332Y-104.194
X285.332Y-208.194
X285.332Y-312.194
X285.332Y-416.194
X286.556Y-104.194
X286.556Y-208.194
X286.556Y-312.194
X286.556Y-416.194
X287.78Y-104.194
X287.78Y-208.194
X287.78Y-312.194
X287.78Y-416.194
X289.004Y-104.194
X289.004Y-208.194
X289.004Y-312.194
X289.004Y-416.194
X299.506Y-75.43
X299.506Y-179.43
X299.506Y-283.43
X299.506Y-387.43
X300.73Y-75.43
X300.73Y-179.43
X300.73Y-283.43
X300.73Y-387.43
X301.954Y-75.43
X301.954Y-179.43
X301.954Y-283.43
X301.954Y-387.43
X303.178Y-75.43
X303.178Y-179.43
X303.178Y-283.43
X303.178Y-387.43
X304.402Y-75.43
X304.402Y-179.43
X304.402Y-283.43
X304.402Y-387.43
T2
X362.125Y-24.26
X362.125Y-128.26
X362.125Y-232.26
X362.125Y-336.26
X365.4Y-14.56
X365.4Y-118.56
X365.4Y-222.56
X365.4Y-326.56
X365.575Y-27.935
X365.575Y-131.935
X365.575Y-235.935
X365.575Y-339.935
X366.05Y-22.985
X366.05Y-126.985
X366.05Y-230.985
X366.05Y-334.985
X370.175Y-27.46
X370.175Y-131.46
X370.175Y-235.46
X370.175Y-339.46
X370.9Y-28.935
X370.9Y-132.935
X370.9Y-236.935
X370.9Y-340.935
X371.75Y-14.26
X371.75Y-118.26
X371.75Y-222.26
X371.75Y-326.26
X372.775Y-31.335
X372.775Y-135.335
X372.775Y-239.335
X372.775Y-343.335
X373.925Y-33.96
X373.925Y-137.96
X373.925Y-241.96
X373.925Y-345.96
X376.575Y-34.16
X376.575Y-138.16
X376.575Y-242.16
X376.575Y-346.16
X378.96Y-55.528
X378.96Y-159.528
X378.96Y-263.528
X378.96Y-367.528
X381.22Y-75.28
X381.22Y-179.28
X381.22Y-283.28
X381.22Y-387.28
X403.575Y-11.71
X403.575Y-115.71
X403.575Y-219.71
X403.575Y-323.71
X405.0Y-15.335
X405.0Y-119.335
X405.0Y-223.335
X405.0Y-327.335
X410.25Y-15.885
X410.25Y-119.885
X410.25Y-223.885
X410.25Y-327.885
X413.075Y-14.635
X413.075Y-118.635
X413.075Y-222.635
X413.075Y-326.635
X413.325Y-11.01
X413.325Y-115.01
X413.325Y-219.01
X413.325Y-323.01
X416.43Y-68.11
X416.43Y-172.11
X416.43Y-276.11
X416.43Y-380.11
X418.21Y-65.822
X418.21Y-169.822
X418.21Y-273.822
X418.21Y-377.822
X418.212Y-10.885
X418.212Y-114.885
X418.212Y-218.885
X418.212Y-322.885
X419.226Y-15.309
X419.226Y-119.309
X419.226Y-223.309
X419.226Y-327.309
X423.6Y-24.735
X423.6Y-128.735
X423.6Y-232.735
X423.6Y-336.735
X424.525Y-13.135
X424.525Y-117.135
X424.525Y-221.135
X424.525Y-325.135
X425.322Y-22.896
X425.322Y-126.896
X425.322Y-230.896
X425.322Y-334.896
X426.625Y-14.96
X426.625Y-118.96
X426.625Y-222.96
X426.625Y-326.96
X427.1Y-24.76
X427.1Y-128.76
X427.1Y-232.76
X427.1Y-336.76
X430.725Y-20.235
X430.725Y-124.235
X430.725Y-228.235
X430.725Y-332.235
X431.225Y-22.385
X431.225Y-25.235
X431.225Y-126.385
X431.225Y-129.235
X431.225Y-230.385
X431.225Y-233.235
X431.225Y-334.385
X431.225Y-337.235
X431.25Y-18.81
X431.25Y-122.81
X431.25Y-226.81
X431.25Y-330.81
X433.475Y-21.135
X433.475Y-125.135
X433.475Y-229.135
X433.475Y-333.135
X434.525Y-11.31
X434.525Y-115.31
X434.525Y-219.31
X434.525Y-323.31
X434.825Y-15.31
X434.825Y-119.31
X434.825Y-223.31
X434.825Y-327.31
X436.25Y-15.935
X436.25Y-119.935
X436.25Y-223.935
X436.25Y-327.935
X436.522Y-17.482
X436.522Y-121.482
X436.522Y-225.482
X436.522Y-329.482
X436.525Y-25.335
X436.525Y-129.335
X436.525Y-233.335
X436.525Y-337.335
X438.175Y-18.235
X438.175Y-122.235
X438.175Y-226.235
X438.175Y-330.235
T3
X19.85Y-12.41
X19.85Y-116.41
X19.85Y-220.41
X19.85Y-324.41
X22.39Y-12.41
X22.39Y-116.41
X22.39Y-220.41
X22.39Y-324.41
X24.93Y-12.41
X24.93Y-116.41
X24.93Y-220.41
X24.93Y-324.41
X27.47Y-12.41
X27.47Y-116.41
X27.47Y-220.41
X27.47Y-324.41
X30.01Y-12.41
X30.01Y-116.41
X30.01Y-220.41
X30.01Y-324.41
X32.55Y-12.41
X32.55Y-116.41
X32.55Y-220.41
X32.55Y-324.41
X106.846Y-12.36
X106.846Y-116.36
X106.846Y-220.36
X106.846Y-324.36
X109.386Y-12.36
X109.386Y-116.36
X109.386Y-220.36
X109.386Y-324.36
X111.926Y-12.36
X111.926Y-116.36
X111.926Y-220.36
X111.926Y-324.36
X114.466Y-12.36
X114.466Y-116.36
X114.466Y-220.36
X114.466Y-324.36
X117.006Y-12.36
X117.006Y-116.36
X117.006Y-220.36
X117.006Y-324.36
X119.546Y-12.36
X119.546Y-116.36
X119.546Y-220.36
X119.546Y-324.36
X193.842Y-12.31
X193.842Y-116.31
X193.842Y-220.31
X193.842Y-324.31
X196.382Y-12.31
X196.382Y-116.31
X196.382Y-220.31
X196.382Y-324.31
X198.922Y-12.31
X198.922Y-116.31
X198.922Y-220.31
X198.922Y-324.31
X201.462Y-12.31
X201.462Y-116.31
X201.462Y-220.31
X201.462Y-324.31
X204.002Y-12.31
X204.002Y-116.31
X204.002Y-220.31
X204.002Y-324.31
X206.542Y-12.31
X206.542Y-116.31
X206.542Y-220.31
X206.542Y-324.31
X280.838Y-12.26
X280.838Y-116.26
X280.838Y-220.26
X280.838Y-324.26
X283.378Y-12.26
X283.378Y-116.26
X283.378Y-220.26
X283.378Y-324.26
X285.918Y-12.26
X285.918Y-116.26
X285.918Y-220.26
X285.918Y-324.26
X288.458Y-12.26
X288.458Y-116.26
X288.458Y-220.26
X288.458Y-324.26
X290.998Y-12.26
X290.998Y-116.26
X290.998Y-220.26
X290.998Y-324.26
X293.538Y-12.26
X293.538Y-116.26
X293.538Y-220.26
X293.538Y-324.26
X367.836Y-12.26
X367.836Y-116.26
X367.836Y-220.26
X367.836Y-324.26
X370.376Y-12.26
X370.376Y-116.26
X370.376Y-220.26
X370.376Y-324.26
X372.916Y-12.26
X372.916Y-116.26
X372.916Y-220.26
X372.916Y-324.26
X375.456Y-12.26
X375.456Y-116.26
X375.456Y-220.26
X375.456Y-324.26
X377.996Y-12.26
X377.996Y-116.26
X377.996Y-220.26
X377.996Y-324.26
X380.536Y-12.26
X380.536Y-116.26
X380.536Y-220.26
X380.536Y-324.26
T4
X40.594Y-73.58
X40.594Y-177.58
X40.594Y-281.58
X40.594Y-385.58
X48.214Y-73.58
X48.214Y-177.58
X48.214Y-281.58
X48.214Y-385.58
X127.59Y-73.53
X127.59Y-177.53
X127.59Y-281.53
X127.59Y-385.53
X135.21Y-73.53
X135.21Y-177.53
X135.21Y-281.53
X135.21Y-385.53
X214.586Y-73.48
X214.586Y-177.48
X214.586Y-281.48
X214.586Y-385.48
X222.206Y-73.48
X222.206Y-177.48
X222.206Y-281.48
X222.206Y-385.48
X301.582Y-73.43
X301.582Y-177.43
X301.582Y-281.43
X301.582Y-385.43
X309.202Y-73.43
X309.202Y-177.43
X309.202Y-281.43
X309.202Y-385.43
X388.582Y-73.43
X388.582Y-177.43
X388.582Y-281.43
X388.582Y-385.43
X396.202Y-73.43
X396.202Y-177.43
X396.202Y-281.43
X396.202Y-385.43
T5
X365.662Y-63.014
X365.662Y-72.32
X365.662Y-167.014
X365.662Y-176.32
X365.662Y-271.014
X365.662Y-280.32
X365.662Y-375.014
X365.662Y-384.32
X374.662Y-63.014
X374.662Y-72.32
X374.662Y-167.014
X374.662Y-176.32
X374.662Y-271.014
X374.662Y-280.32
X374.662Y-375.014
X374.662Y-384.32
X385.97Y-87.34
X385.97Y-96.34
X385.97Y-191.34
X385.97Y-200.34
X385.97Y-295.34
X385.97Y-304.34
X385.97Y-399.34
X385.97Y-408.34
X386.02Y-21.42
X386.02Y-30.42
X386.02Y-125.42
X386.02Y-134.42
X386.02Y-229.42
X386.02Y-238.42
X386.02Y-333.42
X386.02Y-342.42
X423.32Y-63.014
X423.32Y-72.32
X423.32Y-167.014
X423.32Y-176.32
X423.32Y-271.014
X423.32Y-280.32
X423.32Y-375.014
X423.32Y-384.32
X432.32Y-63.014
X432.32Y-72.32
X432.32Y-167.014
X432.32Y-176.32
X432.32Y-271.014
X432.32Y-280.32
X432.32Y-375.014
X432.32Y-384.32
T6
X12.55Y-12.41
X12.55Y-106.41
X12.55Y-116.41
X12.55Y-210.41
X12.55Y-220.41
X12.55Y-314.41
X12.55Y-324.41
X12.55Y-418.41
X51.05Y-12.41
X51.05Y-106.41
X51.05Y-116.41
X51.05Y-210.41
X51.05Y-220.41
X51.05Y-314.41
X51.05Y-324.41
X51.05Y-418.41
X89.55Y-12.41
X89.55Y-106.41
X89.55Y-116.41
X89.55Y-210.41
X89.55Y-220.41
X89.55Y-314.41
X89.55Y-324.41
X89.55Y-418.41
X99.546Y-12.36
X99.546Y-106.36
X99.546Y-116.36
X99.546Y-210.36
X99.546Y-220.36
X99.546Y-314.36
X99.546Y-324.36
X99.546Y-418.36
X138.046Y-12.36
X138.046Y-106.36
X138.046Y-116.36
X138.046Y-210.36
X138.046Y-220.36
X138.046Y-314.36
X138.046Y-324.36
X138.046Y-418.36
X176.546Y-12.36
X176.546Y-106.36
X176.546Y-116.36
X176.546Y-210.36
X176.546Y-220.36
X176.546Y-314.36
X176.546Y-324.36
X176.546Y-418.36
X186.542Y-12.31
X186.542Y-106.31
X186.542Y-116.31
X186.542Y-210.31
X186.542Y-220.31
X186.542Y-314.31
X186.542Y-324.31
X186.542Y-418.31
X225.042Y-12.31
X225.042Y-106.31
X225.042Y-116.31
X225.042Y-210.31
X225.042Y-220.31
X225.042Y-314.31
X225.042Y-324.31
X225.042Y-418.31
X263.542Y-12.31
X263.542Y-106.31
X263.542Y-116.31
X263.542Y-210.31
X263.542Y-220.31
X263.542Y-314.31
X263.542Y-324.31
X263.542Y-418.31
X273.538Y-12.26
X273.538Y-106.26
X273.538Y-116.26
X273.538Y-210.26
X273.538Y-220.26
X273.538Y-314.26
X273.538Y-324.26
X273.538Y-418.26
X312.038Y-12.26
X312.038Y-106.26
X312.038Y-116.26
X312.038Y-210.26
X312.038Y-220.26
X312.038Y-314.26
X312.038Y-324.26
X312.038Y-418.26
X350.538Y-12.26
X350.538Y-106.26
X350.538Y-116.26
X350.538Y-210.26
X350.538Y-220.26
X350.538Y-314.26
X350.538Y-324.26
X350.538Y-418.26
X360.536Y-12.26
X360.536Y-106.26
X360.536Y-116.26
X360.536Y-210.26
X360.536Y-220.26
X360.536Y-314.26
X360.536Y-324.26
X360.536Y-418.26
X399.036Y-12.26
X399.036Y-106.26
X399.036Y-116.26
X399.036Y-210.26
X399.036Y-220.26
X399.036Y-314.26
X399.036Y-324.26
X399.036Y-418.26
X437.536Y-12.26
X437.536Y-106.26
X437.536Y-116.26
X437.536Y-210.26
X437.536Y-220.26
X437.536Y-314.26
X437.536Y-324.26
X437.536Y-418.26
T0
M30
