%FSLAX45Y45*%
G04 Gerber Fmt 4.5, Leading zero omitted, Abs format (unit mm)*
G04 Created by KiCad (PCBNEW (6.0.5)) date 2022-08-17 15:04:21*
%MOMM*%
%LPD*%
G01*
G04 APERTURE LIST*
%TA.AperFunction,Profile*%
%ADD10C,0.100000*%
%TD*%
%TA.AperFunction,Profile*%
%ADD11C,0.050000*%
%TD*%
%ADD12C,0.200000*%
%ADD13C,0.030000*%
%ADD14C,0.040000*%
%ADD15C,0.100000*%
%ADD16C,0.130000*%
%ADD17C,0.220000*%
G04 APERTURE END LIST*
D10*
X38767800Y-4206200D02*
G75*
G03*
X38617800Y-4356200I0J-150000D01*
G01*
X12518800Y-17405200D02*
X12518800Y-14766200D01*
D11*
X26604200Y-19234000D02*
X26604200Y-13197000D01*
X21148200Y-21781000D02*
X23864200Y-21781000D01*
D10*
X15102800Y-14766200D02*
X15102800Y-17405200D01*
D11*
X26604200Y-1797000D02*
X26604200Y-981000D01*
X27103800Y-21276000D02*
X27104200Y-20234000D01*
X1005000Y-31691000D02*
X2749000Y-31691000D01*
D10*
X6403200Y-35571200D02*
X6403200Y-38210200D01*
X21218400Y-38200200D02*
X21218400Y-35561200D01*
D11*
X27103800Y-11376000D02*
X28847800Y-11376000D01*
D10*
X23652400Y-7150200D02*
G75*
G03*
X23802400Y-7000200I0J150000D01*
G01*
D11*
X33563800Y-32176000D02*
X35303800Y-32176000D01*
D10*
X6253200Y-7160200D02*
X3969200Y-7160200D01*
X12668800Y-14616200D02*
G75*
G03*
X12518800Y-14766200I0J-150000D01*
G01*
D11*
X17904600Y-19239000D02*
X17904600Y-13202000D01*
D10*
X3969200Y-25021200D02*
G75*
G03*
X3819200Y-25171200I0J-150000D01*
G01*
D11*
X18404600Y-12202000D02*
X18404200Y-11381000D01*
D10*
X32352000Y-38345200D02*
G75*
G03*
X32502000Y-38195200I0J150000D01*
G01*
D11*
X18404600Y-19239000D02*
X18404600Y-13202000D01*
X3749000Y-21791000D02*
X6465000Y-21791000D01*
D10*
X14952800Y-38355200D02*
G75*
G03*
X15102800Y-38205200I0J150000D01*
G01*
D11*
X33563800Y-10876000D02*
X35303800Y-10876000D01*
X35803600Y-10876000D02*
X37547600Y-10876000D01*
X27103800Y-21276000D02*
X28847800Y-21276000D01*
X12448600Y-21786000D02*
X15164600Y-21786000D01*
X7465000Y-21791000D02*
X9205000Y-21791000D01*
X9205000Y-22607000D02*
X9205000Y-21791000D01*
D10*
X38617800Y-6995200D02*
G75*
G03*
X38767800Y-7145200I150000J0D01*
G01*
X41201800Y-35556200D02*
G75*
G03*
X41051800Y-35406200I-149990J10D01*
G01*
D11*
X33563800Y-42076000D02*
X35303800Y-42076000D01*
X44003600Y-976000D02*
X35803600Y-976000D01*
X35304000Y-19234000D02*
X35304000Y-13197000D01*
X27104200Y-22597000D02*
X27103800Y-21776000D01*
X26604200Y-32997000D02*
X26604200Y-32181000D01*
D10*
X32352000Y-17545200D02*
X30068000Y-17545200D01*
X14952800Y-38355200D02*
X12668800Y-38355200D01*
D11*
X38547600Y-11376000D02*
X41263600Y-11376000D01*
X35804000Y-32997000D02*
X35803600Y-32176000D01*
D10*
X29918000Y-17395200D02*
X29918000Y-14756200D01*
X14952800Y-7155200D02*
X12668800Y-7155200D01*
D11*
X44003600Y-21276000D02*
X44003600Y-11376000D01*
D10*
X32352000Y-7145200D02*
G75*
G03*
X32502000Y-6995200I0J150000D01*
G01*
D11*
X12448600Y-31686000D02*
X15164600Y-31686000D01*
D10*
X21218400Y-7000200D02*
G75*
G03*
X21368400Y-7150200I150000J0D01*
G01*
X21218400Y-7000200D02*
X21218400Y-4361200D01*
X15102800Y-14766200D02*
G75*
G03*
X14952800Y-14616200I-149990J10D01*
G01*
X32502000Y-4356200D02*
X32502000Y-6995200D01*
X15102800Y-25166200D02*
G75*
G03*
X14952800Y-25016200I-149990J10D01*
G01*
X3819200Y-17410200D02*
G75*
G03*
X3969200Y-17560200I150000J0D01*
G01*
X32502000Y-25156200D02*
X32502000Y-27795200D01*
X38617800Y-38195200D02*
G75*
G03*
X38767800Y-38345200I150000J0D01*
G01*
D11*
X17904600Y-22602000D02*
X17904600Y-21786000D01*
D10*
X41051800Y-17545200D02*
X38767800Y-17545200D01*
D11*
X29847800Y-11376000D02*
X32563800Y-11376000D01*
X35804000Y-29634000D02*
X35804000Y-23597000D01*
X12448600Y-10886000D02*
X15164600Y-10886000D01*
D10*
X41051800Y-7145200D02*
X38767800Y-7145200D01*
X6403200Y-4371200D02*
G75*
G03*
X6253200Y-4221200I-150000J0D01*
G01*
X29918000Y-6995200D02*
G75*
G03*
X30068000Y-7145200I150000J0D01*
G01*
D11*
X9704600Y-21786000D02*
X11448600Y-21786000D01*
D10*
X38617800Y-27795200D02*
G75*
G03*
X38767800Y-27945200I150000J0D01*
G01*
X23802400Y-25161200D02*
X23802400Y-27800200D01*
X12518800Y-17405200D02*
G75*
G03*
X12668800Y-17555200I150000J0D01*
G01*
D11*
X27104200Y-29634000D02*
X27104200Y-23597000D01*
D10*
X32502000Y-35556200D02*
X32502000Y-38195200D01*
X3969200Y-4221200D02*
G75*
G03*
X3819200Y-4371200I0J-150000D01*
G01*
X23802400Y-14761200D02*
G75*
G03*
X23652400Y-14611200I-149990J10D01*
G01*
X23652400Y-17550200D02*
X21368400Y-17550200D01*
D11*
X26604200Y-12197000D02*
X26604200Y-11381000D01*
X35303800Y-31676000D02*
X35304000Y-30634000D01*
X24864200Y-32181000D02*
X26604200Y-32181000D01*
D10*
X41201800Y-14756200D02*
G75*
G03*
X41051800Y-14606200I-149990J10D01*
G01*
D11*
X42263600Y-42076000D02*
X44003600Y-42076000D01*
X35803600Y-32176000D02*
X37547600Y-32176000D01*
X27103800Y-42076000D02*
X27104200Y-41034000D01*
X3749000Y-21291000D02*
X6465000Y-21291000D01*
D10*
X41051800Y-38345200D02*
X38767800Y-38345200D01*
D11*
X21148200Y-10881000D02*
X23864200Y-10881000D01*
D10*
X41201800Y-4356200D02*
G75*
G03*
X41051800Y-4206200I-149990J10D01*
G01*
D11*
X1005000Y-10891000D02*
X1005000Y-991000D01*
D10*
X14952800Y-17555200D02*
X12668800Y-17555200D01*
D11*
X24864200Y-21281000D02*
X26604200Y-21281000D01*
D10*
X38617800Y-17395200D02*
X38617800Y-14756200D01*
D11*
X27103800Y-32176000D02*
X28847800Y-32176000D01*
X9205000Y-33007000D02*
X9205000Y-32191000D01*
X17904600Y-8839000D02*
X17904600Y-2802000D01*
D10*
X12518800Y-27805200D02*
G75*
G03*
X12668800Y-27955200I150000J0D01*
G01*
X21368400Y-35411200D02*
G75*
G03*
X21218400Y-35561200I0J-150000D01*
G01*
X15102800Y-25166200D02*
X15102800Y-27805200D01*
D11*
X1005000Y-11391000D02*
X2749000Y-11391000D01*
D10*
X6253200Y-38360200D02*
X3969200Y-38360200D01*
X32352000Y-27945200D02*
G75*
G03*
X32502000Y-27795200I0J150000D01*
G01*
X3969200Y-4221200D02*
X6253200Y-4221200D01*
D11*
X24864200Y-31681000D02*
X26604200Y-31681000D01*
X44003600Y-42076000D02*
X44003600Y-32176000D01*
X35304000Y-8834000D02*
X35304000Y-2797000D01*
D10*
X23802400Y-35561200D02*
X23802400Y-38200200D01*
X32352000Y-17545200D02*
G75*
G03*
X32502000Y-17395200I0J150000D01*
G01*
X12518800Y-7005200D02*
G75*
G03*
X12668800Y-7155200I150000J0D01*
G01*
X29918000Y-38195200D02*
X29918000Y-35556200D01*
X32502000Y-25156200D02*
G75*
G03*
X32352000Y-25006200I-149990J10D01*
G01*
X14952800Y-17555200D02*
G75*
G03*
X15102800Y-17405200I0J150000D01*
G01*
D11*
X18404200Y-32181000D02*
X20148200Y-32181000D01*
X35803600Y-21276000D02*
X35804000Y-20234000D01*
D10*
X38617800Y-38195200D02*
X38617800Y-35556200D01*
D11*
X44003600Y-31676000D02*
X44003600Y-21776000D01*
X44003600Y-10876000D02*
X44003600Y-976000D01*
D10*
X3969200Y-35421200D02*
G75*
G03*
X3819200Y-35571200I0J-150000D01*
G01*
D11*
X35303800Y-976000D02*
X27103800Y-976000D01*
X35304000Y-29634000D02*
X35304000Y-23597000D01*
D10*
X23652400Y-38350200D02*
G75*
G03*
X23802400Y-38200200I0J150000D01*
G01*
X23802400Y-35561200D02*
G75*
G03*
X23652400Y-35411200I-149990J10D01*
G01*
D11*
X9705000Y-33007000D02*
X9704600Y-32186000D01*
X26604200Y-29634000D02*
X26604200Y-23597000D01*
X1005000Y-42091000D02*
X7465000Y-42091000D01*
D10*
X6253200Y-38360200D02*
G75*
G03*
X6403200Y-38210200I0J150000D01*
G01*
D11*
X42263600Y-21776000D02*
X44003600Y-21776000D01*
D10*
X29918000Y-6995200D02*
X29918000Y-4356200D01*
X6403200Y-35571200D02*
G75*
G03*
X6253200Y-35421200I-150000J0D01*
G01*
X41201800Y-25156200D02*
X41201800Y-27795200D01*
X38767800Y-4206200D02*
X41051800Y-4206200D01*
D11*
X35804000Y-1797000D02*
X35803600Y-976000D01*
X35803600Y-21776000D02*
X37547600Y-21776000D01*
X21148200Y-32181000D02*
X23864200Y-32181000D01*
X26604200Y-981000D02*
X18404200Y-981000D01*
X24864200Y-11381000D02*
X26604200Y-11381000D01*
X3749000Y-10891000D02*
X6465000Y-10891000D01*
X17904600Y-33002000D02*
X17904600Y-32186000D01*
X9704600Y-31686000D02*
X9705000Y-30644000D01*
X33563800Y-21276000D02*
X35303800Y-21276000D01*
X7465000Y-11391000D02*
X9205000Y-11391000D01*
D10*
X12668800Y-35416200D02*
G75*
G03*
X12518800Y-35566200I0J-150000D01*
G01*
D11*
X9704600Y-10886000D02*
X11448600Y-10886000D01*
D10*
X21368400Y-14611200D02*
X23652400Y-14611200D01*
X21218400Y-17400200D02*
G75*
G03*
X21368400Y-17550200I150000J0D01*
G01*
D11*
X35804000Y-12197000D02*
X35803600Y-11376000D01*
D10*
X23802400Y-25161200D02*
G75*
G03*
X23652400Y-25011200I-149990J10D01*
G01*
X23652400Y-17550200D02*
G75*
G03*
X23802400Y-17400200I0J150000D01*
G01*
X32502000Y-14756200D02*
X32502000Y-17395200D01*
D11*
X18404200Y-42081000D02*
X18404600Y-41039000D01*
D10*
X15102800Y-4366200D02*
G75*
G03*
X14952800Y-4216200I-149990J10D01*
G01*
X38767800Y-14606200D02*
G75*
G03*
X38617800Y-14756200I0J-150000D01*
G01*
X12668800Y-4216200D02*
G75*
G03*
X12518800Y-4366200I0J-150000D01*
G01*
D11*
X29847800Y-31676000D02*
X32563800Y-31676000D01*
X3749000Y-32191000D02*
X6465000Y-32191000D01*
X27103800Y-42076000D02*
X33563800Y-42076000D01*
D10*
X41201800Y-35556200D02*
X41201800Y-38195200D01*
X30068000Y-35406200D02*
X32352000Y-35406200D01*
D11*
X26604200Y-31681000D02*
X26604200Y-30634000D01*
D10*
X15102800Y-35566200D02*
G75*
G03*
X14952800Y-35416200I-149990J10D01*
G01*
X3969200Y-14621200D02*
G75*
G03*
X3819200Y-14771200I0J-150000D01*
G01*
X30068000Y-25006200D02*
X32352000Y-25006200D01*
D11*
X18404200Y-10881000D02*
X20148200Y-10881000D01*
X9705000Y-8844000D02*
X9705000Y-2807000D01*
X9704600Y-10886000D02*
X9705000Y-9844000D01*
X35803600Y-42076000D02*
X42263600Y-42076000D01*
D10*
X3969200Y-14621200D02*
X6253200Y-14621200D01*
D11*
X24864200Y-21781000D02*
X26604200Y-21781000D01*
D10*
X3819200Y-38210200D02*
G75*
G03*
X3969200Y-38360200I150000J0D01*
G01*
D11*
X18404200Y-21281000D02*
X20148200Y-21281000D01*
X35304000Y-40034000D02*
X35304000Y-33997000D01*
X27104200Y-8834000D02*
X27104200Y-2797000D01*
X16164600Y-31686000D02*
X17904600Y-31686000D01*
D10*
X23652400Y-7150200D02*
X21368400Y-7150200D01*
D11*
X18404600Y-33002000D02*
X18404200Y-32181000D01*
X7465000Y-42091000D02*
X9205000Y-42091000D01*
X26604200Y-10881000D02*
X26604200Y-9834000D01*
D10*
X14952800Y-7155200D02*
G75*
G03*
X15102800Y-7005200I0J150000D01*
G01*
D11*
X18404600Y-8839000D02*
X18404600Y-2802000D01*
D10*
X32352000Y-7145200D02*
X30068000Y-7145200D01*
D11*
X9205000Y-21291000D02*
X9205000Y-20244000D01*
X42263600Y-21276000D02*
X44003600Y-21276000D01*
X9705000Y-22607000D02*
X9704600Y-21786000D01*
X9704600Y-21286000D02*
X11448600Y-21286000D01*
X29847800Y-10876000D02*
X32563800Y-10876000D01*
X3749000Y-11391000D02*
X6465000Y-11391000D01*
X42263600Y-11376000D02*
X44003600Y-11376000D01*
D10*
X30068000Y-4206200D02*
X32352000Y-4206200D01*
X14952800Y-27955200D02*
X12668800Y-27955200D01*
X6403200Y-14771200D02*
G75*
G03*
X6253200Y-14621200I-150000J0D01*
G01*
D11*
X9704600Y-42086000D02*
X16164600Y-42086000D01*
X38547600Y-10876000D02*
X41263600Y-10876000D01*
D10*
X6253200Y-27960200D02*
G75*
G03*
X6403200Y-27810200I0J150000D01*
G01*
D11*
X35304000Y-12197000D02*
X35303800Y-11376000D01*
X18404200Y-21781000D02*
X20148200Y-21781000D01*
D10*
X3819200Y-27810200D02*
X3819200Y-25171200D01*
X41051800Y-17545200D02*
G75*
G03*
X41201800Y-17395200I0J150000D01*
G01*
D11*
X35803600Y-21276000D02*
X37547600Y-21276000D01*
D10*
X23802400Y-4361200D02*
G75*
G03*
X23652400Y-4211200I-149990J10D01*
G01*
X12668800Y-25016200D02*
G75*
G03*
X12518800Y-25166200I0J-150000D01*
G01*
D11*
X17904600Y-42086000D02*
X17904600Y-41039000D01*
D10*
X29918000Y-17395200D02*
G75*
G03*
X30068000Y-17545200I150000J0D01*
G01*
X23652400Y-27950200D02*
X21368400Y-27950200D01*
D11*
X21148200Y-11381000D02*
X23864200Y-11381000D01*
X27103800Y-10876000D02*
X28847800Y-10876000D01*
D10*
X32352000Y-27945200D02*
X30068000Y-27945200D01*
X41051800Y-27945200D02*
X38767800Y-27945200D01*
X6403200Y-14771200D02*
X6403200Y-17410200D01*
X12668800Y-4216200D02*
X14952800Y-4216200D01*
X38617800Y-17395200D02*
G75*
G03*
X38767800Y-17545200I150000J0D01*
G01*
X6403200Y-25171200D02*
X6403200Y-27810200D01*
D11*
X27104200Y-19234000D02*
X27104200Y-13197000D01*
X35804000Y-19234000D02*
X35804000Y-13197000D01*
X9704600Y-11386000D02*
X11448600Y-11386000D01*
D10*
X21368400Y-4211200D02*
X23652400Y-4211200D01*
D11*
X9205000Y-42091000D02*
X9205000Y-41044000D01*
X16164600Y-21786000D02*
X17904600Y-21786000D01*
X1005000Y-10891000D02*
X2749000Y-10891000D01*
X18404200Y-21281000D02*
X18404600Y-20239000D01*
X9705000Y-40044000D02*
X9705000Y-34007000D01*
X24864200Y-42081000D02*
X26604200Y-42081000D01*
D10*
X38767800Y-35406200D02*
G75*
G03*
X38617800Y-35556200I0J-150000D01*
G01*
D11*
X35804000Y-8834000D02*
X35804000Y-2797000D01*
X26604200Y-40034000D02*
X26604200Y-33997000D01*
X27104200Y-40034000D02*
X27104200Y-33997000D01*
X18404600Y-22602000D02*
X18404200Y-21781000D01*
X1005000Y-21291000D02*
X1005000Y-11391000D01*
X9705000Y-19244000D02*
X9705000Y-13207000D01*
X17904600Y-986000D02*
X9704600Y-986000D01*
X9205000Y-40044000D02*
X9205000Y-34007000D01*
X26604200Y-42081000D02*
X26604200Y-41034000D01*
X38547600Y-32176000D02*
X41263600Y-32176000D01*
X35304000Y-32997000D02*
X35303800Y-32176000D01*
X35304000Y-1797000D02*
X35303800Y-976000D01*
D10*
X3969200Y-35421200D02*
X6253200Y-35421200D01*
D11*
X9705000Y-1807000D02*
X9704600Y-986000D01*
X38547600Y-21776000D02*
X41263600Y-21776000D01*
X16164600Y-11386000D02*
X17904600Y-11386000D01*
X9205000Y-991000D02*
X1005000Y-991000D01*
X1005000Y-31691000D02*
X1005000Y-21791000D01*
D10*
X38617800Y-6995200D02*
X38617800Y-4356200D01*
D11*
X18404200Y-31681000D02*
X18404600Y-30639000D01*
X9205000Y-1807000D02*
X9205000Y-991000D01*
X21148200Y-31681000D02*
X23864200Y-31681000D01*
D10*
X21368400Y-4211200D02*
G75*
G03*
X21218400Y-4361200I0J-150000D01*
G01*
D11*
X35803600Y-31676000D02*
X37547600Y-31676000D01*
X35803600Y-11376000D02*
X37547600Y-11376000D01*
X17904600Y-1802000D02*
X17904600Y-986000D01*
X12448600Y-11386000D02*
X15164600Y-11386000D01*
D10*
X30068000Y-35406200D02*
G75*
G03*
X29918000Y-35556200I0J-150000D01*
G01*
D11*
X7465000Y-31691000D02*
X9205000Y-31691000D01*
X38547600Y-31676000D02*
X41263600Y-31676000D01*
X1005000Y-32191000D02*
X2749000Y-32191000D01*
D10*
X15102800Y-4366200D02*
X15102800Y-7005200D01*
X23802400Y-14761200D02*
X23802400Y-17400200D01*
D11*
X7465000Y-21291000D02*
X9205000Y-21291000D01*
X9205000Y-10891000D02*
X9205000Y-9844000D01*
D10*
X32502000Y-14756200D02*
G75*
G03*
X32352000Y-14606200I-149990J10D01*
G01*
X30068000Y-4206200D02*
G75*
G03*
X29918000Y-4356200I0J-150000D01*
G01*
D11*
X26604200Y-8834000D02*
X26604200Y-2797000D01*
X33563800Y-31676000D02*
X35303800Y-31676000D01*
D10*
X14952800Y-27955200D02*
G75*
G03*
X15102800Y-27805200I0J150000D01*
G01*
D11*
X27104200Y-1797000D02*
X27103800Y-976000D01*
D10*
X6403200Y-25171200D02*
G75*
G03*
X6253200Y-25021200I-150000J0D01*
G01*
D11*
X16164600Y-10886000D02*
X17904600Y-10886000D01*
D10*
X38767800Y-14606200D02*
X41051800Y-14606200D01*
D11*
X9704600Y-42086000D02*
X9705000Y-41044000D01*
X33563800Y-11376000D02*
X35303800Y-11376000D01*
X12448600Y-21286000D02*
X15164600Y-21286000D01*
D10*
X30068000Y-25006200D02*
G75*
G03*
X29918000Y-25156200I0J-150000D01*
G01*
X21218400Y-27800200D02*
G75*
G03*
X21368400Y-27950200I150000J0D01*
G01*
D11*
X1005000Y-21291000D02*
X2749000Y-21291000D01*
D10*
X30068000Y-14606200D02*
X32352000Y-14606200D01*
D11*
X17904600Y-40039000D02*
X17904600Y-34002000D01*
X35303800Y-10876000D02*
X35304000Y-9834000D01*
X29847800Y-21776000D02*
X32563800Y-21776000D01*
X29847800Y-32176000D02*
X32563800Y-32176000D01*
X9205000Y-19244000D02*
X9205000Y-13207000D01*
X27104200Y-12197000D02*
X27103800Y-11376000D01*
X9205000Y-31691000D02*
X9205000Y-30644000D01*
X42263600Y-10876000D02*
X44003600Y-10876000D01*
D10*
X21368400Y-14611200D02*
G75*
G03*
X21218400Y-14761200I0J-150000D01*
G01*
D11*
X18404200Y-31681000D02*
X20148200Y-31681000D01*
X7465000Y-10891000D02*
X9205000Y-10891000D01*
D10*
X29918000Y-27795200D02*
X29918000Y-25156200D01*
D11*
X9704600Y-31686000D02*
X11448600Y-31686000D01*
X26604200Y-22597000D02*
X26604200Y-21781000D01*
D10*
X38767800Y-25006200D02*
X41051800Y-25006200D01*
X6403200Y-4371200D02*
X6403200Y-7010200D01*
X3819200Y-27810200D02*
G75*
G03*
X3969200Y-27960200I150000J0D01*
G01*
X15102800Y-35566200D02*
X15102800Y-38205200D01*
X32502000Y-4356200D02*
G75*
G03*
X32352000Y-4206200I-149990J10D01*
G01*
X32352000Y-38345200D02*
X30068000Y-38345200D01*
D11*
X3749000Y-31691000D02*
X6465000Y-31691000D01*
X18404200Y-42081000D02*
X24864200Y-42081000D01*
X9704600Y-21286000D02*
X9705000Y-20244000D01*
X17904600Y-31686000D02*
X17904600Y-30639000D01*
D10*
X21218400Y-38200200D02*
G75*
G03*
X21368400Y-38350200I150000J0D01*
G01*
D11*
X26604200Y-21281000D02*
X26604200Y-20234000D01*
X17904600Y-21286000D02*
X17904600Y-20239000D01*
D10*
X21368400Y-25011200D02*
G75*
G03*
X21218400Y-25161200I0J-150000D01*
G01*
D11*
X38547600Y-21276000D02*
X41263600Y-21276000D01*
D10*
X3819200Y-7010200D02*
X3819200Y-4371200D01*
X21368400Y-35411200D02*
X23652400Y-35411200D01*
D11*
X9705000Y-29644000D02*
X9705000Y-23607000D01*
X42263600Y-31676000D02*
X44003600Y-31676000D01*
D10*
X41201800Y-4356200D02*
X41201800Y-6995200D01*
D11*
X18404600Y-1802000D02*
X18404200Y-981000D01*
D10*
X38617800Y-27795200D02*
X38617800Y-25156200D01*
X38767800Y-25006200D02*
G75*
G03*
X38617800Y-25156200I0J-150000D01*
G01*
D11*
X17904600Y-12202000D02*
X17904600Y-11386000D01*
X35803600Y-42076000D02*
X35804000Y-41034000D01*
X16164600Y-32186000D02*
X17904600Y-32186000D01*
X16164600Y-21286000D02*
X17904600Y-21286000D01*
X35803600Y-10876000D02*
X35804000Y-9834000D01*
D10*
X12668800Y-25016200D02*
X14952800Y-25016200D01*
D11*
X27103800Y-31676000D02*
X28847800Y-31676000D01*
X27103800Y-10876000D02*
X27104200Y-9834000D01*
D10*
X21218400Y-17400200D02*
X21218400Y-14761200D01*
X29918000Y-27795200D02*
G75*
G03*
X30068000Y-27945200I150000J0D01*
G01*
X21368400Y-25011200D02*
X23652400Y-25011200D01*
X12518800Y-38205200D02*
G75*
G03*
X12668800Y-38355200I150000J0D01*
G01*
D11*
X42263600Y-32176000D02*
X44003600Y-32176000D01*
X21148200Y-21281000D02*
X23864200Y-21281000D01*
D10*
X12518800Y-7005200D02*
X12518800Y-4366200D01*
D11*
X1005000Y-21791000D02*
X2749000Y-21791000D01*
X9205000Y-29644000D02*
X9205000Y-23607000D01*
D10*
X41201800Y-14756200D02*
X41201800Y-17395200D01*
D11*
X9205000Y-8844000D02*
X9205000Y-2807000D01*
X18404600Y-40039000D02*
X18404600Y-34002000D01*
D10*
X41201800Y-25156200D02*
G75*
G03*
X41051800Y-25006200I-149990J10D01*
G01*
D11*
X27103800Y-31676000D02*
X27104200Y-30634000D01*
D10*
X3969200Y-25021200D02*
X6253200Y-25021200D01*
X12518800Y-27805200D02*
X12518800Y-25166200D01*
X29918000Y-38195200D02*
G75*
G03*
X30068000Y-38345200I150000J0D01*
G01*
X3819200Y-38210200D02*
X3819200Y-35571200D01*
D11*
X1005000Y-42091000D02*
X1005000Y-32191000D01*
D10*
X23802400Y-4361200D02*
X23802400Y-7000200D01*
X41051800Y-27945200D02*
G75*
G03*
X41201800Y-27795200I0J150000D01*
G01*
X12668800Y-35416200D02*
X14952800Y-35416200D01*
D11*
X24864200Y-10881000D02*
X26604200Y-10881000D01*
X12448600Y-32186000D02*
X15164600Y-32186000D01*
X9205000Y-12207000D02*
X9205000Y-11391000D01*
D10*
X41051800Y-7145200D02*
G75*
G03*
X41201800Y-6995200I0J150000D01*
G01*
D11*
X35303800Y-42076000D02*
X35304000Y-41034000D01*
X17904600Y-29639000D02*
X17904600Y-23602000D01*
D10*
X30068000Y-14606200D02*
G75*
G03*
X29918000Y-14756200I0J-150000D01*
G01*
D11*
X27104200Y-32997000D02*
X27103800Y-32176000D01*
D10*
X32502000Y-35556200D02*
G75*
G03*
X32352000Y-35406200I-149990J10D01*
G01*
D11*
X29847800Y-21276000D02*
X32563800Y-21276000D01*
X18404200Y-10881000D02*
X18404600Y-9839000D01*
X35303800Y-21276000D02*
X35304000Y-20234000D01*
D10*
X23652400Y-27950200D02*
G75*
G03*
X23802400Y-27800200I0J150000D01*
G01*
D11*
X9705000Y-12207000D02*
X9704600Y-11386000D01*
D10*
X6253200Y-27960200D02*
X3969200Y-27960200D01*
D11*
X17904600Y-10886000D02*
X17904600Y-9839000D01*
X18404200Y-11381000D02*
X20148200Y-11381000D01*
X33563800Y-21776000D02*
X35303800Y-21776000D01*
D10*
X38767800Y-35406200D02*
X41051800Y-35406200D01*
X6253200Y-17560200D02*
X3969200Y-17560200D01*
X6253200Y-7160200D02*
G75*
G03*
X6403200Y-7010200I0J150000D01*
G01*
D11*
X18404600Y-29639000D02*
X18404600Y-23602000D01*
X16164600Y-42086000D02*
X17904600Y-42086000D01*
D10*
X21218400Y-27800200D02*
X21218400Y-25161200D01*
D11*
X35804000Y-22597000D02*
X35803600Y-21776000D01*
D10*
X23652400Y-38350200D02*
X21368400Y-38350200D01*
X12518800Y-38205200D02*
X12518800Y-35566200D01*
X6253200Y-17560200D02*
G75*
G03*
X6403200Y-17410200I0J150000D01*
G01*
X12668800Y-14616200D02*
X14952800Y-14616200D01*
D11*
X9704600Y-32186000D02*
X11448600Y-32186000D01*
X27103800Y-21776000D02*
X28847800Y-21776000D01*
D10*
X41051800Y-38345200D02*
G75*
G03*
X41201800Y-38195200I0J150000D01*
G01*
X3819200Y-17410200D02*
X3819200Y-14771200D01*
D11*
X35804000Y-40034000D02*
X35804000Y-33997000D01*
X35803600Y-31676000D02*
X35804000Y-30634000D01*
X7465000Y-32191000D02*
X9205000Y-32191000D01*
X35304000Y-22597000D02*
X35303800Y-21776000D01*
D10*
X3819200Y-7010200D02*
G75*
G03*
X3969200Y-7160200I150000J0D01*
G01*
D12*
D13*
X1085200Y-10385200D02*
X1115200Y-10415200D01*
X1115200Y-10385200D02*
X1085200Y-10415200D01*
X1085200Y-20785200D02*
X1115200Y-20815200D01*
X1115200Y-20785200D02*
X1085200Y-20815200D01*
X1085200Y-31185200D02*
X1115200Y-31215200D01*
X1115200Y-31185200D02*
X1085200Y-31215200D01*
X1085200Y-41585200D02*
X1115200Y-41615200D01*
X1115200Y-41585200D02*
X1085200Y-41615200D01*
X2419400Y-10419400D02*
X2449400Y-10449400D01*
X2449400Y-10419400D02*
X2419400Y-10449400D01*
X2419400Y-20819400D02*
X2449400Y-20849400D01*
X2449400Y-20819400D02*
X2419400Y-20849400D01*
X2419400Y-31219400D02*
X2449400Y-31249400D01*
X2449400Y-31219400D02*
X2419400Y-31249400D01*
X2419400Y-41619400D02*
X2449400Y-41649400D01*
X2449400Y-41619400D02*
X2419400Y-41649400D01*
X2541800Y-10419400D02*
X2571800Y-10449400D01*
X2571800Y-10419400D02*
X2541800Y-10449400D01*
X2541800Y-20819400D02*
X2571800Y-20849400D01*
X2571800Y-20819400D02*
X2541800Y-20849400D01*
X2541800Y-31219400D02*
X2571800Y-31249400D01*
X2571800Y-31219400D02*
X2541800Y-31249400D01*
X2541800Y-41619400D02*
X2571800Y-41649400D01*
X2571800Y-41619400D02*
X2541800Y-41649400D01*
X2664200Y-10419400D02*
X2694200Y-10449400D01*
X2694200Y-10419400D02*
X2664200Y-10449400D01*
X2664200Y-20819400D02*
X2694200Y-20849400D01*
X2694200Y-20819400D02*
X2664200Y-20849400D01*
X2664200Y-31219400D02*
X2694200Y-31249400D01*
X2694200Y-31219400D02*
X2664200Y-31249400D01*
X2664200Y-41619400D02*
X2694200Y-41649400D01*
X2694200Y-41619400D02*
X2664200Y-41649400D01*
X2786600Y-10419400D02*
X2816600Y-10449400D01*
X2816600Y-10419400D02*
X2786600Y-10449400D01*
X2786600Y-20819400D02*
X2816600Y-20849400D01*
X2816600Y-20819400D02*
X2786600Y-20849400D01*
X2786600Y-31219400D02*
X2816600Y-31249400D01*
X2816600Y-31219400D02*
X2786600Y-31249400D01*
X2786600Y-41619400D02*
X2816600Y-41649400D01*
X2816600Y-41619400D02*
X2786600Y-41649400D01*
X3836800Y-7543000D02*
X3866800Y-7573000D01*
X3866800Y-7543000D02*
X3836800Y-7573000D01*
X3836800Y-17943000D02*
X3866800Y-17973000D01*
X3866800Y-17943000D02*
X3836800Y-17973000D01*
X3836800Y-28343000D02*
X3866800Y-28373000D01*
X3866800Y-28343000D02*
X3836800Y-28373000D01*
X3836800Y-38743000D02*
X3866800Y-38773000D01*
X3866800Y-38743000D02*
X3836800Y-38773000D01*
X3959200Y-7543000D02*
X3989200Y-7573000D01*
X3989200Y-7543000D02*
X3959200Y-7573000D01*
X3959200Y-17943000D02*
X3989200Y-17973000D01*
X3989200Y-17943000D02*
X3959200Y-17973000D01*
X3959200Y-28343000D02*
X3989200Y-28373000D01*
X3989200Y-28343000D02*
X3959200Y-28373000D01*
X3959200Y-38743000D02*
X3989200Y-38773000D01*
X3989200Y-38743000D02*
X3959200Y-38773000D01*
X4081600Y-7543000D02*
X4111600Y-7573000D01*
X4111600Y-7543000D02*
X4081600Y-7573000D01*
X4081600Y-17943000D02*
X4111600Y-17973000D01*
X4111600Y-17943000D02*
X4081600Y-17973000D01*
X4081600Y-28343000D02*
X4111600Y-28373000D01*
X4111600Y-28343000D02*
X4081600Y-28373000D01*
X4081600Y-38743000D02*
X4111600Y-38773000D01*
X4111600Y-38743000D02*
X4081600Y-38773000D01*
X4204000Y-7543000D02*
X4234000Y-7573000D01*
X4234000Y-7543000D02*
X4204000Y-7573000D01*
X4204000Y-17943000D02*
X4234000Y-17973000D01*
X4234000Y-17943000D02*
X4204000Y-17973000D01*
X4204000Y-28343000D02*
X4234000Y-28373000D01*
X4234000Y-28343000D02*
X4204000Y-28373000D01*
X4204000Y-38743000D02*
X4234000Y-38773000D01*
X4234000Y-38743000D02*
X4204000Y-38773000D01*
X4326400Y-7543000D02*
X4356400Y-7573000D01*
X4356400Y-7543000D02*
X4326400Y-7573000D01*
X4326400Y-17943000D02*
X4356400Y-17973000D01*
X4356400Y-17943000D02*
X4326400Y-17973000D01*
X4326400Y-28343000D02*
X4356400Y-28373000D01*
X4356400Y-28343000D02*
X4326400Y-28373000D01*
X4326400Y-38743000D02*
X4356400Y-38773000D01*
X4356400Y-38743000D02*
X4326400Y-38773000D01*
X9784800Y-10380200D02*
X9814800Y-10410200D01*
X9814800Y-10380200D02*
X9784800Y-10410200D01*
X9784800Y-20780200D02*
X9814800Y-20810200D01*
X9814800Y-20780200D02*
X9784800Y-20810200D01*
X9784800Y-31180200D02*
X9814800Y-31210200D01*
X9814800Y-31180200D02*
X9784800Y-31210200D01*
X9784800Y-41580200D02*
X9814800Y-41610200D01*
X9814800Y-41580200D02*
X9784800Y-41610200D01*
X11119000Y-10414400D02*
X11149000Y-10444400D01*
X11149000Y-10414400D02*
X11119000Y-10444400D01*
X11119000Y-20814400D02*
X11149000Y-20844400D01*
X11149000Y-20814400D02*
X11119000Y-20844400D01*
X11119000Y-31214400D02*
X11149000Y-31244400D01*
X11149000Y-31214400D02*
X11119000Y-31244400D01*
X11119000Y-41614400D02*
X11149000Y-41644400D01*
X11149000Y-41614400D02*
X11119000Y-41644400D01*
X11241400Y-10414400D02*
X11271400Y-10444400D01*
X11271400Y-10414400D02*
X11241400Y-10444400D01*
X11241400Y-20814400D02*
X11271400Y-20844400D01*
X11271400Y-20814400D02*
X11241400Y-20844400D01*
X11241400Y-31214400D02*
X11271400Y-31244400D01*
X11271400Y-31214400D02*
X11241400Y-31244400D01*
X11241400Y-41614400D02*
X11271400Y-41644400D01*
X11271400Y-41614400D02*
X11241400Y-41644400D01*
X11363800Y-10414400D02*
X11393800Y-10444400D01*
X11393800Y-10414400D02*
X11363800Y-10444400D01*
X11363800Y-20814400D02*
X11393800Y-20844400D01*
X11393800Y-20814400D02*
X11363800Y-20844400D01*
X11363800Y-31214400D02*
X11393800Y-31244400D01*
X11393800Y-31214400D02*
X11363800Y-31244400D01*
X11363800Y-41614400D02*
X11393800Y-41644400D01*
X11393800Y-41614400D02*
X11363800Y-41644400D01*
X11486200Y-10414400D02*
X11516200Y-10444400D01*
X11516200Y-10414400D02*
X11486200Y-10444400D01*
X11486200Y-20814400D02*
X11516200Y-20844400D01*
X11516200Y-20814400D02*
X11486200Y-20844400D01*
X11486200Y-31214400D02*
X11516200Y-31244400D01*
X11516200Y-31214400D02*
X11486200Y-31244400D01*
X11486200Y-41614400D02*
X11516200Y-41644400D01*
X11516200Y-41614400D02*
X11486200Y-41644400D01*
X12536400Y-7538000D02*
X12566400Y-7568000D01*
X12566400Y-7538000D02*
X12536400Y-7568000D01*
X12536400Y-17938000D02*
X12566400Y-17968000D01*
X12566400Y-17938000D02*
X12536400Y-17968000D01*
X12536400Y-28338000D02*
X12566400Y-28368000D01*
X12566400Y-28338000D02*
X12536400Y-28368000D01*
X12536400Y-38738000D02*
X12566400Y-38768000D01*
X12566400Y-38738000D02*
X12536400Y-38768000D01*
X12658800Y-7538000D02*
X12688800Y-7568000D01*
X12688800Y-7538000D02*
X12658800Y-7568000D01*
X12658800Y-17938000D02*
X12688800Y-17968000D01*
X12688800Y-17938000D02*
X12658800Y-17968000D01*
X12658800Y-28338000D02*
X12688800Y-28368000D01*
X12688800Y-28338000D02*
X12658800Y-28368000D01*
X12658800Y-38738000D02*
X12688800Y-38768000D01*
X12688800Y-38738000D02*
X12658800Y-38768000D01*
X12781200Y-7538000D02*
X12811200Y-7568000D01*
X12811200Y-7538000D02*
X12781200Y-7568000D01*
X12781200Y-17938000D02*
X12811200Y-17968000D01*
X12811200Y-17938000D02*
X12781200Y-17968000D01*
X12781200Y-28338000D02*
X12811200Y-28368000D01*
X12811200Y-28338000D02*
X12781200Y-28368000D01*
X12781200Y-38738000D02*
X12811200Y-38768000D01*
X12811200Y-38738000D02*
X12781200Y-38768000D01*
X12903600Y-7538000D02*
X12933600Y-7568000D01*
X12933600Y-7538000D02*
X12903600Y-7568000D01*
X12903600Y-17938000D02*
X12933600Y-17968000D01*
X12933600Y-17938000D02*
X12903600Y-17968000D01*
X12903600Y-28338000D02*
X12933600Y-28368000D01*
X12933600Y-28338000D02*
X12903600Y-28368000D01*
X12903600Y-38738000D02*
X12933600Y-38768000D01*
X12933600Y-38738000D02*
X12903600Y-38768000D01*
X13026000Y-7538000D02*
X13056000Y-7568000D01*
X13056000Y-7538000D02*
X13026000Y-7568000D01*
X13026000Y-17938000D02*
X13056000Y-17968000D01*
X13056000Y-17938000D02*
X13026000Y-17968000D01*
X13026000Y-28338000D02*
X13056000Y-28368000D01*
X13056000Y-28338000D02*
X13026000Y-28368000D01*
X13026000Y-38738000D02*
X13056000Y-38768000D01*
X13056000Y-38738000D02*
X13026000Y-38768000D01*
X18484400Y-10375200D02*
X18514400Y-10405200D01*
X18514400Y-10375200D02*
X18484400Y-10405200D01*
X18484400Y-20775200D02*
X18514400Y-20805200D01*
X18514400Y-20775200D02*
X18484400Y-20805200D01*
X18484400Y-31175200D02*
X18514400Y-31205200D01*
X18514400Y-31175200D02*
X18484400Y-31205200D01*
X18484400Y-41575200D02*
X18514400Y-41605200D01*
X18514400Y-41575200D02*
X18484400Y-41605200D01*
X19818600Y-10409400D02*
X19848600Y-10439400D01*
X19848600Y-10409400D02*
X19818600Y-10439400D01*
X19818600Y-20809400D02*
X19848600Y-20839400D01*
X19848600Y-20809400D02*
X19818600Y-20839400D01*
X19818600Y-31209400D02*
X19848600Y-31239400D01*
X19848600Y-31209400D02*
X19818600Y-31239400D01*
X19818600Y-41609400D02*
X19848600Y-41639400D01*
X19848600Y-41609400D02*
X19818600Y-41639400D01*
X19941000Y-10409400D02*
X19971000Y-10439400D01*
X19971000Y-10409400D02*
X19941000Y-10439400D01*
X19941000Y-20809400D02*
X19971000Y-20839400D01*
X19971000Y-20809400D02*
X19941000Y-20839400D01*
X19941000Y-31209400D02*
X19971000Y-31239400D01*
X19971000Y-31209400D02*
X19941000Y-31239400D01*
X19941000Y-41609400D02*
X19971000Y-41639400D01*
X19971000Y-41609400D02*
X19941000Y-41639400D01*
X20063400Y-10409400D02*
X20093400Y-10439400D01*
X20093400Y-10409400D02*
X20063400Y-10439400D01*
X20063400Y-20809400D02*
X20093400Y-20839400D01*
X20093400Y-20809400D02*
X20063400Y-20839400D01*
X20063400Y-31209400D02*
X20093400Y-31239400D01*
X20093400Y-31209400D02*
X20063400Y-31239400D01*
X20063400Y-41609400D02*
X20093400Y-41639400D01*
X20093400Y-41609400D02*
X20063400Y-41639400D01*
X20185800Y-10409400D02*
X20215800Y-10439400D01*
X20215800Y-10409400D02*
X20185800Y-10439400D01*
X20185800Y-20809400D02*
X20215800Y-20839400D01*
X20215800Y-20809400D02*
X20185800Y-20839400D01*
X20185800Y-31209400D02*
X20215800Y-31239400D01*
X20215800Y-31209400D02*
X20185800Y-31239400D01*
X20185800Y-41609400D02*
X20215800Y-41639400D01*
X20215800Y-41609400D02*
X20185800Y-41639400D01*
X21236000Y-7533000D02*
X21266000Y-7563000D01*
X21266000Y-7533000D02*
X21236000Y-7563000D01*
X21236000Y-17933000D02*
X21266000Y-17963000D01*
X21266000Y-17933000D02*
X21236000Y-17963000D01*
X21236000Y-28333000D02*
X21266000Y-28363000D01*
X21266000Y-28333000D02*
X21236000Y-28363000D01*
X21236000Y-38733000D02*
X21266000Y-38763000D01*
X21266000Y-38733000D02*
X21236000Y-38763000D01*
X21358400Y-7533000D02*
X21388400Y-7563000D01*
X21388400Y-7533000D02*
X21358400Y-7563000D01*
X21358400Y-17933000D02*
X21388400Y-17963000D01*
X21388400Y-17933000D02*
X21358400Y-17963000D01*
X21358400Y-28333000D02*
X21388400Y-28363000D01*
X21388400Y-28333000D02*
X21358400Y-28363000D01*
X21358400Y-38733000D02*
X21388400Y-38763000D01*
X21388400Y-38733000D02*
X21358400Y-38763000D01*
X21480800Y-7533000D02*
X21510800Y-7563000D01*
X21510800Y-7533000D02*
X21480800Y-7563000D01*
X21480800Y-17933000D02*
X21510800Y-17963000D01*
X21510800Y-17933000D02*
X21480800Y-17963000D01*
X21480800Y-28333000D02*
X21510800Y-28363000D01*
X21510800Y-28333000D02*
X21480800Y-28363000D01*
X21480800Y-38733000D02*
X21510800Y-38763000D01*
X21510800Y-38733000D02*
X21480800Y-38763000D01*
X21603200Y-7533000D02*
X21633200Y-7563000D01*
X21633200Y-7533000D02*
X21603200Y-7563000D01*
X21603200Y-17933000D02*
X21633200Y-17963000D01*
X21633200Y-17933000D02*
X21603200Y-17963000D01*
X21603200Y-28333000D02*
X21633200Y-28363000D01*
X21633200Y-28333000D02*
X21603200Y-28363000D01*
X21603200Y-38733000D02*
X21633200Y-38763000D01*
X21633200Y-38733000D02*
X21603200Y-38763000D01*
X21725600Y-7533000D02*
X21755600Y-7563000D01*
X21755600Y-7533000D02*
X21725600Y-7563000D01*
X21725600Y-17933000D02*
X21755600Y-17963000D01*
X21755600Y-17933000D02*
X21725600Y-17963000D01*
X21725600Y-28333000D02*
X21755600Y-28363000D01*
X21755600Y-28333000D02*
X21725600Y-28363000D01*
X21725600Y-38733000D02*
X21755600Y-38763000D01*
X21755600Y-38733000D02*
X21725600Y-38763000D01*
X27184000Y-10370200D02*
X27214000Y-10400200D01*
X27214000Y-10370200D02*
X27184000Y-10400200D01*
X27184000Y-20770200D02*
X27214000Y-20800200D01*
X27214000Y-20770200D02*
X27184000Y-20800200D01*
X27184000Y-31170200D02*
X27214000Y-31200200D01*
X27214000Y-31170200D02*
X27184000Y-31200200D01*
X27184000Y-41570200D02*
X27214000Y-41600200D01*
X27214000Y-41570200D02*
X27184000Y-41600200D01*
X28518200Y-10404400D02*
X28548200Y-10434400D01*
X28548200Y-10404400D02*
X28518200Y-10434400D01*
X28518200Y-20804400D02*
X28548200Y-20834400D01*
X28548200Y-20804400D02*
X28518200Y-20834400D01*
X28518200Y-31204400D02*
X28548200Y-31234400D01*
X28548200Y-31204400D02*
X28518200Y-31234400D01*
X28518200Y-41604400D02*
X28548200Y-41634400D01*
X28548200Y-41604400D02*
X28518200Y-41634400D01*
X28640600Y-10404400D02*
X28670600Y-10434400D01*
X28670600Y-10404400D02*
X28640600Y-10434400D01*
X28640600Y-20804400D02*
X28670600Y-20834400D01*
X28670600Y-20804400D02*
X28640600Y-20834400D01*
X28640600Y-31204400D02*
X28670600Y-31234400D01*
X28670600Y-31204400D02*
X28640600Y-31234400D01*
X28640600Y-41604400D02*
X28670600Y-41634400D01*
X28670600Y-41604400D02*
X28640600Y-41634400D01*
X28763000Y-10404400D02*
X28793000Y-10434400D01*
X28793000Y-10404400D02*
X28763000Y-10434400D01*
X28763000Y-20804400D02*
X28793000Y-20834400D01*
X28793000Y-20804400D02*
X28763000Y-20834400D01*
X28763000Y-31204400D02*
X28793000Y-31234400D01*
X28793000Y-31204400D02*
X28763000Y-31234400D01*
X28763000Y-41604400D02*
X28793000Y-41634400D01*
X28793000Y-41604400D02*
X28763000Y-41634400D01*
X28885400Y-10404400D02*
X28915400Y-10434400D01*
X28915400Y-10404400D02*
X28885400Y-10434400D01*
X28885400Y-20804400D02*
X28915400Y-20834400D01*
X28915400Y-20804400D02*
X28885400Y-20834400D01*
X28885400Y-31204400D02*
X28915400Y-31234400D01*
X28915400Y-31204400D02*
X28885400Y-31234400D01*
X28885400Y-41604400D02*
X28915400Y-41634400D01*
X28915400Y-41604400D02*
X28885400Y-41634400D01*
X29935600Y-7528000D02*
X29965600Y-7558000D01*
X29965600Y-7528000D02*
X29935600Y-7558000D01*
X29935600Y-17928000D02*
X29965600Y-17958000D01*
X29965600Y-17928000D02*
X29935600Y-17958000D01*
X29935600Y-28328000D02*
X29965600Y-28358000D01*
X29965600Y-28328000D02*
X29935600Y-28358000D01*
X29935600Y-38728000D02*
X29965600Y-38758000D01*
X29965600Y-38728000D02*
X29935600Y-38758000D01*
X30058000Y-7528000D02*
X30088000Y-7558000D01*
X30088000Y-7528000D02*
X30058000Y-7558000D01*
X30058000Y-17928000D02*
X30088000Y-17958000D01*
X30088000Y-17928000D02*
X30058000Y-17958000D01*
X30058000Y-28328000D02*
X30088000Y-28358000D01*
X30088000Y-28328000D02*
X30058000Y-28358000D01*
X30058000Y-38728000D02*
X30088000Y-38758000D01*
X30088000Y-38728000D02*
X30058000Y-38758000D01*
X30180400Y-7528000D02*
X30210400Y-7558000D01*
X30210400Y-7528000D02*
X30180400Y-7558000D01*
X30180400Y-17928000D02*
X30210400Y-17958000D01*
X30210400Y-17928000D02*
X30180400Y-17958000D01*
X30180400Y-28328000D02*
X30210400Y-28358000D01*
X30210400Y-28328000D02*
X30180400Y-28358000D01*
X30180400Y-38728000D02*
X30210400Y-38758000D01*
X30210400Y-38728000D02*
X30180400Y-38758000D01*
X30302800Y-7528000D02*
X30332800Y-7558000D01*
X30332800Y-7528000D02*
X30302800Y-7558000D01*
X30302800Y-17928000D02*
X30332800Y-17958000D01*
X30332800Y-17928000D02*
X30302800Y-17958000D01*
X30302800Y-28328000D02*
X30332800Y-28358000D01*
X30332800Y-28328000D02*
X30302800Y-28358000D01*
X30302800Y-38728000D02*
X30332800Y-38758000D01*
X30332800Y-38728000D02*
X30302800Y-38758000D01*
X30425200Y-7528000D02*
X30455200Y-7558000D01*
X30455200Y-7528000D02*
X30425200Y-7558000D01*
X30425200Y-17928000D02*
X30455200Y-17958000D01*
X30455200Y-17928000D02*
X30425200Y-17958000D01*
X30425200Y-28328000D02*
X30455200Y-28358000D01*
X30455200Y-28328000D02*
X30425200Y-28358000D01*
X30425200Y-38728000D02*
X30455200Y-38758000D01*
X30455200Y-38728000D02*
X30425200Y-38758000D01*
D14*
X36232500Y-2426000D02*
G75*
G03*
X36232500Y-2426000I-20000J0D01*
G01*
X36232500Y-12826000D02*
G75*
G03*
X36232500Y-12826000I-20000J0D01*
G01*
X36232500Y-23226000D02*
G75*
G03*
X36232500Y-23226000I-20000J0D01*
G01*
X36232500Y-33626000D02*
G75*
G03*
X36232500Y-33626000I-20000J0D01*
G01*
X36560000Y-1456000D02*
G75*
G03*
X36560000Y-1456000I-20000J0D01*
G01*
X36560000Y-11856000D02*
G75*
G03*
X36560000Y-11856000I-20000J0D01*
G01*
X36560000Y-22256000D02*
G75*
G03*
X36560000Y-22256000I-20000J0D01*
G01*
X36560000Y-32656000D02*
G75*
G03*
X36560000Y-32656000I-20000J0D01*
G01*
X36577500Y-2793500D02*
G75*
G03*
X36577500Y-2793500I-20000J0D01*
G01*
X36577500Y-13193500D02*
G75*
G03*
X36577500Y-13193500I-20000J0D01*
G01*
X36577500Y-23593500D02*
G75*
G03*
X36577500Y-23593500I-20000J0D01*
G01*
X36577500Y-33993500D02*
G75*
G03*
X36577500Y-33993500I-20000J0D01*
G01*
X36625000Y-2298500D02*
G75*
G03*
X36625000Y-2298500I-20000J0D01*
G01*
X36625000Y-12698500D02*
G75*
G03*
X36625000Y-12698500I-20000J0D01*
G01*
X36625000Y-23098500D02*
G75*
G03*
X36625000Y-23098500I-20000J0D01*
G01*
X36625000Y-33498500D02*
G75*
G03*
X36625000Y-33498500I-20000J0D01*
G01*
X37037500Y-2746000D02*
G75*
G03*
X37037500Y-2746000I-20000J0D01*
G01*
X37037500Y-13146000D02*
G75*
G03*
X37037500Y-13146000I-20000J0D01*
G01*
X37037500Y-23546000D02*
G75*
G03*
X37037500Y-23546000I-20000J0D01*
G01*
X37037500Y-33946000D02*
G75*
G03*
X37037500Y-33946000I-20000J0D01*
G01*
X37110000Y-2893500D02*
G75*
G03*
X37110000Y-2893500I-20000J0D01*
G01*
X37110000Y-13293500D02*
G75*
G03*
X37110000Y-13293500I-20000J0D01*
G01*
X37110000Y-23693500D02*
G75*
G03*
X37110000Y-23693500I-20000J0D01*
G01*
X37110000Y-34093500D02*
G75*
G03*
X37110000Y-34093500I-20000J0D01*
G01*
X37195000Y-1426000D02*
G75*
G03*
X37195000Y-1426000I-20000J0D01*
G01*
X37195000Y-11826000D02*
G75*
G03*
X37195000Y-11826000I-20000J0D01*
G01*
X37195000Y-22226000D02*
G75*
G03*
X37195000Y-22226000I-20000J0D01*
G01*
X37195000Y-32626000D02*
G75*
G03*
X37195000Y-32626000I-20000J0D01*
G01*
X37297500Y-3133500D02*
G75*
G03*
X37297500Y-3133500I-20000J0D01*
G01*
X37297500Y-13533500D02*
G75*
G03*
X37297500Y-13533500I-20000J0D01*
G01*
X37297500Y-23933500D02*
G75*
G03*
X37297500Y-23933500I-20000J0D01*
G01*
X37297500Y-34333500D02*
G75*
G03*
X37297500Y-34333500I-20000J0D01*
G01*
X37412500Y-3396000D02*
G75*
G03*
X37412500Y-3396000I-20000J0D01*
G01*
X37412500Y-13796000D02*
G75*
G03*
X37412500Y-13796000I-20000J0D01*
G01*
X37412500Y-24196000D02*
G75*
G03*
X37412500Y-24196000I-20000J0D01*
G01*
X37412500Y-34596000D02*
G75*
G03*
X37412500Y-34596000I-20000J0D01*
G01*
X37677500Y-3416000D02*
G75*
G03*
X37677500Y-3416000I-20000J0D01*
G01*
X37677500Y-13816000D02*
G75*
G03*
X37677500Y-13816000I-20000J0D01*
G01*
X37677500Y-24216000D02*
G75*
G03*
X37677500Y-24216000I-20000J0D01*
G01*
X37677500Y-34616000D02*
G75*
G03*
X37677500Y-34616000I-20000J0D01*
G01*
X37916000Y-5552800D02*
G75*
G03*
X37916000Y-5552800I-20000J0D01*
G01*
X37916000Y-15952800D02*
G75*
G03*
X37916000Y-15952800I-20000J0D01*
G01*
X37916000Y-26352800D02*
G75*
G03*
X37916000Y-26352800I-20000J0D01*
G01*
X37916000Y-36752800D02*
G75*
G03*
X37916000Y-36752800I-20000J0D01*
G01*
X38142000Y-7528000D02*
G75*
G03*
X38142000Y-7528000I-20000J0D01*
G01*
X38142000Y-17928000D02*
G75*
G03*
X38142000Y-17928000I-20000J0D01*
G01*
X38142000Y-28328000D02*
G75*
G03*
X38142000Y-28328000I-20000J0D01*
G01*
X38142000Y-38728000D02*
G75*
G03*
X38142000Y-38728000I-20000J0D01*
G01*
X40377500Y-1171000D02*
G75*
G03*
X40377500Y-1171000I-20000J0D01*
G01*
X40377500Y-11571000D02*
G75*
G03*
X40377500Y-11571000I-20000J0D01*
G01*
X40377500Y-21971000D02*
G75*
G03*
X40377500Y-21971000I-20000J0D01*
G01*
X40377500Y-32371000D02*
G75*
G03*
X40377500Y-32371000I-20000J0D01*
G01*
X40520000Y-1533500D02*
G75*
G03*
X40520000Y-1533500I-20000J0D01*
G01*
X40520000Y-11933500D02*
G75*
G03*
X40520000Y-11933500I-20000J0D01*
G01*
X40520000Y-22333500D02*
G75*
G03*
X40520000Y-22333500I-20000J0D01*
G01*
X40520000Y-32733500D02*
G75*
G03*
X40520000Y-32733500I-20000J0D01*
G01*
X41045000Y-1588500D02*
G75*
G03*
X41045000Y-1588500I-20000J0D01*
G01*
X41045000Y-11988500D02*
G75*
G03*
X41045000Y-11988500I-20000J0D01*
G01*
X41045000Y-22388500D02*
G75*
G03*
X41045000Y-22388500I-20000J0D01*
G01*
X41045000Y-32788500D02*
G75*
G03*
X41045000Y-32788500I-20000J0D01*
G01*
X41327500Y-1463500D02*
G75*
G03*
X41327500Y-1463500I-20000J0D01*
G01*
X41327500Y-11863500D02*
G75*
G03*
X41327500Y-11863500I-20000J0D01*
G01*
X41327500Y-22263500D02*
G75*
G03*
X41327500Y-22263500I-20000J0D01*
G01*
X41327500Y-32663500D02*
G75*
G03*
X41327500Y-32663500I-20000J0D01*
G01*
X41352500Y-1101000D02*
G75*
G03*
X41352500Y-1101000I-20000J0D01*
G01*
X41352500Y-11501000D02*
G75*
G03*
X41352500Y-11501000I-20000J0D01*
G01*
X41352500Y-21901000D02*
G75*
G03*
X41352500Y-21901000I-20000J0D01*
G01*
X41352500Y-32301000D02*
G75*
G03*
X41352500Y-32301000I-20000J0D01*
G01*
X41663000Y-6811000D02*
G75*
G03*
X41663000Y-6811000I-20000J0D01*
G01*
X41663000Y-17211000D02*
G75*
G03*
X41663000Y-17211000I-20000J0D01*
G01*
X41663000Y-27611000D02*
G75*
G03*
X41663000Y-27611000I-20000J0D01*
G01*
X41663000Y-38011000D02*
G75*
G03*
X41663000Y-38011000I-20000J0D01*
G01*
X41841000Y-6582200D02*
G75*
G03*
X41841000Y-6582200I-20000J0D01*
G01*
X41841000Y-16982200D02*
G75*
G03*
X41841000Y-16982200I-20000J0D01*
G01*
X41841000Y-27382200D02*
G75*
G03*
X41841000Y-27382200I-20000J0D01*
G01*
X41841000Y-37782200D02*
G75*
G03*
X41841000Y-37782200I-20000J0D01*
G01*
X41841250Y-1088500D02*
G75*
G03*
X41841250Y-1088500I-20000J0D01*
G01*
X41841250Y-11488500D02*
G75*
G03*
X41841250Y-11488500I-20000J0D01*
G01*
X41841250Y-21888500D02*
G75*
G03*
X41841250Y-21888500I-20000J0D01*
G01*
X41841250Y-32288500D02*
G75*
G03*
X41841250Y-32288500I-20000J0D01*
G01*
X41942600Y-1530900D02*
G75*
G03*
X41942600Y-1530900I-20000J0D01*
G01*
X41942600Y-11930900D02*
G75*
G03*
X41942600Y-11930900I-20000J0D01*
G01*
X41942600Y-22330900D02*
G75*
G03*
X41942600Y-22330900I-20000J0D01*
G01*
X41942600Y-32730900D02*
G75*
G03*
X41942600Y-32730900I-20000J0D01*
G01*
X42380000Y-2473500D02*
G75*
G03*
X42380000Y-2473500I-20000J0D01*
G01*
X42380000Y-12873500D02*
G75*
G03*
X42380000Y-12873500I-20000J0D01*
G01*
X42380000Y-23273500D02*
G75*
G03*
X42380000Y-23273500I-20000J0D01*
G01*
X42380000Y-33673500D02*
G75*
G03*
X42380000Y-33673500I-20000J0D01*
G01*
X42472500Y-1313500D02*
G75*
G03*
X42472500Y-1313500I-20000J0D01*
G01*
X42472500Y-11713500D02*
G75*
G03*
X42472500Y-11713500I-20000J0D01*
G01*
X42472500Y-22113500D02*
G75*
G03*
X42472500Y-22113500I-20000J0D01*
G01*
X42472500Y-32513500D02*
G75*
G03*
X42472500Y-32513500I-20000J0D01*
G01*
X42552200Y-2289600D02*
G75*
G03*
X42552200Y-2289600I-20000J0D01*
G01*
X42552200Y-12689600D02*
G75*
G03*
X42552200Y-12689600I-20000J0D01*
G01*
X42552200Y-23089600D02*
G75*
G03*
X42552200Y-23089600I-20000J0D01*
G01*
X42552200Y-33489600D02*
G75*
G03*
X42552200Y-33489600I-20000J0D01*
G01*
X42682500Y-1496000D02*
G75*
G03*
X42682500Y-1496000I-20000J0D01*
G01*
X42682500Y-11896000D02*
G75*
G03*
X42682500Y-11896000I-20000J0D01*
G01*
X42682500Y-22296000D02*
G75*
G03*
X42682500Y-22296000I-20000J0D01*
G01*
X42682500Y-32696000D02*
G75*
G03*
X42682500Y-32696000I-20000J0D01*
G01*
X42730000Y-2476000D02*
G75*
G03*
X42730000Y-2476000I-20000J0D01*
G01*
X42730000Y-12876000D02*
G75*
G03*
X42730000Y-12876000I-20000J0D01*
G01*
X42730000Y-23276000D02*
G75*
G03*
X42730000Y-23276000I-20000J0D01*
G01*
X42730000Y-33676000D02*
G75*
G03*
X42730000Y-33676000I-20000J0D01*
G01*
X43092500Y-2023500D02*
G75*
G03*
X43092500Y-2023500I-20000J0D01*
G01*
X43092500Y-12423500D02*
G75*
G03*
X43092500Y-12423500I-20000J0D01*
G01*
X43092500Y-22823500D02*
G75*
G03*
X43092500Y-22823500I-20000J0D01*
G01*
X43092500Y-33223500D02*
G75*
G03*
X43092500Y-33223500I-20000J0D01*
G01*
X43142500Y-2238500D02*
G75*
G03*
X43142500Y-2238500I-20000J0D01*
G01*
X43142500Y-2523500D02*
G75*
G03*
X43142500Y-2523500I-20000J0D01*
G01*
X43142500Y-12638500D02*
G75*
G03*
X43142500Y-12638500I-20000J0D01*
G01*
X43142500Y-12923500D02*
G75*
G03*
X43142500Y-12923500I-20000J0D01*
G01*
X43142500Y-23038500D02*
G75*
G03*
X43142500Y-23038500I-20000J0D01*
G01*
X43142500Y-23323500D02*
G75*
G03*
X43142500Y-23323500I-20000J0D01*
G01*
X43142500Y-33438500D02*
G75*
G03*
X43142500Y-33438500I-20000J0D01*
G01*
X43142500Y-33723500D02*
G75*
G03*
X43142500Y-33723500I-20000J0D01*
G01*
X43145000Y-1881000D02*
G75*
G03*
X43145000Y-1881000I-20000J0D01*
G01*
X43145000Y-12281000D02*
G75*
G03*
X43145000Y-12281000I-20000J0D01*
G01*
X43145000Y-22681000D02*
G75*
G03*
X43145000Y-22681000I-20000J0D01*
G01*
X43145000Y-33081000D02*
G75*
G03*
X43145000Y-33081000I-20000J0D01*
G01*
X43367500Y-2113500D02*
G75*
G03*
X43367500Y-2113500I-20000J0D01*
G01*
X43367500Y-12513500D02*
G75*
G03*
X43367500Y-12513500I-20000J0D01*
G01*
X43367500Y-22913500D02*
G75*
G03*
X43367500Y-22913500I-20000J0D01*
G01*
X43367500Y-33313500D02*
G75*
G03*
X43367500Y-33313500I-20000J0D01*
G01*
X43472500Y-1131000D02*
G75*
G03*
X43472500Y-1131000I-20000J0D01*
G01*
X43472500Y-11531000D02*
G75*
G03*
X43472500Y-11531000I-20000J0D01*
G01*
X43472500Y-21931000D02*
G75*
G03*
X43472500Y-21931000I-20000J0D01*
G01*
X43472500Y-32331000D02*
G75*
G03*
X43472500Y-32331000I-20000J0D01*
G01*
X43502500Y-1531000D02*
G75*
G03*
X43502500Y-1531000I-20000J0D01*
G01*
X43502500Y-11931000D02*
G75*
G03*
X43502500Y-11931000I-20000J0D01*
G01*
X43502500Y-22331000D02*
G75*
G03*
X43502500Y-22331000I-20000J0D01*
G01*
X43502500Y-32731000D02*
G75*
G03*
X43502500Y-32731000I-20000J0D01*
G01*
X43645000Y-1593500D02*
G75*
G03*
X43645000Y-1593500I-20000J0D01*
G01*
X43645000Y-11993500D02*
G75*
G03*
X43645000Y-11993500I-20000J0D01*
G01*
X43645000Y-22393500D02*
G75*
G03*
X43645000Y-22393500I-20000J0D01*
G01*
X43645000Y-32793500D02*
G75*
G03*
X43645000Y-32793500I-20000J0D01*
G01*
X43672200Y-1748200D02*
G75*
G03*
X43672200Y-1748200I-20000J0D01*
G01*
X43672200Y-12148200D02*
G75*
G03*
X43672200Y-12148200I-20000J0D01*
G01*
X43672200Y-22548200D02*
G75*
G03*
X43672200Y-22548200I-20000J0D01*
G01*
X43672200Y-32948200D02*
G75*
G03*
X43672200Y-32948200I-20000J0D01*
G01*
X43672500Y-2533500D02*
G75*
G03*
X43672500Y-2533500I-20000J0D01*
G01*
X43672500Y-12933500D02*
G75*
G03*
X43672500Y-12933500I-20000J0D01*
G01*
X43672500Y-23333500D02*
G75*
G03*
X43672500Y-23333500I-20000J0D01*
G01*
X43672500Y-33733500D02*
G75*
G03*
X43672500Y-33733500I-20000J0D01*
G01*
X43837500Y-1823500D02*
G75*
G03*
X43837500Y-1823500I-20000J0D01*
G01*
X43837500Y-12223500D02*
G75*
G03*
X43837500Y-12223500I-20000J0D01*
G01*
X43837500Y-22623500D02*
G75*
G03*
X43837500Y-22623500I-20000J0D01*
G01*
X43837500Y-33023500D02*
G75*
G03*
X43837500Y-33023500I-20000J0D01*
G01*
D15*
X1985000Y-1191000D02*
X1985000Y-1291000D01*
X1935000Y-1241000D02*
X2035000Y-1241000D01*
X1985000Y-11591000D02*
X1985000Y-11691000D01*
X1935000Y-11641000D02*
X2035000Y-11641000D01*
X1985000Y-21991000D02*
X1985000Y-22091000D01*
X1935000Y-22041000D02*
X2035000Y-22041000D01*
X1985000Y-32391000D02*
X1985000Y-32491000D01*
X1935000Y-32441000D02*
X2035000Y-32441000D01*
X2239000Y-1191000D02*
X2239000Y-1291000D01*
X2189000Y-1241000D02*
X2289000Y-1241000D01*
X2239000Y-11591000D02*
X2239000Y-11691000D01*
X2189000Y-11641000D02*
X2289000Y-11641000D01*
X2239000Y-21991000D02*
X2239000Y-22091000D01*
X2189000Y-22041000D02*
X2289000Y-22041000D01*
X2239000Y-32391000D02*
X2239000Y-32491000D01*
X2189000Y-32441000D02*
X2289000Y-32441000D01*
X2493000Y-1191000D02*
X2493000Y-1291000D01*
X2443000Y-1241000D02*
X2543000Y-1241000D01*
X2493000Y-11591000D02*
X2493000Y-11691000D01*
X2443000Y-11641000D02*
X2543000Y-11641000D01*
X2493000Y-21991000D02*
X2493000Y-22091000D01*
X2443000Y-22041000D02*
X2543000Y-22041000D01*
X2493000Y-32391000D02*
X2493000Y-32491000D01*
X2443000Y-32441000D02*
X2543000Y-32441000D01*
X2747000Y-1191000D02*
X2747000Y-1291000D01*
X2697000Y-1241000D02*
X2797000Y-1241000D01*
X2747000Y-11591000D02*
X2747000Y-11691000D01*
X2697000Y-11641000D02*
X2797000Y-11641000D01*
X2747000Y-21991000D02*
X2747000Y-22091000D01*
X2697000Y-22041000D02*
X2797000Y-22041000D01*
X2747000Y-32391000D02*
X2747000Y-32491000D01*
X2697000Y-32441000D02*
X2797000Y-32441000D01*
X3001000Y-1191000D02*
X3001000Y-1291000D01*
X2951000Y-1241000D02*
X3051000Y-1241000D01*
X3001000Y-11591000D02*
X3001000Y-11691000D01*
X2951000Y-11641000D02*
X3051000Y-11641000D01*
X3001000Y-21991000D02*
X3001000Y-22091000D01*
X2951000Y-22041000D02*
X3051000Y-22041000D01*
X3001000Y-32391000D02*
X3001000Y-32491000D01*
X2951000Y-32441000D02*
X3051000Y-32441000D01*
X3255000Y-1191000D02*
X3255000Y-1291000D01*
X3205000Y-1241000D02*
X3305000Y-1241000D01*
X3255000Y-11591000D02*
X3255000Y-11691000D01*
X3205000Y-11641000D02*
X3305000Y-11641000D01*
X3255000Y-21991000D02*
X3255000Y-22091000D01*
X3205000Y-22041000D02*
X3305000Y-22041000D01*
X3255000Y-32391000D02*
X3255000Y-32491000D01*
X3205000Y-32441000D02*
X3305000Y-32441000D01*
X10684600Y-1186000D02*
X10684600Y-1286000D01*
X10634600Y-1236000D02*
X10734600Y-1236000D01*
X10684600Y-11586000D02*
X10684600Y-11686000D01*
X10634600Y-11636000D02*
X10734600Y-11636000D01*
X10684600Y-21986000D02*
X10684600Y-22086000D01*
X10634600Y-22036000D02*
X10734600Y-22036000D01*
X10684600Y-32386000D02*
X10684600Y-32486000D01*
X10634600Y-32436000D02*
X10734600Y-32436000D01*
X10938600Y-1186000D02*
X10938600Y-1286000D01*
X10888600Y-1236000D02*
X10988600Y-1236000D01*
X10938600Y-11586000D02*
X10938600Y-11686000D01*
X10888600Y-11636000D02*
X10988600Y-11636000D01*
X10938600Y-21986000D02*
X10938600Y-22086000D01*
X10888600Y-22036000D02*
X10988600Y-22036000D01*
X10938600Y-32386000D02*
X10938600Y-32486000D01*
X10888600Y-32436000D02*
X10988600Y-32436000D01*
X11192600Y-1186000D02*
X11192600Y-1286000D01*
X11142600Y-1236000D02*
X11242600Y-1236000D01*
X11192600Y-11586000D02*
X11192600Y-11686000D01*
X11142600Y-11636000D02*
X11242600Y-11636000D01*
X11192600Y-21986000D02*
X11192600Y-22086000D01*
X11142600Y-22036000D02*
X11242600Y-22036000D01*
X11192600Y-32386000D02*
X11192600Y-32486000D01*
X11142600Y-32436000D02*
X11242600Y-32436000D01*
X11446600Y-1186000D02*
X11446600Y-1286000D01*
X11396600Y-1236000D02*
X11496600Y-1236000D01*
X11446600Y-11586000D02*
X11446600Y-11686000D01*
X11396600Y-11636000D02*
X11496600Y-11636000D01*
X11446600Y-21986000D02*
X11446600Y-22086000D01*
X11396600Y-22036000D02*
X11496600Y-22036000D01*
X11446600Y-32386000D02*
X11446600Y-32486000D01*
X11396600Y-32436000D02*
X11496600Y-32436000D01*
X11700600Y-1186000D02*
X11700600Y-1286000D01*
X11650600Y-1236000D02*
X11750600Y-1236000D01*
X11700600Y-11586000D02*
X11700600Y-11686000D01*
X11650600Y-11636000D02*
X11750600Y-11636000D01*
X11700600Y-21986000D02*
X11700600Y-22086000D01*
X11650600Y-22036000D02*
X11750600Y-22036000D01*
X11700600Y-32386000D02*
X11700600Y-32486000D01*
X11650600Y-32436000D02*
X11750600Y-32436000D01*
X11954600Y-1186000D02*
X11954600Y-1286000D01*
X11904600Y-1236000D02*
X12004600Y-1236000D01*
X11954600Y-11586000D02*
X11954600Y-11686000D01*
X11904600Y-11636000D02*
X12004600Y-11636000D01*
X11954600Y-21986000D02*
X11954600Y-22086000D01*
X11904600Y-22036000D02*
X12004600Y-22036000D01*
X11954600Y-32386000D02*
X11954600Y-32486000D01*
X11904600Y-32436000D02*
X12004600Y-32436000D01*
X19384200Y-1181000D02*
X19384200Y-1281000D01*
X19334200Y-1231000D02*
X19434200Y-1231000D01*
X19384200Y-11581000D02*
X19384200Y-11681000D01*
X19334200Y-11631000D02*
X19434200Y-11631000D01*
X19384200Y-21981000D02*
X19384200Y-22081000D01*
X19334200Y-22031000D02*
X19434200Y-22031000D01*
X19384200Y-32381000D02*
X19384200Y-32481000D01*
X19334200Y-32431000D02*
X19434200Y-32431000D01*
X19638200Y-1181000D02*
X19638200Y-1281000D01*
X19588200Y-1231000D02*
X19688200Y-1231000D01*
X19638200Y-11581000D02*
X19638200Y-11681000D01*
X19588200Y-11631000D02*
X19688200Y-11631000D01*
X19638200Y-21981000D02*
X19638200Y-22081000D01*
X19588200Y-22031000D02*
X19688200Y-22031000D01*
X19638200Y-32381000D02*
X19638200Y-32481000D01*
X19588200Y-32431000D02*
X19688200Y-32431000D01*
X19892200Y-1181000D02*
X19892200Y-1281000D01*
X19842200Y-1231000D02*
X19942200Y-1231000D01*
X19892200Y-11581000D02*
X19892200Y-11681000D01*
X19842200Y-11631000D02*
X19942200Y-11631000D01*
X19892200Y-21981000D02*
X19892200Y-22081000D01*
X19842200Y-22031000D02*
X19942200Y-22031000D01*
X19892200Y-32381000D02*
X19892200Y-32481000D01*
X19842200Y-32431000D02*
X19942200Y-32431000D01*
X20146200Y-1181000D02*
X20146200Y-1281000D01*
X20096200Y-1231000D02*
X20196200Y-1231000D01*
X20146200Y-11581000D02*
X20146200Y-11681000D01*
X20096200Y-11631000D02*
X20196200Y-11631000D01*
X20146200Y-21981000D02*
X20146200Y-22081000D01*
X20096200Y-22031000D02*
X20196200Y-22031000D01*
X20146200Y-32381000D02*
X20146200Y-32481000D01*
X20096200Y-32431000D02*
X20196200Y-32431000D01*
X20400200Y-1181000D02*
X20400200Y-1281000D01*
X20350200Y-1231000D02*
X20450200Y-1231000D01*
X20400200Y-11581000D02*
X20400200Y-11681000D01*
X20350200Y-11631000D02*
X20450200Y-11631000D01*
X20400200Y-21981000D02*
X20400200Y-22081000D01*
X20350200Y-22031000D02*
X20450200Y-22031000D01*
X20400200Y-32381000D02*
X20400200Y-32481000D01*
X20350200Y-32431000D02*
X20450200Y-32431000D01*
X20654200Y-1181000D02*
X20654200Y-1281000D01*
X20604200Y-1231000D02*
X20704200Y-1231000D01*
X20654200Y-11581000D02*
X20654200Y-11681000D01*
X20604200Y-11631000D02*
X20704200Y-11631000D01*
X20654200Y-21981000D02*
X20654200Y-22081000D01*
X20604200Y-22031000D02*
X20704200Y-22031000D01*
X20654200Y-32381000D02*
X20654200Y-32481000D01*
X20604200Y-32431000D02*
X20704200Y-32431000D01*
X28083800Y-1176000D02*
X28083800Y-1276000D01*
X28033800Y-1226000D02*
X28133800Y-1226000D01*
X28083800Y-11576000D02*
X28083800Y-11676000D01*
X28033800Y-11626000D02*
X28133800Y-11626000D01*
X28083800Y-21976000D02*
X28083800Y-22076000D01*
X28033800Y-22026000D02*
X28133800Y-22026000D01*
X28083800Y-32376000D02*
X28083800Y-32476000D01*
X28033800Y-32426000D02*
X28133800Y-32426000D01*
X28337800Y-1176000D02*
X28337800Y-1276000D01*
X28287800Y-1226000D02*
X28387800Y-1226000D01*
X28337800Y-11576000D02*
X28337800Y-11676000D01*
X28287800Y-11626000D02*
X28387800Y-11626000D01*
X28337800Y-21976000D02*
X28337800Y-22076000D01*
X28287800Y-22026000D02*
X28387800Y-22026000D01*
X28337800Y-32376000D02*
X28337800Y-32476000D01*
X28287800Y-32426000D02*
X28387800Y-32426000D01*
X28591800Y-1176000D02*
X28591800Y-1276000D01*
X28541800Y-1226000D02*
X28641800Y-1226000D01*
X28591800Y-11576000D02*
X28591800Y-11676000D01*
X28541800Y-11626000D02*
X28641800Y-11626000D01*
X28591800Y-21976000D02*
X28591800Y-22076000D01*
X28541800Y-22026000D02*
X28641800Y-22026000D01*
X28591800Y-32376000D02*
X28591800Y-32476000D01*
X28541800Y-32426000D02*
X28641800Y-32426000D01*
X28845800Y-1176000D02*
X28845800Y-1276000D01*
X28795800Y-1226000D02*
X28895800Y-1226000D01*
X28845800Y-11576000D02*
X28845800Y-11676000D01*
X28795800Y-11626000D02*
X28895800Y-11626000D01*
X28845800Y-21976000D02*
X28845800Y-22076000D01*
X28795800Y-22026000D02*
X28895800Y-22026000D01*
X28845800Y-32376000D02*
X28845800Y-32476000D01*
X28795800Y-32426000D02*
X28895800Y-32426000D01*
X29099800Y-1176000D02*
X29099800Y-1276000D01*
X29049800Y-1226000D02*
X29149800Y-1226000D01*
X29099800Y-11576000D02*
X29099800Y-11676000D01*
X29049800Y-11626000D02*
X29149800Y-11626000D01*
X29099800Y-21976000D02*
X29099800Y-22076000D01*
X29049800Y-22026000D02*
X29149800Y-22026000D01*
X29099800Y-32376000D02*
X29099800Y-32476000D01*
X29049800Y-32426000D02*
X29149800Y-32426000D01*
X29353800Y-1176000D02*
X29353800Y-1276000D01*
X29303800Y-1226000D02*
X29403800Y-1226000D01*
X29353800Y-11576000D02*
X29353800Y-11676000D01*
X29303800Y-11626000D02*
X29403800Y-11626000D01*
X29353800Y-21976000D02*
X29353800Y-22076000D01*
X29303800Y-22026000D02*
X29403800Y-22026000D01*
X29353800Y-32376000D02*
X29353800Y-32476000D01*
X29303800Y-32426000D02*
X29403800Y-32426000D01*
X36783600Y-1176000D02*
X36783600Y-1276000D01*
X36733600Y-1226000D02*
X36833600Y-1226000D01*
X36783600Y-11576000D02*
X36783600Y-11676000D01*
X36733600Y-11626000D02*
X36833600Y-11626000D01*
X36783600Y-21976000D02*
X36783600Y-22076000D01*
X36733600Y-22026000D02*
X36833600Y-22026000D01*
X36783600Y-32376000D02*
X36783600Y-32476000D01*
X36733600Y-32426000D02*
X36833600Y-32426000D01*
X37037600Y-1176000D02*
X37037600Y-1276000D01*
X36987600Y-1226000D02*
X37087600Y-1226000D01*
X37037600Y-11576000D02*
X37037600Y-11676000D01*
X36987600Y-11626000D02*
X37087600Y-11626000D01*
X37037600Y-21976000D02*
X37037600Y-22076000D01*
X36987600Y-22026000D02*
X37087600Y-22026000D01*
X37037600Y-32376000D02*
X37037600Y-32476000D01*
X36987600Y-32426000D02*
X37087600Y-32426000D01*
X37291600Y-1176000D02*
X37291600Y-1276000D01*
X37241600Y-1226000D02*
X37341600Y-1226000D01*
X37291600Y-11576000D02*
X37291600Y-11676000D01*
X37241600Y-11626000D02*
X37341600Y-11626000D01*
X37291600Y-21976000D02*
X37291600Y-22076000D01*
X37241600Y-22026000D02*
X37341600Y-22026000D01*
X37291600Y-32376000D02*
X37291600Y-32476000D01*
X37241600Y-32426000D02*
X37341600Y-32426000D01*
X37545600Y-1176000D02*
X37545600Y-1276000D01*
X37495600Y-1226000D02*
X37595600Y-1226000D01*
X37545600Y-11576000D02*
X37545600Y-11676000D01*
X37495600Y-11626000D02*
X37595600Y-11626000D01*
X37545600Y-21976000D02*
X37545600Y-22076000D01*
X37495600Y-22026000D02*
X37595600Y-22026000D01*
X37545600Y-32376000D02*
X37545600Y-32476000D01*
X37495600Y-32426000D02*
X37595600Y-32426000D01*
X37799600Y-1176000D02*
X37799600Y-1276000D01*
X37749600Y-1226000D02*
X37849600Y-1226000D01*
X37799600Y-11576000D02*
X37799600Y-11676000D01*
X37749600Y-11626000D02*
X37849600Y-11626000D01*
X37799600Y-21976000D02*
X37799600Y-22076000D01*
X37749600Y-22026000D02*
X37849600Y-22026000D01*
X37799600Y-32376000D02*
X37799600Y-32476000D01*
X37749600Y-32426000D02*
X37849600Y-32426000D01*
X38053600Y-1176000D02*
X38053600Y-1276000D01*
X38003600Y-1226000D02*
X38103600Y-1226000D01*
X38053600Y-11576000D02*
X38053600Y-11676000D01*
X38003600Y-11626000D02*
X38103600Y-11626000D01*
X38053600Y-21976000D02*
X38053600Y-22076000D01*
X38003600Y-22026000D02*
X38103600Y-22026000D01*
X38053600Y-32376000D02*
X38053600Y-32476000D01*
X38003600Y-32426000D02*
X38103600Y-32426000D01*
D16*
X4105362Y-7403962D02*
X4105362Y-7312038D01*
X4013438Y-7312038D01*
X4013438Y-7403962D01*
X4105362Y-7403962D01*
X4105362Y-17803963D02*
X4105362Y-17712038D01*
X4013438Y-17712038D01*
X4013438Y-17803963D01*
X4105362Y-17803963D01*
X4105362Y-28203962D02*
X4105362Y-28112038D01*
X4013438Y-28112038D01*
X4013438Y-28203962D01*
X4105362Y-28203962D01*
X4105362Y-38603963D02*
X4105362Y-38512038D01*
X4013438Y-38512038D01*
X4013438Y-38603963D01*
X4105362Y-38603963D01*
X4867362Y-7403962D02*
X4867362Y-7312038D01*
X4775438Y-7312038D01*
X4775438Y-7403962D01*
X4867362Y-7403962D01*
X4867362Y-17803963D02*
X4867362Y-17712038D01*
X4775438Y-17712038D01*
X4775438Y-17803963D01*
X4867362Y-17803963D01*
X4867362Y-28203962D02*
X4867362Y-28112038D01*
X4775438Y-28112038D01*
X4775438Y-28203962D01*
X4867362Y-28203962D01*
X4867362Y-38603963D02*
X4867362Y-38512038D01*
X4775438Y-38512038D01*
X4775438Y-38603963D01*
X4867362Y-38603963D01*
X12804962Y-7398962D02*
X12804962Y-7307038D01*
X12713038Y-7307038D01*
X12713038Y-7398962D01*
X12804962Y-7398962D01*
X12804962Y-17798962D02*
X12804962Y-17707038D01*
X12713038Y-17707038D01*
X12713038Y-17798962D01*
X12804962Y-17798962D01*
X12804962Y-28198962D02*
X12804962Y-28107038D01*
X12713038Y-28107038D01*
X12713038Y-28198962D01*
X12804962Y-28198962D01*
X12804962Y-38598962D02*
X12804962Y-38507038D01*
X12713038Y-38507038D01*
X12713038Y-38598962D01*
X12804962Y-38598962D01*
X13566962Y-7398962D02*
X13566962Y-7307038D01*
X13475038Y-7307038D01*
X13475038Y-7398962D01*
X13566962Y-7398962D01*
X13566962Y-17798962D02*
X13566962Y-17707038D01*
X13475038Y-17707038D01*
X13475038Y-17798962D01*
X13566962Y-17798962D01*
X13566962Y-28198962D02*
X13566962Y-28107038D01*
X13475038Y-28107038D01*
X13475038Y-28198962D01*
X13566962Y-28198962D01*
X13566962Y-38598962D02*
X13566962Y-38507038D01*
X13475038Y-38507038D01*
X13475038Y-38598962D01*
X13566962Y-38598962D01*
X21504562Y-7393962D02*
X21504562Y-7302037D01*
X21412638Y-7302037D01*
X21412638Y-7393962D01*
X21504562Y-7393962D01*
X21504562Y-17793962D02*
X21504562Y-17702038D01*
X21412638Y-17702038D01*
X21412638Y-17793962D01*
X21504562Y-17793962D01*
X21504562Y-28193962D02*
X21504562Y-28102037D01*
X21412638Y-28102037D01*
X21412638Y-28193962D01*
X21504562Y-28193962D01*
X21504562Y-38593962D02*
X21504562Y-38502038D01*
X21412638Y-38502038D01*
X21412638Y-38593962D01*
X21504562Y-38593962D01*
X22266562Y-7393962D02*
X22266562Y-7302037D01*
X22174638Y-7302037D01*
X22174638Y-7393962D01*
X22266562Y-7393962D01*
X22266562Y-17793962D02*
X22266562Y-17702038D01*
X22174638Y-17702038D01*
X22174638Y-17793962D01*
X22266562Y-17793962D01*
X22266562Y-28193962D02*
X22266562Y-28102037D01*
X22174638Y-28102037D01*
X22174638Y-28193962D01*
X22266562Y-28193962D01*
X22266562Y-38593962D02*
X22266562Y-38502038D01*
X22174638Y-38502038D01*
X22174638Y-38593962D01*
X22266562Y-38593962D01*
X30204162Y-7388962D02*
X30204162Y-7297037D01*
X30112238Y-7297037D01*
X30112238Y-7388962D01*
X30204162Y-7388962D01*
X30204162Y-17788962D02*
X30204162Y-17697037D01*
X30112238Y-17697037D01*
X30112238Y-17788962D01*
X30204162Y-17788962D01*
X30204162Y-28188962D02*
X30204162Y-28097037D01*
X30112238Y-28097037D01*
X30112238Y-28188962D01*
X30204162Y-28188962D01*
X30204162Y-38588962D02*
X30204162Y-38497037D01*
X30112238Y-38497037D01*
X30112238Y-38588962D01*
X30204162Y-38588962D01*
X30966162Y-7388962D02*
X30966162Y-7297037D01*
X30874238Y-7297037D01*
X30874238Y-7388962D01*
X30966162Y-7388962D01*
X30966162Y-17788962D02*
X30966162Y-17697037D01*
X30874238Y-17697037D01*
X30874238Y-17788962D01*
X30966162Y-17788962D01*
X30966162Y-28188962D02*
X30966162Y-28097037D01*
X30874238Y-28097037D01*
X30874238Y-28188962D01*
X30966162Y-28188962D01*
X30966162Y-38588962D02*
X30966162Y-38497037D01*
X30874238Y-38497037D01*
X30874238Y-38588962D01*
X30966162Y-38588962D01*
X38904162Y-7388962D02*
X38904162Y-7297037D01*
X38812238Y-7297037D01*
X38812238Y-7388962D01*
X38904162Y-7388962D01*
X38904162Y-17788962D02*
X38904162Y-17697037D01*
X38812238Y-17697037D01*
X38812238Y-17788962D01*
X38904162Y-17788962D01*
X38904162Y-28188962D02*
X38904162Y-28097037D01*
X38812238Y-28097037D01*
X38812238Y-28188962D01*
X38904162Y-28188962D01*
X38904162Y-38588962D02*
X38904162Y-38497037D01*
X38812238Y-38497037D01*
X38812238Y-38588962D01*
X38904162Y-38588962D01*
X39666162Y-7388962D02*
X39666162Y-7297037D01*
X39574238Y-7297037D01*
X39574238Y-7388962D01*
X39666162Y-7388962D01*
X39666162Y-17788962D02*
X39666162Y-17697037D01*
X39574238Y-17697037D01*
X39574238Y-17788962D01*
X39666162Y-17788962D01*
X39666162Y-28188962D02*
X39666162Y-28097037D01*
X39574238Y-28097037D01*
X39574238Y-28188962D01*
X39666162Y-28188962D01*
X39666162Y-38588962D02*
X39666162Y-38497037D01*
X39574238Y-38497037D01*
X39574238Y-38588962D01*
X39666162Y-38588962D01*
D12*
X36566200Y-6401400D02*
X36666200Y-6301400D01*
X36566200Y-6201400D01*
X36466200Y-6301400D01*
X36566200Y-6401400D01*
X36566200Y-7332000D02*
X36666200Y-7232000D01*
X36566200Y-7132000D01*
X36466200Y-7232000D01*
X36566200Y-7332000D01*
X36566200Y-16801400D02*
X36666200Y-16701400D01*
X36566200Y-16601400D01*
X36466200Y-16701400D01*
X36566200Y-16801400D01*
X36566200Y-17732000D02*
X36666200Y-17632000D01*
X36566200Y-17532000D01*
X36466200Y-17632000D01*
X36566200Y-17732000D01*
X36566200Y-27201400D02*
X36666200Y-27101400D01*
X36566200Y-27001400D01*
X36466200Y-27101400D01*
X36566200Y-27201400D01*
X36566200Y-28132000D02*
X36666200Y-28032000D01*
X36566200Y-27932000D01*
X36466200Y-28032000D01*
X36566200Y-28132000D01*
X36566200Y-37601400D02*
X36666200Y-37501400D01*
X36566200Y-37401400D01*
X36466200Y-37501400D01*
X36566200Y-37601400D01*
X36566200Y-38532000D02*
X36666200Y-38432000D01*
X36566200Y-38332000D01*
X36466200Y-38432000D01*
X36566200Y-38532000D01*
X37466200Y-6401400D02*
X37566200Y-6301400D01*
X37466200Y-6201400D01*
X37366200Y-6301400D01*
X37466200Y-6401400D01*
X37466200Y-7332000D02*
X37566200Y-7232000D01*
X37466200Y-7132000D01*
X37366200Y-7232000D01*
X37466200Y-7332000D01*
X37466200Y-16801400D02*
X37566200Y-16701400D01*
X37466200Y-16601400D01*
X37366200Y-16701400D01*
X37466200Y-16801400D01*
X37466200Y-17732000D02*
X37566200Y-17632000D01*
X37466200Y-17532000D01*
X37366200Y-17632000D01*
X37466200Y-17732000D01*
X37466200Y-27201400D02*
X37566200Y-27101400D01*
X37466200Y-27001400D01*
X37366200Y-27101400D01*
X37466200Y-27201400D01*
X37466200Y-28132000D02*
X37566200Y-28032000D01*
X37466200Y-27932000D01*
X37366200Y-28032000D01*
X37466200Y-28132000D01*
X37466200Y-37601400D02*
X37566200Y-37501400D01*
X37466200Y-37401400D01*
X37366200Y-37501400D01*
X37466200Y-37601400D01*
X37466200Y-38532000D02*
X37566200Y-38432000D01*
X37466200Y-38332000D01*
X37366200Y-38432000D01*
X37466200Y-38532000D01*
X38597000Y-8834000D02*
X38697000Y-8734000D01*
X38597000Y-8634000D01*
X38497000Y-8734000D01*
X38597000Y-8834000D01*
X38597000Y-9734000D02*
X38697000Y-9634000D01*
X38597000Y-9534000D01*
X38497000Y-9634000D01*
X38597000Y-9734000D01*
X38597000Y-19234000D02*
X38697000Y-19134000D01*
X38597000Y-19034000D01*
X38497000Y-19134000D01*
X38597000Y-19234000D01*
X38597000Y-20134000D02*
X38697000Y-20034000D01*
X38597000Y-19934000D01*
X38497000Y-20034000D01*
X38597000Y-20134000D01*
X38597000Y-29634000D02*
X38697000Y-29534000D01*
X38597000Y-29434000D01*
X38497000Y-29534000D01*
X38597000Y-29634000D01*
X38597000Y-30534000D02*
X38697000Y-30434000D01*
X38597000Y-30334000D01*
X38497000Y-30434000D01*
X38597000Y-30534000D01*
X38597000Y-40034000D02*
X38697000Y-39934000D01*
X38597000Y-39834000D01*
X38497000Y-39934000D01*
X38597000Y-40034000D01*
X38597000Y-40934000D02*
X38697000Y-40834000D01*
X38597000Y-40734000D01*
X38497000Y-40834000D01*
X38597000Y-40934000D01*
X38602000Y-2242000D02*
X38702000Y-2142000D01*
X38602000Y-2042000D01*
X38502000Y-2142000D01*
X38602000Y-2242000D01*
X38602000Y-3142000D02*
X38702000Y-3042000D01*
X38602000Y-2942000D01*
X38502000Y-3042000D01*
X38602000Y-3142000D01*
X38602000Y-12642000D02*
X38702000Y-12542000D01*
X38602000Y-12442000D01*
X38502000Y-12542000D01*
X38602000Y-12642000D01*
X38602000Y-13542000D02*
X38702000Y-13442000D01*
X38602000Y-13342000D01*
X38502000Y-13442000D01*
X38602000Y-13542000D01*
X38602000Y-23042000D02*
X38702000Y-22942000D01*
X38602000Y-22842000D01*
X38502000Y-22942000D01*
X38602000Y-23042000D01*
X38602000Y-23942000D02*
X38702000Y-23842000D01*
X38602000Y-23742000D01*
X38502000Y-23842000D01*
X38602000Y-23942000D01*
X38602000Y-33442000D02*
X38702000Y-33342000D01*
X38602000Y-33242000D01*
X38502000Y-33342000D01*
X38602000Y-33442000D01*
X38602000Y-34342000D02*
X38702000Y-34242000D01*
X38602000Y-34142000D01*
X38502000Y-34242000D01*
X38602000Y-34342000D01*
X42332000Y-6401400D02*
X42432000Y-6301400D01*
X42332000Y-6201400D01*
X42232000Y-6301400D01*
X42332000Y-6401400D01*
X42332000Y-7332000D02*
X42432000Y-7232000D01*
X42332000Y-7132000D01*
X42232000Y-7232000D01*
X42332000Y-7332000D01*
X42332000Y-16801400D02*
X42432000Y-16701400D01*
X42332000Y-16601400D01*
X42232000Y-16701400D01*
X42332000Y-16801400D01*
X42332000Y-17732000D02*
X42432000Y-17632000D01*
X42332000Y-17532000D01*
X42232000Y-17632000D01*
X42332000Y-17732000D01*
X42332000Y-27201400D02*
X42432000Y-27101400D01*
X42332000Y-27001400D01*
X42232000Y-27101400D01*
X42332000Y-27201400D01*
X42332000Y-28132000D02*
X42432000Y-28032000D01*
X42332000Y-27932000D01*
X42232000Y-28032000D01*
X42332000Y-28132000D01*
X42332000Y-37601400D02*
X42432000Y-37501400D01*
X42332000Y-37401400D01*
X42232000Y-37501400D01*
X42332000Y-37601400D01*
X42332000Y-38532000D02*
X42432000Y-38432000D01*
X42332000Y-38332000D01*
X42232000Y-38432000D01*
X42332000Y-38532000D01*
X43232000Y-6401400D02*
X43332000Y-6301400D01*
X43232000Y-6201400D01*
X43132000Y-6301400D01*
X43232000Y-6401400D01*
X43232000Y-7332000D02*
X43332000Y-7232000D01*
X43232000Y-7132000D01*
X43132000Y-7232000D01*
X43232000Y-7332000D01*
X43232000Y-16801400D02*
X43332000Y-16701400D01*
X43232000Y-16601400D01*
X43132000Y-16701400D01*
X43232000Y-16801400D01*
X43232000Y-17732000D02*
X43332000Y-17632000D01*
X43232000Y-17532000D01*
X43132000Y-17632000D01*
X43232000Y-17732000D01*
X43232000Y-27201400D02*
X43332000Y-27101400D01*
X43232000Y-27001400D01*
X43132000Y-27101400D01*
X43232000Y-27201400D01*
X43232000Y-28132000D02*
X43332000Y-28032000D01*
X43232000Y-27932000D01*
X43132000Y-28032000D01*
X43232000Y-28132000D01*
X43232000Y-37601400D02*
X43332000Y-37501400D01*
X43232000Y-37401400D01*
X43132000Y-37501400D01*
X43232000Y-37601400D01*
X43232000Y-38532000D02*
X43332000Y-38432000D01*
X43232000Y-38332000D01*
X43132000Y-38432000D01*
X43232000Y-38532000D01*
D17*
X1145000Y-1131000D02*
X1365000Y-1351000D01*
X1365000Y-1131000D02*
X1145000Y-1351000D01*
X1365000Y-1241000D02*
G75*
G03*
X1365000Y-1241000I-110000J0D01*
G01*
X1145000Y-10531000D02*
X1365000Y-10751000D01*
X1365000Y-10531000D02*
X1145000Y-10751000D01*
X1365000Y-10641000D02*
G75*
G03*
X1365000Y-10641000I-110000J0D01*
G01*
X1145000Y-11531000D02*
X1365000Y-11751000D01*
X1365000Y-11531000D02*
X1145000Y-11751000D01*
X1365000Y-11641000D02*
G75*
G03*
X1365000Y-11641000I-110000J0D01*
G01*
X1145000Y-20931000D02*
X1365000Y-21151000D01*
X1365000Y-20931000D02*
X1145000Y-21151000D01*
X1365000Y-21041000D02*
G75*
G03*
X1365000Y-21041000I-110000J0D01*
G01*
X1145000Y-21931000D02*
X1365000Y-22151000D01*
X1365000Y-21931000D02*
X1145000Y-22151000D01*
X1365000Y-22041000D02*
G75*
G03*
X1365000Y-22041000I-110000J0D01*
G01*
X1145000Y-31331000D02*
X1365000Y-31551000D01*
X1365000Y-31331000D02*
X1145000Y-31551000D01*
X1365000Y-31441000D02*
G75*
G03*
X1365000Y-31441000I-110000J0D01*
G01*
X1145000Y-32331000D02*
X1365000Y-32551000D01*
X1365000Y-32331000D02*
X1145000Y-32551000D01*
X1365000Y-32441000D02*
G75*
G03*
X1365000Y-32441000I-110000J0D01*
G01*
X1145000Y-41731000D02*
X1365000Y-41951000D01*
X1365000Y-41731000D02*
X1145000Y-41951000D01*
X1365000Y-41841000D02*
G75*
G03*
X1365000Y-41841000I-110000J0D01*
G01*
X4995000Y-1131000D02*
X5215000Y-1351000D01*
X5215000Y-1131000D02*
X4995000Y-1351000D01*
X5215000Y-1241000D02*
G75*
G03*
X5215000Y-1241000I-110000J0D01*
G01*
X4995000Y-10531000D02*
X5215000Y-10751000D01*
X5215000Y-10531000D02*
X4995000Y-10751000D01*
X5215000Y-10641000D02*
G75*
G03*
X5215000Y-10641000I-110000J0D01*
G01*
X4995000Y-11531000D02*
X5215000Y-11751000D01*
X5215000Y-11531000D02*
X4995000Y-11751000D01*
X5215000Y-11641000D02*
G75*
G03*
X5215000Y-11641000I-110000J0D01*
G01*
X4995000Y-20931000D02*
X5215000Y-21151000D01*
X5215000Y-20931000D02*
X4995000Y-21151000D01*
X5215000Y-21041000D02*
G75*
G03*
X5215000Y-21041000I-110000J0D01*
G01*
X4995000Y-21931000D02*
X5215000Y-22151000D01*
X5215000Y-21931000D02*
X4995000Y-22151000D01*
X5215000Y-22041000D02*
G75*
G03*
X5215000Y-22041000I-110000J0D01*
G01*
X4995000Y-31331000D02*
X5215000Y-31551000D01*
X5215000Y-31331000D02*
X4995000Y-31551000D01*
X5215000Y-31441000D02*
G75*
G03*
X5215000Y-31441000I-110000J0D01*
G01*
X4995000Y-32331000D02*
X5215000Y-32551000D01*
X5215000Y-32331000D02*
X4995000Y-32551000D01*
X5215000Y-32441000D02*
G75*
G03*
X5215000Y-32441000I-110000J0D01*
G01*
X4995000Y-41731000D02*
X5215000Y-41951000D01*
X5215000Y-41731000D02*
X4995000Y-41951000D01*
X5215000Y-41841000D02*
G75*
G03*
X5215000Y-41841000I-110000J0D01*
G01*
X8845000Y-1131000D02*
X9065000Y-1351000D01*
X9065000Y-1131000D02*
X8845000Y-1351000D01*
X9065000Y-1241000D02*
G75*
G03*
X9065000Y-1241000I-110000J0D01*
G01*
X8845000Y-10531000D02*
X9065000Y-10751000D01*
X9065000Y-10531000D02*
X8845000Y-10751000D01*
X9065000Y-10641000D02*
G75*
G03*
X9065000Y-10641000I-110000J0D01*
G01*
X8845000Y-11531000D02*
X9065000Y-11751000D01*
X9065000Y-11531000D02*
X8845000Y-11751000D01*
X9065000Y-11641000D02*
G75*
G03*
X9065000Y-11641000I-110000J0D01*
G01*
X8845000Y-20931000D02*
X9065000Y-21151000D01*
X9065000Y-20931000D02*
X8845000Y-21151000D01*
X9065000Y-21041000D02*
G75*
G03*
X9065000Y-21041000I-110000J0D01*
G01*
X8845000Y-21931000D02*
X9065000Y-22151000D01*
X9065000Y-21931000D02*
X8845000Y-22151000D01*
X9065000Y-22041000D02*
G75*
G03*
X9065000Y-22041000I-110000J0D01*
G01*
X8845000Y-31331000D02*
X9065000Y-31551000D01*
X9065000Y-31331000D02*
X8845000Y-31551000D01*
X9065000Y-31441000D02*
G75*
G03*
X9065000Y-31441000I-110000J0D01*
G01*
X8845000Y-32331000D02*
X9065000Y-32551000D01*
X9065000Y-32331000D02*
X8845000Y-32551000D01*
X9065000Y-32441000D02*
G75*
G03*
X9065000Y-32441000I-110000J0D01*
G01*
X8845000Y-41731000D02*
X9065000Y-41951000D01*
X9065000Y-41731000D02*
X8845000Y-41951000D01*
X9065000Y-41841000D02*
G75*
G03*
X9065000Y-41841000I-110000J0D01*
G01*
X9844600Y-1126000D02*
X10064600Y-1346000D01*
X10064600Y-1126000D02*
X9844600Y-1346000D01*
X10064600Y-1236000D02*
G75*
G03*
X10064600Y-1236000I-110000J0D01*
G01*
X9844600Y-10526000D02*
X10064600Y-10746000D01*
X10064600Y-10526000D02*
X9844600Y-10746000D01*
X10064600Y-10636000D02*
G75*
G03*
X10064600Y-10636000I-110000J0D01*
G01*
X9844600Y-11526000D02*
X10064600Y-11746000D01*
X10064600Y-11526000D02*
X9844600Y-11746000D01*
X10064600Y-11636000D02*
G75*
G03*
X10064600Y-11636000I-110000J0D01*
G01*
X9844600Y-20926000D02*
X10064600Y-21146000D01*
X10064600Y-20926000D02*
X9844600Y-21146000D01*
X10064600Y-21036000D02*
G75*
G03*
X10064600Y-21036000I-110000J0D01*
G01*
X9844600Y-21926000D02*
X10064600Y-22146000D01*
X10064600Y-21926000D02*
X9844600Y-22146000D01*
X10064600Y-22036000D02*
G75*
G03*
X10064600Y-22036000I-110000J0D01*
G01*
X9844600Y-31326000D02*
X10064600Y-31546000D01*
X10064600Y-31326000D02*
X9844600Y-31546000D01*
X10064600Y-31436000D02*
G75*
G03*
X10064600Y-31436000I-110000J0D01*
G01*
X9844600Y-32326000D02*
X10064600Y-32546000D01*
X10064600Y-32326000D02*
X9844600Y-32546000D01*
X10064600Y-32436000D02*
G75*
G03*
X10064600Y-32436000I-110000J0D01*
G01*
X9844600Y-41726000D02*
X10064600Y-41946000D01*
X10064600Y-41726000D02*
X9844600Y-41946000D01*
X10064600Y-41836000D02*
G75*
G03*
X10064600Y-41836000I-110000J0D01*
G01*
X13694600Y-1126000D02*
X13914600Y-1346000D01*
X13914600Y-1126000D02*
X13694600Y-1346000D01*
X13914600Y-1236000D02*
G75*
G03*
X13914600Y-1236000I-110000J0D01*
G01*
X13694600Y-10526000D02*
X13914600Y-10746000D01*
X13914600Y-10526000D02*
X13694600Y-10746000D01*
X13914600Y-10636000D02*
G75*
G03*
X13914600Y-10636000I-110000J0D01*
G01*
X13694600Y-11526000D02*
X13914600Y-11746000D01*
X13914600Y-11526000D02*
X13694600Y-11746000D01*
X13914600Y-11636000D02*
G75*
G03*
X13914600Y-11636000I-110000J0D01*
G01*
X13694600Y-20926000D02*
X13914600Y-21146000D01*
X13914600Y-20926000D02*
X13694600Y-21146000D01*
X13914600Y-21036000D02*
G75*
G03*
X13914600Y-21036000I-110000J0D01*
G01*
X13694600Y-21926000D02*
X13914600Y-22146000D01*
X13914600Y-21926000D02*
X13694600Y-22146000D01*
X13914600Y-22036000D02*
G75*
G03*
X13914600Y-22036000I-110000J0D01*
G01*
X13694600Y-31326000D02*
X13914600Y-31546000D01*
X13914600Y-31326000D02*
X13694600Y-31546000D01*
X13914600Y-31436000D02*
G75*
G03*
X13914600Y-31436000I-110000J0D01*
G01*
X13694600Y-32326000D02*
X13914600Y-32546000D01*
X13914600Y-32326000D02*
X13694600Y-32546000D01*
X13914600Y-32436000D02*
G75*
G03*
X13914600Y-32436000I-110000J0D01*
G01*
X13694600Y-41726000D02*
X13914600Y-41946000D01*
X13914600Y-41726000D02*
X13694600Y-41946000D01*
X13914600Y-41836000D02*
G75*
G03*
X13914600Y-41836000I-110000J0D01*
G01*
X17544600Y-1126000D02*
X17764600Y-1346000D01*
X17764600Y-1126000D02*
X17544600Y-1346000D01*
X17764600Y-1236000D02*
G75*
G03*
X17764600Y-1236000I-110000J0D01*
G01*
X17544600Y-10526000D02*
X17764600Y-10746000D01*
X17764600Y-10526000D02*
X17544600Y-10746000D01*
X17764600Y-10636000D02*
G75*
G03*
X17764600Y-10636000I-110000J0D01*
G01*
X17544600Y-11526000D02*
X17764600Y-11746000D01*
X17764600Y-11526000D02*
X17544600Y-11746000D01*
X17764600Y-11636000D02*
G75*
G03*
X17764600Y-11636000I-110000J0D01*
G01*
X17544600Y-20926000D02*
X17764600Y-21146000D01*
X17764600Y-20926000D02*
X17544600Y-21146000D01*
X17764600Y-21036000D02*
G75*
G03*
X17764600Y-21036000I-110000J0D01*
G01*
X17544600Y-21926000D02*
X17764600Y-22146000D01*
X17764600Y-21926000D02*
X17544600Y-22146000D01*
X17764600Y-22036000D02*
G75*
G03*
X17764600Y-22036000I-110000J0D01*
G01*
X17544600Y-31326000D02*
X17764600Y-31546000D01*
X17764600Y-31326000D02*
X17544600Y-31546000D01*
X17764600Y-31436000D02*
G75*
G03*
X17764600Y-31436000I-110000J0D01*
G01*
X17544600Y-32326000D02*
X17764600Y-32546000D01*
X17764600Y-32326000D02*
X17544600Y-32546000D01*
X17764600Y-32436000D02*
G75*
G03*
X17764600Y-32436000I-110000J0D01*
G01*
X17544600Y-41726000D02*
X17764600Y-41946000D01*
X17764600Y-41726000D02*
X17544600Y-41946000D01*
X17764600Y-41836000D02*
G75*
G03*
X17764600Y-41836000I-110000J0D01*
G01*
X18544200Y-1121000D02*
X18764200Y-1341000D01*
X18764200Y-1121000D02*
X18544200Y-1341000D01*
X18764200Y-1231000D02*
G75*
G03*
X18764200Y-1231000I-110000J0D01*
G01*
X18544200Y-10521000D02*
X18764200Y-10741000D01*
X18764200Y-10521000D02*
X18544200Y-10741000D01*
X18764200Y-10631000D02*
G75*
G03*
X18764200Y-10631000I-110000J0D01*
G01*
X18544200Y-11521000D02*
X18764200Y-11741000D01*
X18764200Y-11521000D02*
X18544200Y-11741000D01*
X18764200Y-11631000D02*
G75*
G03*
X18764200Y-11631000I-110000J0D01*
G01*
X18544200Y-20921000D02*
X18764200Y-21141000D01*
X18764200Y-20921000D02*
X18544200Y-21141000D01*
X18764200Y-21031000D02*
G75*
G03*
X18764200Y-21031000I-110000J0D01*
G01*
X18544200Y-21921000D02*
X18764200Y-22141000D01*
X18764200Y-21921000D02*
X18544200Y-22141000D01*
X18764200Y-22031000D02*
G75*
G03*
X18764200Y-22031000I-110000J0D01*
G01*
X18544200Y-31321000D02*
X18764200Y-31541000D01*
X18764200Y-31321000D02*
X18544200Y-31541000D01*
X18764200Y-31431000D02*
G75*
G03*
X18764200Y-31431000I-110000J0D01*
G01*
X18544200Y-32321000D02*
X18764200Y-32541000D01*
X18764200Y-32321000D02*
X18544200Y-32541000D01*
X18764200Y-32431000D02*
G75*
G03*
X18764200Y-32431000I-110000J0D01*
G01*
X18544200Y-41721000D02*
X18764200Y-41941000D01*
X18764200Y-41721000D02*
X18544200Y-41941000D01*
X18764200Y-41831000D02*
G75*
G03*
X18764200Y-41831000I-110000J0D01*
G01*
X22394200Y-1121000D02*
X22614200Y-1341000D01*
X22614200Y-1121000D02*
X22394200Y-1341000D01*
X22614200Y-1231000D02*
G75*
G03*
X22614200Y-1231000I-110000J0D01*
G01*
X22394200Y-10521000D02*
X22614200Y-10741000D01*
X22614200Y-10521000D02*
X22394200Y-10741000D01*
X22614200Y-10631000D02*
G75*
G03*
X22614200Y-10631000I-110000J0D01*
G01*
X22394200Y-11521000D02*
X22614200Y-11741000D01*
X22614200Y-11521000D02*
X22394200Y-11741000D01*
X22614200Y-11631000D02*
G75*
G03*
X22614200Y-11631000I-110000J0D01*
G01*
X22394200Y-20921000D02*
X22614200Y-21141000D01*
X22614200Y-20921000D02*
X22394200Y-21141000D01*
X22614200Y-21031000D02*
G75*
G03*
X22614200Y-21031000I-110000J0D01*
G01*
X22394200Y-21921000D02*
X22614200Y-22141000D01*
X22614200Y-21921000D02*
X22394200Y-22141000D01*
X22614200Y-22031000D02*
G75*
G03*
X22614200Y-22031000I-110000J0D01*
G01*
X22394200Y-31321000D02*
X22614200Y-31541000D01*
X22614200Y-31321000D02*
X22394200Y-31541000D01*
X22614200Y-31431000D02*
G75*
G03*
X22614200Y-31431000I-110000J0D01*
G01*
X22394200Y-32321000D02*
X22614200Y-32541000D01*
X22614200Y-32321000D02*
X22394200Y-32541000D01*
X22614200Y-32431000D02*
G75*
G03*
X22614200Y-32431000I-110000J0D01*
G01*
X22394200Y-41721000D02*
X22614200Y-41941000D01*
X22614200Y-41721000D02*
X22394200Y-41941000D01*
X22614200Y-41831000D02*
G75*
G03*
X22614200Y-41831000I-110000J0D01*
G01*
X26244200Y-1121000D02*
X26464200Y-1341000D01*
X26464200Y-1121000D02*
X26244200Y-1341000D01*
X26464200Y-1231000D02*
G75*
G03*
X26464200Y-1231000I-110000J0D01*
G01*
X26244200Y-10521000D02*
X26464200Y-10741000D01*
X26464200Y-10521000D02*
X26244200Y-10741000D01*
X26464200Y-10631000D02*
G75*
G03*
X26464200Y-10631000I-110000J0D01*
G01*
X26244200Y-11521000D02*
X26464200Y-11741000D01*
X26464200Y-11521000D02*
X26244200Y-11741000D01*
X26464200Y-11631000D02*
G75*
G03*
X26464200Y-11631000I-110000J0D01*
G01*
X26244200Y-20921000D02*
X26464200Y-21141000D01*
X26464200Y-20921000D02*
X26244200Y-21141000D01*
X26464200Y-21031000D02*
G75*
G03*
X26464200Y-21031000I-110000J0D01*
G01*
X26244200Y-21921000D02*
X26464200Y-22141000D01*
X26464200Y-21921000D02*
X26244200Y-22141000D01*
X26464200Y-22031000D02*
G75*
G03*
X26464200Y-22031000I-110000J0D01*
G01*
X26244200Y-31321000D02*
X26464200Y-31541000D01*
X26464200Y-31321000D02*
X26244200Y-31541000D01*
X26464200Y-31431000D02*
G75*
G03*
X26464200Y-31431000I-110000J0D01*
G01*
X26244200Y-32321000D02*
X26464200Y-32541000D01*
X26464200Y-32321000D02*
X26244200Y-32541000D01*
X26464200Y-32431000D02*
G75*
G03*
X26464200Y-32431000I-110000J0D01*
G01*
X26244200Y-41721000D02*
X26464200Y-41941000D01*
X26464200Y-41721000D02*
X26244200Y-41941000D01*
X26464200Y-41831000D02*
G75*
G03*
X26464200Y-41831000I-110000J0D01*
G01*
X27243800Y-1116000D02*
X27463800Y-1336000D01*
X27463800Y-1116000D02*
X27243800Y-1336000D01*
X27463800Y-1226000D02*
G75*
G03*
X27463800Y-1226000I-110000J0D01*
G01*
X27243800Y-10516000D02*
X27463800Y-10736000D01*
X27463800Y-10516000D02*
X27243800Y-10736000D01*
X27463800Y-10626000D02*
G75*
G03*
X27463800Y-10626000I-110000J0D01*
G01*
X27243800Y-11516000D02*
X27463800Y-11736000D01*
X27463800Y-11516000D02*
X27243800Y-11736000D01*
X27463800Y-11626000D02*
G75*
G03*
X27463800Y-11626000I-110000J0D01*
G01*
X27243800Y-20916000D02*
X27463800Y-21136000D01*
X27463800Y-20916000D02*
X27243800Y-21136000D01*
X27463800Y-21026000D02*
G75*
G03*
X27463800Y-21026000I-110000J0D01*
G01*
X27243800Y-21916000D02*
X27463800Y-22136000D01*
X27463800Y-21916000D02*
X27243800Y-22136000D01*
X27463800Y-22026000D02*
G75*
G03*
X27463800Y-22026000I-110000J0D01*
G01*
X27243800Y-31316000D02*
X27463800Y-31536000D01*
X27463800Y-31316000D02*
X27243800Y-31536000D01*
X27463800Y-31426000D02*
G75*
G03*
X27463800Y-31426000I-110000J0D01*
G01*
X27243800Y-32316000D02*
X27463800Y-32536000D01*
X27463800Y-32316000D02*
X27243800Y-32536000D01*
X27463800Y-32426000D02*
G75*
G03*
X27463800Y-32426000I-110000J0D01*
G01*
X27243800Y-41716000D02*
X27463800Y-41936000D01*
X27463800Y-41716000D02*
X27243800Y-41936000D01*
X27463800Y-41826000D02*
G75*
G03*
X27463800Y-41826000I-110000J0D01*
G01*
X31093800Y-1116000D02*
X31313800Y-1336000D01*
X31313800Y-1116000D02*
X31093800Y-1336000D01*
X31313800Y-1226000D02*
G75*
G03*
X31313800Y-1226000I-110000J0D01*
G01*
X31093800Y-10516000D02*
X31313800Y-10736000D01*
X31313800Y-10516000D02*
X31093800Y-10736000D01*
X31313800Y-10626000D02*
G75*
G03*
X31313800Y-10626000I-110000J0D01*
G01*
X31093800Y-11516000D02*
X31313800Y-11736000D01*
X31313800Y-11516000D02*
X31093800Y-11736000D01*
X31313800Y-11626000D02*
G75*
G03*
X31313800Y-11626000I-110000J0D01*
G01*
X31093800Y-20916000D02*
X31313800Y-21136000D01*
X31313800Y-20916000D02*
X31093800Y-21136000D01*
X31313800Y-21026000D02*
G75*
G03*
X31313800Y-21026000I-110000J0D01*
G01*
X31093800Y-21916000D02*
X31313800Y-22136000D01*
X31313800Y-21916000D02*
X31093800Y-22136000D01*
X31313800Y-22026000D02*
G75*
G03*
X31313800Y-22026000I-110000J0D01*
G01*
X31093800Y-31316000D02*
X31313800Y-31536000D01*
X31313800Y-31316000D02*
X31093800Y-31536000D01*
X31313800Y-31426000D02*
G75*
G03*
X31313800Y-31426000I-110000J0D01*
G01*
X31093800Y-32316000D02*
X31313800Y-32536000D01*
X31313800Y-32316000D02*
X31093800Y-32536000D01*
X31313800Y-32426000D02*
G75*
G03*
X31313800Y-32426000I-110000J0D01*
G01*
X31093800Y-41716000D02*
X31313800Y-41936000D01*
X31313800Y-41716000D02*
X31093800Y-41936000D01*
X31313800Y-41826000D02*
G75*
G03*
X31313800Y-41826000I-110000J0D01*
G01*
X34943800Y-1116000D02*
X35163800Y-1336000D01*
X35163800Y-1116000D02*
X34943800Y-1336000D01*
X35163800Y-1226000D02*
G75*
G03*
X35163800Y-1226000I-110000J0D01*
G01*
X34943800Y-10516000D02*
X35163800Y-10736000D01*
X35163800Y-10516000D02*
X34943800Y-10736000D01*
X35163800Y-10626000D02*
G75*
G03*
X35163800Y-10626000I-110000J0D01*
G01*
X34943800Y-11516000D02*
X35163800Y-11736000D01*
X35163800Y-11516000D02*
X34943800Y-11736000D01*
X35163800Y-11626000D02*
G75*
G03*
X35163800Y-11626000I-110000J0D01*
G01*
X34943800Y-20916000D02*
X35163800Y-21136000D01*
X35163800Y-20916000D02*
X34943800Y-21136000D01*
X35163800Y-21026000D02*
G75*
G03*
X35163800Y-21026000I-110000J0D01*
G01*
X34943800Y-21916000D02*
X35163800Y-22136000D01*
X35163800Y-21916000D02*
X34943800Y-22136000D01*
X35163800Y-22026000D02*
G75*
G03*
X35163800Y-22026000I-110000J0D01*
G01*
X34943800Y-31316000D02*
X35163800Y-31536000D01*
X35163800Y-31316000D02*
X34943800Y-31536000D01*
X35163800Y-31426000D02*
G75*
G03*
X35163800Y-31426000I-110000J0D01*
G01*
X34943800Y-32316000D02*
X35163800Y-32536000D01*
X35163800Y-32316000D02*
X34943800Y-32536000D01*
X35163800Y-32426000D02*
G75*
G03*
X35163800Y-32426000I-110000J0D01*
G01*
X34943800Y-41716000D02*
X35163800Y-41936000D01*
X35163800Y-41716000D02*
X34943800Y-41936000D01*
X35163800Y-41826000D02*
G75*
G03*
X35163800Y-41826000I-110000J0D01*
G01*
X35943600Y-1116000D02*
X36163600Y-1336000D01*
X36163600Y-1116000D02*
X35943600Y-1336000D01*
X36163600Y-1226000D02*
G75*
G03*
X36163600Y-1226000I-110000J0D01*
G01*
X35943600Y-10516000D02*
X36163600Y-10736000D01*
X36163600Y-10516000D02*
X35943600Y-10736000D01*
X36163600Y-10626000D02*
G75*
G03*
X36163600Y-10626000I-110000J0D01*
G01*
X35943600Y-11516000D02*
X36163600Y-11736000D01*
X36163600Y-11516000D02*
X35943600Y-11736000D01*
X36163600Y-11626000D02*
G75*
G03*
X36163600Y-11626000I-110000J0D01*
G01*
X35943600Y-20916000D02*
X36163600Y-21136000D01*
X36163600Y-20916000D02*
X35943600Y-21136000D01*
X36163600Y-21026000D02*
G75*
G03*
X36163600Y-21026000I-110000J0D01*
G01*
X35943600Y-21916000D02*
X36163600Y-22136000D01*
X36163600Y-21916000D02*
X35943600Y-22136000D01*
X36163600Y-22026000D02*
G75*
G03*
X36163600Y-22026000I-110000J0D01*
G01*
X35943600Y-31316000D02*
X36163600Y-31536000D01*
X36163600Y-31316000D02*
X35943600Y-31536000D01*
X36163600Y-31426000D02*
G75*
G03*
X36163600Y-31426000I-110000J0D01*
G01*
X35943600Y-32316000D02*
X36163600Y-32536000D01*
X36163600Y-32316000D02*
X35943600Y-32536000D01*
X36163600Y-32426000D02*
G75*
G03*
X36163600Y-32426000I-110000J0D01*
G01*
X35943600Y-41716000D02*
X36163600Y-41936000D01*
X36163600Y-41716000D02*
X35943600Y-41936000D01*
X36163600Y-41826000D02*
G75*
G03*
X36163600Y-41826000I-110000J0D01*
G01*
X39793600Y-1116000D02*
X40013600Y-1336000D01*
X40013600Y-1116000D02*
X39793600Y-1336000D01*
X40013600Y-1226000D02*
G75*
G03*
X40013600Y-1226000I-110000J0D01*
G01*
X39793600Y-10516000D02*
X40013600Y-10736000D01*
X40013600Y-10516000D02*
X39793600Y-10736000D01*
X40013600Y-10626000D02*
G75*
G03*
X40013600Y-10626000I-110000J0D01*
G01*
X39793600Y-11516000D02*
X40013600Y-11736000D01*
X40013600Y-11516000D02*
X39793600Y-11736000D01*
X40013600Y-11626000D02*
G75*
G03*
X40013600Y-11626000I-110000J0D01*
G01*
X39793600Y-20916000D02*
X40013600Y-21136000D01*
X40013600Y-20916000D02*
X39793600Y-21136000D01*
X40013600Y-21026000D02*
G75*
G03*
X40013600Y-21026000I-110000J0D01*
G01*
X39793600Y-21916000D02*
X40013600Y-22136000D01*
X40013600Y-21916000D02*
X39793600Y-22136000D01*
X40013600Y-22026000D02*
G75*
G03*
X40013600Y-22026000I-110000J0D01*
G01*
X39793600Y-31316000D02*
X40013600Y-31536000D01*
X40013600Y-31316000D02*
X39793600Y-31536000D01*
X40013600Y-31426000D02*
G75*
G03*
X40013600Y-31426000I-110000J0D01*
G01*
X39793600Y-32316000D02*
X40013600Y-32536000D01*
X40013600Y-32316000D02*
X39793600Y-32536000D01*
X40013600Y-32426000D02*
G75*
G03*
X40013600Y-32426000I-110000J0D01*
G01*
X39793600Y-41716000D02*
X40013600Y-41936000D01*
X40013600Y-41716000D02*
X39793600Y-41936000D01*
X40013600Y-41826000D02*
G75*
G03*
X40013600Y-41826000I-110000J0D01*
G01*
X43643600Y-1116000D02*
X43863600Y-1336000D01*
X43863600Y-1116000D02*
X43643600Y-1336000D01*
X43863600Y-1226000D02*
G75*
G03*
X43863600Y-1226000I-110000J0D01*
G01*
X43643600Y-10516000D02*
X43863600Y-10736000D01*
X43863600Y-10516000D02*
X43643600Y-10736000D01*
X43863600Y-10626000D02*
G75*
G03*
X43863600Y-10626000I-110000J0D01*
G01*
X43643600Y-11516000D02*
X43863600Y-11736000D01*
X43863600Y-11516000D02*
X43643600Y-11736000D01*
X43863600Y-11626000D02*
G75*
G03*
X43863600Y-11626000I-110000J0D01*
G01*
X43643600Y-20916000D02*
X43863600Y-21136000D01*
X43863600Y-20916000D02*
X43643600Y-21136000D01*
X43863600Y-21026000D02*
G75*
G03*
X43863600Y-21026000I-110000J0D01*
G01*
X43643600Y-21916000D02*
X43863600Y-22136000D01*
X43863600Y-21916000D02*
X43643600Y-22136000D01*
X43863600Y-22026000D02*
G75*
G03*
X43863600Y-22026000I-110000J0D01*
G01*
X43643600Y-31316000D02*
X43863600Y-31536000D01*
X43863600Y-31316000D02*
X43643600Y-31536000D01*
X43863600Y-31426000D02*
G75*
G03*
X43863600Y-31426000I-110000J0D01*
G01*
X43643600Y-32316000D02*
X43863600Y-32536000D01*
X43863600Y-32316000D02*
X43643600Y-32536000D01*
X43863600Y-32426000D02*
G75*
G03*
X43863600Y-32426000I-110000J0D01*
G01*
X43643600Y-41716000D02*
X43863600Y-41936000D01*
X43863600Y-41716000D02*
X43643600Y-41936000D01*
X43863600Y-41826000D02*
G75*
G03*
X43863600Y-41826000I-110000J0D01*
G01*
D12*
X1260119Y-42403976D02*
X1260119Y-42203976D01*
X1307738Y-42203976D01*
X1336310Y-42213500D01*
X1355357Y-42232548D01*
X1364881Y-42251595D01*
X1374405Y-42289690D01*
X1374405Y-42318262D01*
X1364881Y-42356357D01*
X1355357Y-42375405D01*
X1336310Y-42394452D01*
X1307738Y-42403976D01*
X1260119Y-42403976D01*
X1460119Y-42403976D02*
X1460119Y-42270643D01*
X1460119Y-42308738D02*
X1469643Y-42289690D01*
X1479167Y-42280167D01*
X1498214Y-42270643D01*
X1517262Y-42270643D01*
X1583928Y-42403976D02*
X1583928Y-42270643D01*
X1583928Y-42203976D02*
X1574405Y-42213500D01*
X1583928Y-42223024D01*
X1593452Y-42213500D01*
X1583928Y-42203976D01*
X1583928Y-42223024D01*
X1707738Y-42403976D02*
X1688690Y-42394452D01*
X1679167Y-42375405D01*
X1679167Y-42203976D01*
X1812500Y-42403976D02*
X1793452Y-42394452D01*
X1783928Y-42375405D01*
X1783928Y-42203976D01*
X2041071Y-42403976D02*
X2041071Y-42203976D01*
X2107738Y-42346833D01*
X2174405Y-42203976D01*
X2174405Y-42403976D01*
X2355357Y-42403976D02*
X2355357Y-42299214D01*
X2345833Y-42280167D01*
X2326786Y-42270643D01*
X2288690Y-42270643D01*
X2269643Y-42280167D01*
X2355357Y-42394452D02*
X2336310Y-42403976D01*
X2288690Y-42403976D01*
X2269643Y-42394452D01*
X2260119Y-42375405D01*
X2260119Y-42356357D01*
X2269643Y-42337310D01*
X2288690Y-42327786D01*
X2336310Y-42327786D01*
X2355357Y-42318262D01*
X2450595Y-42270643D02*
X2450595Y-42470643D01*
X2450595Y-42280167D02*
X2469643Y-42270643D01*
X2507738Y-42270643D01*
X2526786Y-42280167D01*
X2536310Y-42289690D01*
X2545833Y-42308738D01*
X2545833Y-42365881D01*
X2536310Y-42384929D01*
X2526786Y-42394452D01*
X2507738Y-42403976D01*
X2469643Y-42403976D01*
X2450595Y-42394452D01*
X2631548Y-42384929D02*
X2641071Y-42394452D01*
X2631548Y-42403976D01*
X2622024Y-42394452D01*
X2631548Y-42384929D01*
X2631548Y-42403976D01*
X2631548Y-42280167D02*
X2641071Y-42289690D01*
X2631548Y-42299214D01*
X2622024Y-42289690D01*
X2631548Y-42280167D01*
X2631548Y-42299214D01*
D13*
X972500Y-42718500D02*
X1002500Y-42748500D01*
X1002500Y-42718500D02*
X972500Y-42748500D01*
D12*
X1298214Y-42623976D02*
X1317262Y-42623976D01*
X1336310Y-42633500D01*
X1345833Y-42643024D01*
X1355357Y-42662071D01*
X1364881Y-42700167D01*
X1364881Y-42747786D01*
X1355357Y-42785881D01*
X1345833Y-42804929D01*
X1336310Y-42814452D01*
X1317262Y-42823976D01*
X1298214Y-42823976D01*
X1279167Y-42814452D01*
X1269643Y-42804929D01*
X1260119Y-42785881D01*
X1250595Y-42747786D01*
X1250595Y-42700167D01*
X1260119Y-42662071D01*
X1269643Y-42643024D01*
X1279167Y-42633500D01*
X1298214Y-42623976D01*
X1450595Y-42804929D02*
X1460119Y-42814452D01*
X1450595Y-42823976D01*
X1441071Y-42814452D01*
X1450595Y-42804929D01*
X1450595Y-42823976D01*
X1526786Y-42623976D02*
X1650595Y-42623976D01*
X1583928Y-42700167D01*
X1612500Y-42700167D01*
X1631548Y-42709690D01*
X1641071Y-42719214D01*
X1650595Y-42738262D01*
X1650595Y-42785881D01*
X1641071Y-42804929D01*
X1631548Y-42814452D01*
X1612500Y-42823976D01*
X1555357Y-42823976D01*
X1536309Y-42814452D01*
X1526786Y-42804929D01*
X1774405Y-42623976D02*
X1793452Y-42623976D01*
X1812500Y-42633500D01*
X1822024Y-42643024D01*
X1831548Y-42662071D01*
X1841071Y-42700167D01*
X1841071Y-42747786D01*
X1831548Y-42785881D01*
X1822024Y-42804929D01*
X1812500Y-42814452D01*
X1793452Y-42823976D01*
X1774405Y-42823976D01*
X1755357Y-42814452D01*
X1745833Y-42804929D01*
X1736309Y-42785881D01*
X1726786Y-42747786D01*
X1726786Y-42700167D01*
X1736309Y-42662071D01*
X1745833Y-42643024D01*
X1755357Y-42633500D01*
X1774405Y-42623976D01*
X1964881Y-42623976D02*
X1983928Y-42623976D01*
X2002976Y-42633500D01*
X2012500Y-42643024D01*
X2022024Y-42662071D01*
X2031548Y-42700167D01*
X2031548Y-42747786D01*
X2022024Y-42785881D01*
X2012500Y-42804929D01*
X2002976Y-42814452D01*
X1983928Y-42823976D01*
X1964881Y-42823976D01*
X1945833Y-42814452D01*
X1936309Y-42804929D01*
X1926786Y-42785881D01*
X1917262Y-42747786D01*
X1917262Y-42700167D01*
X1926786Y-42662071D01*
X1936309Y-42643024D01*
X1945833Y-42633500D01*
X1964881Y-42623976D01*
X2117262Y-42823976D02*
X2117262Y-42690643D01*
X2117262Y-42709690D02*
X2126786Y-42700167D01*
X2145833Y-42690643D01*
X2174405Y-42690643D01*
X2193452Y-42700167D01*
X2202976Y-42719214D01*
X2202976Y-42823976D01*
X2202976Y-42719214D02*
X2212500Y-42700167D01*
X2231548Y-42690643D01*
X2260119Y-42690643D01*
X2279167Y-42700167D01*
X2288690Y-42719214D01*
X2288690Y-42823976D01*
X2383929Y-42823976D02*
X2383929Y-42690643D01*
X2383929Y-42709690D02*
X2393452Y-42700167D01*
X2412500Y-42690643D01*
X2441071Y-42690643D01*
X2460119Y-42700167D01*
X2469643Y-42719214D01*
X2469643Y-42823976D01*
X2469643Y-42719214D02*
X2479167Y-42700167D01*
X2498214Y-42690643D01*
X2526786Y-42690643D01*
X2545833Y-42700167D01*
X2555357Y-42719214D01*
X2555357Y-42823976D01*
X2945833Y-42614452D02*
X2774405Y-42871595D01*
X3202976Y-42623976D02*
X3222024Y-42623976D01*
X3241071Y-42633500D01*
X3250595Y-42643024D01*
X3260119Y-42662071D01*
X3269643Y-42700167D01*
X3269643Y-42747786D01*
X3260119Y-42785881D01*
X3250595Y-42804929D01*
X3241071Y-42814452D01*
X3222024Y-42823976D01*
X3202976Y-42823976D01*
X3183928Y-42814452D01*
X3174405Y-42804929D01*
X3164881Y-42785881D01*
X3155357Y-42747786D01*
X3155357Y-42700167D01*
X3164881Y-42662071D01*
X3174405Y-42643024D01*
X3183928Y-42633500D01*
X3202976Y-42623976D01*
X3355357Y-42804929D02*
X3364881Y-42814452D01*
X3355357Y-42823976D01*
X3345833Y-42814452D01*
X3355357Y-42804929D01*
X3355357Y-42823976D01*
X3488690Y-42623976D02*
X3507738Y-42623976D01*
X3526786Y-42633500D01*
X3536309Y-42643024D01*
X3545833Y-42662071D01*
X3555357Y-42700167D01*
X3555357Y-42747786D01*
X3545833Y-42785881D01*
X3536309Y-42804929D01*
X3526786Y-42814452D01*
X3507738Y-42823976D01*
X3488690Y-42823976D01*
X3469643Y-42814452D01*
X3460119Y-42804929D01*
X3450595Y-42785881D01*
X3441071Y-42747786D01*
X3441071Y-42700167D01*
X3450595Y-42662071D01*
X3460119Y-42643024D01*
X3469643Y-42633500D01*
X3488690Y-42623976D01*
X3745833Y-42823976D02*
X3631548Y-42823976D01*
X3688690Y-42823976D02*
X3688690Y-42623976D01*
X3669643Y-42652548D01*
X3650595Y-42671595D01*
X3631548Y-42681119D01*
X3936309Y-42823976D02*
X3822024Y-42823976D01*
X3879167Y-42823976D02*
X3879167Y-42623976D01*
X3860119Y-42652548D01*
X3841071Y-42671595D01*
X3822024Y-42681119D01*
X4050595Y-42709690D02*
X4031548Y-42700167D01*
X4022024Y-42690643D01*
X4012500Y-42671595D01*
X4012500Y-42662071D01*
X4022024Y-42643024D01*
X4031548Y-42633500D01*
X4050595Y-42623976D01*
X4088690Y-42623976D01*
X4107738Y-42633500D01*
X4117262Y-42643024D01*
X4126786Y-42662071D01*
X4126786Y-42671595D01*
X4117262Y-42690643D01*
X4107738Y-42700167D01*
X4088690Y-42709690D01*
X4050595Y-42709690D01*
X4031548Y-42719214D01*
X4022024Y-42728738D01*
X4012500Y-42747786D01*
X4012500Y-42785881D01*
X4022024Y-42804929D01*
X4031548Y-42814452D01*
X4050595Y-42823976D01*
X4088690Y-42823976D01*
X4107738Y-42814452D01*
X4117262Y-42804929D01*
X4126786Y-42785881D01*
X4126786Y-42747786D01*
X4117262Y-42728738D01*
X4107738Y-42719214D01*
X4088690Y-42709690D01*
X4202976Y-42623976D02*
X4202976Y-42662071D01*
X4279167Y-42623976D02*
X4279167Y-42662071D01*
X4574405Y-42900167D02*
X4564881Y-42890643D01*
X4545833Y-42862071D01*
X4536310Y-42843024D01*
X4526786Y-42814452D01*
X4517262Y-42766833D01*
X4517262Y-42728738D01*
X4526786Y-42681119D01*
X4536310Y-42652548D01*
X4545833Y-42633500D01*
X4564881Y-42604929D01*
X4574405Y-42595405D01*
X4755357Y-42823976D02*
X4641071Y-42823976D01*
X4698214Y-42823976D02*
X4698214Y-42623976D01*
X4679167Y-42652548D01*
X4660119Y-42671595D01*
X4641071Y-42681119D01*
X4926786Y-42623976D02*
X4888690Y-42623976D01*
X4869643Y-42633500D01*
X4860119Y-42643024D01*
X4841071Y-42671595D01*
X4831548Y-42709690D01*
X4831548Y-42785881D01*
X4841071Y-42804929D01*
X4850595Y-42814452D01*
X4869643Y-42823976D01*
X4907738Y-42823976D01*
X4926786Y-42814452D01*
X4936310Y-42804929D01*
X4945833Y-42785881D01*
X4945833Y-42738262D01*
X4936310Y-42719214D01*
X4926786Y-42709690D01*
X4907738Y-42700167D01*
X4869643Y-42700167D01*
X4850595Y-42709690D01*
X4841071Y-42719214D01*
X4831548Y-42738262D01*
X5069643Y-42623976D02*
X5088690Y-42623976D01*
X5107738Y-42633500D01*
X5117262Y-42643024D01*
X5126786Y-42662071D01*
X5136310Y-42700167D01*
X5136310Y-42747786D01*
X5126786Y-42785881D01*
X5117262Y-42804929D01*
X5107738Y-42814452D01*
X5088690Y-42823976D01*
X5069643Y-42823976D01*
X5050595Y-42814452D01*
X5041071Y-42804929D01*
X5031548Y-42785881D01*
X5022024Y-42747786D01*
X5022024Y-42700167D01*
X5031548Y-42662071D01*
X5041071Y-42643024D01*
X5050595Y-42633500D01*
X5069643Y-42623976D01*
X5374405Y-42823976D02*
X5374405Y-42623976D01*
X5460119Y-42823976D02*
X5460119Y-42719214D01*
X5450595Y-42700167D01*
X5431548Y-42690643D01*
X5402976Y-42690643D01*
X5383929Y-42700167D01*
X5374405Y-42709690D01*
X5583929Y-42823976D02*
X5564881Y-42814452D01*
X5555357Y-42804929D01*
X5545833Y-42785881D01*
X5545833Y-42728738D01*
X5555357Y-42709690D01*
X5564881Y-42700167D01*
X5583929Y-42690643D01*
X5612500Y-42690643D01*
X5631548Y-42700167D01*
X5641071Y-42709690D01*
X5650595Y-42728738D01*
X5650595Y-42785881D01*
X5641071Y-42804929D01*
X5631548Y-42814452D01*
X5612500Y-42823976D01*
X5583929Y-42823976D01*
X5764881Y-42823976D02*
X5745833Y-42814452D01*
X5736309Y-42795405D01*
X5736309Y-42623976D01*
X5917262Y-42814452D02*
X5898214Y-42823976D01*
X5860119Y-42823976D01*
X5841071Y-42814452D01*
X5831548Y-42795405D01*
X5831548Y-42719214D01*
X5841071Y-42700167D01*
X5860119Y-42690643D01*
X5898214Y-42690643D01*
X5917262Y-42700167D01*
X5926786Y-42719214D01*
X5926786Y-42738262D01*
X5831548Y-42757310D01*
X6002976Y-42814452D02*
X6022024Y-42823976D01*
X6060119Y-42823976D01*
X6079167Y-42814452D01*
X6088690Y-42795405D01*
X6088690Y-42785881D01*
X6079167Y-42766833D01*
X6060119Y-42757310D01*
X6031548Y-42757310D01*
X6012500Y-42747786D01*
X6002976Y-42728738D01*
X6002976Y-42719214D01*
X6012500Y-42700167D01*
X6031548Y-42690643D01*
X6060119Y-42690643D01*
X6079167Y-42700167D01*
X6155357Y-42900167D02*
X6164881Y-42890643D01*
X6183928Y-42862071D01*
X6193452Y-42843024D01*
X6202976Y-42814452D01*
X6212500Y-42766833D01*
X6212500Y-42728738D01*
X6202976Y-42681119D01*
X6193452Y-42652548D01*
X6183928Y-42633500D01*
X6164881Y-42604929D01*
X6155357Y-42595405D01*
D14*
X1002500Y-42997500D02*
G75*
G03*
X1002500Y-42997500I-20000J0D01*
G01*
D12*
X1298214Y-42887976D02*
X1317262Y-42887976D01*
X1336310Y-42897500D01*
X1345833Y-42907024D01*
X1355357Y-42926071D01*
X1364881Y-42964167D01*
X1364881Y-43011786D01*
X1355357Y-43049881D01*
X1345833Y-43068929D01*
X1336310Y-43078452D01*
X1317262Y-43087976D01*
X1298214Y-43087976D01*
X1279167Y-43078452D01*
X1269643Y-43068929D01*
X1260119Y-43049881D01*
X1250595Y-43011786D01*
X1250595Y-42964167D01*
X1260119Y-42926071D01*
X1269643Y-42907024D01*
X1279167Y-42897500D01*
X1298214Y-42887976D01*
X1450595Y-43068929D02*
X1460119Y-43078452D01*
X1450595Y-43087976D01*
X1441071Y-43078452D01*
X1450595Y-43068929D01*
X1450595Y-43087976D01*
X1631548Y-42954643D02*
X1631548Y-43087976D01*
X1583928Y-42878452D02*
X1536309Y-43021310D01*
X1660119Y-43021310D01*
X1774405Y-42887976D02*
X1793452Y-42887976D01*
X1812500Y-42897500D01*
X1822024Y-42907024D01*
X1831548Y-42926071D01*
X1841071Y-42964167D01*
X1841071Y-43011786D01*
X1831548Y-43049881D01*
X1822024Y-43068929D01*
X1812500Y-43078452D01*
X1793452Y-43087976D01*
X1774405Y-43087976D01*
X1755357Y-43078452D01*
X1745833Y-43068929D01*
X1736309Y-43049881D01*
X1726786Y-43011786D01*
X1726786Y-42964167D01*
X1736309Y-42926071D01*
X1745833Y-42907024D01*
X1755357Y-42897500D01*
X1774405Y-42887976D01*
X1964881Y-42887976D02*
X1983928Y-42887976D01*
X2002976Y-42897500D01*
X2012500Y-42907024D01*
X2022024Y-42926071D01*
X2031548Y-42964167D01*
X2031548Y-43011786D01*
X2022024Y-43049881D01*
X2012500Y-43068929D01*
X2002976Y-43078452D01*
X1983928Y-43087976D01*
X1964881Y-43087976D01*
X1945833Y-43078452D01*
X1936309Y-43068929D01*
X1926786Y-43049881D01*
X1917262Y-43011786D01*
X1917262Y-42964167D01*
X1926786Y-42926071D01*
X1936309Y-42907024D01*
X1945833Y-42897500D01*
X1964881Y-42887976D01*
X2117262Y-43087976D02*
X2117262Y-42954643D01*
X2117262Y-42973690D02*
X2126786Y-42964167D01*
X2145833Y-42954643D01*
X2174405Y-42954643D01*
X2193452Y-42964167D01*
X2202976Y-42983214D01*
X2202976Y-43087976D01*
X2202976Y-42983214D02*
X2212500Y-42964167D01*
X2231548Y-42954643D01*
X2260119Y-42954643D01*
X2279167Y-42964167D01*
X2288690Y-42983214D01*
X2288690Y-43087976D01*
X2383929Y-43087976D02*
X2383929Y-42954643D01*
X2383929Y-42973690D02*
X2393452Y-42964167D01*
X2412500Y-42954643D01*
X2441071Y-42954643D01*
X2460119Y-42964167D01*
X2469643Y-42983214D01*
X2469643Y-43087976D01*
X2469643Y-42983214D02*
X2479167Y-42964167D01*
X2498214Y-42954643D01*
X2526786Y-42954643D01*
X2545833Y-42964167D01*
X2555357Y-42983214D01*
X2555357Y-43087976D01*
X2945833Y-42878452D02*
X2774405Y-43135595D01*
X3202976Y-42887976D02*
X3222024Y-42887976D01*
X3241071Y-42897500D01*
X3250595Y-42907024D01*
X3260119Y-42926071D01*
X3269643Y-42964167D01*
X3269643Y-43011786D01*
X3260119Y-43049881D01*
X3250595Y-43068929D01*
X3241071Y-43078452D01*
X3222024Y-43087976D01*
X3202976Y-43087976D01*
X3183928Y-43078452D01*
X3174405Y-43068929D01*
X3164881Y-43049881D01*
X3155357Y-43011786D01*
X3155357Y-42964167D01*
X3164881Y-42926071D01*
X3174405Y-42907024D01*
X3183928Y-42897500D01*
X3202976Y-42887976D01*
X3355357Y-43068929D02*
X3364881Y-43078452D01*
X3355357Y-43087976D01*
X3345833Y-43078452D01*
X3355357Y-43068929D01*
X3355357Y-43087976D01*
X3488690Y-42887976D02*
X3507738Y-42887976D01*
X3526786Y-42897500D01*
X3536309Y-42907024D01*
X3545833Y-42926071D01*
X3555357Y-42964167D01*
X3555357Y-43011786D01*
X3545833Y-43049881D01*
X3536309Y-43068929D01*
X3526786Y-43078452D01*
X3507738Y-43087976D01*
X3488690Y-43087976D01*
X3469643Y-43078452D01*
X3460119Y-43068929D01*
X3450595Y-43049881D01*
X3441071Y-43011786D01*
X3441071Y-42964167D01*
X3450595Y-42926071D01*
X3460119Y-42907024D01*
X3469643Y-42897500D01*
X3488690Y-42887976D01*
X3745833Y-43087976D02*
X3631548Y-43087976D01*
X3688690Y-43087976D02*
X3688690Y-42887976D01*
X3669643Y-42916548D01*
X3650595Y-42935595D01*
X3631548Y-42945119D01*
X3926786Y-42887976D02*
X3831548Y-42887976D01*
X3822024Y-42983214D01*
X3831548Y-42973690D01*
X3850595Y-42964167D01*
X3898214Y-42964167D01*
X3917262Y-42973690D01*
X3926786Y-42983214D01*
X3936309Y-43002262D01*
X3936309Y-43049881D01*
X3926786Y-43068929D01*
X3917262Y-43078452D01*
X3898214Y-43087976D01*
X3850595Y-43087976D01*
X3831548Y-43078452D01*
X3822024Y-43068929D01*
X4002976Y-42887976D02*
X4136309Y-42887976D01*
X4050595Y-43087976D01*
X4202976Y-42887976D02*
X4202976Y-42926071D01*
X4279167Y-42887976D02*
X4279167Y-42926071D01*
X4574405Y-43164167D02*
X4564881Y-43154643D01*
X4545833Y-43126071D01*
X4536310Y-43107024D01*
X4526786Y-43078452D01*
X4517262Y-43030833D01*
X4517262Y-42992738D01*
X4526786Y-42945119D01*
X4536310Y-42916548D01*
X4545833Y-42897500D01*
X4564881Y-42868929D01*
X4574405Y-42859405D01*
X4755357Y-43087976D02*
X4641071Y-43087976D01*
X4698214Y-43087976D02*
X4698214Y-42887976D01*
X4679167Y-42916548D01*
X4660119Y-42935595D01*
X4641071Y-42945119D01*
X4926786Y-42954643D02*
X4926786Y-43087976D01*
X4879167Y-42878452D02*
X4831548Y-43021310D01*
X4955357Y-43021310D01*
X5060119Y-42973690D02*
X5041071Y-42964167D01*
X5031548Y-42954643D01*
X5022024Y-42935595D01*
X5022024Y-42926071D01*
X5031548Y-42907024D01*
X5041071Y-42897500D01*
X5060119Y-42887976D01*
X5098214Y-42887976D01*
X5117262Y-42897500D01*
X5126786Y-42907024D01*
X5136310Y-42926071D01*
X5136310Y-42935595D01*
X5126786Y-42954643D01*
X5117262Y-42964167D01*
X5098214Y-42973690D01*
X5060119Y-42973690D01*
X5041071Y-42983214D01*
X5031548Y-42992738D01*
X5022024Y-43011786D01*
X5022024Y-43049881D01*
X5031548Y-43068929D01*
X5041071Y-43078452D01*
X5060119Y-43087976D01*
X5098214Y-43087976D01*
X5117262Y-43078452D01*
X5126786Y-43068929D01*
X5136310Y-43049881D01*
X5136310Y-43011786D01*
X5126786Y-42992738D01*
X5117262Y-42983214D01*
X5098214Y-42973690D01*
X5374405Y-43087976D02*
X5374405Y-42887976D01*
X5460119Y-43087976D02*
X5460119Y-42983214D01*
X5450595Y-42964167D01*
X5431548Y-42954643D01*
X5402976Y-42954643D01*
X5383929Y-42964167D01*
X5374405Y-42973690D01*
X5583929Y-43087976D02*
X5564881Y-43078452D01*
X5555357Y-43068929D01*
X5545833Y-43049881D01*
X5545833Y-42992738D01*
X5555357Y-42973690D01*
X5564881Y-42964167D01*
X5583929Y-42954643D01*
X5612500Y-42954643D01*
X5631548Y-42964167D01*
X5641071Y-42973690D01*
X5650595Y-42992738D01*
X5650595Y-43049881D01*
X5641071Y-43068929D01*
X5631548Y-43078452D01*
X5612500Y-43087976D01*
X5583929Y-43087976D01*
X5764881Y-43087976D02*
X5745833Y-43078452D01*
X5736309Y-43059405D01*
X5736309Y-42887976D01*
X5917262Y-43078452D02*
X5898214Y-43087976D01*
X5860119Y-43087976D01*
X5841071Y-43078452D01*
X5831548Y-43059405D01*
X5831548Y-42983214D01*
X5841071Y-42964167D01*
X5860119Y-42954643D01*
X5898214Y-42954643D01*
X5917262Y-42964167D01*
X5926786Y-42983214D01*
X5926786Y-43002262D01*
X5831548Y-43021310D01*
X6002976Y-43078452D02*
X6022024Y-43087976D01*
X6060119Y-43087976D01*
X6079167Y-43078452D01*
X6088690Y-43059405D01*
X6088690Y-43049881D01*
X6079167Y-43030833D01*
X6060119Y-43021310D01*
X6031548Y-43021310D01*
X6012500Y-43011786D01*
X6002976Y-42992738D01*
X6002976Y-42983214D01*
X6012500Y-42964167D01*
X6031548Y-42954643D01*
X6060119Y-42954643D01*
X6079167Y-42964167D01*
X6155357Y-43164167D02*
X6164881Y-43154643D01*
X6183928Y-43126071D01*
X6193452Y-43107024D01*
X6202976Y-43078452D01*
X6212500Y-43030833D01*
X6212500Y-42992738D01*
X6202976Y-42945119D01*
X6193452Y-42916548D01*
X6183928Y-42897500D01*
X6164881Y-42868929D01*
X6155357Y-42859405D01*
D15*
X952500Y-43211500D02*
X952500Y-43311500D01*
X902500Y-43261500D02*
X1002500Y-43261500D01*
D12*
X1364881Y-43351976D02*
X1250595Y-43351976D01*
X1307738Y-43351976D02*
X1307738Y-43151976D01*
X1288690Y-43180548D01*
X1269643Y-43199595D01*
X1250595Y-43209119D01*
X1450595Y-43332929D02*
X1460119Y-43342452D01*
X1450595Y-43351976D01*
X1441071Y-43342452D01*
X1450595Y-43332929D01*
X1450595Y-43351976D01*
X1583928Y-43151976D02*
X1602976Y-43151976D01*
X1622024Y-43161500D01*
X1631548Y-43171024D01*
X1641071Y-43190071D01*
X1650595Y-43228167D01*
X1650595Y-43275786D01*
X1641071Y-43313881D01*
X1631548Y-43332929D01*
X1622024Y-43342452D01*
X1602976Y-43351976D01*
X1583928Y-43351976D01*
X1564881Y-43342452D01*
X1555357Y-43332929D01*
X1545833Y-43313881D01*
X1536309Y-43275786D01*
X1536309Y-43228167D01*
X1545833Y-43190071D01*
X1555357Y-43171024D01*
X1564881Y-43161500D01*
X1583928Y-43151976D01*
X1774405Y-43151976D02*
X1793452Y-43151976D01*
X1812500Y-43161500D01*
X1822024Y-43171024D01*
X1831548Y-43190071D01*
X1841071Y-43228167D01*
X1841071Y-43275786D01*
X1831548Y-43313881D01*
X1822024Y-43332929D01*
X1812500Y-43342452D01*
X1793452Y-43351976D01*
X1774405Y-43351976D01*
X1755357Y-43342452D01*
X1745833Y-43332929D01*
X1736309Y-43313881D01*
X1726786Y-43275786D01*
X1726786Y-43228167D01*
X1736309Y-43190071D01*
X1745833Y-43171024D01*
X1755357Y-43161500D01*
X1774405Y-43151976D01*
X1964881Y-43151976D02*
X1983928Y-43151976D01*
X2002976Y-43161500D01*
X2012500Y-43171024D01*
X2022024Y-43190071D01*
X2031548Y-43228167D01*
X2031548Y-43275786D01*
X2022024Y-43313881D01*
X2012500Y-43332929D01*
X2002976Y-43342452D01*
X1983928Y-43351976D01*
X1964881Y-43351976D01*
X1945833Y-43342452D01*
X1936309Y-43332929D01*
X1926786Y-43313881D01*
X1917262Y-43275786D01*
X1917262Y-43228167D01*
X1926786Y-43190071D01*
X1936309Y-43171024D01*
X1945833Y-43161500D01*
X1964881Y-43151976D01*
X2117262Y-43351976D02*
X2117262Y-43218643D01*
X2117262Y-43237690D02*
X2126786Y-43228167D01*
X2145833Y-43218643D01*
X2174405Y-43218643D01*
X2193452Y-43228167D01*
X2202976Y-43247214D01*
X2202976Y-43351976D01*
X2202976Y-43247214D02*
X2212500Y-43228167D01*
X2231548Y-43218643D01*
X2260119Y-43218643D01*
X2279167Y-43228167D01*
X2288690Y-43247214D01*
X2288690Y-43351976D01*
X2383929Y-43351976D02*
X2383929Y-43218643D01*
X2383929Y-43237690D02*
X2393452Y-43228167D01*
X2412500Y-43218643D01*
X2441071Y-43218643D01*
X2460119Y-43228167D01*
X2469643Y-43247214D01*
X2469643Y-43351976D01*
X2469643Y-43247214D02*
X2479167Y-43228167D01*
X2498214Y-43218643D01*
X2526786Y-43218643D01*
X2545833Y-43228167D01*
X2555357Y-43247214D01*
X2555357Y-43351976D01*
X2945833Y-43142452D02*
X2774405Y-43399595D01*
X3202976Y-43151976D02*
X3222024Y-43151976D01*
X3241071Y-43161500D01*
X3250595Y-43171024D01*
X3260119Y-43190071D01*
X3269643Y-43228167D01*
X3269643Y-43275786D01*
X3260119Y-43313881D01*
X3250595Y-43332929D01*
X3241071Y-43342452D01*
X3222024Y-43351976D01*
X3202976Y-43351976D01*
X3183928Y-43342452D01*
X3174405Y-43332929D01*
X3164881Y-43313881D01*
X3155357Y-43275786D01*
X3155357Y-43228167D01*
X3164881Y-43190071D01*
X3174405Y-43171024D01*
X3183928Y-43161500D01*
X3202976Y-43151976D01*
X3355357Y-43332929D02*
X3364881Y-43342452D01*
X3355357Y-43351976D01*
X3345833Y-43342452D01*
X3355357Y-43332929D01*
X3355357Y-43351976D01*
X3488690Y-43151976D02*
X3507738Y-43151976D01*
X3526786Y-43161500D01*
X3536309Y-43171024D01*
X3545833Y-43190071D01*
X3555357Y-43228167D01*
X3555357Y-43275786D01*
X3545833Y-43313881D01*
X3536309Y-43332929D01*
X3526786Y-43342452D01*
X3507738Y-43351976D01*
X3488690Y-43351976D01*
X3469643Y-43342452D01*
X3460119Y-43332929D01*
X3450595Y-43313881D01*
X3441071Y-43275786D01*
X3441071Y-43228167D01*
X3450595Y-43190071D01*
X3460119Y-43171024D01*
X3469643Y-43161500D01*
X3488690Y-43151976D01*
X3622024Y-43151976D02*
X3745833Y-43151976D01*
X3679167Y-43228167D01*
X3707738Y-43228167D01*
X3726786Y-43237690D01*
X3736309Y-43247214D01*
X3745833Y-43266262D01*
X3745833Y-43313881D01*
X3736309Y-43332929D01*
X3726786Y-43342452D01*
X3707738Y-43351976D01*
X3650595Y-43351976D01*
X3631548Y-43342452D01*
X3622024Y-43332929D01*
X3841071Y-43351976D02*
X3879167Y-43351976D01*
X3898214Y-43342452D01*
X3907738Y-43332929D01*
X3926786Y-43304357D01*
X3936309Y-43266262D01*
X3936309Y-43190071D01*
X3926786Y-43171024D01*
X3917262Y-43161500D01*
X3898214Y-43151976D01*
X3860119Y-43151976D01*
X3841071Y-43161500D01*
X3831548Y-43171024D01*
X3822024Y-43190071D01*
X3822024Y-43237690D01*
X3831548Y-43256738D01*
X3841071Y-43266262D01*
X3860119Y-43275786D01*
X3898214Y-43275786D01*
X3917262Y-43266262D01*
X3926786Y-43256738D01*
X3936309Y-43237690D01*
X4107738Y-43218643D02*
X4107738Y-43351976D01*
X4060119Y-43142452D02*
X4012500Y-43285310D01*
X4136309Y-43285310D01*
X4202976Y-43151976D02*
X4202976Y-43190071D01*
X4279167Y-43151976D02*
X4279167Y-43190071D01*
X4574405Y-43428167D02*
X4564881Y-43418643D01*
X4545833Y-43390071D01*
X4536310Y-43371024D01*
X4526786Y-43342452D01*
X4517262Y-43294833D01*
X4517262Y-43256738D01*
X4526786Y-43209119D01*
X4536310Y-43180548D01*
X4545833Y-43161500D01*
X4564881Y-43132929D01*
X4574405Y-43123405D01*
X4755357Y-43351976D02*
X4641071Y-43351976D01*
X4698214Y-43351976D02*
X4698214Y-43151976D01*
X4679167Y-43180548D01*
X4660119Y-43199595D01*
X4641071Y-43209119D01*
X4831548Y-43171024D02*
X4841071Y-43161500D01*
X4860119Y-43151976D01*
X4907738Y-43151976D01*
X4926786Y-43161500D01*
X4936310Y-43171024D01*
X4945833Y-43190071D01*
X4945833Y-43209119D01*
X4936310Y-43237690D01*
X4822024Y-43351976D01*
X4945833Y-43351976D01*
X5069643Y-43151976D02*
X5088690Y-43151976D01*
X5107738Y-43161500D01*
X5117262Y-43171024D01*
X5126786Y-43190071D01*
X5136310Y-43228167D01*
X5136310Y-43275786D01*
X5126786Y-43313881D01*
X5117262Y-43332929D01*
X5107738Y-43342452D01*
X5088690Y-43351976D01*
X5069643Y-43351976D01*
X5050595Y-43342452D01*
X5041071Y-43332929D01*
X5031548Y-43313881D01*
X5022024Y-43275786D01*
X5022024Y-43228167D01*
X5031548Y-43190071D01*
X5041071Y-43171024D01*
X5050595Y-43161500D01*
X5069643Y-43151976D01*
X5374405Y-43351976D02*
X5374405Y-43151976D01*
X5460119Y-43351976D02*
X5460119Y-43247214D01*
X5450595Y-43228167D01*
X5431548Y-43218643D01*
X5402976Y-43218643D01*
X5383929Y-43228167D01*
X5374405Y-43237690D01*
X5583929Y-43351976D02*
X5564881Y-43342452D01*
X5555357Y-43332929D01*
X5545833Y-43313881D01*
X5545833Y-43256738D01*
X5555357Y-43237690D01*
X5564881Y-43228167D01*
X5583929Y-43218643D01*
X5612500Y-43218643D01*
X5631548Y-43228167D01*
X5641071Y-43237690D01*
X5650595Y-43256738D01*
X5650595Y-43313881D01*
X5641071Y-43332929D01*
X5631548Y-43342452D01*
X5612500Y-43351976D01*
X5583929Y-43351976D01*
X5764881Y-43351976D02*
X5745833Y-43342452D01*
X5736309Y-43323405D01*
X5736309Y-43151976D01*
X5917262Y-43342452D02*
X5898214Y-43351976D01*
X5860119Y-43351976D01*
X5841071Y-43342452D01*
X5831548Y-43323405D01*
X5831548Y-43247214D01*
X5841071Y-43228167D01*
X5860119Y-43218643D01*
X5898214Y-43218643D01*
X5917262Y-43228167D01*
X5926786Y-43247214D01*
X5926786Y-43266262D01*
X5831548Y-43285310D01*
X6002976Y-43342452D02*
X6022024Y-43351976D01*
X6060119Y-43351976D01*
X6079167Y-43342452D01*
X6088690Y-43323405D01*
X6088690Y-43313881D01*
X6079167Y-43294833D01*
X6060119Y-43285310D01*
X6031548Y-43285310D01*
X6012500Y-43275786D01*
X6002976Y-43256738D01*
X6002976Y-43247214D01*
X6012500Y-43228167D01*
X6031548Y-43218643D01*
X6060119Y-43218643D01*
X6079167Y-43228167D01*
X6155357Y-43428167D02*
X6164881Y-43418643D01*
X6183928Y-43390071D01*
X6193452Y-43371024D01*
X6202976Y-43342452D01*
X6212500Y-43294833D01*
X6212500Y-43256738D01*
X6202976Y-43209119D01*
X6193452Y-43180548D01*
X6183928Y-43161500D01*
X6164881Y-43132929D01*
X6155357Y-43123405D01*
D16*
X983462Y-43571462D02*
X983462Y-43479538D01*
X891538Y-43479538D01*
X891538Y-43571462D01*
X983462Y-43571462D01*
D12*
X1364881Y-43615976D02*
X1250595Y-43615976D01*
X1307738Y-43615976D02*
X1307738Y-43415976D01*
X1288690Y-43444548D01*
X1269643Y-43463595D01*
X1250595Y-43473119D01*
X1450595Y-43596929D02*
X1460119Y-43606452D01*
X1450595Y-43615976D01*
X1441071Y-43606452D01*
X1450595Y-43596929D01*
X1450595Y-43615976D01*
X1526786Y-43415976D02*
X1650595Y-43415976D01*
X1583928Y-43492167D01*
X1612500Y-43492167D01*
X1631548Y-43501690D01*
X1641071Y-43511214D01*
X1650595Y-43530262D01*
X1650595Y-43577881D01*
X1641071Y-43596929D01*
X1631548Y-43606452D01*
X1612500Y-43615976D01*
X1555357Y-43615976D01*
X1536309Y-43606452D01*
X1526786Y-43596929D01*
X1774405Y-43415976D02*
X1793452Y-43415976D01*
X1812500Y-43425500D01*
X1822024Y-43435024D01*
X1831548Y-43454071D01*
X1841071Y-43492167D01*
X1841071Y-43539786D01*
X1831548Y-43577881D01*
X1822024Y-43596929D01*
X1812500Y-43606452D01*
X1793452Y-43615976D01*
X1774405Y-43615976D01*
X1755357Y-43606452D01*
X1745833Y-43596929D01*
X1736309Y-43577881D01*
X1726786Y-43539786D01*
X1726786Y-43492167D01*
X1736309Y-43454071D01*
X1745833Y-43435024D01*
X1755357Y-43425500D01*
X1774405Y-43415976D01*
X1964881Y-43415976D02*
X1983928Y-43415976D01*
X2002976Y-43425500D01*
X2012500Y-43435024D01*
X2022024Y-43454071D01*
X2031548Y-43492167D01*
X2031548Y-43539786D01*
X2022024Y-43577881D01*
X2012500Y-43596929D01*
X2002976Y-43606452D01*
X1983928Y-43615976D01*
X1964881Y-43615976D01*
X1945833Y-43606452D01*
X1936309Y-43596929D01*
X1926786Y-43577881D01*
X1917262Y-43539786D01*
X1917262Y-43492167D01*
X1926786Y-43454071D01*
X1936309Y-43435024D01*
X1945833Y-43425500D01*
X1964881Y-43415976D01*
X2117262Y-43615976D02*
X2117262Y-43482643D01*
X2117262Y-43501690D02*
X2126786Y-43492167D01*
X2145833Y-43482643D01*
X2174405Y-43482643D01*
X2193452Y-43492167D01*
X2202976Y-43511214D01*
X2202976Y-43615976D01*
X2202976Y-43511214D02*
X2212500Y-43492167D01*
X2231548Y-43482643D01*
X2260119Y-43482643D01*
X2279167Y-43492167D01*
X2288690Y-43511214D01*
X2288690Y-43615976D01*
X2383929Y-43615976D02*
X2383929Y-43482643D01*
X2383929Y-43501690D02*
X2393452Y-43492167D01*
X2412500Y-43482643D01*
X2441071Y-43482643D01*
X2460119Y-43492167D01*
X2469643Y-43511214D01*
X2469643Y-43615976D01*
X2469643Y-43511214D02*
X2479167Y-43492167D01*
X2498214Y-43482643D01*
X2526786Y-43482643D01*
X2545833Y-43492167D01*
X2555357Y-43511214D01*
X2555357Y-43615976D01*
X2945833Y-43406452D02*
X2774405Y-43663595D01*
X3202976Y-43415976D02*
X3222024Y-43415976D01*
X3241071Y-43425500D01*
X3250595Y-43435024D01*
X3260119Y-43454071D01*
X3269643Y-43492167D01*
X3269643Y-43539786D01*
X3260119Y-43577881D01*
X3250595Y-43596929D01*
X3241071Y-43606452D01*
X3222024Y-43615976D01*
X3202976Y-43615976D01*
X3183928Y-43606452D01*
X3174405Y-43596929D01*
X3164881Y-43577881D01*
X3155357Y-43539786D01*
X3155357Y-43492167D01*
X3164881Y-43454071D01*
X3174405Y-43435024D01*
X3183928Y-43425500D01*
X3202976Y-43415976D01*
X3355357Y-43596929D02*
X3364881Y-43606452D01*
X3355357Y-43615976D01*
X3345833Y-43606452D01*
X3355357Y-43596929D01*
X3355357Y-43615976D01*
X3488690Y-43415976D02*
X3507738Y-43415976D01*
X3526786Y-43425500D01*
X3536309Y-43435024D01*
X3545833Y-43454071D01*
X3555357Y-43492167D01*
X3555357Y-43539786D01*
X3545833Y-43577881D01*
X3536309Y-43596929D01*
X3526786Y-43606452D01*
X3507738Y-43615976D01*
X3488690Y-43615976D01*
X3469643Y-43606452D01*
X3460119Y-43596929D01*
X3450595Y-43577881D01*
X3441071Y-43539786D01*
X3441071Y-43492167D01*
X3450595Y-43454071D01*
X3460119Y-43435024D01*
X3469643Y-43425500D01*
X3488690Y-43415976D01*
X3736309Y-43415976D02*
X3641071Y-43415976D01*
X3631548Y-43511214D01*
X3641071Y-43501690D01*
X3660119Y-43492167D01*
X3707738Y-43492167D01*
X3726786Y-43501690D01*
X3736309Y-43511214D01*
X3745833Y-43530262D01*
X3745833Y-43577881D01*
X3736309Y-43596929D01*
X3726786Y-43606452D01*
X3707738Y-43615976D01*
X3660119Y-43615976D01*
X3641071Y-43606452D01*
X3631548Y-43596929D01*
X3936309Y-43615976D02*
X3822024Y-43615976D01*
X3879167Y-43615976D02*
X3879167Y-43415976D01*
X3860119Y-43444548D01*
X3841071Y-43463595D01*
X3822024Y-43473119D01*
X4012500Y-43435024D02*
X4022024Y-43425500D01*
X4041071Y-43415976D01*
X4088690Y-43415976D01*
X4107738Y-43425500D01*
X4117262Y-43435024D01*
X4126786Y-43454071D01*
X4126786Y-43473119D01*
X4117262Y-43501690D01*
X4002976Y-43615976D01*
X4126786Y-43615976D01*
X4202976Y-43415976D02*
X4202976Y-43454071D01*
X4279167Y-43415976D02*
X4279167Y-43454071D01*
X4574405Y-43692167D02*
X4564881Y-43682643D01*
X4545833Y-43654071D01*
X4536310Y-43635024D01*
X4526786Y-43606452D01*
X4517262Y-43558833D01*
X4517262Y-43520738D01*
X4526786Y-43473119D01*
X4536310Y-43444548D01*
X4545833Y-43425500D01*
X4564881Y-43396929D01*
X4574405Y-43387405D01*
X4736310Y-43482643D02*
X4736310Y-43615976D01*
X4688690Y-43406452D02*
X4641071Y-43549310D01*
X4764881Y-43549310D01*
X4879167Y-43415976D02*
X4898214Y-43415976D01*
X4917262Y-43425500D01*
X4926786Y-43435024D01*
X4936310Y-43454071D01*
X4945833Y-43492167D01*
X4945833Y-43539786D01*
X4936310Y-43577881D01*
X4926786Y-43596929D01*
X4917262Y-43606452D01*
X4898214Y-43615976D01*
X4879167Y-43615976D01*
X4860119Y-43606452D01*
X4850595Y-43596929D01*
X4841071Y-43577881D01*
X4831548Y-43539786D01*
X4831548Y-43492167D01*
X4841071Y-43454071D01*
X4850595Y-43435024D01*
X4860119Y-43425500D01*
X4879167Y-43415976D01*
X5183929Y-43615976D02*
X5183929Y-43415976D01*
X5269643Y-43615976D02*
X5269643Y-43511214D01*
X5260119Y-43492167D01*
X5241071Y-43482643D01*
X5212500Y-43482643D01*
X5193452Y-43492167D01*
X5183929Y-43501690D01*
X5393452Y-43615976D02*
X5374405Y-43606452D01*
X5364881Y-43596929D01*
X5355357Y-43577881D01*
X5355357Y-43520738D01*
X5364881Y-43501690D01*
X5374405Y-43492167D01*
X5393452Y-43482643D01*
X5422024Y-43482643D01*
X5441071Y-43492167D01*
X5450595Y-43501690D01*
X5460119Y-43520738D01*
X5460119Y-43577881D01*
X5450595Y-43596929D01*
X5441071Y-43606452D01*
X5422024Y-43615976D01*
X5393452Y-43615976D01*
X5574405Y-43615976D02*
X5555357Y-43606452D01*
X5545833Y-43587405D01*
X5545833Y-43415976D01*
X5726786Y-43606452D02*
X5707738Y-43615976D01*
X5669643Y-43615976D01*
X5650595Y-43606452D01*
X5641071Y-43587405D01*
X5641071Y-43511214D01*
X5650595Y-43492167D01*
X5669643Y-43482643D01*
X5707738Y-43482643D01*
X5726786Y-43492167D01*
X5736309Y-43511214D01*
X5736309Y-43530262D01*
X5641071Y-43549310D01*
X5812500Y-43606452D02*
X5831548Y-43615976D01*
X5869643Y-43615976D01*
X5888690Y-43606452D01*
X5898214Y-43587405D01*
X5898214Y-43577881D01*
X5888690Y-43558833D01*
X5869643Y-43549310D01*
X5841071Y-43549310D01*
X5822024Y-43539786D01*
X5812500Y-43520738D01*
X5812500Y-43511214D01*
X5822024Y-43492167D01*
X5841071Y-43482643D01*
X5869643Y-43482643D01*
X5888690Y-43492167D01*
X5964881Y-43692167D02*
X5974405Y-43682643D01*
X5993452Y-43654071D01*
X6002976Y-43635024D01*
X6012500Y-43606452D01*
X6022024Y-43558833D01*
X6022024Y-43520738D01*
X6012500Y-43473119D01*
X6002976Y-43444548D01*
X5993452Y-43425500D01*
X5974405Y-43396929D01*
X5964881Y-43387405D01*
X902500Y-43889500D02*
X1002500Y-43789500D01*
X902500Y-43689500D01*
X802500Y-43789500D01*
X902500Y-43889500D01*
X1250595Y-43699024D02*
X1260119Y-43689500D01*
X1279167Y-43679976D01*
X1326786Y-43679976D01*
X1345833Y-43689500D01*
X1355357Y-43699024D01*
X1364881Y-43718071D01*
X1364881Y-43737119D01*
X1355357Y-43765690D01*
X1241071Y-43879976D01*
X1364881Y-43879976D01*
X1450595Y-43860929D02*
X1460119Y-43870452D01*
X1450595Y-43879976D01*
X1441071Y-43870452D01*
X1450595Y-43860929D01*
X1450595Y-43879976D01*
X1583928Y-43679976D02*
X1602976Y-43679976D01*
X1622024Y-43689500D01*
X1631548Y-43699024D01*
X1641071Y-43718071D01*
X1650595Y-43756167D01*
X1650595Y-43803786D01*
X1641071Y-43841881D01*
X1631548Y-43860929D01*
X1622024Y-43870452D01*
X1602976Y-43879976D01*
X1583928Y-43879976D01*
X1564881Y-43870452D01*
X1555357Y-43860929D01*
X1545833Y-43841881D01*
X1536309Y-43803786D01*
X1536309Y-43756167D01*
X1545833Y-43718071D01*
X1555357Y-43699024D01*
X1564881Y-43689500D01*
X1583928Y-43679976D01*
X1774405Y-43679976D02*
X1793452Y-43679976D01*
X1812500Y-43689500D01*
X1822024Y-43699024D01*
X1831548Y-43718071D01*
X1841071Y-43756167D01*
X1841071Y-43803786D01*
X1831548Y-43841881D01*
X1822024Y-43860929D01*
X1812500Y-43870452D01*
X1793452Y-43879976D01*
X1774405Y-43879976D01*
X1755357Y-43870452D01*
X1745833Y-43860929D01*
X1736309Y-43841881D01*
X1726786Y-43803786D01*
X1726786Y-43756167D01*
X1736309Y-43718071D01*
X1745833Y-43699024D01*
X1755357Y-43689500D01*
X1774405Y-43679976D01*
X1964881Y-43679976D02*
X1983928Y-43679976D01*
X2002976Y-43689500D01*
X2012500Y-43699024D01*
X2022024Y-43718071D01*
X2031548Y-43756167D01*
X2031548Y-43803786D01*
X2022024Y-43841881D01*
X2012500Y-43860929D01*
X2002976Y-43870452D01*
X1983928Y-43879976D01*
X1964881Y-43879976D01*
X1945833Y-43870452D01*
X1936309Y-43860929D01*
X1926786Y-43841881D01*
X1917262Y-43803786D01*
X1917262Y-43756167D01*
X1926786Y-43718071D01*
X1936309Y-43699024D01*
X1945833Y-43689500D01*
X1964881Y-43679976D01*
X2117262Y-43879976D02*
X2117262Y-43746643D01*
X2117262Y-43765690D02*
X2126786Y-43756167D01*
X2145833Y-43746643D01*
X2174405Y-43746643D01*
X2193452Y-43756167D01*
X2202976Y-43775214D01*
X2202976Y-43879976D01*
X2202976Y-43775214D02*
X2212500Y-43756167D01*
X2231548Y-43746643D01*
X2260119Y-43746643D01*
X2279167Y-43756167D01*
X2288690Y-43775214D01*
X2288690Y-43879976D01*
X2383929Y-43879976D02*
X2383929Y-43746643D01*
X2383929Y-43765690D02*
X2393452Y-43756167D01*
X2412500Y-43746643D01*
X2441071Y-43746643D01*
X2460119Y-43756167D01*
X2469643Y-43775214D01*
X2469643Y-43879976D01*
X2469643Y-43775214D02*
X2479167Y-43756167D01*
X2498214Y-43746643D01*
X2526786Y-43746643D01*
X2545833Y-43756167D01*
X2555357Y-43775214D01*
X2555357Y-43879976D01*
X2945833Y-43670452D02*
X2774405Y-43927595D01*
X3202976Y-43679976D02*
X3222024Y-43679976D01*
X3241071Y-43689500D01*
X3250595Y-43699024D01*
X3260119Y-43718071D01*
X3269643Y-43756167D01*
X3269643Y-43803786D01*
X3260119Y-43841881D01*
X3250595Y-43860929D01*
X3241071Y-43870452D01*
X3222024Y-43879976D01*
X3202976Y-43879976D01*
X3183928Y-43870452D01*
X3174405Y-43860929D01*
X3164881Y-43841881D01*
X3155357Y-43803786D01*
X3155357Y-43756167D01*
X3164881Y-43718071D01*
X3174405Y-43699024D01*
X3183928Y-43689500D01*
X3202976Y-43679976D01*
X3355357Y-43860929D02*
X3364881Y-43870452D01*
X3355357Y-43879976D01*
X3345833Y-43870452D01*
X3355357Y-43860929D01*
X3355357Y-43879976D01*
X3488690Y-43679976D02*
X3507738Y-43679976D01*
X3526786Y-43689500D01*
X3536309Y-43699024D01*
X3545833Y-43718071D01*
X3555357Y-43756167D01*
X3555357Y-43803786D01*
X3545833Y-43841881D01*
X3536309Y-43860929D01*
X3526786Y-43870452D01*
X3507738Y-43879976D01*
X3488690Y-43879976D01*
X3469643Y-43870452D01*
X3460119Y-43860929D01*
X3450595Y-43841881D01*
X3441071Y-43803786D01*
X3441071Y-43756167D01*
X3450595Y-43718071D01*
X3460119Y-43699024D01*
X3469643Y-43689500D01*
X3488690Y-43679976D01*
X3622024Y-43679976D02*
X3755357Y-43679976D01*
X3669643Y-43879976D01*
X3860119Y-43765690D02*
X3841071Y-43756167D01*
X3831548Y-43746643D01*
X3822024Y-43727595D01*
X3822024Y-43718071D01*
X3831548Y-43699024D01*
X3841071Y-43689500D01*
X3860119Y-43679976D01*
X3898214Y-43679976D01*
X3917262Y-43689500D01*
X3926786Y-43699024D01*
X3936309Y-43718071D01*
X3936309Y-43727595D01*
X3926786Y-43746643D01*
X3917262Y-43756167D01*
X3898214Y-43765690D01*
X3860119Y-43765690D01*
X3841071Y-43775214D01*
X3831548Y-43784738D01*
X3822024Y-43803786D01*
X3822024Y-43841881D01*
X3831548Y-43860929D01*
X3841071Y-43870452D01*
X3860119Y-43879976D01*
X3898214Y-43879976D01*
X3917262Y-43870452D01*
X3926786Y-43860929D01*
X3936309Y-43841881D01*
X3936309Y-43803786D01*
X3926786Y-43784738D01*
X3917262Y-43775214D01*
X3898214Y-43765690D01*
X4002976Y-43679976D02*
X4136309Y-43679976D01*
X4050595Y-43879976D01*
X4202976Y-43679976D02*
X4202976Y-43718071D01*
X4279167Y-43679976D02*
X4279167Y-43718071D01*
X4574405Y-43956167D02*
X4564881Y-43946643D01*
X4545833Y-43918071D01*
X4536310Y-43899024D01*
X4526786Y-43870452D01*
X4517262Y-43822833D01*
X4517262Y-43784738D01*
X4526786Y-43737119D01*
X4536310Y-43708548D01*
X4545833Y-43689500D01*
X4564881Y-43660929D01*
X4574405Y-43651405D01*
X4736310Y-43746643D02*
X4736310Y-43879976D01*
X4688690Y-43670452D02*
X4641071Y-43813310D01*
X4764881Y-43813310D01*
X4869643Y-43765690D02*
X4850595Y-43756167D01*
X4841071Y-43746643D01*
X4831548Y-43727595D01*
X4831548Y-43718071D01*
X4841071Y-43699024D01*
X4850595Y-43689500D01*
X4869643Y-43679976D01*
X4907738Y-43679976D01*
X4926786Y-43689500D01*
X4936310Y-43699024D01*
X4945833Y-43718071D01*
X4945833Y-43727595D01*
X4936310Y-43746643D01*
X4926786Y-43756167D01*
X4907738Y-43765690D01*
X4869643Y-43765690D01*
X4850595Y-43775214D01*
X4841071Y-43784738D01*
X4831548Y-43803786D01*
X4831548Y-43841881D01*
X4841071Y-43860929D01*
X4850595Y-43870452D01*
X4869643Y-43879976D01*
X4907738Y-43879976D01*
X4926786Y-43870452D01*
X4936310Y-43860929D01*
X4945833Y-43841881D01*
X4945833Y-43803786D01*
X4936310Y-43784738D01*
X4926786Y-43775214D01*
X4907738Y-43765690D01*
X5183929Y-43879976D02*
X5183929Y-43679976D01*
X5269643Y-43879976D02*
X5269643Y-43775214D01*
X5260119Y-43756167D01*
X5241071Y-43746643D01*
X5212500Y-43746643D01*
X5193452Y-43756167D01*
X5183929Y-43765690D01*
X5393452Y-43879976D02*
X5374405Y-43870452D01*
X5364881Y-43860929D01*
X5355357Y-43841881D01*
X5355357Y-43784738D01*
X5364881Y-43765690D01*
X5374405Y-43756167D01*
X5393452Y-43746643D01*
X5422024Y-43746643D01*
X5441071Y-43756167D01*
X5450595Y-43765690D01*
X5460119Y-43784738D01*
X5460119Y-43841881D01*
X5450595Y-43860929D01*
X5441071Y-43870452D01*
X5422024Y-43879976D01*
X5393452Y-43879976D01*
X5574405Y-43879976D02*
X5555357Y-43870452D01*
X5545833Y-43851405D01*
X5545833Y-43679976D01*
X5726786Y-43870452D02*
X5707738Y-43879976D01*
X5669643Y-43879976D01*
X5650595Y-43870452D01*
X5641071Y-43851405D01*
X5641071Y-43775214D01*
X5650595Y-43756167D01*
X5669643Y-43746643D01*
X5707738Y-43746643D01*
X5726786Y-43756167D01*
X5736309Y-43775214D01*
X5736309Y-43794262D01*
X5641071Y-43813310D01*
X5812500Y-43870452D02*
X5831548Y-43879976D01*
X5869643Y-43879976D01*
X5888690Y-43870452D01*
X5898214Y-43851405D01*
X5898214Y-43841881D01*
X5888690Y-43822833D01*
X5869643Y-43813310D01*
X5841071Y-43813310D01*
X5822024Y-43803786D01*
X5812500Y-43784738D01*
X5812500Y-43775214D01*
X5822024Y-43756167D01*
X5841071Y-43746643D01*
X5869643Y-43746643D01*
X5888690Y-43756167D01*
X5964881Y-43956167D02*
X5974405Y-43946643D01*
X5993452Y-43918071D01*
X6002976Y-43899024D01*
X6012500Y-43870452D01*
X6022024Y-43822833D01*
X6022024Y-43784738D01*
X6012500Y-43737119D01*
X6002976Y-43708548D01*
X5993452Y-43689500D01*
X5974405Y-43660929D01*
X5964881Y-43651405D01*
X802500Y-44009500D02*
X1002500Y-44209500D01*
X1002500Y-44009500D02*
X802500Y-44209500D01*
X1002500Y-44109500D02*
G75*
G03*
X1002500Y-44109500I-100000J0D01*
G01*
X1250595Y-44019024D02*
X1260119Y-44009500D01*
X1279167Y-43999976D01*
X1326786Y-43999976D01*
X1345833Y-44009500D01*
X1355357Y-44019024D01*
X1364881Y-44038071D01*
X1364881Y-44057119D01*
X1355357Y-44085690D01*
X1241071Y-44199976D01*
X1364881Y-44199976D01*
X1450595Y-44180929D02*
X1460119Y-44190452D01*
X1450595Y-44199976D01*
X1441071Y-44190452D01*
X1450595Y-44180929D01*
X1450595Y-44199976D01*
X1536309Y-44019024D02*
X1545833Y-44009500D01*
X1564881Y-43999976D01*
X1612500Y-43999976D01*
X1631548Y-44009500D01*
X1641071Y-44019024D01*
X1650595Y-44038071D01*
X1650595Y-44057119D01*
X1641071Y-44085690D01*
X1526786Y-44199976D01*
X1650595Y-44199976D01*
X1774405Y-43999976D02*
X1793452Y-43999976D01*
X1812500Y-44009500D01*
X1822024Y-44019024D01*
X1831548Y-44038071D01*
X1841071Y-44076167D01*
X1841071Y-44123786D01*
X1831548Y-44161881D01*
X1822024Y-44180929D01*
X1812500Y-44190452D01*
X1793452Y-44199976D01*
X1774405Y-44199976D01*
X1755357Y-44190452D01*
X1745833Y-44180929D01*
X1736309Y-44161881D01*
X1726786Y-44123786D01*
X1726786Y-44076167D01*
X1736309Y-44038071D01*
X1745833Y-44019024D01*
X1755357Y-44009500D01*
X1774405Y-43999976D01*
X1964881Y-43999976D02*
X1983928Y-43999976D01*
X2002976Y-44009500D01*
X2012500Y-44019024D01*
X2022024Y-44038071D01*
X2031548Y-44076167D01*
X2031548Y-44123786D01*
X2022024Y-44161881D01*
X2012500Y-44180929D01*
X2002976Y-44190452D01*
X1983928Y-44199976D01*
X1964881Y-44199976D01*
X1945833Y-44190452D01*
X1936309Y-44180929D01*
X1926786Y-44161881D01*
X1917262Y-44123786D01*
X1917262Y-44076167D01*
X1926786Y-44038071D01*
X1936309Y-44019024D01*
X1945833Y-44009500D01*
X1964881Y-43999976D01*
X2117262Y-44199976D02*
X2117262Y-44066643D01*
X2117262Y-44085690D02*
X2126786Y-44076167D01*
X2145833Y-44066643D01*
X2174405Y-44066643D01*
X2193452Y-44076167D01*
X2202976Y-44095214D01*
X2202976Y-44199976D01*
X2202976Y-44095214D02*
X2212500Y-44076167D01*
X2231548Y-44066643D01*
X2260119Y-44066643D01*
X2279167Y-44076167D01*
X2288690Y-44095214D01*
X2288690Y-44199976D01*
X2383929Y-44199976D02*
X2383929Y-44066643D01*
X2383929Y-44085690D02*
X2393452Y-44076167D01*
X2412500Y-44066643D01*
X2441071Y-44066643D01*
X2460119Y-44076167D01*
X2469643Y-44095214D01*
X2469643Y-44199976D01*
X2469643Y-44095214D02*
X2479167Y-44076167D01*
X2498214Y-44066643D01*
X2526786Y-44066643D01*
X2545833Y-44076167D01*
X2555357Y-44095214D01*
X2555357Y-44199976D01*
X2945833Y-43990452D02*
X2774405Y-44247595D01*
X3202976Y-43999976D02*
X3222024Y-43999976D01*
X3241071Y-44009500D01*
X3250595Y-44019024D01*
X3260119Y-44038071D01*
X3269643Y-44076167D01*
X3269643Y-44123786D01*
X3260119Y-44161881D01*
X3250595Y-44180929D01*
X3241071Y-44190452D01*
X3222024Y-44199976D01*
X3202976Y-44199976D01*
X3183928Y-44190452D01*
X3174405Y-44180929D01*
X3164881Y-44161881D01*
X3155357Y-44123786D01*
X3155357Y-44076167D01*
X3164881Y-44038071D01*
X3174405Y-44019024D01*
X3183928Y-44009500D01*
X3202976Y-43999976D01*
X3355357Y-44180929D02*
X3364881Y-44190452D01*
X3355357Y-44199976D01*
X3345833Y-44190452D01*
X3355357Y-44180929D01*
X3355357Y-44199976D01*
X3488690Y-43999976D02*
X3507738Y-43999976D01*
X3526786Y-44009500D01*
X3536309Y-44019024D01*
X3545833Y-44038071D01*
X3555357Y-44076167D01*
X3555357Y-44123786D01*
X3545833Y-44161881D01*
X3536309Y-44180929D01*
X3526786Y-44190452D01*
X3507738Y-44199976D01*
X3488690Y-44199976D01*
X3469643Y-44190452D01*
X3460119Y-44180929D01*
X3450595Y-44161881D01*
X3441071Y-44123786D01*
X3441071Y-44076167D01*
X3450595Y-44038071D01*
X3460119Y-44019024D01*
X3469643Y-44009500D01*
X3488690Y-43999976D01*
X3669643Y-44085690D02*
X3650595Y-44076167D01*
X3641071Y-44066643D01*
X3631548Y-44047595D01*
X3631548Y-44038071D01*
X3641071Y-44019024D01*
X3650595Y-44009500D01*
X3669643Y-43999976D01*
X3707738Y-43999976D01*
X3726786Y-44009500D01*
X3736309Y-44019024D01*
X3745833Y-44038071D01*
X3745833Y-44047595D01*
X3736309Y-44066643D01*
X3726786Y-44076167D01*
X3707738Y-44085690D01*
X3669643Y-44085690D01*
X3650595Y-44095214D01*
X3641071Y-44104738D01*
X3631548Y-44123786D01*
X3631548Y-44161881D01*
X3641071Y-44180929D01*
X3650595Y-44190452D01*
X3669643Y-44199976D01*
X3707738Y-44199976D01*
X3726786Y-44190452D01*
X3736309Y-44180929D01*
X3745833Y-44161881D01*
X3745833Y-44123786D01*
X3736309Y-44104738D01*
X3726786Y-44095214D01*
X3707738Y-44085690D01*
X3917262Y-43999976D02*
X3879167Y-43999976D01*
X3860119Y-44009500D01*
X3850595Y-44019024D01*
X3831548Y-44047595D01*
X3822024Y-44085690D01*
X3822024Y-44161881D01*
X3831548Y-44180929D01*
X3841071Y-44190452D01*
X3860119Y-44199976D01*
X3898214Y-44199976D01*
X3917262Y-44190452D01*
X3926786Y-44180929D01*
X3936309Y-44161881D01*
X3936309Y-44114262D01*
X3926786Y-44095214D01*
X3917262Y-44085690D01*
X3898214Y-44076167D01*
X3860119Y-44076167D01*
X3841071Y-44085690D01*
X3831548Y-44095214D01*
X3822024Y-44114262D01*
X4107738Y-43999976D02*
X4069643Y-43999976D01*
X4050595Y-44009500D01*
X4041071Y-44019024D01*
X4022024Y-44047595D01*
X4012500Y-44085690D01*
X4012500Y-44161881D01*
X4022024Y-44180929D01*
X4031548Y-44190452D01*
X4050595Y-44199976D01*
X4088690Y-44199976D01*
X4107738Y-44190452D01*
X4117262Y-44180929D01*
X4126786Y-44161881D01*
X4126786Y-44114262D01*
X4117262Y-44095214D01*
X4107738Y-44085690D01*
X4088690Y-44076167D01*
X4050595Y-44076167D01*
X4031548Y-44085690D01*
X4022024Y-44095214D01*
X4012500Y-44114262D01*
X4202976Y-43999976D02*
X4202976Y-44038071D01*
X4279167Y-43999976D02*
X4279167Y-44038071D01*
X4574405Y-44276167D02*
X4564881Y-44266643D01*
X4545833Y-44238071D01*
X4536310Y-44219024D01*
X4526786Y-44190452D01*
X4517262Y-44142833D01*
X4517262Y-44104738D01*
X4526786Y-44057119D01*
X4536310Y-44028548D01*
X4545833Y-44009500D01*
X4564881Y-43980929D01*
X4574405Y-43971405D01*
X4755357Y-44199976D02*
X4641071Y-44199976D01*
X4698214Y-44199976D02*
X4698214Y-43999976D01*
X4679167Y-44028548D01*
X4660119Y-44047595D01*
X4641071Y-44057119D01*
X4831548Y-44019024D02*
X4841071Y-44009500D01*
X4860119Y-43999976D01*
X4907738Y-43999976D01*
X4926786Y-44009500D01*
X4936310Y-44019024D01*
X4945833Y-44038071D01*
X4945833Y-44057119D01*
X4936310Y-44085690D01*
X4822024Y-44199976D01*
X4945833Y-44199976D01*
X5069643Y-43999976D02*
X5088690Y-43999976D01*
X5107738Y-44009500D01*
X5117262Y-44019024D01*
X5126786Y-44038071D01*
X5136310Y-44076167D01*
X5136310Y-44123786D01*
X5126786Y-44161881D01*
X5117262Y-44180929D01*
X5107738Y-44190452D01*
X5088690Y-44199976D01*
X5069643Y-44199976D01*
X5050595Y-44190452D01*
X5041071Y-44180929D01*
X5031548Y-44161881D01*
X5022024Y-44123786D01*
X5022024Y-44076167D01*
X5031548Y-44038071D01*
X5041071Y-44019024D01*
X5050595Y-44009500D01*
X5069643Y-43999976D01*
X5374405Y-44199976D02*
X5374405Y-43999976D01*
X5460119Y-44199976D02*
X5460119Y-44095214D01*
X5450595Y-44076167D01*
X5431548Y-44066643D01*
X5402976Y-44066643D01*
X5383929Y-44076167D01*
X5374405Y-44085690D01*
X5583929Y-44199976D02*
X5564881Y-44190452D01*
X5555357Y-44180929D01*
X5545833Y-44161881D01*
X5545833Y-44104738D01*
X5555357Y-44085690D01*
X5564881Y-44076167D01*
X5583929Y-44066643D01*
X5612500Y-44066643D01*
X5631548Y-44076167D01*
X5641071Y-44085690D01*
X5650595Y-44104738D01*
X5650595Y-44161881D01*
X5641071Y-44180929D01*
X5631548Y-44190452D01*
X5612500Y-44199976D01*
X5583929Y-44199976D01*
X5764881Y-44199976D02*
X5745833Y-44190452D01*
X5736309Y-44171405D01*
X5736309Y-43999976D01*
X5917262Y-44190452D02*
X5898214Y-44199976D01*
X5860119Y-44199976D01*
X5841071Y-44190452D01*
X5831548Y-44171405D01*
X5831548Y-44095214D01*
X5841071Y-44076167D01*
X5860119Y-44066643D01*
X5898214Y-44066643D01*
X5917262Y-44076167D01*
X5926786Y-44095214D01*
X5926786Y-44114262D01*
X5831548Y-44133310D01*
X6002976Y-44190452D02*
X6022024Y-44199976D01*
X6060119Y-44199976D01*
X6079167Y-44190452D01*
X6088690Y-44171405D01*
X6088690Y-44161881D01*
X6079167Y-44142833D01*
X6060119Y-44133310D01*
X6031548Y-44133310D01*
X6012500Y-44123786D01*
X6002976Y-44104738D01*
X6002976Y-44095214D01*
X6012500Y-44076167D01*
X6031548Y-44066643D01*
X6060119Y-44066643D01*
X6079167Y-44076167D01*
X6155357Y-44276167D02*
X6164881Y-44266643D01*
X6183928Y-44238071D01*
X6193452Y-44219024D01*
X6202976Y-44190452D01*
X6212500Y-44142833D01*
X6212500Y-44104738D01*
X6202976Y-44057119D01*
X6193452Y-44028548D01*
X6183928Y-44009500D01*
X6164881Y-43980929D01*
X6155357Y-43971405D01*
M02*
