M48
; DRILL file {KiCad (6.0.5)} date Wed Aug 17 15:04:20 2022
; FORMAT={-:-/ absolute / metric / decimal}
; #@! TF.CreationDate,2022-08-17T15:04:20-07:00
; #@! TF.GenerationSoftware,Kicad,Pcbnew,(6.0.5)
; #@! TF.FileFunction,NonPlated,1,6,NPTH
FMAT,2
METRIC
; #@! TA.AperFunction,NonPlated,NPTH,ComponentDrill
T1C0.500
%
G90
G05
T1
X28.74Y-108.91
X28.74Y-113.91
X28.74Y-212.91
X28.74Y-217.91
X28.74Y-316.91
X28.74Y-321.91
X29.49Y-108.91
X29.49Y-113.91
X29.49Y-212.91
X29.49Y-217.91
X29.49Y-316.91
X29.49Y-321.91
X30.24Y-108.91
X30.24Y-113.91
X30.24Y-212.91
X30.24Y-217.91
X30.24Y-316.91
X30.24Y-321.91
X30.99Y-108.91
X30.99Y-113.91
X30.99Y-212.91
X30.99Y-217.91
X30.99Y-316.91
X30.99Y-321.91
X31.74Y-108.91
X31.74Y-113.91
X31.74Y-212.91
X31.74Y-217.91
X31.74Y-316.91
X31.74Y-321.91
X32.49Y-108.91
X32.49Y-113.91
X32.49Y-212.91
X32.49Y-217.91
X32.49Y-316.91
X32.49Y-321.91
X33.24Y-108.91
X33.24Y-113.91
X33.24Y-212.91
X33.24Y-217.91
X33.24Y-316.91
X33.24Y-321.91
X33.99Y-108.91
X33.99Y-113.91
X33.99Y-212.91
X33.99Y-217.91
X33.99Y-316.91
X33.99Y-321.91
X34.74Y-108.91
X34.74Y-113.91
X34.74Y-212.91
X34.74Y-217.91
X34.74Y-316.91
X34.74Y-321.91
X35.49Y-108.91
X35.49Y-108.91
X35.49Y-113.91
X35.49Y-113.91
X35.49Y-212.91
X35.49Y-212.91
X35.49Y-217.91
X35.49Y-217.91
X35.49Y-316.91
X35.49Y-316.91
X35.49Y-321.91
X35.49Y-321.91
X36.24Y-108.91
X36.24Y-113.91
X36.24Y-212.91
X36.24Y-217.91
X36.24Y-316.91
X36.24Y-321.91
X65.9Y-108.91
X65.9Y-113.91
X65.9Y-212.91
X65.9Y-217.91
X65.9Y-316.91
X65.9Y-321.91
X66.65Y-108.91
X66.65Y-113.91
X66.65Y-212.91
X66.65Y-217.91
X66.65Y-316.91
X66.65Y-321.91
X67.4Y-108.91
X67.4Y-113.91
X67.4Y-212.91
X67.4Y-217.91
X67.4Y-316.91
X67.4Y-321.91
X68.15Y-108.91
X68.15Y-113.91
X68.15Y-212.91
X68.15Y-217.91
X68.15Y-316.91
X68.15Y-321.91
X68.9Y-108.91
X68.9Y-113.91
X68.9Y-212.91
X68.9Y-217.91
X68.9Y-316.91
X68.9Y-321.91
X69.65Y-108.91
X69.65Y-113.91
X69.65Y-212.91
X69.65Y-217.91
X69.65Y-316.91
X69.65Y-321.91
X70.4Y-108.91
X70.4Y-113.91
X70.4Y-212.91
X70.4Y-217.91
X70.4Y-316.91
X70.4Y-321.91
X71.15Y-108.91
X71.15Y-113.91
X71.15Y-212.91
X71.15Y-217.91
X71.15Y-316.91
X71.15Y-321.91
X71.9Y-108.91
X71.9Y-113.91
X71.9Y-212.91
X71.9Y-217.91
X71.9Y-316.91
X71.9Y-321.91
X72.65Y-108.91
X72.65Y-108.91
X72.65Y-113.91
X72.65Y-113.91
X72.65Y-212.91
X72.65Y-212.91
X72.65Y-217.91
X72.65Y-217.91
X72.65Y-316.91
X72.65Y-316.91
X72.65Y-321.91
X72.65Y-321.91
X73.4Y-108.91
X73.4Y-113.91
X73.4Y-212.91
X73.4Y-217.91
X73.4Y-316.91
X73.4Y-321.91
X92.05Y-19.32
X92.05Y-20.07
X92.05Y-20.82
X92.05Y-21.57
X92.05Y-22.32
X92.05Y-23.07
X92.05Y-23.82
X92.05Y-24.57
X92.05Y-25.32
X92.05Y-26.07
X92.05Y-26.07
X92.05Y-26.82
X92.05Y-89.69
X92.05Y-90.44
X92.05Y-91.19
X92.05Y-91.94
X92.05Y-92.69
X92.05Y-93.44
X92.05Y-94.19
X92.05Y-94.94
X92.05Y-95.69
X92.05Y-96.44
X92.05Y-96.44
X92.05Y-97.19
X92.05Y-123.32
X92.05Y-124.07
X92.05Y-124.82
X92.05Y-125.57
X92.05Y-126.32
X92.05Y-127.07
X92.05Y-127.82
X92.05Y-128.57
X92.05Y-129.32
X92.05Y-130.07
X92.05Y-130.07
X92.05Y-130.82
X92.05Y-193.69
X92.05Y-194.44
X92.05Y-195.19
X92.05Y-195.94
X92.05Y-196.69
X92.05Y-197.44
X92.05Y-198.19
X92.05Y-198.94
X92.05Y-199.69
X92.05Y-200.44
X92.05Y-200.44
X92.05Y-201.19
X92.05Y-227.32
X92.05Y-228.07
X92.05Y-228.82
X92.05Y-229.57
X92.05Y-230.32
X92.05Y-231.07
X92.05Y-231.82
X92.05Y-232.57
X92.05Y-233.32
X92.05Y-234.07
X92.05Y-234.07
X92.05Y-234.82
X92.05Y-297.69
X92.05Y-298.44
X92.05Y-299.19
X92.05Y-299.94
X92.05Y-300.69
X92.05Y-301.44
X92.05Y-302.19
X92.05Y-302.94
X92.05Y-303.69
X92.05Y-304.44
X92.05Y-304.44
X92.05Y-305.19
X92.05Y-331.32
X92.05Y-332.07
X92.05Y-332.82
X92.05Y-333.57
X92.05Y-334.32
X92.05Y-335.07
X92.05Y-335.82
X92.05Y-336.57
X92.05Y-337.32
X92.05Y-338.07
X92.05Y-338.07
X92.05Y-338.82
X92.05Y-401.69
X92.05Y-402.44
X92.05Y-403.19
X92.05Y-403.94
X92.05Y-404.69
X92.05Y-405.44
X92.05Y-406.19
X92.05Y-406.94
X92.05Y-407.69
X92.05Y-408.44
X92.05Y-408.44
X92.05Y-409.19
X97.05Y-19.32
X97.05Y-20.07
X97.05Y-20.82
X97.05Y-21.57
X97.05Y-22.32
X97.05Y-23.07
X97.05Y-23.82
X97.05Y-24.57
X97.05Y-25.32
X97.05Y-26.07
X97.05Y-26.07
X97.05Y-26.82
X97.05Y-89.69
X97.05Y-90.44
X97.05Y-91.19
X97.05Y-91.94
X97.05Y-92.69
X97.05Y-93.44
X97.05Y-94.19
X97.05Y-94.94
X97.05Y-95.69
X97.05Y-96.44
X97.05Y-96.44
X97.05Y-97.19
X97.05Y-123.32
X97.05Y-124.07
X97.05Y-124.82
X97.05Y-125.57
X97.05Y-126.32
X97.05Y-127.07
X97.05Y-127.82
X97.05Y-128.57
X97.05Y-129.32
X97.05Y-130.07
X97.05Y-130.07
X97.05Y-130.82
X97.05Y-193.69
X97.05Y-194.44
X97.05Y-195.19
X97.05Y-195.94
X97.05Y-196.69
X97.05Y-197.44
X97.05Y-198.19
X97.05Y-198.94
X97.05Y-199.69
X97.05Y-200.44
X97.05Y-200.44
X97.05Y-201.19
X97.05Y-227.32
X97.05Y-228.07
X97.05Y-228.82
X97.05Y-229.57
X97.05Y-230.32
X97.05Y-231.07
X97.05Y-231.82
X97.05Y-232.57
X97.05Y-233.32
X97.05Y-234.07
X97.05Y-234.07
X97.05Y-234.82
X97.05Y-297.69
X97.05Y-298.44
X97.05Y-299.19
X97.05Y-299.94
X97.05Y-300.69
X97.05Y-301.44
X97.05Y-302.19
X97.05Y-302.94
X97.05Y-303.69
X97.05Y-304.44
X97.05Y-304.44
X97.05Y-305.19
X97.05Y-331.32
X97.05Y-332.07
X97.05Y-332.82
X97.05Y-333.57
X97.05Y-334.32
X97.05Y-335.07
X97.05Y-335.82
X97.05Y-336.57
X97.05Y-337.32
X97.05Y-338.07
X97.05Y-338.07
X97.05Y-338.82
X97.05Y-401.69
X97.05Y-402.44
X97.05Y-403.19
X97.05Y-403.94
X97.05Y-404.69
X97.05Y-405.44
X97.05Y-406.19
X97.05Y-406.94
X97.05Y-407.69
X97.05Y-408.44
X97.05Y-408.44
X97.05Y-409.19
X115.736Y-108.86
X115.736Y-113.86
X115.736Y-212.86
X115.736Y-217.86
X115.736Y-316.86
X115.736Y-321.86
X116.486Y-108.86
X116.486Y-113.86
X116.486Y-212.86
X116.486Y-217.86
X116.486Y-316.86
X116.486Y-321.86
X117.236Y-108.86
X117.236Y-113.86
X117.236Y-212.86
X117.236Y-217.86
X117.236Y-316.86
X117.236Y-321.86
X117.986Y-108.86
X117.986Y-113.86
X117.986Y-212.86
X117.986Y-217.86
X117.986Y-316.86
X117.986Y-321.86
X118.736Y-108.86
X118.736Y-113.86
X118.736Y-212.86
X118.736Y-217.86
X118.736Y-316.86
X118.736Y-321.86
X119.486Y-108.86
X119.486Y-113.86
X119.486Y-212.86
X119.486Y-217.86
X119.486Y-316.86
X119.486Y-321.86
X120.236Y-108.86
X120.236Y-113.86
X120.236Y-212.86
X120.236Y-217.86
X120.236Y-316.86
X120.236Y-321.86
X120.986Y-108.86
X120.986Y-113.86
X120.986Y-212.86
X120.986Y-217.86
X120.986Y-316.86
X120.986Y-321.86
X121.736Y-108.86
X121.736Y-113.86
X121.736Y-212.86
X121.736Y-217.86
X121.736Y-316.86
X121.736Y-321.86
X122.486Y-108.86
X122.486Y-108.86
X122.486Y-113.86
X122.486Y-113.86
X122.486Y-212.86
X122.486Y-212.86
X122.486Y-217.86
X122.486Y-217.86
X122.486Y-316.86
X122.486Y-316.86
X122.486Y-321.86
X122.486Y-321.86
X123.236Y-108.86
X123.236Y-113.86
X123.236Y-212.86
X123.236Y-217.86
X123.236Y-316.86
X123.236Y-321.86
X152.896Y-108.86
X152.896Y-113.86
X152.896Y-212.86
X152.896Y-217.86
X152.896Y-316.86
X152.896Y-321.86
X153.646Y-108.86
X153.646Y-113.86
X153.646Y-212.86
X153.646Y-217.86
X153.646Y-316.86
X153.646Y-321.86
X154.396Y-108.86
X154.396Y-113.86
X154.396Y-212.86
X154.396Y-217.86
X154.396Y-316.86
X154.396Y-321.86
X155.146Y-108.86
X155.146Y-113.86
X155.146Y-212.86
X155.146Y-217.86
X155.146Y-316.86
X155.146Y-321.86
X155.896Y-108.86
X155.896Y-113.86
X155.896Y-212.86
X155.896Y-217.86
X155.896Y-316.86
X155.896Y-321.86
X156.646Y-108.86
X156.646Y-113.86
X156.646Y-212.86
X156.646Y-217.86
X156.646Y-316.86
X156.646Y-321.86
X157.396Y-108.86
X157.396Y-113.86
X157.396Y-212.86
X157.396Y-217.86
X157.396Y-316.86
X157.396Y-321.86
X158.146Y-108.86
X158.146Y-113.86
X158.146Y-212.86
X158.146Y-217.86
X158.146Y-316.86
X158.146Y-321.86
X158.896Y-108.86
X158.896Y-113.86
X158.896Y-212.86
X158.896Y-217.86
X158.896Y-316.86
X158.896Y-321.86
X159.646Y-108.86
X159.646Y-108.86
X159.646Y-113.86
X159.646Y-113.86
X159.646Y-212.86
X159.646Y-212.86
X159.646Y-217.86
X159.646Y-217.86
X159.646Y-316.86
X159.646Y-316.86
X159.646Y-321.86
X159.646Y-321.86
X160.396Y-108.86
X160.396Y-113.86
X160.396Y-212.86
X160.396Y-217.86
X160.396Y-316.86
X160.396Y-321.86
X179.046Y-19.27
X179.046Y-20.02
X179.046Y-20.77
X179.046Y-21.52
X179.046Y-22.27
X179.046Y-23.02
X179.046Y-23.77
X179.046Y-24.52
X179.046Y-25.27
X179.046Y-26.02
X179.046Y-26.02
X179.046Y-26.77
X179.046Y-89.64
X179.046Y-90.39
X179.046Y-91.14
X179.046Y-91.89
X179.046Y-92.64
X179.046Y-93.39
X179.046Y-94.14
X179.046Y-94.89
X179.046Y-95.64
X179.046Y-96.39
X179.046Y-96.39
X179.046Y-97.14
X179.046Y-123.27
X179.046Y-124.02
X179.046Y-124.77
X179.046Y-125.52
X179.046Y-126.27
X179.046Y-127.02
X179.046Y-127.77
X179.046Y-128.52
X179.046Y-129.27
X179.046Y-130.02
X179.046Y-130.02
X179.046Y-130.77
X179.046Y-193.64
X179.046Y-194.39
X179.046Y-195.14
X179.046Y-195.89
X179.046Y-196.64
X179.046Y-197.39
X179.046Y-198.14
X179.046Y-198.89
X179.046Y-199.64
X179.046Y-200.39
X179.046Y-200.39
X179.046Y-201.14
X179.046Y-227.27
X179.046Y-228.02
X179.046Y-228.77
X179.046Y-229.52
X179.046Y-230.27
X179.046Y-231.02
X179.046Y-231.77
X179.046Y-232.52
X179.046Y-233.27
X179.046Y-234.02
X179.046Y-234.02
X179.046Y-234.77
X179.046Y-297.64
X179.046Y-298.39
X179.046Y-299.14
X179.046Y-299.89
X179.046Y-300.64
X179.046Y-301.39
X179.046Y-302.14
X179.046Y-302.89
X179.046Y-303.64
X179.046Y-304.39
X179.046Y-304.39
X179.046Y-305.14
X179.046Y-331.27
X179.046Y-332.02
X179.046Y-332.77
X179.046Y-333.52
X179.046Y-334.27
X179.046Y-335.02
X179.046Y-335.77
X179.046Y-336.52
X179.046Y-337.27
X179.046Y-338.02
X179.046Y-338.02
X179.046Y-338.77
X179.046Y-401.64
X179.046Y-402.39
X179.046Y-403.14
X179.046Y-403.89
X179.046Y-404.64
X179.046Y-405.39
X179.046Y-406.14
X179.046Y-406.89
X179.046Y-407.64
X179.046Y-408.39
X179.046Y-408.39
X179.046Y-409.14
X184.046Y-19.27
X184.046Y-20.02
X184.046Y-20.77
X184.046Y-21.52
X184.046Y-22.27
X184.046Y-23.02
X184.046Y-23.77
X184.046Y-24.52
X184.046Y-25.27
X184.046Y-26.02
X184.046Y-26.02
X184.046Y-26.77
X184.046Y-89.64
X184.046Y-90.39
X184.046Y-91.14
X184.046Y-91.89
X184.046Y-92.64
X184.046Y-93.39
X184.046Y-94.14
X184.046Y-94.89
X184.046Y-95.64
X184.046Y-96.39
X184.046Y-96.39
X184.046Y-97.14
X184.046Y-123.27
X184.046Y-124.02
X184.046Y-124.77
X184.046Y-125.52
X184.046Y-126.27
X184.046Y-127.02
X184.046Y-127.77
X184.046Y-128.52
X184.046Y-129.27
X184.046Y-130.02
X184.046Y-130.02
X184.046Y-130.77
X184.046Y-193.64
X184.046Y-194.39
X184.046Y-195.14
X184.046Y-195.89
X184.046Y-196.64
X184.046Y-197.39
X184.046Y-198.14
X184.046Y-198.89
X184.046Y-199.64
X184.046Y-200.39
X184.046Y-200.39
X184.046Y-201.14
X184.046Y-227.27
X184.046Y-228.02
X184.046Y-228.77
X184.046Y-229.52
X184.046Y-230.27
X184.046Y-231.02
X184.046Y-231.77
X184.046Y-232.52
X184.046Y-233.27
X184.046Y-234.02
X184.046Y-234.02
X184.046Y-234.77
X184.046Y-297.64
X184.046Y-298.39
X184.046Y-299.14
X184.046Y-299.89
X184.046Y-300.64
X184.046Y-301.39
X184.046Y-302.14
X184.046Y-302.89
X184.046Y-303.64
X184.046Y-304.39
X184.046Y-304.39
X184.046Y-305.14
X184.046Y-331.27
X184.046Y-332.02
X184.046Y-332.77
X184.046Y-333.52
X184.046Y-334.27
X184.046Y-335.02
X184.046Y-335.77
X184.046Y-336.52
X184.046Y-337.27
X184.046Y-338.02
X184.046Y-338.02
X184.046Y-338.77
X184.046Y-401.64
X184.046Y-402.39
X184.046Y-403.14
X184.046Y-403.89
X184.046Y-404.64
X184.046Y-405.39
X184.046Y-406.14
X184.046Y-406.89
X184.046Y-407.64
X184.046Y-408.39
X184.046Y-408.39
X184.046Y-409.14
X202.732Y-108.81
X202.732Y-113.81
X202.732Y-212.81
X202.732Y-217.81
X202.732Y-316.81
X202.732Y-321.81
X203.482Y-108.81
X203.482Y-113.81
X203.482Y-212.81
X203.482Y-217.81
X203.482Y-316.81
X203.482Y-321.81
X204.232Y-108.81
X204.232Y-113.81
X204.232Y-212.81
X204.232Y-217.81
X204.232Y-316.81
X204.232Y-321.81
X204.982Y-108.81
X204.982Y-113.81
X204.982Y-212.81
X204.982Y-217.81
X204.982Y-316.81
X204.982Y-321.81
X205.732Y-108.81
X205.732Y-113.81
X205.732Y-212.81
X205.732Y-217.81
X205.732Y-316.81
X205.732Y-321.81
X206.482Y-108.81
X206.482Y-113.81
X206.482Y-212.81
X206.482Y-217.81
X206.482Y-316.81
X206.482Y-321.81
X207.232Y-108.81
X207.232Y-113.81
X207.232Y-212.81
X207.232Y-217.81
X207.232Y-316.81
X207.232Y-321.81
X207.982Y-108.81
X207.982Y-113.81
X207.982Y-212.81
X207.982Y-217.81
X207.982Y-316.81
X207.982Y-321.81
X208.732Y-108.81
X208.732Y-113.81
X208.732Y-212.81
X208.732Y-217.81
X208.732Y-316.81
X208.732Y-321.81
X209.482Y-108.81
X209.482Y-108.81
X209.482Y-113.81
X209.482Y-113.81
X209.482Y-212.81
X209.482Y-212.81
X209.482Y-217.81
X209.482Y-217.81
X209.482Y-316.81
X209.482Y-316.81
X209.482Y-321.81
X209.482Y-321.81
X210.232Y-108.81
X210.232Y-113.81
X210.232Y-212.81
X210.232Y-217.81
X210.232Y-316.81
X210.232Y-321.81
X239.892Y-108.81
X239.892Y-113.81
X239.892Y-212.81
X239.892Y-217.81
X239.892Y-316.81
X239.892Y-321.81
X240.642Y-108.81
X240.642Y-113.81
X240.642Y-212.81
X240.642Y-217.81
X240.642Y-316.81
X240.642Y-321.81
X241.392Y-108.81
X241.392Y-113.81
X241.392Y-212.81
X241.392Y-217.81
X241.392Y-316.81
X241.392Y-321.81
X242.142Y-108.81
X242.142Y-113.81
X242.142Y-212.81
X242.142Y-217.81
X242.142Y-316.81
X242.142Y-321.81
X242.892Y-108.81
X242.892Y-113.81
X242.892Y-212.81
X242.892Y-217.81
X242.892Y-316.81
X242.892Y-321.81
X243.642Y-108.81
X243.642Y-113.81
X243.642Y-212.81
X243.642Y-217.81
X243.642Y-316.81
X243.642Y-321.81
X244.392Y-108.81
X244.392Y-113.81
X244.392Y-212.81
X244.392Y-217.81
X244.392Y-316.81
X244.392Y-321.81
X245.142Y-108.81
X245.142Y-113.81
X245.142Y-212.81
X245.142Y-217.81
X245.142Y-316.81
X245.142Y-321.81
X245.892Y-108.81
X245.892Y-113.81
X245.892Y-212.81
X245.892Y-217.81
X245.892Y-316.81
X245.892Y-321.81
X246.642Y-108.81
X246.642Y-108.81
X246.642Y-113.81
X246.642Y-113.81
X246.642Y-212.81
X246.642Y-212.81
X246.642Y-217.81
X246.642Y-217.81
X246.642Y-316.81
X246.642Y-316.81
X246.642Y-321.81
X246.642Y-321.81
X247.392Y-108.81
X247.392Y-113.81
X247.392Y-212.81
X247.392Y-217.81
X247.392Y-316.81
X247.392Y-321.81
X266.042Y-19.22
X266.042Y-19.97
X266.042Y-20.72
X266.042Y-21.47
X266.042Y-22.22
X266.042Y-22.97
X266.042Y-23.72
X266.042Y-24.47
X266.042Y-25.22
X266.042Y-25.97
X266.042Y-25.97
X266.042Y-26.72
X266.042Y-89.59
X266.042Y-90.34
X266.042Y-91.09
X266.042Y-91.84
X266.042Y-92.59
X266.042Y-93.34
X266.042Y-94.09
X266.042Y-94.84
X266.042Y-95.59
X266.042Y-96.34
X266.042Y-96.34
X266.042Y-97.09
X266.042Y-123.22
X266.042Y-123.97
X266.042Y-124.72
X266.042Y-125.47
X266.042Y-126.22
X266.042Y-126.97
X266.042Y-127.72
X266.042Y-128.47
X266.042Y-129.22
X266.042Y-129.97
X266.042Y-129.97
X266.042Y-130.72
X266.042Y-193.59
X266.042Y-194.34
X266.042Y-195.09
X266.042Y-195.84
X266.042Y-196.59
X266.042Y-197.34
X266.042Y-198.09
X266.042Y-198.84
X266.042Y-199.59
X266.042Y-200.34
X266.042Y-200.34
X266.042Y-201.09
X266.042Y-227.22
X266.042Y-227.97
X266.042Y-228.72
X266.042Y-229.47
X266.042Y-230.22
X266.042Y-230.97
X266.042Y-231.72
X266.042Y-232.47
X266.042Y-233.22
X266.042Y-233.97
X266.042Y-233.97
X266.042Y-234.72
X266.042Y-297.59
X266.042Y-298.34
X266.042Y-299.09
X266.042Y-299.84
X266.042Y-300.59
X266.042Y-301.34
X266.042Y-302.09
X266.042Y-302.84
X266.042Y-303.59
X266.042Y-304.34
X266.042Y-304.34
X266.042Y-305.09
X266.042Y-331.22
X266.042Y-331.97
X266.042Y-332.72
X266.042Y-333.47
X266.042Y-334.22
X266.042Y-334.97
X266.042Y-335.72
X266.042Y-336.47
X266.042Y-337.22
X266.042Y-337.97
X266.042Y-337.97
X266.042Y-338.72
X266.042Y-401.59
X266.042Y-402.34
X266.042Y-403.09
X266.042Y-403.84
X266.042Y-404.59
X266.042Y-405.34
X266.042Y-406.09
X266.042Y-406.84
X266.042Y-407.59
X266.042Y-408.34
X266.042Y-408.34
X266.042Y-409.09
X271.042Y-19.22
X271.042Y-19.97
X271.042Y-20.72
X271.042Y-21.47
X271.042Y-22.22
X271.042Y-22.97
X271.042Y-23.72
X271.042Y-24.47
X271.042Y-25.22
X271.042Y-25.97
X271.042Y-25.97
X271.042Y-26.72
X271.042Y-89.59
X271.042Y-90.34
X271.042Y-91.09
X271.042Y-91.84
X271.042Y-92.59
X271.042Y-93.34
X271.042Y-94.09
X271.042Y-94.84
X271.042Y-95.59
X271.042Y-96.34
X271.042Y-96.34
X271.042Y-97.09
X271.042Y-123.22
X271.042Y-123.97
X271.042Y-124.72
X271.042Y-125.47
X271.042Y-126.22
X271.042Y-126.97
X271.042Y-127.72
X271.042Y-128.47
X271.042Y-129.22
X271.042Y-129.97
X271.042Y-129.97
X271.042Y-130.72
X271.042Y-193.59
X271.042Y-194.34
X271.042Y-195.09
X271.042Y-195.84
X271.042Y-196.59
X271.042Y-197.34
X271.042Y-198.09
X271.042Y-198.84
X271.042Y-199.59
X271.042Y-200.34
X271.042Y-200.34
X271.042Y-201.09
X271.042Y-227.22
X271.042Y-227.97
X271.042Y-228.72
X271.042Y-229.47
X271.042Y-230.22
X271.042Y-230.97
X271.042Y-231.72
X271.042Y-232.47
X271.042Y-233.22
X271.042Y-233.97
X271.042Y-233.97
X271.042Y-234.72
X271.042Y-297.59
X271.042Y-298.34
X271.042Y-299.09
X271.042Y-299.84
X271.042Y-300.59
X271.042Y-301.34
X271.042Y-302.09
X271.042Y-302.84
X271.042Y-303.59
X271.042Y-304.34
X271.042Y-304.34
X271.042Y-305.09
X271.042Y-331.22
X271.042Y-331.97
X271.042Y-332.72
X271.042Y-333.47
X271.042Y-334.22
X271.042Y-334.97
X271.042Y-335.72
X271.042Y-336.47
X271.042Y-337.22
X271.042Y-337.97
X271.042Y-337.97
X271.042Y-338.72
X271.042Y-401.59
X271.042Y-402.34
X271.042Y-403.09
X271.042Y-403.84
X271.042Y-404.59
X271.042Y-405.34
X271.042Y-406.09
X271.042Y-406.84
X271.042Y-407.59
X271.042Y-408.34
X271.042Y-408.34
X271.042Y-409.09
X289.728Y-108.76
X289.728Y-113.76
X289.728Y-212.76
X289.728Y-217.76
X289.728Y-316.76
X289.728Y-321.76
X290.478Y-108.76
X290.478Y-113.76
X290.478Y-212.76
X290.478Y-217.76
X290.478Y-316.76
X290.478Y-321.76
X291.228Y-108.76
X291.228Y-113.76
X291.228Y-212.76
X291.228Y-217.76
X291.228Y-316.76
X291.228Y-321.76
X291.978Y-108.76
X291.978Y-113.76
X291.978Y-212.76
X291.978Y-217.76
X291.978Y-316.76
X291.978Y-321.76
X292.728Y-108.76
X292.728Y-113.76
X292.728Y-212.76
X292.728Y-217.76
X292.728Y-316.76
X292.728Y-321.76
X293.478Y-108.76
X293.478Y-113.76
X293.478Y-212.76
X293.478Y-217.76
X293.478Y-316.76
X293.478Y-321.76
X294.228Y-108.76
X294.228Y-113.76
X294.228Y-212.76
X294.228Y-217.76
X294.228Y-316.76
X294.228Y-321.76
X294.978Y-108.76
X294.978Y-113.76
X294.978Y-212.76
X294.978Y-217.76
X294.978Y-316.76
X294.978Y-321.76
X295.728Y-108.76
X295.728Y-113.76
X295.728Y-212.76
X295.728Y-217.76
X295.728Y-316.76
X295.728Y-321.76
X296.478Y-108.76
X296.478Y-108.76
X296.478Y-113.76
X296.478Y-113.76
X296.478Y-212.76
X296.478Y-212.76
X296.478Y-217.76
X296.478Y-217.76
X296.478Y-316.76
X296.478Y-316.76
X296.478Y-321.76
X296.478Y-321.76
X297.228Y-108.76
X297.228Y-113.76
X297.228Y-212.76
X297.228Y-217.76
X297.228Y-316.76
X297.228Y-321.76
X326.888Y-108.76
X326.888Y-113.76
X326.888Y-212.76
X326.888Y-217.76
X326.888Y-316.76
X326.888Y-321.76
X327.638Y-108.76
X327.638Y-113.76
X327.638Y-212.76
X327.638Y-217.76
X327.638Y-316.76
X327.638Y-321.76
X328.388Y-108.76
X328.388Y-113.76
X328.388Y-212.76
X328.388Y-217.76
X328.388Y-316.76
X328.388Y-321.76
X329.138Y-108.76
X329.138Y-113.76
X329.138Y-212.76
X329.138Y-217.76
X329.138Y-316.76
X329.138Y-321.76
X329.888Y-108.76
X329.888Y-113.76
X329.888Y-212.76
X329.888Y-217.76
X329.888Y-316.76
X329.888Y-321.76
X330.638Y-108.76
X330.638Y-113.76
X330.638Y-212.76
X330.638Y-217.76
X330.638Y-316.76
X330.638Y-321.76
X331.388Y-108.76
X331.388Y-113.76
X331.388Y-212.76
X331.388Y-217.76
X331.388Y-316.76
X331.388Y-321.76
X332.138Y-108.76
X332.138Y-113.76
X332.138Y-212.76
X332.138Y-217.76
X332.138Y-316.76
X332.138Y-321.76
X332.888Y-108.76
X332.888Y-113.76
X332.888Y-212.76
X332.888Y-217.76
X332.888Y-316.76
X332.888Y-321.76
X333.638Y-108.76
X333.638Y-108.76
X333.638Y-113.76
X333.638Y-113.76
X333.638Y-212.76
X333.638Y-212.76
X333.638Y-217.76
X333.638Y-217.76
X333.638Y-316.76
X333.638Y-316.76
X333.638Y-321.76
X333.638Y-321.76
X334.388Y-108.76
X334.388Y-113.76
X334.388Y-212.76
X334.388Y-217.76
X334.388Y-316.76
X334.388Y-321.76
X353.04Y-19.22
X353.04Y-19.97
X353.04Y-20.72
X353.04Y-21.47
X353.04Y-22.22
X353.04Y-22.97
X353.04Y-23.72
X353.04Y-24.47
X353.04Y-25.22
X353.04Y-25.97
X353.04Y-25.97
X353.04Y-26.72
X353.04Y-89.59
X353.04Y-90.34
X353.04Y-91.09
X353.04Y-91.84
X353.04Y-92.59
X353.04Y-93.34
X353.04Y-94.09
X353.04Y-94.84
X353.04Y-95.59
X353.04Y-96.34
X353.04Y-96.34
X353.04Y-97.09
X353.04Y-123.22
X353.04Y-123.97
X353.04Y-124.72
X353.04Y-125.47
X353.04Y-126.22
X353.04Y-126.97
X353.04Y-127.72
X353.04Y-128.47
X353.04Y-129.22
X353.04Y-129.97
X353.04Y-129.97
X353.04Y-130.72
X353.04Y-193.59
X353.04Y-194.34
X353.04Y-195.09
X353.04Y-195.84
X353.04Y-196.59
X353.04Y-197.34
X353.04Y-198.09
X353.04Y-198.84
X353.04Y-199.59
X353.04Y-200.34
X353.04Y-200.34
X353.04Y-201.09
X353.04Y-227.22
X353.04Y-227.97
X353.04Y-228.72
X353.04Y-229.47
X353.04Y-230.22
X353.04Y-230.97
X353.04Y-231.72
X353.04Y-232.47
X353.04Y-233.22
X353.04Y-233.97
X353.04Y-233.97
X353.04Y-234.72
X353.04Y-297.59
X353.04Y-298.34
X353.04Y-299.09
X353.04Y-299.84
X353.04Y-300.59
X353.04Y-301.34
X353.04Y-302.09
X353.04Y-302.84
X353.04Y-303.59
X353.04Y-304.34
X353.04Y-304.34
X353.04Y-305.09
X353.04Y-331.22
X353.04Y-331.97
X353.04Y-332.72
X353.04Y-333.47
X353.04Y-334.22
X353.04Y-334.97
X353.04Y-335.72
X353.04Y-336.47
X353.04Y-337.22
X353.04Y-337.97
X353.04Y-337.97
X353.04Y-338.72
X353.04Y-401.59
X353.04Y-402.34
X353.04Y-403.09
X353.04Y-403.84
X353.04Y-404.59
X353.04Y-405.34
X353.04Y-406.09
X353.04Y-406.84
X353.04Y-407.59
X353.04Y-408.34
X353.04Y-408.34
X353.04Y-409.09
X358.04Y-19.22
X358.04Y-19.97
X358.04Y-20.72
X358.04Y-21.47
X358.04Y-22.22
X358.04Y-22.97
X358.04Y-23.72
X358.04Y-24.47
X358.04Y-25.22
X358.04Y-25.97
X358.04Y-25.97
X358.04Y-26.72
X358.04Y-89.59
X358.04Y-90.34
X358.04Y-91.09
X358.04Y-91.84
X358.04Y-92.59
X358.04Y-93.34
X358.04Y-94.09
X358.04Y-94.84
X358.04Y-95.59
X358.04Y-96.34
X358.04Y-96.34
X358.04Y-97.09
X358.04Y-123.22
X358.04Y-123.97
X358.04Y-124.72
X358.04Y-125.47
X358.04Y-126.22
X358.04Y-126.97
X358.04Y-127.72
X358.04Y-128.47
X358.04Y-129.22
X358.04Y-129.97
X358.04Y-129.97
X358.04Y-130.72
X358.04Y-193.59
X358.04Y-194.34
X358.04Y-195.09
X358.04Y-195.84
X358.04Y-196.59
X358.04Y-197.34
X358.04Y-198.09
X358.04Y-198.84
X358.04Y-199.59
X358.04Y-200.34
X358.04Y-200.34
X358.04Y-201.09
X358.04Y-227.22
X358.04Y-227.97
X358.04Y-228.72
X358.04Y-229.47
X358.04Y-230.22
X358.04Y-230.97
X358.04Y-231.72
X358.04Y-232.47
X358.04Y-233.22
X358.04Y-233.97
X358.04Y-233.97
X358.04Y-234.72
X358.04Y-297.59
X358.04Y-298.34
X358.04Y-299.09
X358.04Y-299.84
X358.04Y-300.59
X358.04Y-301.34
X358.04Y-302.09
X358.04Y-302.84
X358.04Y-303.59
X358.04Y-304.34
X358.04Y-304.34
X358.04Y-305.09
X358.04Y-331.22
X358.04Y-331.97
X358.04Y-332.72
X358.04Y-333.47
X358.04Y-334.22
X358.04Y-334.97
X358.04Y-335.72
X358.04Y-336.47
X358.04Y-337.22
X358.04Y-337.97
X358.04Y-337.97
X358.04Y-338.72
X358.04Y-401.59
X358.04Y-402.34
X358.04Y-403.09
X358.04Y-403.84
X358.04Y-404.59
X358.04Y-405.34
X358.04Y-406.09
X358.04Y-406.84
X358.04Y-407.59
X358.04Y-408.34
X358.04Y-408.34
X358.04Y-409.09
X376.726Y-108.76
X376.726Y-113.76
X376.726Y-212.76
X376.726Y-217.76
X376.726Y-316.76
X376.726Y-321.76
X377.476Y-108.76
X377.476Y-113.76
X377.476Y-212.76
X377.476Y-217.76
X377.476Y-316.76
X377.476Y-321.76
X378.226Y-108.76
X378.226Y-113.76
X378.226Y-212.76
X378.226Y-217.76
X378.226Y-316.76
X378.226Y-321.76
X378.976Y-108.76
X378.976Y-113.76
X378.976Y-212.76
X378.976Y-217.76
X378.976Y-316.76
X378.976Y-321.76
X379.726Y-108.76
X379.726Y-113.76
X379.726Y-212.76
X379.726Y-217.76
X379.726Y-316.76
X379.726Y-321.76
X380.476Y-108.76
X380.476Y-113.76
X380.476Y-212.76
X380.476Y-217.76
X380.476Y-316.76
X380.476Y-321.76
X381.226Y-108.76
X381.226Y-113.76
X381.226Y-212.76
X381.226Y-217.76
X381.226Y-316.76
X381.226Y-321.76
X381.976Y-108.76
X381.976Y-113.76
X381.976Y-212.76
X381.976Y-217.76
X381.976Y-316.76
X381.976Y-321.76
X382.726Y-108.76
X382.726Y-113.76
X382.726Y-212.76
X382.726Y-217.76
X382.726Y-316.76
X382.726Y-321.76
X383.476Y-108.76
X383.476Y-108.76
X383.476Y-113.76
X383.476Y-113.76
X383.476Y-212.76
X383.476Y-212.76
X383.476Y-217.76
X383.476Y-217.76
X383.476Y-316.76
X383.476Y-316.76
X383.476Y-321.76
X383.476Y-321.76
X384.226Y-108.76
X384.226Y-113.76
X384.226Y-212.76
X384.226Y-217.76
X384.226Y-316.76
X384.226Y-321.76
X413.886Y-108.76
X413.886Y-113.76
X413.886Y-212.76
X413.886Y-217.76
X413.886Y-316.76
X413.886Y-321.76
X414.636Y-108.76
X414.636Y-113.76
X414.636Y-212.76
X414.636Y-217.76
X414.636Y-316.76
X414.636Y-321.76
X415.386Y-108.76
X415.386Y-113.76
X415.386Y-212.76
X415.386Y-217.76
X415.386Y-316.76
X415.386Y-321.76
X416.136Y-108.76
X416.136Y-113.76
X416.136Y-212.76
X416.136Y-217.76
X416.136Y-316.76
X416.136Y-321.76
X416.886Y-108.76
X416.886Y-113.76
X416.886Y-212.76
X416.886Y-217.76
X416.886Y-316.76
X416.886Y-321.76
X417.636Y-108.76
X417.636Y-113.76
X417.636Y-212.76
X417.636Y-217.76
X417.636Y-316.76
X417.636Y-321.76
X418.386Y-108.76
X418.386Y-113.76
X418.386Y-212.76
X418.386Y-217.76
X418.386Y-316.76
X418.386Y-321.76
X419.136Y-108.76
X419.136Y-113.76
X419.136Y-212.76
X419.136Y-217.76
X419.136Y-316.76
X419.136Y-321.76
X419.886Y-108.76
X419.886Y-113.76
X419.886Y-212.76
X419.886Y-217.76
X419.886Y-316.76
X419.886Y-321.76
X420.636Y-108.76
X420.636Y-108.76
X420.636Y-113.76
X420.636Y-113.76
X420.636Y-212.76
X420.636Y-212.76
X420.636Y-217.76
X420.636Y-217.76
X420.636Y-316.76
X420.636Y-316.76
X420.636Y-321.76
X420.636Y-321.76
X421.386Y-108.76
X421.386Y-113.76
X421.386Y-212.76
X421.386Y-217.76
X421.386Y-316.76
X421.386Y-321.76
T0
M30
