%TF.GenerationSoftware,KiCad,Pcbnew,(6.0.5)*%
%TF.CreationDate,2022-08-17T15:04:12-07:00*%
%TF.ProjectId,X_Y_Panels,585f595f-5061-46e6-956c-732e6b696361,rev?*%
%TF.SameCoordinates,Original*%
%TF.FileFunction,Soldermask,Top*%
%TF.FilePolarity,Negative*%
%FSLAX46Y46*%
G04 Gerber Fmt 4.6, Leading zero omitted, Abs format (unit mm)*
G04 Created by KiCad (PCBNEW (6.0.5)) date 2022-08-17 15:04:12*
%MOMM*%
%LPD*%
G01*
G04 APERTURE LIST*
G04 Aperture macros list*
%AMRoundRect*
0 Rectangle with rounded corners*
0 $1 Rounding radius*
0 $2 $3 $4 $5 $6 $7 $8 $9 X,Y pos of 4 corners*
0 Add a 4 corners polygon primitive as box body*
4,1,4,$2,$3,$4,$5,$6,$7,$8,$9,$2,$3,0*
0 Add four circle primitives for the rounded corners*
1,1,$1+$1,$2,$3*
1,1,$1+$1,$4,$5*
1,1,$1+$1,$6,$7*
1,1,$1+$1,$8,$9*
0 Add four rect primitives between the rounded corners*
20,1,$1+$1,$2,$3,$4,$5,0*
20,1,$1+$1,$4,$5,$6,$7,0*
20,1,$1+$1,$6,$7,$8,$9,0*
20,1,$1+$1,$8,$9,$2,$3,0*%
G04 Aperture macros list end*
%ADD10C,0.010000*%
%ADD11C,3.800000*%
%ADD12C,2.600000*%
%ADD13RoundRect,0.200000X-0.200000X-0.275000X0.200000X-0.275000X0.200000X0.275000X-0.200000X0.275000X0*%
%ADD14RoundRect,0.200000X0.200000X0.275000X-0.200000X0.275000X-0.200000X-0.275000X0.200000X-0.275000X0*%
%ADD15R,1.700000X1.700000*%
%ADD16O,1.700000X1.700000*%
%ADD17RoundRect,0.225000X-0.225000X-0.250000X0.225000X-0.250000X0.225000X0.250000X-0.225000X0.250000X0*%
%ADD18RoundRect,0.200000X0.275000X-0.200000X0.275000X0.200000X-0.275000X0.200000X-0.275000X-0.200000X0*%
%ADD19C,3.000000*%
%ADD20R,0.600000X0.400000*%
%ADD21C,0.500000*%
%ADD22RoundRect,0.225000X0.250000X-0.225000X0.250000X0.225000X-0.250000X0.225000X-0.250000X-0.225000X0*%
%ADD23R,2.500000X1.700000*%
%ADD24R,0.740000X0.270000*%
%ADD25R,0.650000X1.350000*%
%ADD26R,1.700000X2.500000*%
%ADD27R,0.400000X0.600000*%
%ADD28R,0.650000X0.400000*%
%ADD29RoundRect,0.200000X-0.275000X0.200000X-0.275000X-0.200000X0.275000X-0.200000X0.275000X0.200000X0*%
%ADD30RoundRect,0.250000X0.325000X0.650000X-0.325000X0.650000X-0.325000X-0.650000X0.325000X-0.650000X0*%
%ADD31R,0.400000X0.650000*%
%ADD32RoundRect,0.250000X-0.325000X-0.650000X0.325000X-0.650000X0.325000X0.650000X-0.325000X0.650000X0*%
%ADD33RoundRect,0.150000X0.150000X-0.650000X0.150000X0.650000X-0.150000X0.650000X-0.150000X-0.650000X0*%
%ADD34R,3.200000X2.400000*%
%ADD35R,1.570000X1.880000*%
G04 APERTURE END LIST*
%TO.C,U1*%
G36*
X367620000Y-25967000D02*
G01*
X365920000Y-25967000D01*
X365920000Y-25567000D01*
X367620000Y-25567000D01*
X367620000Y-25967000D01*
G37*
D10*
X367620000Y-25967000D02*
X365920000Y-25967000D01*
X365920000Y-25567000D01*
X367620000Y-25567000D01*
X367620000Y-25967000D01*
G36*
X371820000Y-24967000D02*
G01*
X370120000Y-24967000D01*
X370120000Y-24567000D01*
X371820000Y-24567000D01*
X371820000Y-24967000D01*
G37*
X371820000Y-24967000D02*
X370120000Y-24967000D01*
X370120000Y-24567000D01*
X371820000Y-24567000D01*
X371820000Y-24967000D01*
G36*
X367620000Y-24467000D02*
G01*
X365920000Y-24467000D01*
X365920000Y-24067000D01*
X367620000Y-24067000D01*
X367620000Y-24467000D01*
G37*
X367620000Y-24467000D02*
X365920000Y-24467000D01*
X365920000Y-24067000D01*
X367620000Y-24067000D01*
X367620000Y-24467000D01*
G36*
X371820000Y-26467000D02*
G01*
X370120000Y-26467000D01*
X370120000Y-26067000D01*
X371820000Y-26067000D01*
X371820000Y-26467000D01*
G37*
X371820000Y-26467000D02*
X370120000Y-26467000D01*
X370120000Y-26067000D01*
X371820000Y-26067000D01*
X371820000Y-26467000D01*
G36*
X367620000Y-25467000D02*
G01*
X365920000Y-25467000D01*
X365920000Y-25067000D01*
X367620000Y-25067000D01*
X367620000Y-25467000D01*
G37*
X367620000Y-25467000D02*
X365920000Y-25467000D01*
X365920000Y-25067000D01*
X367620000Y-25067000D01*
X367620000Y-25467000D01*
G36*
X371820000Y-24467000D02*
G01*
X370120000Y-24467000D01*
X370120000Y-24067000D01*
X371820000Y-24067000D01*
X371820000Y-24467000D01*
G37*
X371820000Y-24467000D02*
X370120000Y-24467000D01*
X370120000Y-24067000D01*
X371820000Y-24067000D01*
X371820000Y-24467000D01*
G36*
X367620000Y-24967000D02*
G01*
X365920000Y-24967000D01*
X365920000Y-24567000D01*
X367620000Y-24567000D01*
X367620000Y-24967000D01*
G37*
X367620000Y-24967000D02*
X365920000Y-24967000D01*
X365920000Y-24567000D01*
X367620000Y-24567000D01*
X367620000Y-24967000D01*
G36*
X371820000Y-25967000D02*
G01*
X370120000Y-25967000D01*
X370120000Y-25567000D01*
X371820000Y-25567000D01*
X371820000Y-25967000D01*
G37*
X371820000Y-25967000D02*
X370120000Y-25967000D01*
X370120000Y-25567000D01*
X371820000Y-25567000D01*
X371820000Y-25967000D01*
G36*
X371820000Y-25467000D02*
G01*
X370120000Y-25467000D01*
X370120000Y-25067000D01*
X371820000Y-25067000D01*
X371820000Y-25467000D01*
G37*
X371820000Y-25467000D02*
X370120000Y-25467000D01*
X370120000Y-25067000D01*
X371820000Y-25067000D01*
X371820000Y-25467000D01*
G36*
X367620000Y-26467000D02*
G01*
X365920000Y-26467000D01*
X365920000Y-26067000D01*
X367620000Y-26067000D01*
X367620000Y-26467000D01*
G37*
X367620000Y-26467000D02*
X365920000Y-26467000D01*
X365920000Y-26067000D01*
X367620000Y-26067000D01*
X367620000Y-26467000D01*
G36*
X367620000Y-233967000D02*
G01*
X365920000Y-233967000D01*
X365920000Y-233567000D01*
X367620000Y-233567000D01*
X367620000Y-233967000D01*
G37*
X367620000Y-233967000D02*
X365920000Y-233967000D01*
X365920000Y-233567000D01*
X367620000Y-233567000D01*
X367620000Y-233967000D01*
G36*
X371820000Y-232967000D02*
G01*
X370120000Y-232967000D01*
X370120000Y-232567000D01*
X371820000Y-232567000D01*
X371820000Y-232967000D01*
G37*
X371820000Y-232967000D02*
X370120000Y-232967000D01*
X370120000Y-232567000D01*
X371820000Y-232567000D01*
X371820000Y-232967000D01*
G36*
X367620000Y-232467000D02*
G01*
X365920000Y-232467000D01*
X365920000Y-232067000D01*
X367620000Y-232067000D01*
X367620000Y-232467000D01*
G37*
X367620000Y-232467000D02*
X365920000Y-232467000D01*
X365920000Y-232067000D01*
X367620000Y-232067000D01*
X367620000Y-232467000D01*
G36*
X371820000Y-234467000D02*
G01*
X370120000Y-234467000D01*
X370120000Y-234067000D01*
X371820000Y-234067000D01*
X371820000Y-234467000D01*
G37*
X371820000Y-234467000D02*
X370120000Y-234467000D01*
X370120000Y-234067000D01*
X371820000Y-234067000D01*
X371820000Y-234467000D01*
G36*
X367620000Y-233467000D02*
G01*
X365920000Y-233467000D01*
X365920000Y-233067000D01*
X367620000Y-233067000D01*
X367620000Y-233467000D01*
G37*
X367620000Y-233467000D02*
X365920000Y-233467000D01*
X365920000Y-233067000D01*
X367620000Y-233067000D01*
X367620000Y-233467000D01*
G36*
X371820000Y-232467000D02*
G01*
X370120000Y-232467000D01*
X370120000Y-232067000D01*
X371820000Y-232067000D01*
X371820000Y-232467000D01*
G37*
X371820000Y-232467000D02*
X370120000Y-232467000D01*
X370120000Y-232067000D01*
X371820000Y-232067000D01*
X371820000Y-232467000D01*
G36*
X367620000Y-232967000D02*
G01*
X365920000Y-232967000D01*
X365920000Y-232567000D01*
X367620000Y-232567000D01*
X367620000Y-232967000D01*
G37*
X367620000Y-232967000D02*
X365920000Y-232967000D01*
X365920000Y-232567000D01*
X367620000Y-232567000D01*
X367620000Y-232967000D01*
G36*
X371820000Y-233967000D02*
G01*
X370120000Y-233967000D01*
X370120000Y-233567000D01*
X371820000Y-233567000D01*
X371820000Y-233967000D01*
G37*
X371820000Y-233967000D02*
X370120000Y-233967000D01*
X370120000Y-233567000D01*
X371820000Y-233567000D01*
X371820000Y-233967000D01*
G36*
X371820000Y-233467000D02*
G01*
X370120000Y-233467000D01*
X370120000Y-233067000D01*
X371820000Y-233067000D01*
X371820000Y-233467000D01*
G37*
X371820000Y-233467000D02*
X370120000Y-233467000D01*
X370120000Y-233067000D01*
X371820000Y-233067000D01*
X371820000Y-233467000D01*
G36*
X367620000Y-234467000D02*
G01*
X365920000Y-234467000D01*
X365920000Y-234067000D01*
X367620000Y-234067000D01*
X367620000Y-234467000D01*
G37*
X367620000Y-234467000D02*
X365920000Y-234467000D01*
X365920000Y-234067000D01*
X367620000Y-234067000D01*
X367620000Y-234467000D01*
G36*
X367620000Y-129967000D02*
G01*
X365920000Y-129967000D01*
X365920000Y-129567000D01*
X367620000Y-129567000D01*
X367620000Y-129967000D01*
G37*
X367620000Y-129967000D02*
X365920000Y-129967000D01*
X365920000Y-129567000D01*
X367620000Y-129567000D01*
X367620000Y-129967000D01*
G36*
X371820000Y-128967000D02*
G01*
X370120000Y-128967000D01*
X370120000Y-128567000D01*
X371820000Y-128567000D01*
X371820000Y-128967000D01*
G37*
X371820000Y-128967000D02*
X370120000Y-128967000D01*
X370120000Y-128567000D01*
X371820000Y-128567000D01*
X371820000Y-128967000D01*
G36*
X367620000Y-128467000D02*
G01*
X365920000Y-128467000D01*
X365920000Y-128067000D01*
X367620000Y-128067000D01*
X367620000Y-128467000D01*
G37*
X367620000Y-128467000D02*
X365920000Y-128467000D01*
X365920000Y-128067000D01*
X367620000Y-128067000D01*
X367620000Y-128467000D01*
G36*
X371820000Y-130467000D02*
G01*
X370120000Y-130467000D01*
X370120000Y-130067000D01*
X371820000Y-130067000D01*
X371820000Y-130467000D01*
G37*
X371820000Y-130467000D02*
X370120000Y-130467000D01*
X370120000Y-130067000D01*
X371820000Y-130067000D01*
X371820000Y-130467000D01*
G36*
X367620000Y-129467000D02*
G01*
X365920000Y-129467000D01*
X365920000Y-129067000D01*
X367620000Y-129067000D01*
X367620000Y-129467000D01*
G37*
X367620000Y-129467000D02*
X365920000Y-129467000D01*
X365920000Y-129067000D01*
X367620000Y-129067000D01*
X367620000Y-129467000D01*
G36*
X371820000Y-128467000D02*
G01*
X370120000Y-128467000D01*
X370120000Y-128067000D01*
X371820000Y-128067000D01*
X371820000Y-128467000D01*
G37*
X371820000Y-128467000D02*
X370120000Y-128467000D01*
X370120000Y-128067000D01*
X371820000Y-128067000D01*
X371820000Y-128467000D01*
G36*
X367620000Y-128967000D02*
G01*
X365920000Y-128967000D01*
X365920000Y-128567000D01*
X367620000Y-128567000D01*
X367620000Y-128967000D01*
G37*
X367620000Y-128967000D02*
X365920000Y-128967000D01*
X365920000Y-128567000D01*
X367620000Y-128567000D01*
X367620000Y-128967000D01*
G36*
X371820000Y-129967000D02*
G01*
X370120000Y-129967000D01*
X370120000Y-129567000D01*
X371820000Y-129567000D01*
X371820000Y-129967000D01*
G37*
X371820000Y-129967000D02*
X370120000Y-129967000D01*
X370120000Y-129567000D01*
X371820000Y-129567000D01*
X371820000Y-129967000D01*
G36*
X371820000Y-129467000D02*
G01*
X370120000Y-129467000D01*
X370120000Y-129067000D01*
X371820000Y-129067000D01*
X371820000Y-129467000D01*
G37*
X371820000Y-129467000D02*
X370120000Y-129467000D01*
X370120000Y-129067000D01*
X371820000Y-129067000D01*
X371820000Y-129467000D01*
G36*
X367620000Y-130467000D02*
G01*
X365920000Y-130467000D01*
X365920000Y-130067000D01*
X367620000Y-130067000D01*
X367620000Y-130467000D01*
G37*
X367620000Y-130467000D02*
X365920000Y-130467000D01*
X365920000Y-130067000D01*
X367620000Y-130067000D01*
X367620000Y-130467000D01*
G36*
X367620000Y-337967000D02*
G01*
X365920000Y-337967000D01*
X365920000Y-337567000D01*
X367620000Y-337567000D01*
X367620000Y-337967000D01*
G37*
X367620000Y-337967000D02*
X365920000Y-337967000D01*
X365920000Y-337567000D01*
X367620000Y-337567000D01*
X367620000Y-337967000D01*
G36*
X371820000Y-336967000D02*
G01*
X370120000Y-336967000D01*
X370120000Y-336567000D01*
X371820000Y-336567000D01*
X371820000Y-336967000D01*
G37*
X371820000Y-336967000D02*
X370120000Y-336967000D01*
X370120000Y-336567000D01*
X371820000Y-336567000D01*
X371820000Y-336967000D01*
G36*
X367620000Y-336467000D02*
G01*
X365920000Y-336467000D01*
X365920000Y-336067000D01*
X367620000Y-336067000D01*
X367620000Y-336467000D01*
G37*
X367620000Y-336467000D02*
X365920000Y-336467000D01*
X365920000Y-336067000D01*
X367620000Y-336067000D01*
X367620000Y-336467000D01*
G36*
X371820000Y-338467000D02*
G01*
X370120000Y-338467000D01*
X370120000Y-338067000D01*
X371820000Y-338067000D01*
X371820000Y-338467000D01*
G37*
X371820000Y-338467000D02*
X370120000Y-338467000D01*
X370120000Y-338067000D01*
X371820000Y-338067000D01*
X371820000Y-338467000D01*
G36*
X367620000Y-337467000D02*
G01*
X365920000Y-337467000D01*
X365920000Y-337067000D01*
X367620000Y-337067000D01*
X367620000Y-337467000D01*
G37*
X367620000Y-337467000D02*
X365920000Y-337467000D01*
X365920000Y-337067000D01*
X367620000Y-337067000D01*
X367620000Y-337467000D01*
G36*
X371820000Y-336467000D02*
G01*
X370120000Y-336467000D01*
X370120000Y-336067000D01*
X371820000Y-336067000D01*
X371820000Y-336467000D01*
G37*
X371820000Y-336467000D02*
X370120000Y-336467000D01*
X370120000Y-336067000D01*
X371820000Y-336067000D01*
X371820000Y-336467000D01*
G36*
X367620000Y-336967000D02*
G01*
X365920000Y-336967000D01*
X365920000Y-336567000D01*
X367620000Y-336567000D01*
X367620000Y-336967000D01*
G37*
X367620000Y-336967000D02*
X365920000Y-336967000D01*
X365920000Y-336567000D01*
X367620000Y-336567000D01*
X367620000Y-336967000D01*
G36*
X371820000Y-337967000D02*
G01*
X370120000Y-337967000D01*
X370120000Y-337567000D01*
X371820000Y-337567000D01*
X371820000Y-337967000D01*
G37*
X371820000Y-337967000D02*
X370120000Y-337967000D01*
X370120000Y-337567000D01*
X371820000Y-337567000D01*
X371820000Y-337967000D01*
G36*
X371820000Y-337467000D02*
G01*
X370120000Y-337467000D01*
X370120000Y-337067000D01*
X371820000Y-337067000D01*
X371820000Y-337467000D01*
G37*
X371820000Y-337467000D02*
X370120000Y-337467000D01*
X370120000Y-337067000D01*
X371820000Y-337067000D01*
X371820000Y-337467000D01*
G36*
X367620000Y-338467000D02*
G01*
X365920000Y-338467000D01*
X365920000Y-338067000D01*
X367620000Y-338067000D01*
X367620000Y-338467000D01*
G37*
X367620000Y-338467000D02*
X365920000Y-338467000D01*
X365920000Y-338067000D01*
X367620000Y-338067000D01*
X367620000Y-338467000D01*
%TD*%
D11*
%TO.C,H29*%
X399036000Y-314259997D03*
D12*
X399036000Y-314259997D03*
%TD*%
D13*
%TO.C,R14*%
X431325000Y-14138000D03*
X432975000Y-14138000D03*
%TD*%
D14*
%TO.C,R20*%
X422083000Y-23912000D03*
X420433000Y-23912000D03*
%TD*%
D12*
%TO.C,TP5*%
X388582000Y-177429998D03*
X396202000Y-177429998D03*
%TD*%
D15*
%TO.C,J3*%
X119546000Y-324359999D03*
D16*
X117006000Y-324359999D03*
X114466000Y-324359999D03*
X111926000Y-324359999D03*
X109386000Y-324359999D03*
X106846000Y-324359999D03*
%TD*%
D17*
%TO.C,C2*%
X436575000Y-335438000D03*
X438125000Y-335438000D03*
%TD*%
D11*
%TO.C,H10*%
X99546000Y-314359999D03*
D12*
X99546000Y-314359999D03*
%TD*%
D18*
%TO.C,R2*%
X417194000Y-117370000D03*
X417194000Y-115720000D03*
%TD*%
D15*
%TO.C,J3*%
X119546000Y-220359999D03*
D16*
X117006000Y-220359999D03*
X114466000Y-220359999D03*
X111926000Y-220359999D03*
X109386000Y-220359999D03*
X106846000Y-220359999D03*
%TD*%
D18*
%TO.C,R6*%
X405000000Y-221360000D03*
X405000000Y-219710000D03*
%TD*%
%TO.C,R11*%
X363625000Y-17185000D03*
X363625000Y-15535000D03*
%TD*%
D12*
%TO.C,H26*%
X399036000Y-324259997D03*
D11*
X399036000Y-324259997D03*
%TD*%
D12*
%TO.C,TP3*%
X214586000Y-281479999D03*
X222206000Y-281479999D03*
%TD*%
D19*
%TO.C,SC1*%
X374662000Y-271014000D03*
X365662000Y-271014000D03*
%TD*%
D20*
%TO.C,Q3*%
X434625000Y-123635000D03*
X434625000Y-122985000D03*
X434625000Y-122335000D03*
X432725000Y-122335000D03*
X432725000Y-122985000D03*
X432725000Y-123635000D03*
%TD*%
D14*
%TO.C,R12*%
X432975000Y-324360000D03*
X431325000Y-324360000D03*
%TD*%
D21*
%TO.C,mouse-bite-8*%
X184046000Y-409139999D03*
X179046000Y-406139999D03*
X179046000Y-405389999D03*
X179046000Y-408389999D03*
X184046000Y-406139999D03*
X184046000Y-402389999D03*
X179046000Y-404639999D03*
X184046000Y-405389999D03*
X179046000Y-403889999D03*
X179046000Y-402389999D03*
X184046000Y-408389999D03*
X179046000Y-401639999D03*
X179046000Y-409139999D03*
X184046000Y-406889999D03*
X179046000Y-407639999D03*
X179046000Y-406889999D03*
X179046000Y-408389999D03*
X184046000Y-407639999D03*
X184046000Y-403139999D03*
X184046000Y-404639999D03*
X184046000Y-401639999D03*
X184046000Y-403889999D03*
X184046000Y-408389999D03*
X179046000Y-403139999D03*
%TD*%
%TO.C,mouse-bite-3*%
X358040000Y-129969998D03*
X353040000Y-129969998D03*
X358040000Y-126219998D03*
X358040000Y-124719998D03*
X353040000Y-127719998D03*
X353040000Y-123219998D03*
X358040000Y-130719998D03*
X358040000Y-126969998D03*
X358040000Y-129219998D03*
X358040000Y-123219998D03*
X358040000Y-123969998D03*
X358040000Y-127719998D03*
X353040000Y-129219998D03*
X353040000Y-123969998D03*
X353040000Y-124719998D03*
X353040000Y-128469998D03*
X353040000Y-126219998D03*
X358040000Y-128469998D03*
X353040000Y-125469998D03*
X353040000Y-126969998D03*
X353040000Y-129969998D03*
X353040000Y-130719998D03*
X358040000Y-129969998D03*
X358040000Y-125469998D03*
%TD*%
D15*
%TO.C,J3*%
X119546000Y-12359999D03*
D16*
X117006000Y-12359999D03*
X114466000Y-12359999D03*
X111926000Y-12359999D03*
X109386000Y-12359999D03*
X106846000Y-12359999D03*
%TD*%
D18*
%TO.C,R11*%
X363625000Y-329185000D03*
X363625000Y-327535000D03*
%TD*%
D14*
%TO.C,R15*%
X432975000Y-327916000D03*
X431325000Y-327916000D03*
%TD*%
D15*
%TO.C,J6*%
X380536000Y-324259997D03*
D16*
X377996000Y-324259997D03*
X375456000Y-324259997D03*
X372916000Y-324259997D03*
X370376000Y-324259997D03*
X367836000Y-324259997D03*
%TD*%
D21*
%TO.C,mouse-bite-11*%
X296478000Y-217759997D03*
X291978000Y-217759997D03*
X290478000Y-212759997D03*
X294228000Y-212759997D03*
X292728000Y-212759997D03*
X293478000Y-217759997D03*
X291228000Y-212759997D03*
X292728000Y-217759997D03*
X296478000Y-212759997D03*
X291978000Y-212759997D03*
X297228000Y-212759997D03*
X294978000Y-212759997D03*
X289728000Y-217759997D03*
X294978000Y-217759997D03*
X289728000Y-212759997D03*
X293478000Y-212759997D03*
X295728000Y-217759997D03*
X297228000Y-217759997D03*
X296478000Y-217759997D03*
X295728000Y-212759997D03*
X290478000Y-217759997D03*
X291228000Y-217759997D03*
X296478000Y-212759997D03*
X294228000Y-217759997D03*
%TD*%
D13*
%TO.C,R14*%
X431325000Y-222138000D03*
X432975000Y-222138000D03*
%TD*%
D11*
%TO.C,H10*%
X99546000Y-210359999D03*
D12*
X99546000Y-210359999D03*
%TD*%
D11*
%TO.C,H30*%
X437536000Y-418259997D03*
D12*
X437536000Y-418259997D03*
%TD*%
D22*
%TO.C,C6*%
X426592000Y-18337000D03*
X426592000Y-16787000D03*
%TD*%
D12*
%TO.C,H25*%
X360536000Y-324259997D03*
D11*
X360536000Y-324259997D03*
%TD*%
D19*
%TO.C,SC3*%
X385970000Y-96340000D03*
X385970000Y-87340000D03*
%TD*%
D12*
%TO.C,H28*%
X360536000Y-314259997D03*
D11*
X360536000Y-314259997D03*
%TD*%
%TO.C,H5*%
X51050000Y-314410000D03*
D12*
X51050000Y-314410000D03*
%TD*%
D23*
%TO.C,D6*%
X432530000Y-133320000D03*
X436530000Y-133320000D03*
%TD*%
D11*
%TO.C,H13*%
X186542000Y-220309998D03*
D12*
X186542000Y-220309998D03*
%TD*%
D24*
%TO.C,U3*%
X426613000Y-20976000D03*
X426613000Y-21626000D03*
X426613000Y-22276000D03*
X428603000Y-22276000D03*
X428603000Y-21626000D03*
X428603000Y-20976000D03*
D25*
X427608000Y-21626000D03*
%TD*%
D12*
%TO.C,H14*%
X225042000Y-12309998D03*
D11*
X225042000Y-12309998D03*
%TD*%
D26*
%TO.C,D5*%
X378960000Y-341890000D03*
X378960000Y-337890000D03*
%TD*%
D11*
%TO.C,H23*%
X312038000Y-314259997D03*
D12*
X312038000Y-314259997D03*
%TD*%
%TO.C,TP4*%
X301582000Y-281429998D03*
X309202000Y-281429998D03*
%TD*%
D27*
%TO.C,Q1*%
X410448000Y-221760000D03*
X411098000Y-221760000D03*
X411748000Y-221760000D03*
X411748000Y-219860000D03*
X411098000Y-219860000D03*
X410448000Y-219860000D03*
%TD*%
D22*
%TO.C,C6*%
X426592000Y-122337000D03*
X426592000Y-120787000D03*
%TD*%
D11*
%TO.C,H7*%
X99546000Y-220359999D03*
D12*
X99546000Y-220359999D03*
%TD*%
D11*
%TO.C,H18*%
X263542000Y-210309998D03*
D12*
X263542000Y-210309998D03*
%TD*%
D24*
%TO.C,U3*%
X426613000Y-228976000D03*
X426613000Y-229626000D03*
X426613000Y-230276000D03*
X428603000Y-230276000D03*
X428603000Y-229626000D03*
X428603000Y-228976000D03*
D25*
X427608000Y-229626000D03*
%TD*%
D12*
%TO.C,H16*%
X186542000Y-210309998D03*
D11*
X186542000Y-210309998D03*
%TD*%
D27*
%TO.C,Q1*%
X410448000Y-325760000D03*
X411098000Y-325760000D03*
X411748000Y-325760000D03*
X411748000Y-323860000D03*
X411098000Y-323860000D03*
X410448000Y-323860000D03*
%TD*%
D12*
%TO.C,H24*%
X350538000Y-210259997D03*
D11*
X350538000Y-210259997D03*
%TD*%
D12*
%TO.C,H26*%
X399036000Y-116259997D03*
D11*
X399036000Y-116259997D03*
%TD*%
D28*
%TO.C,Q4*%
X434625000Y-335445000D03*
X434625000Y-334795000D03*
X434625000Y-334145000D03*
X432725000Y-334145000D03*
X432725000Y-334795000D03*
X432725000Y-335445000D03*
%TD*%
D29*
%TO.C,R4*%
X422782000Y-11720000D03*
X422782000Y-13370000D03*
%TD*%
D21*
%TO.C,mouse-bite-17*%
X115736000Y-217859999D03*
X117986000Y-212859999D03*
X120236000Y-212859999D03*
X122486000Y-212859999D03*
X122486000Y-217859999D03*
X115736000Y-212859999D03*
X119486000Y-217859999D03*
X120236000Y-217859999D03*
X120986000Y-217859999D03*
X121736000Y-212859999D03*
X117236000Y-217859999D03*
X123236000Y-212859999D03*
X116486000Y-217859999D03*
X120986000Y-212859999D03*
X118736000Y-217859999D03*
X116486000Y-212859999D03*
X118736000Y-212859999D03*
X123236000Y-217859999D03*
X121736000Y-217859999D03*
X117986000Y-217859999D03*
X117236000Y-212859999D03*
X119486000Y-212859999D03*
X122486000Y-217859999D03*
X122486000Y-212859999D03*
%TD*%
D12*
%TO.C,H9*%
X176546000Y-12359999D03*
D11*
X176546000Y-12359999D03*
%TD*%
D30*
%TO.C,C5*%
X375750000Y-16110000D03*
X372800000Y-16110000D03*
%TD*%
D19*
%TO.C,SC3*%
X385970000Y-408340000D03*
X385970000Y-399340000D03*
%TD*%
D12*
%TO.C,H24*%
X350538000Y-106259997D03*
D11*
X350538000Y-106259997D03*
%TD*%
D31*
%TO.C,Q2*%
X415325000Y-116010000D03*
X414675000Y-116010000D03*
X414025000Y-116010000D03*
X414025000Y-117910000D03*
X414675000Y-117910000D03*
X415325000Y-117910000D03*
%TD*%
D12*
%TO.C,H4*%
X12550000Y-106410000D03*
D11*
X12550000Y-106410000D03*
%TD*%
D21*
%TO.C,mouse-bite-14*%
X421386000Y-217759997D03*
X420636000Y-212759997D03*
X413886000Y-217759997D03*
X417636000Y-217759997D03*
X416136000Y-212759997D03*
X415386000Y-217759997D03*
X416886000Y-217759997D03*
X420636000Y-217759997D03*
X416136000Y-217759997D03*
X413886000Y-212759997D03*
X416886000Y-212759997D03*
X415386000Y-212759997D03*
X420636000Y-212759997D03*
X418386000Y-212759997D03*
X420636000Y-217759997D03*
X419136000Y-217759997D03*
X414636000Y-217759997D03*
X419136000Y-212759997D03*
X419886000Y-217759997D03*
X417636000Y-212759997D03*
X419886000Y-212759997D03*
X414636000Y-212759997D03*
X418386000Y-217759997D03*
X421386000Y-212759997D03*
%TD*%
D11*
%TO.C,H30*%
X437536000Y-106259997D03*
D12*
X437536000Y-106259997D03*
%TD*%
%TO.C,H11*%
X138046000Y-210359999D03*
D11*
X138046000Y-210359999D03*
%TD*%
D21*
%TO.C,mouse-bite-7*%
X92050000Y-408440000D03*
X97050000Y-405440000D03*
X92050000Y-406940000D03*
X97050000Y-401690000D03*
X92050000Y-406190000D03*
X97050000Y-403190000D03*
X92050000Y-409190000D03*
X92050000Y-403940000D03*
X97050000Y-409190000D03*
X97050000Y-404690000D03*
X97050000Y-402440000D03*
X97050000Y-407690000D03*
X97050000Y-408440000D03*
X92050000Y-408440000D03*
X92050000Y-402440000D03*
X92050000Y-405440000D03*
X97050000Y-408440000D03*
X92050000Y-403190000D03*
X97050000Y-406940000D03*
X97050000Y-406190000D03*
X92050000Y-401690000D03*
X97050000Y-403940000D03*
X92050000Y-407690000D03*
X92050000Y-404690000D03*
%TD*%
D12*
%TO.C,H16*%
X186542000Y-106309998D03*
D11*
X186542000Y-106309998D03*
%TD*%
D21*
%TO.C,mouse-bite-15*%
X33240000Y-316910000D03*
X33240000Y-321910000D03*
X32490000Y-316910000D03*
X35490000Y-316910000D03*
X30990000Y-321910000D03*
X33990000Y-321910000D03*
X33990000Y-316910000D03*
X32490000Y-321910000D03*
X35490000Y-321910000D03*
X29490000Y-316910000D03*
X34740000Y-316910000D03*
X31740000Y-316910000D03*
X30990000Y-316910000D03*
X28740000Y-316910000D03*
X31740000Y-321910000D03*
X36240000Y-316910000D03*
X34740000Y-321910000D03*
X36240000Y-321910000D03*
X35490000Y-321910000D03*
X30240000Y-321910000D03*
X30240000Y-316910000D03*
X35490000Y-316910000D03*
X29490000Y-321910000D03*
X28740000Y-321910000D03*
%TD*%
D32*
%TO.C,C3*%
X372800000Y-125185000D03*
X375750000Y-125185000D03*
%TD*%
D22*
%TO.C,C1*%
X408558000Y-117320000D03*
X408558000Y-115770000D03*
%TD*%
D32*
%TO.C,C3*%
X372800000Y-21185000D03*
X375750000Y-21185000D03*
%TD*%
D20*
%TO.C,Q3*%
X434625000Y-19635000D03*
X434625000Y-18985000D03*
X434625000Y-18335000D03*
X432725000Y-18335000D03*
X432725000Y-18985000D03*
X432725000Y-19635000D03*
%TD*%
D19*
%TO.C,SC6*%
X432320000Y-167014000D03*
X423320000Y-167014000D03*
%TD*%
D11*
%TO.C,H6*%
X89550000Y-106410000D03*
D12*
X89550000Y-106410000D03*
%TD*%
D13*
%TO.C,R22*%
X420433000Y-228356000D03*
X422083000Y-228356000D03*
%TD*%
D12*
%TO.C,TP5*%
X388582000Y-385429998D03*
X396202000Y-385429998D03*
%TD*%
%TO.C,H27*%
X437536000Y-324259997D03*
D11*
X437536000Y-324259997D03*
%TD*%
D12*
%TO.C,TP2*%
X127590000Y-281530000D03*
X135210000Y-281530000D03*
%TD*%
D19*
%TO.C,SC2*%
X365662000Y-72320000D03*
X374662000Y-72320000D03*
%TD*%
D11*
%TO.C,H17*%
X225042000Y-106309998D03*
D12*
X225042000Y-106309998D03*
%TD*%
%TO.C,H3*%
X89550000Y-220410000D03*
D11*
X89550000Y-220410000D03*
%TD*%
D21*
%TO.C,mouse-bite-13*%
X383476000Y-212759997D03*
X384226000Y-212759997D03*
X383476000Y-217759997D03*
X382726000Y-217759997D03*
X380476000Y-217759997D03*
X377476000Y-217759997D03*
X381976000Y-217759997D03*
X380476000Y-212759997D03*
X383476000Y-217759997D03*
X378226000Y-212759997D03*
X381226000Y-212759997D03*
X376726000Y-212759997D03*
X379726000Y-217759997D03*
X379726000Y-212759997D03*
X376726000Y-217759997D03*
X382726000Y-212759997D03*
X381976000Y-212759997D03*
X378976000Y-217759997D03*
X381226000Y-217759997D03*
X378226000Y-217759997D03*
X377476000Y-212759997D03*
X383476000Y-212759997D03*
X378976000Y-212759997D03*
X384226000Y-217759997D03*
%TD*%
D29*
%TO.C,R18*%
X376200000Y-339035000D03*
X376200000Y-340685000D03*
%TD*%
D21*
%TO.C,mouse-bite-8*%
X184046000Y-305139999D03*
X179046000Y-302139999D03*
X179046000Y-301389999D03*
X179046000Y-304389999D03*
X184046000Y-302139999D03*
X184046000Y-298389999D03*
X179046000Y-300639999D03*
X184046000Y-301389999D03*
X179046000Y-299889999D03*
X179046000Y-298389999D03*
X184046000Y-304389999D03*
X179046000Y-297639999D03*
X179046000Y-305139999D03*
X184046000Y-302889999D03*
X179046000Y-303639999D03*
X179046000Y-302889999D03*
X179046000Y-304389999D03*
X184046000Y-303639999D03*
X184046000Y-299139999D03*
X184046000Y-300639999D03*
X184046000Y-297639999D03*
X184046000Y-299889999D03*
X184046000Y-304389999D03*
X179046000Y-299139999D03*
%TD*%
%TO.C,mouse-bite-14*%
X421386000Y-321759997D03*
X420636000Y-316759997D03*
X413886000Y-321759997D03*
X417636000Y-321759997D03*
X416136000Y-316759997D03*
X415386000Y-321759997D03*
X416886000Y-321759997D03*
X420636000Y-321759997D03*
X416136000Y-321759997D03*
X413886000Y-316759997D03*
X416886000Y-316759997D03*
X415386000Y-316759997D03*
X420636000Y-316759997D03*
X418386000Y-316759997D03*
X420636000Y-321759997D03*
X419136000Y-321759997D03*
X414636000Y-321759997D03*
X419136000Y-316759997D03*
X419886000Y-321759997D03*
X417636000Y-316759997D03*
X419886000Y-316759997D03*
X414636000Y-316759997D03*
X418386000Y-321759997D03*
X421386000Y-316759997D03*
%TD*%
D33*
%TO.C,U2*%
X366965000Y-229313000D03*
X368235000Y-229313000D03*
X369505000Y-229313000D03*
X370775000Y-229313000D03*
X370775000Y-224013000D03*
X369505000Y-224013000D03*
X368235000Y-224013000D03*
X366965000Y-224013000D03*
D34*
X368870000Y-226663000D03*
%TD*%
D21*
%TO.C,mouse-bite-2*%
X266042000Y-25969998D03*
X266042000Y-22219998D03*
X266042000Y-20719998D03*
X271042000Y-22969998D03*
X266042000Y-22969998D03*
X271042000Y-23719998D03*
X271042000Y-25969998D03*
X266042000Y-26719998D03*
X266042000Y-25969998D03*
X266042000Y-19969998D03*
X266042000Y-19219998D03*
X271042000Y-21469998D03*
X271042000Y-19219998D03*
X271042000Y-26719998D03*
X271042000Y-22219998D03*
X266042000Y-21469998D03*
X271042000Y-24469998D03*
X266042000Y-25219998D03*
X271042000Y-20719998D03*
X271042000Y-19969998D03*
X266042000Y-24469998D03*
X266042000Y-23719998D03*
X271042000Y-25219998D03*
X271042000Y-25969998D03*
%TD*%
D14*
%TO.C,R12*%
X432975000Y-12360000D03*
X431325000Y-12360000D03*
%TD*%
D21*
%TO.C,mouse-bite-2*%
X266042000Y-337969998D03*
X266042000Y-334219998D03*
X266042000Y-332719998D03*
X271042000Y-334969998D03*
X266042000Y-334969998D03*
X271042000Y-335719998D03*
X271042000Y-337969998D03*
X266042000Y-338719998D03*
X266042000Y-337969998D03*
X266042000Y-331969998D03*
X266042000Y-331219998D03*
X271042000Y-333469998D03*
X271042000Y-331219998D03*
X271042000Y-338719998D03*
X271042000Y-334219998D03*
X266042000Y-333469998D03*
X271042000Y-336469998D03*
X266042000Y-337219998D03*
X271042000Y-332719998D03*
X271042000Y-331969998D03*
X266042000Y-336469998D03*
X266042000Y-335719998D03*
X271042000Y-337219998D03*
X271042000Y-337969998D03*
%TD*%
D29*
%TO.C,R8*%
X363625000Y-229885000D03*
X363625000Y-231535000D03*
%TD*%
D12*
%TO.C,H4*%
X12550000Y-418410000D03*
D11*
X12550000Y-418410000D03*
%TD*%
D13*
%TO.C,R22*%
X420433000Y-124356000D03*
X422083000Y-124356000D03*
%TD*%
D26*
%TO.C,D3*%
X383720000Y-376110000D03*
X383720000Y-380110000D03*
%TD*%
D31*
%TO.C,Q2*%
X415325000Y-220010000D03*
X414675000Y-220010000D03*
X414025000Y-220010000D03*
X414025000Y-221910000D03*
X414675000Y-221910000D03*
X415325000Y-221910000D03*
%TD*%
D26*
%TO.C,D4*%
X383700000Y-383450000D03*
X383700000Y-387450000D03*
%TD*%
D11*
%TO.C,H18*%
X263542000Y-106309998D03*
D12*
X263542000Y-106309998D03*
%TD*%
%TO.C,H22*%
X273538000Y-210259997D03*
D11*
X273538000Y-210259997D03*
%TD*%
%TO.C,H20*%
X312038000Y-12259997D03*
D12*
X312038000Y-12259997D03*
%TD*%
D15*
%TO.C,J4*%
X206542000Y-12309998D03*
D16*
X204002000Y-12309998D03*
X201462000Y-12309998D03*
X198922000Y-12309998D03*
X196382000Y-12309998D03*
X193842000Y-12309998D03*
%TD*%
D18*
%TO.C,R5*%
X406780000Y-13370000D03*
X406780000Y-11720000D03*
%TD*%
%TO.C,R3*%
X421004000Y-221370000D03*
X421004000Y-219720000D03*
%TD*%
D14*
%TO.C,R15*%
X432975000Y-119916000D03*
X431325000Y-119916000D03*
%TD*%
D33*
%TO.C,U2*%
X366965000Y-21313000D03*
X368235000Y-21313000D03*
X369505000Y-21313000D03*
X370775000Y-21313000D03*
X370775000Y-16013000D03*
X369505000Y-16013000D03*
X368235000Y-16013000D03*
X366965000Y-16013000D03*
D34*
X368870000Y-18663000D03*
%TD*%
D21*
%TO.C,mouse-bite-14*%
X421386000Y-113759997D03*
X420636000Y-108759997D03*
X413886000Y-113759997D03*
X417636000Y-113759997D03*
X416136000Y-108759997D03*
X415386000Y-113759997D03*
X416886000Y-113759997D03*
X420636000Y-113759997D03*
X416136000Y-113759997D03*
X413886000Y-108759997D03*
X416886000Y-108759997D03*
X415386000Y-108759997D03*
X420636000Y-108759997D03*
X418386000Y-108759997D03*
X420636000Y-113759997D03*
X419136000Y-113759997D03*
X414636000Y-113759997D03*
X419136000Y-108759997D03*
X419886000Y-113759997D03*
X417636000Y-108759997D03*
X419886000Y-108759997D03*
X414636000Y-108759997D03*
X418386000Y-113759997D03*
X421386000Y-108759997D03*
%TD*%
D19*
%TO.C,SC1*%
X374662000Y-167014000D03*
X365662000Y-167014000D03*
%TD*%
D12*
%TO.C,TP4*%
X301582000Y-385429998D03*
X309202000Y-385429998D03*
%TD*%
%TO.C,H3*%
X89550000Y-12410000D03*
D11*
X89550000Y-12410000D03*
%TD*%
D19*
%TO.C,SC5*%
X423320000Y-280320000D03*
X432320000Y-280320000D03*
%TD*%
D12*
%TO.C,TP1*%
X40594000Y-385580001D03*
X48214000Y-385580001D03*
%TD*%
D21*
%TO.C,mouse-bite-3*%
X358040000Y-233969998D03*
X353040000Y-233969998D03*
X358040000Y-230219998D03*
X358040000Y-228719998D03*
X353040000Y-231719998D03*
X353040000Y-227219998D03*
X358040000Y-234719998D03*
X358040000Y-230969998D03*
X358040000Y-233219998D03*
X358040000Y-227219998D03*
X358040000Y-227969998D03*
X358040000Y-231719998D03*
X353040000Y-233219998D03*
X353040000Y-227969998D03*
X353040000Y-228719998D03*
X353040000Y-232469998D03*
X353040000Y-230219998D03*
X358040000Y-232469998D03*
X353040000Y-229469998D03*
X353040000Y-230969998D03*
X353040000Y-233969998D03*
X353040000Y-234719998D03*
X358040000Y-233969998D03*
X358040000Y-229469998D03*
%TD*%
D12*
%TO.C,H22*%
X273538000Y-314259997D03*
D11*
X273538000Y-314259997D03*
%TD*%
D18*
%TO.C,R3*%
X421004000Y-13370000D03*
X421004000Y-11720000D03*
%TD*%
D19*
%TO.C,SC6*%
X432320000Y-375014000D03*
X423320000Y-375014000D03*
%TD*%
D12*
%TO.C,H12*%
X176546000Y-314359999D03*
D11*
X176546000Y-314359999D03*
%TD*%
D14*
%TO.C,R20*%
X422083000Y-127912000D03*
X420433000Y-127912000D03*
%TD*%
D32*
%TO.C,C4*%
X372800000Y-330645000D03*
X375750000Y-330645000D03*
%TD*%
D15*
%TO.C,J1*%
X32550000Y-324410000D03*
D16*
X30010000Y-324410000D03*
X27470000Y-324410000D03*
X24930000Y-324410000D03*
X22390000Y-324410000D03*
X19850000Y-324410000D03*
%TD*%
D29*
%TO.C,R1*%
X419226000Y-323720000D03*
X419226000Y-325370000D03*
%TD*%
D23*
%TO.C,D6*%
X432530000Y-29320000D03*
X436530000Y-29320000D03*
%TD*%
D28*
%TO.C,Q4*%
X434625000Y-231445000D03*
X434625000Y-230795000D03*
X434625000Y-230145000D03*
X432725000Y-230145000D03*
X432725000Y-230795000D03*
X432725000Y-231445000D03*
%TD*%
D13*
%TO.C,R16*%
X436525000Y-229660000D03*
X438175000Y-229660000D03*
%TD*%
D11*
%TO.C,H2*%
X51050000Y-12410000D03*
D12*
X51050000Y-12410000D03*
%TD*%
D11*
%TO.C,H6*%
X89550000Y-210410000D03*
D12*
X89550000Y-210410000D03*
%TD*%
D11*
%TO.C,H30*%
X437536000Y-314259997D03*
D12*
X437536000Y-314259997D03*
%TD*%
%TO.C,H15*%
X263542000Y-12309998D03*
D11*
X263542000Y-12309998D03*
%TD*%
D26*
%TO.C,D7*%
X414146000Y-283450000D03*
X414146000Y-279450000D03*
%TD*%
D11*
%TO.C,H10*%
X99546000Y-106359999D03*
D12*
X99546000Y-106359999D03*
%TD*%
D18*
%TO.C,R6*%
X405000000Y-325360000D03*
X405000000Y-323710000D03*
%TD*%
D26*
%TO.C,D1*%
X414146000Y-68110000D03*
X414146000Y-64110000D03*
%TD*%
D12*
%TO.C,H1*%
X12550000Y-12410000D03*
D11*
X12550000Y-12410000D03*
%TD*%
D23*
%TO.C,D2*%
X365150000Y-238235000D03*
X361150000Y-238235000D03*
%TD*%
D14*
%TO.C,R13*%
X434500000Y-233335000D03*
X432850000Y-233335000D03*
%TD*%
D11*
%TO.C,H29*%
X399036000Y-418259997D03*
D12*
X399036000Y-418259997D03*
%TD*%
D21*
%TO.C,mouse-bite-6*%
X358040000Y-403089998D03*
X353040000Y-409089998D03*
X358040000Y-402339998D03*
X358040000Y-403839998D03*
X353040000Y-406839998D03*
X353040000Y-403839998D03*
X358040000Y-405339998D03*
X358040000Y-406839998D03*
X358040000Y-406089998D03*
X353040000Y-401589998D03*
X358040000Y-408339998D03*
X358040000Y-408339998D03*
X358040000Y-409089998D03*
X353040000Y-404589998D03*
X353040000Y-406089998D03*
X353040000Y-403089998D03*
X353040000Y-408339998D03*
X353040000Y-402339998D03*
X358040000Y-401589998D03*
X358040000Y-407589998D03*
X353040000Y-408339998D03*
X353040000Y-407589998D03*
X353040000Y-405339998D03*
X358040000Y-404589998D03*
%TD*%
D12*
%TO.C,H11*%
X138046000Y-314359999D03*
D11*
X138046000Y-314359999D03*
%TD*%
D12*
%TO.C,TP3*%
X214586000Y-385479999D03*
X222206000Y-385479999D03*
%TD*%
D11*
%TO.C,H13*%
X186542000Y-324309998D03*
D12*
X186542000Y-324309998D03*
%TD*%
D18*
%TO.C,R10*%
X363625000Y-20233000D03*
X363625000Y-18583000D03*
%TD*%
D12*
%TO.C,H16*%
X186542000Y-418309998D03*
D11*
X186542000Y-418309998D03*
%TD*%
D12*
%TO.C,H9*%
X176546000Y-116359999D03*
D11*
X176546000Y-116359999D03*
%TD*%
D21*
%TO.C,mouse-bite-8*%
X184046000Y-201139999D03*
X179046000Y-198139999D03*
X179046000Y-197389999D03*
X179046000Y-200389999D03*
X184046000Y-198139999D03*
X184046000Y-194389999D03*
X179046000Y-196639999D03*
X184046000Y-197389999D03*
X179046000Y-195889999D03*
X179046000Y-194389999D03*
X184046000Y-200389999D03*
X179046000Y-193639999D03*
X179046000Y-201139999D03*
X184046000Y-198889999D03*
X179046000Y-199639999D03*
X179046000Y-198889999D03*
X179046000Y-200389999D03*
X184046000Y-199639999D03*
X184046000Y-195139999D03*
X184046000Y-196639999D03*
X184046000Y-193639999D03*
X184046000Y-195889999D03*
X184046000Y-200389999D03*
X179046000Y-195139999D03*
%TD*%
%TO.C,mouse-bite-12*%
X332888000Y-212759997D03*
X332138000Y-217759997D03*
X331388000Y-217759997D03*
X326888000Y-217759997D03*
X329138000Y-212759997D03*
X330638000Y-217759997D03*
X330638000Y-212759997D03*
X334388000Y-212759997D03*
X329888000Y-217759997D03*
X332138000Y-212759997D03*
X333638000Y-217759997D03*
X333638000Y-217759997D03*
X329138000Y-217759997D03*
X332888000Y-217759997D03*
X329888000Y-212759997D03*
X326888000Y-212759997D03*
X331388000Y-212759997D03*
X327638000Y-217759997D03*
X328388000Y-212759997D03*
X333638000Y-212759997D03*
X327638000Y-212759997D03*
X333638000Y-212759997D03*
X334388000Y-217759997D03*
X328388000Y-217759997D03*
%TD*%
D29*
%TO.C,R18*%
X376200000Y-131035000D03*
X376200000Y-132685000D03*
%TD*%
D17*
%TO.C,C2*%
X436575000Y-23438000D03*
X438125000Y-23438000D03*
%TD*%
D21*
%TO.C,mouse-bite-3*%
X358040000Y-25969998D03*
X353040000Y-25969998D03*
X358040000Y-22219998D03*
X358040000Y-20719998D03*
X353040000Y-23719998D03*
X353040000Y-19219998D03*
X358040000Y-26719998D03*
X358040000Y-22969998D03*
X358040000Y-25219998D03*
X358040000Y-19219998D03*
X358040000Y-19969998D03*
X358040000Y-23719998D03*
X353040000Y-25219998D03*
X353040000Y-19969998D03*
X353040000Y-20719998D03*
X353040000Y-24469998D03*
X353040000Y-22219998D03*
X358040000Y-24469998D03*
X353040000Y-21469998D03*
X353040000Y-22969998D03*
X353040000Y-25969998D03*
X353040000Y-26719998D03*
X358040000Y-25969998D03*
X358040000Y-21469998D03*
%TD*%
D35*
%TO.C,U1*%
X368870000Y-25267000D03*
%TD*%
D13*
%TO.C,R16*%
X436525000Y-333660000D03*
X438175000Y-333660000D03*
%TD*%
D12*
%TO.C,TP2*%
X127590000Y-177530000D03*
X135210000Y-177530000D03*
%TD*%
D32*
%TO.C,C4*%
X372800000Y-18645000D03*
X375750000Y-18645000D03*
%TD*%
D21*
%TO.C,mouse-bite-7*%
X92050000Y-304440000D03*
X97050000Y-301440000D03*
X92050000Y-302940000D03*
X97050000Y-297690000D03*
X92050000Y-302190000D03*
X97050000Y-299190000D03*
X92050000Y-305190000D03*
X92050000Y-299940000D03*
X97050000Y-305190000D03*
X97050000Y-300690000D03*
X97050000Y-298440000D03*
X97050000Y-303690000D03*
X97050000Y-304440000D03*
X92050000Y-304440000D03*
X92050000Y-298440000D03*
X92050000Y-301440000D03*
X97050000Y-304440000D03*
X92050000Y-299190000D03*
X97050000Y-302940000D03*
X97050000Y-302190000D03*
X92050000Y-297690000D03*
X97050000Y-299940000D03*
X92050000Y-303690000D03*
X92050000Y-300690000D03*
%TD*%
D11*
%TO.C,H2*%
X51050000Y-116410000D03*
D12*
X51050000Y-116410000D03*
%TD*%
D23*
%TO.C,D6*%
X432530000Y-237320000D03*
X436530000Y-237320000D03*
%TD*%
D12*
%TO.C,H12*%
X176546000Y-418359999D03*
D11*
X176546000Y-418359999D03*
%TD*%
D18*
%TO.C,R2*%
X417194000Y-221370000D03*
X417194000Y-219720000D03*
%TD*%
D19*
%TO.C,SC4*%
X386020000Y-238420000D03*
X386020000Y-229420000D03*
%TD*%
D11*
%TO.C,H19*%
X273538000Y-220259997D03*
D12*
X273538000Y-220259997D03*
%TD*%
D21*
%TO.C,mouse-bite-11*%
X296478000Y-321759997D03*
X291978000Y-321759997D03*
X290478000Y-316759997D03*
X294228000Y-316759997D03*
X292728000Y-316759997D03*
X293478000Y-321759997D03*
X291228000Y-316759997D03*
X292728000Y-321759997D03*
X296478000Y-316759997D03*
X291978000Y-316759997D03*
X297228000Y-316759997D03*
X294978000Y-316759997D03*
X289728000Y-321759997D03*
X294978000Y-321759997D03*
X289728000Y-316759997D03*
X293478000Y-316759997D03*
X295728000Y-321759997D03*
X297228000Y-321759997D03*
X296478000Y-321759997D03*
X295728000Y-316759997D03*
X290478000Y-321759997D03*
X291228000Y-321759997D03*
X296478000Y-316759997D03*
X294228000Y-321759997D03*
%TD*%
D23*
%TO.C,D2*%
X365150000Y-30235000D03*
X361150000Y-30235000D03*
%TD*%
D11*
%TO.C,H30*%
X437536000Y-210259997D03*
D12*
X437536000Y-210259997D03*
%TD*%
D21*
%TO.C,mouse-bite-17*%
X115736000Y-321859999D03*
X117986000Y-316859999D03*
X120236000Y-316859999D03*
X122486000Y-316859999D03*
X122486000Y-321859999D03*
X115736000Y-316859999D03*
X119486000Y-321859999D03*
X120236000Y-321859999D03*
X120986000Y-321859999D03*
X121736000Y-316859999D03*
X117236000Y-321859999D03*
X123236000Y-316859999D03*
X116486000Y-321859999D03*
X120986000Y-316859999D03*
X118736000Y-321859999D03*
X116486000Y-316859999D03*
X118736000Y-316859999D03*
X123236000Y-321859999D03*
X121736000Y-321859999D03*
X117986000Y-321859999D03*
X117236000Y-316859999D03*
X119486000Y-316859999D03*
X122486000Y-321859999D03*
X122486000Y-316859999D03*
%TD*%
D29*
%TO.C,R17*%
X374400000Y-339035000D03*
X374400000Y-340685000D03*
%TD*%
D21*
%TO.C,mouse-bite-12*%
X332888000Y-316759997D03*
X332138000Y-321759997D03*
X331388000Y-321759997D03*
X326888000Y-321759997D03*
X329138000Y-316759997D03*
X330638000Y-321759997D03*
X330638000Y-316759997D03*
X334388000Y-316759997D03*
X329888000Y-321759997D03*
X332138000Y-316759997D03*
X333638000Y-321759997D03*
X333638000Y-321759997D03*
X329138000Y-321759997D03*
X332888000Y-321759997D03*
X329888000Y-316759997D03*
X326888000Y-316759997D03*
X331388000Y-316759997D03*
X327638000Y-321759997D03*
X328388000Y-316759997D03*
X333638000Y-316759997D03*
X327638000Y-316759997D03*
X333638000Y-316759997D03*
X334388000Y-321759997D03*
X328388000Y-321759997D03*
%TD*%
D27*
%TO.C,Q1*%
X410448000Y-117760000D03*
X411098000Y-117760000D03*
X411748000Y-117760000D03*
X411748000Y-115860000D03*
X411098000Y-115860000D03*
X410448000Y-115860000D03*
%TD*%
D26*
%TO.C,D1*%
X414146000Y-276110000D03*
X414146000Y-272110000D03*
%TD*%
D11*
%TO.C,H29*%
X399036000Y-106259997D03*
D12*
X399036000Y-106259997D03*
%TD*%
D11*
%TO.C,H13*%
X186542000Y-12309998D03*
D12*
X186542000Y-12309998D03*
%TD*%
D11*
%TO.C,H8*%
X138046000Y-12359999D03*
D12*
X138046000Y-12359999D03*
%TD*%
D26*
%TO.C,D1*%
X414146000Y-380110000D03*
X414146000Y-376110000D03*
%TD*%
D18*
%TO.C,R2*%
X417194000Y-325370000D03*
X417194000Y-323720000D03*
%TD*%
D21*
%TO.C,mouse-bite-13*%
X383476000Y-108759997D03*
X384226000Y-108759997D03*
X383476000Y-113759997D03*
X382726000Y-113759997D03*
X380476000Y-113759997D03*
X377476000Y-113759997D03*
X381976000Y-113759997D03*
X380476000Y-108759997D03*
X383476000Y-113759997D03*
X378226000Y-108759997D03*
X381226000Y-108759997D03*
X376726000Y-108759997D03*
X379726000Y-113759997D03*
X379726000Y-108759997D03*
X376726000Y-113759997D03*
X382726000Y-108759997D03*
X381976000Y-108759997D03*
X378976000Y-113759997D03*
X381226000Y-113759997D03*
X378226000Y-113759997D03*
X377476000Y-108759997D03*
X383476000Y-108759997D03*
X378976000Y-108759997D03*
X384226000Y-113759997D03*
%TD*%
D13*
%TO.C,R22*%
X420433000Y-20356000D03*
X422083000Y-20356000D03*
%TD*%
D30*
%TO.C,C5*%
X375750000Y-328110000D03*
X372800000Y-328110000D03*
%TD*%
D13*
%TO.C,R7*%
X436522000Y-19879000D03*
X438172000Y-19879000D03*
%TD*%
D15*
%TO.C,J6*%
X380536000Y-116259997D03*
D16*
X377996000Y-116259997D03*
X375456000Y-116259997D03*
X372916000Y-116259997D03*
X370376000Y-116259997D03*
X367836000Y-116259997D03*
%TD*%
D11*
%TO.C,H19*%
X273538000Y-324259997D03*
D12*
X273538000Y-324259997D03*
%TD*%
D20*
%TO.C,Q3*%
X434625000Y-227635000D03*
X434625000Y-226985000D03*
X434625000Y-226335000D03*
X432725000Y-226335000D03*
X432725000Y-226985000D03*
X432725000Y-227635000D03*
%TD*%
D11*
%TO.C,H20*%
X312038000Y-220259997D03*
D12*
X312038000Y-220259997D03*
%TD*%
D11*
%TO.C,H20*%
X312038000Y-116259997D03*
D12*
X312038000Y-116259997D03*
%TD*%
D21*
%TO.C,mouse-bite-5*%
X271042000Y-94089998D03*
X266042000Y-91089998D03*
X266042000Y-93339998D03*
X266042000Y-90339998D03*
X271042000Y-94839998D03*
X271042000Y-96339998D03*
X271042000Y-93339998D03*
X266042000Y-95589998D03*
X271042000Y-92589998D03*
X266042000Y-94839998D03*
X271042000Y-90339998D03*
X266042000Y-91839998D03*
X266042000Y-96339998D03*
X271042000Y-97089998D03*
X266042000Y-97089998D03*
X266042000Y-96339998D03*
X266042000Y-94089998D03*
X271042000Y-95589998D03*
X271042000Y-89589998D03*
X271042000Y-91839998D03*
X266042000Y-89589998D03*
X271042000Y-91089998D03*
X266042000Y-92589998D03*
X271042000Y-96339998D03*
%TD*%
%TO.C,mouse-bite-1*%
X184046000Y-332769999D03*
X184046000Y-335019999D03*
X184046000Y-334269999D03*
X184046000Y-337269999D03*
X184046000Y-335769999D03*
X179046000Y-338019999D03*
X179046000Y-335019999D03*
X184046000Y-338019999D03*
X179046000Y-332019999D03*
X179046000Y-336519999D03*
X184046000Y-338019999D03*
X184046000Y-333519999D03*
X179046000Y-334269999D03*
X184046000Y-338769999D03*
X184046000Y-336519999D03*
X179046000Y-333519999D03*
X179046000Y-331269999D03*
X184046000Y-331269999D03*
X184046000Y-332019999D03*
X179046000Y-338769999D03*
X179046000Y-337269999D03*
X179046000Y-335769999D03*
X179046000Y-332769999D03*
X179046000Y-338019999D03*
%TD*%
D15*
%TO.C,J6*%
X380536000Y-12259997D03*
D16*
X377996000Y-12259997D03*
X375456000Y-12259997D03*
X372916000Y-12259997D03*
X370376000Y-12259997D03*
X367836000Y-12259997D03*
%TD*%
D21*
%TO.C,mouse-bite-3*%
X358040000Y-337969998D03*
X353040000Y-337969998D03*
X358040000Y-334219998D03*
X358040000Y-332719998D03*
X353040000Y-335719998D03*
X353040000Y-331219998D03*
X358040000Y-338719998D03*
X358040000Y-334969998D03*
X358040000Y-337219998D03*
X358040000Y-331219998D03*
X358040000Y-331969998D03*
X358040000Y-335719998D03*
X353040000Y-337219998D03*
X353040000Y-331969998D03*
X353040000Y-332719998D03*
X353040000Y-336469998D03*
X353040000Y-334219998D03*
X358040000Y-336469998D03*
X353040000Y-333469998D03*
X353040000Y-334969998D03*
X353040000Y-337969998D03*
X353040000Y-338719998D03*
X358040000Y-337969998D03*
X358040000Y-333469998D03*
%TD*%
%TO.C,mouse-bite-6*%
X358040000Y-299089998D03*
X353040000Y-305089998D03*
X358040000Y-298339998D03*
X358040000Y-299839998D03*
X353040000Y-302839998D03*
X353040000Y-299839998D03*
X358040000Y-301339998D03*
X358040000Y-302839998D03*
X358040000Y-302089998D03*
X353040000Y-297589998D03*
X358040000Y-304339998D03*
X358040000Y-304339998D03*
X358040000Y-305089998D03*
X353040000Y-300589998D03*
X353040000Y-302089998D03*
X353040000Y-299089998D03*
X353040000Y-304339998D03*
X353040000Y-298339998D03*
X358040000Y-297589998D03*
X358040000Y-303589998D03*
X353040000Y-304339998D03*
X353040000Y-303589998D03*
X353040000Y-301339998D03*
X358040000Y-300589998D03*
%TD*%
D29*
%TO.C,R4*%
X422782000Y-115720000D03*
X422782000Y-117370000D03*
%TD*%
D12*
%TO.C,H24*%
X350538000Y-418259997D03*
D11*
X350538000Y-418259997D03*
%TD*%
D29*
%TO.C,R4*%
X422782000Y-219720000D03*
X422782000Y-221370000D03*
%TD*%
D12*
%TO.C,H4*%
X12550000Y-314410000D03*
D11*
X12550000Y-314410000D03*
%TD*%
D29*
%TO.C,R9*%
X363625000Y-232933000D03*
X363625000Y-234583000D03*
%TD*%
D19*
%TO.C,SC3*%
X385970000Y-304340000D03*
X385970000Y-295340000D03*
%TD*%
D14*
%TO.C,R15*%
X432975000Y-223916000D03*
X431325000Y-223916000D03*
%TD*%
D11*
%TO.C,H21*%
X350538000Y-220259997D03*
D12*
X350538000Y-220259997D03*
%TD*%
D11*
%TO.C,H17*%
X225042000Y-210309998D03*
D12*
X225042000Y-210309998D03*
%TD*%
D11*
%TO.C,H19*%
X273538000Y-12259997D03*
D12*
X273538000Y-12259997D03*
%TD*%
D21*
%TO.C,mouse-bite-16*%
X72650000Y-217910000D03*
X68150000Y-212910000D03*
X71150000Y-212910000D03*
X68900000Y-217910000D03*
X69650000Y-212910000D03*
X71900000Y-212910000D03*
X71900000Y-217910000D03*
X68150000Y-217910000D03*
X65900000Y-217910000D03*
X66650000Y-217910000D03*
X70400000Y-212910000D03*
X71150000Y-217910000D03*
X73400000Y-212910000D03*
X69650000Y-217910000D03*
X72650000Y-217910000D03*
X66650000Y-212910000D03*
X70400000Y-217910000D03*
X73400000Y-217910000D03*
X68900000Y-212910000D03*
X67400000Y-212910000D03*
X72650000Y-212910000D03*
X65900000Y-212910000D03*
X72650000Y-212910000D03*
X67400000Y-217910000D03*
%TD*%
D26*
%TO.C,D1*%
X414146000Y-172110000D03*
X414146000Y-168110000D03*
%TD*%
D15*
%TO.C,J3*%
X119546000Y-116359999D03*
D16*
X117006000Y-116359999D03*
X114466000Y-116359999D03*
X111926000Y-116359999D03*
X109386000Y-116359999D03*
X106846000Y-116359999D03*
%TD*%
D11*
%TO.C,H23*%
X312038000Y-106259997D03*
D12*
X312038000Y-106259997D03*
%TD*%
D22*
%TO.C,C1*%
X408558000Y-13320000D03*
X408558000Y-11770000D03*
%TD*%
D21*
%TO.C,mouse-bite-6*%
X358040000Y-91089998D03*
X353040000Y-97089998D03*
X358040000Y-90339998D03*
X358040000Y-91839998D03*
X353040000Y-94839998D03*
X353040000Y-91839998D03*
X358040000Y-93339998D03*
X358040000Y-94839998D03*
X358040000Y-94089998D03*
X353040000Y-89589998D03*
X358040000Y-96339998D03*
X358040000Y-96339998D03*
X358040000Y-97089998D03*
X353040000Y-92589998D03*
X353040000Y-94089998D03*
X353040000Y-91089998D03*
X353040000Y-96339998D03*
X353040000Y-90339998D03*
X358040000Y-89589998D03*
X358040000Y-95589998D03*
X353040000Y-96339998D03*
X353040000Y-95589998D03*
X353040000Y-93339998D03*
X358040000Y-92589998D03*
%TD*%
%TO.C,mouse-bite-15*%
X33240000Y-212910000D03*
X33240000Y-217910000D03*
X32490000Y-212910000D03*
X35490000Y-212910000D03*
X30990000Y-217910000D03*
X33990000Y-217910000D03*
X33990000Y-212910000D03*
X32490000Y-217910000D03*
X35490000Y-217910000D03*
X29490000Y-212910000D03*
X34740000Y-212910000D03*
X31740000Y-212910000D03*
X30990000Y-212910000D03*
X28740000Y-212910000D03*
X31740000Y-217910000D03*
X36240000Y-212910000D03*
X34740000Y-217910000D03*
X36240000Y-217910000D03*
X35490000Y-217910000D03*
X30240000Y-217910000D03*
X30240000Y-212910000D03*
X35490000Y-212910000D03*
X29490000Y-217910000D03*
X28740000Y-217910000D03*
%TD*%
D29*
%TO.C,R9*%
X363625000Y-336933000D03*
X363625000Y-338583000D03*
%TD*%
D31*
%TO.C,Q2*%
X415325000Y-324010000D03*
X414675000Y-324010000D03*
X414025000Y-324010000D03*
X414025000Y-325910000D03*
X414675000Y-325910000D03*
X415325000Y-325910000D03*
%TD*%
D12*
%TO.C,H1*%
X12550000Y-324410000D03*
D11*
X12550000Y-324410000D03*
%TD*%
D12*
%TO.C,H27*%
X437536000Y-220259997D03*
D11*
X437536000Y-220259997D03*
%TD*%
D26*
%TO.C,D5*%
X378960000Y-237890000D03*
X378960000Y-233890000D03*
%TD*%
D11*
%TO.C,H6*%
X89550000Y-314410000D03*
D12*
X89550000Y-314410000D03*
%TD*%
D35*
%TO.C,U1*%
X368870000Y-233267000D03*
%TD*%
D29*
%TO.C,R8*%
X363625000Y-21885000D03*
X363625000Y-23535000D03*
%TD*%
D12*
%TO.C,H11*%
X138046000Y-418359999D03*
D11*
X138046000Y-418359999D03*
%TD*%
D22*
%TO.C,C1*%
X408558000Y-221320000D03*
X408558000Y-219770000D03*
%TD*%
D11*
%TO.C,H5*%
X51050000Y-106410000D03*
D12*
X51050000Y-106410000D03*
%TD*%
D29*
%TO.C,R8*%
X363625000Y-125885000D03*
X363625000Y-127535000D03*
%TD*%
D21*
%TO.C,mouse-bite-4*%
X92050000Y-334320000D03*
X92050000Y-331320000D03*
X92050000Y-336570000D03*
X97050000Y-335070000D03*
X97050000Y-333570000D03*
X92050000Y-335070000D03*
X97050000Y-337320000D03*
X92050000Y-332820000D03*
X92050000Y-338070000D03*
X97050000Y-338070000D03*
X97050000Y-334320000D03*
X97050000Y-336570000D03*
X92050000Y-338070000D03*
X92050000Y-332070000D03*
X97050000Y-332820000D03*
X97050000Y-331320000D03*
X97050000Y-335820000D03*
X97050000Y-338070000D03*
X97050000Y-338820000D03*
X92050000Y-333570000D03*
X92050000Y-338820000D03*
X92050000Y-335820000D03*
X97050000Y-332070000D03*
X92050000Y-337320000D03*
%TD*%
D11*
%TO.C,H23*%
X312038000Y-210259997D03*
D12*
X312038000Y-210259997D03*
%TD*%
D14*
%TO.C,R20*%
X422083000Y-231912000D03*
X420433000Y-231912000D03*
%TD*%
D21*
%TO.C,mouse-bite-4*%
X92050000Y-126320000D03*
X92050000Y-123320000D03*
X92050000Y-128570000D03*
X97050000Y-127070000D03*
X97050000Y-125570000D03*
X92050000Y-127070000D03*
X97050000Y-129320000D03*
X92050000Y-124820000D03*
X92050000Y-130070000D03*
X97050000Y-130070000D03*
X97050000Y-126320000D03*
X97050000Y-128570000D03*
X92050000Y-130070000D03*
X92050000Y-124070000D03*
X97050000Y-124820000D03*
X97050000Y-123320000D03*
X97050000Y-127820000D03*
X97050000Y-130070000D03*
X97050000Y-130820000D03*
X92050000Y-125570000D03*
X92050000Y-130820000D03*
X92050000Y-127820000D03*
X97050000Y-124070000D03*
X92050000Y-129320000D03*
%TD*%
D18*
%TO.C,R11*%
X363625000Y-121185000D03*
X363625000Y-119535000D03*
%TD*%
D29*
%TO.C,R1*%
X419226000Y-115720000D03*
X419226000Y-117370000D03*
%TD*%
D18*
%TO.C,R3*%
X421004000Y-117370000D03*
X421004000Y-115720000D03*
%TD*%
%TO.C,R5*%
X406780000Y-117370000D03*
X406780000Y-115720000D03*
%TD*%
D12*
%TO.C,H1*%
X12550000Y-220410000D03*
D11*
X12550000Y-220410000D03*
%TD*%
%TO.C,H8*%
X138046000Y-324359999D03*
D12*
X138046000Y-324359999D03*
%TD*%
D14*
%TO.C,R12*%
X432975000Y-116360000D03*
X431325000Y-116360000D03*
%TD*%
D15*
%TO.C,J1*%
X32550000Y-116410000D03*
D16*
X30010000Y-116410000D03*
X27470000Y-116410000D03*
X24930000Y-116410000D03*
X22390000Y-116410000D03*
X19850000Y-116410000D03*
%TD*%
D11*
%TO.C,H23*%
X312038000Y-418259997D03*
D12*
X312038000Y-418259997D03*
%TD*%
%TO.C,H28*%
X360536000Y-210259997D03*
D11*
X360536000Y-210259997D03*
%TD*%
D26*
%TO.C,D3*%
X383720000Y-64110000D03*
X383720000Y-68110000D03*
%TD*%
D12*
%TO.C,H15*%
X263542000Y-220309998D03*
D11*
X263542000Y-220309998D03*
%TD*%
D18*
%TO.C,R10*%
X363625000Y-228233000D03*
X363625000Y-226583000D03*
%TD*%
D19*
%TO.C,SC5*%
X423320000Y-176320000D03*
X432320000Y-176320000D03*
%TD*%
D21*
%TO.C,mouse-bite-5*%
X271042000Y-406089998D03*
X266042000Y-403089998D03*
X266042000Y-405339998D03*
X266042000Y-402339998D03*
X271042000Y-406839998D03*
X271042000Y-408339998D03*
X271042000Y-405339998D03*
X266042000Y-407589998D03*
X271042000Y-404589998D03*
X266042000Y-406839998D03*
X271042000Y-402339998D03*
X266042000Y-403839998D03*
X266042000Y-408339998D03*
X271042000Y-409089998D03*
X266042000Y-409089998D03*
X266042000Y-408339998D03*
X266042000Y-406089998D03*
X271042000Y-407589998D03*
X271042000Y-401589998D03*
X271042000Y-403839998D03*
X266042000Y-401589998D03*
X271042000Y-403089998D03*
X266042000Y-404589998D03*
X271042000Y-408339998D03*
%TD*%
D14*
%TO.C,R13*%
X434500000Y-25335000D03*
X432850000Y-25335000D03*
%TD*%
D19*
%TO.C,SC1*%
X374662000Y-63014000D03*
X365662000Y-63014000D03*
%TD*%
D22*
%TO.C,C1*%
X408558000Y-325320000D03*
X408558000Y-323770000D03*
%TD*%
D21*
%TO.C,mouse-bite-1*%
X184046000Y-20769999D03*
X184046000Y-23019999D03*
X184046000Y-22269999D03*
X184046000Y-25269999D03*
X184046000Y-23769999D03*
X179046000Y-26019999D03*
X179046000Y-23019999D03*
X184046000Y-26019999D03*
X179046000Y-20019999D03*
X179046000Y-24519999D03*
X184046000Y-26019999D03*
X184046000Y-21519999D03*
X179046000Y-22269999D03*
X184046000Y-26769999D03*
X184046000Y-24519999D03*
X179046000Y-21519999D03*
X179046000Y-19269999D03*
X184046000Y-19269999D03*
X184046000Y-20019999D03*
X179046000Y-26769999D03*
X179046000Y-25269999D03*
X179046000Y-23769999D03*
X179046000Y-20769999D03*
X179046000Y-26019999D03*
%TD*%
D12*
%TO.C,H11*%
X138046000Y-106359999D03*
D11*
X138046000Y-106359999D03*
%TD*%
D12*
%TO.C,H9*%
X176546000Y-220359999D03*
D11*
X176546000Y-220359999D03*
%TD*%
D21*
%TO.C,mouse-bite-10*%
X244392000Y-321809998D03*
X244392000Y-316809998D03*
X240642000Y-316809998D03*
X246642000Y-321809998D03*
X246642000Y-316809998D03*
X247392000Y-321809998D03*
X245892000Y-321809998D03*
X239892000Y-321809998D03*
X242892000Y-316809998D03*
X242142000Y-316809998D03*
X241392000Y-316809998D03*
X245142000Y-321809998D03*
X246642000Y-316809998D03*
X242142000Y-321809998D03*
X243642000Y-321809998D03*
X241392000Y-321809998D03*
X240642000Y-321809998D03*
X243642000Y-316809998D03*
X246642000Y-321809998D03*
X245892000Y-316809998D03*
X242892000Y-321809998D03*
X247392000Y-316809998D03*
X245142000Y-316809998D03*
X239892000Y-316809998D03*
%TD*%
D29*
%TO.C,R17*%
X374400000Y-27035000D03*
X374400000Y-28685000D03*
%TD*%
D11*
%TO.C,H21*%
X350538000Y-12259997D03*
D12*
X350538000Y-12259997D03*
%TD*%
D28*
%TO.C,Q4*%
X434625000Y-23445000D03*
X434625000Y-22795000D03*
X434625000Y-22145000D03*
X432725000Y-22145000D03*
X432725000Y-22795000D03*
X432725000Y-23445000D03*
%TD*%
D18*
%TO.C,R11*%
X363625000Y-225185000D03*
X363625000Y-223535000D03*
%TD*%
D35*
%TO.C,U1*%
X368870000Y-129267000D03*
%TD*%
D19*
%TO.C,SC4*%
X386020000Y-134420000D03*
X386020000Y-125420000D03*
%TD*%
D12*
%TO.C,H25*%
X360536000Y-116259997D03*
D11*
X360536000Y-116259997D03*
%TD*%
D32*
%TO.C,C3*%
X372800000Y-229185000D03*
X375750000Y-229185000D03*
%TD*%
D15*
%TO.C,J5*%
X293538000Y-324259997D03*
D16*
X290998000Y-324259997D03*
X288458000Y-324259997D03*
X285918000Y-324259997D03*
X283378000Y-324259997D03*
X280838000Y-324259997D03*
%TD*%
D29*
%TO.C,R17*%
X374400000Y-235035000D03*
X374400000Y-236685000D03*
%TD*%
D32*
%TO.C,C4*%
X372800000Y-122645000D03*
X375750000Y-122645000D03*
%TD*%
%TO.C,C4*%
X372800000Y-226645000D03*
X375750000Y-226645000D03*
%TD*%
D11*
%TO.C,H13*%
X186542000Y-116309998D03*
D12*
X186542000Y-116309998D03*
%TD*%
D15*
%TO.C,J5*%
X293538000Y-116259997D03*
D16*
X290998000Y-116259997D03*
X288458000Y-116259997D03*
X285918000Y-116259997D03*
X283378000Y-116259997D03*
X280838000Y-116259997D03*
%TD*%
D21*
%TO.C,mouse-bite-8*%
X184046000Y-97139999D03*
X179046000Y-94139999D03*
X179046000Y-93389999D03*
X179046000Y-96389999D03*
X184046000Y-94139999D03*
X184046000Y-90389999D03*
X179046000Y-92639999D03*
X184046000Y-93389999D03*
X179046000Y-91889999D03*
X179046000Y-90389999D03*
X184046000Y-96389999D03*
X179046000Y-89639999D03*
X179046000Y-97139999D03*
X184046000Y-94889999D03*
X179046000Y-95639999D03*
X179046000Y-94889999D03*
X179046000Y-96389999D03*
X184046000Y-95639999D03*
X184046000Y-91139999D03*
X184046000Y-92639999D03*
X184046000Y-89639999D03*
X184046000Y-91889999D03*
X184046000Y-96389999D03*
X179046000Y-91139999D03*
%TD*%
D12*
%TO.C,H16*%
X186542000Y-314309998D03*
D11*
X186542000Y-314309998D03*
%TD*%
D12*
%TO.C,TP3*%
X214586000Y-177479999D03*
X222206000Y-177479999D03*
%TD*%
D23*
%TO.C,D6*%
X432530000Y-341320000D03*
X436530000Y-341320000D03*
%TD*%
D28*
%TO.C,Q4*%
X434625000Y-127445000D03*
X434625000Y-126795000D03*
X434625000Y-126145000D03*
X432725000Y-126145000D03*
X432725000Y-126795000D03*
X432725000Y-127445000D03*
%TD*%
D14*
%TO.C,R20*%
X422083000Y-335912000D03*
X420433000Y-335912000D03*
%TD*%
D21*
%TO.C,mouse-bite-5*%
X271042000Y-302089998D03*
X266042000Y-299089998D03*
X266042000Y-301339998D03*
X266042000Y-298339998D03*
X271042000Y-302839998D03*
X271042000Y-304339998D03*
X271042000Y-301339998D03*
X266042000Y-303589998D03*
X271042000Y-300589998D03*
X266042000Y-302839998D03*
X271042000Y-298339998D03*
X266042000Y-299839998D03*
X266042000Y-304339998D03*
X271042000Y-305089998D03*
X266042000Y-305089998D03*
X266042000Y-304339998D03*
X266042000Y-302089998D03*
X271042000Y-303589998D03*
X271042000Y-297589998D03*
X271042000Y-299839998D03*
X266042000Y-297589998D03*
X271042000Y-299089998D03*
X266042000Y-300589998D03*
X271042000Y-304339998D03*
%TD*%
D19*
%TO.C,SC2*%
X365662000Y-384320000D03*
X374662000Y-384320000D03*
%TD*%
D21*
%TO.C,mouse-bite-17*%
X115736000Y-113859999D03*
X117986000Y-108859999D03*
X120236000Y-108859999D03*
X122486000Y-108859999D03*
X122486000Y-113859999D03*
X115736000Y-108859999D03*
X119486000Y-113859999D03*
X120236000Y-113859999D03*
X120986000Y-113859999D03*
X121736000Y-108859999D03*
X117236000Y-113859999D03*
X123236000Y-108859999D03*
X116486000Y-113859999D03*
X120986000Y-108859999D03*
X118736000Y-113859999D03*
X116486000Y-108859999D03*
X118736000Y-108859999D03*
X123236000Y-113859999D03*
X121736000Y-113859999D03*
X117986000Y-113859999D03*
X117236000Y-108859999D03*
X119486000Y-108859999D03*
X122486000Y-113859999D03*
X122486000Y-108859999D03*
%TD*%
D19*
%TO.C,SC6*%
X432320000Y-271014000D03*
X423320000Y-271014000D03*
%TD*%
%TO.C,SC5*%
X423320000Y-384320000D03*
X432320000Y-384320000D03*
%TD*%
D29*
%TO.C,R17*%
X374400000Y-131035000D03*
X374400000Y-132685000D03*
%TD*%
D15*
%TO.C,J6*%
X380536000Y-220259997D03*
D16*
X377996000Y-220259997D03*
X375456000Y-220259997D03*
X372916000Y-220259997D03*
X370376000Y-220259997D03*
X367836000Y-220259997D03*
%TD*%
D19*
%TO.C,SC5*%
X423320000Y-72320000D03*
X432320000Y-72320000D03*
%TD*%
D32*
%TO.C,C3*%
X372800000Y-333185000D03*
X375750000Y-333185000D03*
%TD*%
D13*
%TO.C,R19*%
X420433000Y-334134000D03*
X422083000Y-334134000D03*
%TD*%
D26*
%TO.C,D5*%
X378960000Y-133890000D03*
X378960000Y-129890000D03*
%TD*%
D12*
%TO.C,H3*%
X89550000Y-116410000D03*
D11*
X89550000Y-116410000D03*
%TD*%
D21*
%TO.C,mouse-bite-15*%
X33240000Y-108910000D03*
X33240000Y-113910000D03*
X32490000Y-108910000D03*
X35490000Y-108910000D03*
X30990000Y-113910000D03*
X33990000Y-113910000D03*
X33990000Y-108910000D03*
X32490000Y-113910000D03*
X35490000Y-113910000D03*
X29490000Y-108910000D03*
X34740000Y-108910000D03*
X31740000Y-108910000D03*
X30990000Y-108910000D03*
X28740000Y-108910000D03*
X31740000Y-113910000D03*
X36240000Y-108910000D03*
X34740000Y-113910000D03*
X36240000Y-113910000D03*
X35490000Y-113910000D03*
X30240000Y-113910000D03*
X30240000Y-108910000D03*
X35490000Y-108910000D03*
X29490000Y-113910000D03*
X28740000Y-113910000D03*
%TD*%
D13*
%TO.C,R19*%
X420433000Y-126134000D03*
X422083000Y-126134000D03*
%TD*%
%TO.C,R14*%
X431325000Y-326138000D03*
X432975000Y-326138000D03*
%TD*%
D12*
%TO.C,TP5*%
X388582000Y-281429998D03*
X396202000Y-281429998D03*
%TD*%
D26*
%TO.C,D4*%
X383700000Y-175450000D03*
X383700000Y-179450000D03*
%TD*%
D11*
%TO.C,H17*%
X225042000Y-314309998D03*
D12*
X225042000Y-314309998D03*
%TD*%
D19*
%TO.C,SC3*%
X385970000Y-200340000D03*
X385970000Y-191340000D03*
%TD*%
D12*
%TO.C,H28*%
X360536000Y-418259997D03*
D11*
X360536000Y-418259997D03*
%TD*%
D21*
%TO.C,mouse-bite-9*%
X207232000Y-217809998D03*
X209482000Y-217809998D03*
X208732000Y-217809998D03*
X210232000Y-212809998D03*
X202732000Y-212809998D03*
X208732000Y-212809998D03*
X204982000Y-217809998D03*
X207982000Y-217809998D03*
X204982000Y-212809998D03*
X210232000Y-217809998D03*
X205732000Y-217809998D03*
X209482000Y-212809998D03*
X206482000Y-212809998D03*
X204232000Y-217809998D03*
X205732000Y-212809998D03*
X209482000Y-212809998D03*
X207982000Y-212809998D03*
X204232000Y-212809998D03*
X207232000Y-212809998D03*
X203482000Y-217809998D03*
X209482000Y-217809998D03*
X202732000Y-217809998D03*
X203482000Y-212809998D03*
X206482000Y-217809998D03*
%TD*%
D15*
%TO.C,J1*%
X32550000Y-220410000D03*
D16*
X30010000Y-220410000D03*
X27470000Y-220410000D03*
X24930000Y-220410000D03*
X22390000Y-220410000D03*
X19850000Y-220410000D03*
%TD*%
D21*
%TO.C,mouse-bite-2*%
X266042000Y-233969998D03*
X266042000Y-230219998D03*
X266042000Y-228719998D03*
X271042000Y-230969998D03*
X266042000Y-230969998D03*
X271042000Y-231719998D03*
X271042000Y-233969998D03*
X266042000Y-234719998D03*
X266042000Y-233969998D03*
X266042000Y-227969998D03*
X266042000Y-227219998D03*
X271042000Y-229469998D03*
X271042000Y-227219998D03*
X271042000Y-234719998D03*
X271042000Y-230219998D03*
X266042000Y-229469998D03*
X271042000Y-232469998D03*
X266042000Y-233219998D03*
X271042000Y-228719998D03*
X271042000Y-227969998D03*
X266042000Y-232469998D03*
X266042000Y-231719998D03*
X271042000Y-233219998D03*
X271042000Y-233969998D03*
%TD*%
D12*
%TO.C,TP3*%
X214586000Y-73479999D03*
X222206000Y-73479999D03*
%TD*%
D15*
%TO.C,J4*%
X206542000Y-220309998D03*
D16*
X204002000Y-220309998D03*
X201462000Y-220309998D03*
X198922000Y-220309998D03*
X196382000Y-220309998D03*
X193842000Y-220309998D03*
%TD*%
D35*
%TO.C,U1*%
X368870000Y-337267000D03*
%TD*%
D29*
%TO.C,R4*%
X422782000Y-323720000D03*
X422782000Y-325370000D03*
%TD*%
D21*
%TO.C,mouse-bite-10*%
X244392000Y-217809998D03*
X244392000Y-212809998D03*
X240642000Y-212809998D03*
X246642000Y-217809998D03*
X246642000Y-212809998D03*
X247392000Y-217809998D03*
X245892000Y-217809998D03*
X239892000Y-217809998D03*
X242892000Y-212809998D03*
X242142000Y-212809998D03*
X241392000Y-212809998D03*
X245142000Y-217809998D03*
X246642000Y-212809998D03*
X242142000Y-217809998D03*
X243642000Y-217809998D03*
X241392000Y-217809998D03*
X240642000Y-217809998D03*
X243642000Y-212809998D03*
X246642000Y-217809998D03*
X245892000Y-212809998D03*
X242892000Y-217809998D03*
X247392000Y-212809998D03*
X245142000Y-212809998D03*
X239892000Y-212809998D03*
%TD*%
D12*
%TO.C,H25*%
X360536000Y-12259997D03*
D11*
X360536000Y-12259997D03*
%TD*%
D22*
%TO.C,C6*%
X426592000Y-226337000D03*
X426592000Y-224787000D03*
%TD*%
D26*
%TO.C,D3*%
X383720000Y-272110000D03*
X383720000Y-276110000D03*
%TD*%
D12*
%TO.C,H12*%
X176546000Y-106359999D03*
D11*
X176546000Y-106359999D03*
%TD*%
D29*
%TO.C,R9*%
X363625000Y-24933000D03*
X363625000Y-26583000D03*
%TD*%
D13*
%TO.C,R16*%
X436525000Y-21660000D03*
X438175000Y-21660000D03*
%TD*%
D14*
%TO.C,R21*%
X422083000Y-129690000D03*
X420433000Y-129690000D03*
%TD*%
D23*
%TO.C,D2*%
X365150000Y-342235000D03*
X361150000Y-342235000D03*
%TD*%
D11*
%TO.C,H18*%
X263542000Y-418309998D03*
D12*
X263542000Y-418309998D03*
%TD*%
D19*
%TO.C,SC2*%
X365662000Y-176320000D03*
X374662000Y-176320000D03*
%TD*%
D14*
%TO.C,R21*%
X422083000Y-337690000D03*
X420433000Y-337690000D03*
%TD*%
D12*
%TO.C,H4*%
X12550000Y-210410000D03*
D11*
X12550000Y-210410000D03*
%TD*%
D13*
%TO.C,R22*%
X420433000Y-332356000D03*
X422083000Y-332356000D03*
%TD*%
D14*
%TO.C,R13*%
X434500000Y-337335000D03*
X432850000Y-337335000D03*
%TD*%
D19*
%TO.C,SC2*%
X365662000Y-280320000D03*
X374662000Y-280320000D03*
%TD*%
D21*
%TO.C,mouse-bite-11*%
X296478000Y-113759997D03*
X291978000Y-113759997D03*
X290478000Y-108759997D03*
X294228000Y-108759997D03*
X292728000Y-108759997D03*
X293478000Y-113759997D03*
X291228000Y-108759997D03*
X292728000Y-113759997D03*
X296478000Y-108759997D03*
X291978000Y-108759997D03*
X297228000Y-108759997D03*
X294978000Y-108759997D03*
X289728000Y-113759997D03*
X294978000Y-113759997D03*
X289728000Y-108759997D03*
X293478000Y-108759997D03*
X295728000Y-113759997D03*
X297228000Y-113759997D03*
X296478000Y-113759997D03*
X295728000Y-108759997D03*
X290478000Y-113759997D03*
X291228000Y-113759997D03*
X296478000Y-108759997D03*
X294228000Y-113759997D03*
%TD*%
D29*
%TO.C,R9*%
X363625000Y-128933000D03*
X363625000Y-130583000D03*
%TD*%
D21*
%TO.C,mouse-bite-2*%
X266042000Y-129969998D03*
X266042000Y-126219998D03*
X266042000Y-124719998D03*
X271042000Y-126969998D03*
X266042000Y-126969998D03*
X271042000Y-127719998D03*
X271042000Y-129969998D03*
X266042000Y-130719998D03*
X266042000Y-129969998D03*
X266042000Y-123969998D03*
X266042000Y-123219998D03*
X271042000Y-125469998D03*
X271042000Y-123219998D03*
X271042000Y-130719998D03*
X271042000Y-126219998D03*
X266042000Y-125469998D03*
X271042000Y-128469998D03*
X266042000Y-129219998D03*
X271042000Y-124719998D03*
X271042000Y-123969998D03*
X266042000Y-128469998D03*
X266042000Y-127719998D03*
X271042000Y-129219998D03*
X271042000Y-129969998D03*
%TD*%
%TO.C,mouse-bite-9*%
X207232000Y-321809998D03*
X209482000Y-321809998D03*
X208732000Y-321809998D03*
X210232000Y-316809998D03*
X202732000Y-316809998D03*
X208732000Y-316809998D03*
X204982000Y-321809998D03*
X207982000Y-321809998D03*
X204982000Y-316809998D03*
X210232000Y-321809998D03*
X205732000Y-321809998D03*
X209482000Y-316809998D03*
X206482000Y-316809998D03*
X204232000Y-321809998D03*
X205732000Y-316809998D03*
X209482000Y-316809998D03*
X207982000Y-316809998D03*
X204232000Y-316809998D03*
X207232000Y-316809998D03*
X203482000Y-321809998D03*
X209482000Y-321809998D03*
X202732000Y-321809998D03*
X203482000Y-316809998D03*
X206482000Y-321809998D03*
%TD*%
D13*
%TO.C,R7*%
X436522000Y-331879000D03*
X438172000Y-331879000D03*
%TD*%
D31*
%TO.C,Q2*%
X415325000Y-12010000D03*
X414675000Y-12010000D03*
X414025000Y-12010000D03*
X414025000Y-13910000D03*
X414675000Y-13910000D03*
X415325000Y-13910000D03*
%TD*%
D23*
%TO.C,D2*%
X365150000Y-134235000D03*
X361150000Y-134235000D03*
%TD*%
D21*
%TO.C,mouse-bite-4*%
X92050000Y-230320000D03*
X92050000Y-227320000D03*
X92050000Y-232570000D03*
X97050000Y-231070000D03*
X97050000Y-229570000D03*
X92050000Y-231070000D03*
X97050000Y-233320000D03*
X92050000Y-228820000D03*
X92050000Y-234070000D03*
X97050000Y-234070000D03*
X97050000Y-230320000D03*
X97050000Y-232570000D03*
X92050000Y-234070000D03*
X92050000Y-228070000D03*
X97050000Y-228820000D03*
X97050000Y-227320000D03*
X97050000Y-231820000D03*
X97050000Y-234070000D03*
X97050000Y-234820000D03*
X92050000Y-229570000D03*
X92050000Y-234820000D03*
X92050000Y-231820000D03*
X97050000Y-228070000D03*
X92050000Y-233320000D03*
%TD*%
D11*
%TO.C,H21*%
X350538000Y-324259997D03*
D12*
X350538000Y-324259997D03*
%TD*%
D21*
%TO.C,mouse-bite-18*%
X156646000Y-108859999D03*
X156646000Y-113859999D03*
X153646000Y-113859999D03*
X155896000Y-108859999D03*
X154396000Y-108859999D03*
X157396000Y-113859999D03*
X160396000Y-108859999D03*
X159646000Y-108859999D03*
X158146000Y-108859999D03*
X155896000Y-113859999D03*
X158146000Y-113859999D03*
X155146000Y-108859999D03*
X152896000Y-108859999D03*
X154396000Y-113859999D03*
X158896000Y-108859999D03*
X159646000Y-108859999D03*
X159646000Y-113859999D03*
X155146000Y-113859999D03*
X153646000Y-108859999D03*
X159646000Y-113859999D03*
X152896000Y-113859999D03*
X157396000Y-108859999D03*
X160396000Y-113859999D03*
X158896000Y-113859999D03*
%TD*%
%TO.C,mouse-bite-7*%
X92050000Y-200440000D03*
X97050000Y-197440000D03*
X92050000Y-198940000D03*
X97050000Y-193690000D03*
X92050000Y-198190000D03*
X97050000Y-195190000D03*
X92050000Y-201190000D03*
X92050000Y-195940000D03*
X97050000Y-201190000D03*
X97050000Y-196690000D03*
X97050000Y-194440000D03*
X97050000Y-199690000D03*
X97050000Y-200440000D03*
X92050000Y-200440000D03*
X92050000Y-194440000D03*
X92050000Y-197440000D03*
X97050000Y-200440000D03*
X92050000Y-195190000D03*
X97050000Y-198940000D03*
X97050000Y-198190000D03*
X92050000Y-193690000D03*
X97050000Y-195940000D03*
X92050000Y-199690000D03*
X92050000Y-196690000D03*
%TD*%
%TO.C,mouse-bite-16*%
X72650000Y-321910000D03*
X68150000Y-316910000D03*
X71150000Y-316910000D03*
X68900000Y-321910000D03*
X69650000Y-316910000D03*
X71900000Y-316910000D03*
X71900000Y-321910000D03*
X68150000Y-321910000D03*
X65900000Y-321910000D03*
X66650000Y-321910000D03*
X70400000Y-316910000D03*
X71150000Y-321910000D03*
X73400000Y-316910000D03*
X69650000Y-321910000D03*
X72650000Y-321910000D03*
X66650000Y-316910000D03*
X70400000Y-321910000D03*
X73400000Y-321910000D03*
X68900000Y-316910000D03*
X67400000Y-316910000D03*
X72650000Y-316910000D03*
X65900000Y-316910000D03*
X72650000Y-316910000D03*
X67400000Y-321910000D03*
%TD*%
D11*
%TO.C,H20*%
X312038000Y-324259997D03*
D12*
X312038000Y-324259997D03*
%TD*%
D29*
%TO.C,R1*%
X419226000Y-219720000D03*
X419226000Y-221370000D03*
%TD*%
D27*
%TO.C,Q1*%
X410448000Y-13760000D03*
X411098000Y-13760000D03*
X411748000Y-13760000D03*
X411748000Y-11860000D03*
X411098000Y-11860000D03*
X410448000Y-11860000D03*
%TD*%
D21*
%TO.C,mouse-bite-4*%
X92050000Y-22320000D03*
X92050000Y-19320000D03*
X92050000Y-24570000D03*
X97050000Y-23070000D03*
X97050000Y-21570000D03*
X92050000Y-23070000D03*
X97050000Y-25320000D03*
X92050000Y-20820000D03*
X92050000Y-26070000D03*
X97050000Y-26070000D03*
X97050000Y-22320000D03*
X97050000Y-24570000D03*
X92050000Y-26070000D03*
X92050000Y-20070000D03*
X97050000Y-20820000D03*
X97050000Y-19320000D03*
X97050000Y-23820000D03*
X97050000Y-26070000D03*
X97050000Y-26820000D03*
X92050000Y-21570000D03*
X92050000Y-26820000D03*
X92050000Y-23820000D03*
X97050000Y-20070000D03*
X92050000Y-25320000D03*
%TD*%
D29*
%TO.C,R18*%
X376200000Y-235035000D03*
X376200000Y-236685000D03*
%TD*%
D22*
%TO.C,C6*%
X426592000Y-330337000D03*
X426592000Y-328787000D03*
%TD*%
D15*
%TO.C,J5*%
X293538000Y-220259997D03*
D16*
X290998000Y-220259997D03*
X288458000Y-220259997D03*
X285918000Y-220259997D03*
X283378000Y-220259997D03*
X280838000Y-220259997D03*
%TD*%
D18*
%TO.C,R6*%
X405000000Y-117360000D03*
X405000000Y-115710000D03*
%TD*%
D14*
%TO.C,R15*%
X432975000Y-15916000D03*
X431325000Y-15916000D03*
%TD*%
D12*
%TO.C,H24*%
X350538000Y-314259997D03*
D11*
X350538000Y-314259997D03*
%TD*%
%TO.C,H6*%
X89550000Y-418410000D03*
D12*
X89550000Y-418410000D03*
%TD*%
%TO.C,H9*%
X176546000Y-324359999D03*
D11*
X176546000Y-324359999D03*
%TD*%
D17*
%TO.C,C2*%
X436575000Y-127438000D03*
X438125000Y-127438000D03*
%TD*%
D26*
%TO.C,D4*%
X383700000Y-279450000D03*
X383700000Y-283450000D03*
%TD*%
D18*
%TO.C,R3*%
X421004000Y-325370000D03*
X421004000Y-323720000D03*
%TD*%
D19*
%TO.C,SC4*%
X386020000Y-342420000D03*
X386020000Y-333420000D03*
%TD*%
D12*
%TO.C,H15*%
X263542000Y-116309998D03*
D11*
X263542000Y-116309998D03*
%TD*%
D29*
%TO.C,R8*%
X363625000Y-333885000D03*
X363625000Y-335535000D03*
%TD*%
D20*
%TO.C,Q3*%
X434625000Y-331635000D03*
X434625000Y-330985000D03*
X434625000Y-330335000D03*
X432725000Y-330335000D03*
X432725000Y-330985000D03*
X432725000Y-331635000D03*
%TD*%
D12*
%TO.C,H14*%
X225042000Y-220309998D03*
D11*
X225042000Y-220309998D03*
%TD*%
D18*
%TO.C,R2*%
X417194000Y-13370000D03*
X417194000Y-11720000D03*
%TD*%
D14*
%TO.C,R12*%
X432975000Y-220360000D03*
X431325000Y-220360000D03*
%TD*%
D15*
%TO.C,J1*%
X32550000Y-12410000D03*
D16*
X30010000Y-12410000D03*
X27470000Y-12410000D03*
X24930000Y-12410000D03*
X22390000Y-12410000D03*
X19850000Y-12410000D03*
%TD*%
D14*
%TO.C,R21*%
X422083000Y-25690000D03*
X420433000Y-25690000D03*
%TD*%
D12*
%TO.C,H14*%
X225042000Y-116309998D03*
D11*
X225042000Y-116309998D03*
%TD*%
%TO.C,H7*%
X99546000Y-116359999D03*
D12*
X99546000Y-116359999D03*
%TD*%
D11*
%TO.C,H19*%
X273538000Y-116259997D03*
D12*
X273538000Y-116259997D03*
%TD*%
D21*
%TO.C,mouse-bite-12*%
X332888000Y-108759997D03*
X332138000Y-113759997D03*
X331388000Y-113759997D03*
X326888000Y-113759997D03*
X329138000Y-108759997D03*
X330638000Y-113759997D03*
X330638000Y-108759997D03*
X334388000Y-108759997D03*
X329888000Y-113759997D03*
X332138000Y-108759997D03*
X333638000Y-113759997D03*
X333638000Y-113759997D03*
X329138000Y-113759997D03*
X332888000Y-113759997D03*
X329888000Y-108759997D03*
X326888000Y-108759997D03*
X331388000Y-108759997D03*
X327638000Y-113759997D03*
X328388000Y-108759997D03*
X333638000Y-108759997D03*
X327638000Y-108759997D03*
X333638000Y-108759997D03*
X334388000Y-113759997D03*
X328388000Y-113759997D03*
%TD*%
D30*
%TO.C,C5*%
X375750000Y-224110000D03*
X372800000Y-224110000D03*
%TD*%
D12*
%TO.C,H15*%
X263542000Y-324309998D03*
D11*
X263542000Y-324309998D03*
%TD*%
%TO.C,H5*%
X51050000Y-418410000D03*
D12*
X51050000Y-418410000D03*
%TD*%
D11*
%TO.C,H18*%
X263542000Y-314309998D03*
D12*
X263542000Y-314309998D03*
%TD*%
D11*
%TO.C,H29*%
X399036000Y-210259997D03*
D12*
X399036000Y-210259997D03*
%TD*%
D13*
%TO.C,R7*%
X436522000Y-227879000D03*
X438172000Y-227879000D03*
%TD*%
D17*
%TO.C,C2*%
X436575000Y-231438000D03*
X438125000Y-231438000D03*
%TD*%
D21*
%TO.C,mouse-bite-1*%
X184046000Y-124769999D03*
X184046000Y-127019999D03*
X184046000Y-126269999D03*
X184046000Y-129269999D03*
X184046000Y-127769999D03*
X179046000Y-130019999D03*
X179046000Y-127019999D03*
X184046000Y-130019999D03*
X179046000Y-124019999D03*
X179046000Y-128519999D03*
X184046000Y-130019999D03*
X184046000Y-125519999D03*
X179046000Y-126269999D03*
X184046000Y-130769999D03*
X184046000Y-128519999D03*
X179046000Y-125519999D03*
X179046000Y-123269999D03*
X184046000Y-123269999D03*
X184046000Y-124019999D03*
X179046000Y-130769999D03*
X179046000Y-129269999D03*
X179046000Y-127769999D03*
X179046000Y-124769999D03*
X179046000Y-130019999D03*
%TD*%
D18*
%TO.C,R6*%
X405000000Y-13360000D03*
X405000000Y-11710000D03*
%TD*%
D24*
%TO.C,U3*%
X426613000Y-124976000D03*
X426613000Y-125626000D03*
X426613000Y-126276000D03*
X428603000Y-126276000D03*
X428603000Y-125626000D03*
X428603000Y-124976000D03*
D25*
X427608000Y-125626000D03*
%TD*%
D11*
%TO.C,H7*%
X99546000Y-324359999D03*
D12*
X99546000Y-324359999D03*
%TD*%
D21*
%TO.C,mouse-bite-9*%
X207232000Y-113809998D03*
X209482000Y-113809998D03*
X208732000Y-113809998D03*
X210232000Y-108809998D03*
X202732000Y-108809998D03*
X208732000Y-108809998D03*
X204982000Y-113809998D03*
X207982000Y-113809998D03*
X204982000Y-108809998D03*
X210232000Y-113809998D03*
X205732000Y-113809998D03*
X209482000Y-108809998D03*
X206482000Y-108809998D03*
X204232000Y-113809998D03*
X205732000Y-108809998D03*
X209482000Y-108809998D03*
X207982000Y-108809998D03*
X204232000Y-108809998D03*
X207232000Y-108809998D03*
X203482000Y-113809998D03*
X209482000Y-113809998D03*
X202732000Y-113809998D03*
X203482000Y-108809998D03*
X206482000Y-113809998D03*
%TD*%
D33*
%TO.C,U2*%
X366965000Y-333313000D03*
X368235000Y-333313000D03*
X369505000Y-333313000D03*
X370775000Y-333313000D03*
X370775000Y-328013000D03*
X369505000Y-328013000D03*
X368235000Y-328013000D03*
X366965000Y-328013000D03*
D34*
X368870000Y-330663000D03*
%TD*%
D12*
%TO.C,TP4*%
X301582000Y-177429998D03*
X309202000Y-177429998D03*
%TD*%
%TO.C,TP1*%
X40594000Y-73580001D03*
X48214000Y-73580001D03*
%TD*%
%TO.C,H22*%
X273538000Y-106259997D03*
D11*
X273538000Y-106259997D03*
%TD*%
D12*
%TO.C,H14*%
X225042000Y-324309998D03*
D11*
X225042000Y-324309998D03*
%TD*%
D12*
%TO.C,H26*%
X399036000Y-12259997D03*
D11*
X399036000Y-12259997D03*
%TD*%
D26*
%TO.C,D7*%
X414146000Y-179450000D03*
X414146000Y-175450000D03*
%TD*%
D33*
%TO.C,U2*%
X366965000Y-125313000D03*
X368235000Y-125313000D03*
X369505000Y-125313000D03*
X370775000Y-125313000D03*
X370775000Y-120013000D03*
X369505000Y-120013000D03*
X368235000Y-120013000D03*
X366965000Y-120013000D03*
D34*
X368870000Y-122663000D03*
%TD*%
D11*
%TO.C,H7*%
X99546000Y-12359999D03*
D12*
X99546000Y-12359999D03*
%TD*%
D11*
%TO.C,H5*%
X51050000Y-210410000D03*
D12*
X51050000Y-210410000D03*
%TD*%
D14*
%TO.C,R13*%
X434500000Y-129335000D03*
X432850000Y-129335000D03*
%TD*%
D11*
%TO.C,H2*%
X51050000Y-324410000D03*
D12*
X51050000Y-324410000D03*
%TD*%
D21*
%TO.C,mouse-bite-18*%
X156646000Y-316859999D03*
X156646000Y-321859999D03*
X153646000Y-321859999D03*
X155896000Y-316859999D03*
X154396000Y-316859999D03*
X157396000Y-321859999D03*
X160396000Y-316859999D03*
X159646000Y-316859999D03*
X158146000Y-316859999D03*
X155896000Y-321859999D03*
X158146000Y-321859999D03*
X155146000Y-316859999D03*
X152896000Y-316859999D03*
X154396000Y-321859999D03*
X158896000Y-316859999D03*
X159646000Y-316859999D03*
X159646000Y-321859999D03*
X155146000Y-321859999D03*
X153646000Y-316859999D03*
X159646000Y-321859999D03*
X152896000Y-321859999D03*
X157396000Y-316859999D03*
X160396000Y-321859999D03*
X158896000Y-321859999D03*
%TD*%
%TO.C,mouse-bite-10*%
X244392000Y-113809998D03*
X244392000Y-108809998D03*
X240642000Y-108809998D03*
X246642000Y-113809998D03*
X246642000Y-108809998D03*
X247392000Y-113809998D03*
X245892000Y-113809998D03*
X239892000Y-113809998D03*
X242892000Y-108809998D03*
X242142000Y-108809998D03*
X241392000Y-108809998D03*
X245142000Y-113809998D03*
X246642000Y-108809998D03*
X242142000Y-113809998D03*
X243642000Y-113809998D03*
X241392000Y-113809998D03*
X240642000Y-113809998D03*
X243642000Y-108809998D03*
X246642000Y-113809998D03*
X245892000Y-108809998D03*
X242892000Y-113809998D03*
X247392000Y-108809998D03*
X245142000Y-108809998D03*
X239892000Y-108809998D03*
%TD*%
D11*
%TO.C,H10*%
X99546000Y-418359999D03*
D12*
X99546000Y-418359999D03*
%TD*%
D15*
%TO.C,J5*%
X293538000Y-12259997D03*
D16*
X290998000Y-12259997D03*
X288458000Y-12259997D03*
X285918000Y-12259997D03*
X283378000Y-12259997D03*
X280838000Y-12259997D03*
%TD*%
D18*
%TO.C,R5*%
X406780000Y-325370000D03*
X406780000Y-323720000D03*
%TD*%
D12*
%TO.C,H28*%
X360536000Y-106259997D03*
D11*
X360536000Y-106259997D03*
%TD*%
D13*
%TO.C,R7*%
X436522000Y-123879000D03*
X438172000Y-123879000D03*
%TD*%
D21*
%TO.C,mouse-bite-7*%
X92050000Y-96440000D03*
X97050000Y-93440000D03*
X92050000Y-94940000D03*
X97050000Y-89690000D03*
X92050000Y-94190000D03*
X97050000Y-91190000D03*
X92050000Y-97190000D03*
X92050000Y-91940000D03*
X97050000Y-97190000D03*
X97050000Y-92690000D03*
X97050000Y-90440000D03*
X97050000Y-95690000D03*
X97050000Y-96440000D03*
X92050000Y-96440000D03*
X92050000Y-90440000D03*
X92050000Y-93440000D03*
X97050000Y-96440000D03*
X92050000Y-91190000D03*
X97050000Y-94940000D03*
X97050000Y-94190000D03*
X92050000Y-89690000D03*
X97050000Y-91940000D03*
X92050000Y-95690000D03*
X92050000Y-92690000D03*
%TD*%
D26*
%TO.C,D7*%
X414146000Y-75450000D03*
X414146000Y-71450000D03*
%TD*%
D13*
%TO.C,R19*%
X420433000Y-230134000D03*
X422083000Y-230134000D03*
%TD*%
D26*
%TO.C,D4*%
X383700000Y-71450000D03*
X383700000Y-75450000D03*
%TD*%
D18*
%TO.C,R10*%
X363625000Y-124233000D03*
X363625000Y-122583000D03*
%TD*%
D12*
%TO.C,H22*%
X273538000Y-418259997D03*
D11*
X273538000Y-418259997D03*
%TD*%
D19*
%TO.C,SC4*%
X386020000Y-30420000D03*
X386020000Y-21420000D03*
%TD*%
D12*
%TO.C,H1*%
X12550000Y-116410000D03*
D11*
X12550000Y-116410000D03*
%TD*%
D21*
%TO.C,mouse-bite-13*%
X383476000Y-316759997D03*
X384226000Y-316759997D03*
X383476000Y-321759997D03*
X382726000Y-321759997D03*
X380476000Y-321759997D03*
X377476000Y-321759997D03*
X381976000Y-321759997D03*
X380476000Y-316759997D03*
X383476000Y-321759997D03*
X378226000Y-316759997D03*
X381226000Y-316759997D03*
X376726000Y-316759997D03*
X379726000Y-321759997D03*
X379726000Y-316759997D03*
X376726000Y-321759997D03*
X382726000Y-316759997D03*
X381976000Y-316759997D03*
X378976000Y-321759997D03*
X381226000Y-321759997D03*
X378226000Y-321759997D03*
X377476000Y-316759997D03*
X383476000Y-316759997D03*
X378976000Y-316759997D03*
X384226000Y-321759997D03*
%TD*%
%TO.C,mouse-bite-18*%
X156646000Y-212859999D03*
X156646000Y-217859999D03*
X153646000Y-217859999D03*
X155896000Y-212859999D03*
X154396000Y-212859999D03*
X157396000Y-217859999D03*
X160396000Y-212859999D03*
X159646000Y-212859999D03*
X158146000Y-212859999D03*
X155896000Y-217859999D03*
X158146000Y-217859999D03*
X155146000Y-212859999D03*
X152896000Y-212859999D03*
X154396000Y-217859999D03*
X158896000Y-212859999D03*
X159646000Y-212859999D03*
X159646000Y-217859999D03*
X155146000Y-217859999D03*
X153646000Y-212859999D03*
X159646000Y-217859999D03*
X152896000Y-217859999D03*
X157396000Y-212859999D03*
X160396000Y-217859999D03*
X158896000Y-217859999D03*
%TD*%
D15*
%TO.C,J4*%
X206542000Y-116309998D03*
D16*
X204002000Y-116309998D03*
X201462000Y-116309998D03*
X198922000Y-116309998D03*
X196382000Y-116309998D03*
X193842000Y-116309998D03*
%TD*%
D13*
%TO.C,R16*%
X436525000Y-125660000D03*
X438175000Y-125660000D03*
%TD*%
D21*
%TO.C,mouse-bite-6*%
X358040000Y-195089998D03*
X353040000Y-201089998D03*
X358040000Y-194339998D03*
X358040000Y-195839998D03*
X353040000Y-198839998D03*
X353040000Y-195839998D03*
X358040000Y-197339998D03*
X358040000Y-198839998D03*
X358040000Y-198089998D03*
X353040000Y-193589998D03*
X358040000Y-200339998D03*
X358040000Y-200339998D03*
X358040000Y-201089998D03*
X353040000Y-196589998D03*
X353040000Y-198089998D03*
X353040000Y-195089998D03*
X353040000Y-200339998D03*
X353040000Y-194339998D03*
X358040000Y-193589998D03*
X358040000Y-199589998D03*
X353040000Y-200339998D03*
X353040000Y-199589998D03*
X353040000Y-197339998D03*
X358040000Y-196589998D03*
%TD*%
D24*
%TO.C,U3*%
X426613000Y-332976000D03*
X426613000Y-333626000D03*
X426613000Y-334276000D03*
X428603000Y-334276000D03*
X428603000Y-333626000D03*
X428603000Y-332976000D03*
D25*
X427608000Y-333626000D03*
%TD*%
D12*
%TO.C,H26*%
X399036000Y-220259997D03*
D11*
X399036000Y-220259997D03*
%TD*%
D12*
%TO.C,H27*%
X437536000Y-116259997D03*
D11*
X437536000Y-116259997D03*
%TD*%
D12*
%TO.C,H27*%
X437536000Y-12259997D03*
D11*
X437536000Y-12259997D03*
%TD*%
D12*
%TO.C,H3*%
X89550000Y-324410000D03*
D11*
X89550000Y-324410000D03*
%TD*%
D13*
%TO.C,R19*%
X420433000Y-22134000D03*
X422083000Y-22134000D03*
%TD*%
D12*
%TO.C,TP1*%
X40594000Y-281580001D03*
X48214000Y-281580001D03*
%TD*%
D26*
%TO.C,D7*%
X414146000Y-387450000D03*
X414146000Y-383450000D03*
%TD*%
D18*
%TO.C,R5*%
X406780000Y-221370000D03*
X406780000Y-219720000D03*
%TD*%
D11*
%TO.C,H8*%
X138046000Y-220359999D03*
D12*
X138046000Y-220359999D03*
%TD*%
D26*
%TO.C,D3*%
X383720000Y-168110000D03*
X383720000Y-172110000D03*
%TD*%
D12*
%TO.C,TP2*%
X127590000Y-73530000D03*
X135210000Y-73530000D03*
%TD*%
D29*
%TO.C,R1*%
X419226000Y-11720000D03*
X419226000Y-13370000D03*
%TD*%
%TO.C,R18*%
X376200000Y-27035000D03*
X376200000Y-28685000D03*
%TD*%
D14*
%TO.C,R21*%
X422083000Y-233690000D03*
X420433000Y-233690000D03*
%TD*%
D12*
%TO.C,H12*%
X176546000Y-210359999D03*
D11*
X176546000Y-210359999D03*
%TD*%
D12*
%TO.C,TP5*%
X388582000Y-73429998D03*
X396202000Y-73429998D03*
%TD*%
D11*
%TO.C,H8*%
X138046000Y-116359999D03*
D12*
X138046000Y-116359999D03*
%TD*%
D21*
%TO.C,mouse-bite-1*%
X184046000Y-228769999D03*
X184046000Y-231019999D03*
X184046000Y-230269999D03*
X184046000Y-233269999D03*
X184046000Y-231769999D03*
X179046000Y-234019999D03*
X179046000Y-231019999D03*
X184046000Y-234019999D03*
X179046000Y-228019999D03*
X179046000Y-232519999D03*
X184046000Y-234019999D03*
X184046000Y-229519999D03*
X179046000Y-230269999D03*
X184046000Y-234769999D03*
X184046000Y-232519999D03*
X179046000Y-229519999D03*
X179046000Y-227269999D03*
X184046000Y-227269999D03*
X184046000Y-228019999D03*
X179046000Y-234769999D03*
X179046000Y-233269999D03*
X179046000Y-231769999D03*
X179046000Y-228769999D03*
X179046000Y-234019999D03*
%TD*%
D12*
%TO.C,TP4*%
X301582000Y-73429998D03*
X309202000Y-73429998D03*
%TD*%
D21*
%TO.C,mouse-bite-5*%
X271042000Y-198089998D03*
X266042000Y-195089998D03*
X266042000Y-197339998D03*
X266042000Y-194339998D03*
X271042000Y-198839998D03*
X271042000Y-200339998D03*
X271042000Y-197339998D03*
X266042000Y-199589998D03*
X271042000Y-196589998D03*
X266042000Y-198839998D03*
X271042000Y-194339998D03*
X266042000Y-195839998D03*
X266042000Y-200339998D03*
X271042000Y-201089998D03*
X266042000Y-201089998D03*
X266042000Y-200339998D03*
X266042000Y-198089998D03*
X271042000Y-199589998D03*
X271042000Y-193589998D03*
X271042000Y-195839998D03*
X266042000Y-193589998D03*
X271042000Y-195089998D03*
X266042000Y-196589998D03*
X271042000Y-200339998D03*
%TD*%
D12*
%TO.C,H25*%
X360536000Y-220259997D03*
D11*
X360536000Y-220259997D03*
%TD*%
%TO.C,H21*%
X350538000Y-116259997D03*
D12*
X350538000Y-116259997D03*
%TD*%
D30*
%TO.C,C5*%
X375750000Y-120110000D03*
X372800000Y-120110000D03*
%TD*%
D11*
%TO.C,H2*%
X51050000Y-220410000D03*
D12*
X51050000Y-220410000D03*
%TD*%
D13*
%TO.C,R14*%
X431325000Y-118138000D03*
X432975000Y-118138000D03*
%TD*%
D15*
%TO.C,J4*%
X206542000Y-324309998D03*
D16*
X204002000Y-324309998D03*
X201462000Y-324309998D03*
X198922000Y-324309998D03*
X196382000Y-324309998D03*
X193842000Y-324309998D03*
%TD*%
D19*
%TO.C,SC1*%
X374662000Y-375014000D03*
X365662000Y-375014000D03*
%TD*%
D12*
%TO.C,TP1*%
X40594000Y-177580001D03*
X48214000Y-177580001D03*
%TD*%
D18*
%TO.C,R10*%
X363625000Y-332233000D03*
X363625000Y-330583000D03*
%TD*%
D26*
%TO.C,D5*%
X378960000Y-29890000D03*
X378960000Y-25890000D03*
%TD*%
D19*
%TO.C,SC6*%
X432320000Y-63014000D03*
X423320000Y-63014000D03*
%TD*%
D11*
%TO.C,H17*%
X225042000Y-418309998D03*
D12*
X225042000Y-418309998D03*
%TD*%
%TO.C,TP2*%
X127590000Y-385530000D03*
X135210000Y-385530000D03*
%TD*%
D21*
%TO.C,mouse-bite-16*%
X72650000Y-113910000D03*
X68150000Y-108910000D03*
X71150000Y-108910000D03*
X68900000Y-113910000D03*
X69650000Y-108910000D03*
X71900000Y-108910000D03*
X71900000Y-113910000D03*
X68150000Y-113910000D03*
X65900000Y-113910000D03*
X66650000Y-113910000D03*
X70400000Y-108910000D03*
X71150000Y-113910000D03*
X73400000Y-108910000D03*
X69650000Y-113910000D03*
X72650000Y-113910000D03*
X66650000Y-108910000D03*
X70400000Y-113910000D03*
X73400000Y-113910000D03*
X68900000Y-108910000D03*
X67400000Y-108910000D03*
X72650000Y-108910000D03*
X65900000Y-108910000D03*
X72650000Y-108910000D03*
X67400000Y-113910000D03*
%TD*%
M02*
