G04 #@! TF.GenerationSoftware,KiCad,Pcbnew,(6.0.5)*
G04 #@! TF.CreationDate,2023-05-08T02:21:20-07:00*
G04 #@! TF.ProjectId,Z_Panels,5a5f5061-6e65-46c7-932e-6b696361645f,rev?*
G04 #@! TF.SameCoordinates,Original*
G04 #@! TF.FileFunction,Profile,NP*
%FSLAX46Y46*%
G04 Gerber Fmt 4.6, Leading zero omitted, Abs format (unit mm)*
G04 Created by KiCad (PCBNEW (6.0.5)) date 2023-05-08 02:21:20*
%MOMM*%
%LPD*%
G01*
G04 APERTURE LIST*
G04 #@! TA.AperFunction,Profile*
%ADD10C,0.050000*%
G04 #@! TD*
G04 #@! TA.AperFunction,Profile*
%ADD11C,0.150000*%
G04 #@! TD*
G04 #@! TA.AperFunction,Profile*
%ADD12C,0.100000*%
G04 #@! TD*
G04 APERTURE END LIST*
D10*
X219858000Y-40806800D02*
X208584000Y-40806800D01*
X205486000Y-84074000D02*
X205486000Y-73914000D01*
X208584000Y-39806800D02*
X208584000Y-40806800D01*
D11*
X176276000Y-78994000D02*
G75*
G03*
X176276000Y-78994000I-2200000J0D01*
G01*
D10*
X208584000Y-39806800D02*
X156712000Y-39806800D01*
X219856000Y-136135600D02*
X219856000Y-125620000D01*
X201676000Y-73914000D02*
X201676000Y-84074000D01*
D12*
X177680000Y-97510000D02*
X187680000Y-97510000D01*
D10*
X156712000Y-40806800D02*
X145438000Y-40806800D01*
X145438000Y-51322400D02*
X134164000Y-51322400D01*
X201676000Y-84074000D02*
X205486000Y-84074000D01*
X166116000Y-84068965D02*
X168656000Y-84068965D01*
X219858000Y-51322400D02*
X219858000Y-40806800D01*
X196596000Y-84068965D02*
X196596000Y-73908965D01*
X199136000Y-84068965D02*
X196596000Y-84068965D01*
X163576000Y-73914000D02*
X159766000Y-73914000D01*
X159766000Y-84074000D02*
X163576000Y-84074000D01*
D12*
X187680000Y-97510000D02*
X187680000Y-87510000D01*
D10*
X205486000Y-73914000D02*
X201676000Y-73914000D01*
X231130000Y-125620000D02*
X219856000Y-125620000D01*
X145436000Y-125620000D02*
X134162000Y-125620000D01*
X168656000Y-73908965D02*
X166116000Y-73908965D01*
X145438000Y-51322400D02*
X145438000Y-40806800D01*
X159766000Y-73914000D02*
X159766000Y-84074000D01*
X156710000Y-137135600D02*
X156710000Y-136135600D01*
X134164000Y-51322400D02*
X134162000Y-125620000D01*
X156710000Y-136135600D02*
X145436000Y-136135600D01*
X219856000Y-136135600D02*
X208582000Y-136135600D01*
X208582000Y-137135600D02*
X156710000Y-137135600D01*
X231130000Y-125620000D02*
X231132000Y-51322400D01*
X196596000Y-73908965D02*
X199136000Y-73908965D01*
X231132000Y-51322400D02*
X219858000Y-51322400D01*
X156712000Y-40806800D02*
X156712000Y-39806800D01*
D12*
X177680000Y-87510000D02*
X187680000Y-87510000D01*
D10*
X166116000Y-73908965D02*
X166116000Y-84068965D01*
D11*
X193294000Y-78994000D02*
G75*
G03*
X193294000Y-78994000I-2200000J0D01*
G01*
D10*
X163576000Y-84074000D02*
X163576000Y-73914000D01*
D12*
X177680000Y-97510000D02*
X177680000Y-87510000D01*
D10*
X199136000Y-73908965D02*
X199136000Y-84068965D01*
X208582000Y-136135600D02*
X208582000Y-137135600D01*
X168656000Y-84068965D02*
X168656000Y-73908965D01*
X145436000Y-136135600D02*
X145436000Y-125620000D01*
M02*
