M48
; DRILL file {KiCad (6.0.5)} date Mon May  8 02:21:27 2023
; FORMAT={-:-/ absolute / metric / decimal}
; #@! TF.CreationDate,2023-05-08T02:21:27-07:00
; #@! TF.GenerationSoftware,Kicad,Pcbnew,(6.0.5)
; #@! TF.FileFunction,Plated,1,6,PTH
FMAT,2
METRIC
; #@! TA.AperFunction,Plated,PTH,ViaDrill
T1C0.400
; #@! TA.AperFunction,Plated,PTH,ComponentDrill
T2C1.000
; #@! TA.AperFunction,Plated,PTH,ComponentDrill
T3C1.300
; #@! TA.AperFunction,Plated,PTH,ComponentDrill
T4C1.500
; #@! TA.AperFunction,Plated,PTH,ComponentDrill
T5C1.700
; #@! TA.AperFunction,Plated,PTH,ComponentDrill
T6C2.000
; #@! TA.AperFunction,Plated,PTH,ComponentDrill
T7C2.200
%
G90
G05
T1
X141.3Y-60.23
X141.34Y-57.28
X141.44Y-54.6
X143.14Y-66.36
X148.4Y-63.89
X148.53Y-61.79
X149.12Y-50.22
X150.71Y-50.03
X150.897Y-62.212
X150.97Y-54.75
X152.37Y-67.46
X152.772Y-62.212
X153.357Y-64.312
X153.5Y-54.75
X154.31Y-53.83
X154.38Y-55.78
X158.942Y-70.612
X158.942Y-72.612
X159.815Y-61.43
X159.835Y-57.32
X160.528Y-48.938
X160.528Y-52.49
X160.942Y-70.612
X160.942Y-72.612
X162.942Y-70.612
X162.942Y-72.612
X164.942Y-70.612
X164.942Y-72.612
X165.985Y-59.535
X166.942Y-70.612
X166.942Y-72.612
X168.276Y-87.314
X168.276Y-89.314
X168.276Y-91.314
X168.276Y-93.314
X168.276Y-95.314
X168.276Y-97.314
X168.276Y-99.314
X168.5Y-57.9
X168.942Y-70.612
X168.942Y-72.612
X169.46Y-64.39
X169.672Y-75.058
X169.672Y-77.058
X169.672Y-79.058
X169.672Y-81.058
X169.672Y-83.058
X170.276Y-87.314
X170.276Y-89.314
X170.276Y-91.314
X170.276Y-93.314
X170.276Y-95.314
X170.276Y-97.314
X170.276Y-99.314
X170.942Y-70.612
X172.276Y-87.314
X172.276Y-89.314
X172.276Y-91.314
X172.276Y-93.314
X172.276Y-95.314
X172.276Y-97.314
X172.276Y-99.314
X173.01Y-41.61
X174.276Y-87.314
X174.276Y-89.314
X174.276Y-91.314
X174.276Y-93.314
X174.276Y-95.314
X174.276Y-97.314
X174.276Y-99.314
X176.173Y-41.876
X176.276Y-87.314
X176.276Y-89.314
X176.276Y-91.314
X176.276Y-93.314
X176.276Y-95.314
X176.276Y-97.314
X176.276Y-99.314
X176.468Y-70.612
X177.292Y-55.118
X177.292Y-56.134
X177.292Y-57.15
X177.292Y-58.166
X178.468Y-70.612
X178.468Y-72.612
X178.562Y-55.118
X178.562Y-56.134
X178.562Y-57.15
X178.562Y-58.166
X178.562Y-79.09
X178.562Y-81.09
X178.562Y-83.09
X178.562Y-85.09
X179.113Y-48.156
X180.468Y-70.612
X180.468Y-72.612
X180.594Y-82.296
X181.298Y-51.591
X182.468Y-70.612
X182.468Y-72.612
X182.713Y-43.696
X183.388Y-85.09
X183.473Y-49.276
X184.468Y-70.612
X184.468Y-72.612
X186.182Y-82.296
X186.468Y-70.612
X186.468Y-72.612
X187.553Y-45.236
X188.468Y-70.612
X189.104Y-87.314
X189.104Y-89.314
X189.104Y-91.314
X189.104Y-93.314
X189.104Y-95.314
X189.104Y-97.314
X189.104Y-99.314
X191.104Y-87.314
X191.104Y-89.314
X191.104Y-91.314
X191.104Y-93.314
X191.104Y-95.314
X191.104Y-97.314
X191.104Y-99.314
X191.215Y-44.373
X191.513Y-47.286
X193.104Y-87.314
X193.104Y-89.314
X193.104Y-91.314
X193.104Y-93.314
X193.104Y-95.314
X193.104Y-97.314
X193.104Y-99.314
X194.502Y-70.612
X194.813Y-47.676
X194.943Y-44.106
X195.008Y-51.181
X195.072Y-87.304
X195.072Y-89.304
X195.072Y-91.304
X195.072Y-93.304
X195.072Y-95.304
X195.072Y-97.304
X195.072Y-99.304
X195.58Y-75.058
X195.58Y-77.058
X195.58Y-79.058
X195.58Y-81.058
X195.58Y-83.058
X196.502Y-70.612
X196.502Y-72.612
X198.502Y-70.612
X198.502Y-72.612
X198.99Y-43.62
X199.07Y-46.93
X200.502Y-70.612
X200.502Y-72.612
X201.458Y-48.778
X202.502Y-70.612
X202.502Y-72.612
X204.502Y-70.612
X204.502Y-72.612
X206.502Y-70.612
X206.502Y-72.612
X210.058Y-127.0
T2
X155.448Y-50.738
X157.988Y-50.738
X160.528Y-50.738
X163.068Y-50.738
X165.608Y-50.738
X168.148Y-50.738
X170.688Y-50.738
X173.228Y-50.738
X198.846Y-92.883
X198.846Y-97.963
X200.116Y-90.343
X200.116Y-100.503
X202.656Y-90.343
X202.656Y-100.503
X204.216Y-92.883
X204.216Y-97.963
T3
X158.17Y-90.67
X158.17Y-98.29
T4
X183.431Y-82.291
T5
X180.891Y-79.751
X180.891Y-84.831
X185.971Y-79.751
X185.971Y-84.831
T6
X139.28Y-109.35
X139.28Y-118.35
X141.042Y-97.83
X150.042Y-97.83
X178.16Y-132.31
X187.16Y-132.31
X204.008Y-56.968
X204.008Y-65.968
X215.21Y-97.83
X224.21Y-97.83
X226.02Y-109.33
X226.02Y-118.33
T7
X155.182Y-45.966
X155.182Y-130.966
X211.856Y-45.966
X211.856Y-130.966
T0
M30
