%TF.GenerationSoftware,KiCad,Pcbnew,(6.0.5)*%
%TF.CreationDate,2023-01-23T16:42:54-08:00*%
%TF.ProjectId,Coil_Panels_Z,436f696c-5f50-4616-9e65-6c735f5a2e6b,rev?*%
%TF.SameCoordinates,Original*%
%TF.FileFunction,Soldermask,Bot*%
%TF.FilePolarity,Negative*%
%FSLAX46Y46*%
G04 Gerber Fmt 4.6, Leading zero omitted, Abs format (unit mm)*
G04 Created by KiCad (PCBNEW (6.0.5)) date 2023-01-23 16:42:54*
%MOMM*%
%LPD*%
G01*
G04 APERTURE LIST*
%ADD10C,0.010000*%
%ADD11R,1.100000X1.450000*%
%ADD12R,1.350000X2.899999*%
%ADD13R,1.700000X1.700000*%
%ADD14O,1.700000X1.700000*%
%ADD15C,2.600000*%
%ADD16C,3.800000*%
G04 APERTURE END LIST*
G36*
X112006200Y-64481200D02*
G01*
X110753800Y-64481200D01*
X110753800Y-62878800D01*
X112006200Y-62878800D01*
X112006200Y-64481200D01*
G37*
D10*
X112006200Y-64481200D02*
X110753800Y-64481200D01*
X110753800Y-62878800D01*
X112006200Y-62878800D01*
X112006200Y-64481200D01*
G36*
X110006200Y-64481200D02*
G01*
X108753800Y-64481200D01*
X108753800Y-62878800D01*
X110006200Y-62878800D01*
X110006200Y-64481200D01*
G37*
X110006200Y-64481200D02*
X108753800Y-64481200D01*
X108753800Y-62878800D01*
X110006200Y-62878800D01*
X110006200Y-64481200D01*
G36*
X121026200Y-71181200D02*
G01*
X119523800Y-71181200D01*
X119523800Y-68128800D01*
X121026200Y-68128800D01*
X121026200Y-71181200D01*
G37*
X121026200Y-71181200D02*
X119523800Y-71181200D01*
X119523800Y-68128800D01*
X121026200Y-68128800D01*
X121026200Y-71181200D01*
G36*
X114006200Y-64481200D02*
G01*
X112753800Y-64481200D01*
X112753800Y-62878800D01*
X114006200Y-62878800D01*
X114006200Y-64481200D01*
G37*
X114006200Y-64481200D02*
X112753800Y-64481200D01*
X112753800Y-62878800D01*
X114006200Y-62878800D01*
X114006200Y-64481200D01*
G36*
X116006200Y-64481200D02*
G01*
X114753800Y-64481200D01*
X114753800Y-62878800D01*
X116006200Y-62878800D01*
X116006200Y-64481200D01*
G37*
X116006200Y-64481200D02*
X114753800Y-64481200D01*
X114753800Y-62878800D01*
X116006200Y-62878800D01*
X116006200Y-64481200D01*
G36*
X108006200Y-64481200D02*
G01*
X106753800Y-64481200D01*
X106753800Y-62878800D01*
X108006200Y-62878800D01*
X108006200Y-64481200D01*
G37*
X108006200Y-64481200D02*
X106753800Y-64481200D01*
X106753800Y-62878800D01*
X108006200Y-62878800D01*
X108006200Y-64481200D01*
G36*
X105236200Y-71181200D02*
G01*
X103733800Y-71181200D01*
X103733800Y-68128800D01*
X105236200Y-68128800D01*
X105236200Y-71181200D01*
G37*
X105236200Y-71181200D02*
X103733800Y-71181200D01*
X103733800Y-68128800D01*
X105236200Y-68128800D01*
X105236200Y-71181200D01*
G36*
X118006200Y-64481200D02*
G01*
X116753800Y-64481200D01*
X116753800Y-62878800D01*
X118006200Y-62878800D01*
X118006200Y-64481200D01*
G37*
X118006200Y-64481200D02*
X116753800Y-64481200D01*
X116753800Y-62878800D01*
X118006200Y-62878800D01*
X118006200Y-64481200D01*
D11*
X129308500Y-63670001D03*
X127308499Y-63670001D03*
D12*
X132203498Y-69645000D03*
X124413503Y-69645000D03*
D13*
X106254000Y-54585600D03*
D14*
X108794000Y-54585600D03*
X111334000Y-54585600D03*
X113874000Y-54585600D03*
X116414000Y-54585600D03*
X118954000Y-54585600D03*
X121494000Y-54585600D03*
X124034000Y-54585600D03*
D15*
X108976000Y-95217600D03*
X108976000Y-102837600D03*
D16*
X105988000Y-50513200D03*
D15*
X105988000Y-50513200D03*
X105988000Y-135513200D03*
D16*
X105988000Y-135513200D03*
D15*
X162662000Y-50513200D03*
D16*
X162662000Y-50513200D03*
X162662000Y-135513200D03*
D15*
X162662000Y-135513200D03*
M02*
