%TF.GenerationSoftware,KiCad,Pcbnew,(6.0.5)*%
%TF.CreationDate,2023-01-23T16:42:54-08:00*%
%TF.ProjectId,Coil_Panels_Z,436f696c-5f50-4616-9e65-6c735f5a2e6b,rev?*%
%TF.SameCoordinates,Original*%
%TF.FileFunction,Copper,L6,Bot*%
%TF.FilePolarity,Positive*%
%FSLAX46Y46*%
G04 Gerber Fmt 4.6, Leading zero omitted, Abs format (unit mm)*
G04 Created by KiCad (PCBNEW (6.0.5)) date 2023-01-23 16:42:54*
%MOMM*%
%LPD*%
G01*
G04 APERTURE LIST*
%TA.AperFunction,SMDPad,CuDef*%
%ADD10R,1.100000X1.450000*%
%TD*%
%TA.AperFunction,SMDPad,CuDef*%
%ADD11R,1.350000X2.899999*%
%TD*%
%TA.AperFunction,SMDPad,CuDef*%
%ADD12R,1.350000X2.900000*%
%TD*%
%TA.AperFunction,ComponentPad*%
%ADD13R,1.700000X1.700000*%
%TD*%
%TA.AperFunction,ComponentPad*%
%ADD14O,1.700000X1.700000*%
%TD*%
%TA.AperFunction,ComponentPad*%
%ADD15C,2.600000*%
%TD*%
%TA.AperFunction,ConnectorPad*%
%ADD16C,3.800000*%
%TD*%
%TA.AperFunction,ViaPad*%
%ADD17C,0.800000*%
%TD*%
%TA.AperFunction,Conductor*%
%ADD18C,1.000000*%
%TD*%
%TA.AperFunction,Conductor*%
%ADD19C,0.250000*%
%TD*%
%TA.AperFunction,Conductor*%
%ADD20C,0.306000*%
%TD*%
G04 APERTURE END LIST*
D10*
X129308500Y-63670001D03*
X127308499Y-63670001D03*
D11*
X132203498Y-69645000D03*
X124413503Y-69645000D03*
D10*
X117380000Y-63680000D03*
X115380000Y-63680000D03*
X113380000Y-63680000D03*
X111380000Y-63680000D03*
X109380000Y-63680000D03*
X107380000Y-63680000D03*
D12*
X120275000Y-69655000D03*
X104485000Y-69655000D03*
D13*
X106254000Y-54585600D03*
D14*
X108794000Y-54585600D03*
X111334000Y-54585600D03*
X113874000Y-54585600D03*
X116414000Y-54585600D03*
X118954000Y-54585600D03*
X121494000Y-54585600D03*
X124034000Y-54585600D03*
D15*
X108976000Y-95217600D03*
X108976000Y-102837600D03*
D16*
X105988000Y-50513200D03*
D15*
X105988000Y-50513200D03*
X105988000Y-135513200D03*
D16*
X105988000Y-135513200D03*
D15*
X162662000Y-50513200D03*
D16*
X162662000Y-50513200D03*
X162662000Y-135513200D03*
D15*
X162662000Y-135513200D03*
D17*
X85810000Y-129570000D03*
X108480000Y-109755999D03*
X107256000Y-109755999D03*
X106032000Y-109755999D03*
X104808000Y-109755999D03*
X102262001Y-129340000D03*
X99814000Y-129340000D03*
D18*
X129308500Y-59860100D02*
X124034000Y-54585600D01*
X129308500Y-63670001D02*
X129308500Y-59860100D01*
X121494000Y-57004000D02*
X121494000Y-54585600D01*
X127308499Y-63670001D02*
X127308499Y-62818499D01*
X127308499Y-62818499D02*
X121494000Y-57004000D01*
X117380000Y-59440000D02*
X118954000Y-57866000D01*
X117380000Y-63680000D02*
X117380000Y-59440000D01*
X118954000Y-57866000D02*
X118954000Y-54585600D01*
X116414000Y-56586000D02*
X116414000Y-54585600D01*
X115380000Y-63680000D02*
X115380000Y-57620000D01*
X115380000Y-57620000D02*
X116414000Y-56586000D01*
X113380000Y-55079600D02*
X113874000Y-54585600D01*
X113380000Y-63680000D02*
X113380000Y-55079600D01*
X111380000Y-54631600D02*
X111334000Y-54585600D01*
X111380000Y-63680000D02*
X111380000Y-54631600D01*
X109380000Y-58150000D02*
X109380000Y-63680000D01*
X109450000Y-58080000D02*
X109380000Y-58150000D01*
X108794000Y-57424000D02*
X109450000Y-58080000D01*
X108794000Y-54585600D02*
X108794000Y-57424000D01*
X106254000Y-57324000D02*
X106254000Y-54585600D01*
X107380000Y-63680000D02*
X107380000Y-58450000D01*
X107380000Y-58450000D02*
X106254000Y-57324000D01*
D19*
X108445999Y-109755999D02*
X106032000Y-107342000D01*
X108480000Y-109755999D02*
X108445999Y-109755999D01*
X106032000Y-107342000D02*
X106032000Y-105781600D01*
X106032000Y-109755999D02*
X106032000Y-107342000D01*
D20*
X85810000Y-129230000D02*
X85810000Y-129570000D01*
X101890000Y-113150000D02*
X85810000Y-129230000D01*
X106672400Y-95217600D02*
X108976000Y-95217600D01*
X101890000Y-100000000D02*
X106672400Y-95217600D01*
X101890000Y-113150000D02*
X101890000Y-100000000D01*
D19*
X106032000Y-105781600D02*
X108976000Y-102837600D01*
D20*
X102262001Y-129340000D02*
X107256000Y-109755999D01*
X99814000Y-129340000D02*
X104808000Y-109755999D01*
M02*
