%FSLAX45Y45*%
G04 Gerber Fmt 4.5, Leading zero omitted, Abs format (unit mm)*
G04 Created by KiCad (PCBNEW (6.0.5)) date 2023-05-08 03:06:56*
%MOMM*%
%LPD*%
G01*
G04 APERTURE LIST*
%TA.AperFunction,Profile*%
%ADD10C,0.050000*%
%TD*%
%TA.AperFunction,Profile*%
%ADD11C,0.150000*%
%TD*%
%TA.AperFunction,Profile*%
%ADD12C,0.100000*%
%TD*%
%ADD13C,0.200000*%
%ADD14C,0.040000*%
%ADD15C,0.100000*%
%ADD16C,0.130000*%
%ADD17C,0.150000*%
%ADD18C,0.170000*%
%ADD19C,0.220000*%
G04 APERTURE END LIST*
D10*
X21985800Y-4080680D02*
X20858400Y-4080680D01*
X20548600Y-8407400D02*
X20548600Y-7391400D01*
X20858400Y-3980680D02*
X20858400Y-4080680D01*
D11*
X17627600Y-7899400D02*
G75*
G03*
X17627600Y-7899400I-220000J0D01*
G01*
D10*
X20858400Y-3980680D02*
X15671200Y-3980680D01*
X21985600Y-13613560D02*
X21985600Y-12562000D01*
X20167600Y-7391400D02*
X20167600Y-8407400D01*
D12*
X17768000Y-9751000D02*
X18768000Y-9751000D01*
D10*
X15671200Y-4080680D02*
X14543800Y-4080680D01*
X14543800Y-5132240D02*
X13416400Y-5132240D01*
X20167600Y-8407400D02*
X20548600Y-8407400D01*
X16611600Y-8406897D02*
X16865600Y-8406897D01*
X21985800Y-5132240D02*
X21985800Y-4080680D01*
X19659600Y-8406897D02*
X19659600Y-7390896D01*
X19913600Y-8406897D02*
X19659600Y-8406897D01*
X16357600Y-7391400D02*
X15976600Y-7391400D01*
X15976600Y-8407400D02*
X16357600Y-8407400D01*
D12*
X18768000Y-9751000D02*
X18768000Y-8751000D01*
D10*
X20548600Y-7391400D02*
X20167600Y-7391400D01*
X23113000Y-12562000D02*
X21985600Y-12562000D01*
X14543600Y-12562000D02*
X13416200Y-12562000D01*
X16865600Y-7390896D02*
X16611600Y-7390896D01*
X14543800Y-5132240D02*
X14543800Y-4080680D01*
X15976600Y-7391400D02*
X15976600Y-8407400D01*
X15671000Y-13713560D02*
X15671000Y-13613560D01*
X13416400Y-5132240D02*
X13416200Y-12562000D01*
X15671000Y-13613560D02*
X14543600Y-13613560D01*
X21985600Y-13613560D02*
X20858200Y-13613560D01*
X20858200Y-13713560D02*
X15671000Y-13713560D01*
X23113000Y-12562000D02*
X23113200Y-5132240D01*
X19659600Y-7390896D02*
X19913600Y-7390896D01*
X23113200Y-5132240D02*
X21985800Y-5132240D01*
X15671200Y-4080680D02*
X15671200Y-3980680D01*
D12*
X17768000Y-8751000D02*
X18768000Y-8751000D01*
D10*
X16611600Y-7390896D02*
X16611600Y-8406897D01*
D11*
X19329400Y-7899400D02*
G75*
G03*
X19329400Y-7899400I-220000J0D01*
G01*
D10*
X16357600Y-8407400D02*
X16357600Y-7391400D01*
D12*
X17768000Y-9751000D02*
X17768000Y-8751000D01*
D10*
X19913600Y-7390896D02*
X19913600Y-8406897D01*
X20858200Y-13613560D02*
X20858200Y-13713560D01*
X16865600Y-8406897D02*
X16865600Y-7390896D01*
X14543600Y-13613560D02*
X14543600Y-12562000D01*
D13*
D14*
X14110000Y-6003000D02*
X14150000Y-6043000D01*
X14150000Y-6003000D02*
X14110000Y-6043000D01*
X14114000Y-5708000D02*
X14154000Y-5748000D01*
X14154000Y-5708000D02*
X14114000Y-5748000D01*
X14124000Y-5440000D02*
X14164000Y-5480000D01*
X14164000Y-5440000D02*
X14124000Y-5480000D01*
X14294000Y-6616000D02*
X14334000Y-6656000D01*
X14334000Y-6616000D02*
X14294000Y-6656000D01*
X14820000Y-6369000D02*
X14860000Y-6409000D01*
X14860000Y-6369000D02*
X14820000Y-6409000D01*
X14833000Y-6159000D02*
X14873000Y-6199000D01*
X14873000Y-6159000D02*
X14833000Y-6199000D01*
X14892000Y-5002000D02*
X14932000Y-5042000D01*
X14932000Y-5002000D02*
X14892000Y-5042000D01*
X15051000Y-4983000D02*
X15091000Y-5023000D01*
X15091000Y-4983000D02*
X15051000Y-5023000D01*
X15069750Y-6201250D02*
X15109750Y-6241250D01*
X15109750Y-6201250D02*
X15069750Y-6241250D01*
X15077000Y-5455000D02*
X15117000Y-5495000D01*
X15117000Y-5455000D02*
X15077000Y-5495000D01*
X15217000Y-6726000D02*
X15257000Y-6766000D01*
X15257000Y-6726000D02*
X15217000Y-6766000D01*
X15257250Y-6201250D02*
X15297250Y-6241250D01*
X15297250Y-6201250D02*
X15257250Y-6241250D01*
X15315750Y-6411250D02*
X15355750Y-6451250D01*
X15355750Y-6411250D02*
X15315750Y-6451250D01*
X15330000Y-5455000D02*
X15370000Y-5495000D01*
X15370000Y-5455000D02*
X15330000Y-5495000D01*
X15411000Y-5363000D02*
X15451000Y-5403000D01*
X15451000Y-5363000D02*
X15411000Y-5403000D01*
X15418000Y-5558000D02*
X15458000Y-5598000D01*
X15458000Y-5558000D02*
X15418000Y-5598000D01*
X15874200Y-7041200D02*
X15914200Y-7081200D01*
X15914200Y-7041200D02*
X15874200Y-7081200D01*
X15874200Y-7241200D02*
X15914200Y-7281200D01*
X15914200Y-7241200D02*
X15874200Y-7281200D01*
X15961500Y-6123000D02*
X16001500Y-6163000D01*
X16001500Y-6123000D02*
X15961500Y-6163000D01*
X15963500Y-5712000D02*
X16003500Y-5752000D01*
X16003500Y-5712000D02*
X15963500Y-5752000D01*
X16032800Y-4873800D02*
X16072800Y-4913800D01*
X16072800Y-4873800D02*
X16032800Y-4913800D01*
X16032800Y-5229000D02*
X16072800Y-5269000D01*
X16072800Y-5229000D02*
X16032800Y-5269000D01*
X16074200Y-7041200D02*
X16114200Y-7081200D01*
X16114200Y-7041200D02*
X16074200Y-7081200D01*
X16074200Y-7241200D02*
X16114200Y-7281200D01*
X16114200Y-7241200D02*
X16074200Y-7281200D01*
X16274200Y-7041200D02*
X16314200Y-7081200D01*
X16314200Y-7041200D02*
X16274200Y-7081200D01*
X16274200Y-7241200D02*
X16314200Y-7281200D01*
X16314200Y-7241200D02*
X16274200Y-7281200D01*
X16474200Y-7041200D02*
X16514200Y-7081200D01*
X16514200Y-7041200D02*
X16474200Y-7081200D01*
X16474200Y-7241200D02*
X16514200Y-7281200D01*
X16514200Y-7241200D02*
X16474200Y-7281200D01*
X16578500Y-5933500D02*
X16618500Y-5973500D01*
X16618500Y-5933500D02*
X16578500Y-5973500D01*
X16674200Y-7041200D02*
X16714200Y-7081200D01*
X16714200Y-7041200D02*
X16674200Y-7081200D01*
X16674200Y-7241200D02*
X16714200Y-7281200D01*
X16714200Y-7241200D02*
X16674200Y-7281200D01*
X16807600Y-8711400D02*
X16847600Y-8751400D01*
X16847600Y-8711400D02*
X16807600Y-8751400D01*
X16807600Y-8911400D02*
X16847600Y-8951400D01*
X16847600Y-8911400D02*
X16807600Y-8951400D01*
X16807600Y-9111400D02*
X16847600Y-9151400D01*
X16847600Y-9111400D02*
X16807600Y-9151400D01*
X16807600Y-9311400D02*
X16847600Y-9351400D01*
X16847600Y-9311400D02*
X16807600Y-9351400D01*
X16807600Y-9511400D02*
X16847600Y-9551400D01*
X16847600Y-9511400D02*
X16807600Y-9551400D01*
X16807600Y-9711400D02*
X16847600Y-9751400D01*
X16847600Y-9711400D02*
X16807600Y-9751400D01*
X16807600Y-9911400D02*
X16847600Y-9951400D01*
X16847600Y-9911400D02*
X16807600Y-9951400D01*
X16830000Y-5770000D02*
X16870000Y-5810000D01*
X16870000Y-5770000D02*
X16830000Y-5810000D01*
X16874200Y-7041200D02*
X16914200Y-7081200D01*
X16914200Y-7041200D02*
X16874200Y-7081200D01*
X16874200Y-7241200D02*
X16914200Y-7281200D01*
X16914200Y-7241200D02*
X16874200Y-7281200D01*
X16926000Y-6419000D02*
X16966000Y-6459000D01*
X16966000Y-6419000D02*
X16926000Y-6459000D01*
X16947200Y-7485800D02*
X16987200Y-7525800D01*
X16987200Y-7485800D02*
X16947200Y-7525800D01*
X16947200Y-7685800D02*
X16987200Y-7725800D01*
X16987200Y-7685800D02*
X16947200Y-7725800D01*
X16947200Y-7885800D02*
X16987200Y-7925800D01*
X16987200Y-7885800D02*
X16947200Y-7925800D01*
X16947200Y-8085800D02*
X16987200Y-8125800D01*
X16987200Y-8085800D02*
X16947200Y-8125800D01*
X16947200Y-8285800D02*
X16987200Y-8325800D01*
X16987200Y-8285800D02*
X16947200Y-8325800D01*
X17007600Y-8711400D02*
X17047600Y-8751400D01*
X17047600Y-8711400D02*
X17007600Y-8751400D01*
X17007600Y-8911400D02*
X17047600Y-8951400D01*
X17047600Y-8911400D02*
X17007600Y-8951400D01*
X17007600Y-9111400D02*
X17047600Y-9151400D01*
X17047600Y-9111400D02*
X17007600Y-9151400D01*
X17007600Y-9311400D02*
X17047600Y-9351400D01*
X17047600Y-9311400D02*
X17007600Y-9351400D01*
X17007600Y-9511400D02*
X17047600Y-9551400D01*
X17047600Y-9511400D02*
X17007600Y-9551400D01*
X17007600Y-9711400D02*
X17047600Y-9751400D01*
X17047600Y-9711400D02*
X17007600Y-9751400D01*
X17007600Y-9911400D02*
X17047600Y-9951400D01*
X17047600Y-9911400D02*
X17007600Y-9951400D01*
X17074200Y-7041200D02*
X17114200Y-7081200D01*
X17114200Y-7041200D02*
X17074200Y-7081200D01*
X17207600Y-8711400D02*
X17247600Y-8751400D01*
X17247600Y-8711400D02*
X17207600Y-8751400D01*
X17207600Y-8911400D02*
X17247600Y-8951400D01*
X17247600Y-8911400D02*
X17207600Y-8951400D01*
X17207600Y-9111400D02*
X17247600Y-9151400D01*
X17247600Y-9111400D02*
X17207600Y-9151400D01*
X17207600Y-9311400D02*
X17247600Y-9351400D01*
X17247600Y-9311400D02*
X17207600Y-9351400D01*
X17207600Y-9511400D02*
X17247600Y-9551400D01*
X17247600Y-9511400D02*
X17207600Y-9551400D01*
X17207600Y-9711400D02*
X17247600Y-9751400D01*
X17247600Y-9711400D02*
X17207600Y-9751400D01*
X17207600Y-9911400D02*
X17247600Y-9951400D01*
X17247600Y-9911400D02*
X17207600Y-9951400D01*
X17281000Y-4141000D02*
X17321000Y-4181000D01*
X17321000Y-4141000D02*
X17281000Y-4181000D01*
X17407600Y-8711400D02*
X17447600Y-8751400D01*
X17447600Y-8711400D02*
X17407600Y-8751400D01*
X17407600Y-8911400D02*
X17447600Y-8951400D01*
X17447600Y-8911400D02*
X17407600Y-8951400D01*
X17407600Y-9111400D02*
X17447600Y-9151400D01*
X17447600Y-9111400D02*
X17407600Y-9151400D01*
X17407600Y-9311400D02*
X17447600Y-9351400D01*
X17447600Y-9311400D02*
X17407600Y-9351400D01*
X17407600Y-9511400D02*
X17447600Y-9551400D01*
X17447600Y-9511400D02*
X17407600Y-9551400D01*
X17407600Y-9711400D02*
X17447600Y-9751400D01*
X17447600Y-9711400D02*
X17407600Y-9751400D01*
X17407600Y-9911400D02*
X17447600Y-9951400D01*
X17447600Y-9911400D02*
X17407600Y-9951400D01*
X17597300Y-4167600D02*
X17637300Y-4207600D01*
X17637300Y-4167600D02*
X17597300Y-4207600D01*
X17607600Y-8711400D02*
X17647600Y-8751400D01*
X17647600Y-8711400D02*
X17607600Y-8751400D01*
X17607600Y-8911400D02*
X17647600Y-8951400D01*
X17647600Y-8911400D02*
X17607600Y-8951400D01*
X17607600Y-9111400D02*
X17647600Y-9151400D01*
X17647600Y-9111400D02*
X17607600Y-9151400D01*
X17607600Y-9311400D02*
X17647600Y-9351400D01*
X17647600Y-9311400D02*
X17607600Y-9351400D01*
X17607600Y-9511400D02*
X17647600Y-9551400D01*
X17647600Y-9511400D02*
X17607600Y-9551400D01*
X17607600Y-9711400D02*
X17647600Y-9751400D01*
X17647600Y-9711400D02*
X17607600Y-9751400D01*
X17607600Y-9911400D02*
X17647600Y-9951400D01*
X17647600Y-9911400D02*
X17607600Y-9951400D01*
X17626800Y-7041200D02*
X17666800Y-7081200D01*
X17666800Y-7041200D02*
X17626800Y-7081200D01*
X17709200Y-5491800D02*
X17749200Y-5531800D01*
X17749200Y-5491800D02*
X17709200Y-5531800D01*
X17709200Y-5593400D02*
X17749200Y-5633400D01*
X17749200Y-5593400D02*
X17709200Y-5633400D01*
X17709200Y-5695000D02*
X17749200Y-5735000D01*
X17749200Y-5695000D02*
X17709200Y-5735000D01*
X17709200Y-5796600D02*
X17749200Y-5836600D01*
X17749200Y-5796600D02*
X17709200Y-5836600D01*
X17826800Y-7041200D02*
X17866800Y-7081200D01*
X17866800Y-7041200D02*
X17826800Y-7081200D01*
X17826800Y-7241200D02*
X17866800Y-7281200D01*
X17866800Y-7241200D02*
X17826800Y-7281200D01*
X17836200Y-5491800D02*
X17876200Y-5531800D01*
X17876200Y-5491800D02*
X17836200Y-5531800D01*
X17836200Y-5593400D02*
X17876200Y-5633400D01*
X17876200Y-5593400D02*
X17836200Y-5633400D01*
X17836200Y-5695000D02*
X17876200Y-5735000D01*
X17876200Y-5695000D02*
X17836200Y-5735000D01*
X17836200Y-5796600D02*
X17876200Y-5836600D01*
X17876200Y-5796600D02*
X17836200Y-5836600D01*
X17836200Y-7889000D02*
X17876200Y-7929000D01*
X17876200Y-7889000D02*
X17836200Y-7929000D01*
X17836200Y-8089000D02*
X17876200Y-8129000D01*
X17876200Y-8089000D02*
X17836200Y-8129000D01*
X17836200Y-8289000D02*
X17876200Y-8329000D01*
X17876200Y-8289000D02*
X17836200Y-8329000D01*
X17836200Y-8489000D02*
X17876200Y-8529000D01*
X17876200Y-8489000D02*
X17836200Y-8529000D01*
X17891300Y-4795600D02*
X17931300Y-4835600D01*
X17931300Y-4795600D02*
X17891300Y-4835600D01*
X18026800Y-7041200D02*
X18066800Y-7081200D01*
X18066800Y-7041200D02*
X18026800Y-7081200D01*
X18026800Y-7241200D02*
X18066800Y-7281200D01*
X18066800Y-7241200D02*
X18026800Y-7281200D01*
X18039400Y-8209600D02*
X18079400Y-8249600D01*
X18079400Y-8209600D02*
X18039400Y-8249600D01*
X18109800Y-5139100D02*
X18149800Y-5179100D01*
X18149800Y-5139100D02*
X18109800Y-5179100D01*
X18226800Y-7041200D02*
X18266800Y-7081200D01*
X18266800Y-7041200D02*
X18226800Y-7081200D01*
X18226800Y-7241200D02*
X18266800Y-7281200D01*
X18266800Y-7241200D02*
X18226800Y-7281200D01*
X18251300Y-4349600D02*
X18291300Y-4389600D01*
X18291300Y-4349600D02*
X18251300Y-4389600D01*
X18318800Y-8489000D02*
X18358800Y-8529000D01*
X18358800Y-8489000D02*
X18318800Y-8529000D01*
X18327300Y-4907600D02*
X18367300Y-4947600D01*
X18367300Y-4907600D02*
X18327300Y-4947600D01*
X18426800Y-7041200D02*
X18466800Y-7081200D01*
X18466800Y-7041200D02*
X18426800Y-7081200D01*
X18426800Y-7241200D02*
X18466800Y-7281200D01*
X18466800Y-7241200D02*
X18426800Y-7281200D01*
X18598200Y-8209600D02*
X18638200Y-8249600D01*
X18638200Y-8209600D02*
X18598200Y-8249600D01*
X18626800Y-7041200D02*
X18666800Y-7081200D01*
X18666800Y-7041200D02*
X18626800Y-7081200D01*
X18626800Y-7241200D02*
X18666800Y-7281200D01*
X18666800Y-7241200D02*
X18626800Y-7281200D01*
X18735300Y-4503600D02*
X18775300Y-4543600D01*
X18775300Y-4503600D02*
X18735300Y-4543600D01*
X18826800Y-7041200D02*
X18866800Y-7081200D01*
X18866800Y-7041200D02*
X18826800Y-7081200D01*
X18890400Y-8711400D02*
X18930400Y-8751400D01*
X18930400Y-8711400D02*
X18890400Y-8751400D01*
X18890400Y-8911400D02*
X18930400Y-8951400D01*
X18930400Y-8911400D02*
X18890400Y-8951400D01*
X18890400Y-9111400D02*
X18930400Y-9151400D01*
X18930400Y-9111400D02*
X18890400Y-9151400D01*
X18890400Y-9311400D02*
X18930400Y-9351400D01*
X18930400Y-9311400D02*
X18890400Y-9351400D01*
X18890400Y-9511400D02*
X18930400Y-9551400D01*
X18930400Y-9511400D02*
X18890400Y-9551400D01*
X18890400Y-9711400D02*
X18930400Y-9751400D01*
X18930400Y-9711400D02*
X18890400Y-9751400D01*
X18890400Y-9911400D02*
X18930400Y-9951400D01*
X18930400Y-9911400D02*
X18890400Y-9951400D01*
X19090400Y-8711400D02*
X19130400Y-8751400D01*
X19130400Y-8711400D02*
X19090400Y-8751400D01*
X19090400Y-8911400D02*
X19130400Y-8951400D01*
X19130400Y-8911400D02*
X19090400Y-8951400D01*
X19090400Y-9111400D02*
X19130400Y-9151400D01*
X19130400Y-9111400D02*
X19090400Y-9151400D01*
X19090400Y-9311400D02*
X19130400Y-9351400D01*
X19130400Y-9311400D02*
X19090400Y-9351400D01*
X19090400Y-9511400D02*
X19130400Y-9551400D01*
X19130400Y-9511400D02*
X19090400Y-9551400D01*
X19090400Y-9711400D02*
X19130400Y-9751400D01*
X19130400Y-9711400D02*
X19090400Y-9751400D01*
X19090400Y-9911400D02*
X19130400Y-9951400D01*
X19130400Y-9911400D02*
X19090400Y-9951400D01*
X19101550Y-4417350D02*
X19141550Y-4457350D01*
X19141550Y-4417350D02*
X19101550Y-4457350D01*
X19131300Y-4708600D02*
X19171300Y-4748600D01*
X19171300Y-4708600D02*
X19131300Y-4748600D01*
X19290400Y-8711400D02*
X19330400Y-8751400D01*
X19330400Y-8711400D02*
X19290400Y-8751400D01*
X19290400Y-8911400D02*
X19330400Y-8951400D01*
X19330400Y-8911400D02*
X19290400Y-8951400D01*
X19290400Y-9111400D02*
X19330400Y-9151400D01*
X19330400Y-9111400D02*
X19290400Y-9151400D01*
X19290400Y-9311400D02*
X19330400Y-9351400D01*
X19330400Y-9311400D02*
X19290400Y-9351400D01*
X19290400Y-9511400D02*
X19330400Y-9551400D01*
X19330400Y-9511400D02*
X19290400Y-9551400D01*
X19290400Y-9711400D02*
X19330400Y-9751400D01*
X19330400Y-9711400D02*
X19290400Y-9751400D01*
X19290400Y-9911400D02*
X19330400Y-9951400D01*
X19330400Y-9911400D02*
X19290400Y-9951400D01*
X19430200Y-7041200D02*
X19470200Y-7081200D01*
X19470200Y-7041200D02*
X19430200Y-7081200D01*
X19461300Y-4747600D02*
X19501300Y-4787600D01*
X19501300Y-4747600D02*
X19461300Y-4787600D01*
X19474300Y-4390600D02*
X19514300Y-4430600D01*
X19514300Y-4390600D02*
X19474300Y-4430600D01*
X19480800Y-5098100D02*
X19520800Y-5138100D01*
X19520800Y-5098100D02*
X19480800Y-5138100D01*
X19487200Y-8710362D02*
X19527200Y-8750362D01*
X19527200Y-8710362D02*
X19487200Y-8750362D01*
X19487200Y-8910362D02*
X19527200Y-8950362D01*
X19527200Y-8910362D02*
X19487200Y-8950362D01*
X19487200Y-9110362D02*
X19527200Y-9150362D01*
X19527200Y-9110362D02*
X19487200Y-9150362D01*
X19487200Y-9310362D02*
X19527200Y-9350362D01*
X19527200Y-9310362D02*
X19487200Y-9350362D01*
X19487200Y-9510362D02*
X19527200Y-9550362D01*
X19527200Y-9510362D02*
X19487200Y-9550362D01*
X19487200Y-9710362D02*
X19527200Y-9750362D01*
X19527200Y-9710362D02*
X19487200Y-9750362D01*
X19487200Y-9910362D02*
X19527200Y-9950362D01*
X19527200Y-9910362D02*
X19487200Y-9950362D01*
X19538000Y-7485800D02*
X19578000Y-7525800D01*
X19578000Y-7485800D02*
X19538000Y-7525800D01*
X19538000Y-7685800D02*
X19578000Y-7725800D01*
X19578000Y-7685800D02*
X19538000Y-7725800D01*
X19538000Y-7885800D02*
X19578000Y-7925800D01*
X19578000Y-7885800D02*
X19538000Y-7925800D01*
X19538000Y-8085800D02*
X19578000Y-8125800D01*
X19578000Y-8085800D02*
X19538000Y-8125800D01*
X19538000Y-8285800D02*
X19578000Y-8325800D01*
X19578000Y-8285800D02*
X19538000Y-8325800D01*
X19630200Y-7041200D02*
X19670200Y-7081200D01*
X19670200Y-7041200D02*
X19630200Y-7081200D01*
X19630200Y-7241200D02*
X19670200Y-7281200D01*
X19670200Y-7241200D02*
X19630200Y-7281200D01*
X19830200Y-7041200D02*
X19870200Y-7081200D01*
X19870200Y-7041200D02*
X19830200Y-7081200D01*
X19830200Y-7241200D02*
X19870200Y-7281200D01*
X19870200Y-7241200D02*
X19830200Y-7281200D01*
X19879000Y-4342000D02*
X19919000Y-4382000D01*
X19919000Y-4342000D02*
X19879000Y-4382000D01*
X19887000Y-4673000D02*
X19927000Y-4713000D01*
X19927000Y-4673000D02*
X19887000Y-4713000D01*
X20030200Y-7041200D02*
X20070200Y-7081200D01*
X20070200Y-7041200D02*
X20030200Y-7081200D01*
X20030200Y-7241200D02*
X20070200Y-7281200D01*
X20070200Y-7241200D02*
X20030200Y-7281200D01*
X20125760Y-4857760D02*
X20165760Y-4897760D01*
X20165760Y-4857760D02*
X20125760Y-4897760D01*
X20230200Y-7041200D02*
X20270200Y-7081200D01*
X20270200Y-7041200D02*
X20230200Y-7081200D01*
X20230200Y-7241200D02*
X20270200Y-7281200D01*
X20270200Y-7241200D02*
X20230200Y-7281200D01*
X20430200Y-7041200D02*
X20470200Y-7081200D01*
X20470200Y-7041200D02*
X20430200Y-7081200D01*
X20430200Y-7241200D02*
X20470200Y-7281200D01*
X20470200Y-7241200D02*
X20430200Y-7281200D01*
X20630200Y-7041200D02*
X20670200Y-7081200D01*
X20670200Y-7041200D02*
X20630200Y-7081200D01*
X20630200Y-7241200D02*
X20670200Y-7281200D01*
X20670200Y-7241200D02*
X20630200Y-7281200D01*
X20985800Y-12680000D02*
X21025800Y-12720000D01*
X21025800Y-12680000D02*
X20985800Y-12720000D01*
D15*
X15594800Y-5073800D02*
G75*
G03*
X15594800Y-5073800I-50000J0D01*
G01*
X15848800Y-5073800D02*
G75*
G03*
X15848800Y-5073800I-50000J0D01*
G01*
X16102800Y-5073800D02*
G75*
G03*
X16102800Y-5073800I-50000J0D01*
G01*
X16356800Y-5073800D02*
G75*
G03*
X16356800Y-5073800I-50000J0D01*
G01*
X16610800Y-5073800D02*
G75*
G03*
X16610800Y-5073800I-50000J0D01*
G01*
X16864800Y-5073800D02*
G75*
G03*
X16864800Y-5073800I-50000J0D01*
G01*
X17118800Y-5073800D02*
G75*
G03*
X17118800Y-5073800I-50000J0D01*
G01*
X17372800Y-5073800D02*
G75*
G03*
X17372800Y-5073800I-50000J0D01*
G01*
X19934600Y-9288300D02*
G75*
G03*
X19934600Y-9288300I-50000J0D01*
G01*
X19934600Y-9796300D02*
G75*
G03*
X19934600Y-9796300I-50000J0D01*
G01*
X20061600Y-9034300D02*
G75*
G03*
X20061600Y-9034300I-50000J0D01*
G01*
X20061600Y-10050300D02*
G75*
G03*
X20061600Y-10050300I-50000J0D01*
G01*
X20315600Y-9034300D02*
G75*
G03*
X20315600Y-9034300I-50000J0D01*
G01*
X20315600Y-10050300D02*
G75*
G03*
X20315600Y-10050300I-50000J0D01*
G01*
X20471600Y-9288300D02*
G75*
G03*
X20471600Y-9288300I-50000J0D01*
G01*
X20471600Y-9796300D02*
G75*
G03*
X20471600Y-9796300I-50000J0D01*
G01*
D16*
X15817000Y-9002000D02*
X15817000Y-9132000D01*
X15752000Y-9067000D02*
X15882000Y-9067000D01*
X15817000Y-9764000D02*
X15817000Y-9894000D01*
X15752000Y-9829000D02*
X15882000Y-9829000D01*
D17*
X18396178Y-8282130D02*
X18396178Y-8176063D01*
X18290111Y-8176063D01*
X18290111Y-8282130D01*
X18396178Y-8282130D01*
D18*
X18089144Y-8060096D02*
X18174144Y-7975096D01*
X18089144Y-7890096D01*
X18004144Y-7975096D01*
X18089144Y-8060096D01*
X18089144Y-8568097D02*
X18174144Y-8483097D01*
X18089144Y-8398097D01*
X18004144Y-8483097D01*
X18089144Y-8568097D01*
X18597144Y-8060096D02*
X18682144Y-7975096D01*
X18597144Y-7890096D01*
X18512144Y-7975096D01*
X18597144Y-8060096D01*
X18597144Y-8568097D02*
X18682144Y-8483097D01*
X18597144Y-8398097D01*
X18512144Y-8483097D01*
X18597144Y-8568097D01*
D13*
X13828000Y-10835000D02*
X14028000Y-11035000D01*
X14028000Y-10835000D02*
X13828000Y-11035000D01*
X14028000Y-10935000D02*
G75*
G03*
X14028000Y-10935000I-100000J0D01*
G01*
X13828000Y-11735000D02*
X14028000Y-11935000D01*
X14028000Y-11735000D02*
X13828000Y-11935000D01*
X14028000Y-11835000D02*
G75*
G03*
X14028000Y-11835000I-100000J0D01*
G01*
X14004200Y-9683000D02*
X14204200Y-9883000D01*
X14204200Y-9683000D02*
X14004200Y-9883000D01*
X14204200Y-9783000D02*
G75*
G03*
X14204200Y-9783000I-100000J0D01*
G01*
X14904200Y-9683000D02*
X15104200Y-9883000D01*
X15104200Y-9683000D02*
X14904200Y-9883000D01*
X15104200Y-9783000D02*
G75*
G03*
X15104200Y-9783000I-100000J0D01*
G01*
X17716000Y-13131000D02*
X17916000Y-13331000D01*
X17916000Y-13131000D02*
X17716000Y-13331000D01*
X17916000Y-13231000D02*
G75*
G03*
X17916000Y-13231000I-100000J0D01*
G01*
X18616000Y-13131000D02*
X18816000Y-13331000D01*
X18816000Y-13131000D02*
X18616000Y-13331000D01*
X18816000Y-13231000D02*
G75*
G03*
X18816000Y-13231000I-100000J0D01*
G01*
X20300800Y-5596800D02*
X20500800Y-5796800D01*
X20500800Y-5596800D02*
X20300800Y-5796800D01*
X20500800Y-5696800D02*
G75*
G03*
X20500800Y-5696800I-100000J0D01*
G01*
X20300800Y-6496800D02*
X20500800Y-6696800D01*
X20500800Y-6496800D02*
X20300800Y-6696800D01*
X20500800Y-6596800D02*
G75*
G03*
X20500800Y-6596800I-100000J0D01*
G01*
X21421000Y-9683000D02*
X21621000Y-9883000D01*
X21621000Y-9683000D02*
X21421000Y-9883000D01*
X21621000Y-9783000D02*
G75*
G03*
X21621000Y-9783000I-100000J0D01*
G01*
X22321000Y-9683000D02*
X22521000Y-9883000D01*
X22521000Y-9683000D02*
X22321000Y-9883000D01*
X22521000Y-9783000D02*
G75*
G03*
X22521000Y-9783000I-100000J0D01*
G01*
X22502000Y-10833000D02*
X22702000Y-11033000D01*
X22702000Y-10833000D02*
X22502000Y-11033000D01*
X22702000Y-10933000D02*
G75*
G03*
X22702000Y-10933000I-100000J0D01*
G01*
X22502000Y-11733000D02*
X22702000Y-11933000D01*
X22702000Y-11733000D02*
X22502000Y-11933000D01*
X22702000Y-11833000D02*
G75*
G03*
X22702000Y-11833000I-100000J0D01*
G01*
D19*
X15408200Y-4486560D02*
X15628200Y-4706560D01*
X15628200Y-4486560D02*
X15408200Y-4706560D01*
X15518200Y-4486560D02*
X15518200Y-4706560D01*
X15408200Y-4596560D02*
X15628200Y-4596560D01*
X15408200Y-12986560D02*
X15628200Y-13206560D01*
X15628200Y-12986560D02*
X15408200Y-13206560D01*
X15518200Y-12986560D02*
X15518200Y-13206560D01*
X15408200Y-13096560D02*
X15628200Y-13096560D01*
X21075600Y-4486560D02*
X21295600Y-4706560D01*
X21295600Y-4486560D02*
X21075600Y-4706560D01*
X21185600Y-4486560D02*
X21185600Y-4706560D01*
X21075600Y-4596560D02*
X21295600Y-4596560D01*
X21075600Y-12986560D02*
X21295600Y-13206560D01*
X21295600Y-12986560D02*
X21075600Y-13206560D01*
X21185600Y-12986560D02*
X21185600Y-13206560D01*
X21075600Y-13096560D02*
X21295600Y-13096560D01*
D13*
X13671319Y-14026536D02*
X13671319Y-13826536D01*
X13718938Y-13826536D01*
X13747509Y-13836060D01*
X13766557Y-13855108D01*
X13776081Y-13874155D01*
X13785605Y-13912250D01*
X13785605Y-13940822D01*
X13776081Y-13978917D01*
X13766557Y-13997965D01*
X13747509Y-14017012D01*
X13718938Y-14026536D01*
X13671319Y-14026536D01*
X13871319Y-14026536D02*
X13871319Y-13893203D01*
X13871319Y-13931298D02*
X13880843Y-13912250D01*
X13890367Y-13902727D01*
X13909414Y-13893203D01*
X13928462Y-13893203D01*
X13995128Y-14026536D02*
X13995128Y-13893203D01*
X13995128Y-13826536D02*
X13985605Y-13836060D01*
X13995128Y-13845584D01*
X14004652Y-13836060D01*
X13995128Y-13826536D01*
X13995128Y-13845584D01*
X14118938Y-14026536D02*
X14099890Y-14017012D01*
X14090367Y-13997965D01*
X14090367Y-13826536D01*
X14223700Y-14026536D02*
X14204652Y-14017012D01*
X14195128Y-13997965D01*
X14195128Y-13826536D01*
X14452271Y-14026536D02*
X14452271Y-13826536D01*
X14518938Y-13969393D01*
X14585605Y-13826536D01*
X14585605Y-14026536D01*
X14766557Y-14026536D02*
X14766557Y-13921774D01*
X14757033Y-13902727D01*
X14737986Y-13893203D01*
X14699890Y-13893203D01*
X14680843Y-13902727D01*
X14766557Y-14017012D02*
X14747509Y-14026536D01*
X14699890Y-14026536D01*
X14680843Y-14017012D01*
X14671319Y-13997965D01*
X14671319Y-13978917D01*
X14680843Y-13959869D01*
X14699890Y-13950346D01*
X14747509Y-13950346D01*
X14766557Y-13940822D01*
X14861795Y-13893203D02*
X14861795Y-14093203D01*
X14861795Y-13902727D02*
X14880843Y-13893203D01*
X14918938Y-13893203D01*
X14937986Y-13902727D01*
X14947509Y-13912250D01*
X14957033Y-13931298D01*
X14957033Y-13988441D01*
X14947509Y-14007488D01*
X14937986Y-14017012D01*
X14918938Y-14026536D01*
X14880843Y-14026536D01*
X14861795Y-14017012D01*
X15042748Y-14007488D02*
X15052271Y-14017012D01*
X15042748Y-14026536D01*
X15033224Y-14017012D01*
X15042748Y-14007488D01*
X15042748Y-14026536D01*
X15042748Y-13902727D02*
X15052271Y-13912250D01*
X15042748Y-13921774D01*
X15033224Y-13912250D01*
X15042748Y-13902727D01*
X15042748Y-13921774D01*
D14*
X13373700Y-14336060D02*
X13413700Y-14376060D01*
X13413700Y-14336060D02*
X13373700Y-14376060D01*
D13*
X13709414Y-14246536D02*
X13728462Y-14246536D01*
X13747509Y-14256060D01*
X13757033Y-14265584D01*
X13766557Y-14284631D01*
X13776081Y-14322727D01*
X13776081Y-14370346D01*
X13766557Y-14408441D01*
X13757033Y-14427488D01*
X13747509Y-14437012D01*
X13728462Y-14446536D01*
X13709414Y-14446536D01*
X13690367Y-14437012D01*
X13680843Y-14427488D01*
X13671319Y-14408441D01*
X13661795Y-14370346D01*
X13661795Y-14322727D01*
X13671319Y-14284631D01*
X13680843Y-14265584D01*
X13690367Y-14256060D01*
X13709414Y-14246536D01*
X13861795Y-14427488D02*
X13871319Y-14437012D01*
X13861795Y-14446536D01*
X13852271Y-14437012D01*
X13861795Y-14427488D01*
X13861795Y-14446536D01*
X14042748Y-14313203D02*
X14042748Y-14446536D01*
X13995128Y-14237012D02*
X13947509Y-14379869D01*
X14071319Y-14379869D01*
X14185605Y-14246536D02*
X14204652Y-14246536D01*
X14223700Y-14256060D01*
X14233224Y-14265584D01*
X14242748Y-14284631D01*
X14252271Y-14322727D01*
X14252271Y-14370346D01*
X14242748Y-14408441D01*
X14233224Y-14427488D01*
X14223700Y-14437012D01*
X14204652Y-14446536D01*
X14185605Y-14446536D01*
X14166557Y-14437012D01*
X14157033Y-14427488D01*
X14147509Y-14408441D01*
X14137986Y-14370346D01*
X14137986Y-14322727D01*
X14147509Y-14284631D01*
X14157033Y-14265584D01*
X14166557Y-14256060D01*
X14185605Y-14246536D01*
X14376081Y-14246536D02*
X14395128Y-14246536D01*
X14414176Y-14256060D01*
X14423700Y-14265584D01*
X14433224Y-14284631D01*
X14442748Y-14322727D01*
X14442748Y-14370346D01*
X14433224Y-14408441D01*
X14423700Y-14427488D01*
X14414176Y-14437012D01*
X14395128Y-14446536D01*
X14376081Y-14446536D01*
X14357033Y-14437012D01*
X14347509Y-14427488D01*
X14337986Y-14408441D01*
X14328462Y-14370346D01*
X14328462Y-14322727D01*
X14337986Y-14284631D01*
X14347509Y-14265584D01*
X14357033Y-14256060D01*
X14376081Y-14246536D01*
X14528462Y-14446536D02*
X14528462Y-14313203D01*
X14528462Y-14332250D02*
X14537986Y-14322727D01*
X14557033Y-14313203D01*
X14585605Y-14313203D01*
X14604652Y-14322727D01*
X14614176Y-14341774D01*
X14614176Y-14446536D01*
X14614176Y-14341774D02*
X14623700Y-14322727D01*
X14642748Y-14313203D01*
X14671319Y-14313203D01*
X14690367Y-14322727D01*
X14699890Y-14341774D01*
X14699890Y-14446536D01*
X14795128Y-14446536D02*
X14795128Y-14313203D01*
X14795128Y-14332250D02*
X14804652Y-14322727D01*
X14823700Y-14313203D01*
X14852271Y-14313203D01*
X14871319Y-14322727D01*
X14880843Y-14341774D01*
X14880843Y-14446536D01*
X14880843Y-14341774D02*
X14890367Y-14322727D01*
X14909414Y-14313203D01*
X14937986Y-14313203D01*
X14957033Y-14322727D01*
X14966557Y-14341774D01*
X14966557Y-14446536D01*
X15357033Y-14237012D02*
X15185605Y-14494155D01*
X15614176Y-14246536D02*
X15633224Y-14246536D01*
X15652271Y-14256060D01*
X15661795Y-14265584D01*
X15671319Y-14284631D01*
X15680843Y-14322727D01*
X15680843Y-14370346D01*
X15671319Y-14408441D01*
X15661795Y-14427488D01*
X15652271Y-14437012D01*
X15633224Y-14446536D01*
X15614176Y-14446536D01*
X15595128Y-14437012D01*
X15585605Y-14427488D01*
X15576081Y-14408441D01*
X15566557Y-14370346D01*
X15566557Y-14322727D01*
X15576081Y-14284631D01*
X15585605Y-14265584D01*
X15595128Y-14256060D01*
X15614176Y-14246536D01*
X15766557Y-14427488D02*
X15776081Y-14437012D01*
X15766557Y-14446536D01*
X15757033Y-14437012D01*
X15766557Y-14427488D01*
X15766557Y-14446536D01*
X15899890Y-14246536D02*
X15918938Y-14246536D01*
X15937986Y-14256060D01*
X15947509Y-14265584D01*
X15957033Y-14284631D01*
X15966557Y-14322727D01*
X15966557Y-14370346D01*
X15957033Y-14408441D01*
X15947509Y-14427488D01*
X15937986Y-14437012D01*
X15918938Y-14446536D01*
X15899890Y-14446536D01*
X15880843Y-14437012D01*
X15871319Y-14427488D01*
X15861795Y-14408441D01*
X15852271Y-14370346D01*
X15852271Y-14322727D01*
X15861795Y-14284631D01*
X15871319Y-14265584D01*
X15880843Y-14256060D01*
X15899890Y-14246536D01*
X16157033Y-14446536D02*
X16042748Y-14446536D01*
X16099890Y-14446536D02*
X16099890Y-14246536D01*
X16080843Y-14275108D01*
X16061795Y-14294155D01*
X16042748Y-14303679D01*
X16337986Y-14246536D02*
X16242748Y-14246536D01*
X16233224Y-14341774D01*
X16242748Y-14332250D01*
X16261795Y-14322727D01*
X16309414Y-14322727D01*
X16328462Y-14332250D01*
X16337986Y-14341774D01*
X16347509Y-14360822D01*
X16347509Y-14408441D01*
X16337986Y-14427488D01*
X16328462Y-14437012D01*
X16309414Y-14446536D01*
X16261795Y-14446536D01*
X16242748Y-14437012D01*
X16233224Y-14427488D01*
X16414176Y-14246536D02*
X16547509Y-14246536D01*
X16461795Y-14446536D01*
X16614176Y-14246536D02*
X16614176Y-14284631D01*
X16690367Y-14246536D02*
X16690367Y-14284631D01*
X16985605Y-14522727D02*
X16976081Y-14513203D01*
X16957033Y-14484631D01*
X16947510Y-14465584D01*
X16937986Y-14437012D01*
X16928462Y-14389393D01*
X16928462Y-14351298D01*
X16937986Y-14303679D01*
X16947510Y-14275108D01*
X16957033Y-14256060D01*
X16976081Y-14227488D01*
X16985605Y-14217965D01*
X17166557Y-14446536D02*
X17052271Y-14446536D01*
X17109414Y-14446536D02*
X17109414Y-14246536D01*
X17090367Y-14275108D01*
X17071319Y-14294155D01*
X17052271Y-14303679D01*
X17337986Y-14246536D02*
X17299890Y-14246536D01*
X17280843Y-14256060D01*
X17271319Y-14265584D01*
X17252271Y-14294155D01*
X17242748Y-14332250D01*
X17242748Y-14408441D01*
X17252271Y-14427488D01*
X17261795Y-14437012D01*
X17280843Y-14446536D01*
X17318938Y-14446536D01*
X17337986Y-14437012D01*
X17347510Y-14427488D01*
X17357033Y-14408441D01*
X17357033Y-14360822D01*
X17347510Y-14341774D01*
X17337986Y-14332250D01*
X17318938Y-14322727D01*
X17280843Y-14322727D01*
X17261795Y-14332250D01*
X17252271Y-14341774D01*
X17242748Y-14360822D01*
X17537986Y-14246536D02*
X17442748Y-14246536D01*
X17433224Y-14341774D01*
X17442748Y-14332250D01*
X17461795Y-14322727D01*
X17509414Y-14322727D01*
X17528462Y-14332250D01*
X17537986Y-14341774D01*
X17547510Y-14360822D01*
X17547510Y-14408441D01*
X17537986Y-14427488D01*
X17528462Y-14437012D01*
X17509414Y-14446536D01*
X17461795Y-14446536D01*
X17442748Y-14437012D01*
X17433224Y-14427488D01*
X17785605Y-14446536D02*
X17785605Y-14246536D01*
X17871319Y-14446536D02*
X17871319Y-14341774D01*
X17861795Y-14322727D01*
X17842748Y-14313203D01*
X17814176Y-14313203D01*
X17795129Y-14322727D01*
X17785605Y-14332250D01*
X17995129Y-14446536D02*
X17976081Y-14437012D01*
X17966557Y-14427488D01*
X17957033Y-14408441D01*
X17957033Y-14351298D01*
X17966557Y-14332250D01*
X17976081Y-14322727D01*
X17995129Y-14313203D01*
X18023700Y-14313203D01*
X18042748Y-14322727D01*
X18052271Y-14332250D01*
X18061795Y-14351298D01*
X18061795Y-14408441D01*
X18052271Y-14427488D01*
X18042748Y-14437012D01*
X18023700Y-14446536D01*
X17995129Y-14446536D01*
X18176081Y-14446536D02*
X18157033Y-14437012D01*
X18147510Y-14417965D01*
X18147510Y-14246536D01*
X18328462Y-14437012D02*
X18309414Y-14446536D01*
X18271319Y-14446536D01*
X18252271Y-14437012D01*
X18242748Y-14417965D01*
X18242748Y-14341774D01*
X18252271Y-14322727D01*
X18271319Y-14313203D01*
X18309414Y-14313203D01*
X18328462Y-14322727D01*
X18337986Y-14341774D01*
X18337986Y-14360822D01*
X18242748Y-14379869D01*
X18414176Y-14437012D02*
X18433224Y-14446536D01*
X18471319Y-14446536D01*
X18490367Y-14437012D01*
X18499890Y-14417965D01*
X18499890Y-14408441D01*
X18490367Y-14389393D01*
X18471319Y-14379869D01*
X18442748Y-14379869D01*
X18423700Y-14370346D01*
X18414176Y-14351298D01*
X18414176Y-14341774D01*
X18423700Y-14322727D01*
X18442748Y-14313203D01*
X18471319Y-14313203D01*
X18490367Y-14322727D01*
X18566557Y-14522727D02*
X18576081Y-14513203D01*
X18595129Y-14484631D01*
X18604652Y-14465584D01*
X18614176Y-14437012D01*
X18623700Y-14389393D01*
X18623700Y-14351298D01*
X18614176Y-14303679D01*
X18604652Y-14275108D01*
X18595129Y-14256060D01*
X18576081Y-14227488D01*
X18566557Y-14217965D01*
D15*
X13413700Y-14620060D02*
G75*
G03*
X13413700Y-14620060I-50000J0D01*
G01*
D13*
X13776081Y-14710536D02*
X13661795Y-14710536D01*
X13718938Y-14710536D02*
X13718938Y-14510536D01*
X13699890Y-14539108D01*
X13680843Y-14558155D01*
X13661795Y-14567679D01*
X13861795Y-14691488D02*
X13871319Y-14701012D01*
X13861795Y-14710536D01*
X13852271Y-14701012D01*
X13861795Y-14691488D01*
X13861795Y-14710536D01*
X13995128Y-14510536D02*
X14014176Y-14510536D01*
X14033224Y-14520060D01*
X14042748Y-14529584D01*
X14052271Y-14548631D01*
X14061795Y-14586727D01*
X14061795Y-14634346D01*
X14052271Y-14672441D01*
X14042748Y-14691488D01*
X14033224Y-14701012D01*
X14014176Y-14710536D01*
X13995128Y-14710536D01*
X13976081Y-14701012D01*
X13966557Y-14691488D01*
X13957033Y-14672441D01*
X13947509Y-14634346D01*
X13947509Y-14586727D01*
X13957033Y-14548631D01*
X13966557Y-14529584D01*
X13976081Y-14520060D01*
X13995128Y-14510536D01*
X14185605Y-14510536D02*
X14204652Y-14510536D01*
X14223700Y-14520060D01*
X14233224Y-14529584D01*
X14242748Y-14548631D01*
X14252271Y-14586727D01*
X14252271Y-14634346D01*
X14242748Y-14672441D01*
X14233224Y-14691488D01*
X14223700Y-14701012D01*
X14204652Y-14710536D01*
X14185605Y-14710536D01*
X14166557Y-14701012D01*
X14157033Y-14691488D01*
X14147509Y-14672441D01*
X14137986Y-14634346D01*
X14137986Y-14586727D01*
X14147509Y-14548631D01*
X14157033Y-14529584D01*
X14166557Y-14520060D01*
X14185605Y-14510536D01*
X14376081Y-14510536D02*
X14395128Y-14510536D01*
X14414176Y-14520060D01*
X14423700Y-14529584D01*
X14433224Y-14548631D01*
X14442748Y-14586727D01*
X14442748Y-14634346D01*
X14433224Y-14672441D01*
X14423700Y-14691488D01*
X14414176Y-14701012D01*
X14395128Y-14710536D01*
X14376081Y-14710536D01*
X14357033Y-14701012D01*
X14347509Y-14691488D01*
X14337986Y-14672441D01*
X14328462Y-14634346D01*
X14328462Y-14586727D01*
X14337986Y-14548631D01*
X14347509Y-14529584D01*
X14357033Y-14520060D01*
X14376081Y-14510536D01*
X14528462Y-14710536D02*
X14528462Y-14577203D01*
X14528462Y-14596250D02*
X14537986Y-14586727D01*
X14557033Y-14577203D01*
X14585605Y-14577203D01*
X14604652Y-14586727D01*
X14614176Y-14605774D01*
X14614176Y-14710536D01*
X14614176Y-14605774D02*
X14623700Y-14586727D01*
X14642748Y-14577203D01*
X14671319Y-14577203D01*
X14690367Y-14586727D01*
X14699890Y-14605774D01*
X14699890Y-14710536D01*
X14795128Y-14710536D02*
X14795128Y-14577203D01*
X14795128Y-14596250D02*
X14804652Y-14586727D01*
X14823700Y-14577203D01*
X14852271Y-14577203D01*
X14871319Y-14586727D01*
X14880843Y-14605774D01*
X14880843Y-14710536D01*
X14880843Y-14605774D02*
X14890367Y-14586727D01*
X14909414Y-14577203D01*
X14937986Y-14577203D01*
X14957033Y-14586727D01*
X14966557Y-14605774D01*
X14966557Y-14710536D01*
X15357033Y-14501012D02*
X15185605Y-14758155D01*
X15614176Y-14510536D02*
X15633224Y-14510536D01*
X15652271Y-14520060D01*
X15661795Y-14529584D01*
X15671319Y-14548631D01*
X15680843Y-14586727D01*
X15680843Y-14634346D01*
X15671319Y-14672441D01*
X15661795Y-14691488D01*
X15652271Y-14701012D01*
X15633224Y-14710536D01*
X15614176Y-14710536D01*
X15595128Y-14701012D01*
X15585605Y-14691488D01*
X15576081Y-14672441D01*
X15566557Y-14634346D01*
X15566557Y-14586727D01*
X15576081Y-14548631D01*
X15585605Y-14529584D01*
X15595128Y-14520060D01*
X15614176Y-14510536D01*
X15766557Y-14691488D02*
X15776081Y-14701012D01*
X15766557Y-14710536D01*
X15757033Y-14701012D01*
X15766557Y-14691488D01*
X15766557Y-14710536D01*
X15899890Y-14510536D02*
X15918938Y-14510536D01*
X15937986Y-14520060D01*
X15947509Y-14529584D01*
X15957033Y-14548631D01*
X15966557Y-14586727D01*
X15966557Y-14634346D01*
X15957033Y-14672441D01*
X15947509Y-14691488D01*
X15937986Y-14701012D01*
X15918938Y-14710536D01*
X15899890Y-14710536D01*
X15880843Y-14701012D01*
X15871319Y-14691488D01*
X15861795Y-14672441D01*
X15852271Y-14634346D01*
X15852271Y-14586727D01*
X15861795Y-14548631D01*
X15871319Y-14529584D01*
X15880843Y-14520060D01*
X15899890Y-14510536D01*
X16033224Y-14510536D02*
X16157033Y-14510536D01*
X16090367Y-14586727D01*
X16118938Y-14586727D01*
X16137986Y-14596250D01*
X16147509Y-14605774D01*
X16157033Y-14624822D01*
X16157033Y-14672441D01*
X16147509Y-14691488D01*
X16137986Y-14701012D01*
X16118938Y-14710536D01*
X16061795Y-14710536D01*
X16042748Y-14701012D01*
X16033224Y-14691488D01*
X16252271Y-14710536D02*
X16290367Y-14710536D01*
X16309414Y-14701012D01*
X16318938Y-14691488D01*
X16337986Y-14662917D01*
X16347509Y-14624822D01*
X16347509Y-14548631D01*
X16337986Y-14529584D01*
X16328462Y-14520060D01*
X16309414Y-14510536D01*
X16271319Y-14510536D01*
X16252271Y-14520060D01*
X16242748Y-14529584D01*
X16233224Y-14548631D01*
X16233224Y-14596250D01*
X16242748Y-14615298D01*
X16252271Y-14624822D01*
X16271319Y-14634346D01*
X16309414Y-14634346D01*
X16328462Y-14624822D01*
X16337986Y-14615298D01*
X16347509Y-14596250D01*
X16518938Y-14577203D02*
X16518938Y-14710536D01*
X16471319Y-14501012D02*
X16423700Y-14643869D01*
X16547509Y-14643869D01*
X16614176Y-14510536D02*
X16614176Y-14548631D01*
X16690367Y-14510536D02*
X16690367Y-14548631D01*
X16985605Y-14786727D02*
X16976081Y-14777203D01*
X16957033Y-14748631D01*
X16947510Y-14729584D01*
X16937986Y-14701012D01*
X16928462Y-14653393D01*
X16928462Y-14615298D01*
X16937986Y-14567679D01*
X16947510Y-14539108D01*
X16957033Y-14520060D01*
X16976081Y-14491488D01*
X16985605Y-14481965D01*
X17166557Y-14710536D02*
X17052271Y-14710536D01*
X17109414Y-14710536D02*
X17109414Y-14510536D01*
X17090367Y-14539108D01*
X17071319Y-14558155D01*
X17052271Y-14567679D01*
X17337986Y-14510536D02*
X17299890Y-14510536D01*
X17280843Y-14520060D01*
X17271319Y-14529584D01*
X17252271Y-14558155D01*
X17242748Y-14596250D01*
X17242748Y-14672441D01*
X17252271Y-14691488D01*
X17261795Y-14701012D01*
X17280843Y-14710536D01*
X17318938Y-14710536D01*
X17337986Y-14701012D01*
X17347510Y-14691488D01*
X17357033Y-14672441D01*
X17357033Y-14624822D01*
X17347510Y-14605774D01*
X17337986Y-14596250D01*
X17318938Y-14586727D01*
X17280843Y-14586727D01*
X17261795Y-14596250D01*
X17252271Y-14605774D01*
X17242748Y-14624822D01*
X17595129Y-14710536D02*
X17595129Y-14510536D01*
X17680843Y-14710536D02*
X17680843Y-14605774D01*
X17671319Y-14586727D01*
X17652271Y-14577203D01*
X17623700Y-14577203D01*
X17604652Y-14586727D01*
X17595129Y-14596250D01*
X17804652Y-14710536D02*
X17785605Y-14701012D01*
X17776081Y-14691488D01*
X17766557Y-14672441D01*
X17766557Y-14615298D01*
X17776081Y-14596250D01*
X17785605Y-14586727D01*
X17804652Y-14577203D01*
X17833224Y-14577203D01*
X17852271Y-14586727D01*
X17861795Y-14596250D01*
X17871319Y-14615298D01*
X17871319Y-14672441D01*
X17861795Y-14691488D01*
X17852271Y-14701012D01*
X17833224Y-14710536D01*
X17804652Y-14710536D01*
X17985605Y-14710536D02*
X17966557Y-14701012D01*
X17957033Y-14681965D01*
X17957033Y-14510536D01*
X18137986Y-14701012D02*
X18118938Y-14710536D01*
X18080843Y-14710536D01*
X18061795Y-14701012D01*
X18052271Y-14681965D01*
X18052271Y-14605774D01*
X18061795Y-14586727D01*
X18080843Y-14577203D01*
X18118938Y-14577203D01*
X18137986Y-14586727D01*
X18147510Y-14605774D01*
X18147510Y-14624822D01*
X18052271Y-14643869D01*
X18223700Y-14701012D02*
X18242748Y-14710536D01*
X18280843Y-14710536D01*
X18299890Y-14701012D01*
X18309414Y-14681965D01*
X18309414Y-14672441D01*
X18299890Y-14653393D01*
X18280843Y-14643869D01*
X18252271Y-14643869D01*
X18233224Y-14634346D01*
X18223700Y-14615298D01*
X18223700Y-14605774D01*
X18233224Y-14586727D01*
X18252271Y-14577203D01*
X18280843Y-14577203D01*
X18299890Y-14586727D01*
X18376081Y-14786727D02*
X18385605Y-14777203D01*
X18404652Y-14748631D01*
X18414176Y-14729584D01*
X18423700Y-14701012D01*
X18433224Y-14653393D01*
X18433224Y-14615298D01*
X18423700Y-14567679D01*
X18414176Y-14539108D01*
X18404652Y-14520060D01*
X18385605Y-14491488D01*
X18376081Y-14481965D01*
D16*
X13348700Y-14819060D02*
X13348700Y-14949060D01*
X13283700Y-14884060D02*
X13413700Y-14884060D01*
D13*
X13776081Y-14974536D02*
X13661795Y-14974536D01*
X13718938Y-14974536D02*
X13718938Y-14774536D01*
X13699890Y-14803108D01*
X13680843Y-14822155D01*
X13661795Y-14831679D01*
X13861795Y-14955488D02*
X13871319Y-14965012D01*
X13861795Y-14974536D01*
X13852271Y-14965012D01*
X13861795Y-14955488D01*
X13861795Y-14974536D01*
X13937986Y-14774536D02*
X14061795Y-14774536D01*
X13995128Y-14850727D01*
X14023700Y-14850727D01*
X14042748Y-14860250D01*
X14052271Y-14869774D01*
X14061795Y-14888822D01*
X14061795Y-14936441D01*
X14052271Y-14955488D01*
X14042748Y-14965012D01*
X14023700Y-14974536D01*
X13966557Y-14974536D01*
X13947509Y-14965012D01*
X13937986Y-14955488D01*
X14185605Y-14774536D02*
X14204652Y-14774536D01*
X14223700Y-14784060D01*
X14233224Y-14793584D01*
X14242748Y-14812631D01*
X14252271Y-14850727D01*
X14252271Y-14898346D01*
X14242748Y-14936441D01*
X14233224Y-14955488D01*
X14223700Y-14965012D01*
X14204652Y-14974536D01*
X14185605Y-14974536D01*
X14166557Y-14965012D01*
X14157033Y-14955488D01*
X14147509Y-14936441D01*
X14137986Y-14898346D01*
X14137986Y-14850727D01*
X14147509Y-14812631D01*
X14157033Y-14793584D01*
X14166557Y-14784060D01*
X14185605Y-14774536D01*
X14376081Y-14774536D02*
X14395128Y-14774536D01*
X14414176Y-14784060D01*
X14423700Y-14793584D01*
X14433224Y-14812631D01*
X14442748Y-14850727D01*
X14442748Y-14898346D01*
X14433224Y-14936441D01*
X14423700Y-14955488D01*
X14414176Y-14965012D01*
X14395128Y-14974536D01*
X14376081Y-14974536D01*
X14357033Y-14965012D01*
X14347509Y-14955488D01*
X14337986Y-14936441D01*
X14328462Y-14898346D01*
X14328462Y-14850727D01*
X14337986Y-14812631D01*
X14347509Y-14793584D01*
X14357033Y-14784060D01*
X14376081Y-14774536D01*
X14528462Y-14974536D02*
X14528462Y-14841203D01*
X14528462Y-14860250D02*
X14537986Y-14850727D01*
X14557033Y-14841203D01*
X14585605Y-14841203D01*
X14604652Y-14850727D01*
X14614176Y-14869774D01*
X14614176Y-14974536D01*
X14614176Y-14869774D02*
X14623700Y-14850727D01*
X14642748Y-14841203D01*
X14671319Y-14841203D01*
X14690367Y-14850727D01*
X14699890Y-14869774D01*
X14699890Y-14974536D01*
X14795128Y-14974536D02*
X14795128Y-14841203D01*
X14795128Y-14860250D02*
X14804652Y-14850727D01*
X14823700Y-14841203D01*
X14852271Y-14841203D01*
X14871319Y-14850727D01*
X14880843Y-14869774D01*
X14880843Y-14974536D01*
X14880843Y-14869774D02*
X14890367Y-14850727D01*
X14909414Y-14841203D01*
X14937986Y-14841203D01*
X14957033Y-14850727D01*
X14966557Y-14869774D01*
X14966557Y-14974536D01*
X15357033Y-14765012D02*
X15185605Y-15022155D01*
X15614176Y-14774536D02*
X15633224Y-14774536D01*
X15652271Y-14784060D01*
X15661795Y-14793584D01*
X15671319Y-14812631D01*
X15680843Y-14850727D01*
X15680843Y-14898346D01*
X15671319Y-14936441D01*
X15661795Y-14955488D01*
X15652271Y-14965012D01*
X15633224Y-14974536D01*
X15614176Y-14974536D01*
X15595128Y-14965012D01*
X15585605Y-14955488D01*
X15576081Y-14936441D01*
X15566557Y-14898346D01*
X15566557Y-14850727D01*
X15576081Y-14812631D01*
X15585605Y-14793584D01*
X15595128Y-14784060D01*
X15614176Y-14774536D01*
X15766557Y-14955488D02*
X15776081Y-14965012D01*
X15766557Y-14974536D01*
X15757033Y-14965012D01*
X15766557Y-14955488D01*
X15766557Y-14974536D01*
X15899890Y-14774536D02*
X15918938Y-14774536D01*
X15937986Y-14784060D01*
X15947509Y-14793584D01*
X15957033Y-14812631D01*
X15966557Y-14850727D01*
X15966557Y-14898346D01*
X15957033Y-14936441D01*
X15947509Y-14955488D01*
X15937986Y-14965012D01*
X15918938Y-14974536D01*
X15899890Y-14974536D01*
X15880843Y-14965012D01*
X15871319Y-14955488D01*
X15861795Y-14936441D01*
X15852271Y-14898346D01*
X15852271Y-14850727D01*
X15861795Y-14812631D01*
X15871319Y-14793584D01*
X15880843Y-14784060D01*
X15899890Y-14774536D01*
X16147509Y-14774536D02*
X16052271Y-14774536D01*
X16042748Y-14869774D01*
X16052271Y-14860250D01*
X16071319Y-14850727D01*
X16118938Y-14850727D01*
X16137986Y-14860250D01*
X16147509Y-14869774D01*
X16157033Y-14888822D01*
X16157033Y-14936441D01*
X16147509Y-14955488D01*
X16137986Y-14965012D01*
X16118938Y-14974536D01*
X16071319Y-14974536D01*
X16052271Y-14965012D01*
X16042748Y-14955488D01*
X16347509Y-14974536D02*
X16233224Y-14974536D01*
X16290367Y-14974536D02*
X16290367Y-14774536D01*
X16271319Y-14803108D01*
X16252271Y-14822155D01*
X16233224Y-14831679D01*
X16423700Y-14793584D02*
X16433224Y-14784060D01*
X16452271Y-14774536D01*
X16499890Y-14774536D01*
X16518938Y-14784060D01*
X16528462Y-14793584D01*
X16537986Y-14812631D01*
X16537986Y-14831679D01*
X16528462Y-14860250D01*
X16414176Y-14974536D01*
X16537986Y-14974536D01*
X16614176Y-14774536D02*
X16614176Y-14812631D01*
X16690367Y-14774536D02*
X16690367Y-14812631D01*
X16985605Y-15050727D02*
X16976081Y-15041203D01*
X16957033Y-15012631D01*
X16947510Y-14993584D01*
X16937986Y-14965012D01*
X16928462Y-14917393D01*
X16928462Y-14879298D01*
X16937986Y-14831679D01*
X16947510Y-14803108D01*
X16957033Y-14784060D01*
X16976081Y-14755488D01*
X16985605Y-14745965D01*
X17052271Y-14793584D02*
X17061795Y-14784060D01*
X17080843Y-14774536D01*
X17128462Y-14774536D01*
X17147510Y-14784060D01*
X17157033Y-14793584D01*
X17166557Y-14812631D01*
X17166557Y-14831679D01*
X17157033Y-14860250D01*
X17042748Y-14974536D01*
X17166557Y-14974536D01*
X17404652Y-14974536D02*
X17404652Y-14774536D01*
X17490367Y-14974536D02*
X17490367Y-14869774D01*
X17480843Y-14850727D01*
X17461795Y-14841203D01*
X17433224Y-14841203D01*
X17414176Y-14850727D01*
X17404652Y-14860250D01*
X17614176Y-14974536D02*
X17595129Y-14965012D01*
X17585605Y-14955488D01*
X17576081Y-14936441D01*
X17576081Y-14879298D01*
X17585605Y-14860250D01*
X17595129Y-14850727D01*
X17614176Y-14841203D01*
X17642748Y-14841203D01*
X17661795Y-14850727D01*
X17671319Y-14860250D01*
X17680843Y-14879298D01*
X17680843Y-14936441D01*
X17671319Y-14955488D01*
X17661795Y-14965012D01*
X17642748Y-14974536D01*
X17614176Y-14974536D01*
X17795129Y-14974536D02*
X17776081Y-14965012D01*
X17766557Y-14945965D01*
X17766557Y-14774536D01*
X17947510Y-14965012D02*
X17928462Y-14974536D01*
X17890367Y-14974536D01*
X17871319Y-14965012D01*
X17861795Y-14945965D01*
X17861795Y-14869774D01*
X17871319Y-14850727D01*
X17890367Y-14841203D01*
X17928462Y-14841203D01*
X17947510Y-14850727D01*
X17957033Y-14869774D01*
X17957033Y-14888822D01*
X17861795Y-14907869D01*
X18033224Y-14965012D02*
X18052271Y-14974536D01*
X18090367Y-14974536D01*
X18109414Y-14965012D01*
X18118938Y-14945965D01*
X18118938Y-14936441D01*
X18109414Y-14917393D01*
X18090367Y-14907869D01*
X18061795Y-14907869D01*
X18042748Y-14898346D01*
X18033224Y-14879298D01*
X18033224Y-14869774D01*
X18042748Y-14850727D01*
X18061795Y-14841203D01*
X18090367Y-14841203D01*
X18109414Y-14850727D01*
X18185605Y-15050727D02*
X18195129Y-15041203D01*
X18214176Y-15012631D01*
X18223700Y-14993584D01*
X18233224Y-14965012D01*
X18242748Y-14917393D01*
X18242748Y-14879298D01*
X18233224Y-14831679D01*
X18223700Y-14803108D01*
X18214176Y-14784060D01*
X18195129Y-14755488D01*
X18185605Y-14745965D01*
D17*
X13391733Y-15201093D02*
X13391733Y-15095026D01*
X13285666Y-15095026D01*
X13285666Y-15201093D01*
X13391733Y-15201093D01*
D13*
X13776081Y-15238536D02*
X13661795Y-15238536D01*
X13718938Y-15238536D02*
X13718938Y-15038536D01*
X13699890Y-15067108D01*
X13680843Y-15086155D01*
X13661795Y-15095679D01*
X13861795Y-15219488D02*
X13871319Y-15229012D01*
X13861795Y-15238536D01*
X13852271Y-15229012D01*
X13861795Y-15219488D01*
X13861795Y-15238536D01*
X14052271Y-15038536D02*
X13957033Y-15038536D01*
X13947509Y-15133774D01*
X13957033Y-15124250D01*
X13976081Y-15114727D01*
X14023700Y-15114727D01*
X14042748Y-15124250D01*
X14052271Y-15133774D01*
X14061795Y-15152822D01*
X14061795Y-15200441D01*
X14052271Y-15219488D01*
X14042748Y-15229012D01*
X14023700Y-15238536D01*
X13976081Y-15238536D01*
X13957033Y-15229012D01*
X13947509Y-15219488D01*
X14185605Y-15038536D02*
X14204652Y-15038536D01*
X14223700Y-15048060D01*
X14233224Y-15057584D01*
X14242748Y-15076631D01*
X14252271Y-15114727D01*
X14252271Y-15162346D01*
X14242748Y-15200441D01*
X14233224Y-15219488D01*
X14223700Y-15229012D01*
X14204652Y-15238536D01*
X14185605Y-15238536D01*
X14166557Y-15229012D01*
X14157033Y-15219488D01*
X14147509Y-15200441D01*
X14137986Y-15162346D01*
X14137986Y-15114727D01*
X14147509Y-15076631D01*
X14157033Y-15057584D01*
X14166557Y-15048060D01*
X14185605Y-15038536D01*
X14376081Y-15038536D02*
X14395128Y-15038536D01*
X14414176Y-15048060D01*
X14423700Y-15057584D01*
X14433224Y-15076631D01*
X14442748Y-15114727D01*
X14442748Y-15162346D01*
X14433224Y-15200441D01*
X14423700Y-15219488D01*
X14414176Y-15229012D01*
X14395128Y-15238536D01*
X14376081Y-15238536D01*
X14357033Y-15229012D01*
X14347509Y-15219488D01*
X14337986Y-15200441D01*
X14328462Y-15162346D01*
X14328462Y-15114727D01*
X14337986Y-15076631D01*
X14347509Y-15057584D01*
X14357033Y-15048060D01*
X14376081Y-15038536D01*
X14528462Y-15238536D02*
X14528462Y-15105203D01*
X14528462Y-15124250D02*
X14537986Y-15114727D01*
X14557033Y-15105203D01*
X14585605Y-15105203D01*
X14604652Y-15114727D01*
X14614176Y-15133774D01*
X14614176Y-15238536D01*
X14614176Y-15133774D02*
X14623700Y-15114727D01*
X14642748Y-15105203D01*
X14671319Y-15105203D01*
X14690367Y-15114727D01*
X14699890Y-15133774D01*
X14699890Y-15238536D01*
X14795128Y-15238536D02*
X14795128Y-15105203D01*
X14795128Y-15124250D02*
X14804652Y-15114727D01*
X14823700Y-15105203D01*
X14852271Y-15105203D01*
X14871319Y-15114727D01*
X14880843Y-15133774D01*
X14880843Y-15238536D01*
X14880843Y-15133774D02*
X14890367Y-15114727D01*
X14909414Y-15105203D01*
X14937986Y-15105203D01*
X14957033Y-15114727D01*
X14966557Y-15133774D01*
X14966557Y-15238536D01*
X15357033Y-15029012D02*
X15185605Y-15286155D01*
X15614176Y-15038536D02*
X15633224Y-15038536D01*
X15652271Y-15048060D01*
X15661795Y-15057584D01*
X15671319Y-15076631D01*
X15680843Y-15114727D01*
X15680843Y-15162346D01*
X15671319Y-15200441D01*
X15661795Y-15219488D01*
X15652271Y-15229012D01*
X15633224Y-15238536D01*
X15614176Y-15238536D01*
X15595128Y-15229012D01*
X15585605Y-15219488D01*
X15576081Y-15200441D01*
X15566557Y-15162346D01*
X15566557Y-15114727D01*
X15576081Y-15076631D01*
X15585605Y-15057584D01*
X15595128Y-15048060D01*
X15614176Y-15038536D01*
X15766557Y-15219488D02*
X15776081Y-15229012D01*
X15766557Y-15238536D01*
X15757033Y-15229012D01*
X15766557Y-15219488D01*
X15766557Y-15238536D01*
X15899890Y-15038536D02*
X15918938Y-15038536D01*
X15937986Y-15048060D01*
X15947509Y-15057584D01*
X15957033Y-15076631D01*
X15966557Y-15114727D01*
X15966557Y-15162346D01*
X15957033Y-15200441D01*
X15947509Y-15219488D01*
X15937986Y-15229012D01*
X15918938Y-15238536D01*
X15899890Y-15238536D01*
X15880843Y-15229012D01*
X15871319Y-15219488D01*
X15861795Y-15200441D01*
X15852271Y-15162346D01*
X15852271Y-15114727D01*
X15861795Y-15076631D01*
X15871319Y-15057584D01*
X15880843Y-15048060D01*
X15899890Y-15038536D01*
X16147509Y-15038536D02*
X16052271Y-15038536D01*
X16042748Y-15133774D01*
X16052271Y-15124250D01*
X16071319Y-15114727D01*
X16118938Y-15114727D01*
X16137986Y-15124250D01*
X16147509Y-15133774D01*
X16157033Y-15152822D01*
X16157033Y-15200441D01*
X16147509Y-15219488D01*
X16137986Y-15229012D01*
X16118938Y-15238536D01*
X16071319Y-15238536D01*
X16052271Y-15229012D01*
X16042748Y-15219488D01*
X16252271Y-15238536D02*
X16290367Y-15238536D01*
X16309414Y-15229012D01*
X16318938Y-15219488D01*
X16337986Y-15190917D01*
X16347509Y-15152822D01*
X16347509Y-15076631D01*
X16337986Y-15057584D01*
X16328462Y-15048060D01*
X16309414Y-15038536D01*
X16271319Y-15038536D01*
X16252271Y-15048060D01*
X16242748Y-15057584D01*
X16233224Y-15076631D01*
X16233224Y-15124250D01*
X16242748Y-15143298D01*
X16252271Y-15152822D01*
X16271319Y-15162346D01*
X16309414Y-15162346D01*
X16328462Y-15152822D01*
X16337986Y-15143298D01*
X16347509Y-15124250D01*
X16537986Y-15238536D02*
X16423700Y-15238536D01*
X16480843Y-15238536D02*
X16480843Y-15038536D01*
X16461795Y-15067108D01*
X16442748Y-15086155D01*
X16423700Y-15095679D01*
X16614176Y-15038536D02*
X16614176Y-15076631D01*
X16690367Y-15038536D02*
X16690367Y-15076631D01*
X16985605Y-15314727D02*
X16976081Y-15305203D01*
X16957033Y-15276631D01*
X16947510Y-15257584D01*
X16937986Y-15229012D01*
X16928462Y-15181393D01*
X16928462Y-15143298D01*
X16937986Y-15095679D01*
X16947510Y-15067108D01*
X16957033Y-15048060D01*
X16976081Y-15019488D01*
X16985605Y-15009965D01*
X17166557Y-15238536D02*
X17052271Y-15238536D01*
X17109414Y-15238536D02*
X17109414Y-15038536D01*
X17090367Y-15067108D01*
X17071319Y-15086155D01*
X17052271Y-15095679D01*
X17404652Y-15238536D02*
X17404652Y-15038536D01*
X17490367Y-15238536D02*
X17490367Y-15133774D01*
X17480843Y-15114727D01*
X17461795Y-15105203D01*
X17433224Y-15105203D01*
X17414176Y-15114727D01*
X17404652Y-15124250D01*
X17614176Y-15238536D02*
X17595129Y-15229012D01*
X17585605Y-15219488D01*
X17576081Y-15200441D01*
X17576081Y-15143298D01*
X17585605Y-15124250D01*
X17595129Y-15114727D01*
X17614176Y-15105203D01*
X17642748Y-15105203D01*
X17661795Y-15114727D01*
X17671319Y-15124250D01*
X17680843Y-15143298D01*
X17680843Y-15200441D01*
X17671319Y-15219488D01*
X17661795Y-15229012D01*
X17642748Y-15238536D01*
X17614176Y-15238536D01*
X17795129Y-15238536D02*
X17776081Y-15229012D01*
X17766557Y-15209965D01*
X17766557Y-15038536D01*
X17947510Y-15229012D02*
X17928462Y-15238536D01*
X17890367Y-15238536D01*
X17871319Y-15229012D01*
X17861795Y-15209965D01*
X17861795Y-15133774D01*
X17871319Y-15114727D01*
X17890367Y-15105203D01*
X17928462Y-15105203D01*
X17947510Y-15114727D01*
X17957033Y-15133774D01*
X17957033Y-15152822D01*
X17861795Y-15171869D01*
X18023700Y-15314727D02*
X18033224Y-15305203D01*
X18052271Y-15276631D01*
X18061795Y-15257584D01*
X18071319Y-15229012D01*
X18080843Y-15181393D01*
X18080843Y-15143298D01*
X18071319Y-15095679D01*
X18061795Y-15067108D01*
X18052271Y-15048060D01*
X18033224Y-15019488D01*
X18023700Y-15009965D01*
D18*
X13328700Y-15503060D02*
X13413700Y-15418060D01*
X13328700Y-15333060D01*
X13243700Y-15418060D01*
X13328700Y-15503060D01*
D13*
X13776081Y-15508536D02*
X13661795Y-15508536D01*
X13718938Y-15508536D02*
X13718938Y-15308536D01*
X13699890Y-15337108D01*
X13680843Y-15356155D01*
X13661795Y-15365679D01*
X13861795Y-15489488D02*
X13871319Y-15499012D01*
X13861795Y-15508536D01*
X13852271Y-15499012D01*
X13861795Y-15489488D01*
X13861795Y-15508536D01*
X13937986Y-15308536D02*
X14071319Y-15308536D01*
X13985605Y-15508536D01*
X14185605Y-15308536D02*
X14204652Y-15308536D01*
X14223700Y-15318060D01*
X14233224Y-15327584D01*
X14242748Y-15346631D01*
X14252271Y-15384727D01*
X14252271Y-15432346D01*
X14242748Y-15470441D01*
X14233224Y-15489488D01*
X14223700Y-15499012D01*
X14204652Y-15508536D01*
X14185605Y-15508536D01*
X14166557Y-15499012D01*
X14157033Y-15489488D01*
X14147509Y-15470441D01*
X14137986Y-15432346D01*
X14137986Y-15384727D01*
X14147509Y-15346631D01*
X14157033Y-15327584D01*
X14166557Y-15318060D01*
X14185605Y-15308536D01*
X14376081Y-15308536D02*
X14395128Y-15308536D01*
X14414176Y-15318060D01*
X14423700Y-15327584D01*
X14433224Y-15346631D01*
X14442748Y-15384727D01*
X14442748Y-15432346D01*
X14433224Y-15470441D01*
X14423700Y-15489488D01*
X14414176Y-15499012D01*
X14395128Y-15508536D01*
X14376081Y-15508536D01*
X14357033Y-15499012D01*
X14347509Y-15489488D01*
X14337986Y-15470441D01*
X14328462Y-15432346D01*
X14328462Y-15384727D01*
X14337986Y-15346631D01*
X14347509Y-15327584D01*
X14357033Y-15318060D01*
X14376081Y-15308536D01*
X14528462Y-15508536D02*
X14528462Y-15375203D01*
X14528462Y-15394250D02*
X14537986Y-15384727D01*
X14557033Y-15375203D01*
X14585605Y-15375203D01*
X14604652Y-15384727D01*
X14614176Y-15403774D01*
X14614176Y-15508536D01*
X14614176Y-15403774D02*
X14623700Y-15384727D01*
X14642748Y-15375203D01*
X14671319Y-15375203D01*
X14690367Y-15384727D01*
X14699890Y-15403774D01*
X14699890Y-15508536D01*
X14795128Y-15508536D02*
X14795128Y-15375203D01*
X14795128Y-15394250D02*
X14804652Y-15384727D01*
X14823700Y-15375203D01*
X14852271Y-15375203D01*
X14871319Y-15384727D01*
X14880843Y-15403774D01*
X14880843Y-15508536D01*
X14880843Y-15403774D02*
X14890367Y-15384727D01*
X14909414Y-15375203D01*
X14937986Y-15375203D01*
X14957033Y-15384727D01*
X14966557Y-15403774D01*
X14966557Y-15508536D01*
X15357033Y-15299012D02*
X15185605Y-15556155D01*
X15614176Y-15308536D02*
X15633224Y-15308536D01*
X15652271Y-15318060D01*
X15661795Y-15327584D01*
X15671319Y-15346631D01*
X15680843Y-15384727D01*
X15680843Y-15432346D01*
X15671319Y-15470441D01*
X15661795Y-15489488D01*
X15652271Y-15499012D01*
X15633224Y-15508536D01*
X15614176Y-15508536D01*
X15595128Y-15499012D01*
X15585605Y-15489488D01*
X15576081Y-15470441D01*
X15566557Y-15432346D01*
X15566557Y-15384727D01*
X15576081Y-15346631D01*
X15585605Y-15327584D01*
X15595128Y-15318060D01*
X15614176Y-15308536D01*
X15766557Y-15489488D02*
X15776081Y-15499012D01*
X15766557Y-15508536D01*
X15757033Y-15499012D01*
X15766557Y-15489488D01*
X15766557Y-15508536D01*
X15899890Y-15308536D02*
X15918938Y-15308536D01*
X15937986Y-15318060D01*
X15947509Y-15327584D01*
X15957033Y-15346631D01*
X15966557Y-15384727D01*
X15966557Y-15432346D01*
X15957033Y-15470441D01*
X15947509Y-15489488D01*
X15937986Y-15499012D01*
X15918938Y-15508536D01*
X15899890Y-15508536D01*
X15880843Y-15499012D01*
X15871319Y-15489488D01*
X15861795Y-15470441D01*
X15852271Y-15432346D01*
X15852271Y-15384727D01*
X15861795Y-15346631D01*
X15871319Y-15327584D01*
X15880843Y-15318060D01*
X15899890Y-15308536D01*
X16137986Y-15308536D02*
X16099890Y-15308536D01*
X16080843Y-15318060D01*
X16071319Y-15327584D01*
X16052271Y-15356155D01*
X16042748Y-15394250D01*
X16042748Y-15470441D01*
X16052271Y-15489488D01*
X16061795Y-15499012D01*
X16080843Y-15508536D01*
X16118938Y-15508536D01*
X16137986Y-15499012D01*
X16147509Y-15489488D01*
X16157033Y-15470441D01*
X16157033Y-15422822D01*
X16147509Y-15403774D01*
X16137986Y-15394250D01*
X16118938Y-15384727D01*
X16080843Y-15384727D01*
X16061795Y-15394250D01*
X16052271Y-15403774D01*
X16042748Y-15422822D01*
X16328462Y-15308536D02*
X16290367Y-15308536D01*
X16271319Y-15318060D01*
X16261795Y-15327584D01*
X16242748Y-15356155D01*
X16233224Y-15394250D01*
X16233224Y-15470441D01*
X16242748Y-15489488D01*
X16252271Y-15499012D01*
X16271319Y-15508536D01*
X16309414Y-15508536D01*
X16328462Y-15499012D01*
X16337986Y-15489488D01*
X16347509Y-15470441D01*
X16347509Y-15422822D01*
X16337986Y-15403774D01*
X16328462Y-15394250D01*
X16309414Y-15384727D01*
X16271319Y-15384727D01*
X16252271Y-15394250D01*
X16242748Y-15403774D01*
X16233224Y-15422822D01*
X16442748Y-15508536D02*
X16480843Y-15508536D01*
X16499890Y-15499012D01*
X16509414Y-15489488D01*
X16528462Y-15460917D01*
X16537986Y-15422822D01*
X16537986Y-15346631D01*
X16528462Y-15327584D01*
X16518938Y-15318060D01*
X16499890Y-15308536D01*
X16461795Y-15308536D01*
X16442748Y-15318060D01*
X16433224Y-15327584D01*
X16423700Y-15346631D01*
X16423700Y-15394250D01*
X16433224Y-15413298D01*
X16442748Y-15422822D01*
X16461795Y-15432346D01*
X16499890Y-15432346D01*
X16518938Y-15422822D01*
X16528462Y-15413298D01*
X16537986Y-15394250D01*
X16614176Y-15308536D02*
X16614176Y-15346631D01*
X16690367Y-15308536D02*
X16690367Y-15346631D01*
X16985605Y-15584727D02*
X16976081Y-15575203D01*
X16957033Y-15546631D01*
X16947510Y-15527584D01*
X16937986Y-15499012D01*
X16928462Y-15451393D01*
X16928462Y-15413298D01*
X16937986Y-15365679D01*
X16947510Y-15337108D01*
X16957033Y-15318060D01*
X16976081Y-15289488D01*
X16985605Y-15279965D01*
X17147510Y-15375203D02*
X17147510Y-15508536D01*
X17099890Y-15299012D02*
X17052271Y-15441869D01*
X17176081Y-15441869D01*
X17404652Y-15508536D02*
X17404652Y-15308536D01*
X17490367Y-15508536D02*
X17490367Y-15403774D01*
X17480843Y-15384727D01*
X17461795Y-15375203D01*
X17433224Y-15375203D01*
X17414176Y-15384727D01*
X17404652Y-15394250D01*
X17614176Y-15508536D02*
X17595129Y-15499012D01*
X17585605Y-15489488D01*
X17576081Y-15470441D01*
X17576081Y-15413298D01*
X17585605Y-15394250D01*
X17595129Y-15384727D01*
X17614176Y-15375203D01*
X17642748Y-15375203D01*
X17661795Y-15384727D01*
X17671319Y-15394250D01*
X17680843Y-15413298D01*
X17680843Y-15470441D01*
X17671319Y-15489488D01*
X17661795Y-15499012D01*
X17642748Y-15508536D01*
X17614176Y-15508536D01*
X17795129Y-15508536D02*
X17776081Y-15499012D01*
X17766557Y-15479965D01*
X17766557Y-15308536D01*
X17947510Y-15499012D02*
X17928462Y-15508536D01*
X17890367Y-15508536D01*
X17871319Y-15499012D01*
X17861795Y-15479965D01*
X17861795Y-15403774D01*
X17871319Y-15384727D01*
X17890367Y-15375203D01*
X17928462Y-15375203D01*
X17947510Y-15384727D01*
X17957033Y-15403774D01*
X17957033Y-15422822D01*
X17861795Y-15441869D01*
X18033224Y-15499012D02*
X18052271Y-15508536D01*
X18090367Y-15508536D01*
X18109414Y-15499012D01*
X18118938Y-15479965D01*
X18118938Y-15470441D01*
X18109414Y-15451393D01*
X18090367Y-15441869D01*
X18061795Y-15441869D01*
X18042748Y-15432346D01*
X18033224Y-15413298D01*
X18033224Y-15403774D01*
X18042748Y-15384727D01*
X18061795Y-15375203D01*
X18090367Y-15375203D01*
X18109414Y-15384727D01*
X18185605Y-15584727D02*
X18195129Y-15575203D01*
X18214176Y-15546631D01*
X18223700Y-15527584D01*
X18233224Y-15499012D01*
X18242748Y-15451393D01*
X18242748Y-15413298D01*
X18233224Y-15365679D01*
X18223700Y-15337108D01*
X18214176Y-15318060D01*
X18195129Y-15289488D01*
X18185605Y-15279965D01*
X13213700Y-15608060D02*
X13413700Y-15808060D01*
X13413700Y-15608060D02*
X13213700Y-15808060D01*
X13413700Y-15708060D02*
G75*
G03*
X13413700Y-15708060I-100000J0D01*
G01*
X13661795Y-15617584D02*
X13671319Y-15608060D01*
X13690367Y-15598536D01*
X13737986Y-15598536D01*
X13757033Y-15608060D01*
X13766557Y-15617584D01*
X13776081Y-15636631D01*
X13776081Y-15655679D01*
X13766557Y-15684250D01*
X13652271Y-15798536D01*
X13776081Y-15798536D01*
X13861795Y-15779488D02*
X13871319Y-15789012D01*
X13861795Y-15798536D01*
X13852271Y-15789012D01*
X13861795Y-15779488D01*
X13861795Y-15798536D01*
X13995128Y-15598536D02*
X14014176Y-15598536D01*
X14033224Y-15608060D01*
X14042748Y-15617584D01*
X14052271Y-15636631D01*
X14061795Y-15674727D01*
X14061795Y-15722346D01*
X14052271Y-15760441D01*
X14042748Y-15779488D01*
X14033224Y-15789012D01*
X14014176Y-15798536D01*
X13995128Y-15798536D01*
X13976081Y-15789012D01*
X13966557Y-15779488D01*
X13957033Y-15760441D01*
X13947509Y-15722346D01*
X13947509Y-15674727D01*
X13957033Y-15636631D01*
X13966557Y-15617584D01*
X13976081Y-15608060D01*
X13995128Y-15598536D01*
X14185605Y-15598536D02*
X14204652Y-15598536D01*
X14223700Y-15608060D01*
X14233224Y-15617584D01*
X14242748Y-15636631D01*
X14252271Y-15674727D01*
X14252271Y-15722346D01*
X14242748Y-15760441D01*
X14233224Y-15779488D01*
X14223700Y-15789012D01*
X14204652Y-15798536D01*
X14185605Y-15798536D01*
X14166557Y-15789012D01*
X14157033Y-15779488D01*
X14147509Y-15760441D01*
X14137986Y-15722346D01*
X14137986Y-15674727D01*
X14147509Y-15636631D01*
X14157033Y-15617584D01*
X14166557Y-15608060D01*
X14185605Y-15598536D01*
X14376081Y-15598536D02*
X14395128Y-15598536D01*
X14414176Y-15608060D01*
X14423700Y-15617584D01*
X14433224Y-15636631D01*
X14442748Y-15674727D01*
X14442748Y-15722346D01*
X14433224Y-15760441D01*
X14423700Y-15779488D01*
X14414176Y-15789012D01*
X14395128Y-15798536D01*
X14376081Y-15798536D01*
X14357033Y-15789012D01*
X14347509Y-15779488D01*
X14337986Y-15760441D01*
X14328462Y-15722346D01*
X14328462Y-15674727D01*
X14337986Y-15636631D01*
X14347509Y-15617584D01*
X14357033Y-15608060D01*
X14376081Y-15598536D01*
X14528462Y-15798536D02*
X14528462Y-15665203D01*
X14528462Y-15684250D02*
X14537986Y-15674727D01*
X14557033Y-15665203D01*
X14585605Y-15665203D01*
X14604652Y-15674727D01*
X14614176Y-15693774D01*
X14614176Y-15798536D01*
X14614176Y-15693774D02*
X14623700Y-15674727D01*
X14642748Y-15665203D01*
X14671319Y-15665203D01*
X14690367Y-15674727D01*
X14699890Y-15693774D01*
X14699890Y-15798536D01*
X14795128Y-15798536D02*
X14795128Y-15665203D01*
X14795128Y-15684250D02*
X14804652Y-15674727D01*
X14823700Y-15665203D01*
X14852271Y-15665203D01*
X14871319Y-15674727D01*
X14880843Y-15693774D01*
X14880843Y-15798536D01*
X14880843Y-15693774D02*
X14890367Y-15674727D01*
X14909414Y-15665203D01*
X14937986Y-15665203D01*
X14957033Y-15674727D01*
X14966557Y-15693774D01*
X14966557Y-15798536D01*
X15357033Y-15589012D02*
X15185605Y-15846155D01*
X15614176Y-15598536D02*
X15633224Y-15598536D01*
X15652271Y-15608060D01*
X15661795Y-15617584D01*
X15671319Y-15636631D01*
X15680843Y-15674727D01*
X15680843Y-15722346D01*
X15671319Y-15760441D01*
X15661795Y-15779488D01*
X15652271Y-15789012D01*
X15633224Y-15798536D01*
X15614176Y-15798536D01*
X15595128Y-15789012D01*
X15585605Y-15779488D01*
X15576081Y-15760441D01*
X15566557Y-15722346D01*
X15566557Y-15674727D01*
X15576081Y-15636631D01*
X15585605Y-15617584D01*
X15595128Y-15608060D01*
X15614176Y-15598536D01*
X15766557Y-15779488D02*
X15776081Y-15789012D01*
X15766557Y-15798536D01*
X15757033Y-15789012D01*
X15766557Y-15779488D01*
X15766557Y-15798536D01*
X15899890Y-15598536D02*
X15918938Y-15598536D01*
X15937986Y-15608060D01*
X15947509Y-15617584D01*
X15957033Y-15636631D01*
X15966557Y-15674727D01*
X15966557Y-15722346D01*
X15957033Y-15760441D01*
X15947509Y-15779488D01*
X15937986Y-15789012D01*
X15918938Y-15798536D01*
X15899890Y-15798536D01*
X15880843Y-15789012D01*
X15871319Y-15779488D01*
X15861795Y-15760441D01*
X15852271Y-15722346D01*
X15852271Y-15674727D01*
X15861795Y-15636631D01*
X15871319Y-15617584D01*
X15880843Y-15608060D01*
X15899890Y-15598536D01*
X16033224Y-15598536D02*
X16166557Y-15598536D01*
X16080843Y-15798536D01*
X16271319Y-15684250D02*
X16252271Y-15674727D01*
X16242748Y-15665203D01*
X16233224Y-15646155D01*
X16233224Y-15636631D01*
X16242748Y-15617584D01*
X16252271Y-15608060D01*
X16271319Y-15598536D01*
X16309414Y-15598536D01*
X16328462Y-15608060D01*
X16337986Y-15617584D01*
X16347509Y-15636631D01*
X16347509Y-15646155D01*
X16337986Y-15665203D01*
X16328462Y-15674727D01*
X16309414Y-15684250D01*
X16271319Y-15684250D01*
X16252271Y-15693774D01*
X16242748Y-15703298D01*
X16233224Y-15722346D01*
X16233224Y-15760441D01*
X16242748Y-15779488D01*
X16252271Y-15789012D01*
X16271319Y-15798536D01*
X16309414Y-15798536D01*
X16328462Y-15789012D01*
X16337986Y-15779488D01*
X16347509Y-15760441D01*
X16347509Y-15722346D01*
X16337986Y-15703298D01*
X16328462Y-15693774D01*
X16309414Y-15684250D01*
X16414176Y-15598536D02*
X16547509Y-15598536D01*
X16461795Y-15798536D01*
X16614176Y-15598536D02*
X16614176Y-15636631D01*
X16690367Y-15598536D02*
X16690367Y-15636631D01*
X16985605Y-15874727D02*
X16976081Y-15865203D01*
X16957033Y-15836631D01*
X16947510Y-15817584D01*
X16937986Y-15789012D01*
X16928462Y-15741393D01*
X16928462Y-15703298D01*
X16937986Y-15655679D01*
X16947510Y-15627108D01*
X16957033Y-15608060D01*
X16976081Y-15579488D01*
X16985605Y-15569965D01*
X17166557Y-15798536D02*
X17052271Y-15798536D01*
X17109414Y-15798536D02*
X17109414Y-15598536D01*
X17090367Y-15627108D01*
X17071319Y-15646155D01*
X17052271Y-15655679D01*
X17242748Y-15617584D02*
X17252271Y-15608060D01*
X17271319Y-15598536D01*
X17318938Y-15598536D01*
X17337986Y-15608060D01*
X17347510Y-15617584D01*
X17357033Y-15636631D01*
X17357033Y-15655679D01*
X17347510Y-15684250D01*
X17233224Y-15798536D01*
X17357033Y-15798536D01*
X17595129Y-15798536D02*
X17595129Y-15598536D01*
X17680843Y-15798536D02*
X17680843Y-15693774D01*
X17671319Y-15674727D01*
X17652271Y-15665203D01*
X17623700Y-15665203D01*
X17604652Y-15674727D01*
X17595129Y-15684250D01*
X17804652Y-15798536D02*
X17785605Y-15789012D01*
X17776081Y-15779488D01*
X17766557Y-15760441D01*
X17766557Y-15703298D01*
X17776081Y-15684250D01*
X17785605Y-15674727D01*
X17804652Y-15665203D01*
X17833224Y-15665203D01*
X17852271Y-15674727D01*
X17861795Y-15684250D01*
X17871319Y-15703298D01*
X17871319Y-15760441D01*
X17861795Y-15779488D01*
X17852271Y-15789012D01*
X17833224Y-15798536D01*
X17804652Y-15798536D01*
X17985605Y-15798536D02*
X17966557Y-15789012D01*
X17957033Y-15769965D01*
X17957033Y-15598536D01*
X18137986Y-15789012D02*
X18118938Y-15798536D01*
X18080843Y-15798536D01*
X18061795Y-15789012D01*
X18052271Y-15769965D01*
X18052271Y-15693774D01*
X18061795Y-15674727D01*
X18080843Y-15665203D01*
X18118938Y-15665203D01*
X18137986Y-15674727D01*
X18147510Y-15693774D01*
X18147510Y-15712822D01*
X18052271Y-15731869D01*
X18223700Y-15789012D02*
X18242748Y-15798536D01*
X18280843Y-15798536D01*
X18299890Y-15789012D01*
X18309414Y-15769965D01*
X18309414Y-15760441D01*
X18299890Y-15741393D01*
X18280843Y-15731869D01*
X18252271Y-15731869D01*
X18233224Y-15722346D01*
X18223700Y-15703298D01*
X18223700Y-15693774D01*
X18233224Y-15674727D01*
X18252271Y-15665203D01*
X18280843Y-15665203D01*
X18299890Y-15674727D01*
X18376081Y-15874727D02*
X18385605Y-15865203D01*
X18404652Y-15836631D01*
X18414176Y-15817584D01*
X18423700Y-15789012D01*
X18433224Y-15741393D01*
X18433224Y-15703298D01*
X18423700Y-15655679D01*
X18414176Y-15627108D01*
X18404652Y-15608060D01*
X18385605Y-15579488D01*
X18376081Y-15569965D01*
X13213700Y-15928060D02*
X13413700Y-16128060D01*
X13413700Y-15928060D02*
X13213700Y-16128060D01*
X13313700Y-15928060D02*
X13313700Y-16128060D01*
X13213700Y-16028060D02*
X13413700Y-16028060D01*
X13661795Y-15937584D02*
X13671319Y-15928060D01*
X13690367Y-15918536D01*
X13737986Y-15918536D01*
X13757033Y-15928060D01*
X13766557Y-15937584D01*
X13776081Y-15956631D01*
X13776081Y-15975679D01*
X13766557Y-16004250D01*
X13652271Y-16118536D01*
X13776081Y-16118536D01*
X13861795Y-16099488D02*
X13871319Y-16109012D01*
X13861795Y-16118536D01*
X13852271Y-16109012D01*
X13861795Y-16099488D01*
X13861795Y-16118536D01*
X13947509Y-15937584D02*
X13957033Y-15928060D01*
X13976081Y-15918536D01*
X14023700Y-15918536D01*
X14042748Y-15928060D01*
X14052271Y-15937584D01*
X14061795Y-15956631D01*
X14061795Y-15975679D01*
X14052271Y-16004250D01*
X13937986Y-16118536D01*
X14061795Y-16118536D01*
X14185605Y-15918536D02*
X14204652Y-15918536D01*
X14223700Y-15928060D01*
X14233224Y-15937584D01*
X14242748Y-15956631D01*
X14252271Y-15994727D01*
X14252271Y-16042346D01*
X14242748Y-16080441D01*
X14233224Y-16099488D01*
X14223700Y-16109012D01*
X14204652Y-16118536D01*
X14185605Y-16118536D01*
X14166557Y-16109012D01*
X14157033Y-16099488D01*
X14147509Y-16080441D01*
X14137986Y-16042346D01*
X14137986Y-15994727D01*
X14147509Y-15956631D01*
X14157033Y-15937584D01*
X14166557Y-15928060D01*
X14185605Y-15918536D01*
X14376081Y-15918536D02*
X14395128Y-15918536D01*
X14414176Y-15928060D01*
X14423700Y-15937584D01*
X14433224Y-15956631D01*
X14442748Y-15994727D01*
X14442748Y-16042346D01*
X14433224Y-16080441D01*
X14423700Y-16099488D01*
X14414176Y-16109012D01*
X14395128Y-16118536D01*
X14376081Y-16118536D01*
X14357033Y-16109012D01*
X14347509Y-16099488D01*
X14337986Y-16080441D01*
X14328462Y-16042346D01*
X14328462Y-15994727D01*
X14337986Y-15956631D01*
X14347509Y-15937584D01*
X14357033Y-15928060D01*
X14376081Y-15918536D01*
X14528462Y-16118536D02*
X14528462Y-15985203D01*
X14528462Y-16004250D02*
X14537986Y-15994727D01*
X14557033Y-15985203D01*
X14585605Y-15985203D01*
X14604652Y-15994727D01*
X14614176Y-16013774D01*
X14614176Y-16118536D01*
X14614176Y-16013774D02*
X14623700Y-15994727D01*
X14642748Y-15985203D01*
X14671319Y-15985203D01*
X14690367Y-15994727D01*
X14699890Y-16013774D01*
X14699890Y-16118536D01*
X14795128Y-16118536D02*
X14795128Y-15985203D01*
X14795128Y-16004250D02*
X14804652Y-15994727D01*
X14823700Y-15985203D01*
X14852271Y-15985203D01*
X14871319Y-15994727D01*
X14880843Y-16013774D01*
X14880843Y-16118536D01*
X14880843Y-16013774D02*
X14890367Y-15994727D01*
X14909414Y-15985203D01*
X14937986Y-15985203D01*
X14957033Y-15994727D01*
X14966557Y-16013774D01*
X14966557Y-16118536D01*
X15357033Y-15909012D02*
X15185605Y-16166155D01*
X15614176Y-15918536D02*
X15633224Y-15918536D01*
X15652271Y-15928060D01*
X15661795Y-15937584D01*
X15671319Y-15956631D01*
X15680843Y-15994727D01*
X15680843Y-16042346D01*
X15671319Y-16080441D01*
X15661795Y-16099488D01*
X15652271Y-16109012D01*
X15633224Y-16118536D01*
X15614176Y-16118536D01*
X15595128Y-16109012D01*
X15585605Y-16099488D01*
X15576081Y-16080441D01*
X15566557Y-16042346D01*
X15566557Y-15994727D01*
X15576081Y-15956631D01*
X15585605Y-15937584D01*
X15595128Y-15928060D01*
X15614176Y-15918536D01*
X15766557Y-16099488D02*
X15776081Y-16109012D01*
X15766557Y-16118536D01*
X15757033Y-16109012D01*
X15766557Y-16099488D01*
X15766557Y-16118536D01*
X15899890Y-15918536D02*
X15918938Y-15918536D01*
X15937986Y-15928060D01*
X15947509Y-15937584D01*
X15957033Y-15956631D01*
X15966557Y-15994727D01*
X15966557Y-16042346D01*
X15957033Y-16080441D01*
X15947509Y-16099488D01*
X15937986Y-16109012D01*
X15918938Y-16118536D01*
X15899890Y-16118536D01*
X15880843Y-16109012D01*
X15871319Y-16099488D01*
X15861795Y-16080441D01*
X15852271Y-16042346D01*
X15852271Y-15994727D01*
X15861795Y-15956631D01*
X15871319Y-15937584D01*
X15880843Y-15928060D01*
X15899890Y-15918536D01*
X16080843Y-16004250D02*
X16061795Y-15994727D01*
X16052271Y-15985203D01*
X16042748Y-15966155D01*
X16042748Y-15956631D01*
X16052271Y-15937584D01*
X16061795Y-15928060D01*
X16080843Y-15918536D01*
X16118938Y-15918536D01*
X16137986Y-15928060D01*
X16147509Y-15937584D01*
X16157033Y-15956631D01*
X16157033Y-15966155D01*
X16147509Y-15985203D01*
X16137986Y-15994727D01*
X16118938Y-16004250D01*
X16080843Y-16004250D01*
X16061795Y-16013774D01*
X16052271Y-16023298D01*
X16042748Y-16042346D01*
X16042748Y-16080441D01*
X16052271Y-16099488D01*
X16061795Y-16109012D01*
X16080843Y-16118536D01*
X16118938Y-16118536D01*
X16137986Y-16109012D01*
X16147509Y-16099488D01*
X16157033Y-16080441D01*
X16157033Y-16042346D01*
X16147509Y-16023298D01*
X16137986Y-16013774D01*
X16118938Y-16004250D01*
X16328462Y-15918536D02*
X16290367Y-15918536D01*
X16271319Y-15928060D01*
X16261795Y-15937584D01*
X16242748Y-15966155D01*
X16233224Y-16004250D01*
X16233224Y-16080441D01*
X16242748Y-16099488D01*
X16252271Y-16109012D01*
X16271319Y-16118536D01*
X16309414Y-16118536D01*
X16328462Y-16109012D01*
X16337986Y-16099488D01*
X16347509Y-16080441D01*
X16347509Y-16032822D01*
X16337986Y-16013774D01*
X16328462Y-16004250D01*
X16309414Y-15994727D01*
X16271319Y-15994727D01*
X16252271Y-16004250D01*
X16242748Y-16013774D01*
X16233224Y-16032822D01*
X16518938Y-15918536D02*
X16480843Y-15918536D01*
X16461795Y-15928060D01*
X16452271Y-15937584D01*
X16433224Y-15966155D01*
X16423700Y-16004250D01*
X16423700Y-16080441D01*
X16433224Y-16099488D01*
X16442748Y-16109012D01*
X16461795Y-16118536D01*
X16499890Y-16118536D01*
X16518938Y-16109012D01*
X16528462Y-16099488D01*
X16537986Y-16080441D01*
X16537986Y-16032822D01*
X16528462Y-16013774D01*
X16518938Y-16004250D01*
X16499890Y-15994727D01*
X16461795Y-15994727D01*
X16442748Y-16004250D01*
X16433224Y-16013774D01*
X16423700Y-16032822D01*
X16614176Y-15918536D02*
X16614176Y-15956631D01*
X16690367Y-15918536D02*
X16690367Y-15956631D01*
X16985605Y-16194727D02*
X16976081Y-16185203D01*
X16957033Y-16156631D01*
X16947510Y-16137584D01*
X16937986Y-16109012D01*
X16928462Y-16061393D01*
X16928462Y-16023298D01*
X16937986Y-15975679D01*
X16947510Y-15947108D01*
X16957033Y-15928060D01*
X16976081Y-15899488D01*
X16985605Y-15889965D01*
X17147510Y-15985203D02*
X17147510Y-16118536D01*
X17099890Y-15909012D02*
X17052271Y-16051869D01*
X17176081Y-16051869D01*
X17404652Y-16118536D02*
X17404652Y-15918536D01*
X17490367Y-16118536D02*
X17490367Y-16013774D01*
X17480843Y-15994727D01*
X17461795Y-15985203D01*
X17433224Y-15985203D01*
X17414176Y-15994727D01*
X17404652Y-16004250D01*
X17614176Y-16118536D02*
X17595129Y-16109012D01*
X17585605Y-16099488D01*
X17576081Y-16080441D01*
X17576081Y-16023298D01*
X17585605Y-16004250D01*
X17595129Y-15994727D01*
X17614176Y-15985203D01*
X17642748Y-15985203D01*
X17661795Y-15994727D01*
X17671319Y-16004250D01*
X17680843Y-16023298D01*
X17680843Y-16080441D01*
X17671319Y-16099488D01*
X17661795Y-16109012D01*
X17642748Y-16118536D01*
X17614176Y-16118536D01*
X17795129Y-16118536D02*
X17776081Y-16109012D01*
X17766557Y-16089965D01*
X17766557Y-15918536D01*
X17947510Y-16109012D02*
X17928462Y-16118536D01*
X17890367Y-16118536D01*
X17871319Y-16109012D01*
X17861795Y-16089965D01*
X17861795Y-16013774D01*
X17871319Y-15994727D01*
X17890367Y-15985203D01*
X17928462Y-15985203D01*
X17947510Y-15994727D01*
X17957033Y-16013774D01*
X17957033Y-16032822D01*
X17861795Y-16051869D01*
X18033224Y-16109012D02*
X18052271Y-16118536D01*
X18090367Y-16118536D01*
X18109414Y-16109012D01*
X18118938Y-16089965D01*
X18118938Y-16080441D01*
X18109414Y-16061393D01*
X18090367Y-16051869D01*
X18061795Y-16051869D01*
X18042748Y-16042346D01*
X18033224Y-16023298D01*
X18033224Y-16013774D01*
X18042748Y-15994727D01*
X18061795Y-15985203D01*
X18090367Y-15985203D01*
X18109414Y-15994727D01*
X18185605Y-16194727D02*
X18195129Y-16185203D01*
X18214176Y-16156631D01*
X18223700Y-16137584D01*
X18233224Y-16109012D01*
X18242748Y-16061393D01*
X18242748Y-16023298D01*
X18233224Y-15975679D01*
X18223700Y-15947108D01*
X18214176Y-15928060D01*
X18195129Y-15899488D01*
X18185605Y-15889965D01*
M02*
