G04 #@! TF.GenerationSoftware,KiCad,Pcbnew,(6.0.5)*
G04 #@! TF.CreationDate,2023-05-08T03:06:53-07:00*
G04 #@! TF.ProjectId,Z_Panels,5a5f5061-6e65-46c7-932e-6b696361645f,rev?*
G04 #@! TF.SameCoordinates,Original*
G04 #@! TF.FileFunction,Copper,L5,Inr*
G04 #@! TF.FilePolarity,Positive*
%FSLAX46Y46*%
G04 Gerber Fmt 4.6, Leading zero omitted, Abs format (unit mm)*
G04 Created by KiCad (PCBNEW (6.0.5)) date 2023-05-08 03:06:53*
%MOMM*%
%LPD*%
G01*
G04 APERTURE LIST*
G04 #@! TA.AperFunction,ComponentPad*
%ADD10C,3.000000*%
G04 #@! TD*
G04 #@! TA.AperFunction,ComponentPad*
%ADD11C,2.600000*%
G04 #@! TD*
G04 #@! TA.AperFunction,ComponentPad*
%ADD12R,1.700000X1.700000*%
G04 #@! TD*
G04 #@! TA.AperFunction,ComponentPad*
%ADD13O,1.700000X1.700000*%
G04 #@! TD*
G04 #@! TA.AperFunction,ComponentPad*
%ADD14C,2.050000*%
G04 #@! TD*
G04 #@! TA.AperFunction,ComponentPad*
%ADD15C,2.250000*%
G04 #@! TD*
G04 #@! TA.AperFunction,ViaPad*
%ADD16C,0.800000*%
G04 #@! TD*
G04 #@! TA.AperFunction,Conductor*
%ADD17C,1.000000*%
G04 #@! TD*
G04 #@! TA.AperFunction,Conductor*
%ADD18C,0.500000*%
G04 #@! TD*
G04 APERTURE END LIST*
D10*
X150042000Y-97830000D03*
X141042000Y-97830000D03*
D11*
X155182000Y-45965600D03*
D12*
X202656000Y-100503000D03*
X200116000Y-100503000D03*
X198846000Y-97963000D03*
X204216000Y-97963000D03*
D13*
X204216000Y-92883000D03*
D12*
X202656000Y-90343000D03*
X200116000Y-90343000D03*
D13*
X198846000Y-92883000D03*
D10*
X187160000Y-132310000D03*
X178160000Y-132310000D03*
D11*
X158170000Y-90670000D03*
X158170000Y-98290000D03*
X211856000Y-45965600D03*
D10*
X204008000Y-56968000D03*
X204008000Y-65968000D03*
X226020000Y-109330000D03*
X226020000Y-118330000D03*
X224210000Y-97830000D03*
X215210000Y-97830000D03*
D11*
X211856000Y-130965600D03*
D10*
X139280000Y-118350000D03*
X139280000Y-109350000D03*
D11*
X155182000Y-130965600D03*
D12*
X155448000Y-50738000D03*
D13*
X157988000Y-50738000D03*
X160528000Y-50738000D03*
X163068000Y-50738000D03*
X165608000Y-50738000D03*
X168148000Y-50738000D03*
X170688000Y-50738000D03*
X173228000Y-50738000D03*
D14*
X183431443Y-82290965D03*
D15*
X185971443Y-79750965D03*
X180891443Y-84830965D03*
X185971443Y-84830965D03*
X180891443Y-79750965D03*
D16*
X182468000Y-72612000D03*
X150897500Y-62212500D03*
X176276000Y-93314000D03*
X170942000Y-70612000D03*
X204502000Y-70612000D03*
X168276000Y-91314000D03*
X200502000Y-70612000D03*
X194502000Y-70612000D03*
X193104000Y-95314000D03*
X172276000Y-93314000D03*
X168276000Y-97314000D03*
X172276000Y-91314000D03*
X141300000Y-60230000D03*
X176468000Y-70612000D03*
X195580000Y-79058000D03*
X204502000Y-72612000D03*
X189104000Y-91314000D03*
X206502000Y-72612000D03*
X168942000Y-70612000D03*
X164942000Y-72612000D03*
X170276000Y-87314000D03*
X162942000Y-72612000D03*
X169672000Y-81058000D03*
X191104000Y-99314000D03*
X186468000Y-70612000D03*
X158942000Y-70612000D03*
X202502000Y-72612000D03*
X193104000Y-93314000D03*
X168276000Y-95314000D03*
X141340000Y-57280000D03*
X176276000Y-99314000D03*
X170276000Y-95314000D03*
X198502000Y-72612000D03*
X193104000Y-89314000D03*
X191104000Y-97314000D03*
X172276000Y-97314000D03*
X141440000Y-54600000D03*
X168276000Y-87314000D03*
X174276000Y-87314000D03*
X168276000Y-93314000D03*
X195072000Y-87303622D03*
X191104000Y-89314000D03*
X172276000Y-87314000D03*
X168276000Y-99314000D03*
X196502000Y-70612000D03*
X195072000Y-91303622D03*
X195580000Y-83058000D03*
X174276000Y-97314000D03*
X176276000Y-87314000D03*
X169672000Y-77058000D03*
X180468000Y-72612000D03*
X160528000Y-52490000D03*
X164942000Y-70612000D03*
X193104000Y-91314000D03*
X183388000Y-85090000D03*
X189104000Y-93314000D03*
X202502000Y-70612000D03*
X198502000Y-70612000D03*
X191104000Y-91314000D03*
X169672000Y-83058000D03*
X178562000Y-81090000D03*
X168942000Y-72612000D03*
X195072000Y-89303622D03*
X195072000Y-93303622D03*
X191104000Y-87314000D03*
X176276000Y-97314000D03*
X170276000Y-89314000D03*
X178468000Y-72612000D03*
X200502000Y-72612000D03*
X168276000Y-89314000D03*
X166942000Y-72612000D03*
X148530000Y-61790000D03*
X193104000Y-87314000D03*
X184468000Y-72612000D03*
X193104000Y-99314000D03*
X186468000Y-72612000D03*
X154310000Y-53830000D03*
X160942000Y-70612000D03*
X189104000Y-89314000D03*
X176276000Y-91314000D03*
X170276000Y-97314000D03*
X150970000Y-54750000D03*
X195580000Y-77058000D03*
X148400000Y-63890000D03*
X189104000Y-99314000D03*
X182468000Y-70612000D03*
X196502000Y-72612000D03*
X170276000Y-93314000D03*
X174276000Y-99314000D03*
X184468000Y-70612000D03*
X195072000Y-95303622D03*
X174276000Y-95314000D03*
X169672000Y-75058000D03*
X195580000Y-75058000D03*
X178468000Y-70612000D03*
X186182000Y-82296000D03*
X169672000Y-79058000D03*
X195580000Y-81058000D03*
X166942000Y-70612000D03*
X180468000Y-70612000D03*
X174276000Y-89314000D03*
X189104000Y-97314000D03*
X172276000Y-89314000D03*
X206502000Y-70612000D03*
X178562000Y-83090000D03*
X176276000Y-95314000D03*
X149120000Y-50220000D03*
X193104000Y-97314000D03*
X174276000Y-93314000D03*
X191104000Y-95314000D03*
X160528000Y-48938000D03*
X158942000Y-72612000D03*
X195072000Y-99303622D03*
X160942000Y-72612000D03*
X189104000Y-95314000D03*
X189104000Y-87314000D03*
X172276000Y-99314000D03*
X153500000Y-54750000D03*
X176276000Y-89314000D03*
X172276000Y-95314000D03*
X170276000Y-99314000D03*
X154380000Y-55780000D03*
X188468000Y-70612000D03*
X191104000Y-93314000D03*
X174276000Y-91314000D03*
X180594000Y-82296000D03*
X178562000Y-85090000D03*
X178562000Y-79090000D03*
X162942000Y-70612000D03*
X195072000Y-97303622D03*
X152772500Y-62212500D03*
X170276000Y-91314000D03*
X150710000Y-50030000D03*
X143140000Y-66360000D03*
X173010000Y-41610000D03*
X169460000Y-64390000D03*
X201457600Y-48777600D03*
X210058000Y-127000000D03*
X191513000Y-47286000D03*
X187553000Y-45236000D03*
X194813000Y-47676000D03*
X179113000Y-48156000D03*
X181298000Y-51591000D03*
X183473000Y-49276000D03*
X165985000Y-59535000D03*
X153357500Y-64312500D03*
X176173000Y-41876000D03*
X182713000Y-43696000D03*
X199070000Y-46930000D03*
X198990000Y-43620000D03*
X195008000Y-51181000D03*
X168500000Y-57900000D03*
X152370000Y-67460000D03*
X191215500Y-44373500D03*
X194943000Y-44106000D03*
X159815000Y-61430000D03*
X159835000Y-57320000D03*
X178562000Y-58166000D03*
X177292000Y-56134000D03*
X177292000Y-55118000D03*
X178562000Y-56134000D03*
X177292000Y-58166000D03*
X177292000Y-57150000D03*
X178562000Y-55118000D03*
X178562000Y-57150000D03*
D17*
X168148000Y-52324000D02*
X168910000Y-53086000D01*
X201457600Y-52288400D02*
X201457600Y-48777600D01*
X200660000Y-53086000D02*
X201457600Y-52288400D01*
X168910000Y-53086000D02*
X200660000Y-53086000D01*
X168148000Y-52324000D02*
X168148000Y-50738000D01*
D18*
X156730000Y-63680000D02*
X158980000Y-61430000D01*
X156730000Y-63680000D02*
X156730000Y-89230000D01*
X158980000Y-61430000D02*
X159815000Y-61430000D01*
X156730000Y-89230000D02*
X158170000Y-90670000D01*
X155370000Y-61785000D02*
X159835000Y-57320000D01*
X155370000Y-95490000D02*
X155370000Y-61785000D01*
X158170000Y-98290000D02*
X155370000Y-95490000D01*
D17*
X204216000Y-91522000D02*
X204216000Y-92883000D01*
X203037000Y-90343000D02*
X204216000Y-91522000D01*
X198846000Y-91613000D02*
X200116000Y-90343000D01*
X198846000Y-92883000D02*
X198846000Y-91613000D01*
X198846000Y-92883000D02*
X204216000Y-92883000D01*
X200116000Y-90343000D02*
X202656000Y-90343000D01*
G04 #@! TA.AperFunction,Conductor*
G36*
X208241660Y-40126685D02*
G01*
X208278532Y-40177435D01*
X208283500Y-40208800D01*
X208283500Y-40751378D01*
X208283016Y-40761280D01*
X208282361Y-40767967D01*
X208279754Y-40776968D01*
X208281554Y-40797755D01*
X208283121Y-40815845D01*
X208283500Y-40824603D01*
X208283500Y-40834748D01*
X208284356Y-40839344D01*
X208284942Y-40842490D01*
X208286280Y-40852318D01*
X208289413Y-40888496D01*
X208293529Y-40896917D01*
X208295042Y-40902373D01*
X208297075Y-40907641D01*
X208298791Y-40916853D01*
X208310073Y-40935155D01*
X208317849Y-40947771D01*
X208322633Y-40956456D01*
X208338575Y-40989069D01*
X208345444Y-40995441D01*
X208348814Y-40999979D01*
X208352614Y-41004170D01*
X208357532Y-41012148D01*
X208386444Y-41034133D01*
X208394020Y-41040502D01*
X208420646Y-41065201D01*
X208429348Y-41068673D01*
X208434124Y-41071692D01*
X208439181Y-41074235D01*
X208446641Y-41079908D01*
X208469524Y-41086534D01*
X208481516Y-41090007D01*
X208490897Y-41093228D01*
X208524622Y-41106683D01*
X208530915Y-41107300D01*
X208532664Y-41107300D01*
X208536158Y-41107556D01*
X208545165Y-41108439D01*
X208554168Y-41111046D01*
X208593045Y-41107679D01*
X208601803Y-41107300D01*
X219456000Y-41107300D01*
X219515660Y-41126685D01*
X219552532Y-41177435D01*
X219557500Y-41208800D01*
X219557500Y-51266978D01*
X219557016Y-51276880D01*
X219556361Y-51283567D01*
X219553754Y-51292568D01*
X219555176Y-51308986D01*
X219557121Y-51331445D01*
X219557500Y-51340203D01*
X219557500Y-51350348D01*
X219558356Y-51354944D01*
X219558942Y-51358090D01*
X219560280Y-51367918D01*
X219563413Y-51404096D01*
X219567529Y-51412517D01*
X219569042Y-51417973D01*
X219571075Y-51423241D01*
X219572791Y-51432453D01*
X219584073Y-51450755D01*
X219591849Y-51463371D01*
X219596633Y-51472056D01*
X219612575Y-51504669D01*
X219619444Y-51511041D01*
X219622814Y-51515579D01*
X219626614Y-51519770D01*
X219631532Y-51527748D01*
X219660444Y-51549733D01*
X219668020Y-51556102D01*
X219694646Y-51580801D01*
X219703348Y-51584273D01*
X219708124Y-51587292D01*
X219713181Y-51589835D01*
X219720641Y-51595508D01*
X219743524Y-51602134D01*
X219755516Y-51605607D01*
X219764897Y-51608828D01*
X219798622Y-51622283D01*
X219804915Y-51622900D01*
X219806664Y-51622900D01*
X219810158Y-51623156D01*
X219819165Y-51624039D01*
X219828168Y-51626646D01*
X219867045Y-51623279D01*
X219875803Y-51622900D01*
X230729988Y-51622900D01*
X230789648Y-51642285D01*
X230826520Y-51693035D01*
X230831488Y-51724403D01*
X230831052Y-67921083D01*
X230829648Y-120143240D01*
X230829511Y-125218003D01*
X230810125Y-125277662D01*
X230759374Y-125314533D01*
X230728011Y-125319500D01*
X219911422Y-125319500D01*
X219901520Y-125319016D01*
X219894833Y-125318361D01*
X219885832Y-125315754D01*
X219847924Y-125319037D01*
X219846955Y-125319121D01*
X219838197Y-125319500D01*
X219828052Y-125319500D01*
X219823456Y-125320356D01*
X219820310Y-125320942D01*
X219810482Y-125322280D01*
X219774304Y-125325413D01*
X219765883Y-125329529D01*
X219760427Y-125331042D01*
X219755159Y-125333075D01*
X219745947Y-125334791D01*
X219730545Y-125344285D01*
X219715029Y-125353849D01*
X219706344Y-125358633D01*
X219700277Y-125361599D01*
X219673731Y-125374575D01*
X219667359Y-125381444D01*
X219662821Y-125384814D01*
X219658630Y-125388614D01*
X219650652Y-125393532D01*
X219628667Y-125422444D01*
X219622298Y-125430020D01*
X219597599Y-125456646D01*
X219594127Y-125465348D01*
X219591108Y-125470124D01*
X219588565Y-125475181D01*
X219582892Y-125482641D01*
X219580285Y-125491645D01*
X219572793Y-125517516D01*
X219569572Y-125526897D01*
X219556117Y-125560622D01*
X219555500Y-125566915D01*
X219555500Y-125568664D01*
X219555244Y-125572158D01*
X219554361Y-125581165D01*
X219551754Y-125590168D01*
X219552563Y-125599507D01*
X219555121Y-125629045D01*
X219555500Y-125637803D01*
X219555500Y-135733600D01*
X219536115Y-135793260D01*
X219485365Y-135830132D01*
X219454000Y-135835100D01*
X208637422Y-135835100D01*
X208627520Y-135834616D01*
X208620833Y-135833961D01*
X208611832Y-135831354D01*
X208573924Y-135834637D01*
X208572955Y-135834721D01*
X208564197Y-135835100D01*
X208554052Y-135835100D01*
X208549456Y-135835956D01*
X208546310Y-135836542D01*
X208536482Y-135837880D01*
X208500304Y-135841013D01*
X208491883Y-135845129D01*
X208486427Y-135846642D01*
X208481159Y-135848675D01*
X208471947Y-135850391D01*
X208456545Y-135859885D01*
X208441029Y-135869449D01*
X208432344Y-135874233D01*
X208426277Y-135877199D01*
X208399731Y-135890175D01*
X208393359Y-135897044D01*
X208388821Y-135900414D01*
X208384630Y-135904214D01*
X208376652Y-135909132D01*
X208354667Y-135938044D01*
X208348298Y-135945620D01*
X208323599Y-135972246D01*
X208320127Y-135980948D01*
X208317108Y-135985724D01*
X208314565Y-135990781D01*
X208308892Y-135998241D01*
X208306285Y-136007245D01*
X208298793Y-136033116D01*
X208295572Y-136042497D01*
X208282117Y-136076222D01*
X208281500Y-136082515D01*
X208281500Y-136084264D01*
X208281244Y-136087758D01*
X208280361Y-136096765D01*
X208277754Y-136105768D01*
X208278563Y-136115107D01*
X208281121Y-136144645D01*
X208281500Y-136153403D01*
X208281500Y-136733600D01*
X208262115Y-136793260D01*
X208211365Y-136830132D01*
X208180000Y-136835100D01*
X157112000Y-136835100D01*
X157052340Y-136815715D01*
X157015468Y-136764965D01*
X157010500Y-136733600D01*
X157010500Y-136191022D01*
X157010984Y-136181120D01*
X157011639Y-136174433D01*
X157014246Y-136165432D01*
X157010879Y-136126555D01*
X157010500Y-136117797D01*
X157010500Y-136107652D01*
X157009058Y-136099909D01*
X157007720Y-136090082D01*
X157007065Y-136082515D01*
X157004587Y-136053904D01*
X157000471Y-136045483D01*
X156998958Y-136040027D01*
X156996925Y-136034759D01*
X156995209Y-136025547D01*
X156976151Y-135994629D01*
X156971367Y-135985944D01*
X156959540Y-135961749D01*
X156955425Y-135953331D01*
X156948556Y-135946959D01*
X156945186Y-135942421D01*
X156941386Y-135938230D01*
X156936468Y-135930252D01*
X156907556Y-135908267D01*
X156899980Y-135901898D01*
X156873354Y-135877199D01*
X156864652Y-135873727D01*
X156859876Y-135870708D01*
X156854819Y-135868165D01*
X156847359Y-135862492D01*
X156822550Y-135855308D01*
X156812484Y-135852393D01*
X156803102Y-135849172D01*
X156782652Y-135841013D01*
X156769378Y-135835717D01*
X156763085Y-135835100D01*
X156761336Y-135835100D01*
X156757842Y-135834844D01*
X156748835Y-135833961D01*
X156739832Y-135831354D01*
X156702368Y-135834599D01*
X156700955Y-135834721D01*
X156692197Y-135835100D01*
X145838000Y-135835100D01*
X145778340Y-135815715D01*
X145741468Y-135764965D01*
X145736500Y-135733600D01*
X145736500Y-132411943D01*
X154100844Y-132411943D01*
X154101039Y-132413171D01*
X154105282Y-132418162D01*
X154218185Y-132500946D01*
X154224550Y-132504923D01*
X154455703Y-132626538D01*
X154462598Y-132629536D01*
X154709192Y-132715651D01*
X154716438Y-132717592D01*
X154973053Y-132766312D01*
X154980521Y-132767163D01*
X155241518Y-132777418D01*
X155249013Y-132777157D01*
X155508662Y-132748720D01*
X155516051Y-132747350D01*
X155768626Y-132680852D01*
X155775749Y-132678400D01*
X156015724Y-132575299D01*
X156022379Y-132571835D01*
X156244501Y-132434381D01*
X156250564Y-132429976D01*
X156258118Y-132423581D01*
X156265312Y-132411955D01*
X156265079Y-132408817D01*
X156263238Y-132406048D01*
X156119926Y-132262736D01*
X176355070Y-132262736D01*
X176362237Y-132411943D01*
X176366703Y-132504923D01*
X176367909Y-132530041D01*
X176420118Y-132792512D01*
X176421390Y-132796054D01*
X176509276Y-133040839D01*
X176509279Y-133040846D01*
X176510549Y-133044383D01*
X176637215Y-133280121D01*
X176797335Y-133494547D01*
X176987390Y-133682950D01*
X177203205Y-133841192D01*
X177440039Y-133965797D01*
X177443591Y-133967037D01*
X177443597Y-133967040D01*
X177689130Y-134052783D01*
X177689132Y-134052784D01*
X177692690Y-134054026D01*
X177696390Y-134054729D01*
X177696392Y-134054729D01*
X177824148Y-134078985D01*
X177955606Y-134103943D01*
X177959371Y-134104091D01*
X177959372Y-134104091D01*
X177983244Y-134105029D01*
X178223013Y-134114449D01*
X178226746Y-134114040D01*
X178226751Y-134114040D01*
X178485291Y-134085725D01*
X178489035Y-134085315D01*
X178747829Y-134017180D01*
X178751297Y-134015690D01*
X178751300Y-134015689D01*
X178990251Y-133913028D01*
X178993710Y-133911542D01*
X179221275Y-133770720D01*
X179322317Y-133685182D01*
X179422656Y-133600239D01*
X179422659Y-133600236D01*
X179425526Y-133597809D01*
X179601976Y-133396607D01*
X179746747Y-133171534D01*
X179856661Y-132927534D01*
X179899072Y-132777157D01*
X179928278Y-132673601D01*
X179928279Y-132673597D01*
X179929302Y-132669969D01*
X179934828Y-132626538D01*
X179962753Y-132407029D01*
X179962754Y-132407022D01*
X179963075Y-132404495D01*
X179965549Y-132310000D01*
X179962037Y-132262736D01*
X185355070Y-132262736D01*
X185362237Y-132411943D01*
X185366703Y-132504923D01*
X185367909Y-132530041D01*
X185420118Y-132792512D01*
X185421390Y-132796054D01*
X185509276Y-133040839D01*
X185509279Y-133040846D01*
X185510549Y-133044383D01*
X185637215Y-133280121D01*
X185797335Y-133494547D01*
X185987390Y-133682950D01*
X186203205Y-133841192D01*
X186440039Y-133965797D01*
X186443591Y-133967037D01*
X186443597Y-133967040D01*
X186689130Y-134052783D01*
X186689132Y-134052784D01*
X186692690Y-134054026D01*
X186696390Y-134054729D01*
X186696392Y-134054729D01*
X186824148Y-134078985D01*
X186955606Y-134103943D01*
X186959371Y-134104091D01*
X186959372Y-134104091D01*
X186983244Y-134105029D01*
X187223013Y-134114449D01*
X187226746Y-134114040D01*
X187226751Y-134114040D01*
X187485291Y-134085725D01*
X187489035Y-134085315D01*
X187747829Y-134017180D01*
X187751297Y-134015690D01*
X187751300Y-134015689D01*
X187990251Y-133913028D01*
X187993710Y-133911542D01*
X188221275Y-133770720D01*
X188322317Y-133685182D01*
X188422656Y-133600239D01*
X188422659Y-133600236D01*
X188425526Y-133597809D01*
X188601976Y-133396607D01*
X188746747Y-133171534D01*
X188856661Y-132927534D01*
X188899072Y-132777157D01*
X188928278Y-132673601D01*
X188928279Y-132673597D01*
X188929302Y-132669969D01*
X188934828Y-132626538D01*
X188962128Y-132411943D01*
X210774844Y-132411943D01*
X210775039Y-132413171D01*
X210779282Y-132418162D01*
X210892185Y-132500946D01*
X210898550Y-132504923D01*
X211129703Y-132626538D01*
X211136598Y-132629536D01*
X211383192Y-132715651D01*
X211390438Y-132717592D01*
X211647053Y-132766312D01*
X211654521Y-132767163D01*
X211915518Y-132777418D01*
X211923013Y-132777157D01*
X212182662Y-132748720D01*
X212190051Y-132747350D01*
X212442626Y-132680852D01*
X212449749Y-132678400D01*
X212689724Y-132575299D01*
X212696379Y-132571835D01*
X212918501Y-132434381D01*
X212924564Y-132429976D01*
X212932118Y-132423581D01*
X212939312Y-132411955D01*
X212939079Y-132408817D01*
X212937238Y-132406048D01*
X211867368Y-131336178D01*
X211855182Y-131329969D01*
X211850024Y-131330786D01*
X210781053Y-132399757D01*
X210774844Y-132411943D01*
X188962128Y-132411943D01*
X188962753Y-132407029D01*
X188962754Y-132407022D01*
X188963075Y-132404495D01*
X188965549Y-132310000D01*
X188945717Y-132043123D01*
X188935161Y-131996470D01*
X188898372Y-131833891D01*
X188886655Y-131782109D01*
X188885292Y-131778604D01*
X188791028Y-131536203D01*
X188791027Y-131536200D01*
X188789662Y-131532691D01*
X188787795Y-131529425D01*
X188787792Y-131529418D01*
X188658739Y-131303623D01*
X188658737Y-131303620D01*
X188656868Y-131300350D01*
X188491190Y-131090189D01*
X188312295Y-130921901D01*
X210043732Y-130921901D01*
X210056263Y-131182793D01*
X210057179Y-131190252D01*
X210108137Y-131446430D01*
X210110145Y-131453670D01*
X210198404Y-131699493D01*
X210201462Y-131706362D01*
X210325087Y-131936439D01*
X210329128Y-131942784D01*
X210400940Y-132038950D01*
X210412108Y-132046843D01*
X210413591Y-132046823D01*
X210418816Y-132043574D01*
X211485422Y-130976968D01*
X211490797Y-130966418D01*
X212220369Y-130966418D01*
X212221186Y-130971576D01*
X213293538Y-132043928D01*
X213305496Y-132050021D01*
X213312196Y-132043962D01*
X213447319Y-131833891D01*
X213450903Y-131827290D01*
X213558181Y-131589140D01*
X213560751Y-131582078D01*
X213631651Y-131330687D01*
X213633146Y-131323342D01*
X213666264Y-131063014D01*
X213666652Y-131057937D01*
X213669003Y-130968152D01*
X213668881Y-130963058D01*
X213649434Y-130701370D01*
X213648323Y-130693933D01*
X213590677Y-130439179D01*
X213588484Y-130432005D01*
X213493816Y-130188565D01*
X213490580Y-130181780D01*
X213360974Y-129955017D01*
X213356771Y-129948785D01*
X213311733Y-129891656D01*
X213300362Y-129884058D01*
X213298166Y-129884144D01*
X213293997Y-129886813D01*
X212226578Y-130954232D01*
X212220369Y-130966418D01*
X211490797Y-130966418D01*
X211491631Y-130964782D01*
X211490814Y-130959624D01*
X210420372Y-129889182D01*
X210408186Y-129882973D01*
X210405313Y-129883428D01*
X210402397Y-129885759D01*
X210382366Y-129909842D01*
X210377994Y-129915972D01*
X210242501Y-130139257D01*
X210239083Y-130145964D01*
X210138080Y-130386830D01*
X210135696Y-130393953D01*
X210071401Y-130647117D01*
X210070098Y-130654510D01*
X210043928Y-130914391D01*
X210043732Y-130921901D01*
X188312295Y-130921901D01*
X188296269Y-130906825D01*
X188076385Y-130754286D01*
X188073015Y-130752624D01*
X188073008Y-130752620D01*
X187839744Y-130637587D01*
X187839740Y-130637585D01*
X187836371Y-130635924D01*
X187581497Y-130554338D01*
X187449431Y-130532830D01*
X187321087Y-130511928D01*
X187321083Y-130511928D01*
X187317364Y-130511322D01*
X187181283Y-130509541D01*
X187053545Y-130507868D01*
X187053540Y-130507868D01*
X187049774Y-130507819D01*
X187046042Y-130508327D01*
X187046040Y-130508327D01*
X186788343Y-130543398D01*
X186788339Y-130543399D01*
X186784605Y-130543907D01*
X186780982Y-130544963D01*
X186531298Y-130617738D01*
X186531294Y-130617740D01*
X186527683Y-130618792D01*
X186284652Y-130730831D01*
X186281509Y-130732892D01*
X186281503Y-130732895D01*
X186064003Y-130875495D01*
X186063999Y-130875498D01*
X186060851Y-130877562D01*
X185861197Y-131055760D01*
X185690075Y-131261512D01*
X185688124Y-131264728D01*
X185688122Y-131264730D01*
X185648038Y-131330786D01*
X185551244Y-131490298D01*
X185447755Y-131737091D01*
X185446827Y-131740745D01*
X185382809Y-131992814D01*
X185382808Y-131992821D01*
X185381881Y-131996470D01*
X185355070Y-132262736D01*
X179962037Y-132262736D01*
X179945717Y-132043123D01*
X179935161Y-131996470D01*
X179898372Y-131833891D01*
X179886655Y-131782109D01*
X179885292Y-131778604D01*
X179791028Y-131536203D01*
X179791027Y-131536200D01*
X179789662Y-131532691D01*
X179787795Y-131529425D01*
X179787792Y-131529418D01*
X179658739Y-131303623D01*
X179658737Y-131303620D01*
X179656868Y-131300350D01*
X179491190Y-131090189D01*
X179296269Y-130906825D01*
X179076385Y-130754286D01*
X179073015Y-130752624D01*
X179073008Y-130752620D01*
X178839744Y-130637587D01*
X178839740Y-130637585D01*
X178836371Y-130635924D01*
X178581497Y-130554338D01*
X178449431Y-130532830D01*
X178321087Y-130511928D01*
X178321083Y-130511928D01*
X178317364Y-130511322D01*
X178181283Y-130509541D01*
X178053545Y-130507868D01*
X178053540Y-130507868D01*
X178049774Y-130507819D01*
X178046042Y-130508327D01*
X178046040Y-130508327D01*
X177788343Y-130543398D01*
X177788339Y-130543399D01*
X177784605Y-130543907D01*
X177780982Y-130544963D01*
X177531298Y-130617738D01*
X177531294Y-130617740D01*
X177527683Y-130618792D01*
X177284652Y-130730831D01*
X177281509Y-130732892D01*
X177281503Y-130732895D01*
X177064003Y-130875495D01*
X177063999Y-130875498D01*
X177060851Y-130877562D01*
X176861197Y-131055760D01*
X176690075Y-131261512D01*
X176688124Y-131264728D01*
X176688122Y-131264730D01*
X176648038Y-131330786D01*
X176551244Y-131490298D01*
X176447755Y-131737091D01*
X176446827Y-131740745D01*
X176382809Y-131992814D01*
X176382808Y-131992821D01*
X176381881Y-131996470D01*
X176355070Y-132262736D01*
X156119926Y-132262736D01*
X155193368Y-131336178D01*
X155181182Y-131329969D01*
X155176024Y-131330786D01*
X154107053Y-132399757D01*
X154100844Y-132411943D01*
X145736500Y-132411943D01*
X145736500Y-130921901D01*
X153369732Y-130921901D01*
X153382263Y-131182793D01*
X153383179Y-131190252D01*
X153434137Y-131446430D01*
X153436145Y-131453670D01*
X153524404Y-131699493D01*
X153527462Y-131706362D01*
X153651087Y-131936439D01*
X153655128Y-131942784D01*
X153726940Y-132038950D01*
X153738108Y-132046843D01*
X153739591Y-132046823D01*
X153744816Y-132043574D01*
X154811422Y-130976968D01*
X154816797Y-130966418D01*
X155546369Y-130966418D01*
X155547186Y-130971576D01*
X156619538Y-132043928D01*
X156631496Y-132050021D01*
X156638196Y-132043962D01*
X156773319Y-131833891D01*
X156776903Y-131827290D01*
X156884181Y-131589140D01*
X156886751Y-131582078D01*
X156957651Y-131330687D01*
X156959146Y-131323342D01*
X156992264Y-131063014D01*
X156992652Y-131057937D01*
X156995003Y-130968152D01*
X156994881Y-130963058D01*
X156975434Y-130701370D01*
X156974323Y-130693933D01*
X156916677Y-130439179D01*
X156914484Y-130432005D01*
X156819816Y-130188565D01*
X156816580Y-130181780D01*
X156686974Y-129955017D01*
X156682771Y-129948785D01*
X156637733Y-129891656D01*
X156626362Y-129884058D01*
X156624166Y-129884144D01*
X156619997Y-129886813D01*
X155552578Y-130954232D01*
X155546369Y-130966418D01*
X154816797Y-130966418D01*
X154817631Y-130964782D01*
X154816814Y-130959624D01*
X153746372Y-129889182D01*
X153734186Y-129882973D01*
X153731313Y-129883428D01*
X153728397Y-129885759D01*
X153708366Y-129909842D01*
X153703994Y-129915972D01*
X153568501Y-130139257D01*
X153565083Y-130145964D01*
X153464080Y-130386830D01*
X153461696Y-130393953D01*
X153397401Y-130647117D01*
X153396098Y-130654510D01*
X153369928Y-130914391D01*
X153369732Y-130921901D01*
X145736500Y-130921901D01*
X145736500Y-129519242D01*
X154098045Y-129519242D01*
X154102460Y-129526850D01*
X155170632Y-130595022D01*
X155182818Y-130601231D01*
X155187976Y-130600414D01*
X156257793Y-129530597D01*
X156263579Y-129519242D01*
X210772045Y-129519242D01*
X210776460Y-129526850D01*
X211844632Y-130595022D01*
X211856818Y-130601231D01*
X211861976Y-130600414D01*
X212931793Y-129530597D01*
X212938002Y-129518411D01*
X212937920Y-129517893D01*
X212932828Y-129512061D01*
X212779298Y-129405553D01*
X212772826Y-129401741D01*
X212538561Y-129286215D01*
X212531604Y-129283404D01*
X212282845Y-129203775D01*
X212275530Y-129202019D01*
X212017741Y-129160035D01*
X212010247Y-129159380D01*
X211749086Y-129155961D01*
X211741581Y-129156420D01*
X211482774Y-129191642D01*
X211475426Y-129193204D01*
X211224664Y-129266295D01*
X211217634Y-129268923D01*
X210980423Y-129378278D01*
X210973857Y-129381917D01*
X210780533Y-129508667D01*
X210772045Y-129519242D01*
X156263579Y-129519242D01*
X156264002Y-129518411D01*
X156263920Y-129517893D01*
X156258828Y-129512061D01*
X156105298Y-129405553D01*
X156098826Y-129401741D01*
X155864561Y-129286215D01*
X155857604Y-129283404D01*
X155608845Y-129203775D01*
X155601530Y-129202019D01*
X155343741Y-129160035D01*
X155336247Y-129159380D01*
X155075086Y-129155961D01*
X155067581Y-129156420D01*
X154808774Y-129191642D01*
X154801426Y-129193204D01*
X154550664Y-129266295D01*
X154543634Y-129268923D01*
X154306423Y-129378278D01*
X154299857Y-129381917D01*
X154106533Y-129508667D01*
X154098045Y-129519242D01*
X145736500Y-129519242D01*
X145736500Y-126992611D01*
X209352394Y-126992611D01*
X209370999Y-127161135D01*
X209429266Y-127320356D01*
X209523830Y-127461083D01*
X209649233Y-127575191D01*
X209654606Y-127578108D01*
X209654607Y-127578109D01*
X209792855Y-127653171D01*
X209798235Y-127656092D01*
X209962233Y-127699116D01*
X210032476Y-127700219D01*
X210125639Y-127701683D01*
X210125640Y-127701683D01*
X210131760Y-127701779D01*
X210223425Y-127680785D01*
X210291066Y-127665294D01*
X210291068Y-127665293D01*
X210297029Y-127663928D01*
X210372238Y-127626102D01*
X210443035Y-127590495D01*
X210443037Y-127590493D01*
X210448498Y-127587747D01*
X210577423Y-127477634D01*
X210676361Y-127339947D01*
X210739601Y-127182634D01*
X210763490Y-127014778D01*
X210763645Y-127000000D01*
X210762018Y-126986550D01*
X210755853Y-126935613D01*
X210743276Y-126831680D01*
X210683345Y-126673077D01*
X210678857Y-126666547D01*
X210590777Y-126538390D01*
X210590775Y-126538388D01*
X210587312Y-126533349D01*
X210582749Y-126529284D01*
X210582746Y-126529280D01*
X210515049Y-126468965D01*
X210460721Y-126420560D01*
X210398505Y-126387618D01*
X210316289Y-126344087D01*
X210316286Y-126344086D01*
X210310881Y-126341224D01*
X210304950Y-126339734D01*
X210304947Y-126339733D01*
X210229048Y-126320669D01*
X210146441Y-126299919D01*
X210099522Y-126299673D01*
X209983014Y-126299063D01*
X209976895Y-126299031D01*
X209970944Y-126300460D01*
X209970942Y-126300460D01*
X209817982Y-126337183D01*
X209817978Y-126337184D01*
X209812032Y-126338612D01*
X209661369Y-126416375D01*
X209656757Y-126420398D01*
X209656756Y-126420399D01*
X209538216Y-126523807D01*
X209538213Y-126523810D01*
X209533604Y-126527831D01*
X209436113Y-126666547D01*
X209374524Y-126824513D01*
X209352394Y-126992611D01*
X145736500Y-126992611D01*
X145736500Y-125675422D01*
X145736984Y-125665520D01*
X145737639Y-125658833D01*
X145740246Y-125649832D01*
X145736879Y-125610955D01*
X145736500Y-125602197D01*
X145736500Y-125592052D01*
X145735058Y-125584309D01*
X145733720Y-125574482D01*
X145733065Y-125566915D01*
X145730587Y-125538304D01*
X145726471Y-125529883D01*
X145724958Y-125524427D01*
X145722925Y-125519159D01*
X145721209Y-125509947D01*
X145702151Y-125479029D01*
X145697367Y-125470344D01*
X145685540Y-125446149D01*
X145681425Y-125437731D01*
X145674556Y-125431359D01*
X145671186Y-125426821D01*
X145667386Y-125422630D01*
X145662468Y-125414652D01*
X145633556Y-125392667D01*
X145625980Y-125386298D01*
X145599354Y-125361599D01*
X145590652Y-125358127D01*
X145585876Y-125355108D01*
X145580819Y-125352565D01*
X145573359Y-125346892D01*
X145548550Y-125339708D01*
X145538484Y-125336793D01*
X145529102Y-125333572D01*
X145508652Y-125325413D01*
X145495378Y-125320117D01*
X145489085Y-125319500D01*
X145487336Y-125319500D01*
X145483842Y-125319244D01*
X145474835Y-125318361D01*
X145465832Y-125315754D01*
X145428368Y-125318999D01*
X145426955Y-125319121D01*
X145418197Y-125319500D01*
X134564012Y-125319500D01*
X134504352Y-125300115D01*
X134467480Y-125249365D01*
X134462512Y-125217997D01*
X134462698Y-118302736D01*
X137475070Y-118302736D01*
X137476380Y-118330000D01*
X137486768Y-118546276D01*
X137487909Y-118570041D01*
X137540118Y-118832512D01*
X137541390Y-118836054D01*
X137629276Y-119080839D01*
X137629279Y-119080846D01*
X137630549Y-119084383D01*
X137757215Y-119320121D01*
X137917335Y-119534547D01*
X138107390Y-119722950D01*
X138110434Y-119725182D01*
X138298318Y-119862944D01*
X138323205Y-119881192D01*
X138560039Y-120005797D01*
X138563591Y-120007037D01*
X138563597Y-120007040D01*
X138809130Y-120092783D01*
X138809132Y-120092784D01*
X138812690Y-120094026D01*
X138816390Y-120094729D01*
X138816392Y-120094729D01*
X138874309Y-120105725D01*
X139075606Y-120143943D01*
X139079371Y-120144091D01*
X139079372Y-120144091D01*
X139103244Y-120145029D01*
X139343013Y-120154449D01*
X139346746Y-120154040D01*
X139346751Y-120154040D01*
X139605291Y-120125725D01*
X139609035Y-120125315D01*
X139867829Y-120057180D01*
X139871297Y-120055690D01*
X139871300Y-120055689D01*
X140110251Y-119953028D01*
X140113710Y-119951542D01*
X140341275Y-119810720D01*
X140442317Y-119725182D01*
X140542656Y-119640239D01*
X140542659Y-119640236D01*
X140545526Y-119637809D01*
X140721976Y-119436607D01*
X140866747Y-119211534D01*
X140874334Y-119194693D01*
X140975114Y-118970968D01*
X140976661Y-118967534D01*
X141049302Y-118709969D01*
X141051385Y-118693601D01*
X141082753Y-118447029D01*
X141082754Y-118447022D01*
X141083075Y-118444495D01*
X141083666Y-118421944D01*
X141085482Y-118352552D01*
X141085549Y-118350000D01*
X141080551Y-118282736D01*
X224215070Y-118282736D01*
X224227909Y-118550041D01*
X224280118Y-118812512D01*
X224310995Y-118898512D01*
X224369276Y-119060839D01*
X224369279Y-119060846D01*
X224370549Y-119064383D01*
X224497215Y-119300121D01*
X224657335Y-119514547D01*
X224847390Y-119702950D01*
X224850434Y-119705182D01*
X224997065Y-119812696D01*
X225063205Y-119861192D01*
X225300039Y-119985797D01*
X225303591Y-119987037D01*
X225303597Y-119987040D01*
X225549130Y-120072783D01*
X225549132Y-120072784D01*
X225552690Y-120074026D01*
X225556390Y-120074729D01*
X225556392Y-120074729D01*
X225651484Y-120092783D01*
X225815606Y-120123943D01*
X225819371Y-120124091D01*
X225819372Y-120124091D01*
X225843244Y-120125029D01*
X226083013Y-120134449D01*
X226086746Y-120134040D01*
X226086751Y-120134040D01*
X226345291Y-120105725D01*
X226349035Y-120105315D01*
X226607829Y-120037180D01*
X226611297Y-120035690D01*
X226611300Y-120035689D01*
X226850251Y-119933028D01*
X226853710Y-119931542D01*
X227045762Y-119812696D01*
X227078082Y-119792696D01*
X227078083Y-119792695D01*
X227081275Y-119790720D01*
X227158692Y-119725182D01*
X227282656Y-119620239D01*
X227282659Y-119620236D01*
X227285526Y-119617809D01*
X227461976Y-119416607D01*
X227606747Y-119191534D01*
X227656612Y-119080839D01*
X227715114Y-118950968D01*
X227716661Y-118947534D01*
X227749101Y-118832512D01*
X227788278Y-118693601D01*
X227788279Y-118693597D01*
X227789302Y-118689969D01*
X227806634Y-118553735D01*
X227822753Y-118427029D01*
X227822754Y-118427022D01*
X227823075Y-118424495D01*
X227825549Y-118330000D01*
X227805717Y-118063123D01*
X227795161Y-118016470D01*
X227752011Y-117825778D01*
X227746655Y-117802109D01*
X227735572Y-117773610D01*
X227651028Y-117556203D01*
X227651027Y-117556200D01*
X227649662Y-117552691D01*
X227647795Y-117549425D01*
X227647792Y-117549418D01*
X227518739Y-117323623D01*
X227518737Y-117323620D01*
X227516868Y-117320350D01*
X227351190Y-117110189D01*
X227156269Y-116926825D01*
X226936385Y-116774286D01*
X226933015Y-116772624D01*
X226933008Y-116772620D01*
X226699744Y-116657587D01*
X226699740Y-116657585D01*
X226696371Y-116655924D01*
X226441497Y-116574338D01*
X226281781Y-116548327D01*
X226181087Y-116531928D01*
X226181083Y-116531928D01*
X226177364Y-116531322D01*
X226041283Y-116529541D01*
X225913545Y-116527868D01*
X225913540Y-116527868D01*
X225909774Y-116527819D01*
X225906042Y-116528327D01*
X225906040Y-116528327D01*
X225648343Y-116563398D01*
X225648339Y-116563399D01*
X225644605Y-116563907D01*
X225640982Y-116564963D01*
X225391298Y-116637738D01*
X225391294Y-116637740D01*
X225387683Y-116638792D01*
X225144652Y-116750831D01*
X225141509Y-116752892D01*
X225141503Y-116752895D01*
X224924003Y-116895495D01*
X224923999Y-116895498D01*
X224920851Y-116897562D01*
X224721197Y-117075760D01*
X224550075Y-117281512D01*
X224548124Y-117284728D01*
X224548122Y-117284730D01*
X224535986Y-117304730D01*
X224411244Y-117510298D01*
X224307755Y-117757091D01*
X224306827Y-117760745D01*
X224242809Y-118012814D01*
X224242808Y-118012821D01*
X224241881Y-118016470D01*
X224215070Y-118282736D01*
X141080551Y-118282736D01*
X141065717Y-118083123D01*
X141061192Y-118063123D01*
X141007485Y-117825778D01*
X141006655Y-117822109D01*
X140997514Y-117798604D01*
X140911028Y-117576203D01*
X140911027Y-117576200D01*
X140909662Y-117572691D01*
X140907795Y-117569425D01*
X140907792Y-117569418D01*
X140778739Y-117343623D01*
X140778737Y-117343620D01*
X140776868Y-117340350D01*
X140611190Y-117130189D01*
X140416269Y-116946825D01*
X140196385Y-116794286D01*
X140193015Y-116792624D01*
X140193008Y-116792620D01*
X139959744Y-116677587D01*
X139959740Y-116677585D01*
X139956371Y-116675924D01*
X139701497Y-116594338D01*
X139569430Y-116572830D01*
X139441087Y-116551928D01*
X139441083Y-116551928D01*
X139437364Y-116551322D01*
X139301283Y-116549541D01*
X139173545Y-116547868D01*
X139173540Y-116547868D01*
X139169774Y-116547819D01*
X139166042Y-116548327D01*
X139166040Y-116548327D01*
X138908343Y-116583398D01*
X138908339Y-116583399D01*
X138904605Y-116583907D01*
X138900982Y-116584963D01*
X138651298Y-116657738D01*
X138651294Y-116657740D01*
X138647683Y-116658792D01*
X138404652Y-116770831D01*
X138401509Y-116772892D01*
X138401503Y-116772895D01*
X138184003Y-116915495D01*
X138183999Y-116915498D01*
X138180851Y-116917562D01*
X137981197Y-117095760D01*
X137810075Y-117301512D01*
X137808124Y-117304728D01*
X137808122Y-117304730D01*
X137788302Y-117337392D01*
X137671244Y-117530298D01*
X137567755Y-117777091D01*
X137566827Y-117780745D01*
X137502809Y-118032814D01*
X137502808Y-118032821D01*
X137501881Y-118036470D01*
X137501503Y-118040226D01*
X137477084Y-118282736D01*
X137475070Y-118302736D01*
X134462698Y-118302736D01*
X134462940Y-109302736D01*
X137475070Y-109302736D01*
X137476380Y-109330000D01*
X137486768Y-109546276D01*
X137487909Y-109570041D01*
X137540118Y-109832512D01*
X137541390Y-109836054D01*
X137629276Y-110080839D01*
X137629279Y-110080846D01*
X137630549Y-110084383D01*
X137757215Y-110320121D01*
X137917335Y-110534547D01*
X138107390Y-110722950D01*
X138110434Y-110725182D01*
X138298318Y-110862944D01*
X138323205Y-110881192D01*
X138560039Y-111005797D01*
X138563591Y-111007037D01*
X138563597Y-111007040D01*
X138809130Y-111092783D01*
X138809132Y-111092784D01*
X138812690Y-111094026D01*
X138816390Y-111094729D01*
X138816392Y-111094729D01*
X138874309Y-111105725D01*
X139075606Y-111143943D01*
X139079371Y-111144091D01*
X139079372Y-111144091D01*
X139103244Y-111145029D01*
X139343013Y-111154449D01*
X139346746Y-111154040D01*
X139346751Y-111154040D01*
X139605291Y-111125725D01*
X139609035Y-111125315D01*
X139867829Y-111057180D01*
X139871297Y-111055690D01*
X139871300Y-111055689D01*
X140110251Y-110953028D01*
X140113710Y-110951542D01*
X140341275Y-110810720D01*
X140442317Y-110725182D01*
X140542656Y-110640239D01*
X140542659Y-110640236D01*
X140545526Y-110637809D01*
X140721976Y-110436607D01*
X140866747Y-110211534D01*
X140874334Y-110194693D01*
X140975114Y-109970968D01*
X140976661Y-109967534D01*
X141049302Y-109709969D01*
X141051385Y-109693601D01*
X141082753Y-109447029D01*
X141082754Y-109447022D01*
X141083075Y-109444495D01*
X141083666Y-109421944D01*
X141085482Y-109352552D01*
X141085549Y-109350000D01*
X141080551Y-109282736D01*
X224215070Y-109282736D01*
X224227909Y-109550041D01*
X224280118Y-109812512D01*
X224310995Y-109898512D01*
X224369276Y-110060839D01*
X224369279Y-110060846D01*
X224370549Y-110064383D01*
X224497215Y-110300121D01*
X224657335Y-110514547D01*
X224847390Y-110702950D01*
X224850434Y-110705182D01*
X224997065Y-110812696D01*
X225063205Y-110861192D01*
X225300039Y-110985797D01*
X225303591Y-110987037D01*
X225303597Y-110987040D01*
X225549130Y-111072783D01*
X225549132Y-111072784D01*
X225552690Y-111074026D01*
X225556390Y-111074729D01*
X225556392Y-111074729D01*
X225651484Y-111092783D01*
X225815606Y-111123943D01*
X225819371Y-111124091D01*
X225819372Y-111124091D01*
X225843244Y-111125029D01*
X226083013Y-111134449D01*
X226086746Y-111134040D01*
X226086751Y-111134040D01*
X226345291Y-111105725D01*
X226349035Y-111105315D01*
X226607829Y-111037180D01*
X226611297Y-111035690D01*
X226611300Y-111035689D01*
X226850251Y-110933028D01*
X226853710Y-110931542D01*
X227045762Y-110812696D01*
X227078082Y-110792696D01*
X227078083Y-110792695D01*
X227081275Y-110790720D01*
X227158692Y-110725182D01*
X227282656Y-110620239D01*
X227282659Y-110620236D01*
X227285526Y-110617809D01*
X227461976Y-110416607D01*
X227606747Y-110191534D01*
X227656612Y-110080839D01*
X227715114Y-109950968D01*
X227716661Y-109947534D01*
X227749101Y-109832512D01*
X227788278Y-109693601D01*
X227788279Y-109693597D01*
X227789302Y-109689969D01*
X227806634Y-109553735D01*
X227822753Y-109427029D01*
X227822754Y-109427022D01*
X227823075Y-109424495D01*
X227825549Y-109330000D01*
X227805717Y-109063123D01*
X227795161Y-109016470D01*
X227752011Y-108825778D01*
X227746655Y-108802109D01*
X227735572Y-108773610D01*
X227651028Y-108556203D01*
X227651027Y-108556200D01*
X227649662Y-108552691D01*
X227647795Y-108549425D01*
X227647792Y-108549418D01*
X227518739Y-108323623D01*
X227518737Y-108323620D01*
X227516868Y-108320350D01*
X227351190Y-108110189D01*
X227156269Y-107926825D01*
X226936385Y-107774286D01*
X226933015Y-107772624D01*
X226933008Y-107772620D01*
X226699744Y-107657587D01*
X226699740Y-107657585D01*
X226696371Y-107655924D01*
X226441497Y-107574338D01*
X226281781Y-107548327D01*
X226181087Y-107531928D01*
X226181083Y-107531928D01*
X226177364Y-107531322D01*
X226041283Y-107529541D01*
X225913545Y-107527868D01*
X225913540Y-107527868D01*
X225909774Y-107527819D01*
X225906042Y-107528327D01*
X225906040Y-107528327D01*
X225648343Y-107563398D01*
X225648339Y-107563399D01*
X225644605Y-107563907D01*
X225640982Y-107564963D01*
X225391298Y-107637738D01*
X225391294Y-107637740D01*
X225387683Y-107638792D01*
X225144652Y-107750831D01*
X225141509Y-107752892D01*
X225141503Y-107752895D01*
X224924003Y-107895495D01*
X224923999Y-107895498D01*
X224920851Y-107897562D01*
X224721197Y-108075760D01*
X224550075Y-108281512D01*
X224548124Y-108284728D01*
X224548122Y-108284730D01*
X224535986Y-108304730D01*
X224411244Y-108510298D01*
X224307755Y-108757091D01*
X224306827Y-108760745D01*
X224242809Y-109012814D01*
X224242808Y-109012821D01*
X224241881Y-109016470D01*
X224215070Y-109282736D01*
X141080551Y-109282736D01*
X141065717Y-109083123D01*
X141061192Y-109063123D01*
X141007485Y-108825778D01*
X141006655Y-108822109D01*
X140997514Y-108798604D01*
X140911028Y-108576203D01*
X140911027Y-108576200D01*
X140909662Y-108572691D01*
X140907795Y-108569425D01*
X140907792Y-108569418D01*
X140778739Y-108343623D01*
X140778737Y-108343620D01*
X140776868Y-108340350D01*
X140611190Y-108130189D01*
X140416269Y-107946825D01*
X140196385Y-107794286D01*
X140193015Y-107792624D01*
X140193008Y-107792620D01*
X139959744Y-107677587D01*
X139959740Y-107677585D01*
X139956371Y-107675924D01*
X139701497Y-107594338D01*
X139569431Y-107572830D01*
X139441087Y-107551928D01*
X139441083Y-107551928D01*
X139437364Y-107551322D01*
X139301283Y-107549541D01*
X139173545Y-107547868D01*
X139173540Y-107547868D01*
X139169774Y-107547819D01*
X139166042Y-107548327D01*
X139166040Y-107548327D01*
X138908343Y-107583398D01*
X138908339Y-107583399D01*
X138904605Y-107583907D01*
X138900982Y-107584963D01*
X138651298Y-107657738D01*
X138651294Y-107657740D01*
X138647683Y-107658792D01*
X138404652Y-107770831D01*
X138401509Y-107772892D01*
X138401503Y-107772895D01*
X138184003Y-107915495D01*
X138183999Y-107915498D01*
X138180851Y-107917562D01*
X137981197Y-108095760D01*
X137810075Y-108301512D01*
X137808124Y-108304728D01*
X137808122Y-108304730D01*
X137788302Y-108337392D01*
X137671244Y-108530298D01*
X137567755Y-108777091D01*
X137566827Y-108780745D01*
X137502809Y-109032814D01*
X137502808Y-109032821D01*
X137501881Y-109036470D01*
X137501503Y-109040226D01*
X137477084Y-109282736D01*
X137475070Y-109302736D01*
X134462940Y-109302736D01*
X134463250Y-97782736D01*
X139237070Y-97782736D01*
X139239436Y-97831999D01*
X139249563Y-98042828D01*
X139249909Y-98050041D01*
X139302118Y-98312512D01*
X139303390Y-98316054D01*
X139391276Y-98560839D01*
X139391279Y-98560846D01*
X139392549Y-98564383D01*
X139519215Y-98800121D01*
X139679335Y-99014547D01*
X139869390Y-99202950D01*
X139872434Y-99205182D01*
X140080837Y-99357989D01*
X140085205Y-99361192D01*
X140322039Y-99485797D01*
X140325591Y-99487037D01*
X140325597Y-99487040D01*
X140571130Y-99572783D01*
X140571132Y-99572784D01*
X140574690Y-99574026D01*
X140578390Y-99574729D01*
X140578392Y-99574729D01*
X140706148Y-99598985D01*
X140837606Y-99623943D01*
X140841371Y-99624091D01*
X140841372Y-99624091D01*
X140865244Y-99625029D01*
X141105013Y-99634449D01*
X141108746Y-99634040D01*
X141108751Y-99634040D01*
X141367291Y-99605725D01*
X141371035Y-99605315D01*
X141629829Y-99537180D01*
X141633297Y-99535690D01*
X141633300Y-99535689D01*
X141872251Y-99433028D01*
X141875710Y-99431542D01*
X142054345Y-99320999D01*
X142100082Y-99292696D01*
X142100083Y-99292695D01*
X142103275Y-99290720D01*
X142140940Y-99258834D01*
X142304656Y-99120239D01*
X142304659Y-99120236D01*
X142307526Y-99117809D01*
X142483976Y-98916607D01*
X142628747Y-98691534D01*
X142640876Y-98664610D01*
X142737114Y-98450968D01*
X142738661Y-98447534D01*
X142802813Y-98220070D01*
X142810278Y-98193601D01*
X142810279Y-98193597D01*
X142811302Y-98189969D01*
X142817480Y-98141413D01*
X142844753Y-97927029D01*
X142844754Y-97927022D01*
X142845075Y-97924495D01*
X142847549Y-97830000D01*
X142844037Y-97782736D01*
X148237070Y-97782736D01*
X148239436Y-97831999D01*
X148249563Y-98042828D01*
X148249909Y-98050041D01*
X148302118Y-98312512D01*
X148303390Y-98316054D01*
X148391276Y-98560839D01*
X148391279Y-98560846D01*
X148392549Y-98564383D01*
X148519215Y-98800121D01*
X148679335Y-99014547D01*
X148869390Y-99202950D01*
X148872434Y-99205182D01*
X149080837Y-99357989D01*
X149085205Y-99361192D01*
X149322039Y-99485797D01*
X149325591Y-99487037D01*
X149325597Y-99487040D01*
X149571130Y-99572783D01*
X149571132Y-99572784D01*
X149574690Y-99574026D01*
X149578390Y-99574729D01*
X149578392Y-99574729D01*
X149706148Y-99598985D01*
X149837606Y-99623943D01*
X149841371Y-99624091D01*
X149841372Y-99624091D01*
X149865244Y-99625029D01*
X150105013Y-99634449D01*
X150108746Y-99634040D01*
X150108751Y-99634040D01*
X150367291Y-99605725D01*
X150371035Y-99605315D01*
X150629829Y-99537180D01*
X150633297Y-99535690D01*
X150633300Y-99535689D01*
X150872251Y-99433028D01*
X150875710Y-99431542D01*
X151054345Y-99320999D01*
X151100082Y-99292696D01*
X151100083Y-99292695D01*
X151103275Y-99290720D01*
X151140940Y-99258834D01*
X151304656Y-99120239D01*
X151304659Y-99120236D01*
X151307526Y-99117809D01*
X151483976Y-98916607D01*
X151628747Y-98691534D01*
X151640876Y-98664610D01*
X151737114Y-98450968D01*
X151738661Y-98447534D01*
X151802813Y-98220070D01*
X151810278Y-98193601D01*
X151810279Y-98193597D01*
X151811302Y-98189969D01*
X151817480Y-98141413D01*
X151844753Y-97927029D01*
X151844754Y-97927022D01*
X151845075Y-97924495D01*
X151847549Y-97830000D01*
X151827717Y-97563123D01*
X151817161Y-97516470D01*
X151769485Y-97305778D01*
X151768655Y-97302109D01*
X151754316Y-97265235D01*
X151673028Y-97056203D01*
X151673027Y-97056200D01*
X151671662Y-97052691D01*
X151669795Y-97049425D01*
X151669792Y-97049418D01*
X151540739Y-96823623D01*
X151540737Y-96823620D01*
X151538868Y-96820350D01*
X151373190Y-96610189D01*
X151178269Y-96426825D01*
X150958385Y-96274286D01*
X150955015Y-96272624D01*
X150955008Y-96272620D01*
X150721744Y-96157587D01*
X150721740Y-96157585D01*
X150718371Y-96155924D01*
X150463497Y-96074338D01*
X150283088Y-96044957D01*
X150203087Y-96031928D01*
X150203083Y-96031928D01*
X150199364Y-96031322D01*
X150063283Y-96029541D01*
X149935545Y-96027868D01*
X149935540Y-96027868D01*
X149931774Y-96027819D01*
X149928042Y-96028327D01*
X149928040Y-96028327D01*
X149670343Y-96063398D01*
X149670339Y-96063399D01*
X149666605Y-96063907D01*
X149662982Y-96064963D01*
X149413298Y-96137738D01*
X149413294Y-96137740D01*
X149409683Y-96138792D01*
X149166652Y-96250831D01*
X149163509Y-96252892D01*
X149163503Y-96252895D01*
X148946003Y-96395495D01*
X148945999Y-96395498D01*
X148942851Y-96397562D01*
X148743197Y-96575760D01*
X148572075Y-96781512D01*
X148570124Y-96784728D01*
X148570122Y-96784730D01*
X148548507Y-96820350D01*
X148433244Y-97010298D01*
X148329755Y-97257091D01*
X148328827Y-97260745D01*
X148264809Y-97512814D01*
X148264808Y-97512821D01*
X148263881Y-97516470D01*
X148261570Y-97539425D01*
X148244495Y-97709000D01*
X148237070Y-97782736D01*
X142844037Y-97782736D01*
X142827717Y-97563123D01*
X142817161Y-97516470D01*
X142769485Y-97305778D01*
X142768655Y-97302109D01*
X142754316Y-97265235D01*
X142673028Y-97056203D01*
X142673027Y-97056200D01*
X142671662Y-97052691D01*
X142669795Y-97049425D01*
X142669792Y-97049418D01*
X142540739Y-96823623D01*
X142540737Y-96823620D01*
X142538868Y-96820350D01*
X142373190Y-96610189D01*
X142178269Y-96426825D01*
X141958385Y-96274286D01*
X141955015Y-96272624D01*
X141955008Y-96272620D01*
X141721744Y-96157587D01*
X141721740Y-96157585D01*
X141718371Y-96155924D01*
X141463497Y-96074338D01*
X141283088Y-96044957D01*
X141203087Y-96031928D01*
X141203083Y-96031928D01*
X141199364Y-96031322D01*
X141063283Y-96029541D01*
X140935545Y-96027868D01*
X140935540Y-96027868D01*
X140931774Y-96027819D01*
X140928042Y-96028327D01*
X140928040Y-96028327D01*
X140670343Y-96063398D01*
X140670339Y-96063399D01*
X140666605Y-96063907D01*
X140662982Y-96064963D01*
X140413298Y-96137738D01*
X140413294Y-96137740D01*
X140409683Y-96138792D01*
X140166652Y-96250831D01*
X140163509Y-96252892D01*
X140163503Y-96252895D01*
X139946003Y-96395495D01*
X139945999Y-96395498D01*
X139942851Y-96397562D01*
X139743197Y-96575760D01*
X139572075Y-96781512D01*
X139570124Y-96784728D01*
X139570122Y-96784730D01*
X139548507Y-96820350D01*
X139433244Y-97010298D01*
X139329755Y-97257091D01*
X139328827Y-97260745D01*
X139264809Y-97512814D01*
X139264808Y-97512821D01*
X139263881Y-97516470D01*
X139261570Y-97539425D01*
X139244495Y-97709000D01*
X139237070Y-97782736D01*
X134463250Y-97782736D01*
X134464053Y-67921083D01*
X134464066Y-67452611D01*
X151664394Y-67452611D01*
X151682999Y-67621135D01*
X151741266Y-67780356D01*
X151835830Y-67921083D01*
X151961233Y-68035191D01*
X151966606Y-68038108D01*
X151966607Y-68038109D01*
X152104855Y-68113171D01*
X152110235Y-68116092D01*
X152274233Y-68159116D01*
X152344476Y-68160219D01*
X152437639Y-68161683D01*
X152437640Y-68161683D01*
X152443760Y-68161779D01*
X152535425Y-68140785D01*
X152603066Y-68125294D01*
X152603068Y-68125293D01*
X152609029Y-68123928D01*
X152684238Y-68086102D01*
X152755035Y-68050495D01*
X152755037Y-68050493D01*
X152760498Y-68047747D01*
X152889423Y-67937634D01*
X152988361Y-67799947D01*
X153051601Y-67642634D01*
X153072016Y-67499192D01*
X153075020Y-67478081D01*
X153075020Y-67478080D01*
X153075490Y-67474778D01*
X153075645Y-67460000D01*
X153074018Y-67446550D01*
X153061238Y-67340950D01*
X153055276Y-67291680D01*
X152995345Y-67133077D01*
X152990857Y-67126547D01*
X152902777Y-66998390D01*
X152902775Y-66998388D01*
X152899312Y-66993349D01*
X152894749Y-66989284D01*
X152894746Y-66989280D01*
X152827049Y-66928965D01*
X152772721Y-66880560D01*
X152682261Y-66832664D01*
X152628289Y-66804087D01*
X152628286Y-66804086D01*
X152622881Y-66801224D01*
X152616950Y-66799734D01*
X152616947Y-66799733D01*
X152541048Y-66780669D01*
X152458441Y-66759919D01*
X152411522Y-66759673D01*
X152295014Y-66759063D01*
X152288895Y-66759031D01*
X152282944Y-66760460D01*
X152282942Y-66760460D01*
X152129982Y-66797183D01*
X152129978Y-66797184D01*
X152124032Y-66798612D01*
X152118598Y-66801416D01*
X152118597Y-66801417D01*
X152040727Y-66841609D01*
X151973369Y-66876375D01*
X151968757Y-66880398D01*
X151968756Y-66880399D01*
X151850216Y-66983807D01*
X151850213Y-66983810D01*
X151845604Y-66987831D01*
X151748113Y-67126547D01*
X151745891Y-67132246D01*
X151736942Y-67155200D01*
X151686524Y-67284513D01*
X151664394Y-67452611D01*
X134464066Y-67452611D01*
X134464095Y-66352611D01*
X142434394Y-66352611D01*
X142452999Y-66521135D01*
X142511266Y-66680356D01*
X142514679Y-66685435D01*
X142564155Y-66759063D01*
X142605830Y-66821083D01*
X142731233Y-66935191D01*
X142736606Y-66938108D01*
X142736607Y-66938109D01*
X142820773Y-66983807D01*
X142880235Y-67016092D01*
X143044233Y-67059116D01*
X143114476Y-67060219D01*
X143207639Y-67061683D01*
X143207640Y-67061683D01*
X143213760Y-67061779D01*
X143305425Y-67040785D01*
X143373066Y-67025294D01*
X143373068Y-67025293D01*
X143379029Y-67023928D01*
X143458801Y-66983807D01*
X143525035Y-66950495D01*
X143525037Y-66950493D01*
X143530498Y-66947747D01*
X143659423Y-66837634D01*
X143758361Y-66699947D01*
X143821601Y-66542634D01*
X143845490Y-66374778D01*
X143845645Y-66360000D01*
X143844018Y-66346550D01*
X143837853Y-66295613D01*
X143825276Y-66191680D01*
X143765345Y-66033077D01*
X143760857Y-66026547D01*
X143672777Y-65898390D01*
X143672775Y-65898388D01*
X143669312Y-65893349D01*
X143664749Y-65889284D01*
X143664746Y-65889280D01*
X143597049Y-65828965D01*
X143542721Y-65780560D01*
X143399790Y-65704882D01*
X143398289Y-65704087D01*
X143398286Y-65704086D01*
X143392881Y-65701224D01*
X143386950Y-65699734D01*
X143386947Y-65699733D01*
X143311048Y-65680669D01*
X143228441Y-65659919D01*
X143181522Y-65659673D01*
X143065014Y-65659063D01*
X143058895Y-65659031D01*
X143052944Y-65660460D01*
X143052942Y-65660460D01*
X142899982Y-65697183D01*
X142899978Y-65697184D01*
X142894032Y-65698612D01*
X142743369Y-65776375D01*
X142738757Y-65780398D01*
X142738756Y-65780399D01*
X142620216Y-65883807D01*
X142620213Y-65883810D01*
X142615604Y-65887831D01*
X142518113Y-66026547D01*
X142456524Y-66184513D01*
X142434394Y-66352611D01*
X134464095Y-66352611D01*
X134464150Y-64305111D01*
X152651894Y-64305111D01*
X152670499Y-64473635D01*
X152728766Y-64632856D01*
X152732179Y-64637935D01*
X152808252Y-64751144D01*
X152823330Y-64773583D01*
X152948733Y-64887691D01*
X152954106Y-64890608D01*
X152954107Y-64890609D01*
X153091471Y-64965191D01*
X153097735Y-64968592D01*
X153261733Y-65011616D01*
X153331976Y-65012719D01*
X153425139Y-65014183D01*
X153425140Y-65014183D01*
X153431260Y-65014279D01*
X153522925Y-64993285D01*
X153590566Y-64977794D01*
X153590568Y-64977793D01*
X153596529Y-64976428D01*
X153715460Y-64916612D01*
X153742535Y-64902995D01*
X153742537Y-64902993D01*
X153747998Y-64900247D01*
X153876923Y-64790134D01*
X153975861Y-64652447D01*
X154039101Y-64495134D01*
X154062990Y-64327278D01*
X154063145Y-64312500D01*
X154061518Y-64299050D01*
X154052889Y-64227750D01*
X154042776Y-64144180D01*
X153982845Y-63985577D01*
X153978357Y-63979047D01*
X153890277Y-63850890D01*
X153890275Y-63850888D01*
X153886812Y-63845849D01*
X153882249Y-63841784D01*
X153882246Y-63841780D01*
X153814549Y-63781465D01*
X153760221Y-63733060D01*
X153679977Y-63690573D01*
X153615789Y-63656587D01*
X153615786Y-63656586D01*
X153610381Y-63653724D01*
X153604450Y-63652234D01*
X153604447Y-63652233D01*
X153528548Y-63633169D01*
X153445941Y-63612419D01*
X153399022Y-63612173D01*
X153282514Y-63611563D01*
X153276395Y-63611531D01*
X153270444Y-63612960D01*
X153270442Y-63612960D01*
X153117482Y-63649683D01*
X153117478Y-63649684D01*
X153111532Y-63651112D01*
X153106098Y-63653916D01*
X153106097Y-63653917D01*
X152981883Y-63718029D01*
X152960869Y-63728875D01*
X152956257Y-63732898D01*
X152956256Y-63732899D01*
X152837716Y-63836307D01*
X152837713Y-63836310D01*
X152833104Y-63840331D01*
X152735613Y-63979047D01*
X152733391Y-63984746D01*
X152704817Y-64058035D01*
X152674024Y-64137013D01*
X152651894Y-64305111D01*
X134464150Y-64305111D01*
X134464217Y-61802454D01*
X154814599Y-61802454D01*
X154815753Y-61809275D01*
X154818079Y-61823029D01*
X154819500Y-61839956D01*
X154819500Y-95475508D01*
X154819411Y-95479758D01*
X154816790Y-95542294D01*
X154818370Y-95549030D01*
X154826989Y-95585779D01*
X154828732Y-95595180D01*
X154834794Y-95639432D01*
X154837542Y-95645781D01*
X154841635Y-95655241D01*
X154847300Y-95672370D01*
X154851232Y-95689136D01*
X154854567Y-95695202D01*
X154872752Y-95728281D01*
X154876958Y-95736867D01*
X154894695Y-95777855D01*
X154899049Y-95783232D01*
X154905532Y-95791238D01*
X154915592Y-95806209D01*
X154923893Y-95821308D01*
X154930897Y-95829422D01*
X154956344Y-95854869D01*
X154963453Y-95862764D01*
X154989614Y-95895070D01*
X154995257Y-95899080D01*
X155006622Y-95907157D01*
X155019596Y-95918121D01*
X156669049Y-97567574D01*
X156697528Y-97623467D01*
X156691052Y-97678187D01*
X156643127Y-97793889D01*
X156642199Y-97797756D01*
X156642198Y-97797758D01*
X156633978Y-97831999D01*
X156584317Y-98038852D01*
X156584004Y-98042827D01*
X156584004Y-98042828D01*
X156572424Y-98189969D01*
X156564551Y-98290000D01*
X156584317Y-98541148D01*
X156585246Y-98545019D01*
X156585247Y-98545023D01*
X156642198Y-98782242D01*
X156643127Y-98786111D01*
X156739534Y-99018859D01*
X156741617Y-99022259D01*
X156741618Y-99022260D01*
X156818715Y-99148070D01*
X156871164Y-99233659D01*
X156873753Y-99236691D01*
X156873755Y-99236693D01*
X156945507Y-99320704D01*
X157034776Y-99425224D01*
X157037805Y-99427811D01*
X157209001Y-99574026D01*
X157226341Y-99588836D01*
X157229739Y-99590918D01*
X157229740Y-99590919D01*
X157282483Y-99623240D01*
X157441141Y-99720466D01*
X157444823Y-99721991D01*
X157477342Y-99735461D01*
X157525043Y-99776201D01*
X157540000Y-99829235D01*
X157540000Y-103316102D01*
X157548487Y-103316128D01*
X165645332Y-103340864D01*
X194953677Y-103430400D01*
X194954730Y-103430410D01*
X195952472Y-103444712D01*
X197595926Y-103468272D01*
X197595927Y-103468272D01*
X197612000Y-103468502D01*
X197612000Y-101398339D01*
X198758001Y-101398339D01*
X198758297Y-101403816D01*
X198764061Y-101456880D01*
X198766983Y-101469169D01*
X198813289Y-101592688D01*
X198820166Y-101605250D01*
X198898762Y-101710121D01*
X198908879Y-101720238D01*
X199013750Y-101798834D01*
X199026312Y-101805711D01*
X199149834Y-101852018D01*
X199162121Y-101854939D01*
X199215182Y-101860704D01*
X199220653Y-101861000D01*
X199845924Y-101861000D01*
X199858930Y-101856774D01*
X199862000Y-101852548D01*
X199862000Y-101844923D01*
X200370000Y-101844923D01*
X200374226Y-101857929D01*
X200378452Y-101860999D01*
X201011339Y-101860999D01*
X201016816Y-101860703D01*
X201069880Y-101854939D01*
X201082169Y-101852017D01*
X201205688Y-101805711D01*
X201218250Y-101798834D01*
X201325128Y-101718734D01*
X201384494Y-101698466D01*
X201446872Y-101718734D01*
X201553750Y-101798834D01*
X201566312Y-101805711D01*
X201689834Y-101852018D01*
X201702121Y-101854939D01*
X201755182Y-101860704D01*
X201760653Y-101861000D01*
X202385924Y-101861000D01*
X202398930Y-101856774D01*
X202402000Y-101852548D01*
X202402000Y-101844923D01*
X202910000Y-101844923D01*
X202914226Y-101857929D01*
X202918452Y-101860999D01*
X203551339Y-101860999D01*
X203556816Y-101860703D01*
X203609880Y-101854939D01*
X203622169Y-101852017D01*
X203745688Y-101805711D01*
X203758250Y-101798834D01*
X203863121Y-101720238D01*
X203873238Y-101710121D01*
X203951834Y-101605250D01*
X203958711Y-101592688D01*
X204005018Y-101469166D01*
X204007939Y-101456879D01*
X204013704Y-101403818D01*
X204014000Y-101398347D01*
X204014000Y-100773076D01*
X204009774Y-100760070D01*
X204005548Y-100757000D01*
X202926076Y-100757000D01*
X202913070Y-100761226D01*
X202910000Y-100765452D01*
X202910000Y-101844923D01*
X202402000Y-101844923D01*
X202402000Y-100773076D01*
X202397774Y-100760070D01*
X202393548Y-100757000D01*
X200386076Y-100757000D01*
X200373070Y-100761226D01*
X200370000Y-100765452D01*
X200370000Y-101844923D01*
X199862000Y-101844923D01*
X199862000Y-100773076D01*
X199857774Y-100760070D01*
X199853548Y-100757000D01*
X198774077Y-100757000D01*
X198761071Y-100761226D01*
X198758001Y-100765452D01*
X198758001Y-101398339D01*
X197612000Y-101398339D01*
X197612000Y-99357989D01*
X197631385Y-99298329D01*
X197682135Y-99261457D01*
X197744865Y-99261457D01*
X197749440Y-99263433D01*
X197749538Y-99263172D01*
X197879834Y-99312018D01*
X197892121Y-99314939D01*
X197945182Y-99320704D01*
X197950653Y-99321000D01*
X198701447Y-99320999D01*
X198761107Y-99340384D01*
X198797979Y-99391134D01*
X198796488Y-99458129D01*
X198766981Y-99536837D01*
X198764061Y-99549121D01*
X198758296Y-99602182D01*
X198758000Y-99607653D01*
X198758000Y-100232924D01*
X198762226Y-100245930D01*
X198766452Y-100249000D01*
X202385924Y-100249000D01*
X202398930Y-100244774D01*
X202402000Y-100240548D01*
X202402000Y-99161076D01*
X202397774Y-99148070D01*
X202393548Y-99145000D01*
X201760661Y-99145001D01*
X201755184Y-99145297D01*
X201702120Y-99151061D01*
X201689831Y-99153983D01*
X201566312Y-99200289D01*
X201553750Y-99207166D01*
X201446872Y-99287266D01*
X201387506Y-99307534D01*
X201325128Y-99287266D01*
X201218250Y-99207166D01*
X201205688Y-99200289D01*
X201082166Y-99153982D01*
X201069879Y-99151061D01*
X201016818Y-99145296D01*
X201011347Y-99145000D01*
X200260553Y-99145001D01*
X200200893Y-99125616D01*
X200164021Y-99074866D01*
X200165512Y-99007871D01*
X200195019Y-98929163D01*
X200197939Y-98916879D01*
X200203704Y-98863818D01*
X200204000Y-98858347D01*
X200204000Y-98858339D01*
X202858001Y-98858339D01*
X202858297Y-98863816D01*
X202864061Y-98916880D01*
X202866983Y-98929169D01*
X202915828Y-99059462D01*
X202914144Y-99060093D01*
X202924111Y-99112808D01*
X202911219Y-99145291D01*
X202910000Y-99152987D01*
X202910000Y-100232924D01*
X202914226Y-100245930D01*
X202918452Y-100249000D01*
X203997923Y-100249000D01*
X204010929Y-100244774D01*
X204013999Y-100240548D01*
X204013999Y-99607661D01*
X204013703Y-99602184D01*
X204007939Y-99549120D01*
X204005017Y-99536831D01*
X203961192Y-99419930D01*
X213985257Y-99419930D01*
X213985723Y-99422873D01*
X213987973Y-99425697D01*
X214024317Y-99456085D01*
X214029894Y-99460137D01*
X214255972Y-99601955D01*
X214262054Y-99605216D01*
X214505284Y-99715039D01*
X214511742Y-99717440D01*
X214767626Y-99793237D01*
X214774367Y-99794744D01*
X215038166Y-99835110D01*
X215045040Y-99835687D01*
X215311878Y-99839880D01*
X215318765Y-99839519D01*
X215583707Y-99807458D01*
X215590484Y-99806165D01*
X215848625Y-99738443D01*
X215855162Y-99736243D01*
X216101729Y-99634111D01*
X216107887Y-99631055D01*
X216338325Y-99496397D01*
X216344016Y-99492529D01*
X216426261Y-99428042D01*
X216433888Y-99416691D01*
X216433810Y-99414566D01*
X216431083Y-99410293D01*
X215221368Y-98200578D01*
X215209182Y-98194369D01*
X215204024Y-98195186D01*
X213991466Y-99407744D01*
X213985257Y-99419930D01*
X203961192Y-99419930D01*
X203956172Y-99406538D01*
X203957856Y-99405907D01*
X203947889Y-99353192D01*
X203960781Y-99320709D01*
X203962000Y-99313013D01*
X203962000Y-99304924D01*
X204470000Y-99304924D01*
X204474226Y-99317930D01*
X204478452Y-99321000D01*
X205111339Y-99320999D01*
X205116816Y-99320703D01*
X205169880Y-99314939D01*
X205182169Y-99312017D01*
X205305688Y-99265711D01*
X205318250Y-99258834D01*
X205423121Y-99180238D01*
X205433238Y-99170121D01*
X205511834Y-99065250D01*
X205518711Y-99052688D01*
X205565018Y-98929166D01*
X205567939Y-98916879D01*
X205573704Y-98863818D01*
X205574000Y-98858347D01*
X205574000Y-98233076D01*
X205569774Y-98220070D01*
X205565548Y-98217000D01*
X204486076Y-98217000D01*
X204473070Y-98221226D01*
X204470000Y-98225452D01*
X204470000Y-99304924D01*
X203962000Y-99304924D01*
X203962000Y-98233076D01*
X203957774Y-98220070D01*
X203953548Y-98217000D01*
X202874077Y-98217000D01*
X202861071Y-98221226D01*
X202858001Y-98225452D01*
X202858001Y-98858339D01*
X200204000Y-98858339D01*
X200204000Y-98233076D01*
X200199774Y-98220070D01*
X200195548Y-98217000D01*
X198693500Y-98217000D01*
X198633840Y-98197615D01*
X198596968Y-98146865D01*
X198592000Y-98115500D01*
X198592000Y-97812365D01*
X213197616Y-97812365D01*
X213212980Y-98078812D01*
X213213844Y-98085647D01*
X213265224Y-98347531D01*
X213267008Y-98354191D01*
X213353452Y-98606676D01*
X213356129Y-98613043D01*
X213476036Y-98851453D01*
X213479550Y-98857395D01*
X213610503Y-99047931D01*
X213621354Y-99056257D01*
X213621759Y-99056268D01*
X213628581Y-99052209D01*
X214839422Y-97841368D01*
X214844797Y-97830818D01*
X215574369Y-97830818D01*
X215575186Y-97835976D01*
X216787174Y-99047964D01*
X216799360Y-99054173D01*
X216800611Y-99053975D01*
X216805576Y-99049757D01*
X216907329Y-98911235D01*
X216911018Y-98905423D01*
X217038361Y-98670886D01*
X217041234Y-98664610D01*
X217135571Y-98414956D01*
X217137559Y-98408368D01*
X217197141Y-98148222D01*
X217198219Y-98141413D01*
X217222072Y-97874151D01*
X217222272Y-97870139D01*
X217222671Y-97831999D01*
X217222556Y-97828012D01*
X217219469Y-97782736D01*
X222405070Y-97782736D01*
X222407436Y-97831999D01*
X222417563Y-98042828D01*
X222417909Y-98050041D01*
X222470118Y-98312512D01*
X222471390Y-98316054D01*
X222559276Y-98560839D01*
X222559279Y-98560846D01*
X222560549Y-98564383D01*
X222687215Y-98800121D01*
X222847335Y-99014547D01*
X223037390Y-99202950D01*
X223040434Y-99205182D01*
X223248837Y-99357989D01*
X223253205Y-99361192D01*
X223490039Y-99485797D01*
X223493591Y-99487037D01*
X223493597Y-99487040D01*
X223739130Y-99572783D01*
X223739132Y-99572784D01*
X223742690Y-99574026D01*
X223746390Y-99574729D01*
X223746392Y-99574729D01*
X223874148Y-99598985D01*
X224005606Y-99623943D01*
X224009371Y-99624091D01*
X224009372Y-99624091D01*
X224033244Y-99625029D01*
X224273013Y-99634449D01*
X224276746Y-99634040D01*
X224276751Y-99634040D01*
X224535291Y-99605725D01*
X224539035Y-99605315D01*
X224797829Y-99537180D01*
X224801297Y-99535690D01*
X224801300Y-99535689D01*
X225040251Y-99433028D01*
X225043710Y-99431542D01*
X225222345Y-99320999D01*
X225268082Y-99292696D01*
X225268083Y-99292695D01*
X225271275Y-99290720D01*
X225308940Y-99258834D01*
X225472656Y-99120239D01*
X225472659Y-99120236D01*
X225475526Y-99117809D01*
X225651976Y-98916607D01*
X225796747Y-98691534D01*
X225808876Y-98664610D01*
X225905114Y-98450968D01*
X225906661Y-98447534D01*
X225970813Y-98220070D01*
X225978278Y-98193601D01*
X225978279Y-98193597D01*
X225979302Y-98189969D01*
X225985480Y-98141413D01*
X226012753Y-97927029D01*
X226012754Y-97927022D01*
X226013075Y-97924495D01*
X226015549Y-97830000D01*
X225995717Y-97563123D01*
X225985161Y-97516470D01*
X225937485Y-97305778D01*
X225936655Y-97302109D01*
X225922316Y-97265235D01*
X225841028Y-97056203D01*
X225841027Y-97056200D01*
X225839662Y-97052691D01*
X225837795Y-97049425D01*
X225837792Y-97049418D01*
X225708739Y-96823623D01*
X225708737Y-96823620D01*
X225706868Y-96820350D01*
X225541190Y-96610189D01*
X225346269Y-96426825D01*
X225126385Y-96274286D01*
X225123015Y-96272624D01*
X225123008Y-96272620D01*
X224889744Y-96157587D01*
X224889740Y-96157585D01*
X224886371Y-96155924D01*
X224631497Y-96074338D01*
X224451088Y-96044957D01*
X224371087Y-96031928D01*
X224371083Y-96031928D01*
X224367364Y-96031322D01*
X224231283Y-96029541D01*
X224103545Y-96027868D01*
X224103540Y-96027868D01*
X224099774Y-96027819D01*
X224096042Y-96028327D01*
X224096040Y-96028327D01*
X223838343Y-96063398D01*
X223838339Y-96063399D01*
X223834605Y-96063907D01*
X223830982Y-96064963D01*
X223581298Y-96137738D01*
X223581294Y-96137740D01*
X223577683Y-96138792D01*
X223334652Y-96250831D01*
X223331509Y-96252892D01*
X223331503Y-96252895D01*
X223114003Y-96395495D01*
X223113999Y-96395498D01*
X223110851Y-96397562D01*
X222911197Y-96575760D01*
X222740075Y-96781512D01*
X222738124Y-96784728D01*
X222738122Y-96784730D01*
X222716507Y-96820350D01*
X222601244Y-97010298D01*
X222497755Y-97257091D01*
X222496827Y-97260745D01*
X222432809Y-97512814D01*
X222432808Y-97512821D01*
X222431881Y-97516470D01*
X222429570Y-97539425D01*
X222412495Y-97709000D01*
X222405070Y-97782736D01*
X217219469Y-97782736D01*
X217204305Y-97560298D01*
X217203368Y-97553456D01*
X217149250Y-97292126D01*
X217147398Y-97285495D01*
X217058311Y-97033922D01*
X217055572Y-97027594D01*
X216933166Y-96790433D01*
X216929601Y-96784548D01*
X216808859Y-96612750D01*
X216797921Y-96604537D01*
X216797229Y-96604526D01*
X216790833Y-96608377D01*
X215580578Y-97818632D01*
X215574369Y-97830818D01*
X214844797Y-97830818D01*
X214845631Y-97829182D01*
X214844814Y-97824024D01*
X213632370Y-96611580D01*
X213620184Y-96605371D01*
X213619217Y-96605524D01*
X213613911Y-96610081D01*
X213501447Y-96766590D01*
X213497811Y-96772455D01*
X213372931Y-97008310D01*
X213370126Y-97014610D01*
X213278411Y-97265235D01*
X213276490Y-97271849D01*
X213219635Y-97532604D01*
X213218628Y-97539425D01*
X213197689Y-97805485D01*
X213197616Y-97812365D01*
X198592000Y-97812365D01*
X198592000Y-97692924D01*
X199100000Y-97692924D01*
X199104226Y-97705930D01*
X199108452Y-97709000D01*
X200187923Y-97709000D01*
X200200929Y-97704774D01*
X200203999Y-97700548D01*
X200203999Y-97692924D01*
X202858000Y-97692924D01*
X202862226Y-97705930D01*
X202866452Y-97709000D01*
X203945924Y-97709000D01*
X203958930Y-97704774D01*
X203962000Y-97700548D01*
X203962000Y-97692924D01*
X204470000Y-97692924D01*
X204474226Y-97705930D01*
X204478452Y-97709000D01*
X205557923Y-97709000D01*
X205570929Y-97704774D01*
X205573999Y-97700548D01*
X205573999Y-97067661D01*
X205573703Y-97062184D01*
X205567939Y-97009120D01*
X205565017Y-96996831D01*
X205518711Y-96873312D01*
X205511834Y-96860750D01*
X205433238Y-96755879D01*
X205423121Y-96745762D01*
X205318250Y-96667166D01*
X205305688Y-96660289D01*
X205182166Y-96613982D01*
X205169879Y-96611061D01*
X205116818Y-96605296D01*
X205111347Y-96605000D01*
X204486076Y-96605000D01*
X204473070Y-96609226D01*
X204470000Y-96613452D01*
X204470000Y-97692924D01*
X203962000Y-97692924D01*
X203962000Y-96621077D01*
X203957774Y-96608071D01*
X203953548Y-96605001D01*
X203320661Y-96605001D01*
X203315184Y-96605297D01*
X203262120Y-96611061D01*
X203249831Y-96613983D01*
X203126312Y-96660289D01*
X203113750Y-96667166D01*
X203008879Y-96745762D01*
X202998762Y-96755879D01*
X202920166Y-96860750D01*
X202913289Y-96873312D01*
X202866982Y-96996834D01*
X202864061Y-97009121D01*
X202858296Y-97062182D01*
X202858000Y-97067653D01*
X202858000Y-97692924D01*
X200203999Y-97692924D01*
X200203999Y-97067661D01*
X200203703Y-97062184D01*
X200197939Y-97009120D01*
X200195017Y-96996831D01*
X200148711Y-96873312D01*
X200141834Y-96860750D01*
X200063238Y-96755879D01*
X200053121Y-96745762D01*
X199948250Y-96667166D01*
X199935688Y-96660289D01*
X199812166Y-96613982D01*
X199799879Y-96611061D01*
X199746818Y-96605296D01*
X199741347Y-96605000D01*
X199116076Y-96605000D01*
X199103070Y-96609226D01*
X199100000Y-96613452D01*
X199100000Y-97692924D01*
X198592000Y-97692924D01*
X198592000Y-96621077D01*
X198587774Y-96608071D01*
X198583548Y-96605001D01*
X197950661Y-96605001D01*
X197945184Y-96605297D01*
X197892120Y-96611061D01*
X197879831Y-96613983D01*
X197749538Y-96662828D01*
X197748352Y-96659663D01*
X197700618Y-96668690D01*
X197643900Y-96641890D01*
X197613768Y-96586871D01*
X197612000Y-96568011D01*
X197612000Y-96243084D01*
X213985952Y-96243084D01*
X213986065Y-96245490D01*
X213988554Y-96249344D01*
X215198632Y-97459422D01*
X215210818Y-97465631D01*
X215215976Y-97464814D01*
X216428048Y-96252742D01*
X216434257Y-96240556D01*
X216433835Y-96237895D01*
X216431263Y-96234701D01*
X216378590Y-96191588D01*
X216372969Y-96187594D01*
X216145417Y-96048149D01*
X216139311Y-96044957D01*
X215894943Y-95937688D01*
X215888447Y-95935349D01*
X215631781Y-95862235D01*
X215625040Y-95860803D01*
X215360830Y-95823200D01*
X215353953Y-95822695D01*
X215087077Y-95821298D01*
X215080196Y-95821731D01*
X214815602Y-95856565D01*
X214808846Y-95857927D01*
X214551416Y-95928352D01*
X214544922Y-95930613D01*
X214299431Y-96035324D01*
X214293300Y-96038448D01*
X214064289Y-96175508D01*
X214058634Y-96179439D01*
X213993461Y-96231652D01*
X213985952Y-96243084D01*
X197612000Y-96243084D01*
X197612000Y-93417109D01*
X197631385Y-93357449D01*
X197682135Y-93320577D01*
X197744865Y-93320577D01*
X197795615Y-93357449D01*
X197805677Y-93374615D01*
X197845369Y-93460714D01*
X197967405Y-93633391D01*
X198118865Y-93780937D01*
X198294677Y-93898411D01*
X198488953Y-93981878D01*
X198591172Y-94005008D01*
X198690650Y-94027518D01*
X198690654Y-94027519D01*
X198695186Y-94028544D01*
X198699826Y-94028726D01*
X198699831Y-94028727D01*
X198809758Y-94033046D01*
X198906470Y-94036846D01*
X198911069Y-94036179D01*
X198911072Y-94036179D01*
X199111130Y-94007171D01*
X199115730Y-94006504D01*
X199218279Y-93971694D01*
X199311546Y-93940034D01*
X199311549Y-93940033D01*
X199315955Y-93938537D01*
X199500442Y-93835219D01*
X199654656Y-93706962D01*
X199712920Y-93683717D01*
X199719558Y-93683500D01*
X203347576Y-93683500D01*
X203407236Y-93702885D01*
X203418401Y-93712295D01*
X203488865Y-93780937D01*
X203664677Y-93898411D01*
X203858953Y-93981878D01*
X203961172Y-94005008D01*
X204060650Y-94027518D01*
X204060654Y-94027519D01*
X204065186Y-94028544D01*
X204069826Y-94028726D01*
X204069831Y-94028727D01*
X204179758Y-94033046D01*
X204276470Y-94036846D01*
X204281069Y-94036179D01*
X204281072Y-94036179D01*
X204481130Y-94007171D01*
X204485730Y-94006504D01*
X204588279Y-93971694D01*
X204681546Y-93940034D01*
X204681549Y-93940033D01*
X204685955Y-93938537D01*
X204870442Y-93835219D01*
X205024656Y-93706962D01*
X205029441Y-93702982D01*
X205033012Y-93700012D01*
X205168219Y-93537442D01*
X205271537Y-93352955D01*
X205339504Y-93152730D01*
X205369846Y-92943470D01*
X205370279Y-92926937D01*
X205371351Y-92885999D01*
X205371351Y-92885990D01*
X205371429Y-92883000D01*
X205352081Y-92672440D01*
X205294686Y-92468931D01*
X205201165Y-92279290D01*
X205198384Y-92275565D01*
X205198381Y-92275561D01*
X205077437Y-92113597D01*
X205077433Y-92113593D01*
X205074651Y-92109867D01*
X205049102Y-92086250D01*
X205018450Y-92031518D01*
X205016500Y-92011716D01*
X205016500Y-91530921D01*
X205016506Y-91529858D01*
X205017382Y-91446273D01*
X205017382Y-91446269D01*
X205017441Y-91440593D01*
X205016241Y-91435045D01*
X205016241Y-91435040D01*
X205008121Y-91397481D01*
X205006462Y-91387350D01*
X205002178Y-91349164D01*
X205001546Y-91343528D01*
X204999682Y-91338174D01*
X204999680Y-91338167D01*
X204990162Y-91310834D01*
X204986808Y-91298905D01*
X204979490Y-91265058D01*
X204966724Y-91237681D01*
X204960849Y-91225082D01*
X204956985Y-91215566D01*
X204944833Y-91180671D01*
X204942485Y-91173927D01*
X204939477Y-91169113D01*
X204939474Y-91169107D01*
X204924137Y-91144564D01*
X204918227Y-91133680D01*
X204903591Y-91102293D01*
X204876563Y-91067450D01*
X204870688Y-91059028D01*
X204850321Y-91026433D01*
X204850318Y-91026429D01*
X204847316Y-91021625D01*
X204819047Y-90993159D01*
X204818397Y-90992464D01*
X204817901Y-90991824D01*
X204792181Y-90966104D01*
X204747538Y-90921148D01*
X204723178Y-90896617D01*
X204723170Y-90896610D01*
X204720770Y-90894193D01*
X204719767Y-90893556D01*
X204718470Y-90892393D01*
X203836229Y-90010151D01*
X203807750Y-89954258D01*
X203806500Y-89938380D01*
X203806500Y-89448354D01*
X203803382Y-89422154D01*
X203799037Y-89412371D01*
X203761743Y-89328410D01*
X203761742Y-89328408D01*
X203757939Y-89319847D01*
X203751309Y-89313229D01*
X203751308Y-89313227D01*
X203685346Y-89247380D01*
X203685345Y-89247379D01*
X203678713Y-89240759D01*
X203576327Y-89195494D01*
X203560455Y-89193644D01*
X203553573Y-89192841D01*
X203553569Y-89192841D01*
X203550646Y-89192500D01*
X201761354Y-89192500D01*
X201735154Y-89195618D01*
X201728201Y-89198707D01*
X201728199Y-89198707D01*
X201641410Y-89237257D01*
X201641408Y-89237258D01*
X201632847Y-89241061D01*
X201626229Y-89247691D01*
X201626227Y-89247692D01*
X201560380Y-89313654D01*
X201553759Y-89320287D01*
X201549969Y-89328860D01*
X201513049Y-89412371D01*
X201508494Y-89422673D01*
X201505500Y-89448354D01*
X201505200Y-89448319D01*
X201482938Y-89505329D01*
X201430132Y-89539191D01*
X201404427Y-89542500D01*
X201367564Y-89542500D01*
X201307904Y-89523115D01*
X201271032Y-89472365D01*
X201266500Y-89448370D01*
X201266500Y-89448354D01*
X201263382Y-89422154D01*
X201259037Y-89412371D01*
X201221743Y-89328410D01*
X201221742Y-89328408D01*
X201217939Y-89319847D01*
X201211309Y-89313229D01*
X201211308Y-89313227D01*
X201145346Y-89247380D01*
X201145345Y-89247379D01*
X201138713Y-89240759D01*
X201036327Y-89195494D01*
X201020455Y-89193644D01*
X201013573Y-89192841D01*
X201013569Y-89192841D01*
X201010646Y-89192500D01*
X199221354Y-89192500D01*
X199195154Y-89195618D01*
X199188201Y-89198707D01*
X199188199Y-89198707D01*
X199101410Y-89237257D01*
X199101408Y-89237258D01*
X199092847Y-89241061D01*
X199086229Y-89247691D01*
X199086227Y-89247692D01*
X199020380Y-89313654D01*
X199013759Y-89320287D01*
X199009969Y-89328860D01*
X198973049Y-89412371D01*
X198968494Y-89422673D01*
X198967610Y-89430258D01*
X198965842Y-89445424D01*
X198965500Y-89448354D01*
X198965500Y-90319380D01*
X198946115Y-90379040D01*
X198935771Y-90391151D01*
X198286354Y-91040568D01*
X198285600Y-91041315D01*
X198221732Y-91103859D01*
X198218658Y-91108629D01*
X198197841Y-91140931D01*
X198191847Y-91149272D01*
X198176013Y-91169107D01*
X198164336Y-91183734D01*
X198149265Y-91214911D01*
X198143204Y-91225710D01*
X198124446Y-91254817D01*
X198122506Y-91260147D01*
X198122503Y-91260153D01*
X198109360Y-91296261D01*
X198105365Y-91305720D01*
X198086173Y-91345422D01*
X198078381Y-91379170D01*
X198074869Y-91391029D01*
X198063022Y-91423578D01*
X198060323Y-91444939D01*
X198057494Y-91467334D01*
X198055693Y-91477443D01*
X198051698Y-91494750D01*
X198045774Y-91520411D01*
X198045754Y-91526089D01*
X198045754Y-91526090D01*
X198045634Y-91560489D01*
X198045601Y-91561479D01*
X198045500Y-91562283D01*
X198045500Y-91598892D01*
X198045147Y-91700000D01*
X198045407Y-91701161D01*
X198045500Y-91702886D01*
X198045500Y-92008674D01*
X198026115Y-92068334D01*
X198014468Y-92081101D01*
X198014583Y-92081210D01*
X198011373Y-92084593D01*
X198007881Y-92087655D01*
X198005006Y-92091302D01*
X198005004Y-92091304D01*
X197879854Y-92250057D01*
X197876976Y-92253708D01*
X197874810Y-92257825D01*
X197803326Y-92393693D01*
X197758392Y-92437466D01*
X197696311Y-92446467D01*
X197640795Y-92417259D01*
X197613050Y-92360997D01*
X197612000Y-92346433D01*
X197612000Y-88239500D01*
X197631385Y-88179840D01*
X197682135Y-88142968D01*
X197713500Y-88138000D01*
X207425600Y-88138000D01*
X207425600Y-70358000D01*
X157540000Y-70358000D01*
X157540000Y-89016434D01*
X157520615Y-89076094D01*
X157469865Y-89112966D01*
X157407135Y-89112966D01*
X157366729Y-89088205D01*
X157310229Y-89031705D01*
X157281750Y-88975812D01*
X157280500Y-88959934D01*
X157280500Y-65920736D01*
X202203070Y-65920736D01*
X202215909Y-66188041D01*
X202268118Y-66450512D01*
X202269390Y-66454054D01*
X202357276Y-66698839D01*
X202357279Y-66698846D01*
X202358549Y-66702383D01*
X202485215Y-66938121D01*
X202645335Y-67152547D01*
X202835390Y-67340950D01*
X202838434Y-67343182D01*
X203013359Y-67471442D01*
X203051205Y-67499192D01*
X203288039Y-67623797D01*
X203291591Y-67625037D01*
X203291597Y-67625040D01*
X203537130Y-67710783D01*
X203537132Y-67710784D01*
X203540690Y-67712026D01*
X203544390Y-67712729D01*
X203544392Y-67712729D01*
X203672148Y-67736985D01*
X203803606Y-67761943D01*
X203807371Y-67762091D01*
X203807372Y-67762091D01*
X203831244Y-67763029D01*
X204071013Y-67772449D01*
X204074746Y-67772040D01*
X204074751Y-67772040D01*
X204333291Y-67743725D01*
X204337035Y-67743315D01*
X204595829Y-67675180D01*
X204599297Y-67673690D01*
X204599300Y-67673689D01*
X204838251Y-67571028D01*
X204841710Y-67569542D01*
X205069275Y-67428720D01*
X205170317Y-67343182D01*
X205270656Y-67258239D01*
X205270659Y-67258236D01*
X205273526Y-67255809D01*
X205449976Y-67054607D01*
X205594747Y-66829534D01*
X205596700Y-66825200D01*
X205703114Y-66588968D01*
X205704661Y-66585534D01*
X205763169Y-66378081D01*
X205776278Y-66331601D01*
X205776279Y-66331597D01*
X205777302Y-66327969D01*
X205793869Y-66197750D01*
X205810753Y-66065029D01*
X205810754Y-66065022D01*
X205811075Y-66062495D01*
X205811696Y-66038799D01*
X205813482Y-65970552D01*
X205813549Y-65968000D01*
X205793717Y-65701123D01*
X205792826Y-65697183D01*
X205735485Y-65443778D01*
X205734655Y-65440109D01*
X205733292Y-65436604D01*
X205639028Y-65194203D01*
X205639027Y-65194200D01*
X205637662Y-65190691D01*
X205635795Y-65187425D01*
X205635792Y-65187418D01*
X205506739Y-64961623D01*
X205506737Y-64961620D01*
X205504868Y-64958350D01*
X205339190Y-64748189D01*
X205144269Y-64564825D01*
X204924385Y-64412286D01*
X204921015Y-64410624D01*
X204921008Y-64410620D01*
X204687744Y-64295587D01*
X204687740Y-64295585D01*
X204684371Y-64293924D01*
X204429497Y-64212338D01*
X204297430Y-64190830D01*
X204169087Y-64169928D01*
X204169083Y-64169928D01*
X204165364Y-64169322D01*
X204029283Y-64167541D01*
X203901545Y-64165868D01*
X203901540Y-64165868D01*
X203897774Y-64165819D01*
X203894042Y-64166327D01*
X203894040Y-64166327D01*
X203636343Y-64201398D01*
X203636339Y-64201399D01*
X203632605Y-64201907D01*
X203628982Y-64202963D01*
X203379298Y-64275738D01*
X203379294Y-64275740D01*
X203375683Y-64276792D01*
X203132652Y-64388831D01*
X203129509Y-64390892D01*
X203129503Y-64390895D01*
X202912003Y-64533495D01*
X202911999Y-64533498D01*
X202908851Y-64535562D01*
X202709197Y-64713760D01*
X202538075Y-64919512D01*
X202536124Y-64922728D01*
X202536122Y-64922730D01*
X202483127Y-65010064D01*
X202399244Y-65148298D01*
X202295755Y-65395091D01*
X202294827Y-65398745D01*
X202230809Y-65650814D01*
X202230808Y-65650821D01*
X202229881Y-65654470D01*
X202229278Y-65660460D01*
X202205828Y-65893349D01*
X202203070Y-65920736D01*
X157280500Y-65920736D01*
X157280500Y-64382611D01*
X168754394Y-64382611D01*
X168772999Y-64551135D01*
X168831266Y-64710356D01*
X168834679Y-64715435D01*
X168881535Y-64785164D01*
X168925830Y-64851083D01*
X169051233Y-64965191D01*
X169056606Y-64968108D01*
X169056607Y-64968109D01*
X169141642Y-65014279D01*
X169200235Y-65046092D01*
X169364233Y-65089116D01*
X169434476Y-65090219D01*
X169527639Y-65091683D01*
X169527640Y-65091683D01*
X169533760Y-65091779D01*
X169625425Y-65070785D01*
X169693066Y-65055294D01*
X169693068Y-65055293D01*
X169699029Y-65053928D01*
X169786243Y-65010064D01*
X169845035Y-64980495D01*
X169845037Y-64980493D01*
X169850498Y-64977747D01*
X169979423Y-64867634D01*
X170044047Y-64777700D01*
X170074790Y-64734917D01*
X170074791Y-64734915D01*
X170078361Y-64729947D01*
X170141601Y-64572634D01*
X170164422Y-64412286D01*
X170165020Y-64408081D01*
X170165020Y-64408080D01*
X170165490Y-64404778D01*
X170165645Y-64390000D01*
X170164018Y-64376550D01*
X170154220Y-64295587D01*
X170145276Y-64221680D01*
X170085345Y-64063077D01*
X170080857Y-64056547D01*
X169992777Y-63928390D01*
X169992775Y-63928388D01*
X169989312Y-63923349D01*
X169984749Y-63919284D01*
X169984746Y-63919280D01*
X169896135Y-63840331D01*
X169862721Y-63810560D01*
X169800505Y-63777618D01*
X169718289Y-63734087D01*
X169718286Y-63734086D01*
X169712881Y-63731224D01*
X169706950Y-63729734D01*
X169706947Y-63729733D01*
X169631048Y-63710669D01*
X169548441Y-63689919D01*
X169501522Y-63689673D01*
X169385014Y-63689063D01*
X169378895Y-63689031D01*
X169372944Y-63690460D01*
X169372942Y-63690460D01*
X169219982Y-63727183D01*
X169219978Y-63727184D01*
X169214032Y-63728612D01*
X169208598Y-63731416D01*
X169208597Y-63731417D01*
X169201741Y-63734956D01*
X169063369Y-63806375D01*
X169058757Y-63810398D01*
X169058756Y-63810399D01*
X168940216Y-63913807D01*
X168940213Y-63913810D01*
X168935604Y-63917831D01*
X168838113Y-64056547D01*
X168835891Y-64062246D01*
X168794163Y-64169273D01*
X168776524Y-64214513D01*
X168754394Y-64382611D01*
X157280500Y-64382611D01*
X157280500Y-63950067D01*
X157299885Y-63890407D01*
X157310229Y-63878296D01*
X159178296Y-62010229D01*
X159234189Y-61981750D01*
X159250067Y-61980500D01*
X159340366Y-61980500D01*
X159399163Y-61999264D01*
X159401703Y-62001069D01*
X159406233Y-62005191D01*
X159555235Y-62086092D01*
X159719233Y-62129116D01*
X159789476Y-62130219D01*
X159882639Y-62131683D01*
X159882640Y-62131683D01*
X159888760Y-62131779D01*
X159980425Y-62110785D01*
X160048066Y-62095294D01*
X160048068Y-62095293D01*
X160054029Y-62093928D01*
X160131295Y-62055067D01*
X160200035Y-62020495D01*
X160200037Y-62020493D01*
X160205498Y-62017747D01*
X160334423Y-61907634D01*
X160405101Y-61809275D01*
X160429790Y-61774917D01*
X160429791Y-61774915D01*
X160433361Y-61769947D01*
X160496601Y-61612634D01*
X160497478Y-61606476D01*
X160520020Y-61448081D01*
X160520020Y-61448080D01*
X160520490Y-61444778D01*
X160520645Y-61430000D01*
X160500276Y-61261680D01*
X160440345Y-61103077D01*
X160380735Y-61016344D01*
X160347777Y-60968390D01*
X160347775Y-60968388D01*
X160344312Y-60963349D01*
X160339749Y-60959284D01*
X160339746Y-60959280D01*
X160247486Y-60877080D01*
X160217721Y-60850560D01*
X160155505Y-60817618D01*
X160073289Y-60774087D01*
X160073286Y-60774086D01*
X160067881Y-60771224D01*
X160061950Y-60769734D01*
X160061947Y-60769733D01*
X159986048Y-60750669D01*
X159903441Y-60729919D01*
X159856522Y-60729673D01*
X159740014Y-60729063D01*
X159733895Y-60729031D01*
X159727944Y-60730460D01*
X159727942Y-60730460D01*
X159574982Y-60767183D01*
X159574978Y-60767184D01*
X159569032Y-60768612D01*
X159418369Y-60846375D01*
X159413757Y-60850398D01*
X159413756Y-60850399D01*
X159409070Y-60854487D01*
X159351370Y-60879098D01*
X159342347Y-60879500D01*
X158994492Y-60879500D01*
X158990242Y-60879411D01*
X158987451Y-60879294D01*
X158927706Y-60876790D01*
X158884215Y-60886990D01*
X158874824Y-60888731D01*
X158863439Y-60890291D01*
X158837419Y-60893855D01*
X158837416Y-60893856D01*
X158830568Y-60894794D01*
X158824220Y-60897541D01*
X158814769Y-60901631D01*
X158797644Y-60907295D01*
X158780864Y-60911231D01*
X158774804Y-60914563D01*
X158774803Y-60914563D01*
X158741711Y-60932756D01*
X158733122Y-60936963D01*
X158692145Y-60954695D01*
X158686483Y-60959280D01*
X158678762Y-60965532D01*
X158663788Y-60975594D01*
X158648693Y-60983893D01*
X158644666Y-60987369D01*
X158641977Y-60989689D01*
X158641969Y-60989696D01*
X158640578Y-60990897D01*
X158615131Y-61016344D01*
X158607236Y-61023453D01*
X158574930Y-61049614D01*
X158570920Y-61055257D01*
X158562843Y-61066622D01*
X158551879Y-61079596D01*
X156351002Y-63280474D01*
X156347935Y-63283417D01*
X156301844Y-63325799D01*
X156298198Y-63331680D01*
X156298196Y-63331682D01*
X156278306Y-63363762D01*
X156272890Y-63371643D01*
X156245888Y-63407217D01*
X156243341Y-63413650D01*
X156243340Y-63413652D01*
X156239547Y-63423231D01*
X156231443Y-63439346D01*
X156222365Y-63453986D01*
X156209903Y-63496881D01*
X156206805Y-63505928D01*
X156190364Y-63547453D01*
X156189641Y-63554335D01*
X156188564Y-63564579D01*
X156185091Y-63582282D01*
X156180285Y-63598825D01*
X156179500Y-63609515D01*
X156179500Y-63645503D01*
X156178944Y-63656112D01*
X156174599Y-63697454D01*
X156175753Y-63704275D01*
X156178079Y-63718029D01*
X156179500Y-63734956D01*
X156179500Y-89215508D01*
X156179411Y-89219758D01*
X156176790Y-89282294D01*
X156178370Y-89289030D01*
X156186989Y-89325779D01*
X156188732Y-89335180D01*
X156194794Y-89379432D01*
X156197542Y-89385781D01*
X156201635Y-89395241D01*
X156207300Y-89412370D01*
X156211232Y-89429136D01*
X156220186Y-89445424D01*
X156232752Y-89468281D01*
X156236958Y-89476867D01*
X156254695Y-89517855D01*
X156259049Y-89523232D01*
X156265532Y-89531238D01*
X156275592Y-89546209D01*
X156283893Y-89561308D01*
X156290897Y-89569422D01*
X156316344Y-89594869D01*
X156323453Y-89602764D01*
X156349614Y-89635070D01*
X156355257Y-89639080D01*
X156366622Y-89647157D01*
X156379596Y-89658121D01*
X156669049Y-89947574D01*
X156697528Y-90003467D01*
X156691052Y-90058187D01*
X156643127Y-90173889D01*
X156642199Y-90177756D01*
X156642198Y-90177758D01*
X156598105Y-90361422D01*
X156584317Y-90418852D01*
X156564551Y-90670000D01*
X156584317Y-90921148D01*
X156585246Y-90925019D01*
X156585247Y-90925023D01*
X156637954Y-91144564D01*
X156643127Y-91166111D01*
X156739534Y-91398859D01*
X156741617Y-91402259D01*
X156741618Y-91402260D01*
X156820162Y-91530431D01*
X156871164Y-91613659D01*
X156873753Y-91616691D01*
X156873755Y-91616693D01*
X156944906Y-91700000D01*
X157034776Y-91805224D01*
X157037805Y-91807811D01*
X157203860Y-91949635D01*
X157226341Y-91968836D01*
X157229739Y-91970918D01*
X157229740Y-91970919D01*
X157297374Y-92012365D01*
X157441141Y-92100466D01*
X157444823Y-92101991D01*
X157477342Y-92115461D01*
X157525043Y-92156201D01*
X157540000Y-92209235D01*
X157540000Y-96636433D01*
X157520615Y-96696093D01*
X157469865Y-96732965D01*
X157407135Y-96732965D01*
X157366729Y-96708204D01*
X155950229Y-95291705D01*
X155921750Y-95235812D01*
X155920500Y-95219934D01*
X155920500Y-62055067D01*
X155939885Y-61995407D01*
X155950229Y-61983296D01*
X158405914Y-59527611D01*
X165279394Y-59527611D01*
X165297999Y-59696135D01*
X165356266Y-59855356D01*
X165450830Y-59996083D01*
X165576233Y-60110191D01*
X165581606Y-60113108D01*
X165581607Y-60113109D01*
X165719855Y-60188171D01*
X165725235Y-60191092D01*
X165889233Y-60234116D01*
X165959476Y-60235219D01*
X166052639Y-60236683D01*
X166052640Y-60236683D01*
X166058760Y-60236779D01*
X166150425Y-60215785D01*
X166218066Y-60200294D01*
X166218068Y-60200293D01*
X166224029Y-60198928D01*
X166299238Y-60161102D01*
X166370035Y-60125495D01*
X166370037Y-60125493D01*
X166375498Y-60122747D01*
X166504423Y-60012634D01*
X166603361Y-59874947D01*
X166666601Y-59717634D01*
X166690490Y-59549778D01*
X166690645Y-59535000D01*
X166689018Y-59521550D01*
X166682853Y-59470613D01*
X166670276Y-59366680D01*
X166610345Y-59208077D01*
X166605857Y-59201547D01*
X166517777Y-59073390D01*
X166517775Y-59073388D01*
X166514312Y-59068349D01*
X166509749Y-59064284D01*
X166509746Y-59064280D01*
X166442049Y-59003965D01*
X166387721Y-58955560D01*
X166325505Y-58922618D01*
X166243289Y-58879087D01*
X166243286Y-58879086D01*
X166237881Y-58876224D01*
X166231950Y-58874734D01*
X166231947Y-58874733D01*
X166156048Y-58855669D01*
X166073441Y-58834919D01*
X166026522Y-58834673D01*
X165910014Y-58834063D01*
X165903895Y-58834031D01*
X165897944Y-58835460D01*
X165897942Y-58835460D01*
X165744982Y-58872183D01*
X165744978Y-58872184D01*
X165739032Y-58873612D01*
X165588369Y-58951375D01*
X165583757Y-58955398D01*
X165583756Y-58955399D01*
X165465216Y-59058807D01*
X165465213Y-59058810D01*
X165460604Y-59062831D01*
X165363113Y-59201547D01*
X165301524Y-59359513D01*
X165279394Y-59527611D01*
X158405914Y-59527611D01*
X159891985Y-58041540D01*
X159941097Y-58014373D01*
X159987480Y-58003750D01*
X160074029Y-57983928D01*
X160149238Y-57946102D01*
X160220035Y-57910495D01*
X160220037Y-57910493D01*
X160225498Y-57907747D01*
X160243220Y-57892611D01*
X167794394Y-57892611D01*
X167795065Y-57898689D01*
X167796065Y-57907747D01*
X167812999Y-58061135D01*
X167871266Y-58220356D01*
X167874679Y-58225435D01*
X167957465Y-58348634D01*
X167965830Y-58361083D01*
X168091233Y-58475191D01*
X168096606Y-58478108D01*
X168096607Y-58478109D01*
X168234855Y-58553171D01*
X168240235Y-58556092D01*
X168404233Y-58599116D01*
X168474476Y-58600219D01*
X168567639Y-58601683D01*
X168567640Y-58601683D01*
X168573760Y-58601779D01*
X168665425Y-58580785D01*
X168733066Y-58565294D01*
X168733068Y-58565293D01*
X168739029Y-58563928D01*
X168844430Y-58510917D01*
X168885035Y-58490495D01*
X168885037Y-58490493D01*
X168890498Y-58487747D01*
X169019423Y-58377634D01*
X169118361Y-58239947D01*
X169151058Y-58158611D01*
X176586394Y-58158611D01*
X176604999Y-58327135D01*
X176663266Y-58486356D01*
X176666679Y-58491435D01*
X176740827Y-58601779D01*
X176757830Y-58627083D01*
X176883233Y-58741191D01*
X176888606Y-58744108D01*
X176888607Y-58744109D01*
X176921726Y-58762091D01*
X177032235Y-58822092D01*
X177196233Y-58865116D01*
X177266476Y-58866219D01*
X177359639Y-58867683D01*
X177359640Y-58867683D01*
X177365760Y-58867779D01*
X177457425Y-58846785D01*
X177525066Y-58831294D01*
X177525068Y-58831293D01*
X177531029Y-58829928D01*
X177606238Y-58792102D01*
X177677035Y-58756495D01*
X177677037Y-58756493D01*
X177682498Y-58753747D01*
X177811423Y-58643634D01*
X177814992Y-58638668D01*
X177814996Y-58638663D01*
X177843781Y-58598604D01*
X177894337Y-58561467D01*
X177957067Y-58561139D01*
X178010452Y-58601221D01*
X178027830Y-58627083D01*
X178153233Y-58741191D01*
X178158606Y-58744108D01*
X178158607Y-58744109D01*
X178191726Y-58762091D01*
X178302235Y-58822092D01*
X178466233Y-58865116D01*
X178536476Y-58866219D01*
X178629639Y-58867683D01*
X178629640Y-58867683D01*
X178635760Y-58867779D01*
X178727425Y-58846785D01*
X178795066Y-58831294D01*
X178795068Y-58831293D01*
X178801029Y-58829928D01*
X178876238Y-58792102D01*
X178947035Y-58756495D01*
X178947037Y-58756493D01*
X178952498Y-58753747D01*
X179081423Y-58643634D01*
X179137716Y-58565294D01*
X179176790Y-58510917D01*
X179176791Y-58510915D01*
X179180361Y-58505947D01*
X179243601Y-58348634D01*
X179261135Y-58225435D01*
X179267020Y-58184081D01*
X179267020Y-58184080D01*
X179267490Y-58180778D01*
X179267645Y-58166000D01*
X179247276Y-57997680D01*
X179187345Y-57839077D01*
X179183880Y-57834035D01*
X179101690Y-57714448D01*
X179083874Y-57654301D01*
X179102912Y-57597729D01*
X179176790Y-57494917D01*
X179176791Y-57494915D01*
X179180361Y-57489947D01*
X179243601Y-57332634D01*
X179244926Y-57323328D01*
X179267020Y-57168081D01*
X179267020Y-57168080D01*
X179267490Y-57164778D01*
X179267645Y-57150000D01*
X179267157Y-57145962D01*
X179256747Y-57059944D01*
X179247276Y-56981680D01*
X179224247Y-56920736D01*
X202203070Y-56920736D01*
X202209756Y-57059944D01*
X202214163Y-57151680D01*
X202215909Y-57188041D01*
X202268118Y-57450512D01*
X202298995Y-57536512D01*
X202357276Y-57698839D01*
X202357279Y-57698846D01*
X202358549Y-57702383D01*
X202360328Y-57705695D01*
X202360329Y-57705696D01*
X202374291Y-57731680D01*
X202485215Y-57938121D01*
X202645335Y-58152547D01*
X202835390Y-58340950D01*
X202838434Y-58343182D01*
X203040626Y-58491435D01*
X203051205Y-58499192D01*
X203288039Y-58623797D01*
X203291591Y-58625037D01*
X203291597Y-58625040D01*
X203537130Y-58710783D01*
X203537132Y-58710784D01*
X203540690Y-58712026D01*
X203544390Y-58712729D01*
X203544392Y-58712729D01*
X203672148Y-58736984D01*
X203803606Y-58761943D01*
X203807371Y-58762091D01*
X203807372Y-58762091D01*
X203831244Y-58763029D01*
X204071013Y-58772449D01*
X204074746Y-58772040D01*
X204074751Y-58772040D01*
X204333291Y-58743725D01*
X204337035Y-58743315D01*
X204595829Y-58675180D01*
X204599297Y-58673690D01*
X204599300Y-58673689D01*
X204838251Y-58571028D01*
X204841710Y-58569542D01*
X205069275Y-58428720D01*
X205124925Y-58381609D01*
X205270656Y-58258239D01*
X205270659Y-58258236D01*
X205273526Y-58255809D01*
X205449976Y-58054607D01*
X205594747Y-57829534D01*
X205607327Y-57801609D01*
X205696976Y-57602594D01*
X205704661Y-57585534D01*
X205775382Y-57334778D01*
X205776278Y-57331601D01*
X205776279Y-57331597D01*
X205777302Y-57327969D01*
X205777893Y-57323328D01*
X205810753Y-57065029D01*
X205810754Y-57065022D01*
X205811075Y-57062495D01*
X205813549Y-56968000D01*
X205793717Y-56701123D01*
X205784733Y-56661417D01*
X205735485Y-56443778D01*
X205734655Y-56440109D01*
X205732585Y-56434785D01*
X205639028Y-56194203D01*
X205639027Y-56194200D01*
X205637662Y-56190691D01*
X205635795Y-56187425D01*
X205635792Y-56187418D01*
X205506739Y-55961623D01*
X205506737Y-55961620D01*
X205504868Y-55958350D01*
X205339190Y-55748189D01*
X205144269Y-55564825D01*
X204924385Y-55412286D01*
X204921015Y-55410624D01*
X204921008Y-55410620D01*
X204687744Y-55295587D01*
X204687740Y-55295585D01*
X204684371Y-55293924D01*
X204429497Y-55212338D01*
X204297430Y-55190830D01*
X204169087Y-55169928D01*
X204169083Y-55169928D01*
X204165364Y-55169322D01*
X204029283Y-55167541D01*
X203901545Y-55165868D01*
X203901540Y-55165868D01*
X203897774Y-55165819D01*
X203894042Y-55166327D01*
X203894040Y-55166327D01*
X203636343Y-55201398D01*
X203636339Y-55201399D01*
X203632605Y-55201907D01*
X203628982Y-55202963D01*
X203379298Y-55275738D01*
X203379294Y-55275740D01*
X203375683Y-55276792D01*
X203132652Y-55388831D01*
X203129509Y-55390892D01*
X203129503Y-55390895D01*
X202912003Y-55533495D01*
X202911999Y-55533498D01*
X202908851Y-55535562D01*
X202709197Y-55713760D01*
X202538075Y-55919512D01*
X202536124Y-55922728D01*
X202536122Y-55922730D01*
X202506376Y-55971750D01*
X202399244Y-56148298D01*
X202295755Y-56395091D01*
X202294827Y-56398745D01*
X202230809Y-56650814D01*
X202230808Y-56650821D01*
X202229881Y-56654470D01*
X202228913Y-56664087D01*
X202209907Y-56852839D01*
X202203070Y-56920736D01*
X179224247Y-56920736D01*
X179187345Y-56823077D01*
X179182857Y-56816547D01*
X179101690Y-56698448D01*
X179083874Y-56638301D01*
X179102912Y-56581729D01*
X179176790Y-56478917D01*
X179176791Y-56478915D01*
X179180361Y-56473947D01*
X179243601Y-56316634D01*
X179267490Y-56148778D01*
X179267645Y-56134000D01*
X179266018Y-56120550D01*
X179259853Y-56069613D01*
X179247276Y-55965680D01*
X179187345Y-55807077D01*
X179182857Y-55800547D01*
X179101690Y-55682448D01*
X179083874Y-55622301D01*
X179102912Y-55565729D01*
X179176790Y-55462917D01*
X179176791Y-55462915D01*
X179180361Y-55457947D01*
X179243601Y-55300634D01*
X179256004Y-55213488D01*
X179267020Y-55136081D01*
X179267020Y-55136080D01*
X179267490Y-55132778D01*
X179267645Y-55118000D01*
X179266018Y-55104550D01*
X179259853Y-55053613D01*
X179247276Y-54949680D01*
X179187345Y-54791077D01*
X179182857Y-54784547D01*
X179094777Y-54656390D01*
X179094775Y-54656388D01*
X179091312Y-54651349D01*
X179086749Y-54647284D01*
X179086746Y-54647280D01*
X179019049Y-54586965D01*
X178964721Y-54538560D01*
X178902505Y-54505618D01*
X178820289Y-54462087D01*
X178820286Y-54462086D01*
X178814881Y-54459224D01*
X178808950Y-54457734D01*
X178808947Y-54457733D01*
X178733048Y-54438669D01*
X178650441Y-54417919D01*
X178603522Y-54417673D01*
X178487014Y-54417063D01*
X178480895Y-54417031D01*
X178474944Y-54418460D01*
X178474942Y-54418460D01*
X178321982Y-54455183D01*
X178321978Y-54455184D01*
X178316032Y-54456612D01*
X178165369Y-54534375D01*
X178160757Y-54538398D01*
X178160756Y-54538399D01*
X178042216Y-54641807D01*
X178042213Y-54641810D01*
X178037604Y-54645831D01*
X178010305Y-54684673D01*
X177960143Y-54722337D01*
X177897420Y-54723323D01*
X177843615Y-54683800D01*
X177824777Y-54656390D01*
X177824775Y-54656388D01*
X177821312Y-54651349D01*
X177816749Y-54647284D01*
X177816746Y-54647280D01*
X177749049Y-54586965D01*
X177694721Y-54538560D01*
X177632505Y-54505618D01*
X177550289Y-54462087D01*
X177550286Y-54462086D01*
X177544881Y-54459224D01*
X177538950Y-54457734D01*
X177538947Y-54457733D01*
X177463048Y-54438669D01*
X177380441Y-54417919D01*
X177333522Y-54417673D01*
X177217014Y-54417063D01*
X177210895Y-54417031D01*
X177204944Y-54418460D01*
X177204942Y-54418460D01*
X177051982Y-54455183D01*
X177051978Y-54455184D01*
X177046032Y-54456612D01*
X176895369Y-54534375D01*
X176890757Y-54538398D01*
X176890756Y-54538399D01*
X176772216Y-54641807D01*
X176772213Y-54641810D01*
X176767604Y-54645831D01*
X176670113Y-54784547D01*
X176608524Y-54942513D01*
X176586394Y-55110611D01*
X176604999Y-55279135D01*
X176663266Y-55438356D01*
X176749982Y-55567403D01*
X176752126Y-55570594D01*
X176769312Y-55630924D01*
X176750923Y-55685566D01*
X176670113Y-55800547D01*
X176608524Y-55958513D01*
X176586394Y-56126611D01*
X176604999Y-56295135D01*
X176663266Y-56454356D01*
X176672615Y-56468268D01*
X176752126Y-56586594D01*
X176769312Y-56646924D01*
X176750923Y-56701566D01*
X176670113Y-56816547D01*
X176608524Y-56974513D01*
X176586394Y-57142611D01*
X176604999Y-57311135D01*
X176663266Y-57470356D01*
X176742970Y-57588968D01*
X176752126Y-57602594D01*
X176769312Y-57662924D01*
X176750923Y-57717566D01*
X176698143Y-57792664D01*
X176691857Y-57801609D01*
X176670113Y-57832547D01*
X176667891Y-57838246D01*
X176645101Y-57896700D01*
X176608524Y-57990513D01*
X176605383Y-58014373D01*
X176597195Y-58076571D01*
X176586394Y-58158611D01*
X169151058Y-58158611D01*
X169181601Y-58082634D01*
X169187450Y-58041540D01*
X169205020Y-57918081D01*
X169205020Y-57918080D01*
X169205490Y-57914778D01*
X169205645Y-57900000D01*
X169204018Y-57886550D01*
X169192656Y-57792664D01*
X169185276Y-57731680D01*
X169125345Y-57573077D01*
X169120857Y-57566547D01*
X169032777Y-57438390D01*
X169032775Y-57438388D01*
X169029312Y-57433349D01*
X169024749Y-57429284D01*
X169024746Y-57429280D01*
X168957049Y-57368965D01*
X168902721Y-57320560D01*
X168791195Y-57261510D01*
X168758289Y-57244087D01*
X168758286Y-57244086D01*
X168752881Y-57241224D01*
X168746950Y-57239734D01*
X168746947Y-57239733D01*
X168671048Y-57220669D01*
X168588441Y-57199919D01*
X168541522Y-57199673D01*
X168425014Y-57199063D01*
X168418895Y-57199031D01*
X168412944Y-57200460D01*
X168412942Y-57200460D01*
X168259982Y-57237183D01*
X168259978Y-57237184D01*
X168254032Y-57238612D01*
X168103369Y-57316375D01*
X168098757Y-57320398D01*
X168098756Y-57320399D01*
X167980216Y-57423807D01*
X167980213Y-57423810D01*
X167975604Y-57427831D01*
X167878113Y-57566547D01*
X167875891Y-57572246D01*
X167823861Y-57705696D01*
X167816524Y-57724513D01*
X167794394Y-57892611D01*
X160243220Y-57892611D01*
X160354423Y-57797634D01*
X160453361Y-57659947D01*
X160516601Y-57502634D01*
X160540490Y-57334778D01*
X160540645Y-57320000D01*
X160540207Y-57316375D01*
X160530623Y-57237183D01*
X160520276Y-57151680D01*
X160460345Y-56993077D01*
X160452512Y-56981680D01*
X160367777Y-56858390D01*
X160367775Y-56858388D01*
X160364312Y-56853349D01*
X160359749Y-56849284D01*
X160359746Y-56849280D01*
X160292049Y-56788965D01*
X160237721Y-56740560D01*
X160129668Y-56683349D01*
X160093289Y-56664087D01*
X160093286Y-56664086D01*
X160087881Y-56661224D01*
X160081950Y-56659734D01*
X160081947Y-56659733D01*
X159996622Y-56638301D01*
X159923441Y-56619919D01*
X159876522Y-56619673D01*
X159760014Y-56619063D01*
X159753895Y-56619031D01*
X159747944Y-56620460D01*
X159747942Y-56620460D01*
X159594982Y-56657183D01*
X159594978Y-56657184D01*
X159589032Y-56658612D01*
X159583598Y-56661416D01*
X159583597Y-56661417D01*
X159499386Y-56704882D01*
X159438369Y-56736375D01*
X159433757Y-56740398D01*
X159433756Y-56740399D01*
X159315216Y-56843807D01*
X159315213Y-56843810D01*
X159310604Y-56847831D01*
X159262000Y-56916988D01*
X159221571Y-56974513D01*
X159213113Y-56986547D01*
X159210891Y-56992246D01*
X159154629Y-57136550D01*
X159151524Y-57144513D01*
X159149295Y-57161442D01*
X159143826Y-57202987D01*
X159114965Y-57261510D01*
X154991002Y-61385474D01*
X154987935Y-61388417D01*
X154941844Y-61430799D01*
X154938198Y-61436680D01*
X154938196Y-61436682D01*
X154918306Y-61468762D01*
X154912890Y-61476643D01*
X154885888Y-61512217D01*
X154883341Y-61518650D01*
X154883340Y-61518652D01*
X154879547Y-61528231D01*
X154871443Y-61544346D01*
X154862365Y-61558986D01*
X154849903Y-61601881D01*
X154846805Y-61610928D01*
X154837559Y-61634281D01*
X154830364Y-61652453D01*
X154829641Y-61659335D01*
X154828564Y-61669579D01*
X154825091Y-61687282D01*
X154820285Y-61703825D01*
X154819500Y-61714515D01*
X154819500Y-61750503D01*
X154818944Y-61761112D01*
X154814599Y-61802454D01*
X134464217Y-61802454D01*
X134464489Y-51724396D01*
X134483875Y-51664738D01*
X134528048Y-51632646D01*
X154297500Y-51632646D01*
X154300618Y-51658846D01*
X154303707Y-51665799D01*
X154303707Y-51665801D01*
X154342058Y-51752140D01*
X154346061Y-51761153D01*
X154352691Y-51767771D01*
X154352692Y-51767773D01*
X154418654Y-51833620D01*
X154425287Y-51840241D01*
X154527673Y-51885506D01*
X154543545Y-51887356D01*
X154550427Y-51888159D01*
X154550431Y-51888159D01*
X154553354Y-51888500D01*
X156342646Y-51888500D01*
X156368846Y-51885382D01*
X156375799Y-51882293D01*
X156375801Y-51882293D01*
X156462590Y-51843743D01*
X156462592Y-51843742D01*
X156471153Y-51839939D01*
X156477771Y-51833309D01*
X156477773Y-51833308D01*
X156543620Y-51767346D01*
X156543621Y-51767345D01*
X156550241Y-51760713D01*
X156595506Y-51658327D01*
X156597992Y-51637003D01*
X156598159Y-51635573D01*
X156598159Y-51635569D01*
X156598500Y-51632646D01*
X156598500Y-50707754D01*
X156832967Y-50707754D01*
X156833271Y-50712393D01*
X156833271Y-50712395D01*
X156834949Y-50738000D01*
X156846796Y-50918749D01*
X156847939Y-50923251D01*
X156847940Y-50923255D01*
X156876176Y-51034431D01*
X156898845Y-51123690D01*
X156900792Y-51127914D01*
X156900793Y-51127916D01*
X156976699Y-51292568D01*
X156987369Y-51315714D01*
X156990056Y-51319516D01*
X157097861Y-51472056D01*
X157109405Y-51488391D01*
X157112737Y-51491637D01*
X157112738Y-51491638D01*
X157122714Y-51501356D01*
X157260865Y-51635937D01*
X157436677Y-51753411D01*
X157440955Y-51755249D01*
X157623370Y-51833620D01*
X157630953Y-51836878D01*
X157733172Y-51860008D01*
X157832650Y-51882518D01*
X157832654Y-51882519D01*
X157837186Y-51883544D01*
X157841826Y-51883726D01*
X157841831Y-51883727D01*
X157951758Y-51888046D01*
X158048470Y-51891846D01*
X158053069Y-51891179D01*
X158053072Y-51891179D01*
X158253130Y-51862171D01*
X158257730Y-51861504D01*
X158360279Y-51826694D01*
X158453546Y-51795034D01*
X158453549Y-51795033D01*
X158457955Y-51793537D01*
X158642442Y-51690219D01*
X158708084Y-51635626D01*
X158801441Y-51557982D01*
X158805012Y-51555012D01*
X158837808Y-51515579D01*
X158937245Y-51396018D01*
X158937245Y-51396017D01*
X158940219Y-51392442D01*
X159043537Y-51207955D01*
X159051330Y-51184997D01*
X159088863Y-51134735D01*
X159148772Y-51116133D01*
X159208173Y-51136297D01*
X159241486Y-51179437D01*
X159310149Y-51348535D01*
X159313889Y-51355940D01*
X159426215Y-51539238D01*
X159431122Y-51545943D01*
X159571871Y-51708428D01*
X159577807Y-51714241D01*
X159743209Y-51851560D01*
X159750008Y-51856321D01*
X159935624Y-51964786D01*
X159943106Y-51968371D01*
X160143940Y-52045062D01*
X160151917Y-52047379D01*
X160258244Y-52069011D01*
X160271792Y-52067468D01*
X160274000Y-52059080D01*
X160274000Y-52058556D01*
X160782000Y-52058556D01*
X160786226Y-52071562D01*
X160787792Y-52072699D01*
X160793161Y-52073202D01*
X160807183Y-52071406D01*
X160815298Y-52069681D01*
X161021211Y-52007904D01*
X161028940Y-52004875D01*
X161221999Y-51910296D01*
X161229127Y-51906047D01*
X161404141Y-51781212D01*
X161410492Y-51775845D01*
X161562753Y-51624112D01*
X161568152Y-51617768D01*
X161693587Y-51443208D01*
X161697870Y-51436081D01*
X161793118Y-51243362D01*
X161796177Y-51235634D01*
X161811668Y-51184650D01*
X161847559Y-51133202D01*
X161906836Y-51112676D01*
X161966857Y-51130912D01*
X162000961Y-51171662D01*
X162006948Y-51184650D01*
X162056699Y-51292568D01*
X162067369Y-51315714D01*
X162070056Y-51319516D01*
X162177861Y-51472056D01*
X162189405Y-51488391D01*
X162192737Y-51491637D01*
X162192738Y-51491638D01*
X162202714Y-51501356D01*
X162340865Y-51635937D01*
X162516677Y-51753411D01*
X162520955Y-51755249D01*
X162703370Y-51833620D01*
X162710953Y-51836878D01*
X162813172Y-51860008D01*
X162912650Y-51882518D01*
X162912654Y-51882519D01*
X162917186Y-51883544D01*
X162921826Y-51883726D01*
X162921831Y-51883727D01*
X163031758Y-51888046D01*
X163128470Y-51891846D01*
X163133069Y-51891179D01*
X163133072Y-51891179D01*
X163333130Y-51862171D01*
X163337730Y-51861504D01*
X163440279Y-51826694D01*
X163533546Y-51795034D01*
X163533549Y-51795033D01*
X163537955Y-51793537D01*
X163722442Y-51690219D01*
X163788084Y-51635626D01*
X163881441Y-51557982D01*
X163885012Y-51555012D01*
X163917808Y-51515579D01*
X164017245Y-51396018D01*
X164017245Y-51396017D01*
X164020219Y-51392442D01*
X164123537Y-51207955D01*
X164126550Y-51199081D01*
X164185896Y-51024251D01*
X164191504Y-51007730D01*
X164221846Y-50798470D01*
X164222279Y-50781937D01*
X164223351Y-50740999D01*
X164223351Y-50740990D01*
X164223429Y-50738000D01*
X164221077Y-50712395D01*
X164220651Y-50707754D01*
X164452967Y-50707754D01*
X164453271Y-50712393D01*
X164453271Y-50712395D01*
X164454949Y-50738000D01*
X164466796Y-50918749D01*
X164467939Y-50923251D01*
X164467940Y-50923255D01*
X164496176Y-51034431D01*
X164518845Y-51123690D01*
X164520792Y-51127914D01*
X164520793Y-51127916D01*
X164596699Y-51292568D01*
X164607369Y-51315714D01*
X164610056Y-51319516D01*
X164717861Y-51472056D01*
X164729405Y-51488391D01*
X164732737Y-51491637D01*
X164732738Y-51491638D01*
X164742714Y-51501356D01*
X164880865Y-51635937D01*
X165056677Y-51753411D01*
X165060955Y-51755249D01*
X165243370Y-51833620D01*
X165250953Y-51836878D01*
X165353172Y-51860008D01*
X165452650Y-51882518D01*
X165452654Y-51882519D01*
X165457186Y-51883544D01*
X165461826Y-51883726D01*
X165461831Y-51883727D01*
X165571758Y-51888046D01*
X165668470Y-51891846D01*
X165673069Y-51891179D01*
X165673072Y-51891179D01*
X165873130Y-51862171D01*
X165877730Y-51861504D01*
X165980279Y-51826694D01*
X166073546Y-51795034D01*
X166073549Y-51795033D01*
X166077955Y-51793537D01*
X166262442Y-51690219D01*
X166328084Y-51635626D01*
X166421441Y-51557982D01*
X166425012Y-51555012D01*
X166457808Y-51515579D01*
X166557245Y-51396018D01*
X166557245Y-51396017D01*
X166560219Y-51392442D01*
X166663537Y-51207955D01*
X166666550Y-51199081D01*
X166725896Y-51024251D01*
X166731504Y-51007730D01*
X166761846Y-50798470D01*
X166762279Y-50781937D01*
X166763351Y-50740999D01*
X166763351Y-50740990D01*
X166763429Y-50738000D01*
X166761077Y-50712395D01*
X166760651Y-50707754D01*
X166992967Y-50707754D01*
X166993271Y-50712393D01*
X166993271Y-50712395D01*
X166994949Y-50738000D01*
X167006796Y-50918749D01*
X167007939Y-50923251D01*
X167007940Y-50923255D01*
X167036176Y-51034431D01*
X167058845Y-51123690D01*
X167060792Y-51127914D01*
X167060793Y-51127916D01*
X167136699Y-51292568D01*
X167147369Y-51315714D01*
X167150056Y-51319516D01*
X167257861Y-51472056D01*
X167269405Y-51488391D01*
X167272737Y-51491637D01*
X167272743Y-51491644D01*
X167316826Y-51534588D01*
X167346034Y-51590104D01*
X167347500Y-51607292D01*
X167347500Y-52315079D01*
X167347494Y-52316142D01*
X167346757Y-52386526D01*
X167346559Y-52405407D01*
X167347758Y-52410952D01*
X167347758Y-52410953D01*
X167355880Y-52448517D01*
X167357539Y-52458650D01*
X167362454Y-52502472D01*
X167364320Y-52507829D01*
X167373842Y-52535174D01*
X167377195Y-52547103D01*
X167384511Y-52580942D01*
X167386904Y-52586073D01*
X167386908Y-52586086D01*
X167403149Y-52620914D01*
X167407012Y-52630426D01*
X167421515Y-52672073D01*
X167424525Y-52676890D01*
X167439866Y-52701442D01*
X167445777Y-52712329D01*
X167460409Y-52743707D01*
X167487440Y-52778554D01*
X167493307Y-52786964D01*
X167516684Y-52824375D01*
X167520679Y-52828398D01*
X167520683Y-52828403D01*
X167544940Y-52852830D01*
X167545603Y-52853538D01*
X167546099Y-52854177D01*
X167571959Y-52880037D01*
X167643230Y-52951807D01*
X167644233Y-52952443D01*
X167645526Y-52953604D01*
X168337568Y-53645646D01*
X168338315Y-53646400D01*
X168400859Y-53710268D01*
X168416457Y-53720320D01*
X168437931Y-53734159D01*
X168446272Y-53740153D01*
X168476299Y-53764124D01*
X168476302Y-53764126D01*
X168480734Y-53767664D01*
X168511911Y-53782735D01*
X168522710Y-53788796D01*
X168551817Y-53807554D01*
X168557147Y-53809494D01*
X168557153Y-53809497D01*
X168593261Y-53822640D01*
X168602720Y-53826635D01*
X168637316Y-53843359D01*
X168637318Y-53843360D01*
X168642422Y-53845827D01*
X168647945Y-53847102D01*
X168676165Y-53853617D01*
X168688043Y-53857136D01*
X168720578Y-53868978D01*
X168764327Y-53874505D01*
X168774435Y-53876306D01*
X168811874Y-53884950D01*
X168811885Y-53884951D01*
X168817411Y-53886227D01*
X168823087Y-53886247D01*
X168823089Y-53886247D01*
X168836489Y-53886293D01*
X168857515Y-53886366D01*
X168858484Y-53886399D01*
X168859283Y-53886500D01*
X168895663Y-53886500D01*
X168896016Y-53886501D01*
X168997000Y-53886853D01*
X168998161Y-53886593D01*
X168999886Y-53886500D01*
X200651079Y-53886500D01*
X200652142Y-53886506D01*
X200735728Y-53887382D01*
X200735732Y-53887382D01*
X200741407Y-53887441D01*
X200784524Y-53878119D01*
X200794650Y-53876461D01*
X200812101Y-53874504D01*
X200832831Y-53872179D01*
X200832833Y-53872178D01*
X200838472Y-53871546D01*
X200860574Y-53863849D01*
X200871174Y-53860158D01*
X200883103Y-53856805D01*
X200897848Y-53853617D01*
X200916942Y-53849489D01*
X200922073Y-53847096D01*
X200922086Y-53847092D01*
X200956914Y-53830851D01*
X200966426Y-53826988D01*
X201008073Y-53812485D01*
X201020884Y-53804480D01*
X201037442Y-53794134D01*
X201048329Y-53788223D01*
X201079707Y-53773591D01*
X201114556Y-53746559D01*
X201122964Y-53740693D01*
X201160375Y-53717316D01*
X201164398Y-53713321D01*
X201164403Y-53713317D01*
X201188830Y-53689060D01*
X201189538Y-53688397D01*
X201190177Y-53687901D01*
X201216037Y-53662041D01*
X201287807Y-53590770D01*
X201288443Y-53589767D01*
X201289604Y-53588474D01*
X202017246Y-52860832D01*
X202018001Y-52860084D01*
X202077814Y-52801511D01*
X202081868Y-52797541D01*
X202105759Y-52760469D01*
X202111753Y-52752128D01*
X202135724Y-52722101D01*
X202135726Y-52722098D01*
X202139264Y-52717666D01*
X202154335Y-52686489D01*
X202160396Y-52675690D01*
X202176080Y-52651353D01*
X202179154Y-52646583D01*
X202181094Y-52641253D01*
X202181097Y-52641247D01*
X202194240Y-52605139D01*
X202198235Y-52595680D01*
X202214959Y-52561084D01*
X202214960Y-52561082D01*
X202217427Y-52555978D01*
X202225217Y-52522235D01*
X202228737Y-52510353D01*
X202238638Y-52483152D01*
X202240578Y-52477822D01*
X202246105Y-52434073D01*
X202247906Y-52423965D01*
X202256550Y-52386526D01*
X202256551Y-52386515D01*
X202257827Y-52380989D01*
X202257966Y-52340885D01*
X202257999Y-52339916D01*
X202258100Y-52339117D01*
X202258100Y-52302670D01*
X202258453Y-52201400D01*
X202258193Y-52200239D01*
X202258100Y-52198514D01*
X202258100Y-48732445D01*
X202243146Y-48599128D01*
X202237477Y-48582847D01*
X202185952Y-48434888D01*
X202185952Y-48434887D01*
X202184085Y-48429527D01*
X202181080Y-48424717D01*
X202181078Y-48424714D01*
X202091921Y-48282033D01*
X202091918Y-48282029D01*
X202088916Y-48277225D01*
X201962370Y-48149793D01*
X201957576Y-48146751D01*
X201957574Y-48146749D01*
X201815530Y-48056605D01*
X201815527Y-48056604D01*
X201810736Y-48053563D01*
X201791951Y-48046874D01*
X201646893Y-47995221D01*
X201646891Y-47995221D01*
X201641551Y-47993319D01*
X201534156Y-47980513D01*
X201468863Y-47972727D01*
X201468859Y-47972727D01*
X201463224Y-47972055D01*
X201338955Y-47985116D01*
X201290258Y-47990234D01*
X201290257Y-47990234D01*
X201284617Y-47990827D01*
X201114607Y-48048703D01*
X201101763Y-48056605D01*
X200970948Y-48137083D01*
X200961645Y-48142806D01*
X200833332Y-48268459D01*
X200736046Y-48419417D01*
X200734105Y-48424750D01*
X200678542Y-48577409D01*
X200674622Y-48588178D01*
X200673911Y-48593804D01*
X200673911Y-48593805D01*
X200670953Y-48617224D01*
X200657100Y-48726883D01*
X200657100Y-51914781D01*
X200637715Y-51974441D01*
X200627371Y-51986552D01*
X200358151Y-52255771D01*
X200302258Y-52284250D01*
X200286380Y-52285500D01*
X181838633Y-52285500D01*
X181778973Y-52266115D01*
X181742101Y-52215365D01*
X181742101Y-52152635D01*
X181772714Y-52106819D01*
X181812769Y-52072609D01*
X181817423Y-52068634D01*
X181912790Y-51935917D01*
X181912791Y-51935915D01*
X181916361Y-51930947D01*
X181979601Y-51773634D01*
X181982084Y-51756191D01*
X182003020Y-51609081D01*
X182003020Y-51609080D01*
X182003490Y-51605778D01*
X182003645Y-51591000D01*
X182003197Y-51587292D01*
X181992179Y-51496251D01*
X181983276Y-51422680D01*
X181923345Y-51264077D01*
X181918857Y-51257547D01*
X181861169Y-51173611D01*
X194302394Y-51173611D01*
X194320999Y-51342135D01*
X194379266Y-51501356D01*
X194382679Y-51506435D01*
X194467489Y-51632646D01*
X194473830Y-51642083D01*
X194599233Y-51756191D01*
X194604606Y-51759108D01*
X194604607Y-51759109D01*
X194631359Y-51773634D01*
X194748235Y-51837092D01*
X194912233Y-51880116D01*
X194982476Y-51881219D01*
X195075639Y-51882683D01*
X195075640Y-51882683D01*
X195081760Y-51882779D01*
X195197284Y-51856321D01*
X195241066Y-51846294D01*
X195241068Y-51846293D01*
X195247029Y-51844928D01*
X195353732Y-51791262D01*
X195393035Y-51771495D01*
X195393037Y-51771493D01*
X195398498Y-51768747D01*
X195527423Y-51658634D01*
X195603522Y-51552731D01*
X195622790Y-51525917D01*
X195622791Y-51525915D01*
X195626361Y-51520947D01*
X195689601Y-51363634D01*
X195697379Y-51308986D01*
X195713020Y-51199081D01*
X195713020Y-51199080D01*
X195713490Y-51195778D01*
X195713645Y-51181000D01*
X195713187Y-51177211D01*
X195703351Y-51095932D01*
X195693276Y-51012680D01*
X195633345Y-50854077D01*
X195628857Y-50847547D01*
X195540777Y-50719390D01*
X195540775Y-50719388D01*
X195537312Y-50714349D01*
X195532749Y-50710284D01*
X195532746Y-50710280D01*
X195465049Y-50649965D01*
X195410721Y-50601560D01*
X195348505Y-50568618D01*
X195266289Y-50525087D01*
X195266286Y-50525086D01*
X195260881Y-50522224D01*
X195254950Y-50520734D01*
X195254947Y-50520733D01*
X195179048Y-50501669D01*
X195096441Y-50480919D01*
X195049522Y-50480673D01*
X194933014Y-50480063D01*
X194926895Y-50480031D01*
X194920944Y-50481460D01*
X194920942Y-50481460D01*
X194767982Y-50518183D01*
X194767978Y-50518184D01*
X194762032Y-50519612D01*
X194756598Y-50522416D01*
X194756597Y-50522417D01*
X194746866Y-50527440D01*
X194611369Y-50597375D01*
X194606757Y-50601398D01*
X194606756Y-50601399D01*
X194488216Y-50704807D01*
X194488213Y-50704810D01*
X194483604Y-50708831D01*
X194386113Y-50847547D01*
X194383891Y-50853246D01*
X194329793Y-50992000D01*
X194324524Y-51005513D01*
X194302394Y-51173611D01*
X181861169Y-51173611D01*
X181830777Y-51129390D01*
X181830775Y-51129388D01*
X181827312Y-51124349D01*
X181822749Y-51120284D01*
X181822746Y-51120280D01*
X181743075Y-51049296D01*
X181700721Y-51011560D01*
X181627167Y-50972615D01*
X181556289Y-50935087D01*
X181556286Y-50935086D01*
X181550881Y-50932224D01*
X181544950Y-50930734D01*
X181544947Y-50930733D01*
X181469048Y-50911669D01*
X181386441Y-50890919D01*
X181339522Y-50890673D01*
X181223014Y-50890063D01*
X181216895Y-50890031D01*
X181210944Y-50891460D01*
X181210942Y-50891460D01*
X181057982Y-50928183D01*
X181057978Y-50928184D01*
X181052032Y-50929612D01*
X181046598Y-50932416D01*
X181046597Y-50932417D01*
X180909594Y-51003130D01*
X180901369Y-51007375D01*
X180896757Y-51011398D01*
X180896756Y-51011399D01*
X180778216Y-51114807D01*
X180778213Y-51114810D01*
X180773604Y-51118831D01*
X180676113Y-51257547D01*
X180673891Y-51263246D01*
X180625083Y-51388432D01*
X180614524Y-51415513D01*
X180592394Y-51583611D01*
X180610999Y-51752135D01*
X180669266Y-51911356D01*
X180672679Y-51916435D01*
X180743717Y-52022151D01*
X180763830Y-52052083D01*
X180799498Y-52084538D01*
X180826301Y-52108927D01*
X180857381Y-52163417D01*
X180850498Y-52225769D01*
X180808279Y-52272166D01*
X180757990Y-52285500D01*
X170887051Y-52285500D01*
X170827391Y-52266115D01*
X170790519Y-52215365D01*
X170790519Y-52152635D01*
X170827391Y-52101885D01*
X170874154Y-52083323D01*
X170967183Y-52071406D01*
X170975298Y-52069681D01*
X171181211Y-52007904D01*
X171188940Y-52004875D01*
X171381999Y-51910296D01*
X171389127Y-51906047D01*
X171564141Y-51781212D01*
X171570492Y-51775845D01*
X171722753Y-51624112D01*
X171728152Y-51617768D01*
X171853587Y-51443208D01*
X171857870Y-51436081D01*
X171953118Y-51243362D01*
X171956177Y-51235634D01*
X171971668Y-51184650D01*
X172007559Y-51133202D01*
X172066836Y-51112676D01*
X172126857Y-51130912D01*
X172160961Y-51171662D01*
X172166948Y-51184650D01*
X172216699Y-51292568D01*
X172227369Y-51315714D01*
X172230056Y-51319516D01*
X172337861Y-51472056D01*
X172349405Y-51488391D01*
X172352737Y-51491637D01*
X172352738Y-51491638D01*
X172362714Y-51501356D01*
X172500865Y-51635937D01*
X172676677Y-51753411D01*
X172680955Y-51755249D01*
X172863370Y-51833620D01*
X172870953Y-51836878D01*
X172973172Y-51860008D01*
X173072650Y-51882518D01*
X173072654Y-51882519D01*
X173077186Y-51883544D01*
X173081826Y-51883726D01*
X173081831Y-51883727D01*
X173191758Y-51888046D01*
X173288470Y-51891846D01*
X173293069Y-51891179D01*
X173293072Y-51891179D01*
X173493130Y-51862171D01*
X173497730Y-51861504D01*
X173600279Y-51826694D01*
X173693546Y-51795034D01*
X173693549Y-51795033D01*
X173697955Y-51793537D01*
X173882442Y-51690219D01*
X173948084Y-51635626D01*
X174041441Y-51557982D01*
X174045012Y-51555012D01*
X174077808Y-51515579D01*
X174177245Y-51396018D01*
X174177245Y-51396017D01*
X174180219Y-51392442D01*
X174283537Y-51207955D01*
X174286550Y-51199081D01*
X174345896Y-51024251D01*
X174351504Y-51007730D01*
X174381846Y-50798470D01*
X174382279Y-50781937D01*
X174383351Y-50740999D01*
X174383351Y-50740990D01*
X174383429Y-50738000D01*
X174381077Y-50712395D01*
X174364507Y-50532074D01*
X174364507Y-50532072D01*
X174364081Y-50527440D01*
X174362818Y-50522961D01*
X174307949Y-50328408D01*
X174307948Y-50328404D01*
X174306686Y-50323931D01*
X174213165Y-50134290D01*
X174210384Y-50130565D01*
X174210381Y-50130561D01*
X174089437Y-49968597D01*
X174089433Y-49968593D01*
X174086651Y-49964867D01*
X174062623Y-49942655D01*
X173959226Y-49847077D01*
X173931381Y-49821337D01*
X173924752Y-49817154D01*
X173816202Y-49748664D01*
X173752554Y-49708505D01*
X173714986Y-49693517D01*
X173560490Y-49631879D01*
X173560485Y-49631878D01*
X173556160Y-49630152D01*
X173551593Y-49629244D01*
X173551591Y-49629243D01*
X173353335Y-49589808D01*
X173348775Y-49588901D01*
X173344124Y-49588840D01*
X173344123Y-49588840D01*
X173236262Y-49587428D01*
X173137346Y-49586133D01*
X172928953Y-49621941D01*
X172730575Y-49695127D01*
X172726578Y-49697505D01*
X172552847Y-49800863D01*
X172552842Y-49800866D01*
X172548856Y-49803238D01*
X172389881Y-49942655D01*
X172387006Y-49946302D01*
X172387004Y-49946304D01*
X172290509Y-50068708D01*
X172258976Y-50108708D01*
X172256812Y-50112820D01*
X172256810Y-50112824D01*
X172177433Y-50263695D01*
X172160523Y-50295836D01*
X172159691Y-50295398D01*
X172121810Y-50339747D01*
X172060813Y-50354388D01*
X172002858Y-50330379D01*
X171975699Y-50293674D01*
X171890572Y-50097894D01*
X171886648Y-50090578D01*
X171769882Y-49910085D01*
X171764811Y-49903499D01*
X171620138Y-49744506D01*
X171614052Y-49738831D01*
X171445348Y-49605597D01*
X171438439Y-49601006D01*
X171250224Y-49497106D01*
X171242661Y-49493707D01*
X171040013Y-49421945D01*
X171031981Y-49419823D01*
X170957828Y-49406614D01*
X170944282Y-49408494D01*
X170943851Y-49408909D01*
X170942000Y-49416304D01*
X170942000Y-50890500D01*
X170922615Y-50950160D01*
X170871865Y-50987032D01*
X170840500Y-50992000D01*
X170535500Y-50992000D01*
X170475840Y-50972615D01*
X170438968Y-50921865D01*
X170434000Y-50890500D01*
X170434000Y-49419063D01*
X170429774Y-49406057D01*
X170428748Y-49405312D01*
X170422257Y-49404784D01*
X170376328Y-49411813D01*
X170368244Y-49413739D01*
X170163913Y-49480524D01*
X170156258Y-49483741D01*
X169965560Y-49583012D01*
X169958549Y-49587428D01*
X169786626Y-49716511D01*
X169780423Y-49722019D01*
X169631900Y-49877439D01*
X169626669Y-49883899D01*
X169505527Y-50061486D01*
X169501424Y-50068708D01*
X169410915Y-50263695D01*
X169408045Y-50271496D01*
X169404584Y-50283975D01*
X169369960Y-50336285D01*
X169311202Y-50358252D01*
X169250753Y-50341488D01*
X169215743Y-50301741D01*
X169135222Y-50138462D01*
X169133165Y-50134290D01*
X169130384Y-50130565D01*
X169130381Y-50130561D01*
X169009437Y-49968597D01*
X169009433Y-49968593D01*
X169006651Y-49964867D01*
X168982623Y-49942655D01*
X168879226Y-49847077D01*
X168851381Y-49821337D01*
X168844752Y-49817154D01*
X168736202Y-49748664D01*
X168672554Y-49708505D01*
X168634986Y-49693517D01*
X168480490Y-49631879D01*
X168480485Y-49631878D01*
X168476160Y-49630152D01*
X168471593Y-49629244D01*
X168471591Y-49629243D01*
X168273335Y-49589808D01*
X168268775Y-49588901D01*
X168264124Y-49588840D01*
X168264123Y-49588840D01*
X168156262Y-49587428D01*
X168057346Y-49586133D01*
X167848953Y-49621941D01*
X167650575Y-49695127D01*
X167646578Y-49697505D01*
X167472847Y-49800863D01*
X167472842Y-49800866D01*
X167468856Y-49803238D01*
X167309881Y-49942655D01*
X167307006Y-49946302D01*
X167307004Y-49946304D01*
X167210509Y-50068708D01*
X167178976Y-50108708D01*
X167176812Y-50112820D01*
X167176810Y-50112824D01*
X167129749Y-50202272D01*
X167080523Y-50295836D01*
X167017820Y-50497773D01*
X166992967Y-50707754D01*
X166760651Y-50707754D01*
X166744507Y-50532074D01*
X166744507Y-50532072D01*
X166744081Y-50527440D01*
X166742818Y-50522961D01*
X166687949Y-50328408D01*
X166687948Y-50328404D01*
X166686686Y-50323931D01*
X166593165Y-50134290D01*
X166590384Y-50130565D01*
X166590381Y-50130561D01*
X166469437Y-49968597D01*
X166469433Y-49968593D01*
X166466651Y-49964867D01*
X166442623Y-49942655D01*
X166339226Y-49847077D01*
X166311381Y-49821337D01*
X166304752Y-49817154D01*
X166196202Y-49748664D01*
X166132554Y-49708505D01*
X166094986Y-49693517D01*
X165940490Y-49631879D01*
X165940485Y-49631878D01*
X165936160Y-49630152D01*
X165931593Y-49629244D01*
X165931591Y-49629243D01*
X165733335Y-49589808D01*
X165728775Y-49588901D01*
X165724124Y-49588840D01*
X165724123Y-49588840D01*
X165616262Y-49587428D01*
X165517346Y-49586133D01*
X165308953Y-49621941D01*
X165110575Y-49695127D01*
X165106578Y-49697505D01*
X164932847Y-49800863D01*
X164932842Y-49800866D01*
X164928856Y-49803238D01*
X164769881Y-49942655D01*
X164767006Y-49946302D01*
X164767004Y-49946304D01*
X164670509Y-50068708D01*
X164638976Y-50108708D01*
X164636812Y-50112820D01*
X164636810Y-50112824D01*
X164589749Y-50202272D01*
X164540523Y-50295836D01*
X164477820Y-50497773D01*
X164452967Y-50707754D01*
X164220651Y-50707754D01*
X164204507Y-50532074D01*
X164204507Y-50532072D01*
X164204081Y-50527440D01*
X164202818Y-50522961D01*
X164147949Y-50328408D01*
X164147948Y-50328404D01*
X164146686Y-50323931D01*
X164053165Y-50134290D01*
X164050384Y-50130565D01*
X164050381Y-50130561D01*
X163929437Y-49968597D01*
X163929433Y-49968593D01*
X163926651Y-49964867D01*
X163902623Y-49942655D01*
X163799226Y-49847077D01*
X163771381Y-49821337D01*
X163764752Y-49817154D01*
X163656202Y-49748664D01*
X163592554Y-49708505D01*
X163554986Y-49693517D01*
X163400490Y-49631879D01*
X163400485Y-49631878D01*
X163396160Y-49630152D01*
X163391593Y-49629244D01*
X163391591Y-49629243D01*
X163193335Y-49589808D01*
X163188775Y-49588901D01*
X163184124Y-49588840D01*
X163184123Y-49588840D01*
X163076262Y-49587428D01*
X162977346Y-49586133D01*
X162768953Y-49621941D01*
X162570575Y-49695127D01*
X162566578Y-49697505D01*
X162392847Y-49800863D01*
X162392842Y-49800866D01*
X162388856Y-49803238D01*
X162229881Y-49942655D01*
X162227006Y-49946302D01*
X162227004Y-49946304D01*
X162130509Y-50068708D01*
X162098976Y-50108708D01*
X162096812Y-50112820D01*
X162096810Y-50112824D01*
X162017433Y-50263695D01*
X162000523Y-50295836D01*
X161999691Y-50295398D01*
X161961810Y-50339747D01*
X161900813Y-50354388D01*
X161842858Y-50330379D01*
X161815699Y-50293674D01*
X161730572Y-50097894D01*
X161726648Y-50090578D01*
X161609882Y-49910085D01*
X161604811Y-49903499D01*
X161460138Y-49744506D01*
X161454052Y-49738831D01*
X161285348Y-49605597D01*
X161278439Y-49601006D01*
X161090224Y-49497106D01*
X161082661Y-49493707D01*
X160880013Y-49421945D01*
X160871981Y-49419823D01*
X160797828Y-49406614D01*
X160784282Y-49408494D01*
X160783851Y-49408909D01*
X160782000Y-49416304D01*
X160782000Y-52058556D01*
X160274000Y-52058556D01*
X160274000Y-49419063D01*
X160269774Y-49406057D01*
X160268748Y-49405312D01*
X160262257Y-49404784D01*
X160216328Y-49411813D01*
X160208244Y-49413739D01*
X160003913Y-49480524D01*
X159996258Y-49483741D01*
X159805560Y-49583012D01*
X159798549Y-49587428D01*
X159626626Y-49716511D01*
X159620423Y-49722019D01*
X159471900Y-49877439D01*
X159466669Y-49883899D01*
X159345527Y-50061486D01*
X159341424Y-50068708D01*
X159250915Y-50263695D01*
X159248045Y-50271496D01*
X159244584Y-50283975D01*
X159209960Y-50336285D01*
X159151202Y-50358252D01*
X159090753Y-50341488D01*
X159055743Y-50301741D01*
X158975222Y-50138462D01*
X158973165Y-50134290D01*
X158970384Y-50130565D01*
X158970381Y-50130561D01*
X158849437Y-49968597D01*
X158849433Y-49968593D01*
X158846651Y-49964867D01*
X158822623Y-49942655D01*
X158719226Y-49847077D01*
X158691381Y-49821337D01*
X158684752Y-49817154D01*
X158576202Y-49748664D01*
X158512554Y-49708505D01*
X158474986Y-49693517D01*
X158320490Y-49631879D01*
X158320485Y-49631878D01*
X158316160Y-49630152D01*
X158311593Y-49629244D01*
X158311591Y-49629243D01*
X158113335Y-49589808D01*
X158108775Y-49588901D01*
X158104124Y-49588840D01*
X158104123Y-49588840D01*
X157996262Y-49587428D01*
X157897346Y-49586133D01*
X157688953Y-49621941D01*
X157490575Y-49695127D01*
X157486578Y-49697505D01*
X157312847Y-49800863D01*
X157312842Y-49800866D01*
X157308856Y-49803238D01*
X157149881Y-49942655D01*
X157147006Y-49946302D01*
X157147004Y-49946304D01*
X157050509Y-50068708D01*
X157018976Y-50108708D01*
X157016812Y-50112820D01*
X157016810Y-50112824D01*
X156969749Y-50202272D01*
X156920523Y-50295836D01*
X156857820Y-50497773D01*
X156832967Y-50707754D01*
X156598500Y-50707754D01*
X156598500Y-49843354D01*
X156595382Y-49817154D01*
X156592293Y-49810199D01*
X156553743Y-49723410D01*
X156553742Y-49723408D01*
X156549939Y-49714847D01*
X156543309Y-49708229D01*
X156543308Y-49708227D01*
X156477346Y-49642380D01*
X156477345Y-49642379D01*
X156470713Y-49635759D01*
X156392104Y-49601006D01*
X156375312Y-49593582D01*
X156368327Y-49590494D01*
X156352455Y-49588644D01*
X156345573Y-49587841D01*
X156345569Y-49587841D01*
X156342646Y-49587500D01*
X154553354Y-49587500D01*
X154527154Y-49590618D01*
X154520201Y-49593707D01*
X154520199Y-49593707D01*
X154433410Y-49632257D01*
X154433408Y-49632258D01*
X154424847Y-49636061D01*
X154418229Y-49642691D01*
X154418227Y-49642692D01*
X154352529Y-49708505D01*
X154345759Y-49715287D01*
X154300494Y-49817673D01*
X154297500Y-49843354D01*
X154297500Y-51632646D01*
X134528048Y-51632646D01*
X134534626Y-51627867D01*
X134565989Y-51622900D01*
X145382578Y-51622900D01*
X145392480Y-51623384D01*
X145399167Y-51624039D01*
X145408168Y-51626646D01*
X145447045Y-51623279D01*
X145455803Y-51622900D01*
X145465948Y-51622900D01*
X145473691Y-51621458D01*
X145483518Y-51620120D01*
X145519696Y-51616987D01*
X145528117Y-51612871D01*
X145533573Y-51611358D01*
X145538841Y-51609325D01*
X145548053Y-51607609D01*
X145578971Y-51588551D01*
X145587656Y-51583767D01*
X145611851Y-51571940D01*
X145620269Y-51567825D01*
X145626641Y-51560956D01*
X145631179Y-51557586D01*
X145635370Y-51553786D01*
X145643348Y-51548868D01*
X145665333Y-51519956D01*
X145671702Y-51512380D01*
X145696401Y-51485754D01*
X145699873Y-51477052D01*
X145702892Y-51472276D01*
X145705435Y-51467219D01*
X145711108Y-51459759D01*
X145721207Y-51424884D01*
X145724428Y-51415502D01*
X145728979Y-51404096D01*
X145737883Y-51381778D01*
X145738500Y-51375485D01*
X145738500Y-51373736D01*
X145738756Y-51370242D01*
X145739639Y-51361235D01*
X145742246Y-51352232D01*
X145738879Y-51313355D01*
X145738500Y-51304597D01*
X145738500Y-49268611D01*
X182767394Y-49268611D01*
X182785999Y-49437135D01*
X182844266Y-49596356D01*
X182847679Y-49601435D01*
X182929945Y-49723860D01*
X182938830Y-49737083D01*
X183064233Y-49851191D01*
X183069606Y-49854108D01*
X183069607Y-49854109D01*
X183112576Y-49877439D01*
X183213235Y-49932092D01*
X183377233Y-49975116D01*
X183447476Y-49976219D01*
X183540639Y-49977683D01*
X183540640Y-49977683D01*
X183546760Y-49977779D01*
X183638425Y-49956785D01*
X183706066Y-49941294D01*
X183706068Y-49941293D01*
X183712029Y-49939928D01*
X183787238Y-49902102D01*
X183858035Y-49866495D01*
X183858037Y-49866493D01*
X183863498Y-49863747D01*
X183992423Y-49753634D01*
X184091361Y-49615947D01*
X184154601Y-49458634D01*
X184161265Y-49411813D01*
X184178020Y-49294081D01*
X184178020Y-49294080D01*
X184178490Y-49290778D01*
X184178645Y-49276000D01*
X184177018Y-49262550D01*
X184170853Y-49211613D01*
X184158276Y-49107680D01*
X184098345Y-48949077D01*
X184093857Y-48942547D01*
X184005777Y-48814390D01*
X184005775Y-48814388D01*
X184002312Y-48809349D01*
X183997749Y-48805284D01*
X183997746Y-48805280D01*
X183924224Y-48739775D01*
X183875721Y-48696560D01*
X183764382Y-48637609D01*
X183731289Y-48620087D01*
X183731286Y-48620086D01*
X183725881Y-48617224D01*
X183719950Y-48615734D01*
X183719947Y-48615733D01*
X183632492Y-48593766D01*
X183561441Y-48575919D01*
X183514522Y-48575673D01*
X183398014Y-48575063D01*
X183391895Y-48575031D01*
X183385944Y-48576460D01*
X183385942Y-48576460D01*
X183232982Y-48613183D01*
X183232978Y-48613184D01*
X183227032Y-48614612D01*
X183221598Y-48617416D01*
X183221597Y-48617417D01*
X183190178Y-48633634D01*
X183076369Y-48692375D01*
X183071757Y-48696398D01*
X183071756Y-48696399D01*
X182953216Y-48799807D01*
X182953213Y-48799810D01*
X182948604Y-48803831D01*
X182851113Y-48942547D01*
X182789524Y-49100513D01*
X182767394Y-49268611D01*
X145738500Y-49268611D01*
X145738500Y-48148611D01*
X178407394Y-48148611D01*
X178425999Y-48317135D01*
X178484266Y-48476356D01*
X178487679Y-48481435D01*
X178566765Y-48599128D01*
X178578830Y-48617083D01*
X178704233Y-48731191D01*
X178709606Y-48734108D01*
X178709607Y-48734109D01*
X178830609Y-48799807D01*
X178853235Y-48812092D01*
X179017233Y-48855116D01*
X179087476Y-48856219D01*
X179180639Y-48857683D01*
X179180640Y-48857683D01*
X179186760Y-48857779D01*
X179278425Y-48836785D01*
X179346066Y-48821294D01*
X179346068Y-48821293D01*
X179352029Y-48819928D01*
X179427238Y-48782102D01*
X179498035Y-48746495D01*
X179498037Y-48746493D01*
X179503498Y-48743747D01*
X179632423Y-48633634D01*
X179731361Y-48495947D01*
X179794601Y-48338634D01*
X179806631Y-48254109D01*
X179818020Y-48174081D01*
X179818020Y-48174080D01*
X179818490Y-48170778D01*
X179818645Y-48156000D01*
X179817758Y-48148664D01*
X179806249Y-48053563D01*
X179798276Y-47987680D01*
X179738345Y-47829077D01*
X179733857Y-47822547D01*
X179645777Y-47694390D01*
X179645775Y-47694388D01*
X179642312Y-47689349D01*
X179637749Y-47685284D01*
X179637746Y-47685280D01*
X179570049Y-47624965D01*
X179515721Y-47576560D01*
X179453505Y-47543618D01*
X179371289Y-47500087D01*
X179371286Y-47500086D01*
X179365881Y-47497224D01*
X179359950Y-47495734D01*
X179359947Y-47495733D01*
X179284048Y-47476669D01*
X179201441Y-47455919D01*
X179154522Y-47455673D01*
X179038014Y-47455063D01*
X179031895Y-47455031D01*
X179025944Y-47456460D01*
X179025942Y-47456460D01*
X178872982Y-47493183D01*
X178872978Y-47493184D01*
X178867032Y-47494612D01*
X178861598Y-47497416D01*
X178861597Y-47497417D01*
X178816885Y-47520495D01*
X178716369Y-47572375D01*
X178711757Y-47576398D01*
X178711756Y-47576399D01*
X178593216Y-47679807D01*
X178593213Y-47679810D01*
X178588604Y-47683831D01*
X178491113Y-47822547D01*
X178488891Y-47828246D01*
X178432560Y-47972727D01*
X178429524Y-47980513D01*
X178407394Y-48148611D01*
X145738500Y-48148611D01*
X145738500Y-47411943D01*
X154100844Y-47411943D01*
X154101039Y-47413171D01*
X154105282Y-47418162D01*
X154218185Y-47500946D01*
X154224550Y-47504923D01*
X154455703Y-47626538D01*
X154462598Y-47629536D01*
X154709192Y-47715651D01*
X154716438Y-47717592D01*
X154973053Y-47766312D01*
X154980521Y-47767163D01*
X155241518Y-47777418D01*
X155249013Y-47777157D01*
X155508662Y-47748720D01*
X155516051Y-47747350D01*
X155768626Y-47680852D01*
X155775749Y-47678400D01*
X156015724Y-47575299D01*
X156022379Y-47571835D01*
X156244501Y-47434381D01*
X156250564Y-47429976D01*
X156258118Y-47423581D01*
X156265312Y-47411955D01*
X156265079Y-47408817D01*
X156263238Y-47406048D01*
X156135801Y-47278611D01*
X190807394Y-47278611D01*
X190825999Y-47447135D01*
X190884266Y-47606356D01*
X190899842Y-47629536D01*
X190957709Y-47715651D01*
X190978830Y-47747083D01*
X191104233Y-47861191D01*
X191109606Y-47864108D01*
X191109607Y-47864109D01*
X191247855Y-47939171D01*
X191253235Y-47942092D01*
X191417233Y-47985116D01*
X191487476Y-47986219D01*
X191580639Y-47987683D01*
X191580640Y-47987683D01*
X191586760Y-47987779D01*
X191678425Y-47966785D01*
X191746066Y-47951294D01*
X191746068Y-47951293D01*
X191752029Y-47949928D01*
X191827238Y-47912102D01*
X191898035Y-47876495D01*
X191898037Y-47876493D01*
X191903498Y-47873747D01*
X192032423Y-47763634D01*
X192100704Y-47668611D01*
X194107394Y-47668611D01*
X194125999Y-47837135D01*
X194184266Y-47996356D01*
X194187679Y-48001435D01*
X194221441Y-48051678D01*
X194278830Y-48137083D01*
X194404233Y-48251191D01*
X194409606Y-48254108D01*
X194409607Y-48254109D01*
X194444826Y-48273231D01*
X194553235Y-48332092D01*
X194717233Y-48375116D01*
X194787476Y-48376219D01*
X194880639Y-48377683D01*
X194880640Y-48377683D01*
X194886760Y-48377779D01*
X194978425Y-48356785D01*
X195046066Y-48341294D01*
X195046068Y-48341293D01*
X195052029Y-48339928D01*
X195127238Y-48302102D01*
X195198035Y-48266495D01*
X195198037Y-48266493D01*
X195203498Y-48263747D01*
X195332423Y-48153634D01*
X195405686Y-48051678D01*
X195427790Y-48020917D01*
X195427791Y-48020915D01*
X195431361Y-48015947D01*
X195494601Y-47858634D01*
X195518490Y-47690778D01*
X195518645Y-47676000D01*
X195517018Y-47662550D01*
X195508713Y-47593928D01*
X195498276Y-47507680D01*
X195438345Y-47349077D01*
X195433857Y-47342547D01*
X195345777Y-47214390D01*
X195345775Y-47214388D01*
X195342312Y-47209349D01*
X195337749Y-47205284D01*
X195337746Y-47205280D01*
X195238186Y-47116576D01*
X195215721Y-47096560D01*
X195121784Y-47046823D01*
X195071289Y-47020087D01*
X195071286Y-47020086D01*
X195065881Y-47017224D01*
X195059950Y-47015734D01*
X195059947Y-47015733D01*
X194984048Y-46996669D01*
X194901441Y-46975919D01*
X194854522Y-46975673D01*
X194738014Y-46975063D01*
X194731895Y-46975031D01*
X194725944Y-46976460D01*
X194725942Y-46976460D01*
X194572982Y-47013183D01*
X194572978Y-47013184D01*
X194567032Y-47014612D01*
X194561598Y-47017416D01*
X194561597Y-47017417D01*
X194504586Y-47046843D01*
X194416369Y-47092375D01*
X194411757Y-47096398D01*
X194411756Y-47096399D01*
X194293216Y-47199807D01*
X194293213Y-47199810D01*
X194288604Y-47203831D01*
X194191113Y-47342547D01*
X194188891Y-47348246D01*
X194152706Y-47441056D01*
X194129524Y-47500513D01*
X194107394Y-47668611D01*
X192100704Y-47668611D01*
X192105059Y-47662550D01*
X192127790Y-47630917D01*
X192127791Y-47630915D01*
X192131361Y-47625947D01*
X192194601Y-47468634D01*
X192196533Y-47455063D01*
X192218020Y-47304081D01*
X192218020Y-47304080D01*
X192218490Y-47300778D01*
X192218645Y-47286000D01*
X192217018Y-47272550D01*
X192208214Y-47199807D01*
X192198276Y-47117680D01*
X192138345Y-46959077D01*
X192130788Y-46948081D01*
X192113283Y-46922611D01*
X198364394Y-46922611D01*
X198382999Y-47091135D01*
X198441266Y-47250356D01*
X198444679Y-47255435D01*
X198499852Y-47337541D01*
X198535830Y-47391083D01*
X198661233Y-47505191D01*
X198666606Y-47508108D01*
X198666607Y-47508109D01*
X198792679Y-47576560D01*
X198810235Y-47586092D01*
X198974233Y-47629116D01*
X199044476Y-47630219D01*
X199137639Y-47631683D01*
X199137640Y-47631683D01*
X199143760Y-47631779D01*
X199254765Y-47606356D01*
X199303066Y-47595294D01*
X199303068Y-47595293D01*
X199309029Y-47593928D01*
X199384238Y-47556102D01*
X199455035Y-47520495D01*
X199455037Y-47520493D01*
X199460498Y-47517747D01*
X199584378Y-47411943D01*
X210774844Y-47411943D01*
X210775039Y-47413171D01*
X210779282Y-47418162D01*
X210892185Y-47500946D01*
X210898550Y-47504923D01*
X211129703Y-47626538D01*
X211136598Y-47629536D01*
X211383192Y-47715651D01*
X211390438Y-47717592D01*
X211647053Y-47766312D01*
X211654521Y-47767163D01*
X211915518Y-47777418D01*
X211923013Y-47777157D01*
X212182662Y-47748720D01*
X212190051Y-47747350D01*
X212442626Y-47680852D01*
X212449749Y-47678400D01*
X212689724Y-47575299D01*
X212696379Y-47571835D01*
X212918501Y-47434381D01*
X212924564Y-47429976D01*
X212932118Y-47423581D01*
X212939312Y-47411955D01*
X212939079Y-47408817D01*
X212937238Y-47406048D01*
X211867368Y-46336178D01*
X211855182Y-46329969D01*
X211850024Y-46330786D01*
X210781053Y-47399757D01*
X210774844Y-47411943D01*
X199584378Y-47411943D01*
X199589423Y-47407634D01*
X199668604Y-47297442D01*
X199684790Y-47274917D01*
X199684791Y-47274915D01*
X199688361Y-47269947D01*
X199751601Y-47112634D01*
X199771185Y-46975031D01*
X199775020Y-46948081D01*
X199775020Y-46948080D01*
X199775490Y-46944778D01*
X199775645Y-46930000D01*
X199774018Y-46916550D01*
X199767853Y-46865613D01*
X199755276Y-46761680D01*
X199695345Y-46603077D01*
X199690857Y-46596547D01*
X199602777Y-46468390D01*
X199602775Y-46468388D01*
X199599312Y-46463349D01*
X199594749Y-46459284D01*
X199594746Y-46459280D01*
X199527049Y-46398965D01*
X199472721Y-46350560D01*
X199410505Y-46317618D01*
X199328289Y-46274087D01*
X199328286Y-46274086D01*
X199322881Y-46271224D01*
X199316950Y-46269734D01*
X199316947Y-46269733D01*
X199241048Y-46250669D01*
X199158441Y-46229919D01*
X199111522Y-46229673D01*
X198995014Y-46229063D01*
X198988895Y-46229031D01*
X198982944Y-46230460D01*
X198982942Y-46230460D01*
X198829982Y-46267183D01*
X198829978Y-46267184D01*
X198824032Y-46268612D01*
X198818598Y-46271416D01*
X198818597Y-46271417D01*
X198703764Y-46330687D01*
X198673369Y-46346375D01*
X198668757Y-46350398D01*
X198668756Y-46350399D01*
X198550216Y-46453807D01*
X198550213Y-46453810D01*
X198545604Y-46457831D01*
X198477340Y-46554961D01*
X198453319Y-46589140D01*
X198448113Y-46596547D01*
X198445891Y-46602246D01*
X198403635Y-46710627D01*
X198386524Y-46754513D01*
X198364394Y-46922611D01*
X192113283Y-46922611D01*
X192045777Y-46824390D01*
X192045775Y-46824388D01*
X192042312Y-46819349D01*
X192037749Y-46815284D01*
X192037746Y-46815280D01*
X191963148Y-46748816D01*
X191915721Y-46706560D01*
X191853505Y-46673618D01*
X191771289Y-46630087D01*
X191771286Y-46630086D01*
X191765881Y-46627224D01*
X191759950Y-46625734D01*
X191759947Y-46625733D01*
X191669749Y-46603077D01*
X191601441Y-46585919D01*
X191554522Y-46585673D01*
X191438014Y-46585063D01*
X191431895Y-46585031D01*
X191425944Y-46586460D01*
X191425942Y-46586460D01*
X191272982Y-46623183D01*
X191272978Y-46623184D01*
X191267032Y-46624612D01*
X191261598Y-46627416D01*
X191261597Y-46627417D01*
X191121953Y-46699493D01*
X191116369Y-46702375D01*
X191111757Y-46706398D01*
X191111756Y-46706399D01*
X190993216Y-46809807D01*
X190993213Y-46809810D01*
X190988604Y-46813831D01*
X190979145Y-46827290D01*
X190897975Y-46942784D01*
X190891113Y-46952547D01*
X190888891Y-46958246D01*
X190836080Y-47093699D01*
X190829524Y-47110513D01*
X190807394Y-47278611D01*
X156135801Y-47278611D01*
X155193368Y-46336178D01*
X155181182Y-46329969D01*
X155176024Y-46330786D01*
X154107053Y-47399757D01*
X154100844Y-47411943D01*
X145738500Y-47411943D01*
X145738500Y-45921901D01*
X153369732Y-45921901D01*
X153382263Y-46182793D01*
X153383179Y-46190252D01*
X153434137Y-46446430D01*
X153436145Y-46453670D01*
X153524404Y-46699493D01*
X153527462Y-46706362D01*
X153651087Y-46936439D01*
X153655128Y-46942784D01*
X153726940Y-47038950D01*
X153738108Y-47046843D01*
X153739591Y-47046823D01*
X153744816Y-47043574D01*
X154811422Y-45976968D01*
X154816797Y-45966418D01*
X155546369Y-45966418D01*
X155547186Y-45971576D01*
X156619538Y-47043928D01*
X156631496Y-47050021D01*
X156638196Y-47043962D01*
X156773319Y-46833891D01*
X156776903Y-46827290D01*
X156884181Y-46589140D01*
X156886751Y-46582078D01*
X156957651Y-46330687D01*
X156959146Y-46323342D01*
X156992264Y-46063014D01*
X156992652Y-46057937D01*
X156995003Y-45968152D01*
X156994881Y-45963058D01*
X156975434Y-45701370D01*
X156974323Y-45693933D01*
X156916677Y-45439179D01*
X156914484Y-45432005D01*
X156835389Y-45228611D01*
X186847394Y-45228611D01*
X186865999Y-45397135D01*
X186924266Y-45556356D01*
X186927679Y-45561435D01*
X186954421Y-45601231D01*
X187018830Y-45697083D01*
X187144233Y-45811191D01*
X187149606Y-45814108D01*
X187149607Y-45814109D01*
X187287855Y-45889171D01*
X187293235Y-45892092D01*
X187457233Y-45935116D01*
X187527476Y-45936219D01*
X187620639Y-45937683D01*
X187620640Y-45937683D01*
X187626760Y-45937779D01*
X187696088Y-45921901D01*
X210043732Y-45921901D01*
X210056263Y-46182793D01*
X210057179Y-46190252D01*
X210108137Y-46446430D01*
X210110145Y-46453670D01*
X210198404Y-46699493D01*
X210201462Y-46706362D01*
X210325087Y-46936439D01*
X210329128Y-46942784D01*
X210400940Y-47038950D01*
X210412108Y-47046843D01*
X210413591Y-47046823D01*
X210418816Y-47043574D01*
X211485422Y-45976968D01*
X211490797Y-45966418D01*
X212220369Y-45966418D01*
X212221186Y-45971576D01*
X213293538Y-47043928D01*
X213305496Y-47050021D01*
X213312196Y-47043962D01*
X213447319Y-46833891D01*
X213450903Y-46827290D01*
X213558181Y-46589140D01*
X213560751Y-46582078D01*
X213631651Y-46330687D01*
X213633146Y-46323342D01*
X213666264Y-46063014D01*
X213666652Y-46057937D01*
X213669003Y-45968152D01*
X213668881Y-45963058D01*
X213649434Y-45701370D01*
X213648323Y-45693933D01*
X213590677Y-45439179D01*
X213588484Y-45432005D01*
X213493816Y-45188565D01*
X213490580Y-45181780D01*
X213360974Y-44955017D01*
X213356771Y-44948785D01*
X213311733Y-44891656D01*
X213300362Y-44884058D01*
X213298166Y-44884144D01*
X213293997Y-44886813D01*
X212226578Y-45954232D01*
X212220369Y-45966418D01*
X211490797Y-45966418D01*
X211491631Y-45964782D01*
X211490814Y-45959624D01*
X210420372Y-44889182D01*
X210408186Y-44882973D01*
X210405313Y-44883428D01*
X210402397Y-44885759D01*
X210382366Y-44909842D01*
X210377994Y-44915972D01*
X210242501Y-45139257D01*
X210239083Y-45145964D01*
X210138080Y-45386830D01*
X210135696Y-45393953D01*
X210071401Y-45647117D01*
X210070098Y-45654510D01*
X210043928Y-45914391D01*
X210043732Y-45921901D01*
X187696088Y-45921901D01*
X187728879Y-45914391D01*
X187786066Y-45901294D01*
X187786068Y-45901293D01*
X187792029Y-45899928D01*
X187867238Y-45862102D01*
X187938035Y-45826495D01*
X187938037Y-45826493D01*
X187943498Y-45823747D01*
X188072423Y-45713634D01*
X188171361Y-45575947D01*
X188234601Y-45418634D01*
X188258490Y-45250778D01*
X188258645Y-45236000D01*
X188257018Y-45222550D01*
X188246938Y-45139257D01*
X188238276Y-45067680D01*
X188178345Y-44909077D01*
X188173857Y-44902547D01*
X188085777Y-44774390D01*
X188085775Y-44774388D01*
X188082312Y-44769349D01*
X188077749Y-44765284D01*
X188077746Y-44765280D01*
X187997581Y-44693856D01*
X187955721Y-44656560D01*
X187825495Y-44587609D01*
X187811289Y-44580087D01*
X187811286Y-44580086D01*
X187805881Y-44577224D01*
X187799950Y-44575734D01*
X187799947Y-44575733D01*
X187721919Y-44556134D01*
X187641441Y-44535919D01*
X187594522Y-44535673D01*
X187478014Y-44535063D01*
X187471895Y-44535031D01*
X187465944Y-44536460D01*
X187465942Y-44536460D01*
X187312982Y-44573183D01*
X187312978Y-44573184D01*
X187307032Y-44574612D01*
X187301598Y-44577416D01*
X187301597Y-44577417D01*
X187281851Y-44587609D01*
X187156369Y-44652375D01*
X187151757Y-44656398D01*
X187151756Y-44656399D01*
X187033216Y-44759807D01*
X187033213Y-44759810D01*
X187028604Y-44763831D01*
X186931113Y-44902547D01*
X186928891Y-44908246D01*
X186878525Y-45037428D01*
X186869524Y-45060513D01*
X186847394Y-45228611D01*
X156835389Y-45228611D01*
X156819816Y-45188565D01*
X156816580Y-45181780D01*
X156686974Y-44955017D01*
X156682771Y-44948785D01*
X156637733Y-44891656D01*
X156626362Y-44884058D01*
X156624166Y-44884144D01*
X156619997Y-44886813D01*
X155552578Y-45954232D01*
X155546369Y-45966418D01*
X154816797Y-45966418D01*
X154817631Y-45964782D01*
X154816814Y-45959624D01*
X153746372Y-44889182D01*
X153734186Y-44882973D01*
X153731313Y-44883428D01*
X153728397Y-44885759D01*
X153708366Y-44909842D01*
X153703994Y-44915972D01*
X153568501Y-45139257D01*
X153565083Y-45145964D01*
X153464080Y-45386830D01*
X153461696Y-45393953D01*
X153397401Y-45647117D01*
X153396098Y-45654510D01*
X153369928Y-45914391D01*
X153369732Y-45921901D01*
X145738500Y-45921901D01*
X145738500Y-44519242D01*
X154098045Y-44519242D01*
X154102460Y-44526850D01*
X155170632Y-45595022D01*
X155182818Y-45601231D01*
X155187976Y-45600414D01*
X156257793Y-44530597D01*
X156264002Y-44518411D01*
X156263920Y-44517893D01*
X156258828Y-44512061D01*
X156105298Y-44405553D01*
X156098826Y-44401741D01*
X155864561Y-44286215D01*
X155857604Y-44283404D01*
X155608845Y-44203775D01*
X155601530Y-44202019D01*
X155343741Y-44160035D01*
X155336247Y-44159380D01*
X155075086Y-44155961D01*
X155067581Y-44156420D01*
X154808774Y-44191642D01*
X154801426Y-44193204D01*
X154550664Y-44266295D01*
X154543634Y-44268923D01*
X154306423Y-44378278D01*
X154299857Y-44381917D01*
X154106533Y-44508667D01*
X154098045Y-44519242D01*
X145738500Y-44519242D01*
X145738500Y-43688611D01*
X182007394Y-43688611D01*
X182025999Y-43857135D01*
X182084266Y-44016356D01*
X182087679Y-44021435D01*
X182156654Y-44124081D01*
X182178830Y-44157083D01*
X182304233Y-44271191D01*
X182309606Y-44274108D01*
X182309607Y-44274109D01*
X182336359Y-44288634D01*
X182453235Y-44352092D01*
X182617233Y-44395116D01*
X182687476Y-44396219D01*
X182780639Y-44397683D01*
X182780640Y-44397683D01*
X182786760Y-44397779D01*
X182898494Y-44372189D01*
X182925033Y-44366111D01*
X190509894Y-44366111D01*
X190528499Y-44534635D01*
X190586766Y-44693856D01*
X190590179Y-44698935D01*
X190663319Y-44807779D01*
X190681330Y-44834583D01*
X190806733Y-44948691D01*
X190812106Y-44951608D01*
X190812107Y-44951609D01*
X190950355Y-45026671D01*
X190955735Y-45029592D01*
X191119733Y-45072616D01*
X191189976Y-45073719D01*
X191283139Y-45075183D01*
X191283140Y-45075183D01*
X191289260Y-45075279D01*
X191380925Y-45054285D01*
X191448566Y-45038794D01*
X191448568Y-45038793D01*
X191454529Y-45037428D01*
X191529738Y-44999602D01*
X191600535Y-44963995D01*
X191600537Y-44963993D01*
X191605998Y-44961247D01*
X191734923Y-44851134D01*
X191796615Y-44765280D01*
X191830290Y-44718417D01*
X191830291Y-44718415D01*
X191833861Y-44713447D01*
X191897101Y-44556134D01*
X191900736Y-44530597D01*
X191920520Y-44391581D01*
X191920520Y-44391580D01*
X191920990Y-44388278D01*
X191921145Y-44373500D01*
X191919518Y-44360050D01*
X191913353Y-44309113D01*
X191900776Y-44205180D01*
X191860507Y-44098611D01*
X194237394Y-44098611D01*
X194255999Y-44267135D01*
X194314266Y-44426356D01*
X194317679Y-44431435D01*
X194401473Y-44556134D01*
X194408830Y-44567083D01*
X194534233Y-44681191D01*
X194539606Y-44684108D01*
X194539607Y-44684109D01*
X194602795Y-44718417D01*
X194683235Y-44762092D01*
X194847233Y-44805116D01*
X194917476Y-44806219D01*
X195010639Y-44807683D01*
X195010640Y-44807683D01*
X195016760Y-44807779D01*
X195108425Y-44786785D01*
X195176066Y-44771294D01*
X195176068Y-44771293D01*
X195182029Y-44769928D01*
X195294329Y-44713447D01*
X195328035Y-44696495D01*
X195328037Y-44696493D01*
X195333498Y-44693747D01*
X195462423Y-44583634D01*
X195508693Y-44519242D01*
X210772045Y-44519242D01*
X210776460Y-44526850D01*
X211844632Y-45595022D01*
X211856818Y-45601231D01*
X211861976Y-45600414D01*
X212931793Y-44530597D01*
X212938002Y-44518411D01*
X212937920Y-44517893D01*
X212932828Y-44512061D01*
X212779298Y-44405553D01*
X212772826Y-44401741D01*
X212538561Y-44286215D01*
X212531604Y-44283404D01*
X212282845Y-44203775D01*
X212275530Y-44202019D01*
X212017741Y-44160035D01*
X212010247Y-44159380D01*
X211749086Y-44155961D01*
X211741581Y-44156420D01*
X211482774Y-44191642D01*
X211475426Y-44193204D01*
X211224664Y-44266295D01*
X211217634Y-44268923D01*
X210980423Y-44378278D01*
X210973857Y-44381917D01*
X210780533Y-44508667D01*
X210772045Y-44519242D01*
X195508693Y-44519242D01*
X195561361Y-44445947D01*
X195624601Y-44288634D01*
X195627084Y-44271191D01*
X195648020Y-44124081D01*
X195648020Y-44124080D01*
X195648490Y-44120778D01*
X195648645Y-44106000D01*
X195647018Y-44092550D01*
X195637797Y-44016356D01*
X195628276Y-43937680D01*
X195568345Y-43779077D01*
X195563857Y-43772547D01*
X195475777Y-43644390D01*
X195475775Y-43644388D01*
X195472312Y-43639349D01*
X195467749Y-43635284D01*
X195467746Y-43635280D01*
X195442303Y-43612611D01*
X198284394Y-43612611D01*
X198302999Y-43781135D01*
X198361266Y-43940356D01*
X198364679Y-43945435D01*
X198432085Y-44045746D01*
X198455830Y-44081083D01*
X198581233Y-44195191D01*
X198586606Y-44198108D01*
X198586607Y-44198109D01*
X198724855Y-44273171D01*
X198730235Y-44276092D01*
X198894233Y-44319116D01*
X198964476Y-44320219D01*
X199057639Y-44321683D01*
X199057640Y-44321683D01*
X199063760Y-44321779D01*
X199155425Y-44300785D01*
X199223066Y-44285294D01*
X199223068Y-44285293D01*
X199229029Y-44283928D01*
X199304238Y-44246102D01*
X199375035Y-44210495D01*
X199375037Y-44210493D01*
X199380498Y-44207747D01*
X199509423Y-44097634D01*
X199608361Y-43959947D01*
X199671601Y-43802634D01*
X199673229Y-43791199D01*
X199695020Y-43638081D01*
X199695020Y-43638080D01*
X199695490Y-43634778D01*
X199695645Y-43620000D01*
X199694018Y-43606550D01*
X199687853Y-43555613D01*
X199675276Y-43451680D01*
X199615345Y-43293077D01*
X199610857Y-43286547D01*
X199522777Y-43158390D01*
X199522775Y-43158388D01*
X199519312Y-43153349D01*
X199514749Y-43149284D01*
X199514746Y-43149280D01*
X199447049Y-43088965D01*
X199392721Y-43040560D01*
X199311223Y-42997409D01*
X199248289Y-42964087D01*
X199248286Y-42964086D01*
X199242881Y-42961224D01*
X199236950Y-42959734D01*
X199236947Y-42959733D01*
X199161048Y-42940669D01*
X199078441Y-42919919D01*
X199031522Y-42919673D01*
X198915014Y-42919063D01*
X198908895Y-42919031D01*
X198902944Y-42920460D01*
X198902942Y-42920460D01*
X198749982Y-42957183D01*
X198749978Y-42957184D01*
X198744032Y-42958612D01*
X198738598Y-42961416D01*
X198738597Y-42961417D01*
X198670703Y-42996460D01*
X198593369Y-43036375D01*
X198588757Y-43040398D01*
X198588756Y-43040399D01*
X198470216Y-43143807D01*
X198470213Y-43143810D01*
X198465604Y-43147831D01*
X198368113Y-43286547D01*
X198365891Y-43292246D01*
X198321918Y-43405031D01*
X198306524Y-43444513D01*
X198284394Y-43612611D01*
X195442303Y-43612611D01*
X195400049Y-43574965D01*
X195345721Y-43526560D01*
X195283505Y-43493618D01*
X195201289Y-43450087D01*
X195201286Y-43450086D01*
X195195881Y-43447224D01*
X195189950Y-43445734D01*
X195189947Y-43445733D01*
X195114048Y-43426669D01*
X195031441Y-43405919D01*
X194984522Y-43405673D01*
X194868014Y-43405063D01*
X194861895Y-43405031D01*
X194855944Y-43406460D01*
X194855942Y-43406460D01*
X194702982Y-43443183D01*
X194702978Y-43443184D01*
X194697032Y-43444612D01*
X194691598Y-43447416D01*
X194691597Y-43447417D01*
X194671578Y-43457750D01*
X194546369Y-43522375D01*
X194541757Y-43526398D01*
X194541756Y-43526399D01*
X194423216Y-43629807D01*
X194423213Y-43629810D01*
X194418604Y-43633831D01*
X194321113Y-43772547D01*
X194318891Y-43778246D01*
X194272471Y-43897307D01*
X194259524Y-43930513D01*
X194237394Y-44098611D01*
X191860507Y-44098611D01*
X191840845Y-44046577D01*
X191833539Y-44035947D01*
X191748277Y-43911890D01*
X191748275Y-43911888D01*
X191744812Y-43906849D01*
X191740249Y-43902784D01*
X191740246Y-43902780D01*
X191627844Y-43802634D01*
X191618221Y-43794060D01*
X191556005Y-43761118D01*
X191473789Y-43717587D01*
X191473786Y-43717586D01*
X191468381Y-43714724D01*
X191462450Y-43713234D01*
X191462447Y-43713233D01*
X191364422Y-43688611D01*
X191303941Y-43673419D01*
X191257022Y-43673173D01*
X191140514Y-43672563D01*
X191134395Y-43672531D01*
X191128444Y-43673960D01*
X191128442Y-43673960D01*
X190975482Y-43710683D01*
X190975478Y-43710684D01*
X190969532Y-43712112D01*
X190964098Y-43714916D01*
X190964097Y-43714917D01*
X190824676Y-43786878D01*
X190818869Y-43789875D01*
X190814257Y-43793898D01*
X190814256Y-43793899D01*
X190695716Y-43897307D01*
X190695713Y-43897310D01*
X190691104Y-43901331D01*
X190593613Y-44040047D01*
X190591391Y-44045746D01*
X190547087Y-44159380D01*
X190532024Y-44198013D01*
X190509894Y-44366111D01*
X182925033Y-44366111D01*
X182946066Y-44361294D01*
X182946068Y-44361293D01*
X182952029Y-44359928D01*
X183033175Y-44319116D01*
X183098035Y-44286495D01*
X183098037Y-44286493D01*
X183103498Y-44283747D01*
X183232423Y-44173634D01*
X183331361Y-44035947D01*
X183394601Y-43878634D01*
X183406638Y-43794060D01*
X183418020Y-43714081D01*
X183418020Y-43714080D01*
X183418490Y-43710778D01*
X183418645Y-43696000D01*
X183417018Y-43682550D01*
X183407820Y-43606550D01*
X183398276Y-43527680D01*
X183338345Y-43369077D01*
X183333857Y-43362547D01*
X183245777Y-43234390D01*
X183245775Y-43234388D01*
X183242312Y-43229349D01*
X183237749Y-43225284D01*
X183237746Y-43225280D01*
X183152445Y-43149280D01*
X183115721Y-43116560D01*
X183053505Y-43083618D01*
X182971289Y-43040087D01*
X182971286Y-43040086D01*
X182965881Y-43037224D01*
X182959950Y-43035734D01*
X182959947Y-43035733D01*
X182884048Y-43016669D01*
X182801441Y-42995919D01*
X182754522Y-42995673D01*
X182638014Y-42995063D01*
X182631895Y-42995031D01*
X182625944Y-42996460D01*
X182625942Y-42996460D01*
X182472982Y-43033183D01*
X182472978Y-43033184D01*
X182467032Y-43034612D01*
X182461598Y-43037416D01*
X182461597Y-43037417D01*
X182455820Y-43040399D01*
X182316369Y-43112375D01*
X182311757Y-43116398D01*
X182311756Y-43116399D01*
X182193216Y-43219807D01*
X182193213Y-43219810D01*
X182188604Y-43223831D01*
X182091113Y-43362547D01*
X182088891Y-43368246D01*
X182053995Y-43457750D01*
X182029524Y-43520513D01*
X182007394Y-43688611D01*
X145738500Y-43688611D01*
X145738500Y-41602611D01*
X172304394Y-41602611D01*
X172322999Y-41771135D01*
X172381266Y-41930356D01*
X172384679Y-41935435D01*
X172467465Y-42058634D01*
X172475830Y-42071083D01*
X172601233Y-42185191D01*
X172606606Y-42188108D01*
X172606607Y-42188109D01*
X172744855Y-42263171D01*
X172750235Y-42266092D01*
X172914233Y-42309116D01*
X172984476Y-42310219D01*
X173077639Y-42311683D01*
X173077640Y-42311683D01*
X173083760Y-42311779D01*
X173175425Y-42290785D01*
X173243066Y-42275294D01*
X173243068Y-42275293D01*
X173249029Y-42273928D01*
X173354430Y-42220917D01*
X173395035Y-42200495D01*
X173395037Y-42200493D01*
X173400498Y-42197747D01*
X173529423Y-42087634D01*
X173628361Y-41949947D01*
X173661058Y-41868611D01*
X175467394Y-41868611D01*
X175485999Y-42037135D01*
X175544266Y-42196356D01*
X175547679Y-42201435D01*
X175621827Y-42311779D01*
X175638830Y-42337083D01*
X175764233Y-42451191D01*
X175769606Y-42454108D01*
X175769607Y-42454109D01*
X175907855Y-42529171D01*
X175913235Y-42532092D01*
X176077233Y-42575116D01*
X176147476Y-42576219D01*
X176240639Y-42577683D01*
X176240640Y-42577683D01*
X176246760Y-42577779D01*
X176338425Y-42556785D01*
X176406066Y-42541294D01*
X176406068Y-42541293D01*
X176412029Y-42539928D01*
X176487238Y-42502102D01*
X176558035Y-42466495D01*
X176558037Y-42466493D01*
X176563498Y-42463747D01*
X176692423Y-42353634D01*
X176748716Y-42275294D01*
X176787790Y-42220917D01*
X176787791Y-42220915D01*
X176791361Y-42215947D01*
X176854601Y-42058634D01*
X176872135Y-41935435D01*
X176878020Y-41894081D01*
X176878020Y-41894080D01*
X176878490Y-41890778D01*
X176878645Y-41876000D01*
X176877018Y-41862550D01*
X176869244Y-41798315D01*
X176858276Y-41707680D01*
X176798345Y-41549077D01*
X176793857Y-41542547D01*
X176705777Y-41414390D01*
X176705775Y-41414388D01*
X176702312Y-41409349D01*
X176697749Y-41405284D01*
X176697746Y-41405280D01*
X176630049Y-41344965D01*
X176575721Y-41296560D01*
X176513505Y-41263618D01*
X176431289Y-41220087D01*
X176431286Y-41220086D01*
X176425881Y-41217224D01*
X176419950Y-41215734D01*
X176419947Y-41215733D01*
X176344048Y-41196669D01*
X176261441Y-41175919D01*
X176214522Y-41175673D01*
X176098014Y-41175063D01*
X176091895Y-41175031D01*
X176085944Y-41176460D01*
X176085942Y-41176460D01*
X175932982Y-41213183D01*
X175932978Y-41213184D01*
X175927032Y-41214612D01*
X175921598Y-41217416D01*
X175921597Y-41217417D01*
X175794384Y-41283077D01*
X175776369Y-41292375D01*
X175771757Y-41296398D01*
X175771756Y-41296399D01*
X175653216Y-41399807D01*
X175653213Y-41399810D01*
X175648604Y-41403831D01*
X175551113Y-41542547D01*
X175548891Y-41548246D01*
X175526101Y-41606700D01*
X175489524Y-41700513D01*
X175467394Y-41868611D01*
X173661058Y-41868611D01*
X173691601Y-41792634D01*
X173715490Y-41624778D01*
X173715645Y-41610000D01*
X173714018Y-41596550D01*
X173706876Y-41537541D01*
X173695276Y-41441680D01*
X173635345Y-41283077D01*
X173630857Y-41276547D01*
X173542777Y-41148390D01*
X173542775Y-41148388D01*
X173539312Y-41143349D01*
X173534749Y-41139284D01*
X173534746Y-41139280D01*
X173444449Y-41058829D01*
X173412721Y-41030560D01*
X173298634Y-40970154D01*
X173268289Y-40954087D01*
X173268286Y-40954086D01*
X173262881Y-40951224D01*
X173256950Y-40949734D01*
X173256947Y-40949733D01*
X173157799Y-40924829D01*
X173098441Y-40909919D01*
X173051522Y-40909673D01*
X172935014Y-40909063D01*
X172928895Y-40909031D01*
X172922944Y-40910460D01*
X172922942Y-40910460D01*
X172769982Y-40947183D01*
X172769978Y-40947184D01*
X172764032Y-40948612D01*
X172758598Y-40951416D01*
X172758597Y-40951417D01*
X172629948Y-41017818D01*
X172613369Y-41026375D01*
X172608757Y-41030398D01*
X172608756Y-41030399D01*
X172490216Y-41133807D01*
X172490213Y-41133810D01*
X172485604Y-41137831D01*
X172388113Y-41276547D01*
X172385891Y-41282246D01*
X172337922Y-41405280D01*
X172326524Y-41434513D01*
X172304394Y-41602611D01*
X145738500Y-41602611D01*
X145738500Y-41208800D01*
X145757885Y-41149140D01*
X145808635Y-41112268D01*
X145840000Y-41107300D01*
X156656578Y-41107300D01*
X156666480Y-41107784D01*
X156673167Y-41108439D01*
X156682168Y-41111046D01*
X156721045Y-41107679D01*
X156729803Y-41107300D01*
X156739948Y-41107300D01*
X156747691Y-41105858D01*
X156757518Y-41104520D01*
X156793696Y-41101387D01*
X156802117Y-41097271D01*
X156807573Y-41095758D01*
X156812841Y-41093725D01*
X156822053Y-41092009D01*
X156852971Y-41072951D01*
X156861656Y-41068167D01*
X156885851Y-41056340D01*
X156894269Y-41052225D01*
X156900641Y-41045356D01*
X156905179Y-41041986D01*
X156909370Y-41038186D01*
X156917348Y-41033268D01*
X156939333Y-41004356D01*
X156945702Y-40996780D01*
X156970401Y-40970154D01*
X156973873Y-40961452D01*
X156976892Y-40956676D01*
X156979435Y-40951619D01*
X156985108Y-40944159D01*
X156993015Y-40916853D01*
X156995207Y-40909284D01*
X156998428Y-40899902D01*
X157002979Y-40888496D01*
X157011883Y-40866178D01*
X157012500Y-40859885D01*
X157012500Y-40858136D01*
X157012756Y-40854642D01*
X157013639Y-40845635D01*
X157016246Y-40836632D01*
X157012879Y-40797755D01*
X157012500Y-40788997D01*
X157012500Y-40208800D01*
X157031885Y-40149140D01*
X157082635Y-40112268D01*
X157114000Y-40107300D01*
X208182000Y-40107300D01*
X208241660Y-40126685D01*
G37*
G04 #@! TD.AperFunction*
M02*
