%TF.GenerationSoftware,KiCad,Pcbnew,(6.0.5)*%
%TF.CreationDate,2022-08-04T22:39:56-07:00*%
%TF.ProjectId,mainboard,6d61696e-626f-4617-9264-2e6b69636164,rev?*%
%TF.SameCoordinates,Original*%
%TF.FileFunction,Copper,L3,Inr*%
%TF.FilePolarity,Positive*%
%FSLAX46Y46*%
G04 Gerber Fmt 4.6, Leading zero omitted, Abs format (unit mm)*
G04 Created by KiCad (PCBNEW (6.0.5)) date 2022-08-04 22:39:56*
%MOMM*%
%LPD*%
G01*
G04 APERTURE LIST*
%TA.AperFunction,ComponentPad*%
%ADD10O,1.700000X1.700000*%
%TD*%
%TA.AperFunction,ComponentPad*%
%ADD11C,5.600000*%
%TD*%
%TA.AperFunction,ComponentPad*%
%ADD12C,2.006600*%
%TD*%
%TA.AperFunction,ComponentPad*%
%ADD13C,2.050000*%
%TD*%
%TA.AperFunction,ComponentPad*%
%ADD14C,2.250000*%
%TD*%
%TA.AperFunction,ComponentPad*%
%ADD15R,2.032000X2.032000*%
%TD*%
%TA.AperFunction,ComponentPad*%
%ADD16C,2.032000*%
%TD*%
%TA.AperFunction,ComponentPad*%
%ADD17O,1.000000X2.100000*%
%TD*%
%TA.AperFunction,ComponentPad*%
%ADD18O,1.000000X1.600000*%
%TD*%
%TA.AperFunction,ComponentPad*%
%ADD19R,1.308000X1.308000*%
%TD*%
%TA.AperFunction,ComponentPad*%
%ADD20C,1.308000*%
%TD*%
%TA.AperFunction,ComponentPad*%
%ADD21C,1.400000*%
%TD*%
%TA.AperFunction,ViaPad*%
%ADD22C,0.584200*%
%TD*%
%TA.AperFunction,ViaPad*%
%ADD23C,0.600000*%
%TD*%
%TA.AperFunction,Conductor*%
%ADD24C,0.271780*%
%TD*%
%TA.AperFunction,Conductor*%
%ADD25C,1.270000*%
%TD*%
%TA.AperFunction,Conductor*%
%ADD26C,0.279400*%
%TD*%
%TA.AperFunction,Conductor*%
%ADD27C,0.508000*%
%TD*%
%TA.AperFunction,Conductor*%
%ADD28C,0.304800*%
%TD*%
%TA.AperFunction,Conductor*%
%ADD29C,0.305000*%
%TD*%
%TA.AperFunction,Conductor*%
%ADD30C,0.762000*%
%TD*%
%TA.AperFunction,Conductor*%
%ADD31C,0.609600*%
%TD*%
%TA.AperFunction,Conductor*%
%ADD32C,0.293370*%
%TD*%
%TA.AperFunction,Conductor*%
%ADD33C,0.234950*%
%TD*%
%TA.AperFunction,Conductor*%
%ADD34C,0.271781*%
%TD*%
%TA.AperFunction,Conductor*%
%ADD35C,0.250000*%
%TD*%
%TA.AperFunction,Conductor*%
%ADD36C,1.905000*%
%TD*%
G04 APERTURE END LIST*
D10*
X132384800Y-105816400D03*
X132384800Y-108356400D03*
X132384800Y-110896400D03*
X132384800Y-113436400D03*
X132384800Y-115976400D03*
D11*
X107236100Y-57564100D03*
X103426100Y-143294100D03*
X183426100Y-143294100D03*
X180896100Y-57564100D03*
D12*
X156892300Y-67485096D03*
X156892300Y-59865096D03*
X167052300Y-67485096D03*
X174672300Y-59865096D03*
X174672300Y-67485096D03*
D13*
X104076500Y-108204000D03*
D14*
X101536500Y-105664000D03*
X106616500Y-105664000D03*
X106616500Y-110744000D03*
X101536500Y-110744000D03*
D13*
X103949500Y-130365500D03*
D14*
X106489500Y-127825500D03*
X101409500Y-132905500D03*
X106489500Y-132905500D03*
X101409500Y-127825500D03*
D13*
X104076500Y-119126000D03*
D14*
X101536500Y-116586000D03*
X101536500Y-121666000D03*
X106616500Y-121666000D03*
X106616500Y-116586000D03*
D15*
X173532800Y-80035400D03*
D16*
X173532800Y-83891000D03*
D15*
X139954000Y-79781400D03*
D16*
X139954000Y-83637000D03*
D17*
X143232000Y-59563000D03*
X151872000Y-59563000D03*
D18*
X151872000Y-55413000D03*
X143232000Y-55413000D03*
D19*
X182473600Y-83181200D03*
D20*
X182473600Y-81181200D03*
X182473600Y-79181200D03*
X182473600Y-77181200D03*
X182473600Y-75181200D03*
X182473600Y-73181200D03*
D19*
X174561500Y-122030500D03*
D20*
X174561500Y-120030500D03*
X174561500Y-118030500D03*
X174561500Y-116030500D03*
X174561500Y-114030500D03*
X174561500Y-112030500D03*
D19*
X183134000Y-109267000D03*
D20*
X183134000Y-107267000D03*
X183134000Y-105267000D03*
X183134000Y-103267000D03*
X183134000Y-101267000D03*
X183134000Y-99267000D03*
D19*
X152543500Y-139128500D03*
D20*
X154543500Y-139128500D03*
X156543500Y-139128500D03*
X158543500Y-139128500D03*
X160543500Y-139128500D03*
X162543500Y-139128500D03*
D19*
X104902000Y-70501500D03*
D20*
X104902000Y-72501500D03*
X104902000Y-74501500D03*
X104902000Y-76501500D03*
X104902000Y-78501500D03*
X104902000Y-80501500D03*
D19*
X115446800Y-83312000D03*
D20*
X117446800Y-83312000D03*
X119446800Y-83312000D03*
X121446800Y-83312000D03*
X123446800Y-83312000D03*
X125446800Y-83312000D03*
D19*
X125396000Y-64820800D03*
D20*
X123396000Y-64820800D03*
X121396000Y-64820800D03*
X119396000Y-64820800D03*
X117396000Y-64820800D03*
X115396000Y-64820800D03*
D19*
X104902000Y-87075000D03*
D20*
X104902000Y-89075000D03*
X104902000Y-91075000D03*
X104902000Y-93075000D03*
X104902000Y-95075000D03*
X104902000Y-97075000D03*
D15*
X139903200Y-72263000D03*
D16*
X139903200Y-76118600D03*
D15*
X173532800Y-72771000D03*
D16*
X173532800Y-76626600D03*
D21*
X152146000Y-70231000D03*
X154686000Y-70231000D03*
X157226000Y-70231000D03*
X159766000Y-70231000D03*
X162306000Y-70231000D03*
X164846000Y-70231000D03*
D22*
X180340000Y-115570000D03*
X166370000Y-117094000D03*
X163830000Y-118364000D03*
X164592000Y-117602000D03*
X162866000Y-117550000D03*
X167080000Y-117550000D03*
X161544000Y-117550000D03*
X163830000Y-119126000D03*
X129511100Y-111084196D03*
X115757000Y-111300096D03*
X115706200Y-115262496D03*
X111997800Y-117221000D03*
X108441800Y-112722496D03*
X115757000Y-112468496D03*
X118678000Y-111046096D03*
X113521800Y-110233296D03*
X114592100Y-117345296D03*
X114588600Y-110233296D03*
X108441800Y-113738496D03*
X118678000Y-113992496D03*
X118678000Y-112519296D03*
X172056100Y-98092096D03*
X115757000Y-110233296D03*
X112458500Y-110233296D03*
X108441800Y-114754496D03*
X115706200Y-114297296D03*
X170766100Y-100046496D03*
X171361237Y-100649596D03*
X113191600Y-114856096D03*
X113191600Y-112697096D03*
X111032600Y-114856096D03*
X111032600Y-112697096D03*
D23*
X114490500Y-130492500D03*
X112712500Y-130492500D03*
X108018580Y-129528060D03*
X109283500Y-132667500D03*
X110553500Y-132667500D03*
X109283500Y-131397500D03*
X110553500Y-131397500D03*
X109288580Y-127038860D03*
X111828580Y-129528060D03*
X111828580Y-127038860D03*
X109288580Y-129528060D03*
X110558580Y-127038860D03*
X110558580Y-128308860D03*
X111828580Y-128308860D03*
X109288580Y-128308860D03*
X110558580Y-129528060D03*
D22*
X114617500Y-116306600D03*
D23*
X142156000Y-141605000D03*
X142156000Y-139446000D03*
D22*
X107835700Y-120142000D03*
X108902500Y-120142000D03*
X110426500Y-118618000D03*
X109664500Y-119380000D03*
X111442500Y-118872000D03*
X109918500Y-120396000D03*
X110680500Y-119634000D03*
X108394500Y-107188000D03*
X109410500Y-107696000D03*
X110934500Y-109220000D03*
X110172500Y-108458000D03*
X111188500Y-108204000D03*
X110426500Y-107442000D03*
X109410500Y-106680000D03*
X108290360Y-106166920D03*
X154813000Y-73533000D03*
X145093023Y-114167920D03*
X140004800Y-114167920D03*
X109504480Y-110848140D03*
X108635800Y-117706140D03*
X107904280Y-118437660D03*
X109296200Y-116862860D03*
D23*
X113601500Y-131381500D03*
X108013500Y-131397500D03*
X111823500Y-132667500D03*
X111823500Y-134175500D03*
X115379500Y-136588500D03*
X111823500Y-136588500D03*
X113093500Y-136588500D03*
X114236500Y-136588500D03*
X110553500Y-136588500D03*
X109283500Y-136588500D03*
X110553500Y-134175500D03*
X109283500Y-134175500D03*
X116395500Y-136588500D03*
X113601500Y-129528060D03*
X116395500Y-131635500D03*
D22*
X111188500Y-117856000D03*
X112204500Y-118237000D03*
X111569500Y-109855000D03*
X112077500Y-109093000D03*
X112098378Y-113778150D03*
D23*
X141013000Y-141605000D03*
X172847028Y-91948000D03*
X111823500Y-135318500D03*
X110553500Y-135318500D03*
X109283500Y-135318500D03*
X116395500Y-132667500D03*
D22*
X114998500Y-132675400D03*
D23*
X135600000Y-140462000D03*
X118688600Y-123444000D03*
X120078500Y-123444000D03*
X119443500Y-121856500D03*
X119443500Y-124777500D03*
X141600000Y-140462000D03*
X141013000Y-139446000D03*
X139362000Y-140462000D03*
D22*
X137160000Y-117221000D03*
X139700000Y-57657968D03*
X160274000Y-86233000D03*
X118681500Y-115316000D03*
X157558670Y-107554376D03*
X157861000Y-104902000D03*
X177291990Y-102997000D03*
X161150000Y-99470000D03*
X150241000Y-97789990D03*
X141478000Y-103251000D03*
X163039415Y-107164853D03*
X165862000Y-101981000D03*
X162534600Y-102044500D03*
X169416121Y-101880720D03*
X170688000Y-98057978D03*
X178435000Y-90550992D03*
X177736512Y-99123500D03*
X163228020Y-91485720D03*
X161360000Y-100310000D03*
X176784000Y-96265946D03*
X133223000Y-58229500D03*
X159880538Y-102796073D03*
X136230508Y-145763830D03*
X150495000Y-105613194D03*
X114998500Y-131635500D03*
X173990000Y-106172026D03*
X163576000Y-75691990D03*
X156083000Y-108004589D03*
X165353581Y-99822000D03*
X113445596Y-101663500D03*
X137033000Y-113157000D03*
X159131000Y-102976402D03*
X168275004Y-106172000D03*
X142787262Y-99949008D03*
X145109398Y-108964855D03*
X132905500Y-128143000D03*
X130683000Y-145921200D03*
X123420500Y-143025600D03*
X124447300Y-143025600D03*
X147891500Y-105791000D03*
X141478000Y-98044000D03*
X152984198Y-106222800D03*
X162687000Y-86360036D03*
X134175500Y-128143000D03*
X161284439Y-101229348D03*
X140991989Y-66805564D03*
X114490500Y-97599506D03*
X135890000Y-102616000D03*
X129857500Y-127635000D03*
X165290500Y-86614000D03*
X139446000Y-60261500D03*
X145112578Y-107801400D03*
X135445500Y-128143000D03*
X165417500Y-96329500D03*
X129667000Y-145921200D03*
X148977822Y-100028890D03*
X163309300Y-97398840D03*
X132884707Y-96647000D03*
X159639000Y-76200054D03*
X151447500Y-85026500D03*
X121794254Y-127775956D03*
X142450000Y-107190600D03*
X141986000Y-105156000D03*
X138862333Y-105615821D03*
X143353747Y-103387546D03*
X137667998Y-99440984D03*
X135661400Y-113131600D03*
X137750000Y-138250000D03*
X181688000Y-126697000D03*
X147977860Y-87627462D03*
X149923500Y-81534000D03*
X138250000Y-137750000D03*
X165484200Y-98853386D03*
X181688000Y-129286000D03*
X168783000Y-99187000D03*
X181688000Y-127557000D03*
X149923500Y-74676000D03*
X181688000Y-125906000D03*
X182450000Y-126697000D03*
X181688000Y-128446000D03*
X142748000Y-97028038D03*
X147269194Y-58978800D03*
X150291802Y-62382400D03*
X143764000Y-97028000D03*
X150850602Y-63347600D03*
X148056596Y-61061600D03*
X153162000Y-102108000D03*
X161797996Y-76962000D03*
X180594000Y-90424000D03*
X180090000Y-89960000D03*
X162486000Y-66192400D03*
X165222346Y-101218996D03*
X149733000Y-108966000D03*
X120532173Y-93576117D03*
X150088600Y-101193600D03*
X125412492Y-93535508D03*
X148209022Y-102489000D03*
X121448264Y-95068454D03*
X115436533Y-95098030D03*
X147319996Y-103124000D03*
X122593101Y-95897700D03*
X113439862Y-95017519D03*
X161925000Y-107061000D03*
X152971500Y-105473500D03*
X150444200Y-107111800D03*
X159766000Y-106206909D03*
X153035000Y-108370000D03*
X159410000Y-107560000D03*
X138532000Y-102771000D03*
X152019000Y-75247500D03*
X157479994Y-74358508D03*
X150545649Y-109859944D03*
X166624000Y-106172000D03*
X175260000Y-96392984D03*
X171295947Y-97331943D03*
X168840000Y-101180000D03*
X168940526Y-100029000D03*
X136144000Y-97310585D03*
X143498559Y-95365551D03*
X147980062Y-108780025D03*
X170434000Y-102743000D03*
X127952500Y-121920000D03*
X140462002Y-109728000D03*
X127952500Y-123190002D03*
X142367000Y-108331000D03*
X118554500Y-116459008D03*
X130746500Y-118110000D03*
X138811000Y-106934000D03*
X117747136Y-106172000D03*
X119634000Y-106426000D03*
X137414000Y-105918000D03*
D23*
X125603000Y-129413000D03*
D22*
X144706619Y-111365136D03*
X145880510Y-61214000D03*
X148336000Y-58928000D03*
X154061149Y-54689867D03*
X168656000Y-75031500D03*
X148463044Y-72644000D03*
X151028400Y-73279000D03*
X150774400Y-61036200D03*
D23*
X151485600Y-66675004D03*
D22*
X168656000Y-73558500D03*
X144353278Y-61020960D03*
X148590000Y-69342000D03*
X144983204Y-61722000D03*
X153162000Y-58077110D03*
X149415516Y-58928000D03*
X155194000Y-62941200D03*
X154432000Y-59435984D03*
X154051000Y-115443000D03*
X157688280Y-94625160D03*
X162384740Y-91815920D03*
X153141198Y-103331750D03*
X159131000Y-109728000D03*
X155927424Y-115541424D03*
X160308924Y-110264576D03*
X153289000Y-96139000D03*
X166598578Y-91749582D03*
X153870000Y-103910000D03*
X168503500Y-71247000D03*
X150622000Y-68326000D03*
X154965400Y-68122800D03*
X119468900Y-131330700D03*
X144372787Y-109067600D03*
X134620000Y-60198000D03*
X143383000Y-91440000D03*
X173199100Y-99235096D03*
X177800000Y-100711000D03*
X150824832Y-71831568D03*
X153441400Y-71755000D03*
X117602000Y-94996000D03*
X141605000Y-101853986D03*
X120205500Y-91376500D03*
X133604000Y-101854000D03*
X158305500Y-102806500D03*
X150558500Y-86360000D03*
X154178000Y-78740048D03*
X157226000Y-100457000D03*
X160091120Y-94791540D03*
X160782000Y-91567000D03*
X155506422Y-94485460D03*
X156926280Y-101630480D03*
X156845000Y-91567000D03*
X118046500Y-98234500D03*
X125438600Y-98361500D03*
X157507940Y-96758760D03*
X153289000Y-97917000D03*
X153672540Y-62844680D03*
X164266880Y-91892120D03*
X161544000Y-97409000D03*
X168210000Y-91740000D03*
X165163504Y-97472500D03*
X152734044Y-63439050D03*
X161620000Y-93620000D03*
X165549580Y-93840300D03*
X149987000Y-76200000D03*
X147955000Y-100202990D03*
X156210000Y-57340502D03*
X152628600Y-61950600D03*
X158242000Y-57150000D03*
X155448000Y-66548000D03*
X124447300Y-139625600D03*
X123420500Y-139625600D03*
X131598000Y-142250000D03*
X131598000Y-141500000D03*
X147290304Y-103915696D03*
X134793991Y-135936991D03*
X114236500Y-96583500D03*
X115439817Y-98487335D03*
X112458500Y-93662500D03*
X115252500Y-101536500D03*
X168656000Y-126746000D03*
X168656000Y-128778000D03*
X179146200Y-135128000D03*
X167005000Y-129921000D03*
X168656000Y-129794000D03*
X180086000Y-136525000D03*
X167005000Y-133731000D03*
X168656000Y-127762000D03*
X179197000Y-132892800D03*
X180009800Y-135128000D03*
X177647600Y-132892800D03*
X165989000Y-131699000D03*
X165989000Y-132461000D03*
X165989000Y-130937000D03*
X173758000Y-125498000D03*
X147675600Y-114147600D03*
X161036000Y-114198400D03*
X179768809Y-119113609D03*
X163626800Y-114198400D03*
X143560800Y-106730800D03*
X162255200Y-115316000D03*
X184556400Y-73863200D03*
X179781200Y-120396000D03*
X145084800Y-106222800D03*
X164388800Y-115316000D03*
X146405600Y-106222800D03*
X148844014Y-96370000D03*
X134747026Y-90678000D03*
X108051600Y-71903043D03*
X148855000Y-97472496D03*
X132207000Y-90614500D03*
X168275000Y-124587000D03*
X146810000Y-111680000D03*
X166751000Y-134874000D03*
X149098000Y-112395000D03*
X150876000Y-111506000D03*
X147878800Y-112191800D03*
X175387000Y-90805000D03*
X152425400Y-100075998D03*
D24*
X163309300Y-97398840D02*
X164288772Y-97398840D01*
D25*
X126771400Y-143025600D02*
X129667000Y-145921200D01*
D24*
X165290500Y-86614000D02*
X167552369Y-88875869D01*
D26*
X151447500Y-85026500D02*
X151447500Y-79992738D01*
D24*
X164288772Y-97398840D02*
X165358112Y-96329500D01*
D27*
X139446000Y-60261500D02*
X140970000Y-61785500D01*
D24*
X165290500Y-86614000D02*
X165036536Y-86360036D01*
X167552369Y-94194631D02*
X165417500Y-96329500D01*
X167552369Y-88875869D02*
X167552369Y-94194631D01*
D26*
X155240184Y-76200054D02*
X159639000Y-76200054D01*
X151447500Y-79992738D02*
X155240184Y-76200054D01*
D25*
X129667000Y-145921200D02*
X130683000Y-145921200D01*
D27*
X140970000Y-61785500D02*
X140970000Y-66783575D01*
X140970000Y-66783575D02*
X140991989Y-66805564D01*
D24*
X165036536Y-86360036D02*
X162687000Y-86360036D01*
X165358112Y-96329500D02*
X165417500Y-96329500D01*
D25*
X123420500Y-143025600D02*
X124447300Y-143025600D01*
X124447300Y-143025600D02*
X126771400Y-143025600D01*
D24*
X143002000Y-107742600D02*
X143002000Y-114300000D01*
X125589044Y-127775956D02*
X121794254Y-127775956D01*
X133557007Y-123744993D02*
X129620007Y-123744993D01*
X129620007Y-123744993D02*
X125589044Y-127775956D01*
X142450000Y-107190600D02*
X143002000Y-107742600D01*
X143002000Y-114300000D02*
X133557007Y-123744993D01*
X132384800Y-110896400D02*
X136245600Y-110896400D01*
X136245600Y-110896400D02*
X141986000Y-105156000D01*
X132384800Y-108356400D02*
X136121754Y-108356400D01*
X136121754Y-108356400D02*
X138862333Y-105615821D01*
X143353747Y-105439253D02*
X143353747Y-103387546D01*
X132384800Y-113436400D02*
X135356600Y-113436400D01*
X135356600Y-113436400D02*
X143353747Y-105439253D01*
D28*
X149352000Y-74676000D02*
X149923500Y-74676000D01*
D29*
X164185600Y-58369200D02*
X164185600Y-65227200D01*
D28*
X153212800Y-60248800D02*
X151612600Y-61849000D01*
D27*
X155675949Y-70231000D02*
X155956000Y-70231000D01*
X165484200Y-98873786D02*
X165484200Y-98853386D01*
X156892300Y-67485096D02*
X155623096Y-67485096D01*
D28*
X153924000Y-56769000D02*
X153924000Y-58249822D01*
D25*
X146000000Y-141750000D02*
X145000000Y-140750000D01*
D27*
X154686000Y-70231000D02*
X155675949Y-70231000D01*
D28*
X149479000Y-81978500D02*
X149923500Y-81534000D01*
D27*
X156892300Y-67485096D02*
X158320904Y-67485096D01*
D28*
X150812500Y-75565000D02*
X149923500Y-74676000D01*
X151612600Y-61849000D02*
X151612600Y-63830200D01*
X147548600Y-72872600D02*
X149352000Y-74676000D01*
D29*
X160274000Y-55626000D02*
X161442400Y-55626000D01*
X153924000Y-56769000D02*
X153924000Y-56489600D01*
D28*
X150812500Y-80645000D02*
X150812500Y-75565000D01*
D25*
X138250000Y-137750000D02*
X137750000Y-138250000D01*
D28*
X151612600Y-63830200D02*
X147548600Y-67894200D01*
X149479000Y-85090000D02*
X149479000Y-81978500D01*
X147977860Y-87627462D02*
X147977860Y-86591140D01*
D30*
X174237796Y-67919600D02*
X170599100Y-67919600D01*
D29*
X154787600Y-55626000D02*
X160274000Y-55626000D01*
D27*
X154686000Y-70231000D02*
X154686000Y-68961000D01*
D29*
X161442400Y-55626000D02*
X164185600Y-58369200D01*
D27*
X165505313Y-98894899D02*
X165484200Y-98873786D01*
D28*
X147977860Y-86591140D02*
X149479000Y-85090000D01*
D25*
X138750000Y-137250000D02*
X138250000Y-137750000D01*
X145000000Y-140750000D02*
X145000000Y-138250000D01*
X145000000Y-138250000D02*
X144000000Y-137250000D01*
D28*
X153924000Y-58249822D02*
X153212800Y-58961022D01*
D31*
X154686000Y-70231000D02*
X154686000Y-71374000D01*
D28*
X153212800Y-58961022D02*
X153212800Y-60248800D01*
D25*
X144000000Y-137250000D02*
X138750000Y-137250000D01*
D30*
X174672300Y-67485096D02*
X174237796Y-67919600D01*
D29*
X153924000Y-56489600D02*
X154787600Y-55626000D01*
D28*
X149923500Y-81534000D02*
X150812500Y-80645000D01*
X147548600Y-67894200D02*
X147548600Y-72872600D01*
D27*
X155623096Y-67485096D02*
X155369096Y-67485096D01*
D32*
X150291802Y-62001402D02*
X150291796Y-62001402D01*
D24*
X150291802Y-62001402D02*
X150291802Y-62382400D01*
D32*
X142748000Y-97028038D02*
X144232620Y-95543418D01*
X142113000Y-89133753D02*
X142113000Y-89113507D01*
X147269194Y-62321300D02*
X147269194Y-58978800D01*
X141946620Y-67643873D02*
X147269194Y-62321300D01*
X150291796Y-62001402D02*
X147269194Y-58978800D01*
X144232620Y-95543418D02*
X144232620Y-91253373D01*
X144232620Y-91253373D02*
X142113000Y-89133753D01*
X142113000Y-89113507D02*
X141946620Y-88947127D01*
X141946620Y-88947127D02*
X141946620Y-67643873D01*
X143256000Y-89662000D02*
X142367000Y-88773000D01*
X144653000Y-89947750D02*
X144367250Y-89662000D01*
X143764000Y-97536000D02*
X143891000Y-97663000D01*
X144367250Y-89662000D02*
X143256000Y-89662000D01*
D24*
X148056596Y-62128404D02*
X149275792Y-63347600D01*
D32*
X142367000Y-67818000D02*
X148056596Y-62128404D01*
X142367000Y-88773000D02*
X142367000Y-67818000D01*
D24*
X149275792Y-63347600D02*
X150850602Y-63347600D01*
D32*
X144653000Y-97536000D02*
X144653000Y-89947750D01*
X144526000Y-97663000D02*
X144653000Y-97536000D01*
D24*
X148056596Y-61061600D02*
X148056596Y-62128404D01*
D32*
X143891000Y-97663000D02*
X144526000Y-97663000D01*
D24*
X148056600Y-61061604D02*
X148056596Y-61061600D01*
D32*
X143764000Y-97028000D02*
X143764000Y-97536000D01*
D26*
X165873000Y-98160000D02*
X168910000Y-95123000D01*
X152476200Y-103085900D02*
X152476200Y-104213660D01*
X168910000Y-95123000D02*
X168910000Y-86741000D01*
X152999440Y-102562660D02*
X152476200Y-103085900D01*
X152999440Y-102562660D02*
X152999440Y-102270560D01*
X168910000Y-86741000D02*
X161797996Y-79628996D01*
X164920000Y-98160000D02*
X165873000Y-98160000D01*
X152999440Y-102270560D02*
X153162000Y-102108000D01*
X161609638Y-98044000D02*
X164804000Y-98044000D01*
X161797996Y-79628996D02*
X161797996Y-76962000D01*
X155137730Y-104515908D02*
X161609638Y-98044000D01*
X152778448Y-104515908D02*
X155137730Y-104515908D01*
X164804000Y-98044000D02*
X164920000Y-98160000D01*
X152476200Y-104213660D02*
X152778448Y-104515908D01*
D25*
X178435000Y-88265000D02*
X180594000Y-90424000D01*
X167052300Y-67485096D02*
X168817601Y-69250397D01*
X173517397Y-69250397D02*
X175895000Y-71628000D01*
X175895000Y-84455000D02*
X178435000Y-86995000D01*
X175895000Y-71628000D02*
X175895000Y-84455000D01*
X178435000Y-86995000D02*
X178435000Y-88265000D01*
X168817601Y-69250397D02*
X173517397Y-69250397D01*
X156892300Y-59865096D02*
X162486000Y-65458796D01*
X162486000Y-65458796D02*
X162486000Y-66192400D01*
D24*
X162825464Y-108167136D02*
X165227000Y-105765600D01*
X149733000Y-108966000D02*
X157506687Y-108966000D01*
X157506687Y-108966000D02*
X158305551Y-108167136D01*
X165227000Y-105765600D02*
X165227000Y-101223650D01*
X158305551Y-108167136D02*
X162825464Y-108167136D01*
X165227000Y-101223650D02*
X165222346Y-101218996D01*
D33*
X131165616Y-93573600D02*
X125577600Y-93573600D01*
X132029200Y-99822000D02*
X132029200Y-94437184D01*
X132029200Y-94437184D02*
X131165616Y-93573600D01*
X150088600Y-101193600D02*
X133400800Y-101193600D01*
X125371883Y-93576117D02*
X125412492Y-93535508D01*
X120532173Y-93576117D02*
X125371883Y-93576117D01*
X133400800Y-101193600D02*
X132029200Y-99822000D01*
X140589000Y-102489000D02*
X139700000Y-103378000D01*
X119951030Y-95567500D02*
X115906003Y-95567500D01*
X148209022Y-102489000D02*
X140589000Y-102489000D01*
X130454400Y-103378000D02*
X128270000Y-101193600D01*
X128270000Y-101193600D02*
X128270000Y-96139000D01*
X121448264Y-95068454D02*
X120450076Y-95068454D01*
X115906003Y-95567500D02*
X115436533Y-95098030D01*
X139700000Y-103378000D02*
X130454400Y-103378000D01*
X127199454Y-95068454D02*
X121448264Y-95068454D01*
X128270000Y-96139000D02*
X127199454Y-95068454D01*
X120450076Y-95068454D02*
X119951030Y-95567500D01*
X113439862Y-95017519D02*
X113927519Y-95017519D01*
X147046957Y-102850961D02*
X143021039Y-102850961D01*
X127304800Y-101752400D02*
X127304800Y-97205800D01*
X121750801Y-96740000D02*
X122593101Y-95897700D01*
X141859000Y-104013000D02*
X129565400Y-104013000D01*
X143021039Y-102850961D02*
X141859000Y-104013000D01*
X147319996Y-103124000D02*
X147046957Y-102850961D01*
X115650000Y-96740000D02*
X121750801Y-96740000D01*
X125996700Y-95897700D02*
X122593101Y-95897700D01*
X127304800Y-97205800D02*
X125996700Y-95897700D01*
X129565400Y-104013000D02*
X127304800Y-101752400D01*
X113927519Y-95017519D02*
X115650000Y-96740000D01*
D26*
X160439152Y-105575152D02*
X153073152Y-105575152D01*
X161925000Y-107061000D02*
X160439152Y-105575152D01*
X153073152Y-105575152D02*
X152971500Y-105473500D01*
X159766000Y-106206909D02*
X158977334Y-106995575D01*
X158977334Y-106995575D02*
X157290445Y-106995575D01*
X157290445Y-106995575D02*
X157174220Y-107111800D01*
X157174220Y-107111800D02*
X150444200Y-107111800D01*
X157339926Y-108563399D02*
X158138789Y-107764535D01*
X159205465Y-107764535D02*
X159410000Y-107560000D01*
X158138789Y-107764535D02*
X159205465Y-107764535D01*
X153267399Y-108563399D02*
X157339926Y-108563399D01*
X153035000Y-108331000D02*
X153267399Y-108563399D01*
X152907992Y-74358508D02*
X157479994Y-74358508D01*
X152019000Y-75247500D02*
X152907992Y-74358508D01*
D34*
X158470735Y-108565927D02*
X163569673Y-108565927D01*
X150545649Y-109859944D02*
X157176718Y-109859944D01*
X165963600Y-106172000D02*
X166624000Y-106172000D01*
X157176718Y-109859944D02*
X158470735Y-108565927D01*
X163569673Y-108565927D02*
X165963600Y-106172000D01*
D35*
X175259984Y-96393000D02*
X175260000Y-96392984D01*
X171295947Y-97331943D02*
X172234890Y-96393000D01*
X172234890Y-96393000D02*
X175259984Y-96393000D01*
D24*
X166017672Y-107251500D02*
X168338500Y-107251500D01*
X164304454Y-108964718D02*
X166017672Y-107251500D01*
X149618873Y-110418836D02*
X157181801Y-110418836D01*
X158635919Y-108964718D02*
X164304454Y-108964718D01*
X157181801Y-110418836D02*
X158635919Y-108964718D01*
X147980062Y-108780025D02*
X149618873Y-110418836D01*
X170434000Y-105156000D02*
X170434000Y-102743000D01*
X168338500Y-107251500D02*
X170434000Y-105156000D01*
D33*
X141795500Y-109410500D02*
X129984500Y-121221500D01*
X140462002Y-109728000D02*
X140462002Y-109156498D01*
X141605000Y-108648500D02*
X141795500Y-108839000D01*
X140462002Y-109156498D02*
X140970000Y-108648500D01*
X140970000Y-108648500D02*
X141605000Y-108648500D01*
X141795500Y-108839000D02*
X141795500Y-109410500D01*
X127952500Y-121920000D02*
X127952500Y-121348500D01*
X129984500Y-121221500D02*
X129540000Y-121221500D01*
X129286000Y-120967500D02*
X128968500Y-120967500D01*
X128079500Y-121221500D02*
X128714500Y-121221500D01*
X127952500Y-121348500D02*
X128079500Y-121221500D01*
X129540000Y-121221500D02*
X129286000Y-120967500D01*
X128968500Y-120967500D02*
X128714500Y-121221500D01*
X142367000Y-108331000D02*
X142367000Y-110109000D01*
X142367000Y-110109000D02*
X129285998Y-123190002D01*
X129285998Y-123190002D02*
X127952500Y-123190002D01*
D26*
X130746500Y-118110000D02*
X120205492Y-118110000D01*
X120205492Y-118110000D02*
X118554500Y-116459008D01*
X138811000Y-106934000D02*
X136144000Y-109601000D01*
X136144000Y-109601000D02*
X121176136Y-109601000D01*
X118039235Y-106464099D02*
X117747136Y-106172000D01*
X121176136Y-109601000D02*
X118039235Y-106464099D01*
D33*
X137414000Y-105918000D02*
X137000909Y-105918000D01*
X135857909Y-107061000D02*
X120269000Y-107061000D01*
X137000909Y-105918000D02*
X135857909Y-107061000D01*
X120269000Y-107061000D02*
X119634000Y-106426000D01*
D24*
X144272000Y-115265200D02*
X130124200Y-129413000D01*
X144706619Y-111365136D02*
X144272000Y-111799755D01*
X144272000Y-111799755D02*
X144272000Y-115265200D01*
X130124200Y-129413000D02*
X125603000Y-129413000D01*
D26*
X155194000Y-62941200D02*
X154432000Y-62179200D01*
D27*
X150160000Y-57290000D02*
X149415516Y-58034484D01*
X152330000Y-57290000D02*
X150160000Y-57290000D01*
X153162000Y-58077110D02*
X153117110Y-58077110D01*
D26*
X154432000Y-62179200D02*
X154432000Y-59435984D01*
D27*
X149415516Y-58034484D02*
X149415516Y-58928000D01*
X153117110Y-58077110D02*
X152330000Y-57290000D01*
D33*
X157688280Y-94625160D02*
X157289500Y-94226380D01*
X156845000Y-92773500D02*
X155201525Y-92773500D01*
X161988500Y-92646500D02*
X162496500Y-93154500D01*
X152527000Y-96139000D02*
X152527000Y-96393000D01*
X180881000Y-109520000D02*
X183134000Y-107267000D01*
X154051000Y-115443000D02*
X154051000Y-137621000D01*
X159950000Y-109520000D02*
X180881000Y-109520000D01*
X161734500Y-92646500D02*
X161988500Y-92646500D01*
X161288731Y-93092269D02*
X161734500Y-92646500D01*
X162496500Y-93154500D02*
X163258500Y-93154500D01*
X157688280Y-94625160D02*
X158358840Y-94625160D01*
X152273000Y-95885000D02*
X152527000Y-96139000D01*
X159742000Y-109728000D02*
X159950000Y-109520000D01*
X163385500Y-92456000D02*
X162745420Y-91815920D01*
X154495500Y-98107500D02*
X154495500Y-101977448D01*
X152971500Y-96837500D02*
X153225500Y-96837500D01*
X152527000Y-96393000D02*
X152082500Y-96837500D01*
X162745420Y-91815920D02*
X162384740Y-91815920D01*
X153225500Y-96837500D02*
X154495500Y-98107500D01*
X152273000Y-95702025D02*
X152273000Y-95885000D01*
X157289500Y-94226380D02*
X157289500Y-93218000D01*
X158358840Y-94625160D02*
X159891731Y-93092269D01*
X159131000Y-109728000D02*
X159742000Y-109728000D01*
X152527000Y-97282000D02*
X152971500Y-96837500D01*
X152082500Y-97155000D02*
X152209500Y-97282000D01*
X157289500Y-93218000D02*
X156845000Y-92773500D01*
X152082500Y-96837500D02*
X152082500Y-97155000D01*
X163258500Y-93154500D02*
X163385500Y-93027500D01*
X154495500Y-101977448D02*
X153141198Y-103331750D01*
X159891731Y-93092269D02*
X161288731Y-93092269D01*
X154051000Y-137621000D02*
X152543500Y-139128500D01*
X152209500Y-97282000D02*
X152527000Y-97282000D01*
X155201525Y-92773500D02*
X152273000Y-95702025D01*
X163385500Y-93027500D02*
X163385500Y-92456000D01*
X158686500Y-95186500D02*
X159636460Y-94236540D01*
X166598578Y-91752798D02*
X166598578Y-91749582D01*
X155927424Y-137744576D02*
X154543500Y-139128500D01*
X155067000Y-102713000D02*
X153870000Y-103910000D01*
X161250000Y-94080000D02*
X161406540Y-94236540D01*
X164114836Y-94236540D02*
X166598578Y-91752798D01*
X154622500Y-93916500D02*
X156019500Y-93916500D01*
X159636460Y-94233540D02*
X159790000Y-94080000D01*
X159790000Y-94080000D02*
X161250000Y-94080000D01*
X157289500Y-95186500D02*
X158686500Y-95186500D01*
X153289000Y-96139000D02*
X153289000Y-95250000D01*
X182136424Y-110264576D02*
X183134000Y-109267000D01*
X153289000Y-95250000D02*
X154622500Y-93916500D01*
X153289000Y-96139000D02*
X155067000Y-97917000D01*
X159636460Y-94236540D02*
X159636460Y-94233540D01*
X155067000Y-97917000D02*
X155067000Y-102713000D01*
X160308924Y-110264576D02*
X182136424Y-110264576D01*
X161406540Y-94236540D02*
X164114836Y-94236540D01*
X156019500Y-93916500D02*
X157289500Y-95186500D01*
X155927424Y-115541424D02*
X155927424Y-137744576D01*
D25*
X172008800Y-71247000D02*
X173532800Y-72771000D01*
X168503500Y-71247000D02*
X172008800Y-71247000D01*
X159766000Y-70231000D02*
X161234120Y-68762880D01*
X161234120Y-68762880D02*
X165717438Y-68762880D01*
X165717438Y-68762880D02*
X168328558Y-71374000D01*
D24*
X144372787Y-109067600D02*
X143687800Y-109752587D01*
X143687800Y-109752587D02*
X143687800Y-114782600D01*
X129794000Y-128676400D02*
X122123200Y-128676400D01*
X143687800Y-114782600D02*
X129794000Y-128676400D01*
X122123200Y-128676400D02*
X119468900Y-131330700D01*
D26*
X134620000Y-62992000D02*
X137668000Y-66040000D01*
X134620000Y-60198000D02*
X134620000Y-62992000D01*
X140589000Y-91440000D02*
X143383000Y-91440000D01*
X137668000Y-88519000D02*
X140589000Y-91440000D01*
X137668000Y-66040000D02*
X137668000Y-88519000D01*
X173199100Y-99235096D02*
X176324096Y-99235096D01*
X176324096Y-99235096D02*
X177800000Y-100711000D01*
D33*
X118300500Y-94297500D02*
X117673356Y-94924644D01*
X131013200Y-100380800D02*
X131013200Y-95199200D01*
X132486400Y-101854000D02*
X131013200Y-100380800D01*
X118300500Y-94297500D02*
X118300500Y-93281500D01*
X122237500Y-94297500D02*
X118300500Y-94297500D01*
X133604014Y-101853986D02*
X133604000Y-101854000D01*
X118300500Y-93281500D02*
X120205500Y-91376500D01*
X130111500Y-94297500D02*
X122237500Y-94297500D01*
X131013200Y-95199200D02*
X130111500Y-94297500D01*
X133604000Y-101854000D02*
X132486400Y-101854000D01*
X141605000Y-101853986D02*
X133604014Y-101853986D01*
D24*
X152654000Y-86360000D02*
X150558500Y-86360000D01*
X154178000Y-84836000D02*
X152654000Y-86360000D01*
X154178000Y-78740048D02*
X154178000Y-84836000D01*
D33*
X160091120Y-97210880D02*
X160091120Y-94791540D01*
X157226000Y-100457000D02*
X157226000Y-100076000D01*
X157226000Y-100076000D02*
X160091120Y-97210880D01*
X156146500Y-97177860D02*
X155506422Y-96537782D01*
X156146500Y-100850700D02*
X156146500Y-97177860D01*
X155506422Y-96537782D02*
X155506422Y-94485460D01*
X156926280Y-101630480D02*
X156146500Y-100850700D01*
X125438600Y-98361500D02*
X118173500Y-98361500D01*
X118173500Y-98361500D02*
X118046500Y-98234500D01*
X155702000Y-73660000D02*
X157988000Y-73660000D01*
X152116799Y-63264027D02*
X152116799Y-64469001D01*
X152536146Y-62844680D02*
X152116799Y-63264027D01*
X149479000Y-69726890D02*
X152650110Y-72898000D01*
X164874577Y-95792923D02*
X167153578Y-93513922D01*
X167153578Y-91461578D02*
X165989000Y-90297000D01*
X153672540Y-62844680D02*
X152536146Y-62844680D01*
X152116799Y-64469001D02*
X149479000Y-67106800D01*
X165862000Y-90297000D02*
X164266880Y-91892120D01*
X167153578Y-93513922D02*
X167153578Y-91461578D01*
X160274000Y-75946000D02*
X160274000Y-84741169D01*
X149479000Y-67106800D02*
X149479000Y-69726890D01*
X157988000Y-73660000D02*
X160274000Y-75946000D01*
X160274000Y-84741169D02*
X165829831Y-90297000D01*
X165989000Y-90297000D02*
X165862000Y-90297000D01*
X152650110Y-72898000D02*
X154940000Y-72898000D01*
X161544000Y-97409000D02*
X163160077Y-95792923D01*
X163160077Y-95792923D02*
X164874577Y-95792923D01*
X154940000Y-72898000D02*
X155702000Y-73660000D01*
X165829831Y-90297000D02*
X165989000Y-90297000D01*
X158496000Y-73279000D02*
X161036000Y-75819000D01*
X149936211Y-69672211D02*
X152781000Y-72517000D01*
X161036000Y-80010000D02*
X168109902Y-87083902D01*
X168109900Y-95095735D02*
X165733135Y-97472500D01*
X168109902Y-87083902D02*
X168109902Y-91729560D01*
X152734044Y-64415732D02*
X149936211Y-67213563D01*
X155321000Y-72517000D02*
X156083000Y-73279000D01*
X161036000Y-75819000D02*
X161036000Y-80010000D01*
X156083000Y-73279000D02*
X158496000Y-73279000D01*
X149936211Y-67213563D02*
X149936211Y-69672211D01*
X168109900Y-91729562D02*
X168109900Y-95095735D01*
X165733135Y-97472500D02*
X165163504Y-97472500D01*
X152734044Y-63439050D02*
X152734044Y-64415732D01*
X152781000Y-72517000D02*
X155321000Y-72517000D01*
X168109902Y-91729560D02*
X168109900Y-91729562D01*
D24*
X148082000Y-85153500D02*
X148082000Y-78105000D01*
X152908000Y-94170500D02*
X152908000Y-90551000D01*
X147955000Y-99789899D02*
X149542500Y-98202399D01*
X152908000Y-90551000D02*
X151956057Y-89599057D01*
X147320000Y-88519000D02*
X147320000Y-85915500D01*
X147320000Y-85915500D02*
X148082000Y-85153500D01*
X148400057Y-89599057D02*
X147320000Y-88519000D01*
X149542500Y-98202399D02*
X149542500Y-97536000D01*
X149542500Y-97536000D02*
X152908000Y-94170500D01*
X151956057Y-89599057D02*
X148400057Y-89599057D01*
X147955000Y-100202990D02*
X147955000Y-99789899D01*
X148082000Y-78105000D02*
X149987000Y-76200000D01*
X155579109Y-57340502D02*
X156210000Y-57340502D01*
X153877008Y-60702192D02*
X153877008Y-59042603D01*
X153877008Y-59042603D02*
X155579109Y-57340502D01*
X152628600Y-61950600D02*
X153877008Y-60702192D01*
X155956000Y-62357000D02*
X155956000Y-66052986D01*
X155321000Y-61722000D02*
X155956000Y-62357000D01*
X155321000Y-59182000D02*
X155321000Y-61722000D01*
X155956000Y-66052986D02*
X155204192Y-66804794D01*
X157353000Y-57150000D02*
X155321000Y-59182000D01*
X158242000Y-57150000D02*
X157353000Y-57150000D01*
D36*
X129385800Y-139635800D02*
X131500000Y-141750000D01*
X123420500Y-139625600D02*
X129385800Y-139625600D01*
X129385800Y-139625600D02*
X129385800Y-139635800D01*
D24*
X145720103Y-111173040D02*
X145359420Y-111533723D01*
X145923000Y-114176509D02*
X145923000Y-114681000D01*
X146528304Y-103915696D02*
X145720103Y-104723897D01*
X145923000Y-114681000D02*
X134793991Y-125810009D01*
X147290304Y-103915696D02*
X146528304Y-103915696D01*
X134793991Y-125810009D02*
X134793991Y-135936991D01*
X145720103Y-104723897D02*
X145720103Y-111173040D01*
X145359420Y-113612929D02*
X145923000Y-114176509D01*
X145359420Y-111533723D02*
X145359420Y-113612929D01*
D36*
X171437299Y-77285261D02*
X171437299Y-81795499D01*
X172095960Y-76626600D02*
X171437299Y-77285261D01*
X171437299Y-81795499D02*
X173532800Y-83891000D01*
X173532800Y-76626600D02*
X172095960Y-76626600D01*
D33*
X112458500Y-98742500D02*
X112458500Y-93662500D01*
X115252500Y-101536500D02*
X112458500Y-98742500D01*
D24*
X161036000Y-114198400D02*
X161036000Y-114198400D01*
X179768809Y-119113609D02*
X179768809Y-119113609D01*
X147726408Y-114198400D02*
X161036000Y-114198400D01*
X163626800Y-114198400D02*
X168554400Y-114198400D01*
X168554400Y-114198400D02*
X173469609Y-119113609D01*
X173469609Y-119113609D02*
X179768809Y-119113609D01*
X184556400Y-73863200D02*
X183791600Y-73863200D01*
X168097200Y-115316000D02*
X173728591Y-120947391D01*
X183791600Y-73863200D02*
X182473600Y-75181200D01*
X175216609Y-120947391D02*
X175768000Y-120396000D01*
X153263600Y-115214400D02*
X153589991Y-114888009D01*
X146405600Y-106222800D02*
X146162097Y-106466303D01*
X153589991Y-114888009D02*
X161827209Y-114888009D01*
X143560800Y-106730800D02*
X144576800Y-106730800D01*
X146162097Y-106466303D02*
X146162097Y-113751697D01*
X164388800Y-115316000D02*
X168097200Y-115316000D01*
X146162097Y-113751697D02*
X147624800Y-115214400D01*
X147624800Y-115214400D02*
X153263600Y-115214400D01*
X173728591Y-120947391D02*
X175216609Y-120947391D01*
X161827209Y-114888009D02*
X162255200Y-115316000D01*
X144576800Y-106730800D02*
X145084800Y-106222800D01*
X175768000Y-120396000D02*
X179781200Y-120396000D01*
D33*
X134747026Y-90804974D02*
X134747026Y-90804974D01*
X107213400Y-84763600D02*
X104902000Y-87075000D01*
X147129514Y-98171000D02*
X142494000Y-98171000D01*
X142494000Y-98171000D02*
X138303000Y-93980000D01*
X129260626Y-85191600D02*
X115874800Y-85191600D01*
X148844014Y-96456500D02*
X147129514Y-98171000D01*
X115446800Y-83312000D02*
X115446800Y-81046300D01*
X134747026Y-90678000D02*
X129260626Y-85191600D01*
X135890000Y-93980000D02*
X134747026Y-92837026D01*
X115446800Y-84763600D02*
X115446800Y-83312000D01*
X115446800Y-81046300D02*
X104902000Y-70501500D01*
X115874800Y-85191600D02*
X115446800Y-84763600D01*
X115446800Y-84763600D02*
X107213400Y-84763600D01*
X138303000Y-93980000D02*
X135890000Y-93980000D01*
X134747026Y-92837026D02*
X134747026Y-90804974D01*
X132207000Y-92329000D02*
X132207000Y-90614500D01*
X137414000Y-95377000D02*
X135255000Y-95377000D01*
X117446800Y-83312000D02*
X117446800Y-81298243D01*
X117446800Y-81298243D02*
X117446800Y-70770000D01*
X146367500Y-100647500D02*
X142684500Y-100647500D01*
X147764500Y-99123500D02*
X147574000Y-99123500D01*
X147161250Y-99853750D02*
X146367500Y-100647500D01*
X148855000Y-98033000D02*
X147764500Y-99123500D01*
X142684500Y-100647500D02*
X137414000Y-95377000D01*
X147574000Y-99123500D02*
X147161250Y-99536250D01*
X117446800Y-81298243D02*
X108051600Y-71903043D01*
X135255000Y-95377000D02*
X132207000Y-92329000D01*
X148855000Y-97472496D02*
X148855000Y-98033000D01*
X147161250Y-99536250D02*
X147161250Y-99853750D01*
X117446800Y-70770000D02*
X123396000Y-64820800D01*
D24*
X161417000Y-113284000D02*
X168275000Y-120142000D01*
X146717088Y-111681407D02*
X146717088Y-112094498D01*
X147906590Y-113284000D02*
X161417000Y-113284000D01*
X146717088Y-112094498D02*
X147906590Y-113284000D01*
X168275000Y-120142000D02*
X168275000Y-124587000D01*
X149098000Y-112395000D02*
X168926000Y-112395000D01*
X168926000Y-112395000D02*
X174561500Y-118030500D01*
X172593000Y-111506000D02*
X173291500Y-112204500D01*
X150876000Y-111506000D02*
X172593000Y-111506000D01*
X173291500Y-112204500D02*
X173291500Y-114760500D01*
X173291500Y-114760500D02*
X174561500Y-116030500D01*
X147878800Y-112191800D02*
X149199600Y-110871000D01*
X149199600Y-110871000D02*
X173402000Y-110871000D01*
X173402000Y-110871000D02*
X174561500Y-112030500D01*
X165667388Y-100584000D02*
X169672000Y-100584000D01*
X175432407Y-97074999D02*
X175848009Y-96659397D01*
X157035500Y-104076500D02*
X159448500Y-104076500D01*
X159448500Y-104076500D02*
X162987991Y-100537009D01*
X152425400Y-100075998D02*
X151866600Y-100634798D01*
X174197001Y-97074999D02*
X175432407Y-97074999D01*
X162987991Y-100537009D02*
X165620397Y-100537009D01*
X172339000Y-98933000D02*
X174197001Y-97074999D01*
X151866600Y-100634798D02*
X151866600Y-104355900D01*
X175848009Y-91266009D02*
X175387000Y-90805000D01*
X165620397Y-100537009D02*
X165667388Y-100584000D01*
X169926000Y-99568000D02*
X170561000Y-98933000D01*
X175848009Y-96659397D02*
X175848009Y-91266009D01*
X156193491Y-104918509D02*
X157035500Y-104076500D01*
X151866600Y-104355900D02*
X152429209Y-104918509D01*
X169672000Y-100584000D02*
X169926000Y-100330000D01*
X170561000Y-98933000D02*
X172339000Y-98933000D01*
X169926000Y-100330000D02*
X169926000Y-99568000D01*
X152429209Y-104918509D02*
X156193491Y-104918509D01*
%TA.AperFunction,Conductor*%
G36*
X181153525Y-64861320D02*
G01*
X188237518Y-64895876D01*
X188305540Y-64916211D01*
X188351771Y-64970092D01*
X188362903Y-65021759D01*
X188365810Y-68176949D01*
X188345871Y-68245088D01*
X188337993Y-68256035D01*
X186970005Y-69956775D01*
X186529505Y-70504424D01*
X186520419Y-70514547D01*
X186502113Y-70532853D01*
X186497068Y-70551679D01*
X186490642Y-70569921D01*
X186482774Y-70587752D01*
X186484562Y-70604242D01*
X186484562Y-70604243D01*
X186485566Y-70613501D01*
X186486300Y-70627084D01*
X186486300Y-86040116D01*
X186485566Y-86053699D01*
X186482774Y-86079448D01*
X186490642Y-86097279D01*
X186497068Y-86115521D01*
X186502113Y-86134347D01*
X186520419Y-86152653D01*
X186529505Y-86162776D01*
X186578643Y-86223867D01*
X188322979Y-88392499D01*
X188338081Y-88411275D01*
X188365190Y-88476892D01*
X188365900Y-88490247D01*
X188365900Y-111102953D01*
X188345898Y-111171074D01*
X188338083Y-111181923D01*
X187074115Y-112753341D01*
X186529505Y-113430424D01*
X186520419Y-113440547D01*
X186502113Y-113458853D01*
X186497068Y-113477679D01*
X186490642Y-113495921D01*
X186482774Y-113513752D01*
X186484562Y-113530242D01*
X186484562Y-113530243D01*
X186485566Y-113539501D01*
X186486300Y-113553084D01*
X186486300Y-128966116D01*
X186485566Y-128979699D01*
X186482774Y-129005448D01*
X186490642Y-129023279D01*
X186497068Y-129041521D01*
X186502113Y-129060347D01*
X186520419Y-129078653D01*
X186529505Y-129088776D01*
X186694555Y-129293973D01*
X188329281Y-131326334D01*
X188337999Y-131337173D01*
X188365108Y-131402790D01*
X188365818Y-131416242D01*
X188364961Y-132431368D01*
X188364655Y-132794344D01*
X188364655Y-132794430D01*
X188343773Y-146513995D01*
X188343503Y-146522043D01*
X188337938Y-146606952D01*
X188335787Y-146623293D01*
X188291873Y-146844067D01*
X188287609Y-146859980D01*
X188215253Y-147073134D01*
X188208946Y-147088360D01*
X188109389Y-147290242D01*
X188101148Y-147304516D01*
X187976090Y-147491678D01*
X187966057Y-147504753D01*
X187817636Y-147673995D01*
X187805995Y-147685636D01*
X187670632Y-147804346D01*
X187636753Y-147834057D01*
X187623678Y-147844090D01*
X187436516Y-147969148D01*
X187422242Y-147977389D01*
X187220360Y-148076946D01*
X187205136Y-148083252D01*
X186991980Y-148155609D01*
X186976070Y-148159872D01*
X186865680Y-148181830D01*
X186755293Y-148203787D01*
X186738953Y-148205938D01*
X186527020Y-148219829D01*
X186521758Y-148220001D01*
X186506100Y-148215806D01*
X186490078Y-148220099D01*
X186477744Y-148220099D01*
X186469380Y-148221200D01*
X172480801Y-148221200D01*
X172412680Y-148201198D01*
X172402550Y-148193956D01*
X172354152Y-148155607D01*
X170135175Y-146397358D01*
X170124332Y-146387698D01*
X170106747Y-146370113D01*
X170090723Y-146365820D01*
X170090722Y-146365819D01*
X170086940Y-146364806D01*
X170069525Y-146358743D01*
X170065928Y-146357187D01*
X170050703Y-146350601D01*
X170027556Y-146353282D01*
X170025997Y-146353463D01*
X170011498Y-146354300D01*
X154599484Y-146354300D01*
X154585901Y-146353566D01*
X154576643Y-146352562D01*
X154576642Y-146352562D01*
X154560152Y-146350774D01*
X154542321Y-146358642D01*
X154524079Y-146365068D01*
X154505253Y-146370113D01*
X154486947Y-146388419D01*
X154476824Y-146397505D01*
X154196115Y-146623293D01*
X152287776Y-148158262D01*
X152228325Y-148206081D01*
X152162708Y-148233190D01*
X152149353Y-148233900D01*
X144376000Y-148233900D01*
X144307879Y-148213898D01*
X144261386Y-148160242D01*
X144250000Y-148107900D01*
X144250000Y-143201190D01*
X180469656Y-143201190D01*
X180478570Y-143541611D01*
X180526552Y-143878751D01*
X180612966Y-144208143D01*
X180614285Y-144211526D01*
X180715864Y-144472061D01*
X180736667Y-144525419D01*
X180738371Y-144528637D01*
X180869385Y-144776078D01*
X180896015Y-144826374D01*
X180898067Y-144829359D01*
X180898072Y-144829368D01*
X181086840Y-145104028D01*
X181086846Y-145104035D01*
X181088897Y-145107020D01*
X181312758Y-145363637D01*
X181315443Y-145366080D01*
X181518486Y-145550834D01*
X181564631Y-145592823D01*
X181841176Y-145791541D01*
X182138728Y-145957156D01*
X182453344Y-146087475D01*
X182456838Y-146088470D01*
X182456840Y-146088471D01*
X182777352Y-146179771D01*
X182777357Y-146179772D01*
X182780853Y-146180768D01*
X182973864Y-146212375D01*
X183113334Y-146235214D01*
X183113341Y-146235215D01*
X183116915Y-146235800D01*
X183286995Y-146243821D01*
X183453448Y-146251671D01*
X183453449Y-146251671D01*
X183457075Y-146251842D01*
X183465052Y-146251298D01*
X183793193Y-146228928D01*
X183793201Y-146228927D01*
X183796824Y-146228680D01*
X183800400Y-146228017D01*
X183800402Y-146228017D01*
X184128094Y-146167283D01*
X184128098Y-146167282D01*
X184131659Y-146166622D01*
X184457143Y-146066490D01*
X184490209Y-146051975D01*
X184765628Y-145931075D01*
X184765633Y-145931072D01*
X184768960Y-145929612D01*
X185062979Y-145757801D01*
X185335302Y-145553335D01*
X185582319Y-145318925D01*
X185800757Y-145057676D01*
X185802745Y-145054650D01*
X185985733Y-144776078D01*
X185985738Y-144776069D01*
X185987720Y-144773052D01*
X186110648Y-144528637D01*
X186139103Y-144472061D01*
X186139106Y-144472053D01*
X186140730Y-144468825D01*
X186257759Y-144149028D01*
X186258604Y-144145506D01*
X186258607Y-144145498D01*
X186336409Y-143821429D01*
X186336410Y-143821425D01*
X186337256Y-143817900D01*
X186370256Y-143545202D01*
X186377831Y-143482607D01*
X186377831Y-143482600D01*
X186378167Y-143479828D01*
X186384004Y-143294100D01*
X186364401Y-142954127D01*
X186363778Y-142950557D01*
X186306477Y-142622233D01*
X186306475Y-142622226D01*
X186305853Y-142618660D01*
X186209135Y-142292146D01*
X186173530Y-142208670D01*
X186076952Y-141982249D01*
X186075529Y-141978912D01*
X186026673Y-141893257D01*
X185908598Y-141686250D01*
X185906807Y-141683110D01*
X185705204Y-141408661D01*
X185642200Y-141340860D01*
X185475865Y-141161863D01*
X185475863Y-141161861D01*
X185473393Y-141159203D01*
X185470639Y-141156851D01*
X185470635Y-141156847D01*
X185250694Y-140969000D01*
X185214446Y-140938041D01*
X184931796Y-140748108D01*
X184846341Y-140704001D01*
X184632408Y-140593582D01*
X184629188Y-140591920D01*
X184310634Y-140471549D01*
X184307113Y-140470665D01*
X184307108Y-140470663D01*
X184148879Y-140430919D01*
X183980356Y-140388589D01*
X183959016Y-140385780D01*
X183646336Y-140344614D01*
X183646328Y-140344613D01*
X183642732Y-140344140D01*
X183501193Y-140341917D01*
X183305878Y-140338848D01*
X183305874Y-140338848D01*
X183302236Y-140338791D01*
X183298622Y-140339152D01*
X183298616Y-140339152D01*
X183059550Y-140363014D01*
X182963382Y-140372613D01*
X182630661Y-140445158D01*
X182627234Y-140446331D01*
X182627228Y-140446333D01*
X182311914Y-140554289D01*
X182311909Y-140554291D01*
X182308483Y-140555464D01*
X182305215Y-140557023D01*
X182305207Y-140557026D01*
X182148479Y-140631782D01*
X182001119Y-140702069D01*
X181712642Y-140883030D01*
X181709808Y-140885300D01*
X181709803Y-140885304D01*
X181643977Y-140938041D01*
X181446876Y-141095949D01*
X181207343Y-141338003D01*
X180997219Y-141605984D01*
X180995326Y-141609073D01*
X180995324Y-141609076D01*
X180951743Y-141680195D01*
X180819289Y-141896340D01*
X180817770Y-141899612D01*
X180817767Y-141899618D01*
X180780960Y-141978912D01*
X180675910Y-142205223D01*
X180568984Y-142528538D01*
X180568248Y-142532093D01*
X180568247Y-142532096D01*
X180500665Y-142858436D01*
X180499927Y-142862000D01*
X180499604Y-142865622D01*
X180499603Y-142865627D01*
X180491705Y-142954127D01*
X180469656Y-143201190D01*
X144250000Y-143201190D01*
X144250000Y-140969000D01*
X144270002Y-140900879D01*
X144323658Y-140854386D01*
X144376000Y-140843000D01*
X181102000Y-140843000D01*
X181102000Y-110660951D01*
X181122002Y-110592830D01*
X181175658Y-110546337D01*
X181228000Y-110534951D01*
X182097379Y-110534951D01*
X182121961Y-110537372D01*
X182136424Y-110540249D01*
X182241919Y-110519264D01*
X182254161Y-110511084D01*
X182254163Y-110511084D01*
X182321032Y-110466404D01*
X182321035Y-110466401D01*
X182331354Y-110459506D01*
X182339550Y-110447240D01*
X182355215Y-110428153D01*
X182672563Y-110110805D01*
X182734875Y-110076779D01*
X182761658Y-110073900D01*
X183687120Y-110073899D01*
X183803056Y-110073899D01*
X183819710Y-110070587D01*
X183835483Y-110067450D01*
X183835485Y-110067449D01*
X183847658Y-110065028D01*
X183898234Y-110031234D01*
X183924903Y-109991322D01*
X183925135Y-109990975D01*
X183925136Y-109990972D01*
X183932028Y-109980658D01*
X183940900Y-109936057D01*
X183940899Y-108597944D01*
X183932028Y-108553342D01*
X183898234Y-108502766D01*
X183886981Y-108495247D01*
X183857975Y-108475865D01*
X183857972Y-108475864D01*
X183847658Y-108468972D01*
X183835491Y-108466552D01*
X183835489Y-108466551D01*
X183817257Y-108462925D01*
X183803057Y-108460100D01*
X183753982Y-108460100D01*
X182627457Y-108460101D01*
X182559336Y-108440099D01*
X182512843Y-108386443D01*
X182502739Y-108316169D01*
X182532232Y-108251589D01*
X182538362Y-108245006D01*
X182727961Y-108055407D01*
X182790273Y-108021381D01*
X182860975Y-108026405D01*
X182937558Y-108054886D01*
X183116995Y-108078828D01*
X183124006Y-108078190D01*
X183124010Y-108078190D01*
X183290255Y-108063060D01*
X183297276Y-108062421D01*
X183303976Y-108060244D01*
X183303981Y-108060243D01*
X183462744Y-108008658D01*
X183462747Y-108008657D01*
X183469443Y-108006481D01*
X183624938Y-107913787D01*
X183630032Y-107908936D01*
X183630036Y-107908933D01*
X183722963Y-107820439D01*
X183756033Y-107788947D01*
X183856211Y-107638166D01*
X183900813Y-107520750D01*
X183917995Y-107475520D01*
X183917996Y-107475518D01*
X183920495Y-107468938D01*
X183921892Y-107458999D01*
X183945138Y-107293597D01*
X183945139Y-107293589D01*
X183945689Y-107289673D01*
X183946006Y-107267000D01*
X183925827Y-107087101D01*
X183923510Y-107080447D01*
X183868612Y-106922802D01*
X183868610Y-106922799D01*
X183866293Y-106916144D01*
X183856226Y-106900033D01*
X183774097Y-106768598D01*
X183770364Y-106762624D01*
X183693250Y-106684970D01*
X183647769Y-106639170D01*
X183647765Y-106639167D01*
X183642806Y-106634173D01*
X183625894Y-106623440D01*
X183580498Y-106594631D01*
X183489960Y-106537174D01*
X183435785Y-106517883D01*
X183326056Y-106478810D01*
X183326054Y-106478809D01*
X183319422Y-106476448D01*
X183312436Y-106475615D01*
X183312432Y-106475614D01*
X183183752Y-106460271D01*
X183139669Y-106455014D01*
X183132666Y-106455750D01*
X183132665Y-106455750D01*
X183086310Y-106460622D01*
X182959634Y-106473936D01*
X182952966Y-106476206D01*
X182794932Y-106530005D01*
X182794929Y-106530006D01*
X182788265Y-106532275D01*
X182634079Y-106627131D01*
X182629048Y-106632058D01*
X182629045Y-106632060D01*
X182570889Y-106689011D01*
X182504740Y-106753788D01*
X182406677Y-106905954D01*
X182404268Y-106912574D01*
X182404267Y-106912575D01*
X182350132Y-107061310D01*
X182344762Y-107076063D01*
X182322073Y-107255663D01*
X182339738Y-107435826D01*
X182374138Y-107539236D01*
X182375849Y-107544379D01*
X182378372Y-107615331D01*
X182345386Y-107673246D01*
X181317095Y-108701537D01*
X181254783Y-108735563D01*
X181183968Y-108730498D01*
X181127132Y-108687951D01*
X181102321Y-108621431D01*
X181102000Y-108612442D01*
X181102000Y-105255663D01*
X182322073Y-105255663D01*
X182339738Y-105435826D01*
X182396879Y-105607598D01*
X182400526Y-105613620D01*
X182400527Y-105613622D01*
X182459240Y-105710568D01*
X182490656Y-105762442D01*
X182495552Y-105767512D01*
X182516252Y-105788947D01*
X182616408Y-105892661D01*
X182659864Y-105921098D01*
X182752642Y-105981810D01*
X182767885Y-105991785D01*
X182774489Y-105994241D01*
X182774491Y-105994242D01*
X182807401Y-106006481D01*
X182937558Y-106054886D01*
X183116995Y-106078828D01*
X183124006Y-106078190D01*
X183124010Y-106078190D01*
X183290255Y-106063060D01*
X183297276Y-106062421D01*
X183303976Y-106060244D01*
X183303981Y-106060243D01*
X183462744Y-106008658D01*
X183462747Y-106008657D01*
X183469443Y-106006481D01*
X183624938Y-105913787D01*
X183630032Y-105908936D01*
X183630036Y-105908933D01*
X183701796Y-105840596D01*
X183756033Y-105788947D01*
X183856211Y-105638166D01*
X183898229Y-105527554D01*
X183917995Y-105475520D01*
X183917996Y-105475518D01*
X183920495Y-105468938D01*
X183926134Y-105428817D01*
X183945138Y-105293597D01*
X183945139Y-105293589D01*
X183945689Y-105289673D01*
X183946006Y-105267000D01*
X183925827Y-105087101D01*
X183908164Y-105036380D01*
X183868612Y-104922802D01*
X183868610Y-104922799D01*
X183866293Y-104916144D01*
X183856226Y-104900033D01*
X183774097Y-104768598D01*
X183770364Y-104762624D01*
X183654847Y-104646298D01*
X183647769Y-104639170D01*
X183647765Y-104639167D01*
X183642806Y-104634173D01*
X183625894Y-104623440D01*
X183584151Y-104596950D01*
X183489960Y-104537174D01*
X183351965Y-104488036D01*
X183326056Y-104478810D01*
X183326054Y-104478809D01*
X183319422Y-104476448D01*
X183312436Y-104475615D01*
X183312432Y-104475614D01*
X183183752Y-104460271D01*
X183139669Y-104455014D01*
X183132666Y-104455750D01*
X183132665Y-104455750D01*
X183086310Y-104460622D01*
X182959634Y-104473936D01*
X182952966Y-104476206D01*
X182794932Y-104530005D01*
X182794929Y-104530006D01*
X182788265Y-104532275D01*
X182634079Y-104627131D01*
X182629048Y-104632058D01*
X182629045Y-104632060D01*
X182624442Y-104636568D01*
X182504740Y-104753788D01*
X182406677Y-104905954D01*
X182404268Y-104912574D01*
X182404267Y-104912575D01*
X182356577Y-105043601D01*
X182344762Y-105076063D01*
X182322073Y-105255663D01*
X181102000Y-105255663D01*
X181102000Y-103255663D01*
X182322073Y-103255663D01*
X182339738Y-103435826D01*
X182396879Y-103607598D01*
X182400526Y-103613620D01*
X182400527Y-103613622D01*
X182427825Y-103658696D01*
X182490656Y-103762442D01*
X182616408Y-103892661D01*
X182767885Y-103991785D01*
X182774489Y-103994241D01*
X182774491Y-103994242D01*
X182797705Y-104002875D01*
X182937558Y-104054886D01*
X183116995Y-104078828D01*
X183124006Y-104078190D01*
X183124010Y-104078190D01*
X183290255Y-104063060D01*
X183297276Y-104062421D01*
X183303976Y-104060244D01*
X183303981Y-104060243D01*
X183462744Y-104008658D01*
X183462747Y-104008657D01*
X183469443Y-104006481D01*
X183624938Y-103913787D01*
X183630032Y-103908936D01*
X183630036Y-103908933D01*
X183723948Y-103819501D01*
X183756033Y-103788947D01*
X183856211Y-103638166D01*
X183904718Y-103510470D01*
X183917995Y-103475520D01*
X183917996Y-103475518D01*
X183920495Y-103468938D01*
X183922940Y-103451543D01*
X183945138Y-103293597D01*
X183945139Y-103293589D01*
X183945689Y-103289673D01*
X183946006Y-103267000D01*
X183925827Y-103087101D01*
X183923510Y-103080447D01*
X183868612Y-102922802D01*
X183868610Y-102922799D01*
X183866293Y-102916144D01*
X183846583Y-102884601D01*
X183774097Y-102768598D01*
X183770364Y-102762624D01*
X183678713Y-102670331D01*
X183647769Y-102639170D01*
X183647765Y-102639167D01*
X183642806Y-102634173D01*
X183629041Y-102625437D01*
X183544610Y-102571856D01*
X183489960Y-102537174D01*
X183386628Y-102500379D01*
X183326056Y-102478810D01*
X183326054Y-102478809D01*
X183319422Y-102476448D01*
X183312436Y-102475615D01*
X183312432Y-102475614D01*
X183183752Y-102460271D01*
X183139669Y-102455014D01*
X183132666Y-102455750D01*
X183132665Y-102455750D01*
X183086310Y-102460622D01*
X182959634Y-102473936D01*
X182952966Y-102476206D01*
X182794932Y-102530005D01*
X182794929Y-102530006D01*
X182788265Y-102532275D01*
X182634079Y-102627131D01*
X182629048Y-102632058D01*
X182629045Y-102632060D01*
X182576077Y-102683930D01*
X182504740Y-102753788D01*
X182406677Y-102905954D01*
X182404268Y-102912574D01*
X182404267Y-102912575D01*
X182355744Y-103045891D01*
X182344762Y-103076063D01*
X182322073Y-103255663D01*
X181102000Y-103255663D01*
X181102000Y-101255663D01*
X182322073Y-101255663D01*
X182339738Y-101435826D01*
X182396879Y-101607598D01*
X182400526Y-101613620D01*
X182400527Y-101613622D01*
X182418947Y-101644037D01*
X182490656Y-101762442D01*
X182616408Y-101892661D01*
X182767885Y-101991785D01*
X182774489Y-101994241D01*
X182774491Y-101994242D01*
X182797705Y-102002875D01*
X182937558Y-102054886D01*
X183116995Y-102078828D01*
X183124006Y-102078190D01*
X183124010Y-102078190D01*
X183290255Y-102063060D01*
X183297276Y-102062421D01*
X183303976Y-102060244D01*
X183303981Y-102060243D01*
X183462744Y-102008658D01*
X183462747Y-102008657D01*
X183469443Y-102006481D01*
X183624938Y-101913787D01*
X183630032Y-101908936D01*
X183630036Y-101908933D01*
X183701796Y-101840596D01*
X183756033Y-101788947D01*
X183856211Y-101638166D01*
X183920495Y-101468938D01*
X183926134Y-101428817D01*
X183945138Y-101293597D01*
X183945139Y-101293589D01*
X183945689Y-101289673D01*
X183946006Y-101267000D01*
X183925827Y-101087101D01*
X183887980Y-100978420D01*
X183868612Y-100922802D01*
X183868610Y-100922799D01*
X183866293Y-100916144D01*
X183826587Y-100852600D01*
X183774097Y-100768598D01*
X183770364Y-100762624D01*
X183706863Y-100698679D01*
X183647769Y-100639170D01*
X183647765Y-100639167D01*
X183642806Y-100634173D01*
X183625894Y-100623440D01*
X183497572Y-100542005D01*
X183489960Y-100537174D01*
X183423271Y-100513427D01*
X183326056Y-100478810D01*
X183326054Y-100478809D01*
X183319422Y-100476448D01*
X183312436Y-100475615D01*
X183312432Y-100475614D01*
X183182087Y-100460072D01*
X183139669Y-100455014D01*
X183132666Y-100455750D01*
X183132665Y-100455750D01*
X183091544Y-100460072D01*
X182959634Y-100473936D01*
X182952966Y-100476206D01*
X182794932Y-100530005D01*
X182794929Y-100530006D01*
X182788265Y-100532275D01*
X182634079Y-100627131D01*
X182629048Y-100632058D01*
X182629045Y-100632060D01*
X182595081Y-100665320D01*
X182504740Y-100753788D01*
X182406677Y-100905954D01*
X182404268Y-100912574D01*
X182404267Y-100912575D01*
X182347171Y-101069444D01*
X182344762Y-101076063D01*
X182322073Y-101255663D01*
X181102000Y-101255663D01*
X181102000Y-99255663D01*
X182322073Y-99255663D01*
X182339738Y-99435826D01*
X182396879Y-99607598D01*
X182400526Y-99613620D01*
X182400527Y-99613622D01*
X182444259Y-99685831D01*
X182490656Y-99762442D01*
X182616408Y-99892661D01*
X182767885Y-99991785D01*
X182774489Y-99994241D01*
X182774491Y-99994242D01*
X182797705Y-100002875D01*
X182937558Y-100054886D01*
X183116995Y-100078828D01*
X183124006Y-100078190D01*
X183124010Y-100078190D01*
X183290255Y-100063060D01*
X183297276Y-100062421D01*
X183303976Y-100060244D01*
X183303981Y-100060243D01*
X183462744Y-100008658D01*
X183462747Y-100008657D01*
X183469443Y-100006481D01*
X183624938Y-99913787D01*
X183630032Y-99908936D01*
X183630036Y-99908933D01*
X183714665Y-99828341D01*
X183756033Y-99788947D01*
X183856211Y-99638166D01*
X183904541Y-99510936D01*
X183917995Y-99475520D01*
X183917996Y-99475518D01*
X183920495Y-99468938D01*
X183929608Y-99404097D01*
X183945138Y-99293597D01*
X183945139Y-99293589D01*
X183945689Y-99289673D01*
X183946006Y-99267000D01*
X183925827Y-99087101D01*
X183917366Y-99062805D01*
X183868612Y-98922802D01*
X183868610Y-98922799D01*
X183866293Y-98916144D01*
X183843968Y-98880416D01*
X183774097Y-98768598D01*
X183770364Y-98762624D01*
X183684343Y-98676001D01*
X183647769Y-98639170D01*
X183647765Y-98639167D01*
X183642806Y-98634173D01*
X183625894Y-98623440D01*
X183555237Y-98578600D01*
X183489960Y-98537174D01*
X183414992Y-98510479D01*
X183326056Y-98478810D01*
X183326054Y-98478809D01*
X183319422Y-98476448D01*
X183312436Y-98475615D01*
X183312432Y-98475614D01*
X183183752Y-98460271D01*
X183139669Y-98455014D01*
X183132666Y-98455750D01*
X183132665Y-98455750D01*
X183086310Y-98460622D01*
X182959634Y-98473936D01*
X182952966Y-98476206D01*
X182794932Y-98530005D01*
X182794929Y-98530006D01*
X182788265Y-98532275D01*
X182634079Y-98627131D01*
X182629048Y-98632058D01*
X182629045Y-98632060D01*
X182614406Y-98646396D01*
X182504740Y-98753788D01*
X182406677Y-98905954D01*
X182404268Y-98912574D01*
X182404267Y-98912575D01*
X182347171Y-99069444D01*
X182344762Y-99076063D01*
X182322073Y-99255663D01*
X181102000Y-99255663D01*
X181102000Y-95377000D01*
X176262799Y-95377000D01*
X176194678Y-95356998D01*
X176148185Y-95303342D01*
X176136799Y-95251000D01*
X176136799Y-91316126D01*
X176136968Y-91313822D01*
X176138649Y-91308927D01*
X176137884Y-91288534D01*
X176136888Y-91262020D01*
X176136799Y-91257293D01*
X176136799Y-91239152D01*
X176135941Y-91234544D01*
X176135740Y-91231449D01*
X176135325Y-91220396D01*
X176134613Y-91201420D01*
X176130020Y-91190729D01*
X176128690Y-91184827D01*
X176126408Y-91177318D01*
X176124233Y-91171682D01*
X176122103Y-91160245D01*
X176109863Y-91140388D01*
X176101355Y-91124009D01*
X176095655Y-91110743D01*
X176092145Y-91102573D01*
X176088288Y-91097877D01*
X176086109Y-91095698D01*
X176084046Y-91093423D01*
X176084266Y-91093223D01*
X176078960Y-91086511D01*
X176071755Y-91078565D01*
X176065651Y-91068663D01*
X176044990Y-91052952D01*
X176032162Y-91041751D01*
X175889594Y-90899183D01*
X175855568Y-90836871D01*
X175853321Y-90814710D01*
X175852999Y-90814731D01*
X175852682Y-90809861D01*
X175852741Y-90805000D01*
X175847574Y-90768920D01*
X175835294Y-90683168D01*
X175835293Y-90683165D01*
X175834021Y-90674282D01*
X175779365Y-90554072D01*
X175773507Y-90547273D01*
X175773504Y-90547269D01*
X175771809Y-90545302D01*
X177969294Y-90545302D01*
X177970458Y-90554204D01*
X177970458Y-90554207D01*
X177971526Y-90562371D01*
X177986416Y-90676239D01*
X178039599Y-90797107D01*
X178045376Y-90803980D01*
X178045377Y-90803981D01*
X178073024Y-90836871D01*
X178124569Y-90898191D01*
X178234493Y-90971363D01*
X178360537Y-91010742D01*
X178492566Y-91013162D01*
X178582823Y-90988555D01*
X178611309Y-90980789D01*
X178611311Y-90980788D01*
X178619968Y-90978428D01*
X178732500Y-90909333D01*
X178821117Y-90811431D01*
X178878694Y-90692593D01*
X178900602Y-90562371D01*
X178900741Y-90550992D01*
X178895384Y-90513583D01*
X178883294Y-90429160D01*
X178883293Y-90429157D01*
X178882021Y-90420274D01*
X178827365Y-90300064D01*
X178821507Y-90293265D01*
X178821504Y-90293261D01*
X178747027Y-90206827D01*
X178747024Y-90206825D01*
X178741167Y-90200027D01*
X178630356Y-90128203D01*
X178503841Y-90090367D01*
X178494865Y-90090312D01*
X178494864Y-90090312D01*
X178440231Y-90089978D01*
X178371792Y-90089560D01*
X178244824Y-90125848D01*
X178133144Y-90196312D01*
X178127201Y-90203041D01*
X178127200Y-90203042D01*
X178095713Y-90238695D01*
X178045730Y-90295290D01*
X178041914Y-90303418D01*
X178007185Y-90377390D01*
X177989610Y-90414823D01*
X177988229Y-90423692D01*
X177972589Y-90524143D01*
X177969294Y-90545302D01*
X175771809Y-90545302D01*
X175699027Y-90460835D01*
X175699024Y-90460833D01*
X175693167Y-90454035D01*
X175582356Y-90382211D01*
X175455841Y-90344375D01*
X175446865Y-90344320D01*
X175446864Y-90344320D01*
X175392231Y-90343986D01*
X175323792Y-90343568D01*
X175196824Y-90379856D01*
X175085144Y-90450320D01*
X175079201Y-90457049D01*
X175079200Y-90457050D01*
X175053270Y-90486411D01*
X174997730Y-90549298D01*
X174941610Y-90668831D01*
X174921294Y-90799310D01*
X174922458Y-90808212D01*
X174922458Y-90808215D01*
X174927250Y-90844861D01*
X174938416Y-90930247D01*
X174942033Y-90938467D01*
X174973835Y-91010742D01*
X174991599Y-91051115D01*
X174997376Y-91057988D01*
X174997377Y-91057989D01*
X175052873Y-91124009D01*
X175076569Y-91152199D01*
X175186493Y-91225371D01*
X175277325Y-91253749D01*
X175303799Y-91262020D01*
X175312537Y-91264750D01*
X175389855Y-91266167D01*
X175457597Y-91287414D01*
X175476640Y-91303051D01*
X175522314Y-91348725D01*
X175556340Y-91411037D01*
X175559219Y-91437820D01*
X175559219Y-95251000D01*
X175539217Y-95319121D01*
X175485561Y-95365614D01*
X175433219Y-95377000D01*
X172466000Y-95377000D01*
X172450384Y-95395115D01*
X171185349Y-96862555D01*
X171124543Y-96901433D01*
X171114404Y-96904331D01*
X171114400Y-96904333D01*
X171105771Y-96906799D01*
X170994091Y-96977263D01*
X170906677Y-97076241D01*
X170902861Y-97084369D01*
X170858968Y-97177860D01*
X170850557Y-97195774D01*
X170849176Y-97204644D01*
X170845622Y-97227469D01*
X170816556Y-97290355D01*
X170552447Y-97596722D01*
X170508463Y-97629469D01*
X170506455Y-97630367D01*
X170497824Y-97632834D01*
X170386144Y-97703298D01*
X170380201Y-97710027D01*
X170380200Y-97710028D01*
X170352731Y-97741131D01*
X170298730Y-97802276D01*
X170242610Y-97921809D01*
X170241229Y-97930678D01*
X170238604Y-97939264D01*
X170236733Y-97938692D01*
X170212565Y-97990984D01*
X169291000Y-99060000D01*
X169291000Y-99483405D01*
X169270998Y-99551526D01*
X169217342Y-99598019D01*
X169147068Y-99608123D01*
X169128898Y-99604122D01*
X169018385Y-99571072D01*
X169009367Y-99568375D01*
X169000391Y-99568320D01*
X169000390Y-99568320D01*
X168945757Y-99567986D01*
X168877318Y-99567568D01*
X168750350Y-99603856D01*
X168638670Y-99674320D01*
X168632727Y-99681049D01*
X168632726Y-99681050D01*
X168601758Y-99716115D01*
X168551256Y-99773298D01*
X168547440Y-99781426D01*
X168504177Y-99873575D01*
X168495136Y-99892831D01*
X168493755Y-99901698D01*
X168493755Y-99901699D01*
X168483216Y-99969386D01*
X168452971Y-100033618D01*
X168392801Y-100071302D01*
X168358716Y-100076000D01*
X165927334Y-100076000D01*
X165859213Y-100055998D01*
X165812720Y-100002342D01*
X165803080Y-99929096D01*
X165810062Y-99887592D01*
X165819183Y-99833379D01*
X165819322Y-99822000D01*
X165811519Y-99767512D01*
X165801875Y-99700168D01*
X165801874Y-99700165D01*
X165800602Y-99691282D01*
X165745946Y-99571072D01*
X165740088Y-99564273D01*
X165740085Y-99564269D01*
X165665608Y-99477835D01*
X165665605Y-99477833D01*
X165659748Y-99471035D01*
X165548937Y-99399211D01*
X165422422Y-99361375D01*
X165413446Y-99361320D01*
X165413445Y-99361320D01*
X165358812Y-99360986D01*
X165290373Y-99360568D01*
X165281741Y-99363035D01*
X165262417Y-99368558D01*
X165260625Y-99369070D01*
X165189630Y-99368558D01*
X165130182Y-99329744D01*
X165101156Y-99264952D01*
X165100000Y-99247921D01*
X165100000Y-98578600D01*
X165120002Y-98510479D01*
X165173658Y-98463986D01*
X165226000Y-98452600D01*
X165822149Y-98452600D01*
X165824574Y-98452778D01*
X165829516Y-98454475D01*
X165841138Y-98454039D01*
X165841141Y-98454039D01*
X165877081Y-98452689D01*
X165881809Y-98452600D01*
X165900211Y-98452600D01*
X165904860Y-98451734D01*
X165908092Y-98451525D01*
X165926812Y-98450822D01*
X165926813Y-98450822D01*
X165938441Y-98450385D01*
X165949131Y-98445792D01*
X165954628Y-98444553D01*
X165963484Y-98441862D01*
X165968726Y-98439839D01*
X165980160Y-98437710D01*
X166000387Y-98425242D01*
X166016766Y-98416734D01*
X166030423Y-98410867D01*
X166030425Y-98410866D01*
X166038592Y-98407357D01*
X166043351Y-98403448D01*
X166045545Y-98401254D01*
X166047806Y-98399204D01*
X166047989Y-98399406D01*
X166055439Y-98393516D01*
X166063045Y-98386620D01*
X166072950Y-98380514D01*
X166088940Y-98359486D01*
X166100141Y-98346658D01*
X169080940Y-95365859D01*
X169082784Y-95364267D01*
X169087477Y-95361973D01*
X169119857Y-95327067D01*
X169123137Y-95323662D01*
X169136141Y-95310658D01*
X169138816Y-95306758D01*
X169140946Y-95304333D01*
X169153694Y-95290591D01*
X169153696Y-95290588D01*
X169161607Y-95282060D01*
X169165918Y-95271255D01*
X169168917Y-95266511D01*
X169173286Y-95258328D01*
X169175561Y-95253193D01*
X169182144Y-95243597D01*
X169187629Y-95220482D01*
X169193194Y-95202885D01*
X169193854Y-95201231D01*
X169201999Y-95180817D01*
X169202600Y-95174688D01*
X169202600Y-95171609D01*
X169202750Y-95168537D01*
X169203021Y-95168550D01*
X169204124Y-95159125D01*
X169204626Y-95148863D01*
X169207313Y-95137541D01*
X169203751Y-95111367D01*
X169202600Y-95094377D01*
X169202600Y-91942193D01*
X172371725Y-91942193D01*
X172372889Y-91951095D01*
X172372889Y-91951098D01*
X172387396Y-92062035D01*
X172389200Y-92075828D01*
X172443479Y-92199187D01*
X172449256Y-92206060D01*
X172449257Y-92206061D01*
X172509805Y-92278090D01*
X172530200Y-92302353D01*
X172642390Y-92377033D01*
X172771030Y-92417223D01*
X172780000Y-92417387D01*
X172780004Y-92417388D01*
X172841770Y-92418520D01*
X172905780Y-92419693D01*
X172914840Y-92417223D01*
X173027145Y-92386606D01*
X173027148Y-92386605D01*
X173035807Y-92384244D01*
X173043457Y-92379547D01*
X173043459Y-92379546D01*
X173143007Y-92318424D01*
X173143010Y-92318421D01*
X173150659Y-92313725D01*
X173160953Y-92302353D01*
X173235073Y-92220466D01*
X173235074Y-92220465D01*
X173241101Y-92213806D01*
X173252166Y-92190969D01*
X173295949Y-92100599D01*
X173295949Y-92100598D01*
X173299864Y-92092518D01*
X173322224Y-91959614D01*
X173322366Y-91948000D01*
X173307481Y-91844061D01*
X173304533Y-91823474D01*
X173304532Y-91823471D01*
X173303260Y-91814588D01*
X173297038Y-91800902D01*
X173271116Y-91743892D01*
X173247478Y-91691902D01*
X173159503Y-91589803D01*
X173046410Y-91516499D01*
X173037813Y-91513928D01*
X173037811Y-91513927D01*
X172943492Y-91485720D01*
X172917287Y-91477883D01*
X172908311Y-91477828D01*
X172908310Y-91477828D01*
X172850875Y-91477477D01*
X172782517Y-91477060D01*
X172773886Y-91479527D01*
X172773884Y-91479527D01*
X172661564Y-91511628D01*
X172661562Y-91511629D01*
X172652933Y-91514095D01*
X172579833Y-91560218D01*
X172551050Y-91578379D01*
X172538952Y-91586012D01*
X172533009Y-91592741D01*
X172533008Y-91592742D01*
X172514752Y-91613413D01*
X172449737Y-91687029D01*
X172445923Y-91695152D01*
X172445922Y-91695154D01*
X172418488Y-91753587D01*
X172392460Y-91809025D01*
X172391080Y-91817890D01*
X172391079Y-91817892D01*
X172376084Y-91914199D01*
X172371725Y-91942193D01*
X169202600Y-91942193D01*
X169202600Y-86791853D01*
X169202778Y-86789427D01*
X169204475Y-86784485D01*
X169202689Y-86736909D01*
X169202600Y-86732182D01*
X169202600Y-86713789D01*
X169201734Y-86709144D01*
X169201525Y-86705913D01*
X169200822Y-86687187D01*
X169200386Y-86675560D01*
X169195794Y-86664871D01*
X169194561Y-86659400D01*
X169191861Y-86650513D01*
X169189840Y-86645274D01*
X169187710Y-86633840D01*
X169181607Y-86623939D01*
X169177418Y-86613083D01*
X169178972Y-86612484D01*
X169164000Y-86559661D01*
X169164000Y-83185000D01*
X169156431Y-83177336D01*
X163310303Y-77258131D01*
X170327202Y-77258131D01*
X170327625Y-77264107D01*
X170327625Y-77264110D01*
X170331584Y-77320022D01*
X170331899Y-77328921D01*
X170331899Y-81691498D01*
X170330991Y-81702257D01*
X170331297Y-81702279D01*
X170330858Y-81708257D01*
X170329852Y-81714173D01*
X170329983Y-81720173D01*
X170331869Y-81806599D01*
X170331899Y-81809348D01*
X170331899Y-81848198D01*
X170332599Y-81855540D01*
X170333137Y-81864730D01*
X170334454Y-81925054D01*
X170341485Y-81957713D01*
X170343735Y-81972253D01*
X170346335Y-81999509D01*
X170346336Y-81999515D01*
X170346905Y-82005476D01*
X170348592Y-82011226D01*
X170363881Y-82063343D01*
X170366154Y-82072293D01*
X170378849Y-82131259D01*
X170391928Y-82161997D01*
X170396881Y-82175831D01*
X170406282Y-82207876D01*
X170409029Y-82213209D01*
X170433899Y-82261498D01*
X170437823Y-82269856D01*
X170461436Y-82325349D01*
X170464781Y-82330317D01*
X170464785Y-82330325D01*
X170480081Y-82353045D01*
X170487576Y-82365718D01*
X170496566Y-82383172D01*
X170502862Y-82395397D01*
X170519805Y-82416966D01*
X170540123Y-82442832D01*
X170545552Y-82450290D01*
X170579234Y-82500321D01*
X170582974Y-82504446D01*
X170603498Y-82524970D01*
X170613488Y-82536231D01*
X170633158Y-82561272D01*
X170637689Y-82565204D01*
X170637694Y-82565209D01*
X170680026Y-82601943D01*
X170686541Y-82608013D01*
X172465772Y-84387244D01*
X172491102Y-84423587D01*
X172516166Y-84477954D01*
X172640153Y-84653392D01*
X172794036Y-84803298D01*
X172798832Y-84806503D01*
X172798835Y-84806505D01*
X172967855Y-84919440D01*
X172967860Y-84919443D01*
X172972660Y-84922650D01*
X172977969Y-84924931D01*
X172977971Y-84924932D01*
X173164732Y-85005172D01*
X173164736Y-85005173D01*
X173170042Y-85007453D01*
X173175674Y-85008727D01*
X173175676Y-85008728D01*
X173373937Y-85053590D01*
X173373942Y-85053591D01*
X173379574Y-85054865D01*
X173385345Y-85055092D01*
X173385347Y-85055092D01*
X173451414Y-85057688D01*
X173594238Y-85063299D01*
X173718968Y-85045214D01*
X173801121Y-85033303D01*
X173801125Y-85033302D01*
X173806843Y-85032473D01*
X173812315Y-85030615D01*
X173812317Y-85030615D01*
X174004807Y-84965273D01*
X174004809Y-84965272D01*
X174010271Y-84963418D01*
X174197709Y-84858448D01*
X174260164Y-84806505D01*
X174358440Y-84724769D01*
X174362878Y-84721078D01*
X174443896Y-84623665D01*
X174496557Y-84560347D01*
X174500248Y-84555909D01*
X174605218Y-84368471D01*
X174674273Y-84165043D01*
X174705099Y-83952438D01*
X174706708Y-83891000D01*
X174687051Y-83677072D01*
X174628738Y-83470309D01*
X174533721Y-83277635D01*
X174405184Y-83105502D01*
X174247430Y-82959676D01*
X174065743Y-82845040D01*
X174060382Y-82842901D01*
X174055228Y-82840275D01*
X174055860Y-82839034D01*
X174021405Y-82816333D01*
X172624467Y-81419395D01*
X172590441Y-81357083D01*
X172595506Y-81286268D01*
X172638053Y-81229432D01*
X172704573Y-81204621D01*
X172713562Y-81204300D01*
X174493205Y-81204299D01*
X174563856Y-81204299D01*
X174580510Y-81200987D01*
X174596283Y-81197850D01*
X174596285Y-81197849D01*
X174608458Y-81195428D01*
X174659034Y-81161634D01*
X174665927Y-81151318D01*
X174685935Y-81121375D01*
X174685936Y-81121372D01*
X174692828Y-81111058D01*
X174701700Y-81066457D01*
X174701699Y-79004344D01*
X174692828Y-78959742D01*
X174659034Y-78909166D01*
X174648718Y-78902273D01*
X174618775Y-78882265D01*
X174618772Y-78882264D01*
X174608458Y-78875372D01*
X174596291Y-78872952D01*
X174596289Y-78872951D01*
X174578057Y-78869325D01*
X174563857Y-78866500D01*
X174469257Y-78866500D01*
X172668699Y-78866501D01*
X172600578Y-78846499D01*
X172554085Y-78792843D01*
X172542699Y-78740501D01*
X172542699Y-77858000D01*
X172562701Y-77789879D01*
X172616357Y-77743386D01*
X172668699Y-77732000D01*
X173118394Y-77732000D01*
X173158809Y-77740313D01*
X173159240Y-77738987D01*
X173164733Y-77740772D01*
X173170042Y-77743053D01*
X173175674Y-77744327D01*
X173175679Y-77744329D01*
X173373937Y-77789190D01*
X173373942Y-77789191D01*
X173379574Y-77790465D01*
X173385345Y-77790692D01*
X173385347Y-77790692D01*
X173451414Y-77793288D01*
X173594238Y-77798899D01*
X173718968Y-77780814D01*
X173801121Y-77768903D01*
X173801125Y-77768902D01*
X173806843Y-77768073D01*
X173812315Y-77766215D01*
X173812317Y-77766215D01*
X174004807Y-77700873D01*
X174004809Y-77700872D01*
X174010271Y-77699018D01*
X174197709Y-77594048D01*
X174362878Y-77456678D01*
X174500248Y-77291509D01*
X174605218Y-77104071D01*
X174650770Y-76969882D01*
X174672415Y-76906117D01*
X174672415Y-76906115D01*
X174674273Y-76900643D01*
X174681933Y-76847816D01*
X174699947Y-76723573D01*
X174705099Y-76688038D01*
X174706708Y-76626600D01*
X174687051Y-76412672D01*
X174680772Y-76390406D01*
X174630307Y-76211474D01*
X174628738Y-76205909D01*
X174602106Y-76151904D01*
X174536275Y-76018414D01*
X174533721Y-76013235D01*
X174428767Y-75872684D01*
X174408637Y-75845726D01*
X174408636Y-75845725D01*
X174405184Y-75841102D01*
X174394895Y-75831591D01*
X174251670Y-75699195D01*
X174251667Y-75699193D01*
X174247430Y-75695276D01*
X174065743Y-75580640D01*
X173866208Y-75501034D01*
X173860548Y-75499908D01*
X173860544Y-75499907D01*
X173661174Y-75460250D01*
X173661171Y-75460250D01*
X173655507Y-75459123D01*
X173649732Y-75459047D01*
X173649728Y-75459047D01*
X173542055Y-75457638D01*
X173440696Y-75456311D01*
X173434999Y-75457290D01*
X173434998Y-75457290D01*
X173234667Y-75491713D01*
X173228970Y-75492692D01*
X173187641Y-75507939D01*
X173172806Y-75513412D01*
X173129195Y-75521200D01*
X172199956Y-75521200D01*
X172189203Y-75520293D01*
X172189181Y-75520599D01*
X172183202Y-75520160D01*
X172177286Y-75519154D01*
X172085127Y-75521165D01*
X172084885Y-75521170D01*
X172082137Y-75521200D01*
X172043261Y-75521200D01*
X172035920Y-75521901D01*
X172026708Y-75522440D01*
X172002227Y-75522974D01*
X171972403Y-75523624D01*
X171972401Y-75523624D01*
X171966405Y-75523755D01*
X171933746Y-75530786D01*
X171919208Y-75533036D01*
X171914246Y-75533509D01*
X171891950Y-75535636D01*
X171891944Y-75535637D01*
X171885983Y-75536206D01*
X171880232Y-75537893D01*
X171880233Y-75537893D01*
X171828116Y-75553182D01*
X171819166Y-75555455D01*
X171766065Y-75566887D01*
X171766062Y-75566888D01*
X171760200Y-75568150D01*
X171729462Y-75581229D01*
X171715628Y-75586182D01*
X171683583Y-75595583D01*
X171651972Y-75611864D01*
X171629961Y-75623200D01*
X171621603Y-75627124D01*
X171571627Y-75648389D01*
X171571623Y-75648391D01*
X171566110Y-75650737D01*
X171561142Y-75654082D01*
X171561134Y-75654086D01*
X171538414Y-75669382D01*
X171525741Y-75676877D01*
X171501397Y-75689415D01*
X171501395Y-75689416D01*
X171496062Y-75692163D01*
X171475893Y-75708006D01*
X171448627Y-75729424D01*
X171441169Y-75734853D01*
X171391138Y-75768535D01*
X171387013Y-75772275D01*
X171366489Y-75792799D01*
X171355228Y-75802789D01*
X171330187Y-75822459D01*
X171326255Y-75826990D01*
X171326250Y-75826995D01*
X171289516Y-75869327D01*
X171283446Y-75875842D01*
X170729204Y-76430084D01*
X170720956Y-76437049D01*
X170721156Y-76437281D01*
X170716613Y-76441202D01*
X170711722Y-76444672D01*
X170707573Y-76449006D01*
X170707572Y-76449007D01*
X170647801Y-76511445D01*
X170645878Y-76513410D01*
X170618399Y-76540889D01*
X170616491Y-76543199D01*
X170616487Y-76543204D01*
X170613713Y-76546564D01*
X170607569Y-76553472D01*
X170570014Y-76592702D01*
X170570011Y-76592706D01*
X170565861Y-76597041D01*
X170547754Y-76625085D01*
X170539055Y-76636970D01*
X170521621Y-76658081D01*
X170521615Y-76658090D01*
X170517798Y-76662712D01*
X170514920Y-76667979D01*
X170514919Y-76667981D01*
X170488880Y-76715639D01*
X170484160Y-76723573D01*
X170451444Y-76774242D01*
X170449202Y-76779806D01*
X170449198Y-76779813D01*
X170438966Y-76805202D01*
X170432673Y-76818515D01*
X170419539Y-76842554D01*
X170419536Y-76842562D01*
X170416665Y-76847816D01*
X170414840Y-76853517D01*
X170414838Y-76853522D01*
X170398273Y-76905273D01*
X170395137Y-76913958D01*
X170375776Y-76962000D01*
X170372599Y-76969882D01*
X170371449Y-76975772D01*
X170366203Y-77002636D01*
X170362540Y-77016902D01*
X170354189Y-77042988D01*
X170354186Y-77043002D01*
X170352360Y-77048706D01*
X170351645Y-77054655D01*
X170351645Y-77054657D01*
X170345166Y-77108595D01*
X170343729Y-77117717D01*
X170333546Y-77169863D01*
X170332171Y-77176902D01*
X170331899Y-77182463D01*
X170331899Y-77211487D01*
X170331000Y-77226514D01*
X170327202Y-77258131D01*
X163310303Y-77258131D01*
X161757877Y-75686300D01*
X163110294Y-75686300D01*
X163111458Y-75695202D01*
X163111458Y-75695205D01*
X163113132Y-75708006D01*
X163127416Y-75817237D01*
X163180599Y-75938105D01*
X163186376Y-75944978D01*
X163186377Y-75944979D01*
X163238813Y-76007359D01*
X163265569Y-76039189D01*
X163375493Y-76112361D01*
X163501537Y-76151740D01*
X163633566Y-76154160D01*
X163686190Y-76139813D01*
X163752309Y-76121787D01*
X163752311Y-76121786D01*
X163760968Y-76119426D01*
X163873500Y-76050331D01*
X163962117Y-75952429D01*
X163999223Y-75875842D01*
X164015780Y-75841670D01*
X164015781Y-75841668D01*
X164019694Y-75833591D01*
X164041602Y-75703369D01*
X164041672Y-75697652D01*
X164041682Y-75696850D01*
X164041682Y-75696845D01*
X164041741Y-75691990D01*
X164026589Y-75586186D01*
X164024294Y-75570158D01*
X164024293Y-75570155D01*
X164023021Y-75561272D01*
X163968365Y-75441062D01*
X163962507Y-75434263D01*
X163962504Y-75434259D01*
X163888027Y-75347825D01*
X163888024Y-75347823D01*
X163882167Y-75341025D01*
X163771356Y-75269201D01*
X163644841Y-75231365D01*
X163635865Y-75231310D01*
X163635864Y-75231310D01*
X163581231Y-75230976D01*
X163512792Y-75230558D01*
X163385824Y-75266846D01*
X163274144Y-75337310D01*
X163268201Y-75344039D01*
X163268200Y-75344040D01*
X163257010Y-75356711D01*
X163186730Y-75436288D01*
X163182914Y-75444416D01*
X163141637Y-75532335D01*
X163130610Y-75555821D01*
X163129229Y-75564690D01*
X163111798Y-75676642D01*
X163110294Y-75686300D01*
X161757877Y-75686300D01*
X161105541Y-75025810D01*
X168190294Y-75025810D01*
X168191458Y-75034712D01*
X168191458Y-75034715D01*
X168191890Y-75038017D01*
X168207416Y-75156747D01*
X168211033Y-75164967D01*
X168255861Y-75266846D01*
X168260599Y-75277615D01*
X168266376Y-75284488D01*
X168266377Y-75284489D01*
X168306751Y-75332520D01*
X168345569Y-75378699D01*
X168455493Y-75451871D01*
X168581537Y-75491250D01*
X168713566Y-75493670D01*
X168766190Y-75479323D01*
X168832309Y-75461297D01*
X168832311Y-75461296D01*
X168840968Y-75458936D01*
X168953500Y-75389841D01*
X169042117Y-75291939D01*
X169086705Y-75199911D01*
X169095780Y-75181180D01*
X169095781Y-75181178D01*
X169099694Y-75173101D01*
X169121602Y-75042879D01*
X169121741Y-75031500D01*
X169116055Y-74991798D01*
X169104294Y-74909668D01*
X169104293Y-74909665D01*
X169103021Y-74900782D01*
X169048365Y-74780572D01*
X169042507Y-74773773D01*
X169042504Y-74773769D01*
X168968027Y-74687335D01*
X168968024Y-74687333D01*
X168962167Y-74680535D01*
X168851356Y-74608711D01*
X168724841Y-74570875D01*
X168715865Y-74570820D01*
X168715864Y-74570820D01*
X168661231Y-74570486D01*
X168592792Y-74570068D01*
X168465824Y-74606356D01*
X168354144Y-74676820D01*
X168348201Y-74683549D01*
X168348200Y-74683550D01*
X168328632Y-74705707D01*
X168266730Y-74775798D01*
X168210610Y-74895331D01*
X168209229Y-74904200D01*
X168193021Y-75008297D01*
X168190294Y-75025810D01*
X161105541Y-75025810D01*
X159650727Y-73552810D01*
X168190294Y-73552810D01*
X168191458Y-73561712D01*
X168191458Y-73561715D01*
X168196641Y-73601348D01*
X168207416Y-73683747D01*
X168260599Y-73804615D01*
X168266376Y-73811488D01*
X168266377Y-73811489D01*
X168305796Y-73858383D01*
X168345569Y-73905699D01*
X168455493Y-73978871D01*
X168535375Y-74003828D01*
X168564349Y-74012880D01*
X168581537Y-74018250D01*
X168713566Y-74020670D01*
X168766190Y-74006323D01*
X168832309Y-73988297D01*
X168832311Y-73988296D01*
X168840968Y-73985936D01*
X168953500Y-73916841D01*
X168964758Y-73904404D01*
X169036092Y-73825595D01*
X169042117Y-73818939D01*
X169080969Y-73738750D01*
X169095780Y-73708180D01*
X169095781Y-73708178D01*
X169099694Y-73700101D01*
X169121602Y-73569879D01*
X169121741Y-73558500D01*
X169114416Y-73507352D01*
X169104294Y-73436668D01*
X169104293Y-73436665D01*
X169103021Y-73427782D01*
X169088949Y-73396831D01*
X169070707Y-73356711D01*
X169048365Y-73307572D01*
X169042507Y-73300773D01*
X169042504Y-73300769D01*
X168968027Y-73214335D01*
X168968024Y-73214333D01*
X168962167Y-73207535D01*
X168851356Y-73135711D01*
X168724841Y-73097875D01*
X168715865Y-73097820D01*
X168715864Y-73097820D01*
X168661231Y-73097486D01*
X168592792Y-73097068D01*
X168465824Y-73133356D01*
X168354144Y-73203820D01*
X168348201Y-73210549D01*
X168348200Y-73210550D01*
X168316713Y-73246203D01*
X168266730Y-73302798D01*
X168210610Y-73422331D01*
X168209229Y-73431200D01*
X168193563Y-73531817D01*
X168190294Y-73552810D01*
X159650727Y-73552810D01*
X159016457Y-72910612D01*
X159016455Y-72910611D01*
X159004000Y-72898000D01*
X156871820Y-72393010D01*
X154274961Y-71777964D01*
X154213284Y-71742801D01*
X154180409Y-71679875D01*
X154178000Y-71655356D01*
X154178000Y-71509702D01*
X154198002Y-71441581D01*
X154251658Y-71395088D01*
X154321932Y-71384984D01*
X154336611Y-71387995D01*
X154470119Y-71423769D01*
X154480909Y-71425671D01*
X154680525Y-71443135D01*
X154691475Y-71443135D01*
X154891091Y-71425671D01*
X154901878Y-71423769D01*
X155095429Y-71371907D01*
X155105723Y-71368159D01*
X155287323Y-71283479D01*
X155296811Y-71278001D01*
X155327248Y-71256689D01*
X155335623Y-71246212D01*
X155328554Y-71232764D01*
X154415885Y-70320095D01*
X154381859Y-70257783D01*
X154383694Y-70232132D01*
X155050408Y-70232132D01*
X155050539Y-70233965D01*
X155054790Y-70240580D01*
X155688486Y-70874276D01*
X155700261Y-70880706D01*
X155712276Y-70871410D01*
X155733001Y-70841811D01*
X155738479Y-70832323D01*
X155823159Y-70650723D01*
X155826907Y-70640429D01*
X155878769Y-70446878D01*
X155880671Y-70436091D01*
X155898135Y-70236475D01*
X155898135Y-70231000D01*
X156368402Y-70231000D01*
X156387143Y-70409305D01*
X156442545Y-70579817D01*
X156475902Y-70637592D01*
X156509773Y-70696257D01*
X156532189Y-70735083D01*
X156652155Y-70868320D01*
X156657497Y-70872201D01*
X156657499Y-70872203D01*
X156791859Y-70969821D01*
X156797201Y-70973702D01*
X156803230Y-70976386D01*
X156803233Y-70976388D01*
X156954952Y-71043937D01*
X156954955Y-71043938D01*
X156960988Y-71046624D01*
X157000069Y-71054931D01*
X157129900Y-71082528D01*
X157129905Y-71082528D01*
X157136357Y-71083900D01*
X157315643Y-71083900D01*
X157322095Y-71082528D01*
X157322100Y-71082528D01*
X157451931Y-71054931D01*
X157491012Y-71046624D01*
X157497045Y-71043938D01*
X157497048Y-71043937D01*
X157648767Y-70976388D01*
X157648770Y-70976386D01*
X157654799Y-70973702D01*
X157660141Y-70969821D01*
X157794501Y-70872203D01*
X157794503Y-70872201D01*
X157799845Y-70868320D01*
X157919811Y-70735083D01*
X157942228Y-70696257D01*
X157976098Y-70637592D01*
X158009455Y-70579817D01*
X158064857Y-70409305D01*
X158083598Y-70231000D01*
X158908402Y-70231000D01*
X158927143Y-70409305D01*
X158982545Y-70579817D01*
X159015902Y-70637592D01*
X159049773Y-70696257D01*
X159072189Y-70735083D01*
X159192155Y-70868320D01*
X159197497Y-70872201D01*
X159197499Y-70872203D01*
X159331859Y-70969821D01*
X159337201Y-70973702D01*
X159343230Y-70976386D01*
X159343233Y-70976388D01*
X159494952Y-71043937D01*
X159494955Y-71043938D01*
X159500988Y-71046624D01*
X159540069Y-71054931D01*
X159669900Y-71082528D01*
X159669905Y-71082528D01*
X159676357Y-71083900D01*
X159855643Y-71083900D01*
X159862095Y-71082528D01*
X159862100Y-71082528D01*
X159991931Y-71054931D01*
X160031012Y-71046624D01*
X160037045Y-71043938D01*
X160037048Y-71043937D01*
X160188767Y-70976388D01*
X160188770Y-70976386D01*
X160194799Y-70973702D01*
X160200141Y-70969821D01*
X160334501Y-70872203D01*
X160334503Y-70872201D01*
X160339845Y-70868320D01*
X160459811Y-70735083D01*
X160482228Y-70696257D01*
X160516098Y-70637592D01*
X160549455Y-70579817D01*
X160551493Y-70573543D01*
X160553053Y-70570041D01*
X160579064Y-70532195D01*
X161292685Y-69818574D01*
X161354997Y-69784548D01*
X161425812Y-69789613D01*
X161482648Y-69832160D01*
X161507459Y-69898680D01*
X161501613Y-69946604D01*
X161471900Y-70038053D01*
X161467143Y-70052695D01*
X161448402Y-70231000D01*
X161467143Y-70409305D01*
X161522545Y-70579817D01*
X161555902Y-70637592D01*
X161589773Y-70696257D01*
X161612189Y-70735083D01*
X161732155Y-70868320D01*
X161737497Y-70872201D01*
X161737499Y-70872203D01*
X161871859Y-70969821D01*
X161877201Y-70973702D01*
X161883230Y-70976386D01*
X161883233Y-70976388D01*
X162034952Y-71043937D01*
X162034955Y-71043938D01*
X162040988Y-71046624D01*
X162080069Y-71054931D01*
X162209900Y-71082528D01*
X162209905Y-71082528D01*
X162216357Y-71083900D01*
X162395643Y-71083900D01*
X162402095Y-71082528D01*
X162402100Y-71082528D01*
X162531931Y-71054931D01*
X162571012Y-71046624D01*
X162577045Y-71043938D01*
X162577048Y-71043937D01*
X162728767Y-70976388D01*
X162728770Y-70976386D01*
X162734799Y-70973702D01*
X162740141Y-70969821D01*
X162874501Y-70872203D01*
X162874503Y-70872201D01*
X162879845Y-70868320D01*
X162999811Y-70735083D01*
X163022228Y-70696257D01*
X163056098Y-70637592D01*
X163089455Y-70579817D01*
X163144857Y-70409305D01*
X163163598Y-70231000D01*
X163144857Y-70052695D01*
X163140092Y-70038028D01*
X163091494Y-69888459D01*
X163089455Y-69882183D01*
X163007238Y-69739781D01*
X162990500Y-69670785D01*
X163013720Y-69603693D01*
X163069527Y-69559806D01*
X163116357Y-69550780D01*
X164035643Y-69550780D01*
X164103764Y-69570782D01*
X164150257Y-69624438D01*
X164160361Y-69694712D01*
X164144762Y-69739780D01*
X164062545Y-69882183D01*
X164060506Y-69888459D01*
X164011909Y-70038028D01*
X164007143Y-70052695D01*
X163988402Y-70231000D01*
X164007143Y-70409305D01*
X164062545Y-70579817D01*
X164095902Y-70637592D01*
X164129773Y-70696257D01*
X164152189Y-70735083D01*
X164272155Y-70868320D01*
X164277497Y-70872201D01*
X164277499Y-70872203D01*
X164411859Y-70969821D01*
X164417201Y-70973702D01*
X164423230Y-70976386D01*
X164423233Y-70976388D01*
X164574952Y-71043937D01*
X164574955Y-71043938D01*
X164580988Y-71046624D01*
X164620069Y-71054931D01*
X164749900Y-71082528D01*
X164749905Y-71082528D01*
X164756357Y-71083900D01*
X164935643Y-71083900D01*
X164942095Y-71082528D01*
X164942100Y-71082528D01*
X165071931Y-71054931D01*
X165111012Y-71046624D01*
X165117045Y-71043938D01*
X165117048Y-71043937D01*
X165268767Y-70976388D01*
X165268770Y-70976386D01*
X165274799Y-70973702D01*
X165280141Y-70969821D01*
X165414501Y-70872203D01*
X165414503Y-70872201D01*
X165419845Y-70868320D01*
X165539811Y-70735083D01*
X165562228Y-70696257D01*
X165596098Y-70637592D01*
X165629455Y-70579817D01*
X165684857Y-70409305D01*
X165703598Y-70231000D01*
X165697604Y-70173975D01*
X165710376Y-70104138D01*
X165758877Y-70052291D01*
X165827710Y-70034896D01*
X165895020Y-70057477D01*
X165912009Y-70071710D01*
X167802853Y-71962554D01*
X167805596Y-71964743D01*
X167805603Y-71964750D01*
X167857965Y-72006549D01*
X167906048Y-72044933D01*
X167912391Y-72047999D01*
X167912392Y-72048000D01*
X167973795Y-72077683D01*
X168065192Y-72121866D01*
X168237426Y-72161630D01*
X168244464Y-72161655D01*
X168244468Y-72161655D01*
X168325807Y-72161939D01*
X168414188Y-72162247D01*
X168421054Y-72160712D01*
X168421057Y-72160712D01*
X168531313Y-72136067D01*
X168586696Y-72123687D01*
X168746373Y-72047867D01*
X168747541Y-72050327D01*
X168801688Y-72034900D01*
X171630251Y-72034900D01*
X171698372Y-72054902D01*
X171719346Y-72071805D01*
X172326995Y-72679454D01*
X172361021Y-72741766D01*
X172363900Y-72768549D01*
X172363901Y-73290379D01*
X172363901Y-73802056D01*
X172365109Y-73808128D01*
X172369927Y-73832352D01*
X172372772Y-73846658D01*
X172379666Y-73856975D01*
X172379668Y-73856979D01*
X172399673Y-73886918D01*
X172406566Y-73897234D01*
X172416882Y-73904127D01*
X172446825Y-73924135D01*
X172446828Y-73924136D01*
X172457142Y-73931028D01*
X172469309Y-73933448D01*
X172469311Y-73933449D01*
X172480724Y-73935719D01*
X172501743Y-73939900D01*
X173532633Y-73939900D01*
X174563856Y-73939899D01*
X174580510Y-73936587D01*
X174596283Y-73933450D01*
X174596285Y-73933449D01*
X174608458Y-73931028D01*
X174620686Y-73922858D01*
X174648718Y-73904127D01*
X174659034Y-73897234D01*
X174665927Y-73886918D01*
X174685935Y-73856975D01*
X174685936Y-73856972D01*
X174692828Y-73846658D01*
X174701700Y-73802057D01*
X174701699Y-71853148D01*
X174721701Y-71785027D01*
X174775357Y-71738534D01*
X174845631Y-71728430D01*
X174910211Y-71757924D01*
X174916794Y-71764053D01*
X175070195Y-71917454D01*
X175104221Y-71979766D01*
X175107100Y-72006549D01*
X175107100Y-84446050D01*
X175107093Y-84447369D01*
X175106174Y-84535126D01*
X175107664Y-84542016D01*
X175115067Y-84576258D01*
X175117128Y-84588840D01*
X175121819Y-84630662D01*
X175124135Y-84637312D01*
X175124135Y-84637313D01*
X175132502Y-84661340D01*
X175136664Y-84676146D01*
X175143529Y-84707897D01*
X175146506Y-84714282D01*
X175146508Y-84714287D01*
X175161313Y-84746037D01*
X175166109Y-84757848D01*
X175177633Y-84790941D01*
X175177637Y-84790950D01*
X175179951Y-84797594D01*
X175197169Y-84825148D01*
X175204498Y-84838647D01*
X175218232Y-84868100D01*
X175222549Y-84873666D01*
X175222553Y-84873672D01*
X175244026Y-84901355D01*
X175251320Y-84911810D01*
X175269888Y-84941526D01*
X175269891Y-84941530D01*
X175273621Y-84947499D01*
X175278583Y-84952496D01*
X175278588Y-84952502D01*
X175301496Y-84975570D01*
X175302068Y-84976181D01*
X175302572Y-84976831D01*
X175328042Y-85002301D01*
X175398175Y-85072925D01*
X175399186Y-85073567D01*
X175400370Y-85074629D01*
X177610195Y-87284454D01*
X177644221Y-87346766D01*
X177647100Y-87373549D01*
X177647100Y-88256050D01*
X177647093Y-88257369D01*
X177646174Y-88345126D01*
X177647664Y-88352016D01*
X177655067Y-88386258D01*
X177657128Y-88398840D01*
X177658523Y-88411275D01*
X177661819Y-88440662D01*
X177664135Y-88447312D01*
X177664135Y-88447313D01*
X177672502Y-88471340D01*
X177676664Y-88486146D01*
X177683529Y-88517897D01*
X177686506Y-88524282D01*
X177686508Y-88524287D01*
X177701313Y-88556037D01*
X177706109Y-88567848D01*
X177717633Y-88600941D01*
X177717637Y-88600950D01*
X177719951Y-88607594D01*
X177737169Y-88635148D01*
X177744498Y-88648647D01*
X177758232Y-88678100D01*
X177762549Y-88683666D01*
X177762553Y-88683672D01*
X177784026Y-88711355D01*
X177791320Y-88721810D01*
X177809888Y-88751526D01*
X177809891Y-88751530D01*
X177813621Y-88757499D01*
X177818583Y-88762496D01*
X177818588Y-88762502D01*
X177841496Y-88785570D01*
X177842068Y-88786181D01*
X177842572Y-88786831D01*
X177868042Y-88812301D01*
X177938175Y-88882925D01*
X177939186Y-88883567D01*
X177940370Y-88884629D01*
X180068295Y-91012554D01*
X180071038Y-91014743D01*
X180071045Y-91014750D01*
X180138582Y-91068663D01*
X180171490Y-91094933D01*
X180177833Y-91097999D01*
X180177834Y-91098000D01*
X180324291Y-91168800D01*
X180324293Y-91168801D01*
X180330634Y-91171866D01*
X180502868Y-91211631D01*
X180509913Y-91211656D01*
X180509917Y-91211656D01*
X180591249Y-91211939D01*
X180679631Y-91212247D01*
X180729661Y-91201064D01*
X180845259Y-91175225D01*
X180845262Y-91175224D01*
X180852138Y-91173687D01*
X180858503Y-91170665D01*
X180858505Y-91170664D01*
X181005451Y-91100889D01*
X181005452Y-91100888D01*
X181011815Y-91097867D01*
X181017352Y-91093510D01*
X181145187Y-90992915D01*
X181145189Y-90992913D01*
X181150727Y-90988555D01*
X181162481Y-90974040D01*
X181257532Y-90856663D01*
X181257535Y-90856658D01*
X181261968Y-90851184D01*
X181340010Y-90692580D01*
X181369888Y-90567167D01*
X181379343Y-90527480D01*
X181379343Y-90527477D01*
X181380975Y-90520628D01*
X181382826Y-90343874D01*
X181345471Y-90171102D01*
X181270768Y-90010900D01*
X181186428Y-89902169D01*
X179259805Y-87975546D01*
X179225779Y-87913234D01*
X179222900Y-87886451D01*
X179222900Y-87003950D01*
X179222907Y-87002631D01*
X179223752Y-86921920D01*
X179223826Y-86914874D01*
X179214964Y-86873886D01*
X179214933Y-86873741D01*
X179212872Y-86861159D01*
X179208967Y-86826342D01*
X179208966Y-86826338D01*
X179208181Y-86819338D01*
X179197497Y-86788660D01*
X179193336Y-86773855D01*
X179187959Y-86748983D01*
X179187958Y-86748980D01*
X179186471Y-86742102D01*
X179168685Y-86703958D01*
X179163889Y-86692148D01*
X179152845Y-86660436D01*
X179150049Y-86652406D01*
X179138607Y-86634094D01*
X179132835Y-86624856D01*
X179125496Y-86611339D01*
X179114744Y-86588283D01*
X179111767Y-86581899D01*
X179107453Y-86576338D01*
X179107451Y-86576334D01*
X179085981Y-86548656D01*
X179078685Y-86538199D01*
X179067248Y-86519896D01*
X179056379Y-86502501D01*
X179051413Y-86497500D01*
X179051408Y-86497494D01*
X179028504Y-86474430D01*
X179027932Y-86473819D01*
X179027428Y-86473169D01*
X179001958Y-86447699D01*
X178931825Y-86377075D01*
X178930814Y-86376433D01*
X178929630Y-86375371D01*
X176719805Y-84165546D01*
X176685779Y-84103234D01*
X176682900Y-84076451D01*
X176682900Y-82512143D01*
X181666700Y-82512143D01*
X181666701Y-83850256D01*
X181675572Y-83894858D01*
X181709366Y-83945434D01*
X181719682Y-83952327D01*
X181749625Y-83972335D01*
X181749628Y-83972336D01*
X181759942Y-83979228D01*
X181772109Y-83981648D01*
X181772111Y-83981649D01*
X181790343Y-83985275D01*
X181804543Y-83988100D01*
X182473491Y-83988100D01*
X183142656Y-83988099D01*
X183159310Y-83984787D01*
X183175083Y-83981650D01*
X183175085Y-83981649D01*
X183187258Y-83979228D01*
X183237834Y-83945434D01*
X183264732Y-83905179D01*
X183264735Y-83905175D01*
X183264736Y-83905172D01*
X183271628Y-83894858D01*
X183280500Y-83850257D01*
X183280499Y-82512144D01*
X183271628Y-82467542D01*
X183257544Y-82446463D01*
X183244727Y-82427282D01*
X183237834Y-82416966D01*
X183212618Y-82400117D01*
X183197575Y-82390065D01*
X183197572Y-82390064D01*
X183187258Y-82383172D01*
X183175091Y-82380752D01*
X183175089Y-82380751D01*
X183156857Y-82377125D01*
X183142657Y-82374300D01*
X182473709Y-82374300D01*
X181804544Y-82374301D01*
X181787890Y-82377613D01*
X181772117Y-82380750D01*
X181772115Y-82380751D01*
X181759942Y-82383172D01*
X181709366Y-82416966D01*
X181702473Y-82427282D01*
X181682465Y-82457225D01*
X181682464Y-82457228D01*
X181675572Y-82467542D01*
X181666700Y-82512143D01*
X176682900Y-82512143D01*
X176682900Y-81169863D01*
X181661673Y-81169863D01*
X181679338Y-81350026D01*
X181736479Y-81521798D01*
X181740126Y-81527820D01*
X181740127Y-81527822D01*
X181758547Y-81558237D01*
X181830256Y-81676642D01*
X181956008Y-81806861D01*
X182107485Y-81905985D01*
X182114089Y-81908441D01*
X182114091Y-81908442D01*
X182147001Y-81920681D01*
X182277158Y-81969086D01*
X182456595Y-81993028D01*
X182463606Y-81992390D01*
X182463610Y-81992390D01*
X182629855Y-81977260D01*
X182636876Y-81976621D01*
X182643576Y-81974444D01*
X182643581Y-81974443D01*
X182802344Y-81922858D01*
X182802347Y-81922857D01*
X182809043Y-81920681D01*
X182964538Y-81827987D01*
X182969632Y-81823136D01*
X182969636Y-81823133D01*
X183077754Y-81720173D01*
X183095633Y-81703147D01*
X183195811Y-81552366D01*
X183260095Y-81383138D01*
X183285289Y-81203873D01*
X183285448Y-81192536D01*
X183285551Y-81185162D01*
X183285551Y-81185156D01*
X183285606Y-81181200D01*
X183265427Y-81001301D01*
X183205893Y-80830344D01*
X183109964Y-80676824D01*
X183046463Y-80612879D01*
X182987369Y-80553370D01*
X182987365Y-80553367D01*
X182982406Y-80548373D01*
X182965494Y-80537640D01*
X182923751Y-80511150D01*
X182829560Y-80451374D01*
X182775385Y-80432083D01*
X182665656Y-80393010D01*
X182665654Y-80393009D01*
X182659022Y-80390648D01*
X182652036Y-80389815D01*
X182652032Y-80389814D01*
X182523352Y-80374471D01*
X182479269Y-80369214D01*
X182472266Y-80369950D01*
X182472265Y-80369950D01*
X182425910Y-80374822D01*
X182299234Y-80388136D01*
X182292566Y-80390406D01*
X182134532Y-80444205D01*
X182134529Y-80444206D01*
X182127865Y-80446475D01*
X181973679Y-80541331D01*
X181968648Y-80546258D01*
X181968645Y-80546260D01*
X181961385Y-80553370D01*
X181844340Y-80667988D01*
X181746277Y-80820154D01*
X181684362Y-80990263D01*
X181661673Y-81169863D01*
X176682900Y-81169863D01*
X176682900Y-79169863D01*
X181661673Y-79169863D01*
X181679338Y-79350026D01*
X181736479Y-79521798D01*
X181740126Y-79527820D01*
X181740127Y-79527822D01*
X181758547Y-79558237D01*
X181830256Y-79676642D01*
X181956008Y-79806861D01*
X182107485Y-79905985D01*
X182114089Y-79908441D01*
X182114091Y-79908442D01*
X182137305Y-79917075D01*
X182277158Y-79969086D01*
X182456595Y-79993028D01*
X182463606Y-79992390D01*
X182463610Y-79992390D01*
X182629855Y-79977260D01*
X182636876Y-79976621D01*
X182643576Y-79974444D01*
X182643581Y-79974443D01*
X182802344Y-79922858D01*
X182802347Y-79922857D01*
X182809043Y-79920681D01*
X182964538Y-79827987D01*
X182969632Y-79823136D01*
X182969636Y-79823133D01*
X183060970Y-79736156D01*
X183095633Y-79703147D01*
X183195811Y-79552366D01*
X183260095Y-79383138D01*
X183285289Y-79203873D01*
X183285606Y-79181200D01*
X183265427Y-79001301D01*
X183261583Y-78990263D01*
X183208212Y-78837002D01*
X183208210Y-78836999D01*
X183205893Y-78830344D01*
X183109964Y-78676824D01*
X183037526Y-78603879D01*
X182987369Y-78553370D01*
X182987365Y-78553367D01*
X182982406Y-78548373D01*
X182965494Y-78537640D01*
X182889038Y-78489120D01*
X182829560Y-78451374D01*
X182775385Y-78432083D01*
X182665656Y-78393010D01*
X182665654Y-78393009D01*
X182659022Y-78390648D01*
X182652036Y-78389815D01*
X182652032Y-78389814D01*
X182523352Y-78374471D01*
X182479269Y-78369214D01*
X182472266Y-78369950D01*
X182472265Y-78369950D01*
X182425910Y-78374822D01*
X182299234Y-78388136D01*
X182292566Y-78390406D01*
X182134532Y-78444205D01*
X182134529Y-78444206D01*
X182127865Y-78446475D01*
X181973679Y-78541331D01*
X181968648Y-78546258D01*
X181968645Y-78546260D01*
X181961385Y-78553370D01*
X181844340Y-78667988D01*
X181746277Y-78820154D01*
X181743868Y-78826774D01*
X181743867Y-78826775D01*
X181723670Y-78882265D01*
X181684362Y-78990263D01*
X181661673Y-79169863D01*
X176682900Y-79169863D01*
X176682900Y-77169863D01*
X181661673Y-77169863D01*
X181679338Y-77350026D01*
X181736479Y-77521798D01*
X181740126Y-77527820D01*
X181740127Y-77527822D01*
X181758547Y-77558237D01*
X181830256Y-77676642D01*
X181956008Y-77806861D01*
X182031747Y-77856423D01*
X182051179Y-77869139D01*
X182107485Y-77905985D01*
X182114089Y-77908441D01*
X182114091Y-77908442D01*
X182137305Y-77917075D01*
X182277158Y-77969086D01*
X182456595Y-77993028D01*
X182463606Y-77992390D01*
X182463610Y-77992390D01*
X182629855Y-77977260D01*
X182636876Y-77976621D01*
X182643576Y-77974444D01*
X182643581Y-77974443D01*
X182802344Y-77922858D01*
X182802347Y-77922857D01*
X182809043Y-77920681D01*
X182964538Y-77827987D01*
X182969632Y-77823136D01*
X182969636Y-77823133D01*
X183041396Y-77754796D01*
X183095633Y-77703147D01*
X183195811Y-77552366D01*
X183260095Y-77383138D01*
X183268498Y-77323350D01*
X183284738Y-77207797D01*
X183284739Y-77207789D01*
X183285289Y-77203873D01*
X183285606Y-77181200D01*
X183265427Y-77001301D01*
X183256537Y-76975772D01*
X183208212Y-76837002D01*
X183208210Y-76836999D01*
X183205893Y-76830344D01*
X183199526Y-76820154D01*
X183113697Y-76682798D01*
X183109964Y-76676824D01*
X183026427Y-76592702D01*
X182987369Y-76553370D01*
X182987365Y-76553367D01*
X182982406Y-76548373D01*
X182970614Y-76540889D01*
X182894607Y-76492654D01*
X182829560Y-76451374D01*
X182737040Y-76418429D01*
X182665656Y-76393010D01*
X182665654Y-76393009D01*
X182659022Y-76390648D01*
X182652036Y-76389815D01*
X182652032Y-76389814D01*
X182523352Y-76374471D01*
X182479269Y-76369214D01*
X182472266Y-76369950D01*
X182472265Y-76369950D01*
X182425910Y-76374822D01*
X182299234Y-76388136D01*
X182292566Y-76390406D01*
X182134532Y-76444205D01*
X182134529Y-76444206D01*
X182127865Y-76446475D01*
X181973679Y-76541331D01*
X181968648Y-76546258D01*
X181968645Y-76546260D01*
X181921220Y-76592702D01*
X181844340Y-76667988D01*
X181746277Y-76820154D01*
X181684362Y-76990263D01*
X181661673Y-77169863D01*
X176682900Y-77169863D01*
X176682900Y-75169863D01*
X181661673Y-75169863D01*
X181679338Y-75350026D01*
X181736479Y-75521798D01*
X181740126Y-75527820D01*
X181740127Y-75527822D01*
X181773981Y-75583721D01*
X181830256Y-75676642D01*
X181835152Y-75681712D01*
X181848182Y-75695205D01*
X181956008Y-75806861D01*
X182107485Y-75905985D01*
X182114089Y-75908441D01*
X182114091Y-75908442D01*
X182137305Y-75917075D01*
X182277158Y-75969086D01*
X182456595Y-75993028D01*
X182463606Y-75992390D01*
X182463610Y-75992390D01*
X182629855Y-75977260D01*
X182636876Y-75976621D01*
X182643576Y-75974444D01*
X182643581Y-75974443D01*
X182802344Y-75922858D01*
X182802347Y-75922857D01*
X182809043Y-75920681D01*
X182964538Y-75827987D01*
X182969632Y-75823136D01*
X182969636Y-75823133D01*
X183057680Y-75739289D01*
X183095633Y-75703147D01*
X183195811Y-75552366D01*
X183260095Y-75383138D01*
X183261075Y-75376166D01*
X183284738Y-75207797D01*
X183284739Y-75207789D01*
X183285289Y-75203873D01*
X183285606Y-75181200D01*
X183270091Y-75042879D01*
X183266212Y-75008297D01*
X183266211Y-75008295D01*
X183265427Y-75001301D01*
X183258114Y-74980302D01*
X183238854Y-74924993D01*
X183235340Y-74854084D01*
X183268750Y-74794461D01*
X183874316Y-74188895D01*
X183936628Y-74154869D01*
X183963411Y-74151990D01*
X184138183Y-74151990D01*
X184206304Y-74171992D01*
X184234635Y-74196916D01*
X184245969Y-74210399D01*
X184355893Y-74283571D01*
X184481937Y-74322950D01*
X184613966Y-74325370D01*
X184666590Y-74311023D01*
X184732709Y-74292997D01*
X184732711Y-74292996D01*
X184741368Y-74290636D01*
X184853900Y-74221541D01*
X184942517Y-74123639D01*
X184971396Y-74064033D01*
X184996180Y-74012880D01*
X184996181Y-74012878D01*
X185000094Y-74004801D01*
X185022002Y-73874579D01*
X185022141Y-73863200D01*
X185012151Y-73793439D01*
X185004694Y-73741368D01*
X185004693Y-73741365D01*
X185003421Y-73732482D01*
X184992293Y-73708006D01*
X184960163Y-73637341D01*
X184948765Y-73612272D01*
X184942907Y-73605473D01*
X184942904Y-73605469D01*
X184868427Y-73519035D01*
X184868424Y-73519033D01*
X184862567Y-73512235D01*
X184751756Y-73440411D01*
X184625241Y-73402575D01*
X184616265Y-73402520D01*
X184616264Y-73402520D01*
X184561631Y-73402186D01*
X184493192Y-73401768D01*
X184366224Y-73438056D01*
X184254544Y-73508520D01*
X184248604Y-73515246D01*
X184248598Y-73515251D01*
X184233968Y-73531817D01*
X184173883Y-73569636D01*
X184139527Y-73574410D01*
X183841716Y-73574410D01*
X183839413Y-73574241D01*
X183834518Y-73572560D01*
X183787984Y-73574307D01*
X183787621Y-73574321D01*
X183782893Y-73574410D01*
X183764743Y-73574410D01*
X183760135Y-73575269D01*
X183757030Y-73575470D01*
X183753149Y-73575616D01*
X183727010Y-73576597D01*
X183716321Y-73581190D01*
X183710416Y-73582520D01*
X183702921Y-73584797D01*
X183697275Y-73586976D01*
X183685836Y-73589106D01*
X183665975Y-73601348D01*
X183649600Y-73609854D01*
X183628164Y-73619064D01*
X183623468Y-73622921D01*
X183621288Y-73625101D01*
X183619014Y-73627163D01*
X183618814Y-73626943D01*
X183612102Y-73632249D01*
X183604156Y-73639454D01*
X183594254Y-73645558D01*
X183587213Y-73654818D01*
X183578543Y-73666219D01*
X183567342Y-73679047D01*
X182860410Y-74385979D01*
X182798098Y-74420005D01*
X182729048Y-74415583D01*
X182665657Y-74393010D01*
X182665652Y-74393009D01*
X182659022Y-74390648D01*
X182652036Y-74389815D01*
X182652032Y-74389814D01*
X182523352Y-74374471D01*
X182479269Y-74369214D01*
X182472266Y-74369950D01*
X182472265Y-74369950D01*
X182425910Y-74374822D01*
X182299234Y-74388136D01*
X182292566Y-74390406D01*
X182134532Y-74444205D01*
X182134529Y-74444206D01*
X182127865Y-74446475D01*
X181973679Y-74541331D01*
X181968648Y-74546258D01*
X181968645Y-74546260D01*
X181943509Y-74570875D01*
X181844340Y-74667988D01*
X181746277Y-74820154D01*
X181743868Y-74826774D01*
X181743867Y-74826775D01*
X181713696Y-74909668D01*
X181684362Y-74990263D01*
X181661673Y-75169863D01*
X176682900Y-75169863D01*
X176682900Y-73169863D01*
X181661673Y-73169863D01*
X181679338Y-73350026D01*
X181736479Y-73521798D01*
X181740126Y-73527820D01*
X181740127Y-73527822D01*
X181784656Y-73601348D01*
X181830256Y-73676642D01*
X181956008Y-73806861D01*
X181994962Y-73832352D01*
X182085107Y-73891341D01*
X182107485Y-73905985D01*
X182114089Y-73908441D01*
X182114091Y-73908442D01*
X182174823Y-73931028D01*
X182277158Y-73969086D01*
X182456595Y-73993028D01*
X182463606Y-73992390D01*
X182463610Y-73992390D01*
X182629855Y-73977260D01*
X182636876Y-73976621D01*
X182643576Y-73974444D01*
X182643581Y-73974443D01*
X182802344Y-73922858D01*
X182802347Y-73922857D01*
X182809043Y-73920681D01*
X182964538Y-73827987D01*
X182969632Y-73823136D01*
X182969636Y-73823133D01*
X183073406Y-73724313D01*
X183095633Y-73703147D01*
X183195811Y-73552366D01*
X183251734Y-73405148D01*
X183257595Y-73389720D01*
X183257596Y-73389718D01*
X183260095Y-73383138D01*
X183265734Y-73343017D01*
X183284738Y-73207797D01*
X183284739Y-73207789D01*
X183285289Y-73203873D01*
X183285606Y-73181200D01*
X183265427Y-73001301D01*
X183238619Y-72924320D01*
X183208212Y-72837002D01*
X183208210Y-72836999D01*
X183205893Y-72830344D01*
X183109964Y-72676824D01*
X183046463Y-72612879D01*
X182987369Y-72553370D01*
X182987365Y-72553367D01*
X182982406Y-72548373D01*
X182965494Y-72537640D01*
X182918522Y-72507831D01*
X182829560Y-72451374D01*
X182775385Y-72432083D01*
X182665656Y-72393010D01*
X182665654Y-72393009D01*
X182659022Y-72390648D01*
X182652036Y-72389815D01*
X182652032Y-72389814D01*
X182523352Y-72374471D01*
X182479269Y-72369214D01*
X182472266Y-72369950D01*
X182472265Y-72369950D01*
X182425910Y-72374822D01*
X182299234Y-72388136D01*
X182292566Y-72390406D01*
X182134532Y-72444205D01*
X182134529Y-72444206D01*
X182127865Y-72446475D01*
X181973679Y-72541331D01*
X181968648Y-72546258D01*
X181968645Y-72546260D01*
X181961385Y-72553370D01*
X181844340Y-72667988D01*
X181746277Y-72820154D01*
X181743868Y-72826774D01*
X181743867Y-72826775D01*
X181713353Y-72910611D01*
X181684362Y-72990263D01*
X181661673Y-73169863D01*
X176682900Y-73169863D01*
X176682900Y-71636950D01*
X176682907Y-71635631D01*
X176683261Y-71601779D01*
X176683826Y-71547874D01*
X176675573Y-71509702D01*
X176674933Y-71506741D01*
X176672872Y-71494159D01*
X176668967Y-71459342D01*
X176668966Y-71459338D01*
X176668181Y-71452338D01*
X176657497Y-71421660D01*
X176653336Y-71406855D01*
X176647959Y-71381983D01*
X176647958Y-71381980D01*
X176646471Y-71375102D01*
X176628685Y-71336958D01*
X176623889Y-71325148D01*
X176612366Y-71292060D01*
X176610049Y-71285406D01*
X176605422Y-71278001D01*
X176592835Y-71257856D01*
X176585496Y-71244339D01*
X176574744Y-71221283D01*
X176571767Y-71214899D01*
X176567453Y-71209338D01*
X176567451Y-71209334D01*
X176545981Y-71181656D01*
X176538685Y-71171199D01*
X176516379Y-71135501D01*
X176511413Y-71130500D01*
X176511408Y-71130494D01*
X176488504Y-71107430D01*
X176487932Y-71106819D01*
X176487428Y-71106169D01*
X176461958Y-71080699D01*
X176391825Y-71010075D01*
X176390814Y-71009433D01*
X176389630Y-71008371D01*
X174596747Y-69215488D01*
X174562721Y-69153176D01*
X174567786Y-69082361D01*
X174610333Y-69025525D01*
X174675956Y-69000781D01*
X174904516Y-68982793D01*
X174914263Y-68981250D01*
X175135949Y-68928027D01*
X175145334Y-68924978D01*
X175355963Y-68837733D01*
X175364757Y-68833252D01*
X175533147Y-68730063D01*
X175542607Y-68719607D01*
X175538823Y-68710829D01*
X174314222Y-67486228D01*
X175036708Y-67486228D01*
X175036839Y-67488061D01*
X175041090Y-67494676D01*
X175894990Y-68348576D01*
X175907370Y-68355336D01*
X175915020Y-68349609D01*
X176020456Y-68177553D01*
X176024937Y-68168759D01*
X176112182Y-67958130D01*
X176115231Y-67948745D01*
X176168454Y-67727059D01*
X176169997Y-67717312D01*
X176187885Y-67490026D01*
X176187885Y-67480166D01*
X176169997Y-67252880D01*
X176168454Y-67243133D01*
X176115231Y-67021447D01*
X176112182Y-67012062D01*
X176024937Y-66801433D01*
X176020456Y-66792639D01*
X175917267Y-66624249D01*
X175906811Y-66614789D01*
X175898033Y-66618573D01*
X175044322Y-67472284D01*
X175036708Y-67486228D01*
X174314222Y-67486228D01*
X173449610Y-66621616D01*
X173437230Y-66614856D01*
X173429580Y-66620583D01*
X173324144Y-66792639D01*
X173319663Y-66801433D01*
X173232418Y-67012062D01*
X173229369Y-67021447D01*
X173176146Y-67243133D01*
X173174603Y-67252880D01*
X173156715Y-67480166D01*
X173156715Y-67490026D01*
X173174603Y-67717312D01*
X173176146Y-67727059D01*
X173229369Y-67948745D01*
X173232418Y-67958130D01*
X173319663Y-68168759D01*
X173324144Y-68177553D01*
X173381201Y-68270662D01*
X173399739Y-68339196D01*
X173378282Y-68406873D01*
X173323643Y-68452206D01*
X173273768Y-68462497D01*
X169196150Y-68462497D01*
X169128029Y-68442495D01*
X169107054Y-68425592D01*
X168250021Y-67568558D01*
X168215996Y-67506246D01*
X168213439Y-67485638D01*
X168213453Y-67485096D01*
X168194009Y-67273493D01*
X168187217Y-67249408D01*
X168143669Y-67094998D01*
X168136330Y-67068976D01*
X168042346Y-66878395D01*
X168020559Y-66849218D01*
X167918658Y-66712757D01*
X167918657Y-66712756D01*
X167915205Y-66708133D01*
X167759165Y-66563891D01*
X167672502Y-66509211D01*
X167584336Y-66453582D01*
X167584331Y-66453580D01*
X167579452Y-66450501D01*
X167382085Y-66371760D01*
X167173674Y-66330304D01*
X167167900Y-66330228D01*
X167167896Y-66330228D01*
X167059253Y-66328806D01*
X166961197Y-66327522D01*
X166955500Y-66328501D01*
X166955499Y-66328501D01*
X166757468Y-66362529D01*
X166751771Y-66363508D01*
X166552411Y-66437056D01*
X166547450Y-66440008D01*
X166547449Y-66440008D01*
X166374759Y-66542747D01*
X166374756Y-66542749D01*
X166369791Y-66545703D01*
X166365451Y-66549509D01*
X166365447Y-66549512D01*
X166222352Y-66675004D01*
X166210029Y-66685811D01*
X166206454Y-66690346D01*
X166206453Y-66690347D01*
X166110335Y-66812273D01*
X166078475Y-66852687D01*
X166075787Y-66857796D01*
X165982224Y-67035630D01*
X165982222Y-67035635D01*
X165979535Y-67040742D01*
X165962688Y-67094998D01*
X165934425Y-67186020D01*
X165916521Y-67243679D01*
X165891545Y-67454701D01*
X165905443Y-67666740D01*
X165932900Y-67774850D01*
X165944305Y-67819759D01*
X165941687Y-67890707D01*
X165901126Y-67948977D01*
X165835502Y-67976068D01*
X165811638Y-67975957D01*
X165808570Y-67975249D01*
X165801528Y-67975224D01*
X165801524Y-67975224D01*
X165769019Y-67975111D01*
X165768173Y-67975083D01*
X165767358Y-67974980D01*
X165731532Y-67974980D01*
X165731093Y-67974979D01*
X165729371Y-67974973D01*
X165631807Y-67974633D01*
X165630636Y-67974895D01*
X165629062Y-67974980D01*
X161243070Y-67974980D01*
X161241751Y-67974973D01*
X161240046Y-67974955D01*
X161153994Y-67974054D01*
X161136341Y-67977871D01*
X161112861Y-67982947D01*
X161100279Y-67985008D01*
X161065462Y-67988913D01*
X161065458Y-67988914D01*
X161058458Y-67989699D01*
X161027780Y-68000383D01*
X161012975Y-68004544D01*
X160988108Y-68009920D01*
X160988106Y-68009921D01*
X160981222Y-68011409D01*
X160974840Y-68014385D01*
X160974834Y-68014387D01*
X160943080Y-68029194D01*
X160931269Y-68033990D01*
X160898179Y-68045513D01*
X160898170Y-68045517D01*
X160891526Y-68047831D01*
X160863976Y-68065047D01*
X160850463Y-68072383D01*
X160821020Y-68086112D01*
X160815455Y-68090428D01*
X160815451Y-68090431D01*
X160787765Y-68111906D01*
X160777310Y-68119200D01*
X160747594Y-68137768D01*
X160747590Y-68137771D01*
X160741621Y-68141501D01*
X160736624Y-68146463D01*
X160736618Y-68146468D01*
X160713550Y-68169376D01*
X160712939Y-68169948D01*
X160712289Y-68170452D01*
X160686819Y-68195922D01*
X160616195Y-68266055D01*
X160615553Y-68267066D01*
X160614491Y-68268250D01*
X159456895Y-69425846D01*
X159419048Y-69451858D01*
X159343233Y-69485612D01*
X159343230Y-69485614D01*
X159337201Y-69488298D01*
X159331860Y-69492178D01*
X159331859Y-69492179D01*
X159199359Y-69588446D01*
X159192155Y-69593680D01*
X159072189Y-69726917D01*
X158982545Y-69882183D01*
X158980506Y-69888459D01*
X158931909Y-70038028D01*
X158927143Y-70052695D01*
X158908402Y-70231000D01*
X158083598Y-70231000D01*
X158064857Y-70052695D01*
X158060092Y-70038028D01*
X158011494Y-69888459D01*
X158009455Y-69882183D01*
X157919811Y-69726917D01*
X157799845Y-69593680D01*
X157792642Y-69588446D01*
X157660141Y-69492179D01*
X157660140Y-69492178D01*
X157654799Y-69488298D01*
X157648770Y-69485614D01*
X157648767Y-69485612D01*
X157497048Y-69418063D01*
X157497045Y-69418062D01*
X157491012Y-69415376D01*
X157451931Y-69407069D01*
X157322100Y-69379472D01*
X157322095Y-69379472D01*
X157315643Y-69378100D01*
X157136357Y-69378100D01*
X157129905Y-69379472D01*
X157129900Y-69379472D01*
X157000069Y-69407069D01*
X156960988Y-69415376D01*
X156954955Y-69418062D01*
X156954952Y-69418063D01*
X156803233Y-69485612D01*
X156803230Y-69485614D01*
X156797201Y-69488298D01*
X156791860Y-69492178D01*
X156791859Y-69492179D01*
X156659359Y-69588446D01*
X156652155Y-69593680D01*
X156532189Y-69726917D01*
X156442545Y-69882183D01*
X156440506Y-69888459D01*
X156391909Y-70038028D01*
X156387143Y-70052695D01*
X156368402Y-70231000D01*
X155898135Y-70231000D01*
X155898135Y-70225525D01*
X155880671Y-70025909D01*
X155878769Y-70015122D01*
X155826907Y-69821571D01*
X155823159Y-69811277D01*
X155738479Y-69629677D01*
X155733001Y-69620189D01*
X155711689Y-69589752D01*
X155701212Y-69581377D01*
X155687764Y-69588446D01*
X155058022Y-70218188D01*
X155050408Y-70232132D01*
X154383694Y-70232132D01*
X154386924Y-70186968D01*
X154415885Y-70141905D01*
X155329276Y-69228514D01*
X155335706Y-69216739D01*
X155326410Y-69204724D01*
X155296811Y-69183999D01*
X155287323Y-69178521D01*
X155105723Y-69093841D01*
X155095429Y-69090093D01*
X154901878Y-69038231D01*
X154891091Y-69036329D01*
X154691475Y-69018865D01*
X154680525Y-69018865D01*
X154480909Y-69036329D01*
X154470119Y-69038231D01*
X154336611Y-69074005D01*
X154265635Y-69072315D01*
X154206839Y-69032521D01*
X154178891Y-68967257D01*
X154178000Y-68952298D01*
X154178000Y-68720166D01*
X156022060Y-68720166D01*
X156027787Y-68727816D01*
X156199843Y-68833252D01*
X156208637Y-68837733D01*
X156419266Y-68924978D01*
X156428651Y-68928027D01*
X156650337Y-68981250D01*
X156660084Y-68982793D01*
X156887370Y-69000681D01*
X156897230Y-69000681D01*
X157124516Y-68982793D01*
X157134263Y-68981250D01*
X157355949Y-68928027D01*
X157365334Y-68924978D01*
X157575963Y-68837733D01*
X157584757Y-68833252D01*
X157753147Y-68730063D01*
X157762607Y-68719607D01*
X157758823Y-68710829D01*
X156905112Y-67857118D01*
X156891168Y-67849504D01*
X156889335Y-67849635D01*
X156882720Y-67853886D01*
X156028820Y-68707786D01*
X156022060Y-68720166D01*
X154178000Y-68720166D01*
X154178000Y-66801000D01*
X154198002Y-66732879D01*
X154251658Y-66686386D01*
X154304000Y-66675000D01*
X154786217Y-66675000D01*
X154854338Y-66695002D01*
X154900831Y-66748658D01*
X154908904Y-66790694D01*
X154910751Y-66790443D01*
X154919918Y-66857796D01*
X154925259Y-66897042D01*
X154930872Y-66907231D01*
X154971555Y-66981083D01*
X154971557Y-66981085D01*
X154977169Y-66991273D01*
X154986072Y-66998757D01*
X154986074Y-66998759D01*
X155045760Y-67048930D01*
X155059521Y-67060497D01*
X155070524Y-67064275D01*
X155070526Y-67064276D01*
X155150273Y-67091657D01*
X155150274Y-67091657D01*
X155161274Y-67095434D01*
X155172896Y-67094998D01*
X155172898Y-67094998D01*
X155245613Y-67092268D01*
X155268032Y-67091426D01*
X155336855Y-67108858D01*
X155385328Y-67160732D01*
X155398061Y-67230577D01*
X155396746Y-67238215D01*
X155396921Y-67238243D01*
X155394603Y-67252880D01*
X155376715Y-67480166D01*
X155376715Y-67490026D01*
X155385714Y-67604365D01*
X155371118Y-67673845D01*
X155321276Y-67724404D01*
X155252011Y-67739991D01*
X155191571Y-67719984D01*
X155168293Y-67704896D01*
X155168292Y-67704895D01*
X155160756Y-67700011D01*
X155034241Y-67662175D01*
X155025265Y-67662120D01*
X155025264Y-67662120D01*
X154970631Y-67661786D01*
X154902192Y-67661368D01*
X154775224Y-67697656D01*
X154663544Y-67768120D01*
X154576130Y-67867098D01*
X154572314Y-67875226D01*
X154525366Y-67975224D01*
X154520010Y-67986631D01*
X154518629Y-67995500D01*
X154506833Y-68071263D01*
X154499694Y-68117110D01*
X154500858Y-68126012D01*
X154500858Y-68126015D01*
X154507519Y-68176949D01*
X154516816Y-68248047D01*
X154520433Y-68256267D01*
X154564054Y-68355403D01*
X154569999Y-68368915D01*
X154575776Y-68375788D01*
X154575777Y-68375789D01*
X154601906Y-68406873D01*
X154654969Y-68469999D01*
X154764893Y-68543171D01*
X154890937Y-68582550D01*
X155022966Y-68584970D01*
X155107314Y-68561974D01*
X155141709Y-68552597D01*
X155141711Y-68552596D01*
X155150368Y-68550236D01*
X155262900Y-68481141D01*
X155269663Y-68473670D01*
X155345492Y-68389895D01*
X155351517Y-68383239D01*
X155391772Y-68300152D01*
X155439473Y-68247571D01*
X155508031Y-68229125D01*
X155575679Y-68250672D01*
X155612596Y-68289257D01*
X155647333Y-68345943D01*
X155657789Y-68355403D01*
X155666567Y-68351619D01*
X156803205Y-67214981D01*
X156865517Y-67180955D01*
X156936332Y-67186020D01*
X156981395Y-67214981D01*
X158114990Y-68348576D01*
X158127370Y-68355336D01*
X158135020Y-68349609D01*
X158240456Y-68177553D01*
X158244937Y-68168759D01*
X158332182Y-67958130D01*
X158335231Y-67948745D01*
X158388454Y-67727059D01*
X158389997Y-67717312D01*
X158407885Y-67490026D01*
X158407885Y-67480166D01*
X158389997Y-67252880D01*
X158388454Y-67243133D01*
X158335231Y-67021447D01*
X158332182Y-67012062D01*
X158264730Y-66849218D01*
X158257141Y-66778628D01*
X158288920Y-66715141D01*
X158349979Y-66678914D01*
X158381139Y-66675000D01*
X161802342Y-66675000D01*
X161870463Y-66695002D01*
X161891748Y-66712216D01*
X161984212Y-66805328D01*
X161984216Y-66805331D01*
X161989175Y-66810325D01*
X161995121Y-66814099D01*
X161995123Y-66814100D01*
X162046494Y-66846701D01*
X162138422Y-66905040D01*
X162145065Y-66907405D01*
X162145064Y-66907405D01*
X162298310Y-66961974D01*
X162298312Y-66961975D01*
X162304944Y-66964336D01*
X162311932Y-66965169D01*
X162311935Y-66965170D01*
X162432997Y-66979606D01*
X162480465Y-66985266D01*
X162487468Y-66984530D01*
X162487469Y-66984530D01*
X162649260Y-66967525D01*
X162649262Y-66967524D01*
X162656260Y-66966789D01*
X162744309Y-66936815D01*
X162816924Y-66912095D01*
X162816927Y-66912094D01*
X162823594Y-66909824D01*
X162831371Y-66905040D01*
X162968149Y-66820893D01*
X162974149Y-66817202D01*
X162979180Y-66812276D01*
X162979183Y-66812273D01*
X163078370Y-66715141D01*
X163100442Y-66693527D01*
X163196196Y-66544945D01*
X163229450Y-66453582D01*
X163254244Y-66385460D01*
X163254244Y-66385459D01*
X163256653Y-66378841D01*
X163272856Y-66250585D01*
X173801993Y-66250585D01*
X173805777Y-66259363D01*
X174659488Y-67113074D01*
X174673432Y-67120688D01*
X174675265Y-67120557D01*
X174681880Y-67116306D01*
X175535780Y-66262406D01*
X175542540Y-66250026D01*
X175536813Y-66242376D01*
X175364757Y-66136940D01*
X175355963Y-66132459D01*
X175145334Y-66045214D01*
X175135949Y-66042165D01*
X174914263Y-65988942D01*
X174904516Y-65987399D01*
X174677230Y-65969511D01*
X174667370Y-65969511D01*
X174440084Y-65987399D01*
X174430337Y-65988942D01*
X174208651Y-66042165D01*
X174199266Y-66045214D01*
X173988637Y-66132459D01*
X173979843Y-66136940D01*
X173811453Y-66240129D01*
X173801993Y-66250585D01*
X163272856Y-66250585D01*
X163273900Y-66242320D01*
X163273900Y-65467746D01*
X163273907Y-65466427D01*
X163274752Y-65385716D01*
X163274826Y-65378670D01*
X163271009Y-65361017D01*
X163265933Y-65337537D01*
X163263872Y-65324955D01*
X163259967Y-65290138D01*
X163259966Y-65290134D01*
X163259181Y-65283134D01*
X163248497Y-65252456D01*
X163244336Y-65237651D01*
X163238959Y-65212779D01*
X163238958Y-65212776D01*
X163237471Y-65205898D01*
X163219685Y-65167754D01*
X163214889Y-65155944D01*
X163203366Y-65122856D01*
X163201049Y-65116202D01*
X163197314Y-65110224D01*
X163183835Y-65088652D01*
X163176496Y-65075135D01*
X163165744Y-65052079D01*
X163162767Y-65045695D01*
X163158453Y-65040134D01*
X163158451Y-65040130D01*
X163136981Y-65012452D01*
X163129685Y-65001995D01*
X163107557Y-64966582D01*
X163088422Y-64898212D01*
X163109288Y-64830351D01*
X163163530Y-64784544D01*
X163215023Y-64773815D01*
X181153525Y-64861320D01*
G37*
%TD.AperFunction*%
%TA.AperFunction,Conductor*%
G36*
X109011496Y-103131299D02*
G01*
X119727810Y-108821377D01*
X119758259Y-108858270D01*
X119761000Y-108876578D01*
X119761000Y-115648713D01*
X119742694Y-115692907D01*
X119714276Y-115709189D01*
X118614046Y-115996205D01*
X118597895Y-115998227D01*
X118524949Y-115997782D01*
X118495745Y-115997603D01*
X118495744Y-115997603D01*
X118491292Y-115997576D01*
X118364324Y-116033864D01*
X118360559Y-116036240D01*
X118360558Y-116036240D01*
X118256406Y-116101954D01*
X118256404Y-116101955D01*
X118252644Y-116104328D01*
X118249701Y-116107660D01*
X118249699Y-116107662D01*
X118249363Y-116108043D01*
X118165230Y-116203306D01*
X118163338Y-116207336D01*
X118111002Y-116318808D01*
X118111001Y-116318811D01*
X118109110Y-116322839D01*
X118088794Y-116453318D01*
X118089371Y-116457731D01*
X118089371Y-116457733D01*
X118101850Y-116553163D01*
X118097908Y-116584479D01*
X117798944Y-117331890D01*
X117778672Y-117358483D01*
X109014495Y-124002805D01*
X108976737Y-124015500D01*
X98528173Y-124015500D01*
X98483979Y-123997194D01*
X98465673Y-123952994D01*
X98465791Y-122675907D01*
X100801150Y-122675907D01*
X100803254Y-122680985D01*
X100905872Y-122752838D01*
X100910583Y-122755559D01*
X101104182Y-122845836D01*
X101109292Y-122847696D01*
X101315626Y-122902983D01*
X101320980Y-122903927D01*
X101533780Y-122922544D01*
X101539220Y-122922544D01*
X101752020Y-122903927D01*
X101757374Y-122902983D01*
X101963708Y-122847696D01*
X101968818Y-122845836D01*
X102162417Y-122755559D01*
X102167128Y-122752838D01*
X102266815Y-122683038D01*
X102271358Y-122675907D01*
X105881150Y-122675907D01*
X105883254Y-122680985D01*
X105985872Y-122752838D01*
X105990583Y-122755559D01*
X106184182Y-122845836D01*
X106189292Y-122847696D01*
X106395626Y-122902983D01*
X106400980Y-122903927D01*
X106613780Y-122922544D01*
X106619220Y-122922544D01*
X106832020Y-122903927D01*
X106837374Y-122902983D01*
X107043708Y-122847696D01*
X107048818Y-122845836D01*
X107242417Y-122755559D01*
X107247128Y-122752838D01*
X107346815Y-122683038D01*
X107351927Y-122675013D01*
X107350737Y-122669645D01*
X106625290Y-121944198D01*
X106616500Y-121940557D01*
X106607710Y-121944198D01*
X105884791Y-122667117D01*
X105881150Y-122675907D01*
X102271358Y-122675907D01*
X102271927Y-122675013D01*
X102270737Y-122669645D01*
X101545290Y-121944198D01*
X101536500Y-121940557D01*
X101527710Y-121944198D01*
X100804791Y-122667117D01*
X100801150Y-122675907D01*
X98465791Y-122675907D01*
X98465884Y-121668720D01*
X100279956Y-121668720D01*
X100298573Y-121881520D01*
X100299517Y-121886874D01*
X100354804Y-122093208D01*
X100356664Y-122098318D01*
X100446941Y-122291917D01*
X100449662Y-122296628D01*
X100519462Y-122396315D01*
X100527487Y-122401427D01*
X100532855Y-122400237D01*
X101258302Y-121674790D01*
X101261943Y-121666000D01*
X101811057Y-121666000D01*
X101814698Y-121674790D01*
X102537617Y-122397709D01*
X102546407Y-122401350D01*
X102551485Y-122399246D01*
X102623338Y-122296628D01*
X102626059Y-122291917D01*
X102716336Y-122098318D01*
X102718196Y-122093208D01*
X102773483Y-121886874D01*
X102774427Y-121881520D01*
X102793044Y-121668720D01*
X105359956Y-121668720D01*
X105378573Y-121881520D01*
X105379517Y-121886874D01*
X105434804Y-122093208D01*
X105436664Y-122098318D01*
X105526941Y-122291917D01*
X105529662Y-122296628D01*
X105599462Y-122396315D01*
X105607487Y-122401427D01*
X105612855Y-122400237D01*
X106338302Y-121674790D01*
X106341943Y-121666000D01*
X106891057Y-121666000D01*
X106894698Y-121674790D01*
X107617617Y-122397709D01*
X107626407Y-122401350D01*
X107631485Y-122399246D01*
X107703338Y-122296628D01*
X107706059Y-122291917D01*
X107796336Y-122098318D01*
X107798196Y-122093208D01*
X107853483Y-121886874D01*
X107854427Y-121881520D01*
X107873044Y-121668720D01*
X107873044Y-121663280D01*
X107854427Y-121450480D01*
X107853483Y-121445126D01*
X107798196Y-121238792D01*
X107796336Y-121233682D01*
X107706059Y-121040083D01*
X107703338Y-121035372D01*
X107633538Y-120935685D01*
X107625513Y-120930573D01*
X107620145Y-120931763D01*
X106894698Y-121657210D01*
X106891057Y-121666000D01*
X106341943Y-121666000D01*
X106338302Y-121657210D01*
X105615383Y-120934291D01*
X105606593Y-120930650D01*
X105601515Y-120932754D01*
X105529662Y-121035372D01*
X105526941Y-121040083D01*
X105436664Y-121233682D01*
X105434804Y-121238792D01*
X105379517Y-121445126D01*
X105378573Y-121450480D01*
X105359956Y-121663280D01*
X105359956Y-121668720D01*
X102793044Y-121668720D01*
X102793044Y-121663280D01*
X102774427Y-121450480D01*
X102773483Y-121445126D01*
X102718196Y-121238792D01*
X102716336Y-121233682D01*
X102626059Y-121040083D01*
X102623338Y-121035372D01*
X102553538Y-120935685D01*
X102545513Y-120930573D01*
X102540145Y-120931763D01*
X101814698Y-121657210D01*
X101811057Y-121666000D01*
X101261943Y-121666000D01*
X101258302Y-121657210D01*
X100535383Y-120934291D01*
X100526593Y-120930650D01*
X100521515Y-120932754D01*
X100449662Y-121035372D01*
X100446941Y-121040083D01*
X100356664Y-121233682D01*
X100354804Y-121238792D01*
X100299517Y-121445126D01*
X100298573Y-121450480D01*
X100279956Y-121663280D01*
X100279956Y-121668720D01*
X98465884Y-121668720D01*
X98465977Y-120656987D01*
X100801073Y-120656987D01*
X100802263Y-120662355D01*
X101527710Y-121387802D01*
X101536500Y-121391443D01*
X101545290Y-121387802D01*
X102268209Y-120664883D01*
X102271480Y-120656987D01*
X105881073Y-120656987D01*
X105882263Y-120662355D01*
X106607710Y-121387802D01*
X106616500Y-121391443D01*
X106625290Y-121387802D01*
X107348209Y-120664883D01*
X107351850Y-120656093D01*
X107349746Y-120651015D01*
X107247128Y-120579162D01*
X107242417Y-120576441D01*
X107048818Y-120486164D01*
X107043708Y-120484304D01*
X106837374Y-120429017D01*
X106832020Y-120428073D01*
X106619220Y-120409456D01*
X106613780Y-120409456D01*
X106400980Y-120428073D01*
X106395626Y-120429017D01*
X106189292Y-120484304D01*
X106184182Y-120486164D01*
X105990583Y-120576441D01*
X105985872Y-120579162D01*
X105886185Y-120648962D01*
X105881073Y-120656987D01*
X102271480Y-120656987D01*
X102271850Y-120656093D01*
X102269746Y-120651015D01*
X102167128Y-120579162D01*
X102162417Y-120576441D01*
X101968818Y-120486164D01*
X101963708Y-120484304D01*
X101757374Y-120429017D01*
X101752020Y-120428073D01*
X101539220Y-120409456D01*
X101533780Y-120409456D01*
X101320980Y-120428073D01*
X101315626Y-120429017D01*
X101109292Y-120484304D01*
X101104182Y-120486164D01*
X100910583Y-120576441D01*
X100905872Y-120579162D01*
X100806185Y-120648962D01*
X100801073Y-120656987D01*
X98465977Y-120656987D01*
X98466121Y-119095702D01*
X102919460Y-119095702D01*
X102933313Y-119307063D01*
X102934019Y-119309843D01*
X102956640Y-119398911D01*
X102985452Y-119512360D01*
X103074130Y-119704718D01*
X103075781Y-119707053D01*
X103075782Y-119707056D01*
X103130007Y-119783782D01*
X103196378Y-119877695D01*
X103348101Y-120025497D01*
X103524219Y-120143175D01*
X103718832Y-120226788D01*
X103721618Y-120227418D01*
X103721623Y-120227420D01*
X103922634Y-120272904D01*
X103922637Y-120272904D01*
X103925424Y-120273535D01*
X104019089Y-120277215D01*
X104134216Y-120281739D01*
X104134220Y-120281739D01*
X104137076Y-120281851D01*
X104346698Y-120251457D01*
X104547272Y-120183371D01*
X104732080Y-120079874D01*
X104894932Y-119944432D01*
X105030374Y-119781580D01*
X105133871Y-119596772D01*
X105201957Y-119396198D01*
X105232351Y-119186576D01*
X105233937Y-119126000D01*
X105230892Y-119092854D01*
X105214818Y-118917929D01*
X105214556Y-118915074D01*
X105206976Y-118888195D01*
X105157841Y-118713977D01*
X105157840Y-118713975D01*
X105157061Y-118711212D01*
X105063377Y-118521241D01*
X104936643Y-118351523D01*
X104781103Y-118207743D01*
X104601965Y-118094716D01*
X104405230Y-118016227D01*
X104402424Y-118015669D01*
X104402421Y-118015668D01*
X104200291Y-117975462D01*
X104200289Y-117975462D01*
X104197485Y-117974904D01*
X104097647Y-117973597D01*
X103988551Y-117972168D01*
X103988546Y-117972168D01*
X103985689Y-117972131D01*
X103982869Y-117972616D01*
X103982864Y-117972616D01*
X103861198Y-117993523D01*
X103776933Y-118008002D01*
X103774245Y-118008994D01*
X103774240Y-118008995D01*
X103580899Y-118080322D01*
X103580896Y-118080324D01*
X103578211Y-118081314D01*
X103575751Y-118082777D01*
X103575750Y-118082778D01*
X103398641Y-118188147D01*
X103398637Y-118188150D01*
X103396176Y-118189614D01*
X103368077Y-118214256D01*
X103292739Y-118280326D01*
X103236925Y-118329273D01*
X103105792Y-118495615D01*
X103007168Y-118683068D01*
X102944356Y-118885355D01*
X102919460Y-119095702D01*
X98466121Y-119095702D01*
X98466260Y-117595907D01*
X100801150Y-117595907D01*
X100803254Y-117600985D01*
X100905872Y-117672838D01*
X100910583Y-117675559D01*
X101104182Y-117765836D01*
X101109292Y-117767696D01*
X101315626Y-117822983D01*
X101320980Y-117823927D01*
X101533780Y-117842544D01*
X101539220Y-117842544D01*
X101752020Y-117823927D01*
X101757374Y-117822983D01*
X101963708Y-117767696D01*
X101968818Y-117765836D01*
X102162417Y-117675559D01*
X102167128Y-117672838D01*
X102266815Y-117603038D01*
X102271358Y-117595907D01*
X105881150Y-117595907D01*
X105883254Y-117600985D01*
X105985872Y-117672838D01*
X105990583Y-117675559D01*
X106184182Y-117765836D01*
X106189292Y-117767696D01*
X106395626Y-117822983D01*
X106400980Y-117823927D01*
X106613780Y-117842544D01*
X106619220Y-117842544D01*
X106832020Y-117823927D01*
X106837374Y-117822983D01*
X107043708Y-117767696D01*
X107048818Y-117765836D01*
X107242417Y-117675559D01*
X107247128Y-117672838D01*
X107346815Y-117603038D01*
X107351927Y-117595013D01*
X107350737Y-117589645D01*
X106625290Y-116864198D01*
X106616500Y-116860557D01*
X106607710Y-116864198D01*
X105884791Y-117587117D01*
X105881150Y-117595907D01*
X102271358Y-117595907D01*
X102271927Y-117595013D01*
X102270737Y-117589645D01*
X101545290Y-116864198D01*
X101536500Y-116860557D01*
X101527710Y-116864198D01*
X100804791Y-117587117D01*
X100801150Y-117595907D01*
X98466260Y-117595907D01*
X98466353Y-116588720D01*
X100279956Y-116588720D01*
X100298573Y-116801520D01*
X100299517Y-116806874D01*
X100354804Y-117013208D01*
X100356664Y-117018318D01*
X100446941Y-117211917D01*
X100449662Y-117216628D01*
X100519462Y-117316315D01*
X100527487Y-117321427D01*
X100532855Y-117320237D01*
X101258302Y-116594790D01*
X101261943Y-116586000D01*
X101811057Y-116586000D01*
X101814698Y-116594790D01*
X102537617Y-117317709D01*
X102546407Y-117321350D01*
X102551485Y-117319246D01*
X102623338Y-117216628D01*
X102626059Y-117211917D01*
X102716336Y-117018318D01*
X102718196Y-117013208D01*
X102773483Y-116806874D01*
X102774427Y-116801520D01*
X102793044Y-116588720D01*
X105359956Y-116588720D01*
X105378573Y-116801520D01*
X105379517Y-116806874D01*
X105434804Y-117013208D01*
X105436664Y-117018318D01*
X105526941Y-117211917D01*
X105529662Y-117216628D01*
X105599462Y-117316315D01*
X105607487Y-117321427D01*
X105612855Y-117320237D01*
X106338302Y-116594790D01*
X106341943Y-116586000D01*
X106891057Y-116586000D01*
X106894698Y-116594790D01*
X107617617Y-117317709D01*
X107626407Y-117321350D01*
X107631485Y-117319246D01*
X107703338Y-117216628D01*
X107706059Y-117211917D01*
X107796336Y-117018318D01*
X107798196Y-117013208D01*
X107853483Y-116806874D01*
X107854427Y-116801520D01*
X107873044Y-116588720D01*
X107873044Y-116583280D01*
X107854427Y-116370480D01*
X107853483Y-116365126D01*
X107798196Y-116158792D01*
X107796336Y-116153682D01*
X107706059Y-115960083D01*
X107703338Y-115955372D01*
X107633538Y-115855685D01*
X107625513Y-115850573D01*
X107620145Y-115851763D01*
X106894698Y-116577210D01*
X106891057Y-116586000D01*
X106341943Y-116586000D01*
X106338302Y-116577210D01*
X105615383Y-115854291D01*
X105606593Y-115850650D01*
X105601515Y-115852754D01*
X105529662Y-115955372D01*
X105526941Y-115960083D01*
X105436664Y-116153682D01*
X105434804Y-116158792D01*
X105379517Y-116365126D01*
X105378573Y-116370480D01*
X105359956Y-116583280D01*
X105359956Y-116588720D01*
X102793044Y-116588720D01*
X102793044Y-116583280D01*
X102774427Y-116370480D01*
X102773483Y-116365126D01*
X102718196Y-116158792D01*
X102716336Y-116153682D01*
X102626059Y-115960083D01*
X102623338Y-115955372D01*
X102553538Y-115855685D01*
X102545513Y-115850573D01*
X102540145Y-115851763D01*
X101814698Y-116577210D01*
X101811057Y-116586000D01*
X101261943Y-116586000D01*
X101258302Y-116577210D01*
X100535383Y-115854291D01*
X100526593Y-115850650D01*
X100521515Y-115852754D01*
X100449662Y-115955372D01*
X100446941Y-115960083D01*
X100356664Y-116153682D01*
X100354804Y-116158792D01*
X100299517Y-116365126D01*
X100298573Y-116370480D01*
X100279956Y-116583280D01*
X100279956Y-116588720D01*
X98466353Y-116588720D01*
X98466447Y-115576987D01*
X100801073Y-115576987D01*
X100802263Y-115582355D01*
X101527710Y-116307802D01*
X101536500Y-116311443D01*
X101545290Y-116307802D01*
X102268209Y-115584883D01*
X102271480Y-115576987D01*
X105881073Y-115576987D01*
X105882263Y-115582355D01*
X106607710Y-116307802D01*
X106616500Y-116311443D01*
X106625290Y-116307802D01*
X107348209Y-115584883D01*
X107351850Y-115576093D01*
X107349746Y-115571015D01*
X107247128Y-115499162D01*
X107242417Y-115496441D01*
X107048818Y-115406164D01*
X107043708Y-115404304D01*
X106837374Y-115349017D01*
X106832020Y-115348073D01*
X106619220Y-115329456D01*
X106613780Y-115329456D01*
X106400980Y-115348073D01*
X106395626Y-115349017D01*
X106189292Y-115404304D01*
X106184182Y-115406164D01*
X105990583Y-115496441D01*
X105985872Y-115499162D01*
X105886185Y-115568962D01*
X105881073Y-115576987D01*
X102271480Y-115576987D01*
X102271850Y-115576093D01*
X102269746Y-115571015D01*
X102167128Y-115499162D01*
X102162417Y-115496441D01*
X101968818Y-115406164D01*
X101963708Y-115404304D01*
X101757374Y-115349017D01*
X101752020Y-115348073D01*
X101539220Y-115329456D01*
X101533780Y-115329456D01*
X101320980Y-115348073D01*
X101315626Y-115349017D01*
X101109292Y-115404304D01*
X101104182Y-115406164D01*
X100910583Y-115496441D01*
X100905872Y-115499162D01*
X100806185Y-115568962D01*
X100801073Y-115576987D01*
X98466447Y-115576987D01*
X98466800Y-111753907D01*
X100801150Y-111753907D01*
X100803254Y-111758985D01*
X100905872Y-111830838D01*
X100910583Y-111833559D01*
X101104182Y-111923836D01*
X101109292Y-111925696D01*
X101315626Y-111980983D01*
X101320980Y-111981927D01*
X101533780Y-112000544D01*
X101539220Y-112000544D01*
X101752020Y-111981927D01*
X101757374Y-111980983D01*
X101963708Y-111925696D01*
X101968818Y-111923836D01*
X102162417Y-111833559D01*
X102167128Y-111830838D01*
X102266815Y-111761038D01*
X102271358Y-111753907D01*
X105881150Y-111753907D01*
X105883254Y-111758985D01*
X105985872Y-111830838D01*
X105990583Y-111833559D01*
X106184182Y-111923836D01*
X106189292Y-111925696D01*
X106395626Y-111980983D01*
X106400980Y-111981927D01*
X106613780Y-112000544D01*
X106619220Y-112000544D01*
X106832020Y-111981927D01*
X106837374Y-111980983D01*
X107043708Y-111925696D01*
X107048818Y-111923836D01*
X107242417Y-111833559D01*
X107247128Y-111830838D01*
X107346815Y-111761038D01*
X107351927Y-111753013D01*
X107350737Y-111747645D01*
X106625290Y-111022198D01*
X106616500Y-111018557D01*
X106607710Y-111022198D01*
X105884791Y-111745117D01*
X105881150Y-111753907D01*
X102271358Y-111753907D01*
X102271927Y-111753013D01*
X102270737Y-111747645D01*
X101545290Y-111022198D01*
X101536500Y-111018557D01*
X101527710Y-111022198D01*
X100804791Y-111745117D01*
X100801150Y-111753907D01*
X98466800Y-111753907D01*
X98466893Y-110746720D01*
X100279956Y-110746720D01*
X100298573Y-110959520D01*
X100299517Y-110964874D01*
X100354804Y-111171208D01*
X100356664Y-111176318D01*
X100446941Y-111369917D01*
X100449662Y-111374628D01*
X100519462Y-111474315D01*
X100527487Y-111479427D01*
X100532855Y-111478237D01*
X101258302Y-110752790D01*
X101261943Y-110744000D01*
X101811057Y-110744000D01*
X101814698Y-110752790D01*
X102537617Y-111475709D01*
X102546407Y-111479350D01*
X102551485Y-111477246D01*
X102623338Y-111374628D01*
X102626059Y-111369917D01*
X102716336Y-111176318D01*
X102718196Y-111171208D01*
X102773483Y-110964874D01*
X102774427Y-110959520D01*
X102793044Y-110746720D01*
X105359956Y-110746720D01*
X105378573Y-110959520D01*
X105379517Y-110964874D01*
X105434804Y-111171208D01*
X105436664Y-111176318D01*
X105526941Y-111369917D01*
X105529662Y-111374628D01*
X105599462Y-111474315D01*
X105607487Y-111479427D01*
X105612855Y-111478237D01*
X106338302Y-110752790D01*
X106341943Y-110744000D01*
X106891057Y-110744000D01*
X106894698Y-110752790D01*
X107617617Y-111475709D01*
X107626407Y-111479350D01*
X107631485Y-111477246D01*
X107703338Y-111374628D01*
X107706059Y-111369917D01*
X107796336Y-111176318D01*
X107798196Y-111171208D01*
X107853483Y-110964874D01*
X107854427Y-110959520D01*
X107873044Y-110746720D01*
X107873044Y-110741280D01*
X107854427Y-110528480D01*
X107853483Y-110523126D01*
X107798196Y-110316792D01*
X107796336Y-110311682D01*
X107706059Y-110118083D01*
X107703338Y-110113372D01*
X107633538Y-110013685D01*
X107625513Y-110008573D01*
X107620145Y-110009763D01*
X106894698Y-110735210D01*
X106891057Y-110744000D01*
X106341943Y-110744000D01*
X106338302Y-110735210D01*
X105615383Y-110012291D01*
X105606593Y-110008650D01*
X105601515Y-110010754D01*
X105529662Y-110113372D01*
X105526941Y-110118083D01*
X105436664Y-110311682D01*
X105434804Y-110316792D01*
X105379517Y-110523126D01*
X105378573Y-110528480D01*
X105359956Y-110741280D01*
X105359956Y-110746720D01*
X102793044Y-110746720D01*
X102793044Y-110741280D01*
X102774427Y-110528480D01*
X102773483Y-110523126D01*
X102718196Y-110316792D01*
X102716336Y-110311682D01*
X102626059Y-110118083D01*
X102623338Y-110113372D01*
X102553538Y-110013685D01*
X102545513Y-110008573D01*
X102540145Y-110009763D01*
X101814698Y-110735210D01*
X101811057Y-110744000D01*
X101261943Y-110744000D01*
X101258302Y-110735210D01*
X100535383Y-110012291D01*
X100526593Y-110008650D01*
X100521515Y-110010754D01*
X100449662Y-110113372D01*
X100446941Y-110118083D01*
X100356664Y-110311682D01*
X100354804Y-110316792D01*
X100299517Y-110523126D01*
X100298573Y-110528480D01*
X100279956Y-110741280D01*
X100279956Y-110746720D01*
X98466893Y-110746720D01*
X98466919Y-110465802D01*
X98466986Y-109734987D01*
X100801073Y-109734987D01*
X100802263Y-109740355D01*
X101527710Y-110465802D01*
X101536500Y-110469443D01*
X101545290Y-110465802D01*
X102268209Y-109742883D01*
X102271480Y-109734987D01*
X105881073Y-109734987D01*
X105882263Y-109740355D01*
X106607710Y-110465802D01*
X106616500Y-110469443D01*
X106625290Y-110465802D01*
X107348209Y-109742883D01*
X107351850Y-109734093D01*
X107349746Y-109729015D01*
X107247128Y-109657162D01*
X107242417Y-109654441D01*
X107048818Y-109564164D01*
X107043708Y-109562304D01*
X106837374Y-109507017D01*
X106832020Y-109506073D01*
X106619220Y-109487456D01*
X106613780Y-109487456D01*
X106400980Y-109506073D01*
X106395626Y-109507017D01*
X106189292Y-109562304D01*
X106184182Y-109564164D01*
X105990583Y-109654441D01*
X105985872Y-109657162D01*
X105886185Y-109726962D01*
X105881073Y-109734987D01*
X102271480Y-109734987D01*
X102271850Y-109734093D01*
X102269746Y-109729015D01*
X102167128Y-109657162D01*
X102162417Y-109654441D01*
X101968818Y-109564164D01*
X101963708Y-109562304D01*
X101757374Y-109507017D01*
X101752020Y-109506073D01*
X101539220Y-109487456D01*
X101533780Y-109487456D01*
X101320980Y-109506073D01*
X101315626Y-109507017D01*
X101109292Y-109562304D01*
X101104182Y-109564164D01*
X100910583Y-109654441D01*
X100905872Y-109657162D01*
X100806185Y-109726962D01*
X100801073Y-109734987D01*
X98466986Y-109734987D01*
X98467130Y-108173702D01*
X102919460Y-108173702D01*
X102933313Y-108385063D01*
X102934019Y-108387843D01*
X102956640Y-108476911D01*
X102985452Y-108590360D01*
X103074130Y-108782718D01*
X103075781Y-108785053D01*
X103075782Y-108785056D01*
X103130007Y-108861782D01*
X103196378Y-108955695D01*
X103348101Y-109103497D01*
X103524219Y-109221175D01*
X103718832Y-109304788D01*
X103721618Y-109305418D01*
X103721623Y-109305420D01*
X103922634Y-109350904D01*
X103922637Y-109350904D01*
X103925424Y-109351535D01*
X104019089Y-109355215D01*
X104134216Y-109359739D01*
X104134220Y-109359739D01*
X104137076Y-109359851D01*
X104346698Y-109329457D01*
X104547272Y-109261371D01*
X104732080Y-109157874D01*
X104894932Y-109022432D01*
X105030374Y-108859580D01*
X105133871Y-108674772D01*
X105201957Y-108474198D01*
X105232351Y-108264576D01*
X105233937Y-108204000D01*
X105230892Y-108170854D01*
X105214818Y-107995929D01*
X105214556Y-107993074D01*
X105206976Y-107966195D01*
X105157841Y-107791977D01*
X105157840Y-107791975D01*
X105157061Y-107789212D01*
X105063377Y-107599241D01*
X104936643Y-107429523D01*
X104781103Y-107285743D01*
X104601965Y-107172716D01*
X104405230Y-107094227D01*
X104402424Y-107093669D01*
X104402421Y-107093668D01*
X104200291Y-107053462D01*
X104200289Y-107053462D01*
X104197485Y-107052904D01*
X104097647Y-107051597D01*
X103988551Y-107050168D01*
X103988546Y-107050168D01*
X103985689Y-107050131D01*
X103982869Y-107050616D01*
X103982864Y-107050616D01*
X103861198Y-107071523D01*
X103776933Y-107086002D01*
X103774245Y-107086994D01*
X103774240Y-107086995D01*
X103580899Y-107158322D01*
X103580896Y-107158324D01*
X103578211Y-107159314D01*
X103575751Y-107160777D01*
X103575750Y-107160778D01*
X103398641Y-107266147D01*
X103398637Y-107266150D01*
X103396176Y-107267614D01*
X103236925Y-107407273D01*
X103105792Y-107573615D01*
X103007168Y-107761068D01*
X102944356Y-107963355D01*
X102919460Y-108173702D01*
X98467130Y-108173702D01*
X98467269Y-106673907D01*
X100801150Y-106673907D01*
X100803254Y-106678985D01*
X100905872Y-106750838D01*
X100910583Y-106753559D01*
X101104182Y-106843836D01*
X101109292Y-106845696D01*
X101315626Y-106900983D01*
X101320980Y-106901927D01*
X101533780Y-106920544D01*
X101539220Y-106920544D01*
X101752020Y-106901927D01*
X101757374Y-106900983D01*
X101963708Y-106845696D01*
X101968818Y-106843836D01*
X102162417Y-106753559D01*
X102167128Y-106750838D01*
X102266815Y-106681038D01*
X102271358Y-106673907D01*
X105881150Y-106673907D01*
X105883254Y-106678985D01*
X105985872Y-106750838D01*
X105990583Y-106753559D01*
X106184182Y-106843836D01*
X106189292Y-106845696D01*
X106395626Y-106900983D01*
X106400980Y-106901927D01*
X106613780Y-106920544D01*
X106619220Y-106920544D01*
X106832020Y-106901927D01*
X106837374Y-106900983D01*
X107043708Y-106845696D01*
X107048818Y-106843836D01*
X107242417Y-106753559D01*
X107247128Y-106750838D01*
X107346815Y-106681038D01*
X107351927Y-106673013D01*
X107350737Y-106667645D01*
X106625290Y-105942198D01*
X106616500Y-105938557D01*
X106607710Y-105942198D01*
X105884791Y-106665117D01*
X105881150Y-106673907D01*
X102271358Y-106673907D01*
X102271927Y-106673013D01*
X102270737Y-106667645D01*
X101545290Y-105942198D01*
X101536500Y-105938557D01*
X101527710Y-105942198D01*
X100804791Y-106665117D01*
X100801150Y-106673907D01*
X98467269Y-106673907D01*
X98467362Y-105666720D01*
X100279956Y-105666720D01*
X100298573Y-105879520D01*
X100299517Y-105884874D01*
X100354804Y-106091208D01*
X100356664Y-106096318D01*
X100446941Y-106289917D01*
X100449662Y-106294628D01*
X100519462Y-106394315D01*
X100527487Y-106399427D01*
X100532855Y-106398237D01*
X101258302Y-105672790D01*
X101261943Y-105664000D01*
X101811057Y-105664000D01*
X101814698Y-105672790D01*
X102537617Y-106395709D01*
X102546407Y-106399350D01*
X102551485Y-106397246D01*
X102623338Y-106294628D01*
X102626059Y-106289917D01*
X102716336Y-106096318D01*
X102718196Y-106091208D01*
X102773483Y-105884874D01*
X102774427Y-105879520D01*
X102793044Y-105666720D01*
X105359956Y-105666720D01*
X105378573Y-105879520D01*
X105379517Y-105884874D01*
X105434804Y-106091208D01*
X105436664Y-106096318D01*
X105526941Y-106289917D01*
X105529662Y-106294628D01*
X105599462Y-106394315D01*
X105607487Y-106399427D01*
X105612855Y-106398237D01*
X106338302Y-105672790D01*
X106341943Y-105664000D01*
X106891057Y-105664000D01*
X106894698Y-105672790D01*
X107617617Y-106395709D01*
X107626407Y-106399350D01*
X107631485Y-106397246D01*
X107703338Y-106294628D01*
X107706059Y-106289917D01*
X107796336Y-106096318D01*
X107798196Y-106091208D01*
X107853483Y-105884874D01*
X107854427Y-105879520D01*
X107873044Y-105666720D01*
X107873044Y-105661280D01*
X107854427Y-105448480D01*
X107853483Y-105443126D01*
X107798196Y-105236792D01*
X107796336Y-105231682D01*
X107706059Y-105038083D01*
X107703338Y-105033372D01*
X107633538Y-104933685D01*
X107625513Y-104928573D01*
X107620145Y-104929763D01*
X106894698Y-105655210D01*
X106891057Y-105664000D01*
X106341943Y-105664000D01*
X106338302Y-105655210D01*
X105615383Y-104932291D01*
X105606593Y-104928650D01*
X105601515Y-104930754D01*
X105529662Y-105033372D01*
X105526941Y-105038083D01*
X105436664Y-105231682D01*
X105434804Y-105236792D01*
X105379517Y-105443126D01*
X105378573Y-105448480D01*
X105359956Y-105661280D01*
X105359956Y-105666720D01*
X102793044Y-105666720D01*
X102793044Y-105661280D01*
X102774427Y-105448480D01*
X102773483Y-105443126D01*
X102718196Y-105236792D01*
X102716336Y-105231682D01*
X102626059Y-105038083D01*
X102623338Y-105033372D01*
X102553538Y-104933685D01*
X102545513Y-104928573D01*
X102540145Y-104929763D01*
X101814698Y-105655210D01*
X101811057Y-105664000D01*
X101261943Y-105664000D01*
X101258302Y-105655210D01*
X100535383Y-104932291D01*
X100526593Y-104928650D01*
X100521515Y-104930754D01*
X100449662Y-105033372D01*
X100446941Y-105038083D01*
X100356664Y-105231682D01*
X100354804Y-105236792D01*
X100299517Y-105443126D01*
X100298573Y-105448480D01*
X100279956Y-105661280D01*
X100279956Y-105666720D01*
X98467362Y-105666720D01*
X98467455Y-104654987D01*
X100801073Y-104654987D01*
X100802263Y-104660355D01*
X101527710Y-105385802D01*
X101536500Y-105389443D01*
X101545290Y-105385802D01*
X102268209Y-104662883D01*
X102271480Y-104654987D01*
X105881073Y-104654987D01*
X105882263Y-104660355D01*
X106607710Y-105385802D01*
X106616500Y-105389443D01*
X106625290Y-105385802D01*
X107348209Y-104662883D01*
X107351850Y-104654093D01*
X107349746Y-104649015D01*
X107247128Y-104577162D01*
X107242417Y-104574441D01*
X107048818Y-104484164D01*
X107043708Y-104482304D01*
X106837374Y-104427017D01*
X106832020Y-104426073D01*
X106619220Y-104407456D01*
X106613780Y-104407456D01*
X106400980Y-104426073D01*
X106395626Y-104427017D01*
X106189292Y-104482304D01*
X106184182Y-104484164D01*
X105990583Y-104574441D01*
X105985872Y-104577162D01*
X105886185Y-104646962D01*
X105881073Y-104654987D01*
X102271480Y-104654987D01*
X102271850Y-104654093D01*
X102269746Y-104649015D01*
X102167128Y-104577162D01*
X102162417Y-104574441D01*
X101968818Y-104484164D01*
X101963708Y-104482304D01*
X101757374Y-104427017D01*
X101752020Y-104426073D01*
X101539220Y-104407456D01*
X101533780Y-104407456D01*
X101320980Y-104426073D01*
X101315626Y-104427017D01*
X101109292Y-104482304D01*
X101104182Y-104484164D01*
X100910583Y-104574441D01*
X100905872Y-104577162D01*
X100806185Y-104646962D01*
X100801073Y-104654987D01*
X98467455Y-104654987D01*
X98467591Y-103186493D01*
X98485901Y-103142302D01*
X98530091Y-103124000D01*
X108982186Y-103124000D01*
X109011496Y-103131299D01*
G37*
%TD.AperFunction*%
%TA.AperFunction,Conductor*%
G36*
X167928331Y-120924002D02*
G01*
X167974824Y-120977658D01*
X167986210Y-121030000D01*
X167986210Y-124169852D01*
X167966208Y-124237973D01*
X167954656Y-124253254D01*
X167885730Y-124331298D01*
X167829610Y-124450831D01*
X167809294Y-124581310D01*
X167810458Y-124590212D01*
X167810458Y-124590215D01*
X167810890Y-124593517D01*
X167826416Y-124712247D01*
X167879599Y-124833115D01*
X167885376Y-124839988D01*
X167885377Y-124839989D01*
X167958789Y-124927323D01*
X167964569Y-124934199D01*
X168074493Y-125007371D01*
X168165325Y-125035749D01*
X168170530Y-125037375D01*
X168200537Y-125046750D01*
X168332566Y-125049170D01*
X168385190Y-125034823D01*
X168451309Y-125016797D01*
X168451311Y-125016796D01*
X168459968Y-125014436D01*
X168572500Y-124945341D01*
X168661117Y-124847439D01*
X168718694Y-124728601D01*
X168740602Y-124598379D01*
X168740741Y-124587000D01*
X168722021Y-124456282D01*
X168667365Y-124336072D01*
X168645177Y-124310322D01*
X168594337Y-124251319D01*
X168565023Y-124186656D01*
X168563790Y-124169071D01*
X168563790Y-122729169D01*
X173399501Y-122729169D01*
X173399871Y-122735990D01*
X173405395Y-122786852D01*
X173409021Y-122802104D01*
X173454176Y-122922554D01*
X173462714Y-122938149D01*
X173539215Y-123040224D01*
X173551776Y-123052785D01*
X173653851Y-123129286D01*
X173669446Y-123137824D01*
X173789894Y-123182978D01*
X173805149Y-123186605D01*
X173856014Y-123192131D01*
X173862828Y-123192500D01*
X174289385Y-123192500D01*
X174304624Y-123188025D01*
X174305829Y-123186635D01*
X174307500Y-123178952D01*
X174307500Y-123174384D01*
X174815500Y-123174384D01*
X174819975Y-123189623D01*
X174821365Y-123190828D01*
X174829048Y-123192499D01*
X175260169Y-123192499D01*
X175266990Y-123192129D01*
X175317852Y-123186605D01*
X175333104Y-123182979D01*
X175453554Y-123137824D01*
X175469149Y-123129286D01*
X175571224Y-123052785D01*
X175583785Y-123040224D01*
X175660286Y-122938149D01*
X175668824Y-122922554D01*
X175713978Y-122802106D01*
X175717605Y-122786851D01*
X175723131Y-122735986D01*
X175723500Y-122729172D01*
X175723500Y-122302615D01*
X175719025Y-122287376D01*
X175717635Y-122286171D01*
X175709952Y-122284500D01*
X174833615Y-122284500D01*
X174818376Y-122288975D01*
X174817171Y-122290365D01*
X174815500Y-122298048D01*
X174815500Y-123174384D01*
X174307500Y-123174384D01*
X174307500Y-122302615D01*
X174303025Y-122287376D01*
X174301635Y-122286171D01*
X174293952Y-122284500D01*
X173417616Y-122284500D01*
X173402377Y-122288975D01*
X173401172Y-122290365D01*
X173399501Y-122298048D01*
X173399501Y-122729169D01*
X168563790Y-122729169D01*
X168563790Y-121030000D01*
X168583792Y-120961879D01*
X168637448Y-120915386D01*
X168689790Y-120904000D01*
X173224600Y-120904000D01*
X173292721Y-120924002D01*
X173313695Y-120940905D01*
X173412371Y-121039581D01*
X173446397Y-121101893D01*
X173441258Y-121172906D01*
X173409022Y-121258895D01*
X173405395Y-121274149D01*
X173399869Y-121325014D01*
X173399500Y-121331828D01*
X173399500Y-121758385D01*
X173403975Y-121773624D01*
X173405365Y-121774829D01*
X173413048Y-121776500D01*
X175705384Y-121776500D01*
X175720623Y-121772025D01*
X175721828Y-121770635D01*
X175723499Y-121762952D01*
X175723499Y-121331831D01*
X175723129Y-121325010D01*
X175717605Y-121274148D01*
X175713979Y-121258896D01*
X175668824Y-121138446D01*
X175660286Y-121122852D01*
X175647330Y-121105564D01*
X175622483Y-121039057D01*
X175637537Y-120969675D01*
X175687712Y-120919445D01*
X175748157Y-120904000D01*
X180818100Y-120904000D01*
X180886221Y-120924002D01*
X180932714Y-120977658D01*
X180944100Y-121030000D01*
X180944100Y-140559100D01*
X180924098Y-140627221D01*
X180870442Y-140673714D01*
X180818100Y-140685100D01*
X165099000Y-140685100D01*
X165030879Y-140665098D01*
X164984386Y-140611442D01*
X164973000Y-140559100D01*
X164973000Y-134868310D01*
X166285294Y-134868310D01*
X166286458Y-134877212D01*
X166286458Y-134877215D01*
X166286890Y-134880517D01*
X166302416Y-134999247D01*
X166355599Y-135120115D01*
X166361376Y-135126988D01*
X166361377Y-135126989D01*
X166434789Y-135214323D01*
X166440569Y-135221199D01*
X166550493Y-135294371D01*
X166676537Y-135333750D01*
X166808566Y-135336170D01*
X166861190Y-135321823D01*
X166927309Y-135303797D01*
X166927311Y-135303796D01*
X166935968Y-135301436D01*
X167048500Y-135232341D01*
X167137117Y-135134439D01*
X167194694Y-135015601D01*
X167216602Y-134885379D01*
X167216741Y-134874000D01*
X167198021Y-134743282D01*
X167143365Y-134623072D01*
X167137507Y-134616273D01*
X167137504Y-134616269D01*
X167063027Y-134529835D01*
X167063024Y-134529833D01*
X167057167Y-134523035D01*
X166946356Y-134451211D01*
X166819841Y-134413375D01*
X166810865Y-134413320D01*
X166810864Y-134413320D01*
X166756231Y-134412986D01*
X166687792Y-134412568D01*
X166560824Y-134448856D01*
X166449144Y-134519320D01*
X166443201Y-134526049D01*
X166443200Y-134526050D01*
X166411713Y-134561703D01*
X166361730Y-134618298D01*
X166305610Y-134737831D01*
X166285294Y-134868310D01*
X164973000Y-134868310D01*
X164973000Y-125492310D01*
X173292294Y-125492310D01*
X173293458Y-125501212D01*
X173293458Y-125501215D01*
X173293890Y-125504517D01*
X173309416Y-125623247D01*
X173362599Y-125744115D01*
X173368376Y-125750988D01*
X173368377Y-125750989D01*
X173441789Y-125838323D01*
X173447569Y-125845199D01*
X173557493Y-125918371D01*
X173683537Y-125957750D01*
X173815566Y-125960170D01*
X173868190Y-125945823D01*
X173934309Y-125927797D01*
X173934311Y-125927796D01*
X173942968Y-125925436D01*
X174055500Y-125856341D01*
X174144117Y-125758439D01*
X174201694Y-125639601D01*
X174223602Y-125509379D01*
X174223741Y-125498000D01*
X174205021Y-125367282D01*
X174150365Y-125247072D01*
X174144507Y-125240273D01*
X174144504Y-125240269D01*
X174070027Y-125153835D01*
X174070024Y-125153833D01*
X174064167Y-125147035D01*
X173953356Y-125075211D01*
X173826841Y-125037375D01*
X173817865Y-125037320D01*
X173817864Y-125037320D01*
X173763231Y-125036986D01*
X173694792Y-125036568D01*
X173567824Y-125072856D01*
X173456144Y-125143320D01*
X173450201Y-125150049D01*
X173450200Y-125150050D01*
X173418713Y-125185703D01*
X173368730Y-125242298D01*
X173312610Y-125361831D01*
X173292294Y-125492310D01*
X164973000Y-125492310D01*
X164973000Y-121030000D01*
X164993002Y-120961879D01*
X165046658Y-120915386D01*
X165099000Y-120904000D01*
X167860210Y-120904000D01*
X167928331Y-120924002D01*
G37*
%TD.AperFunction*%
M02*
