%TF.GenerationSoftware,KiCad,Pcbnew,(6.0.4-0)*%
%TF.CreationDate,2022-05-13T14:17:41-07:00*%
%TF.ProjectId,solar-panel-side-X-plus,736f6c61-722d-4706-916e-656c2d736964,rev?*%
%TF.SameCoordinates,Original*%
%TF.FileFunction,Soldermask,Bot*%
%TF.FilePolarity,Negative*%
%FSLAX46Y46*%
G04 Gerber Fmt 4.6, Leading zero omitted, Abs format (unit mm)*
G04 Created by KiCad (PCBNEW (6.0.4-0)) date 2022-05-13 14:17:41*
%MOMM*%
%LPD*%
G01*
G04 APERTURE LIST*
G04 Aperture macros list*
%AMRoundRect*
0 Rectangle with rounded corners*
0 $1 Rounding radius*
0 $2 $3 $4 $5 $6 $7 $8 $9 X,Y pos of 4 corners*
0 Add a 4 corners polygon primitive as box body*
4,1,4,$2,$3,$4,$5,$6,$7,$8,$9,$2,$3,0*
0 Add four circle primitives for the rounded corners*
1,1,$1+$1,$2,$3*
1,1,$1+$1,$4,$5*
1,1,$1+$1,$6,$7*
1,1,$1+$1,$8,$9*
0 Add four rect primitives between the rounded corners*
20,1,$1+$1,$2,$3,$4,$5,0*
20,1,$1+$1,$4,$5,$6,$7,0*
20,1,$1+$1,$6,$7,$8,$9,0*
20,1,$1+$1,$8,$9,$2,$3,0*%
G04 Aperture macros list end*
%ADD10C,0.010000*%
%ADD11C,3.000000*%
%ADD12C,3.800000*%
%ADD13C,2.600000*%
%ADD14RoundRect,0.218750X-0.218750X-0.256250X0.218750X-0.256250X0.218750X0.256250X-0.218750X0.256250X0*%
%ADD15R,0.400000X0.650000*%
%ADD16RoundRect,0.218750X0.218750X0.256250X-0.218750X0.256250X-0.218750X-0.256250X0.218750X-0.256250X0*%
%ADD17R,0.400000X0.600000*%
G04 APERTURE END LIST*
%TO.C,J1*%
G36*
X128411200Y-68590200D02*
G01*
X125358800Y-68590200D01*
X125358800Y-67087800D01*
X128411200Y-67087800D01*
X128411200Y-68590200D01*
G37*
D10*
X128411200Y-68590200D02*
X125358800Y-68590200D01*
X125358800Y-67087800D01*
X128411200Y-67087800D01*
X128411200Y-68590200D01*
G36*
X121711200Y-63570200D02*
G01*
X120108800Y-63570200D01*
X120108800Y-62317800D01*
X121711200Y-62317800D01*
X121711200Y-63570200D01*
G37*
X121711200Y-63570200D02*
X120108800Y-63570200D01*
X120108800Y-62317800D01*
X121711200Y-62317800D01*
X121711200Y-63570200D01*
G36*
X121711200Y-55570200D02*
G01*
X120108800Y-55570200D01*
X120108800Y-54317800D01*
X121711200Y-54317800D01*
X121711200Y-55570200D01*
G37*
X121711200Y-55570200D02*
X120108800Y-55570200D01*
X120108800Y-54317800D01*
X121711200Y-54317800D01*
X121711200Y-55570200D01*
G36*
X121711200Y-61570200D02*
G01*
X120108800Y-61570200D01*
X120108800Y-60317800D01*
X121711200Y-60317800D01*
X121711200Y-61570200D01*
G37*
X121711200Y-61570200D02*
X120108800Y-61570200D01*
X120108800Y-60317800D01*
X121711200Y-60317800D01*
X121711200Y-61570200D01*
G36*
X128411200Y-52800200D02*
G01*
X125358800Y-52800200D01*
X125358800Y-51297800D01*
X128411200Y-51297800D01*
X128411200Y-52800200D01*
G37*
X128411200Y-52800200D02*
X125358800Y-52800200D01*
X125358800Y-51297800D01*
X128411200Y-51297800D01*
X128411200Y-52800200D01*
G36*
X121711200Y-59570200D02*
G01*
X120108800Y-59570200D01*
X120108800Y-58317800D01*
X121711200Y-58317800D01*
X121711200Y-59570200D01*
G37*
X121711200Y-59570200D02*
X120108800Y-59570200D01*
X120108800Y-58317800D01*
X121711200Y-58317800D01*
X121711200Y-59570200D01*
G36*
X121711200Y-65570200D02*
G01*
X120108800Y-65570200D01*
X120108800Y-64317800D01*
X121711200Y-64317800D01*
X121711200Y-65570200D01*
G37*
X121711200Y-65570200D02*
X120108800Y-65570200D01*
X120108800Y-64317800D01*
X121711200Y-64317800D01*
X121711200Y-65570200D01*
G36*
X121711200Y-57570200D02*
G01*
X120108800Y-57570200D01*
X120108800Y-56317800D01*
X121711200Y-56317800D01*
X121711200Y-57570200D01*
G37*
X121711200Y-57570200D02*
X120108800Y-57570200D01*
X120108800Y-56317800D01*
X121711200Y-56317800D01*
X121711200Y-57570200D01*
%TD*%
D11*
%TO.C,SC6*%
X143464000Y-67908000D03*
X143464000Y-58908000D03*
%TD*%
%TO.C,SC5*%
X143464000Y-90260000D03*
X143464000Y-81260000D03*
%TD*%
D12*
%TO.C,H1*%
X176900000Y-94810000D03*
D13*
X176900000Y-94810000D03*
%TD*%
D12*
%TO.C,H2*%
X176900000Y-47810000D03*
D13*
X176900000Y-47810000D03*
%TD*%
D12*
%TO.C,H3*%
X138400000Y-47810000D03*
D13*
X138400000Y-47810000D03*
%TD*%
D12*
%TO.C,H4*%
X99900000Y-47810000D03*
D13*
X99900000Y-47810000D03*
%TD*%
D12*
%TO.C,H5*%
X99900000Y-94810000D03*
D13*
X99900000Y-94810000D03*
%TD*%
%TO.C,H6*%
X99900000Y-141810000D03*
D12*
X99900000Y-141810000D03*
%TD*%
D13*
%TO.C,H7*%
X138400000Y-141810000D03*
D12*
X138400000Y-141810000D03*
%TD*%
D13*
%TO.C,H8*%
X176900000Y-141810000D03*
D12*
X176900000Y-141810000D03*
%TD*%
D11*
%TO.C,SC1*%
X133904000Y-58908000D03*
X133904000Y-67908000D03*
%TD*%
%TO.C,SC2*%
X133904000Y-81260000D03*
X133904000Y-90260000D03*
%TD*%
%TO.C,SC3*%
X133904000Y-103612000D03*
X133904000Y-112612000D03*
%TD*%
%TO.C,SC4*%
X143500000Y-112612000D03*
X143500000Y-103612000D03*
%TD*%
D14*
%TO.C,R8*%
X124943490Y-103199510D03*
X123368490Y-103199510D03*
%TD*%
%TO.C,R6*%
X125197490Y-112462510D03*
X123622490Y-112462510D03*
%TD*%
D15*
%TO.C,Q2*%
X127173990Y-105805510D03*
X127823990Y-105805510D03*
X128473990Y-105805510D03*
X128473990Y-107705510D03*
X127823990Y-107705510D03*
X127173990Y-107705510D03*
%TD*%
D14*
%TO.C,R4*%
X128357490Y-112462510D03*
X126782490Y-112462510D03*
%TD*%
%TO.C,R3*%
X116733990Y-112462510D03*
X115158990Y-112462510D03*
%TD*%
D16*
%TO.C,R10*%
X123622490Y-110557510D03*
X125197490Y-110557510D03*
%TD*%
D17*
%TO.C,Q3*%
X112019990Y-105805510D03*
X112669990Y-105805510D03*
X113319990Y-105805510D03*
X113319990Y-107705510D03*
X112669990Y-107705510D03*
X112019990Y-107705510D03*
%TD*%
D14*
%TO.C,R7*%
X113457490Y-103199510D03*
X111882490Y-103199510D03*
%TD*%
D16*
%TO.C,C2*%
X112136490Y-114367510D03*
X113711490Y-114367510D03*
%TD*%
D14*
%TO.C,R11*%
X116733990Y-114367510D03*
X115158990Y-114367510D03*
%TD*%
D15*
%TO.C,Q1*%
X115687990Y-105805510D03*
X116337990Y-105805510D03*
X116987990Y-105805510D03*
X116987990Y-107705510D03*
X116337990Y-107705510D03*
X115687990Y-107705510D03*
%TD*%
D16*
%TO.C,R1*%
X115158990Y-110557510D03*
X116733990Y-110557510D03*
%TD*%
%TO.C,R5*%
X112136490Y-112462510D03*
X113711490Y-112462510D03*
%TD*%
%TO.C,C3*%
X123622490Y-114367510D03*
X125197490Y-114367510D03*
%TD*%
D17*
%TO.C,Q4*%
X123505990Y-105805510D03*
X124155990Y-105805510D03*
X124805990Y-105805510D03*
X124805990Y-107705510D03*
X124155990Y-107705510D03*
X123505990Y-107705510D03*
%TD*%
D16*
%TO.C,R2*%
X126782490Y-110557510D03*
X128357490Y-110557510D03*
%TD*%
D14*
%TO.C,R12*%
X128357490Y-114367510D03*
X126782490Y-114367510D03*
%TD*%
%TO.C,R9*%
X112136490Y-110557510D03*
X113711490Y-110557510D03*
%TD*%
M02*
