%TF.GenerationSoftware,KiCad,Pcbnew,(6.0.4-0)*%
%TF.CreationDate,2022-05-13T14:17:40-07:00*%
%TF.ProjectId,solar-panel-side-X-plus,736f6c61-722d-4706-916e-656c2d736964,rev?*%
%TF.SameCoordinates,Original*%
%TF.FileFunction,Copper,L6,Bot*%
%TF.FilePolarity,Positive*%
%FSLAX46Y46*%
G04 Gerber Fmt 4.6, Leading zero omitted, Abs format (unit mm)*
G04 Created by KiCad (PCBNEW (6.0.4-0)) date 2022-05-13 14:17:40*
%MOMM*%
%LPD*%
G01*
G04 APERTURE LIST*
G04 Aperture macros list*
%AMRoundRect*
0 Rectangle with rounded corners*
0 $1 Rounding radius*
0 $2 $3 $4 $5 $6 $7 $8 $9 X,Y pos of 4 corners*
0 Add a 4 corners polygon primitive as box body*
4,1,4,$2,$3,$4,$5,$6,$7,$8,$9,$2,$3,0*
0 Add four circle primitives for the rounded corners*
1,1,$1+$1,$2,$3*
1,1,$1+$1,$4,$5*
1,1,$1+$1,$6,$7*
1,1,$1+$1,$8,$9*
0 Add four rect primitives between the rounded corners*
20,1,$1+$1,$2,$3,$4,$5,0*
20,1,$1+$1,$4,$5,$6,$7,0*
20,1,$1+$1,$6,$7,$8,$9,0*
20,1,$1+$1,$8,$9,$2,$3,0*%
G04 Aperture macros list end*
%TA.AperFunction,ComponentPad*%
%ADD10C,3.000000*%
%TD*%
%TA.AperFunction,SMDPad,CuDef*%
%ADD11R,1.450000X1.100000*%
%TD*%
%TA.AperFunction,SMDPad,CuDef*%
%ADD12R,2.900000X1.350000*%
%TD*%
%TA.AperFunction,ConnectorPad*%
%ADD13C,3.800000*%
%TD*%
%TA.AperFunction,ComponentPad*%
%ADD14C,2.600000*%
%TD*%
%TA.AperFunction,SMDPad,CuDef*%
%ADD15RoundRect,0.218750X-0.218750X-0.256250X0.218750X-0.256250X0.218750X0.256250X-0.218750X0.256250X0*%
%TD*%
%TA.AperFunction,SMDPad,CuDef*%
%ADD16R,0.400000X0.650000*%
%TD*%
%TA.AperFunction,SMDPad,CuDef*%
%ADD17RoundRect,0.218750X0.218750X0.256250X-0.218750X0.256250X-0.218750X-0.256250X0.218750X-0.256250X0*%
%TD*%
%TA.AperFunction,SMDPad,CuDef*%
%ADD18R,0.400000X0.600000*%
%TD*%
%TA.AperFunction,ViaPad*%
%ADD19C,0.800000*%
%TD*%
%TA.AperFunction,Conductor*%
%ADD20C,0.250000*%
%TD*%
%TA.AperFunction,Conductor*%
%ADD21C,0.500000*%
%TD*%
G04 APERTURE END LIST*
D10*
%TO.P,SC6,1,+*%
%TO.N,Net-(D5-Pad2)*%
X143464000Y-67908000D03*
%TO.P,SC6,2,-*%
%TO.N,GND*%
X143464000Y-58908000D03*
%TD*%
%TO.P,SC5,1,+*%
%TO.N,Net-(D4-Pad2)*%
X143464000Y-90260000D03*
%TO.P,SC5,2,-*%
%TO.N,Net-(D5-Pad2)*%
X143464000Y-81260000D03*
%TD*%
D11*
%TO.P,J1,1,1*%
%TO.N,VSOLAR*%
X120910000Y-54944000D03*
%TO.P,J1,2,2*%
%TO.N,+3V3*%
X120910000Y-56944000D03*
%TO.P,J1,3,3*%
%TO.N,GND*%
X120910000Y-58944000D03*
%TO.P,J1,4,4*%
%TO.N,SDA1_b4iso*%
X120910000Y-60944000D03*
%TO.P,J1,5,5*%
%TO.N,SCL1_b4iso*%
X120910000Y-62944000D03*
%TO.P,J1,6,6*%
%TO.N,GND*%
X120910000Y-64944000D03*
D12*
%TO.P,J1,S1,SHIELD1*%
%TO.N,unconnected-(J1-PadS1)*%
X126885000Y-52049000D03*
%TO.P,J1,S2,SHIELD2*%
%TO.N,unconnected-(J1-PadS2)*%
X126885000Y-67839000D03*
%TD*%
D13*
%TO.P,H1,1,1*%
%TO.N,GND*%
X176900000Y-94810000D03*
D14*
X176900000Y-94810000D03*
%TD*%
D13*
%TO.P,H2,1,1*%
%TO.N,GND*%
X176900000Y-47810000D03*
D14*
X176900000Y-47810000D03*
%TD*%
D13*
%TO.P,H3,1,1*%
%TO.N,GND*%
X138400000Y-47810000D03*
D14*
X138400000Y-47810000D03*
%TD*%
D13*
%TO.P,H4,1,1*%
%TO.N,GND*%
X99900000Y-47810000D03*
D14*
X99900000Y-47810000D03*
%TD*%
D13*
%TO.P,H5,1,1*%
%TO.N,GND*%
X99900000Y-94810000D03*
D14*
X99900000Y-94810000D03*
%TD*%
%TO.P,H6,1,1*%
%TO.N,GND*%
X99900000Y-141810000D03*
D13*
X99900000Y-141810000D03*
%TD*%
D14*
%TO.P,H7,1,1*%
%TO.N,GND*%
X138400000Y-141810000D03*
D13*
X138400000Y-141810000D03*
%TD*%
D14*
%TO.P,H8,1,1*%
%TO.N,GND*%
X176900000Y-141810000D03*
D13*
X176900000Y-141810000D03*
%TD*%
D10*
%TO.P,SC1,1,+*%
%TO.N,Net-(D1-Pad1)*%
X133904000Y-58908000D03*
%TO.P,SC1,2,-*%
%TO.N,Net-(D1-Pad2)*%
X133904000Y-67908000D03*
%TD*%
%TO.P,SC2,1,+*%
%TO.N,Net-(D1-Pad2)*%
X133904000Y-81260000D03*
%TO.P,SC2,2,-*%
%TO.N,Net-(D2-Pad2)*%
X133904000Y-90260000D03*
%TD*%
%TO.P,SC3,1,+*%
%TO.N,Net-(D2-Pad2)*%
X133904000Y-103612000D03*
%TO.P,SC3,2,-*%
%TO.N,Net-(D3-Pad2)*%
X133904000Y-112612000D03*
%TD*%
%TO.P,SC4,1,+*%
%TO.N,Net-(D3-Pad2)*%
X143500000Y-112612000D03*
%TO.P,SC4,2,-*%
%TO.N,Net-(D4-Pad2)*%
X143500000Y-103612000D03*
%TD*%
D15*
%TO.P,R8,1*%
%TO.N,Net-(Q4-Pad2)*%
X124943490Y-103199510D03*
%TO.P,R8,2*%
%TO.N,+3V3*%
X123368490Y-103199510D03*
%TD*%
%TO.P,R6,1*%
%TO.N,Net-(Q2-Pad2)*%
X125197490Y-112462510D03*
%TO.P,R6,2*%
%TO.N,Net-(Q2-Pad5)*%
X123622490Y-112462510D03*
%TD*%
D16*
%TO.P,Q2,1,E1*%
%TO.N,SDA1_b4iso*%
X127173990Y-105805510D03*
%TO.P,Q2,2,B1*%
%TO.N,Net-(Q2-Pad2)*%
X127823990Y-105805510D03*
%TO.P,Q2,3,C2*%
%TO.N,SDA1_b4iso*%
X128473990Y-105805510D03*
%TO.P,Q2,4,E2*%
%TO.N,SDA*%
X128473990Y-107705510D03*
%TO.P,Q2,5,B2*%
%TO.N,Net-(Q2-Pad5)*%
X127823990Y-107705510D03*
%TO.P,Q2,6,C1*%
%TO.N,SDA*%
X127173990Y-107705510D03*
%TD*%
D15*
%TO.P,R4,1*%
%TO.N,SDA*%
X128357490Y-112462510D03*
%TO.P,R4,2*%
%TO.N,+3V3*%
X126782490Y-112462510D03*
%TD*%
%TO.P,R3,1*%
%TO.N,SCL*%
X116733990Y-112462510D03*
%TO.P,R3,2*%
%TO.N,+3V3*%
X115158990Y-112462510D03*
%TD*%
D17*
%TO.P,R10,1*%
%TO.N,Net-(C3-Pad1)*%
X123622490Y-110557510D03*
%TO.P,R10,2*%
%TO.N,SDA*%
X125197490Y-110557510D03*
%TD*%
D18*
%TO.P,Q3,1,S2*%
%TO.N,GND*%
X112019990Y-105805510D03*
%TO.P,Q3,2,G2*%
%TO.N,Net-(Q3-Pad2)*%
X112669990Y-105805510D03*
%TO.P,Q3,3,D2*%
X113319990Y-105805510D03*
%TO.P,Q3,4,S1*%
%TO.N,GND*%
X113319990Y-107705510D03*
%TO.P,Q3,5,G1*%
%TO.N,Net-(C2-Pad1)*%
X112669990Y-107705510D03*
%TO.P,Q3,6,D1*%
%TO.N,Net-(Q1-Pad5)*%
X112019990Y-107705510D03*
%TD*%
D15*
%TO.P,R7,1*%
%TO.N,Net-(Q3-Pad2)*%
X113457490Y-103199510D03*
%TO.P,R7,2*%
%TO.N,+3V3*%
X111882490Y-103199510D03*
%TD*%
D17*
%TO.P,C2,1*%
%TO.N,Net-(C2-Pad1)*%
X112136490Y-114367510D03*
%TO.P,C2,2*%
%TO.N,GND*%
X113711490Y-114367510D03*
%TD*%
D15*
%TO.P,R11,1*%
%TO.N,SCL1_b4iso*%
X116733990Y-114367510D03*
%TO.P,R11,2*%
%TO.N,SCL*%
X115158990Y-114367510D03*
%TD*%
D16*
%TO.P,Q1,1,E1*%
%TO.N,SCL1_b4iso*%
X115687990Y-105805510D03*
%TO.P,Q1,2,B1*%
%TO.N,Net-(Q1-Pad2)*%
X116337990Y-105805510D03*
%TO.P,Q1,3,C2*%
%TO.N,SCL1_b4iso*%
X116987990Y-105805510D03*
%TO.P,Q1,4,E2*%
%TO.N,SCL*%
X116987990Y-107705510D03*
%TO.P,Q1,5,B2*%
%TO.N,Net-(Q1-Pad5)*%
X116337990Y-107705510D03*
%TO.P,Q1,6,C1*%
%TO.N,SCL*%
X115687990Y-107705510D03*
%TD*%
D17*
%TO.P,R1,1*%
%TO.N,+3V3*%
X115158990Y-110557510D03*
%TO.P,R1,2*%
%TO.N,Net-(Q1-Pad5)*%
X116733990Y-110557510D03*
%TD*%
%TO.P,R5,1*%
%TO.N,Net-(Q1-Pad5)*%
X112136490Y-112462510D03*
%TO.P,R5,2*%
%TO.N,Net-(Q1-Pad2)*%
X113711490Y-112462510D03*
%TD*%
%TO.P,C3,1*%
%TO.N,Net-(C3-Pad1)*%
X123622490Y-114367510D03*
%TO.P,C3,2*%
%TO.N,GND*%
X125197490Y-114367510D03*
%TD*%
D18*
%TO.P,Q4,1,S2*%
%TO.N,GND*%
X123505990Y-105805510D03*
%TO.P,Q4,2,G2*%
%TO.N,Net-(Q4-Pad2)*%
X124155990Y-105805510D03*
%TO.P,Q4,3,D2*%
X124805990Y-105805510D03*
%TO.P,Q4,4,S1*%
%TO.N,GND*%
X124805990Y-107705510D03*
%TO.P,Q4,5,G1*%
%TO.N,Net-(C3-Pad1)*%
X124155990Y-107705510D03*
%TO.P,Q4,6,D1*%
%TO.N,Net-(Q2-Pad5)*%
X123505990Y-107705510D03*
%TD*%
D17*
%TO.P,R2,1*%
%TO.N,+3V3*%
X126782490Y-110557510D03*
%TO.P,R2,2*%
%TO.N,Net-(Q2-Pad5)*%
X128357490Y-110557510D03*
%TD*%
D15*
%TO.P,R12,1*%
%TO.N,SDA1_b4iso*%
X128357490Y-114367510D03*
%TO.P,R12,2*%
%TO.N,SDA*%
X126782490Y-114367510D03*
%TD*%
%TO.P,R9,1*%
%TO.N,Net-(C2-Pad1)*%
X112136490Y-110557510D03*
%TO.P,R9,2*%
%TO.N,SCL*%
X113711490Y-110557510D03*
%TD*%
D19*
%TO.N,+3V3*%
X123170000Y-48170000D03*
X111907990Y-104469510D03*
X123521990Y-104469510D03*
X127585990Y-109295510D03*
X115971990Y-109295510D03*
%TO.N,GND*%
X110379989Y-122022511D03*
%TO.N,VSOLAR*%
X118560000Y-48160000D03*
%TO.N,SCL*%
X111119500Y-124237000D03*
%TO.N,SDA*%
X114929500Y-124237000D03*
%TO.N,/torque-coil*%
X109560000Y-130580000D03*
X109640000Y-132130000D03*
X102960000Y-140110000D03*
X110550000Y-130560000D03*
X101520000Y-138630000D03*
%TD*%
D20*
%TO.N,+3V3*%
X111882490Y-103199510D02*
X111882490Y-104444010D01*
X123368490Y-103199510D02*
X123368490Y-104316010D01*
X126782490Y-110557510D02*
X126782490Y-110099010D01*
X126782490Y-112462510D02*
X126782490Y-110557510D01*
X126782490Y-110099010D02*
X127585990Y-109295510D01*
X115158990Y-112462510D02*
X115158990Y-110557510D01*
X123368490Y-104316010D02*
X123521990Y-104469510D01*
X123170000Y-54684000D02*
X123170000Y-48170000D01*
X111882490Y-104444010D02*
X111907990Y-104469510D01*
X120910000Y-56944000D02*
X123170000Y-54684000D01*
X115158990Y-110108510D02*
X115971990Y-109295510D01*
%TO.N,GND*%
X113319990Y-107705510D02*
X113319990Y-107151510D01*
X112209989Y-106430511D02*
X112019990Y-106240512D01*
X123965993Y-106430511D02*
X123695989Y-106430511D01*
X112598991Y-106430511D02*
X112209989Y-106430511D01*
X123695989Y-106430511D02*
X123505990Y-106240512D01*
X124805990Y-107270508D02*
X123965993Y-106430511D01*
X112019990Y-106240512D02*
X112019990Y-105805510D01*
X124805990Y-107705510D02*
X124805990Y-107270508D01*
X123505990Y-106240512D02*
X123505990Y-105805510D01*
X125197490Y-114367510D02*
X125197490Y-114781010D01*
X113319990Y-107151510D02*
X112598991Y-106430511D01*
D21*
%TO.N,VSOLAR*%
X120910000Y-50510000D02*
X120910000Y-54944000D01*
X118560000Y-48160000D02*
X120910000Y-50510000D01*
D20*
%TO.N,SCL*%
X116733990Y-112462510D02*
X116733990Y-112792510D01*
X115687990Y-107705510D02*
X115687990Y-108181100D01*
X111119500Y-124237000D02*
X111119500Y-118407000D01*
X117496500Y-111700000D02*
X117496500Y-108214020D01*
X115971990Y-107009510D02*
X115687990Y-107293510D01*
X113711490Y-110157600D02*
X113711490Y-110557510D01*
X116987990Y-107705510D02*
X116987990Y-107263510D01*
X117496500Y-108214020D02*
X116987990Y-107705510D01*
X115687990Y-107293510D02*
X115687990Y-107705510D01*
X116987990Y-107263510D02*
X116733990Y-107009510D01*
X116733990Y-107009510D02*
X115971990Y-107009510D01*
X116733990Y-112462510D02*
X117496500Y-111700000D01*
X116733990Y-112792510D02*
X115158990Y-114367510D01*
X115687990Y-108181100D02*
X113711490Y-110157600D01*
X111119500Y-118407000D02*
X115158990Y-114367510D01*
%TO.N,SDA*%
X127363989Y-107055509D02*
X128283991Y-107055509D01*
X128357490Y-112767914D02*
X128357490Y-112462510D01*
X128473990Y-107245508D02*
X128473990Y-107705510D01*
X122720000Y-115730000D02*
X125420000Y-115730000D01*
X127173990Y-108106010D02*
X127173990Y-107705510D01*
X128357490Y-112462510D02*
X129120000Y-111700000D01*
X126782490Y-114342914D02*
X128357490Y-112767914D01*
X127173990Y-107245508D02*
X127363989Y-107055509D01*
X127173990Y-107705510D02*
X127173990Y-107245508D01*
X128283991Y-107055509D02*
X128473990Y-107245508D01*
X129120000Y-111700000D02*
X129120000Y-108351520D01*
X125197490Y-110082510D02*
X127173990Y-108106010D01*
X125197490Y-110557510D02*
X125197490Y-110082510D01*
X126782490Y-114367510D02*
X126782490Y-114342914D01*
X114929500Y-123520500D02*
X122720000Y-115730000D01*
X125420000Y-115730000D02*
X126782490Y-114367510D01*
X129120000Y-108351520D02*
X128473990Y-107705510D01*
X114929500Y-124237000D02*
X114929500Y-123520500D01*
%TO.N,SDA1_b4iso*%
X127426990Y-104977510D02*
X127173990Y-105230510D01*
X126400000Y-105410000D02*
X126795510Y-105805510D01*
X129570009Y-113154991D02*
X129570009Y-107469529D01*
X128473990Y-106373510D02*
X128473990Y-105805510D01*
X128473990Y-105805510D02*
X128473990Y-105357510D01*
X123610000Y-99430000D02*
X126400000Y-102220000D01*
X126795510Y-105805510D02*
X127173990Y-105805510D01*
X128093990Y-104977510D02*
X127426990Y-104977510D01*
X129570009Y-107469529D02*
X128473990Y-106373510D01*
X128357490Y-114367510D02*
X129570009Y-113154991D01*
X127173990Y-105230510D02*
X127173990Y-105805510D01*
X126400000Y-102220000D02*
X126400000Y-105410000D01*
X120910000Y-60944000D02*
X122194000Y-60944000D01*
X122194000Y-60944000D02*
X123610000Y-62360000D01*
X123610000Y-62360000D02*
X123610000Y-99430000D01*
X128473990Y-105357510D02*
X128093990Y-104977510D01*
%TO.N,SCL1_b4iso*%
X116987990Y-105805510D02*
X116987990Y-105231510D01*
X116733990Y-104977510D02*
X115971990Y-104977510D01*
X115971990Y-104977510D02*
X115687990Y-105261510D01*
X116987990Y-106501510D02*
X116987990Y-105805510D01*
X115687990Y-105261510D02*
X115687990Y-105805510D01*
X116733990Y-114367510D02*
X117946510Y-113154990D01*
X117650000Y-105200000D02*
X117044490Y-105805510D01*
X117946510Y-113154990D02*
X117946510Y-107460030D01*
X120910000Y-62944000D02*
X117650000Y-66204000D01*
X117650000Y-66204000D02*
X117650000Y-105200000D01*
X117946510Y-107460030D02*
X116987990Y-106501510D01*
X116987990Y-105231510D02*
X116733990Y-104977510D01*
X117044490Y-105805510D02*
X116987990Y-105805510D01*
%TO.N,Net-(Q4-Pad2)*%
X124805990Y-105805510D02*
X124155990Y-105805510D01*
X124805990Y-103337010D02*
X124943490Y-103199510D01*
X124805990Y-105805510D02*
X124805990Y-103337010D01*
%TO.N,Net-(C3-Pad1)*%
X124155990Y-108140512D02*
X124155990Y-107705510D01*
X123622490Y-108674012D02*
X124155990Y-108140512D01*
X123622490Y-110557510D02*
X123622490Y-108674012D01*
X124155990Y-107705510D02*
X124155990Y-107270508D01*
X123045989Y-107080509D02*
X122409970Y-107716528D01*
X122409970Y-113154990D02*
X123622490Y-114367510D01*
X122409970Y-107716528D02*
X122409970Y-113154990D01*
X123965991Y-107080509D02*
X123045989Y-107080509D01*
X124155990Y-107270508D02*
X123965991Y-107080509D01*
%TO.N,Net-(Q2-Pad5)*%
X127226474Y-113262520D02*
X127594980Y-112894014D01*
X123622490Y-112462510D02*
X122859980Y-111700000D01*
X128357490Y-108699012D02*
X127823990Y-108165512D01*
X127594980Y-111320020D02*
X128357490Y-110557510D01*
X122859980Y-111700000D02*
X122859980Y-108351520D01*
X124422500Y-113262520D02*
X127226474Y-113262520D01*
X122859980Y-108351520D02*
X123505990Y-107705510D01*
X123622490Y-112462510D02*
X124422500Y-113262520D01*
X127594980Y-112894014D02*
X127594980Y-111320020D01*
X128357490Y-110557510D02*
X128357490Y-108699012D01*
X127823990Y-108165512D02*
X127823990Y-107705510D01*
%TO.N,Net-(Q3-Pad2)*%
X112669990Y-105805510D02*
X113319990Y-105805510D01*
X113319990Y-105805510D02*
X113319990Y-103337010D01*
X113319990Y-103337010D02*
X113457490Y-103199510D01*
%TO.N,Net-(C2-Pad1)*%
X110923971Y-107716527D02*
X111688978Y-106951520D01*
X110923971Y-113154991D02*
X110923971Y-107716527D01*
X112136490Y-109446600D02*
X112136490Y-110557510D01*
X112669990Y-108913100D02*
X112136490Y-109446600D01*
X112669990Y-107705510D02*
X112669990Y-107263510D01*
X112669990Y-107705510D02*
X112669990Y-108913100D01*
X112358000Y-106951520D02*
X111688978Y-106951520D01*
X112669990Y-107263510D02*
X112358000Y-106951520D01*
X112136490Y-114367510D02*
X110923971Y-113154991D01*
%TO.N,Net-(Q1-Pad5)*%
X111373980Y-108351520D02*
X112019990Y-107705510D01*
X116337990Y-107705510D02*
X116337990Y-108280510D01*
X115921500Y-112943994D02*
X115602974Y-113262520D01*
X115602974Y-113262520D02*
X112936500Y-113262520D01*
X112936500Y-113262520D02*
X112136490Y-112462510D01*
X115921500Y-111370000D02*
X115921500Y-112943994D01*
X116733990Y-108676510D02*
X116733990Y-110557510D01*
X116733990Y-110557510D02*
X115921500Y-111370000D01*
X111373980Y-111700000D02*
X111373980Y-108351520D01*
X116337990Y-108280510D02*
X116733990Y-108676510D01*
X112136490Y-112462510D02*
X111373980Y-111700000D01*
%TO.N,Net-(Q1-Pad2)*%
X113711490Y-112462510D02*
X112948980Y-111700000D01*
X112948980Y-111700000D02*
X112948980Y-109270520D01*
X116147991Y-106455511D02*
X116337990Y-106265512D01*
X116337990Y-106265512D02*
X116337990Y-105805510D01*
X112948980Y-109270520D02*
X115763989Y-106455511D01*
X115763989Y-106455511D02*
X116147991Y-106455511D01*
%TO.N,Net-(Q2-Pad2)*%
X127327577Y-106455511D02*
X127633991Y-106455511D01*
X124434980Y-109348108D02*
X127327577Y-106455511D01*
X124434980Y-111700000D02*
X124434980Y-109348108D01*
X127633991Y-106455511D02*
X127823990Y-106265512D01*
X127823990Y-106265512D02*
X127823990Y-105805510D01*
X127823990Y-106265512D02*
X127587992Y-106501510D01*
X125197490Y-112462510D02*
X124434980Y-111700000D01*
%TD*%
%TA.AperFunction,Conductor*%
%TO.N,GND*%
G36*
X99255179Y-45583713D02*
G01*
X99291724Y-45634013D01*
X99291724Y-45696187D01*
X99255179Y-45746487D01*
X99222594Y-45762134D01*
X99193274Y-45770155D01*
X99186813Y-45772405D01*
X98922973Y-45884943D01*
X98916876Y-45888050D01*
X98670751Y-46035353D01*
X98665137Y-46039254D01*
X98579484Y-46107875D01*
X98572041Y-46119205D01*
X98572154Y-46121591D01*
X98574619Y-46125409D01*
X99888732Y-47439522D01*
X99900811Y-47445677D01*
X99905923Y-47444867D01*
X101221900Y-46128890D01*
X101228055Y-46116811D01*
X101227637Y-46114173D01*
X101225087Y-46111008D01*
X101153338Y-46052282D01*
X101147769Y-46048324D01*
X100903190Y-45898446D01*
X100897137Y-45895281D01*
X100634479Y-45779982D01*
X100628051Y-45777668D01*
X100572523Y-45761851D01*
X100520918Y-45727174D01*
X100499551Y-45668787D01*
X100516584Y-45608991D01*
X100565511Y-45570627D01*
X100600083Y-45564500D01*
X137696048Y-45564500D01*
X137755179Y-45583713D01*
X137791724Y-45634013D01*
X137791724Y-45696187D01*
X137755179Y-45746487D01*
X137722594Y-45762134D01*
X137693274Y-45770155D01*
X137686813Y-45772405D01*
X137422973Y-45884943D01*
X137416876Y-45888050D01*
X137170751Y-46035353D01*
X137165137Y-46039254D01*
X137079484Y-46107875D01*
X137072041Y-46119205D01*
X137072154Y-46121591D01*
X137074619Y-46125409D01*
X138388732Y-47439522D01*
X138400811Y-47445677D01*
X138405923Y-47444867D01*
X139721900Y-46128890D01*
X139728055Y-46116811D01*
X139727637Y-46114173D01*
X139725087Y-46111008D01*
X139653338Y-46052282D01*
X139647769Y-46048324D01*
X139403190Y-45898446D01*
X139397137Y-45895281D01*
X139134479Y-45779982D01*
X139128051Y-45777668D01*
X139072523Y-45761851D01*
X139020918Y-45727174D01*
X138999551Y-45668787D01*
X139016584Y-45608991D01*
X139065511Y-45570627D01*
X139100083Y-45564500D01*
X176196048Y-45564500D01*
X176255179Y-45583713D01*
X176291724Y-45634013D01*
X176291724Y-45696187D01*
X176255179Y-45746487D01*
X176222594Y-45762134D01*
X176193274Y-45770155D01*
X176186813Y-45772405D01*
X175922973Y-45884943D01*
X175916876Y-45888050D01*
X175670751Y-46035353D01*
X175665137Y-46039254D01*
X175579484Y-46107875D01*
X175572041Y-46119205D01*
X175572154Y-46121591D01*
X175574619Y-46125409D01*
X176888732Y-47439522D01*
X176900811Y-47445677D01*
X176905923Y-47444867D01*
X178221900Y-46128890D01*
X178228055Y-46116811D01*
X178227637Y-46114173D01*
X178225087Y-46111008D01*
X178153338Y-46052282D01*
X178147769Y-46048324D01*
X177903190Y-45898446D01*
X177897137Y-45895281D01*
X177634479Y-45779982D01*
X177628051Y-45777668D01*
X177572523Y-45761851D01*
X177520918Y-45727174D01*
X177499551Y-45668787D01*
X177516584Y-45608991D01*
X177565511Y-45570627D01*
X177600083Y-45564500D01*
X179044900Y-45564500D01*
X179104031Y-45583713D01*
X179140576Y-45634013D01*
X179145500Y-45665100D01*
X179145500Y-47112704D01*
X179126287Y-47171835D01*
X179075987Y-47208380D01*
X179013813Y-47208380D01*
X178963513Y-47171835D01*
X178950070Y-47146285D01*
X178882604Y-46955767D01*
X178879894Y-46949506D01*
X178748333Y-46694610D01*
X178744788Y-46688757D01*
X178603576Y-46487832D01*
X178592738Y-46479694D01*
X178592049Y-46479684D01*
X178585711Y-46483499D01*
X177270478Y-47798732D01*
X177264323Y-47810811D01*
X177265133Y-47815923D01*
X178581714Y-49132504D01*
X178593793Y-49138659D01*
X178595034Y-49138462D01*
X178599951Y-49134285D01*
X178720907Y-48969624D01*
X178724564Y-48963862D01*
X178861434Y-48711779D01*
X178864283Y-48705556D01*
X178950794Y-48476610D01*
X178989668Y-48428087D01*
X179049639Y-48411681D01*
X179107799Y-48433658D01*
X179141934Y-48485623D01*
X179145500Y-48512169D01*
X179145500Y-94112704D01*
X179126287Y-94171835D01*
X179075987Y-94208380D01*
X179013813Y-94208380D01*
X178963513Y-94171835D01*
X178950070Y-94146285D01*
X178882604Y-93955767D01*
X178879894Y-93949506D01*
X178748333Y-93694610D01*
X178744788Y-93688757D01*
X178603576Y-93487832D01*
X178592738Y-93479694D01*
X178592049Y-93479684D01*
X178585711Y-93483499D01*
X177270478Y-94798732D01*
X177264323Y-94810811D01*
X177265133Y-94815923D01*
X178581714Y-96132504D01*
X178593793Y-96138659D01*
X178595034Y-96138462D01*
X178599951Y-96134285D01*
X178720907Y-95969624D01*
X178724564Y-95963862D01*
X178861434Y-95711779D01*
X178864283Y-95705556D01*
X178950794Y-95476610D01*
X178989668Y-95428087D01*
X179049639Y-95411681D01*
X179107799Y-95433658D01*
X179141934Y-95485623D01*
X179145500Y-95512169D01*
X179145500Y-141112704D01*
X179126287Y-141171835D01*
X179075987Y-141208380D01*
X179013813Y-141208380D01*
X178963513Y-141171835D01*
X178950070Y-141146285D01*
X178882604Y-140955767D01*
X178879894Y-140949506D01*
X178748333Y-140694610D01*
X178744788Y-140688757D01*
X178603576Y-140487832D01*
X178592738Y-140479694D01*
X178592049Y-140479684D01*
X178585711Y-140483499D01*
X177270478Y-141798732D01*
X177264323Y-141810811D01*
X177265133Y-141815923D01*
X178581714Y-143132504D01*
X178593793Y-143138659D01*
X178595034Y-143138462D01*
X178599951Y-143134285D01*
X178720907Y-142969624D01*
X178724564Y-142963862D01*
X178861434Y-142711779D01*
X178864283Y-142705556D01*
X178950794Y-142476610D01*
X178989668Y-142428087D01*
X179049639Y-142411681D01*
X179107799Y-142433658D01*
X179141934Y-142485623D01*
X179145500Y-142512169D01*
X179145500Y-143954900D01*
X179126287Y-144014031D01*
X179075987Y-144050576D01*
X179044900Y-144055500D01*
X177609102Y-144055500D01*
X177549971Y-144036287D01*
X177513426Y-143985987D01*
X177513426Y-143923813D01*
X177549971Y-143873513D01*
X177582105Y-143858289D01*
X177582084Y-143858225D01*
X177582622Y-143858044D01*
X177583576Y-143857592D01*
X177585339Y-143857129D01*
X177591808Y-143854952D01*
X177856813Y-143745184D01*
X177862941Y-143742142D01*
X178110595Y-143597425D01*
X178116255Y-143593579D01*
X178220366Y-143511945D01*
X178227925Y-143500695D01*
X178227848Y-143498590D01*
X178225146Y-143494356D01*
X176911268Y-142180478D01*
X176899189Y-142174323D01*
X176894077Y-142175133D01*
X175577717Y-143491493D01*
X175571562Y-143503572D01*
X175572024Y-143506489D01*
X175574254Y-143509287D01*
X175628323Y-143554496D01*
X175633858Y-143558517D01*
X175876842Y-143710941D01*
X175882870Y-143714173D01*
X176144305Y-143832216D01*
X176150701Y-143834595D01*
X176231213Y-143858443D01*
X176282452Y-143893658D01*
X176303207Y-143952266D01*
X176285548Y-144011880D01*
X176236222Y-144049730D01*
X176202641Y-144055500D01*
X139109102Y-144055500D01*
X139049971Y-144036287D01*
X139013426Y-143985987D01*
X139013426Y-143923813D01*
X139049971Y-143873513D01*
X139082105Y-143858289D01*
X139082084Y-143858225D01*
X139082622Y-143858044D01*
X139083576Y-143857592D01*
X139085339Y-143857129D01*
X139091808Y-143854952D01*
X139356813Y-143745184D01*
X139362941Y-143742142D01*
X139610595Y-143597425D01*
X139616255Y-143593579D01*
X139720366Y-143511945D01*
X139727925Y-143500695D01*
X139727848Y-143498590D01*
X139725146Y-143494356D01*
X138411268Y-142180478D01*
X138399189Y-142174323D01*
X138394077Y-142175133D01*
X137077717Y-143491493D01*
X137071562Y-143503572D01*
X137072024Y-143506489D01*
X137074254Y-143509287D01*
X137128323Y-143554496D01*
X137133858Y-143558517D01*
X137376842Y-143710941D01*
X137382870Y-143714173D01*
X137644305Y-143832216D01*
X137650701Y-143834595D01*
X137731213Y-143858443D01*
X137782452Y-143893658D01*
X137803207Y-143952266D01*
X137785548Y-144011880D01*
X137736222Y-144049730D01*
X137702641Y-144055500D01*
X100609102Y-144055500D01*
X100549971Y-144036287D01*
X100513426Y-143985987D01*
X100513426Y-143923813D01*
X100549971Y-143873513D01*
X100582105Y-143858289D01*
X100582084Y-143858225D01*
X100582622Y-143858044D01*
X100583576Y-143857592D01*
X100585339Y-143857129D01*
X100591808Y-143854952D01*
X100856813Y-143745184D01*
X100862941Y-143742142D01*
X101110595Y-143597425D01*
X101116255Y-143593579D01*
X101220366Y-143511945D01*
X101227925Y-143500695D01*
X101227848Y-143498590D01*
X101225146Y-143494356D01*
X99911268Y-142180478D01*
X99899189Y-142174323D01*
X99894077Y-142175133D01*
X98577717Y-143491493D01*
X98571562Y-143503572D01*
X98572024Y-143506489D01*
X98574254Y-143509287D01*
X98628323Y-143554496D01*
X98633858Y-143558517D01*
X98876842Y-143710941D01*
X98882870Y-143714173D01*
X99144305Y-143832216D01*
X99150701Y-143834595D01*
X99231213Y-143858443D01*
X99282452Y-143893658D01*
X99303207Y-143952266D01*
X99285548Y-144011880D01*
X99236222Y-144049730D01*
X99202641Y-144055500D01*
X97755100Y-144055500D01*
X97695969Y-144036287D01*
X97659424Y-143985987D01*
X97654500Y-143954900D01*
X97654500Y-142505779D01*
X97673713Y-142446648D01*
X97724013Y-142410103D01*
X97786187Y-142410103D01*
X97836487Y-142446648D01*
X97850276Y-142473193D01*
X97908558Y-142643420D01*
X97911204Y-142649715D01*
X98040092Y-142905979D01*
X98043570Y-142911860D01*
X98195587Y-143133046D01*
X98206340Y-143141297D01*
X98206743Y-143141308D01*
X98213505Y-143137285D01*
X99529522Y-141821268D01*
X99534850Y-141810811D01*
X100264323Y-141810811D01*
X100265133Y-141815923D01*
X101581714Y-143132504D01*
X101593793Y-143138659D01*
X101595034Y-143138462D01*
X101599951Y-143134285D01*
X101720907Y-142969624D01*
X101724564Y-142963862D01*
X101861434Y-142711779D01*
X101864283Y-142705556D01*
X101965672Y-142437238D01*
X101967650Y-142430685D01*
X102031689Y-142151080D01*
X102032756Y-142144342D01*
X102058383Y-141857182D01*
X102058580Y-141853232D01*
X102059012Y-141811974D01*
X102058899Y-141808036D01*
X102057725Y-141790819D01*
X136241283Y-141790819D01*
X136257795Y-142077176D01*
X136258652Y-142083962D01*
X136313874Y-142365433D01*
X136315646Y-142372046D01*
X136408558Y-142643420D01*
X136411204Y-142649715D01*
X136540092Y-142905979D01*
X136543570Y-142911860D01*
X136695587Y-143133046D01*
X136706340Y-143141297D01*
X136706743Y-143141308D01*
X136713505Y-143137285D01*
X138029522Y-141821268D01*
X138034850Y-141810811D01*
X138764323Y-141810811D01*
X138765133Y-141815923D01*
X140081714Y-143132504D01*
X140093793Y-143138659D01*
X140095034Y-143138462D01*
X140099951Y-143134285D01*
X140220907Y-142969624D01*
X140224564Y-142963862D01*
X140361434Y-142711779D01*
X140364283Y-142705556D01*
X140465672Y-142437238D01*
X140467650Y-142430685D01*
X140531689Y-142151080D01*
X140532756Y-142144342D01*
X140558383Y-141857182D01*
X140558580Y-141853232D01*
X140559012Y-141811974D01*
X140558899Y-141808036D01*
X140557725Y-141790819D01*
X174741283Y-141790819D01*
X174757795Y-142077176D01*
X174758652Y-142083962D01*
X174813874Y-142365433D01*
X174815646Y-142372046D01*
X174908558Y-142643420D01*
X174911204Y-142649715D01*
X175040092Y-142905979D01*
X175043570Y-142911860D01*
X175195587Y-143133046D01*
X175206340Y-143141297D01*
X175206743Y-143141308D01*
X175213505Y-143137285D01*
X176529522Y-141821268D01*
X176535677Y-141809189D01*
X176534867Y-141804077D01*
X175217656Y-140486866D01*
X175205577Y-140480711D01*
X175204618Y-140480863D01*
X175199362Y-140485376D01*
X175067050Y-140669507D01*
X175063453Y-140675308D01*
X174929224Y-140928823D01*
X174926450Y-140935052D01*
X174827870Y-141204435D01*
X174825965Y-141210991D01*
X174764857Y-141491258D01*
X174763859Y-141498015D01*
X174741354Y-141783970D01*
X174741283Y-141790819D01*
X140557725Y-141790819D01*
X140539289Y-141520396D01*
X140538364Y-141513640D01*
X140480196Y-141232752D01*
X140478355Y-141226161D01*
X140382604Y-140955767D01*
X140379894Y-140949506D01*
X140248333Y-140694610D01*
X140244788Y-140688757D01*
X140103576Y-140487832D01*
X140092738Y-140479694D01*
X140092049Y-140479684D01*
X140085711Y-140483499D01*
X138770478Y-141798732D01*
X138764323Y-141810811D01*
X138034850Y-141810811D01*
X138035677Y-141809189D01*
X138034867Y-141804077D01*
X136717656Y-140486866D01*
X136705577Y-140480711D01*
X136704618Y-140480863D01*
X136699362Y-140485376D01*
X136567050Y-140669507D01*
X136563453Y-140675308D01*
X136429224Y-140928823D01*
X136426450Y-140935052D01*
X136327870Y-141204435D01*
X136325965Y-141210991D01*
X136264857Y-141491258D01*
X136263859Y-141498015D01*
X136241354Y-141783970D01*
X136241283Y-141790819D01*
X102057725Y-141790819D01*
X102039289Y-141520396D01*
X102038364Y-141513640D01*
X101980196Y-141232752D01*
X101978355Y-141226161D01*
X101882604Y-140955767D01*
X101879894Y-140949506D01*
X101748333Y-140694610D01*
X101744788Y-140688757D01*
X101603576Y-140487832D01*
X101592738Y-140479694D01*
X101592049Y-140479684D01*
X101585711Y-140483499D01*
X100270478Y-141798732D01*
X100264323Y-141810811D01*
X99534850Y-141810811D01*
X99535677Y-141809189D01*
X99534867Y-141804077D01*
X98217656Y-140486866D01*
X98205577Y-140480711D01*
X98204618Y-140480863D01*
X98199362Y-140485376D01*
X98067050Y-140669507D01*
X98063453Y-140675308D01*
X97929224Y-140928823D01*
X97926450Y-140935052D01*
X97849573Y-141145129D01*
X97811209Y-141194056D01*
X97751414Y-141211089D01*
X97693026Y-141189723D01*
X97658349Y-141138117D01*
X97654500Y-141110557D01*
X97654500Y-140119205D01*
X98572041Y-140119205D01*
X98572154Y-140121591D01*
X98574619Y-140125409D01*
X99888732Y-141439522D01*
X99900811Y-141445677D01*
X99905923Y-141444867D01*
X101221900Y-140128890D01*
X101228055Y-140116811D01*
X101227637Y-140114173D01*
X101225087Y-140111008D01*
X101215420Y-140103096D01*
X102300729Y-140103096D01*
X102301394Y-140109120D01*
X102301394Y-140109124D01*
X102309421Y-140181825D01*
X102318113Y-140260553D01*
X102372553Y-140409319D01*
X102375939Y-140414358D01*
X102425312Y-140487832D01*
X102460908Y-140540805D01*
X102578076Y-140647419D01*
X102583403Y-140650311D01*
X102583404Y-140650312D01*
X102604704Y-140661877D01*
X102717293Y-140723008D01*
X102723163Y-140724548D01*
X102864655Y-140761668D01*
X102864656Y-140761668D01*
X102870522Y-140763207D01*
X102942716Y-140764341D01*
X103022852Y-140765600D01*
X103022854Y-140765600D01*
X103028916Y-140765695D01*
X103034827Y-140764341D01*
X103034829Y-140764341D01*
X103177422Y-140731683D01*
X103177425Y-140731682D01*
X103183332Y-140730329D01*
X103324855Y-140659151D01*
X103391806Y-140601970D01*
X103440705Y-140560206D01*
X103440707Y-140560204D01*
X103445314Y-140556269D01*
X103500346Y-140479684D01*
X103534218Y-140432547D01*
X103534220Y-140432544D01*
X103537755Y-140427624D01*
X103596842Y-140280641D01*
X103619162Y-140123807D01*
X103619211Y-140119205D01*
X137072041Y-140119205D01*
X137072154Y-140121591D01*
X137074619Y-140125409D01*
X138388732Y-141439522D01*
X138400811Y-141445677D01*
X138405923Y-141444867D01*
X139721900Y-140128890D01*
X139726835Y-140119205D01*
X175572041Y-140119205D01*
X175572154Y-140121591D01*
X175574619Y-140125409D01*
X176888732Y-141439522D01*
X176900811Y-141445677D01*
X176905923Y-141444867D01*
X178221900Y-140128890D01*
X178228055Y-140116811D01*
X178227637Y-140114173D01*
X178225087Y-140111008D01*
X178153338Y-140052282D01*
X178147769Y-140048324D01*
X177903190Y-139898446D01*
X177897137Y-139895281D01*
X177634479Y-139779982D01*
X177628051Y-139777668D01*
X177352188Y-139699087D01*
X177345491Y-139697663D01*
X177061511Y-139657247D01*
X177054709Y-139656747D01*
X176767853Y-139655245D01*
X176761037Y-139655674D01*
X176476650Y-139693115D01*
X176469944Y-139694467D01*
X176193274Y-139770155D01*
X176186813Y-139772405D01*
X175922973Y-139884943D01*
X175916876Y-139888050D01*
X175670751Y-140035353D01*
X175665137Y-140039254D01*
X175579484Y-140107875D01*
X175572041Y-140119205D01*
X139726835Y-140119205D01*
X139728055Y-140116811D01*
X139727637Y-140114173D01*
X139725087Y-140111008D01*
X139653338Y-140052282D01*
X139647769Y-140048324D01*
X139403190Y-139898446D01*
X139397137Y-139895281D01*
X139134479Y-139779982D01*
X139128051Y-139777668D01*
X138852188Y-139699087D01*
X138845491Y-139697663D01*
X138561511Y-139657247D01*
X138554709Y-139656747D01*
X138267853Y-139655245D01*
X138261037Y-139655674D01*
X137976650Y-139693115D01*
X137969944Y-139694467D01*
X137693274Y-139770155D01*
X137686813Y-139772405D01*
X137422973Y-139884943D01*
X137416876Y-139888050D01*
X137170751Y-140035353D01*
X137165137Y-140039254D01*
X137079484Y-140107875D01*
X137072041Y-140119205D01*
X103619211Y-140119205D01*
X103619272Y-140113298D01*
X103619307Y-140110000D01*
X103600276Y-139952733D01*
X103579763Y-139898446D01*
X103546425Y-139810222D01*
X103546424Y-139810221D01*
X103544280Y-139804546D01*
X103454553Y-139673992D01*
X103336275Y-139568611D01*
X103196274Y-139494484D01*
X103042633Y-139455892D01*
X103036576Y-139455860D01*
X103036574Y-139455860D01*
X102959450Y-139455456D01*
X102884221Y-139455062D01*
X102878324Y-139456478D01*
X102878322Y-139456478D01*
X102736082Y-139490627D01*
X102730184Y-139492043D01*
X102724798Y-139494823D01*
X102724795Y-139494824D01*
X102594802Y-139561919D01*
X102589414Y-139564700D01*
X102470039Y-139668838D01*
X102378950Y-139798444D01*
X102376747Y-139804095D01*
X102345226Y-139884943D01*
X102321406Y-139946037D01*
X102300729Y-140103096D01*
X101215420Y-140103096D01*
X101153338Y-140052282D01*
X101147769Y-140048324D01*
X100903190Y-139898446D01*
X100897137Y-139895281D01*
X100634479Y-139779982D01*
X100628051Y-139777668D01*
X100352188Y-139699087D01*
X100345491Y-139697663D01*
X100061511Y-139657247D01*
X100054709Y-139656747D01*
X99767853Y-139655245D01*
X99761037Y-139655674D01*
X99476650Y-139693115D01*
X99469944Y-139694467D01*
X99193274Y-139770155D01*
X99186813Y-139772405D01*
X98922973Y-139884943D01*
X98916876Y-139888050D01*
X98670751Y-140035353D01*
X98665137Y-140039254D01*
X98579484Y-140107875D01*
X98572041Y-140119205D01*
X97654500Y-140119205D01*
X97654500Y-138623096D01*
X100860729Y-138623096D01*
X100861394Y-138629120D01*
X100861394Y-138629124D01*
X100863376Y-138647071D01*
X100878113Y-138780553D01*
X100932553Y-138929319D01*
X100935939Y-138934358D01*
X100948162Y-138952547D01*
X101020908Y-139060805D01*
X101138076Y-139167419D01*
X101143403Y-139170311D01*
X101143404Y-139170312D01*
X101164704Y-139181877D01*
X101277293Y-139243008D01*
X101283163Y-139244548D01*
X101424655Y-139281668D01*
X101424656Y-139281668D01*
X101430522Y-139283207D01*
X101502716Y-139284341D01*
X101582852Y-139285600D01*
X101582854Y-139285600D01*
X101588916Y-139285695D01*
X101594827Y-139284341D01*
X101594829Y-139284341D01*
X101737422Y-139251683D01*
X101737425Y-139251682D01*
X101743332Y-139250329D01*
X101884855Y-139179151D01*
X101951806Y-139121970D01*
X102000705Y-139080206D01*
X102000707Y-139080204D01*
X102005314Y-139076269D01*
X102036554Y-139032794D01*
X102094218Y-138952547D01*
X102094220Y-138952544D01*
X102097755Y-138947624D01*
X102156842Y-138800641D01*
X102179162Y-138643807D01*
X102179307Y-138630000D01*
X102160276Y-138472733D01*
X102104280Y-138324546D01*
X102014553Y-138193992D01*
X101896275Y-138088611D01*
X101756274Y-138014484D01*
X101602633Y-137975892D01*
X101596576Y-137975860D01*
X101596574Y-137975860D01*
X101519450Y-137975456D01*
X101444221Y-137975062D01*
X101438324Y-137976478D01*
X101438322Y-137976478D01*
X101296082Y-138010627D01*
X101290184Y-138012043D01*
X101284798Y-138014823D01*
X101284795Y-138014824D01*
X101154802Y-138081919D01*
X101149414Y-138084700D01*
X101030039Y-138188838D01*
X100938950Y-138318444D01*
X100881406Y-138466037D01*
X100860729Y-138623096D01*
X97654500Y-138623096D01*
X97654500Y-132123096D01*
X108980729Y-132123096D01*
X108981394Y-132129120D01*
X108981394Y-132129124D01*
X108983376Y-132147071D01*
X108998113Y-132280553D01*
X109052553Y-132429319D01*
X109055939Y-132434358D01*
X109068162Y-132452547D01*
X109140908Y-132560805D01*
X109258076Y-132667419D01*
X109263403Y-132670311D01*
X109263404Y-132670312D01*
X109284704Y-132681877D01*
X109397293Y-132743008D01*
X109403163Y-132744548D01*
X109544655Y-132781668D01*
X109544656Y-132781668D01*
X109550522Y-132783207D01*
X109622716Y-132784341D01*
X109702852Y-132785600D01*
X109702854Y-132785600D01*
X109708916Y-132785695D01*
X109714827Y-132784341D01*
X109714829Y-132784341D01*
X109857422Y-132751683D01*
X109857425Y-132751682D01*
X109863332Y-132750329D01*
X110004855Y-132679151D01*
X110071806Y-132621970D01*
X110120705Y-132580206D01*
X110120707Y-132580204D01*
X110125314Y-132576269D01*
X110156554Y-132532794D01*
X110214218Y-132452547D01*
X110214220Y-132452544D01*
X110217755Y-132447624D01*
X110276842Y-132300641D01*
X110299162Y-132143807D01*
X110299307Y-132130000D01*
X110295165Y-132095767D01*
X110281005Y-131978755D01*
X110281004Y-131978753D01*
X110280276Y-131972733D01*
X110277386Y-131965083D01*
X110226425Y-131830222D01*
X110226424Y-131830221D01*
X110224280Y-131824546D01*
X110134553Y-131693992D01*
X110016275Y-131588611D01*
X109876274Y-131514484D01*
X109722633Y-131475892D01*
X109716576Y-131475860D01*
X109716574Y-131475860D01*
X109639450Y-131475456D01*
X109564221Y-131475062D01*
X109558324Y-131476478D01*
X109558322Y-131476478D01*
X109416082Y-131510627D01*
X109410184Y-131512043D01*
X109404798Y-131514823D01*
X109404795Y-131514824D01*
X109274802Y-131581919D01*
X109269414Y-131584700D01*
X109150039Y-131688838D01*
X109058950Y-131818444D01*
X109001406Y-131966037D01*
X108980729Y-132123096D01*
X97654500Y-132123096D01*
X97654500Y-130573096D01*
X108900729Y-130573096D01*
X108901394Y-130579120D01*
X108901394Y-130579124D01*
X108909421Y-130651824D01*
X108918113Y-130730553D01*
X108920197Y-130736247D01*
X108969874Y-130871998D01*
X108972553Y-130879319D01*
X109060908Y-131010805D01*
X109083131Y-131031026D01*
X109168990Y-131109151D01*
X109178076Y-131117419D01*
X109183403Y-131120311D01*
X109183404Y-131120312D01*
X109204704Y-131131877D01*
X109317293Y-131193008D01*
X109323163Y-131194548D01*
X109464655Y-131231668D01*
X109464656Y-131231668D01*
X109470522Y-131233207D01*
X109542716Y-131234341D01*
X109622852Y-131235600D01*
X109622854Y-131235600D01*
X109628916Y-131235695D01*
X109634827Y-131234341D01*
X109634829Y-131234341D01*
X109777422Y-131201683D01*
X109777425Y-131201682D01*
X109783332Y-131200329D01*
X109924855Y-131129151D01*
X109929467Y-131125212D01*
X109929470Y-131125210D01*
X110000864Y-131064234D01*
X110058305Y-131040441D01*
X110118761Y-131054955D01*
X110133901Y-131066323D01*
X110168076Y-131097419D01*
X110173403Y-131100311D01*
X110173404Y-131100312D01*
X110194704Y-131111877D01*
X110307293Y-131173008D01*
X110313163Y-131174548D01*
X110454655Y-131211668D01*
X110454656Y-131211668D01*
X110460522Y-131213207D01*
X110532716Y-131214341D01*
X110612852Y-131215600D01*
X110612854Y-131215600D01*
X110618916Y-131215695D01*
X110624827Y-131214341D01*
X110624829Y-131214341D01*
X110767422Y-131181683D01*
X110767425Y-131181682D01*
X110773332Y-131180329D01*
X110914855Y-131109151D01*
X110995304Y-131040441D01*
X111030705Y-131010206D01*
X111030707Y-131010204D01*
X111035314Y-131006269D01*
X111066554Y-130962794D01*
X111124218Y-130882547D01*
X111124220Y-130882544D01*
X111127755Y-130877624D01*
X111154940Y-130810000D01*
X120390514Y-130810000D01*
X120392219Y-130818572D01*
X120392447Y-130821760D01*
X120392447Y-130823204D01*
X120392667Y-130824838D01*
X120407163Y-131027513D01*
X120453517Y-131240598D01*
X120529724Y-131444918D01*
X120531441Y-131448062D01*
X120531443Y-131448067D01*
X120569260Y-131517323D01*
X120634233Y-131636312D01*
X120636387Y-131639189D01*
X120636388Y-131639191D01*
X120677267Y-131693798D01*
X120764917Y-131810885D01*
X120919115Y-131965083D01*
X120921993Y-131967238D01*
X120921996Y-131967240D01*
X121090809Y-132093612D01*
X121093688Y-132095767D01*
X121096840Y-132097488D01*
X121281933Y-132198557D01*
X121281938Y-132198559D01*
X121285082Y-132200276D01*
X121288442Y-132201529D01*
X121288446Y-132201531D01*
X121486031Y-132275226D01*
X121486035Y-132275227D01*
X121489402Y-132276483D01*
X121626316Y-132306267D01*
X121698974Y-132322073D01*
X121698977Y-132322073D01*
X121702487Y-132322837D01*
X121905162Y-132337333D01*
X121906796Y-132337553D01*
X121908240Y-132337553D01*
X121911428Y-132337781D01*
X121920000Y-132339486D01*
X121929718Y-132337553D01*
X121929719Y-132337553D01*
X121935350Y-132336433D01*
X121954975Y-132334500D01*
X154905025Y-132334500D01*
X154924650Y-132336433D01*
X154930281Y-132337553D01*
X154930282Y-132337553D01*
X154940000Y-132339486D01*
X154948572Y-132337781D01*
X154951760Y-132337553D01*
X154953204Y-132337553D01*
X154954838Y-132337333D01*
X155157513Y-132322837D01*
X155161023Y-132322073D01*
X155161026Y-132322073D01*
X155233684Y-132306267D01*
X155370598Y-132276483D01*
X155373965Y-132275227D01*
X155373969Y-132275226D01*
X155571554Y-132201531D01*
X155571558Y-132201529D01*
X155574918Y-132200276D01*
X155578062Y-132198559D01*
X155578067Y-132198557D01*
X155763160Y-132097488D01*
X155766312Y-132095767D01*
X155769191Y-132093612D01*
X155938004Y-131967240D01*
X155938007Y-131967238D01*
X155940885Y-131965083D01*
X156095083Y-131810885D01*
X156182734Y-131693798D01*
X156223612Y-131639191D01*
X156223613Y-131639189D01*
X156225767Y-131636312D01*
X156290740Y-131517323D01*
X156328557Y-131448067D01*
X156328559Y-131448062D01*
X156330276Y-131444918D01*
X156406483Y-131240598D01*
X156452837Y-131027513D01*
X156467333Y-130824838D01*
X156467553Y-130823204D01*
X156467553Y-130821760D01*
X156467781Y-130818572D01*
X156469486Y-130810000D01*
X156466433Y-130794650D01*
X156464500Y-130775025D01*
X156464500Y-120684975D01*
X156466433Y-120665350D01*
X156467553Y-120659719D01*
X156467553Y-120659718D01*
X156469486Y-120650000D01*
X156467781Y-120641428D01*
X156467553Y-120638240D01*
X156467553Y-120636796D01*
X156467332Y-120635156D01*
X156455782Y-120473660D01*
X156452837Y-120432487D01*
X156406483Y-120219402D01*
X156330276Y-120015082D01*
X156320539Y-119997249D01*
X156227488Y-119826840D01*
X156225767Y-119823688D01*
X156095083Y-119649115D01*
X155940885Y-119494917D01*
X155766312Y-119364233D01*
X155725943Y-119342190D01*
X155578067Y-119261443D01*
X155578062Y-119261441D01*
X155574918Y-119259724D01*
X155571558Y-119258471D01*
X155571554Y-119258469D01*
X155373969Y-119184774D01*
X155373965Y-119184773D01*
X155370598Y-119183517D01*
X155228855Y-119152683D01*
X155161026Y-119137927D01*
X155161023Y-119137927D01*
X155157513Y-119137163D01*
X154954838Y-119122667D01*
X154953204Y-119122447D01*
X154951760Y-119122447D01*
X154948572Y-119122219D01*
X154940000Y-119120514D01*
X154930282Y-119122447D01*
X154930281Y-119122447D01*
X154924650Y-119123567D01*
X154905025Y-119125500D01*
X121954975Y-119125500D01*
X121935350Y-119123567D01*
X121929719Y-119122447D01*
X121929718Y-119122447D01*
X121920000Y-119120514D01*
X121911428Y-119122219D01*
X121908240Y-119122447D01*
X121906796Y-119122447D01*
X121905162Y-119122667D01*
X121702487Y-119137163D01*
X121698977Y-119137927D01*
X121698974Y-119137927D01*
X121631145Y-119152683D01*
X121489402Y-119183517D01*
X121486035Y-119184773D01*
X121486031Y-119184774D01*
X121288446Y-119258469D01*
X121288442Y-119258471D01*
X121285082Y-119259724D01*
X121281938Y-119261441D01*
X121281933Y-119261443D01*
X121134057Y-119342190D01*
X121093688Y-119364233D01*
X120919115Y-119494917D01*
X120764917Y-119649115D01*
X120634233Y-119823688D01*
X120632512Y-119826840D01*
X120539462Y-119997249D01*
X120529724Y-120015082D01*
X120453517Y-120219402D01*
X120407163Y-120432487D01*
X120404219Y-120473660D01*
X120392668Y-120635156D01*
X120392447Y-120636796D01*
X120392447Y-120638240D01*
X120392219Y-120641428D01*
X120390514Y-120650000D01*
X120392447Y-120659718D01*
X120392447Y-120659719D01*
X120393567Y-120665350D01*
X120395500Y-120684975D01*
X120395500Y-130775025D01*
X120393567Y-130794650D01*
X120390514Y-130810000D01*
X111154940Y-130810000D01*
X111186842Y-130730641D01*
X111209162Y-130573807D01*
X111209307Y-130560000D01*
X111192615Y-130422056D01*
X111191005Y-130408755D01*
X111191004Y-130408753D01*
X111190276Y-130402733D01*
X111137658Y-130263484D01*
X111136425Y-130260222D01*
X111136424Y-130260221D01*
X111134280Y-130254546D01*
X111044553Y-130123992D01*
X110926275Y-130018611D01*
X110786274Y-129944484D01*
X110632633Y-129905892D01*
X110626576Y-129905860D01*
X110626574Y-129905860D01*
X110549450Y-129905456D01*
X110474221Y-129905062D01*
X110468324Y-129906478D01*
X110468322Y-129906478D01*
X110326082Y-129940627D01*
X110320184Y-129942043D01*
X110314798Y-129944823D01*
X110314795Y-129944824D01*
X110184802Y-130011919D01*
X110179414Y-130014700D01*
X110147379Y-130042646D01*
X110109836Y-130075397D01*
X110052647Y-130099791D01*
X109992042Y-130085910D01*
X109976782Y-130074701D01*
X109940804Y-130042646D01*
X109940803Y-130042645D01*
X109936275Y-130038611D01*
X109923636Y-130031919D01*
X109801636Y-129967323D01*
X109796274Y-129964484D01*
X109642633Y-129925892D01*
X109636576Y-129925860D01*
X109636574Y-129925860D01*
X109559450Y-129925456D01*
X109484221Y-129925062D01*
X109478324Y-129926478D01*
X109478322Y-129926478D01*
X109401906Y-129944824D01*
X109330184Y-129962043D01*
X109324798Y-129964823D01*
X109324795Y-129964824D01*
X109212768Y-130022646D01*
X109189414Y-130034700D01*
X109143560Y-130074701D01*
X109081326Y-130128992D01*
X109070039Y-130138838D01*
X108978950Y-130268444D01*
X108921406Y-130416037D01*
X108900729Y-130573096D01*
X97654500Y-130573096D01*
X97654500Y-124230096D01*
X110460229Y-124230096D01*
X110460894Y-124236120D01*
X110460894Y-124236124D01*
X110462876Y-124254071D01*
X110477613Y-124387553D01*
X110532053Y-124536319D01*
X110535439Y-124541358D01*
X110547662Y-124559547D01*
X110620408Y-124667805D01*
X110737576Y-124774419D01*
X110742903Y-124777311D01*
X110742904Y-124777312D01*
X110764204Y-124788877D01*
X110876793Y-124850008D01*
X110882663Y-124851548D01*
X111024155Y-124888668D01*
X111024156Y-124888668D01*
X111030022Y-124890207D01*
X111102216Y-124891341D01*
X111182352Y-124892600D01*
X111182354Y-124892600D01*
X111188416Y-124892695D01*
X111194327Y-124891341D01*
X111194329Y-124891341D01*
X111336922Y-124858683D01*
X111336925Y-124858682D01*
X111342832Y-124857329D01*
X111484355Y-124786151D01*
X111551306Y-124728970D01*
X111600205Y-124687206D01*
X111600207Y-124687204D01*
X111604814Y-124683269D01*
X111636054Y-124639794D01*
X111693718Y-124559547D01*
X111693720Y-124559544D01*
X111697255Y-124554624D01*
X111756342Y-124407641D01*
X111778662Y-124250807D01*
X111778807Y-124237000D01*
X111777972Y-124230096D01*
X114270229Y-124230096D01*
X114270894Y-124236120D01*
X114270894Y-124236124D01*
X114272876Y-124254071D01*
X114287613Y-124387553D01*
X114342053Y-124536319D01*
X114345439Y-124541358D01*
X114357662Y-124559547D01*
X114430408Y-124667805D01*
X114547576Y-124774419D01*
X114552903Y-124777311D01*
X114552904Y-124777312D01*
X114574204Y-124788877D01*
X114686793Y-124850008D01*
X114692663Y-124851548D01*
X114834155Y-124888668D01*
X114834156Y-124888668D01*
X114840022Y-124890207D01*
X114912216Y-124891341D01*
X114992352Y-124892600D01*
X114992354Y-124892600D01*
X114998416Y-124892695D01*
X115004327Y-124891341D01*
X115004329Y-124891341D01*
X115146922Y-124858683D01*
X115146925Y-124858682D01*
X115152832Y-124857329D01*
X115294355Y-124786151D01*
X115361306Y-124728970D01*
X115410205Y-124687206D01*
X115410207Y-124687204D01*
X115414814Y-124683269D01*
X115446054Y-124639794D01*
X115503718Y-124559547D01*
X115503720Y-124559544D01*
X115507255Y-124554624D01*
X115566342Y-124407641D01*
X115588662Y-124250807D01*
X115588807Y-124237000D01*
X115569776Y-124079733D01*
X115513780Y-123931546D01*
X115424053Y-123800992D01*
X115419527Y-123796960D01*
X115419524Y-123796956D01*
X115377573Y-123759579D01*
X115346205Y-123705898D01*
X115352381Y-123644031D01*
X115373361Y-123613333D01*
X122847729Y-116138965D01*
X122903127Y-116110739D01*
X122918864Y-116109500D01*
X125368784Y-116109500D01*
X125389958Y-116111754D01*
X125393747Y-116112570D01*
X125393748Y-116112570D01*
X125401876Y-116114320D01*
X125410131Y-116113343D01*
X125436710Y-116110197D01*
X125444499Y-116109738D01*
X125447378Y-116109500D01*
X125451524Y-116109500D01*
X125455614Y-116108819D01*
X125455616Y-116108819D01*
X125471160Y-116106232D01*
X125475853Y-116105564D01*
X125519082Y-116100448D01*
X125519085Y-116100447D01*
X125527341Y-116099470D01*
X125534354Y-116096102D01*
X125536949Y-116095281D01*
X125544626Y-116094004D01*
X125590252Y-116069385D01*
X125594474Y-116067234D01*
X125635520Y-116047524D01*
X125635521Y-116047523D01*
X125641232Y-116044781D01*
X125645508Y-116041186D01*
X125647053Y-116039641D01*
X125647981Y-116038790D01*
X125649801Y-116037255D01*
X125655814Y-116034010D01*
X125692734Y-115994070D01*
X125695472Y-115991222D01*
X126560219Y-115126475D01*
X126615617Y-115098249D01*
X126631354Y-115097010D01*
X127018050Y-115097009D01*
X127046042Y-115097009D01*
X127067448Y-115094684D01*
X127097642Y-115091405D01*
X127097645Y-115091404D01*
X127103909Y-115090724D01*
X127109811Y-115088512D01*
X127109813Y-115088511D01*
X127224130Y-115045655D01*
X127224132Y-115045654D01*
X127230843Y-115043138D01*
X127339320Y-114961840D01*
X127420618Y-114853363D01*
X127468204Y-114726429D01*
X127469978Y-114710096D01*
X127495464Y-114653386D01*
X127549416Y-114622486D01*
X127611226Y-114629200D01*
X127657286Y-114670963D01*
X127670002Y-114710096D01*
X127671776Y-114726429D01*
X127719362Y-114853363D01*
X127800660Y-114961840D01*
X127909137Y-115043138D01*
X127915848Y-115045654D01*
X127915850Y-115045655D01*
X128030165Y-115088510D01*
X128036071Y-115090724D01*
X128093937Y-115097010D01*
X128357393Y-115097010D01*
X128621042Y-115097009D01*
X128642448Y-115094684D01*
X128672642Y-115091405D01*
X128672645Y-115091404D01*
X128678909Y-115090724D01*
X128684811Y-115088512D01*
X128684813Y-115088511D01*
X128799130Y-115045655D01*
X128799132Y-115045654D01*
X128805843Y-115043138D01*
X128914320Y-114961840D01*
X128995618Y-114853363D01*
X129043204Y-114726429D01*
X129049490Y-114668563D01*
X129049489Y-114253874D01*
X129068702Y-114194744D01*
X129078954Y-114182740D01*
X129802138Y-113459556D01*
X129818704Y-113446177D01*
X129818706Y-113446176D01*
X129828949Y-113439562D01*
X129834099Y-113433030D01*
X129850661Y-113412020D01*
X129855839Y-113406192D01*
X129857711Y-113403983D01*
X129860647Y-113401047D01*
X129869035Y-113389310D01*
X129872231Y-113384837D01*
X129875077Y-113381048D01*
X129902017Y-113346875D01*
X129902018Y-113346873D01*
X129907165Y-113340344D01*
X129909741Y-113333009D01*
X129910997Y-113330591D01*
X129915523Y-113324257D01*
X129917904Y-113316294D01*
X129917906Y-113316291D01*
X129930388Y-113274552D01*
X129931843Y-113270073D01*
X129949027Y-113221140D01*
X129949509Y-113215575D01*
X129949509Y-113213409D01*
X129949564Y-113212134D01*
X129949765Y-113209757D01*
X129951722Y-113203213D01*
X129949587Y-113148871D01*
X129949509Y-113144923D01*
X129949509Y-112565944D01*
X132145183Y-112565944D01*
X132145362Y-112569674D01*
X132145362Y-112569679D01*
X132150255Y-112671547D01*
X132157694Y-112826419D01*
X132208569Y-113082185D01*
X132209831Y-113085700D01*
X132293932Y-113319938D01*
X132296690Y-113327621D01*
X132420120Y-113557336D01*
X132422350Y-113560322D01*
X132422353Y-113560327D01*
X132559593Y-113744112D01*
X132576149Y-113766283D01*
X132761348Y-113949873D01*
X132841429Y-114008591D01*
X132968641Y-114101868D01*
X132968646Y-114101871D01*
X132971649Y-114104073D01*
X132974947Y-114105808D01*
X133199127Y-114223755D01*
X133199131Y-114223757D01*
X133202433Y-114225494D01*
X133205960Y-114226726D01*
X133205963Y-114226727D01*
X133445101Y-114310237D01*
X133448629Y-114311469D01*
X133704828Y-114360110D01*
X133708557Y-114360256D01*
X133708561Y-114360257D01*
X133874618Y-114366781D01*
X133965403Y-114370348D01*
X134058885Y-114360110D01*
X134220916Y-114342365D01*
X134220921Y-114342364D01*
X134224629Y-114341958D01*
X134345114Y-114310237D01*
X134473204Y-114276514D01*
X134473208Y-114276512D01*
X134476811Y-114275564D01*
X134716410Y-114172625D01*
X134938161Y-114035401D01*
X134947782Y-114027257D01*
X135134339Y-113869324D01*
X135137194Y-113866907D01*
X135223138Y-113768906D01*
X135306671Y-113673655D01*
X135306673Y-113673653D01*
X135309135Y-113670845D01*
X135311153Y-113667707D01*
X135311158Y-113667701D01*
X135448183Y-113454672D01*
X135448186Y-113454667D01*
X135450208Y-113451523D01*
X135451743Y-113448116D01*
X135451746Y-113448110D01*
X135555780Y-113217163D01*
X135555781Y-113217160D01*
X135557314Y-113213757D01*
X135628099Y-112962772D01*
X135644980Y-112830077D01*
X135660691Y-112706582D01*
X135660691Y-112706579D01*
X135661009Y-112704081D01*
X135663420Y-112612000D01*
X135659997Y-112565944D01*
X141741183Y-112565944D01*
X141741362Y-112569674D01*
X141741362Y-112569679D01*
X141746255Y-112671547D01*
X141753694Y-112826419D01*
X141804569Y-113082185D01*
X141805831Y-113085700D01*
X141889932Y-113319938D01*
X141892690Y-113327621D01*
X142016120Y-113557336D01*
X142018350Y-113560322D01*
X142018353Y-113560327D01*
X142155593Y-113744112D01*
X142172149Y-113766283D01*
X142357348Y-113949873D01*
X142437429Y-114008591D01*
X142564641Y-114101868D01*
X142564646Y-114101871D01*
X142567649Y-114104073D01*
X142570947Y-114105808D01*
X142795127Y-114223755D01*
X142795131Y-114223757D01*
X142798433Y-114225494D01*
X142801960Y-114226726D01*
X142801963Y-114226727D01*
X143041101Y-114310237D01*
X143044629Y-114311469D01*
X143300828Y-114360110D01*
X143304557Y-114360256D01*
X143304561Y-114360257D01*
X143470618Y-114366781D01*
X143561403Y-114370348D01*
X143654885Y-114360110D01*
X143816916Y-114342365D01*
X143816921Y-114342364D01*
X143820629Y-114341958D01*
X143941114Y-114310237D01*
X144069204Y-114276514D01*
X144069208Y-114276512D01*
X144072811Y-114275564D01*
X144312410Y-114172625D01*
X144534161Y-114035401D01*
X144543782Y-114027257D01*
X144730339Y-113869324D01*
X144733194Y-113866907D01*
X144819138Y-113768906D01*
X144902671Y-113673655D01*
X144902673Y-113673653D01*
X144905135Y-113670845D01*
X144907153Y-113667707D01*
X144907158Y-113667701D01*
X145044183Y-113454672D01*
X145044186Y-113454667D01*
X145046208Y-113451523D01*
X145047743Y-113448116D01*
X145047746Y-113448110D01*
X145151780Y-113217163D01*
X145151781Y-113217160D01*
X145153314Y-113213757D01*
X145224099Y-112962772D01*
X145240980Y-112830077D01*
X145256691Y-112706582D01*
X145256691Y-112706579D01*
X145257009Y-112704081D01*
X145259420Y-112612000D01*
X145240094Y-112351941D01*
X145230648Y-112310193D01*
X145183367Y-112101240D01*
X145183366Y-112101237D01*
X145182542Y-112097595D01*
X145181192Y-112094122D01*
X145181189Y-112094114D01*
X145089381Y-111858032D01*
X145088027Y-111854550D01*
X144958625Y-111628145D01*
X144797180Y-111423353D01*
X144761517Y-111389804D01*
X144609957Y-111247231D01*
X144607239Y-111244674D01*
X144604182Y-111242554D01*
X144604178Y-111242550D01*
X144465153Y-111146105D01*
X144392973Y-111096032D01*
X144159090Y-110980694D01*
X144155538Y-110979557D01*
X144155533Y-110979555D01*
X144034909Y-110940944D01*
X143910728Y-110901193D01*
X143653344Y-110859275D01*
X143649602Y-110859226D01*
X143620905Y-110858850D01*
X143392590Y-110855862D01*
X143282620Y-110870828D01*
X143137898Y-110890524D01*
X143137896Y-110890524D01*
X143134196Y-110891028D01*
X143130613Y-110892072D01*
X143130610Y-110892073D01*
X142996351Y-110931206D01*
X142883838Y-110964000D01*
X142880456Y-110965559D01*
X142880451Y-110965561D01*
X142750767Y-111025347D01*
X142647016Y-111073177D01*
X142643895Y-111075223D01*
X142643890Y-111075226D01*
X142520479Y-111156138D01*
X142428933Y-111216158D01*
X142234379Y-111389804D01*
X142231987Y-111392680D01*
X142070016Y-111587429D01*
X142070011Y-111587436D01*
X142067629Y-111590300D01*
X141932345Y-111813240D01*
X141831500Y-112053728D01*
X141817034Y-112110689D01*
X141779918Y-112256837D01*
X141767310Y-112306480D01*
X141766936Y-112310191D01*
X141766936Y-112310193D01*
X141763100Y-112348293D01*
X141741183Y-112565944D01*
X135659997Y-112565944D01*
X135644094Y-112351941D01*
X135634648Y-112310193D01*
X135587367Y-112101240D01*
X135587366Y-112101237D01*
X135586542Y-112097595D01*
X135585192Y-112094122D01*
X135585189Y-112094114D01*
X135493381Y-111858032D01*
X135492027Y-111854550D01*
X135362625Y-111628145D01*
X135201180Y-111423353D01*
X135165517Y-111389804D01*
X135013957Y-111247231D01*
X135011239Y-111244674D01*
X135008182Y-111242554D01*
X135008178Y-111242550D01*
X134869153Y-111146105D01*
X134796973Y-111096032D01*
X134563090Y-110980694D01*
X134559538Y-110979557D01*
X134559533Y-110979555D01*
X134438909Y-110940944D01*
X134314728Y-110901193D01*
X134057344Y-110859275D01*
X134053602Y-110859226D01*
X134024905Y-110858850D01*
X133796590Y-110855862D01*
X133686620Y-110870828D01*
X133541898Y-110890524D01*
X133541896Y-110890524D01*
X133538196Y-110891028D01*
X133534613Y-110892072D01*
X133534610Y-110892073D01*
X133400351Y-110931206D01*
X133287838Y-110964000D01*
X133284456Y-110965559D01*
X133284451Y-110965561D01*
X133154767Y-111025347D01*
X133051016Y-111073177D01*
X133047895Y-111075223D01*
X133047890Y-111075226D01*
X132924479Y-111156138D01*
X132832933Y-111216158D01*
X132638379Y-111389804D01*
X132635987Y-111392680D01*
X132474016Y-111587429D01*
X132474011Y-111587436D01*
X132471629Y-111590300D01*
X132336345Y-111813240D01*
X132235500Y-112053728D01*
X132221034Y-112110689D01*
X132183918Y-112256837D01*
X132171310Y-112306480D01*
X132170936Y-112310191D01*
X132170936Y-112310193D01*
X132167100Y-112348293D01*
X132145183Y-112565944D01*
X129949509Y-112565944D01*
X129949509Y-107520745D01*
X129951763Y-107499571D01*
X129952579Y-107495782D01*
X129952579Y-107495781D01*
X129954329Y-107487653D01*
X129950206Y-107452819D01*
X129949747Y-107445030D01*
X129949509Y-107442151D01*
X129949509Y-107438005D01*
X129947928Y-107428506D01*
X129946241Y-107418369D01*
X129945573Y-107413676D01*
X129940457Y-107370447D01*
X129940456Y-107370444D01*
X129939479Y-107362188D01*
X129936111Y-107355175D01*
X129935290Y-107352580D01*
X129934013Y-107344903D01*
X129909394Y-107299277D01*
X129907243Y-107295055D01*
X129887533Y-107254009D01*
X129887532Y-107254008D01*
X129884790Y-107248297D01*
X129881195Y-107244021D01*
X129879650Y-107242476D01*
X129878799Y-107241548D01*
X129877264Y-107239728D01*
X129874019Y-107233715D01*
X129834079Y-107196795D01*
X129831231Y-107194057D01*
X128943992Y-106306818D01*
X128915766Y-106251420D01*
X128916460Y-106216057D01*
X128927525Y-106160429D01*
X128927526Y-106160421D01*
X128928490Y-106155577D01*
X128928489Y-105455444D01*
X128920629Y-105415926D01*
X128915657Y-105390926D01*
X128915656Y-105390924D01*
X128913724Y-105381209D01*
X128908220Y-105372972D01*
X128908219Y-105372969D01*
X128860602Y-105301706D01*
X128847503Y-105266200D01*
X128846759Y-105266416D01*
X128844437Y-105258427D01*
X128843460Y-105250169D01*
X128840091Y-105243154D01*
X128839272Y-105240564D01*
X128837994Y-105232884D01*
X128813362Y-105187233D01*
X128811211Y-105183011D01*
X128805279Y-105170657D01*
X128788770Y-105136278D01*
X128785176Y-105132002D01*
X128783643Y-105130469D01*
X128782779Y-105129527D01*
X128781244Y-105127708D01*
X128778000Y-105121696D01*
X128738060Y-105084776D01*
X128735212Y-105082038D01*
X128398555Y-104745381D01*
X128385176Y-104728815D01*
X128378561Y-104718570D01*
X128372031Y-104713423D01*
X128372030Y-104713421D01*
X128351019Y-104696858D01*
X128345191Y-104691680D01*
X128342982Y-104689808D01*
X128340046Y-104686872D01*
X128323836Y-104675288D01*
X128320047Y-104672442D01*
X128285874Y-104645502D01*
X128285872Y-104645501D01*
X128279343Y-104640354D01*
X128272008Y-104637778D01*
X128269590Y-104636522D01*
X128263256Y-104631996D01*
X128255293Y-104629615D01*
X128255290Y-104629613D01*
X128213551Y-104617131D01*
X128209072Y-104615676D01*
X128160139Y-104598492D01*
X128154574Y-104598010D01*
X128152408Y-104598010D01*
X128151133Y-104597955D01*
X128148756Y-104597754D01*
X128142212Y-104595797D01*
X128091995Y-104597770D01*
X128087871Y-104597932D01*
X128083922Y-104598010D01*
X127478206Y-104598010D01*
X127457032Y-104595756D01*
X127453243Y-104594940D01*
X127453242Y-104594940D01*
X127445114Y-104593190D01*
X127436859Y-104594167D01*
X127423434Y-104595756D01*
X127410762Y-104597256D01*
X127410280Y-104597313D01*
X127402491Y-104597772D01*
X127399612Y-104598010D01*
X127395466Y-104598010D01*
X127391376Y-104598691D01*
X127391374Y-104598691D01*
X127375830Y-104601278D01*
X127371137Y-104601946D01*
X127327908Y-104607062D01*
X127327905Y-104607063D01*
X127319649Y-104608040D01*
X127312636Y-104611408D01*
X127310041Y-104612229D01*
X127302364Y-104613506D01*
X127256741Y-104638123D01*
X127252516Y-104640276D01*
X127211470Y-104659986D01*
X127205758Y-104662729D01*
X127201482Y-104666324D01*
X127199937Y-104667869D01*
X127199009Y-104668720D01*
X127197189Y-104670255D01*
X127191176Y-104673500D01*
X127185532Y-104679606D01*
X127154256Y-104713440D01*
X127151518Y-104716288D01*
X126951235Y-104916571D01*
X126895837Y-104944797D01*
X126834429Y-104935071D01*
X126790465Y-104891107D01*
X126779500Y-104845436D01*
X126779500Y-103565944D01*
X132145183Y-103565944D01*
X132157694Y-103826419D01*
X132208569Y-104082185D01*
X132209831Y-104085700D01*
X132291169Y-104312243D01*
X132296690Y-104327621D01*
X132420120Y-104557336D01*
X132422350Y-104560322D01*
X132422353Y-104560327D01*
X132573919Y-104763297D01*
X132576149Y-104766283D01*
X132761348Y-104949873D01*
X132855392Y-105018829D01*
X132968641Y-105101868D01*
X132968646Y-105101871D01*
X132971649Y-105104073D01*
X133032861Y-105136278D01*
X133199127Y-105223755D01*
X133199131Y-105223757D01*
X133202433Y-105225494D01*
X133205960Y-105226726D01*
X133205963Y-105226727D01*
X133407270Y-105297026D01*
X133448629Y-105311469D01*
X133704828Y-105360110D01*
X133708557Y-105360256D01*
X133708561Y-105360257D01*
X133874618Y-105366781D01*
X133965403Y-105370348D01*
X134058885Y-105360110D01*
X134220916Y-105342365D01*
X134220921Y-105342364D01*
X134224629Y-105341958D01*
X134405404Y-105294364D01*
X134473204Y-105276514D01*
X134473208Y-105276512D01*
X134476811Y-105275564D01*
X134716410Y-105172625D01*
X134938161Y-105035401D01*
X134942576Y-105031664D01*
X135134339Y-104869324D01*
X135137194Y-104866907D01*
X135169445Y-104830132D01*
X135306671Y-104673655D01*
X135306673Y-104673653D01*
X135309135Y-104670845D01*
X135311153Y-104667707D01*
X135311158Y-104667701D01*
X135448183Y-104454672D01*
X135448186Y-104454667D01*
X135450208Y-104451523D01*
X135451743Y-104448116D01*
X135451746Y-104448110D01*
X135555780Y-104217163D01*
X135555781Y-104217160D01*
X135557314Y-104213757D01*
X135628099Y-103962772D01*
X135632507Y-103928121D01*
X135660691Y-103706582D01*
X135660691Y-103706579D01*
X135661009Y-103704081D01*
X135663420Y-103612000D01*
X135659997Y-103565944D01*
X141741183Y-103565944D01*
X141753694Y-103826419D01*
X141804569Y-104082185D01*
X141805831Y-104085700D01*
X141887169Y-104312243D01*
X141892690Y-104327621D01*
X142016120Y-104557336D01*
X142018350Y-104560322D01*
X142018353Y-104560327D01*
X142169919Y-104763297D01*
X142172149Y-104766283D01*
X142357348Y-104949873D01*
X142451392Y-105018829D01*
X142564641Y-105101868D01*
X142564646Y-105101871D01*
X142567649Y-105104073D01*
X142628861Y-105136278D01*
X142795127Y-105223755D01*
X142795131Y-105223757D01*
X142798433Y-105225494D01*
X142801960Y-105226726D01*
X142801963Y-105226727D01*
X143003270Y-105297026D01*
X143044629Y-105311469D01*
X143300828Y-105360110D01*
X143304557Y-105360256D01*
X143304561Y-105360257D01*
X143470618Y-105366781D01*
X143561403Y-105370348D01*
X143654885Y-105360110D01*
X143816916Y-105342365D01*
X143816921Y-105342364D01*
X143820629Y-105341958D01*
X144001404Y-105294364D01*
X144069204Y-105276514D01*
X144069208Y-105276512D01*
X144072811Y-105275564D01*
X144312410Y-105172625D01*
X144534161Y-105035401D01*
X144538576Y-105031664D01*
X144730339Y-104869324D01*
X144733194Y-104866907D01*
X144765445Y-104830132D01*
X144902671Y-104673655D01*
X144902673Y-104673653D01*
X144905135Y-104670845D01*
X144907153Y-104667707D01*
X144907158Y-104667701D01*
X145044183Y-104454672D01*
X145044186Y-104454667D01*
X145046208Y-104451523D01*
X145047743Y-104448116D01*
X145047746Y-104448110D01*
X145151780Y-104217163D01*
X145151781Y-104217160D01*
X145153314Y-104213757D01*
X145224099Y-103962772D01*
X145228507Y-103928121D01*
X145256691Y-103706582D01*
X145256691Y-103706579D01*
X145257009Y-103704081D01*
X145259420Y-103612000D01*
X145240094Y-103351941D01*
X145230648Y-103310193D01*
X145183367Y-103101240D01*
X145183366Y-103101237D01*
X145182542Y-103097595D01*
X145181192Y-103094122D01*
X145181189Y-103094114D01*
X145089381Y-102858032D01*
X145088027Y-102854550D01*
X144958625Y-102628145D01*
X144797180Y-102423353D01*
X144792409Y-102418864D01*
X144609957Y-102247231D01*
X144607239Y-102244674D01*
X144604182Y-102242554D01*
X144604178Y-102242550D01*
X144428846Y-102120918D01*
X144392973Y-102096032D01*
X144159090Y-101980694D01*
X144155538Y-101979557D01*
X144155533Y-101979555D01*
X144034909Y-101940943D01*
X143910728Y-101901193D01*
X143653344Y-101859275D01*
X143649602Y-101859226D01*
X143620905Y-101858850D01*
X143392590Y-101855862D01*
X143282620Y-101870828D01*
X143137898Y-101890524D01*
X143137896Y-101890524D01*
X143134196Y-101891028D01*
X143130613Y-101892072D01*
X143130610Y-101892073D01*
X143099321Y-101901193D01*
X142883838Y-101964000D01*
X142880456Y-101965559D01*
X142880451Y-101965561D01*
X142723314Y-102038003D01*
X142647016Y-102073177D01*
X142643895Y-102075223D01*
X142643890Y-102075226D01*
X142508263Y-102164147D01*
X142428933Y-102216158D01*
X142234379Y-102389804D01*
X142231987Y-102392680D01*
X142070016Y-102587429D01*
X142070011Y-102587436D01*
X142067629Y-102590300D01*
X141932345Y-102813240D01*
X141831500Y-103053728D01*
X141767310Y-103306480D01*
X141766936Y-103310191D01*
X141766936Y-103310193D01*
X141741940Y-103558429D01*
X141741183Y-103565944D01*
X135659997Y-103565944D01*
X135644094Y-103351941D01*
X135634648Y-103310193D01*
X135587367Y-103101240D01*
X135587366Y-103101237D01*
X135586542Y-103097595D01*
X135585192Y-103094122D01*
X135585189Y-103094114D01*
X135493381Y-102858032D01*
X135492027Y-102854550D01*
X135362625Y-102628145D01*
X135201180Y-102423353D01*
X135196409Y-102418864D01*
X135013957Y-102247231D01*
X135011239Y-102244674D01*
X135008182Y-102242554D01*
X135008178Y-102242550D01*
X134832846Y-102120918D01*
X134796973Y-102096032D01*
X134563090Y-101980694D01*
X134559538Y-101979557D01*
X134559533Y-101979555D01*
X134438909Y-101940943D01*
X134314728Y-101901193D01*
X134057344Y-101859275D01*
X134053602Y-101859226D01*
X134024905Y-101858850D01*
X133796590Y-101855862D01*
X133686620Y-101870828D01*
X133541898Y-101890524D01*
X133541896Y-101890524D01*
X133538196Y-101891028D01*
X133534613Y-101892072D01*
X133534610Y-101892073D01*
X133503321Y-101901193D01*
X133287838Y-101964000D01*
X133284456Y-101965559D01*
X133284451Y-101965561D01*
X133127314Y-102038003D01*
X133051016Y-102073177D01*
X133047895Y-102075223D01*
X133047890Y-102075226D01*
X132912263Y-102164147D01*
X132832933Y-102216158D01*
X132638379Y-102389804D01*
X132635987Y-102392680D01*
X132474016Y-102587429D01*
X132474011Y-102587436D01*
X132471629Y-102590300D01*
X132336345Y-102813240D01*
X132235500Y-103053728D01*
X132171310Y-103306480D01*
X132170936Y-103310191D01*
X132170936Y-103310193D01*
X132145940Y-103558429D01*
X132145183Y-103565944D01*
X126779500Y-103565944D01*
X126779500Y-102271216D01*
X126781754Y-102250042D01*
X126782570Y-102246253D01*
X126782570Y-102246252D01*
X126784320Y-102238124D01*
X126780197Y-102203290D01*
X126779738Y-102195501D01*
X126779500Y-102192622D01*
X126779500Y-102188476D01*
X126778819Y-102184384D01*
X126776232Y-102168840D01*
X126775564Y-102164147D01*
X126770448Y-102120918D01*
X126770447Y-102120915D01*
X126769470Y-102112659D01*
X126766102Y-102105646D01*
X126765281Y-102103051D01*
X126764004Y-102095374D01*
X126739385Y-102049748D01*
X126737234Y-102045526D01*
X126717524Y-102004480D01*
X126717523Y-102004479D01*
X126714781Y-101998768D01*
X126711186Y-101994492D01*
X126709641Y-101992947D01*
X126708790Y-101992019D01*
X126707255Y-101990199D01*
X126704010Y-101984186D01*
X126664070Y-101947266D01*
X126661222Y-101944528D01*
X124018965Y-99302271D01*
X123990739Y-99246873D01*
X123989500Y-99231136D01*
X123989500Y-96503572D01*
X175571562Y-96503572D01*
X175572024Y-96506489D01*
X175574254Y-96509287D01*
X175628323Y-96554496D01*
X175633858Y-96558517D01*
X175876842Y-96710941D01*
X175882870Y-96714173D01*
X176144305Y-96832216D01*
X176150701Y-96834595D01*
X176425727Y-96916060D01*
X176432421Y-96917556D01*
X176715943Y-96960942D01*
X176722764Y-96961515D01*
X177009571Y-96966020D01*
X177016401Y-96965662D01*
X177301163Y-96931202D01*
X177307872Y-96929923D01*
X177585332Y-96857132D01*
X177591808Y-96854952D01*
X177856813Y-96745184D01*
X177862941Y-96742142D01*
X178110595Y-96597425D01*
X178116255Y-96593579D01*
X178220366Y-96511945D01*
X178227925Y-96500695D01*
X178227848Y-96498590D01*
X178225146Y-96494356D01*
X176911268Y-95180478D01*
X176899189Y-95174323D01*
X176894077Y-95175133D01*
X175577717Y-96491493D01*
X175571562Y-96503572D01*
X123989500Y-96503572D01*
X123989500Y-94790819D01*
X174741283Y-94790819D01*
X174757795Y-95077176D01*
X174758652Y-95083962D01*
X174813874Y-95365433D01*
X174815646Y-95372046D01*
X174908558Y-95643420D01*
X174911204Y-95649715D01*
X175040092Y-95905979D01*
X175043570Y-95911860D01*
X175195587Y-96133046D01*
X175206340Y-96141297D01*
X175206743Y-96141308D01*
X175213505Y-96137285D01*
X176529522Y-94821268D01*
X176535677Y-94809189D01*
X176534867Y-94804077D01*
X175217656Y-93486866D01*
X175205577Y-93480711D01*
X175204618Y-93480863D01*
X175199362Y-93485376D01*
X175067050Y-93669507D01*
X175063453Y-93675308D01*
X174929224Y-93928823D01*
X174926450Y-93935052D01*
X174827870Y-94204435D01*
X174825965Y-94210991D01*
X174764857Y-94491258D01*
X174763859Y-94498015D01*
X174741354Y-94783970D01*
X174741283Y-94790819D01*
X123989500Y-94790819D01*
X123989500Y-93119205D01*
X175572041Y-93119205D01*
X175572154Y-93121591D01*
X175574619Y-93125409D01*
X176888732Y-94439522D01*
X176900811Y-94445677D01*
X176905923Y-94444867D01*
X178221900Y-93128890D01*
X178228055Y-93116811D01*
X178227637Y-93114173D01*
X178225087Y-93111008D01*
X178153338Y-93052282D01*
X178147769Y-93048324D01*
X177903190Y-92898446D01*
X177897137Y-92895281D01*
X177634479Y-92779982D01*
X177628051Y-92777668D01*
X177352188Y-92699087D01*
X177345491Y-92697663D01*
X177061511Y-92657247D01*
X177054709Y-92656747D01*
X176767853Y-92655245D01*
X176761037Y-92655674D01*
X176476650Y-92693115D01*
X176469944Y-92694467D01*
X176193274Y-92770155D01*
X176186813Y-92772405D01*
X175922973Y-92884943D01*
X175916876Y-92888050D01*
X175670751Y-93035353D01*
X175665137Y-93039254D01*
X175579484Y-93107875D01*
X175572041Y-93119205D01*
X123989500Y-93119205D01*
X123989500Y-90213944D01*
X132145183Y-90213944D01*
X132157694Y-90474419D01*
X132208569Y-90730185D01*
X132296690Y-90975621D01*
X132420120Y-91205336D01*
X132422350Y-91208322D01*
X132422353Y-91208327D01*
X132506980Y-91321655D01*
X132576149Y-91414283D01*
X132761348Y-91597873D01*
X132874701Y-91680987D01*
X132968641Y-91749868D01*
X132968646Y-91749871D01*
X132971649Y-91752073D01*
X132974947Y-91753808D01*
X133199127Y-91871755D01*
X133199131Y-91871757D01*
X133202433Y-91873494D01*
X133205960Y-91874726D01*
X133205963Y-91874727D01*
X133445101Y-91958237D01*
X133448629Y-91959469D01*
X133704828Y-92008110D01*
X133708557Y-92008256D01*
X133708561Y-92008257D01*
X133874618Y-92014781D01*
X133965403Y-92018348D01*
X134058885Y-92008110D01*
X134220916Y-91990365D01*
X134220921Y-91990364D01*
X134224629Y-91989958D01*
X134345114Y-91958237D01*
X134473204Y-91924514D01*
X134473208Y-91924512D01*
X134476811Y-91923564D01*
X134716410Y-91820625D01*
X134938161Y-91683401D01*
X135137194Y-91514907D01*
X135223138Y-91416906D01*
X135306671Y-91321655D01*
X135306673Y-91321653D01*
X135309135Y-91318845D01*
X135311153Y-91315707D01*
X135311158Y-91315701D01*
X135448183Y-91102672D01*
X135448186Y-91102667D01*
X135450208Y-91099523D01*
X135451743Y-91096116D01*
X135451746Y-91096110D01*
X135555780Y-90865163D01*
X135555781Y-90865160D01*
X135557314Y-90861757D01*
X135628099Y-90610772D01*
X135644980Y-90478077D01*
X135660691Y-90354582D01*
X135660691Y-90354579D01*
X135661009Y-90352081D01*
X135663420Y-90260000D01*
X135659997Y-90213944D01*
X141705183Y-90213944D01*
X141717694Y-90474419D01*
X141768569Y-90730185D01*
X141856690Y-90975621D01*
X141980120Y-91205336D01*
X141982350Y-91208322D01*
X141982353Y-91208327D01*
X142066980Y-91321655D01*
X142136149Y-91414283D01*
X142321348Y-91597873D01*
X142434701Y-91680987D01*
X142528641Y-91749868D01*
X142528646Y-91749871D01*
X142531649Y-91752073D01*
X142534947Y-91753808D01*
X142759127Y-91871755D01*
X142759131Y-91871757D01*
X142762433Y-91873494D01*
X142765960Y-91874726D01*
X142765963Y-91874727D01*
X143005101Y-91958237D01*
X143008629Y-91959469D01*
X143264828Y-92008110D01*
X143268557Y-92008256D01*
X143268561Y-92008257D01*
X143434618Y-92014781D01*
X143525403Y-92018348D01*
X143618885Y-92008110D01*
X143780916Y-91990365D01*
X143780921Y-91990364D01*
X143784629Y-91989958D01*
X143905114Y-91958237D01*
X144033204Y-91924514D01*
X144033208Y-91924512D01*
X144036811Y-91923564D01*
X144276410Y-91820625D01*
X144498161Y-91683401D01*
X144697194Y-91514907D01*
X144783138Y-91416906D01*
X144866671Y-91321655D01*
X144866673Y-91321653D01*
X144869135Y-91318845D01*
X144871153Y-91315707D01*
X144871158Y-91315701D01*
X145008183Y-91102672D01*
X145008186Y-91102667D01*
X145010208Y-91099523D01*
X145011743Y-91096116D01*
X145011746Y-91096110D01*
X145115780Y-90865163D01*
X145115781Y-90865160D01*
X145117314Y-90861757D01*
X145188099Y-90610772D01*
X145204980Y-90478077D01*
X145220691Y-90354582D01*
X145220691Y-90354579D01*
X145221009Y-90352081D01*
X145223420Y-90260000D01*
X145204094Y-89999941D01*
X145194648Y-89958193D01*
X145147367Y-89749240D01*
X145147366Y-89749237D01*
X145146542Y-89745595D01*
X145145192Y-89742122D01*
X145145189Y-89742114D01*
X145053381Y-89506032D01*
X145052027Y-89502550D01*
X144922625Y-89276145D01*
X144761180Y-89071353D01*
X144725517Y-89037804D01*
X144573957Y-88895231D01*
X144571239Y-88892674D01*
X144568182Y-88890554D01*
X144568178Y-88890550D01*
X144454977Y-88812020D01*
X144356973Y-88744032D01*
X144123090Y-88628694D01*
X144119538Y-88627557D01*
X144119533Y-88627555D01*
X143998909Y-88588943D01*
X143874728Y-88549193D01*
X143617344Y-88507275D01*
X143613602Y-88507226D01*
X143584905Y-88506850D01*
X143356590Y-88503862D01*
X143246620Y-88518828D01*
X143101898Y-88538524D01*
X143101896Y-88538524D01*
X143098196Y-88539028D01*
X143094613Y-88540072D01*
X143094610Y-88540073D01*
X143063321Y-88549193D01*
X142847838Y-88612000D01*
X142844456Y-88613559D01*
X142844451Y-88613561D01*
X142808040Y-88630347D01*
X142611016Y-88721177D01*
X142607895Y-88723223D01*
X142607890Y-88723226D01*
X142452459Y-88825131D01*
X142392933Y-88864158D01*
X142198379Y-89037804D01*
X142195987Y-89040680D01*
X142034016Y-89235429D01*
X142034011Y-89235436D01*
X142031629Y-89238300D01*
X141896345Y-89461240D01*
X141795500Y-89701728D01*
X141731310Y-89954480D01*
X141730936Y-89958191D01*
X141730936Y-89958193D01*
X141727100Y-89996293D01*
X141705183Y-90213944D01*
X135659997Y-90213944D01*
X135644094Y-89999941D01*
X135634648Y-89958193D01*
X135587367Y-89749240D01*
X135587366Y-89749237D01*
X135586542Y-89745595D01*
X135585192Y-89742122D01*
X135585189Y-89742114D01*
X135493381Y-89506032D01*
X135492027Y-89502550D01*
X135362625Y-89276145D01*
X135201180Y-89071353D01*
X135165517Y-89037804D01*
X135013957Y-88895231D01*
X135011239Y-88892674D01*
X135008182Y-88890554D01*
X135008178Y-88890550D01*
X134894977Y-88812020D01*
X134796973Y-88744032D01*
X134563090Y-88628694D01*
X134559538Y-88627557D01*
X134559533Y-88627555D01*
X134438909Y-88588943D01*
X134314728Y-88549193D01*
X134057344Y-88507275D01*
X134053602Y-88507226D01*
X134024905Y-88506850D01*
X133796590Y-88503862D01*
X133686620Y-88518828D01*
X133541898Y-88538524D01*
X133541896Y-88538524D01*
X133538196Y-88539028D01*
X133534613Y-88540072D01*
X133534610Y-88540073D01*
X133503321Y-88549193D01*
X133287838Y-88612000D01*
X133284456Y-88613559D01*
X133284451Y-88613561D01*
X133248040Y-88630347D01*
X133051016Y-88721177D01*
X133047895Y-88723223D01*
X133047890Y-88723226D01*
X132892459Y-88825131D01*
X132832933Y-88864158D01*
X132638379Y-89037804D01*
X132635987Y-89040680D01*
X132474016Y-89235429D01*
X132474011Y-89235436D01*
X132471629Y-89238300D01*
X132336345Y-89461240D01*
X132235500Y-89701728D01*
X132171310Y-89954480D01*
X132170936Y-89958191D01*
X132170936Y-89958193D01*
X132167100Y-89996293D01*
X132145183Y-90213944D01*
X123989500Y-90213944D01*
X123989500Y-81213944D01*
X132145183Y-81213944D01*
X132157694Y-81474419D01*
X132208569Y-81730185D01*
X132296690Y-81975621D01*
X132420120Y-82205336D01*
X132422350Y-82208322D01*
X132422353Y-82208327D01*
X132506980Y-82321655D01*
X132576149Y-82414283D01*
X132761348Y-82597873D01*
X132874701Y-82680987D01*
X132968641Y-82749868D01*
X132968646Y-82749871D01*
X132971649Y-82752073D01*
X132974947Y-82753808D01*
X133199127Y-82871755D01*
X133199131Y-82871757D01*
X133202433Y-82873494D01*
X133205960Y-82874726D01*
X133205963Y-82874727D01*
X133445101Y-82958237D01*
X133448629Y-82959469D01*
X133704828Y-83008110D01*
X133708557Y-83008256D01*
X133708561Y-83008257D01*
X133874618Y-83014781D01*
X133965403Y-83018348D01*
X134058885Y-83008110D01*
X134220916Y-82990365D01*
X134220921Y-82990364D01*
X134224629Y-82989958D01*
X134345114Y-82958237D01*
X134473204Y-82924514D01*
X134473208Y-82924512D01*
X134476811Y-82923564D01*
X134716410Y-82820625D01*
X134938161Y-82683401D01*
X135137194Y-82514907D01*
X135223138Y-82416906D01*
X135306671Y-82321655D01*
X135306673Y-82321653D01*
X135309135Y-82318845D01*
X135311153Y-82315707D01*
X135311158Y-82315701D01*
X135448183Y-82102672D01*
X135448186Y-82102667D01*
X135450208Y-82099523D01*
X135451743Y-82096116D01*
X135451746Y-82096110D01*
X135555780Y-81865163D01*
X135555781Y-81865160D01*
X135557314Y-81861757D01*
X135628099Y-81610772D01*
X135644980Y-81478077D01*
X135660691Y-81354582D01*
X135660691Y-81354579D01*
X135661009Y-81352081D01*
X135663420Y-81260000D01*
X135659997Y-81213944D01*
X141705183Y-81213944D01*
X141717694Y-81474419D01*
X141768569Y-81730185D01*
X141856690Y-81975621D01*
X141980120Y-82205336D01*
X141982350Y-82208322D01*
X141982353Y-82208327D01*
X142066980Y-82321655D01*
X142136149Y-82414283D01*
X142321348Y-82597873D01*
X142434701Y-82680987D01*
X142528641Y-82749868D01*
X142528646Y-82749871D01*
X142531649Y-82752073D01*
X142534947Y-82753808D01*
X142759127Y-82871755D01*
X142759131Y-82871757D01*
X142762433Y-82873494D01*
X142765960Y-82874726D01*
X142765963Y-82874727D01*
X143005101Y-82958237D01*
X143008629Y-82959469D01*
X143264828Y-83008110D01*
X143268557Y-83008256D01*
X143268561Y-83008257D01*
X143434618Y-83014781D01*
X143525403Y-83018348D01*
X143618885Y-83008110D01*
X143780916Y-82990365D01*
X143780921Y-82990364D01*
X143784629Y-82989958D01*
X143905114Y-82958237D01*
X144033204Y-82924514D01*
X144033208Y-82924512D01*
X144036811Y-82923564D01*
X144276410Y-82820625D01*
X144498161Y-82683401D01*
X144697194Y-82514907D01*
X144783138Y-82416906D01*
X144866671Y-82321655D01*
X144866673Y-82321653D01*
X144869135Y-82318845D01*
X144871153Y-82315707D01*
X144871158Y-82315701D01*
X145008183Y-82102672D01*
X145008186Y-82102667D01*
X145010208Y-82099523D01*
X145011743Y-82096116D01*
X145011746Y-82096110D01*
X145115780Y-81865163D01*
X145115781Y-81865160D01*
X145117314Y-81861757D01*
X145188099Y-81610772D01*
X145204980Y-81478077D01*
X145220691Y-81354582D01*
X145220691Y-81354579D01*
X145221009Y-81352081D01*
X145223420Y-81260000D01*
X145204094Y-80999941D01*
X145194648Y-80958193D01*
X145147367Y-80749240D01*
X145147366Y-80749237D01*
X145146542Y-80745595D01*
X145145192Y-80742122D01*
X145145189Y-80742114D01*
X145053381Y-80506032D01*
X145052027Y-80502550D01*
X144922625Y-80276145D01*
X144761180Y-80071353D01*
X144725517Y-80037804D01*
X144573957Y-79895231D01*
X144571239Y-79892674D01*
X144568182Y-79890554D01*
X144568178Y-79890550D01*
X144454977Y-79812020D01*
X144356973Y-79744032D01*
X144123090Y-79628694D01*
X144119538Y-79627557D01*
X144119533Y-79627555D01*
X143998909Y-79588944D01*
X143874728Y-79549193D01*
X143617344Y-79507275D01*
X143613602Y-79507226D01*
X143584905Y-79506850D01*
X143356590Y-79503862D01*
X143246620Y-79518828D01*
X143101898Y-79538524D01*
X143101896Y-79538524D01*
X143098196Y-79539028D01*
X143094613Y-79540072D01*
X143094610Y-79540073D01*
X143063321Y-79549193D01*
X142847838Y-79612000D01*
X142844456Y-79613559D01*
X142844451Y-79613561D01*
X142808040Y-79630347D01*
X142611016Y-79721177D01*
X142607895Y-79723223D01*
X142607890Y-79723226D01*
X142452459Y-79825131D01*
X142392933Y-79864158D01*
X142198379Y-80037804D01*
X142195987Y-80040680D01*
X142034016Y-80235429D01*
X142034011Y-80235436D01*
X142031629Y-80238300D01*
X141896345Y-80461240D01*
X141795500Y-80701728D01*
X141731310Y-80954480D01*
X141730936Y-80958191D01*
X141730936Y-80958193D01*
X141727100Y-80996293D01*
X141705183Y-81213944D01*
X135659997Y-81213944D01*
X135644094Y-80999941D01*
X135634648Y-80958193D01*
X135587367Y-80749240D01*
X135587366Y-80749237D01*
X135586542Y-80745595D01*
X135585192Y-80742122D01*
X135585189Y-80742114D01*
X135493381Y-80506032D01*
X135492027Y-80502550D01*
X135362625Y-80276145D01*
X135201180Y-80071353D01*
X135165517Y-80037804D01*
X135013957Y-79895231D01*
X135011239Y-79892674D01*
X135008182Y-79890554D01*
X135008178Y-79890550D01*
X134894977Y-79812020D01*
X134796973Y-79744032D01*
X134563090Y-79628694D01*
X134559538Y-79627557D01*
X134559533Y-79627555D01*
X134438909Y-79588944D01*
X134314728Y-79549193D01*
X134057344Y-79507275D01*
X134053602Y-79507226D01*
X134024905Y-79506850D01*
X133796590Y-79503862D01*
X133686620Y-79518828D01*
X133541898Y-79538524D01*
X133541896Y-79538524D01*
X133538196Y-79539028D01*
X133534613Y-79540072D01*
X133534610Y-79540073D01*
X133503321Y-79549193D01*
X133287838Y-79612000D01*
X133284456Y-79613559D01*
X133284451Y-79613561D01*
X133248040Y-79630347D01*
X133051016Y-79721177D01*
X133047895Y-79723223D01*
X133047890Y-79723226D01*
X132892459Y-79825131D01*
X132832933Y-79864158D01*
X132638379Y-80037804D01*
X132635987Y-80040680D01*
X132474016Y-80235429D01*
X132474011Y-80235436D01*
X132471629Y-80238300D01*
X132336345Y-80461240D01*
X132235500Y-80701728D01*
X132171310Y-80954480D01*
X132170936Y-80958191D01*
X132170936Y-80958193D01*
X132167100Y-80996293D01*
X132145183Y-81213944D01*
X123989500Y-81213944D01*
X123989500Y-67138933D01*
X125180500Y-67138933D01*
X125180501Y-68539066D01*
X125195266Y-68613301D01*
X125200769Y-68621536D01*
X125200769Y-68621537D01*
X125202162Y-68623621D01*
X125251516Y-68697484D01*
X125335699Y-68753734D01*
X125384239Y-68763389D01*
X125405081Y-68767535D01*
X125405082Y-68767535D01*
X125409933Y-68768500D01*
X125414880Y-68768500D01*
X126886343Y-68768499D01*
X128360066Y-68768499D01*
X128395548Y-68761442D01*
X128424584Y-68755667D01*
X128424586Y-68755666D01*
X128434301Y-68753734D01*
X128443597Y-68747523D01*
X128510247Y-68702988D01*
X128518484Y-68697484D01*
X128574734Y-68613301D01*
X128589500Y-68539067D01*
X128589500Y-67861944D01*
X132145183Y-67861944D01*
X132157694Y-68122419D01*
X132208569Y-68378185D01*
X132209831Y-68381700D01*
X132292985Y-68613301D01*
X132296690Y-68623621D01*
X132420120Y-68853336D01*
X132422350Y-68856322D01*
X132422353Y-68856327D01*
X132506980Y-68969655D01*
X132576149Y-69062283D01*
X132761348Y-69245873D01*
X132874701Y-69328987D01*
X132968641Y-69397868D01*
X132968646Y-69397871D01*
X132971649Y-69400073D01*
X132974947Y-69401808D01*
X133199127Y-69519755D01*
X133199131Y-69519757D01*
X133202433Y-69521494D01*
X133205960Y-69522726D01*
X133205963Y-69522727D01*
X133445101Y-69606237D01*
X133448629Y-69607469D01*
X133704828Y-69656110D01*
X133708557Y-69656256D01*
X133708561Y-69656257D01*
X133874618Y-69662781D01*
X133965403Y-69666348D01*
X134058885Y-69656110D01*
X134220916Y-69638365D01*
X134220921Y-69638364D01*
X134224629Y-69637958D01*
X134345114Y-69606237D01*
X134473204Y-69572514D01*
X134473208Y-69572512D01*
X134476811Y-69571564D01*
X134716410Y-69468625D01*
X134938161Y-69331401D01*
X135137194Y-69162907D01*
X135223138Y-69064906D01*
X135306671Y-68969655D01*
X135306673Y-68969653D01*
X135309135Y-68966845D01*
X135311153Y-68963707D01*
X135311158Y-68963701D01*
X135448183Y-68750672D01*
X135448186Y-68750667D01*
X135450208Y-68747523D01*
X135451743Y-68744116D01*
X135451746Y-68744110D01*
X135555780Y-68513163D01*
X135555781Y-68513160D01*
X135557314Y-68509757D01*
X135628099Y-68258772D01*
X135644980Y-68126077D01*
X135660691Y-68002582D01*
X135660691Y-68002579D01*
X135661009Y-68000081D01*
X135663420Y-67908000D01*
X135659997Y-67861944D01*
X141705183Y-67861944D01*
X141717694Y-68122419D01*
X141768569Y-68378185D01*
X141769831Y-68381700D01*
X141852985Y-68613301D01*
X141856690Y-68623621D01*
X141980120Y-68853336D01*
X141982350Y-68856322D01*
X141982353Y-68856327D01*
X142066980Y-68969655D01*
X142136149Y-69062283D01*
X142321348Y-69245873D01*
X142434701Y-69328987D01*
X142528641Y-69397868D01*
X142528646Y-69397871D01*
X142531649Y-69400073D01*
X142534947Y-69401808D01*
X142759127Y-69519755D01*
X142759131Y-69519757D01*
X142762433Y-69521494D01*
X142765960Y-69522726D01*
X142765963Y-69522727D01*
X143005101Y-69606237D01*
X143008629Y-69607469D01*
X143264828Y-69656110D01*
X143268557Y-69656256D01*
X143268561Y-69656257D01*
X143434618Y-69662781D01*
X143525403Y-69666348D01*
X143618885Y-69656110D01*
X143780916Y-69638365D01*
X143780921Y-69638364D01*
X143784629Y-69637958D01*
X143905114Y-69606237D01*
X144033204Y-69572514D01*
X144033208Y-69572512D01*
X144036811Y-69571564D01*
X144276410Y-69468625D01*
X144498161Y-69331401D01*
X144697194Y-69162907D01*
X144783138Y-69064906D01*
X144866671Y-68969655D01*
X144866673Y-68969653D01*
X144869135Y-68966845D01*
X144871153Y-68963707D01*
X144871158Y-68963701D01*
X145008183Y-68750672D01*
X145008186Y-68750667D01*
X145010208Y-68747523D01*
X145011743Y-68744116D01*
X145011746Y-68744110D01*
X145115780Y-68513163D01*
X145115781Y-68513160D01*
X145117314Y-68509757D01*
X145188099Y-68258772D01*
X145204980Y-68126077D01*
X145220691Y-68002582D01*
X145220691Y-68002579D01*
X145221009Y-68000081D01*
X145223420Y-67908000D01*
X145204094Y-67647941D01*
X145194648Y-67606193D01*
X145147367Y-67397240D01*
X145147366Y-67397237D01*
X145146542Y-67393595D01*
X145145192Y-67390122D01*
X145145189Y-67390114D01*
X145053381Y-67154032D01*
X145052027Y-67150550D01*
X144922625Y-66924145D01*
X144761180Y-66719353D01*
X144725517Y-66685804D01*
X144573957Y-66543231D01*
X144571239Y-66540674D01*
X144568182Y-66538554D01*
X144568178Y-66538550D01*
X144372587Y-66402864D01*
X144356973Y-66392032D01*
X144123090Y-66276694D01*
X144119538Y-66275557D01*
X144119533Y-66275555D01*
X143998909Y-66236943D01*
X143874728Y-66197193D01*
X143617344Y-66155275D01*
X143613602Y-66155226D01*
X143584905Y-66154850D01*
X143356590Y-66151862D01*
X143266733Y-66164091D01*
X143101898Y-66186524D01*
X143101896Y-66186524D01*
X143098196Y-66187028D01*
X143094613Y-66188072D01*
X143094610Y-66188073D01*
X143012163Y-66212104D01*
X142847838Y-66260000D01*
X142844456Y-66261559D01*
X142844451Y-66261561D01*
X142808040Y-66278347D01*
X142611016Y-66369177D01*
X142607895Y-66371223D01*
X142607890Y-66371226D01*
X142452459Y-66473131D01*
X142392933Y-66512158D01*
X142198379Y-66685804D01*
X142195987Y-66688680D01*
X142034016Y-66883429D01*
X142034011Y-66883436D01*
X142031629Y-66886300D01*
X141896345Y-67109240D01*
X141795500Y-67349728D01*
X141731310Y-67602480D01*
X141730936Y-67606191D01*
X141730936Y-67606193D01*
X141727100Y-67644293D01*
X141705183Y-67861944D01*
X135659997Y-67861944D01*
X135644094Y-67647941D01*
X135634648Y-67606193D01*
X135587367Y-67397240D01*
X135587366Y-67397237D01*
X135586542Y-67393595D01*
X135585192Y-67390122D01*
X135585189Y-67390114D01*
X135493381Y-67154032D01*
X135492027Y-67150550D01*
X135362625Y-66924145D01*
X135201180Y-66719353D01*
X135165517Y-66685804D01*
X135013957Y-66543231D01*
X135011239Y-66540674D01*
X135008182Y-66538554D01*
X135008178Y-66538550D01*
X134812587Y-66402864D01*
X134796973Y-66392032D01*
X134563090Y-66276694D01*
X134559538Y-66275557D01*
X134559533Y-66275555D01*
X134438909Y-66236943D01*
X134314728Y-66197193D01*
X134057344Y-66155275D01*
X134053602Y-66155226D01*
X134024905Y-66154850D01*
X133796590Y-66151862D01*
X133706733Y-66164091D01*
X133541898Y-66186524D01*
X133541896Y-66186524D01*
X133538196Y-66187028D01*
X133534613Y-66188072D01*
X133534610Y-66188073D01*
X133452163Y-66212104D01*
X133287838Y-66260000D01*
X133284456Y-66261559D01*
X133284451Y-66261561D01*
X133248040Y-66278347D01*
X133051016Y-66369177D01*
X133047895Y-66371223D01*
X133047890Y-66371226D01*
X132892459Y-66473131D01*
X132832933Y-66512158D01*
X132638379Y-66685804D01*
X132635987Y-66688680D01*
X132474016Y-66883429D01*
X132474011Y-66883436D01*
X132471629Y-66886300D01*
X132336345Y-67109240D01*
X132235500Y-67349728D01*
X132171310Y-67602480D01*
X132170936Y-67606191D01*
X132170936Y-67606193D01*
X132167100Y-67644293D01*
X132145183Y-67861944D01*
X128589500Y-67861944D01*
X128589499Y-67138934D01*
X128574734Y-67064699D01*
X128569230Y-67056461D01*
X128523988Y-66988753D01*
X128518484Y-66980516D01*
X128434301Y-66924266D01*
X128385761Y-66914611D01*
X128364919Y-66910465D01*
X128364918Y-66910465D01*
X128360067Y-66909500D01*
X128355120Y-66909500D01*
X126883658Y-66909501D01*
X125409934Y-66909501D01*
X125374452Y-66916558D01*
X125345416Y-66922333D01*
X125345414Y-66922334D01*
X125335699Y-66924266D01*
X125251516Y-66980516D01*
X125195266Y-67064699D01*
X125180500Y-67138933D01*
X123989500Y-67138933D01*
X123989500Y-62411216D01*
X123991754Y-62390042D01*
X123992570Y-62386253D01*
X123992570Y-62386252D01*
X123994320Y-62378124D01*
X123990197Y-62343291D01*
X123989738Y-62335499D01*
X123989500Y-62332620D01*
X123989500Y-62328476D01*
X123988819Y-62324384D01*
X123986230Y-62308828D01*
X123985562Y-62304136D01*
X123980446Y-62260913D01*
X123979469Y-62252659D01*
X123976104Y-62245651D01*
X123975282Y-62243051D01*
X123974004Y-62235374D01*
X123949360Y-62189700D01*
X123947233Y-62185527D01*
X123924780Y-62138768D01*
X123921186Y-62134492D01*
X123919653Y-62132959D01*
X123918789Y-62132017D01*
X123917254Y-62130198D01*
X123914010Y-62124186D01*
X123874070Y-62087266D01*
X123871222Y-62084528D01*
X122498565Y-60711871D01*
X122485186Y-60695305D01*
X122478571Y-60685060D01*
X122472041Y-60679913D01*
X122472040Y-60679911D01*
X122451029Y-60663348D01*
X122445201Y-60658170D01*
X122442992Y-60656298D01*
X122440056Y-60653362D01*
X122423846Y-60641778D01*
X122420057Y-60638932D01*
X122385884Y-60611992D01*
X122385882Y-60611991D01*
X122379353Y-60606844D01*
X122372018Y-60604268D01*
X122369600Y-60603012D01*
X122363266Y-60598486D01*
X122355303Y-60596105D01*
X122355300Y-60596103D01*
X122313561Y-60583621D01*
X122309082Y-60582166D01*
X122260149Y-60564982D01*
X122254584Y-60564500D01*
X122252418Y-60564500D01*
X122251143Y-60564445D01*
X122248766Y-60564244D01*
X122242222Y-60562287D01*
X122189152Y-60564372D01*
X122187881Y-60564422D01*
X122183932Y-60564500D01*
X121990099Y-60564500D01*
X121930968Y-60545287D01*
X121894423Y-60494987D01*
X121889499Y-60463900D01*
X121889499Y-60368934D01*
X121881473Y-60328583D01*
X121876667Y-60304416D01*
X121876666Y-60304414D01*
X121874734Y-60294699D01*
X121869230Y-60286461D01*
X121823988Y-60218753D01*
X121818484Y-60210516D01*
X121734301Y-60154266D01*
X121685761Y-60144611D01*
X121664919Y-60140465D01*
X121664918Y-60140465D01*
X121660067Y-60139500D01*
X121655120Y-60139500D01*
X120909318Y-60139501D01*
X120159934Y-60139501D01*
X120124452Y-60146558D01*
X120095416Y-60152333D01*
X120095414Y-60152334D01*
X120085699Y-60154266D01*
X120077464Y-60159769D01*
X120077463Y-60159769D01*
X120009753Y-60205012D01*
X120001516Y-60210516D01*
X119945266Y-60294699D01*
X119930500Y-60368933D01*
X119930501Y-61519066D01*
X119945266Y-61593301D01*
X119950769Y-61601536D01*
X119950769Y-61601537D01*
X119996012Y-61669247D01*
X120001516Y-61677484D01*
X120085699Y-61733734D01*
X120134239Y-61743389D01*
X120155081Y-61747535D01*
X120155082Y-61747535D01*
X120159933Y-61748500D01*
X120164880Y-61748500D01*
X120910682Y-61748499D01*
X121660066Y-61748499D01*
X121695548Y-61741442D01*
X121724584Y-61735667D01*
X121724586Y-61735666D01*
X121734301Y-61733734D01*
X121818484Y-61677484D01*
X121874734Y-61593301D01*
X121889500Y-61519067D01*
X121889500Y-61424100D01*
X121908713Y-61364969D01*
X121959013Y-61328424D01*
X121990100Y-61323500D01*
X121995136Y-61323500D01*
X122054267Y-61342713D01*
X122066271Y-61352965D01*
X123201035Y-62487729D01*
X123229261Y-62543127D01*
X123230500Y-62558864D01*
X123230500Y-99378784D01*
X123228246Y-99399958D01*
X123225680Y-99411876D01*
X123226657Y-99420131D01*
X123229803Y-99446710D01*
X123230262Y-99454499D01*
X123230500Y-99457378D01*
X123230500Y-99461524D01*
X123231181Y-99465614D01*
X123231181Y-99465616D01*
X123233768Y-99481160D01*
X123234436Y-99485853D01*
X123239552Y-99529082D01*
X123239553Y-99529085D01*
X123240530Y-99537341D01*
X123243898Y-99544354D01*
X123244719Y-99546949D01*
X123245996Y-99554626D01*
X123249946Y-99561946D01*
X123270613Y-99600249D01*
X123272766Y-99604474D01*
X123295219Y-99651232D01*
X123298814Y-99655508D01*
X123300359Y-99657053D01*
X123301210Y-99657981D01*
X123302745Y-99659801D01*
X123305990Y-99665814D01*
X123312096Y-99671458D01*
X123345930Y-99702734D01*
X123348778Y-99705472D01*
X125991035Y-102347729D01*
X126019261Y-102403127D01*
X126020500Y-102418864D01*
X126020500Y-105358784D01*
X126018246Y-105379958D01*
X126015680Y-105391876D01*
X126016657Y-105400131D01*
X126019803Y-105426710D01*
X126020262Y-105434499D01*
X126020500Y-105437378D01*
X126020500Y-105441524D01*
X126021181Y-105445614D01*
X126021181Y-105445616D01*
X126023768Y-105461160D01*
X126024436Y-105465853D01*
X126029552Y-105509082D01*
X126029553Y-105509085D01*
X126030530Y-105517341D01*
X126033898Y-105524354D01*
X126034719Y-105526949D01*
X126035996Y-105534626D01*
X126039946Y-105541946D01*
X126060613Y-105580249D01*
X126062766Y-105584474D01*
X126082093Y-105624723D01*
X126085219Y-105631232D01*
X126088814Y-105635508D01*
X126090359Y-105637053D01*
X126091210Y-105637981D01*
X126092745Y-105639801D01*
X126095990Y-105645814D01*
X126102096Y-105651458D01*
X126135930Y-105682734D01*
X126138778Y-105685472D01*
X126490945Y-106037639D01*
X126504324Y-106054205D01*
X126510939Y-106064450D01*
X126517469Y-106069597D01*
X126517470Y-106069599D01*
X126538481Y-106086162D01*
X126544309Y-106091340D01*
X126546518Y-106093212D01*
X126549454Y-106096148D01*
X126552828Y-106098559D01*
X126552829Y-106098560D01*
X126565664Y-106107732D01*
X126569453Y-106110578D01*
X126603626Y-106137518D01*
X126603628Y-106137519D01*
X126610157Y-106142666D01*
X126617492Y-106145242D01*
X126619910Y-106146498D01*
X126626244Y-106151024D01*
X126634207Y-106153405D01*
X126634210Y-106153407D01*
X126668850Y-106163766D01*
X126719997Y-106199115D01*
X126732456Y-106220762D01*
X126734256Y-106229811D01*
X126739759Y-106238046D01*
X126739759Y-106238047D01*
X126768297Y-106280757D01*
X126790506Y-106313994D01*
X126793494Y-106315991D01*
X126819911Y-106367838D01*
X126810185Y-106429246D01*
X126791688Y-106454706D01*
X125364073Y-107882321D01*
X125308675Y-107910547D01*
X125275946Y-107905363D01*
X125275339Y-107909195D01*
X125252074Y-107905510D01*
X125021923Y-107905510D01*
X125009033Y-107909698D01*
X125005990Y-107913887D01*
X125005990Y-108198734D01*
X124986777Y-108257865D01*
X124976525Y-108269869D01*
X124202851Y-109043543D01*
X124186285Y-109056922D01*
X124176040Y-109063537D01*
X124170891Y-109070069D01*
X124170296Y-109070610D01*
X124113631Y-109096196D01*
X124052748Y-109083589D01*
X124010904Y-109037604D01*
X124001990Y-108996204D01*
X124001990Y-108872876D01*
X124021203Y-108813745D01*
X124031455Y-108801741D01*
X124388119Y-108445077D01*
X124404685Y-108431698D01*
X124414930Y-108425083D01*
X124421514Y-108416732D01*
X124436642Y-108397541D01*
X124441820Y-108391713D01*
X124443692Y-108389504D01*
X124446628Y-108386568D01*
X124458212Y-108370358D01*
X124461058Y-108366569D01*
X124487998Y-108332396D01*
X124487999Y-108332394D01*
X124493146Y-108325865D01*
X124495722Y-108318531D01*
X124496979Y-108316110D01*
X124501504Y-108309778D01*
X124501544Y-108309644D01*
X124544711Y-108269092D01*
X124587561Y-108259510D01*
X124590057Y-108259510D01*
X124602947Y-108255322D01*
X124605990Y-108251133D01*
X124605990Y-108063108D01*
X124607923Y-108043482D01*
X124609525Y-108035429D01*
X124609525Y-108035428D01*
X124610490Y-108030577D01*
X124610489Y-107489577D01*
X125005990Y-107489577D01*
X125010178Y-107502467D01*
X125014367Y-107505510D01*
X125244056Y-107505510D01*
X125256946Y-107501322D01*
X125259989Y-107497133D01*
X125259989Y-107385432D01*
X125259025Y-107375649D01*
X125247186Y-107316124D01*
X125239748Y-107298165D01*
X125194619Y-107230625D01*
X125180875Y-107216881D01*
X125113333Y-107171751D01*
X125095379Y-107164314D01*
X125035859Y-107152475D01*
X125026060Y-107151510D01*
X125021923Y-107151510D01*
X125009033Y-107155698D01*
X125005990Y-107159887D01*
X125005990Y-107489577D01*
X124610489Y-107489577D01*
X124610489Y-107380444D01*
X124607923Y-107367542D01*
X124605990Y-107347919D01*
X124605990Y-107167444D01*
X124601802Y-107154554D01*
X124597613Y-107151511D01*
X124583152Y-107151511D01*
X124524021Y-107132298D01*
X124492466Y-107094458D01*
X124490875Y-107091144D01*
X124470770Y-107049276D01*
X124467176Y-107045000D01*
X124465643Y-107043467D01*
X124464779Y-107042525D01*
X124463244Y-107040706D01*
X124460000Y-107034694D01*
X124420060Y-106997774D01*
X124417212Y-106995036D01*
X124270556Y-106848380D01*
X124257177Y-106831814D01*
X124250562Y-106821569D01*
X124244032Y-106816422D01*
X124244031Y-106816420D01*
X124223020Y-106799857D01*
X124217192Y-106794679D01*
X124214983Y-106792807D01*
X124212047Y-106789871D01*
X124195837Y-106778287D01*
X124192048Y-106775441D01*
X124157875Y-106748501D01*
X124157873Y-106748500D01*
X124151344Y-106743353D01*
X124144009Y-106740777D01*
X124141591Y-106739521D01*
X124135257Y-106734995D01*
X124127294Y-106732614D01*
X124127291Y-106732612D01*
X124085552Y-106720130D01*
X124081073Y-106718675D01*
X124032140Y-106701491D01*
X124026575Y-106701009D01*
X124024409Y-106701009D01*
X124023134Y-106700954D01*
X124020757Y-106700753D01*
X124014213Y-106698796D01*
X123963996Y-106700769D01*
X123959872Y-106700931D01*
X123955923Y-106701009D01*
X123097210Y-106701009D01*
X123076037Y-106698755D01*
X123064113Y-106696188D01*
X123055859Y-106697165D01*
X123055858Y-106697165D01*
X123029272Y-106700312D01*
X123021512Y-106700769D01*
X123018609Y-106701009D01*
X123014465Y-106701009D01*
X123010375Y-106701690D01*
X123010371Y-106701690D01*
X122994851Y-106704273D01*
X122990162Y-106704940D01*
X122946913Y-106710060D01*
X122946909Y-106710061D01*
X122938648Y-106711039D01*
X122931633Y-106714408D01*
X122929042Y-106715227D01*
X122921363Y-106716505D01*
X122875740Y-106741122D01*
X122871515Y-106743275D01*
X122830464Y-106762987D01*
X122830461Y-106762989D01*
X122824757Y-106765728D01*
X122820482Y-106769322D01*
X122818953Y-106770851D01*
X122818008Y-106771718D01*
X122816186Y-106773255D01*
X122810175Y-106776499D01*
X122804530Y-106782606D01*
X122773255Y-106816439D01*
X122770517Y-106819287D01*
X122177841Y-107411963D01*
X122161276Y-107425341D01*
X122151030Y-107431957D01*
X122145883Y-107438487D01*
X122145881Y-107438488D01*
X122129318Y-107459499D01*
X122124140Y-107465327D01*
X122122268Y-107467536D01*
X122119332Y-107470472D01*
X122116921Y-107473846D01*
X122116920Y-107473847D01*
X122107748Y-107486682D01*
X122104902Y-107490471D01*
X122077962Y-107524644D01*
X122077961Y-107524646D01*
X122072814Y-107531175D01*
X122070238Y-107538510D01*
X122068982Y-107540928D01*
X122064456Y-107547262D01*
X122062075Y-107555225D01*
X122062073Y-107555228D01*
X122049591Y-107596967D01*
X122048136Y-107601446D01*
X122030952Y-107650379D01*
X122030470Y-107655944D01*
X122030470Y-107658110D01*
X122030415Y-107659385D01*
X122030214Y-107661762D01*
X122028257Y-107668306D01*
X122028584Y-107676618D01*
X122028584Y-107676619D01*
X122030392Y-107722647D01*
X122030470Y-107726596D01*
X122030470Y-113103774D01*
X122028216Y-113124948D01*
X122025650Y-113136866D01*
X122026627Y-113145121D01*
X122029773Y-113171700D01*
X122030232Y-113179489D01*
X122030470Y-113182368D01*
X122030470Y-113186514D01*
X122031151Y-113190604D01*
X122031151Y-113190606D01*
X122033738Y-113206150D01*
X122034406Y-113210843D01*
X122039522Y-113254072D01*
X122039523Y-113254075D01*
X122040500Y-113262331D01*
X122043868Y-113269344D01*
X122044689Y-113271939D01*
X122045966Y-113279616D01*
X122070585Y-113325242D01*
X122072736Y-113329464D01*
X122081096Y-113346873D01*
X122095189Y-113376222D01*
X122098784Y-113380498D01*
X122100329Y-113382043D01*
X122101180Y-113382971D01*
X122102715Y-113384791D01*
X122105960Y-113390804D01*
X122145900Y-113427724D01*
X122148748Y-113430462D01*
X122901025Y-114182739D01*
X122929251Y-114238137D01*
X122930490Y-114253874D01*
X122930491Y-114668562D01*
X122930785Y-114671265D01*
X122930785Y-114671267D01*
X122934749Y-114707762D01*
X122936776Y-114726429D01*
X122984362Y-114853363D01*
X123065660Y-114961840D01*
X123174137Y-115043138D01*
X123180848Y-115045654D01*
X123180850Y-115045655D01*
X123295165Y-115088510D01*
X123301071Y-115090724D01*
X123358937Y-115097010D01*
X123622393Y-115097010D01*
X123886042Y-115097009D01*
X123907448Y-115094684D01*
X123937642Y-115091405D01*
X123937645Y-115091404D01*
X123943909Y-115090724D01*
X123949811Y-115088512D01*
X123949813Y-115088511D01*
X124064130Y-115045655D01*
X124064132Y-115045654D01*
X124070843Y-115043138D01*
X124179320Y-114961840D01*
X124260618Y-114853363D01*
X124308204Y-114726429D01*
X124308885Y-114720160D01*
X124308887Y-114720153D01*
X124310233Y-114707762D01*
X124335720Y-114651052D01*
X124389673Y-114620154D01*
X124451484Y-114626869D01*
X124497542Y-114668634D01*
X124510256Y-114707767D01*
X124511590Y-114720050D01*
X124514484Y-114732224D01*
X124557290Y-114846412D01*
X124564102Y-114858854D01*
X124636719Y-114955746D01*
X124646754Y-114965781D01*
X124743646Y-115038398D01*
X124756088Y-115045210D01*
X124870281Y-115088018D01*
X124882443Y-115090909D01*
X124929170Y-115095986D01*
X124940447Y-115092322D01*
X124943490Y-115088133D01*
X124943490Y-114214110D01*
X124962703Y-114154979D01*
X125013003Y-114118434D01*
X125044090Y-114113510D01*
X125873056Y-114113510D01*
X125885946Y-114109322D01*
X125888989Y-114105133D01*
X125888989Y-114069237D01*
X125888695Y-114063813D01*
X125883390Y-114014969D01*
X125880496Y-114002796D01*
X125837690Y-113888608D01*
X125830878Y-113876166D01*
X125776007Y-113802952D01*
X125755919Y-113744112D01*
X125774253Y-113684703D01*
X125824005Y-113647415D01*
X125856508Y-113642020D01*
X126122846Y-113642020D01*
X126181977Y-113661233D01*
X126218522Y-113711533D01*
X126218522Y-113773707D01*
X126203347Y-113802951D01*
X126148664Y-113875916D01*
X126148663Y-113875918D01*
X126144362Y-113881657D01*
X126141846Y-113888368D01*
X126141845Y-113888370D01*
X126117961Y-113952080D01*
X126096776Y-114008591D01*
X126090490Y-114066457D01*
X126090491Y-114276514D01*
X126090491Y-114481145D01*
X126071278Y-114540276D01*
X126061026Y-114552280D01*
X126005764Y-114607542D01*
X125950366Y-114635768D01*
X125888958Y-114626042D01*
X125881733Y-114621614D01*
X125881074Y-114621510D01*
X125467423Y-114621510D01*
X125454533Y-114625698D01*
X125451490Y-114629887D01*
X125451490Y-115080573D01*
X125452363Y-115083260D01*
X125452364Y-115145434D01*
X125427822Y-115185484D01*
X125292271Y-115321035D01*
X125236873Y-115349261D01*
X125221136Y-115350500D01*
X122771216Y-115350500D01*
X122750042Y-115348246D01*
X122746253Y-115347430D01*
X122746252Y-115347430D01*
X122738124Y-115345680D01*
X122729869Y-115346657D01*
X122703290Y-115349803D01*
X122695501Y-115350262D01*
X122692622Y-115350500D01*
X122688476Y-115350500D01*
X122684386Y-115351181D01*
X122684384Y-115351181D01*
X122668840Y-115353768D01*
X122664147Y-115354436D01*
X122620918Y-115359552D01*
X122620915Y-115359553D01*
X122612659Y-115360530D01*
X122605646Y-115363898D01*
X122603051Y-115364719D01*
X122595374Y-115365996D01*
X122549751Y-115390613D01*
X122545526Y-115392766D01*
X122504475Y-115412478D01*
X122504472Y-115412480D01*
X122498768Y-115415219D01*
X122494493Y-115418813D01*
X122492964Y-115420342D01*
X122492019Y-115421209D01*
X122490197Y-115422746D01*
X122484186Y-115425990D01*
X122478541Y-115432097D01*
X122447266Y-115465930D01*
X122444528Y-115468778D01*
X114697371Y-123215935D01*
X114680805Y-123229314D01*
X114670560Y-123235929D01*
X114665413Y-123242459D01*
X114665411Y-123242460D01*
X114648848Y-123263471D01*
X114643670Y-123269299D01*
X114641798Y-123271508D01*
X114638862Y-123274444D01*
X114636451Y-123277818D01*
X114636450Y-123277819D01*
X114627278Y-123290654D01*
X114624432Y-123294443D01*
X114597492Y-123328616D01*
X114597491Y-123328618D01*
X114592344Y-123335147D01*
X114589768Y-123342482D01*
X114588512Y-123344900D01*
X114583986Y-123351234D01*
X114581605Y-123359197D01*
X114581603Y-123359200D01*
X114569121Y-123400939D01*
X114567666Y-123405418D01*
X114550482Y-123454351D01*
X114550000Y-123459916D01*
X114550000Y-123462082D01*
X114549945Y-123463357D01*
X114549744Y-123465734D01*
X114547787Y-123472278D01*
X114548114Y-123480591D01*
X114549922Y-123526619D01*
X114550000Y-123530568D01*
X114550000Y-123653737D01*
X114530787Y-123712868D01*
X114515534Y-123729543D01*
X114439539Y-123795838D01*
X114348450Y-123925444D01*
X114290906Y-124073037D01*
X114270229Y-124230096D01*
X111777972Y-124230096D01*
X111759776Y-124079733D01*
X111703780Y-123931546D01*
X111614053Y-123800992D01*
X111532678Y-123728490D01*
X111501309Y-123674809D01*
X111499000Y-123653378D01*
X111499000Y-118605864D01*
X111518213Y-118546733D01*
X111528465Y-118534729D01*
X114936719Y-115126475D01*
X114992117Y-115098249D01*
X115007854Y-115097010D01*
X115394550Y-115097009D01*
X115422542Y-115097009D01*
X115443948Y-115094684D01*
X115474142Y-115091405D01*
X115474145Y-115091404D01*
X115480409Y-115090724D01*
X115486311Y-115088512D01*
X115486313Y-115088511D01*
X115600630Y-115045655D01*
X115600632Y-115045654D01*
X115607343Y-115043138D01*
X115715820Y-114961840D01*
X115797118Y-114853363D01*
X115844704Y-114726429D01*
X115846478Y-114710096D01*
X115871964Y-114653386D01*
X115925916Y-114622486D01*
X115987726Y-114629200D01*
X116033786Y-114670963D01*
X116046502Y-114710096D01*
X116048276Y-114726429D01*
X116095862Y-114853363D01*
X116177160Y-114961840D01*
X116285637Y-115043138D01*
X116292348Y-115045654D01*
X116292350Y-115045655D01*
X116406665Y-115088510D01*
X116412571Y-115090724D01*
X116470437Y-115097010D01*
X116733893Y-115097010D01*
X116997542Y-115097009D01*
X117018948Y-115094684D01*
X117049142Y-115091405D01*
X117049145Y-115091404D01*
X117055409Y-115090724D01*
X117061311Y-115088512D01*
X117061313Y-115088511D01*
X117175630Y-115045655D01*
X117175632Y-115045654D01*
X117182343Y-115043138D01*
X117290820Y-114961840D01*
X117372118Y-114853363D01*
X117419704Y-114726429D01*
X117425990Y-114668563D01*
X117425989Y-114253874D01*
X117445202Y-114194744D01*
X117455454Y-114182740D01*
X118178639Y-113459555D01*
X118195205Y-113446176D01*
X118205450Y-113439561D01*
X118212623Y-113430463D01*
X118227162Y-113412019D01*
X118232347Y-113406184D01*
X118234216Y-113403978D01*
X118237148Y-113401046D01*
X118248718Y-113384856D01*
X118251555Y-113381077D01*
X118267493Y-113360859D01*
X118283666Y-113340343D01*
X118286243Y-113333004D01*
X118287500Y-113330585D01*
X118292023Y-113324256D01*
X118298006Y-113304253D01*
X118306885Y-113274562D01*
X118308350Y-113270055D01*
X118309031Y-113268116D01*
X118325528Y-113221139D01*
X118326010Y-113215574D01*
X118326010Y-113213408D01*
X118326065Y-113212133D01*
X118326266Y-113209756D01*
X118328223Y-113203212D01*
X118326088Y-113148871D01*
X118326010Y-113144922D01*
X118326010Y-107511246D01*
X118328264Y-107490072D01*
X118329080Y-107486283D01*
X118329080Y-107486282D01*
X118330830Y-107478154D01*
X118326707Y-107443320D01*
X118326248Y-107435531D01*
X118326010Y-107432652D01*
X118326010Y-107428506D01*
X118324517Y-107419534D01*
X118322742Y-107408870D01*
X118322074Y-107404177D01*
X118316958Y-107360948D01*
X118316957Y-107360945D01*
X118315980Y-107352689D01*
X118312612Y-107345676D01*
X118311791Y-107343081D01*
X118310514Y-107335404D01*
X118285895Y-107289778D01*
X118283744Y-107285556D01*
X118264034Y-107244510D01*
X118264033Y-107244509D01*
X118261291Y-107238798D01*
X118257696Y-107234522D01*
X118256151Y-107232977D01*
X118255300Y-107232049D01*
X118253765Y-107230229D01*
X118250520Y-107224216D01*
X118210580Y-107187296D01*
X118207732Y-107184558D01*
X117416112Y-106392938D01*
X117387886Y-106337540D01*
X117397612Y-106276132D01*
X117403602Y-106265911D01*
X117409003Y-106257829D01*
X117427724Y-106229811D01*
X117442490Y-106155577D01*
X117442490Y-106125588D01*
X123051991Y-106125588D01*
X123052955Y-106135371D01*
X123064794Y-106194896D01*
X123072232Y-106212855D01*
X123117361Y-106280395D01*
X123131105Y-106294139D01*
X123198647Y-106339269D01*
X123216601Y-106346706D01*
X123276121Y-106358545D01*
X123285920Y-106359510D01*
X123290057Y-106359510D01*
X123302947Y-106355322D01*
X123305990Y-106351133D01*
X123305990Y-106021443D01*
X123301802Y-106008553D01*
X123297613Y-106005510D01*
X123067924Y-106005510D01*
X123055034Y-106009698D01*
X123051991Y-106013887D01*
X123051991Y-106125588D01*
X117442490Y-106125588D01*
X117442490Y-105985875D01*
X117461703Y-105926744D01*
X117471955Y-105914740D01*
X117882132Y-105504563D01*
X117898698Y-105491184D01*
X117901955Y-105489081D01*
X117908940Y-105484571D01*
X117930648Y-105457034D01*
X117935850Y-105451180D01*
X117937708Y-105448987D01*
X117940638Y-105446057D01*
X117952213Y-105429859D01*
X117955060Y-105426068D01*
X117982006Y-105391887D01*
X117982008Y-105391883D01*
X117987156Y-105385353D01*
X117989733Y-105378016D01*
X117990991Y-105375594D01*
X117995513Y-105369266D01*
X117998208Y-105360257D01*
X118010375Y-105319572D01*
X118011840Y-105315065D01*
X118013103Y-105311469D01*
X118029018Y-105266149D01*
X118029500Y-105260584D01*
X118029500Y-105258418D01*
X118029555Y-105257143D01*
X118029756Y-105254766D01*
X118031713Y-105248222D01*
X118029578Y-105193881D01*
X118029500Y-105189932D01*
X118029500Y-102898457D01*
X122676490Y-102898457D01*
X122676491Y-103500562D01*
X122682776Y-103558429D01*
X122684988Y-103564331D01*
X122684989Y-103564333D01*
X122703805Y-103614522D01*
X122730362Y-103685363D01*
X122811660Y-103793840D01*
X122920137Y-103875138D01*
X122926851Y-103877655D01*
X122933134Y-103881095D01*
X122932030Y-103883111D01*
X122972325Y-103915217D01*
X122988990Y-103970673D01*
X122988990Y-104057770D01*
X122970696Y-104115615D01*
X122940940Y-104157954D01*
X122883396Y-104305547D01*
X122862719Y-104462606D01*
X122863384Y-104468630D01*
X122863384Y-104468634D01*
X122865366Y-104486581D01*
X122880103Y-104620063D01*
X122889412Y-104645502D01*
X122923192Y-104737810D01*
X122934543Y-104768829D01*
X122937929Y-104773868D01*
X122950152Y-104792057D01*
X123022898Y-104900315D01*
X123140066Y-105006929D01*
X123145393Y-105009821D01*
X123145394Y-105009822D01*
X123161983Y-105018829D01*
X123255350Y-105069523D01*
X123262969Y-105073660D01*
X123305767Y-105118760D01*
X123313882Y-105180402D01*
X123284215Y-105235042D01*
X123234592Y-105260736D01*
X123216603Y-105264314D01*
X123198645Y-105271752D01*
X123131105Y-105316881D01*
X123117361Y-105330625D01*
X123072231Y-105398167D01*
X123064794Y-105416121D01*
X123052955Y-105475641D01*
X123051990Y-105485440D01*
X123051990Y-105589577D01*
X123056178Y-105602467D01*
X123060367Y-105605510D01*
X123600890Y-105605510D01*
X123660021Y-105624723D01*
X123696566Y-105675023D01*
X123701490Y-105706110D01*
X123701491Y-105926744D01*
X123701491Y-106130576D01*
X123702454Y-106135417D01*
X123702454Y-106135419D01*
X123704057Y-106143476D01*
X123705990Y-106163101D01*
X123705990Y-106343576D01*
X123710178Y-106356466D01*
X123714367Y-106359509D01*
X123726068Y-106359509D01*
X123735851Y-106358545D01*
X123805096Y-106344773D01*
X123805558Y-106347097D01*
X123853780Y-106343300D01*
X123856689Y-106345244D01*
X123907355Y-106355322D01*
X123926071Y-106359045D01*
X123926072Y-106359045D01*
X123930923Y-106360010D01*
X123935870Y-106360010D01*
X124156194Y-106360009D01*
X124381056Y-106360009D01*
X124455291Y-106345244D01*
X124455722Y-106347411D01*
X124504220Y-106343594D01*
X124506689Y-106345244D01*
X124552753Y-106354407D01*
X124576071Y-106359045D01*
X124576072Y-106359045D01*
X124580923Y-106360010D01*
X124585870Y-106360010D01*
X124806194Y-106360009D01*
X125031056Y-106360009D01*
X125066538Y-106352952D01*
X125095574Y-106347177D01*
X125095576Y-106347176D01*
X125105291Y-106345244D01*
X125130991Y-106328072D01*
X125181237Y-106294498D01*
X125189474Y-106288994D01*
X125245724Y-106204811D01*
X125260490Y-106130577D01*
X125260489Y-105480444D01*
X125249674Y-105426068D01*
X125247657Y-105415926D01*
X125247656Y-105415924D01*
X125245724Y-105406209D01*
X125240220Y-105397972D01*
X125240219Y-105397969D01*
X125202445Y-105341437D01*
X125185490Y-105285546D01*
X125185490Y-104020282D01*
X125204703Y-103961151D01*
X125255003Y-103924606D01*
X125259683Y-103923292D01*
X125264909Y-103922724D01*
X125337918Y-103895354D01*
X125385130Y-103877655D01*
X125385132Y-103877654D01*
X125391843Y-103875138D01*
X125500320Y-103793840D01*
X125581618Y-103685363D01*
X125608176Y-103614522D01*
X125626990Y-103564335D01*
X125626990Y-103564334D01*
X125629204Y-103558429D01*
X125635490Y-103500563D01*
X125635489Y-102898458D01*
X125629204Y-102840591D01*
X125626990Y-102834685D01*
X125584135Y-102720370D01*
X125584134Y-102720368D01*
X125581618Y-102713657D01*
X125500320Y-102605180D01*
X125391843Y-102523882D01*
X125385132Y-102521366D01*
X125385130Y-102521365D01*
X125270815Y-102478510D01*
X125270814Y-102478510D01*
X125264909Y-102476296D01*
X125207043Y-102470010D01*
X124943587Y-102470010D01*
X124679938Y-102470011D01*
X124658532Y-102472336D01*
X124628338Y-102475615D01*
X124628335Y-102475616D01*
X124622071Y-102476296D01*
X124616169Y-102478508D01*
X124616167Y-102478509D01*
X124501850Y-102521365D01*
X124501848Y-102521366D01*
X124495137Y-102523882D01*
X124386660Y-102605180D01*
X124305362Y-102713657D01*
X124302846Y-102720368D01*
X124302845Y-102720370D01*
X124266738Y-102816686D01*
X124257776Y-102840591D01*
X124257095Y-102846858D01*
X124257095Y-102846860D01*
X124256002Y-102856923D01*
X124230516Y-102913634D01*
X124176564Y-102944534D01*
X124114754Y-102937820D01*
X124068694Y-102896057D01*
X124055978Y-102856924D01*
X124054885Y-102846858D01*
X124054884Y-102846855D01*
X124054204Y-102840591D01*
X124051990Y-102834685D01*
X124009135Y-102720370D01*
X124009134Y-102720368D01*
X124006618Y-102713657D01*
X123925320Y-102605180D01*
X123816843Y-102523882D01*
X123810132Y-102521366D01*
X123810130Y-102521365D01*
X123695815Y-102478510D01*
X123695814Y-102478510D01*
X123689909Y-102476296D01*
X123632043Y-102470010D01*
X123368587Y-102470010D01*
X123104938Y-102470011D01*
X123083532Y-102472336D01*
X123053338Y-102475615D01*
X123053335Y-102475616D01*
X123047071Y-102476296D01*
X123041169Y-102478508D01*
X123041167Y-102478509D01*
X122926850Y-102521365D01*
X122926848Y-102521366D01*
X122920137Y-102523882D01*
X122811660Y-102605180D01*
X122730362Y-102713657D01*
X122727846Y-102720368D01*
X122727845Y-102720370D01*
X122691738Y-102816686D01*
X122682776Y-102840591D01*
X122676490Y-102898457D01*
X118029500Y-102898457D01*
X118029500Y-66402864D01*
X118048713Y-66343733D01*
X118058965Y-66331729D01*
X118876616Y-65514078D01*
X119931001Y-65514078D01*
X119931965Y-65523861D01*
X119943804Y-65583386D01*
X119951242Y-65601345D01*
X119996371Y-65668885D01*
X120010115Y-65682629D01*
X120077657Y-65727759D01*
X120095611Y-65735196D01*
X120155131Y-65747035D01*
X120164930Y-65748000D01*
X120640067Y-65748000D01*
X120652957Y-65743812D01*
X120656000Y-65739623D01*
X120656000Y-65732066D01*
X121164000Y-65732066D01*
X121168188Y-65744956D01*
X121172377Y-65747999D01*
X121655078Y-65747999D01*
X121664861Y-65747035D01*
X121724386Y-65735196D01*
X121742345Y-65727758D01*
X121809885Y-65682629D01*
X121823629Y-65668885D01*
X121868759Y-65601343D01*
X121876196Y-65583389D01*
X121888035Y-65523869D01*
X121889000Y-65514070D01*
X121889000Y-65213933D01*
X121884812Y-65201043D01*
X121880623Y-65198000D01*
X121179933Y-65198000D01*
X121167043Y-65202188D01*
X121164000Y-65206377D01*
X121164000Y-65732066D01*
X120656000Y-65732066D01*
X120656000Y-65213933D01*
X120651812Y-65201043D01*
X120647623Y-65198000D01*
X119946934Y-65198000D01*
X119934044Y-65202188D01*
X119931001Y-65206377D01*
X119931001Y-65514078D01*
X118876616Y-65514078D01*
X119762346Y-64628348D01*
X119817744Y-64600122D01*
X119879152Y-64609848D01*
X119923116Y-64653812D01*
X119929157Y-64668395D01*
X119935188Y-64686957D01*
X119939377Y-64690000D01*
X120640067Y-64690000D01*
X120652957Y-64685812D01*
X120656000Y-64681623D01*
X120656000Y-64674067D01*
X121164000Y-64674067D01*
X121168188Y-64686957D01*
X121172377Y-64690000D01*
X121873066Y-64690000D01*
X121885956Y-64685812D01*
X121888999Y-64681623D01*
X121888999Y-64373922D01*
X121888035Y-64364139D01*
X121876196Y-64304614D01*
X121868758Y-64286655D01*
X121823629Y-64219115D01*
X121809885Y-64205371D01*
X121742343Y-64160241D01*
X121724389Y-64152804D01*
X121664869Y-64140965D01*
X121655070Y-64140000D01*
X121179933Y-64140000D01*
X121167043Y-64144188D01*
X121164000Y-64148377D01*
X121164000Y-64674067D01*
X120656000Y-64674067D01*
X120656000Y-64155934D01*
X120651812Y-64143044D01*
X120647623Y-64140001D01*
X120493563Y-64140001D01*
X120434432Y-64120788D01*
X120397887Y-64070488D01*
X120397887Y-64008314D01*
X120422428Y-63968266D01*
X120612729Y-63777965D01*
X120668127Y-63749739D01*
X120683864Y-63748500D01*
X121552225Y-63748499D01*
X121660066Y-63748499D01*
X121695548Y-63741442D01*
X121724584Y-63735667D01*
X121724586Y-63735666D01*
X121734301Y-63733734D01*
X121818484Y-63677484D01*
X121874734Y-63593301D01*
X121889500Y-63519067D01*
X121889499Y-62368934D01*
X121874734Y-62294699D01*
X121869230Y-62286461D01*
X121823988Y-62218753D01*
X121818484Y-62210516D01*
X121734301Y-62154266D01*
X121685063Y-62144472D01*
X121664919Y-62140465D01*
X121664918Y-62140465D01*
X121660067Y-62139500D01*
X121655120Y-62139500D01*
X120909318Y-62139501D01*
X120159934Y-62139501D01*
X120124452Y-62146558D01*
X120095416Y-62152333D01*
X120095414Y-62152334D01*
X120085699Y-62154266D01*
X120001516Y-62210516D01*
X119945266Y-62294699D01*
X119930500Y-62368933D01*
X119930500Y-62373880D01*
X119930501Y-63345135D01*
X119911288Y-63404266D01*
X119901036Y-63416270D01*
X117417871Y-65899435D01*
X117401305Y-65912814D01*
X117391060Y-65919429D01*
X117385913Y-65925959D01*
X117385911Y-65925960D01*
X117369348Y-65946971D01*
X117364170Y-65952799D01*
X117362298Y-65955008D01*
X117359362Y-65957944D01*
X117356951Y-65961318D01*
X117356950Y-65961319D01*
X117347778Y-65974154D01*
X117344932Y-65977943D01*
X117317992Y-66012116D01*
X117317991Y-66012118D01*
X117312844Y-66018647D01*
X117310268Y-66025982D01*
X117309012Y-66028400D01*
X117304486Y-66034734D01*
X117302105Y-66042697D01*
X117302103Y-66042700D01*
X117289621Y-66084439D01*
X117288166Y-66088918D01*
X117270982Y-66137851D01*
X117270500Y-66143416D01*
X117270500Y-66145582D01*
X117270445Y-66146857D01*
X117270244Y-66149234D01*
X117268287Y-66155778D01*
X117268614Y-66164091D01*
X117270422Y-66210119D01*
X117270500Y-66214068D01*
X117270500Y-104734456D01*
X117251287Y-104793587D01*
X117200987Y-104830132D01*
X117138813Y-104830132D01*
X117098765Y-104805591D01*
X117038555Y-104745381D01*
X117025176Y-104728815D01*
X117018561Y-104718570D01*
X117012031Y-104713423D01*
X117012030Y-104713421D01*
X116991019Y-104696858D01*
X116985191Y-104691680D01*
X116982982Y-104689808D01*
X116980046Y-104686872D01*
X116963836Y-104675288D01*
X116960047Y-104672442D01*
X116925874Y-104645502D01*
X116925872Y-104645501D01*
X116919343Y-104640354D01*
X116912008Y-104637778D01*
X116909590Y-104636522D01*
X116903256Y-104631996D01*
X116895293Y-104629615D01*
X116895290Y-104629613D01*
X116853551Y-104617131D01*
X116849072Y-104615676D01*
X116800139Y-104598492D01*
X116794574Y-104598010D01*
X116792408Y-104598010D01*
X116791133Y-104597955D01*
X116788756Y-104597754D01*
X116782212Y-104595797D01*
X116731995Y-104597770D01*
X116727871Y-104597932D01*
X116723922Y-104598010D01*
X116023211Y-104598010D01*
X116002038Y-104595756D01*
X115990114Y-104593189D01*
X115981860Y-104594166D01*
X115981859Y-104594166D01*
X115955273Y-104597313D01*
X115947513Y-104597770D01*
X115944610Y-104598010D01*
X115940466Y-104598010D01*
X115936376Y-104598691D01*
X115936372Y-104598691D01*
X115920852Y-104601274D01*
X115916163Y-104601941D01*
X115872914Y-104607061D01*
X115872910Y-104607062D01*
X115864649Y-104608040D01*
X115857634Y-104611409D01*
X115855043Y-104612228D01*
X115847364Y-104613506D01*
X115801741Y-104638123D01*
X115797516Y-104640276D01*
X115756465Y-104659988D01*
X115756462Y-104659990D01*
X115750758Y-104662729D01*
X115746483Y-104666323D01*
X115744954Y-104667852D01*
X115744009Y-104668719D01*
X115742187Y-104670256D01*
X115736176Y-104673500D01*
X115730532Y-104679606D01*
X115730531Y-104679607D01*
X115699256Y-104713440D01*
X115696518Y-104716288D01*
X115455861Y-104956945D01*
X115439295Y-104970324D01*
X115429050Y-104976939D01*
X115423903Y-104983469D01*
X115423901Y-104983470D01*
X115407338Y-105004481D01*
X115402160Y-105010309D01*
X115400288Y-105012518D01*
X115397352Y-105015454D01*
X115394941Y-105018828D01*
X115394940Y-105018829D01*
X115385768Y-105031664D01*
X115382922Y-105035453D01*
X115355982Y-105069626D01*
X115355981Y-105069628D01*
X115350834Y-105076157D01*
X115348258Y-105083492D01*
X115347002Y-105085910D01*
X115342476Y-105092244D01*
X115340095Y-105100207D01*
X115340093Y-105100210D01*
X115327611Y-105141949D01*
X115326156Y-105146428D01*
X115308972Y-105195361D01*
X115308490Y-105200926D01*
X115308490Y-105203092D01*
X115308435Y-105204367D01*
X115308234Y-105206744D01*
X115306277Y-105213288D01*
X115307941Y-105255622D01*
X115308003Y-105257208D01*
X115291126Y-105317049D01*
X115253762Y-105372967D01*
X115253760Y-105372972D01*
X115248256Y-105381209D01*
X115233490Y-105455443D01*
X115233491Y-106155576D01*
X115234988Y-106163101D01*
X115244884Y-106212855D01*
X115248256Y-106229811D01*
X115253759Y-106238047D01*
X115253761Y-106238051D01*
X115284394Y-106283896D01*
X115301271Y-106343736D01*
X115279752Y-106402067D01*
X115271884Y-106410922D01*
X113806761Y-107876045D01*
X113751363Y-107904271D01*
X113735626Y-107905510D01*
X113225090Y-107905510D01*
X113165959Y-107886297D01*
X113129414Y-107835997D01*
X113124490Y-107804910D01*
X113124489Y-107489577D01*
X113519990Y-107489577D01*
X113524178Y-107502467D01*
X113528367Y-107505510D01*
X113758056Y-107505510D01*
X113770946Y-107501322D01*
X113773989Y-107497133D01*
X113773989Y-107385432D01*
X113773025Y-107375649D01*
X113761186Y-107316124D01*
X113753748Y-107298165D01*
X113708619Y-107230625D01*
X113694875Y-107216881D01*
X113627333Y-107171751D01*
X113609379Y-107164314D01*
X113549859Y-107152475D01*
X113540060Y-107151510D01*
X113535923Y-107151510D01*
X113523033Y-107155698D01*
X113519990Y-107159887D01*
X113519990Y-107489577D01*
X113124489Y-107489577D01*
X113124489Y-107385382D01*
X113124489Y-107380444D01*
X113121923Y-107367542D01*
X113119990Y-107347919D01*
X113119990Y-107167444D01*
X113115802Y-107154554D01*
X113111613Y-107151511D01*
X113100836Y-107151511D01*
X113041705Y-107132298D01*
X113012306Y-107098690D01*
X113009349Y-107093208D01*
X113007223Y-107089037D01*
X112984770Y-107042278D01*
X112981176Y-107038002D01*
X112979643Y-107036469D01*
X112978779Y-107035527D01*
X112977244Y-107033708D01*
X112974000Y-107027696D01*
X112934060Y-106990776D01*
X112931212Y-106988038D01*
X112662565Y-106719391D01*
X112649186Y-106702825D01*
X112648453Y-106701690D01*
X112642571Y-106692580D01*
X112636041Y-106687433D01*
X112636040Y-106687431D01*
X112615029Y-106670868D01*
X112609201Y-106665690D01*
X112606992Y-106663818D01*
X112604056Y-106660882D01*
X112587846Y-106649298D01*
X112584057Y-106646452D01*
X112549884Y-106619512D01*
X112549882Y-106619511D01*
X112543353Y-106614364D01*
X112536018Y-106611788D01*
X112533600Y-106610532D01*
X112527266Y-106606006D01*
X112519303Y-106603625D01*
X112519300Y-106603623D01*
X112477561Y-106591141D01*
X112473082Y-106589686D01*
X112424149Y-106572502D01*
X112418584Y-106572020D01*
X112416418Y-106572020D01*
X112415143Y-106571965D01*
X112412766Y-106571764D01*
X112406222Y-106569807D01*
X112355954Y-106571782D01*
X112351881Y-106571942D01*
X112347932Y-106572020D01*
X111740194Y-106572020D01*
X111719020Y-106569766D01*
X111715231Y-106568950D01*
X111715230Y-106568950D01*
X111707102Y-106567200D01*
X111698848Y-106568177D01*
X111698847Y-106568177D01*
X111672269Y-106571323D01*
X111664477Y-106571782D01*
X111661598Y-106572020D01*
X111657454Y-106572020D01*
X111653364Y-106572701D01*
X111653362Y-106572701D01*
X111637806Y-106575290D01*
X111633114Y-106575958D01*
X111589891Y-106581074D01*
X111581637Y-106582051D01*
X111574629Y-106585416D01*
X111572029Y-106586238D01*
X111564352Y-106587516D01*
X111518678Y-106612160D01*
X111514505Y-106614287D01*
X111467746Y-106636740D01*
X111463470Y-106640334D01*
X111461937Y-106641867D01*
X111460995Y-106642731D01*
X111459176Y-106644266D01*
X111453164Y-106647510D01*
X111447520Y-106653616D01*
X111416244Y-106687450D01*
X111413506Y-106690298D01*
X110691842Y-107411962D01*
X110675276Y-107425341D01*
X110665031Y-107431956D01*
X110659884Y-107438486D01*
X110659882Y-107438487D01*
X110643319Y-107459498D01*
X110638141Y-107465326D01*
X110636269Y-107467535D01*
X110633333Y-107470471D01*
X110630922Y-107473845D01*
X110630921Y-107473846D01*
X110621749Y-107486681D01*
X110618903Y-107490470D01*
X110591963Y-107524643D01*
X110591962Y-107524645D01*
X110586815Y-107531174D01*
X110584239Y-107538509D01*
X110582983Y-107540927D01*
X110578457Y-107547261D01*
X110576076Y-107555224D01*
X110576074Y-107555227D01*
X110563592Y-107596966D01*
X110562137Y-107601445D01*
X110544953Y-107650378D01*
X110544471Y-107655943D01*
X110544471Y-107658109D01*
X110544416Y-107659384D01*
X110544215Y-107661761D01*
X110542258Y-107668305D01*
X110542585Y-107676618D01*
X110544393Y-107722646D01*
X110544471Y-107726595D01*
X110544471Y-113103775D01*
X110542217Y-113124948D01*
X110539651Y-113136867D01*
X110540628Y-113145121D01*
X110540628Y-113145122D01*
X110543774Y-113171701D01*
X110544233Y-113179490D01*
X110544471Y-113182369D01*
X110544471Y-113186515D01*
X110545152Y-113190605D01*
X110545152Y-113190607D01*
X110547739Y-113206151D01*
X110548407Y-113210844D01*
X110553523Y-113254073D01*
X110553524Y-113254076D01*
X110554501Y-113262332D01*
X110557869Y-113269345D01*
X110558690Y-113271940D01*
X110559967Y-113279617D01*
X110584583Y-113325239D01*
X110584584Y-113325240D01*
X110586737Y-113329465D01*
X110595097Y-113346875D01*
X110609190Y-113376223D01*
X110612785Y-113380499D01*
X110614330Y-113382044D01*
X110615181Y-113382972D01*
X110616716Y-113384792D01*
X110619961Y-113390805D01*
X110659900Y-113427724D01*
X110659901Y-113427725D01*
X110662749Y-113430463D01*
X111415025Y-114182739D01*
X111443251Y-114238137D01*
X111444490Y-114253874D01*
X111444491Y-114668562D01*
X111444785Y-114671265D01*
X111444785Y-114671267D01*
X111448749Y-114707762D01*
X111450776Y-114726429D01*
X111498362Y-114853363D01*
X111579660Y-114961840D01*
X111688137Y-115043138D01*
X111694848Y-115045654D01*
X111694850Y-115045655D01*
X111809165Y-115088510D01*
X111815071Y-115090724D01*
X111872937Y-115097010D01*
X112136393Y-115097010D01*
X112400042Y-115097009D01*
X112421448Y-115094684D01*
X112451642Y-115091405D01*
X112451645Y-115091404D01*
X112457909Y-115090724D01*
X112463811Y-115088512D01*
X112463813Y-115088511D01*
X112578130Y-115045655D01*
X112578132Y-115045654D01*
X112584843Y-115043138D01*
X112693320Y-114961840D01*
X112774618Y-114853363D01*
X112822204Y-114726429D01*
X112822885Y-114720160D01*
X112822887Y-114720153D01*
X112824233Y-114707762D01*
X112849720Y-114651052D01*
X112903673Y-114620154D01*
X112965484Y-114626869D01*
X113011542Y-114668634D01*
X113024256Y-114707767D01*
X113025590Y-114720050D01*
X113028484Y-114732224D01*
X113071290Y-114846412D01*
X113078102Y-114858854D01*
X113150719Y-114955746D01*
X113160754Y-114965781D01*
X113257646Y-115038398D01*
X113270088Y-115045210D01*
X113384281Y-115088018D01*
X113396443Y-115090909D01*
X113443170Y-115095986D01*
X113454447Y-115092322D01*
X113457490Y-115088133D01*
X113457490Y-114214110D01*
X113476703Y-114154979D01*
X113527003Y-114118434D01*
X113558090Y-114113510D01*
X113864890Y-114113510D01*
X113924021Y-114132723D01*
X113960566Y-114183023D01*
X113965490Y-114214110D01*
X113965490Y-114982646D01*
X113946277Y-115041777D01*
X113936025Y-115053781D01*
X110887371Y-118102435D01*
X110870805Y-118115814D01*
X110860560Y-118122429D01*
X110855413Y-118128959D01*
X110855411Y-118128960D01*
X110838848Y-118149971D01*
X110833670Y-118155799D01*
X110831798Y-118158008D01*
X110828862Y-118160944D01*
X110826451Y-118164318D01*
X110826450Y-118164319D01*
X110817278Y-118177154D01*
X110814432Y-118180943D01*
X110787492Y-118215116D01*
X110787491Y-118215118D01*
X110782344Y-118221647D01*
X110779768Y-118228982D01*
X110778512Y-118231400D01*
X110773986Y-118237734D01*
X110771605Y-118245697D01*
X110771603Y-118245700D01*
X110759121Y-118287439D01*
X110757666Y-118291918D01*
X110740482Y-118340851D01*
X110740000Y-118346416D01*
X110740000Y-118348582D01*
X110739945Y-118349857D01*
X110739744Y-118352234D01*
X110737787Y-118358778D01*
X110738114Y-118367091D01*
X110739922Y-118413119D01*
X110740000Y-118417068D01*
X110740000Y-123653737D01*
X110720787Y-123712868D01*
X110705534Y-123729543D01*
X110629539Y-123795838D01*
X110538450Y-123925444D01*
X110480906Y-124073037D01*
X110460229Y-124230096D01*
X97654500Y-124230096D01*
X97654500Y-106125588D01*
X111565991Y-106125588D01*
X111566955Y-106135371D01*
X111578794Y-106194896D01*
X111586232Y-106212855D01*
X111631361Y-106280395D01*
X111645105Y-106294139D01*
X111712647Y-106339269D01*
X111730601Y-106346706D01*
X111790121Y-106358545D01*
X111799920Y-106359510D01*
X111804057Y-106359510D01*
X111816947Y-106355322D01*
X111819990Y-106351133D01*
X111819990Y-106021443D01*
X111815802Y-106008553D01*
X111811613Y-106005510D01*
X111581924Y-106005510D01*
X111569034Y-106009698D01*
X111565991Y-106013887D01*
X111565991Y-106125588D01*
X97654500Y-106125588D01*
X97654500Y-102898457D01*
X111190490Y-102898457D01*
X111190491Y-103500562D01*
X111196776Y-103558429D01*
X111198988Y-103564331D01*
X111198989Y-103564333D01*
X111217805Y-103614522D01*
X111244362Y-103685363D01*
X111325660Y-103793840D01*
X111331395Y-103798138D01*
X111331398Y-103798141D01*
X111420441Y-103864874D01*
X111456237Y-103915710D01*
X111455315Y-103977877D01*
X111426245Y-104021181D01*
X111418029Y-104028348D01*
X111326940Y-104157954D01*
X111269396Y-104305547D01*
X111248719Y-104462606D01*
X111249384Y-104468630D01*
X111249384Y-104468634D01*
X111251366Y-104486581D01*
X111266103Y-104620063D01*
X111275412Y-104645502D01*
X111309192Y-104737810D01*
X111320543Y-104768829D01*
X111323929Y-104773868D01*
X111336152Y-104792057D01*
X111408898Y-104900315D01*
X111526066Y-105006929D01*
X111531393Y-105009821D01*
X111531394Y-105009822D01*
X111547983Y-105018829D01*
X111665283Y-105082518D01*
X111686389Y-105088055D01*
X111738709Y-105121643D01*
X111761295Y-105179570D01*
X111745519Y-105239709D01*
X111716752Y-105269008D01*
X111645105Y-105316881D01*
X111631361Y-105330625D01*
X111586231Y-105398167D01*
X111578794Y-105416121D01*
X111566955Y-105475641D01*
X111565990Y-105485440D01*
X111565990Y-105589577D01*
X111570178Y-105602467D01*
X111574367Y-105605510D01*
X112114890Y-105605510D01*
X112174021Y-105624723D01*
X112210566Y-105675023D01*
X112215490Y-105706110D01*
X112215491Y-105926744D01*
X112215491Y-106130576D01*
X112216454Y-106135417D01*
X112216454Y-106135419D01*
X112218057Y-106143476D01*
X112219990Y-106163101D01*
X112219990Y-106343576D01*
X112224178Y-106356466D01*
X112228367Y-106359509D01*
X112240068Y-106359509D01*
X112249851Y-106358545D01*
X112319096Y-106344773D01*
X112319558Y-106347097D01*
X112367780Y-106343300D01*
X112370689Y-106345244D01*
X112421355Y-106355322D01*
X112440071Y-106359045D01*
X112440072Y-106359045D01*
X112444923Y-106360010D01*
X112449870Y-106360010D01*
X112670194Y-106360009D01*
X112895056Y-106360009D01*
X112969291Y-106345244D01*
X112969722Y-106347411D01*
X113018220Y-106343594D01*
X113020689Y-106345244D01*
X113066753Y-106354407D01*
X113090071Y-106359045D01*
X113090072Y-106359045D01*
X113094923Y-106360010D01*
X113099870Y-106360010D01*
X113320194Y-106360009D01*
X113545056Y-106360009D01*
X113580538Y-106352952D01*
X113609574Y-106347177D01*
X113609576Y-106347176D01*
X113619291Y-106345244D01*
X113644991Y-106328072D01*
X113695237Y-106294498D01*
X113703474Y-106288994D01*
X113759724Y-106204811D01*
X113774490Y-106130577D01*
X113774489Y-105480444D01*
X113763674Y-105426068D01*
X113761657Y-105415926D01*
X113761656Y-105415924D01*
X113759724Y-105406209D01*
X113754220Y-105397972D01*
X113754219Y-105397969D01*
X113716445Y-105341437D01*
X113699490Y-105285546D01*
X113699490Y-104020282D01*
X113718703Y-103961151D01*
X113769003Y-103924606D01*
X113773683Y-103923292D01*
X113778909Y-103922724D01*
X113851918Y-103895354D01*
X113899130Y-103877655D01*
X113899132Y-103877654D01*
X113905843Y-103875138D01*
X114014320Y-103793840D01*
X114095618Y-103685363D01*
X114122176Y-103614522D01*
X114140990Y-103564335D01*
X114140990Y-103564334D01*
X114143204Y-103558429D01*
X114149490Y-103500563D01*
X114149489Y-102898458D01*
X114143204Y-102840591D01*
X114140990Y-102834685D01*
X114098135Y-102720370D01*
X114098134Y-102720368D01*
X114095618Y-102713657D01*
X114014320Y-102605180D01*
X113905843Y-102523882D01*
X113899132Y-102521366D01*
X113899130Y-102521365D01*
X113784815Y-102478510D01*
X113784814Y-102478510D01*
X113778909Y-102476296D01*
X113721043Y-102470010D01*
X113457587Y-102470010D01*
X113193938Y-102470011D01*
X113172532Y-102472336D01*
X113142338Y-102475615D01*
X113142335Y-102475616D01*
X113136071Y-102476296D01*
X113130169Y-102478508D01*
X113130167Y-102478509D01*
X113015850Y-102521365D01*
X113015848Y-102521366D01*
X113009137Y-102523882D01*
X112900660Y-102605180D01*
X112819362Y-102713657D01*
X112816846Y-102720368D01*
X112816845Y-102720370D01*
X112780738Y-102816686D01*
X112771776Y-102840591D01*
X112771095Y-102846858D01*
X112771095Y-102846860D01*
X112770002Y-102856923D01*
X112744516Y-102913634D01*
X112690564Y-102944534D01*
X112628754Y-102937820D01*
X112582694Y-102896057D01*
X112569978Y-102856924D01*
X112568885Y-102846858D01*
X112568884Y-102846855D01*
X112568204Y-102840591D01*
X112565990Y-102834685D01*
X112523135Y-102720370D01*
X112523134Y-102720368D01*
X112520618Y-102713657D01*
X112439320Y-102605180D01*
X112330843Y-102523882D01*
X112324132Y-102521366D01*
X112324130Y-102521365D01*
X112209815Y-102478510D01*
X112209814Y-102478510D01*
X112203909Y-102476296D01*
X112146043Y-102470010D01*
X111882587Y-102470010D01*
X111618938Y-102470011D01*
X111597532Y-102472336D01*
X111567338Y-102475615D01*
X111567335Y-102475616D01*
X111561071Y-102476296D01*
X111555169Y-102478508D01*
X111555167Y-102478509D01*
X111440850Y-102521365D01*
X111440848Y-102521366D01*
X111434137Y-102523882D01*
X111325660Y-102605180D01*
X111244362Y-102713657D01*
X111241846Y-102720368D01*
X111241845Y-102720370D01*
X111205738Y-102816686D01*
X111196776Y-102840591D01*
X111190490Y-102898457D01*
X97654500Y-102898457D01*
X97654500Y-96503572D01*
X98571562Y-96503572D01*
X98572024Y-96506489D01*
X98574254Y-96509287D01*
X98628323Y-96554496D01*
X98633858Y-96558517D01*
X98876842Y-96710941D01*
X98882870Y-96714173D01*
X99144305Y-96832216D01*
X99150701Y-96834595D01*
X99425727Y-96916060D01*
X99432421Y-96917556D01*
X99715943Y-96960942D01*
X99722764Y-96961515D01*
X100009571Y-96966020D01*
X100016401Y-96965662D01*
X100301163Y-96931202D01*
X100307872Y-96929923D01*
X100585332Y-96857132D01*
X100591808Y-96854952D01*
X100856813Y-96745184D01*
X100862941Y-96742142D01*
X101110595Y-96597425D01*
X101116255Y-96593579D01*
X101220366Y-96511945D01*
X101227925Y-96500695D01*
X101227848Y-96498590D01*
X101225146Y-96494356D01*
X99911268Y-95180478D01*
X99899189Y-95174323D01*
X99894077Y-95175133D01*
X98577717Y-96491493D01*
X98571562Y-96503572D01*
X97654500Y-96503572D01*
X97654500Y-95505779D01*
X97673713Y-95446648D01*
X97724013Y-95410103D01*
X97786187Y-95410103D01*
X97836487Y-95446648D01*
X97850276Y-95473193D01*
X97908558Y-95643420D01*
X97911204Y-95649715D01*
X98040092Y-95905979D01*
X98043570Y-95911860D01*
X98195587Y-96133046D01*
X98206340Y-96141297D01*
X98206743Y-96141308D01*
X98213505Y-96137285D01*
X99529522Y-94821268D01*
X99534850Y-94810811D01*
X100264323Y-94810811D01*
X100265133Y-94815923D01*
X101581714Y-96132504D01*
X101593793Y-96138659D01*
X101595034Y-96138462D01*
X101599951Y-96134285D01*
X101720907Y-95969624D01*
X101724564Y-95963862D01*
X101861434Y-95711779D01*
X101864283Y-95705556D01*
X101965672Y-95437238D01*
X101967650Y-95430685D01*
X102031689Y-95151080D01*
X102032756Y-95144342D01*
X102058383Y-94857182D01*
X102058580Y-94853232D01*
X102059012Y-94811974D01*
X102058899Y-94808036D01*
X102039289Y-94520396D01*
X102038364Y-94513640D01*
X101980196Y-94232752D01*
X101978355Y-94226161D01*
X101882604Y-93955767D01*
X101879894Y-93949506D01*
X101748333Y-93694610D01*
X101744788Y-93688757D01*
X101603576Y-93487832D01*
X101592738Y-93479694D01*
X101592049Y-93479684D01*
X101585711Y-93483499D01*
X100270478Y-94798732D01*
X100264323Y-94810811D01*
X99534850Y-94810811D01*
X99535677Y-94809189D01*
X99534867Y-94804077D01*
X98217656Y-93486866D01*
X98205577Y-93480711D01*
X98204618Y-93480863D01*
X98199362Y-93485376D01*
X98067050Y-93669507D01*
X98063453Y-93675308D01*
X97929224Y-93928823D01*
X97926450Y-93935052D01*
X97849573Y-94145129D01*
X97811209Y-94194056D01*
X97751414Y-94211089D01*
X97693026Y-94189723D01*
X97658349Y-94138117D01*
X97654500Y-94110557D01*
X97654500Y-93119205D01*
X98572041Y-93119205D01*
X98572154Y-93121591D01*
X98574619Y-93125409D01*
X99888732Y-94439522D01*
X99900811Y-94445677D01*
X99905923Y-94444867D01*
X101221900Y-93128890D01*
X101228055Y-93116811D01*
X101227637Y-93114173D01*
X101225087Y-93111008D01*
X101153338Y-93052282D01*
X101147769Y-93048324D01*
X100903190Y-92898446D01*
X100897137Y-92895281D01*
X100634479Y-92779982D01*
X100628051Y-92777668D01*
X100352188Y-92699087D01*
X100345491Y-92697663D01*
X100061511Y-92657247D01*
X100054709Y-92656747D01*
X99767853Y-92655245D01*
X99761037Y-92655674D01*
X99476650Y-92693115D01*
X99469944Y-92694467D01*
X99193274Y-92770155D01*
X99186813Y-92772405D01*
X98922973Y-92884943D01*
X98916876Y-92888050D01*
X98670751Y-93035353D01*
X98665137Y-93039254D01*
X98579484Y-93107875D01*
X98572041Y-93119205D01*
X97654500Y-93119205D01*
X97654500Y-59514078D01*
X119931001Y-59514078D01*
X119931965Y-59523861D01*
X119943804Y-59583386D01*
X119951242Y-59601345D01*
X119996371Y-59668885D01*
X120010115Y-59682629D01*
X120077657Y-59727759D01*
X120095611Y-59735196D01*
X120155131Y-59747035D01*
X120164930Y-59748000D01*
X120640067Y-59748000D01*
X120652957Y-59743812D01*
X120656000Y-59739623D01*
X120656000Y-59732066D01*
X121164000Y-59732066D01*
X121168188Y-59744956D01*
X121172377Y-59747999D01*
X121655078Y-59747999D01*
X121664861Y-59747035D01*
X121724386Y-59735196D01*
X121742345Y-59727758D01*
X121809885Y-59682629D01*
X121823629Y-59668885D01*
X121868759Y-59601343D01*
X121876196Y-59583389D01*
X121888035Y-59523869D01*
X121889000Y-59514070D01*
X121889000Y-59213933D01*
X121884812Y-59201043D01*
X121880623Y-59198000D01*
X121179933Y-59198000D01*
X121167043Y-59202188D01*
X121164000Y-59206377D01*
X121164000Y-59732066D01*
X120656000Y-59732066D01*
X120656000Y-59213933D01*
X120651812Y-59201043D01*
X120647623Y-59198000D01*
X119946934Y-59198000D01*
X119934044Y-59202188D01*
X119931001Y-59206377D01*
X119931001Y-59514078D01*
X97654500Y-59514078D01*
X97654500Y-58861944D01*
X132145183Y-58861944D01*
X132145362Y-58865674D01*
X132145362Y-58865679D01*
X132151697Y-58997562D01*
X132157694Y-59122419D01*
X132208569Y-59378185D01*
X132209831Y-59381700D01*
X132256970Y-59512991D01*
X132296690Y-59623621D01*
X132420120Y-59853336D01*
X132422350Y-59856322D01*
X132422353Y-59856327D01*
X132506980Y-59969655D01*
X132576149Y-60062283D01*
X132761348Y-60245873D01*
X132858239Y-60316917D01*
X132968641Y-60397868D01*
X132968646Y-60397871D01*
X132971649Y-60400073D01*
X132974947Y-60401808D01*
X133199127Y-60519755D01*
X133199131Y-60519757D01*
X133202433Y-60521494D01*
X133205960Y-60522726D01*
X133205963Y-60522727D01*
X133443712Y-60605752D01*
X133448629Y-60607469D01*
X133704828Y-60656110D01*
X133708557Y-60656256D01*
X133708561Y-60656257D01*
X133874618Y-60662781D01*
X133965403Y-60666348D01*
X134058885Y-60656110D01*
X134220916Y-60638365D01*
X134220921Y-60638364D01*
X134224629Y-60637958D01*
X134359665Y-60602406D01*
X134473204Y-60572514D01*
X134473208Y-60572512D01*
X134476811Y-60571564D01*
X134716410Y-60468625D01*
X134938161Y-60331401D01*
X134949425Y-60321866D01*
X134956707Y-60315701D01*
X142421434Y-60315701D01*
X142421627Y-60316917D01*
X142425835Y-60321866D01*
X142528907Y-60397442D01*
X142535213Y-60401382D01*
X142759327Y-60519294D01*
X142766163Y-60522266D01*
X143005231Y-60605752D01*
X143012425Y-60607680D01*
X143261220Y-60654915D01*
X143268618Y-60655758D01*
X143521648Y-60665700D01*
X143529100Y-60665440D01*
X143780824Y-60637872D01*
X143788148Y-60636514D01*
X144033037Y-60572041D01*
X144040083Y-60569614D01*
X144272749Y-60469652D01*
X144279346Y-60466219D01*
X144494695Y-60332957D01*
X144500715Y-60328583D01*
X144501908Y-60327573D01*
X144509039Y-60316049D01*
X144508808Y-60312938D01*
X144506984Y-60310195D01*
X143475268Y-59278478D01*
X143463189Y-59272323D01*
X143458077Y-59273133D01*
X142427589Y-60303622D01*
X142421434Y-60315701D01*
X134956707Y-60315701D01*
X135134339Y-60165324D01*
X135137194Y-60162907D01*
X135223138Y-60064906D01*
X135306671Y-59969655D01*
X135306673Y-59969653D01*
X135309135Y-59966845D01*
X135311153Y-59963707D01*
X135311158Y-59963701D01*
X135448183Y-59750672D01*
X135448186Y-59750667D01*
X135450208Y-59747523D01*
X135451743Y-59744116D01*
X135451746Y-59744110D01*
X135555780Y-59513163D01*
X135555781Y-59513160D01*
X135557314Y-59509757D01*
X135595494Y-59374380D01*
X135627086Y-59262365D01*
X135627087Y-59262361D01*
X135628099Y-59258772D01*
X135628570Y-59255071D01*
X135660691Y-59002582D01*
X135660691Y-59002579D01*
X135661009Y-59000081D01*
X135663420Y-58908000D01*
X135660276Y-58865692D01*
X141705864Y-58865692D01*
X141718014Y-59118632D01*
X141718921Y-59126016D01*
X141768323Y-59374380D01*
X141770318Y-59381574D01*
X141855885Y-59619897D01*
X141858915Y-59626705D01*
X141978778Y-59849779D01*
X141982777Y-59856057D01*
X142047610Y-59942878D01*
X142058680Y-59950701D01*
X142060149Y-59950682D01*
X142065327Y-59947462D01*
X143093522Y-58919268D01*
X143098850Y-58908811D01*
X143828323Y-58908811D01*
X143829133Y-58913923D01*
X144862563Y-59947352D01*
X144874417Y-59953392D01*
X144881055Y-59947389D01*
X145007744Y-59750427D01*
X145011305Y-59743869D01*
X145115308Y-59512991D01*
X145117855Y-59505992D01*
X145186594Y-59262264D01*
X145188078Y-59254972D01*
X145220189Y-59002557D01*
X145220573Y-58997535D01*
X145222852Y-58910522D01*
X145222730Y-58905476D01*
X145203875Y-58651744D01*
X145202773Y-58644368D01*
X145146887Y-58397387D01*
X145144708Y-58390261D01*
X145052928Y-58154248D01*
X145049722Y-58147526D01*
X144924061Y-57927667D01*
X144919894Y-57921490D01*
X144881192Y-57872396D01*
X144869922Y-57864865D01*
X144867746Y-57864951D01*
X144863617Y-57867594D01*
X143834478Y-58896732D01*
X143828323Y-58908811D01*
X143098850Y-58908811D01*
X143099677Y-58907189D01*
X143098867Y-58902077D01*
X142066618Y-57869829D01*
X142054539Y-57863674D01*
X142051692Y-57864125D01*
X142048801Y-57866435D01*
X142034425Y-57883720D01*
X142030101Y-57889783D01*
X141898730Y-58106276D01*
X141895348Y-58112914D01*
X141797423Y-58346437D01*
X141795057Y-58353507D01*
X141732722Y-58598951D01*
X141731430Y-58606280D01*
X141706059Y-58858239D01*
X141705864Y-58865692D01*
X135660276Y-58865692D01*
X135644094Y-58647941D01*
X135634668Y-58606280D01*
X135587367Y-58397240D01*
X135587366Y-58397237D01*
X135586542Y-58393595D01*
X135585192Y-58390122D01*
X135585189Y-58390114D01*
X135493381Y-58154032D01*
X135492027Y-58150550D01*
X135362625Y-57924145D01*
X135201180Y-57719353D01*
X135165517Y-57685804D01*
X135013957Y-57543231D01*
X135011239Y-57540674D01*
X135008182Y-57538554D01*
X135008178Y-57538550D01*
X134953518Y-57500631D01*
X142419005Y-57500631D01*
X142423379Y-57508169D01*
X143452732Y-58537522D01*
X143464811Y-58543677D01*
X143469923Y-58542867D01*
X144501087Y-57511702D01*
X144507242Y-57499623D01*
X144507160Y-57499109D01*
X144502114Y-57493329D01*
X144359782Y-57394591D01*
X144353368Y-57390813D01*
X144126254Y-57278813D01*
X144119345Y-57276021D01*
X143878168Y-57198820D01*
X143870927Y-57197081D01*
X143620990Y-57156376D01*
X143613558Y-57155726D01*
X143360352Y-57152412D01*
X143352926Y-57152866D01*
X143102002Y-57187015D01*
X143094714Y-57188564D01*
X142851593Y-57259427D01*
X142844627Y-57262031D01*
X142614653Y-57368052D01*
X142608135Y-57371665D01*
X142427419Y-57490148D01*
X142419005Y-57500631D01*
X134953518Y-57500631D01*
X134894977Y-57460020D01*
X134796973Y-57392032D01*
X134563090Y-57276694D01*
X134559538Y-57275557D01*
X134559533Y-57275555D01*
X134438909Y-57236943D01*
X134314728Y-57197193D01*
X134057344Y-57155275D01*
X134053602Y-57155226D01*
X134024905Y-57154850D01*
X133796590Y-57151862D01*
X133686620Y-57166828D01*
X133541898Y-57186524D01*
X133541896Y-57186524D01*
X133538196Y-57187028D01*
X133534613Y-57188072D01*
X133534610Y-57188073D01*
X133503705Y-57197081D01*
X133287838Y-57260000D01*
X133284456Y-57261559D01*
X133284451Y-57261561D01*
X133127314Y-57334003D01*
X133051016Y-57369177D01*
X133047895Y-57371223D01*
X133047890Y-57371226D01*
X133012253Y-57394591D01*
X132832933Y-57512158D01*
X132638379Y-57685804D01*
X132635987Y-57688680D01*
X132474016Y-57883429D01*
X132474011Y-57883436D01*
X132471629Y-57886300D01*
X132336345Y-58109240D01*
X132235500Y-58349728D01*
X132202684Y-58478943D01*
X132186450Y-58542867D01*
X132171310Y-58602480D01*
X132170936Y-58606191D01*
X132170936Y-58606193D01*
X132163341Y-58681623D01*
X132145183Y-58861944D01*
X97654500Y-58861944D01*
X97654500Y-58674067D01*
X119931000Y-58674067D01*
X119935188Y-58686957D01*
X119939377Y-58690000D01*
X120640067Y-58690000D01*
X120652957Y-58685812D01*
X120656000Y-58681623D01*
X120656000Y-58674067D01*
X121164000Y-58674067D01*
X121168188Y-58686957D01*
X121172377Y-58690000D01*
X121873066Y-58690000D01*
X121885956Y-58685812D01*
X121888999Y-58681623D01*
X121888999Y-58373922D01*
X121888035Y-58364139D01*
X121876196Y-58304614D01*
X121868758Y-58286655D01*
X121823629Y-58219115D01*
X121809885Y-58205371D01*
X121742343Y-58160241D01*
X121724389Y-58152804D01*
X121664869Y-58140965D01*
X121655070Y-58140000D01*
X121179933Y-58140000D01*
X121167043Y-58144188D01*
X121164000Y-58148377D01*
X121164000Y-58674067D01*
X120656000Y-58674067D01*
X120656000Y-58155934D01*
X120651812Y-58143044D01*
X120647623Y-58140001D01*
X120164922Y-58140001D01*
X120155139Y-58140965D01*
X120095614Y-58152804D01*
X120077655Y-58160242D01*
X120010115Y-58205371D01*
X119996371Y-58219115D01*
X119951241Y-58286657D01*
X119943804Y-58304611D01*
X119931965Y-58364131D01*
X119931000Y-58373930D01*
X119931000Y-58674067D01*
X97654500Y-58674067D01*
X97654500Y-49503572D01*
X98571562Y-49503572D01*
X98572024Y-49506489D01*
X98574254Y-49509287D01*
X98628323Y-49554496D01*
X98633858Y-49558517D01*
X98876842Y-49710941D01*
X98882870Y-49714173D01*
X99144305Y-49832216D01*
X99150701Y-49834595D01*
X99425727Y-49916060D01*
X99432421Y-49917556D01*
X99715943Y-49960942D01*
X99722764Y-49961515D01*
X100009571Y-49966020D01*
X100016401Y-49965662D01*
X100301163Y-49931202D01*
X100307872Y-49929923D01*
X100585332Y-49857132D01*
X100591808Y-49854952D01*
X100856813Y-49745184D01*
X100862941Y-49742142D01*
X101110595Y-49597425D01*
X101116255Y-49593579D01*
X101220366Y-49511945D01*
X101227925Y-49500695D01*
X101227848Y-49498590D01*
X101225146Y-49494356D01*
X99911268Y-48180478D01*
X99899189Y-48174323D01*
X99894077Y-48175133D01*
X98577717Y-49491493D01*
X98571562Y-49503572D01*
X97654500Y-49503572D01*
X97654500Y-48505779D01*
X97673713Y-48446648D01*
X97724013Y-48410103D01*
X97786187Y-48410103D01*
X97836487Y-48446648D01*
X97850276Y-48473193D01*
X97908558Y-48643420D01*
X97911204Y-48649715D01*
X98040092Y-48905979D01*
X98043570Y-48911860D01*
X98195587Y-49133046D01*
X98206340Y-49141297D01*
X98206743Y-49141308D01*
X98213505Y-49137285D01*
X99529522Y-47821268D01*
X99534850Y-47810811D01*
X100264323Y-47810811D01*
X100265133Y-47815923D01*
X101581714Y-49132504D01*
X101593793Y-49138659D01*
X101595034Y-49138462D01*
X101599951Y-49134285D01*
X101720907Y-48969624D01*
X101724564Y-48963862D01*
X101861434Y-48711779D01*
X101864283Y-48705556D01*
X101965672Y-48437238D01*
X101967650Y-48430685D01*
X102031227Y-48153096D01*
X117900729Y-48153096D01*
X117901394Y-48159120D01*
X117901394Y-48159124D01*
X117904480Y-48187071D01*
X117918113Y-48310553D01*
X117929124Y-48340641D01*
X117964473Y-48437238D01*
X117972553Y-48459319D01*
X117975939Y-48464358D01*
X117990229Y-48485623D01*
X118060908Y-48590805D01*
X118178076Y-48697419D01*
X118317293Y-48773008D01*
X118470522Y-48813207D01*
X118471644Y-48813225D01*
X118527460Y-48840931D01*
X120376035Y-50689506D01*
X120404261Y-50744904D01*
X120405500Y-50760641D01*
X120405500Y-54038901D01*
X120386287Y-54098032D01*
X120335987Y-54134577D01*
X120304900Y-54139501D01*
X120159934Y-54139501D01*
X120124452Y-54146558D01*
X120095416Y-54152333D01*
X120095414Y-54152334D01*
X120085699Y-54154266D01*
X120001516Y-54210516D01*
X119945266Y-54294699D01*
X119930500Y-54368933D01*
X119930501Y-55519066D01*
X119945266Y-55593301D01*
X120001516Y-55677484D01*
X120085699Y-55733734D01*
X120134239Y-55743389D01*
X120155081Y-55747535D01*
X120155082Y-55747535D01*
X120159933Y-55748500D01*
X120188057Y-55748500D01*
X121325938Y-55748499D01*
X121385068Y-55767712D01*
X121421613Y-55818012D01*
X121421613Y-55880186D01*
X121397072Y-55920234D01*
X121207271Y-56110035D01*
X121151873Y-56138261D01*
X121136136Y-56139500D01*
X120267775Y-56139501D01*
X120159934Y-56139501D01*
X120124452Y-56146558D01*
X120095416Y-56152333D01*
X120095414Y-56152334D01*
X120085699Y-56154266D01*
X120001516Y-56210516D01*
X119945266Y-56294699D01*
X119930500Y-56368933D01*
X119930501Y-57519066D01*
X119945266Y-57593301D01*
X119950769Y-57601536D01*
X119950769Y-57601537D01*
X119996012Y-57669247D01*
X120001516Y-57677484D01*
X120009753Y-57682988D01*
X120018272Y-57688680D01*
X120085699Y-57733734D01*
X120134239Y-57743389D01*
X120155081Y-57747535D01*
X120155082Y-57747535D01*
X120159933Y-57748500D01*
X120164880Y-57748500D01*
X120910682Y-57748499D01*
X121660066Y-57748499D01*
X121695548Y-57741442D01*
X121724584Y-57735667D01*
X121724586Y-57735666D01*
X121734301Y-57733734D01*
X121755824Y-57719353D01*
X121810247Y-57682988D01*
X121818484Y-57677484D01*
X121874734Y-57593301D01*
X121889500Y-57519067D01*
X121889499Y-56542865D01*
X121908712Y-56483734D01*
X121918964Y-56471730D01*
X123402129Y-54988565D01*
X123418695Y-54975186D01*
X123428940Y-54968571D01*
X123450652Y-54941029D01*
X123455830Y-54935201D01*
X123457702Y-54932992D01*
X123460638Y-54930056D01*
X123472222Y-54913846D01*
X123475068Y-54910057D01*
X123502008Y-54875884D01*
X123502009Y-54875882D01*
X123507156Y-54869353D01*
X123509732Y-54862018D01*
X123510988Y-54859600D01*
X123515514Y-54853266D01*
X123517895Y-54845303D01*
X123517897Y-54845300D01*
X123530379Y-54803561D01*
X123531834Y-54799082D01*
X123549018Y-54750149D01*
X123549500Y-54744584D01*
X123549500Y-54742418D01*
X123549555Y-54741143D01*
X123549756Y-54738766D01*
X123551713Y-54732222D01*
X123549578Y-54677881D01*
X123549500Y-54673932D01*
X123549500Y-51348933D01*
X125180500Y-51348933D01*
X125180501Y-52749066D01*
X125195266Y-52823301D01*
X125200769Y-52831536D01*
X125200769Y-52831537D01*
X125246012Y-52899247D01*
X125251516Y-52907484D01*
X125335699Y-52963734D01*
X125384239Y-52973389D01*
X125405081Y-52977535D01*
X125405082Y-52977535D01*
X125409933Y-52978500D01*
X125414880Y-52978500D01*
X126886343Y-52978499D01*
X128360066Y-52978499D01*
X128395548Y-52971442D01*
X128424584Y-52965667D01*
X128424586Y-52965666D01*
X128434301Y-52963734D01*
X128518484Y-52907484D01*
X128574734Y-52823301D01*
X128589500Y-52749067D01*
X128589499Y-51348934D01*
X128574734Y-51274699D01*
X128569230Y-51266461D01*
X128523988Y-51198753D01*
X128518484Y-51190516D01*
X128434301Y-51134266D01*
X128385761Y-51124611D01*
X128364919Y-51120465D01*
X128364918Y-51120465D01*
X128360067Y-51119500D01*
X128355120Y-51119500D01*
X126883658Y-51119501D01*
X125409934Y-51119501D01*
X125374452Y-51126558D01*
X125345416Y-51132333D01*
X125345414Y-51132334D01*
X125335699Y-51134266D01*
X125251516Y-51190516D01*
X125195266Y-51274699D01*
X125180500Y-51348933D01*
X123549500Y-51348933D01*
X123549500Y-49503572D01*
X137071562Y-49503572D01*
X137072024Y-49506489D01*
X137074254Y-49509287D01*
X137128323Y-49554496D01*
X137133858Y-49558517D01*
X137376842Y-49710941D01*
X137382870Y-49714173D01*
X137644305Y-49832216D01*
X137650701Y-49834595D01*
X137925727Y-49916060D01*
X137932421Y-49917556D01*
X138215943Y-49960942D01*
X138222764Y-49961515D01*
X138509571Y-49966020D01*
X138516401Y-49965662D01*
X138801163Y-49931202D01*
X138807872Y-49929923D01*
X139085332Y-49857132D01*
X139091808Y-49854952D01*
X139356813Y-49745184D01*
X139362941Y-49742142D01*
X139610595Y-49597425D01*
X139616255Y-49593579D01*
X139720366Y-49511945D01*
X139725992Y-49503572D01*
X175571562Y-49503572D01*
X175572024Y-49506489D01*
X175574254Y-49509287D01*
X175628323Y-49554496D01*
X175633858Y-49558517D01*
X175876842Y-49710941D01*
X175882870Y-49714173D01*
X176144305Y-49832216D01*
X176150701Y-49834595D01*
X176425727Y-49916060D01*
X176432421Y-49917556D01*
X176715943Y-49960942D01*
X176722764Y-49961515D01*
X177009571Y-49966020D01*
X177016401Y-49965662D01*
X177301163Y-49931202D01*
X177307872Y-49929923D01*
X177585332Y-49857132D01*
X177591808Y-49854952D01*
X177856813Y-49745184D01*
X177862941Y-49742142D01*
X178110595Y-49597425D01*
X178116255Y-49593579D01*
X178220366Y-49511945D01*
X178227925Y-49500695D01*
X178227848Y-49498590D01*
X178225146Y-49494356D01*
X176911268Y-48180478D01*
X176899189Y-48174323D01*
X176894077Y-48175133D01*
X175577717Y-49491493D01*
X175571562Y-49503572D01*
X139725992Y-49503572D01*
X139727925Y-49500695D01*
X139727848Y-49498590D01*
X139725146Y-49494356D01*
X138411268Y-48180478D01*
X138399189Y-48174323D01*
X138394077Y-48175133D01*
X137077717Y-49491493D01*
X137071562Y-49503572D01*
X123549500Y-49503572D01*
X123549500Y-48753021D01*
X123568713Y-48693890D01*
X123584765Y-48676524D01*
X123650705Y-48620206D01*
X123650707Y-48620204D01*
X123655314Y-48616269D01*
X123730118Y-48512169D01*
X123744218Y-48492547D01*
X123744220Y-48492544D01*
X123747755Y-48487624D01*
X123753557Y-48473193D01*
X123794217Y-48372046D01*
X123806842Y-48340641D01*
X123829162Y-48183807D01*
X123829307Y-48170000D01*
X123827262Y-48153096D01*
X123811005Y-48018755D01*
X123811004Y-48018753D01*
X123810276Y-48012733D01*
X123806498Y-48002733D01*
X123756425Y-47870222D01*
X123756424Y-47870221D01*
X123754280Y-47864546D01*
X123703609Y-47790819D01*
X136241283Y-47790819D01*
X136257795Y-48077176D01*
X136258652Y-48083962D01*
X136313874Y-48365433D01*
X136315646Y-48372046D01*
X136408558Y-48643420D01*
X136411204Y-48649715D01*
X136540092Y-48905979D01*
X136543570Y-48911860D01*
X136695587Y-49133046D01*
X136706340Y-49141297D01*
X136706743Y-49141308D01*
X136713505Y-49137285D01*
X138029522Y-47821268D01*
X138034850Y-47810811D01*
X138764323Y-47810811D01*
X138765133Y-47815923D01*
X140081714Y-49132504D01*
X140093793Y-49138659D01*
X140095034Y-49138462D01*
X140099951Y-49134285D01*
X140220907Y-48969624D01*
X140224564Y-48963862D01*
X140361434Y-48711779D01*
X140364283Y-48705556D01*
X140465672Y-48437238D01*
X140467650Y-48430685D01*
X140531689Y-48151080D01*
X140532756Y-48144342D01*
X140558383Y-47857182D01*
X140558580Y-47853232D01*
X140559012Y-47811974D01*
X140558899Y-47808036D01*
X140557725Y-47790819D01*
X174741283Y-47790819D01*
X174757795Y-48077176D01*
X174758652Y-48083962D01*
X174813874Y-48365433D01*
X174815646Y-48372046D01*
X174908558Y-48643420D01*
X174911204Y-48649715D01*
X175040092Y-48905979D01*
X175043570Y-48911860D01*
X175195587Y-49133046D01*
X175206340Y-49141297D01*
X175206743Y-49141308D01*
X175213505Y-49137285D01*
X176529522Y-47821268D01*
X176535677Y-47809189D01*
X176534867Y-47804077D01*
X175217656Y-46486866D01*
X175205577Y-46480711D01*
X175204618Y-46480863D01*
X175199362Y-46485376D01*
X175067050Y-46669507D01*
X175063453Y-46675308D01*
X174929224Y-46928823D01*
X174926450Y-46935052D01*
X174827870Y-47204435D01*
X174825965Y-47210991D01*
X174764857Y-47491258D01*
X174763859Y-47498015D01*
X174741354Y-47783970D01*
X174741283Y-47790819D01*
X140557725Y-47790819D01*
X140539289Y-47520396D01*
X140538364Y-47513640D01*
X140480196Y-47232752D01*
X140478355Y-47226161D01*
X140382604Y-46955767D01*
X140379894Y-46949506D01*
X140248333Y-46694610D01*
X140244788Y-46688757D01*
X140103576Y-46487832D01*
X140092738Y-46479694D01*
X140092049Y-46479684D01*
X140085711Y-46483499D01*
X138770478Y-47798732D01*
X138764323Y-47810811D01*
X138034850Y-47810811D01*
X138035677Y-47809189D01*
X138034867Y-47804077D01*
X136717656Y-46486866D01*
X136705577Y-46480711D01*
X136704618Y-46480863D01*
X136699362Y-46485376D01*
X136567050Y-46669507D01*
X136563453Y-46675308D01*
X136429224Y-46928823D01*
X136426450Y-46935052D01*
X136327870Y-47204435D01*
X136325965Y-47210991D01*
X136264857Y-47491258D01*
X136263859Y-47498015D01*
X136241354Y-47783970D01*
X136241283Y-47790819D01*
X123703609Y-47790819D01*
X123664553Y-47733992D01*
X123546275Y-47628611D01*
X123406274Y-47554484D01*
X123252633Y-47515892D01*
X123246576Y-47515860D01*
X123246574Y-47515860D01*
X123169450Y-47515456D01*
X123094221Y-47515062D01*
X123088324Y-47516478D01*
X123088322Y-47516478D01*
X122970253Y-47544824D01*
X122940184Y-47552043D01*
X122934798Y-47554823D01*
X122934795Y-47554824D01*
X122816710Y-47615773D01*
X122799414Y-47624700D01*
X122739727Y-47676769D01*
X122696073Y-47714851D01*
X122680039Y-47728838D01*
X122588950Y-47858444D01*
X122531406Y-48006037D01*
X122510729Y-48163096D01*
X122511394Y-48169120D01*
X122511394Y-48169124D01*
X122513376Y-48187071D01*
X122528113Y-48320553D01*
X122530197Y-48326247D01*
X122578894Y-48459319D01*
X122582553Y-48469319D01*
X122585939Y-48474358D01*
X122660804Y-48585768D01*
X122670908Y-48600805D01*
X122687903Y-48616269D01*
X122757605Y-48679693D01*
X122788410Y-48733699D01*
X122790500Y-48754100D01*
X122790500Y-54485136D01*
X122771287Y-54544267D01*
X122761035Y-54556271D01*
X122061235Y-55256071D01*
X122005837Y-55284297D01*
X121944429Y-55274571D01*
X121900465Y-55230607D01*
X121889500Y-55184936D01*
X121889499Y-54373872D01*
X121889499Y-54368934D01*
X121874734Y-54294699D01*
X121869230Y-54286461D01*
X121823988Y-54218753D01*
X121818484Y-54210516D01*
X121734301Y-54154266D01*
X121685761Y-54144611D01*
X121664919Y-54140465D01*
X121664918Y-54140465D01*
X121660067Y-54139500D01*
X121515100Y-54139500D01*
X121455969Y-54120287D01*
X121419424Y-54069987D01*
X121414500Y-54038900D01*
X121414500Y-50577786D01*
X121415927Y-50565012D01*
X121415889Y-50565009D01*
X121416463Y-50557871D01*
X121418046Y-50550877D01*
X121414693Y-50496829D01*
X121414500Y-50490600D01*
X121414500Y-50473774D01*
X121413993Y-50470234D01*
X121413992Y-50470220D01*
X121412890Y-50462526D01*
X121412067Y-50454497D01*
X121409542Y-50413797D01*
X121409542Y-50413796D01*
X121409098Y-50406642D01*
X121405614Y-50396991D01*
X121400655Y-50377099D01*
X121400217Y-50374040D01*
X121400216Y-50374038D01*
X121399201Y-50366948D01*
X121379354Y-50323297D01*
X121376313Y-50315827D01*
X121362463Y-50277461D01*
X121360028Y-50270716D01*
X121353979Y-50262436D01*
X121343634Y-50244733D01*
X121342355Y-50241920D01*
X121342354Y-50241918D01*
X121339388Y-50235395D01*
X121308080Y-50199061D01*
X121303072Y-50192753D01*
X121296817Y-50184190D01*
X121296813Y-50184186D01*
X121294527Y-50181056D01*
X121282994Y-50169523D01*
X121277918Y-50164056D01*
X121249733Y-50131345D01*
X121249730Y-50131342D01*
X121245056Y-50125918D01*
X121239041Y-50122019D01*
X121237858Y-50121252D01*
X121221441Y-50107970D01*
X119236413Y-48122942D01*
X119207677Y-48063893D01*
X119206660Y-48055490D01*
X119200276Y-48002733D01*
X119144280Y-47854546D01*
X119054553Y-47723992D01*
X118936275Y-47618611D01*
X118796274Y-47544484D01*
X118642633Y-47505892D01*
X118636576Y-47505860D01*
X118636574Y-47505860D01*
X118559450Y-47505456D01*
X118484221Y-47505062D01*
X118478324Y-47506478D01*
X118478322Y-47506478D01*
X118420350Y-47520396D01*
X118330184Y-47542043D01*
X118324798Y-47544823D01*
X118324795Y-47544824D01*
X118194802Y-47611919D01*
X118189414Y-47614700D01*
X118070039Y-47718838D01*
X117978950Y-47848444D01*
X117921406Y-47996037D01*
X117900729Y-48153096D01*
X102031227Y-48153096D01*
X102031689Y-48151080D01*
X102032756Y-48144342D01*
X102058383Y-47857182D01*
X102058580Y-47853232D01*
X102059012Y-47811974D01*
X102058899Y-47808036D01*
X102039289Y-47520396D01*
X102038364Y-47513640D01*
X101980196Y-47232752D01*
X101978355Y-47226161D01*
X101882604Y-46955767D01*
X101879894Y-46949506D01*
X101748333Y-46694610D01*
X101744788Y-46688757D01*
X101603576Y-46487832D01*
X101592738Y-46479694D01*
X101592049Y-46479684D01*
X101585711Y-46483499D01*
X100270478Y-47798732D01*
X100264323Y-47810811D01*
X99534850Y-47810811D01*
X99535677Y-47809189D01*
X99534867Y-47804077D01*
X98217656Y-46486866D01*
X98205577Y-46480711D01*
X98204618Y-46480863D01*
X98199362Y-46485376D01*
X98067050Y-46669507D01*
X98063453Y-46675308D01*
X97929224Y-46928823D01*
X97926450Y-46935052D01*
X97849573Y-47145129D01*
X97811209Y-47194056D01*
X97751414Y-47211089D01*
X97693026Y-47189723D01*
X97658349Y-47138117D01*
X97654500Y-47110557D01*
X97654500Y-45665100D01*
X97673713Y-45605969D01*
X97724013Y-45569424D01*
X97755100Y-45564500D01*
X99196048Y-45564500D01*
X99255179Y-45583713D01*
G37*
%TD.AperFunction*%
%TD*%
M02*
