%TF.GenerationSoftware,KiCad,Pcbnew,(6.0.4-0)*%
%TF.CreationDate,2022-05-13T14:17:41-07:00*%
%TF.ProjectId,solar-panel-side-X-plus,736f6c61-722d-4706-916e-656c2d736964,rev?*%
%TF.SameCoordinates,Original*%
%TF.FileFunction,Legend,Top*%
%TF.FilePolarity,Positive*%
%FSLAX46Y46*%
G04 Gerber Fmt 4.6, Leading zero omitted, Abs format (unit mm)*
G04 Created by KiCad (PCBNEW (6.0.4-0)) date 2022-05-13 14:17:41*
%MOMM*%
%LPD*%
G01*
G04 APERTURE LIST*
G04 Aperture macros list*
%AMRoundRect*
0 Rectangle with rounded corners*
0 $1 Rounding radius*
0 $2 $3 $4 $5 $6 $7 $8 $9 X,Y pos of 4 corners*
0 Add a 4 corners polygon primitive as box body*
4,1,4,$2,$3,$4,$5,$6,$7,$8,$9,$2,$3,0*
0 Add four circle primitives for the rounded corners*
1,1,$1+$1,$2,$3*
1,1,$1+$1,$4,$5*
1,1,$1+$1,$6,$7*
1,1,$1+$1,$8,$9*
0 Add four rect primitives between the rounded corners*
20,1,$1+$1,$2,$3,$4,$5,0*
20,1,$1+$1,$4,$5,$6,$7,0*
20,1,$1+$1,$6,$7,$8,$9,0*
20,1,$1+$1,$8,$9,$2,$3,0*%
G04 Aperture macros list end*
%ADD10C,0.150000*%
%ADD11C,0.300000*%
%ADD12C,0.120000*%
%ADD13C,0.100000*%
%ADD14C,0.127000*%
%ADD15C,0.200000*%
%ADD16C,3.000000*%
%ADD17R,1.700000X2.500000*%
%ADD18R,2.500000X1.700000*%
%ADD19C,2.600000*%
%ADD20C,3.800000*%
%ADD21R,0.270000X0.740000*%
%ADD22R,1.350000X0.650000*%
%ADD23RoundRect,0.250000X0.475000X-0.250000X0.475000X0.250000X-0.475000X0.250000X-0.475000X-0.250000X0*%
%ADD24RoundRect,0.218750X0.256250X-0.218750X0.256250X0.218750X-0.256250X0.218750X-0.256250X-0.218750X0*%
%ADD25RoundRect,0.135000X-0.185000X0.135000X-0.185000X-0.135000X0.185000X-0.135000X0.185000X0.135000X0*%
%ADD26RoundRect,0.218750X0.218750X0.256250X-0.218750X0.256250X-0.218750X-0.256250X0.218750X-0.256250X0*%
%ADD27RoundRect,0.140000X0.170000X-0.140000X0.170000X0.140000X-0.170000X0.140000X-0.170000X-0.140000X0*%
%ADD28RoundRect,0.135000X0.185000X-0.135000X0.185000X0.135000X-0.185000X0.135000X-0.185000X-0.135000X0*%
%ADD29R,0.270000X1.411200*%
G04 APERTURE END LIST*
D10*
X141676380Y-102814285D02*
X141009714Y-102290476D01*
X141009714Y-102814285D02*
X141676380Y-102290476D01*
X141009714Y-101480952D02*
X141676380Y-101480952D01*
X140628761Y-101719047D02*
X141343047Y-101957142D01*
X141343047Y-101338095D01*
X140676380Y-100480952D02*
X140676380Y-100957142D01*
X141152571Y-101004761D01*
X141104952Y-100957142D01*
X141057333Y-100861904D01*
X141057333Y-100623809D01*
X141104952Y-100528571D01*
X141152571Y-100480952D01*
X141247809Y-100433333D01*
X141485904Y-100433333D01*
X141581142Y-100480952D01*
X141628761Y-100528571D01*
X141676380Y-100623809D01*
X141676380Y-100861904D01*
X141628761Y-100957142D01*
X141581142Y-101004761D01*
D11*
X153352857Y-47379142D02*
X155352857Y-50379142D01*
X155352857Y-47379142D02*
X153352857Y-50379142D01*
X156495714Y-49236285D02*
X158781428Y-49236285D01*
X157638571Y-50379142D02*
X157638571Y-48093428D01*
D10*
X156440327Y-123689761D02*
X156577232Y-123737380D01*
X156815327Y-123737380D01*
X156916517Y-123689761D01*
X156970089Y-123642142D01*
X157029613Y-123546904D01*
X157041517Y-123451666D01*
X157005803Y-123356428D01*
X156964136Y-123308809D01*
X156874851Y-123261190D01*
X156690327Y-123213571D01*
X156601041Y-123165952D01*
X156559375Y-123118333D01*
X156523660Y-123023095D01*
X156535565Y-122927857D01*
X156595089Y-122832619D01*
X156648660Y-122785000D01*
X156749851Y-122737380D01*
X156987946Y-122737380D01*
X157124851Y-122785000D01*
X157862946Y-123737380D02*
X157928422Y-123213571D01*
X157892708Y-123118333D01*
X157803422Y-123070714D01*
X157612946Y-123070714D01*
X157511755Y-123118333D01*
X157868898Y-123689761D02*
X157767708Y-123737380D01*
X157529613Y-123737380D01*
X157440327Y-123689761D01*
X157404613Y-123594523D01*
X157416517Y-123499285D01*
X157476041Y-123404047D01*
X157577232Y-123356428D01*
X157815327Y-123356428D01*
X157916517Y-123308809D01*
X158422470Y-123070714D02*
X158297470Y-124070714D01*
X158416517Y-123118333D02*
X158517708Y-123070714D01*
X158708184Y-123070714D01*
X158797470Y-123118333D01*
X158839136Y-123165952D01*
X158874851Y-123261190D01*
X158839136Y-123546904D01*
X158779613Y-123642142D01*
X158726041Y-123689761D01*
X158624851Y-123737380D01*
X158434375Y-123737380D01*
X158345089Y-123689761D01*
X159386755Y-123737380D02*
X159297470Y-123689761D01*
X159261755Y-123594523D01*
X159368898Y-122737380D01*
X159767708Y-123737380D02*
X159851041Y-123070714D01*
X159892708Y-122737380D02*
X159839136Y-122785000D01*
X159880803Y-122832619D01*
X159934375Y-122785000D01*
X159892708Y-122737380D01*
X159880803Y-122832619D01*
X160327232Y-123070714D02*
X160243898Y-123737380D01*
X160315327Y-123165952D02*
X160368898Y-123118333D01*
X160470089Y-123070714D01*
X160612946Y-123070714D01*
X160702232Y-123118333D01*
X160737946Y-123213571D01*
X160672470Y-123737380D01*
X161660565Y-123070714D02*
X161559375Y-123880238D01*
X161499851Y-123975476D01*
X161446279Y-124023095D01*
X161345089Y-124070714D01*
X161202232Y-124070714D01*
X161112946Y-124023095D01*
X161583184Y-123689761D02*
X161481994Y-123737380D01*
X161291517Y-123737380D01*
X161202232Y-123689761D01*
X161160565Y-123642142D01*
X161124851Y-123546904D01*
X161160565Y-123261190D01*
X161220089Y-123165952D01*
X161273660Y-123118333D01*
X161374851Y-123070714D01*
X161565327Y-123070714D01*
X161654613Y-123118333D01*
X163386755Y-123737380D02*
X163112946Y-123261190D01*
X162815327Y-123737380D02*
X162940327Y-122737380D01*
X163321279Y-122737380D01*
X163410565Y-122785000D01*
X163452232Y-122832619D01*
X163487946Y-122927857D01*
X163470089Y-123070714D01*
X163410565Y-123165952D01*
X163356994Y-123213571D01*
X163255803Y-123261190D01*
X162874851Y-123261190D01*
X164202232Y-123689761D02*
X164101041Y-123737380D01*
X163910565Y-123737380D01*
X163821279Y-123689761D01*
X163785565Y-123594523D01*
X163833184Y-123213571D01*
X163892708Y-123118333D01*
X163993898Y-123070714D01*
X164184375Y-123070714D01*
X164273660Y-123118333D01*
X164309375Y-123213571D01*
X164297470Y-123308809D01*
X163809375Y-123404047D01*
X164660565Y-123070714D02*
X164815327Y-123737380D01*
X165136755Y-123070714D01*
X165446279Y-123642142D02*
X165487946Y-123689761D01*
X165434375Y-123737380D01*
X165392708Y-123689761D01*
X165446279Y-123642142D01*
X165434375Y-123737380D01*
X167196279Y-123737380D02*
X166624851Y-123737380D01*
X166910565Y-123737380D02*
X167035565Y-122737380D01*
X166922470Y-122880238D01*
X166815327Y-122975476D01*
X166714136Y-123023095D01*
X156916517Y-125299761D02*
X157053422Y-125347380D01*
X157291517Y-125347380D01*
X157392708Y-125299761D01*
X157446279Y-125252142D01*
X157505803Y-125156904D01*
X157517708Y-125061666D01*
X157481994Y-124966428D01*
X157440327Y-124918809D01*
X157351041Y-124871190D01*
X157166517Y-124823571D01*
X157077232Y-124775952D01*
X157035565Y-124728333D01*
X156999851Y-124633095D01*
X157011755Y-124537857D01*
X157071279Y-124442619D01*
X157124851Y-124395000D01*
X157226041Y-124347380D01*
X157464136Y-124347380D01*
X157601041Y-124395000D01*
X157868898Y-125299761D02*
X158005803Y-125347380D01*
X158243898Y-125347380D01*
X158345089Y-125299761D01*
X158398660Y-125252142D01*
X158458184Y-125156904D01*
X158470089Y-125061666D01*
X158434375Y-124966428D01*
X158392708Y-124918809D01*
X158303422Y-124871190D01*
X158118898Y-124823571D01*
X158029613Y-124775952D01*
X157987946Y-124728333D01*
X157952232Y-124633095D01*
X157964136Y-124537857D01*
X158023660Y-124442619D01*
X158077232Y-124395000D01*
X158178422Y-124347380D01*
X158416517Y-124347380D01*
X158553422Y-124395000D01*
X158862946Y-125347380D02*
X158987946Y-124347380D01*
X160059375Y-125299761D02*
X160196279Y-125347380D01*
X160434375Y-125347380D01*
X160535565Y-125299761D01*
X160589136Y-125252142D01*
X160648660Y-125156904D01*
X160660565Y-125061666D01*
X160624851Y-124966428D01*
X160583184Y-124918809D01*
X160493898Y-124871190D01*
X160309375Y-124823571D01*
X160220089Y-124775952D01*
X160178422Y-124728333D01*
X160142708Y-124633095D01*
X160154613Y-124537857D01*
X160214136Y-124442619D01*
X160267708Y-124395000D01*
X160368898Y-124347380D01*
X160606994Y-124347380D01*
X160743898Y-124395000D01*
X161481994Y-125347380D02*
X161547470Y-124823571D01*
X161511755Y-124728333D01*
X161422470Y-124680714D01*
X161231994Y-124680714D01*
X161130803Y-124728333D01*
X161487946Y-125299761D02*
X161386755Y-125347380D01*
X161148660Y-125347380D01*
X161059375Y-125299761D01*
X161023660Y-125204523D01*
X161035565Y-125109285D01*
X161095089Y-125014047D01*
X161196279Y-124966428D01*
X161434375Y-124966428D01*
X161535565Y-124918809D01*
X161898660Y-124680714D02*
X162279613Y-124680714D01*
X162083184Y-124347380D02*
X161976041Y-125204523D01*
X162011755Y-125299761D01*
X162101041Y-125347380D01*
X162196279Y-125347380D01*
X162916517Y-125299761D02*
X162815327Y-125347380D01*
X162624851Y-125347380D01*
X162535565Y-125299761D01*
X162499851Y-125204523D01*
X162547470Y-124823571D01*
X162606994Y-124728333D01*
X162708184Y-124680714D01*
X162898660Y-124680714D01*
X162987946Y-124728333D01*
X163023660Y-124823571D01*
X163011755Y-124918809D01*
X162523660Y-125014047D01*
X163529613Y-125347380D02*
X163440327Y-125299761D01*
X163404613Y-125204523D01*
X163511755Y-124347380D01*
X164053422Y-125347380D02*
X163964136Y-125299761D01*
X163928422Y-125204523D01*
X164035565Y-124347380D01*
X164434375Y-125347380D02*
X164517708Y-124680714D01*
X164559375Y-124347380D02*
X164505803Y-124395000D01*
X164547470Y-124442619D01*
X164601041Y-124395000D01*
X164559375Y-124347380D01*
X164547470Y-124442619D01*
X164851041Y-124680714D02*
X165231994Y-124680714D01*
X165035565Y-124347380D02*
X164928422Y-125204523D01*
X164964136Y-125299761D01*
X165053422Y-125347380D01*
X165148660Y-125347380D01*
X165868898Y-125299761D02*
X165767708Y-125347380D01*
X165577232Y-125347380D01*
X165487946Y-125299761D01*
X165452232Y-125204523D01*
X165499851Y-124823571D01*
X165559375Y-124728333D01*
X165660565Y-124680714D01*
X165851041Y-124680714D01*
X165940327Y-124728333D01*
X165976041Y-124823571D01*
X165964136Y-124918809D01*
X165476041Y-125014047D01*
X166297470Y-125299761D02*
X166386755Y-125347380D01*
X166577232Y-125347380D01*
X166678422Y-125299761D01*
X166737946Y-125204523D01*
X166743898Y-125156904D01*
X166708184Y-125061666D01*
X166618898Y-125014047D01*
X166476041Y-125014047D01*
X166386755Y-124966428D01*
X166351041Y-124871190D01*
X166356994Y-124823571D01*
X166416517Y-124728333D01*
X166517708Y-124680714D01*
X166660565Y-124680714D01*
X166749851Y-124728333D01*
%TO.C,SC6*%
X155202095Y-63312761D02*
X155344952Y-63360380D01*
X155583047Y-63360380D01*
X155678285Y-63312761D01*
X155725904Y-63265142D01*
X155773523Y-63169904D01*
X155773523Y-63074666D01*
X155725904Y-62979428D01*
X155678285Y-62931809D01*
X155583047Y-62884190D01*
X155392571Y-62836571D01*
X155297333Y-62788952D01*
X155249714Y-62741333D01*
X155202095Y-62646095D01*
X155202095Y-62550857D01*
X155249714Y-62455619D01*
X155297333Y-62408000D01*
X155392571Y-62360380D01*
X155630666Y-62360380D01*
X155773523Y-62408000D01*
X156773523Y-63265142D02*
X156725904Y-63312761D01*
X156583047Y-63360380D01*
X156487809Y-63360380D01*
X156344952Y-63312761D01*
X156249714Y-63217523D01*
X156202095Y-63122285D01*
X156154476Y-62931809D01*
X156154476Y-62788952D01*
X156202095Y-62598476D01*
X156249714Y-62503238D01*
X156344952Y-62408000D01*
X156487809Y-62360380D01*
X156583047Y-62360380D01*
X156725904Y-62408000D01*
X156773523Y-62455619D01*
X157630666Y-62360380D02*
X157440190Y-62360380D01*
X157344952Y-62408000D01*
X157297333Y-62455619D01*
X157202095Y-62598476D01*
X157154476Y-62788952D01*
X157154476Y-63169904D01*
X157202095Y-63265142D01*
X157249714Y-63312761D01*
X157344952Y-63360380D01*
X157535428Y-63360380D01*
X157630666Y-63312761D01*
X157678285Y-63265142D01*
X157725904Y-63169904D01*
X157725904Y-62931809D01*
X157678285Y-62836571D01*
X157630666Y-62788952D01*
X157535428Y-62741333D01*
X157344952Y-62741333D01*
X157249714Y-62788952D01*
X157202095Y-62836571D01*
X157154476Y-62931809D01*
X151916380Y-66352761D02*
X152059238Y-66400380D01*
X152297333Y-66400380D01*
X152392571Y-66352761D01*
X152440190Y-66305142D01*
X152487809Y-66209904D01*
X152487809Y-66114666D01*
X152440190Y-66019428D01*
X152392571Y-65971809D01*
X152297333Y-65924190D01*
X152106857Y-65876571D01*
X152011619Y-65828952D01*
X151964000Y-65781333D01*
X151916380Y-65686095D01*
X151916380Y-65590857D01*
X151964000Y-65495619D01*
X152011619Y-65448000D01*
X152106857Y-65400380D01*
X152344952Y-65400380D01*
X152487809Y-65448000D01*
X152916380Y-66400380D02*
X152916380Y-65400380D01*
X153249714Y-66114666D01*
X153583047Y-65400380D01*
X153583047Y-66400380D01*
X154583047Y-66400380D02*
X154011619Y-66400380D01*
X154297333Y-66400380D02*
X154297333Y-65400380D01*
X154202095Y-65543238D01*
X154106857Y-65638476D01*
X154011619Y-65686095D01*
X155202095Y-65400380D02*
X155297333Y-65400380D01*
X155392571Y-65448000D01*
X155440190Y-65495619D01*
X155487809Y-65590857D01*
X155535428Y-65781333D01*
X155535428Y-66019428D01*
X155487809Y-66209904D01*
X155440190Y-66305142D01*
X155392571Y-66352761D01*
X155297333Y-66400380D01*
X155202095Y-66400380D01*
X155106857Y-66352761D01*
X155059238Y-66305142D01*
X155011619Y-66209904D01*
X154964000Y-66019428D01*
X154964000Y-65781333D01*
X155011619Y-65590857D01*
X155059238Y-65495619D01*
X155106857Y-65448000D01*
X155202095Y-65400380D01*
X156487809Y-66400380D02*
X155916380Y-66400380D01*
X156202095Y-66400380D02*
X156202095Y-65400380D01*
X156106857Y-65543238D01*
X156011619Y-65638476D01*
X155916380Y-65686095D01*
X156916380Y-66400380D02*
X156916380Y-65400380D01*
X157487809Y-66400380D02*
X157059238Y-65828952D01*
X157487809Y-65400380D02*
X156916380Y-65971809D01*
X158106857Y-65400380D02*
X158202095Y-65400380D01*
X158297333Y-65448000D01*
X158344952Y-65495619D01*
X158392571Y-65590857D01*
X158440190Y-65781333D01*
X158440190Y-66019428D01*
X158392571Y-66209904D01*
X158344952Y-66305142D01*
X158297333Y-66352761D01*
X158202095Y-66400380D01*
X158106857Y-66400380D01*
X158011619Y-66352761D01*
X157964000Y-66305142D01*
X157916380Y-66209904D01*
X157868761Y-66019428D01*
X157868761Y-65781333D01*
X157916380Y-65590857D01*
X157964000Y-65495619D01*
X158011619Y-65448000D01*
X158106857Y-65400380D01*
X158773523Y-65400380D02*
X159440190Y-65400380D01*
X159011619Y-66400380D01*
X159678285Y-65400380D02*
X160249714Y-65400380D01*
X159964000Y-66400380D02*
X159964000Y-65400380D01*
X160916380Y-65876571D02*
X160583047Y-65876571D01*
X160583047Y-66400380D02*
X160583047Y-65400380D01*
X161059238Y-65400380D01*
D11*
X147788285Y-59470857D02*
X147788285Y-57185142D01*
X146431142Y-68702285D02*
X148716857Y-68702285D01*
X147574000Y-69845142D02*
X147574000Y-67559428D01*
D10*
%TO.C,SC5*%
X155202095Y-85664761D02*
X155344952Y-85712380D01*
X155583047Y-85712380D01*
X155678285Y-85664761D01*
X155725904Y-85617142D01*
X155773523Y-85521904D01*
X155773523Y-85426666D01*
X155725904Y-85331428D01*
X155678285Y-85283809D01*
X155583047Y-85236190D01*
X155392571Y-85188571D01*
X155297333Y-85140952D01*
X155249714Y-85093333D01*
X155202095Y-84998095D01*
X155202095Y-84902857D01*
X155249714Y-84807619D01*
X155297333Y-84760000D01*
X155392571Y-84712380D01*
X155630666Y-84712380D01*
X155773523Y-84760000D01*
X156773523Y-85617142D02*
X156725904Y-85664761D01*
X156583047Y-85712380D01*
X156487809Y-85712380D01*
X156344952Y-85664761D01*
X156249714Y-85569523D01*
X156202095Y-85474285D01*
X156154476Y-85283809D01*
X156154476Y-85140952D01*
X156202095Y-84950476D01*
X156249714Y-84855238D01*
X156344952Y-84760000D01*
X156487809Y-84712380D01*
X156583047Y-84712380D01*
X156725904Y-84760000D01*
X156773523Y-84807619D01*
X157678285Y-84712380D02*
X157202095Y-84712380D01*
X157154476Y-85188571D01*
X157202095Y-85140952D01*
X157297333Y-85093333D01*
X157535428Y-85093333D01*
X157630666Y-85140952D01*
X157678285Y-85188571D01*
X157725904Y-85283809D01*
X157725904Y-85521904D01*
X157678285Y-85617142D01*
X157630666Y-85664761D01*
X157535428Y-85712380D01*
X157297333Y-85712380D01*
X157202095Y-85664761D01*
X157154476Y-85617142D01*
X151916380Y-88704761D02*
X152059238Y-88752380D01*
X152297333Y-88752380D01*
X152392571Y-88704761D01*
X152440190Y-88657142D01*
X152487809Y-88561904D01*
X152487809Y-88466666D01*
X152440190Y-88371428D01*
X152392571Y-88323809D01*
X152297333Y-88276190D01*
X152106857Y-88228571D01*
X152011619Y-88180952D01*
X151964000Y-88133333D01*
X151916380Y-88038095D01*
X151916380Y-87942857D01*
X151964000Y-87847619D01*
X152011619Y-87800000D01*
X152106857Y-87752380D01*
X152344952Y-87752380D01*
X152487809Y-87800000D01*
X152916380Y-88752380D02*
X152916380Y-87752380D01*
X153249714Y-88466666D01*
X153583047Y-87752380D01*
X153583047Y-88752380D01*
X154583047Y-88752380D02*
X154011619Y-88752380D01*
X154297333Y-88752380D02*
X154297333Y-87752380D01*
X154202095Y-87895238D01*
X154106857Y-87990476D01*
X154011619Y-88038095D01*
X155202095Y-87752380D02*
X155297333Y-87752380D01*
X155392571Y-87800000D01*
X155440190Y-87847619D01*
X155487809Y-87942857D01*
X155535428Y-88133333D01*
X155535428Y-88371428D01*
X155487809Y-88561904D01*
X155440190Y-88657142D01*
X155392571Y-88704761D01*
X155297333Y-88752380D01*
X155202095Y-88752380D01*
X155106857Y-88704761D01*
X155059238Y-88657142D01*
X155011619Y-88561904D01*
X154964000Y-88371428D01*
X154964000Y-88133333D01*
X155011619Y-87942857D01*
X155059238Y-87847619D01*
X155106857Y-87800000D01*
X155202095Y-87752380D01*
X156487809Y-88752380D02*
X155916380Y-88752380D01*
X156202095Y-88752380D02*
X156202095Y-87752380D01*
X156106857Y-87895238D01*
X156011619Y-87990476D01*
X155916380Y-88038095D01*
X156916380Y-88752380D02*
X156916380Y-87752380D01*
X157487809Y-88752380D02*
X157059238Y-88180952D01*
X157487809Y-87752380D02*
X156916380Y-88323809D01*
X158106857Y-87752380D02*
X158202095Y-87752380D01*
X158297333Y-87800000D01*
X158344952Y-87847619D01*
X158392571Y-87942857D01*
X158440190Y-88133333D01*
X158440190Y-88371428D01*
X158392571Y-88561904D01*
X158344952Y-88657142D01*
X158297333Y-88704761D01*
X158202095Y-88752380D01*
X158106857Y-88752380D01*
X158011619Y-88704761D01*
X157964000Y-88657142D01*
X157916380Y-88561904D01*
X157868761Y-88371428D01*
X157868761Y-88133333D01*
X157916380Y-87942857D01*
X157964000Y-87847619D01*
X158011619Y-87800000D01*
X158106857Y-87752380D01*
X158773523Y-87752380D02*
X159440190Y-87752380D01*
X159011619Y-88752380D01*
X159678285Y-87752380D02*
X160249714Y-87752380D01*
X159964000Y-88752380D02*
X159964000Y-87752380D01*
X160916380Y-88228571D02*
X160583047Y-88228571D01*
X160583047Y-88752380D02*
X160583047Y-87752380D01*
X161059238Y-87752380D01*
D11*
X146431142Y-91054285D02*
X148716857Y-91054285D01*
X147574000Y-92197142D02*
X147574000Y-89911428D01*
X147788285Y-81822857D02*
X147788285Y-79537142D01*
D10*
%TO.C,D2*%
X99781904Y-89262380D02*
X99781904Y-88262380D01*
X100020000Y-88262380D01*
X100162857Y-88310000D01*
X100258095Y-88405238D01*
X100305714Y-88500476D01*
X100353333Y-88690952D01*
X100353333Y-88833809D01*
X100305714Y-89024285D01*
X100258095Y-89119523D01*
X100162857Y-89214761D01*
X100020000Y-89262380D01*
X99781904Y-89262380D01*
X100734285Y-88357619D02*
X100781904Y-88310000D01*
X100877142Y-88262380D01*
X101115238Y-88262380D01*
X101210476Y-88310000D01*
X101258095Y-88357619D01*
X101305714Y-88452857D01*
X101305714Y-88548095D01*
X101258095Y-88690952D01*
X100686666Y-89262380D01*
X101305714Y-89262380D01*
%TO.C,D6*%
X176001904Y-65512380D02*
X176001904Y-64512380D01*
X176240000Y-64512380D01*
X176382857Y-64560000D01*
X176478095Y-64655238D01*
X176525714Y-64750476D01*
X176573333Y-64940952D01*
X176573333Y-65083809D01*
X176525714Y-65274285D01*
X176478095Y-65369523D01*
X176382857Y-65464761D01*
X176240000Y-65512380D01*
X176001904Y-65512380D01*
X177430476Y-64512380D02*
X177240000Y-64512380D01*
X177144761Y-64560000D01*
X177097142Y-64607619D01*
X177001904Y-64750476D01*
X176954285Y-64940952D01*
X176954285Y-65321904D01*
X177001904Y-65417142D01*
X177049523Y-65464761D01*
X177144761Y-65512380D01*
X177335238Y-65512380D01*
X177430476Y-65464761D01*
X177478095Y-65417142D01*
X177525714Y-65321904D01*
X177525714Y-65083809D01*
X177478095Y-64988571D01*
X177430476Y-64940952D01*
X177335238Y-64893333D01*
X177144761Y-64893333D01*
X177049523Y-64940952D01*
X177001904Y-64988571D01*
X176954285Y-65083809D01*
%TO.C,D3*%
X99801904Y-105002380D02*
X99801904Y-104002380D01*
X100040000Y-104002380D01*
X100182857Y-104050000D01*
X100278095Y-104145238D01*
X100325714Y-104240476D01*
X100373333Y-104430952D01*
X100373333Y-104573809D01*
X100325714Y-104764285D01*
X100278095Y-104859523D01*
X100182857Y-104954761D01*
X100040000Y-105002380D01*
X99801904Y-105002380D01*
X100706666Y-104002380D02*
X101325714Y-104002380D01*
X100992380Y-104383333D01*
X101135238Y-104383333D01*
X101230476Y-104430952D01*
X101278095Y-104478571D01*
X101325714Y-104573809D01*
X101325714Y-104811904D01*
X101278095Y-104907142D01*
X101230476Y-104954761D01*
X101135238Y-105002380D01*
X100849523Y-105002380D01*
X100754285Y-104954761D01*
X100706666Y-104907142D01*
%TO.C,D9*%
X108589904Y-48244380D02*
X108589904Y-47244380D01*
X108828000Y-47244380D01*
X108970857Y-47292000D01*
X109066095Y-47387238D01*
X109113714Y-47482476D01*
X109161333Y-47672952D01*
X109161333Y-47815809D01*
X109113714Y-48006285D01*
X109066095Y-48101523D01*
X108970857Y-48196761D01*
X108828000Y-48244380D01*
X108589904Y-48244380D01*
X109637523Y-48244380D02*
X109828000Y-48244380D01*
X109923238Y-48196761D01*
X109970857Y-48149142D01*
X110066095Y-48006285D01*
X110113714Y-47815809D01*
X110113714Y-47434857D01*
X110066095Y-47339619D01*
X110018476Y-47292000D01*
X109923238Y-47244380D01*
X109732761Y-47244380D01*
X109637523Y-47292000D01*
X109589904Y-47339619D01*
X109542285Y-47434857D01*
X109542285Y-47672952D01*
X109589904Y-47768190D01*
X109637523Y-47815809D01*
X109732761Y-47863428D01*
X109923238Y-47863428D01*
X110018476Y-47815809D01*
X110066095Y-47768190D01*
X110113714Y-47672952D01*
%TO.C,D5*%
X176001904Y-90322380D02*
X176001904Y-89322380D01*
X176240000Y-89322380D01*
X176382857Y-89370000D01*
X176478095Y-89465238D01*
X176525714Y-89560476D01*
X176573333Y-89750952D01*
X176573333Y-89893809D01*
X176525714Y-90084285D01*
X176478095Y-90179523D01*
X176382857Y-90274761D01*
X176240000Y-90322380D01*
X176001904Y-90322380D01*
X177478095Y-89322380D02*
X177001904Y-89322380D01*
X176954285Y-89798571D01*
X177001904Y-89750952D01*
X177097142Y-89703333D01*
X177335238Y-89703333D01*
X177430476Y-89750952D01*
X177478095Y-89798571D01*
X177525714Y-89893809D01*
X177525714Y-90131904D01*
X177478095Y-90227142D01*
X177430476Y-90274761D01*
X177335238Y-90322380D01*
X177097142Y-90322380D01*
X177001904Y-90274761D01*
X176954285Y-90227142D01*
%TO.C,D1*%
X99791904Y-59402380D02*
X99791904Y-58402380D01*
X100030000Y-58402380D01*
X100172857Y-58450000D01*
X100268095Y-58545238D01*
X100315714Y-58640476D01*
X100363333Y-58830952D01*
X100363333Y-58973809D01*
X100315714Y-59164285D01*
X100268095Y-59259523D01*
X100172857Y-59354761D01*
X100030000Y-59402380D01*
X99791904Y-59402380D01*
X101315714Y-59402380D02*
X100744285Y-59402380D01*
X101030000Y-59402380D02*
X101030000Y-58402380D01*
X100934761Y-58545238D01*
X100839523Y-58640476D01*
X100744285Y-58688095D01*
%TO.C,D4*%
X175991904Y-104142380D02*
X175991904Y-103142380D01*
X176230000Y-103142380D01*
X176372857Y-103190000D01*
X176468095Y-103285238D01*
X176515714Y-103380476D01*
X176563333Y-103570952D01*
X176563333Y-103713809D01*
X176515714Y-103904285D01*
X176468095Y-103999523D01*
X176372857Y-104094761D01*
X176230000Y-104142380D01*
X175991904Y-104142380D01*
X177420476Y-103475714D02*
X177420476Y-104142380D01*
X177182380Y-103094761D02*
X176944285Y-103809047D01*
X177563333Y-103809047D01*
%TO.C,SC1*%
X119642095Y-64312761D02*
X119784952Y-64360380D01*
X120023047Y-64360380D01*
X120118285Y-64312761D01*
X120165904Y-64265142D01*
X120213523Y-64169904D01*
X120213523Y-64074666D01*
X120165904Y-63979428D01*
X120118285Y-63931809D01*
X120023047Y-63884190D01*
X119832571Y-63836571D01*
X119737333Y-63788952D01*
X119689714Y-63741333D01*
X119642095Y-63646095D01*
X119642095Y-63550857D01*
X119689714Y-63455619D01*
X119737333Y-63408000D01*
X119832571Y-63360380D01*
X120070666Y-63360380D01*
X120213523Y-63408000D01*
X121213523Y-64265142D02*
X121165904Y-64312761D01*
X121023047Y-64360380D01*
X120927809Y-64360380D01*
X120784952Y-64312761D01*
X120689714Y-64217523D01*
X120642095Y-64122285D01*
X120594476Y-63931809D01*
X120594476Y-63788952D01*
X120642095Y-63598476D01*
X120689714Y-63503238D01*
X120784952Y-63408000D01*
X120927809Y-63360380D01*
X121023047Y-63360380D01*
X121165904Y-63408000D01*
X121213523Y-63455619D01*
X122165904Y-64360380D02*
X121594476Y-64360380D01*
X121880190Y-64360380D02*
X121880190Y-63360380D01*
X121784952Y-63503238D01*
X121689714Y-63598476D01*
X121594476Y-63646095D01*
X116356380Y-61272761D02*
X116499238Y-61320380D01*
X116737333Y-61320380D01*
X116832571Y-61272761D01*
X116880190Y-61225142D01*
X116927809Y-61129904D01*
X116927809Y-61034666D01*
X116880190Y-60939428D01*
X116832571Y-60891809D01*
X116737333Y-60844190D01*
X116546857Y-60796571D01*
X116451619Y-60748952D01*
X116404000Y-60701333D01*
X116356380Y-60606095D01*
X116356380Y-60510857D01*
X116404000Y-60415619D01*
X116451619Y-60368000D01*
X116546857Y-60320380D01*
X116784952Y-60320380D01*
X116927809Y-60368000D01*
X117356380Y-61320380D02*
X117356380Y-60320380D01*
X117689714Y-61034666D01*
X118023047Y-60320380D01*
X118023047Y-61320380D01*
X119023047Y-61320380D02*
X118451619Y-61320380D01*
X118737333Y-61320380D02*
X118737333Y-60320380D01*
X118642095Y-60463238D01*
X118546857Y-60558476D01*
X118451619Y-60606095D01*
X119642095Y-60320380D02*
X119737333Y-60320380D01*
X119832571Y-60368000D01*
X119880190Y-60415619D01*
X119927809Y-60510857D01*
X119975428Y-60701333D01*
X119975428Y-60939428D01*
X119927809Y-61129904D01*
X119880190Y-61225142D01*
X119832571Y-61272761D01*
X119737333Y-61320380D01*
X119642095Y-61320380D01*
X119546857Y-61272761D01*
X119499238Y-61225142D01*
X119451619Y-61129904D01*
X119404000Y-60939428D01*
X119404000Y-60701333D01*
X119451619Y-60510857D01*
X119499238Y-60415619D01*
X119546857Y-60368000D01*
X119642095Y-60320380D01*
X120927809Y-61320380D02*
X120356380Y-61320380D01*
X120642095Y-61320380D02*
X120642095Y-60320380D01*
X120546857Y-60463238D01*
X120451619Y-60558476D01*
X120356380Y-60606095D01*
X121356380Y-61320380D02*
X121356380Y-60320380D01*
X121927809Y-61320380D02*
X121499238Y-60748952D01*
X121927809Y-60320380D02*
X121356380Y-60891809D01*
X122546857Y-60320380D02*
X122642095Y-60320380D01*
X122737333Y-60368000D01*
X122784952Y-60415619D01*
X122832571Y-60510857D01*
X122880190Y-60701333D01*
X122880190Y-60939428D01*
X122832571Y-61129904D01*
X122784952Y-61225142D01*
X122737333Y-61272761D01*
X122642095Y-61320380D01*
X122546857Y-61320380D01*
X122451619Y-61272761D01*
X122404000Y-61225142D01*
X122356380Y-61129904D01*
X122308761Y-60939428D01*
X122308761Y-60701333D01*
X122356380Y-60510857D01*
X122404000Y-60415619D01*
X122451619Y-60368000D01*
X122546857Y-60320380D01*
X123213523Y-60320380D02*
X123880190Y-60320380D01*
X123451619Y-61320380D01*
X124118285Y-60320380D02*
X124689714Y-60320380D01*
X124404000Y-61320380D02*
X124404000Y-60320380D01*
X125356380Y-60796571D02*
X125023047Y-60796571D01*
X125023047Y-61320380D02*
X125023047Y-60320380D01*
X125499238Y-60320380D01*
D11*
X130008285Y-69630857D02*
X130008285Y-67345142D01*
X128651142Y-58542285D02*
X130936857Y-58542285D01*
X129794000Y-59685142D02*
X129794000Y-57399428D01*
D10*
%TO.C,SC2*%
X119642095Y-86664761D02*
X119784952Y-86712380D01*
X120023047Y-86712380D01*
X120118285Y-86664761D01*
X120165904Y-86617142D01*
X120213523Y-86521904D01*
X120213523Y-86426666D01*
X120165904Y-86331428D01*
X120118285Y-86283809D01*
X120023047Y-86236190D01*
X119832571Y-86188571D01*
X119737333Y-86140952D01*
X119689714Y-86093333D01*
X119642095Y-85998095D01*
X119642095Y-85902857D01*
X119689714Y-85807619D01*
X119737333Y-85760000D01*
X119832571Y-85712380D01*
X120070666Y-85712380D01*
X120213523Y-85760000D01*
X121213523Y-86617142D02*
X121165904Y-86664761D01*
X121023047Y-86712380D01*
X120927809Y-86712380D01*
X120784952Y-86664761D01*
X120689714Y-86569523D01*
X120642095Y-86474285D01*
X120594476Y-86283809D01*
X120594476Y-86140952D01*
X120642095Y-85950476D01*
X120689714Y-85855238D01*
X120784952Y-85760000D01*
X120927809Y-85712380D01*
X121023047Y-85712380D01*
X121165904Y-85760000D01*
X121213523Y-85807619D01*
X121594476Y-85807619D02*
X121642095Y-85760000D01*
X121737333Y-85712380D01*
X121975428Y-85712380D01*
X122070666Y-85760000D01*
X122118285Y-85807619D01*
X122165904Y-85902857D01*
X122165904Y-85998095D01*
X122118285Y-86140952D01*
X121546857Y-86712380D01*
X122165904Y-86712380D01*
X116356380Y-83624761D02*
X116499238Y-83672380D01*
X116737333Y-83672380D01*
X116832571Y-83624761D01*
X116880190Y-83577142D01*
X116927809Y-83481904D01*
X116927809Y-83386666D01*
X116880190Y-83291428D01*
X116832571Y-83243809D01*
X116737333Y-83196190D01*
X116546857Y-83148571D01*
X116451619Y-83100952D01*
X116404000Y-83053333D01*
X116356380Y-82958095D01*
X116356380Y-82862857D01*
X116404000Y-82767619D01*
X116451619Y-82720000D01*
X116546857Y-82672380D01*
X116784952Y-82672380D01*
X116927809Y-82720000D01*
X117356380Y-83672380D02*
X117356380Y-82672380D01*
X117689714Y-83386666D01*
X118023047Y-82672380D01*
X118023047Y-83672380D01*
X119023047Y-83672380D02*
X118451619Y-83672380D01*
X118737333Y-83672380D02*
X118737333Y-82672380D01*
X118642095Y-82815238D01*
X118546857Y-82910476D01*
X118451619Y-82958095D01*
X119642095Y-82672380D02*
X119737333Y-82672380D01*
X119832571Y-82720000D01*
X119880190Y-82767619D01*
X119927809Y-82862857D01*
X119975428Y-83053333D01*
X119975428Y-83291428D01*
X119927809Y-83481904D01*
X119880190Y-83577142D01*
X119832571Y-83624761D01*
X119737333Y-83672380D01*
X119642095Y-83672380D01*
X119546857Y-83624761D01*
X119499238Y-83577142D01*
X119451619Y-83481904D01*
X119404000Y-83291428D01*
X119404000Y-83053333D01*
X119451619Y-82862857D01*
X119499238Y-82767619D01*
X119546857Y-82720000D01*
X119642095Y-82672380D01*
X120927809Y-83672380D02*
X120356380Y-83672380D01*
X120642095Y-83672380D02*
X120642095Y-82672380D01*
X120546857Y-82815238D01*
X120451619Y-82910476D01*
X120356380Y-82958095D01*
X121356380Y-83672380D02*
X121356380Y-82672380D01*
X121927809Y-83672380D02*
X121499238Y-83100952D01*
X121927809Y-82672380D02*
X121356380Y-83243809D01*
X122546857Y-82672380D02*
X122642095Y-82672380D01*
X122737333Y-82720000D01*
X122784952Y-82767619D01*
X122832571Y-82862857D01*
X122880190Y-83053333D01*
X122880190Y-83291428D01*
X122832571Y-83481904D01*
X122784952Y-83577142D01*
X122737333Y-83624761D01*
X122642095Y-83672380D01*
X122546857Y-83672380D01*
X122451619Y-83624761D01*
X122404000Y-83577142D01*
X122356380Y-83481904D01*
X122308761Y-83291428D01*
X122308761Y-83053333D01*
X122356380Y-82862857D01*
X122404000Y-82767619D01*
X122451619Y-82720000D01*
X122546857Y-82672380D01*
X123213523Y-82672380D02*
X123880190Y-82672380D01*
X123451619Y-83672380D01*
X124118285Y-82672380D02*
X124689714Y-82672380D01*
X124404000Y-83672380D02*
X124404000Y-82672380D01*
X125356380Y-83148571D02*
X125023047Y-83148571D01*
X125023047Y-83672380D02*
X125023047Y-82672380D01*
X125499238Y-82672380D01*
D11*
X130008285Y-91982857D02*
X130008285Y-89697142D01*
X128651142Y-80894285D02*
X130936857Y-80894285D01*
X129794000Y-82037142D02*
X129794000Y-79751428D01*
D10*
%TO.C,SC3*%
X120188585Y-111358271D02*
X120331442Y-111405890D01*
X120569537Y-111405890D01*
X120664775Y-111358271D01*
X120712394Y-111310652D01*
X120760013Y-111215414D01*
X120760013Y-111120176D01*
X120712394Y-111024938D01*
X120664775Y-110977319D01*
X120569537Y-110929700D01*
X120379061Y-110882081D01*
X120283823Y-110834462D01*
X120236204Y-110786843D01*
X120188585Y-110691605D01*
X120188585Y-110596367D01*
X120236204Y-110501129D01*
X120283823Y-110453510D01*
X120379061Y-110405890D01*
X120617156Y-110405890D01*
X120760013Y-110453510D01*
X121760013Y-111310652D02*
X121712394Y-111358271D01*
X121569537Y-111405890D01*
X121474299Y-111405890D01*
X121331442Y-111358271D01*
X121236204Y-111263033D01*
X121188585Y-111167795D01*
X121140966Y-110977319D01*
X121140966Y-110834462D01*
X121188585Y-110643986D01*
X121236204Y-110548748D01*
X121331442Y-110453510D01*
X121474299Y-110405890D01*
X121569537Y-110405890D01*
X121712394Y-110453510D01*
X121760013Y-110501129D01*
X122093347Y-110405890D02*
X122712394Y-110405890D01*
X122379061Y-110786843D01*
X122521918Y-110786843D01*
X122617156Y-110834462D01*
X122664775Y-110882081D01*
X122712394Y-110977319D01*
X122712394Y-111215414D01*
X122664775Y-111310652D01*
X122617156Y-111358271D01*
X122521918Y-111405890D01*
X122236204Y-111405890D01*
X122140966Y-111358271D01*
X122093347Y-111310652D01*
X116922380Y-107974761D02*
X117065238Y-108022380D01*
X117303333Y-108022380D01*
X117398571Y-107974761D01*
X117446190Y-107927142D01*
X117493809Y-107831904D01*
X117493809Y-107736666D01*
X117446190Y-107641428D01*
X117398571Y-107593809D01*
X117303333Y-107546190D01*
X117112857Y-107498571D01*
X117017619Y-107450952D01*
X116970000Y-107403333D01*
X116922380Y-107308095D01*
X116922380Y-107212857D01*
X116970000Y-107117619D01*
X117017619Y-107070000D01*
X117112857Y-107022380D01*
X117350952Y-107022380D01*
X117493809Y-107070000D01*
X117922380Y-108022380D02*
X117922380Y-107022380D01*
X118255714Y-107736666D01*
X118589047Y-107022380D01*
X118589047Y-108022380D01*
X119589047Y-108022380D02*
X119017619Y-108022380D01*
X119303333Y-108022380D02*
X119303333Y-107022380D01*
X119208095Y-107165238D01*
X119112857Y-107260476D01*
X119017619Y-107308095D01*
X120208095Y-107022380D02*
X120303333Y-107022380D01*
X120398571Y-107070000D01*
X120446190Y-107117619D01*
X120493809Y-107212857D01*
X120541428Y-107403333D01*
X120541428Y-107641428D01*
X120493809Y-107831904D01*
X120446190Y-107927142D01*
X120398571Y-107974761D01*
X120303333Y-108022380D01*
X120208095Y-108022380D01*
X120112857Y-107974761D01*
X120065238Y-107927142D01*
X120017619Y-107831904D01*
X119970000Y-107641428D01*
X119970000Y-107403333D01*
X120017619Y-107212857D01*
X120065238Y-107117619D01*
X120112857Y-107070000D01*
X120208095Y-107022380D01*
X121493809Y-108022380D02*
X120922380Y-108022380D01*
X121208095Y-108022380D02*
X121208095Y-107022380D01*
X121112857Y-107165238D01*
X121017619Y-107260476D01*
X120922380Y-107308095D01*
X121922380Y-108022380D02*
X121922380Y-107022380D01*
X122493809Y-108022380D02*
X122065238Y-107450952D01*
X122493809Y-107022380D02*
X121922380Y-107593809D01*
X123112857Y-107022380D02*
X123208095Y-107022380D01*
X123303333Y-107070000D01*
X123350952Y-107117619D01*
X123398571Y-107212857D01*
X123446190Y-107403333D01*
X123446190Y-107641428D01*
X123398571Y-107831904D01*
X123350952Y-107927142D01*
X123303333Y-107974761D01*
X123208095Y-108022380D01*
X123112857Y-108022380D01*
X123017619Y-107974761D01*
X122970000Y-107927142D01*
X122922380Y-107831904D01*
X122874761Y-107641428D01*
X122874761Y-107403333D01*
X122922380Y-107212857D01*
X122970000Y-107117619D01*
X123017619Y-107070000D01*
X123112857Y-107022380D01*
X123779523Y-107022380D02*
X124446190Y-107022380D01*
X124017619Y-108022380D01*
X124684285Y-107022380D02*
X125255714Y-107022380D01*
X124970000Y-108022380D02*
X124970000Y-107022380D01*
X125922380Y-107498571D02*
X125589047Y-107498571D01*
X125589047Y-108022380D02*
X125589047Y-107022380D01*
X126065238Y-107022380D01*
D11*
X130008285Y-114334857D02*
X130008285Y-112049142D01*
X128651142Y-103246285D02*
X130936857Y-103246285D01*
X129794000Y-104389142D02*
X129794000Y-102103428D01*
D10*
%TO.C,SC4*%
X155238095Y-108016761D02*
X155380952Y-108064380D01*
X155619047Y-108064380D01*
X155714285Y-108016761D01*
X155761904Y-107969142D01*
X155809523Y-107873904D01*
X155809523Y-107778666D01*
X155761904Y-107683428D01*
X155714285Y-107635809D01*
X155619047Y-107588190D01*
X155428571Y-107540571D01*
X155333333Y-107492952D01*
X155285714Y-107445333D01*
X155238095Y-107350095D01*
X155238095Y-107254857D01*
X155285714Y-107159619D01*
X155333333Y-107112000D01*
X155428571Y-107064380D01*
X155666666Y-107064380D01*
X155809523Y-107112000D01*
X156809523Y-107969142D02*
X156761904Y-108016761D01*
X156619047Y-108064380D01*
X156523809Y-108064380D01*
X156380952Y-108016761D01*
X156285714Y-107921523D01*
X156238095Y-107826285D01*
X156190476Y-107635809D01*
X156190476Y-107492952D01*
X156238095Y-107302476D01*
X156285714Y-107207238D01*
X156380952Y-107112000D01*
X156523809Y-107064380D01*
X156619047Y-107064380D01*
X156761904Y-107112000D01*
X156809523Y-107159619D01*
X157666666Y-107397714D02*
X157666666Y-108064380D01*
X157428571Y-107016761D02*
X157190476Y-107731047D01*
X157809523Y-107731047D01*
X151952380Y-111056761D02*
X152095238Y-111104380D01*
X152333333Y-111104380D01*
X152428571Y-111056761D01*
X152476190Y-111009142D01*
X152523809Y-110913904D01*
X152523809Y-110818666D01*
X152476190Y-110723428D01*
X152428571Y-110675809D01*
X152333333Y-110628190D01*
X152142857Y-110580571D01*
X152047619Y-110532952D01*
X152000000Y-110485333D01*
X151952380Y-110390095D01*
X151952380Y-110294857D01*
X152000000Y-110199619D01*
X152047619Y-110152000D01*
X152142857Y-110104380D01*
X152380952Y-110104380D01*
X152523809Y-110152000D01*
X152952380Y-111104380D02*
X152952380Y-110104380D01*
X153285714Y-110818666D01*
X153619047Y-110104380D01*
X153619047Y-111104380D01*
X154619047Y-111104380D02*
X154047619Y-111104380D01*
X154333333Y-111104380D02*
X154333333Y-110104380D01*
X154238095Y-110247238D01*
X154142857Y-110342476D01*
X154047619Y-110390095D01*
X155238095Y-110104380D02*
X155333333Y-110104380D01*
X155428571Y-110152000D01*
X155476190Y-110199619D01*
X155523809Y-110294857D01*
X155571428Y-110485333D01*
X155571428Y-110723428D01*
X155523809Y-110913904D01*
X155476190Y-111009142D01*
X155428571Y-111056761D01*
X155333333Y-111104380D01*
X155238095Y-111104380D01*
X155142857Y-111056761D01*
X155095238Y-111009142D01*
X155047619Y-110913904D01*
X155000000Y-110723428D01*
X155000000Y-110485333D01*
X155047619Y-110294857D01*
X155095238Y-110199619D01*
X155142857Y-110152000D01*
X155238095Y-110104380D01*
X156523809Y-111104380D02*
X155952380Y-111104380D01*
X156238095Y-111104380D02*
X156238095Y-110104380D01*
X156142857Y-110247238D01*
X156047619Y-110342476D01*
X155952380Y-110390095D01*
X156952380Y-111104380D02*
X156952380Y-110104380D01*
X157523809Y-111104380D02*
X157095238Y-110532952D01*
X157523809Y-110104380D02*
X156952380Y-110675809D01*
X158142857Y-110104380D02*
X158238095Y-110104380D01*
X158333333Y-110152000D01*
X158380952Y-110199619D01*
X158428571Y-110294857D01*
X158476190Y-110485333D01*
X158476190Y-110723428D01*
X158428571Y-110913904D01*
X158380952Y-111009142D01*
X158333333Y-111056761D01*
X158238095Y-111104380D01*
X158142857Y-111104380D01*
X158047619Y-111056761D01*
X158000000Y-111009142D01*
X157952380Y-110913904D01*
X157904761Y-110723428D01*
X157904761Y-110485333D01*
X157952380Y-110294857D01*
X158000000Y-110199619D01*
X158047619Y-110152000D01*
X158142857Y-110104380D01*
X158809523Y-110104380D02*
X159476190Y-110104380D01*
X159047619Y-111104380D01*
X159714285Y-110104380D02*
X160285714Y-110104380D01*
X160000000Y-111104380D02*
X160000000Y-110104380D01*
X160952380Y-110580571D02*
X160619047Y-110580571D01*
X160619047Y-111104380D02*
X160619047Y-110104380D01*
X161095238Y-110104380D01*
D11*
X146467142Y-113406285D02*
X148752857Y-113406285D01*
X147610000Y-114549142D02*
X147610000Y-112263428D01*
X147824285Y-104174857D02*
X147824285Y-101889142D01*
D10*
%TO.C,U1*%
X114295976Y-122528904D02*
X114295976Y-123176523D01*
X114334071Y-123252714D01*
X114372166Y-123290809D01*
X114448357Y-123328904D01*
X114600738Y-123328904D01*
X114676928Y-123290809D01*
X114715023Y-123252714D01*
X114753119Y-123176523D01*
X114753119Y-122528904D01*
X115553119Y-123328904D02*
X115095976Y-123328904D01*
X115324547Y-123328904D02*
X115324547Y-122528904D01*
X115248357Y-122643190D01*
X115172166Y-122719380D01*
X115095976Y-122757476D01*
%TO.C,C5*%
X117583333Y-136502142D02*
X117535714Y-136549761D01*
X117392857Y-136597380D01*
X117297619Y-136597380D01*
X117154761Y-136549761D01*
X117059523Y-136454523D01*
X117011904Y-136359285D01*
X116964285Y-136168809D01*
X116964285Y-136025952D01*
X117011904Y-135835476D01*
X117059523Y-135740238D01*
X117154761Y-135645000D01*
X117297619Y-135597380D01*
X117392857Y-135597380D01*
X117535714Y-135645000D01*
X117583333Y-135692619D01*
X118488095Y-135597380D02*
X118011904Y-135597380D01*
X117964285Y-136073571D01*
X118011904Y-136025952D01*
X118107142Y-135978333D01*
X118345238Y-135978333D01*
X118440476Y-136025952D01*
X118488095Y-136073571D01*
X118535714Y-136168809D01*
X118535714Y-136406904D01*
X118488095Y-136502142D01*
X118440476Y-136549761D01*
X118345238Y-136597380D01*
X118107142Y-136597380D01*
X118011904Y-136549761D01*
X117964285Y-136502142D01*
%TO.C,L1*%
X109593333Y-136807380D02*
X109117142Y-136807380D01*
X109117142Y-135807380D01*
X110450476Y-136807380D02*
X109879047Y-136807380D01*
X110164761Y-136807380D02*
X110164761Y-135807380D01*
X110069523Y-135950238D01*
X109974285Y-136045476D01*
X109879047Y-136093095D01*
%TO.C,R15*%
X118597142Y-127087380D02*
X118263809Y-126611190D01*
X118025714Y-127087380D02*
X118025714Y-126087380D01*
X118406666Y-126087380D01*
X118501904Y-126135000D01*
X118549523Y-126182619D01*
X118597142Y-126277857D01*
X118597142Y-126420714D01*
X118549523Y-126515952D01*
X118501904Y-126563571D01*
X118406666Y-126611190D01*
X118025714Y-126611190D01*
X119549523Y-127087380D02*
X118978095Y-127087380D01*
X119263809Y-127087380D02*
X119263809Y-126087380D01*
X119168571Y-126230238D01*
X119073333Y-126325476D01*
X118978095Y-126373095D01*
X120454285Y-126087380D02*
X119978095Y-126087380D01*
X119930476Y-126563571D01*
X119978095Y-126515952D01*
X120073333Y-126468333D01*
X120311428Y-126468333D01*
X120406666Y-126515952D01*
X120454285Y-126563571D01*
X120501904Y-126658809D01*
X120501904Y-126896904D01*
X120454285Y-126992142D01*
X120406666Y-127039761D01*
X120311428Y-127087380D01*
X120073333Y-127087380D01*
X119978095Y-127039761D01*
X119930476Y-126992142D01*
%TO.C,C1*%
X115263333Y-120717142D02*
X115215714Y-120764761D01*
X115072857Y-120812380D01*
X114977619Y-120812380D01*
X114834761Y-120764761D01*
X114739523Y-120669523D01*
X114691904Y-120574285D01*
X114644285Y-120383809D01*
X114644285Y-120240952D01*
X114691904Y-120050476D01*
X114739523Y-119955238D01*
X114834761Y-119860000D01*
X114977619Y-119812380D01*
X115072857Y-119812380D01*
X115215714Y-119860000D01*
X115263333Y-119907619D01*
X116215714Y-120812380D02*
X115644285Y-120812380D01*
X115930000Y-120812380D02*
X115930000Y-119812380D01*
X115834761Y-119955238D01*
X115739523Y-120050476D01*
X115644285Y-120098095D01*
%TO.C,R14*%
X116477142Y-123407380D02*
X116143809Y-122931190D01*
X115905714Y-123407380D02*
X115905714Y-122407380D01*
X116286666Y-122407380D01*
X116381904Y-122455000D01*
X116429523Y-122502619D01*
X116477142Y-122597857D01*
X116477142Y-122740714D01*
X116429523Y-122835952D01*
X116381904Y-122883571D01*
X116286666Y-122931190D01*
X115905714Y-122931190D01*
X117429523Y-123407380D02*
X116858095Y-123407380D01*
X117143809Y-123407380D02*
X117143809Y-122407380D01*
X117048571Y-122550238D01*
X116953333Y-122645476D01*
X116858095Y-122693095D01*
X118286666Y-122740714D02*
X118286666Y-123407380D01*
X118048571Y-122359761D02*
X117810476Y-123074047D01*
X118429523Y-123074047D01*
%TO.C,C4*%
X115693333Y-134892142D02*
X115645714Y-134939761D01*
X115502857Y-134987380D01*
X115407619Y-134987380D01*
X115264761Y-134939761D01*
X115169523Y-134844523D01*
X115121904Y-134749285D01*
X115074285Y-134558809D01*
X115074285Y-134415952D01*
X115121904Y-134225476D01*
X115169523Y-134130238D01*
X115264761Y-134035000D01*
X115407619Y-133987380D01*
X115502857Y-133987380D01*
X115645714Y-134035000D01*
X115693333Y-134082619D01*
X116550476Y-134320714D02*
X116550476Y-134987380D01*
X116312380Y-133939761D02*
X116074285Y-134654047D01*
X116693333Y-134654047D01*
%TO.C,R13*%
X118597142Y-125087380D02*
X118263809Y-124611190D01*
X118025714Y-125087380D02*
X118025714Y-124087380D01*
X118406666Y-124087380D01*
X118501904Y-124135000D01*
X118549523Y-124182619D01*
X118597142Y-124277857D01*
X118597142Y-124420714D01*
X118549523Y-124515952D01*
X118501904Y-124563571D01*
X118406666Y-124611190D01*
X118025714Y-124611190D01*
X119549523Y-125087380D02*
X118978095Y-125087380D01*
X119263809Y-125087380D02*
X119263809Y-124087380D01*
X119168571Y-124230238D01*
X119073333Y-124325476D01*
X118978095Y-124373095D01*
X119882857Y-124087380D02*
X120501904Y-124087380D01*
X120168571Y-124468333D01*
X120311428Y-124468333D01*
X120406666Y-124515952D01*
X120454285Y-124563571D01*
X120501904Y-124658809D01*
X120501904Y-124896904D01*
X120454285Y-124992142D01*
X120406666Y-125039761D01*
X120311428Y-125087380D01*
X120025714Y-125087380D01*
X119930476Y-125039761D01*
X119882857Y-124992142D01*
%TO.C,R17*%
X111397142Y-136837380D02*
X111063809Y-136361190D01*
X110825714Y-136837380D02*
X110825714Y-135837380D01*
X111206666Y-135837380D01*
X111301904Y-135885000D01*
X111349523Y-135932619D01*
X111397142Y-136027857D01*
X111397142Y-136170714D01*
X111349523Y-136265952D01*
X111301904Y-136313571D01*
X111206666Y-136361190D01*
X110825714Y-136361190D01*
X112349523Y-136837380D02*
X111778095Y-136837380D01*
X112063809Y-136837380D02*
X112063809Y-135837380D01*
X111968571Y-135980238D01*
X111873333Y-136075476D01*
X111778095Y-136123095D01*
X112682857Y-135837380D02*
X113349523Y-135837380D01*
X112920952Y-136837380D01*
%TO.C,U2*%
X109912095Y-128749380D02*
X109912095Y-129558904D01*
X109959714Y-129654142D01*
X110007333Y-129701761D01*
X110102571Y-129749380D01*
X110293047Y-129749380D01*
X110388285Y-129701761D01*
X110435904Y-129654142D01*
X110483523Y-129558904D01*
X110483523Y-128749380D01*
X110912095Y-128844619D02*
X110959714Y-128797000D01*
X111054952Y-128749380D01*
X111293047Y-128749380D01*
X111388285Y-128797000D01*
X111435904Y-128844619D01*
X111483523Y-128939857D01*
X111483523Y-129035095D01*
X111435904Y-129177952D01*
X110864476Y-129749380D01*
X111483523Y-129749380D01*
X110762380Y-131740000D02*
X111000476Y-131740000D01*
X110905238Y-131978095D02*
X111000476Y-131740000D01*
X110905238Y-131501904D01*
X111190952Y-131882857D02*
X111000476Y-131740000D01*
X111190952Y-131597142D01*
%TO.C,R16*%
X116257142Y-128987380D02*
X115923809Y-128511190D01*
X115685714Y-128987380D02*
X115685714Y-127987380D01*
X116066666Y-127987380D01*
X116161904Y-128035000D01*
X116209523Y-128082619D01*
X116257142Y-128177857D01*
X116257142Y-128320714D01*
X116209523Y-128415952D01*
X116161904Y-128463571D01*
X116066666Y-128511190D01*
X115685714Y-128511190D01*
X117209523Y-128987380D02*
X116638095Y-128987380D01*
X116923809Y-128987380D02*
X116923809Y-127987380D01*
X116828571Y-128130238D01*
X116733333Y-128225476D01*
X116638095Y-128273095D01*
X118066666Y-127987380D02*
X117876190Y-127987380D01*
X117780952Y-128035000D01*
X117733333Y-128082619D01*
X117638095Y-128225476D01*
X117590476Y-128415952D01*
X117590476Y-128796904D01*
X117638095Y-128892142D01*
X117685714Y-128939761D01*
X117780952Y-128987380D01*
X117971428Y-128987380D01*
X118066666Y-128939761D01*
X118114285Y-128892142D01*
X118161904Y-128796904D01*
X118161904Y-128558809D01*
X118114285Y-128463571D01*
X118066666Y-128415952D01*
X117971428Y-128368333D01*
X117780952Y-128368333D01*
X117685714Y-128415952D01*
X117638095Y-128463571D01*
X117590476Y-128558809D01*
%TO.C,L2*%
X114163333Y-136807380D02*
X113687142Y-136807380D01*
X113687142Y-135807380D01*
X114449047Y-135902619D02*
X114496666Y-135855000D01*
X114591904Y-135807380D01*
X114830000Y-135807380D01*
X114925238Y-135855000D01*
X114972857Y-135902619D01*
X115020476Y-135997857D01*
X115020476Y-136093095D01*
X114972857Y-136235952D01*
X114401428Y-136807380D01*
X115020476Y-136807380D01*
D11*
%TO.C,SC6*%
X138964000Y-74408000D02*
X138964000Y-52408000D01*
X173964000Y-52408000D02*
X173964000Y-74408000D01*
X138964000Y-52408000D02*
X173964000Y-52408000D01*
X173964000Y-74408000D02*
X138964000Y-74408000D01*
%TO.C,SC5*%
X173964000Y-74760000D02*
X173964000Y-96760000D01*
X138964000Y-96760000D02*
X138964000Y-74760000D01*
X173964000Y-96760000D02*
X138964000Y-96760000D01*
X138964000Y-74760000D02*
X173964000Y-74760000D01*
D12*
%TO.C,D2*%
X99130000Y-82235000D02*
X99130000Y-86985000D01*
X102030000Y-82235000D02*
X102030000Y-86985000D01*
X101392800Y-84178200D02*
X99843400Y-84178200D01*
X99130000Y-82235000D02*
X102030000Y-82235000D01*
X99130000Y-86985000D02*
X102030000Y-86985000D01*
G36*
X101215000Y-85118000D02*
G01*
X99868800Y-85118000D01*
X100605400Y-84305200D01*
X101215000Y-85118000D01*
G37*
D13*
X101215000Y-85118000D02*
X99868800Y-85118000D01*
X100605400Y-84305200D01*
X101215000Y-85118000D01*
D12*
%TO.C,D6*%
X175334000Y-71971000D02*
X175334000Y-67221000D01*
X175971200Y-70027800D02*
X177520600Y-70027800D01*
X178234000Y-67221000D02*
X175334000Y-67221000D01*
X178234000Y-71971000D02*
X178234000Y-67221000D01*
X178234000Y-71971000D02*
X175334000Y-71971000D01*
G36*
X176758600Y-69900800D02*
G01*
X176149000Y-69088000D01*
X177495200Y-69088000D01*
X176758600Y-69900800D01*
G37*
D13*
X176758600Y-69900800D02*
X176149000Y-69088000D01*
X177495200Y-69088000D01*
X176758600Y-69900800D01*
D12*
%TO.C,D3*%
X99170000Y-106355000D02*
X102070000Y-106355000D01*
X101432800Y-108298200D02*
X99883400Y-108298200D01*
X99170000Y-106355000D02*
X99170000Y-111105000D01*
X99170000Y-111105000D02*
X102070000Y-111105000D01*
X102070000Y-106355000D02*
X102070000Y-111105000D01*
G36*
X101255000Y-109238000D02*
G01*
X99908800Y-109238000D01*
X100645400Y-108425200D01*
X101255000Y-109238000D01*
G37*
D13*
X101255000Y-109238000D02*
X99908800Y-109238000D01*
X100645400Y-108425200D01*
X101255000Y-109238000D01*
D12*
%TO.C,D9*%
X114771800Y-48972800D02*
X114771800Y-47423400D01*
X111965000Y-46710000D02*
X111965000Y-49610000D01*
X116715000Y-46710000D02*
X116715000Y-49610000D01*
X116715000Y-49610000D02*
X111965000Y-49610000D01*
X116715000Y-46710000D02*
X111965000Y-46710000D01*
G36*
X114644800Y-48185400D02*
G01*
X113832000Y-48795000D01*
X113832000Y-47448800D01*
X114644800Y-48185400D01*
G37*
D13*
X114644800Y-48185400D02*
X113832000Y-48795000D01*
X113832000Y-47448800D01*
X114644800Y-48185400D01*
D12*
%TO.C,D5*%
X175320000Y-87245000D02*
X175320000Y-82495000D01*
X175957200Y-85301800D02*
X177506600Y-85301800D01*
X178220000Y-82495000D02*
X175320000Y-82495000D01*
X178220000Y-87245000D02*
X178220000Y-82495000D01*
X178220000Y-87245000D02*
X175320000Y-87245000D01*
G36*
X176744600Y-85174800D02*
G01*
X176135000Y-84362000D01*
X177481200Y-84362000D01*
X176744600Y-85174800D01*
G37*
D13*
X176744600Y-85174800D02*
X176135000Y-84362000D01*
X177481200Y-84362000D01*
X176744600Y-85174800D01*
D12*
%TO.C,D1*%
X99130000Y-60965000D02*
X102030000Y-60965000D01*
X101392800Y-62908200D02*
X99843400Y-62908200D01*
X99130000Y-60965000D02*
X99130000Y-65715000D01*
X102030000Y-60965000D02*
X102030000Y-65715000D01*
X99130000Y-65715000D02*
X102030000Y-65715000D01*
G36*
X101215000Y-63848000D02*
G01*
X99868800Y-63848000D01*
X100605400Y-63035200D01*
X101215000Y-63848000D01*
G37*
D13*
X101215000Y-63848000D02*
X99868800Y-63848000D01*
X100605400Y-63035200D01*
X101215000Y-63848000D01*
D12*
%TO.C,D4*%
X175320000Y-110645000D02*
X175320000Y-105895000D01*
X178220000Y-110645000D02*
X175320000Y-110645000D01*
X175957200Y-108701800D02*
X177506600Y-108701800D01*
X178220000Y-105895000D02*
X175320000Y-105895000D01*
X178220000Y-110645000D02*
X178220000Y-105895000D01*
G36*
X176744600Y-108574800D02*
G01*
X176135000Y-107762000D01*
X177481200Y-107762000D01*
X176744600Y-108574800D01*
G37*
D13*
X176744600Y-108574800D02*
X176135000Y-107762000D01*
X177481200Y-107762000D01*
X176744600Y-108574800D01*
D11*
%TO.C,SC1*%
X138404000Y-74408000D02*
X103404000Y-74408000D01*
X138404000Y-52408000D02*
X138404000Y-74408000D01*
X103404000Y-52408000D02*
X138404000Y-52408000D01*
X103404000Y-74408000D02*
X103404000Y-52408000D01*
%TO.C,SC2*%
X138404000Y-74760000D02*
X138404000Y-96760000D01*
X103404000Y-74760000D02*
X138404000Y-74760000D01*
X103404000Y-96760000D02*
X103404000Y-74760000D01*
X138404000Y-96760000D02*
X103404000Y-96760000D01*
%TO.C,SC3*%
X103404000Y-119112000D02*
X103404000Y-97112000D01*
X138404000Y-119112000D02*
X103404000Y-119112000D01*
X138404000Y-97112000D02*
X138404000Y-119112000D01*
X103404000Y-97112000D02*
X138404000Y-97112000D01*
%TO.C,SC4*%
X174000000Y-119112000D02*
X139000000Y-119112000D01*
X139000000Y-119112000D02*
X139000000Y-97112000D01*
X139000000Y-97112000D02*
X174000000Y-97112000D01*
X174000000Y-97112000D02*
X174000000Y-119112000D01*
D14*
%TO.C,U1*%
X113996500Y-122221000D02*
X113996500Y-124221000D01*
X111798500Y-122221000D02*
X111798500Y-124221000D01*
D15*
X113647500Y-121286000D02*
G75*
G03*
X113647500Y-121286000I-100000J0D01*
G01*
D12*
%TO.C,C5*%
X117025000Y-133951252D02*
X117025000Y-133428748D01*
X118495000Y-133951252D02*
X118495000Y-133428748D01*
%TO.C,L1*%
X110725000Y-134377779D02*
X110725000Y-134052221D01*
X111745000Y-134377779D02*
X111745000Y-134052221D01*
%TO.C,R15*%
X117780000Y-126601359D02*
X117780000Y-126908641D01*
X117020000Y-126601359D02*
X117020000Y-126908641D01*
%TO.C,C1*%
X113012779Y-120850000D02*
X112687221Y-120850000D01*
X113012779Y-119830000D02*
X112687221Y-119830000D01*
%TO.C,R14*%
X115860000Y-124421359D02*
X115860000Y-124728641D01*
X116620000Y-124421359D02*
X116620000Y-124728641D01*
%TO.C,C4*%
X115725000Y-133022836D02*
X115725000Y-132807164D01*
X116445000Y-133022836D02*
X116445000Y-132807164D01*
%TO.C,R13*%
X117020000Y-124728641D02*
X117020000Y-124421359D01*
X117780000Y-124728641D02*
X117780000Y-124421359D01*
%TO.C,R17*%
X113100000Y-133793641D02*
X113100000Y-133486359D01*
X112340000Y-133793641D02*
X112340000Y-133486359D01*
%TO.C,U2*%
X114767999Y-130846999D02*
X114767999Y-127747001D01*
X111668001Y-127747001D02*
X111668001Y-130846999D01*
G36*
X112408499Y-126162401D02*
G01*
X112027499Y-126162401D01*
X112027499Y-125908401D01*
X112408499Y-125908401D01*
X112408499Y-126162401D01*
G37*
D13*
X112408499Y-126162401D02*
X112027499Y-126162401D01*
X112027499Y-125908401D01*
X112408499Y-125908401D01*
X112408499Y-126162401D01*
D12*
%TO.C,R16*%
X115880000Y-126908641D02*
X115880000Y-126601359D01*
X116640000Y-126908641D02*
X116640000Y-126601359D01*
%TO.C,L2*%
X114803000Y-134359779D02*
X114803000Y-134034221D01*
X113783000Y-134359779D02*
X113783000Y-134034221D01*
%TD*%
%LPC*%
%TO.C,U2*%
G36*
X112624300Y-130220500D02*
G01*
X112064500Y-130220500D01*
X112064500Y-128373500D01*
X112624300Y-128373500D01*
X112624300Y-130220500D01*
G37*
D13*
X112624300Y-130220500D02*
X112064500Y-130220500D01*
X112064500Y-128373500D01*
X112624300Y-128373500D01*
X112624300Y-130220500D01*
G36*
X114371500Y-130220500D02*
G01*
X113811700Y-130220500D01*
X113811700Y-128373500D01*
X114371500Y-128373500D01*
X114371500Y-130220500D01*
G37*
X114371500Y-130220500D02*
X113811700Y-130220500D01*
X113811700Y-128373500D01*
X114371500Y-128373500D01*
X114371500Y-130220500D01*
G36*
X114371500Y-129490700D02*
G01*
X112064500Y-129490700D01*
X112064500Y-129103300D01*
X114371500Y-129103300D01*
X114371500Y-129490700D01*
G37*
X114371500Y-129490700D02*
X112064500Y-129490700D01*
X112064500Y-129103300D01*
X114371500Y-129103300D01*
X114371500Y-129490700D01*
G36*
X113411700Y-130220500D02*
G01*
X113024300Y-130220500D01*
X113024300Y-128373500D01*
X113411700Y-128373500D01*
X113411700Y-130220500D01*
G37*
X113411700Y-130220500D02*
X113024300Y-130220500D01*
X113024300Y-128373500D01*
X113411700Y-128373500D01*
X113411700Y-130220500D01*
G36*
X114371500Y-128703300D02*
G01*
X112064500Y-128703300D01*
X112064500Y-128373500D01*
X114371500Y-128373500D01*
X114371500Y-128703300D01*
G37*
X114371500Y-128703300D02*
X112064500Y-128703300D01*
X112064500Y-128373500D01*
X114371500Y-128373500D01*
X114371500Y-128703300D01*
G36*
X114371500Y-130220500D02*
G01*
X112064500Y-130220500D01*
X112064500Y-129890700D01*
X114371500Y-129890700D01*
X114371500Y-130220500D01*
G37*
X114371500Y-130220500D02*
X112064500Y-130220500D01*
X112064500Y-129890700D01*
X114371500Y-129890700D01*
X114371500Y-130220500D01*
%TD*%
D16*
%TO.C,SC6*%
X143464000Y-67908000D03*
X143464000Y-58908000D03*
%TD*%
%TO.C,SC5*%
X143464000Y-90260000D03*
X143464000Y-81260000D03*
%TD*%
D17*
%TO.C,D2*%
X100580000Y-82610000D03*
X100580000Y-86610000D03*
%TD*%
%TO.C,D6*%
X176784000Y-71596000D03*
X176784000Y-67596000D03*
%TD*%
%TO.C,D3*%
X100620000Y-106730000D03*
X100620000Y-110730000D03*
%TD*%
D18*
%TO.C,D9*%
X116340000Y-48160000D03*
X112340000Y-48160000D03*
%TD*%
D17*
%TO.C,D5*%
X176770000Y-86870000D03*
X176770000Y-82870000D03*
%TD*%
%TO.C,D1*%
X100580000Y-61340000D03*
X100580000Y-65340000D03*
%TD*%
%TO.C,D4*%
X176770000Y-110270000D03*
X176770000Y-106270000D03*
%TD*%
D19*
%TO.C,H1*%
X176900000Y-94810000D03*
D20*
X176900000Y-94810000D03*
%TD*%
%TO.C,H2*%
X176900000Y-47810000D03*
D19*
X176900000Y-47810000D03*
%TD*%
D20*
%TO.C,H3*%
X138400000Y-47810000D03*
D19*
X138400000Y-47810000D03*
%TD*%
D20*
%TO.C,H4*%
X99900000Y-47810000D03*
D19*
X99900000Y-47810000D03*
%TD*%
%TO.C,H5*%
X99900000Y-94810000D03*
D20*
X99900000Y-94810000D03*
%TD*%
D19*
%TO.C,H6*%
X99900000Y-141810000D03*
D20*
X99900000Y-141810000D03*
%TD*%
%TO.C,H7*%
X138400000Y-141810000D03*
D19*
X138400000Y-141810000D03*
%TD*%
D20*
%TO.C,H8*%
X176900000Y-141810000D03*
D19*
X176900000Y-141810000D03*
%TD*%
D16*
%TO.C,SC1*%
X133904000Y-58908000D03*
X133904000Y-67908000D03*
%TD*%
%TO.C,SC2*%
X133904000Y-81260000D03*
X133904000Y-90260000D03*
%TD*%
%TO.C,SC3*%
X133904000Y-103612000D03*
X133904000Y-112612000D03*
%TD*%
%TO.C,SC4*%
X143500000Y-112612000D03*
X143500000Y-103612000D03*
%TD*%
D21*
%TO.C,U1*%
X113547500Y-122226000D03*
X112897500Y-122226000D03*
X112247500Y-122226000D03*
X112247500Y-124216000D03*
X112897500Y-124216000D03*
X113547500Y-124216000D03*
D22*
X112897500Y-123221000D03*
%TD*%
D23*
%TO.C,C5*%
X117760000Y-134640000D03*
X117760000Y-132740000D03*
%TD*%
D24*
%TO.C,L1*%
X111235000Y-135002500D03*
X111235000Y-133427500D03*
%TD*%
D25*
%TO.C,R15*%
X117400000Y-126245000D03*
X117400000Y-127265000D03*
%TD*%
D26*
%TO.C,C1*%
X113637500Y-120340000D03*
X112062500Y-120340000D03*
%TD*%
D25*
%TO.C,R14*%
X116240000Y-124065000D03*
X116240000Y-125085000D03*
%TD*%
D27*
%TO.C,C4*%
X116085000Y-133395000D03*
X116085000Y-132435000D03*
%TD*%
D28*
%TO.C,R13*%
X117400000Y-125085000D03*
X117400000Y-124065000D03*
%TD*%
%TO.C,R17*%
X112720000Y-134150000D03*
X112720000Y-133130000D03*
%TD*%
D29*
%TO.C,U2*%
X112217999Y-131471999D03*
X112718001Y-131471999D03*
X113218000Y-131471999D03*
X113717999Y-131471999D03*
X114218001Y-131471999D03*
X114218001Y-127122001D03*
X113717999Y-127122001D03*
X113218000Y-127122001D03*
X112718001Y-127122001D03*
X112217999Y-127122001D03*
%TD*%
D28*
%TO.C,R16*%
X116260000Y-127265000D03*
X116260000Y-126245000D03*
%TD*%
D24*
%TO.C,L2*%
X114293000Y-134984500D03*
X114293000Y-133409500D03*
%TD*%
M02*
