M48
; DRILL file {KiCad (6.0.4-0)} date Friday, May 13, 2022 at 11:59:22 AM
; FORMAT={-:-/ absolute / metric / decimal}
; #@! TF.CreationDate,2022-05-13T11:59:22-07:00
; #@! TF.GenerationSoftware,Kicad,Pcbnew,(6.0.4-0)
; #@! TF.FileFunction,Plated,1,6,PTH
FMAT,2
METRIC
; #@! TA.AperFunction,Plated,PTH,ViaDrill
T1C0.400
; #@! TA.AperFunction,Plated,PTH,ComponentDrill
T2C2.000
; #@! TA.AperFunction,Plated,PTH,ComponentDrill
T3C2.200
%
G90
G05
T1
X101.52Y-138.63
X102.96Y-140.11
X109.56Y-130.58
X109.64Y-132.13
X110.38Y-122.023
X110.55Y-130.56
X111.119Y-124.237
X111.908Y-104.47
X114.929Y-124.237
X115.972Y-109.296
X118.56Y-48.16
X123.17Y-48.17
X123.522Y-104.47
X127.586Y-109.296
T2
X133.904Y-58.908
X133.904Y-67.908
X133.904Y-81.26
X133.904Y-90.26
X133.904Y-103.612
X133.904Y-112.612
X143.464Y-58.908
X143.464Y-67.908
X143.464Y-81.26
X143.464Y-90.26
X143.5Y-103.612
X143.5Y-112.612
T3
X99.9Y-47.81
X99.9Y-94.81
X99.9Y-141.81
X138.4Y-47.81
X138.4Y-141.81
X176.9Y-47.81
X176.9Y-94.81
X176.9Y-141.81
T0
M30
