%TF.GenerationSoftware,KiCad,Pcbnew,(6.0.4-0)*%
%TF.CreationDate,2022-05-13T14:17:40-07:00*%
%TF.ProjectId,solar-panel-side-X-plus,736f6c61-722d-4706-916e-656c2d736964,rev?*%
%TF.SameCoordinates,Original*%
%TF.FileFunction,Copper,L3,Inr*%
%TF.FilePolarity,Positive*%
%FSLAX46Y46*%
G04 Gerber Fmt 4.6, Leading zero omitted, Abs format (unit mm)*
G04 Created by KiCad (PCBNEW (6.0.4-0)) date 2022-05-13 14:17:40*
%MOMM*%
%LPD*%
G01*
G04 APERTURE LIST*
%TA.AperFunction,ComponentPad*%
%ADD10C,3.000000*%
%TD*%
%TA.AperFunction,ComponentPad*%
%ADD11C,2.600000*%
%TD*%
%TA.AperFunction,ViaPad*%
%ADD12C,0.800000*%
%TD*%
%TA.AperFunction,Conductor*%
%ADD13C,0.152400*%
%TD*%
G04 APERTURE END LIST*
D10*
%TO.N,Net-(D5-Pad2)*%
%TO.C,SC6*%
X143464000Y-67908000D03*
%TO.N,GND*%
X143464000Y-58908000D03*
%TD*%
%TO.N,Net-(D4-Pad2)*%
%TO.C,SC5*%
X143464000Y-90260000D03*
%TO.N,Net-(D5-Pad2)*%
X143464000Y-81260000D03*
%TD*%
D11*
%TO.N,GND*%
%TO.C,H1*%
X176900000Y-94810000D03*
%TD*%
%TO.N,GND*%
%TO.C,H2*%
X176900000Y-47810000D03*
%TD*%
%TO.N,GND*%
%TO.C,H3*%
X138400000Y-47810000D03*
%TD*%
%TO.N,GND*%
%TO.C,H4*%
X99900000Y-47810000D03*
%TD*%
%TO.N,GND*%
%TO.C,H5*%
X99900000Y-94810000D03*
%TD*%
%TO.N,GND*%
%TO.C,H6*%
X99900000Y-141810000D03*
%TD*%
%TO.N,GND*%
%TO.C,H7*%
X138400000Y-141810000D03*
%TD*%
%TO.N,GND*%
%TO.C,H8*%
X176900000Y-141810000D03*
%TD*%
D10*
%TO.N,Net-(D1-Pad1)*%
%TO.C,SC1*%
X133904000Y-58908000D03*
%TO.N,Net-(D1-Pad2)*%
X133904000Y-67908000D03*
%TD*%
%TO.N,Net-(D1-Pad2)*%
%TO.C,SC2*%
X133904000Y-81260000D03*
%TO.N,Net-(D2-Pad2)*%
X133904000Y-90260000D03*
%TD*%
%TO.N,Net-(D2-Pad2)*%
%TO.C,SC3*%
X133904000Y-103612000D03*
%TO.N,Net-(D3-Pad2)*%
X133904000Y-112612000D03*
%TD*%
%TO.N,Net-(D3-Pad2)*%
%TO.C,SC4*%
X143500000Y-112612000D03*
%TO.N,Net-(D4-Pad2)*%
X143500000Y-103612000D03*
%TD*%
D12*
%TO.N,+3V3*%
X123170000Y-48170000D03*
X111907990Y-104469510D03*
X123521990Y-104469510D03*
X127585990Y-109295510D03*
X115971990Y-109295510D03*
%TO.N,GND*%
X110379989Y-122022511D03*
%TO.N,VSOLAR*%
X118560000Y-48160000D03*
%TO.N,SCL*%
X111119500Y-124237000D03*
%TO.N,SDA*%
X114929500Y-124237000D03*
%TO.N,/torque-coil*%
X109560000Y-130580000D03*
X109640000Y-132130000D03*
X102960000Y-140110000D03*
X110550000Y-130560000D03*
X101520000Y-138630000D03*
%TD*%
D13*
%TO.N,/torque-coil*%
X104788400Y-52383600D02*
X104483600Y-52688400D01*
X106007600Y-135594000D02*
X170320400Y-135594000D01*
X169101200Y-55736400D02*
X168796400Y-55431600D01*
X103874000Y-137118000D02*
X104178800Y-137422800D01*
X108446000Y-132546000D02*
X108750800Y-132850800D01*
X106312400Y-54517200D02*
X106312400Y-134679600D01*
X105398000Y-53602800D02*
X105398000Y-135594000D01*
X105702800Y-135289200D02*
X106007600Y-135594000D01*
X173368400Y-51469200D02*
X173063600Y-51164400D01*
X169710800Y-134984400D02*
X170015600Y-134679600D01*
X171844400Y-136508400D02*
X171844400Y-52993200D01*
X106922000Y-134070000D02*
X107226800Y-134374800D01*
X167882000Y-56955600D02*
X167577200Y-56650800D01*
X103874000Y-137727600D02*
X172454000Y-137727600D01*
X173063600Y-138337200D02*
X173368400Y-138032400D01*
X170320400Y-134984400D02*
X170320400Y-54517200D01*
X108750800Y-56955600D02*
X108750800Y-131220800D01*
X108446000Y-133155600D02*
X167882000Y-133155600D01*
X107226800Y-55431600D02*
X107226800Y-133765200D01*
X107531600Y-134070000D02*
X168796400Y-134070000D01*
X173978000Y-138642000D02*
X173978000Y-50859600D01*
X173368400Y-50859600D02*
X103264400Y-50859600D01*
X108141200Y-133460400D02*
X168186800Y-133460400D01*
X171539600Y-136203600D02*
X171539600Y-53298000D01*
X172454000Y-51774000D02*
X104178800Y-51774000D01*
X172149200Y-52688400D02*
X171844400Y-52383600D01*
X171234800Y-53602800D02*
X170930000Y-53298000D01*
X104788400Y-136203600D02*
X105093200Y-136508400D01*
X103569200Y-138032400D02*
X172758800Y-138032400D01*
X168796400Y-134070000D02*
X169101200Y-133765200D01*
X169101200Y-55126800D02*
X107531600Y-55126800D01*
X106007600Y-53602800D02*
X105702800Y-53907600D01*
X173673200Y-138337200D02*
X173673200Y-51164400D01*
X171844400Y-52383600D02*
X104788400Y-52383600D01*
X171234800Y-52993200D02*
X105398000Y-52993200D01*
X171234800Y-135898800D02*
X171234800Y-53602800D01*
X104483600Y-137118000D02*
X171844400Y-137118000D01*
X102350000Y-50554800D02*
X102350000Y-138642000D01*
X103264400Y-50859600D02*
X102959600Y-51164400D01*
X104178800Y-136813200D02*
X104483600Y-137118000D01*
X169406000Y-54822000D02*
X107226800Y-54822000D01*
X172758800Y-137422800D02*
X172758800Y-52078800D01*
X173978000Y-139251600D02*
X174282800Y-138946800D01*
X168186800Y-133460400D02*
X168491600Y-133155600D01*
X103569200Y-51164400D02*
X103264400Y-51469200D01*
X167882000Y-132546000D02*
X167882000Y-56955600D01*
X170625200Y-53602800D02*
X106007600Y-53602800D01*
X104788400Y-136813200D02*
X171539600Y-136813200D01*
X102959600Y-50554800D02*
X102654800Y-50859600D01*
X173368400Y-138642000D02*
X173673200Y-138337200D01*
X105702800Y-53298000D02*
X105398000Y-53602800D01*
X105702800Y-135898800D02*
X170625200Y-135898800D01*
X173673200Y-51164400D02*
X173368400Y-50859600D01*
X170930000Y-53298000D02*
X105702800Y-53298000D01*
X168186800Y-56650800D02*
X167882000Y-56346000D01*
X167882000Y-56346000D02*
X108750800Y-56346000D01*
X108446000Y-56041200D02*
X108141200Y-56346000D01*
X172758800Y-51469200D02*
X103874000Y-51469200D01*
X102959600Y-138032400D02*
X103264400Y-138337200D01*
X106922000Y-134679600D02*
X169406000Y-134679600D01*
X168491600Y-55736400D02*
X108141200Y-55736400D01*
X106617200Y-134984400D02*
X169710800Y-134984400D01*
X170320400Y-53907600D02*
X106312400Y-53907600D01*
X170015600Y-135289200D02*
X170320400Y-134984400D01*
X167577200Y-132850800D02*
X167882000Y-132546000D01*
X102654800Y-138337200D02*
X102959600Y-138642000D01*
X173978000Y-50250000D02*
X102654800Y-50250000D01*
X173063600Y-51774000D02*
X172758800Y-51469200D01*
X108446000Y-56650800D02*
X108446000Y-132546000D01*
X106617200Y-134374800D02*
X106922000Y-134679600D01*
X168491600Y-133765200D02*
X168796400Y-133460400D01*
X173673200Y-50554800D02*
X102959600Y-50554800D01*
X171539600Y-53298000D02*
X171234800Y-52993200D01*
X105093200Y-136508400D02*
X171234800Y-136508400D01*
X107531600Y-133460400D02*
X107836400Y-133765200D01*
X168186800Y-56041200D02*
X108446000Y-56041200D01*
X173368400Y-138032400D02*
X173368400Y-51469200D01*
X107226800Y-133765200D02*
X107531600Y-134070000D01*
X169406000Y-134070000D02*
X169406000Y-55431600D01*
X169101200Y-134374800D02*
X169406000Y-134070000D01*
X103569200Y-51774000D02*
X103569200Y-137422800D01*
X170625200Y-135898800D02*
X170930000Y-135594000D01*
X104483600Y-52078800D02*
X104178800Y-52383600D01*
X170930000Y-53907600D02*
X170625200Y-53602800D01*
X105398000Y-136203600D02*
X170930000Y-136203600D01*
X170015600Y-54212400D02*
X106617200Y-54212400D01*
X108141200Y-55736400D02*
X107836400Y-56041200D01*
X102350000Y-138642000D02*
X102654800Y-138946800D01*
X107836400Y-56041200D02*
X107836400Y-133155600D01*
X103874000Y-51469200D02*
X103569200Y-51774000D01*
X103264400Y-138337200D02*
X173063600Y-138337200D01*
X167577200Y-56650800D02*
X109055600Y-56650800D01*
X105093200Y-135898800D02*
X105398000Y-136203600D01*
X173063600Y-51164400D02*
X103569200Y-51164400D01*
X105093200Y-53298000D02*
X105093200Y-135898800D01*
X105093200Y-52688400D02*
X104788400Y-52993200D01*
X169710800Y-55126800D02*
X169406000Y-54822000D01*
X171539600Y-52688400D02*
X105093200Y-52688400D01*
X104178800Y-51774000D02*
X103874000Y-52078800D01*
X107836400Y-133765200D02*
X168491600Y-133765200D01*
X106922000Y-54517200D02*
X106617200Y-54822000D01*
X105398000Y-52993200D02*
X105093200Y-53298000D01*
X169101200Y-133765200D02*
X169101200Y-55736400D01*
X108750800Y-132850800D02*
X167577200Y-132850800D01*
X107836400Y-55431600D02*
X107531600Y-55736400D01*
X168186800Y-132850800D02*
X168186800Y-56650800D01*
X172454000Y-137118000D02*
X172454000Y-52383600D01*
X106312400Y-53907600D02*
X106007600Y-54212400D01*
X172149200Y-137422800D02*
X172454000Y-137118000D01*
X108141200Y-56346000D02*
X108141200Y-132850800D01*
X174282800Y-50554800D02*
X173978000Y-50250000D01*
X106007600Y-54212400D02*
X106007600Y-134984400D01*
X105398000Y-135594000D02*
X105702800Y-135898800D01*
X106007600Y-134984400D02*
X106312400Y-135289200D01*
X172149200Y-136813200D02*
X172149200Y-52688400D01*
X108141200Y-132850800D02*
X108446000Y-133155600D01*
X168796400Y-133460400D02*
X168796400Y-56041200D01*
X172758800Y-52078800D02*
X172454000Y-51774000D01*
X104178800Y-137422800D02*
X172149200Y-137422800D01*
X168491600Y-56346000D02*
X168186800Y-56041200D01*
X172149200Y-52078800D02*
X104483600Y-52078800D01*
X102959600Y-138642000D02*
X173368400Y-138642000D01*
X173978000Y-50859600D02*
X173673200Y-50554800D01*
X169710800Y-54517200D02*
X106922000Y-54517200D01*
X106617200Y-54212400D02*
X106312400Y-54517200D01*
X103569200Y-137422800D02*
X103874000Y-137727600D01*
X103264400Y-51469200D02*
X103264400Y-137727600D01*
X108750800Y-131220800D02*
X109560000Y-132030000D01*
X107531600Y-55736400D02*
X107531600Y-133460400D01*
X104788400Y-52993200D02*
X104788400Y-136203600D01*
X172758800Y-138032400D02*
X173063600Y-137727600D01*
X104483600Y-136508400D02*
X104788400Y-136813200D01*
X105702800Y-53907600D02*
X105702800Y-135289200D01*
X103264400Y-137727600D02*
X103569200Y-138032400D01*
X104483600Y-52688400D02*
X104483600Y-136508400D01*
X102654800Y-50250000D02*
X102350000Y-50554800D01*
X170320400Y-54517200D02*
X170015600Y-54212400D01*
X167882000Y-133155600D02*
X168186800Y-132850800D01*
X104178800Y-52383600D02*
X104178800Y-136813200D01*
X171844400Y-52993200D02*
X171539600Y-52688400D01*
X170015600Y-54822000D02*
X169710800Y-54517200D01*
X106617200Y-54822000D02*
X106617200Y-134374800D01*
X173063600Y-137727600D02*
X173063600Y-51774000D01*
X174282800Y-138946800D02*
X174282800Y-50554800D01*
X169710800Y-134374800D02*
X169710800Y-55126800D01*
X170625200Y-135289200D02*
X170625200Y-54212400D01*
X173673200Y-138946800D02*
X173978000Y-138642000D01*
X169406000Y-134679600D02*
X169710800Y-134374800D01*
X168796400Y-56041200D02*
X168491600Y-55736400D01*
X171844400Y-137118000D02*
X172149200Y-136813200D01*
X107226800Y-54822000D02*
X106922000Y-55126800D01*
X102960000Y-140110000D02*
X103818400Y-139251600D01*
X102959600Y-51164400D02*
X102959600Y-138032400D01*
X103818400Y-139251600D02*
X173978000Y-139251600D01*
X109055600Y-56650800D02*
X108750800Y-56955600D01*
X168491600Y-133155600D02*
X168491600Y-56346000D01*
X170625200Y-54212400D02*
X170320400Y-53907600D01*
X170930000Y-136203600D02*
X171234800Y-135898800D01*
X108750800Y-56346000D02*
X108446000Y-56650800D01*
X169406000Y-55431600D02*
X169101200Y-55126800D01*
X106312400Y-135289200D02*
X170015600Y-135289200D01*
X107226800Y-134374800D02*
X169101200Y-134374800D01*
X170930000Y-135594000D02*
X170930000Y-53907600D01*
X102654800Y-138946800D02*
X173673200Y-138946800D01*
X103874000Y-52078800D02*
X103874000Y-137118000D01*
X170015600Y-134679600D02*
X170015600Y-54822000D01*
X107531600Y-55126800D02*
X107226800Y-55431600D01*
X168796400Y-55431600D02*
X107836400Y-55431600D01*
X172454000Y-137727600D02*
X172758800Y-137422800D01*
X172454000Y-52383600D02*
X172149200Y-52078800D01*
X171539600Y-136813200D02*
X171844400Y-136508400D01*
X171234800Y-136508400D02*
X171539600Y-136203600D01*
X102654800Y-50859600D02*
X102654800Y-138337200D01*
X106312400Y-134679600D02*
X106617200Y-134984400D01*
X170320400Y-135594000D02*
X170625200Y-135289200D01*
X106922000Y-55126800D02*
X106922000Y-134070000D01*
X107836400Y-133155600D02*
X108141200Y-133460400D01*
%TD*%
M02*
