%TF.GenerationSoftware,KiCad,Pcbnew,(6.0.4-0)*%
%TF.CreationDate,2022-05-13T11:56:40-07:00*%
%TF.ProjectId,solar-panel-side-X-plus,736f6c61-722d-4706-916e-656c2d736964,rev?*%
%TF.SameCoordinates,Original*%
%TF.FileFunction,Legend,Bot*%
%TF.FilePolarity,Positive*%
%FSLAX46Y46*%
G04 Gerber Fmt 4.6, Leading zero omitted, Abs format (unit mm)*
G04 Created by KiCad (PCBNEW (6.0.4-0)) date 2022-05-13 11:56:40*
%MOMM*%
%LPD*%
G01*
G04 APERTURE LIST*
G04 Aperture macros list*
%AMRoundRect*
0 Rectangle with rounded corners*
0 $1 Rounding radius*
0 $2 $3 $4 $5 $6 $7 $8 $9 X,Y pos of 4 corners*
0 Add a 4 corners polygon primitive as box body*
4,1,4,$2,$3,$4,$5,$6,$7,$8,$9,$2,$3,0*
0 Add four circle primitives for the rounded corners*
1,1,$1+$1,$2,$3*
1,1,$1+$1,$4,$5*
1,1,$1+$1,$6,$7*
1,1,$1+$1,$8,$9*
0 Add four rect primitives between the rounded corners*
20,1,$1+$1,$2,$3,$4,$5,0*
20,1,$1+$1,$4,$5,$6,$7,0*
20,1,$1+$1,$6,$7,$8,$9,0*
20,1,$1+$1,$8,$9,$2,$3,0*%
G04 Aperture macros list end*
%ADD10C,0.100000*%
%ADD11C,0.150000*%
%ADD12C,0.127000*%
%ADD13C,0.120000*%
%ADD14C,0.200000*%
%ADD15C,0.010000*%
%ADD16C,3.000000*%
%ADD17C,3.800000*%
%ADD18C,2.600000*%
%ADD19RoundRect,0.218750X-0.218750X-0.256250X0.218750X-0.256250X0.218750X0.256250X-0.218750X0.256250X0*%
%ADD20R,0.400000X0.650000*%
%ADD21RoundRect,0.218750X0.218750X0.256250X-0.218750X0.256250X-0.218750X-0.256250X0.218750X-0.256250X0*%
%ADD22R,0.400000X0.600000*%
G04 APERTURE END LIST*
D10*
X117373333Y-65690000D02*
X117440000Y-65656666D01*
X117540000Y-65656666D01*
X117640000Y-65690000D01*
X117706666Y-65756666D01*
X117740000Y-65823333D01*
X117773333Y-65956666D01*
X117773333Y-66056666D01*
X117740000Y-66190000D01*
X117706666Y-66256666D01*
X117640000Y-66323333D01*
X117540000Y-66356666D01*
X117473333Y-66356666D01*
X117373333Y-66323333D01*
X117340000Y-66290000D01*
X117340000Y-66056666D01*
X117473333Y-66056666D01*
X117040000Y-66356666D02*
X117040000Y-65656666D01*
X116640000Y-66356666D01*
X116640000Y-65656666D01*
X116306666Y-66356666D02*
X116306666Y-65656666D01*
X116140000Y-65656666D01*
X116040000Y-65690000D01*
X115973333Y-65756666D01*
X115940000Y-65823333D01*
X115906666Y-65956666D01*
X115906666Y-66056666D01*
X115940000Y-66190000D01*
X115973333Y-66256666D01*
X116040000Y-66323333D01*
X116140000Y-66356666D01*
X116306666Y-66356666D01*
X117690000Y-62513333D02*
X117590000Y-62546666D01*
X117423333Y-62546666D01*
X117356666Y-62513333D01*
X117323333Y-62480000D01*
X117290000Y-62413333D01*
X117290000Y-62346666D01*
X117323333Y-62280000D01*
X117356666Y-62246666D01*
X117423333Y-62213333D01*
X117556666Y-62180000D01*
X117623333Y-62146666D01*
X117656666Y-62113333D01*
X117690000Y-62046666D01*
X117690000Y-61980000D01*
X117656666Y-61913333D01*
X117623333Y-61880000D01*
X117556666Y-61846666D01*
X117390000Y-61846666D01*
X117290000Y-61880000D01*
X116990000Y-62546666D02*
X116990000Y-61846666D01*
X116823333Y-61846666D01*
X116723333Y-61880000D01*
X116656666Y-61946666D01*
X116623333Y-62013333D01*
X116590000Y-62146666D01*
X116590000Y-62246666D01*
X116623333Y-62380000D01*
X116656666Y-62446666D01*
X116723333Y-62513333D01*
X116823333Y-62546666D01*
X116990000Y-62546666D01*
X116323333Y-62346666D02*
X115990000Y-62346666D01*
X116390000Y-62546666D02*
X116156666Y-61846666D01*
X115923333Y-62546666D01*
X116868847Y-115871700D02*
X116868847Y-115371700D01*
X116749799Y-115371700D01*
X116678370Y-115395510D01*
X116630751Y-115443129D01*
X116606942Y-115490748D01*
X116583132Y-115585986D01*
X116583132Y-115657414D01*
X116606942Y-115752652D01*
X116630751Y-115800271D01*
X116678370Y-115847890D01*
X116749799Y-115871700D01*
X116868847Y-115871700D01*
X116368847Y-115871700D02*
X116368847Y-115371700D01*
X116083132Y-115871700D01*
X116083132Y-115371700D01*
X115845037Y-115871700D02*
X115845037Y-115371700D01*
X115654561Y-115371700D01*
X115606942Y-115395510D01*
X115583132Y-115419319D01*
X115559323Y-115466938D01*
X115559323Y-115538367D01*
X115583132Y-115585986D01*
X115606942Y-115609795D01*
X115654561Y-115633605D01*
X115845037Y-115633605D01*
X117373333Y-59594000D02*
X117440000Y-59560666D01*
X117540000Y-59560666D01*
X117640000Y-59594000D01*
X117706666Y-59660666D01*
X117740000Y-59727333D01*
X117773333Y-59860666D01*
X117773333Y-59960666D01*
X117740000Y-60094000D01*
X117706666Y-60160666D01*
X117640000Y-60227333D01*
X117540000Y-60260666D01*
X117473333Y-60260666D01*
X117373333Y-60227333D01*
X117340000Y-60194000D01*
X117340000Y-59960666D01*
X117473333Y-59960666D01*
X117040000Y-60260666D02*
X117040000Y-59560666D01*
X116640000Y-60260666D01*
X116640000Y-59560666D01*
X116306666Y-60260666D02*
X116306666Y-59560666D01*
X116140000Y-59560666D01*
X116040000Y-59594000D01*
X115973333Y-59660666D01*
X115940000Y-59727333D01*
X115906666Y-59860666D01*
X115906666Y-59960666D01*
X115940000Y-60094000D01*
X115973333Y-60160666D01*
X116040000Y-60227333D01*
X116140000Y-60260666D01*
X116306666Y-60260666D01*
X130681061Y-115423795D02*
X130609632Y-115447605D01*
X130585823Y-115471414D01*
X130562013Y-115519033D01*
X130562013Y-115590462D01*
X130585823Y-115638081D01*
X130609632Y-115661890D01*
X130657251Y-115685700D01*
X130847728Y-115685700D01*
X130847728Y-115185700D01*
X130681061Y-115185700D01*
X130633442Y-115209510D01*
X130609632Y-115233319D01*
X130585823Y-115280938D01*
X130585823Y-115328557D01*
X130609632Y-115376176D01*
X130633442Y-115399986D01*
X130681061Y-115423795D01*
X130847728Y-115423795D01*
X130252490Y-115447605D02*
X130252490Y-115685700D01*
X130419156Y-115185700D02*
X130252490Y-115447605D01*
X130085823Y-115185700D01*
X129919156Y-115685700D02*
X129919156Y-115185700D01*
X129728680Y-115185700D01*
X129681061Y-115209510D01*
X129657251Y-115233319D01*
X129633442Y-115280938D01*
X129633442Y-115352367D01*
X129657251Y-115399986D01*
X129681061Y-115423795D01*
X129728680Y-115447605D01*
X129919156Y-115447605D01*
X117673333Y-64291333D02*
X117573333Y-64324666D01*
X117406666Y-64324666D01*
X117340000Y-64291333D01*
X117306666Y-64258000D01*
X117273333Y-64191333D01*
X117273333Y-64124666D01*
X117306666Y-64058000D01*
X117340000Y-64024666D01*
X117406666Y-63991333D01*
X117540000Y-63958000D01*
X117606666Y-63924666D01*
X117640000Y-63891333D01*
X117673333Y-63824666D01*
X117673333Y-63758000D01*
X117640000Y-63691333D01*
X117606666Y-63658000D01*
X117540000Y-63624666D01*
X117373333Y-63624666D01*
X117273333Y-63658000D01*
X116573333Y-64258000D02*
X116606666Y-64291333D01*
X116706666Y-64324666D01*
X116773333Y-64324666D01*
X116873333Y-64291333D01*
X116940000Y-64224666D01*
X116973333Y-64158000D01*
X117006666Y-64024666D01*
X117006666Y-63924666D01*
X116973333Y-63791333D01*
X116940000Y-63724666D01*
X116873333Y-63658000D01*
X116773333Y-63624666D01*
X116706666Y-63624666D01*
X116606666Y-63658000D01*
X116573333Y-63691333D01*
X115940000Y-64324666D02*
X116273333Y-64324666D01*
X116273333Y-63624666D01*
X118694000Y-55496666D02*
X118460666Y-56196666D01*
X118227333Y-55496666D01*
X118027333Y-56163333D02*
X117927333Y-56196666D01*
X117760666Y-56196666D01*
X117694000Y-56163333D01*
X117660666Y-56130000D01*
X117627333Y-56063333D01*
X117627333Y-55996666D01*
X117660666Y-55930000D01*
X117694000Y-55896666D01*
X117760666Y-55863333D01*
X117894000Y-55830000D01*
X117960666Y-55796666D01*
X117994000Y-55763333D01*
X118027333Y-55696666D01*
X118027333Y-55630000D01*
X117994000Y-55563333D01*
X117960666Y-55530000D01*
X117894000Y-55496666D01*
X117727333Y-55496666D01*
X117627333Y-55530000D01*
X117227333Y-56196666D02*
X117294000Y-56163333D01*
X117327333Y-56130000D01*
X117360666Y-56063333D01*
X117360666Y-55863333D01*
X117327333Y-55796666D01*
X117294000Y-55763333D01*
X117227333Y-55730000D01*
X117127333Y-55730000D01*
X117060666Y-55763333D01*
X117027333Y-55796666D01*
X116994000Y-55863333D01*
X116994000Y-56063333D01*
X117027333Y-56130000D01*
X117060666Y-56163333D01*
X117127333Y-56196666D01*
X117227333Y-56196666D01*
X116594000Y-56196666D02*
X116660666Y-56163333D01*
X116694000Y-56096666D01*
X116694000Y-55496666D01*
X116027333Y-56196666D02*
X116027333Y-55830000D01*
X116060666Y-55763333D01*
X116127333Y-55730000D01*
X116260666Y-55730000D01*
X116327333Y-55763333D01*
X116027333Y-56163333D02*
X116094000Y-56196666D01*
X116260666Y-56196666D01*
X116327333Y-56163333D01*
X116360666Y-56096666D01*
X116360666Y-56030000D01*
X116327333Y-55963333D01*
X116260666Y-55930000D01*
X116094000Y-55930000D01*
X116027333Y-55896666D01*
X115694000Y-56196666D02*
X115694000Y-55730000D01*
X115694000Y-55863333D02*
X115660666Y-55796666D01*
X115627333Y-55763333D01*
X115560666Y-55730000D01*
X115494000Y-55730000D01*
X128228847Y-115871700D02*
X128228847Y-115371700D01*
X128109799Y-115371700D01*
X128038370Y-115395510D01*
X127990751Y-115443129D01*
X127966942Y-115490748D01*
X127943132Y-115585986D01*
X127943132Y-115657414D01*
X127966942Y-115752652D01*
X127990751Y-115800271D01*
X128038370Y-115847890D01*
X128109799Y-115871700D01*
X128228847Y-115871700D01*
X127728847Y-115871700D02*
X127728847Y-115371700D01*
X127443132Y-115871700D01*
X127443132Y-115371700D01*
X127205037Y-115871700D02*
X127205037Y-115371700D01*
X127014561Y-115371700D01*
X126966942Y-115395510D01*
X126943132Y-115419319D01*
X126919323Y-115466938D01*
X126919323Y-115538367D01*
X126943132Y-115585986D01*
X126966942Y-115609795D01*
X127014561Y-115633605D01*
X127205037Y-115633605D01*
X117960666Y-57274666D02*
X117527333Y-57274666D01*
X117760666Y-57541333D01*
X117660666Y-57541333D01*
X117594000Y-57574666D01*
X117560666Y-57608000D01*
X117527333Y-57674666D01*
X117527333Y-57841333D01*
X117560666Y-57908000D01*
X117594000Y-57941333D01*
X117660666Y-57974666D01*
X117860666Y-57974666D01*
X117927333Y-57941333D01*
X117960666Y-57908000D01*
X117327333Y-57274666D02*
X117094000Y-57974666D01*
X116860666Y-57274666D01*
X116694000Y-57274666D02*
X116260666Y-57274666D01*
X116494000Y-57541333D01*
X116394000Y-57541333D01*
X116327333Y-57574666D01*
X116294000Y-57608000D01*
X116260666Y-57674666D01*
X116260666Y-57841333D01*
X116294000Y-57908000D01*
X116327333Y-57941333D01*
X116394000Y-57974666D01*
X116594000Y-57974666D01*
X116660666Y-57941333D01*
X116694000Y-57908000D01*
X119131061Y-115443795D02*
X119059632Y-115467605D01*
X119035823Y-115491414D01*
X119012013Y-115539033D01*
X119012013Y-115610462D01*
X119035823Y-115658081D01*
X119059632Y-115681890D01*
X119107251Y-115705700D01*
X119297728Y-115705700D01*
X119297728Y-115205700D01*
X119131061Y-115205700D01*
X119083442Y-115229510D01*
X119059632Y-115253319D01*
X119035823Y-115300938D01*
X119035823Y-115348557D01*
X119059632Y-115396176D01*
X119083442Y-115419986D01*
X119131061Y-115443795D01*
X119297728Y-115443795D01*
X118702490Y-115467605D02*
X118702490Y-115705700D01*
X118869156Y-115205700D02*
X118702490Y-115467605D01*
X118535823Y-115205700D01*
X118369156Y-115705700D02*
X118369156Y-115205700D01*
X118178680Y-115205700D01*
X118131061Y-115229510D01*
X118107251Y-115253319D01*
X118083442Y-115300938D01*
X118083442Y-115372367D01*
X118107251Y-115419986D01*
X118131061Y-115443795D01*
X118178680Y-115467605D01*
X118369156Y-115467605D01*
D11*
%TO.C,J1*%
X131378333Y-64721380D02*
X131378333Y-65435666D01*
X131425952Y-65578523D01*
X131521190Y-65673761D01*
X131664047Y-65721380D01*
X131759285Y-65721380D01*
X130378333Y-65721380D02*
X130949761Y-65721380D01*
X130664047Y-65721380D02*
X130664047Y-64721380D01*
X130759285Y-64864238D01*
X130854523Y-64959476D01*
X130949761Y-65007095D01*
%TO.C,R8*%
X124509156Y-102251890D02*
X124842490Y-101775700D01*
X125080585Y-102251890D02*
X125080585Y-101251890D01*
X124699632Y-101251890D01*
X124604394Y-101299510D01*
X124556775Y-101347129D01*
X124509156Y-101442367D01*
X124509156Y-101585224D01*
X124556775Y-101680462D01*
X124604394Y-101728081D01*
X124699632Y-101775700D01*
X125080585Y-101775700D01*
X123937728Y-101680462D02*
X124032966Y-101632843D01*
X124080585Y-101585224D01*
X124128204Y-101489986D01*
X124128204Y-101442367D01*
X124080585Y-101347129D01*
X124032966Y-101299510D01*
X123937728Y-101251890D01*
X123747251Y-101251890D01*
X123652013Y-101299510D01*
X123604394Y-101347129D01*
X123556775Y-101442367D01*
X123556775Y-101489986D01*
X123604394Y-101585224D01*
X123652013Y-101632843D01*
X123747251Y-101680462D01*
X123937728Y-101680462D01*
X124032966Y-101728081D01*
X124080585Y-101775700D01*
X124128204Y-101870938D01*
X124128204Y-102061414D01*
X124080585Y-102156652D01*
X124032966Y-102204271D01*
X123937728Y-102251890D01*
X123747251Y-102251890D01*
X123652013Y-102204271D01*
X123604394Y-102156652D01*
X123556775Y-102061414D01*
X123556775Y-101870938D01*
X123604394Y-101775700D01*
X123652013Y-101728081D01*
X123747251Y-101680462D01*
%TO.C,R6*%
X121656656Y-113049890D02*
X121989990Y-112573700D01*
X122228085Y-113049890D02*
X122228085Y-112049890D01*
X121847132Y-112049890D01*
X121751894Y-112097510D01*
X121704275Y-112145129D01*
X121656656Y-112240367D01*
X121656656Y-112383224D01*
X121704275Y-112478462D01*
X121751894Y-112526081D01*
X121847132Y-112573700D01*
X122228085Y-112573700D01*
X120799513Y-112049890D02*
X120989990Y-112049890D01*
X121085228Y-112097510D01*
X121132847Y-112145129D01*
X121228085Y-112287986D01*
X121275704Y-112478462D01*
X121275704Y-112859414D01*
X121228085Y-112954652D01*
X121180466Y-113002271D01*
X121085228Y-113049890D01*
X120894751Y-113049890D01*
X120799513Y-113002271D01*
X120751894Y-112954652D01*
X120704275Y-112859414D01*
X120704275Y-112621319D01*
X120751894Y-112526081D01*
X120799513Y-112478462D01*
X120894751Y-112430843D01*
X121085228Y-112430843D01*
X121180466Y-112478462D01*
X121228085Y-112526081D01*
X121275704Y-112621319D01*
%TO.C,Q2*%
X128570228Y-104763129D02*
X128665466Y-104715510D01*
X128760704Y-104620271D01*
X128903561Y-104477414D01*
X128998799Y-104429795D01*
X129094037Y-104429795D01*
X129046418Y-104667890D02*
X129141656Y-104620271D01*
X129236894Y-104525033D01*
X129284513Y-104334557D01*
X129284513Y-104001224D01*
X129236894Y-103810748D01*
X129141656Y-103715510D01*
X129046418Y-103667890D01*
X128855942Y-103667890D01*
X128760704Y-103715510D01*
X128665466Y-103810748D01*
X128617847Y-104001224D01*
X128617847Y-104334557D01*
X128665466Y-104525033D01*
X128760704Y-104620271D01*
X128855942Y-104667890D01*
X129046418Y-104667890D01*
X128236894Y-103763129D02*
X128189275Y-103715510D01*
X128094037Y-103667890D01*
X127855942Y-103667890D01*
X127760704Y-103715510D01*
X127713085Y-103763129D01*
X127665466Y-103858367D01*
X127665466Y-103953605D01*
X127713085Y-104096462D01*
X128284513Y-104667890D01*
X127665466Y-104667890D01*
%TO.C,R4*%
X131009156Y-112811890D02*
X131342490Y-112335700D01*
X131580585Y-112811890D02*
X131580585Y-111811890D01*
X131199632Y-111811890D01*
X131104394Y-111859510D01*
X131056775Y-111907129D01*
X131009156Y-112002367D01*
X131009156Y-112145224D01*
X131056775Y-112240462D01*
X131104394Y-112288081D01*
X131199632Y-112335700D01*
X131580585Y-112335700D01*
X130152013Y-112145224D02*
X130152013Y-112811890D01*
X130390109Y-111764271D02*
X130628204Y-112478557D01*
X130009156Y-112478557D01*
%TO.C,R3*%
X110209156Y-112971890D02*
X110542490Y-112495700D01*
X110780585Y-112971890D02*
X110780585Y-111971890D01*
X110399632Y-111971890D01*
X110304394Y-112019510D01*
X110256775Y-112067129D01*
X110209156Y-112162367D01*
X110209156Y-112305224D01*
X110256775Y-112400462D01*
X110304394Y-112448081D01*
X110399632Y-112495700D01*
X110780585Y-112495700D01*
X109875823Y-111971890D02*
X109256775Y-111971890D01*
X109590109Y-112352843D01*
X109447251Y-112352843D01*
X109352013Y-112400462D01*
X109304394Y-112448081D01*
X109256775Y-112543319D01*
X109256775Y-112781414D01*
X109304394Y-112876652D01*
X109352013Y-112924271D01*
X109447251Y-112971890D01*
X109732966Y-112971890D01*
X109828204Y-112924271D01*
X109875823Y-112876652D01*
%TO.C,R10*%
X121895347Y-110731890D02*
X122228680Y-110255700D01*
X122466775Y-110731890D02*
X122466775Y-109731890D01*
X122085823Y-109731890D01*
X121990585Y-109779510D01*
X121942966Y-109827129D01*
X121895347Y-109922367D01*
X121895347Y-110065224D01*
X121942966Y-110160462D01*
X121990585Y-110208081D01*
X122085823Y-110255700D01*
X122466775Y-110255700D01*
X120942966Y-110731890D02*
X121514394Y-110731890D01*
X121228680Y-110731890D02*
X121228680Y-109731890D01*
X121323918Y-109874748D01*
X121419156Y-109969986D01*
X121514394Y-110017605D01*
X120323918Y-109731890D02*
X120228680Y-109731890D01*
X120133442Y-109779510D01*
X120085823Y-109827129D01*
X120038204Y-109922367D01*
X119990585Y-110112843D01*
X119990585Y-110350938D01*
X120038204Y-110541414D01*
X120085823Y-110636652D01*
X120133442Y-110684271D01*
X120228680Y-110731890D01*
X120323918Y-110731890D01*
X120419156Y-110684271D01*
X120466775Y-110636652D01*
X120514394Y-110541414D01*
X120562013Y-110350938D01*
X120562013Y-110112843D01*
X120514394Y-109922367D01*
X120466775Y-109827129D01*
X120419156Y-109779510D01*
X120323918Y-109731890D01*
D12*
%TO.C,Q3*%
X110710561Y-107172795D02*
X110783132Y-107136510D01*
X110855704Y-107063938D01*
X110964561Y-106955081D01*
X111037132Y-106918795D01*
X111109704Y-106918795D01*
X111073418Y-107100224D02*
X111145990Y-107063938D01*
X111218561Y-106991367D01*
X111254847Y-106846224D01*
X111254847Y-106592224D01*
X111218561Y-106447081D01*
X111145990Y-106374510D01*
X111073418Y-106338224D01*
X110928275Y-106338224D01*
X110855704Y-106374510D01*
X110783132Y-106447081D01*
X110746847Y-106592224D01*
X110746847Y-106846224D01*
X110783132Y-106991367D01*
X110855704Y-107063938D01*
X110928275Y-107100224D01*
X111073418Y-107100224D01*
X110492847Y-106338224D02*
X110021132Y-106338224D01*
X110275132Y-106628510D01*
X110166275Y-106628510D01*
X110093704Y-106664795D01*
X110057418Y-106701081D01*
X110021132Y-106773652D01*
X110021132Y-106955081D01*
X110057418Y-107027652D01*
X110093704Y-107063938D01*
X110166275Y-107100224D01*
X110383990Y-107100224D01*
X110456561Y-107063938D01*
X110492847Y-107027652D01*
D11*
%TO.C,R7*%
X112836656Y-102109890D02*
X113169990Y-101633700D01*
X113408085Y-102109890D02*
X113408085Y-101109890D01*
X113027132Y-101109890D01*
X112931894Y-101157510D01*
X112884275Y-101205129D01*
X112836656Y-101300367D01*
X112836656Y-101443224D01*
X112884275Y-101538462D01*
X112931894Y-101586081D01*
X113027132Y-101633700D01*
X113408085Y-101633700D01*
X112503323Y-101109890D02*
X111836656Y-101109890D01*
X112265228Y-102109890D01*
%TO.C,C2*%
X110223156Y-114714652D02*
X110270775Y-114762271D01*
X110413632Y-114809890D01*
X110508870Y-114809890D01*
X110651728Y-114762271D01*
X110746966Y-114667033D01*
X110794585Y-114571795D01*
X110842204Y-114381319D01*
X110842204Y-114238462D01*
X110794585Y-114047986D01*
X110746966Y-113952748D01*
X110651728Y-113857510D01*
X110508870Y-113809890D01*
X110413632Y-113809890D01*
X110270775Y-113857510D01*
X110223156Y-113905129D01*
X109842204Y-113905129D02*
X109794585Y-113857510D01*
X109699347Y-113809890D01*
X109461251Y-113809890D01*
X109366013Y-113857510D01*
X109318394Y-113905129D01*
X109270775Y-114000367D01*
X109270775Y-114095605D01*
X109318394Y-114238462D01*
X109889823Y-114809890D01*
X109270775Y-114809890D01*
%TO.C,R11*%
X119325347Y-114851890D02*
X119658680Y-114375700D01*
X119896775Y-114851890D02*
X119896775Y-113851890D01*
X119515823Y-113851890D01*
X119420585Y-113899510D01*
X119372966Y-113947129D01*
X119325347Y-114042367D01*
X119325347Y-114185224D01*
X119372966Y-114280462D01*
X119420585Y-114328081D01*
X119515823Y-114375700D01*
X119896775Y-114375700D01*
X118372966Y-114851890D02*
X118944394Y-114851890D01*
X118658680Y-114851890D02*
X118658680Y-113851890D01*
X118753918Y-113994748D01*
X118849156Y-114089986D01*
X118944394Y-114137605D01*
X117420585Y-114851890D02*
X117992013Y-114851890D01*
X117706299Y-114851890D02*
X117706299Y-113851890D01*
X117801537Y-113994748D01*
X117896775Y-114089986D01*
X117992013Y-114137605D01*
%TO.C,Q1*%
X117464228Y-104763129D02*
X117559466Y-104715510D01*
X117654704Y-104620271D01*
X117797561Y-104477414D01*
X117892799Y-104429795D01*
X117988037Y-104429795D01*
X117940418Y-104667890D02*
X118035656Y-104620271D01*
X118130894Y-104525033D01*
X118178513Y-104334557D01*
X118178513Y-104001224D01*
X118130894Y-103810748D01*
X118035656Y-103715510D01*
X117940418Y-103667890D01*
X117749942Y-103667890D01*
X117654704Y-103715510D01*
X117559466Y-103810748D01*
X117511847Y-104001224D01*
X117511847Y-104334557D01*
X117559466Y-104525033D01*
X117654704Y-104620271D01*
X117749942Y-104667890D01*
X117940418Y-104667890D01*
X116559466Y-104667890D02*
X117130894Y-104667890D01*
X116845180Y-104667890D02*
X116845180Y-103667890D01*
X116940418Y-103810748D01*
X117035656Y-103905986D01*
X117130894Y-103953605D01*
%TO.C,R1*%
X119186656Y-110763890D02*
X119519990Y-110287700D01*
X119758085Y-110763890D02*
X119758085Y-109763890D01*
X119377132Y-109763890D01*
X119281894Y-109811510D01*
X119234275Y-109859129D01*
X119186656Y-109954367D01*
X119186656Y-110097224D01*
X119234275Y-110192462D01*
X119281894Y-110240081D01*
X119377132Y-110287700D01*
X119758085Y-110287700D01*
X118234275Y-110763890D02*
X118805704Y-110763890D01*
X118519990Y-110763890D02*
X118519990Y-109763890D01*
X118615228Y-109906748D01*
X118710466Y-110001986D01*
X118805704Y-110049605D01*
%TO.C,R5*%
X119129156Y-112921890D02*
X119462490Y-112445700D01*
X119700585Y-112921890D02*
X119700585Y-111921890D01*
X119319632Y-111921890D01*
X119224394Y-111969510D01*
X119176775Y-112017129D01*
X119129156Y-112112367D01*
X119129156Y-112255224D01*
X119176775Y-112350462D01*
X119224394Y-112398081D01*
X119319632Y-112445700D01*
X119700585Y-112445700D01*
X118224394Y-111921890D02*
X118700585Y-111921890D01*
X118748204Y-112398081D01*
X118700585Y-112350462D01*
X118605347Y-112302843D01*
X118367251Y-112302843D01*
X118272013Y-112350462D01*
X118224394Y-112398081D01*
X118176775Y-112493319D01*
X118176775Y-112731414D01*
X118224394Y-112826652D01*
X118272013Y-112874271D01*
X118367251Y-112921890D01*
X118605347Y-112921890D01*
X118700585Y-112874271D01*
X118748204Y-112826652D01*
%TO.C,C3*%
X121656656Y-114732652D02*
X121704275Y-114780271D01*
X121847132Y-114827890D01*
X121942370Y-114827890D01*
X122085228Y-114780271D01*
X122180466Y-114685033D01*
X122228085Y-114589795D01*
X122275704Y-114399319D01*
X122275704Y-114256462D01*
X122228085Y-114065986D01*
X122180466Y-113970748D01*
X122085228Y-113875510D01*
X121942370Y-113827890D01*
X121847132Y-113827890D01*
X121704275Y-113875510D01*
X121656656Y-113923129D01*
X121323323Y-113827890D02*
X120704275Y-113827890D01*
X121037609Y-114208843D01*
X120894751Y-114208843D01*
X120799513Y-114256462D01*
X120751894Y-114304081D01*
X120704275Y-114399319D01*
X120704275Y-114637414D01*
X120751894Y-114732652D01*
X120799513Y-114780271D01*
X120894751Y-114827890D01*
X121180466Y-114827890D01*
X121275704Y-114780271D01*
X121323323Y-114732652D01*
D12*
%TO.C,Q4*%
X122324561Y-107172795D02*
X122397132Y-107136510D01*
X122469704Y-107063938D01*
X122578561Y-106955081D01*
X122651132Y-106918795D01*
X122723704Y-106918795D01*
X122687418Y-107100224D02*
X122759990Y-107063938D01*
X122832561Y-106991367D01*
X122868847Y-106846224D01*
X122868847Y-106592224D01*
X122832561Y-106447081D01*
X122759990Y-106374510D01*
X122687418Y-106338224D01*
X122542275Y-106338224D01*
X122469704Y-106374510D01*
X122397132Y-106447081D01*
X122360847Y-106592224D01*
X122360847Y-106846224D01*
X122397132Y-106991367D01*
X122469704Y-107063938D01*
X122542275Y-107100224D01*
X122687418Y-107100224D01*
X121707704Y-106592224D02*
X121707704Y-107100224D01*
X121889132Y-106301938D02*
X122070561Y-106846224D01*
X121598847Y-106846224D01*
D11*
%TO.C,R2*%
X131054656Y-110763890D02*
X131387990Y-110287700D01*
X131626085Y-110763890D02*
X131626085Y-109763890D01*
X131245132Y-109763890D01*
X131149894Y-109811510D01*
X131102275Y-109859129D01*
X131054656Y-109954367D01*
X131054656Y-110097224D01*
X131102275Y-110192462D01*
X131149894Y-110240081D01*
X131245132Y-110287700D01*
X131626085Y-110287700D01*
X130673704Y-109859129D02*
X130626085Y-109811510D01*
X130530847Y-109763890D01*
X130292751Y-109763890D01*
X130197513Y-109811510D01*
X130149894Y-109859129D01*
X130102275Y-109954367D01*
X130102275Y-110049605D01*
X130149894Y-110192462D01*
X130721323Y-110763890D01*
X130102275Y-110763890D01*
%TO.C,R12*%
X131175347Y-114791890D02*
X131508680Y-114315700D01*
X131746775Y-114791890D02*
X131746775Y-113791890D01*
X131365823Y-113791890D01*
X131270585Y-113839510D01*
X131222966Y-113887129D01*
X131175347Y-113982367D01*
X131175347Y-114125224D01*
X131222966Y-114220462D01*
X131270585Y-114268081D01*
X131365823Y-114315700D01*
X131746775Y-114315700D01*
X130222966Y-114791890D02*
X130794394Y-114791890D01*
X130508680Y-114791890D02*
X130508680Y-113791890D01*
X130603918Y-113934748D01*
X130699156Y-114029986D01*
X130794394Y-114077605D01*
X129842013Y-113887129D02*
X129794394Y-113839510D01*
X129699156Y-113791890D01*
X129461061Y-113791890D01*
X129365823Y-113839510D01*
X129318204Y-113887129D01*
X129270585Y-113982367D01*
X129270585Y-114077605D01*
X129318204Y-114220462D01*
X129889632Y-114791890D01*
X129270585Y-114791890D01*
%TO.C,R9*%
X110269156Y-111031890D02*
X110602490Y-110555700D01*
X110840585Y-111031890D02*
X110840585Y-110031890D01*
X110459632Y-110031890D01*
X110364394Y-110079510D01*
X110316775Y-110127129D01*
X110269156Y-110222367D01*
X110269156Y-110365224D01*
X110316775Y-110460462D01*
X110364394Y-110508081D01*
X110459632Y-110555700D01*
X110840585Y-110555700D01*
X109792966Y-111031890D02*
X109602490Y-111031890D01*
X109507251Y-110984271D01*
X109459632Y-110936652D01*
X109364394Y-110793795D01*
X109316775Y-110603319D01*
X109316775Y-110222367D01*
X109364394Y-110127129D01*
X109412013Y-110079510D01*
X109507251Y-110031890D01*
X109697728Y-110031890D01*
X109792966Y-110079510D01*
X109840585Y-110127129D01*
X109888204Y-110222367D01*
X109888204Y-110460462D01*
X109840585Y-110555700D01*
X109792966Y-110603319D01*
X109697728Y-110650938D01*
X109507251Y-110650938D01*
X109412013Y-110603319D01*
X109364394Y-110555700D01*
X109316775Y-110460462D01*
D12*
%TO.C,J1*%
X120485000Y-68319000D02*
X125110000Y-68319000D01*
X119840000Y-54944000D02*
X119340000Y-54644000D01*
X119340000Y-55244000D02*
X119840000Y-54944000D01*
X119340000Y-54644000D02*
X119340000Y-55244000D01*
X120485000Y-65844000D02*
X120485000Y-68319000D01*
X128435000Y-53144000D02*
X128435000Y-66744000D01*
X120485000Y-51569000D02*
X120485000Y-54044000D01*
X125110000Y-51569000D02*
X120485000Y-51569000D01*
D13*
%TO.C,R8*%
X124318769Y-102689510D02*
X123993211Y-102689510D01*
X124318769Y-103709510D02*
X123993211Y-103709510D01*
%TO.C,R6*%
X124572769Y-111952510D02*
X124247211Y-111952510D01*
X124572769Y-112972510D02*
X124247211Y-112972510D01*
%TO.C,Q2*%
X126663990Y-107455510D02*
X126663990Y-105555510D01*
X128983990Y-106055510D02*
X128983990Y-107455510D01*
%TO.C,R4*%
X127732769Y-112972510D02*
X127407211Y-112972510D01*
X127732769Y-111952510D02*
X127407211Y-111952510D01*
%TO.C,R3*%
X116109269Y-111952510D02*
X115783711Y-111952510D01*
X116109269Y-112972510D02*
X115783711Y-112972510D01*
%TO.C,R10*%
X124247211Y-111067510D02*
X124572769Y-111067510D01*
X124247211Y-110047510D02*
X124572769Y-110047510D01*
D14*
%TO.C,Q3*%
X111469990Y-105515510D02*
X111469990Y-106255510D01*
D13*
%TO.C,R7*%
X112832769Y-102689510D02*
X112507211Y-102689510D01*
X112832769Y-103709510D02*
X112507211Y-103709510D01*
%TO.C,C2*%
X112761211Y-114877510D02*
X113086769Y-114877510D01*
X112761211Y-113857510D02*
X113086769Y-113857510D01*
%TO.C,R11*%
X116109269Y-113857510D02*
X115783711Y-113857510D01*
X116109269Y-114877510D02*
X115783711Y-114877510D01*
%TO.C,Q1*%
X115177990Y-107455510D02*
X115177990Y-105555510D01*
X117497990Y-106055510D02*
X117497990Y-107455510D01*
%TO.C,R1*%
X115783711Y-110047510D02*
X116109269Y-110047510D01*
X115783711Y-111067510D02*
X116109269Y-111067510D01*
%TO.C,R5*%
X112761211Y-112972510D02*
X113086769Y-112972510D01*
X112761211Y-111952510D02*
X113086769Y-111952510D01*
%TO.C,C3*%
X124247211Y-114877510D02*
X124572769Y-114877510D01*
X124247211Y-113857510D02*
X124572769Y-113857510D01*
D14*
%TO.C,Q4*%
X122955990Y-105515510D02*
X122955990Y-106255510D01*
D13*
%TO.C,R2*%
X127407211Y-111067510D02*
X127732769Y-111067510D01*
X127407211Y-110047510D02*
X127732769Y-110047510D01*
%TO.C,R12*%
X127732769Y-114877510D02*
X127407211Y-114877510D01*
X127732769Y-113857510D02*
X127407211Y-113857510D01*
%TO.C,R9*%
X112761211Y-111067510D02*
X113086769Y-111067510D01*
X112761211Y-110047510D02*
X113086769Y-110047510D01*
%TD*%
%LPC*%
%TO.C,J1*%
G36*
X128411200Y-68590200D02*
G01*
X125358800Y-68590200D01*
X125358800Y-67087800D01*
X128411200Y-67087800D01*
X128411200Y-68590200D01*
G37*
D15*
X128411200Y-68590200D02*
X125358800Y-68590200D01*
X125358800Y-67087800D01*
X128411200Y-67087800D01*
X128411200Y-68590200D01*
G36*
X121711200Y-63570200D02*
G01*
X120108800Y-63570200D01*
X120108800Y-62317800D01*
X121711200Y-62317800D01*
X121711200Y-63570200D01*
G37*
X121711200Y-63570200D02*
X120108800Y-63570200D01*
X120108800Y-62317800D01*
X121711200Y-62317800D01*
X121711200Y-63570200D01*
G36*
X121711200Y-55570200D02*
G01*
X120108800Y-55570200D01*
X120108800Y-54317800D01*
X121711200Y-54317800D01*
X121711200Y-55570200D01*
G37*
X121711200Y-55570200D02*
X120108800Y-55570200D01*
X120108800Y-54317800D01*
X121711200Y-54317800D01*
X121711200Y-55570200D01*
G36*
X121711200Y-61570200D02*
G01*
X120108800Y-61570200D01*
X120108800Y-60317800D01*
X121711200Y-60317800D01*
X121711200Y-61570200D01*
G37*
X121711200Y-61570200D02*
X120108800Y-61570200D01*
X120108800Y-60317800D01*
X121711200Y-60317800D01*
X121711200Y-61570200D01*
G36*
X128411200Y-52800200D02*
G01*
X125358800Y-52800200D01*
X125358800Y-51297800D01*
X128411200Y-51297800D01*
X128411200Y-52800200D01*
G37*
X128411200Y-52800200D02*
X125358800Y-52800200D01*
X125358800Y-51297800D01*
X128411200Y-51297800D01*
X128411200Y-52800200D01*
G36*
X121711200Y-59570200D02*
G01*
X120108800Y-59570200D01*
X120108800Y-58317800D01*
X121711200Y-58317800D01*
X121711200Y-59570200D01*
G37*
X121711200Y-59570200D02*
X120108800Y-59570200D01*
X120108800Y-58317800D01*
X121711200Y-58317800D01*
X121711200Y-59570200D01*
G36*
X121711200Y-65570200D02*
G01*
X120108800Y-65570200D01*
X120108800Y-64317800D01*
X121711200Y-64317800D01*
X121711200Y-65570200D01*
G37*
X121711200Y-65570200D02*
X120108800Y-65570200D01*
X120108800Y-64317800D01*
X121711200Y-64317800D01*
X121711200Y-65570200D01*
G36*
X121711200Y-57570200D02*
G01*
X120108800Y-57570200D01*
X120108800Y-56317800D01*
X121711200Y-56317800D01*
X121711200Y-57570200D01*
G37*
X121711200Y-57570200D02*
X120108800Y-57570200D01*
X120108800Y-56317800D01*
X121711200Y-56317800D01*
X121711200Y-57570200D01*
%TD*%
D16*
%TO.C,SC6*%
X143464000Y-67908000D03*
X143464000Y-58908000D03*
%TD*%
%TO.C,SC5*%
X143464000Y-90260000D03*
X143464000Y-81260000D03*
%TD*%
D17*
%TO.C,H1*%
X176900000Y-94810000D03*
D18*
X176900000Y-94810000D03*
%TD*%
D17*
%TO.C,H2*%
X176900000Y-47810000D03*
D18*
X176900000Y-47810000D03*
%TD*%
D17*
%TO.C,H3*%
X138400000Y-47810000D03*
D18*
X138400000Y-47810000D03*
%TD*%
D17*
%TO.C,H4*%
X99900000Y-47810000D03*
D18*
X99900000Y-47810000D03*
%TD*%
D17*
%TO.C,H5*%
X99900000Y-94810000D03*
D18*
X99900000Y-94810000D03*
%TD*%
%TO.C,H6*%
X99900000Y-141810000D03*
D17*
X99900000Y-141810000D03*
%TD*%
D18*
%TO.C,H7*%
X138400000Y-141810000D03*
D17*
X138400000Y-141810000D03*
%TD*%
D18*
%TO.C,H8*%
X176900000Y-141810000D03*
D17*
X176900000Y-141810000D03*
%TD*%
D16*
%TO.C,SC1*%
X133904000Y-58908000D03*
X133904000Y-67908000D03*
%TD*%
%TO.C,SC2*%
X133904000Y-81260000D03*
X133904000Y-90260000D03*
%TD*%
%TO.C,SC3*%
X133904000Y-103612000D03*
X133904000Y-112612000D03*
%TD*%
%TO.C,SC4*%
X143500000Y-112612000D03*
X143500000Y-103612000D03*
%TD*%
D19*
%TO.C,R8*%
X124943490Y-103199510D03*
X123368490Y-103199510D03*
%TD*%
%TO.C,R6*%
X125197490Y-112462510D03*
X123622490Y-112462510D03*
%TD*%
D20*
%TO.C,Q2*%
X127173990Y-105805510D03*
X127823990Y-105805510D03*
X128473990Y-105805510D03*
X128473990Y-107705510D03*
X127823990Y-107705510D03*
X127173990Y-107705510D03*
%TD*%
D19*
%TO.C,R4*%
X128357490Y-112462510D03*
X126782490Y-112462510D03*
%TD*%
%TO.C,R3*%
X116733990Y-112462510D03*
X115158990Y-112462510D03*
%TD*%
D21*
%TO.C,R10*%
X123622490Y-110557510D03*
X125197490Y-110557510D03*
%TD*%
D22*
%TO.C,Q3*%
X112019990Y-105805510D03*
X112669990Y-105805510D03*
X113319990Y-105805510D03*
X113319990Y-107705510D03*
X112669990Y-107705510D03*
X112019990Y-107705510D03*
%TD*%
D19*
%TO.C,R7*%
X113457490Y-103199510D03*
X111882490Y-103199510D03*
%TD*%
D21*
%TO.C,C2*%
X112136490Y-114367510D03*
X113711490Y-114367510D03*
%TD*%
D19*
%TO.C,R11*%
X116733990Y-114367510D03*
X115158990Y-114367510D03*
%TD*%
D20*
%TO.C,Q1*%
X115687990Y-105805510D03*
X116337990Y-105805510D03*
X116987990Y-105805510D03*
X116987990Y-107705510D03*
X116337990Y-107705510D03*
X115687990Y-107705510D03*
%TD*%
D21*
%TO.C,R1*%
X115158990Y-110557510D03*
X116733990Y-110557510D03*
%TD*%
%TO.C,R5*%
X112136490Y-112462510D03*
X113711490Y-112462510D03*
%TD*%
%TO.C,C3*%
X123622490Y-114367510D03*
X125197490Y-114367510D03*
%TD*%
D22*
%TO.C,Q4*%
X123505990Y-105805510D03*
X124155990Y-105805510D03*
X124805990Y-105805510D03*
X124805990Y-107705510D03*
X124155990Y-107705510D03*
X123505990Y-107705510D03*
%TD*%
D21*
%TO.C,R2*%
X126782490Y-110557510D03*
X128357490Y-110557510D03*
%TD*%
D19*
%TO.C,R12*%
X128357490Y-114367510D03*
X126782490Y-114367510D03*
%TD*%
%TO.C,R9*%
X112136490Y-110557510D03*
X113711490Y-110557510D03*
%TD*%
M02*
