%TF.GenerationSoftware,KiCad,Pcbnew,(6.0.5)*%
%TF.CreationDate,2023-01-23T16:51:02-08:00*%
%TF.ProjectId,X_Y_Panels,585f595f-5061-46e6-956c-732e6b696361,rev?*%
%TF.SameCoordinates,Original*%
%TF.FileFunction,Copper,L5,Inr*%
%TF.FilePolarity,Positive*%
%FSLAX46Y46*%
G04 Gerber Fmt 4.6, Leading zero omitted, Abs format (unit mm)*
G04 Created by KiCad (PCBNEW (6.0.5)) date 2023-01-23 16:51:02*
%MOMM*%
%LPD*%
G01*
G04 APERTURE LIST*
%TA.AperFunction,ComponentPad*%
%ADD10C,3.000000*%
%TD*%
%TA.AperFunction,ComponentPad*%
%ADD11C,2.600000*%
%TD*%
%TA.AperFunction,ComponentPad*%
%ADD12R,1.700000X1.700000*%
%TD*%
%TA.AperFunction,ComponentPad*%
%ADD13O,1.700000X1.700000*%
%TD*%
%TA.AperFunction,ViaPad*%
%ADD14C,0.800000*%
%TD*%
%TA.AperFunction,Conductor*%
%ADD15C,0.500000*%
%TD*%
G04 APERTURE END LIST*
D10*
X129240000Y-139374000D03*
X129240000Y-130374000D03*
D11*
X180792000Y-138997997D03*
D10*
X108022000Y-105058000D03*
X117022000Y-105058000D03*
D12*
X103886000Y-49784000D03*
D13*
X103886000Y-52324000D03*
X103886000Y-54864000D03*
X103886000Y-57404000D03*
X103886000Y-59944000D03*
X103886000Y-62484000D03*
D10*
X117022000Y-95752000D03*
X108022000Y-95752000D03*
X176458000Y-95758000D03*
X167458000Y-95758000D03*
D11*
X103792000Y-44997997D03*
X103792000Y-138997997D03*
D10*
X155260000Y-45210000D03*
X155260000Y-54210000D03*
D11*
X180792000Y-44997997D03*
X126238000Y-123444000D03*
X133858000Y-123444000D03*
D10*
X167458000Y-105066000D03*
X176458000Y-105066000D03*
D14*
X169144000Y-43156000D03*
X169881000Y-47698000D03*
X117457000Y-46020000D03*
X114973000Y-52595000D03*
X177036000Y-50028000D03*
X116278000Y-54788000D03*
X160020000Y-103886000D03*
X160020000Y-105410000D03*
X157988000Y-107696000D03*
X161290000Y-104648000D03*
X160020000Y-106934000D03*
X177926000Y-53698000D03*
X171436000Y-52528000D03*
X112153000Y-50313000D03*
X114974500Y-45992500D03*
X108228000Y-51588000D03*
X161290000Y-106172000D03*
X112257000Y-46030000D03*
X168578000Y-55634000D03*
X171046000Y-57558000D03*
X117853000Y-41588000D03*
X108257000Y-46914000D03*
X111503000Y-41888000D03*
X164376000Y-51092000D03*
X179778000Y-50220000D03*
X179781000Y-58073000D03*
X169394000Y-39531000D03*
X161069000Y-43856000D03*
X166319000Y-44406000D03*
X174281500Y-39406000D03*
X177781000Y-44048000D03*
X179506000Y-48673000D03*
X174481000Y-57973000D03*
X174481000Y-55123000D03*
X178081000Y-48048000D03*
X174506000Y-51548000D03*
X120028000Y-61288000D03*
X122678000Y-61488000D03*
X119831000Y-118053000D03*
X163576000Y-87122000D03*
X118364000Y-78740000D03*
X159644000Y-40231000D03*
X180594000Y-41656000D03*
X166856000Y-57473000D03*
X117003000Y-56263000D03*
X176731000Y-53873000D03*
X181431000Y-50973000D03*
X118878000Y-58663000D03*
X173981000Y-52973000D03*
D15*
X179778000Y-50220000D02*
X178606000Y-49048000D01*
X177686000Y-49048000D02*
X177016000Y-48378000D01*
X116832027Y-49527511D02*
X116829538Y-49530000D01*
X177016000Y-48378000D02*
X175476000Y-48378000D01*
X115062000Y-49530000D02*
X107188000Y-57404000D01*
X174326489Y-49527511D02*
X116832027Y-49527511D01*
X107188000Y-57404000D02*
X103886000Y-57404000D01*
X116829538Y-49530000D02*
X115062000Y-49530000D01*
X178606000Y-49048000D02*
X177686000Y-49048000D01*
X175476000Y-48378000D02*
X174326489Y-49527511D01*
%TA.AperFunction,Conductor*%
G36*
X182824391Y-38398709D02*
G01*
X182881354Y-38449175D01*
X182908341Y-38520332D01*
X182909500Y-38539497D01*
X182909500Y-145456497D01*
X182891288Y-145530388D01*
X182840822Y-145587351D01*
X182769665Y-145614338D01*
X182750500Y-145615497D01*
X101833500Y-145615497D01*
X101759609Y-145597285D01*
X101702646Y-145546819D01*
X101675659Y-145475662D01*
X101674500Y-145456497D01*
X101674500Y-140264866D01*
X102889864Y-140264866D01*
X102890580Y-140266457D01*
X102896770Y-140271974D01*
X103078994Y-140383640D01*
X103090083Y-140389290D01*
X103304533Y-140478119D01*
X103316376Y-140481967D01*
X103542070Y-140536152D01*
X103554381Y-140538101D01*
X103785774Y-140556312D01*
X103798226Y-140556312D01*
X104029619Y-140538101D01*
X104041930Y-140536152D01*
X104267624Y-140481967D01*
X104279467Y-140478119D01*
X104493917Y-140389290D01*
X104505006Y-140383640D01*
X104682883Y-140274638D01*
X104694353Y-140263028D01*
X104694028Y-140261312D01*
X104689300Y-140254507D01*
X103805651Y-139370858D01*
X103791685Y-139362415D01*
X103782788Y-139366419D01*
X102898307Y-140250900D01*
X102889864Y-140264866D01*
X101674500Y-140264866D01*
X101674500Y-139004223D01*
X102233685Y-139004223D01*
X102251896Y-139235616D01*
X102253845Y-139247927D01*
X102308030Y-139473621D01*
X102311878Y-139485464D01*
X102400707Y-139699914D01*
X102406357Y-139711003D01*
X102515359Y-139888880D01*
X102526969Y-139900350D01*
X102528685Y-139900025D01*
X102535490Y-139895297D01*
X103419139Y-139011648D01*
X103427201Y-138998312D01*
X104156418Y-138998312D01*
X104160422Y-139007209D01*
X105044903Y-139891690D01*
X105058869Y-139900133D01*
X105060460Y-139899417D01*
X105065977Y-139893227D01*
X105177643Y-139711003D01*
X105183293Y-139699914D01*
X105272122Y-139485464D01*
X105275970Y-139473621D01*
X105310982Y-139327786D01*
X127475168Y-139327786D01*
X127487722Y-139589153D01*
X127538771Y-139845793D01*
X127540762Y-139851338D01*
X127540763Y-139851342D01*
X127556545Y-139895297D01*
X127627193Y-140092068D01*
X127629985Y-140097264D01*
X127725292Y-140274638D01*
X127751046Y-140322569D01*
X127907608Y-140532231D01*
X127911794Y-140536380D01*
X127911796Y-140536383D01*
X128089256Y-140712302D01*
X128089261Y-140712306D01*
X128093440Y-140716449D01*
X128205281Y-140798454D01*
X128299702Y-140867686D01*
X128299706Y-140867688D01*
X128304461Y-140871175D01*
X128309677Y-140873919D01*
X128309683Y-140873923D01*
X128530814Y-140990266D01*
X128530818Y-140990268D01*
X128536034Y-140993012D01*
X128783071Y-141079281D01*
X129040147Y-141128089D01*
X129046049Y-141128321D01*
X129046050Y-141128321D01*
X129088600Y-141129993D01*
X129301613Y-141138362D01*
X129561725Y-141109875D01*
X129567425Y-141108374D01*
X129567432Y-141108373D01*
X129809066Y-141044755D01*
X129809069Y-141044754D01*
X129814770Y-141043253D01*
X130055188Y-140939962D01*
X130060203Y-140936858D01*
X130060208Y-140936856D01*
X130185981Y-140859025D01*
X130277698Y-140802269D01*
X130282201Y-140798457D01*
X130282205Y-140798454D01*
X130472912Y-140637008D01*
X130472914Y-140637006D01*
X130477411Y-140633199D01*
X130649941Y-140436467D01*
X130760318Y-140264866D01*
X179889864Y-140264866D01*
X179890580Y-140266457D01*
X179896770Y-140271974D01*
X180078994Y-140383640D01*
X180090083Y-140389290D01*
X180304533Y-140478119D01*
X180316376Y-140481967D01*
X180542070Y-140536152D01*
X180554381Y-140538101D01*
X180785774Y-140556312D01*
X180798226Y-140556312D01*
X181029619Y-140538101D01*
X181041930Y-140536152D01*
X181267624Y-140481967D01*
X181279467Y-140478119D01*
X181493917Y-140389290D01*
X181505006Y-140383640D01*
X181682883Y-140274638D01*
X181694353Y-140263028D01*
X181694028Y-140261312D01*
X181689300Y-140254507D01*
X180805651Y-139370858D01*
X180791685Y-139362415D01*
X180782788Y-139366419D01*
X179898307Y-140250900D01*
X179889864Y-140264866D01*
X130760318Y-140264866D01*
X130791496Y-140216394D01*
X130898968Y-139977815D01*
X130922241Y-139895297D01*
X130968393Y-139731652D01*
X130969995Y-139725972D01*
X131003018Y-139466396D01*
X131005437Y-139374000D01*
X130986045Y-139113052D01*
X130975723Y-139067435D01*
X130961420Y-139004223D01*
X179233685Y-139004223D01*
X179251896Y-139235616D01*
X179253845Y-139247927D01*
X179308030Y-139473621D01*
X179311878Y-139485464D01*
X179400707Y-139699914D01*
X179406357Y-139711003D01*
X179515359Y-139888880D01*
X179526969Y-139900350D01*
X179528685Y-139900025D01*
X179535490Y-139895297D01*
X180419139Y-139011648D01*
X180427201Y-138998312D01*
X181156418Y-138998312D01*
X181160422Y-139007209D01*
X182044903Y-139891690D01*
X182058869Y-139900133D01*
X182060460Y-139899417D01*
X182065977Y-139893227D01*
X182177643Y-139711003D01*
X182183293Y-139699914D01*
X182272122Y-139485464D01*
X182275970Y-139473621D01*
X182330155Y-139247927D01*
X182332104Y-139235616D01*
X182350315Y-139004223D01*
X182350315Y-138991771D01*
X182332104Y-138760378D01*
X182330155Y-138748067D01*
X182275970Y-138522373D01*
X182272122Y-138510530D01*
X182183293Y-138296080D01*
X182177643Y-138284991D01*
X182068641Y-138107114D01*
X182057031Y-138095644D01*
X182055315Y-138095969D01*
X182048510Y-138100697D01*
X181164861Y-138984346D01*
X181156418Y-138998312D01*
X180427201Y-138998312D01*
X180427582Y-138997682D01*
X180423578Y-138988785D01*
X179539097Y-138104304D01*
X179525131Y-138095861D01*
X179523540Y-138096577D01*
X179518023Y-138102767D01*
X179406357Y-138284991D01*
X179400707Y-138296080D01*
X179311878Y-138510530D01*
X179308030Y-138522373D01*
X179253845Y-138748067D01*
X179251896Y-138760378D01*
X179233685Y-138991771D01*
X179233685Y-139004223D01*
X130961420Y-139004223D01*
X130929600Y-138863597D01*
X130929598Y-138863592D01*
X130928296Y-138857836D01*
X130833457Y-138613960D01*
X130809766Y-138572508D01*
X130706545Y-138391908D01*
X130706544Y-138391907D01*
X130703614Y-138386780D01*
X130541617Y-138181288D01*
X130455946Y-138100697D01*
X130355324Y-138006041D01*
X130355323Y-138006040D01*
X130351026Y-138001998D01*
X130136027Y-137852848D01*
X129910210Y-137741487D01*
X129906631Y-137739722D01*
X129906628Y-137739721D01*
X129901344Y-137737115D01*
X129895732Y-137735318D01*
X129895728Y-137735317D01*
X129888383Y-137732966D01*
X179889647Y-137732966D01*
X179889972Y-137734682D01*
X179894700Y-137741487D01*
X180778349Y-138625136D01*
X180792315Y-138633579D01*
X180801212Y-138629575D01*
X181685693Y-137745094D01*
X181694136Y-137731128D01*
X181693420Y-137729537D01*
X181687230Y-137724020D01*
X181505006Y-137612354D01*
X181493917Y-137606704D01*
X181279467Y-137517875D01*
X181267624Y-137514027D01*
X181041930Y-137459842D01*
X181029619Y-137457893D01*
X180798226Y-137439682D01*
X180785774Y-137439682D01*
X180554381Y-137457893D01*
X180542070Y-137459842D01*
X180316376Y-137514027D01*
X180304533Y-137517875D01*
X180090083Y-137606704D01*
X180078994Y-137612354D01*
X179901117Y-137721356D01*
X179889647Y-137732966D01*
X129888383Y-137732966D01*
X129657747Y-137659139D01*
X129657746Y-137659139D01*
X129652133Y-137657342D01*
X129599628Y-137648791D01*
X129399697Y-137616230D01*
X129399693Y-137616230D01*
X129393868Y-137615281D01*
X129263046Y-137613569D01*
X129138129Y-137611933D01*
X129138125Y-137611933D01*
X129132223Y-137611856D01*
X129034756Y-137625121D01*
X128878785Y-137646347D01*
X128878782Y-137646348D01*
X128872945Y-137647142D01*
X128867292Y-137648790D01*
X128867286Y-137648791D01*
X128747338Y-137683753D01*
X128621731Y-137720364D01*
X128616383Y-137722830D01*
X128616379Y-137722831D01*
X128389458Y-137827443D01*
X128389453Y-137827446D01*
X128384099Y-137829914D01*
X128379166Y-137833148D01*
X128379161Y-137833151D01*
X128170204Y-137970150D01*
X128165270Y-137973385D01*
X128160867Y-137977314D01*
X128160868Y-137977314D01*
X128027245Y-138096577D01*
X127970051Y-138147624D01*
X127802730Y-138348806D01*
X127666984Y-138572508D01*
X127565794Y-138813819D01*
X127501384Y-139067435D01*
X127475168Y-139327786D01*
X105310982Y-139327786D01*
X105330155Y-139247927D01*
X105332104Y-139235616D01*
X105350315Y-139004223D01*
X105350315Y-138991771D01*
X105332104Y-138760378D01*
X105330155Y-138748067D01*
X105275970Y-138522373D01*
X105272122Y-138510530D01*
X105183293Y-138296080D01*
X105177643Y-138284991D01*
X105068641Y-138107114D01*
X105057031Y-138095644D01*
X105055315Y-138095969D01*
X105048510Y-138100697D01*
X104164861Y-138984346D01*
X104156418Y-138998312D01*
X103427201Y-138998312D01*
X103427582Y-138997682D01*
X103423578Y-138988785D01*
X102539097Y-138104304D01*
X102525131Y-138095861D01*
X102523540Y-138096577D01*
X102518023Y-138102767D01*
X102406357Y-138284991D01*
X102400707Y-138296080D01*
X102311878Y-138510530D01*
X102308030Y-138522373D01*
X102253845Y-138748067D01*
X102251896Y-138760378D01*
X102233685Y-138991771D01*
X102233685Y-139004223D01*
X101674500Y-139004223D01*
X101674500Y-137732966D01*
X102889647Y-137732966D01*
X102889972Y-137734682D01*
X102894700Y-137741487D01*
X103778349Y-138625136D01*
X103792315Y-138633579D01*
X103801212Y-138629575D01*
X104685693Y-137745094D01*
X104694136Y-137731128D01*
X104693420Y-137729537D01*
X104687230Y-137724020D01*
X104505006Y-137612354D01*
X104493917Y-137606704D01*
X104279467Y-137517875D01*
X104267624Y-137514027D01*
X104041930Y-137459842D01*
X104029619Y-137457893D01*
X103798226Y-137439682D01*
X103785774Y-137439682D01*
X103554381Y-137457893D01*
X103542070Y-137459842D01*
X103316376Y-137514027D01*
X103304533Y-137517875D01*
X103090083Y-137606704D01*
X103078994Y-137612354D01*
X102901117Y-137721356D01*
X102889647Y-137732966D01*
X101674500Y-137732966D01*
X101674500Y-130327786D01*
X127475168Y-130327786D01*
X127487722Y-130589153D01*
X127538771Y-130845793D01*
X127627193Y-131092068D01*
X127751046Y-131322569D01*
X127907608Y-131532231D01*
X127911794Y-131536380D01*
X127911796Y-131536383D01*
X128089256Y-131712302D01*
X128089261Y-131712306D01*
X128093440Y-131716449D01*
X128205281Y-131798454D01*
X128299702Y-131867686D01*
X128299706Y-131867688D01*
X128304461Y-131871175D01*
X128309677Y-131873919D01*
X128309683Y-131873923D01*
X128530814Y-131990266D01*
X128530818Y-131990268D01*
X128536034Y-131993012D01*
X128783071Y-132079281D01*
X129040147Y-132128089D01*
X129046049Y-132128321D01*
X129046050Y-132128321D01*
X129088600Y-132129993D01*
X129301613Y-132138362D01*
X129561725Y-132109875D01*
X129567425Y-132108374D01*
X129567432Y-132108373D01*
X129809066Y-132044755D01*
X129809069Y-132044754D01*
X129814770Y-132043253D01*
X130055188Y-131939962D01*
X130060203Y-131936858D01*
X130060208Y-131936856D01*
X130185981Y-131859025D01*
X130277698Y-131802269D01*
X130282201Y-131798457D01*
X130282205Y-131798454D01*
X130472912Y-131637008D01*
X130472914Y-131637006D01*
X130477411Y-131633199D01*
X130649941Y-131436467D01*
X130791496Y-131216394D01*
X130898968Y-130977815D01*
X130969995Y-130725972D01*
X131003018Y-130466396D01*
X131005437Y-130374000D01*
X130986045Y-130113052D01*
X130975723Y-130067435D01*
X130929600Y-129863597D01*
X130929598Y-129863592D01*
X130928296Y-129857836D01*
X130833457Y-129613960D01*
X130809766Y-129572508D01*
X130706545Y-129391908D01*
X130706544Y-129391907D01*
X130703614Y-129386780D01*
X130541617Y-129181288D01*
X130351026Y-129001998D01*
X130136027Y-128852848D01*
X130028174Y-128799661D01*
X129906631Y-128739722D01*
X129906628Y-128739721D01*
X129901344Y-128737115D01*
X129895732Y-128735318D01*
X129895728Y-128735317D01*
X129657747Y-128659139D01*
X129657746Y-128659139D01*
X129652133Y-128657342D01*
X129599628Y-128648791D01*
X129399697Y-128616230D01*
X129399693Y-128616230D01*
X129393868Y-128615281D01*
X129263046Y-128613569D01*
X129138129Y-128611933D01*
X129138125Y-128611933D01*
X129132223Y-128611856D01*
X129034756Y-128625121D01*
X128878785Y-128646347D01*
X128878782Y-128646348D01*
X128872945Y-128647142D01*
X128867292Y-128648790D01*
X128867286Y-128648791D01*
X128747338Y-128683753D01*
X128621731Y-128720364D01*
X128616383Y-128722830D01*
X128616379Y-128722831D01*
X128389458Y-128827443D01*
X128389453Y-128827446D01*
X128384099Y-128829914D01*
X128379166Y-128833148D01*
X128379161Y-128833151D01*
X128170204Y-128970150D01*
X128165270Y-128973385D01*
X127970051Y-129147624D01*
X127802730Y-129348806D01*
X127666984Y-129572508D01*
X127565794Y-129813819D01*
X127501384Y-130067435D01*
X127475168Y-130327786D01*
X101674500Y-130327786D01*
X101674500Y-118046033D01*
X119165685Y-118046033D01*
X119166736Y-118055553D01*
X119166736Y-118055556D01*
X119168561Y-118072083D01*
X119183228Y-118204933D01*
X119238168Y-118355063D01*
X119243511Y-118363015D01*
X119243512Y-118363016D01*
X119250581Y-118373535D01*
X119327333Y-118487754D01*
X119445575Y-118595346D01*
X119453991Y-118599915D01*
X119453993Y-118599917D01*
X119577645Y-118667055D01*
X119577647Y-118667056D01*
X119586068Y-118671628D01*
X119740702Y-118712195D01*
X119750281Y-118712345D01*
X119750285Y-118712346D01*
X119824405Y-118713510D01*
X119900548Y-118714706D01*
X119910853Y-118712346D01*
X119935828Y-118706626D01*
X120056380Y-118679016D01*
X120199200Y-118607185D01*
X120320763Y-118503360D01*
X120414052Y-118373535D01*
X120473680Y-118225206D01*
X120496205Y-118066934D01*
X120496351Y-118053000D01*
X120477145Y-117894292D01*
X120420636Y-117744746D01*
X120330087Y-117612995D01*
X120317175Y-117601491D01*
X120217880Y-117513022D01*
X120217876Y-117513019D01*
X120210725Y-117506648D01*
X120069440Y-117431841D01*
X119914391Y-117392895D01*
X119834458Y-117392476D01*
X119764107Y-117392108D01*
X119764106Y-117392108D01*
X119754526Y-117392058D01*
X119706131Y-117403677D01*
X119608397Y-117427140D01*
X119608393Y-117427141D01*
X119599077Y-117429378D01*
X119590562Y-117433773D01*
X119590559Y-117433774D01*
X119465530Y-117498307D01*
X119457017Y-117502701D01*
X119336548Y-117607793D01*
X119244624Y-117738588D01*
X119186552Y-117887534D01*
X119165685Y-118046033D01*
X101674500Y-118046033D01*
X101674500Y-110400650D01*
X123898392Y-110400650D01*
X123900350Y-110413013D01*
X123900350Y-110413014D01*
X123901222Y-110418522D01*
X123903180Y-110443322D01*
X123907481Y-119857430D01*
X123905524Y-119882370D01*
X123902732Y-119900000D01*
X123903976Y-119907852D01*
X123919601Y-120146243D01*
X123967743Y-120388272D01*
X124047065Y-120621947D01*
X124156209Y-120843270D01*
X124293308Y-121048452D01*
X124456015Y-121233985D01*
X124459925Y-121237414D01*
X124637634Y-121393260D01*
X124637638Y-121393263D01*
X124641548Y-121396692D01*
X124846731Y-121533791D01*
X125068053Y-121642935D01*
X125072975Y-121644606D01*
X125072978Y-121644607D01*
X125296805Y-121720586D01*
X125301728Y-121722257D01*
X125476696Y-121757060D01*
X125545612Y-121789337D01*
X125591636Y-121849945D01*
X125604222Y-121924999D01*
X125580487Y-121997306D01*
X125527192Y-122049016D01*
X125527357Y-122049285D01*
X125524327Y-122051142D01*
X125323249Y-122174362D01*
X125323245Y-122174365D01*
X125317925Y-122177625D01*
X125131148Y-122337148D01*
X124971625Y-122523925D01*
X124843285Y-122733357D01*
X124749287Y-122960288D01*
X124691947Y-123199129D01*
X124672675Y-123444000D01*
X124691947Y-123688871D01*
X124749287Y-123927712D01*
X124843285Y-124154643D01*
X124971625Y-124364075D01*
X125131148Y-124550852D01*
X125317925Y-124710375D01*
X125323245Y-124713635D01*
X125323249Y-124713638D01*
X125497395Y-124820354D01*
X125527357Y-124838715D01*
X125754288Y-124932713D01*
X125760364Y-124934172D01*
X125760368Y-124934173D01*
X125987059Y-124988596D01*
X125987062Y-124988597D01*
X125993129Y-124990053D01*
X125999349Y-124990543D01*
X125999352Y-124990543D01*
X126231774Y-125008835D01*
X126238000Y-125009325D01*
X126244226Y-125008835D01*
X126476648Y-124990543D01*
X126476651Y-124990543D01*
X126482871Y-124990053D01*
X126488938Y-124988597D01*
X126488941Y-124988596D01*
X126715632Y-124934173D01*
X126715636Y-124934172D01*
X126721712Y-124932713D01*
X126948643Y-124838715D01*
X126978605Y-124820354D01*
X127152751Y-124713638D01*
X127152755Y-124713635D01*
X127158075Y-124710375D01*
X127344852Y-124550852D01*
X127504375Y-124364075D01*
X127632715Y-124154643D01*
X127726713Y-123927712D01*
X127784053Y-123688871D01*
X127803325Y-123444000D01*
X127784053Y-123199129D01*
X127726713Y-122960288D01*
X127632715Y-122733357D01*
X127504375Y-122523925D01*
X127344852Y-122337148D01*
X127158075Y-122177625D01*
X127152755Y-122174365D01*
X127152751Y-122174362D01*
X126993984Y-122077070D01*
X126940497Y-122022933D01*
X126918296Y-121950141D01*
X126932466Y-121875370D01*
X126979761Y-121815748D01*
X127049346Y-121784934D01*
X127077061Y-121782500D01*
X133018939Y-121782500D01*
X133092830Y-121800712D01*
X133149793Y-121851178D01*
X133176780Y-121922335D01*
X133167607Y-121997882D01*
X133124376Y-122060513D01*
X133102016Y-122077070D01*
X132943249Y-122174362D01*
X132943245Y-122174365D01*
X132937925Y-122177625D01*
X132751148Y-122337148D01*
X132591625Y-122523925D01*
X132463285Y-122733357D01*
X132369287Y-122960288D01*
X132311947Y-123199129D01*
X132292675Y-123444000D01*
X132311947Y-123688871D01*
X132369287Y-123927712D01*
X132463285Y-124154643D01*
X132591625Y-124364075D01*
X132751148Y-124550852D01*
X132937925Y-124710375D01*
X132943245Y-124713635D01*
X132943249Y-124713638D01*
X133117395Y-124820354D01*
X133147357Y-124838715D01*
X133374288Y-124932713D01*
X133380364Y-124934172D01*
X133380368Y-124934173D01*
X133607059Y-124988596D01*
X133607062Y-124988597D01*
X133613129Y-124990053D01*
X133619349Y-124990543D01*
X133619352Y-124990543D01*
X133851774Y-125008835D01*
X133858000Y-125009325D01*
X133864226Y-125008835D01*
X134096648Y-124990543D01*
X134096651Y-124990543D01*
X134102871Y-124990053D01*
X134108938Y-124988597D01*
X134108941Y-124988596D01*
X134335632Y-124934173D01*
X134335636Y-124934172D01*
X134341712Y-124932713D01*
X134568643Y-124838715D01*
X134598605Y-124820354D01*
X134772751Y-124713638D01*
X134772755Y-124713635D01*
X134778075Y-124710375D01*
X134964852Y-124550852D01*
X135124375Y-124364075D01*
X135252715Y-124154643D01*
X135346713Y-123927712D01*
X135404053Y-123688871D01*
X135423325Y-123444000D01*
X135404053Y-123199129D01*
X135346713Y-122960288D01*
X135252715Y-122733357D01*
X135124375Y-122523925D01*
X134964852Y-122337148D01*
X134778075Y-122177625D01*
X134772755Y-122174365D01*
X134772751Y-122174362D01*
X134613984Y-122077070D01*
X134560497Y-122022933D01*
X134538296Y-121950141D01*
X134552466Y-121875370D01*
X134599761Y-121815748D01*
X134669346Y-121784934D01*
X134697061Y-121782500D01*
X158757385Y-121782500D01*
X158782246Y-121784456D01*
X158800000Y-121787268D01*
X158807852Y-121786024D01*
X158818336Y-121785337D01*
X158818337Y-121785337D01*
X159041060Y-121770739D01*
X159041064Y-121770738D01*
X159046243Y-121770399D01*
X159288272Y-121722257D01*
X159293195Y-121720586D01*
X159517022Y-121644607D01*
X159517025Y-121644606D01*
X159521947Y-121642935D01*
X159743270Y-121533791D01*
X159948452Y-121396692D01*
X159952366Y-121393260D01*
X160130075Y-121237414D01*
X160133985Y-121233985D01*
X160296692Y-121048452D01*
X160433791Y-120843270D01*
X160542935Y-120621947D01*
X160622257Y-120388272D01*
X160670399Y-120146243D01*
X160686024Y-119907852D01*
X160687268Y-119900000D01*
X160684456Y-119882246D01*
X160682500Y-119857385D01*
X160682501Y-110442615D01*
X160684457Y-110417754D01*
X160687269Y-110400000D01*
X160686024Y-110392137D01*
X160670399Y-110153757D01*
X160622257Y-109911728D01*
X160542935Y-109678053D01*
X160433791Y-109456731D01*
X160329162Y-109300142D01*
X160299584Y-109255876D01*
X160299583Y-109255875D01*
X160296692Y-109251548D01*
X160138010Y-109070605D01*
X160137416Y-109069928D01*
X160137414Y-109069926D01*
X160133985Y-109066016D01*
X159948453Y-108903308D01*
X159743270Y-108766210D01*
X159738609Y-108763911D01*
X159738603Y-108763908D01*
X159526612Y-108659366D01*
X159521948Y-108657066D01*
X159517026Y-108655395D01*
X159517023Y-108655394D01*
X159293199Y-108579416D01*
X159293197Y-108579415D01*
X159288273Y-108577744D01*
X159283177Y-108576730D01*
X159283172Y-108576729D01*
X159120930Y-108544457D01*
X159046244Y-108529601D01*
X159041057Y-108529261D01*
X159041049Y-108529260D01*
X158818762Y-108514691D01*
X158807853Y-108513976D01*
X158800001Y-108512732D01*
X158782245Y-108515544D01*
X158757381Y-108517501D01*
X142294801Y-108517830D01*
X125828269Y-108518160D01*
X125803404Y-108516204D01*
X125785650Y-108513392D01*
X125777798Y-108514636D01*
X125767316Y-108515323D01*
X125767315Y-108515323D01*
X125660600Y-108522320D01*
X125539410Y-108530266D01*
X125534307Y-108531281D01*
X125534308Y-108531281D01*
X125302485Y-108577398D01*
X125302479Y-108577400D01*
X125297385Y-108578413D01*
X125172962Y-108620651D01*
X125068647Y-108656063D01*
X125068642Y-108656065D01*
X125063714Y-108657738D01*
X125059043Y-108660042D01*
X125059042Y-108660042D01*
X124847069Y-108764578D01*
X124847063Y-108764581D01*
X124842396Y-108766883D01*
X124838066Y-108769776D01*
X124838063Y-108769778D01*
X124641555Y-108901082D01*
X124641551Y-108901085D01*
X124637217Y-108903981D01*
X124451687Y-109066687D01*
X124288981Y-109252217D01*
X124286085Y-109256551D01*
X124286082Y-109256555D01*
X124154778Y-109453063D01*
X124151883Y-109457396D01*
X124042738Y-109678714D01*
X123963413Y-109912385D01*
X123915266Y-110154410D01*
X123899636Y-110392798D01*
X123898392Y-110400650D01*
X101674500Y-110400650D01*
X101674500Y-105011786D01*
X106257168Y-105011786D01*
X106269722Y-105273153D01*
X106320771Y-105529793D01*
X106322762Y-105535338D01*
X106322763Y-105535342D01*
X106366134Y-105656139D01*
X106409193Y-105776068D01*
X106429840Y-105814494D01*
X106482959Y-105913352D01*
X106533046Y-106006569D01*
X106689608Y-106216231D01*
X106693794Y-106220380D01*
X106693796Y-106220383D01*
X106871256Y-106396302D01*
X106871261Y-106396306D01*
X106875440Y-106400449D01*
X106987281Y-106482454D01*
X107081702Y-106551686D01*
X107081706Y-106551688D01*
X107086461Y-106555175D01*
X107091677Y-106557919D01*
X107091683Y-106557923D01*
X107312814Y-106674266D01*
X107312818Y-106674268D01*
X107318034Y-106677012D01*
X107565071Y-106763281D01*
X107822147Y-106812089D01*
X107828049Y-106812321D01*
X107828050Y-106812321D01*
X107866789Y-106813843D01*
X108083613Y-106822362D01*
X108343725Y-106793875D01*
X108349425Y-106792374D01*
X108349432Y-106792373D01*
X108591066Y-106728755D01*
X108591069Y-106728754D01*
X108596770Y-106727253D01*
X108813144Y-106634292D01*
X108831765Y-106626292D01*
X108831766Y-106626291D01*
X108837188Y-106623962D01*
X108842203Y-106620858D01*
X108842208Y-106620856D01*
X108967981Y-106543025D01*
X109059698Y-106486269D01*
X109064201Y-106482457D01*
X109064205Y-106482454D01*
X109254912Y-106321008D01*
X109254914Y-106321006D01*
X109259411Y-106317199D01*
X109431941Y-106120467D01*
X109573496Y-105900394D01*
X109680968Y-105661815D01*
X109751995Y-105409972D01*
X109785018Y-105150396D01*
X109787236Y-105065685D01*
X109787333Y-105061977D01*
X109787333Y-105061975D01*
X109787437Y-105058000D01*
X109784003Y-105011786D01*
X115257168Y-105011786D01*
X115269722Y-105273153D01*
X115320771Y-105529793D01*
X115322762Y-105535338D01*
X115322763Y-105535342D01*
X115366134Y-105656139D01*
X115409193Y-105776068D01*
X115429840Y-105814494D01*
X115482959Y-105913352D01*
X115533046Y-106006569D01*
X115689608Y-106216231D01*
X115693794Y-106220380D01*
X115693796Y-106220383D01*
X115871256Y-106396302D01*
X115871261Y-106396306D01*
X115875440Y-106400449D01*
X115987281Y-106482454D01*
X116081702Y-106551686D01*
X116081706Y-106551688D01*
X116086461Y-106555175D01*
X116091677Y-106557919D01*
X116091683Y-106557923D01*
X116312814Y-106674266D01*
X116312818Y-106674268D01*
X116318034Y-106677012D01*
X116565071Y-106763281D01*
X116822147Y-106812089D01*
X116828049Y-106812321D01*
X116828050Y-106812321D01*
X116866789Y-106813843D01*
X117083613Y-106822362D01*
X117343725Y-106793875D01*
X117349425Y-106792374D01*
X117349432Y-106792373D01*
X117591066Y-106728755D01*
X117591069Y-106728754D01*
X117596770Y-106727253D01*
X117813144Y-106634292D01*
X117831765Y-106626292D01*
X117831766Y-106626291D01*
X117837188Y-106623962D01*
X117842203Y-106620858D01*
X117842208Y-106620856D01*
X117967981Y-106543025D01*
X118059698Y-106486269D01*
X118064201Y-106482457D01*
X118064205Y-106482454D01*
X118254912Y-106321008D01*
X118254914Y-106321006D01*
X118259411Y-106317199D01*
X118431941Y-106120467D01*
X118573496Y-105900394D01*
X118680968Y-105661815D01*
X118751995Y-105409972D01*
X118785018Y-105150396D01*
X118787236Y-105065685D01*
X118787333Y-105061977D01*
X118787333Y-105061975D01*
X118787437Y-105058000D01*
X118784597Y-105019786D01*
X165693168Y-105019786D01*
X165705722Y-105281153D01*
X165756771Y-105537793D01*
X165758762Y-105543338D01*
X165758763Y-105543342D01*
X165801333Y-105661909D01*
X165845193Y-105784068D01*
X165847985Y-105789264D01*
X165964371Y-106005868D01*
X165969046Y-106014569D01*
X166125608Y-106224231D01*
X166129794Y-106228380D01*
X166129796Y-106228383D01*
X166307256Y-106404302D01*
X166307261Y-106404306D01*
X166311440Y-106408449D01*
X166392243Y-106467696D01*
X166517702Y-106559686D01*
X166517706Y-106559688D01*
X166522461Y-106563175D01*
X166527677Y-106565919D01*
X166527683Y-106565923D01*
X166748814Y-106682266D01*
X166748818Y-106682268D01*
X166754034Y-106685012D01*
X166759604Y-106686957D01*
X166981310Y-106764380D01*
X167001071Y-106771281D01*
X167258147Y-106820089D01*
X167264049Y-106820321D01*
X167264050Y-106820321D01*
X167299659Y-106821720D01*
X167519613Y-106830362D01*
X167779725Y-106801875D01*
X167785425Y-106800374D01*
X167785432Y-106800373D01*
X168027066Y-106736755D01*
X168027069Y-106736754D01*
X168032770Y-106735253D01*
X168273188Y-106631962D01*
X168278203Y-106628858D01*
X168278208Y-106628856D01*
X168403981Y-106551025D01*
X168495698Y-106494269D01*
X168500201Y-106490457D01*
X168500205Y-106490454D01*
X168520580Y-106473205D01*
X175415529Y-106473205D01*
X175417653Y-106477925D01*
X175419102Y-106479329D01*
X175521154Y-106554156D01*
X175531143Y-106560398D01*
X175751406Y-106676283D01*
X175762208Y-106680980D01*
X175997182Y-106763037D01*
X176008560Y-106766085D01*
X176253097Y-106812512D01*
X176264777Y-106813843D01*
X176513489Y-106823615D01*
X176525247Y-106823205D01*
X176772673Y-106796107D01*
X176784244Y-106793963D01*
X177024942Y-106730592D01*
X177036066Y-106726762D01*
X177264764Y-106628505D01*
X177275192Y-106623076D01*
X177486843Y-106492103D01*
X177493891Y-106486983D01*
X177502904Y-106474534D01*
X177500485Y-106467696D01*
X176471651Y-105438861D01*
X176457685Y-105430418D01*
X176448786Y-105434424D01*
X175423972Y-106459239D01*
X175415529Y-106473205D01*
X168520580Y-106473205D01*
X168690912Y-106329008D01*
X168690914Y-106329006D01*
X168695411Y-106325199D01*
X168867941Y-106128467D01*
X169009496Y-105908394D01*
X169015522Y-105895018D01*
X169068003Y-105778514D01*
X169116968Y-105669815D01*
X169187995Y-105417972D01*
X169221018Y-105158396D01*
X169223437Y-105066000D01*
X169222843Y-105058000D01*
X169220453Y-105025842D01*
X174699968Y-105025842D01*
X174711910Y-105274464D01*
X174713344Y-105286146D01*
X174761903Y-105530267D01*
X174765045Y-105541599D01*
X174849154Y-105775863D01*
X174853943Y-105786617D01*
X174971751Y-106005868D01*
X174978073Y-106015792D01*
X175039592Y-106098175D01*
X175052203Y-106108535D01*
X175057525Y-106107011D01*
X175058600Y-106106189D01*
X176085139Y-105079651D01*
X176093201Y-105066315D01*
X176822418Y-105066315D01*
X176826424Y-105075214D01*
X177854180Y-106102969D01*
X177868146Y-106111412D01*
X177870563Y-106110324D01*
X177875044Y-106105406D01*
X178000578Y-105910241D01*
X178006189Y-105899907D01*
X178108420Y-105672961D01*
X178112443Y-105661909D01*
X178180006Y-105422350D01*
X178182351Y-105410823D01*
X178214004Y-105162010D01*
X178214612Y-105154063D01*
X178216814Y-105069987D01*
X178216623Y-105062029D01*
X178198035Y-104811900D01*
X178196295Y-104800256D01*
X178141366Y-104557503D01*
X178137922Y-104546238D01*
X178047712Y-104314264D01*
X178042646Y-104303644D01*
X177919141Y-104087556D01*
X177912552Y-104077787D01*
X177877279Y-104033043D01*
X177864403Y-104023018D01*
X177858257Y-104024954D01*
X176830861Y-105052349D01*
X176822418Y-105066315D01*
X176093201Y-105066315D01*
X176093582Y-105065685D01*
X176089576Y-105056786D01*
X175063001Y-104030212D01*
X175049035Y-104021769D01*
X175042616Y-104024658D01*
X175029805Y-104040061D01*
X175022980Y-104049630D01*
X174893854Y-104262423D01*
X174888512Y-104272907D01*
X174792256Y-104502450D01*
X174788524Y-104513603D01*
X174727257Y-104754846D01*
X174725213Y-104766441D01*
X174700275Y-105014094D01*
X174699968Y-105025842D01*
X169220453Y-105025842D01*
X169204482Y-104810937D01*
X169204045Y-104805052D01*
X169192685Y-104754846D01*
X169147600Y-104555597D01*
X169147598Y-104555592D01*
X169146296Y-104549836D01*
X169051457Y-104305960D01*
X169027766Y-104264508D01*
X168924545Y-104083908D01*
X168924544Y-104083907D01*
X168921614Y-104078780D01*
X168759617Y-103873288D01*
X168569026Y-103693998D01*
X168517501Y-103658254D01*
X175413129Y-103658254D01*
X175413780Y-103661194D01*
X175417275Y-103666065D01*
X176444349Y-104693139D01*
X176458315Y-104701582D01*
X176467212Y-104697578D01*
X177492704Y-103672085D01*
X177501147Y-103658119D01*
X177499466Y-103654385D01*
X177496547Y-103651630D01*
X177355570Y-103553831D01*
X177345425Y-103547855D01*
X177122190Y-103437768D01*
X177111287Y-103433362D01*
X176874233Y-103357480D01*
X176862781Y-103354731D01*
X176617129Y-103314724D01*
X176605395Y-103313698D01*
X176356527Y-103310440D01*
X176344773Y-103311159D01*
X176098143Y-103344724D01*
X176086636Y-103347170D01*
X175847679Y-103416819D01*
X175836658Y-103420939D01*
X175610619Y-103525145D01*
X175600322Y-103530853D01*
X175424241Y-103646298D01*
X175413129Y-103658254D01*
X168517501Y-103658254D01*
X168354027Y-103544848D01*
X168136891Y-103437768D01*
X168124631Y-103431722D01*
X168124628Y-103431721D01*
X168119344Y-103429115D01*
X168113732Y-103427318D01*
X168113728Y-103427317D01*
X167875747Y-103351139D01*
X167875746Y-103351139D01*
X167870133Y-103349342D01*
X167815190Y-103340394D01*
X167617697Y-103308230D01*
X167617693Y-103308230D01*
X167611868Y-103307281D01*
X167481045Y-103305568D01*
X167356129Y-103303933D01*
X167356125Y-103303933D01*
X167350223Y-103303856D01*
X167277905Y-103313698D01*
X167096785Y-103338347D01*
X167096782Y-103338348D01*
X167090945Y-103339142D01*
X167085292Y-103340790D01*
X167085286Y-103340791D01*
X166965338Y-103375753D01*
X166839731Y-103412364D01*
X166834383Y-103414830D01*
X166834379Y-103414831D01*
X166607458Y-103519443D01*
X166607453Y-103519446D01*
X166602099Y-103521914D01*
X166597166Y-103525148D01*
X166597161Y-103525151D01*
X166389662Y-103661194D01*
X166383270Y-103665385D01*
X166378867Y-103669314D01*
X166378868Y-103669314D01*
X166201419Y-103827693D01*
X166188051Y-103839624D01*
X166184281Y-103844157D01*
X166184278Y-103844160D01*
X166160053Y-103873288D01*
X166020730Y-104040806D01*
X166017670Y-104045848D01*
X166017669Y-104045850D01*
X165998289Y-104077787D01*
X165884984Y-104264508D01*
X165882704Y-104269944D01*
X165882704Y-104269945D01*
X165870956Y-104297960D01*
X165783794Y-104505819D01*
X165719384Y-104759435D01*
X165715371Y-104799293D01*
X165693974Y-105011786D01*
X165693168Y-105019786D01*
X118784597Y-105019786D01*
X118768045Y-104797052D01*
X118766742Y-104791293D01*
X118711600Y-104547597D01*
X118711598Y-104547592D01*
X118710296Y-104541836D01*
X118694980Y-104502450D01*
X118617597Y-104303463D01*
X118615457Y-104297960D01*
X118591766Y-104256508D01*
X118488545Y-104075908D01*
X118488544Y-104075907D01*
X118485614Y-104070780D01*
X118435534Y-104007253D01*
X118327272Y-103869924D01*
X118327270Y-103869922D01*
X118323617Y-103865288D01*
X118133026Y-103685998D01*
X117918027Y-103536848D01*
X117717113Y-103437768D01*
X117688631Y-103423722D01*
X117688628Y-103423721D01*
X117683344Y-103421115D01*
X117677732Y-103419318D01*
X117677728Y-103419317D01*
X117439747Y-103343139D01*
X117439746Y-103343139D01*
X117434133Y-103341342D01*
X117381628Y-103332791D01*
X117181697Y-103300230D01*
X117181693Y-103300230D01*
X117175868Y-103299281D01*
X117045045Y-103297568D01*
X116920129Y-103295933D01*
X116920125Y-103295933D01*
X116914223Y-103295856D01*
X116855440Y-103303856D01*
X116660785Y-103330347D01*
X116660782Y-103330348D01*
X116654945Y-103331142D01*
X116649292Y-103332790D01*
X116649286Y-103332791D01*
X116564583Y-103357480D01*
X116403731Y-103404364D01*
X116398383Y-103406830D01*
X116398379Y-103406831D01*
X116171458Y-103511443D01*
X116171453Y-103511446D01*
X116166099Y-103513914D01*
X116161166Y-103517148D01*
X116161161Y-103517151D01*
X115964180Y-103646298D01*
X115947270Y-103657385D01*
X115752051Y-103831624D01*
X115748281Y-103836157D01*
X115748278Y-103836160D01*
X115650284Y-103953986D01*
X115584730Y-104032806D01*
X115581670Y-104037848D01*
X115581669Y-104037850D01*
X115579875Y-104040806D01*
X115448984Y-104256508D01*
X115347794Y-104497819D01*
X115283384Y-104751435D01*
X115257168Y-105011786D01*
X109784003Y-105011786D01*
X109768045Y-104797052D01*
X109766742Y-104791293D01*
X109711600Y-104547597D01*
X109711598Y-104547592D01*
X109710296Y-104541836D01*
X109694980Y-104502450D01*
X109617597Y-104303463D01*
X109615457Y-104297960D01*
X109591766Y-104256508D01*
X109488545Y-104075908D01*
X109488544Y-104075907D01*
X109485614Y-104070780D01*
X109435534Y-104007253D01*
X109327272Y-103869924D01*
X109327270Y-103869922D01*
X109323617Y-103865288D01*
X109133026Y-103685998D01*
X108918027Y-103536848D01*
X108717113Y-103437768D01*
X108688631Y-103423722D01*
X108688628Y-103423721D01*
X108683344Y-103421115D01*
X108677732Y-103419318D01*
X108677728Y-103419317D01*
X108439747Y-103343139D01*
X108439746Y-103343139D01*
X108434133Y-103341342D01*
X108381628Y-103332791D01*
X108181697Y-103300230D01*
X108181693Y-103300230D01*
X108175868Y-103299281D01*
X108045045Y-103297568D01*
X107920129Y-103295933D01*
X107920125Y-103295933D01*
X107914223Y-103295856D01*
X107855440Y-103303856D01*
X107660785Y-103330347D01*
X107660782Y-103330348D01*
X107654945Y-103331142D01*
X107649292Y-103332790D01*
X107649286Y-103332791D01*
X107564583Y-103357480D01*
X107403731Y-103404364D01*
X107398383Y-103406830D01*
X107398379Y-103406831D01*
X107171458Y-103511443D01*
X107171453Y-103511446D01*
X107166099Y-103513914D01*
X107161166Y-103517148D01*
X107161161Y-103517151D01*
X106964180Y-103646298D01*
X106947270Y-103657385D01*
X106752051Y-103831624D01*
X106748281Y-103836157D01*
X106748278Y-103836160D01*
X106650284Y-103953986D01*
X106584730Y-104032806D01*
X106581670Y-104037848D01*
X106581669Y-104037850D01*
X106579875Y-104040806D01*
X106448984Y-104256508D01*
X106347794Y-104497819D01*
X106283384Y-104751435D01*
X106257168Y-105011786D01*
X101674500Y-105011786D01*
X101674500Y-95705786D01*
X106257168Y-95705786D01*
X106269722Y-95967153D01*
X106270873Y-95972939D01*
X106270873Y-95972940D01*
X106283443Y-96036132D01*
X106320771Y-96223793D01*
X106322762Y-96229338D01*
X106322763Y-96229342D01*
X106366134Y-96350139D01*
X106409193Y-96470068D01*
X106533046Y-96700569D01*
X106689608Y-96910231D01*
X106693794Y-96914380D01*
X106693796Y-96914383D01*
X106871256Y-97090302D01*
X106871261Y-97090306D01*
X106875440Y-97094449D01*
X106987281Y-97176454D01*
X107081702Y-97245686D01*
X107081706Y-97245688D01*
X107086461Y-97249175D01*
X107091677Y-97251919D01*
X107091683Y-97251923D01*
X107312814Y-97368266D01*
X107312818Y-97368268D01*
X107318034Y-97371012D01*
X107565071Y-97457281D01*
X107822147Y-97506089D01*
X107828049Y-97506321D01*
X107828050Y-97506321D01*
X107870600Y-97507993D01*
X108083613Y-97516362D01*
X108343725Y-97487875D01*
X108349425Y-97486374D01*
X108349432Y-97486373D01*
X108591066Y-97422755D01*
X108591069Y-97422754D01*
X108596770Y-97421253D01*
X108837188Y-97317962D01*
X108842203Y-97314858D01*
X108842208Y-97314856D01*
X108967981Y-97237025D01*
X109059698Y-97180269D01*
X109064201Y-97176457D01*
X109064205Y-97176454D01*
X109254912Y-97015008D01*
X109254914Y-97015006D01*
X109259411Y-97011199D01*
X109431941Y-96814467D01*
X109573496Y-96594394D01*
X109680968Y-96355815D01*
X109751995Y-96103972D01*
X109785018Y-95844396D01*
X109787437Y-95752000D01*
X109784003Y-95705786D01*
X115257168Y-95705786D01*
X115269722Y-95967153D01*
X115270873Y-95972939D01*
X115270873Y-95972940D01*
X115283443Y-96036132D01*
X115320771Y-96223793D01*
X115322762Y-96229338D01*
X115322763Y-96229342D01*
X115366134Y-96350139D01*
X115409193Y-96470068D01*
X115533046Y-96700569D01*
X115689608Y-96910231D01*
X115693794Y-96914380D01*
X115693796Y-96914383D01*
X115871256Y-97090302D01*
X115871261Y-97090306D01*
X115875440Y-97094449D01*
X115987281Y-97176454D01*
X116081702Y-97245686D01*
X116081706Y-97245688D01*
X116086461Y-97249175D01*
X116091677Y-97251919D01*
X116091683Y-97251923D01*
X116312814Y-97368266D01*
X116312818Y-97368268D01*
X116318034Y-97371012D01*
X116565071Y-97457281D01*
X116822147Y-97506089D01*
X116828049Y-97506321D01*
X116828050Y-97506321D01*
X116870600Y-97507993D01*
X117083613Y-97516362D01*
X117343725Y-97487875D01*
X117349425Y-97486374D01*
X117349432Y-97486373D01*
X117591066Y-97422755D01*
X117591069Y-97422754D01*
X117596770Y-97421253D01*
X117837188Y-97317962D01*
X117842203Y-97314858D01*
X117842208Y-97314856D01*
X117967981Y-97237025D01*
X118059698Y-97180269D01*
X118064201Y-97176457D01*
X118064205Y-97176454D01*
X118254912Y-97015008D01*
X118254914Y-97015006D01*
X118259411Y-97011199D01*
X118431941Y-96814467D01*
X118573496Y-96594394D01*
X118680968Y-96355815D01*
X118751995Y-96103972D01*
X118785018Y-95844396D01*
X118787437Y-95752000D01*
X118768045Y-95491052D01*
X118757723Y-95445435D01*
X118711600Y-95241597D01*
X118711598Y-95241592D01*
X118710296Y-95235836D01*
X118615457Y-94991960D01*
X118591766Y-94950508D01*
X118488545Y-94769908D01*
X118488544Y-94769907D01*
X118485614Y-94764780D01*
X118323617Y-94559288D01*
X118133026Y-94379998D01*
X117918027Y-94230848D01*
X117810174Y-94177661D01*
X117688631Y-94117722D01*
X117688628Y-94117721D01*
X117683344Y-94115115D01*
X117677732Y-94113318D01*
X117677728Y-94113317D01*
X117439747Y-94037139D01*
X117439746Y-94037139D01*
X117434133Y-94035342D01*
X117408344Y-94031142D01*
X117181697Y-93994230D01*
X117181693Y-93994230D01*
X117175868Y-93993281D01*
X117045045Y-93991568D01*
X116920129Y-93989933D01*
X116920125Y-93989933D01*
X116914223Y-93989856D01*
X116870136Y-93995856D01*
X116660785Y-94024347D01*
X116660782Y-94024348D01*
X116654945Y-94025142D01*
X116649292Y-94026790D01*
X116649286Y-94026791D01*
X116529338Y-94061753D01*
X116403731Y-94098364D01*
X116398383Y-94100830D01*
X116398379Y-94100831D01*
X116171458Y-94205443D01*
X116171453Y-94205446D01*
X116166099Y-94207914D01*
X116161166Y-94211148D01*
X116161161Y-94211151D01*
X116125948Y-94234238D01*
X115947270Y-94351385D01*
X115752051Y-94525624D01*
X115748281Y-94530157D01*
X115748278Y-94530160D01*
X115743288Y-94536160D01*
X115584730Y-94726806D01*
X115448984Y-94950508D01*
X115347794Y-95191819D01*
X115283384Y-95445435D01*
X115257168Y-95705786D01*
X109784003Y-95705786D01*
X109768045Y-95491052D01*
X109757723Y-95445435D01*
X109711600Y-95241597D01*
X109711598Y-95241592D01*
X109710296Y-95235836D01*
X109615457Y-94991960D01*
X109591766Y-94950508D01*
X109488545Y-94769908D01*
X109488544Y-94769907D01*
X109485614Y-94764780D01*
X109323617Y-94559288D01*
X109133026Y-94379998D01*
X108918027Y-94230848D01*
X108810174Y-94177661D01*
X108688631Y-94117722D01*
X108688628Y-94117721D01*
X108683344Y-94115115D01*
X108677732Y-94113318D01*
X108677728Y-94113317D01*
X108439747Y-94037139D01*
X108439746Y-94037139D01*
X108434133Y-94035342D01*
X108408344Y-94031142D01*
X108181697Y-93994230D01*
X108181693Y-93994230D01*
X108175868Y-93993281D01*
X108045045Y-93991568D01*
X107920129Y-93989933D01*
X107920125Y-93989933D01*
X107914223Y-93989856D01*
X107870136Y-93995856D01*
X107660785Y-94024347D01*
X107660782Y-94024348D01*
X107654945Y-94025142D01*
X107649292Y-94026790D01*
X107649286Y-94026791D01*
X107529338Y-94061753D01*
X107403731Y-94098364D01*
X107398383Y-94100830D01*
X107398379Y-94100831D01*
X107171458Y-94205443D01*
X107171453Y-94205446D01*
X107166099Y-94207914D01*
X107161166Y-94211148D01*
X107161161Y-94211151D01*
X107125948Y-94234238D01*
X106947270Y-94351385D01*
X106752051Y-94525624D01*
X106748281Y-94530157D01*
X106748278Y-94530160D01*
X106743288Y-94536160D01*
X106584730Y-94726806D01*
X106448984Y-94950508D01*
X106347794Y-95191819D01*
X106283384Y-95445435D01*
X106257168Y-95705786D01*
X101674500Y-95705786D01*
X101674500Y-81778268D01*
X131403394Y-81778268D01*
X131406558Y-81791027D01*
X131407015Y-81796859D01*
X131407500Y-81809274D01*
X131407500Y-102224279D01*
X131406907Y-102237999D01*
X131404583Y-102264836D01*
X131403406Y-102278420D01*
X131413631Y-102319582D01*
X131416159Y-102331792D01*
X131423119Y-102373606D01*
X131429308Y-102385077D01*
X131429960Y-102387289D01*
X131430963Y-102389358D01*
X131434105Y-102402004D01*
X131441232Y-102413041D01*
X131441232Y-102413042D01*
X131457106Y-102437626D01*
X131463457Y-102448365D01*
X131483587Y-102485673D01*
X131493158Y-102494521D01*
X131494490Y-102496400D01*
X131496109Y-102498033D01*
X131503179Y-102508981D01*
X131536476Y-102535230D01*
X131545961Y-102543330D01*
X131577095Y-102572111D01*
X131589016Y-102577382D01*
X131590883Y-102578726D01*
X131592945Y-102579747D01*
X131603181Y-102587816D01*
X131615582Y-102592171D01*
X131643175Y-102601861D01*
X131654773Y-102606452D01*
X131693561Y-102623600D01*
X131706542Y-102624724D01*
X131710951Y-102626062D01*
X131713891Y-102626695D01*
X131723328Y-102630009D01*
X131728928Y-102630494D01*
X131766285Y-102630494D01*
X131780005Y-102631087D01*
X131807331Y-102633454D01*
X131807332Y-102633454D01*
X131820426Y-102634588D01*
X131833183Y-102631419D01*
X131838710Y-102630984D01*
X131851186Y-102630494D01*
X152266285Y-102630494D01*
X152280005Y-102631087D01*
X152307331Y-102633454D01*
X152307332Y-102633454D01*
X152320426Y-102634588D01*
X152361588Y-102624363D01*
X152373798Y-102621835D01*
X152415612Y-102614875D01*
X152427083Y-102608686D01*
X152429295Y-102608034D01*
X152431364Y-102607031D01*
X152444010Y-102603889D01*
X152479633Y-102580888D01*
X152490371Y-102574537D01*
X152527679Y-102554407D01*
X152536527Y-102544836D01*
X152538406Y-102543504D01*
X152540039Y-102541885D01*
X152550987Y-102534815D01*
X152577236Y-102501518D01*
X152585340Y-102492029D01*
X152605196Y-102470550D01*
X152605197Y-102470548D01*
X152614117Y-102460899D01*
X152619388Y-102448978D01*
X152620732Y-102447111D01*
X152621753Y-102445049D01*
X152629822Y-102434813D01*
X152643867Y-102394818D01*
X152648462Y-102383211D01*
X152652709Y-102373606D01*
X152665606Y-102344433D01*
X152666730Y-102331452D01*
X152668068Y-102327043D01*
X152668701Y-102324103D01*
X152672015Y-102314666D01*
X152672500Y-102309066D01*
X152672500Y-102271709D01*
X152673093Y-102257989D01*
X152675460Y-102230663D01*
X152675460Y-102230662D01*
X152676594Y-102217568D01*
X152673425Y-102204811D01*
X152672990Y-102199284D01*
X152672500Y-102186808D01*
X152672500Y-95711786D01*
X165693168Y-95711786D01*
X165705722Y-95973153D01*
X165756771Y-96229793D01*
X165845193Y-96476068D01*
X165847985Y-96481264D01*
X165963036Y-96695383D01*
X165969046Y-96706569D01*
X166125608Y-96916231D01*
X166129794Y-96920380D01*
X166129796Y-96920383D01*
X166307256Y-97096302D01*
X166307261Y-97096306D01*
X166311440Y-97100449D01*
X166423281Y-97182454D01*
X166517702Y-97251686D01*
X166517706Y-97251688D01*
X166522461Y-97255175D01*
X166527677Y-97257919D01*
X166527683Y-97257923D01*
X166748814Y-97374266D01*
X166748818Y-97374268D01*
X166754034Y-97377012D01*
X166759604Y-97378957D01*
X166987037Y-97458380D01*
X167001071Y-97463281D01*
X167258147Y-97512089D01*
X167264049Y-97512321D01*
X167264050Y-97512321D01*
X167306600Y-97513993D01*
X167519613Y-97522362D01*
X167779725Y-97493875D01*
X167785425Y-97492374D01*
X167785432Y-97492373D01*
X168027066Y-97428755D01*
X168027069Y-97428754D01*
X168032770Y-97427253D01*
X168273188Y-97323962D01*
X168278203Y-97320858D01*
X168278208Y-97320856D01*
X168403981Y-97243025D01*
X168495698Y-97186269D01*
X168500201Y-97182457D01*
X168500205Y-97182454D01*
X168690912Y-97021008D01*
X168690914Y-97021006D01*
X168695411Y-97017199D01*
X168867941Y-96820467D01*
X169009496Y-96600394D01*
X169116968Y-96361815D01*
X169187995Y-96109972D01*
X169221018Y-95850396D01*
X169223437Y-95758000D01*
X169220003Y-95711786D01*
X174693168Y-95711786D01*
X174705722Y-95973153D01*
X174756771Y-96229793D01*
X174845193Y-96476068D01*
X174847985Y-96481264D01*
X174963036Y-96695383D01*
X174969046Y-96706569D01*
X175125608Y-96916231D01*
X175129794Y-96920380D01*
X175129796Y-96920383D01*
X175307256Y-97096302D01*
X175307261Y-97096306D01*
X175311440Y-97100449D01*
X175423281Y-97182454D01*
X175517702Y-97251686D01*
X175517706Y-97251688D01*
X175522461Y-97255175D01*
X175527677Y-97257919D01*
X175527683Y-97257923D01*
X175748814Y-97374266D01*
X175748818Y-97374268D01*
X175754034Y-97377012D01*
X175759604Y-97378957D01*
X175987037Y-97458380D01*
X176001071Y-97463281D01*
X176258147Y-97512089D01*
X176264049Y-97512321D01*
X176264050Y-97512321D01*
X176306600Y-97513993D01*
X176519613Y-97522362D01*
X176779725Y-97493875D01*
X176785425Y-97492374D01*
X176785432Y-97492373D01*
X177027066Y-97428755D01*
X177027069Y-97428754D01*
X177032770Y-97427253D01*
X177273188Y-97323962D01*
X177278203Y-97320858D01*
X177278208Y-97320856D01*
X177403981Y-97243025D01*
X177495698Y-97186269D01*
X177500201Y-97182457D01*
X177500205Y-97182454D01*
X177690912Y-97021008D01*
X177690914Y-97021006D01*
X177695411Y-97017199D01*
X177867941Y-96820467D01*
X178009496Y-96600394D01*
X178116968Y-96361815D01*
X178187995Y-96109972D01*
X178221018Y-95850396D01*
X178223437Y-95758000D01*
X178204045Y-95497052D01*
X178193695Y-95451309D01*
X178147600Y-95247597D01*
X178147598Y-95247592D01*
X178146296Y-95241836D01*
X178051457Y-94997960D01*
X178027766Y-94956508D01*
X177924545Y-94775908D01*
X177924544Y-94775907D01*
X177921614Y-94770780D01*
X177759617Y-94565288D01*
X177569026Y-94385998D01*
X177354027Y-94236848D01*
X177246174Y-94183661D01*
X177124631Y-94123722D01*
X177124628Y-94123721D01*
X177119344Y-94121115D01*
X177113732Y-94119318D01*
X177113728Y-94119317D01*
X176875747Y-94043139D01*
X176875746Y-94043139D01*
X176870133Y-94041342D01*
X176817628Y-94032791D01*
X176617697Y-94000230D01*
X176617693Y-94000230D01*
X176611868Y-93999281D01*
X176481046Y-93997569D01*
X176356129Y-93995933D01*
X176356125Y-93995933D01*
X176350223Y-93995856D01*
X176252756Y-94009121D01*
X176096785Y-94030347D01*
X176096782Y-94030348D01*
X176090945Y-94031142D01*
X176085292Y-94032790D01*
X176085286Y-94032791D01*
X175965338Y-94067753D01*
X175839731Y-94104364D01*
X175834383Y-94106830D01*
X175834379Y-94106831D01*
X175607458Y-94211443D01*
X175607453Y-94211446D01*
X175602099Y-94213914D01*
X175597166Y-94217148D01*
X175597161Y-94217151D01*
X175392421Y-94351385D01*
X175383270Y-94357385D01*
X175378867Y-94361314D01*
X175378868Y-94361314D01*
X175199178Y-94521693D01*
X175188051Y-94531624D01*
X175020730Y-94732806D01*
X174884984Y-94956508D01*
X174783794Y-95197819D01*
X174782343Y-95203531D01*
X174782343Y-95203532D01*
X174774139Y-95235836D01*
X174719384Y-95451435D01*
X174714791Y-95497052D01*
X174694363Y-95699923D01*
X174693168Y-95711786D01*
X169220003Y-95711786D01*
X169204045Y-95497052D01*
X169193695Y-95451309D01*
X169147600Y-95247597D01*
X169147598Y-95247592D01*
X169146296Y-95241836D01*
X169051457Y-94997960D01*
X169027766Y-94956508D01*
X168924545Y-94775908D01*
X168924544Y-94775907D01*
X168921614Y-94770780D01*
X168759617Y-94565288D01*
X168569026Y-94385998D01*
X168354027Y-94236848D01*
X168246174Y-94183661D01*
X168124631Y-94123722D01*
X168124628Y-94123721D01*
X168119344Y-94121115D01*
X168113732Y-94119318D01*
X168113728Y-94119317D01*
X167875747Y-94043139D01*
X167875746Y-94043139D01*
X167870133Y-94041342D01*
X167817628Y-94032791D01*
X167617697Y-94000230D01*
X167617693Y-94000230D01*
X167611868Y-93999281D01*
X167481046Y-93997569D01*
X167356129Y-93995933D01*
X167356125Y-93995933D01*
X167350223Y-93995856D01*
X167252756Y-94009121D01*
X167096785Y-94030347D01*
X167096782Y-94030348D01*
X167090945Y-94031142D01*
X167085292Y-94032790D01*
X167085286Y-94032791D01*
X166965338Y-94067753D01*
X166839731Y-94104364D01*
X166834383Y-94106830D01*
X166834379Y-94106831D01*
X166607458Y-94211443D01*
X166607453Y-94211446D01*
X166602099Y-94213914D01*
X166597166Y-94217148D01*
X166597161Y-94217151D01*
X166392421Y-94351385D01*
X166383270Y-94357385D01*
X166378867Y-94361314D01*
X166378868Y-94361314D01*
X166199178Y-94521693D01*
X166188051Y-94531624D01*
X166020730Y-94732806D01*
X165884984Y-94956508D01*
X165783794Y-95197819D01*
X165782343Y-95203531D01*
X165782343Y-95203532D01*
X165774139Y-95235836D01*
X165719384Y-95451435D01*
X165714791Y-95497052D01*
X165694363Y-95699923D01*
X165693168Y-95711786D01*
X152672500Y-95711786D01*
X152672500Y-87115033D01*
X162910685Y-87115033D01*
X162911736Y-87124553D01*
X162911736Y-87124556D01*
X162913561Y-87141083D01*
X162928228Y-87273933D01*
X162983168Y-87424063D01*
X162988511Y-87432015D01*
X162988512Y-87432016D01*
X162995581Y-87442535D01*
X163072333Y-87556754D01*
X163190575Y-87664346D01*
X163198991Y-87668915D01*
X163198993Y-87668917D01*
X163322645Y-87736055D01*
X163322647Y-87736056D01*
X163331068Y-87740628D01*
X163485702Y-87781195D01*
X163495281Y-87781345D01*
X163495285Y-87781346D01*
X163569405Y-87782510D01*
X163645548Y-87783706D01*
X163655853Y-87781346D01*
X163680828Y-87775626D01*
X163801380Y-87748016D01*
X163944200Y-87676185D01*
X164065763Y-87572360D01*
X164159052Y-87442535D01*
X164218680Y-87294206D01*
X164241205Y-87135934D01*
X164241351Y-87122000D01*
X164222145Y-86963292D01*
X164165636Y-86813746D01*
X164075087Y-86681995D01*
X164062175Y-86670491D01*
X163962880Y-86582022D01*
X163962876Y-86582019D01*
X163955725Y-86575648D01*
X163814440Y-86500841D01*
X163659391Y-86461895D01*
X163579458Y-86461476D01*
X163509107Y-86461108D01*
X163509106Y-86461108D01*
X163499526Y-86461058D01*
X163451131Y-86472677D01*
X163353397Y-86496140D01*
X163353393Y-86496141D01*
X163344077Y-86498378D01*
X163335562Y-86502773D01*
X163335559Y-86502774D01*
X163210530Y-86567307D01*
X163202017Y-86571701D01*
X163081548Y-86676793D01*
X162989624Y-86807588D01*
X162931552Y-86956534D01*
X162910685Y-87115033D01*
X152672500Y-87115033D01*
X152672500Y-81771600D01*
X152673088Y-81757943D01*
X152675453Y-81730512D01*
X152676582Y-81717416D01*
X152669591Y-81689321D01*
X152666370Y-81676374D01*
X152663823Y-81664089D01*
X152659039Y-81635345D01*
X152659038Y-81635343D01*
X152656881Y-81622382D01*
X152650665Y-81610861D01*
X152650008Y-81608635D01*
X152648995Y-81606547D01*
X152645834Y-81593844D01*
X152638701Y-81582807D01*
X152638700Y-81582804D01*
X152622880Y-81558324D01*
X152616491Y-81547526D01*
X152602654Y-81521882D01*
X152596413Y-81510315D01*
X152586800Y-81501429D01*
X152585457Y-81499535D01*
X152583823Y-81497888D01*
X152576718Y-81486894D01*
X152557170Y-81471496D01*
X152543493Y-81460722D01*
X152533956Y-81452580D01*
X152502905Y-81423877D01*
X152490934Y-81418585D01*
X152489047Y-81417226D01*
X152486966Y-81416197D01*
X152476685Y-81408098D01*
X152436781Y-81394103D01*
X152425119Y-81389488D01*
X152398459Y-81377702D01*
X152386439Y-81372388D01*
X152373397Y-81371258D01*
X152368892Y-81369893D01*
X152366795Y-81369442D01*
X152366758Y-81369433D01*
X152366741Y-81369431D01*
X152365958Y-81369263D01*
X152356521Y-81365953D01*
X152350921Y-81365470D01*
X152347499Y-81365471D01*
X152347492Y-81365471D01*
X152313667Y-81365484D01*
X152299890Y-81364891D01*
X152272672Y-81362534D01*
X152272670Y-81362534D01*
X152259574Y-81361400D01*
X152246817Y-81364569D01*
X152240975Y-81365029D01*
X152228569Y-81365519D01*
X149363678Y-81366648D01*
X147718277Y-81367296D01*
X147644378Y-81349113D01*
X147587395Y-81298670D01*
X147560428Y-81227905D01*
X147512441Y-80841776D01*
X147512439Y-80841764D01*
X147512033Y-80838497D01*
X147418247Y-80390440D01*
X147287771Y-79951661D01*
X147121498Y-79525159D01*
X146920565Y-79113848D01*
X146794833Y-78902717D01*
X146688019Y-78723353D01*
X146688017Y-78723349D01*
X146686343Y-78720539D01*
X146420435Y-78347922D01*
X146124657Y-77998542D01*
X145801030Y-77674787D01*
X145451768Y-77378870D01*
X145079256Y-77112814D01*
X144686041Y-76878436D01*
X144274810Y-76677339D01*
X143848374Y-76510897D01*
X143845239Y-76509964D01*
X143845232Y-76509961D01*
X143412804Y-76381187D01*
X143412794Y-76381185D01*
X143409646Y-76380247D01*
X142961627Y-76286283D01*
X142958372Y-76285877D01*
X142958365Y-76285876D01*
X142510635Y-76230052D01*
X142510627Y-76230051D01*
X142507376Y-76229646D01*
X142504105Y-76229511D01*
X142504097Y-76229510D01*
X142053287Y-76210860D01*
X142050000Y-76210724D01*
X142046713Y-76210860D01*
X141595903Y-76229510D01*
X141595895Y-76229511D01*
X141592624Y-76229646D01*
X141589373Y-76230051D01*
X141589365Y-76230052D01*
X141141635Y-76285876D01*
X141141628Y-76285877D01*
X141138373Y-76286283D01*
X140690354Y-76380247D01*
X140687206Y-76381185D01*
X140687196Y-76381187D01*
X140254768Y-76509961D01*
X140254761Y-76509964D01*
X140251626Y-76510897D01*
X139825190Y-76677339D01*
X139413959Y-76878436D01*
X139020744Y-77112814D01*
X138648232Y-77378870D01*
X138298970Y-77674787D01*
X137975343Y-77998542D01*
X137679565Y-78347922D01*
X137413657Y-78720539D01*
X137411983Y-78723349D01*
X137411981Y-78723353D01*
X137305167Y-78902717D01*
X137179435Y-79113848D01*
X136978502Y-79525159D01*
X136812229Y-79951661D01*
X136681753Y-80390440D01*
X136587967Y-80838497D01*
X136587561Y-80841764D01*
X136587559Y-80841776D01*
X136539572Y-81227905D01*
X136512386Y-81298986D01*
X136455281Y-81349291D01*
X136381724Y-81367296D01*
X133786002Y-81366278D01*
X131813759Y-81365504D01*
X131800117Y-81364911D01*
X131776845Y-81362896D01*
X131772668Y-81362534D01*
X131759574Y-81361400D01*
X131720699Y-81371057D01*
X131718533Y-81371595D01*
X131706246Y-81374138D01*
X131664532Y-81381064D01*
X131653008Y-81387276D01*
X131650778Y-81387933D01*
X131648693Y-81388944D01*
X131635990Y-81392099D01*
X131624952Y-81399226D01*
X131624948Y-81399228D01*
X131600452Y-81415045D01*
X131589654Y-81421428D01*
X131552441Y-81441488D01*
X131543553Y-81451096D01*
X131541657Y-81452439D01*
X131540009Y-81454073D01*
X131529013Y-81461173D01*
X131520876Y-81471496D01*
X131520875Y-81471496D01*
X131502836Y-81494378D01*
X131494687Y-81503916D01*
X131474892Y-81525314D01*
X131474891Y-81525316D01*
X131465967Y-81534962D01*
X131460670Y-81546931D01*
X131459311Y-81548816D01*
X131458281Y-81550896D01*
X131450178Y-81561175D01*
X131445823Y-81573575D01*
X131445823Y-81573576D01*
X131436164Y-81601079D01*
X131431543Y-81612744D01*
X131419750Y-81639390D01*
X131419749Y-81639395D01*
X131414432Y-81651408D01*
X131413297Y-81664449D01*
X131411930Y-81668953D01*
X131411478Y-81671051D01*
X131411470Y-81671084D01*
X131411468Y-81671100D01*
X131411299Y-81671884D01*
X131407985Y-81681322D01*
X131407500Y-81686922D01*
X131407500Y-81724168D01*
X131406902Y-81737951D01*
X131403394Y-81778268D01*
X101674500Y-81778268D01*
X101674500Y-78733033D01*
X117698685Y-78733033D01*
X117699736Y-78742553D01*
X117699736Y-78742556D01*
X117701561Y-78759083D01*
X117716228Y-78891933D01*
X117771168Y-79042063D01*
X117776511Y-79050015D01*
X117776512Y-79050016D01*
X117821393Y-79116805D01*
X117860333Y-79174754D01*
X117978575Y-79282346D01*
X117986991Y-79286915D01*
X117986993Y-79286917D01*
X118110645Y-79354055D01*
X118110647Y-79354056D01*
X118119068Y-79358628D01*
X118273702Y-79399195D01*
X118283281Y-79399345D01*
X118283285Y-79399346D01*
X118357405Y-79400510D01*
X118433548Y-79401706D01*
X118443853Y-79399346D01*
X118468828Y-79393626D01*
X118589380Y-79366016D01*
X118732200Y-79294185D01*
X118853763Y-79190360D01*
X118947052Y-79060535D01*
X119006680Y-78912206D01*
X119029205Y-78753934D01*
X119029351Y-78740000D01*
X119010145Y-78581292D01*
X118953636Y-78431746D01*
X118863087Y-78299995D01*
X118850175Y-78288491D01*
X118750880Y-78200022D01*
X118750876Y-78200019D01*
X118743725Y-78193648D01*
X118602440Y-78118841D01*
X118447391Y-78079895D01*
X118367459Y-78079477D01*
X118297107Y-78079108D01*
X118297106Y-78079108D01*
X118287526Y-78079058D01*
X118239131Y-78090677D01*
X118141397Y-78114140D01*
X118141393Y-78114141D01*
X118132077Y-78116378D01*
X118123562Y-78120773D01*
X118123559Y-78120774D01*
X117998530Y-78185307D01*
X117990017Y-78189701D01*
X117869548Y-78294793D01*
X117777624Y-78425588D01*
X117719552Y-78574534D01*
X117698685Y-78733033D01*
X101674500Y-78733033D01*
X101674500Y-64098334D01*
X123897562Y-64098334D01*
X123899520Y-64110694D01*
X123899520Y-64110698D01*
X123900391Y-64116194D01*
X123902350Y-64141001D01*
X123906651Y-73555087D01*
X123904693Y-73580037D01*
X123903860Y-73585297D01*
X123901902Y-73597658D01*
X123903253Y-73606189D01*
X123903859Y-73615438D01*
X123903859Y-73615445D01*
X123915409Y-73791722D01*
X123918828Y-73843898D01*
X123919843Y-73849000D01*
X123919843Y-73849002D01*
X123965948Y-74080811D01*
X123966965Y-74085924D01*
X124046280Y-74319597D01*
X124155418Y-74540918D01*
X124224456Y-74644246D01*
X124289617Y-74741771D01*
X124289622Y-74741777D01*
X124292510Y-74746100D01*
X124455211Y-74931633D01*
X124640737Y-75094342D01*
X124645056Y-75097228D01*
X124841595Y-75228558D01*
X124841599Y-75228560D01*
X124845913Y-75231443D01*
X124850568Y-75233739D01*
X124850572Y-75233741D01*
X125062564Y-75338288D01*
X125067230Y-75340589D01*
X125300899Y-75419915D01*
X125306001Y-75420930D01*
X125306005Y-75420931D01*
X125386986Y-75437041D01*
X125542924Y-75468062D01*
X125781310Y-75483691D01*
X125789162Y-75484935D01*
X125806913Y-75482124D01*
X125831782Y-75480167D01*
X158756547Y-75480167D01*
X158781422Y-75482125D01*
X158786804Y-75482978D01*
X158786807Y-75482978D01*
X158799162Y-75484935D01*
X158806982Y-75483697D01*
X158817482Y-75483009D01*
X159040208Y-75468415D01*
X159040212Y-75468414D01*
X159045408Y-75468074D01*
X159050518Y-75467058D01*
X159050523Y-75467057D01*
X159282334Y-75420950D01*
X159282337Y-75420949D01*
X159287441Y-75419934D01*
X159292426Y-75418242D01*
X159516189Y-75342288D01*
X159516196Y-75342285D01*
X159521119Y-75340614D01*
X159742445Y-75231470D01*
X159791390Y-75198766D01*
X159943298Y-75097266D01*
X159943303Y-75097262D01*
X159947630Y-75094371D01*
X160133165Y-74931662D01*
X160295873Y-74746127D01*
X160432972Y-74540941D01*
X160542115Y-74319616D01*
X160621435Y-74085937D01*
X160642529Y-73979884D01*
X160668557Y-73849019D01*
X160668558Y-73849014D01*
X160669574Y-73843904D01*
X160685194Y-73605511D01*
X160686438Y-73597658D01*
X160683628Y-73579919D01*
X160681670Y-73555042D01*
X160681671Y-64140278D01*
X160683628Y-64115409D01*
X160684482Y-64110018D01*
X160684482Y-64110016D01*
X160686439Y-64097658D01*
X160685301Y-64090474D01*
X160669627Y-63851412D01*
X160621478Y-63609380D01*
X160542150Y-63375703D01*
X160432999Y-63154380D01*
X160295894Y-62949196D01*
X160285739Y-62937616D01*
X160136612Y-62767578D01*
X160136610Y-62767576D01*
X160133180Y-62763665D01*
X159947642Y-62600958D01*
X159742453Y-62463862D01*
X159724089Y-62454806D01*
X159631789Y-62409291D01*
X159521125Y-62354720D01*
X159497539Y-62346714D01*
X159292369Y-62277073D01*
X159292364Y-62277072D01*
X159287445Y-62275402D01*
X159053857Y-62228943D01*
X159050514Y-62228278D01*
X159050512Y-62228278D01*
X159045410Y-62227263D01*
X159040225Y-62226923D01*
X159040223Y-62226923D01*
X158817745Y-62212345D01*
X158807016Y-62211642D01*
X158799164Y-62210399D01*
X158786810Y-62212356D01*
X158786803Y-62212356D01*
X158781414Y-62213210D01*
X158756543Y-62215168D01*
X142293972Y-62215497D01*
X125827452Y-62215827D01*
X125802573Y-62213868D01*
X125797201Y-62213017D01*
X125797198Y-62213017D01*
X125784838Y-62211059D01*
X125776954Y-62212308D01*
X125675278Y-62218970D01*
X125543792Y-62227585D01*
X125543787Y-62227586D01*
X125538593Y-62227926D01*
X125533483Y-62228942D01*
X125533478Y-62228943D01*
X125301661Y-62275051D01*
X125301655Y-62275053D01*
X125296560Y-62276066D01*
X125291641Y-62277736D01*
X125291640Y-62277736D01*
X125067804Y-62353714D01*
X125067796Y-62353717D01*
X125062883Y-62355385D01*
X125058221Y-62357684D01*
X124846218Y-62462229D01*
X124846212Y-62462232D01*
X124841557Y-62464528D01*
X124737590Y-62533996D01*
X124640704Y-62598732D01*
X124640699Y-62598736D01*
X124636372Y-62601627D01*
X124632460Y-62605058D01*
X124632457Y-62605060D01*
X124571560Y-62658465D01*
X124450838Y-62764335D01*
X124447409Y-62768245D01*
X124298875Y-62937616D01*
X124288129Y-62949869D01*
X124285238Y-62954196D01*
X124285234Y-62954201D01*
X124183734Y-63106109D01*
X124151030Y-63155054D01*
X124041887Y-63376379D01*
X124040216Y-63381302D01*
X124040213Y-63381309D01*
X123964469Y-63604453D01*
X123962567Y-63610057D01*
X123961552Y-63615161D01*
X123961551Y-63615164D01*
X123915579Y-63846297D01*
X123914427Y-63852089D01*
X123898806Y-64090482D01*
X123897562Y-64098334D01*
X101674500Y-64098334D01*
X101674500Y-62454806D01*
X102771125Y-62454806D01*
X102771601Y-62462069D01*
X102771601Y-62462071D01*
X102773345Y-62488681D01*
X102784474Y-62658465D01*
X102786267Y-62665525D01*
X102832918Y-62849218D01*
X102832920Y-62849223D01*
X102834712Y-62856280D01*
X102837760Y-62862892D01*
X102837762Y-62862897D01*
X102875742Y-62945280D01*
X102920159Y-63041628D01*
X102924361Y-63047574D01*
X102924363Y-63047577D01*
X102968003Y-63109326D01*
X103037952Y-63208301D01*
X103184146Y-63350717D01*
X103353845Y-63464107D01*
X103360546Y-63466986D01*
X103360548Y-63466987D01*
X103534668Y-63541794D01*
X103541367Y-63544672D01*
X103548479Y-63546281D01*
X103548481Y-63546282D01*
X103733313Y-63588106D01*
X103733318Y-63588107D01*
X103740430Y-63589716D01*
X103855869Y-63594252D01*
X103937080Y-63597443D01*
X103937084Y-63597443D01*
X103944368Y-63597729D01*
X104042827Y-63583453D01*
X104139140Y-63569488D01*
X104139143Y-63569487D01*
X104146352Y-63568442D01*
X104339616Y-63502838D01*
X104517689Y-63403113D01*
X104523290Y-63398455D01*
X104523294Y-63398452D01*
X104669003Y-63277266D01*
X104674606Y-63272606D01*
X104700389Y-63241605D01*
X104800452Y-63121294D01*
X104800455Y-63121290D01*
X104805113Y-63115689D01*
X104904838Y-62937616D01*
X104970442Y-62744352D01*
X104981872Y-62665525D01*
X104999057Y-62547006D01*
X104999058Y-62546998D01*
X104999729Y-62542368D01*
X105001257Y-62484000D01*
X104982582Y-62280761D01*
X104963290Y-62212355D01*
X104959582Y-62199208D01*
X104927182Y-62084328D01*
X104836913Y-61901280D01*
X104761016Y-61799641D01*
X104719155Y-61743583D01*
X104714797Y-61737747D01*
X104564925Y-61599207D01*
X104392316Y-61490299D01*
X104202750Y-61414670D01*
X104195611Y-61413250D01*
X104195608Y-61413249D01*
X104009721Y-61376273D01*
X104009718Y-61376273D01*
X104002576Y-61374852D01*
X103967579Y-61374394D01*
X103960637Y-61374303D01*
X103921097Y-61364006D01*
X103908612Y-61369946D01*
X103874573Y-61373177D01*
X103798498Y-61372181D01*
X103597350Y-61406744D01*
X103405869Y-61477385D01*
X103399601Y-61481114D01*
X103399599Y-61481115D01*
X103236737Y-61578008D01*
X103236735Y-61578010D01*
X103230468Y-61581738D01*
X103224985Y-61586547D01*
X103224983Y-61586548D01*
X103140993Y-61660206D01*
X103077021Y-61716308D01*
X103072511Y-61722029D01*
X103072510Y-61722030D01*
X103065776Y-61730572D01*
X102950667Y-61876588D01*
X102855637Y-62057210D01*
X102853478Y-62064163D01*
X102853476Y-62064168D01*
X102826963Y-62149555D01*
X102795114Y-62252125D01*
X102794258Y-62259357D01*
X102794257Y-62259362D01*
X102782620Y-62357684D01*
X102771125Y-62454806D01*
X101674500Y-62454806D01*
X101674500Y-61281033D01*
X119362685Y-61281033D01*
X119363736Y-61290553D01*
X119363736Y-61290556D01*
X119372858Y-61373177D01*
X119380228Y-61439933D01*
X119435168Y-61590063D01*
X119440511Y-61598015D01*
X119440512Y-61598016D01*
X119447581Y-61608535D01*
X119524333Y-61722754D01*
X119642575Y-61830346D01*
X119650991Y-61834915D01*
X119650993Y-61834917D01*
X119774645Y-61902055D01*
X119774647Y-61902056D01*
X119783068Y-61906628D01*
X119869139Y-61929208D01*
X119904025Y-61938360D01*
X119937702Y-61947195D01*
X119947281Y-61947345D01*
X119947285Y-61947346D01*
X120021405Y-61948510D01*
X120097548Y-61949706D01*
X120107853Y-61947346D01*
X120181092Y-61930572D01*
X120253380Y-61914016D01*
X120396200Y-61842185D01*
X120517763Y-61738360D01*
X120611052Y-61608535D01*
X120662308Y-61481033D01*
X122012685Y-61481033D01*
X122013736Y-61490553D01*
X122013736Y-61490556D01*
X122027621Y-61616320D01*
X122030228Y-61639933D01*
X122085168Y-61790063D01*
X122090511Y-61798015D01*
X122090512Y-61798016D01*
X122165566Y-61909707D01*
X122174333Y-61922754D01*
X122292575Y-62030346D01*
X122300991Y-62034915D01*
X122300993Y-62034917D01*
X122424645Y-62102055D01*
X122424647Y-62102056D01*
X122433068Y-62106628D01*
X122587702Y-62147195D01*
X122597281Y-62147345D01*
X122597285Y-62147346D01*
X122671405Y-62148510D01*
X122747548Y-62149706D01*
X122757853Y-62147346D01*
X122782828Y-62141626D01*
X122903380Y-62114016D01*
X123046200Y-62042185D01*
X123154479Y-61949706D01*
X123160470Y-61944589D01*
X123160471Y-61944588D01*
X123167763Y-61938360D01*
X123261052Y-61808535D01*
X123320680Y-61660206D01*
X123343205Y-61501934D01*
X123343351Y-61488000D01*
X123324145Y-61329292D01*
X123267636Y-61179746D01*
X123234844Y-61132032D01*
X123182514Y-61055891D01*
X123182513Y-61055890D01*
X123177087Y-61047995D01*
X123155141Y-61028442D01*
X123064880Y-60948022D01*
X123064876Y-60948019D01*
X123057725Y-60941648D01*
X122916440Y-60866841D01*
X122761391Y-60827895D01*
X122681458Y-60827476D01*
X122611107Y-60827108D01*
X122611106Y-60827108D01*
X122601526Y-60827058D01*
X122562235Y-60836491D01*
X122455397Y-60862140D01*
X122455393Y-60862141D01*
X122446077Y-60864378D01*
X122437562Y-60868773D01*
X122437559Y-60868774D01*
X122324775Y-60926987D01*
X122304017Y-60937701D01*
X122296798Y-60943999D01*
X122296796Y-60944000D01*
X122199999Y-61028442D01*
X122183548Y-61042793D01*
X122091624Y-61173588D01*
X122088142Y-61182520D01*
X122088141Y-61182521D01*
X122041584Y-61301934D01*
X122033552Y-61322534D01*
X122012685Y-61481033D01*
X120662308Y-61481033D01*
X120670680Y-61460206D01*
X120693205Y-61301934D01*
X120693351Y-61288000D01*
X120674145Y-61129292D01*
X120617636Y-60979746D01*
X120591453Y-60941648D01*
X120532514Y-60855891D01*
X120532513Y-60855890D01*
X120527087Y-60847995D01*
X120507147Y-60830229D01*
X120414880Y-60748022D01*
X120414876Y-60748019D01*
X120407725Y-60741648D01*
X120266440Y-60666841D01*
X120111391Y-60627895D01*
X120031459Y-60627477D01*
X119961107Y-60627108D01*
X119961106Y-60627108D01*
X119951526Y-60627058D01*
X119903131Y-60638677D01*
X119805397Y-60662140D01*
X119805393Y-60662141D01*
X119796077Y-60664378D01*
X119787562Y-60668773D01*
X119787559Y-60668774D01*
X119674744Y-60727003D01*
X119654017Y-60737701D01*
X119646798Y-60743999D01*
X119646796Y-60744000D01*
X119570317Y-60810717D01*
X119533548Y-60842793D01*
X119441624Y-60973588D01*
X119438142Y-60982520D01*
X119438141Y-60982521D01*
X119408733Y-61057948D01*
X119383552Y-61122534D01*
X119362685Y-61281033D01*
X101674500Y-61281033D01*
X101674500Y-59914806D01*
X102771125Y-59914806D01*
X102771601Y-59922069D01*
X102771601Y-59922071D01*
X102773345Y-59948681D01*
X102784474Y-60118465D01*
X102786267Y-60125525D01*
X102832918Y-60309218D01*
X102832920Y-60309223D01*
X102834712Y-60316280D01*
X102837760Y-60322892D01*
X102837762Y-60322897D01*
X102902628Y-60463600D01*
X102920159Y-60501628D01*
X103037952Y-60668301D01*
X103184146Y-60810717D01*
X103353845Y-60924107D01*
X103360546Y-60926986D01*
X103360548Y-60926987D01*
X103504205Y-60988706D01*
X103541367Y-61004672D01*
X103548479Y-61006281D01*
X103548481Y-61006282D01*
X103733313Y-61048106D01*
X103733318Y-61048107D01*
X103740430Y-61049716D01*
X103747715Y-61050002D01*
X103747721Y-61050003D01*
X103882895Y-61055314D01*
X103917279Y-61065236D01*
X103926691Y-61060452D01*
X103944400Y-61057948D01*
X103944368Y-61057729D01*
X104139140Y-61029488D01*
X104139143Y-61029487D01*
X104146352Y-61028442D01*
X104339616Y-60962838D01*
X104517689Y-60863113D01*
X104523290Y-60858455D01*
X104523294Y-60858452D01*
X104669003Y-60737266D01*
X104674606Y-60732606D01*
X104679266Y-60727003D01*
X104800452Y-60581294D01*
X104800455Y-60581290D01*
X104805113Y-60575689D01*
X104904838Y-60397616D01*
X104970442Y-60204352D01*
X104981872Y-60125525D01*
X104999057Y-60007006D01*
X104999058Y-60006998D01*
X104999729Y-60002368D01*
X105001257Y-59944000D01*
X104982582Y-59740761D01*
X104927182Y-59544328D01*
X104836913Y-59361280D01*
X104714797Y-59197747D01*
X104564925Y-59059207D01*
X104392316Y-58950299D01*
X104202750Y-58874670D01*
X104195611Y-58873250D01*
X104195608Y-58873249D01*
X104009721Y-58836273D01*
X104009718Y-58836273D01*
X104002576Y-58834852D01*
X103967579Y-58834394D01*
X103960637Y-58834303D01*
X103921097Y-58824006D01*
X103908612Y-58829946D01*
X103874573Y-58833177D01*
X103798498Y-58832181D01*
X103597350Y-58866744D01*
X103405869Y-58937385D01*
X103399601Y-58941114D01*
X103399599Y-58941115D01*
X103236737Y-59038008D01*
X103236735Y-59038010D01*
X103230468Y-59041738D01*
X103224985Y-59046547D01*
X103224983Y-59046548D01*
X103157680Y-59105572D01*
X103077021Y-59176308D01*
X102950667Y-59336588D01*
X102855637Y-59517210D01*
X102853478Y-59524163D01*
X102853476Y-59524168D01*
X102845036Y-59551350D01*
X102795114Y-59712125D01*
X102794258Y-59719357D01*
X102794257Y-59719362D01*
X102773491Y-59894816D01*
X102771125Y-59914806D01*
X101674500Y-59914806D01*
X101674500Y-58656033D01*
X118212685Y-58656033D01*
X118213736Y-58665553D01*
X118213736Y-58665556D01*
X118229176Y-58805405D01*
X118230228Y-58814933D01*
X118285168Y-58965063D01*
X118290511Y-58973015D01*
X118290512Y-58973016D01*
X118345818Y-59055319D01*
X118374333Y-59097754D01*
X118492575Y-59205346D01*
X118500991Y-59209915D01*
X118500993Y-59209917D01*
X118624645Y-59277055D01*
X118624647Y-59277056D01*
X118633068Y-59281628D01*
X118787702Y-59322195D01*
X118797281Y-59322345D01*
X118797285Y-59322346D01*
X118871405Y-59323510D01*
X118947548Y-59324706D01*
X118957853Y-59322346D01*
X118982828Y-59316626D01*
X119103380Y-59289016D01*
X119246200Y-59217185D01*
X119367763Y-59113360D01*
X119461052Y-58983535D01*
X119520680Y-58835206D01*
X119543205Y-58676934D01*
X119543351Y-58663000D01*
X119524145Y-58504292D01*
X119479819Y-58386987D01*
X119471022Y-58363706D01*
X119471021Y-58363704D01*
X119467636Y-58354746D01*
X119448345Y-58326676D01*
X119382514Y-58230891D01*
X119382513Y-58230890D01*
X119377087Y-58222995D01*
X119364175Y-58211491D01*
X119264880Y-58123022D01*
X119264876Y-58123019D01*
X119257725Y-58116648D01*
X119116440Y-58041841D01*
X118961391Y-58002895D01*
X118881459Y-58002477D01*
X118811107Y-58002108D01*
X118811106Y-58002108D01*
X118801526Y-58002058D01*
X118773040Y-58008897D01*
X118655397Y-58037140D01*
X118655393Y-58037141D01*
X118646077Y-58039378D01*
X118637562Y-58043773D01*
X118637559Y-58043774D01*
X118530531Y-58099016D01*
X118504017Y-58112701D01*
X118496798Y-58118999D01*
X118496796Y-58119000D01*
X118418843Y-58187003D01*
X118383548Y-58217793D01*
X118291624Y-58348588D01*
X118288142Y-58357520D01*
X118288141Y-58357521D01*
X118246364Y-58464672D01*
X118233552Y-58497534D01*
X118212685Y-58656033D01*
X101674500Y-58656033D01*
X101674500Y-57374806D01*
X102771125Y-57374806D01*
X102771601Y-57382069D01*
X102771601Y-57382071D01*
X102773976Y-57418307D01*
X102784474Y-57578465D01*
X102786267Y-57585525D01*
X102832918Y-57769218D01*
X102832920Y-57769223D01*
X102834712Y-57776280D01*
X102837760Y-57782892D01*
X102837762Y-57782897D01*
X102873022Y-57859380D01*
X102920159Y-57961628D01*
X102924361Y-57967574D01*
X102924363Y-57967577D01*
X102976461Y-58041293D01*
X103037952Y-58128301D01*
X103044372Y-58134555D01*
X103148218Y-58235717D01*
X103184146Y-58270717D01*
X103353845Y-58384107D01*
X103360546Y-58386986D01*
X103360548Y-58386987D01*
X103449448Y-58425181D01*
X103541367Y-58464672D01*
X103548479Y-58466281D01*
X103548481Y-58466282D01*
X103733313Y-58508106D01*
X103733318Y-58508107D01*
X103740430Y-58509716D01*
X103747715Y-58510002D01*
X103747721Y-58510003D01*
X103882895Y-58515314D01*
X103917279Y-58525236D01*
X103926691Y-58520452D01*
X103944400Y-58517948D01*
X103944368Y-58517729D01*
X104139140Y-58489488D01*
X104139143Y-58489487D01*
X104146352Y-58488442D01*
X104339616Y-58422838D01*
X104517689Y-58323113D01*
X104523290Y-58318455D01*
X104523294Y-58318452D01*
X104669003Y-58197266D01*
X104674606Y-58192606D01*
X104805113Y-58035689D01*
X104809876Y-58027185D01*
X104827447Y-57995809D01*
X104879442Y-57940238D01*
X104951307Y-57915197D01*
X104966174Y-57914500D01*
X107115673Y-57914500D01*
X107128427Y-57915012D01*
X107135585Y-57915588D01*
X107146638Y-57918089D01*
X107199576Y-57914805D01*
X107209420Y-57914500D01*
X107224660Y-57914500D01*
X107230253Y-57913699D01*
X107230255Y-57913699D01*
X107233763Y-57913197D01*
X107246446Y-57911898D01*
X107281278Y-57909737D01*
X107281281Y-57909736D01*
X107292587Y-57909035D01*
X107303246Y-57905186D01*
X107312484Y-57903273D01*
X107321535Y-57900626D01*
X107332754Y-57899020D01*
X107374837Y-57879885D01*
X107386657Y-57875074D01*
X107419477Y-57863226D01*
X107419478Y-57863225D01*
X107430130Y-57859380D01*
X107439276Y-57852698D01*
X107447613Y-57848265D01*
X107455560Y-57843183D01*
X107465871Y-57838495D01*
X107500894Y-57808317D01*
X107510877Y-57800391D01*
X107520854Y-57793102D01*
X107531020Y-57782936D01*
X107539661Y-57774914D01*
X107568062Y-57750442D01*
X107568066Y-57750438D01*
X107576650Y-57743041D01*
X107582813Y-57733532D01*
X107590257Y-57724999D01*
X107590628Y-57725323D01*
X107599082Y-57714874D01*
X107847923Y-57466033D01*
X166190685Y-57466033D01*
X166191736Y-57475553D01*
X166191736Y-57475556D01*
X166203098Y-57578465D01*
X166208228Y-57624933D01*
X166263168Y-57775063D01*
X166268511Y-57783015D01*
X166268512Y-57783016D01*
X166330373Y-57875074D01*
X166352333Y-57907754D01*
X166470575Y-58015346D01*
X166478991Y-58019915D01*
X166478993Y-58019917D01*
X166602645Y-58087055D01*
X166602647Y-58087056D01*
X166611068Y-58091628D01*
X166689351Y-58112165D01*
X166750859Y-58128301D01*
X166765702Y-58132195D01*
X166775281Y-58132345D01*
X166775285Y-58132346D01*
X166849405Y-58133510D01*
X166925548Y-58134706D01*
X166935853Y-58132346D01*
X166960828Y-58126626D01*
X167081380Y-58099016D01*
X167224200Y-58027185D01*
X167295799Y-57966033D01*
X173815685Y-57966033D01*
X173816736Y-57975553D01*
X173816736Y-57975556D01*
X173832176Y-58115405D01*
X173833228Y-58124933D01*
X173888168Y-58275063D01*
X173893511Y-58283015D01*
X173893512Y-58283016D01*
X173961802Y-58384641D01*
X173977333Y-58407754D01*
X174095575Y-58515346D01*
X174103991Y-58519915D01*
X174103993Y-58519917D01*
X174227645Y-58587055D01*
X174227647Y-58587056D01*
X174236068Y-58591628D01*
X174247805Y-58594707D01*
X174371605Y-58627185D01*
X174390702Y-58632195D01*
X174400281Y-58632345D01*
X174400285Y-58632346D01*
X174474405Y-58633510D01*
X174550548Y-58634706D01*
X174560853Y-58632346D01*
X174610584Y-58620956D01*
X174706380Y-58599016D01*
X174849200Y-58527185D01*
X174970763Y-58423360D01*
X175064052Y-58293535D01*
X175123680Y-58145206D01*
X175134948Y-58066033D01*
X179115685Y-58066033D01*
X179116736Y-58075553D01*
X179116736Y-58075556D01*
X179123378Y-58135717D01*
X179133228Y-58224933D01*
X179188168Y-58375063D01*
X179193511Y-58383015D01*
X179193512Y-58383016D01*
X179265059Y-58489488D01*
X179277333Y-58507754D01*
X179395575Y-58615346D01*
X179403991Y-58619915D01*
X179403993Y-58619917D01*
X179527645Y-58687055D01*
X179527647Y-58687056D01*
X179536068Y-58691628D01*
X179690702Y-58732195D01*
X179700281Y-58732345D01*
X179700285Y-58732346D01*
X179774405Y-58733510D01*
X179850548Y-58734706D01*
X179860853Y-58732346D01*
X179885828Y-58726626D01*
X180006380Y-58699016D01*
X180149200Y-58627185D01*
X180270763Y-58523360D01*
X180334753Y-58434308D01*
X180358458Y-58401320D01*
X180358458Y-58401319D01*
X180364052Y-58393535D01*
X180423680Y-58245206D01*
X180446205Y-58086934D01*
X180446351Y-58073000D01*
X180427145Y-57914292D01*
X180386804Y-57807534D01*
X180374022Y-57773706D01*
X180374021Y-57773704D01*
X180370636Y-57764746D01*
X180360806Y-57750442D01*
X180285514Y-57640891D01*
X180285513Y-57640890D01*
X180280087Y-57632995D01*
X180272932Y-57626620D01*
X180167880Y-57533022D01*
X180167876Y-57533019D01*
X180160725Y-57526648D01*
X180019440Y-57451841D01*
X179864391Y-57412895D01*
X179784458Y-57412476D01*
X179714107Y-57412108D01*
X179714106Y-57412108D01*
X179704526Y-57412058D01*
X179678497Y-57418307D01*
X179558397Y-57447140D01*
X179558393Y-57447141D01*
X179549077Y-57449378D01*
X179540562Y-57453773D01*
X179540559Y-57453774D01*
X179466338Y-57492083D01*
X179407017Y-57522701D01*
X179399798Y-57528999D01*
X179399796Y-57529000D01*
X179293772Y-57621491D01*
X179286548Y-57627793D01*
X179194624Y-57758588D01*
X179191142Y-57767520D01*
X179191141Y-57767521D01*
X179141700Y-57894330D01*
X179136552Y-57907534D01*
X179115685Y-58066033D01*
X175134948Y-58066033D01*
X175146205Y-57986934D01*
X175146351Y-57973000D01*
X175127145Y-57814292D01*
X175070636Y-57664746D01*
X175048815Y-57632995D01*
X174985514Y-57540891D01*
X174985513Y-57540890D01*
X174980087Y-57532995D01*
X174967175Y-57521491D01*
X174867880Y-57433022D01*
X174867876Y-57433019D01*
X174860725Y-57426648D01*
X174719440Y-57351841D01*
X174564391Y-57312895D01*
X174484459Y-57312477D01*
X174414107Y-57312108D01*
X174414106Y-57312108D01*
X174404526Y-57312058D01*
X174383808Y-57317032D01*
X174258397Y-57347140D01*
X174258393Y-57347141D01*
X174249077Y-57349378D01*
X174240562Y-57353773D01*
X174240559Y-57353774D01*
X174115530Y-57418307D01*
X174107017Y-57422701D01*
X174099798Y-57428999D01*
X174099796Y-57429000D01*
X174055293Y-57467823D01*
X173986548Y-57527793D01*
X173894624Y-57658588D01*
X173891142Y-57667520D01*
X173891141Y-57667521D01*
X173847770Y-57778762D01*
X173836552Y-57807534D01*
X173815685Y-57966033D01*
X167295799Y-57966033D01*
X167308701Y-57955014D01*
X167338470Y-57929589D01*
X167338471Y-57929588D01*
X167345763Y-57923360D01*
X167428993Y-57807534D01*
X167433458Y-57801320D01*
X167433458Y-57801319D01*
X167439052Y-57793535D01*
X167498680Y-57645206D01*
X167521205Y-57486934D01*
X167521351Y-57473000D01*
X167502145Y-57314292D01*
X167445636Y-57164746D01*
X167355087Y-57032995D01*
X167342175Y-57021491D01*
X167242880Y-56933022D01*
X167242876Y-56933019D01*
X167235725Y-56926648D01*
X167094440Y-56851841D01*
X166939391Y-56812895D01*
X166859458Y-56812476D01*
X166789107Y-56812108D01*
X166789106Y-56812108D01*
X166779526Y-56812058D01*
X166731131Y-56823677D01*
X166633397Y-56847140D01*
X166633393Y-56847141D01*
X166624077Y-56849378D01*
X166615562Y-56853773D01*
X166615559Y-56853774D01*
X166490530Y-56918307D01*
X166482017Y-56922701D01*
X166361548Y-57027793D01*
X166269624Y-57158588D01*
X166266142Y-57167520D01*
X166266141Y-57167521D01*
X166215032Y-57298608D01*
X166211552Y-57307534D01*
X166190685Y-57466033D01*
X107847923Y-57466033D01*
X109057923Y-56256033D01*
X116337685Y-56256033D01*
X116338736Y-56265553D01*
X116338736Y-56265556D01*
X116353012Y-56394860D01*
X116355228Y-56414933D01*
X116410168Y-56565063D01*
X116415511Y-56573015D01*
X116415512Y-56573016D01*
X116454813Y-56631501D01*
X116499333Y-56697754D01*
X116617575Y-56805346D01*
X116625991Y-56809915D01*
X116625993Y-56809917D01*
X116749645Y-56877055D01*
X116749647Y-56877056D01*
X116758068Y-56881628D01*
X116769805Y-56884707D01*
X116897882Y-56918307D01*
X116912702Y-56922195D01*
X116922281Y-56922345D01*
X116922285Y-56922346D01*
X116996405Y-56923510D01*
X117072548Y-56924706D01*
X117082853Y-56922346D01*
X117107828Y-56916626D01*
X117228380Y-56889016D01*
X117371200Y-56817185D01*
X117492763Y-56713360D01*
X117586052Y-56583535D01*
X117645680Y-56435206D01*
X117668205Y-56276934D01*
X117668351Y-56263000D01*
X117649145Y-56104292D01*
X117613368Y-56009611D01*
X117596022Y-55963706D01*
X117596021Y-55963704D01*
X117592636Y-55954746D01*
X117586981Y-55946517D01*
X117507514Y-55830891D01*
X117507513Y-55830890D01*
X117502087Y-55822995D01*
X117489175Y-55811491D01*
X117389880Y-55723022D01*
X117389876Y-55723019D01*
X117382725Y-55716648D01*
X117241440Y-55641841D01*
X117086391Y-55602895D01*
X117006459Y-55602477D01*
X116936107Y-55602108D01*
X116936106Y-55602108D01*
X116926526Y-55602058D01*
X116878131Y-55613677D01*
X116780397Y-55637140D01*
X116780393Y-55637141D01*
X116771077Y-55639378D01*
X116762562Y-55643773D01*
X116762559Y-55643774D01*
X116689481Y-55681493D01*
X116629017Y-55712701D01*
X116621798Y-55718999D01*
X116621796Y-55719000D01*
X116548929Y-55782566D01*
X116508548Y-55817793D01*
X116416624Y-55948588D01*
X116413142Y-55957520D01*
X116413141Y-55957521D01*
X116406575Y-55974362D01*
X116358552Y-56097534D01*
X116337685Y-56256033D01*
X109057923Y-56256033D01*
X111150170Y-54163786D01*
X153495168Y-54163786D01*
X153507722Y-54425153D01*
X153558771Y-54681793D01*
X153560762Y-54687338D01*
X153560763Y-54687342D01*
X153601479Y-54800744D01*
X153647193Y-54928068D01*
X153649985Y-54933264D01*
X153762188Y-55142083D01*
X153771046Y-55158569D01*
X153927608Y-55368231D01*
X153931794Y-55372380D01*
X153931796Y-55372383D01*
X154109256Y-55548302D01*
X154109261Y-55548306D01*
X154113440Y-55552449D01*
X154225281Y-55634454D01*
X154319702Y-55703686D01*
X154319706Y-55703688D01*
X154324461Y-55707175D01*
X154329677Y-55709919D01*
X154329683Y-55709923D01*
X154550814Y-55826266D01*
X154550818Y-55826268D01*
X154556034Y-55829012D01*
X154803071Y-55915281D01*
X155060147Y-55964089D01*
X155066049Y-55964321D01*
X155066050Y-55964321D01*
X155108600Y-55965993D01*
X155321613Y-55974362D01*
X155581725Y-55945875D01*
X155587425Y-55944374D01*
X155587432Y-55944373D01*
X155829066Y-55880755D01*
X155829069Y-55880754D01*
X155834770Y-55879253D01*
X156075188Y-55775962D01*
X156080203Y-55772858D01*
X156080208Y-55772856D01*
X156205981Y-55695025D01*
X156297698Y-55638269D01*
X156302201Y-55634457D01*
X156302205Y-55634454D01*
X156492912Y-55473008D01*
X156492914Y-55473006D01*
X156497411Y-55469199D01*
X156669941Y-55272467D01*
X156690362Y-55240719D01*
X156770562Y-55116033D01*
X173815685Y-55116033D01*
X173816736Y-55125553D01*
X173816736Y-55125556D01*
X173820381Y-55158569D01*
X173833228Y-55274933D01*
X173888168Y-55425063D01*
X173893511Y-55433015D01*
X173893512Y-55433016D01*
X173928872Y-55485636D01*
X173977333Y-55557754D01*
X174095575Y-55665346D01*
X174103991Y-55669915D01*
X174103993Y-55669917D01*
X174227645Y-55737055D01*
X174227647Y-55737056D01*
X174236068Y-55741628D01*
X174247805Y-55744707D01*
X174355931Y-55773073D01*
X174390702Y-55782195D01*
X174400281Y-55782345D01*
X174400285Y-55782346D01*
X174474405Y-55783510D01*
X174550548Y-55784706D01*
X174560853Y-55782346D01*
X174602288Y-55772856D01*
X174706380Y-55749016D01*
X174849200Y-55677185D01*
X174970763Y-55573360D01*
X175042873Y-55473008D01*
X175058458Y-55451320D01*
X175058458Y-55451319D01*
X175064052Y-55443535D01*
X175123680Y-55295206D01*
X175146205Y-55136934D01*
X175146351Y-55123000D01*
X175127145Y-54964292D01*
X175070636Y-54814746D01*
X174980087Y-54682995D01*
X174898159Y-54610000D01*
X174867880Y-54583022D01*
X174867876Y-54583019D01*
X174860725Y-54576648D01*
X174719440Y-54501841D01*
X174564391Y-54462895D01*
X174484458Y-54462476D01*
X174414107Y-54462108D01*
X174414106Y-54462108D01*
X174404526Y-54462058D01*
X174356131Y-54473677D01*
X174258397Y-54497140D01*
X174258393Y-54497141D01*
X174249077Y-54499378D01*
X174240562Y-54503773D01*
X174240559Y-54503774D01*
X174139138Y-54556122D01*
X174107017Y-54572701D01*
X174099798Y-54578999D01*
X174099796Y-54579000D01*
X174067219Y-54607419D01*
X173986548Y-54677793D01*
X173894624Y-54808588D01*
X173891142Y-54817520D01*
X173891141Y-54817521D01*
X173840032Y-54948608D01*
X173836552Y-54957534D01*
X173815685Y-55116033D01*
X156770562Y-55116033D01*
X156808307Y-55057352D01*
X156808307Y-55057351D01*
X156811496Y-55052394D01*
X156918968Y-54813815D01*
X156922655Y-54800744D01*
X156988393Y-54567652D01*
X156989995Y-54561972D01*
X157023018Y-54302396D01*
X157025437Y-54210000D01*
X157006045Y-53949052D01*
X156995723Y-53903435D01*
X156987260Y-53866033D01*
X176065685Y-53866033D01*
X176066736Y-53875553D01*
X176066736Y-53875556D01*
X176075500Y-53954937D01*
X176083228Y-54024933D01*
X176138168Y-54175063D01*
X176143511Y-54183015D01*
X176143512Y-54183016D01*
X176216229Y-54291229D01*
X176227333Y-54307754D01*
X176345575Y-54415346D01*
X176353991Y-54419915D01*
X176353993Y-54419917D01*
X176477645Y-54487055D01*
X176477647Y-54487056D01*
X176486068Y-54491628D01*
X176640702Y-54532195D01*
X176650281Y-54532345D01*
X176650285Y-54532346D01*
X176724405Y-54533510D01*
X176800548Y-54534706D01*
X176810853Y-54532346D01*
X176835828Y-54526626D01*
X176956380Y-54499016D01*
X177099200Y-54427185D01*
X177220763Y-54323360D01*
X177314052Y-54193535D01*
X177373680Y-54045206D01*
X177396205Y-53886934D01*
X177396351Y-53873000D01*
X177377145Y-53714292D01*
X177333586Y-53599016D01*
X177324022Y-53573706D01*
X177324021Y-53573704D01*
X177320636Y-53564746D01*
X177294822Y-53527185D01*
X177235514Y-53440891D01*
X177235513Y-53440890D01*
X177230087Y-53432995D01*
X177203703Y-53409488D01*
X177117880Y-53333022D01*
X177117876Y-53333019D01*
X177110725Y-53326648D01*
X176969440Y-53251841D01*
X176814391Y-53212895D01*
X176734459Y-53212477D01*
X176664107Y-53212108D01*
X176664106Y-53212108D01*
X176654526Y-53212058D01*
X176629193Y-53218140D01*
X176508397Y-53247140D01*
X176508393Y-53247141D01*
X176499077Y-53249378D01*
X176490562Y-53253773D01*
X176490559Y-53253774D01*
X176393042Y-53304107D01*
X176357017Y-53322701D01*
X176349798Y-53328999D01*
X176349796Y-53329000D01*
X176264432Y-53403468D01*
X176236548Y-53427793D01*
X176144624Y-53558588D01*
X176141142Y-53567520D01*
X176141141Y-53567521D01*
X176114947Y-53634706D01*
X176086552Y-53707534D01*
X176065685Y-53866033D01*
X156987260Y-53866033D01*
X156949600Y-53699597D01*
X156949598Y-53699592D01*
X156948296Y-53693836D01*
X156853457Y-53449960D01*
X156846467Y-53437729D01*
X156726545Y-53227908D01*
X156726544Y-53227907D01*
X156723614Y-53222780D01*
X156586066Y-53048301D01*
X156565272Y-53021924D01*
X156565270Y-53021922D01*
X156561617Y-53017288D01*
X156507131Y-52966033D01*
X173315685Y-52966033D01*
X173316736Y-52975553D01*
X173316736Y-52975556D01*
X173325329Y-53053389D01*
X173333228Y-53124933D01*
X173388168Y-53275063D01*
X173393511Y-53283015D01*
X173393512Y-53283016D01*
X173459889Y-53381794D01*
X173477333Y-53407754D01*
X173595575Y-53515346D01*
X173603991Y-53519915D01*
X173603993Y-53519917D01*
X173727645Y-53587055D01*
X173727647Y-53587056D01*
X173736068Y-53591628D01*
X173890702Y-53632195D01*
X173900281Y-53632345D01*
X173900285Y-53632346D01*
X173974405Y-53633510D01*
X174050548Y-53634706D01*
X174060853Y-53632346D01*
X174085828Y-53626626D01*
X174206380Y-53599016D01*
X174349200Y-53527185D01*
X174470763Y-53423360D01*
X174543479Y-53322165D01*
X174558458Y-53301320D01*
X174558458Y-53301319D01*
X174564052Y-53293535D01*
X174623680Y-53145206D01*
X174646205Y-52986934D01*
X174646351Y-52973000D01*
X174627145Y-52814292D01*
X174582552Y-52696280D01*
X174574022Y-52673706D01*
X174574021Y-52673704D01*
X174570636Y-52664746D01*
X174515384Y-52584352D01*
X174485514Y-52540891D01*
X174485513Y-52540890D01*
X174480087Y-52532995D01*
X174428226Y-52486789D01*
X174385171Y-52424037D01*
X174376211Y-52348464D01*
X174403397Y-52277383D01*
X174460503Y-52227078D01*
X174536492Y-52209093D01*
X174565961Y-52209556D01*
X174565966Y-52209555D01*
X174575548Y-52209706D01*
X174731380Y-52174016D01*
X174874200Y-52102185D01*
X174995763Y-51998360D01*
X175089052Y-51868535D01*
X175148680Y-51720206D01*
X175171205Y-51561934D01*
X175171351Y-51548000D01*
X175152145Y-51389292D01*
X175115961Y-51293535D01*
X175099022Y-51248706D01*
X175099021Y-51248704D01*
X175095636Y-51239746D01*
X175076692Y-51212181D01*
X175010514Y-51115891D01*
X175010513Y-51115890D01*
X175005087Y-51107995D01*
X174992175Y-51096491D01*
X174892880Y-51008022D01*
X174892876Y-51008019D01*
X174885725Y-51001648D01*
X174818460Y-50966033D01*
X180765685Y-50966033D01*
X180766736Y-50975553D01*
X180766736Y-50975556D01*
X180779592Y-51092000D01*
X180783228Y-51124933D01*
X180838168Y-51275063D01*
X180843511Y-51283015D01*
X180843512Y-51283016D01*
X180921321Y-51398807D01*
X180927333Y-51407754D01*
X181045575Y-51515346D01*
X181053991Y-51519915D01*
X181053993Y-51519917D01*
X181177645Y-51587055D01*
X181177647Y-51587056D01*
X181186068Y-51591628D01*
X181197805Y-51594707D01*
X181324319Y-51627897D01*
X181340702Y-51632195D01*
X181350281Y-51632345D01*
X181350285Y-51632346D01*
X181424405Y-51633510D01*
X181500548Y-51634706D01*
X181510853Y-51632346D01*
X181535828Y-51626626D01*
X181656380Y-51599016D01*
X181799200Y-51527185D01*
X181920763Y-51423360D01*
X182014052Y-51293535D01*
X182073680Y-51145206D01*
X182096205Y-50986934D01*
X182096351Y-50973000D01*
X182077145Y-50814292D01*
X182020636Y-50664746D01*
X182008298Y-50646793D01*
X181935514Y-50540891D01*
X181935513Y-50540890D01*
X181930087Y-50532995D01*
X181907717Y-50513064D01*
X181817880Y-50433022D01*
X181817876Y-50433019D01*
X181810725Y-50426648D01*
X181669440Y-50351841D01*
X181514391Y-50312895D01*
X181434458Y-50312476D01*
X181364107Y-50312108D01*
X181364106Y-50312108D01*
X181354526Y-50312058D01*
X181306131Y-50323677D01*
X181208397Y-50347140D01*
X181208393Y-50347141D01*
X181199077Y-50349378D01*
X181190562Y-50353773D01*
X181190559Y-50353774D01*
X181098870Y-50401099D01*
X181057017Y-50422701D01*
X181049798Y-50428999D01*
X181049796Y-50429000D01*
X181001833Y-50470841D01*
X180936548Y-50527793D01*
X180844624Y-50658588D01*
X180841142Y-50667520D01*
X180841141Y-50667521D01*
X180794745Y-50786521D01*
X180786552Y-50807534D01*
X180765685Y-50966033D01*
X174818460Y-50966033D01*
X174744440Y-50926841D01*
X174589391Y-50887895D01*
X174509458Y-50887476D01*
X174439107Y-50887108D01*
X174439106Y-50887108D01*
X174429526Y-50887058D01*
X174404872Y-50892977D01*
X174283397Y-50922140D01*
X174283393Y-50922141D01*
X174274077Y-50924378D01*
X174265562Y-50928773D01*
X174265559Y-50928774D01*
X174140530Y-50993307D01*
X174132017Y-50997701D01*
X174124798Y-51003999D01*
X174124796Y-51004000D01*
X174029855Y-51086823D01*
X174011548Y-51102793D01*
X173919624Y-51233588D01*
X173916142Y-51242520D01*
X173916141Y-51242521D01*
X173907686Y-51264206D01*
X173861552Y-51382534D01*
X173840685Y-51541033D01*
X173841736Y-51550553D01*
X173841736Y-51550556D01*
X173851606Y-51639956D01*
X173858228Y-51699933D01*
X173913168Y-51850063D01*
X173918511Y-51858015D01*
X173918512Y-51858016D01*
X173967791Y-51931350D01*
X174002333Y-51982754D01*
X174009426Y-51989208D01*
X174060532Y-52035711D01*
X174102927Y-52098911D01*
X174111095Y-52174573D01*
X174083165Y-52245365D01*
X174025536Y-52295069D01*
X173952691Y-52312310D01*
X173914108Y-52312108D01*
X173914107Y-52312108D01*
X173904526Y-52312058D01*
X173856131Y-52323677D01*
X173758397Y-52347140D01*
X173758393Y-52347141D01*
X173749077Y-52349378D01*
X173740562Y-52353773D01*
X173740559Y-52353774D01*
X173685160Y-52382368D01*
X173607017Y-52422701D01*
X173599798Y-52428999D01*
X173599796Y-52429000D01*
X173526040Y-52493342D01*
X173486548Y-52527793D01*
X173394624Y-52658588D01*
X173391142Y-52667520D01*
X173391141Y-52667521D01*
X173345736Y-52783978D01*
X173336552Y-52807534D01*
X173315685Y-52966033D01*
X156507131Y-52966033D01*
X156371026Y-52837998D01*
X156156027Y-52688848D01*
X155958118Y-52591250D01*
X155926631Y-52575722D01*
X155926628Y-52575721D01*
X155921344Y-52573115D01*
X155915732Y-52571318D01*
X155915728Y-52571317D01*
X155677747Y-52495139D01*
X155677746Y-52495139D01*
X155672133Y-52493342D01*
X155619628Y-52484791D01*
X155419697Y-52452230D01*
X155419693Y-52452230D01*
X155413868Y-52451281D01*
X155283045Y-52449568D01*
X155158129Y-52447933D01*
X155158125Y-52447933D01*
X155152223Y-52447856D01*
X155054756Y-52461121D01*
X154898785Y-52482347D01*
X154898782Y-52482348D01*
X154892945Y-52483142D01*
X154887292Y-52484790D01*
X154887286Y-52484791D01*
X154816152Y-52505525D01*
X154641731Y-52556364D01*
X154636383Y-52558830D01*
X154636379Y-52558831D01*
X154409458Y-52663443D01*
X154409453Y-52663446D01*
X154404099Y-52665914D01*
X154399166Y-52669148D01*
X154399161Y-52669151D01*
X154191455Y-52805330D01*
X154185270Y-52809385D01*
X154156981Y-52834634D01*
X154007755Y-52967823D01*
X153990051Y-52983624D01*
X153986281Y-52988157D01*
X153986278Y-52988160D01*
X153965416Y-53013244D01*
X153822730Y-53184806D01*
X153819670Y-53189848D01*
X153819669Y-53189850D01*
X153804269Y-53215229D01*
X153686984Y-53408508D01*
X153684704Y-53413944D01*
X153684704Y-53413945D01*
X153674731Y-53437729D01*
X153585794Y-53649819D01*
X153584343Y-53655531D01*
X153584343Y-53655532D01*
X153550379Y-53789265D01*
X153521384Y-53903435D01*
X153510109Y-54015405D01*
X153501995Y-54095992D01*
X153495168Y-54163786D01*
X111150170Y-54163786D01*
X114228923Y-51085033D01*
X163710685Y-51085033D01*
X163711736Y-51094553D01*
X163711736Y-51094556D01*
X163724722Y-51212181D01*
X163728228Y-51243933D01*
X163783168Y-51394063D01*
X163788511Y-51402015D01*
X163788512Y-51402016D01*
X163860334Y-51508897D01*
X163872333Y-51526754D01*
X163990575Y-51634346D01*
X163998991Y-51638915D01*
X163998993Y-51638917D01*
X164122645Y-51706055D01*
X164122647Y-51706056D01*
X164131068Y-51710628D01*
X164285702Y-51751195D01*
X164295281Y-51751345D01*
X164295285Y-51751346D01*
X164369405Y-51752510D01*
X164445548Y-51753706D01*
X164455853Y-51751346D01*
X164525315Y-51735437D01*
X164601380Y-51718016D01*
X164744200Y-51646185D01*
X164836816Y-51567083D01*
X164858470Y-51548589D01*
X164858471Y-51548588D01*
X164865763Y-51542360D01*
X164948983Y-51426548D01*
X164953458Y-51420320D01*
X164953458Y-51420319D01*
X164959052Y-51412535D01*
X165018680Y-51264206D01*
X165041205Y-51105934D01*
X165041351Y-51092000D01*
X165022145Y-50933292D01*
X164978214Y-50817032D01*
X164969022Y-50792706D01*
X164969021Y-50792704D01*
X164965636Y-50783746D01*
X164950929Y-50762346D01*
X164880514Y-50659891D01*
X164880513Y-50659890D01*
X164875087Y-50651995D01*
X164862175Y-50640491D01*
X164762880Y-50552022D01*
X164762876Y-50552019D01*
X164755725Y-50545648D01*
X164614440Y-50470841D01*
X164459391Y-50431895D01*
X164379458Y-50431476D01*
X164309107Y-50431108D01*
X164309106Y-50431108D01*
X164299526Y-50431058D01*
X164251131Y-50442677D01*
X164153397Y-50466140D01*
X164153393Y-50466141D01*
X164144077Y-50468378D01*
X164135562Y-50472773D01*
X164135559Y-50472774D01*
X164010530Y-50537307D01*
X164002017Y-50541701D01*
X163994798Y-50547999D01*
X163994796Y-50548000D01*
X163990186Y-50552022D01*
X163881548Y-50646793D01*
X163789624Y-50777588D01*
X163786142Y-50786520D01*
X163786141Y-50786521D01*
X163743212Y-50896628D01*
X163731552Y-50926534D01*
X163710685Y-51085033D01*
X114228923Y-51085033D01*
X115226886Y-50087070D01*
X115292013Y-50047699D01*
X115339316Y-50040500D01*
X116757211Y-50040500D01*
X116769965Y-50041012D01*
X116777123Y-50041588D01*
X116788176Y-50044089D01*
X116841114Y-50040805D01*
X116850958Y-50040500D01*
X116866198Y-50040500D01*
X116872022Y-50039666D01*
X116872373Y-50039616D01*
X116894909Y-50038011D01*
X174254162Y-50038011D01*
X174266916Y-50038523D01*
X174274074Y-50039099D01*
X174285127Y-50041600D01*
X174338065Y-50038316D01*
X174347909Y-50038011D01*
X174363149Y-50038011D01*
X174368742Y-50037210D01*
X174368744Y-50037210D01*
X174372252Y-50036708D01*
X174384935Y-50035409D01*
X174419767Y-50033248D01*
X174419770Y-50033247D01*
X174431076Y-50032546D01*
X174441735Y-50028697D01*
X174450973Y-50026784D01*
X174460024Y-50024137D01*
X174471243Y-50022531D01*
X174513326Y-50003396D01*
X174525146Y-49998585D01*
X174557966Y-49986737D01*
X174557967Y-49986736D01*
X174568619Y-49982891D01*
X174577765Y-49976209D01*
X174586102Y-49971776D01*
X174594049Y-49966694D01*
X174604360Y-49962006D01*
X174639383Y-49931828D01*
X174649366Y-49923902D01*
X174659343Y-49916613D01*
X174669509Y-49906447D01*
X174678150Y-49898425D01*
X174706551Y-49873953D01*
X174706555Y-49873949D01*
X174715139Y-49866552D01*
X174721302Y-49857043D01*
X174728746Y-49848510D01*
X174729117Y-49848834D01*
X174737571Y-49838385D01*
X175640887Y-48935070D01*
X175706014Y-48895699D01*
X175753317Y-48888500D01*
X176738684Y-48888500D01*
X176812575Y-48906712D01*
X176851114Y-48935070D01*
X177273878Y-49357834D01*
X177282531Y-49367212D01*
X177287195Y-49372692D01*
X177293237Y-49382268D01*
X177301723Y-49389763D01*
X177301725Y-49389765D01*
X177332982Y-49417370D01*
X177340159Y-49424115D01*
X177350944Y-49434900D01*
X177355464Y-49438288D01*
X177355476Y-49438298D01*
X177358297Y-49440412D01*
X177368192Y-49448467D01*
X177402841Y-49479068D01*
X177413095Y-49483882D01*
X177420973Y-49489057D01*
X177429256Y-49493592D01*
X177438324Y-49500388D01*
X177481612Y-49516616D01*
X177493369Y-49521571D01*
X177535209Y-49541214D01*
X177546402Y-49542957D01*
X177555427Y-49545716D01*
X177564639Y-49547741D01*
X177575250Y-49551719D01*
X177621342Y-49555144D01*
X177634023Y-49556600D01*
X177640157Y-49557555D01*
X177646226Y-49558500D01*
X177660607Y-49558500D01*
X177672389Y-49558937D01*
X177709783Y-49561716D01*
X177709786Y-49561716D01*
X177721079Y-49562555D01*
X177732155Y-49560191D01*
X177743458Y-49559420D01*
X177743491Y-49559911D01*
X177756858Y-49558500D01*
X178328684Y-49558500D01*
X178402575Y-49576712D01*
X178441114Y-49605070D01*
X179081096Y-50245052D01*
X179120467Y-50310179D01*
X179126706Y-50340033D01*
X179130228Y-50371933D01*
X179185168Y-50522063D01*
X179190511Y-50530015D01*
X179190512Y-50530016D01*
X179264749Y-50640491D01*
X179274333Y-50654754D01*
X179392575Y-50762346D01*
X179400991Y-50766915D01*
X179400993Y-50766917D01*
X179524645Y-50834055D01*
X179524647Y-50834056D01*
X179533068Y-50838628D01*
X179544805Y-50841707D01*
X179655260Y-50870684D01*
X179687702Y-50879195D01*
X179697281Y-50879345D01*
X179697285Y-50879346D01*
X179771405Y-50880510D01*
X179847548Y-50881706D01*
X179857853Y-50879346D01*
X179895673Y-50870684D01*
X180003380Y-50846016D01*
X180146200Y-50774185D01*
X180267763Y-50670360D01*
X180361052Y-50540535D01*
X180420680Y-50392206D01*
X180443205Y-50233934D01*
X180443351Y-50220000D01*
X180424145Y-50061292D01*
X180367636Y-49911746D01*
X180361126Y-49902273D01*
X180282514Y-49787891D01*
X180282513Y-49787890D01*
X180277087Y-49779995D01*
X180269932Y-49773620D01*
X180164880Y-49680022D01*
X180164876Y-49680019D01*
X180157725Y-49673648D01*
X180016440Y-49598841D01*
X179926948Y-49576362D01*
X179875246Y-49563375D01*
X179808018Y-49527710D01*
X179801551Y-49521595D01*
X179785576Y-49505620D01*
X179746205Y-49440493D01*
X179741610Y-49364529D01*
X179772844Y-49295132D01*
X179826563Y-49251145D01*
X179865630Y-49231496D01*
X179865635Y-49231493D01*
X179874200Y-49227185D01*
X179979466Y-49137279D01*
X179988470Y-49129589D01*
X179988471Y-49129588D01*
X179995763Y-49123360D01*
X180066972Y-49024263D01*
X180083458Y-49001320D01*
X180083458Y-49001319D01*
X180089052Y-48993535D01*
X180148680Y-48845206D01*
X180171205Y-48686934D01*
X180171351Y-48673000D01*
X180152145Y-48514292D01*
X180095636Y-48364746D01*
X180027787Y-48266023D01*
X180010514Y-48240891D01*
X180010513Y-48240890D01*
X180005087Y-48232995D01*
X179990733Y-48220206D01*
X179892880Y-48133022D01*
X179892876Y-48133019D01*
X179885725Y-48126648D01*
X179744440Y-48051841D01*
X179589391Y-48012895D01*
X179509459Y-48012477D01*
X179439107Y-48012108D01*
X179439106Y-48012108D01*
X179429526Y-48012058D01*
X179381131Y-48023677D01*
X179283397Y-48047140D01*
X179283393Y-48047141D01*
X179274077Y-48049378D01*
X179265562Y-48053773D01*
X179265559Y-48053774D01*
X179145713Y-48115632D01*
X179132017Y-48122701D01*
X179124798Y-48128999D01*
X179124796Y-48129000D01*
X179020245Y-48220206D01*
X179015152Y-48224649D01*
X179015149Y-48224651D01*
X179011548Y-48227793D01*
X179011165Y-48227354D01*
X178954171Y-48266023D01*
X178878553Y-48274590D01*
X178807615Y-48247033D01*
X178757608Y-48189667D01*
X178739989Y-48115632D01*
X178741570Y-48094507D01*
X178745472Y-48067088D01*
X178745473Y-48067080D01*
X178746205Y-48061934D01*
X178746261Y-48056677D01*
X178746280Y-48054753D01*
X178746351Y-48048000D01*
X178727145Y-47889292D01*
X178670636Y-47739746D01*
X178580087Y-47607995D01*
X178567175Y-47596491D01*
X178467880Y-47508022D01*
X178467876Y-47508019D01*
X178460725Y-47501648D01*
X178319440Y-47426841D01*
X178164391Y-47387895D01*
X178084458Y-47387476D01*
X178014107Y-47387108D01*
X178014106Y-47387108D01*
X178004526Y-47387058D01*
X177956131Y-47398677D01*
X177858397Y-47422140D01*
X177858393Y-47422141D01*
X177849077Y-47424378D01*
X177840562Y-47428773D01*
X177840559Y-47428774D01*
X177755856Y-47472493D01*
X177707017Y-47497701D01*
X177699798Y-47503999D01*
X177699796Y-47504000D01*
X177663450Y-47535707D01*
X177586548Y-47602793D01*
X177494624Y-47733588D01*
X177491142Y-47742520D01*
X177491141Y-47742521D01*
X177456859Y-47830450D01*
X177413049Y-47892678D01*
X177345339Y-47927419D01*
X177269240Y-47926714D01*
X177252917Y-47921578D01*
X177220394Y-47909386D01*
X177208638Y-47904432D01*
X177177045Y-47889599D01*
X177177038Y-47889597D01*
X177166791Y-47884786D01*
X177155605Y-47883044D01*
X177146577Y-47880284D01*
X177137357Y-47878257D01*
X177126750Y-47874281D01*
X177080658Y-47870856D01*
X177067977Y-47869400D01*
X177061843Y-47868445D01*
X177061842Y-47868445D01*
X177055774Y-47867500D01*
X177041393Y-47867500D01*
X177029611Y-47867063D01*
X176992217Y-47864284D01*
X176992214Y-47864284D01*
X176980921Y-47863445D01*
X176969845Y-47865809D01*
X176958542Y-47866580D01*
X176958509Y-47866089D01*
X176945142Y-47867500D01*
X175548327Y-47867500D01*
X175535573Y-47866988D01*
X175528415Y-47866412D01*
X175517362Y-47863911D01*
X175464425Y-47867195D01*
X175454580Y-47867500D01*
X175439340Y-47867500D01*
X175433747Y-47868301D01*
X175433745Y-47868301D01*
X175430237Y-47868803D01*
X175417554Y-47870102D01*
X175382722Y-47872263D01*
X175382719Y-47872264D01*
X175371413Y-47872965D01*
X175360754Y-47876814D01*
X175351516Y-47878727D01*
X175342465Y-47881374D01*
X175331246Y-47882980D01*
X175316689Y-47889599D01*
X175289164Y-47902114D01*
X175277344Y-47906925D01*
X175270529Y-47909386D01*
X175244523Y-47918774D01*
X175244522Y-47918775D01*
X175233870Y-47922620D01*
X175224724Y-47929302D01*
X175216387Y-47933735D01*
X175208440Y-47938817D01*
X175198129Y-47943505D01*
X175189549Y-47950898D01*
X175163110Y-47973680D01*
X175153123Y-47981609D01*
X175143146Y-47988898D01*
X175132980Y-47999064D01*
X175124339Y-48007086D01*
X175095938Y-48031558D01*
X175095934Y-48031562D01*
X175087350Y-48038959D01*
X175081187Y-48048468D01*
X175073743Y-48057001D01*
X175073372Y-48056677D01*
X175064918Y-48067126D01*
X174161603Y-48970441D01*
X174096476Y-49009812D01*
X174049173Y-49017011D01*
X116904354Y-49017011D01*
X116891600Y-49016499D01*
X116884442Y-49015923D01*
X116873389Y-49013422D01*
X116821951Y-49016613D01*
X116820452Y-49016706D01*
X116810607Y-49017011D01*
X116795367Y-49017011D01*
X116789543Y-49017845D01*
X116789192Y-49017895D01*
X116766656Y-49019500D01*
X115134328Y-49019500D01*
X115121574Y-49018988D01*
X115114416Y-49018412D01*
X115103363Y-49015911D01*
X115050426Y-49019195D01*
X115040581Y-49019500D01*
X115025340Y-49019500D01*
X115019747Y-49020301D01*
X115019745Y-49020301D01*
X115016237Y-49020803D01*
X115003554Y-49022102D01*
X114968720Y-49024263D01*
X114968717Y-49024264D01*
X114957413Y-49024965D01*
X114946759Y-49028811D01*
X114937519Y-49030725D01*
X114928459Y-49033374D01*
X114917246Y-49034980D01*
X114882833Y-49050627D01*
X114875162Y-49054115D01*
X114863339Y-49058927D01*
X114830527Y-49070772D01*
X114830526Y-49070773D01*
X114819871Y-49074619D01*
X114810724Y-49081301D01*
X114802389Y-49085733D01*
X114794440Y-49090817D01*
X114784129Y-49095505D01*
X114775546Y-49102901D01*
X114775544Y-49102902D01*
X114749113Y-49125676D01*
X114739123Y-49133609D01*
X114729147Y-49140897D01*
X114718980Y-49151064D01*
X114710339Y-49159086D01*
X114681938Y-49183558D01*
X114681934Y-49183562D01*
X114673350Y-49190959D01*
X114667187Y-49200468D01*
X114659743Y-49209001D01*
X114659372Y-49208677D01*
X114650918Y-49219126D01*
X107023114Y-56846930D01*
X106957987Y-56886301D01*
X106910684Y-56893500D01*
X104969431Y-56893500D01*
X104895540Y-56875288D01*
X104838724Y-56824952D01*
X104836913Y-56821280D01*
X104832555Y-56815444D01*
X104832552Y-56815439D01*
X104719155Y-56663583D01*
X104714797Y-56657747D01*
X104564925Y-56519207D01*
X104392316Y-56410299D01*
X104202750Y-56334670D01*
X104195611Y-56333250D01*
X104195608Y-56333249D01*
X104009721Y-56296273D01*
X104009718Y-56296273D01*
X104002576Y-56294852D01*
X103911849Y-56293665D01*
X103805794Y-56292276D01*
X103805789Y-56292276D01*
X103798498Y-56292181D01*
X103597350Y-56326744D01*
X103405869Y-56397385D01*
X103399601Y-56401114D01*
X103399599Y-56401115D01*
X103236737Y-56498008D01*
X103236735Y-56498010D01*
X103230468Y-56501738D01*
X103224985Y-56506547D01*
X103224983Y-56506548D01*
X103128320Y-56591320D01*
X103077021Y-56636308D01*
X102950667Y-56796588D01*
X102855637Y-56977210D01*
X102853478Y-56984163D01*
X102853476Y-56984168D01*
X102839930Y-57027793D01*
X102795114Y-57172125D01*
X102794258Y-57179357D01*
X102794257Y-57179362D01*
X102774135Y-57349378D01*
X102771125Y-57374806D01*
X101674500Y-57374806D01*
X101674500Y-55123030D01*
X102814413Y-55123030D01*
X102815005Y-55132276D01*
X102839071Y-55227040D01*
X102843915Y-55240719D01*
X102922763Y-55411750D01*
X102930017Y-55424314D01*
X103038707Y-55578109D01*
X103048139Y-55589152D01*
X103183030Y-55720556D01*
X103194314Y-55729694D01*
X103350903Y-55834324D01*
X103363655Y-55841247D01*
X103536685Y-55915587D01*
X103550498Y-55920075D01*
X103613169Y-55934256D01*
X103629487Y-55933944D01*
X103630751Y-55932036D01*
X103632000Y-55924833D01*
X103632000Y-55923491D01*
X104140000Y-55923491D01*
X104143905Y-55939336D01*
X104147612Y-55940742D01*
X104151732Y-55939753D01*
X104330058Y-55879218D01*
X104343321Y-55873313D01*
X104507636Y-55781293D01*
X104519596Y-55773073D01*
X104664382Y-55652656D01*
X104674656Y-55642382D01*
X104795073Y-55497596D01*
X104803293Y-55485636D01*
X104895313Y-55321321D01*
X104901218Y-55308058D01*
X104961404Y-55130758D01*
X104960434Y-55120864D01*
X104955594Y-55118178D01*
X104954254Y-55118000D01*
X104159305Y-55118000D01*
X104143460Y-55121905D01*
X104140000Y-55131029D01*
X104140000Y-55923491D01*
X103632000Y-55923491D01*
X103632000Y-55137305D01*
X103628095Y-55121460D01*
X103618971Y-55118000D01*
X102830684Y-55118000D01*
X102814839Y-55121905D01*
X102814413Y-55123030D01*
X101674500Y-55123030D01*
X101674500Y-54607419D01*
X102813570Y-54607419D01*
X102825622Y-54610000D01*
X103612695Y-54610000D01*
X103628540Y-54606095D01*
X103632000Y-54596971D01*
X103632000Y-54590695D01*
X104140000Y-54590695D01*
X104143905Y-54606540D01*
X104153029Y-54610000D01*
X104942208Y-54610000D01*
X104958053Y-54606095D01*
X104958092Y-54605990D01*
X104957230Y-54594812D01*
X104923069Y-54473689D01*
X104917864Y-54460127D01*
X104834572Y-54291229D01*
X104826985Y-54278847D01*
X104714305Y-54127951D01*
X104704600Y-54117172D01*
X104566306Y-53989334D01*
X104554786Y-53980495D01*
X104395513Y-53880001D01*
X104382586Y-53873414D01*
X104207662Y-53803627D01*
X104193752Y-53799507D01*
X104158935Y-53792581D01*
X104142632Y-53793321D01*
X104140843Y-53796182D01*
X104140000Y-53801451D01*
X104140000Y-54590695D01*
X103632000Y-54590695D01*
X103632000Y-53806690D01*
X103628095Y-53790845D01*
X103623929Y-53789265D01*
X103620576Y-53789348D01*
X103606220Y-53791815D01*
X103592204Y-53795571D01*
X103415523Y-53860752D01*
X103402409Y-53867007D01*
X103240574Y-53963289D01*
X103228820Y-53971829D01*
X103087240Y-54095992D01*
X103077241Y-54106529D01*
X102960655Y-54254416D01*
X102952747Y-54266593D01*
X102865062Y-54433254D01*
X102859505Y-54446670D01*
X102814514Y-54591564D01*
X102813570Y-54607419D01*
X101674500Y-54607419D01*
X101674500Y-52294806D01*
X102771125Y-52294806D01*
X102771601Y-52302069D01*
X102771601Y-52302071D01*
X102773345Y-52328681D01*
X102784474Y-52498465D01*
X102786267Y-52505525D01*
X102832918Y-52689218D01*
X102832920Y-52689223D01*
X102834712Y-52696280D01*
X102837760Y-52702892D01*
X102837762Y-52702897D01*
X102890380Y-52817032D01*
X102920159Y-52881628D01*
X103037952Y-53048301D01*
X103184146Y-53190717D01*
X103353845Y-53304107D01*
X103360546Y-53306986D01*
X103360548Y-53306987D01*
X103449448Y-53345181D01*
X103541367Y-53384672D01*
X103548479Y-53386281D01*
X103548481Y-53386282D01*
X103733313Y-53428106D01*
X103733318Y-53428107D01*
X103740430Y-53429716D01*
X103855869Y-53434252D01*
X103937080Y-53437443D01*
X103937084Y-53437443D01*
X103944368Y-53437729D01*
X104056357Y-53421491D01*
X104139140Y-53409488D01*
X104139143Y-53409487D01*
X104146352Y-53408442D01*
X104339616Y-53342838D01*
X104517689Y-53243113D01*
X104523290Y-53238455D01*
X104523294Y-53238452D01*
X104669003Y-53117266D01*
X104674606Y-53112606D01*
X104679266Y-53107003D01*
X104800452Y-52961294D01*
X104800455Y-52961290D01*
X104805113Y-52955689D01*
X104904838Y-52777616D01*
X104970442Y-52584352D01*
X104971488Y-52577140D01*
X104999057Y-52387006D01*
X104999058Y-52386998D01*
X104999729Y-52382368D01*
X105001257Y-52324000D01*
X104982582Y-52120761D01*
X104927182Y-51924328D01*
X104836913Y-51741280D01*
X104714797Y-51577747D01*
X104564925Y-51439207D01*
X104392316Y-51330299D01*
X104248633Y-51272976D01*
X104209513Y-51257368D01*
X104209511Y-51257368D01*
X104202750Y-51254670D01*
X104195611Y-51253250D01*
X104195608Y-51253249D01*
X104009721Y-51216273D01*
X104009718Y-51216273D01*
X104002576Y-51214852D01*
X103821802Y-51212486D01*
X103815842Y-51210934D01*
X103809179Y-51212010D01*
X103805794Y-51212276D01*
X103798498Y-51212181D01*
X103597350Y-51246744D01*
X103590503Y-51249270D01*
X103494626Y-51284641D01*
X103405869Y-51317385D01*
X103399601Y-51321114D01*
X103399599Y-51321115D01*
X103236737Y-51418008D01*
X103236735Y-51418010D01*
X103230468Y-51421738D01*
X103224985Y-51426547D01*
X103224983Y-51426548D01*
X103085823Y-51548589D01*
X103077021Y-51556308D01*
X102950667Y-51716588D01*
X102855637Y-51897210D01*
X102853478Y-51904163D01*
X102853476Y-51904168D01*
X102845036Y-51931350D01*
X102795114Y-52092125D01*
X102794258Y-52099357D01*
X102794257Y-52099362D01*
X102781270Y-52209093D01*
X102771125Y-52294806D01*
X101674500Y-52294806D01*
X101674500Y-50659654D01*
X102775500Y-50659654D01*
X102790615Y-50735642D01*
X102799316Y-50748664D01*
X102837179Y-50805330D01*
X102848190Y-50821810D01*
X102934358Y-50879385D01*
X103010346Y-50894500D01*
X103796704Y-50894500D01*
X103805339Y-50896628D01*
X103823883Y-50894500D01*
X104761654Y-50894500D01*
X104837642Y-50879385D01*
X104923810Y-50821810D01*
X104934822Y-50805330D01*
X104972684Y-50748664D01*
X104981385Y-50735642D01*
X104996500Y-50659654D01*
X104996500Y-48908346D01*
X104981385Y-48832358D01*
X104923810Y-48746190D01*
X104837642Y-48688615D01*
X104761654Y-48673500D01*
X103010346Y-48673500D01*
X102934358Y-48688615D01*
X102848190Y-48746190D01*
X102790615Y-48832358D01*
X102775500Y-48908346D01*
X102775500Y-50659654D01*
X101674500Y-50659654D01*
X101674500Y-46907033D01*
X107591685Y-46907033D01*
X107592736Y-46916553D01*
X107592736Y-46916556D01*
X107599118Y-46974362D01*
X107609228Y-47065933D01*
X107664168Y-47216063D01*
X107669511Y-47224015D01*
X107669512Y-47224016D01*
X107676581Y-47234535D01*
X107753333Y-47348754D01*
X107871575Y-47456346D01*
X107879991Y-47460915D01*
X107879993Y-47460917D01*
X108003645Y-47528055D01*
X108003647Y-47528056D01*
X108012068Y-47532628D01*
X108166702Y-47573195D01*
X108176281Y-47573345D01*
X108176285Y-47573346D01*
X108250405Y-47574510D01*
X108326548Y-47575706D01*
X108336853Y-47573346D01*
X108361828Y-47567626D01*
X108482380Y-47540016D01*
X108625200Y-47468185D01*
X108685981Y-47416273D01*
X108739470Y-47370589D01*
X108739471Y-47370588D01*
X108746763Y-47364360D01*
X108840052Y-47234535D01*
X108899680Y-47086206D01*
X108922205Y-46927934D01*
X108922351Y-46914000D01*
X108903145Y-46755292D01*
X108860100Y-46641377D01*
X108850022Y-46614706D01*
X108850021Y-46614704D01*
X108846636Y-46605746D01*
X108812662Y-46556312D01*
X108761514Y-46481891D01*
X108761513Y-46481890D01*
X108756087Y-46473995D01*
X108661016Y-46389290D01*
X108643880Y-46374022D01*
X108643876Y-46374019D01*
X108636725Y-46367648D01*
X108495440Y-46292841D01*
X108340391Y-46253895D01*
X108260459Y-46253477D01*
X108190107Y-46253108D01*
X108190106Y-46253108D01*
X108180526Y-46253058D01*
X108146146Y-46261312D01*
X108034397Y-46288140D01*
X108034393Y-46288141D01*
X108025077Y-46290378D01*
X108016562Y-46294773D01*
X108016559Y-46294774D01*
X107891530Y-46359307D01*
X107883017Y-46363701D01*
X107875798Y-46369999D01*
X107875796Y-46370000D01*
X107853684Y-46389290D01*
X107762548Y-46468793D01*
X107670624Y-46599588D01*
X107667142Y-46608520D01*
X107667141Y-46608521D01*
X107628677Y-46707175D01*
X107612552Y-46748534D01*
X107591685Y-46907033D01*
X101674500Y-46907033D01*
X101674500Y-46264866D01*
X102889864Y-46264866D01*
X102890580Y-46266457D01*
X102896770Y-46271974D01*
X103078994Y-46383640D01*
X103090083Y-46389290D01*
X103304533Y-46478119D01*
X103316376Y-46481967D01*
X103542070Y-46536152D01*
X103554381Y-46538101D01*
X103785774Y-46556312D01*
X103798226Y-46556312D01*
X104029619Y-46538101D01*
X104041930Y-46536152D01*
X104267624Y-46481967D01*
X104279467Y-46478119D01*
X104493917Y-46389290D01*
X104505006Y-46383640D01*
X104682883Y-46274638D01*
X104694353Y-46263028D01*
X104694028Y-46261312D01*
X104689300Y-46254507D01*
X103805651Y-45370858D01*
X103791685Y-45362415D01*
X103782788Y-45366419D01*
X102898307Y-46250900D01*
X102889864Y-46264866D01*
X101674500Y-46264866D01*
X101674500Y-45004223D01*
X102233685Y-45004223D01*
X102251896Y-45235616D01*
X102253845Y-45247927D01*
X102308030Y-45473621D01*
X102311878Y-45485464D01*
X102400707Y-45699914D01*
X102406357Y-45711003D01*
X102515359Y-45888880D01*
X102526969Y-45900350D01*
X102528685Y-45900025D01*
X102535490Y-45895297D01*
X103419139Y-45011648D01*
X103427201Y-44998312D01*
X104156418Y-44998312D01*
X104160422Y-45007209D01*
X105044903Y-45891690D01*
X105058869Y-45900133D01*
X105060460Y-45899417D01*
X105065977Y-45893227D01*
X105177643Y-45711003D01*
X105183293Y-45699914D01*
X105272122Y-45485464D01*
X105275970Y-45473621D01*
X105330155Y-45247927D01*
X105332104Y-45235616D01*
X105337757Y-45163786D01*
X153495168Y-45163786D01*
X153507722Y-45425153D01*
X153558771Y-45681793D01*
X153647193Y-45928068D01*
X153771046Y-46158569D01*
X153927608Y-46368231D01*
X153931794Y-46372380D01*
X153931796Y-46372383D01*
X154109256Y-46548302D01*
X154109261Y-46548306D01*
X154113440Y-46552449D01*
X154225281Y-46634454D01*
X154319702Y-46703686D01*
X154319706Y-46703688D01*
X154324461Y-46707175D01*
X154329677Y-46709919D01*
X154329683Y-46709923D01*
X154550814Y-46826266D01*
X154550818Y-46826268D01*
X154556034Y-46829012D01*
X154803071Y-46915281D01*
X155060147Y-46964089D01*
X155066049Y-46964321D01*
X155066050Y-46964321D01*
X155108600Y-46965993D01*
X155321613Y-46974362D01*
X155581725Y-46945875D01*
X155587425Y-46944374D01*
X155587432Y-46944373D01*
X155829066Y-46880755D01*
X155829069Y-46880754D01*
X155834770Y-46879253D01*
X156075188Y-46775962D01*
X156080203Y-46772858D01*
X156080208Y-46772856D01*
X156205981Y-46695025D01*
X156297698Y-46638269D01*
X156302201Y-46634457D01*
X156302205Y-46634454D01*
X156492912Y-46473008D01*
X156492914Y-46473006D01*
X156497411Y-46469199D01*
X156669941Y-46272467D01*
X156674830Y-46264866D01*
X179889864Y-46264866D01*
X179890580Y-46266457D01*
X179896770Y-46271974D01*
X180078994Y-46383640D01*
X180090083Y-46389290D01*
X180304533Y-46478119D01*
X180316376Y-46481967D01*
X180542070Y-46536152D01*
X180554381Y-46538101D01*
X180785774Y-46556312D01*
X180798226Y-46556312D01*
X181029619Y-46538101D01*
X181041930Y-46536152D01*
X181267624Y-46481967D01*
X181279467Y-46478119D01*
X181493917Y-46389290D01*
X181505006Y-46383640D01*
X181682883Y-46274638D01*
X181694353Y-46263028D01*
X181694028Y-46261312D01*
X181689300Y-46254507D01*
X180805651Y-45370858D01*
X180791685Y-45362415D01*
X180782788Y-45366419D01*
X179898307Y-46250900D01*
X179889864Y-46264866D01*
X156674830Y-46264866D01*
X156811496Y-46052394D01*
X156918968Y-45813815D01*
X156989995Y-45561972D01*
X157023018Y-45302396D01*
X157025437Y-45210000D01*
X157006045Y-44949052D01*
X156995723Y-44903435D01*
X156949600Y-44699597D01*
X156949598Y-44699592D01*
X156948296Y-44693836D01*
X156853457Y-44449960D01*
X156829766Y-44408508D01*
X156726545Y-44227908D01*
X156726544Y-44227907D01*
X156723614Y-44222780D01*
X156629003Y-44102767D01*
X156565272Y-44021924D01*
X156565270Y-44021922D01*
X156561617Y-44017288D01*
X156404975Y-43869934D01*
X156382757Y-43849033D01*
X160403685Y-43849033D01*
X160404736Y-43858553D01*
X160404736Y-43858556D01*
X160416598Y-43965995D01*
X160421228Y-44007933D01*
X160476168Y-44158063D01*
X160481511Y-44166015D01*
X160481512Y-44166016D01*
X160537969Y-44250032D01*
X160565333Y-44290754D01*
X160683575Y-44398346D01*
X160691991Y-44402915D01*
X160691993Y-44402917D01*
X160815645Y-44470055D01*
X160815647Y-44470056D01*
X160824068Y-44474628D01*
X160884844Y-44490572D01*
X160960920Y-44510530D01*
X160978702Y-44515195D01*
X160988281Y-44515345D01*
X160988285Y-44515346D01*
X161062405Y-44516510D01*
X161138548Y-44517706D01*
X161148853Y-44515346D01*
X161195829Y-44504587D01*
X161294380Y-44482016D01*
X161437200Y-44410185D01*
X161450257Y-44399033D01*
X165653685Y-44399033D01*
X165654736Y-44408553D01*
X165654736Y-44408556D01*
X165666770Y-44517555D01*
X165671228Y-44557933D01*
X165726168Y-44708063D01*
X165731511Y-44716015D01*
X165731512Y-44716016D01*
X165753050Y-44748067D01*
X165815333Y-44840754D01*
X165933575Y-44948346D01*
X165941991Y-44952915D01*
X165941993Y-44952917D01*
X166065645Y-45020055D01*
X166065647Y-45020056D01*
X166074068Y-45024628D01*
X166228702Y-45065195D01*
X166238281Y-45065345D01*
X166238285Y-45065346D01*
X166312405Y-45066510D01*
X166388548Y-45067706D01*
X166398853Y-45065346D01*
X166423828Y-45059626D01*
X166544380Y-45032016D01*
X166599640Y-45004223D01*
X179233685Y-45004223D01*
X179251896Y-45235616D01*
X179253845Y-45247927D01*
X179308030Y-45473621D01*
X179311878Y-45485464D01*
X179400707Y-45699914D01*
X179406357Y-45711003D01*
X179515359Y-45888880D01*
X179526969Y-45900350D01*
X179528685Y-45900025D01*
X179535490Y-45895297D01*
X180419139Y-45011648D01*
X180427201Y-44998312D01*
X181156418Y-44998312D01*
X181160422Y-45007209D01*
X182044903Y-45891690D01*
X182058869Y-45900133D01*
X182060460Y-45899417D01*
X182065977Y-45893227D01*
X182177643Y-45711003D01*
X182183293Y-45699914D01*
X182272122Y-45485464D01*
X182275970Y-45473621D01*
X182330155Y-45247927D01*
X182332104Y-45235616D01*
X182350315Y-45004223D01*
X182350315Y-44991771D01*
X182332104Y-44760378D01*
X182330155Y-44748067D01*
X182275970Y-44522373D01*
X182272122Y-44510530D01*
X182183293Y-44296080D01*
X182177643Y-44284991D01*
X182068641Y-44107114D01*
X182057031Y-44095644D01*
X182055315Y-44095969D01*
X182048510Y-44100697D01*
X181164861Y-44984346D01*
X181156418Y-44998312D01*
X180427201Y-44998312D01*
X180427582Y-44997682D01*
X180423578Y-44988785D01*
X179539097Y-44104304D01*
X179525131Y-44095861D01*
X179523540Y-44096577D01*
X179518023Y-44102767D01*
X179406357Y-44284991D01*
X179400707Y-44296080D01*
X179311878Y-44510530D01*
X179308030Y-44522373D01*
X179253845Y-44748067D01*
X179251896Y-44760378D01*
X179233685Y-44991771D01*
X179233685Y-45004223D01*
X166599640Y-45004223D01*
X166687200Y-44960185D01*
X166808763Y-44856360D01*
X166902052Y-44726535D01*
X166961680Y-44578206D01*
X166984205Y-44419934D01*
X166984351Y-44406000D01*
X166965145Y-44247292D01*
X166908636Y-44097746D01*
X166884024Y-44061934D01*
X166869659Y-44041033D01*
X177115685Y-44041033D01*
X177116736Y-44050553D01*
X177116736Y-44050556D01*
X177127612Y-44149064D01*
X177133228Y-44199933D01*
X177188168Y-44350063D01*
X177193511Y-44358015D01*
X177193512Y-44358016D01*
X177271873Y-44474628D01*
X177277333Y-44482754D01*
X177395575Y-44590346D01*
X177403991Y-44594915D01*
X177403993Y-44594917D01*
X177527645Y-44662055D01*
X177527647Y-44662056D01*
X177536068Y-44666628D01*
X177690702Y-44707195D01*
X177700281Y-44707345D01*
X177700285Y-44707346D01*
X177774405Y-44708510D01*
X177850548Y-44709706D01*
X177860853Y-44707346D01*
X177897014Y-44699064D01*
X178006380Y-44674016D01*
X178149200Y-44602185D01*
X178270763Y-44498360D01*
X178364052Y-44368535D01*
X178423680Y-44220206D01*
X178446205Y-44061934D01*
X178446351Y-44048000D01*
X178427145Y-43889292D01*
X178389370Y-43789325D01*
X178374022Y-43748706D01*
X178374021Y-43748704D01*
X178370636Y-43739746D01*
X178365976Y-43732966D01*
X179889647Y-43732966D01*
X179889972Y-43734682D01*
X179894700Y-43741487D01*
X180778349Y-44625136D01*
X180792315Y-44633579D01*
X180801212Y-44629575D01*
X181685693Y-43745094D01*
X181694136Y-43731128D01*
X181693420Y-43729537D01*
X181687230Y-43724020D01*
X181505006Y-43612354D01*
X181493917Y-43606704D01*
X181279467Y-43517875D01*
X181267624Y-43514027D01*
X181041930Y-43459842D01*
X181029619Y-43457893D01*
X180798226Y-43439682D01*
X180785774Y-43439682D01*
X180554381Y-43457893D01*
X180542070Y-43459842D01*
X180316376Y-43514027D01*
X180304533Y-43517875D01*
X180090083Y-43606704D01*
X180078994Y-43612354D01*
X179901117Y-43721356D01*
X179889647Y-43732966D01*
X178365976Y-43732966D01*
X178341459Y-43697292D01*
X178285514Y-43615891D01*
X178285513Y-43615890D01*
X178280087Y-43607995D01*
X178267175Y-43596491D01*
X178167880Y-43508022D01*
X178167876Y-43508019D01*
X178160725Y-43501648D01*
X178019440Y-43426841D01*
X177864391Y-43387895D01*
X177784458Y-43387476D01*
X177714107Y-43387108D01*
X177714106Y-43387108D01*
X177704526Y-43387058D01*
X177656131Y-43398677D01*
X177558397Y-43422140D01*
X177558393Y-43422141D01*
X177549077Y-43424378D01*
X177540562Y-43428773D01*
X177540559Y-43428774D01*
X177417299Y-43492394D01*
X177407017Y-43497701D01*
X177399798Y-43503999D01*
X177399796Y-43504000D01*
X177320568Y-43573115D01*
X177286548Y-43602793D01*
X177194624Y-43733588D01*
X177191142Y-43742520D01*
X177191141Y-43742521D01*
X177140032Y-43873608D01*
X177136552Y-43882534D01*
X177115685Y-44041033D01*
X166869659Y-44041033D01*
X166823514Y-43973891D01*
X166823513Y-43973890D01*
X166818087Y-43965995D01*
X166805175Y-43954491D01*
X166705880Y-43866022D01*
X166705876Y-43866019D01*
X166698725Y-43859648D01*
X166557440Y-43784841D01*
X166402391Y-43745895D01*
X166322459Y-43745477D01*
X166252107Y-43745108D01*
X166252106Y-43745108D01*
X166242526Y-43745058D01*
X166194131Y-43756677D01*
X166096397Y-43780140D01*
X166096393Y-43780141D01*
X166087077Y-43782378D01*
X166078562Y-43786773D01*
X166078559Y-43786774D01*
X165957936Y-43849033D01*
X165945017Y-43855701D01*
X165824548Y-43960793D01*
X165732624Y-44091588D01*
X165729142Y-44100520D01*
X165729141Y-44100521D01*
X165681474Y-44222780D01*
X165674552Y-44240534D01*
X165653685Y-44399033D01*
X161450257Y-44399033D01*
X161558763Y-44306360D01*
X161652052Y-44176535D01*
X161711680Y-44028206D01*
X161734205Y-43869934D01*
X161734351Y-43856000D01*
X161715145Y-43697292D01*
X161658636Y-43547746D01*
X161638107Y-43517875D01*
X161573514Y-43423891D01*
X161573513Y-43423890D01*
X161568087Y-43415995D01*
X161539168Y-43390229D01*
X161455880Y-43316022D01*
X161455876Y-43316019D01*
X161448725Y-43309648D01*
X161307440Y-43234841D01*
X161152391Y-43195895D01*
X161072459Y-43195477D01*
X161002107Y-43195108D01*
X161002106Y-43195108D01*
X160992526Y-43195058D01*
X160944131Y-43206677D01*
X160846397Y-43230140D01*
X160846393Y-43230141D01*
X160837077Y-43232378D01*
X160828562Y-43236773D01*
X160828559Y-43236774D01*
X160703530Y-43301307D01*
X160695017Y-43305701D01*
X160687798Y-43311999D01*
X160687796Y-43312000D01*
X160598121Y-43390229D01*
X160574548Y-43410793D01*
X160482624Y-43541588D01*
X160479142Y-43550520D01*
X160479141Y-43550521D01*
X160455033Y-43612354D01*
X160424552Y-43690534D01*
X160403685Y-43849033D01*
X156382757Y-43849033D01*
X156375324Y-43842041D01*
X156375323Y-43842040D01*
X156371026Y-43837998D01*
X156156027Y-43688848D01*
X155981525Y-43602793D01*
X155926631Y-43575722D01*
X155926628Y-43575721D01*
X155921344Y-43573115D01*
X155915732Y-43571318D01*
X155915728Y-43571317D01*
X155677747Y-43495139D01*
X155677746Y-43495139D01*
X155672133Y-43493342D01*
X155619628Y-43484791D01*
X155419697Y-43452230D01*
X155419693Y-43452230D01*
X155413868Y-43451281D01*
X155283046Y-43449569D01*
X155158129Y-43447933D01*
X155158125Y-43447933D01*
X155152223Y-43447856D01*
X155078472Y-43457893D01*
X154898785Y-43482347D01*
X154898782Y-43482348D01*
X154892945Y-43483142D01*
X154887292Y-43484790D01*
X154887286Y-43484791D01*
X154821384Y-43504000D01*
X154641731Y-43556364D01*
X154636383Y-43558830D01*
X154636379Y-43558831D01*
X154409458Y-43663443D01*
X154409453Y-43663446D01*
X154404099Y-43665914D01*
X154399166Y-43669148D01*
X154399161Y-43669151D01*
X154219757Y-43786774D01*
X154185270Y-43809385D01*
X154180867Y-43813314D01*
X154180868Y-43813314D01*
X154009803Y-43965995D01*
X153990051Y-43983624D01*
X153986281Y-43988157D01*
X153986278Y-43988160D01*
X153940816Y-44042823D01*
X153822730Y-44184806D01*
X153819670Y-44189848D01*
X153819669Y-44189850D01*
X153807007Y-44210717D01*
X153686984Y-44408508D01*
X153684704Y-44413944D01*
X153684704Y-44413945D01*
X153671751Y-44444835D01*
X153585794Y-44649819D01*
X153521384Y-44903435D01*
X153495168Y-45163786D01*
X105337757Y-45163786D01*
X105350315Y-45004223D01*
X105350315Y-44991771D01*
X105332104Y-44760378D01*
X105330155Y-44748067D01*
X105275970Y-44522373D01*
X105272122Y-44510530D01*
X105183293Y-44296080D01*
X105177643Y-44284991D01*
X105068641Y-44107114D01*
X105057031Y-44095644D01*
X105055315Y-44095969D01*
X105048510Y-44100697D01*
X104164861Y-44984346D01*
X104156418Y-44998312D01*
X103427201Y-44998312D01*
X103427582Y-44997682D01*
X103423578Y-44988785D01*
X102539097Y-44104304D01*
X102525131Y-44095861D01*
X102523540Y-44096577D01*
X102518023Y-44102767D01*
X102406357Y-44284991D01*
X102400707Y-44296080D01*
X102311878Y-44510530D01*
X102308030Y-44522373D01*
X102253845Y-44748067D01*
X102251896Y-44760378D01*
X102233685Y-44991771D01*
X102233685Y-45004223D01*
X101674500Y-45004223D01*
X101674500Y-43732966D01*
X102889647Y-43732966D01*
X102889972Y-43734682D01*
X102894700Y-43741487D01*
X103778349Y-44625136D01*
X103792315Y-44633579D01*
X103801212Y-44629575D01*
X104685693Y-43745094D01*
X104694136Y-43731128D01*
X104693420Y-43729537D01*
X104687230Y-43724020D01*
X104505006Y-43612354D01*
X104493917Y-43606704D01*
X104279467Y-43517875D01*
X104267624Y-43514027D01*
X104041930Y-43459842D01*
X104029619Y-43457893D01*
X103798226Y-43439682D01*
X103785774Y-43439682D01*
X103554381Y-43457893D01*
X103542070Y-43459842D01*
X103316376Y-43514027D01*
X103304533Y-43517875D01*
X103090083Y-43606704D01*
X103078994Y-43612354D01*
X102901117Y-43721356D01*
X102889647Y-43732966D01*
X101674500Y-43732966D01*
X101674500Y-41881033D01*
X110837685Y-41881033D01*
X110838736Y-41890553D01*
X110838736Y-41890556D01*
X110849088Y-41984320D01*
X110855228Y-42039933D01*
X110910168Y-42190063D01*
X110915511Y-42198015D01*
X110915512Y-42198016D01*
X110973397Y-42284157D01*
X110999333Y-42322754D01*
X111117575Y-42430346D01*
X111125991Y-42434915D01*
X111125993Y-42434917D01*
X111249645Y-42502055D01*
X111249647Y-42502056D01*
X111258068Y-42506628D01*
X111412702Y-42547195D01*
X111422281Y-42547345D01*
X111422285Y-42547346D01*
X111496405Y-42548510D01*
X111572548Y-42549706D01*
X111582853Y-42547346D01*
X111607828Y-42541626D01*
X111728380Y-42514016D01*
X111871200Y-42442185D01*
X111992763Y-42338360D01*
X112086052Y-42208535D01*
X112145680Y-42060206D01*
X112168205Y-41901934D01*
X112168351Y-41888000D01*
X112149145Y-41729292D01*
X112093122Y-41581033D01*
X117187685Y-41581033D01*
X117188736Y-41590553D01*
X117188736Y-41590556D01*
X117196244Y-41658556D01*
X117205228Y-41739933D01*
X117260168Y-41890063D01*
X117265511Y-41898015D01*
X117265512Y-41898016D01*
X117272581Y-41908535D01*
X117349333Y-42022754D01*
X117467575Y-42130346D01*
X117475991Y-42134915D01*
X117475993Y-42134917D01*
X117599645Y-42202055D01*
X117599647Y-42202056D01*
X117608068Y-42206628D01*
X117762702Y-42247195D01*
X117772281Y-42247345D01*
X117772285Y-42247346D01*
X117846405Y-42248510D01*
X117922548Y-42249706D01*
X117932853Y-42247346D01*
X117957828Y-42241626D01*
X118078380Y-42214016D01*
X118221200Y-42142185D01*
X118342763Y-42038360D01*
X118436052Y-41908535D01*
X118495680Y-41760206D01*
X118511502Y-41649033D01*
X179928685Y-41649033D01*
X179929736Y-41658553D01*
X179929736Y-41658556D01*
X179945176Y-41798405D01*
X179946228Y-41807933D01*
X180001168Y-41958063D01*
X180006511Y-41966015D01*
X180006512Y-41966016D01*
X180069806Y-42060206D01*
X180090333Y-42090754D01*
X180208575Y-42198346D01*
X180216991Y-42202915D01*
X180216993Y-42202917D01*
X180340645Y-42270055D01*
X180340647Y-42270056D01*
X180349068Y-42274628D01*
X180503702Y-42315195D01*
X180513281Y-42315345D01*
X180513285Y-42315346D01*
X180587405Y-42316510D01*
X180663548Y-42317706D01*
X180673853Y-42315346D01*
X180698828Y-42309626D01*
X180819380Y-42282016D01*
X180962200Y-42210185D01*
X181022981Y-42158273D01*
X181076470Y-42112589D01*
X181076471Y-42112588D01*
X181083763Y-42106360D01*
X181177052Y-41976535D01*
X181236680Y-41828206D01*
X181259205Y-41669934D01*
X181259351Y-41656000D01*
X181240145Y-41497292D01*
X181183636Y-41347746D01*
X181176733Y-41337701D01*
X181098514Y-41223891D01*
X181098513Y-41223890D01*
X181093087Y-41215995D01*
X181080175Y-41204491D01*
X180980880Y-41116022D01*
X180980876Y-41116019D01*
X180973725Y-41109648D01*
X180832440Y-41034841D01*
X180677391Y-40995895D01*
X180597459Y-40995477D01*
X180527107Y-40995108D01*
X180527106Y-40995108D01*
X180517526Y-40995058D01*
X180469131Y-41006677D01*
X180371397Y-41030140D01*
X180371393Y-41030141D01*
X180362077Y-41032378D01*
X180353562Y-41036773D01*
X180353559Y-41036774D01*
X180331767Y-41048022D01*
X180220017Y-41105701D01*
X180212798Y-41111999D01*
X180212796Y-41112000D01*
X180168508Y-41150635D01*
X180099548Y-41210793D01*
X180007624Y-41341588D01*
X180004142Y-41350520D01*
X180004141Y-41350521D01*
X179966137Y-41447995D01*
X179949552Y-41490534D01*
X179928685Y-41649033D01*
X118511502Y-41649033D01*
X118518205Y-41601934D01*
X118518351Y-41588000D01*
X118499145Y-41429292D01*
X118442636Y-41279746D01*
X118436849Y-41271325D01*
X118357514Y-41155891D01*
X118357513Y-41155890D01*
X118352087Y-41147995D01*
X118304617Y-41105701D01*
X118239880Y-41048022D01*
X118239876Y-41048019D01*
X118232725Y-41041648D01*
X118091440Y-40966841D01*
X117936391Y-40927895D01*
X117856459Y-40927477D01*
X117786107Y-40927108D01*
X117786106Y-40927108D01*
X117776526Y-40927058D01*
X117728131Y-40938677D01*
X117630397Y-40962140D01*
X117630393Y-40962141D01*
X117621077Y-40964378D01*
X117612562Y-40968773D01*
X117612559Y-40968774D01*
X117555492Y-40998229D01*
X117479017Y-41037701D01*
X117471798Y-41043999D01*
X117471796Y-41044000D01*
X117389236Y-41116022D01*
X117358548Y-41142793D01*
X117266624Y-41273588D01*
X117263142Y-41282520D01*
X117263141Y-41282521D01*
X117240112Y-41341588D01*
X117208552Y-41422534D01*
X117187685Y-41581033D01*
X112093122Y-41581033D01*
X112092636Y-41579746D01*
X112025189Y-41481608D01*
X112007514Y-41455891D01*
X112007513Y-41455890D01*
X112002087Y-41447995D01*
X111989175Y-41436491D01*
X111889880Y-41348022D01*
X111889876Y-41348019D01*
X111882725Y-41341648D01*
X111741440Y-41266841D01*
X111586391Y-41227895D01*
X111506459Y-41227477D01*
X111436107Y-41227108D01*
X111436106Y-41227108D01*
X111426526Y-41227058D01*
X111378131Y-41238677D01*
X111280397Y-41262140D01*
X111280393Y-41262141D01*
X111271077Y-41264378D01*
X111262562Y-41268773D01*
X111262559Y-41268774D01*
X111137530Y-41333307D01*
X111129017Y-41337701D01*
X111121798Y-41343999D01*
X111121796Y-41344000D01*
X111015772Y-41436491D01*
X111008548Y-41442793D01*
X110916624Y-41573588D01*
X110913142Y-41582520D01*
X110913141Y-41582521D01*
X110887209Y-41649033D01*
X110858552Y-41722534D01*
X110837685Y-41881033D01*
X101674500Y-41881033D01*
X101674500Y-40224033D01*
X158978685Y-40224033D01*
X158979736Y-40233553D01*
X158979736Y-40233556D01*
X158981561Y-40250083D01*
X158996228Y-40382933D01*
X159051168Y-40533063D01*
X159056511Y-40541015D01*
X159056512Y-40541016D01*
X159063581Y-40551535D01*
X159140333Y-40665754D01*
X159258575Y-40773346D01*
X159266991Y-40777915D01*
X159266993Y-40777917D01*
X159390645Y-40845055D01*
X159390647Y-40845056D01*
X159399068Y-40849628D01*
X159553702Y-40890195D01*
X159563281Y-40890345D01*
X159563285Y-40890346D01*
X159637405Y-40891510D01*
X159713548Y-40892706D01*
X159723853Y-40890346D01*
X159748828Y-40884626D01*
X159869380Y-40857016D01*
X160012200Y-40785185D01*
X160133763Y-40681360D01*
X160227052Y-40551535D01*
X160286680Y-40403206D01*
X160309205Y-40244934D01*
X160309351Y-40231000D01*
X160290145Y-40072292D01*
X160252326Y-39972208D01*
X160237022Y-39931706D01*
X160237021Y-39931704D01*
X160233636Y-39922746D01*
X160172000Y-39833063D01*
X160148514Y-39798891D01*
X160148513Y-39798890D01*
X160143087Y-39790995D01*
X160130175Y-39779491D01*
X160030880Y-39691022D01*
X160030876Y-39691019D01*
X160023725Y-39684648D01*
X159882440Y-39609841D01*
X159727391Y-39570895D01*
X159647459Y-39570477D01*
X159577107Y-39570108D01*
X159577106Y-39570108D01*
X159567526Y-39570058D01*
X159533587Y-39578206D01*
X159421397Y-39605140D01*
X159421393Y-39605141D01*
X159412077Y-39607378D01*
X159403562Y-39611773D01*
X159403559Y-39611774D01*
X159278530Y-39676307D01*
X159270017Y-39680701D01*
X159262798Y-39686999D01*
X159262796Y-39687000D01*
X159208552Y-39734320D01*
X159149548Y-39785793D01*
X159057624Y-39916588D01*
X159054142Y-39925520D01*
X159054141Y-39925521D01*
X159035407Y-39973572D01*
X158999552Y-40065534D01*
X158978685Y-40224033D01*
X101674500Y-40224033D01*
X101674500Y-39524033D01*
X168728685Y-39524033D01*
X168729736Y-39533553D01*
X168729736Y-39533556D01*
X168737901Y-39607507D01*
X168746228Y-39682933D01*
X168801168Y-39833063D01*
X168806511Y-39841015D01*
X168806512Y-39841016D01*
X168881707Y-39952917D01*
X168890333Y-39965754D01*
X169008575Y-40073346D01*
X169016991Y-40077915D01*
X169016993Y-40077917D01*
X169140645Y-40145055D01*
X169140647Y-40145056D01*
X169149068Y-40149628D01*
X169303702Y-40190195D01*
X169313281Y-40190345D01*
X169313285Y-40190346D01*
X169387405Y-40191510D01*
X169463548Y-40192706D01*
X169473853Y-40190346D01*
X169498828Y-40184626D01*
X169619380Y-40157016D01*
X169762200Y-40085185D01*
X169883763Y-39981360D01*
X169977052Y-39851535D01*
X170036680Y-39703206D01*
X170059205Y-39544934D01*
X170059351Y-39531000D01*
X170043381Y-39399033D01*
X173616185Y-39399033D01*
X173617236Y-39408553D01*
X173617236Y-39408556D01*
X173631037Y-39533556D01*
X173633728Y-39557933D01*
X173688668Y-39708063D01*
X173694011Y-39716015D01*
X173694012Y-39716016D01*
X173766618Y-39824064D01*
X173777833Y-39840754D01*
X173896075Y-39948346D01*
X173904491Y-39952915D01*
X173904493Y-39952917D01*
X174028145Y-40020055D01*
X174028147Y-40020056D01*
X174036568Y-40024628D01*
X174191202Y-40065195D01*
X174200781Y-40065345D01*
X174200785Y-40065346D01*
X174274905Y-40066510D01*
X174351048Y-40067706D01*
X174361353Y-40065346D01*
X174399505Y-40056608D01*
X174506880Y-40032016D01*
X174649700Y-39960185D01*
X174771263Y-39856360D01*
X174864552Y-39726535D01*
X174924180Y-39578206D01*
X174946705Y-39419934D01*
X174946851Y-39406000D01*
X174927645Y-39247292D01*
X174871136Y-39097746D01*
X174797788Y-38991022D01*
X174786014Y-38973891D01*
X174786013Y-38973890D01*
X174780587Y-38965995D01*
X174722594Y-38914325D01*
X174668380Y-38866022D01*
X174668376Y-38866019D01*
X174661225Y-38859648D01*
X174519940Y-38784841D01*
X174364891Y-38745895D01*
X174284959Y-38745477D01*
X174214607Y-38745108D01*
X174214606Y-38745108D01*
X174205026Y-38745058D01*
X174156631Y-38756677D01*
X174058897Y-38780140D01*
X174058893Y-38780141D01*
X174049577Y-38782378D01*
X174041062Y-38786773D01*
X174041059Y-38786774D01*
X173916030Y-38851307D01*
X173907517Y-38855701D01*
X173900298Y-38861999D01*
X173900296Y-38862000D01*
X173848131Y-38907507D01*
X173787048Y-38960793D01*
X173695124Y-39091588D01*
X173637052Y-39240534D01*
X173616185Y-39399033D01*
X170043381Y-39399033D01*
X170040145Y-39372292D01*
X169983636Y-39222746D01*
X169893087Y-39090995D01*
X169880175Y-39079491D01*
X169780880Y-38991022D01*
X169780876Y-38991019D01*
X169773725Y-38984648D01*
X169632440Y-38909841D01*
X169477391Y-38870895D01*
X169397459Y-38870477D01*
X169327107Y-38870108D01*
X169327106Y-38870108D01*
X169317526Y-38870058D01*
X169269131Y-38881677D01*
X169171397Y-38905140D01*
X169171393Y-38905141D01*
X169162077Y-38907378D01*
X169153562Y-38911773D01*
X169153559Y-38911774D01*
X169048509Y-38965995D01*
X169020017Y-38980701D01*
X168899548Y-39085793D01*
X168807624Y-39216588D01*
X168749552Y-39365534D01*
X168728685Y-39524033D01*
X101674500Y-39524033D01*
X101674500Y-38539497D01*
X101692712Y-38465606D01*
X101743178Y-38408643D01*
X101814335Y-38381656D01*
X101833500Y-38380497D01*
X182750500Y-38380497D01*
X182824391Y-38398709D01*
G37*
%TD.AperFunction*%
M02*
