M48
; DRILL file {KiCad (6.0.5)} date Mon Jan 23 16:51:17 2023
; FORMAT={-:-/ absolute / metric / decimal}
; #@! TF.CreationDate,2023-01-23T16:51:17-08:00
; #@! TF.GenerationSoftware,Kicad,Pcbnew,(6.0.5)
; #@! TF.FileFunction,Plated,1,6,PTH
FMAT,2
METRIC
; #@! TA.AperFunction,Plated,PTH,ViaDrill
T1C0.400
; #@! TA.AperFunction,Plated,PTH,ComponentDrill
T2C1.000
; #@! TA.AperFunction,Plated,PTH,ComponentDrill
T3C1.300
; #@! TA.AperFunction,Plated,PTH,ComponentDrill
T4C2.000
; #@! TA.AperFunction,Plated,PTH,ComponentDrill
T5C2.200
%
G90
G05
T1
X108.228Y-51.588
X108.257Y-46.914
X111.503Y-41.888
X112.153Y-50.313
X112.257Y-46.03
X114.973Y-52.595
X114.974Y-45.992
X116.278Y-54.788
X117.003Y-56.263
X117.457Y-46.02
X117.853Y-41.588
X118.364Y-78.74
X118.878Y-58.663
X119.831Y-118.053
X120.028Y-61.288
X122.678Y-61.488
X157.988Y-107.696
X159.644Y-40.231
X160.02Y-103.886
X160.02Y-105.41
X160.02Y-106.934
X161.069Y-43.856
X161.29Y-104.648
X161.29Y-106.172
X163.576Y-87.122
X164.376Y-51.092
X166.319Y-44.406
X166.856Y-57.473
X168.578Y-55.634
X169.144Y-43.156
X169.394Y-39.531
X169.881Y-47.698
X171.046Y-57.558
X171.436Y-52.528
X173.981Y-52.973
X174.281Y-39.406
X174.481Y-55.123
X174.481Y-57.973
X174.506Y-51.548
X176.731Y-53.873
X177.036Y-50.028
X177.781Y-44.048
X177.926Y-53.698
X178.081Y-48.048
X179.506Y-48.673
X179.778Y-50.22
X179.781Y-58.073
X180.594Y-41.656
X181.431Y-50.973
T2
X103.886Y-49.784
X103.886Y-52.324
X103.886Y-54.864
X103.886Y-57.404
X103.886Y-59.944
X103.886Y-62.484
T3
X126.238Y-123.444
X133.858Y-123.444
T4
X108.022Y-95.752
X108.022Y-105.058
X117.022Y-95.752
X117.022Y-105.058
X129.24Y-130.374
X129.24Y-139.374
X155.26Y-45.21
X155.26Y-54.21
X167.458Y-95.758
X167.458Y-105.066
X176.458Y-95.758
X176.458Y-105.066
T5
X103.792Y-44.998
X103.792Y-138.998
X180.792Y-44.998
X180.792Y-138.998
T0
M30
