%TF.GenerationSoftware,KiCad,Pcbnew,(6.0.5)*%
%TF.CreationDate,2023-01-23T16:51:02-08:00*%
%TF.ProjectId,X_Y_Panels,585f595f-5061-46e6-956c-732e6b696361,rev?*%
%TF.SameCoordinates,Original*%
%TF.FileFunction,Paste,Top*%
%TF.FilePolarity,Positive*%
%FSLAX46Y46*%
G04 Gerber Fmt 4.6, Leading zero omitted, Abs format (unit mm)*
G04 Created by KiCad (PCBNEW (6.0.5)) date 2023-01-23 16:51:02*
%MOMM*%
%LPD*%
G01*
G04 APERTURE LIST*
G04 Aperture macros list*
%AMRoundRect*
0 Rectangle with rounded corners*
0 $1 Rounding radius*
0 $2 $3 $4 $5 $6 $7 $8 $9 X,Y pos of 4 corners*
0 Add a 4 corners polygon primitive as box body*
4,1,4,$2,$3,$4,$5,$6,$7,$8,$9,$2,$3,0*
0 Add four circle primitives for the rounded corners*
1,1,$1+$1,$2,$3*
1,1,$1+$1,$4,$5*
1,1,$1+$1,$6,$7*
1,1,$1+$1,$8,$9*
0 Add four rect primitives between the rounded corners*
20,1,$1+$1,$2,$3,$4,$5,0*
20,1,$1+$1,$4,$5,$6,$7,0*
20,1,$1+$1,$6,$7,$8,$9,0*
20,1,$1+$1,$8,$9,$2,$3,0*%
G04 Aperture macros list end*
%ADD10C,0.010000*%
%ADD11RoundRect,0.200000X-0.200000X-0.275000X0.200000X-0.275000X0.200000X0.275000X-0.200000X0.275000X0*%
%ADD12RoundRect,0.200000X0.200000X0.275000X-0.200000X0.275000X-0.200000X-0.275000X0.200000X-0.275000X0*%
%ADD13RoundRect,0.200000X0.275000X-0.200000X0.275000X0.200000X-0.275000X0.200000X-0.275000X-0.200000X0*%
%ADD14RoundRect,0.225000X0.250000X-0.225000X0.250000X0.225000X-0.250000X0.225000X-0.250000X-0.225000X0*%
%ADD15R,0.740000X0.270000*%
%ADD16RoundRect,0.200000X-0.275000X0.200000X-0.275000X-0.200000X0.275000X-0.200000X0.275000X0.200000X0*%
%ADD17RoundRect,0.250000X0.325000X0.650000X-0.325000X0.650000X-0.325000X-0.650000X0.325000X-0.650000X0*%
%ADD18RoundRect,0.250000X-0.325000X-0.650000X0.325000X-0.650000X0.325000X0.650000X-0.325000X0.650000X0*%
%ADD19R,0.600000X0.400000*%
%ADD20RoundRect,0.242500X0.402500X-0.242500X0.402500X0.242500X-0.402500X0.242500X-0.402500X-0.242500X0*%
%ADD21RoundRect,0.150000X0.150000X-0.650000X0.150000X0.650000X-0.150000X0.650000X-0.150000X-0.650000X0*%
%ADD22R,1.700000X2.500000*%
%ADD23RoundRect,0.225000X-0.225000X-0.250000X0.225000X-0.250000X0.225000X0.250000X-0.225000X0.250000X0*%
%ADD24R,1.570000X1.880000*%
%ADD25R,0.650000X0.400000*%
%ADD26R,0.400000X0.650000*%
%ADD27R,0.400000X0.600000*%
G04 APERTURE END LIST*
G36*
X171074000Y-54794000D02*
G01*
X170654000Y-54794000D01*
X170654000Y-53934000D01*
X171074000Y-53934000D01*
X171074000Y-54794000D01*
G37*
D10*
X171074000Y-54794000D02*
X170654000Y-54794000D01*
X170654000Y-53934000D01*
X171074000Y-53934000D01*
X171074000Y-54794000D01*
G36*
X113648000Y-52720000D02*
G01*
X112098000Y-52720000D01*
X112098000Y-52470000D01*
X113648000Y-52470000D01*
X113648000Y-52720000D01*
G37*
X113648000Y-52720000D02*
X112098000Y-52720000D01*
X112098000Y-52470000D01*
X113648000Y-52470000D01*
X113648000Y-52720000D01*
G36*
X117848000Y-52220000D02*
G01*
X116298000Y-52220000D01*
X116298000Y-51970000D01*
X117848000Y-51970000D01*
X117848000Y-52220000D01*
G37*
X117848000Y-52220000D02*
X116298000Y-52220000D01*
X116298000Y-51970000D01*
X117848000Y-51970000D01*
X117848000Y-52220000D01*
G36*
X117848000Y-51720000D02*
G01*
X116298000Y-51720000D01*
X116298000Y-51470000D01*
X117848000Y-51470000D01*
X117848000Y-51720000D01*
G37*
X117848000Y-51720000D02*
X116298000Y-51720000D01*
X116298000Y-51470000D01*
X117848000Y-51470000D01*
X117848000Y-51720000D01*
G36*
X113648000Y-53220000D02*
G01*
X112098000Y-53220000D01*
X112098000Y-52970000D01*
X113648000Y-52970000D01*
X113648000Y-53220000D01*
G37*
X113648000Y-53220000D02*
X112098000Y-53220000D01*
X112098000Y-52970000D01*
X113648000Y-52970000D01*
X113648000Y-53220000D01*
G36*
X117848000Y-53720000D02*
G01*
X116298000Y-53720000D01*
X116298000Y-53470000D01*
X117848000Y-53470000D01*
X117848000Y-53720000D01*
G37*
X117848000Y-53720000D02*
X116298000Y-53720000D01*
X116298000Y-53470000D01*
X117848000Y-53470000D01*
X117848000Y-53720000D01*
G36*
X117848000Y-53220000D02*
G01*
X116298000Y-53220000D01*
X116298000Y-52970000D01*
X117848000Y-52970000D01*
X117848000Y-53220000D01*
G37*
X117848000Y-53220000D02*
X116298000Y-53220000D01*
X116298000Y-52970000D01*
X117848000Y-52970000D01*
X117848000Y-53220000D01*
G36*
X117848000Y-52720000D02*
G01*
X116298000Y-52720000D01*
X116298000Y-52470000D01*
X117848000Y-52470000D01*
X117848000Y-52720000D01*
G37*
X117848000Y-52720000D02*
X116298000Y-52720000D01*
X116298000Y-52470000D01*
X117848000Y-52470000D01*
X117848000Y-52720000D01*
G36*
X113648000Y-51720000D02*
G01*
X112098000Y-51720000D01*
X112098000Y-51470000D01*
X113648000Y-51470000D01*
X113648000Y-51720000D01*
G37*
X113648000Y-51720000D02*
X112098000Y-51720000D01*
X112098000Y-51470000D01*
X113648000Y-51470000D01*
X113648000Y-51720000D01*
G36*
X113648000Y-52220000D02*
G01*
X112098000Y-52220000D01*
X112098000Y-51970000D01*
X113648000Y-51970000D01*
X113648000Y-52220000D01*
G37*
X113648000Y-52220000D02*
X112098000Y-52220000D01*
X112098000Y-51970000D01*
X113648000Y-51970000D01*
X113648000Y-52220000D01*
G36*
X113648000Y-53720000D02*
G01*
X112098000Y-53720000D01*
X112098000Y-53470000D01*
X113648000Y-53470000D01*
X113648000Y-53720000D01*
G37*
X113648000Y-53720000D02*
X112098000Y-53720000D01*
X112098000Y-53470000D01*
X113648000Y-53470000D01*
X113648000Y-53720000D01*
D11*
X174581000Y-46876000D03*
X176231000Y-46876000D03*
D12*
X165339000Y-56650000D03*
X163689000Y-56650000D03*
D13*
X109728000Y-44513000D03*
X109728000Y-42863000D03*
D14*
X169848000Y-51075000D03*
X169848000Y-49525000D03*
D15*
X169869000Y-53714000D03*
X169869000Y-54364000D03*
X169869000Y-55014000D03*
X171859000Y-55014000D03*
X171859000Y-54364000D03*
X171859000Y-53714000D03*
D16*
X178851000Y-40241000D03*
X178851000Y-41891000D03*
D17*
X121853000Y-43438000D03*
X118903000Y-43438000D03*
D18*
X118903000Y-48513000D03*
X121853000Y-48513000D03*
D19*
X177881000Y-52373000D03*
X177881000Y-51723000D03*
X177881000Y-51073000D03*
X175981000Y-51073000D03*
X175981000Y-51723000D03*
X175981000Y-52373000D03*
D12*
X176231000Y-45098000D03*
X174581000Y-45098000D03*
D13*
X162849000Y-41891000D03*
X162849000Y-40241000D03*
D20*
X115773000Y-45391000D03*
X114173000Y-45391000D03*
X115773000Y-46591000D03*
X114173000Y-46591000D03*
D21*
X113068000Y-48641000D03*
X114338000Y-48641000D03*
X115608000Y-48641000D03*
X116878000Y-48641000D03*
X116878000Y-43341000D03*
X115608000Y-43341000D03*
X114338000Y-43341000D03*
X113068000Y-43341000D03*
D13*
X177073000Y-41891000D03*
X177073000Y-40241000D03*
D22*
X157988000Y-93800000D03*
X157988000Y-97800000D03*
X126238000Y-78518000D03*
X126238000Y-82518000D03*
D13*
X109728000Y-47561000D03*
X109728000Y-45911000D03*
D23*
X179831000Y-56176000D03*
X181381000Y-56176000D03*
D24*
X114973000Y-52595000D03*
D18*
X118903000Y-45973000D03*
X121853000Y-45973000D03*
D22*
X126238000Y-86138000D03*
X126238000Y-90138000D03*
D11*
X163689000Y-53094000D03*
X165339000Y-53094000D03*
X179778000Y-52617000D03*
X181428000Y-52617000D03*
D14*
X164627000Y-41841000D03*
X164627000Y-40291000D03*
D16*
X109728000Y-49213000D03*
X109728000Y-50863000D03*
D22*
X126214000Y-93800000D03*
X126214000Y-97800000D03*
D12*
X177756000Y-58073000D03*
X176106000Y-58073000D03*
D16*
X120503000Y-54363000D03*
X120503000Y-56013000D03*
D25*
X177881000Y-56183000D03*
X177881000Y-55533000D03*
X177881000Y-54883000D03*
X175981000Y-54883000D03*
X175981000Y-55533000D03*
X175981000Y-56183000D03*
D16*
X109728000Y-52261000D03*
X109728000Y-53911000D03*
D11*
X179781000Y-54398000D03*
X181431000Y-54398000D03*
D26*
X171394000Y-40531000D03*
X170744000Y-40531000D03*
X170094000Y-40531000D03*
X170094000Y-42431000D03*
X170744000Y-42431000D03*
X171394000Y-42431000D03*
D27*
X166517000Y-42281000D03*
X167167000Y-42281000D03*
X167817000Y-42281000D03*
X167817000Y-40381000D03*
X167167000Y-40381000D03*
X166517000Y-40381000D03*
D12*
X176231000Y-48654000D03*
X174581000Y-48654000D03*
D13*
X173263000Y-41891000D03*
X173263000Y-40241000D03*
D12*
X165339000Y-58428000D03*
X163689000Y-58428000D03*
D13*
X161069000Y-41881000D03*
X161069000Y-40231000D03*
D22*
X157988000Y-101140000D03*
X157988000Y-105140000D03*
X126194000Y-101140000D03*
X126194000Y-105140000D03*
D11*
X163689000Y-54872000D03*
X165339000Y-54872000D03*
D16*
X175295000Y-40241000D03*
X175295000Y-41891000D03*
X122303000Y-54363000D03*
X122303000Y-56013000D03*
D22*
X157988000Y-86138000D03*
X157988000Y-90138000D03*
M02*
