%TF.GenerationSoftware,KiCad,Pcbnew,(6.0.5)*%
%TF.CreationDate,2022-08-19T15:48:38-07:00*%
%TF.ProjectId,Coil_Panels_XY,436f696c-5f50-4616-9e65-6c735f58592e,rev?*%
%TF.SameCoordinates,Original*%
%TF.FileFunction,Soldermask,Bot*%
%TF.FilePolarity,Negative*%
%FSLAX46Y46*%
G04 Gerber Fmt 4.6, Leading zero omitted, Abs format (unit mm)*
G04 Created by KiCad (PCBNEW (6.0.5)) date 2022-08-19 15:48:38*
%MOMM*%
%LPD*%
G01*
G04 APERTURE LIST*
%ADD10C,0.010000*%
%ADD11C,2.600000*%
%ADD12C,3.800000*%
%ADD13R,1.700000X1.700000*%
%ADD14O,1.700000X1.700000*%
G04 APERTURE END LIST*
%TO.C,J2*%
G36*
X130001200Y-56026200D02*
G01*
X126948800Y-56026200D01*
X126948800Y-54523800D01*
X130001200Y-54523800D01*
X130001200Y-56026200D01*
G37*
D10*
X130001200Y-56026200D02*
X126948800Y-56026200D01*
X126948800Y-54523800D01*
X130001200Y-54523800D01*
X130001200Y-56026200D01*
G36*
X130001200Y-71816200D02*
G01*
X126948800Y-71816200D01*
X126948800Y-70313800D01*
X130001200Y-70313800D01*
X130001200Y-71816200D01*
G37*
X130001200Y-71816200D02*
X126948800Y-71816200D01*
X126948800Y-70313800D01*
X130001200Y-70313800D01*
X130001200Y-71816200D01*
G36*
X123301200Y-66796200D02*
G01*
X121698800Y-66796200D01*
X121698800Y-65543800D01*
X123301200Y-65543800D01*
X123301200Y-66796200D01*
G37*
X123301200Y-66796200D02*
X121698800Y-66796200D01*
X121698800Y-65543800D01*
X123301200Y-65543800D01*
X123301200Y-66796200D01*
G36*
X123301200Y-60796200D02*
G01*
X121698800Y-60796200D01*
X121698800Y-59543800D01*
X123301200Y-59543800D01*
X123301200Y-60796200D01*
G37*
X123301200Y-60796200D02*
X121698800Y-60796200D01*
X121698800Y-59543800D01*
X123301200Y-59543800D01*
X123301200Y-60796200D01*
G36*
X123301200Y-68796200D02*
G01*
X121698800Y-68796200D01*
X121698800Y-67543800D01*
X123301200Y-67543800D01*
X123301200Y-68796200D01*
G37*
X123301200Y-68796200D02*
X121698800Y-68796200D01*
X121698800Y-67543800D01*
X123301200Y-67543800D01*
X123301200Y-68796200D01*
G36*
X123301200Y-62796200D02*
G01*
X121698800Y-62796200D01*
X121698800Y-61543800D01*
X123301200Y-61543800D01*
X123301200Y-62796200D01*
G37*
X123301200Y-62796200D02*
X121698800Y-62796200D01*
X121698800Y-61543800D01*
X123301200Y-61543800D01*
X123301200Y-62796200D01*
G36*
X123301200Y-64796200D02*
G01*
X121698800Y-64796200D01*
X121698800Y-63543800D01*
X123301200Y-63543800D01*
X123301200Y-64796200D01*
G37*
X123301200Y-64796200D02*
X121698800Y-64796200D01*
X121698800Y-63543800D01*
X123301200Y-63543800D01*
X123301200Y-64796200D01*
G36*
X123301200Y-58796200D02*
G01*
X121698800Y-58796200D01*
X121698800Y-57543800D01*
X123301200Y-57543800D01*
X123301200Y-58796200D01*
G37*
X123301200Y-58796200D02*
X121698800Y-58796200D01*
X121698800Y-57543800D01*
X123301200Y-57543800D01*
X123301200Y-58796200D01*
%TD*%
D11*
%TO.C,H1*%
X111942000Y-49921999D03*
D12*
X111942000Y-49921999D03*
%TD*%
D13*
%TO.C,J1*%
X131942000Y-49921999D03*
D14*
X129402000Y-49921999D03*
X126862000Y-49921999D03*
X124322000Y-49921999D03*
X121782000Y-49921999D03*
X119242000Y-49921999D03*
%TD*%
D11*
%TO.C,H5*%
X150442000Y-143921999D03*
D12*
X150442000Y-143921999D03*
%TD*%
%TO.C,H4*%
X111942000Y-143921999D03*
D11*
X111942000Y-143921999D03*
%TD*%
%TO.C,TP1*%
X139986000Y-111092000D03*
X147606000Y-111092000D03*
%TD*%
%TO.C,H2*%
X150442000Y-49921999D03*
D12*
X150442000Y-49921999D03*
%TD*%
D11*
%TO.C,H3*%
X188942000Y-49921999D03*
D12*
X188942000Y-49921999D03*
%TD*%
D11*
%TO.C,H6*%
X188942000Y-143921999D03*
D12*
X188942000Y-143921999D03*
%TD*%
M02*
