M48
; DRILL file {KiCad (6.0.5)} date Fri Aug 19 15:48:42 2022
; FORMAT={-:-/ absolute / metric / decimal}
; #@! TF.CreationDate,2022-08-19T15:48:42-07:00
; #@! TF.GenerationSoftware,Kicad,Pcbnew,(6.0.5)
; #@! TF.FileFunction,Plated,1,6,PTH
FMAT,2
METRIC
; #@! TA.AperFunction,Plated,PTH,ViaDrill
T1C0.300
; #@! TA.AperFunction,Plated,PTH,ComponentDrill
T2C1.000
; #@! TA.AperFunction,Plated,PTH,ComponentDrill
T3C1.300
; #@! TA.AperFunction,Plated,PTH,ComponentDrill
T4C2.200
%
G90
G05
T1
X110.394Y-141.514
X123.736Y-141.856
X124.96Y-141.856
X126.184Y-141.856
X127.408Y-141.856
X137.91Y-113.092
X139.134Y-113.092
X140.358Y-113.092
X141.582Y-113.092
X142.806Y-113.092
T2
X119.242Y-49.922
X121.782Y-49.922
X124.322Y-49.922
X126.862Y-49.922
X129.402Y-49.922
X131.942Y-49.922
T3
X139.986Y-111.092
X147.606Y-111.092
T4
X111.942Y-49.922
X111.942Y-143.922
X150.442Y-49.922
X150.442Y-143.922
X188.942Y-49.922
X188.942Y-143.922
T0
M30
