%TF.GenerationSoftware,KiCad,Pcbnew,(6.0.5)*%
%TF.CreationDate,2022-08-19T15:48:38-07:00*%
%TF.ProjectId,Coil_Panels_XY,436f696c-5f50-4616-9e65-6c735f58592e,rev?*%
%TF.SameCoordinates,Original*%
%TF.FileFunction,Copper,L4,Inr*%
%TF.FilePolarity,Positive*%
%FSLAX46Y46*%
G04 Gerber Fmt 4.6, Leading zero omitted, Abs format (unit mm)*
G04 Created by KiCad (PCBNEW (6.0.5)) date 2022-08-19 15:48:38*
%MOMM*%
%LPD*%
G01*
G04 APERTURE LIST*
%TA.AperFunction,ComponentPad*%
%ADD10C,2.600000*%
%TD*%
%TA.AperFunction,ComponentPad*%
%ADD11R,1.700000X1.700000*%
%TD*%
%TA.AperFunction,ComponentPad*%
%ADD12O,1.700000X1.700000*%
%TD*%
%TA.AperFunction,ViaPad*%
%ADD13C,0.650000*%
%TD*%
%TA.AperFunction,Conductor*%
%ADD14C,0.306000*%
%TD*%
G04 APERTURE END LIST*
D10*
%TO.N,unconnected-(H1-Pad1)*%
%TO.C,H1*%
X111942000Y-49921999D03*
%TD*%
D11*
%TO.N,Net-(J1-Pad1)*%
%TO.C,J1*%
X131942000Y-49921999D03*
D12*
%TO.N,Net-(J1-Pad2)*%
X129402000Y-49921999D03*
%TO.N,Net-(J1-Pad3)*%
X126862000Y-49921999D03*
%TO.N,Net-(J1-Pad4)*%
X124322000Y-49921999D03*
%TO.N,Net-(J1-Pad5)*%
X121782000Y-49921999D03*
%TO.N,Net-(J1-Pad6)*%
X119242000Y-49921999D03*
%TD*%
D10*
%TO.N,unconnected-(H5-Pad1)*%
%TO.C,H5*%
X150442000Y-143921999D03*
%TD*%
%TO.N,unconnected-(H4-Pad1)*%
%TO.C,H4*%
X111942000Y-143921999D03*
%TD*%
%TO.N,Coil_OUT*%
%TO.C,TP1*%
X139986000Y-111092000D03*
X147606000Y-111092000D03*
%TD*%
%TO.N,unconnected-(H2-Pad1)*%
%TO.C,H2*%
X150442000Y-49921999D03*
%TD*%
%TO.N,unconnected-(H3-Pad1)*%
%TO.C,H3*%
X188942000Y-49921999D03*
%TD*%
%TO.N,unconnected-(H6-Pad1)*%
%TO.C,H6*%
X188942000Y-143921999D03*
%TD*%
D13*
%TO.N,Coil_OUT*%
X126184000Y-141856000D03*
X127408000Y-141856000D03*
X123736000Y-141856000D03*
X140358000Y-113092000D03*
X124960000Y-141856000D03*
X137910000Y-113092000D03*
X139134000Y-113092000D03*
X142806000Y-113092000D03*
X110394000Y-141513999D03*
X141582000Y-113092000D03*
%TD*%
D14*
%TO.N,Coil_OUT*%
X176518000Y-67401999D02*
X176518000Y-125638000D01*
X114042000Y-56998000D02*
X114654000Y-56386000D01*
X126282000Y-125638000D02*
X125670000Y-125026000D01*
X178966000Y-129310000D02*
X122610000Y-129310000D01*
X183250000Y-133593999D02*
X118326000Y-133593999D01*
X136073999Y-77806000D02*
X164890000Y-77806000D01*
X182025999Y-61894000D02*
X182025999Y-131145999D01*
X115878000Y-136041999D02*
X115266000Y-135429999D01*
X188758000Y-137878000D02*
X188146000Y-138490000D01*
X123222000Y-128698000D02*
X122610000Y-128086000D01*
X132402000Y-75358000D02*
X132402000Y-118294000D01*
X177742000Y-126862000D02*
X177130000Y-127474000D01*
X118938000Y-61894000D02*
X118938000Y-131757999D01*
X172846000Y-123190000D02*
X128730000Y-123190000D01*
X172233999Y-121354000D02*
X171622000Y-121966000D01*
X166726000Y-117070000D02*
X134850000Y-117070000D01*
X167338000Y-116458000D02*
X166726000Y-117070000D01*
X180190000Y-62506000D02*
X180802000Y-63118000D01*
X123222000Y-66178000D02*
X123834000Y-65566000D01*
X187534000Y-56386000D02*
X187534000Y-136653999D01*
X112818000Y-55774000D02*
X112818000Y-137878000D01*
X125058000Y-126862000D02*
X124446000Y-126250000D01*
X132402000Y-74134000D02*
X168562000Y-74134000D01*
X134238000Y-117682000D02*
X133626000Y-117070000D01*
X174070000Y-124414000D02*
X127506000Y-124414000D01*
X178965999Y-64954000D02*
X178965999Y-128086000D01*
X129342000Y-71074000D02*
X171622000Y-71074000D01*
X131790000Y-73522000D02*
X169174000Y-73522000D01*
X186922000Y-137265999D02*
X114654000Y-137265999D01*
X135462000Y-78418000D02*
X136073999Y-77806000D01*
X181414000Y-62506000D02*
X181414000Y-130534000D01*
X165501999Y-114622000D02*
X164890000Y-115234000D01*
X118326000Y-61282000D02*
X118938000Y-60670000D01*
X167950000Y-74746000D02*
X168561999Y-75358000D01*
X164278000Y-79642000D02*
X164278000Y-113398000D01*
X120774000Y-63730000D02*
X121386000Y-63118000D01*
X181414000Y-61282000D02*
X182025999Y-61894000D01*
X182025999Y-131145999D02*
X181414000Y-131757999D01*
X129342000Y-122578000D02*
X128730000Y-121966000D01*
X115266000Y-58222000D02*
X115266000Y-135430000D01*
X118326000Y-133593999D02*
X117714000Y-132981999D01*
X169174000Y-74745999D02*
X169174000Y-118294000D01*
X178354000Y-127474000D02*
X177742000Y-128086000D01*
X174070000Y-68626000D02*
X174682000Y-69237999D01*
X125670000Y-126250000D02*
X125058000Y-125638000D01*
X110370000Y-53326000D02*
X110370000Y-140326000D01*
X131790000Y-120130000D02*
X131178000Y-119518000D01*
X123834000Y-65566000D02*
X177130000Y-65566000D01*
X163666000Y-79030000D02*
X164278000Y-79642000D01*
X131178000Y-120742000D02*
X130566000Y-120130000D01*
X123222000Y-66178000D02*
X123222000Y-127474000D01*
X189369999Y-138490000D02*
X188757999Y-139101999D01*
X115878000Y-57610000D02*
X185086000Y-57610000D01*
X110982000Y-140938000D02*
X125266000Y-140938000D01*
X113430000Y-55162000D02*
X187534000Y-55162000D01*
X168562000Y-118906000D02*
X133014000Y-118906000D01*
X180802000Y-63118000D02*
X180802000Y-129922000D01*
X186922000Y-56998000D02*
X186922000Y-136041999D01*
X174070000Y-123190000D02*
X173458000Y-123802000D01*
X116489999Y-58222000D02*
X184474000Y-58222000D01*
X176518000Y-66178000D02*
X177130000Y-66790000D01*
X168561999Y-75358000D02*
X168561999Y-117682000D01*
X133013999Y-74746000D02*
X167950000Y-74746000D01*
X183250000Y-132369999D02*
X182638000Y-132981999D01*
X184474000Y-58222000D02*
X185085999Y-58834000D01*
X136073999Y-79030000D02*
X136073999Y-114622000D01*
X129342000Y-72298000D02*
X129954000Y-71686000D01*
X165502000Y-77194000D02*
X166114000Y-77805999D01*
X110370000Y-140326000D02*
X110982000Y-140938000D01*
X188146000Y-138490000D02*
X113430000Y-138490000D01*
X167338000Y-76582000D02*
X167338000Y-116458000D01*
X133626000Y-75358000D02*
X167338000Y-75358000D01*
X173458000Y-70462000D02*
X173458000Y-122578000D01*
X121998000Y-64954000D02*
X122610000Y-64342000D01*
X169786000Y-74134000D02*
X169786000Y-118906000D01*
X128730000Y-70462000D02*
X172234000Y-70462000D01*
X121386000Y-130534000D02*
X120774000Y-129922000D01*
X114654000Y-56386000D02*
X186310000Y-56386000D01*
X171010000Y-71686000D02*
X171622000Y-72298000D01*
X123834000Y-66790000D02*
X123834000Y-126862000D01*
X172234000Y-122578000D02*
X129342000Y-122578000D01*
X124446000Y-66178000D02*
X176518000Y-66178000D01*
X169174000Y-73522000D02*
X169786000Y-74134000D01*
X184474000Y-59446000D02*
X184474000Y-133593999D01*
X110982000Y-52714000D02*
X189982000Y-52714000D01*
X183862000Y-58834000D02*
X184474000Y-59446000D01*
X134238000Y-75970000D02*
X166726000Y-75970000D01*
X126894000Y-68626000D02*
X174070000Y-68626000D01*
X170398000Y-119518000D02*
X169786000Y-120130000D01*
X125670000Y-68626000D02*
X125670000Y-125026000D01*
X112818000Y-139101999D02*
X112206000Y-138490000D01*
X170398000Y-72298000D02*
X171010000Y-72910000D01*
X177130000Y-65566000D02*
X177742000Y-66178000D01*
X174070000Y-69850000D02*
X174070000Y-123190000D01*
X133626000Y-118294000D02*
X133014000Y-117682000D01*
X127506000Y-69238000D02*
X173458000Y-69238000D01*
X114654000Y-57610000D02*
X114654000Y-136042000D01*
X124446000Y-67401999D02*
X125058000Y-66790000D01*
X164278000Y-113398000D02*
X163666000Y-114010000D01*
X116490000Y-59446000D02*
X117102000Y-58834000D01*
X164278000Y-78418000D02*
X164890000Y-79030000D01*
X188146000Y-137265999D02*
X187534000Y-137877999D01*
X112206000Y-55162000D02*
X112817999Y-54550000D01*
X114042000Y-137877999D02*
X113430000Y-137265999D01*
X169786000Y-120130000D02*
X131790000Y-120130000D01*
X188757999Y-139101999D02*
X112818000Y-139101999D01*
X171010000Y-121354000D02*
X130566000Y-121354000D01*
X183862000Y-60058000D02*
X183862000Y-132981999D01*
X185086000Y-135429999D02*
X116490000Y-135429999D01*
X133014000Y-118906000D02*
X132402000Y-118294000D01*
X175293999Y-124414000D02*
X174682000Y-125026000D01*
X183250000Y-60670000D02*
X183250000Y-132369999D01*
X169786000Y-72910000D02*
X170398000Y-73522000D01*
X131790000Y-74745999D02*
X132402000Y-74134000D01*
X171622000Y-121966000D02*
X129954000Y-121966000D01*
X169786000Y-118906000D02*
X169174000Y-119518000D01*
X177742000Y-128086000D02*
X123834000Y-128086000D01*
X120162000Y-61894000D02*
X180802000Y-61894000D01*
X164890000Y-79030000D02*
X164890000Y-114010000D01*
X171622000Y-72298000D02*
X171622000Y-120742000D01*
X128118000Y-69850000D02*
X172846000Y-69850000D01*
X121998000Y-129922000D02*
X121386000Y-129310000D01*
X189370000Y-139713999D02*
X112206000Y-139713999D01*
X120162000Y-63118000D02*
X120774000Y-62506000D01*
X176518000Y-125638000D02*
X175906000Y-126250000D01*
X177130000Y-127474000D02*
X124446000Y-127474000D01*
X174682000Y-68014000D02*
X175293999Y-68626000D01*
X175293999Y-67401999D02*
X175905999Y-68013999D01*
X111594000Y-54550000D02*
X112206000Y-53938000D01*
X131790000Y-74745999D02*
X131790000Y-118906000D01*
X119550000Y-62506000D02*
X120162000Y-61894000D01*
X183862000Y-134205999D02*
X117714000Y-134205999D01*
X171010000Y-72910000D02*
X171010000Y-120130000D01*
X190594000Y-139713999D02*
X189982000Y-140325999D01*
X121386000Y-64342000D02*
X121386000Y-129310000D01*
X117714000Y-60670000D02*
X118326000Y-60058000D01*
X170398000Y-120742000D02*
X131178000Y-120742000D01*
X172846000Y-69850000D02*
X173458000Y-70462000D01*
X185086000Y-57610000D02*
X185698000Y-58222000D01*
X129954000Y-72910000D02*
X129954000Y-120742000D01*
X129954000Y-71686000D02*
X171010000Y-71686000D01*
X183250000Y-59446000D02*
X183862000Y-60058000D01*
X167950000Y-117070000D02*
X167338000Y-117682000D01*
X115266000Y-58222000D02*
X115878000Y-57610000D01*
X188146000Y-55774000D02*
X188146000Y-137265999D01*
X128118000Y-123802000D02*
X127506000Y-123190000D01*
X115266000Y-56998000D02*
X185698000Y-56998000D01*
X187534000Y-137877999D02*
X114042000Y-137877999D01*
X173458000Y-69238000D02*
X174070000Y-69850000D01*
X168561999Y-117682000D02*
X167950000Y-118294000D01*
X112206000Y-53938000D02*
X188757999Y-53938000D01*
X169174000Y-118294000D02*
X168562000Y-118906000D01*
X166114000Y-116458000D02*
X135462000Y-116458000D01*
X182026000Y-132369999D02*
X119550000Y-132369999D01*
X131178000Y-72910000D02*
X169786000Y-72910000D01*
X179578000Y-128698000D02*
X178966000Y-129310000D01*
X189982000Y-53938000D02*
X189982000Y-139101999D01*
X174682000Y-69237999D02*
X174682000Y-123802000D01*
X173458000Y-122578000D02*
X172846000Y-123190000D01*
X174682000Y-123802000D02*
X174070000Y-124414000D01*
X123834000Y-128086000D02*
X123222000Y-127474000D01*
X132402000Y-119518000D02*
X131790000Y-118906000D01*
X171622000Y-120742000D02*
X171010000Y-121354000D01*
X112817999Y-54550000D02*
X188146000Y-54550000D01*
X131178000Y-74134000D02*
X131178000Y-119518000D01*
X190594000Y-53326000D02*
X190594000Y-139713999D01*
X128730000Y-71686000D02*
X129342000Y-71074000D01*
X187534000Y-55162000D02*
X188146000Y-55774000D01*
X113430000Y-56386000D02*
X114042000Y-55774000D01*
X185698000Y-134817999D02*
X185086000Y-135429999D01*
X189369999Y-54550000D02*
X189369999Y-138490000D01*
X134850000Y-77805999D02*
X135462000Y-77194000D01*
X134850000Y-77805999D02*
X134850000Y-115846000D01*
X121386000Y-63118000D02*
X179578000Y-63118000D01*
X118938000Y-60670000D02*
X182026000Y-60670000D01*
X114654000Y-57610000D02*
X115266000Y-56998000D01*
X164278000Y-114622000D02*
X137298000Y-114622000D01*
X135462000Y-78418000D02*
X135462000Y-115234000D01*
X120162000Y-131757999D02*
X119550000Y-131145999D01*
X135462000Y-77194000D02*
X165502000Y-77194000D01*
X172233999Y-71686000D02*
X172233999Y-121354000D01*
X128118000Y-71073999D02*
X128730000Y-70462000D01*
X133626000Y-76582000D02*
X133626000Y-117070000D01*
X111594000Y-54550000D02*
X111594000Y-139102000D01*
X186310000Y-57610000D02*
X186310000Y-135429999D01*
X136686000Y-115234000D02*
X136074000Y-114622000D01*
X187534000Y-136653999D02*
X186922000Y-137265999D01*
X188146000Y-54550000D02*
X188758000Y-55162000D01*
X118326000Y-61282000D02*
X118326000Y-132370000D01*
X127506000Y-70462000D02*
X127506000Y-123190000D01*
X189982000Y-140325999D02*
X111594000Y-140325999D01*
X137298000Y-114622000D02*
X136686000Y-114010000D01*
X125266000Y-140938000D02*
X126184000Y-141856000D01*
X167338000Y-117682000D02*
X134238000Y-117682000D01*
X123834000Y-66790000D02*
X124446000Y-66178000D01*
X132402000Y-75358000D02*
X133013999Y-74746000D01*
X110370000Y-53326000D02*
X110982000Y-52714000D01*
X174682000Y-125026000D02*
X126894000Y-125026000D01*
X133626000Y-76582000D02*
X134238000Y-75970000D01*
X179578000Y-63118000D02*
X180190000Y-63730000D01*
X166726000Y-77194000D02*
X166726000Y-115846000D01*
X117714000Y-59446000D02*
X183250000Y-59446000D01*
X179578000Y-64342000D02*
X179578000Y-128698000D01*
X185698000Y-136041999D02*
X115878000Y-136041999D01*
X120774000Y-63730000D02*
X120774000Y-129922000D01*
X116490000Y-135429999D02*
X115878000Y-134817999D01*
X115878000Y-58834000D02*
X116489999Y-58222000D01*
X125670000Y-68626000D02*
X126281999Y-68014000D01*
X182638000Y-131757999D02*
X182026000Y-132369999D01*
X113430000Y-138490000D02*
X112818000Y-137878000D01*
X136686000Y-79642000D02*
X136686000Y-114010000D01*
X178966000Y-63730000D02*
X179578000Y-64342000D01*
X178354000Y-128698000D02*
X123222000Y-128698000D01*
X175906000Y-66790000D02*
X176518000Y-67401999D01*
X122610000Y-129310000D02*
X121998000Y-128698000D01*
X129342000Y-72298000D02*
X129342000Y-121354000D01*
X120774000Y-131146000D02*
X120162000Y-130534000D01*
X127506000Y-124414000D02*
X126894000Y-123802000D01*
X142194000Y-114010000D02*
X141582000Y-113092000D01*
X128730000Y-123190000D02*
X128118000Y-122578000D01*
X117102000Y-58834000D02*
X183862000Y-58834000D01*
X136073999Y-79030000D02*
X136685999Y-78418000D01*
X189982000Y-139101999D02*
X189370000Y-139713999D01*
X179578000Y-129922000D02*
X121998000Y-129922000D01*
X166726000Y-115846000D02*
X166114000Y-116458000D01*
X129954000Y-121966000D02*
X129342000Y-121354000D01*
X180190000Y-130534000D02*
X121386000Y-130534000D01*
X136074000Y-115846000D02*
X135462000Y-115234000D01*
X119550000Y-62506000D02*
X119550000Y-131146000D01*
X176518000Y-126862000D02*
X125058000Y-126862000D01*
X116490000Y-59446000D02*
X116490000Y-134206000D01*
X112206000Y-139713999D02*
X111594000Y-139101999D01*
X186310000Y-136653999D02*
X115266000Y-136653999D01*
X184474000Y-134817999D02*
X117102000Y-134817999D01*
X126894000Y-69850000D02*
X126894000Y-123802000D01*
X117102000Y-60058000D02*
X117714000Y-59446000D01*
X112818000Y-55774000D02*
X113430000Y-55162000D01*
X169174000Y-119518000D02*
X132402000Y-119518000D01*
X167950000Y-75969999D02*
X167950000Y-117070000D01*
X111594000Y-140325999D02*
X110982000Y-139713999D01*
X125670000Y-67401999D02*
X175293999Y-67401999D01*
X175293999Y-68626000D02*
X175293999Y-124414000D01*
X115266000Y-136653999D02*
X114654000Y-136041999D01*
X177130000Y-66790000D02*
X177130000Y-126250000D01*
X180190000Y-129310000D02*
X179578000Y-129922000D01*
X126282000Y-69237999D02*
X126894000Y-68626000D01*
X170398000Y-73522000D02*
X170398000Y-119518000D01*
X110982000Y-53938000D02*
X111594000Y-53326000D01*
X121998000Y-63730000D02*
X178966000Y-63730000D01*
X114042000Y-55774000D02*
X186922000Y-55774000D01*
X130566000Y-73522000D02*
X131178000Y-72910000D01*
X166114000Y-115234000D02*
X165502000Y-115846000D01*
X134850000Y-117070000D02*
X134238000Y-116458000D01*
X124446000Y-127474000D02*
X123834000Y-126862000D01*
X186310000Y-56386000D02*
X186922000Y-56998000D01*
X134238000Y-77194000D02*
X134238000Y-116458000D01*
X185698000Y-58222000D02*
X185698000Y-134817999D01*
X168562000Y-74134000D02*
X169174000Y-74745999D01*
X127506000Y-70462000D02*
X128118000Y-69850000D01*
X117102000Y-134817999D02*
X116490000Y-134205999D01*
X120162000Y-63118000D02*
X120162000Y-130534000D01*
X165501999Y-78418000D02*
X165501999Y-114622000D01*
X189370000Y-53326000D02*
X189982000Y-53938000D01*
X188758000Y-55162000D02*
X188758000Y-137878000D01*
X189982000Y-52714000D02*
X190594000Y-53326000D01*
X178354000Y-65566000D02*
X178354000Y-127474000D01*
X128118000Y-71073999D02*
X128118000Y-122578000D01*
X134238000Y-77194000D02*
X134850000Y-76582000D01*
X126281999Y-68014000D02*
X174682000Y-68014000D01*
X136685999Y-78418000D02*
X164278000Y-78418000D01*
X185085999Y-134205999D02*
X184474000Y-134817999D01*
X164890000Y-115234000D02*
X136686000Y-115234000D01*
X175905999Y-125026000D02*
X175293999Y-125638000D01*
X164890000Y-77806000D02*
X165501999Y-78418000D01*
X113430000Y-56386000D02*
X113430000Y-137266000D01*
X166726000Y-75970000D02*
X167338000Y-76582000D01*
X126894000Y-69850000D02*
X127506000Y-69238000D01*
X182638000Y-60058000D02*
X183250000Y-60670000D01*
X112206000Y-55162000D02*
X112206000Y-138490000D01*
X114042000Y-56998000D02*
X114042000Y-136654000D01*
X135462000Y-116458000D02*
X134850000Y-115846000D01*
X111594000Y-53326000D02*
X189370000Y-53326000D01*
X117714000Y-60670000D02*
X117714000Y-132982000D01*
X118938000Y-61894000D02*
X119549999Y-61282000D01*
X182026000Y-60670000D02*
X182638000Y-61282000D01*
X171622000Y-71074000D02*
X172233999Y-71686000D01*
X180802000Y-61894000D02*
X181414000Y-62506000D01*
X125058000Y-66790000D02*
X175906000Y-66790000D01*
X119550000Y-132369999D02*
X118938000Y-131757999D01*
X133014000Y-75969999D02*
X133626000Y-75358000D01*
X172234000Y-70462000D02*
X172846000Y-71073999D01*
X122610000Y-65566000D02*
X123221999Y-64954000D01*
X118326000Y-60058000D02*
X182638000Y-60058000D01*
X182638000Y-132981999D02*
X118938000Y-132981999D01*
X136686000Y-79642000D02*
X137298000Y-79030000D01*
X121998000Y-64954000D02*
X121998000Y-128698000D01*
X175293999Y-125638000D02*
X126282000Y-125638000D01*
X122610000Y-64342000D02*
X178354000Y-64342000D01*
X134850000Y-76582000D02*
X166114000Y-76582000D01*
X177742000Y-66178000D02*
X177742000Y-126862000D01*
X186922000Y-136041999D02*
X186310000Y-136653999D01*
X180190000Y-63730000D02*
X180190000Y-129310000D01*
X167950000Y-118294000D02*
X133626000Y-118294000D01*
X137298000Y-79030000D02*
X163666000Y-79030000D01*
X186922000Y-55774000D02*
X187534000Y-56386000D01*
X110982000Y-53938000D02*
X110982000Y-139714000D01*
X182638000Y-61282000D02*
X182638000Y-131757999D01*
X172846000Y-71073999D02*
X172846000Y-121966000D01*
X117714000Y-134205999D02*
X117102000Y-133593999D01*
X166114000Y-77805999D02*
X166114000Y-115234000D01*
X177742000Y-64954000D02*
X178354000Y-65566000D01*
X171010000Y-120130000D02*
X170398000Y-120742000D01*
X178965999Y-128086000D02*
X178354000Y-128698000D01*
X121386000Y-64342000D02*
X121998000Y-63730000D01*
X124446000Y-67401999D02*
X124446000Y-126250000D01*
X117102000Y-60058000D02*
X117102000Y-133594000D01*
X167338000Y-75358000D02*
X167950000Y-75969999D01*
X130566000Y-73522000D02*
X130566000Y-120130000D01*
X163666000Y-114010000D02*
X142194000Y-114010000D01*
X119549999Y-61282000D02*
X181414000Y-61282000D01*
X130566000Y-121354000D02*
X129954000Y-120742000D01*
X123221999Y-64954000D02*
X177742000Y-64954000D01*
X180802000Y-129922000D02*
X180190000Y-130534000D01*
X185085999Y-58834000D02*
X185085999Y-134205999D01*
X173458000Y-123802000D02*
X128118000Y-123802000D01*
X118938000Y-132981999D02*
X118326000Y-132369999D01*
X181414000Y-130534000D02*
X180802000Y-131146000D01*
X133014000Y-75969999D02*
X133014000Y-117682000D01*
X181414000Y-131757999D02*
X120162000Y-131757999D01*
X120774000Y-62506000D02*
X180190000Y-62506000D01*
X125058000Y-68013999D02*
X125058000Y-125638000D01*
X125058000Y-68013999D02*
X125670000Y-67401999D01*
X183862000Y-132981999D02*
X183250000Y-133593999D01*
X131178000Y-74134000D02*
X131790000Y-73522000D01*
X165502000Y-115846000D02*
X136074000Y-115846000D01*
X122610000Y-65566000D02*
X122610000Y-128086000D01*
X164890000Y-114010000D02*
X164278000Y-114622000D01*
X115878000Y-58834000D02*
X115878000Y-134817999D01*
X128730000Y-71686000D02*
X128730000Y-121966000D01*
X129954000Y-72910000D02*
X130566000Y-72298000D01*
X188757999Y-53938000D02*
X189369999Y-54550000D01*
X172846000Y-121966000D02*
X172234000Y-122578000D01*
X175905999Y-68013999D02*
X175905999Y-125026000D01*
X178354000Y-64342000D02*
X178965999Y-64954000D01*
X175906000Y-126250000D02*
X125670000Y-126250000D01*
X126282000Y-69237999D02*
X126282000Y-124414000D01*
X126894000Y-125026000D02*
X126282000Y-124414000D01*
X180802000Y-131146000D02*
X120774000Y-131146000D01*
X166114000Y-76582000D02*
X166726000Y-77194000D01*
X184474000Y-133593999D02*
X183862000Y-134205999D01*
X177130000Y-126250000D02*
X176518000Y-126862000D01*
X186310000Y-135429999D02*
X185698000Y-136041999D01*
X130566000Y-72298000D02*
X170398000Y-72298000D01*
X114654000Y-137265999D02*
X114042000Y-136653999D01*
X185698000Y-56998000D02*
X186310000Y-57610000D01*
%TD*%
M02*
