%FSLAX45Y45*%
G04 Gerber Fmt 4.5, Leading zero omitted, Abs format (unit mm)*
G04 Created by KiCad (PCBNEW (6.0.5)) date 2022-08-19 15:48:44*
%MOMM*%
%LPD*%
G01*
G04 APERTURE LIST*
%TA.AperFunction,Profile*%
%ADD10C,0.050000*%
%TD*%
%TA.AperFunction,Profile*%
%ADD11C,0.100000*%
%TD*%
%ADD12C,0.200000*%
%ADD13C,0.030000*%
%ADD14C,0.100000*%
%ADD15C,0.130000*%
%ADD16C,0.220000*%
G04 APERTURE END LIST*
D10*
X19144200Y-4742200D02*
X10944200Y-4742200D01*
X19144200Y-14642200D02*
X19144200Y-4742200D01*
D11*
X16192400Y-10911400D02*
G75*
G03*
X16342400Y-10761400I0J150000D01*
G01*
X16192400Y-10911400D02*
X13908400Y-10911400D01*
X13908400Y-7972400D02*
G75*
G03*
X13758400Y-8122400I0J-150000D01*
G01*
X13908400Y-7972400D02*
X16192400Y-7972400D01*
X13758400Y-10761400D02*
X13758400Y-8122400D01*
D10*
X10944200Y-14642200D02*
X10944200Y-4742200D01*
D11*
X13758400Y-10761400D02*
G75*
G03*
X13908400Y-10911400I150000J0D01*
G01*
X16342400Y-8122400D02*
G75*
G03*
X16192400Y-7972400I-150000J0D01*
G01*
X16342400Y-8122400D02*
X16342400Y-10761400D01*
D10*
X10944200Y-14642200D02*
X19144200Y-14642200D01*
D12*
D13*
X11024400Y-14136400D02*
X11054400Y-14166400D01*
X11054400Y-14136400D02*
X11024400Y-14166400D01*
X12358600Y-14170600D02*
X12388600Y-14200600D01*
X12388600Y-14170600D02*
X12358600Y-14200600D01*
X12481000Y-14170600D02*
X12511000Y-14200600D01*
X12511000Y-14170600D02*
X12481000Y-14200600D01*
X12603400Y-14170600D02*
X12633400Y-14200600D01*
X12633400Y-14170600D02*
X12603400Y-14200600D01*
X12725800Y-14170600D02*
X12755800Y-14200600D01*
X12755800Y-14170600D02*
X12725800Y-14200600D01*
X13776000Y-11294200D02*
X13806000Y-11324200D01*
X13806000Y-11294200D02*
X13776000Y-11324200D01*
X13898400Y-11294200D02*
X13928400Y-11324200D01*
X13928400Y-11294200D02*
X13898400Y-11324200D01*
X14020800Y-11294200D02*
X14050800Y-11324200D01*
X14050800Y-11294200D02*
X14020800Y-11324200D01*
X14143200Y-11294200D02*
X14173200Y-11324200D01*
X14173200Y-11294200D02*
X14143200Y-11324200D01*
X14265600Y-11294200D02*
X14295600Y-11324200D01*
X14295600Y-11294200D02*
X14265600Y-11324200D01*
D14*
X11974200Y-4992200D02*
G75*
G03*
X11974200Y-4992200I-50000J0D01*
G01*
X12228200Y-4992200D02*
G75*
G03*
X12228200Y-4992200I-50000J0D01*
G01*
X12482200Y-4992200D02*
G75*
G03*
X12482200Y-4992200I-50000J0D01*
G01*
X12736200Y-4992200D02*
G75*
G03*
X12736200Y-4992200I-50000J0D01*
G01*
X12990200Y-4992200D02*
G75*
G03*
X12990200Y-4992200I-50000J0D01*
G01*
X13244200Y-4992200D02*
G75*
G03*
X13244200Y-4992200I-50000J0D01*
G01*
D15*
X13998600Y-11044200D02*
X13998600Y-11174200D01*
X13933600Y-11109200D02*
X14063600Y-11109200D01*
X14760600Y-11044200D02*
X14760600Y-11174200D01*
X14695600Y-11109200D02*
X14825600Y-11109200D01*
D16*
X11271982Y-5069982D02*
X11271982Y-4914417D01*
X11116418Y-4914417D01*
X11116418Y-5069982D01*
X11271982Y-5069982D01*
X11271982Y-14469982D02*
X11271982Y-14314417D01*
X11116418Y-14314417D01*
X11116418Y-14469982D01*
X11271982Y-14469982D01*
X15121982Y-5069982D02*
X15121982Y-4914417D01*
X14966417Y-4914417D01*
X14966417Y-5069982D01*
X15121982Y-5069982D01*
X15121982Y-14469982D02*
X15121982Y-14314417D01*
X14966417Y-14314417D01*
X14966417Y-14469982D01*
X15121982Y-14469982D01*
X18971983Y-5069982D02*
X18971983Y-4914417D01*
X18816418Y-4914417D01*
X18816418Y-5069982D01*
X18971983Y-5069982D01*
X18971983Y-14469982D02*
X18971983Y-14314417D01*
X18816418Y-14314417D01*
X18816418Y-14469982D01*
X18971983Y-14469982D01*
D12*
X11199319Y-14955176D02*
X11199319Y-14755176D01*
X11246938Y-14755176D01*
X11275509Y-14764700D01*
X11294557Y-14783747D01*
X11304081Y-14802795D01*
X11313605Y-14840890D01*
X11313605Y-14869462D01*
X11304081Y-14907557D01*
X11294557Y-14926605D01*
X11275509Y-14945652D01*
X11246938Y-14955176D01*
X11199319Y-14955176D01*
X11399319Y-14955176D02*
X11399319Y-14821843D01*
X11399319Y-14859938D02*
X11408843Y-14840890D01*
X11418367Y-14831366D01*
X11437414Y-14821843D01*
X11456462Y-14821843D01*
X11523128Y-14955176D02*
X11523128Y-14821843D01*
X11523128Y-14755176D02*
X11513605Y-14764700D01*
X11523128Y-14774224D01*
X11532652Y-14764700D01*
X11523128Y-14755176D01*
X11523128Y-14774224D01*
X11646938Y-14955176D02*
X11627890Y-14945652D01*
X11618367Y-14926605D01*
X11618367Y-14755176D01*
X11751700Y-14955176D02*
X11732652Y-14945652D01*
X11723128Y-14926605D01*
X11723128Y-14755176D01*
X11980271Y-14955176D02*
X11980271Y-14755176D01*
X12046938Y-14898033D01*
X12113605Y-14755176D01*
X12113605Y-14955176D01*
X12294557Y-14955176D02*
X12294557Y-14850414D01*
X12285033Y-14831366D01*
X12265986Y-14821843D01*
X12227890Y-14821843D01*
X12208843Y-14831366D01*
X12294557Y-14945652D02*
X12275509Y-14955176D01*
X12227890Y-14955176D01*
X12208843Y-14945652D01*
X12199319Y-14926605D01*
X12199319Y-14907557D01*
X12208843Y-14888509D01*
X12227890Y-14878986D01*
X12275509Y-14878986D01*
X12294557Y-14869462D01*
X12389795Y-14821843D02*
X12389795Y-15021843D01*
X12389795Y-14831366D02*
X12408843Y-14821843D01*
X12446938Y-14821843D01*
X12465986Y-14831366D01*
X12475509Y-14840890D01*
X12485033Y-14859938D01*
X12485033Y-14917081D01*
X12475509Y-14936128D01*
X12465986Y-14945652D01*
X12446938Y-14955176D01*
X12408843Y-14955176D01*
X12389795Y-14945652D01*
X12570748Y-14936128D02*
X12580271Y-14945652D01*
X12570748Y-14955176D01*
X12561224Y-14945652D01*
X12570748Y-14936128D01*
X12570748Y-14955176D01*
X12570748Y-14831366D02*
X12580271Y-14840890D01*
X12570748Y-14850414D01*
X12561224Y-14840890D01*
X12570748Y-14831366D01*
X12570748Y-14850414D01*
D13*
X10911700Y-15269700D02*
X10941700Y-15299700D01*
X10941700Y-15269700D02*
X10911700Y-15299700D01*
D12*
X11237414Y-15175176D02*
X11256462Y-15175176D01*
X11275509Y-15184700D01*
X11285033Y-15194224D01*
X11294557Y-15213271D01*
X11304081Y-15251366D01*
X11304081Y-15298986D01*
X11294557Y-15337081D01*
X11285033Y-15356128D01*
X11275509Y-15365652D01*
X11256462Y-15375176D01*
X11237414Y-15375176D01*
X11218367Y-15365652D01*
X11208843Y-15356128D01*
X11199319Y-15337081D01*
X11189795Y-15298986D01*
X11189795Y-15251366D01*
X11199319Y-15213271D01*
X11208843Y-15194224D01*
X11218367Y-15184700D01*
X11237414Y-15175176D01*
X11389795Y-15356128D02*
X11399319Y-15365652D01*
X11389795Y-15375176D01*
X11380271Y-15365652D01*
X11389795Y-15356128D01*
X11389795Y-15375176D01*
X11465986Y-15175176D02*
X11589795Y-15175176D01*
X11523128Y-15251366D01*
X11551700Y-15251366D01*
X11570748Y-15260890D01*
X11580271Y-15270414D01*
X11589795Y-15289462D01*
X11589795Y-15337081D01*
X11580271Y-15356128D01*
X11570748Y-15365652D01*
X11551700Y-15375176D01*
X11494557Y-15375176D01*
X11475509Y-15365652D01*
X11465986Y-15356128D01*
X11713605Y-15175176D02*
X11732652Y-15175176D01*
X11751700Y-15184700D01*
X11761224Y-15194224D01*
X11770748Y-15213271D01*
X11780271Y-15251366D01*
X11780271Y-15298986D01*
X11770748Y-15337081D01*
X11761224Y-15356128D01*
X11751700Y-15365652D01*
X11732652Y-15375176D01*
X11713605Y-15375176D01*
X11694557Y-15365652D01*
X11685033Y-15356128D01*
X11675509Y-15337081D01*
X11665986Y-15298986D01*
X11665986Y-15251366D01*
X11675509Y-15213271D01*
X11685033Y-15194224D01*
X11694557Y-15184700D01*
X11713605Y-15175176D01*
X11904081Y-15175176D02*
X11923128Y-15175176D01*
X11942176Y-15184700D01*
X11951700Y-15194224D01*
X11961224Y-15213271D01*
X11970748Y-15251366D01*
X11970748Y-15298986D01*
X11961224Y-15337081D01*
X11951700Y-15356128D01*
X11942176Y-15365652D01*
X11923128Y-15375176D01*
X11904081Y-15375176D01*
X11885033Y-15365652D01*
X11875509Y-15356128D01*
X11865986Y-15337081D01*
X11856462Y-15298986D01*
X11856462Y-15251366D01*
X11865986Y-15213271D01*
X11875509Y-15194224D01*
X11885033Y-15184700D01*
X11904081Y-15175176D01*
X12056462Y-15375176D02*
X12056462Y-15241843D01*
X12056462Y-15260890D02*
X12065986Y-15251366D01*
X12085033Y-15241843D01*
X12113605Y-15241843D01*
X12132652Y-15251366D01*
X12142176Y-15270414D01*
X12142176Y-15375176D01*
X12142176Y-15270414D02*
X12151700Y-15251366D01*
X12170748Y-15241843D01*
X12199319Y-15241843D01*
X12218367Y-15251366D01*
X12227890Y-15270414D01*
X12227890Y-15375176D01*
X12323128Y-15375176D02*
X12323128Y-15241843D01*
X12323128Y-15260890D02*
X12332652Y-15251366D01*
X12351700Y-15241843D01*
X12380271Y-15241843D01*
X12399319Y-15251366D01*
X12408843Y-15270414D01*
X12408843Y-15375176D01*
X12408843Y-15270414D02*
X12418367Y-15251366D01*
X12437414Y-15241843D01*
X12465986Y-15241843D01*
X12485033Y-15251366D01*
X12494557Y-15270414D01*
X12494557Y-15375176D01*
X12885033Y-15165652D02*
X12713605Y-15422795D01*
X13142176Y-15175176D02*
X13161224Y-15175176D01*
X13180271Y-15184700D01*
X13189795Y-15194224D01*
X13199319Y-15213271D01*
X13208843Y-15251366D01*
X13208843Y-15298986D01*
X13199319Y-15337081D01*
X13189795Y-15356128D01*
X13180271Y-15365652D01*
X13161224Y-15375176D01*
X13142176Y-15375176D01*
X13123128Y-15365652D01*
X13113605Y-15356128D01*
X13104081Y-15337081D01*
X13094557Y-15298986D01*
X13094557Y-15251366D01*
X13104081Y-15213271D01*
X13113605Y-15194224D01*
X13123128Y-15184700D01*
X13142176Y-15175176D01*
X13294557Y-15356128D02*
X13304081Y-15365652D01*
X13294557Y-15375176D01*
X13285033Y-15365652D01*
X13294557Y-15356128D01*
X13294557Y-15375176D01*
X13427890Y-15175176D02*
X13446938Y-15175176D01*
X13465986Y-15184700D01*
X13475509Y-15194224D01*
X13485033Y-15213271D01*
X13494557Y-15251366D01*
X13494557Y-15298986D01*
X13485033Y-15337081D01*
X13475509Y-15356128D01*
X13465986Y-15365652D01*
X13446938Y-15375176D01*
X13427890Y-15375176D01*
X13408843Y-15365652D01*
X13399319Y-15356128D01*
X13389795Y-15337081D01*
X13380271Y-15298986D01*
X13380271Y-15251366D01*
X13389795Y-15213271D01*
X13399319Y-15194224D01*
X13408843Y-15184700D01*
X13427890Y-15175176D01*
X13685033Y-15375176D02*
X13570748Y-15375176D01*
X13627890Y-15375176D02*
X13627890Y-15175176D01*
X13608843Y-15203747D01*
X13589795Y-15222795D01*
X13570748Y-15232319D01*
X13875509Y-15375176D02*
X13761224Y-15375176D01*
X13818367Y-15375176D02*
X13818367Y-15175176D01*
X13799319Y-15203747D01*
X13780271Y-15222795D01*
X13761224Y-15232319D01*
X13989795Y-15260890D02*
X13970748Y-15251366D01*
X13961224Y-15241843D01*
X13951700Y-15222795D01*
X13951700Y-15213271D01*
X13961224Y-15194224D01*
X13970748Y-15184700D01*
X13989795Y-15175176D01*
X14027890Y-15175176D01*
X14046938Y-15184700D01*
X14056462Y-15194224D01*
X14065986Y-15213271D01*
X14065986Y-15222795D01*
X14056462Y-15241843D01*
X14046938Y-15251366D01*
X14027890Y-15260890D01*
X13989795Y-15260890D01*
X13970748Y-15270414D01*
X13961224Y-15279938D01*
X13951700Y-15298986D01*
X13951700Y-15337081D01*
X13961224Y-15356128D01*
X13970748Y-15365652D01*
X13989795Y-15375176D01*
X14027890Y-15375176D01*
X14046938Y-15365652D01*
X14056462Y-15356128D01*
X14065986Y-15337081D01*
X14065986Y-15298986D01*
X14056462Y-15279938D01*
X14046938Y-15270414D01*
X14027890Y-15260890D01*
X14142176Y-15175176D02*
X14142176Y-15213271D01*
X14218367Y-15175176D02*
X14218367Y-15213271D01*
X14513605Y-15451366D02*
X14504081Y-15441843D01*
X14485033Y-15413271D01*
X14475509Y-15394224D01*
X14465986Y-15365652D01*
X14456462Y-15318033D01*
X14456462Y-15279938D01*
X14465986Y-15232319D01*
X14475509Y-15203747D01*
X14485033Y-15184700D01*
X14504081Y-15156128D01*
X14513605Y-15146605D01*
X14694557Y-15375176D02*
X14580271Y-15375176D01*
X14637414Y-15375176D02*
X14637414Y-15175176D01*
X14618367Y-15203747D01*
X14599319Y-15222795D01*
X14580271Y-15232319D01*
X14818367Y-15175176D02*
X14837414Y-15175176D01*
X14856462Y-15184700D01*
X14865986Y-15194224D01*
X14875509Y-15213271D01*
X14885033Y-15251366D01*
X14885033Y-15298986D01*
X14875509Y-15337081D01*
X14865986Y-15356128D01*
X14856462Y-15365652D01*
X14837414Y-15375176D01*
X14818367Y-15375176D01*
X14799319Y-15365652D01*
X14789795Y-15356128D01*
X14780271Y-15337081D01*
X14770748Y-15298986D01*
X14770748Y-15251366D01*
X14780271Y-15213271D01*
X14789795Y-15194224D01*
X14799319Y-15184700D01*
X14818367Y-15175176D01*
X15123128Y-15375176D02*
X15123128Y-15175176D01*
X15208843Y-15375176D02*
X15208843Y-15270414D01*
X15199319Y-15251366D01*
X15180271Y-15241843D01*
X15151700Y-15241843D01*
X15132652Y-15251366D01*
X15123128Y-15260890D01*
X15332652Y-15375176D02*
X15313605Y-15365652D01*
X15304081Y-15356128D01*
X15294557Y-15337081D01*
X15294557Y-15279938D01*
X15304081Y-15260890D01*
X15313605Y-15251366D01*
X15332652Y-15241843D01*
X15361224Y-15241843D01*
X15380271Y-15251366D01*
X15389795Y-15260890D01*
X15399319Y-15279938D01*
X15399319Y-15337081D01*
X15389795Y-15356128D01*
X15380271Y-15365652D01*
X15361224Y-15375176D01*
X15332652Y-15375176D01*
X15513605Y-15375176D02*
X15494557Y-15365652D01*
X15485033Y-15346605D01*
X15485033Y-15175176D01*
X15665986Y-15365652D02*
X15646938Y-15375176D01*
X15608843Y-15375176D01*
X15589795Y-15365652D01*
X15580271Y-15346605D01*
X15580271Y-15270414D01*
X15589795Y-15251366D01*
X15608843Y-15241843D01*
X15646938Y-15241843D01*
X15665986Y-15251366D01*
X15675509Y-15270414D01*
X15675509Y-15289462D01*
X15580271Y-15308509D01*
X15751700Y-15365652D02*
X15770748Y-15375176D01*
X15808843Y-15375176D01*
X15827890Y-15365652D01*
X15837414Y-15346605D01*
X15837414Y-15337081D01*
X15827890Y-15318033D01*
X15808843Y-15308509D01*
X15780271Y-15308509D01*
X15761224Y-15298986D01*
X15751700Y-15279938D01*
X15751700Y-15270414D01*
X15761224Y-15251366D01*
X15780271Y-15241843D01*
X15808843Y-15241843D01*
X15827890Y-15251366D01*
X15904081Y-15451366D02*
X15913605Y-15441843D01*
X15932652Y-15413271D01*
X15942176Y-15394224D01*
X15951700Y-15365652D01*
X15961224Y-15318033D01*
X15961224Y-15279938D01*
X15951700Y-15232319D01*
X15942176Y-15203747D01*
X15932652Y-15184700D01*
X15913605Y-15156128D01*
X15904081Y-15146605D01*
D14*
X10941700Y-15548700D02*
G75*
G03*
X10941700Y-15548700I-50000J0D01*
G01*
D12*
X11304081Y-15639176D02*
X11189795Y-15639176D01*
X11246938Y-15639176D02*
X11246938Y-15439176D01*
X11227890Y-15467747D01*
X11208843Y-15486795D01*
X11189795Y-15496319D01*
X11389795Y-15620128D02*
X11399319Y-15629652D01*
X11389795Y-15639176D01*
X11380271Y-15629652D01*
X11389795Y-15620128D01*
X11389795Y-15639176D01*
X11523128Y-15439176D02*
X11542176Y-15439176D01*
X11561224Y-15448700D01*
X11570748Y-15458224D01*
X11580271Y-15477271D01*
X11589795Y-15515366D01*
X11589795Y-15562986D01*
X11580271Y-15601081D01*
X11570748Y-15620128D01*
X11561224Y-15629652D01*
X11542176Y-15639176D01*
X11523128Y-15639176D01*
X11504081Y-15629652D01*
X11494557Y-15620128D01*
X11485033Y-15601081D01*
X11475509Y-15562986D01*
X11475509Y-15515366D01*
X11485033Y-15477271D01*
X11494557Y-15458224D01*
X11504081Y-15448700D01*
X11523128Y-15439176D01*
X11713605Y-15439176D02*
X11732652Y-15439176D01*
X11751700Y-15448700D01*
X11761224Y-15458224D01*
X11770748Y-15477271D01*
X11780271Y-15515366D01*
X11780271Y-15562986D01*
X11770748Y-15601081D01*
X11761224Y-15620128D01*
X11751700Y-15629652D01*
X11732652Y-15639176D01*
X11713605Y-15639176D01*
X11694557Y-15629652D01*
X11685033Y-15620128D01*
X11675509Y-15601081D01*
X11665986Y-15562986D01*
X11665986Y-15515366D01*
X11675509Y-15477271D01*
X11685033Y-15458224D01*
X11694557Y-15448700D01*
X11713605Y-15439176D01*
X11904081Y-15439176D02*
X11923128Y-15439176D01*
X11942176Y-15448700D01*
X11951700Y-15458224D01*
X11961224Y-15477271D01*
X11970748Y-15515366D01*
X11970748Y-15562986D01*
X11961224Y-15601081D01*
X11951700Y-15620128D01*
X11942176Y-15629652D01*
X11923128Y-15639176D01*
X11904081Y-15639176D01*
X11885033Y-15629652D01*
X11875509Y-15620128D01*
X11865986Y-15601081D01*
X11856462Y-15562986D01*
X11856462Y-15515366D01*
X11865986Y-15477271D01*
X11875509Y-15458224D01*
X11885033Y-15448700D01*
X11904081Y-15439176D01*
X12056462Y-15639176D02*
X12056462Y-15505843D01*
X12056462Y-15524890D02*
X12065986Y-15515366D01*
X12085033Y-15505843D01*
X12113605Y-15505843D01*
X12132652Y-15515366D01*
X12142176Y-15534414D01*
X12142176Y-15639176D01*
X12142176Y-15534414D02*
X12151700Y-15515366D01*
X12170748Y-15505843D01*
X12199319Y-15505843D01*
X12218367Y-15515366D01*
X12227890Y-15534414D01*
X12227890Y-15639176D01*
X12323128Y-15639176D02*
X12323128Y-15505843D01*
X12323128Y-15524890D02*
X12332652Y-15515366D01*
X12351700Y-15505843D01*
X12380271Y-15505843D01*
X12399319Y-15515366D01*
X12408843Y-15534414D01*
X12408843Y-15639176D01*
X12408843Y-15534414D02*
X12418367Y-15515366D01*
X12437414Y-15505843D01*
X12465986Y-15505843D01*
X12485033Y-15515366D01*
X12494557Y-15534414D01*
X12494557Y-15639176D01*
X12885033Y-15429652D02*
X12713605Y-15686795D01*
X13142176Y-15439176D02*
X13161224Y-15439176D01*
X13180271Y-15448700D01*
X13189795Y-15458224D01*
X13199319Y-15477271D01*
X13208843Y-15515366D01*
X13208843Y-15562986D01*
X13199319Y-15601081D01*
X13189795Y-15620128D01*
X13180271Y-15629652D01*
X13161224Y-15639176D01*
X13142176Y-15639176D01*
X13123128Y-15629652D01*
X13113605Y-15620128D01*
X13104081Y-15601081D01*
X13094557Y-15562986D01*
X13094557Y-15515366D01*
X13104081Y-15477271D01*
X13113605Y-15458224D01*
X13123128Y-15448700D01*
X13142176Y-15439176D01*
X13294557Y-15620128D02*
X13304081Y-15629652D01*
X13294557Y-15639176D01*
X13285033Y-15629652D01*
X13294557Y-15620128D01*
X13294557Y-15639176D01*
X13427890Y-15439176D02*
X13446938Y-15439176D01*
X13465986Y-15448700D01*
X13475509Y-15458224D01*
X13485033Y-15477271D01*
X13494557Y-15515366D01*
X13494557Y-15562986D01*
X13485033Y-15601081D01*
X13475509Y-15620128D01*
X13465986Y-15629652D01*
X13446938Y-15639176D01*
X13427890Y-15639176D01*
X13408843Y-15629652D01*
X13399319Y-15620128D01*
X13389795Y-15601081D01*
X13380271Y-15562986D01*
X13380271Y-15515366D01*
X13389795Y-15477271D01*
X13399319Y-15458224D01*
X13408843Y-15448700D01*
X13427890Y-15439176D01*
X13561224Y-15439176D02*
X13685033Y-15439176D01*
X13618367Y-15515366D01*
X13646938Y-15515366D01*
X13665986Y-15524890D01*
X13675509Y-15534414D01*
X13685033Y-15553462D01*
X13685033Y-15601081D01*
X13675509Y-15620128D01*
X13665986Y-15629652D01*
X13646938Y-15639176D01*
X13589795Y-15639176D01*
X13570748Y-15629652D01*
X13561224Y-15620128D01*
X13780271Y-15639176D02*
X13818367Y-15639176D01*
X13837414Y-15629652D01*
X13846938Y-15620128D01*
X13865986Y-15591557D01*
X13875509Y-15553462D01*
X13875509Y-15477271D01*
X13865986Y-15458224D01*
X13856462Y-15448700D01*
X13837414Y-15439176D01*
X13799319Y-15439176D01*
X13780271Y-15448700D01*
X13770748Y-15458224D01*
X13761224Y-15477271D01*
X13761224Y-15524890D01*
X13770748Y-15543938D01*
X13780271Y-15553462D01*
X13799319Y-15562986D01*
X13837414Y-15562986D01*
X13856462Y-15553462D01*
X13865986Y-15543938D01*
X13875509Y-15524890D01*
X14046938Y-15505843D02*
X14046938Y-15639176D01*
X13999319Y-15429652D02*
X13951700Y-15572509D01*
X14075509Y-15572509D01*
X14142176Y-15439176D02*
X14142176Y-15477271D01*
X14218367Y-15439176D02*
X14218367Y-15477271D01*
X14513605Y-15715366D02*
X14504081Y-15705843D01*
X14485033Y-15677271D01*
X14475509Y-15658224D01*
X14465986Y-15629652D01*
X14456462Y-15582033D01*
X14456462Y-15543938D01*
X14465986Y-15496319D01*
X14475509Y-15467747D01*
X14485033Y-15448700D01*
X14504081Y-15420128D01*
X14513605Y-15410605D01*
X14675509Y-15439176D02*
X14637414Y-15439176D01*
X14618367Y-15448700D01*
X14608843Y-15458224D01*
X14589795Y-15486795D01*
X14580271Y-15524890D01*
X14580271Y-15601081D01*
X14589795Y-15620128D01*
X14599319Y-15629652D01*
X14618367Y-15639176D01*
X14656462Y-15639176D01*
X14675509Y-15629652D01*
X14685033Y-15620128D01*
X14694557Y-15601081D01*
X14694557Y-15553462D01*
X14685033Y-15534414D01*
X14675509Y-15524890D01*
X14656462Y-15515366D01*
X14618367Y-15515366D01*
X14599319Y-15524890D01*
X14589795Y-15534414D01*
X14580271Y-15553462D01*
X14932652Y-15639176D02*
X14932652Y-15439176D01*
X15018367Y-15639176D02*
X15018367Y-15534414D01*
X15008843Y-15515366D01*
X14989795Y-15505843D01*
X14961224Y-15505843D01*
X14942176Y-15515366D01*
X14932652Y-15524890D01*
X15142176Y-15639176D02*
X15123128Y-15629652D01*
X15113605Y-15620128D01*
X15104081Y-15601081D01*
X15104081Y-15543938D01*
X15113605Y-15524890D01*
X15123128Y-15515366D01*
X15142176Y-15505843D01*
X15170748Y-15505843D01*
X15189795Y-15515366D01*
X15199319Y-15524890D01*
X15208843Y-15543938D01*
X15208843Y-15601081D01*
X15199319Y-15620128D01*
X15189795Y-15629652D01*
X15170748Y-15639176D01*
X15142176Y-15639176D01*
X15323128Y-15639176D02*
X15304081Y-15629652D01*
X15294557Y-15610605D01*
X15294557Y-15439176D01*
X15475509Y-15629652D02*
X15456462Y-15639176D01*
X15418367Y-15639176D01*
X15399319Y-15629652D01*
X15389795Y-15610605D01*
X15389795Y-15534414D01*
X15399319Y-15515366D01*
X15418367Y-15505843D01*
X15456462Y-15505843D01*
X15475509Y-15515366D01*
X15485033Y-15534414D01*
X15485033Y-15553462D01*
X15389795Y-15572509D01*
X15561224Y-15629652D02*
X15580271Y-15639176D01*
X15618367Y-15639176D01*
X15637414Y-15629652D01*
X15646938Y-15610605D01*
X15646938Y-15601081D01*
X15637414Y-15582033D01*
X15618367Y-15572509D01*
X15589795Y-15572509D01*
X15570748Y-15562986D01*
X15561224Y-15543938D01*
X15561224Y-15534414D01*
X15570748Y-15515366D01*
X15589795Y-15505843D01*
X15618367Y-15505843D01*
X15637414Y-15515366D01*
X15713605Y-15715366D02*
X15723128Y-15705843D01*
X15742176Y-15677271D01*
X15751700Y-15658224D01*
X15761224Y-15629652D01*
X15770748Y-15582033D01*
X15770748Y-15543938D01*
X15761224Y-15496319D01*
X15751700Y-15467747D01*
X15742176Y-15448700D01*
X15723128Y-15420128D01*
X15713605Y-15410605D01*
D15*
X10876700Y-15747700D02*
X10876700Y-15877700D01*
X10811700Y-15812700D02*
X10941700Y-15812700D01*
D12*
X11304081Y-15903176D02*
X11189795Y-15903176D01*
X11246938Y-15903176D02*
X11246938Y-15703176D01*
X11227890Y-15731747D01*
X11208843Y-15750795D01*
X11189795Y-15760319D01*
X11389795Y-15884128D02*
X11399319Y-15893652D01*
X11389795Y-15903176D01*
X11380271Y-15893652D01*
X11389795Y-15884128D01*
X11389795Y-15903176D01*
X11465986Y-15703176D02*
X11589795Y-15703176D01*
X11523128Y-15779366D01*
X11551700Y-15779366D01*
X11570748Y-15788890D01*
X11580271Y-15798414D01*
X11589795Y-15817462D01*
X11589795Y-15865081D01*
X11580271Y-15884128D01*
X11570748Y-15893652D01*
X11551700Y-15903176D01*
X11494557Y-15903176D01*
X11475509Y-15893652D01*
X11465986Y-15884128D01*
X11713605Y-15703176D02*
X11732652Y-15703176D01*
X11751700Y-15712700D01*
X11761224Y-15722224D01*
X11770748Y-15741271D01*
X11780271Y-15779366D01*
X11780271Y-15826986D01*
X11770748Y-15865081D01*
X11761224Y-15884128D01*
X11751700Y-15893652D01*
X11732652Y-15903176D01*
X11713605Y-15903176D01*
X11694557Y-15893652D01*
X11685033Y-15884128D01*
X11675509Y-15865081D01*
X11665986Y-15826986D01*
X11665986Y-15779366D01*
X11675509Y-15741271D01*
X11685033Y-15722224D01*
X11694557Y-15712700D01*
X11713605Y-15703176D01*
X11904081Y-15703176D02*
X11923128Y-15703176D01*
X11942176Y-15712700D01*
X11951700Y-15722224D01*
X11961224Y-15741271D01*
X11970748Y-15779366D01*
X11970748Y-15826986D01*
X11961224Y-15865081D01*
X11951700Y-15884128D01*
X11942176Y-15893652D01*
X11923128Y-15903176D01*
X11904081Y-15903176D01*
X11885033Y-15893652D01*
X11875509Y-15884128D01*
X11865986Y-15865081D01*
X11856462Y-15826986D01*
X11856462Y-15779366D01*
X11865986Y-15741271D01*
X11875509Y-15722224D01*
X11885033Y-15712700D01*
X11904081Y-15703176D01*
X12056462Y-15903176D02*
X12056462Y-15769843D01*
X12056462Y-15788890D02*
X12065986Y-15779366D01*
X12085033Y-15769843D01*
X12113605Y-15769843D01*
X12132652Y-15779366D01*
X12142176Y-15798414D01*
X12142176Y-15903176D01*
X12142176Y-15798414D02*
X12151700Y-15779366D01*
X12170748Y-15769843D01*
X12199319Y-15769843D01*
X12218367Y-15779366D01*
X12227890Y-15798414D01*
X12227890Y-15903176D01*
X12323128Y-15903176D02*
X12323128Y-15769843D01*
X12323128Y-15788890D02*
X12332652Y-15779366D01*
X12351700Y-15769843D01*
X12380271Y-15769843D01*
X12399319Y-15779366D01*
X12408843Y-15798414D01*
X12408843Y-15903176D01*
X12408843Y-15798414D02*
X12418367Y-15779366D01*
X12437414Y-15769843D01*
X12465986Y-15769843D01*
X12485033Y-15779366D01*
X12494557Y-15798414D01*
X12494557Y-15903176D01*
X12885033Y-15693652D02*
X12713605Y-15950795D01*
X13142176Y-15703176D02*
X13161224Y-15703176D01*
X13180271Y-15712700D01*
X13189795Y-15722224D01*
X13199319Y-15741271D01*
X13208843Y-15779366D01*
X13208843Y-15826986D01*
X13199319Y-15865081D01*
X13189795Y-15884128D01*
X13180271Y-15893652D01*
X13161224Y-15903176D01*
X13142176Y-15903176D01*
X13123128Y-15893652D01*
X13113605Y-15884128D01*
X13104081Y-15865081D01*
X13094557Y-15826986D01*
X13094557Y-15779366D01*
X13104081Y-15741271D01*
X13113605Y-15722224D01*
X13123128Y-15712700D01*
X13142176Y-15703176D01*
X13294557Y-15884128D02*
X13304081Y-15893652D01*
X13294557Y-15903176D01*
X13285033Y-15893652D01*
X13294557Y-15884128D01*
X13294557Y-15903176D01*
X13427890Y-15703176D02*
X13446938Y-15703176D01*
X13465986Y-15712700D01*
X13475509Y-15722224D01*
X13485033Y-15741271D01*
X13494557Y-15779366D01*
X13494557Y-15826986D01*
X13485033Y-15865081D01*
X13475509Y-15884128D01*
X13465986Y-15893652D01*
X13446938Y-15903176D01*
X13427890Y-15903176D01*
X13408843Y-15893652D01*
X13399319Y-15884128D01*
X13389795Y-15865081D01*
X13380271Y-15826986D01*
X13380271Y-15779366D01*
X13389795Y-15741271D01*
X13399319Y-15722224D01*
X13408843Y-15712700D01*
X13427890Y-15703176D01*
X13675509Y-15703176D02*
X13580271Y-15703176D01*
X13570748Y-15798414D01*
X13580271Y-15788890D01*
X13599319Y-15779366D01*
X13646938Y-15779366D01*
X13665986Y-15788890D01*
X13675509Y-15798414D01*
X13685033Y-15817462D01*
X13685033Y-15865081D01*
X13675509Y-15884128D01*
X13665986Y-15893652D01*
X13646938Y-15903176D01*
X13599319Y-15903176D01*
X13580271Y-15893652D01*
X13570748Y-15884128D01*
X13875509Y-15903176D02*
X13761224Y-15903176D01*
X13818367Y-15903176D02*
X13818367Y-15703176D01*
X13799319Y-15731747D01*
X13780271Y-15750795D01*
X13761224Y-15760319D01*
X13951700Y-15722224D02*
X13961224Y-15712700D01*
X13980271Y-15703176D01*
X14027890Y-15703176D01*
X14046938Y-15712700D01*
X14056462Y-15722224D01*
X14065986Y-15741271D01*
X14065986Y-15760319D01*
X14056462Y-15788890D01*
X13942176Y-15903176D01*
X14065986Y-15903176D01*
X14142176Y-15703176D02*
X14142176Y-15741271D01*
X14218367Y-15703176D02*
X14218367Y-15741271D01*
X14513605Y-15979366D02*
X14504081Y-15969843D01*
X14485033Y-15941271D01*
X14475509Y-15922224D01*
X14465986Y-15893652D01*
X14456462Y-15846033D01*
X14456462Y-15807938D01*
X14465986Y-15760319D01*
X14475509Y-15731747D01*
X14485033Y-15712700D01*
X14504081Y-15684128D01*
X14513605Y-15674605D01*
X14580271Y-15722224D02*
X14589795Y-15712700D01*
X14608843Y-15703176D01*
X14656462Y-15703176D01*
X14675509Y-15712700D01*
X14685033Y-15722224D01*
X14694557Y-15741271D01*
X14694557Y-15760319D01*
X14685033Y-15788890D01*
X14570748Y-15903176D01*
X14694557Y-15903176D01*
X14932652Y-15903176D02*
X14932652Y-15703176D01*
X15018367Y-15903176D02*
X15018367Y-15798414D01*
X15008843Y-15779366D01*
X14989795Y-15769843D01*
X14961224Y-15769843D01*
X14942176Y-15779366D01*
X14932652Y-15788890D01*
X15142176Y-15903176D02*
X15123128Y-15893652D01*
X15113605Y-15884128D01*
X15104081Y-15865081D01*
X15104081Y-15807938D01*
X15113605Y-15788890D01*
X15123128Y-15779366D01*
X15142176Y-15769843D01*
X15170748Y-15769843D01*
X15189795Y-15779366D01*
X15199319Y-15788890D01*
X15208843Y-15807938D01*
X15208843Y-15865081D01*
X15199319Y-15884128D01*
X15189795Y-15893652D01*
X15170748Y-15903176D01*
X15142176Y-15903176D01*
X15323128Y-15903176D02*
X15304081Y-15893652D01*
X15294557Y-15874605D01*
X15294557Y-15703176D01*
X15475509Y-15893652D02*
X15456462Y-15903176D01*
X15418367Y-15903176D01*
X15399319Y-15893652D01*
X15389795Y-15874605D01*
X15389795Y-15798414D01*
X15399319Y-15779366D01*
X15418367Y-15769843D01*
X15456462Y-15769843D01*
X15475509Y-15779366D01*
X15485033Y-15798414D01*
X15485033Y-15817462D01*
X15389795Y-15836509D01*
X15561224Y-15893652D02*
X15580271Y-15903176D01*
X15618367Y-15903176D01*
X15637414Y-15893652D01*
X15646938Y-15874605D01*
X15646938Y-15865081D01*
X15637414Y-15846033D01*
X15618367Y-15836509D01*
X15589795Y-15836509D01*
X15570748Y-15826986D01*
X15561224Y-15807938D01*
X15561224Y-15798414D01*
X15570748Y-15779366D01*
X15589795Y-15769843D01*
X15618367Y-15769843D01*
X15637414Y-15779366D01*
X15713605Y-15979366D02*
X15723128Y-15969843D01*
X15742176Y-15941271D01*
X15751700Y-15922224D01*
X15761224Y-15893652D01*
X15770748Y-15846033D01*
X15770748Y-15807938D01*
X15761224Y-15760319D01*
X15751700Y-15731747D01*
X15742176Y-15712700D01*
X15723128Y-15684128D01*
X15713605Y-15674605D01*
X10912411Y-16147411D02*
X10912411Y-16005988D01*
X10770989Y-16005988D01*
X10770989Y-16147411D01*
X10912411Y-16147411D01*
X11189795Y-15986224D02*
X11199319Y-15976700D01*
X11218367Y-15967176D01*
X11265986Y-15967176D01*
X11285033Y-15976700D01*
X11294557Y-15986224D01*
X11304081Y-16005271D01*
X11304081Y-16024319D01*
X11294557Y-16052890D01*
X11180271Y-16167176D01*
X11304081Y-16167176D01*
X11389795Y-16148128D02*
X11399319Y-16157652D01*
X11389795Y-16167176D01*
X11380271Y-16157652D01*
X11389795Y-16148128D01*
X11389795Y-16167176D01*
X11475509Y-15986224D02*
X11485033Y-15976700D01*
X11504081Y-15967176D01*
X11551700Y-15967176D01*
X11570748Y-15976700D01*
X11580271Y-15986224D01*
X11589795Y-16005271D01*
X11589795Y-16024319D01*
X11580271Y-16052890D01*
X11465986Y-16167176D01*
X11589795Y-16167176D01*
X11713605Y-15967176D02*
X11732652Y-15967176D01*
X11751700Y-15976700D01*
X11761224Y-15986224D01*
X11770748Y-16005271D01*
X11780271Y-16043366D01*
X11780271Y-16090986D01*
X11770748Y-16129081D01*
X11761224Y-16148128D01*
X11751700Y-16157652D01*
X11732652Y-16167176D01*
X11713605Y-16167176D01*
X11694557Y-16157652D01*
X11685033Y-16148128D01*
X11675509Y-16129081D01*
X11665986Y-16090986D01*
X11665986Y-16043366D01*
X11675509Y-16005271D01*
X11685033Y-15986224D01*
X11694557Y-15976700D01*
X11713605Y-15967176D01*
X11904081Y-15967176D02*
X11923128Y-15967176D01*
X11942176Y-15976700D01*
X11951700Y-15986224D01*
X11961224Y-16005271D01*
X11970748Y-16043366D01*
X11970748Y-16090986D01*
X11961224Y-16129081D01*
X11951700Y-16148128D01*
X11942176Y-16157652D01*
X11923128Y-16167176D01*
X11904081Y-16167176D01*
X11885033Y-16157652D01*
X11875509Y-16148128D01*
X11865986Y-16129081D01*
X11856462Y-16090986D01*
X11856462Y-16043366D01*
X11865986Y-16005271D01*
X11875509Y-15986224D01*
X11885033Y-15976700D01*
X11904081Y-15967176D01*
X12056462Y-16167176D02*
X12056462Y-16033843D01*
X12056462Y-16052890D02*
X12065986Y-16043366D01*
X12085033Y-16033843D01*
X12113605Y-16033843D01*
X12132652Y-16043366D01*
X12142176Y-16062414D01*
X12142176Y-16167176D01*
X12142176Y-16062414D02*
X12151700Y-16043366D01*
X12170748Y-16033843D01*
X12199319Y-16033843D01*
X12218367Y-16043366D01*
X12227890Y-16062414D01*
X12227890Y-16167176D01*
X12323128Y-16167176D02*
X12323128Y-16033843D01*
X12323128Y-16052890D02*
X12332652Y-16043366D01*
X12351700Y-16033843D01*
X12380271Y-16033843D01*
X12399319Y-16043366D01*
X12408843Y-16062414D01*
X12408843Y-16167176D01*
X12408843Y-16062414D02*
X12418367Y-16043366D01*
X12437414Y-16033843D01*
X12465986Y-16033843D01*
X12485033Y-16043366D01*
X12494557Y-16062414D01*
X12494557Y-16167176D01*
X12885033Y-15957652D02*
X12713605Y-16214795D01*
X13142176Y-15967176D02*
X13161224Y-15967176D01*
X13180271Y-15976700D01*
X13189795Y-15986224D01*
X13199319Y-16005271D01*
X13208843Y-16043366D01*
X13208843Y-16090986D01*
X13199319Y-16129081D01*
X13189795Y-16148128D01*
X13180271Y-16157652D01*
X13161224Y-16167176D01*
X13142176Y-16167176D01*
X13123128Y-16157652D01*
X13113605Y-16148128D01*
X13104081Y-16129081D01*
X13094557Y-16090986D01*
X13094557Y-16043366D01*
X13104081Y-16005271D01*
X13113605Y-15986224D01*
X13123128Y-15976700D01*
X13142176Y-15967176D01*
X13294557Y-16148128D02*
X13304081Y-16157652D01*
X13294557Y-16167176D01*
X13285033Y-16157652D01*
X13294557Y-16148128D01*
X13294557Y-16167176D01*
X13427890Y-15967176D02*
X13446938Y-15967176D01*
X13465986Y-15976700D01*
X13475509Y-15986224D01*
X13485033Y-16005271D01*
X13494557Y-16043366D01*
X13494557Y-16090986D01*
X13485033Y-16129081D01*
X13475509Y-16148128D01*
X13465986Y-16157652D01*
X13446938Y-16167176D01*
X13427890Y-16167176D01*
X13408843Y-16157652D01*
X13399319Y-16148128D01*
X13389795Y-16129081D01*
X13380271Y-16090986D01*
X13380271Y-16043366D01*
X13389795Y-16005271D01*
X13399319Y-15986224D01*
X13408843Y-15976700D01*
X13427890Y-15967176D01*
X13608843Y-16052890D02*
X13589795Y-16043366D01*
X13580271Y-16033843D01*
X13570748Y-16014795D01*
X13570748Y-16005271D01*
X13580271Y-15986224D01*
X13589795Y-15976700D01*
X13608843Y-15967176D01*
X13646938Y-15967176D01*
X13665986Y-15976700D01*
X13675509Y-15986224D01*
X13685033Y-16005271D01*
X13685033Y-16014795D01*
X13675509Y-16033843D01*
X13665986Y-16043366D01*
X13646938Y-16052890D01*
X13608843Y-16052890D01*
X13589795Y-16062414D01*
X13580271Y-16071938D01*
X13570748Y-16090986D01*
X13570748Y-16129081D01*
X13580271Y-16148128D01*
X13589795Y-16157652D01*
X13608843Y-16167176D01*
X13646938Y-16167176D01*
X13665986Y-16157652D01*
X13675509Y-16148128D01*
X13685033Y-16129081D01*
X13685033Y-16090986D01*
X13675509Y-16071938D01*
X13665986Y-16062414D01*
X13646938Y-16052890D01*
X13856462Y-15967176D02*
X13818367Y-15967176D01*
X13799319Y-15976700D01*
X13789795Y-15986224D01*
X13770748Y-16014795D01*
X13761224Y-16052890D01*
X13761224Y-16129081D01*
X13770748Y-16148128D01*
X13780271Y-16157652D01*
X13799319Y-16167176D01*
X13837414Y-16167176D01*
X13856462Y-16157652D01*
X13865986Y-16148128D01*
X13875509Y-16129081D01*
X13875509Y-16081462D01*
X13865986Y-16062414D01*
X13856462Y-16052890D01*
X13837414Y-16043366D01*
X13799319Y-16043366D01*
X13780271Y-16052890D01*
X13770748Y-16062414D01*
X13761224Y-16081462D01*
X14046938Y-15967176D02*
X14008843Y-15967176D01*
X13989795Y-15976700D01*
X13980271Y-15986224D01*
X13961224Y-16014795D01*
X13951700Y-16052890D01*
X13951700Y-16129081D01*
X13961224Y-16148128D01*
X13970748Y-16157652D01*
X13989795Y-16167176D01*
X14027890Y-16167176D01*
X14046938Y-16157652D01*
X14056462Y-16148128D01*
X14065986Y-16129081D01*
X14065986Y-16081462D01*
X14056462Y-16062414D01*
X14046938Y-16052890D01*
X14027890Y-16043366D01*
X13989795Y-16043366D01*
X13970748Y-16052890D01*
X13961224Y-16062414D01*
X13951700Y-16081462D01*
X14142176Y-15967176D02*
X14142176Y-16005271D01*
X14218367Y-15967176D02*
X14218367Y-16005271D01*
X14513605Y-16243366D02*
X14504081Y-16233843D01*
X14485033Y-16205271D01*
X14475509Y-16186224D01*
X14465986Y-16157652D01*
X14456462Y-16110033D01*
X14456462Y-16071938D01*
X14465986Y-16024319D01*
X14475509Y-15995747D01*
X14485033Y-15976700D01*
X14504081Y-15948128D01*
X14513605Y-15938605D01*
X14675509Y-15967176D02*
X14637414Y-15967176D01*
X14618367Y-15976700D01*
X14608843Y-15986224D01*
X14589795Y-16014795D01*
X14580271Y-16052890D01*
X14580271Y-16129081D01*
X14589795Y-16148128D01*
X14599319Y-16157652D01*
X14618367Y-16167176D01*
X14656462Y-16167176D01*
X14675509Y-16157652D01*
X14685033Y-16148128D01*
X14694557Y-16129081D01*
X14694557Y-16081462D01*
X14685033Y-16062414D01*
X14675509Y-16052890D01*
X14656462Y-16043366D01*
X14618367Y-16043366D01*
X14599319Y-16052890D01*
X14589795Y-16062414D01*
X14580271Y-16081462D01*
X14932652Y-16167176D02*
X14932652Y-15967176D01*
X15018367Y-16167176D02*
X15018367Y-16062414D01*
X15008843Y-16043366D01*
X14989795Y-16033843D01*
X14961224Y-16033843D01*
X14942176Y-16043366D01*
X14932652Y-16052890D01*
X15142176Y-16167176D02*
X15123128Y-16157652D01*
X15113605Y-16148128D01*
X15104081Y-16129081D01*
X15104081Y-16071938D01*
X15113605Y-16052890D01*
X15123128Y-16043366D01*
X15142176Y-16033843D01*
X15170748Y-16033843D01*
X15189795Y-16043366D01*
X15199319Y-16052890D01*
X15208843Y-16071938D01*
X15208843Y-16129081D01*
X15199319Y-16148128D01*
X15189795Y-16157652D01*
X15170748Y-16167176D01*
X15142176Y-16167176D01*
X15323128Y-16167176D02*
X15304081Y-16157652D01*
X15294557Y-16138605D01*
X15294557Y-15967176D01*
X15475509Y-16157652D02*
X15456462Y-16167176D01*
X15418367Y-16167176D01*
X15399319Y-16157652D01*
X15389795Y-16138605D01*
X15389795Y-16062414D01*
X15399319Y-16043366D01*
X15418367Y-16033843D01*
X15456462Y-16033843D01*
X15475509Y-16043366D01*
X15485033Y-16062414D01*
X15485033Y-16081462D01*
X15389795Y-16100509D01*
X15561224Y-16157652D02*
X15580271Y-16167176D01*
X15618367Y-16167176D01*
X15637414Y-16157652D01*
X15646938Y-16138605D01*
X15646938Y-16129081D01*
X15637414Y-16110033D01*
X15618367Y-16100509D01*
X15589795Y-16100509D01*
X15570748Y-16090986D01*
X15561224Y-16071938D01*
X15561224Y-16062414D01*
X15570748Y-16043366D01*
X15589795Y-16033843D01*
X15618367Y-16033843D01*
X15637414Y-16043366D01*
X15713605Y-16243366D02*
X15723128Y-16233843D01*
X15742176Y-16205271D01*
X15751700Y-16186224D01*
X15761224Y-16157652D01*
X15770748Y-16110033D01*
X15770748Y-16071938D01*
X15761224Y-16024319D01*
X15751700Y-15995747D01*
X15742176Y-15976700D01*
X15723128Y-15948128D01*
X15713605Y-15938605D01*
M02*
