M48
; DRILL file {KiCad (6.0.5)} date Fri Aug 19 15:51:06 2022
; FORMAT={-:-/ absolute / metric / decimal}
; #@! TF.CreationDate,2022-08-19T15:51:06-07:00
; #@! TF.GenerationSoftware,Kicad,Pcbnew,(6.0.5)
; #@! TF.FileFunction,Plated,1,6,PTH
FMAT,2
METRIC
; #@! TA.AperFunction,Plated,PTH,ViaDrill
T1C0.400
; #@! TA.AperFunction,Plated,PTH,ComponentDrill
T2C1.000
; #@! TA.AperFunction,Plated,PTH,ComponentDrill
T3C1.300
; #@! TA.AperFunction,Plated,PTH,ComponentDrill
T4C2.000
; #@! TA.AperFunction,Plated,PTH,ComponentDrill
T5C2.200
%
G90
G05
T1
X105.381Y-56.998
X108.656Y-47.298
X108.831Y-60.673
X109.306Y-55.723
X109.41Y-51.44
X112.126Y-58.005
X112.127Y-51.402
X113.431Y-60.198
X114.156Y-61.673
X114.61Y-51.43
X115.006Y-46.998
X116.031Y-64.073
X117.181Y-66.698
X119.831Y-66.898
X122.216Y-88.266
X124.476Y-108.018
X146.831Y-44.448
X148.256Y-48.073
X153.506Y-48.623
X156.331Y-47.373
X156.581Y-43.748
X159.686Y-100.848
X161.466Y-98.56
X161.469Y-43.623
X162.482Y-48.047
X166.856Y-57.473
X167.781Y-45.873
X168.578Y-55.634
X169.881Y-47.698
X171.046Y-57.558
X171.436Y-52.528
X173.981Y-52.973
X174.481Y-55.123
X174.481Y-57.973
X174.506Y-51.548
X176.731Y-53.873
X177.036Y-50.028
X177.781Y-44.048
X177.926Y-53.698
X178.081Y-48.048
X179.506Y-48.673
X179.778Y-50.22
X179.781Y-58.073
X181.431Y-50.973
T2
X111.092Y-44.998
X113.632Y-44.998
X116.172Y-44.998
X118.712Y-44.998
X121.252Y-44.998
X123.792Y-44.998
T3
X131.838Y-106.168
X139.458Y-106.168
T4
X108.918Y-95.752
X108.918Y-105.058
X117.918Y-95.752
X117.918Y-105.058
X129.226Y-120.078
X129.226Y-129.078
X129.276Y-54.158
X129.276Y-63.158
X166.576Y-95.752
X166.576Y-105.058
X175.576Y-95.752
X175.576Y-105.058
T5
X103.792Y-44.998
X103.792Y-138.998
X142.292Y-44.998
X142.292Y-138.998
X180.792Y-44.998
X180.792Y-138.998
T0
M30
