%TF.GenerationSoftware,KiCad,Pcbnew,(6.0.5)*%
%TF.CreationDate,2022-08-19T15:51:03-07:00*%
%TF.ProjectId,X_Y_Panels,585f595f-5061-46e6-956c-732e6b696361,rev?*%
%TF.SameCoordinates,Original*%
%TF.FileFunction,Soldermask,Top*%
%TF.FilePolarity,Negative*%
%FSLAX46Y46*%
G04 Gerber Fmt 4.6, Leading zero omitted, Abs format (unit mm)*
G04 Created by KiCad (PCBNEW (6.0.5)) date 2022-08-19 15:51:03*
%MOMM*%
%LPD*%
G01*
G04 APERTURE LIST*
G04 Aperture macros list*
%AMRoundRect*
0 Rectangle with rounded corners*
0 $1 Rounding radius*
0 $2 $3 $4 $5 $6 $7 $8 $9 X,Y pos of 4 corners*
0 Add a 4 corners polygon primitive as box body*
4,1,4,$2,$3,$4,$5,$6,$7,$8,$9,$2,$3,0*
0 Add four circle primitives for the rounded corners*
1,1,$1+$1,$2,$3*
1,1,$1+$1,$4,$5*
1,1,$1+$1,$6,$7*
1,1,$1+$1,$8,$9*
0 Add four rect primitives between the rounded corners*
20,1,$1+$1,$2,$3,$4,$5,0*
20,1,$1+$1,$4,$5,$6,$7,0*
20,1,$1+$1,$6,$7,$8,$9,0*
20,1,$1+$1,$8,$9,$2,$3,0*%
G04 Aperture macros list end*
%ADD10C,0.010000*%
%ADD11RoundRect,0.200000X-0.200000X-0.275000X0.200000X-0.275000X0.200000X0.275000X-0.200000X0.275000X0*%
%ADD12RoundRect,0.200000X0.200000X0.275000X-0.200000X0.275000X-0.200000X-0.275000X0.200000X-0.275000X0*%
%ADD13RoundRect,0.200000X0.275000X-0.200000X0.275000X0.200000X-0.275000X0.200000X-0.275000X-0.200000X0*%
%ADD14RoundRect,0.225000X0.250000X-0.225000X0.250000X0.225000X-0.250000X0.225000X-0.250000X-0.225000X0*%
%ADD15C,3.000000*%
%ADD16R,0.740000X0.270000*%
%ADD17R,0.650000X1.350000*%
%ADD18RoundRect,0.200000X-0.275000X0.200000X-0.275000X-0.200000X0.275000X-0.200000X0.275000X0.200000X0*%
%ADD19RoundRect,0.250000X0.325000X0.650000X-0.325000X0.650000X-0.325000X-0.650000X0.325000X-0.650000X0*%
%ADD20C,3.800000*%
%ADD21C,2.600000*%
%ADD22RoundRect,0.250000X-0.325000X-0.650000X0.325000X-0.650000X0.325000X0.650000X-0.325000X0.650000X0*%
%ADD23R,0.600000X0.400000*%
%ADD24RoundRect,0.150000X0.150000X-0.650000X0.150000X0.650000X-0.150000X0.650000X-0.150000X-0.650000X0*%
%ADD25R,3.200000X2.400000*%
%ADD26R,2.500000X1.700000*%
%ADD27R,1.700000X2.500000*%
%ADD28RoundRect,0.225000X-0.225000X-0.250000X0.225000X-0.250000X0.225000X0.250000X-0.225000X0.250000X0*%
%ADD29R,1.570000X1.880000*%
%ADD30R,1.700000X1.700000*%
%ADD31O,1.700000X1.700000*%
%ADD32R,0.650000X0.400000*%
%ADD33R,0.400000X0.650000*%
%ADD34R,0.400000X0.600000*%
G04 APERTURE END LIST*
%TO.C,U1*%
G36*
X110876000Y-58705000D02*
G01*
X109176000Y-58705000D01*
X109176000Y-58305000D01*
X110876000Y-58305000D01*
X110876000Y-58705000D01*
G37*
D10*
X110876000Y-58705000D02*
X109176000Y-58705000D01*
X109176000Y-58305000D01*
X110876000Y-58305000D01*
X110876000Y-58705000D01*
G36*
X115076000Y-57705000D02*
G01*
X113376000Y-57705000D01*
X113376000Y-57305000D01*
X115076000Y-57305000D01*
X115076000Y-57705000D01*
G37*
X115076000Y-57705000D02*
X113376000Y-57705000D01*
X113376000Y-57305000D01*
X115076000Y-57305000D01*
X115076000Y-57705000D01*
G36*
X110876000Y-57205000D02*
G01*
X109176000Y-57205000D01*
X109176000Y-56805000D01*
X110876000Y-56805000D01*
X110876000Y-57205000D01*
G37*
X110876000Y-57205000D02*
X109176000Y-57205000D01*
X109176000Y-56805000D01*
X110876000Y-56805000D01*
X110876000Y-57205000D01*
G36*
X115076000Y-59205000D02*
G01*
X113376000Y-59205000D01*
X113376000Y-58805000D01*
X115076000Y-58805000D01*
X115076000Y-59205000D01*
G37*
X115076000Y-59205000D02*
X113376000Y-59205000D01*
X113376000Y-58805000D01*
X115076000Y-58805000D01*
X115076000Y-59205000D01*
G36*
X110876000Y-58205000D02*
G01*
X109176000Y-58205000D01*
X109176000Y-57805000D01*
X110876000Y-57805000D01*
X110876000Y-58205000D01*
G37*
X110876000Y-58205000D02*
X109176000Y-58205000D01*
X109176000Y-57805000D01*
X110876000Y-57805000D01*
X110876000Y-58205000D01*
G36*
X115076000Y-57205000D02*
G01*
X113376000Y-57205000D01*
X113376000Y-56805000D01*
X115076000Y-56805000D01*
X115076000Y-57205000D01*
G37*
X115076000Y-57205000D02*
X113376000Y-57205000D01*
X113376000Y-56805000D01*
X115076000Y-56805000D01*
X115076000Y-57205000D01*
G36*
X110876000Y-57705000D02*
G01*
X109176000Y-57705000D01*
X109176000Y-57305000D01*
X110876000Y-57305000D01*
X110876000Y-57705000D01*
G37*
X110876000Y-57705000D02*
X109176000Y-57705000D01*
X109176000Y-57305000D01*
X110876000Y-57305000D01*
X110876000Y-57705000D01*
G36*
X115076000Y-58705000D02*
G01*
X113376000Y-58705000D01*
X113376000Y-58305000D01*
X115076000Y-58305000D01*
X115076000Y-58705000D01*
G37*
X115076000Y-58705000D02*
X113376000Y-58705000D01*
X113376000Y-58305000D01*
X115076000Y-58305000D01*
X115076000Y-58705000D01*
G36*
X115076000Y-58205000D02*
G01*
X113376000Y-58205000D01*
X113376000Y-57805000D01*
X115076000Y-57805000D01*
X115076000Y-58205000D01*
G37*
X115076000Y-58205000D02*
X113376000Y-58205000D01*
X113376000Y-57805000D01*
X115076000Y-57805000D01*
X115076000Y-58205000D01*
G36*
X110876000Y-59205000D02*
G01*
X109176000Y-59205000D01*
X109176000Y-58805000D01*
X110876000Y-58805000D01*
X110876000Y-59205000D01*
G37*
X110876000Y-59205000D02*
X109176000Y-59205000D01*
X109176000Y-58805000D01*
X110876000Y-58805000D01*
X110876000Y-59205000D01*
%TD*%
D11*
%TO.C,R14*%
X174581000Y-46876000D03*
X176231000Y-46876000D03*
%TD*%
D12*
%TO.C,R20*%
X165339000Y-56650000D03*
X163689000Y-56650000D03*
%TD*%
D13*
%TO.C,R11*%
X106881000Y-49923000D03*
X106881000Y-48273000D03*
%TD*%
D14*
%TO.C,C6*%
X169848000Y-51075000D03*
X169848000Y-49525000D03*
%TD*%
D15*
%TO.C,SC3*%
X129226000Y-129078000D03*
X129226000Y-120078000D03*
%TD*%
D16*
%TO.C,U3*%
X169869000Y-53714000D03*
X169869000Y-54364000D03*
X169869000Y-55014000D03*
X171859000Y-55014000D03*
X171859000Y-54364000D03*
X171859000Y-53714000D03*
D17*
X170864000Y-54364000D03*
%TD*%
D18*
%TO.C,R4*%
X166038000Y-44458000D03*
X166038000Y-46108000D03*
%TD*%
D19*
%TO.C,C5*%
X119006000Y-48848000D03*
X116056000Y-48848000D03*
%TD*%
D20*
%TO.C,H30*%
X180792000Y-138997997D03*
D21*
X180792000Y-138997997D03*
%TD*%
D22*
%TO.C,C3*%
X116056000Y-53923000D03*
X119006000Y-53923000D03*
%TD*%
D23*
%TO.C,Q3*%
X177881000Y-52373000D03*
X177881000Y-51723000D03*
X177881000Y-51073000D03*
X175981000Y-51073000D03*
X175981000Y-51723000D03*
X175981000Y-52373000D03*
%TD*%
D15*
%TO.C,SC2*%
X108918000Y-105058000D03*
X117918000Y-105058000D03*
%TD*%
D12*
%TO.C,R12*%
X176231000Y-45098000D03*
X174581000Y-45098000D03*
%TD*%
D13*
%TO.C,R5*%
X150036000Y-46108000D03*
X150036000Y-44458000D03*
%TD*%
D24*
%TO.C,U2*%
X110221000Y-54051000D03*
X111491000Y-54051000D03*
X112761000Y-54051000D03*
X114031000Y-54051000D03*
X114031000Y-48751000D03*
X112761000Y-48751000D03*
X111491000Y-48751000D03*
X110221000Y-48751000D03*
D25*
X112126000Y-51401000D03*
%TD*%
D13*
%TO.C,R3*%
X164260000Y-46108000D03*
X164260000Y-44458000D03*
%TD*%
D26*
%TO.C,D6*%
X175786000Y-62058000D03*
X179786000Y-62058000D03*
%TD*%
D27*
%TO.C,D1*%
X157402000Y-100848000D03*
X157402000Y-96848000D03*
%TD*%
D13*
%TO.C,R10*%
X106881000Y-52971000D03*
X106881000Y-51321000D03*
%TD*%
D28*
%TO.C,C2*%
X179831000Y-56176000D03*
X181381000Y-56176000D03*
%TD*%
D29*
%TO.C,U1*%
X112126000Y-58005000D03*
%TD*%
D22*
%TO.C,C4*%
X116056000Y-51383000D03*
X119006000Y-51383000D03*
%TD*%
D26*
%TO.C,D2*%
X108406000Y-62973000D03*
X104406000Y-62973000D03*
%TD*%
D20*
%TO.C,H29*%
X142292000Y-138997997D03*
D21*
X142292000Y-138997997D03*
%TD*%
D11*
%TO.C,R22*%
X163689000Y-53094000D03*
X165339000Y-53094000D03*
%TD*%
%TO.C,R7*%
X179778000Y-52617000D03*
X181428000Y-52617000D03*
%TD*%
D30*
%TO.C,J6*%
X123792000Y-44997997D03*
D31*
X121252000Y-44997997D03*
X118712000Y-44997997D03*
X116172000Y-44997997D03*
X113632000Y-44997997D03*
X111092000Y-44997997D03*
%TD*%
D14*
%TO.C,C1*%
X151814000Y-46058000D03*
X151814000Y-44508000D03*
%TD*%
D18*
%TO.C,R8*%
X106881000Y-54623000D03*
X106881000Y-56273000D03*
%TD*%
D27*
%TO.C,D3*%
X126976000Y-96848000D03*
X126976000Y-100848000D03*
%TD*%
D12*
%TO.C,R13*%
X177756000Y-58073000D03*
X176106000Y-58073000D03*
%TD*%
D15*
%TO.C,SC1*%
X117918000Y-95752000D03*
X108918000Y-95752000D03*
%TD*%
D18*
%TO.C,R17*%
X117656000Y-59773000D03*
X117656000Y-61423000D03*
%TD*%
D32*
%TO.C,Q4*%
X177881000Y-56183000D03*
X177881000Y-55533000D03*
X177881000Y-54883000D03*
X175981000Y-54883000D03*
X175981000Y-55533000D03*
X175981000Y-56183000D03*
%TD*%
D15*
%TO.C,SC5*%
X166576000Y-105058000D03*
X175576000Y-105058000D03*
%TD*%
D20*
%TO.C,H25*%
X103792000Y-44997997D03*
D21*
X103792000Y-44997997D03*
%TD*%
D18*
%TO.C,R9*%
X106881000Y-57671000D03*
X106881000Y-59321000D03*
%TD*%
D11*
%TO.C,R16*%
X179781000Y-54398000D03*
X181431000Y-54398000D03*
%TD*%
D33*
%TO.C,Q2*%
X158581000Y-44748000D03*
X157931000Y-44748000D03*
X157281000Y-44748000D03*
X157281000Y-46648000D03*
X157931000Y-46648000D03*
X158581000Y-46648000D03*
%TD*%
D34*
%TO.C,Q1*%
X153704000Y-46498000D03*
X154354000Y-46498000D03*
X155004000Y-46498000D03*
X155004000Y-44598000D03*
X154354000Y-44598000D03*
X153704000Y-44598000D03*
%TD*%
D12*
%TO.C,R15*%
X176231000Y-48654000D03*
X174581000Y-48654000D03*
%TD*%
D13*
%TO.C,R2*%
X160450000Y-46108000D03*
X160450000Y-44458000D03*
%TD*%
D12*
%TO.C,R21*%
X165339000Y-58428000D03*
X163689000Y-58428000D03*
%TD*%
D13*
%TO.C,R6*%
X148256000Y-46098000D03*
X148256000Y-44448000D03*
%TD*%
D20*
%TO.C,H26*%
X142292000Y-44997997D03*
D21*
X142292000Y-44997997D03*
%TD*%
%TO.C,H28*%
X103792000Y-138997997D03*
D20*
X103792000Y-138997997D03*
%TD*%
D27*
%TO.C,D7*%
X157402000Y-108188000D03*
X157402000Y-104188000D03*
%TD*%
%TO.C,D4*%
X126956000Y-104188000D03*
X126956000Y-108188000D03*
%TD*%
D15*
%TO.C,SC4*%
X129276000Y-63158000D03*
X129276000Y-54158000D03*
%TD*%
D20*
%TO.C,H27*%
X180792000Y-44997997D03*
D21*
X180792000Y-44997997D03*
%TD*%
D11*
%TO.C,R19*%
X163689000Y-54872000D03*
X165339000Y-54872000D03*
%TD*%
D18*
%TO.C,R1*%
X162482000Y-44458000D03*
X162482000Y-46108000D03*
%TD*%
%TO.C,R18*%
X119456000Y-59773000D03*
X119456000Y-61423000D03*
%TD*%
D21*
%TO.C,TP5*%
X131838000Y-106167998D03*
X139458000Y-106167998D03*
%TD*%
D27*
%TO.C,D5*%
X122216000Y-62628000D03*
X122216000Y-58628000D03*
%TD*%
D15*
%TO.C,SC6*%
X175576000Y-95752000D03*
X166576000Y-95752000D03*
%TD*%
M02*
