%TF.GenerationSoftware,KiCad,Pcbnew,(6.0.5)*%
%TF.CreationDate,2022-08-19T15:51:03-07:00*%
%TF.ProjectId,X_Y_Panels,585f595f-5061-46e6-956c-732e6b696361,rev?*%
%TF.SameCoordinates,Original*%
%TF.FileFunction,Copper,L5,Inr*%
%TF.FilePolarity,Positive*%
%FSLAX46Y46*%
G04 Gerber Fmt 4.6, Leading zero omitted, Abs format (unit mm)*
G04 Created by KiCad (PCBNEW (6.0.5)) date 2022-08-19 15:51:03*
%MOMM*%
%LPD*%
G01*
G04 APERTURE LIST*
%TA.AperFunction,ComponentPad*%
%ADD10C,3.000000*%
%TD*%
%TA.AperFunction,ComponentPad*%
%ADD11C,2.600000*%
%TD*%
%TA.AperFunction,ComponentPad*%
%ADD12R,1.700000X1.700000*%
%TD*%
%TA.AperFunction,ComponentPad*%
%ADD13O,1.700000X1.700000*%
%TD*%
%TA.AperFunction,ViaPad*%
%ADD14C,0.800000*%
%TD*%
%TA.AperFunction,Conductor*%
%ADD15C,0.500000*%
%TD*%
G04 APERTURE END LIST*
D10*
%TO.N,Net-(D3-Pad2)*%
%TO.C,SC3*%
X129226000Y-129078000D03*
%TO.N,Net-(D4-Pad2)*%
X129226000Y-120078000D03*
%TD*%
D11*
%TO.N,GND*%
%TO.C,H30*%
X180792000Y-138997997D03*
%TD*%
D10*
%TO.N,Net-(D2-Pad2)*%
%TO.C,SC2*%
X108918000Y-105058000D03*
%TO.N,Net-(D3-Pad2)*%
X117918000Y-105058000D03*
%TD*%
D11*
%TO.N,GND*%
%TO.C,H29*%
X142292000Y-138997997D03*
%TD*%
D12*
%TO.N,VBATT*%
%TO.C,J6*%
X123792000Y-44997997D03*
D13*
%TO.N,+3V3*%
X121252000Y-44997997D03*
%TO.N,GND*%
X118712000Y-44997997D03*
%TO.N,SDA*%
X116172000Y-44997997D03*
%TO.N,SCL*%
X113632000Y-44997997D03*
%TO.N,VSOLAR*%
X111092000Y-44997997D03*
%TD*%
D10*
%TO.N,Net-(D1-Pad2)*%
%TO.C,SC1*%
X117918000Y-95752000D03*
%TO.N,Net-(D2-Pad2)*%
X108918000Y-95752000D03*
%TD*%
%TO.N,Net-(D5-Pad2)*%
%TO.C,SC5*%
X166576000Y-105058000D03*
%TO.N,Net-(D6-Pad2)*%
X175576000Y-105058000D03*
%TD*%
D11*
%TO.N,GND*%
%TO.C,H25*%
X103792000Y-44997997D03*
%TD*%
%TO.N,GND*%
%TO.C,H26*%
X142292000Y-44997997D03*
%TD*%
%TO.N,GND*%
%TO.C,H28*%
X103792000Y-138997997D03*
%TD*%
D10*
%TO.N,Net-(D4-Pad2)*%
%TO.C,SC4*%
X129276000Y-63158000D03*
%TO.N,Net-(D5-Pad2)*%
X129276000Y-54158000D03*
%TD*%
D11*
%TO.N,GND*%
%TO.C,H27*%
X180792000Y-44997997D03*
%TD*%
%TO.N,Coil_IN*%
%TO.C,TP5*%
X131838000Y-106167998D03*
%TO.N,Coil_OUT*%
X139458000Y-106167998D03*
%TD*%
D10*
%TO.N,Net-(D6-Pad2)*%
%TO.C,SC6*%
X175576000Y-95752000D03*
%TO.N,GND*%
X166576000Y-95752000D03*
%TD*%
D14*
%TO.N,GND*%
X114610000Y-51430000D03*
X109410000Y-51440000D03*
X112126000Y-58005000D03*
X112127500Y-51402500D03*
X156331000Y-47373000D03*
X169881000Y-47698000D03*
X177036000Y-50028000D03*
X113431000Y-60198000D03*
X177926000Y-53698000D03*
X171436000Y-52528000D03*
X109306000Y-55723000D03*
X105381000Y-56998000D03*
X168578000Y-55634000D03*
X171046000Y-57558000D03*
%TO.N,VBATT*%
X115006000Y-46998000D03*
X108656000Y-47298000D03*
%TO.N,+3V3*%
X108831000Y-60673000D03*
X162482000Y-48047000D03*
%TO.N,SDA*%
X179778000Y-50220000D03*
X179781000Y-58073000D03*
%TO.N,SCL*%
X156581000Y-43748000D03*
X148256000Y-48073000D03*
%TO.N,Net-(Q1-Pad2)*%
X153506000Y-48623000D03*
X161468500Y-43623000D03*
%TO.N,Net-(Q3-Pad3)*%
X177781000Y-44048000D03*
X179506000Y-48673000D03*
%TO.N,Net-(Q3-Pad6)*%
X174481000Y-57973000D03*
X174481000Y-55123000D03*
X178081000Y-48048000D03*
X174506000Y-51548000D03*
%TO.N,Coil_IN*%
X117181000Y-66698000D03*
%TO.N,Coil_OUT*%
X119831000Y-66898000D03*
%TO.N,Net-(D1-Pad2)*%
X161466000Y-98560000D03*
%TO.N,Net-(D4-Pad2)*%
X124476000Y-108018000D03*
X122216000Y-88266000D03*
%TO.N,VSOLAR*%
X159686000Y-100848000D03*
%TO.N,SCL_ISO*%
X146831000Y-44448000D03*
X167781000Y-45873000D03*
X166856000Y-57473000D03*
X114156000Y-61673000D03*
%TO.N,SDA_ISO*%
X176731000Y-53873000D03*
X181431000Y-50973000D03*
X116031000Y-64073000D03*
X173981000Y-52973000D03*
%TD*%
D15*
%TO.N,SDA*%
X116172000Y-46414000D02*
X119285511Y-49527511D01*
X116172000Y-44997997D02*
X116172000Y-46414000D01*
X177686000Y-49048000D02*
X178606000Y-49048000D01*
X119285511Y-49527511D02*
X174326489Y-49527511D01*
X175476000Y-48378000D02*
X177016000Y-48378000D01*
X178606000Y-49048000D02*
X179778000Y-50220000D01*
X174326489Y-49527511D02*
X175476000Y-48378000D01*
X177016000Y-48378000D02*
X177686000Y-49048000D01*
%TD*%
%TA.AperFunction,Conductor*%
%TO.N,GND*%
G36*
X156240752Y-42898709D02*
G01*
X156297715Y-42949175D01*
X156324702Y-43020332D01*
X156315529Y-43095879D01*
X156272298Y-43158510D01*
X156239787Y-43180787D01*
X156207017Y-43197701D01*
X156086548Y-43302793D01*
X155994624Y-43433588D01*
X155936552Y-43582534D01*
X155915685Y-43741033D01*
X155916736Y-43750553D01*
X155916736Y-43750556D01*
X155924901Y-43824507D01*
X155933228Y-43899933D01*
X155988168Y-44050063D01*
X155993511Y-44058015D01*
X155993512Y-44058016D01*
X156068707Y-44169917D01*
X156077333Y-44182754D01*
X156195575Y-44290346D01*
X156203991Y-44294915D01*
X156203993Y-44294917D01*
X156327645Y-44362055D01*
X156327647Y-44362056D01*
X156336068Y-44366628D01*
X156405573Y-44384862D01*
X156451982Y-44397037D01*
X156490702Y-44407195D01*
X156500281Y-44407345D01*
X156500285Y-44407346D01*
X156574405Y-44408510D01*
X156650548Y-44409706D01*
X156660853Y-44407346D01*
X156734035Y-44390585D01*
X156806380Y-44374016D01*
X156949200Y-44302185D01*
X157070763Y-44198360D01*
X157164052Y-44068535D01*
X157223680Y-43920206D01*
X157246205Y-43761934D01*
X157246351Y-43748000D01*
X157227145Y-43589292D01*
X157170636Y-43439746D01*
X157164849Y-43431325D01*
X157085514Y-43315891D01*
X157085513Y-43315890D01*
X157080087Y-43307995D01*
X157067175Y-43296491D01*
X156967880Y-43208022D01*
X156967876Y-43208019D01*
X156960725Y-43201648D01*
X156952259Y-43197165D01*
X156952254Y-43197162D01*
X156919869Y-43180015D01*
X156863089Y-43129343D01*
X156836362Y-43058089D01*
X156845809Y-42982575D01*
X156889267Y-42920102D01*
X156956781Y-42884980D01*
X156994271Y-42880497D01*
X160890709Y-42880497D01*
X160964600Y-42898709D01*
X161021563Y-42949175D01*
X161048550Y-43020332D01*
X161039377Y-43095879D01*
X160995234Y-43159311D01*
X160974048Y-43177793D01*
X160882124Y-43308588D01*
X160878642Y-43317520D01*
X160878641Y-43317521D01*
X160834065Y-43431852D01*
X160824052Y-43457534D01*
X160803185Y-43616033D01*
X160804236Y-43625553D01*
X160804236Y-43625556D01*
X160817832Y-43748706D01*
X160820728Y-43774933D01*
X160875668Y-43925063D01*
X160881011Y-43933015D01*
X160881012Y-43933016D01*
X160958279Y-44048000D01*
X160964833Y-44057754D01*
X161083075Y-44165346D01*
X161091491Y-44169915D01*
X161091493Y-44169917D01*
X161215145Y-44237055D01*
X161215147Y-44237056D01*
X161223568Y-44241628D01*
X161378202Y-44282195D01*
X161387781Y-44282345D01*
X161387785Y-44282346D01*
X161461905Y-44283510D01*
X161538048Y-44284706D01*
X161548353Y-44282346D01*
X161656487Y-44257580D01*
X161693880Y-44249016D01*
X161836700Y-44177185D01*
X161899755Y-44123331D01*
X161950970Y-44079589D01*
X161950971Y-44079588D01*
X161958263Y-44073360D01*
X161981492Y-44041033D01*
X177115685Y-44041033D01*
X177116736Y-44050553D01*
X177116736Y-44050556D01*
X177131192Y-44181493D01*
X177133228Y-44199933D01*
X177188168Y-44350063D01*
X177193511Y-44358015D01*
X177193512Y-44358016D01*
X177259846Y-44456730D01*
X177277333Y-44482754D01*
X177395575Y-44590346D01*
X177403991Y-44594915D01*
X177403993Y-44594917D01*
X177527645Y-44662055D01*
X177527647Y-44662056D01*
X177536068Y-44666628D01*
X177690702Y-44707195D01*
X177700281Y-44707345D01*
X177700285Y-44707346D01*
X177774405Y-44708510D01*
X177850548Y-44709706D01*
X177860853Y-44707346D01*
X177885828Y-44701626D01*
X178006380Y-44674016D01*
X178149200Y-44602185D01*
X178270763Y-44498360D01*
X178364052Y-44368535D01*
X178423680Y-44220206D01*
X178446205Y-44061934D01*
X178446351Y-44048000D01*
X178427145Y-43889292D01*
X178370636Y-43739746D01*
X178365976Y-43732966D01*
X179889647Y-43732966D01*
X179889972Y-43734682D01*
X179894700Y-43741487D01*
X180778349Y-44625136D01*
X180792315Y-44633579D01*
X180801212Y-44629575D01*
X181685693Y-43745094D01*
X181694136Y-43731128D01*
X181693420Y-43729537D01*
X181687230Y-43724020D01*
X181505006Y-43612354D01*
X181493917Y-43606704D01*
X181279467Y-43517875D01*
X181267624Y-43514027D01*
X181041930Y-43459842D01*
X181029619Y-43457893D01*
X180798226Y-43439682D01*
X180785774Y-43439682D01*
X180554381Y-43457893D01*
X180542070Y-43459842D01*
X180316376Y-43514027D01*
X180304533Y-43517875D01*
X180090083Y-43606704D01*
X180078994Y-43612354D01*
X179901117Y-43721356D01*
X179889647Y-43732966D01*
X178365976Y-43732966D01*
X178296400Y-43631730D01*
X178285514Y-43615891D01*
X178285513Y-43615890D01*
X178280087Y-43607995D01*
X178267175Y-43596491D01*
X178167880Y-43508022D01*
X178167876Y-43508019D01*
X178160725Y-43501648D01*
X178019440Y-43426841D01*
X177864391Y-43387895D01*
X177784458Y-43387476D01*
X177714107Y-43387108D01*
X177714106Y-43387108D01*
X177704526Y-43387058D01*
X177656131Y-43398677D01*
X177558397Y-43422140D01*
X177558393Y-43422141D01*
X177549077Y-43424378D01*
X177540562Y-43428773D01*
X177540559Y-43428774D01*
X177415530Y-43493307D01*
X177407017Y-43497701D01*
X177399798Y-43503999D01*
X177399796Y-43504000D01*
X177293772Y-43596491D01*
X177286548Y-43602793D01*
X177194624Y-43733588D01*
X177191142Y-43742520D01*
X177191141Y-43742521D01*
X177172540Y-43790229D01*
X177136552Y-43882534D01*
X177115685Y-44041033D01*
X161981492Y-44041033D01*
X162051552Y-43943535D01*
X162111180Y-43795206D01*
X162133705Y-43636934D01*
X162133851Y-43623000D01*
X162114645Y-43464292D01*
X162058136Y-43314746D01*
X161984788Y-43208022D01*
X161973014Y-43190891D01*
X161973013Y-43190890D01*
X161967587Y-43182995D01*
X161939772Y-43158213D01*
X161896717Y-43095461D01*
X161887757Y-43019888D01*
X161914943Y-42948807D01*
X161972049Y-42898502D01*
X162045543Y-42880497D01*
X182750500Y-42880497D01*
X182824391Y-42898709D01*
X182881354Y-42949175D01*
X182908341Y-43020332D01*
X182909500Y-43039497D01*
X182909500Y-140956497D01*
X182891288Y-141030388D01*
X182840822Y-141087351D01*
X182769665Y-141114338D01*
X182750500Y-141115497D01*
X101833606Y-141115497D01*
X101759715Y-141097285D01*
X101702752Y-141046819D01*
X101675765Y-140975662D01*
X101674606Y-140956466D01*
X101674685Y-140556312D01*
X101674742Y-140264866D01*
X102889864Y-140264866D01*
X102890580Y-140266457D01*
X102896770Y-140271974D01*
X103078994Y-140383640D01*
X103090083Y-140389290D01*
X103304533Y-140478119D01*
X103316376Y-140481967D01*
X103542070Y-140536152D01*
X103554381Y-140538101D01*
X103785774Y-140556312D01*
X103798226Y-140556312D01*
X104029619Y-140538101D01*
X104041930Y-140536152D01*
X104267624Y-140481967D01*
X104279467Y-140478119D01*
X104493917Y-140389290D01*
X104505006Y-140383640D01*
X104682883Y-140274638D01*
X104692537Y-140264866D01*
X141389864Y-140264866D01*
X141390580Y-140266457D01*
X141396770Y-140271974D01*
X141578994Y-140383640D01*
X141590083Y-140389290D01*
X141804533Y-140478119D01*
X141816376Y-140481967D01*
X142042070Y-140536152D01*
X142054381Y-140538101D01*
X142285774Y-140556312D01*
X142298226Y-140556312D01*
X142529619Y-140538101D01*
X142541930Y-140536152D01*
X142767624Y-140481967D01*
X142779467Y-140478119D01*
X142993917Y-140389290D01*
X143005006Y-140383640D01*
X143182883Y-140274638D01*
X143192537Y-140264866D01*
X179889864Y-140264866D01*
X179890580Y-140266457D01*
X179896770Y-140271974D01*
X180078994Y-140383640D01*
X180090083Y-140389290D01*
X180304533Y-140478119D01*
X180316376Y-140481967D01*
X180542070Y-140536152D01*
X180554381Y-140538101D01*
X180785774Y-140556312D01*
X180798226Y-140556312D01*
X181029619Y-140538101D01*
X181041930Y-140536152D01*
X181267624Y-140481967D01*
X181279467Y-140478119D01*
X181493917Y-140389290D01*
X181505006Y-140383640D01*
X181682883Y-140274638D01*
X181694353Y-140263028D01*
X181694028Y-140261312D01*
X181689300Y-140254507D01*
X180805651Y-139370858D01*
X180791685Y-139362415D01*
X180782788Y-139366419D01*
X179898307Y-140250900D01*
X179889864Y-140264866D01*
X143192537Y-140264866D01*
X143194353Y-140263028D01*
X143194028Y-140261312D01*
X143189300Y-140254507D01*
X142305651Y-139370858D01*
X142291685Y-139362415D01*
X142282788Y-139366419D01*
X141398307Y-140250900D01*
X141389864Y-140264866D01*
X104692537Y-140264866D01*
X104694353Y-140263028D01*
X104694028Y-140261312D01*
X104689300Y-140254507D01*
X103805651Y-139370858D01*
X103791685Y-139362415D01*
X103782788Y-139366419D01*
X102898307Y-140250900D01*
X102889864Y-140264866D01*
X101674742Y-140264866D01*
X101674989Y-139004223D01*
X102233685Y-139004223D01*
X102251896Y-139235616D01*
X102253845Y-139247927D01*
X102308030Y-139473621D01*
X102311878Y-139485464D01*
X102400707Y-139699914D01*
X102406357Y-139711003D01*
X102515359Y-139888880D01*
X102526969Y-139900350D01*
X102528685Y-139900025D01*
X102535490Y-139895297D01*
X103419139Y-139011648D01*
X103427201Y-138998312D01*
X104156418Y-138998312D01*
X104160422Y-139007209D01*
X105044903Y-139891690D01*
X105058869Y-139900133D01*
X105060460Y-139899417D01*
X105065977Y-139893227D01*
X105177643Y-139711003D01*
X105183293Y-139699914D01*
X105272122Y-139485464D01*
X105275970Y-139473621D01*
X105330155Y-139247927D01*
X105332104Y-139235616D01*
X105350315Y-139004223D01*
X140733685Y-139004223D01*
X140751896Y-139235616D01*
X140753845Y-139247927D01*
X140808030Y-139473621D01*
X140811878Y-139485464D01*
X140900707Y-139699914D01*
X140906357Y-139711003D01*
X141015359Y-139888880D01*
X141026969Y-139900350D01*
X141028685Y-139900025D01*
X141035490Y-139895297D01*
X141919139Y-139011648D01*
X141927201Y-138998312D01*
X142656418Y-138998312D01*
X142660422Y-139007209D01*
X143544903Y-139891690D01*
X143558869Y-139900133D01*
X143560460Y-139899417D01*
X143565977Y-139893227D01*
X143677643Y-139711003D01*
X143683293Y-139699914D01*
X143772122Y-139485464D01*
X143775970Y-139473621D01*
X143830155Y-139247927D01*
X143832104Y-139235616D01*
X143850315Y-139004223D01*
X179233685Y-139004223D01*
X179251896Y-139235616D01*
X179253845Y-139247927D01*
X179308030Y-139473621D01*
X179311878Y-139485464D01*
X179400707Y-139699914D01*
X179406357Y-139711003D01*
X179515359Y-139888880D01*
X179526969Y-139900350D01*
X179528685Y-139900025D01*
X179535490Y-139895297D01*
X180419139Y-139011648D01*
X180427201Y-138998312D01*
X181156418Y-138998312D01*
X181160422Y-139007209D01*
X182044903Y-139891690D01*
X182058869Y-139900133D01*
X182060460Y-139899417D01*
X182065977Y-139893227D01*
X182177643Y-139711003D01*
X182183293Y-139699914D01*
X182272122Y-139485464D01*
X182275970Y-139473621D01*
X182330155Y-139247927D01*
X182332104Y-139235616D01*
X182350315Y-139004223D01*
X182350315Y-138991771D01*
X182332104Y-138760378D01*
X182330155Y-138748067D01*
X182275970Y-138522373D01*
X182272122Y-138510530D01*
X182183293Y-138296080D01*
X182177643Y-138284991D01*
X182068641Y-138107114D01*
X182057031Y-138095644D01*
X182055315Y-138095969D01*
X182048510Y-138100697D01*
X181164861Y-138984346D01*
X181156418Y-138998312D01*
X180427201Y-138998312D01*
X180427582Y-138997682D01*
X180423578Y-138988785D01*
X179539097Y-138104304D01*
X179525131Y-138095861D01*
X179523540Y-138096577D01*
X179518023Y-138102767D01*
X179406357Y-138284991D01*
X179400707Y-138296080D01*
X179311878Y-138510530D01*
X179308030Y-138522373D01*
X179253845Y-138748067D01*
X179251896Y-138760378D01*
X179233685Y-138991771D01*
X179233685Y-139004223D01*
X143850315Y-139004223D01*
X143850315Y-138991771D01*
X143832104Y-138760378D01*
X143830155Y-138748067D01*
X143775970Y-138522373D01*
X143772122Y-138510530D01*
X143683293Y-138296080D01*
X143677643Y-138284991D01*
X143568641Y-138107114D01*
X143557031Y-138095644D01*
X143555315Y-138095969D01*
X143548510Y-138100697D01*
X142664861Y-138984346D01*
X142656418Y-138998312D01*
X141927201Y-138998312D01*
X141927582Y-138997682D01*
X141923578Y-138988785D01*
X141039097Y-138104304D01*
X141025131Y-138095861D01*
X141023540Y-138096577D01*
X141018023Y-138102767D01*
X140906357Y-138284991D01*
X140900707Y-138296080D01*
X140811878Y-138510530D01*
X140808030Y-138522373D01*
X140753845Y-138748067D01*
X140751896Y-138760378D01*
X140733685Y-138991771D01*
X140733685Y-139004223D01*
X105350315Y-139004223D01*
X105350315Y-138991771D01*
X105332104Y-138760378D01*
X105330155Y-138748067D01*
X105275970Y-138522373D01*
X105272122Y-138510530D01*
X105183293Y-138296080D01*
X105177643Y-138284991D01*
X105068641Y-138107114D01*
X105057031Y-138095644D01*
X105055315Y-138095969D01*
X105048510Y-138100697D01*
X104164861Y-138984346D01*
X104156418Y-138998312D01*
X103427201Y-138998312D01*
X103427582Y-138997682D01*
X103423578Y-138988785D01*
X102539097Y-138104304D01*
X102525131Y-138095861D01*
X102523540Y-138096577D01*
X102518023Y-138102767D01*
X102406357Y-138284991D01*
X102400707Y-138296080D01*
X102311878Y-138510530D01*
X102308030Y-138522373D01*
X102253845Y-138748067D01*
X102251896Y-138760378D01*
X102233685Y-138991771D01*
X102233685Y-139004223D01*
X101674989Y-139004223D01*
X101675238Y-137732966D01*
X102889647Y-137732966D01*
X102889972Y-137734682D01*
X102894700Y-137741487D01*
X103778349Y-138625136D01*
X103792315Y-138633579D01*
X103801212Y-138629575D01*
X104685693Y-137745094D01*
X104693025Y-137732966D01*
X141389647Y-137732966D01*
X141389972Y-137734682D01*
X141394700Y-137741487D01*
X142278349Y-138625136D01*
X142292315Y-138633579D01*
X142301212Y-138629575D01*
X143185693Y-137745094D01*
X143193025Y-137732966D01*
X179889647Y-137732966D01*
X179889972Y-137734682D01*
X179894700Y-137741487D01*
X180778349Y-138625136D01*
X180792315Y-138633579D01*
X180801212Y-138629575D01*
X181685693Y-137745094D01*
X181694136Y-137731128D01*
X181693420Y-137729537D01*
X181687230Y-137724020D01*
X181505006Y-137612354D01*
X181493917Y-137606704D01*
X181279467Y-137517875D01*
X181267624Y-137514027D01*
X181041930Y-137459842D01*
X181029619Y-137457893D01*
X180798226Y-137439682D01*
X180785774Y-137439682D01*
X180554381Y-137457893D01*
X180542070Y-137459842D01*
X180316376Y-137514027D01*
X180304533Y-137517875D01*
X180090083Y-137606704D01*
X180078994Y-137612354D01*
X179901117Y-137721356D01*
X179889647Y-137732966D01*
X143193025Y-137732966D01*
X143194136Y-137731128D01*
X143193420Y-137729537D01*
X143187230Y-137724020D01*
X143005006Y-137612354D01*
X142993917Y-137606704D01*
X142779467Y-137517875D01*
X142767624Y-137514027D01*
X142541930Y-137459842D01*
X142529619Y-137457893D01*
X142298226Y-137439682D01*
X142285774Y-137439682D01*
X142054381Y-137457893D01*
X142042070Y-137459842D01*
X141816376Y-137514027D01*
X141804533Y-137517875D01*
X141590083Y-137606704D01*
X141578994Y-137612354D01*
X141401117Y-137721356D01*
X141389647Y-137732966D01*
X104693025Y-137732966D01*
X104694136Y-137731128D01*
X104693420Y-137729537D01*
X104687230Y-137724020D01*
X104505006Y-137612354D01*
X104493917Y-137606704D01*
X104279467Y-137517875D01*
X104267624Y-137514027D01*
X104041930Y-137459842D01*
X104029619Y-137457893D01*
X103798226Y-137439682D01*
X103785774Y-137439682D01*
X103554381Y-137457893D01*
X103542070Y-137459842D01*
X103316376Y-137514027D01*
X103304533Y-137517875D01*
X103090083Y-137606704D01*
X103078994Y-137612354D01*
X102901117Y-137721356D01*
X102889647Y-137732966D01*
X101675238Y-137732966D01*
X101676942Y-129031786D01*
X127461168Y-129031786D01*
X127473722Y-129293153D01*
X127524771Y-129549793D01*
X127613193Y-129796068D01*
X127737046Y-130026569D01*
X127893608Y-130236231D01*
X127897794Y-130240380D01*
X127897796Y-130240383D01*
X128075256Y-130416302D01*
X128075261Y-130416306D01*
X128079440Y-130420449D01*
X128191281Y-130502454D01*
X128285702Y-130571686D01*
X128285706Y-130571688D01*
X128290461Y-130575175D01*
X128295677Y-130577919D01*
X128295683Y-130577923D01*
X128516814Y-130694266D01*
X128516818Y-130694268D01*
X128522034Y-130697012D01*
X128769071Y-130783281D01*
X129026147Y-130832089D01*
X129032049Y-130832321D01*
X129032050Y-130832321D01*
X129074600Y-130833993D01*
X129287613Y-130842362D01*
X129547725Y-130813875D01*
X129553425Y-130812374D01*
X129553432Y-130812373D01*
X129795066Y-130748755D01*
X129795069Y-130748754D01*
X129800770Y-130747253D01*
X130041188Y-130643962D01*
X130046203Y-130640858D01*
X130046208Y-130640856D01*
X130171981Y-130563025D01*
X130263698Y-130506269D01*
X130268201Y-130502457D01*
X130268205Y-130502454D01*
X130458912Y-130341008D01*
X130458914Y-130341006D01*
X130463411Y-130337199D01*
X130635941Y-130140467D01*
X130777496Y-129920394D01*
X130884968Y-129681815D01*
X130955995Y-129429972D01*
X130989018Y-129170396D01*
X130991437Y-129078000D01*
X130972045Y-128817052D01*
X130961723Y-128771435D01*
X130915600Y-128567597D01*
X130915598Y-128567592D01*
X130914296Y-128561836D01*
X130819457Y-128317960D01*
X130795766Y-128276508D01*
X130692545Y-128095908D01*
X130692544Y-128095907D01*
X130689614Y-128090780D01*
X130527617Y-127885288D01*
X130337026Y-127705998D01*
X130122027Y-127556848D01*
X130014174Y-127503661D01*
X129892631Y-127443722D01*
X129892628Y-127443721D01*
X129887344Y-127441115D01*
X129881732Y-127439318D01*
X129881728Y-127439317D01*
X129643747Y-127363139D01*
X129643746Y-127363139D01*
X129638133Y-127361342D01*
X129585628Y-127352791D01*
X129385697Y-127320230D01*
X129385693Y-127320230D01*
X129379868Y-127319281D01*
X129249046Y-127317569D01*
X129124129Y-127315933D01*
X129124125Y-127315933D01*
X129118223Y-127315856D01*
X129020756Y-127329121D01*
X128864785Y-127350347D01*
X128864782Y-127350348D01*
X128858945Y-127351142D01*
X128853292Y-127352790D01*
X128853286Y-127352791D01*
X128733338Y-127387753D01*
X128607731Y-127424364D01*
X128602383Y-127426830D01*
X128602379Y-127426831D01*
X128375458Y-127531443D01*
X128375453Y-127531446D01*
X128370099Y-127533914D01*
X128365166Y-127537148D01*
X128365161Y-127537151D01*
X128156204Y-127674150D01*
X128151270Y-127677385D01*
X127956051Y-127851624D01*
X127788730Y-128052806D01*
X127652984Y-128276508D01*
X127551794Y-128517819D01*
X127487384Y-128771435D01*
X127461168Y-129031786D01*
X101676942Y-129031786D01*
X101678352Y-121832089D01*
X101678488Y-121139322D01*
X101678491Y-121139174D01*
X101678500Y-121139070D01*
X101678500Y-121076929D01*
X101678506Y-121046298D01*
X101678500Y-121046262D01*
X101678500Y-120031786D01*
X127461168Y-120031786D01*
X127473722Y-120293153D01*
X127524771Y-120549793D01*
X127613193Y-120796068D01*
X127737046Y-121026569D01*
X127893608Y-121236231D01*
X127897794Y-121240380D01*
X127897796Y-121240383D01*
X128075256Y-121416302D01*
X128075261Y-121416306D01*
X128079440Y-121420449D01*
X128191281Y-121502454D01*
X128285702Y-121571686D01*
X128285706Y-121571688D01*
X128290461Y-121575175D01*
X128295677Y-121577919D01*
X128295683Y-121577923D01*
X128516814Y-121694266D01*
X128516818Y-121694268D01*
X128522034Y-121697012D01*
X128769071Y-121783281D01*
X129026147Y-121832089D01*
X129032049Y-121832321D01*
X129032050Y-121832321D01*
X129074600Y-121833993D01*
X129287613Y-121842362D01*
X129547725Y-121813875D01*
X129553425Y-121812374D01*
X129553432Y-121812373D01*
X129795066Y-121748755D01*
X129795069Y-121748754D01*
X129800770Y-121747253D01*
X130041188Y-121643962D01*
X130046203Y-121640858D01*
X130046208Y-121640856D01*
X130171981Y-121563025D01*
X130263698Y-121506269D01*
X130268201Y-121502457D01*
X130268205Y-121502454D01*
X130458912Y-121341008D01*
X130458914Y-121341006D01*
X130463411Y-121337199D01*
X130635941Y-121140467D01*
X130777496Y-120920394D01*
X130884968Y-120681815D01*
X130955995Y-120429972D01*
X130989018Y-120170396D01*
X130991437Y-120078000D01*
X130972045Y-119817052D01*
X130961723Y-119771435D01*
X130915600Y-119567597D01*
X130915598Y-119567592D01*
X130914296Y-119561836D01*
X130819457Y-119317960D01*
X130795766Y-119276508D01*
X130692545Y-119095908D01*
X130692544Y-119095907D01*
X130689614Y-119090780D01*
X130527617Y-118885288D01*
X130337026Y-118705998D01*
X130122027Y-118556848D01*
X130014174Y-118503661D01*
X129892631Y-118443722D01*
X129892628Y-118443721D01*
X129887344Y-118441115D01*
X129881732Y-118439318D01*
X129881728Y-118439317D01*
X129643747Y-118363139D01*
X129643746Y-118363139D01*
X129638133Y-118361342D01*
X129585628Y-118352791D01*
X129385697Y-118320230D01*
X129385693Y-118320230D01*
X129379868Y-118319281D01*
X129249045Y-118317568D01*
X129124129Y-118315933D01*
X129124125Y-118315933D01*
X129118223Y-118315856D01*
X129020756Y-118329121D01*
X128864785Y-118350347D01*
X128864782Y-118350348D01*
X128858945Y-118351142D01*
X128853292Y-118352790D01*
X128853286Y-118352791D01*
X128733338Y-118387753D01*
X128607731Y-118424364D01*
X128602383Y-118426830D01*
X128602379Y-118426831D01*
X128375458Y-118531443D01*
X128375453Y-118531446D01*
X128370099Y-118533914D01*
X128365166Y-118537148D01*
X128365161Y-118537151D01*
X128156204Y-118674150D01*
X128151270Y-118677385D01*
X127956051Y-118851624D01*
X127788730Y-119052806D01*
X127652984Y-119276508D01*
X127551794Y-119517819D01*
X127487384Y-119771435D01*
X127461168Y-120031786D01*
X101678500Y-120031786D01*
X101678500Y-108011033D01*
X123810685Y-108011033D01*
X123811736Y-108020553D01*
X123811736Y-108020556D01*
X123813561Y-108037083D01*
X123828228Y-108169933D01*
X123883168Y-108320063D01*
X123888511Y-108328015D01*
X123888512Y-108328016D01*
X123895581Y-108338535D01*
X123972333Y-108452754D01*
X124090575Y-108560346D01*
X124098991Y-108564915D01*
X124098993Y-108564917D01*
X124222645Y-108632055D01*
X124222647Y-108632056D01*
X124231068Y-108636628D01*
X124385702Y-108677195D01*
X124395281Y-108677345D01*
X124395285Y-108677346D01*
X124469405Y-108678510D01*
X124545548Y-108679706D01*
X124555853Y-108677346D01*
X124580828Y-108671626D01*
X124701380Y-108644016D01*
X124844200Y-108572185D01*
X124965763Y-108468360D01*
X125059052Y-108338535D01*
X125118680Y-108190206D01*
X125141205Y-108031934D01*
X125141351Y-108018000D01*
X125122145Y-107859292D01*
X125065636Y-107709746D01*
X125029187Y-107656711D01*
X124980514Y-107585891D01*
X124980513Y-107585890D01*
X124975087Y-107577995D01*
X124954274Y-107559451D01*
X124862880Y-107478022D01*
X124862876Y-107478019D01*
X124855725Y-107471648D01*
X124714440Y-107396841D01*
X124559391Y-107357895D01*
X124479458Y-107357476D01*
X124409107Y-107357108D01*
X124409106Y-107357108D01*
X124399526Y-107357058D01*
X124351131Y-107368677D01*
X124253397Y-107392140D01*
X124253393Y-107392141D01*
X124244077Y-107394378D01*
X124235562Y-107398773D01*
X124235559Y-107398774D01*
X124110530Y-107463307D01*
X124102017Y-107467701D01*
X123981548Y-107572793D01*
X123889624Y-107703588D01*
X123886142Y-107712520D01*
X123886141Y-107712521D01*
X123883730Y-107718706D01*
X123831552Y-107852534D01*
X123810685Y-108011033D01*
X101678500Y-108011033D01*
X101678500Y-105011786D01*
X107153168Y-105011786D01*
X107165722Y-105273153D01*
X107216771Y-105529793D01*
X107305193Y-105776068D01*
X107307985Y-105781264D01*
X107387555Y-105929350D01*
X107429046Y-106006569D01*
X107585608Y-106216231D01*
X107589794Y-106220380D01*
X107589796Y-106220383D01*
X107767256Y-106396302D01*
X107767261Y-106396306D01*
X107771440Y-106400449D01*
X107883281Y-106482454D01*
X107977702Y-106551686D01*
X107977706Y-106551688D01*
X107982461Y-106555175D01*
X107987677Y-106557919D01*
X107987683Y-106557923D01*
X108208814Y-106674266D01*
X108208818Y-106674268D01*
X108214034Y-106677012D01*
X108461071Y-106763281D01*
X108718147Y-106812089D01*
X108724049Y-106812321D01*
X108724050Y-106812321D01*
X108766600Y-106813993D01*
X108979613Y-106822362D01*
X109239725Y-106793875D01*
X109245425Y-106792374D01*
X109245432Y-106792373D01*
X109487066Y-106728755D01*
X109487069Y-106728754D01*
X109492770Y-106727253D01*
X109733188Y-106623962D01*
X109738203Y-106620858D01*
X109738208Y-106620856D01*
X109863981Y-106543025D01*
X109955698Y-106486269D01*
X109960201Y-106482457D01*
X109960205Y-106482454D01*
X110150912Y-106321008D01*
X110150914Y-106321006D01*
X110155411Y-106317199D01*
X110327941Y-106120467D01*
X110469496Y-105900394D01*
X110576968Y-105661815D01*
X110647995Y-105409972D01*
X110681018Y-105150396D01*
X110683437Y-105058000D01*
X110680003Y-105011786D01*
X116153168Y-105011786D01*
X116165722Y-105273153D01*
X116216771Y-105529793D01*
X116305193Y-105776068D01*
X116307985Y-105781264D01*
X116387555Y-105929350D01*
X116429046Y-106006569D01*
X116585608Y-106216231D01*
X116589794Y-106220380D01*
X116589796Y-106220383D01*
X116767256Y-106396302D01*
X116767261Y-106396306D01*
X116771440Y-106400449D01*
X116883281Y-106482454D01*
X116977702Y-106551686D01*
X116977706Y-106551688D01*
X116982461Y-106555175D01*
X116987677Y-106557919D01*
X116987683Y-106557923D01*
X117208814Y-106674266D01*
X117208818Y-106674268D01*
X117214034Y-106677012D01*
X117461071Y-106763281D01*
X117718147Y-106812089D01*
X117724049Y-106812321D01*
X117724050Y-106812321D01*
X117766600Y-106813993D01*
X117979613Y-106822362D01*
X118239725Y-106793875D01*
X118245425Y-106792374D01*
X118245432Y-106792373D01*
X118487066Y-106728755D01*
X118487069Y-106728754D01*
X118492770Y-106727253D01*
X118733188Y-106623962D01*
X118738203Y-106620858D01*
X118738208Y-106620856D01*
X118863981Y-106543025D01*
X118955698Y-106486269D01*
X118960201Y-106482457D01*
X118960205Y-106482454D01*
X119150912Y-106321008D01*
X119150914Y-106321006D01*
X119155411Y-106317199D01*
X119327941Y-106120467D01*
X119469496Y-105900394D01*
X119576968Y-105661815D01*
X119647995Y-105409972D01*
X119681018Y-105150396D01*
X119683437Y-105058000D01*
X119664045Y-104797052D01*
X119662742Y-104791293D01*
X119607600Y-104547597D01*
X119607598Y-104547592D01*
X119606296Y-104541836D01*
X119511457Y-104297960D01*
X119487766Y-104256508D01*
X119384545Y-104075908D01*
X119384544Y-104075907D01*
X119381614Y-104070780D01*
X119219617Y-103865288D01*
X119029026Y-103685998D01*
X118814027Y-103536848D01*
X118706174Y-103483661D01*
X118584631Y-103423722D01*
X118584628Y-103423721D01*
X118579344Y-103421115D01*
X118573732Y-103419318D01*
X118573728Y-103419317D01*
X118335747Y-103343139D01*
X118335746Y-103343139D01*
X118330133Y-103341342D01*
X118277628Y-103332791D01*
X118077697Y-103300230D01*
X118077693Y-103300230D01*
X118071868Y-103299281D01*
X117941045Y-103297568D01*
X117816129Y-103295933D01*
X117816125Y-103295933D01*
X117810223Y-103295856D01*
X117712756Y-103309121D01*
X117556785Y-103330347D01*
X117556782Y-103330348D01*
X117550945Y-103331142D01*
X117545292Y-103332790D01*
X117545286Y-103332791D01*
X117425338Y-103367753D01*
X117299731Y-103404364D01*
X117294383Y-103406830D01*
X117294379Y-103406831D01*
X117067458Y-103511443D01*
X117067453Y-103511446D01*
X117062099Y-103513914D01*
X117057166Y-103517148D01*
X117057161Y-103517151D01*
X116848204Y-103654150D01*
X116843270Y-103657385D01*
X116648051Y-103831624D01*
X116644281Y-103836157D01*
X116644278Y-103836160D01*
X116623416Y-103861244D01*
X116480730Y-104032806D01*
X116344984Y-104256508D01*
X116243794Y-104497819D01*
X116242343Y-104503531D01*
X116242343Y-104503532D01*
X116227901Y-104560399D01*
X116179384Y-104751435D01*
X116153168Y-105011786D01*
X110680003Y-105011786D01*
X110664045Y-104797052D01*
X110662742Y-104791293D01*
X110607600Y-104547597D01*
X110607598Y-104547592D01*
X110606296Y-104541836D01*
X110511457Y-104297960D01*
X110487766Y-104256508D01*
X110384545Y-104075908D01*
X110384544Y-104075907D01*
X110381614Y-104070780D01*
X110219617Y-103865288D01*
X110029026Y-103685998D01*
X109814027Y-103536848D01*
X109706174Y-103483661D01*
X109584631Y-103423722D01*
X109584628Y-103423721D01*
X109579344Y-103421115D01*
X109573732Y-103419318D01*
X109573728Y-103419317D01*
X109335747Y-103343139D01*
X109335746Y-103343139D01*
X109330133Y-103341342D01*
X109277628Y-103332791D01*
X109077697Y-103300230D01*
X109077693Y-103300230D01*
X109071868Y-103299281D01*
X108941045Y-103297568D01*
X108816129Y-103295933D01*
X108816125Y-103295933D01*
X108810223Y-103295856D01*
X108712756Y-103309121D01*
X108556785Y-103330347D01*
X108556782Y-103330348D01*
X108550945Y-103331142D01*
X108545292Y-103332790D01*
X108545286Y-103332791D01*
X108425338Y-103367753D01*
X108299731Y-103404364D01*
X108294383Y-103406830D01*
X108294379Y-103406831D01*
X108067458Y-103511443D01*
X108067453Y-103511446D01*
X108062099Y-103513914D01*
X108057166Y-103517148D01*
X108057161Y-103517151D01*
X107848204Y-103654150D01*
X107843270Y-103657385D01*
X107648051Y-103831624D01*
X107644281Y-103836157D01*
X107644278Y-103836160D01*
X107623416Y-103861244D01*
X107480730Y-104032806D01*
X107344984Y-104256508D01*
X107243794Y-104497819D01*
X107242343Y-104503531D01*
X107242343Y-104503532D01*
X107227901Y-104560399D01*
X107179384Y-104751435D01*
X107153168Y-105011786D01*
X101678500Y-105011786D01*
X101678500Y-102689996D01*
X129046732Y-102689996D01*
X129047981Y-102697880D01*
X129048667Y-102708348D01*
X129060183Y-102884050D01*
X129063603Y-102936239D01*
X129111745Y-103178268D01*
X129113415Y-103183189D01*
X129113416Y-103183191D01*
X129187935Y-103402715D01*
X129191067Y-103411943D01*
X129193367Y-103416607D01*
X129242950Y-103517151D01*
X129300211Y-103633266D01*
X129437309Y-103838449D01*
X129440739Y-103842361D01*
X129440742Y-103842364D01*
X129596585Y-104020069D01*
X129600016Y-104023981D01*
X129785548Y-104186689D01*
X129990731Y-104323787D01*
X130212053Y-104432932D01*
X130216967Y-104434600D01*
X130216974Y-104434603D01*
X130440805Y-104510583D01*
X130445728Y-104512254D01*
X130687757Y-104560396D01*
X130692934Y-104560735D01*
X130692939Y-104560736D01*
X130864186Y-104571960D01*
X130899312Y-104574262D01*
X130971854Y-104597269D01*
X131025395Y-104651351D01*
X131047669Y-104724121D01*
X131033575Y-104798907D01*
X130986340Y-104858576D01*
X130971990Y-104868492D01*
X130923249Y-104898360D01*
X130923245Y-104898363D01*
X130917925Y-104901623D01*
X130731148Y-105061146D01*
X130571625Y-105247923D01*
X130568365Y-105253243D01*
X130568362Y-105253247D01*
X130475906Y-105404122D01*
X130443285Y-105457355D01*
X130349287Y-105684286D01*
X130347828Y-105690362D01*
X130347827Y-105690366D01*
X130296214Y-105905352D01*
X130291947Y-105923127D01*
X130272675Y-106167998D01*
X130273165Y-106174224D01*
X130291244Y-106403932D01*
X130291947Y-106412869D01*
X130293403Y-106418936D01*
X130293404Y-106418939D01*
X130343185Y-106626292D01*
X130349287Y-106651710D01*
X130443285Y-106878641D01*
X130571625Y-107088073D01*
X130731148Y-107274850D01*
X130917925Y-107434373D01*
X130923245Y-107437633D01*
X130923249Y-107437636D01*
X131097395Y-107544352D01*
X131127357Y-107562713D01*
X131354288Y-107656711D01*
X131360364Y-107658170D01*
X131360368Y-107658171D01*
X131587059Y-107712594D01*
X131587062Y-107712595D01*
X131593129Y-107714051D01*
X131599349Y-107714541D01*
X131599352Y-107714541D01*
X131831774Y-107732833D01*
X131838000Y-107733323D01*
X131844226Y-107732833D01*
X132076648Y-107714541D01*
X132076651Y-107714541D01*
X132082871Y-107714051D01*
X132088938Y-107712595D01*
X132088941Y-107712594D01*
X132315632Y-107658171D01*
X132315636Y-107658170D01*
X132321712Y-107656711D01*
X132548643Y-107562713D01*
X132578605Y-107544352D01*
X132752751Y-107437636D01*
X132752755Y-107437633D01*
X132758075Y-107434373D01*
X132944852Y-107274850D01*
X133104375Y-107088073D01*
X133232715Y-106878641D01*
X133326713Y-106651710D01*
X133332816Y-106626292D01*
X133382596Y-106418939D01*
X133382597Y-106418936D01*
X133384053Y-106412869D01*
X133384757Y-106403932D01*
X133402835Y-106174224D01*
X133403325Y-106167998D01*
X133384053Y-105923127D01*
X133379786Y-105905352D01*
X133328173Y-105690366D01*
X133328172Y-105690362D01*
X133326713Y-105684286D01*
X133232715Y-105457355D01*
X133200094Y-105404122D01*
X133107638Y-105253247D01*
X133107635Y-105253243D01*
X133104375Y-105247923D01*
X132944852Y-105061146D01*
X132758075Y-104901623D01*
X132701683Y-104867066D01*
X132648198Y-104812930D01*
X132625997Y-104740138D01*
X132640167Y-104665366D01*
X132687462Y-104605744D01*
X132757047Y-104574931D01*
X132784762Y-104572497D01*
X138511238Y-104572497D01*
X138585129Y-104590709D01*
X138642092Y-104641175D01*
X138669079Y-104712332D01*
X138659906Y-104787879D01*
X138616675Y-104850510D01*
X138594319Y-104867065D01*
X138537925Y-104901623D01*
X138351148Y-105061146D01*
X138191625Y-105247923D01*
X138188365Y-105253243D01*
X138188362Y-105253247D01*
X138095906Y-105404122D01*
X138063285Y-105457355D01*
X137969287Y-105684286D01*
X137967828Y-105690362D01*
X137967827Y-105690366D01*
X137916214Y-105905352D01*
X137911947Y-105923127D01*
X137892675Y-106167998D01*
X137893165Y-106174224D01*
X137911244Y-106403932D01*
X137911947Y-106412869D01*
X137913403Y-106418936D01*
X137913404Y-106418939D01*
X137963185Y-106626292D01*
X137969287Y-106651710D01*
X138063285Y-106878641D01*
X138191625Y-107088073D01*
X138351148Y-107274850D01*
X138537925Y-107434373D01*
X138543245Y-107437633D01*
X138543249Y-107437636D01*
X138717395Y-107544352D01*
X138747357Y-107562713D01*
X138974288Y-107656711D01*
X138980364Y-107658170D01*
X138980368Y-107658171D01*
X139207059Y-107712594D01*
X139207062Y-107712595D01*
X139213129Y-107714051D01*
X139219349Y-107714541D01*
X139219352Y-107714541D01*
X139451774Y-107732833D01*
X139458000Y-107733323D01*
X139464226Y-107732833D01*
X139696648Y-107714541D01*
X139696651Y-107714541D01*
X139702871Y-107714051D01*
X139708938Y-107712595D01*
X139708941Y-107712594D01*
X139935632Y-107658171D01*
X139935636Y-107658170D01*
X139941712Y-107656711D01*
X140168643Y-107562713D01*
X140198605Y-107544352D01*
X140372751Y-107437636D01*
X140372755Y-107437633D01*
X140378075Y-107434373D01*
X140564852Y-107274850D01*
X140724375Y-107088073D01*
X140852715Y-106878641D01*
X140946713Y-106651710D01*
X140952816Y-106626292D01*
X141002596Y-106418939D01*
X141002597Y-106418936D01*
X141004053Y-106412869D01*
X141004757Y-106403932D01*
X141022835Y-106174224D01*
X141023325Y-106167998D01*
X141004053Y-105923127D01*
X140999786Y-105905352D01*
X140948173Y-105690366D01*
X140948172Y-105690362D01*
X140946713Y-105684286D01*
X140852715Y-105457355D01*
X140820094Y-105404122D01*
X140727638Y-105253247D01*
X140727635Y-105253243D01*
X140724375Y-105247923D01*
X140564852Y-105061146D01*
X140507059Y-105011786D01*
X164811168Y-105011786D01*
X164823722Y-105273153D01*
X164874771Y-105529793D01*
X164963193Y-105776068D01*
X164965985Y-105781264D01*
X165045555Y-105929350D01*
X165087046Y-106006569D01*
X165243608Y-106216231D01*
X165247794Y-106220380D01*
X165247796Y-106220383D01*
X165425256Y-106396302D01*
X165425261Y-106396306D01*
X165429440Y-106400449D01*
X165541281Y-106482454D01*
X165635702Y-106551686D01*
X165635706Y-106551688D01*
X165640461Y-106555175D01*
X165645677Y-106557919D01*
X165645683Y-106557923D01*
X165866814Y-106674266D01*
X165866818Y-106674268D01*
X165872034Y-106677012D01*
X166119071Y-106763281D01*
X166376147Y-106812089D01*
X166382049Y-106812321D01*
X166382050Y-106812321D01*
X166424600Y-106813993D01*
X166637613Y-106822362D01*
X166897725Y-106793875D01*
X166903425Y-106792374D01*
X166903432Y-106792373D01*
X167145066Y-106728755D01*
X167145069Y-106728754D01*
X167150770Y-106727253D01*
X167391188Y-106623962D01*
X167396203Y-106620858D01*
X167396208Y-106620856D01*
X167521981Y-106543025D01*
X167613698Y-106486269D01*
X167618201Y-106482457D01*
X167618205Y-106482454D01*
X167808912Y-106321008D01*
X167808914Y-106321006D01*
X167813411Y-106317199D01*
X167985941Y-106120467D01*
X168127496Y-105900394D01*
X168234968Y-105661815D01*
X168305995Y-105409972D01*
X168339018Y-105150396D01*
X168341437Y-105058000D01*
X168338003Y-105011786D01*
X173811168Y-105011786D01*
X173823722Y-105273153D01*
X173874771Y-105529793D01*
X173963193Y-105776068D01*
X173965985Y-105781264D01*
X174045555Y-105929350D01*
X174087046Y-106006569D01*
X174243608Y-106216231D01*
X174247794Y-106220380D01*
X174247796Y-106220383D01*
X174425256Y-106396302D01*
X174425261Y-106396306D01*
X174429440Y-106400449D01*
X174541281Y-106482454D01*
X174635702Y-106551686D01*
X174635706Y-106551688D01*
X174640461Y-106555175D01*
X174645677Y-106557919D01*
X174645683Y-106557923D01*
X174866814Y-106674266D01*
X174866818Y-106674268D01*
X174872034Y-106677012D01*
X175119071Y-106763281D01*
X175376147Y-106812089D01*
X175382049Y-106812321D01*
X175382050Y-106812321D01*
X175424600Y-106813993D01*
X175637613Y-106822362D01*
X175897725Y-106793875D01*
X175903425Y-106792374D01*
X175903432Y-106792373D01*
X176145066Y-106728755D01*
X176145069Y-106728754D01*
X176150770Y-106727253D01*
X176391188Y-106623962D01*
X176396203Y-106620858D01*
X176396208Y-106620856D01*
X176521981Y-106543025D01*
X176613698Y-106486269D01*
X176618201Y-106482457D01*
X176618205Y-106482454D01*
X176808912Y-106321008D01*
X176808914Y-106321006D01*
X176813411Y-106317199D01*
X176985941Y-106120467D01*
X177127496Y-105900394D01*
X177234968Y-105661815D01*
X177305995Y-105409972D01*
X177339018Y-105150396D01*
X177341437Y-105058000D01*
X177322045Y-104797052D01*
X177320742Y-104791293D01*
X177265600Y-104547597D01*
X177265598Y-104547592D01*
X177264296Y-104541836D01*
X177169457Y-104297960D01*
X177145766Y-104256508D01*
X177042545Y-104075908D01*
X177042544Y-104075907D01*
X177039614Y-104070780D01*
X176877617Y-103865288D01*
X176687026Y-103685998D01*
X176472027Y-103536848D01*
X176364174Y-103483661D01*
X176242631Y-103423722D01*
X176242628Y-103423721D01*
X176237344Y-103421115D01*
X176231732Y-103419318D01*
X176231728Y-103419317D01*
X175993747Y-103343139D01*
X175993746Y-103343139D01*
X175988133Y-103341342D01*
X175935628Y-103332791D01*
X175735697Y-103300230D01*
X175735693Y-103300230D01*
X175729868Y-103299281D01*
X175599045Y-103297568D01*
X175474129Y-103295933D01*
X175474125Y-103295933D01*
X175468223Y-103295856D01*
X175370756Y-103309121D01*
X175214785Y-103330347D01*
X175214782Y-103330348D01*
X175208945Y-103331142D01*
X175203292Y-103332790D01*
X175203286Y-103332791D01*
X175083338Y-103367753D01*
X174957731Y-103404364D01*
X174952383Y-103406830D01*
X174952379Y-103406831D01*
X174725458Y-103511443D01*
X174725453Y-103511446D01*
X174720099Y-103513914D01*
X174715166Y-103517148D01*
X174715161Y-103517151D01*
X174506204Y-103654150D01*
X174501270Y-103657385D01*
X174306051Y-103831624D01*
X174302281Y-103836157D01*
X174302278Y-103836160D01*
X174281416Y-103861244D01*
X174138730Y-104032806D01*
X174002984Y-104256508D01*
X173901794Y-104497819D01*
X173900343Y-104503531D01*
X173900343Y-104503532D01*
X173885901Y-104560399D01*
X173837384Y-104751435D01*
X173811168Y-105011786D01*
X168338003Y-105011786D01*
X168322045Y-104797052D01*
X168320742Y-104791293D01*
X168265600Y-104547597D01*
X168265598Y-104547592D01*
X168264296Y-104541836D01*
X168169457Y-104297960D01*
X168145766Y-104256508D01*
X168042545Y-104075908D01*
X168042544Y-104075907D01*
X168039614Y-104070780D01*
X167877617Y-103865288D01*
X167687026Y-103685998D01*
X167472027Y-103536848D01*
X167364174Y-103483661D01*
X167242631Y-103423722D01*
X167242628Y-103423721D01*
X167237344Y-103421115D01*
X167231732Y-103419318D01*
X167231728Y-103419317D01*
X166993747Y-103343139D01*
X166993746Y-103343139D01*
X166988133Y-103341342D01*
X166935628Y-103332791D01*
X166735697Y-103300230D01*
X166735693Y-103300230D01*
X166729868Y-103299281D01*
X166599045Y-103297568D01*
X166474129Y-103295933D01*
X166474125Y-103295933D01*
X166468223Y-103295856D01*
X166370756Y-103309121D01*
X166214785Y-103330347D01*
X166214782Y-103330348D01*
X166208945Y-103331142D01*
X166203292Y-103332790D01*
X166203286Y-103332791D01*
X166083338Y-103367753D01*
X165957731Y-103404364D01*
X165952383Y-103406830D01*
X165952379Y-103406831D01*
X165725458Y-103511443D01*
X165725453Y-103511446D01*
X165720099Y-103513914D01*
X165715166Y-103517148D01*
X165715161Y-103517151D01*
X165506204Y-103654150D01*
X165501270Y-103657385D01*
X165306051Y-103831624D01*
X165302281Y-103836157D01*
X165302278Y-103836160D01*
X165281416Y-103861244D01*
X165138730Y-104032806D01*
X165002984Y-104256508D01*
X164901794Y-104497819D01*
X164900343Y-104503531D01*
X164900343Y-104503532D01*
X164885901Y-104560399D01*
X164837384Y-104751435D01*
X164811168Y-105011786D01*
X140507059Y-105011786D01*
X140378075Y-104901623D01*
X140321683Y-104867066D01*
X140268198Y-104812930D01*
X140245997Y-104740138D01*
X140260167Y-104665366D01*
X140307462Y-104605744D01*
X140377047Y-104574931D01*
X140404762Y-104572497D01*
X153731385Y-104572497D01*
X153756246Y-104574453D01*
X153774000Y-104577265D01*
X153781820Y-104576026D01*
X153792318Y-104575338D01*
X154015061Y-104560739D01*
X154015066Y-104560738D01*
X154020243Y-104560399D01*
X154262273Y-104512257D01*
X154267196Y-104510586D01*
X154491023Y-104434606D01*
X154491025Y-104434605D01*
X154495948Y-104432934D01*
X154717271Y-104323790D01*
X154922453Y-104186691D01*
X155107986Y-104023983D01*
X155111415Y-104020073D01*
X155267261Y-103842364D01*
X155267264Y-103842360D01*
X155270693Y-103838450D01*
X155302719Y-103790520D01*
X155404901Y-103637594D01*
X155404902Y-103637592D01*
X155407792Y-103633267D01*
X155516936Y-103411945D01*
X155518608Y-103407020D01*
X155594587Y-103183193D01*
X155594589Y-103183186D01*
X155596258Y-103178269D01*
X155644400Y-102936239D01*
X155647821Y-102884050D01*
X155649907Y-102852207D01*
X155660024Y-102697848D01*
X155661268Y-102689996D01*
X155658456Y-102672242D01*
X155656500Y-102647381D01*
X155656500Y-100841033D01*
X159020685Y-100841033D01*
X159021736Y-100850553D01*
X159021736Y-100850556D01*
X159023561Y-100867083D01*
X159038228Y-100999933D01*
X159093168Y-101150063D01*
X159098511Y-101158015D01*
X159098512Y-101158016D01*
X159105581Y-101168535D01*
X159182333Y-101282754D01*
X159300575Y-101390346D01*
X159308991Y-101394915D01*
X159308993Y-101394917D01*
X159432645Y-101462055D01*
X159432647Y-101462056D01*
X159441068Y-101466628D01*
X159595702Y-101507195D01*
X159605281Y-101507345D01*
X159605285Y-101507346D01*
X159679405Y-101508510D01*
X159755548Y-101509706D01*
X159765853Y-101507346D01*
X159790828Y-101501626D01*
X159911380Y-101474016D01*
X160054200Y-101402185D01*
X160175763Y-101298360D01*
X160269052Y-101168535D01*
X160328680Y-101020206D01*
X160351205Y-100861934D01*
X160351351Y-100848000D01*
X160332145Y-100689292D01*
X160275636Y-100539746D01*
X160185087Y-100407995D01*
X160172175Y-100396491D01*
X160072880Y-100308022D01*
X160072876Y-100308019D01*
X160065725Y-100301648D01*
X159924440Y-100226841D01*
X159769391Y-100187895D01*
X159689458Y-100187476D01*
X159619107Y-100187108D01*
X159619106Y-100187108D01*
X159609526Y-100187058D01*
X159561131Y-100198677D01*
X159463397Y-100222140D01*
X159463393Y-100222141D01*
X159454077Y-100224378D01*
X159445562Y-100228773D01*
X159445559Y-100228774D01*
X159320530Y-100293307D01*
X159312017Y-100297701D01*
X159191548Y-100402793D01*
X159099624Y-100533588D01*
X159041552Y-100682534D01*
X159020685Y-100841033D01*
X155656500Y-100841033D01*
X155656500Y-98553033D01*
X160800685Y-98553033D01*
X160801736Y-98562553D01*
X160801736Y-98562556D01*
X160803561Y-98579083D01*
X160818228Y-98711933D01*
X160873168Y-98862063D01*
X160878511Y-98870015D01*
X160878512Y-98870016D01*
X160885581Y-98880535D01*
X160962333Y-98994754D01*
X161080575Y-99102346D01*
X161088991Y-99106915D01*
X161088993Y-99106917D01*
X161212645Y-99174055D01*
X161212647Y-99174056D01*
X161221068Y-99178628D01*
X161375702Y-99219195D01*
X161385281Y-99219345D01*
X161385285Y-99219346D01*
X161459405Y-99220510D01*
X161535548Y-99221706D01*
X161545853Y-99219346D01*
X161570828Y-99213626D01*
X161691380Y-99186016D01*
X161834200Y-99114185D01*
X161955763Y-99010360D01*
X162049052Y-98880535D01*
X162108680Y-98732206D01*
X162131205Y-98573934D01*
X162131351Y-98560000D01*
X162112145Y-98401292D01*
X162055636Y-98251746D01*
X161965087Y-98119995D01*
X161952175Y-98108491D01*
X161852880Y-98020022D01*
X161852876Y-98020019D01*
X161845725Y-98013648D01*
X161704440Y-97938841D01*
X161549391Y-97899895D01*
X161469459Y-97899477D01*
X161399107Y-97899108D01*
X161399106Y-97899108D01*
X161389526Y-97899058D01*
X161341131Y-97910677D01*
X161243397Y-97934140D01*
X161243393Y-97934141D01*
X161234077Y-97936378D01*
X161225562Y-97940773D01*
X161225559Y-97940774D01*
X161100530Y-98005307D01*
X161092017Y-98009701D01*
X160971548Y-98114793D01*
X160879624Y-98245588D01*
X160821552Y-98394534D01*
X160800685Y-98553033D01*
X155656500Y-98553033D01*
X155656500Y-97159205D01*
X165533529Y-97159205D01*
X165535653Y-97163925D01*
X165537102Y-97165329D01*
X165639154Y-97240156D01*
X165649143Y-97246398D01*
X165869406Y-97362283D01*
X165880208Y-97366980D01*
X166115182Y-97449037D01*
X166126560Y-97452085D01*
X166371097Y-97498512D01*
X166382777Y-97499843D01*
X166631489Y-97509615D01*
X166643247Y-97509205D01*
X166890673Y-97482107D01*
X166902244Y-97479963D01*
X167142942Y-97416592D01*
X167154066Y-97412762D01*
X167382764Y-97314505D01*
X167393192Y-97309076D01*
X167604843Y-97178103D01*
X167611891Y-97172983D01*
X167620904Y-97160534D01*
X167618485Y-97153696D01*
X166589651Y-96124861D01*
X166575685Y-96116418D01*
X166566786Y-96120424D01*
X165541972Y-97145239D01*
X165533529Y-97159205D01*
X155656500Y-97159205D01*
X155656500Y-95711842D01*
X164817968Y-95711842D01*
X164829910Y-95960464D01*
X164831344Y-95972146D01*
X164879903Y-96216267D01*
X164883045Y-96227599D01*
X164967154Y-96461863D01*
X164971943Y-96472617D01*
X165089751Y-96691868D01*
X165096073Y-96701792D01*
X165157592Y-96784175D01*
X165170203Y-96794535D01*
X165175525Y-96793011D01*
X165176600Y-96792189D01*
X166203139Y-95765651D01*
X166211201Y-95752315D01*
X166940418Y-95752315D01*
X166944424Y-95761214D01*
X167972180Y-96788969D01*
X167986146Y-96797412D01*
X167988563Y-96796324D01*
X167993044Y-96791406D01*
X168118578Y-96596241D01*
X168124189Y-96585907D01*
X168226420Y-96358961D01*
X168230443Y-96347909D01*
X168298006Y-96108350D01*
X168300351Y-96096823D01*
X168332004Y-95848010D01*
X168332612Y-95840063D01*
X168334814Y-95755987D01*
X168334623Y-95748029D01*
X168331484Y-95705786D01*
X173811168Y-95705786D01*
X173823722Y-95967153D01*
X173874771Y-96223793D01*
X173963193Y-96470068D01*
X173965985Y-96475264D01*
X174082371Y-96691868D01*
X174087046Y-96700569D01*
X174243608Y-96910231D01*
X174247794Y-96914380D01*
X174247796Y-96914383D01*
X174425256Y-97090302D01*
X174425261Y-97090306D01*
X174429440Y-97094449D01*
X174510243Y-97153696D01*
X174635702Y-97245686D01*
X174635706Y-97245688D01*
X174640461Y-97249175D01*
X174645677Y-97251919D01*
X174645683Y-97251923D01*
X174866814Y-97368266D01*
X174866818Y-97368268D01*
X174872034Y-97371012D01*
X175119071Y-97457281D01*
X175376147Y-97506089D01*
X175382049Y-97506321D01*
X175382050Y-97506321D01*
X175424600Y-97507993D01*
X175637613Y-97516362D01*
X175897725Y-97487875D01*
X175903425Y-97486374D01*
X175903432Y-97486373D01*
X176145066Y-97422755D01*
X176145069Y-97422754D01*
X176150770Y-97421253D01*
X176391188Y-97317962D01*
X176396203Y-97314858D01*
X176396208Y-97314856D01*
X176521981Y-97237025D01*
X176613698Y-97180269D01*
X176618201Y-97176457D01*
X176618205Y-97176454D01*
X176808912Y-97015008D01*
X176808914Y-97015006D01*
X176813411Y-97011199D01*
X176985941Y-96814467D01*
X177127496Y-96594394D01*
X177234968Y-96355815D01*
X177305995Y-96103972D01*
X177339018Y-95844396D01*
X177341437Y-95752000D01*
X177322045Y-95491052D01*
X177310685Y-95440846D01*
X177265600Y-95241597D01*
X177265598Y-95241592D01*
X177264296Y-95235836D01*
X177169457Y-94991960D01*
X177145766Y-94950508D01*
X177042545Y-94769908D01*
X177042544Y-94769907D01*
X177039614Y-94764780D01*
X176877617Y-94559288D01*
X176687026Y-94379998D01*
X176472027Y-94230848D01*
X176254891Y-94123768D01*
X176242631Y-94117722D01*
X176242628Y-94117721D01*
X176237344Y-94115115D01*
X176231732Y-94113318D01*
X176231728Y-94113317D01*
X175993747Y-94037139D01*
X175993746Y-94037139D01*
X175988133Y-94035342D01*
X175935628Y-94026791D01*
X175735697Y-93994230D01*
X175735693Y-93994230D01*
X175729868Y-93993281D01*
X175599045Y-93991568D01*
X175474129Y-93989933D01*
X175474125Y-93989933D01*
X175468223Y-93989856D01*
X175395905Y-93999698D01*
X175214785Y-94024347D01*
X175214782Y-94024348D01*
X175208945Y-94025142D01*
X175203292Y-94026790D01*
X175203286Y-94026791D01*
X175083338Y-94061753D01*
X174957731Y-94098364D01*
X174952383Y-94100830D01*
X174952379Y-94100831D01*
X174725458Y-94205443D01*
X174725453Y-94205446D01*
X174720099Y-94207914D01*
X174715166Y-94211148D01*
X174715161Y-94211151D01*
X174507662Y-94347194D01*
X174501270Y-94351385D01*
X174306051Y-94525624D01*
X174138730Y-94726806D01*
X174002984Y-94950508D01*
X173901794Y-95191819D01*
X173837384Y-95445435D01*
X173811168Y-95705786D01*
X168331484Y-95705786D01*
X168316035Y-95497900D01*
X168314295Y-95486256D01*
X168259366Y-95243503D01*
X168255922Y-95232238D01*
X168165712Y-95000264D01*
X168160646Y-94989644D01*
X168037141Y-94773556D01*
X168030552Y-94763787D01*
X167995279Y-94719043D01*
X167982403Y-94709018D01*
X167976257Y-94710954D01*
X166948861Y-95738349D01*
X166940418Y-95752315D01*
X166211201Y-95752315D01*
X166211582Y-95751685D01*
X166207576Y-95742786D01*
X165181001Y-94716212D01*
X165167035Y-94707769D01*
X165160616Y-94710658D01*
X165147805Y-94726061D01*
X165140980Y-94735630D01*
X165011854Y-94948423D01*
X165006512Y-94958907D01*
X164910256Y-95188450D01*
X164906524Y-95199603D01*
X164845257Y-95440846D01*
X164843213Y-95452441D01*
X164818275Y-95700094D01*
X164817968Y-95711842D01*
X155656500Y-95711842D01*
X155656500Y-94344254D01*
X165531129Y-94344254D01*
X165531780Y-94347194D01*
X165535275Y-94352065D01*
X166562349Y-95379139D01*
X166576315Y-95387582D01*
X166585212Y-95383578D01*
X167610704Y-94358085D01*
X167619147Y-94344119D01*
X167617466Y-94340385D01*
X167614547Y-94337630D01*
X167473570Y-94239831D01*
X167463425Y-94233855D01*
X167240190Y-94123768D01*
X167229287Y-94119362D01*
X166992233Y-94043480D01*
X166980781Y-94040731D01*
X166735129Y-94000724D01*
X166723395Y-93999698D01*
X166474527Y-93996440D01*
X166462773Y-93997159D01*
X166216143Y-94030724D01*
X166204636Y-94033170D01*
X165965679Y-94102819D01*
X165954658Y-94106939D01*
X165728619Y-94211145D01*
X165718322Y-94216853D01*
X165542241Y-94332298D01*
X165531129Y-94344254D01*
X155656500Y-94344254D01*
X155656500Y-76342634D01*
X155658459Y-76317751D01*
X155659310Y-76312381D01*
X155659310Y-76312379D01*
X155661268Y-76300022D01*
X155660030Y-76292201D01*
X155644416Y-76053770D01*
X155643398Y-76048647D01*
X155597300Y-75816840D01*
X155596284Y-75811731D01*
X155572362Y-75741249D01*
X155518640Y-75582970D01*
X155518638Y-75582965D01*
X155516968Y-75578045D01*
X155514669Y-75573382D01*
X155410126Y-75361376D01*
X155410122Y-75361369D01*
X155407826Y-75356713D01*
X155391440Y-75332188D01*
X155336438Y-75249870D01*
X155270726Y-75151522D01*
X155108015Y-74965983D01*
X154926431Y-74806740D01*
X154926395Y-74806708D01*
X154926389Y-74806703D01*
X154922475Y-74803271D01*
X154918146Y-74800378D01*
X154918140Y-74800374D01*
X154721610Y-74669062D01*
X154721605Y-74669059D01*
X154717284Y-74666172D01*
X154712622Y-74663873D01*
X154500614Y-74559329D01*
X154500609Y-74559327D01*
X154495951Y-74557030D01*
X154337613Y-74503289D01*
X154267193Y-74479387D01*
X154267189Y-74479386D01*
X154262266Y-74477715D01*
X154257161Y-74476700D01*
X154257158Y-74476699D01*
X154144119Y-74454220D01*
X154020226Y-74429583D01*
X154015025Y-74429242D01*
X154015022Y-74429242D01*
X153792565Y-74414675D01*
X153792563Y-74414675D01*
X153781827Y-74413972D01*
X153773974Y-74412729D01*
X153761617Y-74414687D01*
X153761615Y-74414687D01*
X153756245Y-74415538D01*
X153731362Y-74417497D01*
X130976615Y-74417497D01*
X130951754Y-74415541D01*
X130934000Y-74412729D01*
X130926115Y-74413978D01*
X130915648Y-74414664D01*
X130692940Y-74429261D01*
X130692935Y-74429262D01*
X130687758Y-74429601D01*
X130445728Y-74477743D01*
X130440807Y-74479413D01*
X130440805Y-74479414D01*
X130216979Y-74555393D01*
X130216977Y-74555394D01*
X130212054Y-74557065D01*
X130207390Y-74559365D01*
X129995399Y-74663907D01*
X129995393Y-74663910D01*
X129990732Y-74666209D01*
X129785549Y-74803307D01*
X129600017Y-74966014D01*
X129437309Y-75151546D01*
X129300211Y-75356728D01*
X129191066Y-75578050D01*
X129189398Y-75582964D01*
X129189395Y-75582971D01*
X129135667Y-75741249D01*
X129111744Y-75811725D01*
X129110730Y-75816821D01*
X129110729Y-75816826D01*
X129090646Y-75917791D01*
X129063601Y-76053754D01*
X129063261Y-76058941D01*
X129063260Y-76058949D01*
X129060180Y-76105946D01*
X129047976Y-76292144D01*
X129046732Y-76299996D01*
X129049544Y-76317750D01*
X129051500Y-76342611D01*
X129051500Y-102647381D01*
X129049544Y-102672242D01*
X129046732Y-102689996D01*
X101678500Y-102689996D01*
X101678500Y-95705786D01*
X107153168Y-95705786D01*
X107165722Y-95967153D01*
X107216771Y-96223793D01*
X107305193Y-96470068D01*
X107307985Y-96475264D01*
X107424371Y-96691868D01*
X107429046Y-96700569D01*
X107585608Y-96910231D01*
X107589794Y-96914380D01*
X107589796Y-96914383D01*
X107767256Y-97090302D01*
X107767261Y-97090306D01*
X107771440Y-97094449D01*
X107852243Y-97153696D01*
X107977702Y-97245686D01*
X107977706Y-97245688D01*
X107982461Y-97249175D01*
X107987677Y-97251919D01*
X107987683Y-97251923D01*
X108208814Y-97368266D01*
X108208818Y-97368268D01*
X108214034Y-97371012D01*
X108461071Y-97457281D01*
X108718147Y-97506089D01*
X108724049Y-97506321D01*
X108724050Y-97506321D01*
X108766600Y-97507993D01*
X108979613Y-97516362D01*
X109239725Y-97487875D01*
X109245425Y-97486374D01*
X109245432Y-97486373D01*
X109487066Y-97422755D01*
X109487069Y-97422754D01*
X109492770Y-97421253D01*
X109733188Y-97317962D01*
X109738203Y-97314858D01*
X109738208Y-97314856D01*
X109863981Y-97237025D01*
X109955698Y-97180269D01*
X109960201Y-97176457D01*
X109960205Y-97176454D01*
X110150912Y-97015008D01*
X110150914Y-97015006D01*
X110155411Y-97011199D01*
X110327941Y-96814467D01*
X110469496Y-96594394D01*
X110576968Y-96355815D01*
X110647995Y-96103972D01*
X110681018Y-95844396D01*
X110683437Y-95752000D01*
X110680003Y-95705786D01*
X116153168Y-95705786D01*
X116165722Y-95967153D01*
X116216771Y-96223793D01*
X116305193Y-96470068D01*
X116307985Y-96475264D01*
X116424371Y-96691868D01*
X116429046Y-96700569D01*
X116585608Y-96910231D01*
X116589794Y-96914380D01*
X116589796Y-96914383D01*
X116767256Y-97090302D01*
X116767261Y-97090306D01*
X116771440Y-97094449D01*
X116852243Y-97153696D01*
X116977702Y-97245686D01*
X116977706Y-97245688D01*
X116982461Y-97249175D01*
X116987677Y-97251919D01*
X116987683Y-97251923D01*
X117208814Y-97368266D01*
X117208818Y-97368268D01*
X117214034Y-97371012D01*
X117461071Y-97457281D01*
X117718147Y-97506089D01*
X117724049Y-97506321D01*
X117724050Y-97506321D01*
X117766600Y-97507993D01*
X117979613Y-97516362D01*
X118239725Y-97487875D01*
X118245425Y-97486374D01*
X118245432Y-97486373D01*
X118487066Y-97422755D01*
X118487069Y-97422754D01*
X118492770Y-97421253D01*
X118733188Y-97317962D01*
X118738203Y-97314858D01*
X118738208Y-97314856D01*
X118863981Y-97237025D01*
X118955698Y-97180269D01*
X118960201Y-97176457D01*
X118960205Y-97176454D01*
X119150912Y-97015008D01*
X119150914Y-97015006D01*
X119155411Y-97011199D01*
X119327941Y-96814467D01*
X119469496Y-96594394D01*
X119576968Y-96355815D01*
X119647995Y-96103972D01*
X119681018Y-95844396D01*
X119683437Y-95752000D01*
X119664045Y-95491052D01*
X119652685Y-95440846D01*
X119607600Y-95241597D01*
X119607598Y-95241592D01*
X119606296Y-95235836D01*
X119511457Y-94991960D01*
X119487766Y-94950508D01*
X119384545Y-94769908D01*
X119384544Y-94769907D01*
X119381614Y-94764780D01*
X119219617Y-94559288D01*
X119029026Y-94379998D01*
X118814027Y-94230848D01*
X118596891Y-94123768D01*
X118584631Y-94117722D01*
X118584628Y-94117721D01*
X118579344Y-94115115D01*
X118573732Y-94113318D01*
X118573728Y-94113317D01*
X118335747Y-94037139D01*
X118335746Y-94037139D01*
X118330133Y-94035342D01*
X118277628Y-94026791D01*
X118077697Y-93994230D01*
X118077693Y-93994230D01*
X118071868Y-93993281D01*
X117941045Y-93991568D01*
X117816129Y-93989933D01*
X117816125Y-93989933D01*
X117810223Y-93989856D01*
X117737905Y-93999698D01*
X117556785Y-94024347D01*
X117556782Y-94024348D01*
X117550945Y-94025142D01*
X117545292Y-94026790D01*
X117545286Y-94026791D01*
X117425338Y-94061753D01*
X117299731Y-94098364D01*
X117294383Y-94100830D01*
X117294379Y-94100831D01*
X117067458Y-94205443D01*
X117067453Y-94205446D01*
X117062099Y-94207914D01*
X117057166Y-94211148D01*
X117057161Y-94211151D01*
X116849662Y-94347194D01*
X116843270Y-94351385D01*
X116648051Y-94525624D01*
X116480730Y-94726806D01*
X116344984Y-94950508D01*
X116243794Y-95191819D01*
X116179384Y-95445435D01*
X116153168Y-95705786D01*
X110680003Y-95705786D01*
X110664045Y-95491052D01*
X110652685Y-95440846D01*
X110607600Y-95241597D01*
X110607598Y-95241592D01*
X110606296Y-95235836D01*
X110511457Y-94991960D01*
X110487766Y-94950508D01*
X110384545Y-94769908D01*
X110384544Y-94769907D01*
X110381614Y-94764780D01*
X110219617Y-94559288D01*
X110029026Y-94379998D01*
X109814027Y-94230848D01*
X109596891Y-94123768D01*
X109584631Y-94117722D01*
X109584628Y-94117721D01*
X109579344Y-94115115D01*
X109573732Y-94113318D01*
X109573728Y-94113317D01*
X109335747Y-94037139D01*
X109335746Y-94037139D01*
X109330133Y-94035342D01*
X109277628Y-94026791D01*
X109077697Y-93994230D01*
X109077693Y-93994230D01*
X109071868Y-93993281D01*
X108941045Y-93991568D01*
X108816129Y-93989933D01*
X108816125Y-93989933D01*
X108810223Y-93989856D01*
X108737905Y-93999698D01*
X108556785Y-94024347D01*
X108556782Y-94024348D01*
X108550945Y-94025142D01*
X108545292Y-94026790D01*
X108545286Y-94026791D01*
X108425338Y-94061753D01*
X108299731Y-94098364D01*
X108294383Y-94100830D01*
X108294379Y-94100831D01*
X108067458Y-94205443D01*
X108067453Y-94205446D01*
X108062099Y-94207914D01*
X108057166Y-94211148D01*
X108057161Y-94211151D01*
X107849662Y-94347194D01*
X107843270Y-94351385D01*
X107648051Y-94525624D01*
X107480730Y-94726806D01*
X107344984Y-94950508D01*
X107243794Y-95191819D01*
X107179384Y-95445435D01*
X107153168Y-95705786D01*
X101678500Y-95705786D01*
X101678500Y-88259033D01*
X121550685Y-88259033D01*
X121551736Y-88268553D01*
X121551736Y-88268556D01*
X121553561Y-88285083D01*
X121568228Y-88417933D01*
X121623168Y-88568063D01*
X121628511Y-88576015D01*
X121628512Y-88576016D01*
X121635581Y-88586535D01*
X121712333Y-88700754D01*
X121830575Y-88808346D01*
X121838991Y-88812915D01*
X121838993Y-88812917D01*
X121962645Y-88880055D01*
X121962647Y-88880056D01*
X121971068Y-88884628D01*
X122125702Y-88925195D01*
X122135281Y-88925345D01*
X122135285Y-88925346D01*
X122209405Y-88926510D01*
X122285548Y-88927706D01*
X122295853Y-88925346D01*
X122320828Y-88919626D01*
X122441380Y-88892016D01*
X122584200Y-88820185D01*
X122705763Y-88716360D01*
X122799052Y-88586535D01*
X122858680Y-88438206D01*
X122881205Y-88279934D01*
X122881351Y-88266000D01*
X122862145Y-88107292D01*
X122805636Y-87957746D01*
X122715087Y-87825995D01*
X122702175Y-87814491D01*
X122602880Y-87726022D01*
X122602876Y-87726019D01*
X122595725Y-87719648D01*
X122454440Y-87644841D01*
X122299391Y-87605895D01*
X122219458Y-87605476D01*
X122149107Y-87605108D01*
X122149106Y-87605108D01*
X122139526Y-87605058D01*
X122091131Y-87616677D01*
X121993397Y-87640140D01*
X121993393Y-87640141D01*
X121984077Y-87642378D01*
X121975562Y-87646773D01*
X121975559Y-87646774D01*
X121850530Y-87711307D01*
X121842017Y-87715701D01*
X121721548Y-87820793D01*
X121629624Y-87951588D01*
X121571552Y-88100534D01*
X121550685Y-88259033D01*
X101678500Y-88259033D01*
X101678500Y-66691033D01*
X116515685Y-66691033D01*
X116516736Y-66700553D01*
X116516736Y-66700556D01*
X116518561Y-66717083D01*
X116533228Y-66849933D01*
X116588168Y-67000063D01*
X116593511Y-67008015D01*
X116593512Y-67008016D01*
X116600581Y-67018535D01*
X116677333Y-67132754D01*
X116795575Y-67240346D01*
X116803991Y-67244915D01*
X116803993Y-67244917D01*
X116927645Y-67312055D01*
X116927647Y-67312056D01*
X116936068Y-67316628D01*
X117022139Y-67339208D01*
X117057025Y-67348360D01*
X117090702Y-67357195D01*
X117100281Y-67357345D01*
X117100285Y-67357346D01*
X117174405Y-67358510D01*
X117250548Y-67359706D01*
X117260853Y-67357346D01*
X117334092Y-67340572D01*
X117406380Y-67324016D01*
X117549200Y-67252185D01*
X117670763Y-67148360D01*
X117764052Y-67018535D01*
X117815308Y-66891033D01*
X119165685Y-66891033D01*
X119166736Y-66900553D01*
X119166736Y-66900556D01*
X119180621Y-67026320D01*
X119183228Y-67049933D01*
X119238168Y-67200063D01*
X119243511Y-67208015D01*
X119243512Y-67208016D01*
X119318566Y-67319707D01*
X119327333Y-67332754D01*
X119445575Y-67440346D01*
X119453991Y-67444915D01*
X119453993Y-67444917D01*
X119577645Y-67512055D01*
X119577647Y-67512056D01*
X119586068Y-67516628D01*
X119740702Y-67557195D01*
X119750281Y-67557345D01*
X119750285Y-67557346D01*
X119824405Y-67558510D01*
X119900548Y-67559706D01*
X119910853Y-67557346D01*
X119935828Y-67551626D01*
X120056380Y-67524016D01*
X120199200Y-67452185D01*
X120307479Y-67359706D01*
X120313470Y-67354589D01*
X120313471Y-67354588D01*
X120320763Y-67348360D01*
X120414052Y-67218535D01*
X120473680Y-67070206D01*
X120496205Y-66911934D01*
X120496351Y-66898000D01*
X120477145Y-66739292D01*
X120420636Y-66589746D01*
X120387844Y-66542032D01*
X120335514Y-66465891D01*
X120335513Y-66465890D01*
X120330087Y-66457995D01*
X120317175Y-66446491D01*
X120217880Y-66358022D01*
X120217876Y-66358019D01*
X120210725Y-66351648D01*
X120069440Y-66276841D01*
X119914391Y-66237895D01*
X119834458Y-66237476D01*
X119764107Y-66237108D01*
X119764106Y-66237108D01*
X119754526Y-66237058D01*
X119715235Y-66246491D01*
X119608397Y-66272140D01*
X119608393Y-66272141D01*
X119599077Y-66274378D01*
X119590562Y-66278773D01*
X119590559Y-66278774D01*
X119465530Y-66343307D01*
X119457017Y-66347701D01*
X119449798Y-66353999D01*
X119449796Y-66354000D01*
X119417869Y-66381852D01*
X119336548Y-66452793D01*
X119244624Y-66583588D01*
X119241142Y-66592520D01*
X119241141Y-66592521D01*
X119194584Y-66711934D01*
X119186552Y-66732534D01*
X119165685Y-66891033D01*
X117815308Y-66891033D01*
X117823680Y-66870206D01*
X117846205Y-66711934D01*
X117846351Y-66698000D01*
X117827145Y-66539292D01*
X117770636Y-66389746D01*
X117744453Y-66351648D01*
X117685514Y-66265891D01*
X117685513Y-66265890D01*
X117680087Y-66257995D01*
X117660147Y-66240229D01*
X117567880Y-66158022D01*
X117567876Y-66158019D01*
X117560725Y-66151648D01*
X117419440Y-66076841D01*
X117264391Y-66037895D01*
X117184459Y-66037477D01*
X117114107Y-66037108D01*
X117114106Y-66037108D01*
X117104526Y-66037058D01*
X117056131Y-66048677D01*
X116958397Y-66072140D01*
X116958393Y-66072141D01*
X116949077Y-66074378D01*
X116940562Y-66078773D01*
X116940559Y-66078774D01*
X116815530Y-66143307D01*
X116807017Y-66147701D01*
X116686548Y-66252793D01*
X116594624Y-66383588D01*
X116536552Y-66532534D01*
X116515685Y-66691033D01*
X101678500Y-66691033D01*
X101678500Y-64066033D01*
X115365685Y-64066033D01*
X115366736Y-64075553D01*
X115366736Y-64075556D01*
X115370160Y-64106569D01*
X115383228Y-64224933D01*
X115438168Y-64375063D01*
X115443511Y-64383015D01*
X115443512Y-64383016D01*
X115519638Y-64496302D01*
X115527333Y-64507754D01*
X115645575Y-64615346D01*
X115653991Y-64619915D01*
X115653993Y-64619917D01*
X115777645Y-64687055D01*
X115777647Y-64687056D01*
X115786068Y-64691628D01*
X115797805Y-64694707D01*
X115918201Y-64726292D01*
X115940702Y-64732195D01*
X115950281Y-64732345D01*
X115950285Y-64732346D01*
X116024405Y-64733510D01*
X116100548Y-64734706D01*
X116110853Y-64732346D01*
X116161021Y-64720856D01*
X116256380Y-64699016D01*
X116399200Y-64627185D01*
X116520763Y-64523360D01*
X116614052Y-64393535D01*
X116673680Y-64245206D01*
X116696205Y-64086934D01*
X116696351Y-64073000D01*
X116677145Y-63914292D01*
X116620636Y-63764746D01*
X116530087Y-63632995D01*
X116522932Y-63626620D01*
X116417880Y-63533022D01*
X116417876Y-63533019D01*
X116410725Y-63526648D01*
X116269440Y-63451841D01*
X116114391Y-63412895D01*
X116034458Y-63412476D01*
X115964107Y-63412108D01*
X115964106Y-63412108D01*
X115954526Y-63412058D01*
X115906131Y-63423677D01*
X115808397Y-63447140D01*
X115808393Y-63447141D01*
X115799077Y-63449378D01*
X115790562Y-63453773D01*
X115790559Y-63453774D01*
X115693013Y-63504122D01*
X115657017Y-63522701D01*
X115536548Y-63627793D01*
X115444624Y-63758588D01*
X115441142Y-63767520D01*
X115441141Y-63767521D01*
X115398820Y-63876068D01*
X115386552Y-63907534D01*
X115365685Y-64066033D01*
X101678500Y-64066033D01*
X101678500Y-63111786D01*
X127511168Y-63111786D01*
X127523722Y-63373153D01*
X127574771Y-63629793D01*
X127576762Y-63635338D01*
X127576763Y-63635342D01*
X127626441Y-63773706D01*
X127663193Y-63876068D01*
X127665985Y-63881264D01*
X127776496Y-64086934D01*
X127787046Y-64106569D01*
X127943608Y-64316231D01*
X127947794Y-64320380D01*
X127947796Y-64320383D01*
X128125256Y-64496302D01*
X128125261Y-64496306D01*
X128129440Y-64500449D01*
X128241281Y-64582454D01*
X128335702Y-64651686D01*
X128335706Y-64651688D01*
X128340461Y-64655175D01*
X128345677Y-64657919D01*
X128345683Y-64657923D01*
X128566814Y-64774266D01*
X128566818Y-64774268D01*
X128572034Y-64777012D01*
X128819071Y-64863281D01*
X129076147Y-64912089D01*
X129082049Y-64912321D01*
X129082050Y-64912321D01*
X129124600Y-64913993D01*
X129337613Y-64922362D01*
X129597725Y-64893875D01*
X129603425Y-64892374D01*
X129603432Y-64892373D01*
X129845066Y-64828755D01*
X129845069Y-64828754D01*
X129850770Y-64827253D01*
X130053764Y-64740040D01*
X130085765Y-64726292D01*
X130085766Y-64726291D01*
X130091188Y-64723962D01*
X130096203Y-64720858D01*
X130096208Y-64720856D01*
X130277131Y-64608897D01*
X130313698Y-64586269D01*
X130318201Y-64582457D01*
X130318205Y-64582454D01*
X130508912Y-64421008D01*
X130508914Y-64421006D01*
X130513411Y-64417199D01*
X130685941Y-64220467D01*
X130779150Y-64075556D01*
X130824307Y-64005352D01*
X130824307Y-64005351D01*
X130827496Y-64000394D01*
X130934968Y-63761815D01*
X130938091Y-63750744D01*
X130999494Y-63533022D01*
X131005995Y-63509972D01*
X131039018Y-63250396D01*
X131041437Y-63158000D01*
X131022045Y-62897052D01*
X131011723Y-62851435D01*
X130965600Y-62647597D01*
X130965598Y-62647592D01*
X130964296Y-62641836D01*
X130869457Y-62397960D01*
X130845766Y-62356508D01*
X130742545Y-62175908D01*
X130742544Y-62175907D01*
X130739614Y-62170780D01*
X130683655Y-62099796D01*
X130581272Y-61969924D01*
X130581270Y-61969922D01*
X130577617Y-61965288D01*
X130387026Y-61785998D01*
X130172027Y-61636848D01*
X129942803Y-61523807D01*
X129942631Y-61523722D01*
X129942628Y-61523721D01*
X129937344Y-61521115D01*
X129931732Y-61519318D01*
X129931728Y-61519317D01*
X129693747Y-61443139D01*
X129693746Y-61443139D01*
X129688133Y-61441342D01*
X129635628Y-61432791D01*
X129435697Y-61400230D01*
X129435693Y-61400230D01*
X129429868Y-61399281D01*
X129299045Y-61397568D01*
X129174129Y-61395933D01*
X129174125Y-61395933D01*
X129168223Y-61395856D01*
X129070756Y-61409121D01*
X128914785Y-61430347D01*
X128914782Y-61430348D01*
X128908945Y-61431142D01*
X128903292Y-61432790D01*
X128903286Y-61432791D01*
X128783338Y-61467753D01*
X128657731Y-61504364D01*
X128652383Y-61506830D01*
X128652379Y-61506831D01*
X128425458Y-61611443D01*
X128425453Y-61611446D01*
X128420099Y-61613914D01*
X128415166Y-61617148D01*
X128415161Y-61617151D01*
X128206204Y-61754150D01*
X128201270Y-61757385D01*
X128196867Y-61761314D01*
X128196868Y-61761314D01*
X128102875Y-61845206D01*
X128006051Y-61931624D01*
X128002281Y-61936157D01*
X128002278Y-61936160D01*
X127904284Y-62053986D01*
X127838730Y-62132806D01*
X127702984Y-62356508D01*
X127601794Y-62597819D01*
X127537384Y-62851435D01*
X127511168Y-63111786D01*
X101678500Y-63111786D01*
X101678500Y-61666033D01*
X113490685Y-61666033D01*
X113491736Y-61675553D01*
X113491736Y-61675556D01*
X113501204Y-61761314D01*
X113508228Y-61824933D01*
X113563168Y-61975063D01*
X113568511Y-61983015D01*
X113568512Y-61983016D01*
X113575581Y-61993535D01*
X113652333Y-62107754D01*
X113770575Y-62215346D01*
X113778991Y-62219915D01*
X113778993Y-62219917D01*
X113902645Y-62287055D01*
X113902647Y-62287056D01*
X113911068Y-62291628D01*
X114065702Y-62332195D01*
X114075281Y-62332345D01*
X114075285Y-62332346D01*
X114149405Y-62333510D01*
X114225548Y-62334706D01*
X114235853Y-62332346D01*
X114260828Y-62326626D01*
X114381380Y-62299016D01*
X114524200Y-62227185D01*
X114595674Y-62166140D01*
X114638470Y-62129589D01*
X114638471Y-62129588D01*
X114645763Y-62123360D01*
X114739052Y-61993535D01*
X114798680Y-61845206D01*
X114821205Y-61686934D01*
X114821351Y-61673000D01*
X114802145Y-61514292D01*
X114745636Y-61364746D01*
X114724991Y-61334706D01*
X114660514Y-61240891D01*
X114660513Y-61240890D01*
X114655087Y-61232995D01*
X114641575Y-61220956D01*
X114542880Y-61133022D01*
X114542876Y-61133019D01*
X114535725Y-61126648D01*
X114394440Y-61051841D01*
X114239391Y-61012895D01*
X114159458Y-61012476D01*
X114089107Y-61012108D01*
X114089106Y-61012108D01*
X114079526Y-61012058D01*
X114031131Y-61023677D01*
X113933397Y-61047140D01*
X113933393Y-61047141D01*
X113924077Y-61049378D01*
X113915562Y-61053773D01*
X113915559Y-61053774D01*
X113826394Y-61099796D01*
X113782017Y-61122701D01*
X113661548Y-61227793D01*
X113569624Y-61358588D01*
X113511552Y-61507534D01*
X113490685Y-61666033D01*
X101678500Y-61666033D01*
X101678500Y-60666033D01*
X108165685Y-60666033D01*
X108166736Y-60675553D01*
X108166736Y-60675556D01*
X108168561Y-60692083D01*
X108183228Y-60824933D01*
X108238168Y-60975063D01*
X108243511Y-60983015D01*
X108243512Y-60983016D01*
X108291060Y-61053774D01*
X108327333Y-61107754D01*
X108445575Y-61215346D01*
X108453991Y-61219915D01*
X108453993Y-61219917D01*
X108577645Y-61287055D01*
X108577647Y-61287056D01*
X108586068Y-61291628D01*
X108740702Y-61332195D01*
X108750281Y-61332345D01*
X108750285Y-61332346D01*
X108824405Y-61333510D01*
X108900548Y-61334706D01*
X108910853Y-61332346D01*
X108935828Y-61326626D01*
X109056380Y-61299016D01*
X109199200Y-61227185D01*
X109320763Y-61123360D01*
X109414052Y-60993535D01*
X109473680Y-60845206D01*
X109496205Y-60686934D01*
X109496351Y-60673000D01*
X109477145Y-60514292D01*
X109420636Y-60364746D01*
X109330087Y-60232995D01*
X109317175Y-60221491D01*
X109217880Y-60133022D01*
X109217876Y-60133019D01*
X109210725Y-60126648D01*
X109069440Y-60051841D01*
X108914391Y-60012895D01*
X108834458Y-60012476D01*
X108764107Y-60012108D01*
X108764106Y-60012108D01*
X108754526Y-60012058D01*
X108706131Y-60023677D01*
X108608397Y-60047140D01*
X108608393Y-60047141D01*
X108599077Y-60049378D01*
X108590562Y-60053773D01*
X108590559Y-60053774D01*
X108465530Y-60118307D01*
X108457017Y-60122701D01*
X108336548Y-60227793D01*
X108244624Y-60358588D01*
X108186552Y-60507534D01*
X108165685Y-60666033D01*
X101678500Y-60666033D01*
X101678500Y-57466033D01*
X166190685Y-57466033D01*
X166191736Y-57475553D01*
X166191736Y-57475556D01*
X166207176Y-57615405D01*
X166208228Y-57624933D01*
X166263168Y-57775063D01*
X166268511Y-57783015D01*
X166268512Y-57783016D01*
X166295923Y-57823807D01*
X166352333Y-57907754D01*
X166470575Y-58015346D01*
X166478991Y-58019915D01*
X166478993Y-58019917D01*
X166602645Y-58087055D01*
X166602647Y-58087056D01*
X166611068Y-58091628D01*
X166622805Y-58094707D01*
X166738021Y-58124933D01*
X166765702Y-58132195D01*
X166775281Y-58132345D01*
X166775285Y-58132346D01*
X166849405Y-58133510D01*
X166925548Y-58134706D01*
X166935853Y-58132346D01*
X166960828Y-58126626D01*
X167081380Y-58099016D01*
X167224200Y-58027185D01*
X167295800Y-57966033D01*
X173815685Y-57966033D01*
X173816736Y-57975553D01*
X173816736Y-57975556D01*
X173829891Y-58094707D01*
X173833228Y-58124933D01*
X173888168Y-58275063D01*
X173893511Y-58283015D01*
X173893512Y-58283016D01*
X173961802Y-58384641D01*
X173977333Y-58407754D01*
X174095575Y-58515346D01*
X174103991Y-58519915D01*
X174103993Y-58519917D01*
X174227645Y-58587055D01*
X174227647Y-58587056D01*
X174236068Y-58591628D01*
X174247805Y-58594707D01*
X174371605Y-58627185D01*
X174390702Y-58632195D01*
X174400281Y-58632345D01*
X174400285Y-58632346D01*
X174474405Y-58633510D01*
X174550548Y-58634706D01*
X174560853Y-58632346D01*
X174610584Y-58620956D01*
X174706380Y-58599016D01*
X174849200Y-58527185D01*
X174970763Y-58423360D01*
X175064052Y-58293535D01*
X175123680Y-58145206D01*
X175134948Y-58066033D01*
X179115685Y-58066033D01*
X179116736Y-58075553D01*
X179116736Y-58075556D01*
X179123378Y-58135717D01*
X179133228Y-58224933D01*
X179188168Y-58375063D01*
X179193511Y-58383015D01*
X179193512Y-58383016D01*
X179210136Y-58407754D01*
X179277333Y-58507754D01*
X179395575Y-58615346D01*
X179403991Y-58619915D01*
X179403993Y-58619917D01*
X179527645Y-58687055D01*
X179527647Y-58687056D01*
X179536068Y-58691628D01*
X179690702Y-58732195D01*
X179700281Y-58732345D01*
X179700285Y-58732346D01*
X179774405Y-58733510D01*
X179850548Y-58734706D01*
X179860853Y-58732346D01*
X179885828Y-58726626D01*
X180006380Y-58699016D01*
X180149200Y-58627185D01*
X180270763Y-58523360D01*
X180334753Y-58434308D01*
X180358458Y-58401320D01*
X180358458Y-58401319D01*
X180364052Y-58393535D01*
X180423680Y-58245206D01*
X180446205Y-58086934D01*
X180446351Y-58073000D01*
X180427145Y-57914292D01*
X180386804Y-57807534D01*
X180374022Y-57773706D01*
X180374021Y-57773704D01*
X180370636Y-57764746D01*
X180297677Y-57658588D01*
X180285514Y-57640891D01*
X180285513Y-57640890D01*
X180280087Y-57632995D01*
X180272932Y-57626620D01*
X180167880Y-57533022D01*
X180167876Y-57533019D01*
X180160725Y-57526648D01*
X180019440Y-57451841D01*
X179864391Y-57412895D01*
X179784458Y-57412476D01*
X179714107Y-57412108D01*
X179714106Y-57412108D01*
X179704526Y-57412058D01*
X179678497Y-57418307D01*
X179558397Y-57447140D01*
X179558393Y-57447141D01*
X179549077Y-57449378D01*
X179540562Y-57453773D01*
X179540559Y-57453774D01*
X179466338Y-57492083D01*
X179407017Y-57522701D01*
X179399798Y-57528999D01*
X179399796Y-57529000D01*
X179293772Y-57621491D01*
X179286548Y-57627793D01*
X179194624Y-57758588D01*
X179191142Y-57767520D01*
X179191141Y-57767521D01*
X179172906Y-57814292D01*
X179136552Y-57907534D01*
X179115685Y-58066033D01*
X175134948Y-58066033D01*
X175146205Y-57986934D01*
X175146351Y-57973000D01*
X175127145Y-57814292D01*
X175070636Y-57664746D01*
X175048815Y-57632995D01*
X174985514Y-57540891D01*
X174985513Y-57540890D01*
X174980087Y-57532995D01*
X174967175Y-57521491D01*
X174867880Y-57433022D01*
X174867876Y-57433019D01*
X174860725Y-57426648D01*
X174719440Y-57351841D01*
X174564391Y-57312895D01*
X174484459Y-57312477D01*
X174414107Y-57312108D01*
X174414106Y-57312108D01*
X174404526Y-57312058D01*
X174383808Y-57317032D01*
X174258397Y-57347140D01*
X174258393Y-57347141D01*
X174249077Y-57349378D01*
X174240562Y-57353773D01*
X174240559Y-57353774D01*
X174115530Y-57418307D01*
X174107017Y-57422701D01*
X174099798Y-57428999D01*
X174099796Y-57429000D01*
X174055293Y-57467823D01*
X173986548Y-57527793D01*
X173894624Y-57658588D01*
X173891142Y-57667520D01*
X173891141Y-57667521D01*
X173849741Y-57773706D01*
X173836552Y-57807534D01*
X173815685Y-57966033D01*
X167295800Y-57966033D01*
X167345763Y-57923360D01*
X167428993Y-57807534D01*
X167433458Y-57801320D01*
X167433458Y-57801319D01*
X167439052Y-57793535D01*
X167498680Y-57645206D01*
X167521205Y-57486934D01*
X167521351Y-57473000D01*
X167502145Y-57314292D01*
X167445636Y-57164746D01*
X167355087Y-57032995D01*
X167342175Y-57021491D01*
X167242880Y-56933022D01*
X167242876Y-56933019D01*
X167235725Y-56926648D01*
X167094440Y-56851841D01*
X166939391Y-56812895D01*
X166859458Y-56812476D01*
X166789107Y-56812108D01*
X166789106Y-56812108D01*
X166779526Y-56812058D01*
X166731131Y-56823677D01*
X166633397Y-56847140D01*
X166633393Y-56847141D01*
X166624077Y-56849378D01*
X166615562Y-56853773D01*
X166615559Y-56853774D01*
X166490530Y-56918307D01*
X166482017Y-56922701D01*
X166361548Y-57027793D01*
X166269624Y-57158588D01*
X166211552Y-57307534D01*
X166190685Y-57466033D01*
X101678500Y-57466033D01*
X101678500Y-54111786D01*
X127511168Y-54111786D01*
X127523722Y-54373153D01*
X127574771Y-54629793D01*
X127576762Y-54635338D01*
X127576763Y-54635342D01*
X127594820Y-54685635D01*
X127663193Y-54876068D01*
X127665985Y-54881264D01*
X127710598Y-54964292D01*
X127787046Y-55106569D01*
X127943608Y-55316231D01*
X127947794Y-55320380D01*
X127947796Y-55320383D01*
X128125256Y-55496302D01*
X128125261Y-55496306D01*
X128129440Y-55500449D01*
X128207595Y-55557754D01*
X128335702Y-55651686D01*
X128335706Y-55651688D01*
X128340461Y-55655175D01*
X128345677Y-55657919D01*
X128345683Y-55657923D01*
X128566814Y-55774266D01*
X128566818Y-55774268D01*
X128572034Y-55777012D01*
X128819071Y-55863281D01*
X129076147Y-55912089D01*
X129082049Y-55912321D01*
X129082050Y-55912321D01*
X129124600Y-55913993D01*
X129337613Y-55922362D01*
X129597725Y-55893875D01*
X129603425Y-55892374D01*
X129603432Y-55892373D01*
X129845066Y-55828755D01*
X129845069Y-55828754D01*
X129850770Y-55827253D01*
X130091188Y-55723962D01*
X130096203Y-55720858D01*
X130096208Y-55720856D01*
X130221981Y-55643025D01*
X130313698Y-55586269D01*
X130318201Y-55582457D01*
X130318205Y-55582454D01*
X130508912Y-55421008D01*
X130508914Y-55421006D01*
X130513411Y-55417199D01*
X130685941Y-55220467D01*
X130753115Y-55116033D01*
X173815685Y-55116033D01*
X173816736Y-55125553D01*
X173816736Y-55125556D01*
X173818561Y-55142083D01*
X173833228Y-55274933D01*
X173888168Y-55425063D01*
X173893511Y-55433015D01*
X173893512Y-55433016D01*
X173936039Y-55496302D01*
X173977333Y-55557754D01*
X174095575Y-55665346D01*
X174103991Y-55669915D01*
X174103993Y-55669917D01*
X174227645Y-55737055D01*
X174227647Y-55737056D01*
X174236068Y-55741628D01*
X174390702Y-55782195D01*
X174400281Y-55782345D01*
X174400285Y-55782346D01*
X174474405Y-55783510D01*
X174550548Y-55784706D01*
X174560853Y-55782346D01*
X174596132Y-55774266D01*
X174706380Y-55749016D01*
X174849200Y-55677185D01*
X174955649Y-55586269D01*
X174963470Y-55579589D01*
X174963471Y-55579588D01*
X174970763Y-55573360D01*
X175064052Y-55443535D01*
X175123680Y-55295206D01*
X175146205Y-55136934D01*
X175146351Y-55123000D01*
X175127145Y-54964292D01*
X175070636Y-54814746D01*
X174980087Y-54682995D01*
X174967175Y-54671491D01*
X174867880Y-54583022D01*
X174867876Y-54583019D01*
X174860725Y-54576648D01*
X174719440Y-54501841D01*
X174564391Y-54462895D01*
X174484458Y-54462476D01*
X174414107Y-54462108D01*
X174414106Y-54462108D01*
X174404526Y-54462058D01*
X174356131Y-54473677D01*
X174258397Y-54497140D01*
X174258393Y-54497141D01*
X174249077Y-54499378D01*
X174240562Y-54503773D01*
X174240559Y-54503774D01*
X174115530Y-54568307D01*
X174107017Y-54572701D01*
X173986548Y-54677793D01*
X173894624Y-54808588D01*
X173891142Y-54817520D01*
X173891141Y-54817521D01*
X173840032Y-54948608D01*
X173836552Y-54957534D01*
X173815685Y-55116033D01*
X130753115Y-55116033D01*
X130827496Y-55000394D01*
X130842525Y-54967032D01*
X130932546Y-54767191D01*
X130934968Y-54761815D01*
X130958996Y-54676620D01*
X131004393Y-54515652D01*
X131005995Y-54509972D01*
X131039018Y-54250396D01*
X131041437Y-54158000D01*
X131022045Y-53897052D01*
X131018578Y-53881730D01*
X131015026Y-53866033D01*
X176065685Y-53866033D01*
X176066736Y-53875553D01*
X176066736Y-53875556D01*
X176069759Y-53902937D01*
X176083228Y-54024933D01*
X176138168Y-54175063D01*
X176143511Y-54183015D01*
X176143512Y-54183016D01*
X176191452Y-54254357D01*
X176227333Y-54307754D01*
X176345575Y-54415346D01*
X176353991Y-54419915D01*
X176353993Y-54419917D01*
X176477645Y-54487055D01*
X176477647Y-54487056D01*
X176486068Y-54491628D01*
X176640702Y-54532195D01*
X176650281Y-54532345D01*
X176650285Y-54532346D01*
X176724405Y-54533510D01*
X176800548Y-54534706D01*
X176810853Y-54532346D01*
X176835828Y-54526626D01*
X176956380Y-54499016D01*
X177099200Y-54427185D01*
X177220763Y-54323360D01*
X177314052Y-54193535D01*
X177373680Y-54045206D01*
X177396205Y-53886934D01*
X177396351Y-53873000D01*
X177377145Y-53714292D01*
X177333133Y-53597819D01*
X177324022Y-53573706D01*
X177324021Y-53573704D01*
X177320636Y-53564746D01*
X177294822Y-53527185D01*
X177235514Y-53440891D01*
X177235513Y-53440890D01*
X177230087Y-53432995D01*
X177192825Y-53399796D01*
X177117880Y-53333022D01*
X177117876Y-53333019D01*
X177110725Y-53326648D01*
X176969440Y-53251841D01*
X176814391Y-53212895D01*
X176734459Y-53212477D01*
X176664107Y-53212108D01*
X176664106Y-53212108D01*
X176654526Y-53212058D01*
X176606131Y-53223677D01*
X176508397Y-53247140D01*
X176508393Y-53247141D01*
X176499077Y-53249378D01*
X176490562Y-53253773D01*
X176490559Y-53253774D01*
X176365530Y-53318307D01*
X176357017Y-53322701D01*
X176349798Y-53328999D01*
X176349796Y-53329000D01*
X176264438Y-53403463D01*
X176236548Y-53427793D01*
X176144624Y-53558588D01*
X176141142Y-53567520D01*
X176141141Y-53567521D01*
X176090032Y-53698608D01*
X176086552Y-53707534D01*
X176065685Y-53866033D01*
X131015026Y-53866033D01*
X130965600Y-53647597D01*
X130965598Y-53647592D01*
X130964296Y-53641836D01*
X130869457Y-53397960D01*
X130845766Y-53356508D01*
X130742545Y-53175908D01*
X130742544Y-53175907D01*
X130739614Y-53170780D01*
X130689534Y-53107253D01*
X130581272Y-52969924D01*
X130581270Y-52969922D01*
X130578204Y-52966033D01*
X173315685Y-52966033D01*
X173316736Y-52975553D01*
X173316736Y-52975556D01*
X173318561Y-52992083D01*
X173333228Y-53124933D01*
X173388168Y-53275063D01*
X173393511Y-53283015D01*
X173393512Y-53283016D01*
X173470752Y-53397960D01*
X173477333Y-53407754D01*
X173595575Y-53515346D01*
X173603991Y-53519915D01*
X173603993Y-53519917D01*
X173727645Y-53587055D01*
X173727647Y-53587056D01*
X173736068Y-53591628D01*
X173890702Y-53632195D01*
X173900281Y-53632345D01*
X173900285Y-53632346D01*
X173974405Y-53633510D01*
X174050548Y-53634706D01*
X174060853Y-53632346D01*
X174085828Y-53626626D01*
X174206380Y-53599016D01*
X174349200Y-53527185D01*
X174470763Y-53423360D01*
X174543479Y-53322165D01*
X174558458Y-53301320D01*
X174558458Y-53301319D01*
X174564052Y-53293535D01*
X174623680Y-53145206D01*
X174646205Y-52986934D01*
X174646351Y-52973000D01*
X174627145Y-52814292D01*
X174570636Y-52664746D01*
X174551463Y-52636848D01*
X174485514Y-52540891D01*
X174485513Y-52540890D01*
X174480087Y-52532995D01*
X174428226Y-52486789D01*
X174385171Y-52424037D01*
X174376211Y-52348464D01*
X174403397Y-52277383D01*
X174460503Y-52227078D01*
X174536492Y-52209093D01*
X174565961Y-52209556D01*
X174565966Y-52209555D01*
X174575548Y-52209706D01*
X174731380Y-52174016D01*
X174874200Y-52102185D01*
X174995763Y-51998360D01*
X175089052Y-51868535D01*
X175148680Y-51720206D01*
X175171205Y-51561934D01*
X175171351Y-51548000D01*
X175152145Y-51389292D01*
X175115961Y-51293535D01*
X175099022Y-51248706D01*
X175099021Y-51248704D01*
X175095636Y-51239746D01*
X175005087Y-51107995D01*
X174992175Y-51096491D01*
X174892880Y-51008022D01*
X174892876Y-51008019D01*
X174885725Y-51001648D01*
X174818460Y-50966033D01*
X180765685Y-50966033D01*
X180766736Y-50975553D01*
X180766736Y-50975556D01*
X180780088Y-51096491D01*
X180783228Y-51124933D01*
X180838168Y-51275063D01*
X180843511Y-51283015D01*
X180843512Y-51283016D01*
X180921321Y-51398807D01*
X180927333Y-51407754D01*
X181045575Y-51515346D01*
X181053991Y-51519915D01*
X181053993Y-51519917D01*
X181177645Y-51587055D01*
X181177647Y-51587056D01*
X181186068Y-51591628D01*
X181340702Y-51632195D01*
X181350281Y-51632345D01*
X181350285Y-51632346D01*
X181424405Y-51633510D01*
X181500548Y-51634706D01*
X181510853Y-51632346D01*
X181535828Y-51626626D01*
X181656380Y-51599016D01*
X181799200Y-51527185D01*
X181920763Y-51423360D01*
X182014052Y-51293535D01*
X182073680Y-51145206D01*
X182096205Y-50986934D01*
X182096351Y-50973000D01*
X182077145Y-50814292D01*
X182024973Y-50676223D01*
X182024022Y-50673706D01*
X182024021Y-50673704D01*
X182020636Y-50664746D01*
X182008300Y-50646796D01*
X181935514Y-50540891D01*
X181935513Y-50540890D01*
X181930087Y-50532995D01*
X181907717Y-50513064D01*
X181817880Y-50433022D01*
X181817876Y-50433019D01*
X181810725Y-50426648D01*
X181669440Y-50351841D01*
X181514391Y-50312895D01*
X181434458Y-50312476D01*
X181364107Y-50312108D01*
X181364106Y-50312108D01*
X181354526Y-50312058D01*
X181306131Y-50323677D01*
X181208397Y-50347140D01*
X181208393Y-50347141D01*
X181199077Y-50349378D01*
X181190562Y-50353773D01*
X181190559Y-50353774D01*
X181098870Y-50401099D01*
X181057017Y-50422701D01*
X180936548Y-50527793D01*
X180844624Y-50658588D01*
X180841142Y-50667520D01*
X180841141Y-50667521D01*
X180804170Y-50762346D01*
X180786552Y-50807534D01*
X180765685Y-50966033D01*
X174818460Y-50966033D01*
X174744440Y-50926841D01*
X174589391Y-50887895D01*
X174509458Y-50887476D01*
X174439107Y-50887108D01*
X174439106Y-50887108D01*
X174429526Y-50887058D01*
X174381131Y-50898677D01*
X174283397Y-50922140D01*
X174283393Y-50922141D01*
X174274077Y-50924378D01*
X174265562Y-50928773D01*
X174265559Y-50928774D01*
X174140530Y-50993307D01*
X174132017Y-50997701D01*
X174011548Y-51102793D01*
X173919624Y-51233588D01*
X173861552Y-51382534D01*
X173840685Y-51541033D01*
X173841736Y-51550553D01*
X173841736Y-51550556D01*
X173850766Y-51632346D01*
X173858228Y-51699933D01*
X173913168Y-51850063D01*
X173918511Y-51858015D01*
X173918512Y-51858016D01*
X173925581Y-51868535D01*
X174002333Y-51982754D01*
X174009426Y-51989208D01*
X174060532Y-52035711D01*
X174102927Y-52098911D01*
X174111095Y-52174573D01*
X174083165Y-52245365D01*
X174025536Y-52295069D01*
X173952691Y-52312310D01*
X173914108Y-52312108D01*
X173914107Y-52312108D01*
X173904526Y-52312058D01*
X173856131Y-52323677D01*
X173758397Y-52347140D01*
X173758393Y-52347141D01*
X173749077Y-52349378D01*
X173740562Y-52353773D01*
X173740559Y-52353774D01*
X173615530Y-52418307D01*
X173607017Y-52422701D01*
X173599798Y-52428999D01*
X173599796Y-52429000D01*
X173515295Y-52502715D01*
X173486548Y-52527793D01*
X173394624Y-52658588D01*
X173391142Y-52667520D01*
X173391141Y-52667521D01*
X173343372Y-52790041D01*
X173336552Y-52807534D01*
X173315685Y-52966033D01*
X130578204Y-52966033D01*
X130577617Y-52965288D01*
X130420016Y-52817032D01*
X130391324Y-52790041D01*
X130391323Y-52790040D01*
X130387026Y-52785998D01*
X130172027Y-52636848D01*
X129966788Y-52535635D01*
X129942631Y-52523722D01*
X129942628Y-52523721D01*
X129937344Y-52521115D01*
X129931732Y-52519318D01*
X129931728Y-52519317D01*
X129693747Y-52443139D01*
X129693746Y-52443139D01*
X129688133Y-52441342D01*
X129635628Y-52432791D01*
X129435697Y-52400230D01*
X129435693Y-52400230D01*
X129429868Y-52399281D01*
X129299045Y-52397568D01*
X129174129Y-52395933D01*
X129174125Y-52395933D01*
X129168223Y-52395856D01*
X129070756Y-52409121D01*
X128914785Y-52430347D01*
X128914782Y-52430348D01*
X128908945Y-52431142D01*
X128903292Y-52432790D01*
X128903286Y-52432791D01*
X128783338Y-52467753D01*
X128657731Y-52504364D01*
X128652383Y-52506830D01*
X128652379Y-52506831D01*
X128425458Y-52611443D01*
X128425453Y-52611446D01*
X128420099Y-52613914D01*
X128415166Y-52617148D01*
X128415161Y-52617151D01*
X128328901Y-52673706D01*
X128201270Y-52757385D01*
X128006051Y-52931624D01*
X128002281Y-52936157D01*
X128002278Y-52936160D01*
X127964378Y-52981730D01*
X127838730Y-53132806D01*
X127702984Y-53356508D01*
X127601794Y-53597819D01*
X127537384Y-53851435D01*
X127511168Y-54111786D01*
X101678500Y-54111786D01*
X101678500Y-50769509D01*
X101678508Y-50769139D01*
X101678530Y-50768884D01*
X101678500Y-50706482D01*
X101678500Y-50676223D01*
X101678486Y-50676137D01*
X101678485Y-50676117D01*
X101676835Y-47291033D01*
X107990685Y-47291033D01*
X107991736Y-47300553D01*
X107991736Y-47300556D01*
X108005892Y-47428774D01*
X108008228Y-47449933D01*
X108063168Y-47600063D01*
X108068511Y-47608015D01*
X108068512Y-47608016D01*
X108103247Y-47659706D01*
X108152333Y-47732754D01*
X108270575Y-47840346D01*
X108278991Y-47844915D01*
X108278993Y-47844917D01*
X108402645Y-47912055D01*
X108402647Y-47912056D01*
X108411068Y-47916628D01*
X108565702Y-47957195D01*
X108575281Y-47957345D01*
X108575285Y-47957346D01*
X108649405Y-47958510D01*
X108725548Y-47959706D01*
X108735853Y-47957346D01*
X108838944Y-47933735D01*
X108881380Y-47924016D01*
X109024200Y-47852185D01*
X109116087Y-47773706D01*
X109138470Y-47754589D01*
X109138471Y-47754588D01*
X109145763Y-47748360D01*
X109228661Y-47632995D01*
X109233458Y-47626320D01*
X109233458Y-47626319D01*
X109239052Y-47618535D01*
X109298680Y-47470206D01*
X109321205Y-47311934D01*
X109321351Y-47298000D01*
X109302145Y-47139292D01*
X109246122Y-46991033D01*
X114340685Y-46991033D01*
X114341736Y-47000553D01*
X114341736Y-47000556D01*
X114343561Y-47017086D01*
X114358228Y-47149933D01*
X114413168Y-47300063D01*
X114418511Y-47308015D01*
X114418512Y-47308016D01*
X114496705Y-47424378D01*
X114502333Y-47432754D01*
X114620575Y-47540346D01*
X114628991Y-47544915D01*
X114628993Y-47544917D01*
X114752645Y-47612055D01*
X114752647Y-47612056D01*
X114761068Y-47616628D01*
X114915702Y-47657195D01*
X114925281Y-47657345D01*
X114925285Y-47657346D01*
X114999405Y-47658510D01*
X115075548Y-47659706D01*
X115085853Y-47657346D01*
X115192175Y-47632995D01*
X115231380Y-47624016D01*
X115374200Y-47552185D01*
X115495763Y-47448360D01*
X115589052Y-47318535D01*
X115648680Y-47170206D01*
X115671205Y-47011934D01*
X115671260Y-47006732D01*
X115671272Y-47006568D01*
X115695038Y-46934272D01*
X115749679Y-46881301D01*
X115822678Y-46859790D01*
X115897312Y-46874668D01*
X115942244Y-46906200D01*
X118873389Y-49837345D01*
X118882042Y-49846723D01*
X118886706Y-49852203D01*
X118892748Y-49861779D01*
X118901234Y-49869274D01*
X118901236Y-49869276D01*
X118932493Y-49896881D01*
X118939670Y-49903626D01*
X118950455Y-49914411D01*
X118954975Y-49917799D01*
X118954987Y-49917809D01*
X118957808Y-49919923D01*
X118967703Y-49927978D01*
X119002352Y-49958579D01*
X119012606Y-49963393D01*
X119020490Y-49968572D01*
X119028770Y-49973105D01*
X119037835Y-49979899D01*
X119056076Y-49986737D01*
X119081111Y-49996122D01*
X119092870Y-50001077D01*
X119134720Y-50020725D01*
X119145914Y-50022468D01*
X119154930Y-50025224D01*
X119164152Y-50027252D01*
X119174761Y-50031229D01*
X119207574Y-50033667D01*
X119220847Y-50034654D01*
X119233521Y-50036109D01*
X119235103Y-50036355D01*
X119245737Y-50038011D01*
X119260121Y-50038011D01*
X119271904Y-50038448D01*
X119309294Y-50041227D01*
X119309297Y-50041227D01*
X119320590Y-50042066D01*
X119331666Y-50039702D01*
X119342969Y-50038931D01*
X119343002Y-50039422D01*
X119356369Y-50038011D01*
X174254162Y-50038011D01*
X174266916Y-50038523D01*
X174274074Y-50039099D01*
X174285127Y-50041600D01*
X174338065Y-50038316D01*
X174347909Y-50038011D01*
X174363149Y-50038011D01*
X174368742Y-50037210D01*
X174368744Y-50037210D01*
X174372252Y-50036708D01*
X174384935Y-50035409D01*
X174419767Y-50033248D01*
X174419770Y-50033247D01*
X174431076Y-50032546D01*
X174441735Y-50028697D01*
X174450973Y-50026784D01*
X174460024Y-50024137D01*
X174471243Y-50022531D01*
X174513326Y-50003396D01*
X174525146Y-49998585D01*
X174525756Y-49998365D01*
X174533844Y-49995445D01*
X174557966Y-49986737D01*
X174557967Y-49986736D01*
X174568619Y-49982891D01*
X174577765Y-49976209D01*
X174586102Y-49971776D01*
X174594049Y-49966694D01*
X174604360Y-49962006D01*
X174639383Y-49931828D01*
X174649366Y-49923902D01*
X174659343Y-49916613D01*
X174669509Y-49906447D01*
X174678150Y-49898425D01*
X174706551Y-49873953D01*
X174706555Y-49873949D01*
X174715139Y-49866552D01*
X174721302Y-49857043D01*
X174728746Y-49848510D01*
X174729117Y-49848834D01*
X174737571Y-49838385D01*
X175640887Y-48935070D01*
X175706014Y-48895699D01*
X175753317Y-48888500D01*
X176738684Y-48888500D01*
X176812575Y-48906712D01*
X176851114Y-48935070D01*
X177273878Y-49357834D01*
X177282531Y-49367212D01*
X177287195Y-49372692D01*
X177293237Y-49382268D01*
X177301723Y-49389763D01*
X177301725Y-49389765D01*
X177332982Y-49417370D01*
X177340159Y-49424115D01*
X177350944Y-49434900D01*
X177355464Y-49438288D01*
X177355476Y-49438298D01*
X177358297Y-49440412D01*
X177368192Y-49448467D01*
X177402841Y-49479068D01*
X177413095Y-49483882D01*
X177420973Y-49489057D01*
X177429256Y-49493592D01*
X177438324Y-49500388D01*
X177481612Y-49516616D01*
X177493369Y-49521571D01*
X177535209Y-49541214D01*
X177546402Y-49542957D01*
X177555427Y-49545716D01*
X177564639Y-49547741D01*
X177575250Y-49551719D01*
X177621342Y-49555144D01*
X177634023Y-49556600D01*
X177640157Y-49557555D01*
X177646226Y-49558500D01*
X177660607Y-49558500D01*
X177672389Y-49558937D01*
X177709783Y-49561716D01*
X177709786Y-49561716D01*
X177721079Y-49562555D01*
X177732155Y-49560191D01*
X177743458Y-49559420D01*
X177743491Y-49559911D01*
X177756858Y-49558500D01*
X178328684Y-49558500D01*
X178402575Y-49576712D01*
X178441114Y-49605070D01*
X179081096Y-50245052D01*
X179120467Y-50310179D01*
X179126706Y-50340033D01*
X179130228Y-50371933D01*
X179185168Y-50522063D01*
X179190511Y-50530015D01*
X179190512Y-50530016D01*
X179197581Y-50540535D01*
X179274333Y-50654754D01*
X179392575Y-50762346D01*
X179400991Y-50766915D01*
X179400993Y-50766917D01*
X179524645Y-50834055D01*
X179524647Y-50834056D01*
X179533068Y-50838628D01*
X179687702Y-50879195D01*
X179697281Y-50879345D01*
X179697285Y-50879346D01*
X179771405Y-50880510D01*
X179847548Y-50881706D01*
X179857853Y-50879346D01*
X179882828Y-50873626D01*
X180003380Y-50846016D01*
X180146200Y-50774185D01*
X180267763Y-50670360D01*
X180361052Y-50540535D01*
X180420680Y-50392206D01*
X180443205Y-50233934D01*
X180443351Y-50220000D01*
X180424145Y-50061292D01*
X180372226Y-49923892D01*
X180371022Y-49920706D01*
X180371021Y-49920704D01*
X180367636Y-49911746D01*
X180362056Y-49903626D01*
X180282514Y-49787891D01*
X180282513Y-49787890D01*
X180277087Y-49779995D01*
X180269932Y-49773620D01*
X180164880Y-49680022D01*
X180164876Y-49680019D01*
X180157725Y-49673648D01*
X180016440Y-49598841D01*
X179926948Y-49576362D01*
X179875246Y-49563375D01*
X179808018Y-49527710D01*
X179801551Y-49521595D01*
X179785576Y-49505620D01*
X179746205Y-49440493D01*
X179741610Y-49364529D01*
X179772844Y-49295132D01*
X179826563Y-49251145D01*
X179865630Y-49231496D01*
X179865635Y-49231493D01*
X179874200Y-49227185D01*
X179995763Y-49123360D01*
X180089052Y-48993535D01*
X180148680Y-48845206D01*
X180171205Y-48686934D01*
X180171351Y-48673000D01*
X180152145Y-48514292D01*
X180099632Y-48375320D01*
X180099022Y-48373706D01*
X180099021Y-48373704D01*
X180095636Y-48364746D01*
X180084858Y-48349063D01*
X180010514Y-48240891D01*
X180010513Y-48240890D01*
X180005087Y-48232995D01*
X179997932Y-48226620D01*
X179892880Y-48133022D01*
X179892876Y-48133019D01*
X179885725Y-48126648D01*
X179744440Y-48051841D01*
X179589391Y-48012895D01*
X179509459Y-48012477D01*
X179439107Y-48012108D01*
X179439106Y-48012108D01*
X179429526Y-48012058D01*
X179381131Y-48023677D01*
X179283397Y-48047140D01*
X179283393Y-48047141D01*
X179274077Y-48049378D01*
X179265562Y-48053773D01*
X179265559Y-48053774D01*
X179145713Y-48115632D01*
X179132017Y-48122701D01*
X179124798Y-48128999D01*
X179124796Y-48129000D01*
X179021391Y-48219206D01*
X179015152Y-48224649D01*
X179015149Y-48224651D01*
X179011548Y-48227793D01*
X179011165Y-48227354D01*
X178954171Y-48266023D01*
X178878553Y-48274590D01*
X178807615Y-48247033D01*
X178757608Y-48189667D01*
X178739989Y-48115632D01*
X178741570Y-48094507D01*
X178745472Y-48067088D01*
X178745473Y-48067080D01*
X178746205Y-48061934D01*
X178746261Y-48056677D01*
X178746280Y-48054753D01*
X178746351Y-48048000D01*
X178727145Y-47889292D01*
X178691368Y-47794611D01*
X178674022Y-47748706D01*
X178674021Y-47748704D01*
X178670636Y-47739746D01*
X178664524Y-47730852D01*
X178585514Y-47615891D01*
X178585513Y-47615890D01*
X178580087Y-47607995D01*
X178572932Y-47601620D01*
X178467880Y-47508022D01*
X178467876Y-47508019D01*
X178460725Y-47501648D01*
X178319440Y-47426841D01*
X178164391Y-47387895D01*
X178084458Y-47387476D01*
X178014107Y-47387108D01*
X178014106Y-47387108D01*
X178004526Y-47387058D01*
X177956131Y-47398677D01*
X177858397Y-47422140D01*
X177858393Y-47422141D01*
X177849077Y-47424378D01*
X177840562Y-47428773D01*
X177840559Y-47428774D01*
X177715530Y-47493307D01*
X177707017Y-47497701D01*
X177699798Y-47503999D01*
X177699796Y-47504000D01*
X177599993Y-47591064D01*
X177586548Y-47602793D01*
X177494624Y-47733588D01*
X177491142Y-47742520D01*
X177491141Y-47742521D01*
X177456859Y-47830450D01*
X177413049Y-47892678D01*
X177345339Y-47927419D01*
X177269240Y-47926714D01*
X177252917Y-47921578D01*
X177220394Y-47909386D01*
X177208638Y-47904432D01*
X177177045Y-47889599D01*
X177177038Y-47889597D01*
X177166791Y-47884786D01*
X177155605Y-47883044D01*
X177146577Y-47880284D01*
X177137357Y-47878257D01*
X177126750Y-47874281D01*
X177080658Y-47870856D01*
X177067977Y-47869400D01*
X177061843Y-47868445D01*
X177061842Y-47868445D01*
X177055774Y-47867500D01*
X177041393Y-47867500D01*
X177029611Y-47867063D01*
X176992217Y-47864284D01*
X176992214Y-47864284D01*
X176980921Y-47863445D01*
X176969845Y-47865809D01*
X176958542Y-47866580D01*
X176958509Y-47866089D01*
X176945142Y-47867500D01*
X175548327Y-47867500D01*
X175535573Y-47866988D01*
X175528415Y-47866412D01*
X175517362Y-47863911D01*
X175464425Y-47867195D01*
X175454580Y-47867500D01*
X175439340Y-47867500D01*
X175433747Y-47868301D01*
X175433745Y-47868301D01*
X175430237Y-47868803D01*
X175417554Y-47870102D01*
X175382722Y-47872263D01*
X175382719Y-47872264D01*
X175371413Y-47872965D01*
X175360754Y-47876814D01*
X175351516Y-47878727D01*
X175342465Y-47881374D01*
X175331246Y-47882980D01*
X175296875Y-47898608D01*
X175289164Y-47902114D01*
X175277344Y-47906925D01*
X175275659Y-47907534D01*
X175244523Y-47918774D01*
X175244522Y-47918775D01*
X175233870Y-47922620D01*
X175224724Y-47929302D01*
X175216387Y-47933735D01*
X175208440Y-47938817D01*
X175198129Y-47943505D01*
X175172918Y-47965229D01*
X175163110Y-47973680D01*
X175153123Y-47981609D01*
X175143146Y-47988898D01*
X175132980Y-47999064D01*
X175124339Y-48007086D01*
X175095938Y-48031558D01*
X175095934Y-48031562D01*
X175087350Y-48038959D01*
X175081187Y-48048468D01*
X175073743Y-48057001D01*
X175073372Y-48056677D01*
X175064918Y-48067126D01*
X174161603Y-48970441D01*
X174096476Y-49009812D01*
X174049173Y-49017011D01*
X162611853Y-49017011D01*
X162537962Y-48998799D01*
X162480999Y-48948333D01*
X162477612Y-48939401D01*
X162473302Y-48950273D01*
X162415593Y-48999884D01*
X162343808Y-49017011D01*
X154294799Y-49017011D01*
X154220908Y-48998799D01*
X154163945Y-48948333D01*
X154136958Y-48877176D01*
X154145254Y-48814063D01*
X154142624Y-48813358D01*
X154145104Y-48804101D01*
X154148680Y-48795206D01*
X154171205Y-48636934D01*
X154171351Y-48623000D01*
X154152145Y-48464292D01*
X154111547Y-48356852D01*
X154099022Y-48323706D01*
X154099021Y-48323704D01*
X154095636Y-48314746D01*
X154044878Y-48240891D01*
X154010514Y-48190891D01*
X154010513Y-48190890D01*
X154005087Y-48182995D01*
X153992175Y-48171491D01*
X153892880Y-48083022D01*
X153892876Y-48083019D01*
X153885725Y-48076648D01*
X153816572Y-48040033D01*
X161816685Y-48040033D01*
X161817736Y-48049553D01*
X161817736Y-48049556D01*
X161831894Y-48177793D01*
X161834228Y-48198933D01*
X161889168Y-48349063D01*
X161894511Y-48357015D01*
X161894512Y-48357016D01*
X161962058Y-48457534D01*
X161978333Y-48481754D01*
X162096575Y-48589346D01*
X162104991Y-48593915D01*
X162104993Y-48593917D01*
X162228645Y-48661055D01*
X162228647Y-48661056D01*
X162237068Y-48665628D01*
X162337910Y-48692083D01*
X162384155Y-48704215D01*
X162451006Y-48740582D01*
X162477729Y-48780558D01*
X162506416Y-48738998D01*
X162576357Y-48703024D01*
X162626115Y-48691628D01*
X162707380Y-48673016D01*
X162850200Y-48601185D01*
X162959851Y-48507534D01*
X162964470Y-48503589D01*
X162964471Y-48503588D01*
X162971763Y-48497360D01*
X163065052Y-48367535D01*
X163124680Y-48219206D01*
X163147205Y-48060934D01*
X163147265Y-48055259D01*
X163147296Y-48052214D01*
X163147351Y-48047000D01*
X163128145Y-47888292D01*
X163071636Y-47738746D01*
X163013918Y-47654764D01*
X162986514Y-47614891D01*
X162986513Y-47614890D01*
X162981087Y-47606995D01*
X162973307Y-47600063D01*
X162868880Y-47507022D01*
X162868876Y-47507019D01*
X162861725Y-47500648D01*
X162720440Y-47425841D01*
X162565391Y-47386895D01*
X162485458Y-47386476D01*
X162415107Y-47386108D01*
X162415106Y-47386108D01*
X162405526Y-47386058D01*
X162388153Y-47390229D01*
X162259397Y-47421140D01*
X162259393Y-47421141D01*
X162250077Y-47423378D01*
X162241562Y-47427773D01*
X162241559Y-47427774D01*
X162142120Y-47479099D01*
X162108017Y-47496701D01*
X162100798Y-47502999D01*
X162100796Y-47503000D01*
X162039476Y-47556493D01*
X161987548Y-47601793D01*
X161895624Y-47732588D01*
X161892142Y-47741520D01*
X161892141Y-47741521D01*
X161841715Y-47870857D01*
X161837552Y-47881534D01*
X161816685Y-48040033D01*
X153816572Y-48040033D01*
X153744440Y-48001841D01*
X153589391Y-47962895D01*
X153509458Y-47962476D01*
X153439107Y-47962108D01*
X153439106Y-47962108D01*
X153429526Y-47962058D01*
X153381131Y-47973677D01*
X153283397Y-47997140D01*
X153283393Y-47997141D01*
X153274077Y-47999378D01*
X153265562Y-48003773D01*
X153265559Y-48003774D01*
X153144936Y-48066033D01*
X153132017Y-48072701D01*
X153124798Y-48078999D01*
X153124796Y-48079000D01*
X153067480Y-48129000D01*
X153011548Y-48177793D01*
X152919624Y-48308588D01*
X152916142Y-48317520D01*
X152916141Y-48317521D01*
X152889972Y-48384641D01*
X152861552Y-48457534D01*
X152840685Y-48616033D01*
X152841736Y-48625553D01*
X152841736Y-48625556D01*
X152857176Y-48765405D01*
X152858228Y-48774933D01*
X152861522Y-48783933D01*
X152861523Y-48783939D01*
X152868634Y-48803370D01*
X152876924Y-48879019D01*
X152849108Y-48949856D01*
X152791559Y-48999652D01*
X152719318Y-49017011D01*
X148499376Y-49017011D01*
X148425485Y-48998799D01*
X148368522Y-48948333D01*
X148341535Y-48877176D01*
X148350708Y-48801629D01*
X148393939Y-48738998D01*
X148463880Y-48703024D01*
X148481380Y-48699016D01*
X148624200Y-48627185D01*
X148745763Y-48523360D01*
X148839052Y-48393535D01*
X148898680Y-48245206D01*
X148921205Y-48086934D01*
X148921351Y-48073000D01*
X148902145Y-47914292D01*
X148845636Y-47764746D01*
X148838656Y-47754589D01*
X148760514Y-47640891D01*
X148760513Y-47640890D01*
X148755087Y-47632995D01*
X148739447Y-47619060D01*
X148642880Y-47533022D01*
X148642876Y-47533019D01*
X148635725Y-47526648D01*
X148494440Y-47451841D01*
X148339391Y-47412895D01*
X148259459Y-47412477D01*
X148189107Y-47412108D01*
X148189106Y-47412108D01*
X148179526Y-47412058D01*
X148132375Y-47423378D01*
X148033397Y-47447140D01*
X148033393Y-47447141D01*
X148024077Y-47449378D01*
X148015562Y-47453773D01*
X148015559Y-47453774D01*
X147918249Y-47504000D01*
X147882017Y-47522701D01*
X147874798Y-47528999D01*
X147874796Y-47529000D01*
X147779589Y-47612055D01*
X147761548Y-47627793D01*
X147669624Y-47758588D01*
X147666142Y-47767520D01*
X147666141Y-47767521D01*
X147617986Y-47891032D01*
X147611552Y-47907534D01*
X147590685Y-48066033D01*
X147591736Y-48075553D01*
X147591736Y-48075556D01*
X147606351Y-48207936D01*
X147608228Y-48224933D01*
X147663168Y-48375063D01*
X147668511Y-48383015D01*
X147668512Y-48383016D01*
X147739199Y-48488208D01*
X147752333Y-48507754D01*
X147870575Y-48615346D01*
X147878991Y-48619915D01*
X147878993Y-48619917D01*
X148002645Y-48687055D01*
X148002647Y-48687056D01*
X148011068Y-48691628D01*
X148022805Y-48694707D01*
X148059047Y-48704215D01*
X148125898Y-48740582D01*
X148168191Y-48803850D01*
X148176238Y-48879526D01*
X148148194Y-48950273D01*
X148090485Y-48999884D01*
X148018700Y-49017011D01*
X119562827Y-49017011D01*
X119488936Y-48998799D01*
X119450397Y-48970441D01*
X116744822Y-46264866D01*
X141389864Y-46264866D01*
X141390580Y-46266457D01*
X141396770Y-46271974D01*
X141578994Y-46383640D01*
X141590083Y-46389290D01*
X141804533Y-46478119D01*
X141816376Y-46481967D01*
X142042070Y-46536152D01*
X142054381Y-46538101D01*
X142285774Y-46556312D01*
X142298226Y-46556312D01*
X142529619Y-46538101D01*
X142541930Y-46536152D01*
X142767624Y-46481967D01*
X142779467Y-46478119D01*
X142993917Y-46389290D01*
X143005006Y-46383640D01*
X143182883Y-46274638D01*
X143194353Y-46263028D01*
X143194028Y-46261312D01*
X143189300Y-46254507D01*
X142305651Y-45370858D01*
X142291685Y-45362415D01*
X142282788Y-45366419D01*
X141398307Y-46250900D01*
X141389864Y-46264866D01*
X116744822Y-46264866D01*
X116729070Y-46249114D01*
X116689699Y-46183987D01*
X116682500Y-46136684D01*
X116682500Y-46078171D01*
X116700712Y-46004280D01*
X116751178Y-45947317D01*
X116763809Y-45939444D01*
X116797329Y-45920672D01*
X116797331Y-45920671D01*
X116803689Y-45917110D01*
X116960606Y-45786603D01*
X116969109Y-45776379D01*
X117086452Y-45635291D01*
X117086455Y-45635287D01*
X117091113Y-45629686D01*
X117190838Y-45451613D01*
X117256442Y-45258349D01*
X117256634Y-45257027D01*
X117640413Y-45257027D01*
X117641005Y-45266273D01*
X117665071Y-45361037D01*
X117669915Y-45374716D01*
X117748763Y-45545747D01*
X117756017Y-45558311D01*
X117864707Y-45712106D01*
X117874139Y-45723149D01*
X118009030Y-45854553D01*
X118020314Y-45863691D01*
X118176903Y-45968321D01*
X118189655Y-45975244D01*
X118362685Y-46049584D01*
X118376498Y-46054072D01*
X118439169Y-46068253D01*
X118455487Y-46067941D01*
X118456751Y-46066033D01*
X118458000Y-46058830D01*
X118458000Y-46057488D01*
X118966000Y-46057488D01*
X118969905Y-46073333D01*
X118973612Y-46074739D01*
X118977732Y-46073750D01*
X119156058Y-46013215D01*
X119169321Y-46007310D01*
X119333636Y-45915290D01*
X119345596Y-45907070D01*
X119490382Y-45786653D01*
X119500656Y-45776379D01*
X119621073Y-45631593D01*
X119629293Y-45619633D01*
X119721313Y-45455318D01*
X119727218Y-45442055D01*
X119787404Y-45264755D01*
X119786434Y-45254861D01*
X119781594Y-45252175D01*
X119780254Y-45251997D01*
X118985305Y-45251997D01*
X118969460Y-45255902D01*
X118966000Y-45265026D01*
X118966000Y-46057488D01*
X118458000Y-46057488D01*
X118458000Y-45271302D01*
X118454095Y-45255457D01*
X118444971Y-45251997D01*
X117656684Y-45251997D01*
X117640839Y-45255902D01*
X117640413Y-45257027D01*
X117256634Y-45257027D01*
X117257953Y-45247927D01*
X117285057Y-45061003D01*
X117285058Y-45060995D01*
X117285729Y-45056365D01*
X117287257Y-44997997D01*
X117284574Y-44968803D01*
X120137125Y-44968803D01*
X120137601Y-44976066D01*
X120137601Y-44976068D01*
X120139059Y-44998312D01*
X120150474Y-45172462D01*
X120152267Y-45179522D01*
X120198918Y-45363215D01*
X120198920Y-45363220D01*
X120200712Y-45370277D01*
X120203760Y-45376889D01*
X120203762Y-45376894D01*
X120248354Y-45473621D01*
X120286159Y-45555625D01*
X120403952Y-45722298D01*
X120550146Y-45864714D01*
X120719845Y-45978104D01*
X120726546Y-45980983D01*
X120726548Y-45980984D01*
X120886221Y-46049584D01*
X120907367Y-46058669D01*
X120914479Y-46060278D01*
X120914481Y-46060279D01*
X121099313Y-46102103D01*
X121099318Y-46102104D01*
X121106430Y-46103713D01*
X121221869Y-46108249D01*
X121303080Y-46111440D01*
X121303084Y-46111440D01*
X121310368Y-46111726D01*
X121415812Y-46096437D01*
X121505140Y-46083485D01*
X121505143Y-46083484D01*
X121512352Y-46082439D01*
X121705616Y-46016835D01*
X121883689Y-45917110D01*
X121889290Y-45912452D01*
X121889294Y-45912449D01*
X122035003Y-45791263D01*
X122040606Y-45786603D01*
X122049109Y-45776379D01*
X122166452Y-45635291D01*
X122166455Y-45635287D01*
X122171113Y-45629686D01*
X122270838Y-45451613D01*
X122336442Y-45258349D01*
X122338068Y-45247140D01*
X122365146Y-45060386D01*
X122381341Y-45020496D01*
X122664080Y-45020496D01*
X122680742Y-45067698D01*
X122681500Y-45083202D01*
X122681500Y-45873651D01*
X122696615Y-45949639D01*
X122754190Y-46035807D01*
X122840358Y-46093382D01*
X122916346Y-46108497D01*
X124667654Y-46108497D01*
X124743642Y-46093382D01*
X124829810Y-46035807D01*
X124887385Y-45949639D01*
X124902500Y-45873651D01*
X124902500Y-45004223D01*
X140733685Y-45004223D01*
X140751896Y-45235616D01*
X140753845Y-45247927D01*
X140808030Y-45473621D01*
X140811878Y-45485464D01*
X140900707Y-45699914D01*
X140906357Y-45711003D01*
X141015359Y-45888880D01*
X141026969Y-45900350D01*
X141028685Y-45900025D01*
X141035490Y-45895297D01*
X141919139Y-45011648D01*
X141927201Y-44998312D01*
X142656418Y-44998312D01*
X142660422Y-45007209D01*
X143544903Y-45891690D01*
X143558869Y-45900133D01*
X143560460Y-45899417D01*
X143565977Y-45893227D01*
X143582641Y-45866033D01*
X167115685Y-45866033D01*
X167116736Y-45875553D01*
X167116736Y-45875556D01*
X167124659Y-45947317D01*
X167133228Y-46024933D01*
X167188168Y-46175063D01*
X167193511Y-46183015D01*
X167193512Y-46183016D01*
X167253290Y-46271974D01*
X167277333Y-46307754D01*
X167395575Y-46415346D01*
X167403991Y-46419915D01*
X167403993Y-46419917D01*
X167527645Y-46487055D01*
X167527647Y-46487056D01*
X167536068Y-46491628D01*
X167690702Y-46532195D01*
X167700281Y-46532345D01*
X167700285Y-46532346D01*
X167774405Y-46533510D01*
X167850548Y-46534706D01*
X167860853Y-46532346D01*
X167920928Y-46518587D01*
X168006380Y-46499016D01*
X168149200Y-46427185D01*
X168270763Y-46323360D01*
X168312795Y-46264866D01*
X179889864Y-46264866D01*
X179890580Y-46266457D01*
X179896770Y-46271974D01*
X180078994Y-46383640D01*
X180090083Y-46389290D01*
X180304533Y-46478119D01*
X180316376Y-46481967D01*
X180542070Y-46536152D01*
X180554381Y-46538101D01*
X180785774Y-46556312D01*
X180798226Y-46556312D01*
X181029619Y-46538101D01*
X181041930Y-46536152D01*
X181267624Y-46481967D01*
X181279467Y-46478119D01*
X181493917Y-46389290D01*
X181505006Y-46383640D01*
X181682883Y-46274638D01*
X181694353Y-46263028D01*
X181694028Y-46261312D01*
X181689300Y-46254507D01*
X180805651Y-45370858D01*
X180791685Y-45362415D01*
X180782788Y-45366419D01*
X179898307Y-46250900D01*
X179889864Y-46264866D01*
X168312795Y-46264866D01*
X168364052Y-46193535D01*
X168423680Y-46045206D01*
X168446205Y-45886934D01*
X168446351Y-45873000D01*
X168427145Y-45714292D01*
X168370636Y-45564746D01*
X168364368Y-45555625D01*
X168285514Y-45440891D01*
X168285513Y-45440890D01*
X168280087Y-45432995D01*
X168267175Y-45421491D01*
X168167880Y-45333022D01*
X168167876Y-45333019D01*
X168160725Y-45326648D01*
X168019440Y-45251841D01*
X167864391Y-45212895D01*
X167784459Y-45212477D01*
X167714107Y-45212108D01*
X167714106Y-45212108D01*
X167704526Y-45212058D01*
X167656131Y-45223677D01*
X167558397Y-45247140D01*
X167558393Y-45247141D01*
X167549077Y-45249378D01*
X167540562Y-45253773D01*
X167540559Y-45253774D01*
X167506600Y-45271302D01*
X167407017Y-45322701D01*
X167399798Y-45328999D01*
X167399796Y-45329000D01*
X167293772Y-45421491D01*
X167286548Y-45427793D01*
X167194624Y-45558588D01*
X167191142Y-45567520D01*
X167191141Y-45567521D01*
X167140032Y-45698608D01*
X167136552Y-45707534D01*
X167115685Y-45866033D01*
X143582641Y-45866033D01*
X143677643Y-45711003D01*
X143683293Y-45699914D01*
X143772122Y-45485464D01*
X143775970Y-45473621D01*
X143830155Y-45247927D01*
X143832104Y-45235616D01*
X143850315Y-45004223D01*
X143850315Y-44991771D01*
X143832104Y-44760378D01*
X143830155Y-44748067D01*
X143775970Y-44522373D01*
X143772122Y-44510530D01*
X143743335Y-44441033D01*
X146165685Y-44441033D01*
X146166736Y-44450553D01*
X146166736Y-44450556D01*
X146182176Y-44590405D01*
X146183228Y-44599933D01*
X146238168Y-44750063D01*
X146243511Y-44758015D01*
X146243512Y-44758016D01*
X146273080Y-44802017D01*
X146327333Y-44882754D01*
X146445575Y-44990346D01*
X146453991Y-44994915D01*
X146453993Y-44994917D01*
X146577645Y-45062055D01*
X146577647Y-45062056D01*
X146586068Y-45066628D01*
X146740702Y-45107195D01*
X146750281Y-45107345D01*
X146750285Y-45107346D01*
X146824405Y-45108510D01*
X146900548Y-45109706D01*
X146910853Y-45107346D01*
X147016271Y-45083202D01*
X147056380Y-45074016D01*
X147195148Y-45004223D01*
X179233685Y-45004223D01*
X179251896Y-45235616D01*
X179253845Y-45247927D01*
X179308030Y-45473621D01*
X179311878Y-45485464D01*
X179400707Y-45699914D01*
X179406357Y-45711003D01*
X179515359Y-45888880D01*
X179526969Y-45900350D01*
X179528685Y-45900025D01*
X179535490Y-45895297D01*
X180419139Y-45011648D01*
X180427201Y-44998312D01*
X181156418Y-44998312D01*
X181160422Y-45007209D01*
X182044903Y-45891690D01*
X182058869Y-45900133D01*
X182060460Y-45899417D01*
X182065977Y-45893227D01*
X182177643Y-45711003D01*
X182183293Y-45699914D01*
X182272122Y-45485464D01*
X182275970Y-45473621D01*
X182330155Y-45247927D01*
X182332104Y-45235616D01*
X182350315Y-45004223D01*
X182350315Y-44991771D01*
X182332104Y-44760378D01*
X182330155Y-44748067D01*
X182275970Y-44522373D01*
X182272122Y-44510530D01*
X182183293Y-44296080D01*
X182177643Y-44284991D01*
X182068641Y-44107114D01*
X182057031Y-44095644D01*
X182055315Y-44095969D01*
X182048510Y-44100697D01*
X181164861Y-44984346D01*
X181156418Y-44998312D01*
X180427201Y-44998312D01*
X180427582Y-44997682D01*
X180423578Y-44988785D01*
X179539097Y-44104304D01*
X179525131Y-44095861D01*
X179523540Y-44096577D01*
X179518023Y-44102767D01*
X179406357Y-44284991D01*
X179400707Y-44296080D01*
X179311878Y-44510530D01*
X179308030Y-44522373D01*
X179253845Y-44748067D01*
X179251896Y-44760378D01*
X179233685Y-44991771D01*
X179233685Y-45004223D01*
X147195148Y-45004223D01*
X147199200Y-45002185D01*
X147320763Y-44898360D01*
X147414052Y-44768535D01*
X147473680Y-44620206D01*
X147496205Y-44461934D01*
X147496351Y-44448000D01*
X147477145Y-44289292D01*
X147439326Y-44189208D01*
X147424022Y-44148706D01*
X147424021Y-44148704D01*
X147420636Y-44139746D01*
X147414041Y-44130149D01*
X147335514Y-44015891D01*
X147335513Y-44015890D01*
X147330087Y-44007995D01*
X147322905Y-44001596D01*
X147217880Y-43908022D01*
X147217876Y-43908019D01*
X147210725Y-43901648D01*
X147069440Y-43826841D01*
X146914391Y-43787895D01*
X146834458Y-43787476D01*
X146764107Y-43787108D01*
X146764106Y-43787108D01*
X146754526Y-43787058D01*
X146720587Y-43795206D01*
X146608397Y-43822140D01*
X146608393Y-43822141D01*
X146599077Y-43824378D01*
X146590562Y-43828773D01*
X146590559Y-43828774D01*
X146468000Y-43892032D01*
X146457017Y-43897701D01*
X146449798Y-43903999D01*
X146449796Y-43904000D01*
X146395552Y-43951320D01*
X146336548Y-44002793D01*
X146244624Y-44133588D01*
X146241142Y-44142520D01*
X146241141Y-44142521D01*
X146196281Y-44257580D01*
X146186552Y-44282534D01*
X146165685Y-44441033D01*
X143743335Y-44441033D01*
X143683293Y-44296080D01*
X143677643Y-44284991D01*
X143568641Y-44107114D01*
X143557031Y-44095644D01*
X143555315Y-44095969D01*
X143548510Y-44100697D01*
X142664861Y-44984346D01*
X142656418Y-44998312D01*
X141927201Y-44998312D01*
X141927582Y-44997682D01*
X141923578Y-44988785D01*
X141039097Y-44104304D01*
X141025131Y-44095861D01*
X141023540Y-44096577D01*
X141018023Y-44102767D01*
X140906357Y-44284991D01*
X140900707Y-44296080D01*
X140811878Y-44510530D01*
X140808030Y-44522373D01*
X140753845Y-44748067D01*
X140751896Y-44760378D01*
X140733685Y-44991771D01*
X140733685Y-45004223D01*
X124902500Y-45004223D01*
X124902500Y-44122343D01*
X124887385Y-44046355D01*
X124850654Y-43991382D01*
X124838511Y-43973209D01*
X124829810Y-43960187D01*
X124816540Y-43951320D01*
X124768924Y-43919505D01*
X124743642Y-43902612D01*
X124667654Y-43887497D01*
X122916346Y-43887497D01*
X122840358Y-43902612D01*
X122815076Y-43919505D01*
X122767461Y-43951320D01*
X122754190Y-43960187D01*
X122745489Y-43973209D01*
X122733346Y-43991382D01*
X122696615Y-44046355D01*
X122681500Y-44122343D01*
X122681500Y-44949820D01*
X122664080Y-45020496D01*
X122381341Y-45020496D01*
X122383043Y-45016304D01*
X122368120Y-44987871D01*
X122364167Y-44964369D01*
X122349249Y-44802017D01*
X122348582Y-44794758D01*
X122342548Y-44773361D01*
X122311156Y-44662055D01*
X122293182Y-44598325D01*
X122202913Y-44415277D01*
X122173823Y-44376320D01*
X122085155Y-44257580D01*
X122080797Y-44251744D01*
X121944491Y-44125744D01*
X121936279Y-44118153D01*
X121936278Y-44118152D01*
X121930925Y-44113204D01*
X121758316Y-44004296D01*
X121606017Y-43943535D01*
X121575513Y-43931365D01*
X121575511Y-43931365D01*
X121568750Y-43928667D01*
X121561611Y-43927247D01*
X121561608Y-43927246D01*
X121375721Y-43890270D01*
X121375718Y-43890270D01*
X121368576Y-43888849D01*
X121277849Y-43887662D01*
X121171794Y-43886273D01*
X121171789Y-43886273D01*
X121164498Y-43886178D01*
X120963350Y-43920741D01*
X120771869Y-43991382D01*
X120765601Y-43995111D01*
X120765599Y-43995112D01*
X120602737Y-44092005D01*
X120602735Y-44092007D01*
X120596468Y-44095735D01*
X120590985Y-44100544D01*
X120590983Y-44100545D01*
X120454537Y-44220206D01*
X120443021Y-44230305D01*
X120438511Y-44236026D01*
X120438510Y-44236027D01*
X120426583Y-44251157D01*
X120316667Y-44390585D01*
X120221637Y-44571207D01*
X120219478Y-44578160D01*
X120219476Y-44578165D01*
X120203661Y-44629099D01*
X120161114Y-44766122D01*
X120160258Y-44773354D01*
X120160257Y-44773359D01*
X120144725Y-44904589D01*
X120137125Y-44968803D01*
X117284574Y-44968803D01*
X117268582Y-44794758D01*
X117262548Y-44773361D01*
X117253538Y-44741416D01*
X117639570Y-44741416D01*
X117651622Y-44743997D01*
X118438695Y-44743997D01*
X118454540Y-44740092D01*
X118458000Y-44730968D01*
X118458000Y-44724692D01*
X118966000Y-44724692D01*
X118969905Y-44740537D01*
X118979029Y-44743997D01*
X119768208Y-44743997D01*
X119784053Y-44740092D01*
X119784092Y-44739987D01*
X119783230Y-44728809D01*
X119749069Y-44607686D01*
X119743864Y-44594124D01*
X119660572Y-44425226D01*
X119652985Y-44412844D01*
X119540305Y-44261948D01*
X119530600Y-44251169D01*
X119392306Y-44123331D01*
X119380786Y-44114492D01*
X119221513Y-44013998D01*
X119208586Y-44007411D01*
X119033662Y-43937624D01*
X119019752Y-43933504D01*
X118984935Y-43926578D01*
X118968632Y-43927318D01*
X118966843Y-43930179D01*
X118966000Y-43935448D01*
X118966000Y-44724692D01*
X118458000Y-44724692D01*
X118458000Y-43940687D01*
X118454095Y-43924842D01*
X118449929Y-43923262D01*
X118446576Y-43923345D01*
X118432220Y-43925812D01*
X118418204Y-43929568D01*
X118241523Y-43994749D01*
X118228409Y-44001004D01*
X118066574Y-44097286D01*
X118054820Y-44105826D01*
X117913240Y-44229989D01*
X117903241Y-44240526D01*
X117786655Y-44388413D01*
X117778747Y-44400590D01*
X117691062Y-44567251D01*
X117685505Y-44580667D01*
X117640514Y-44725561D01*
X117639570Y-44741416D01*
X117253538Y-44741416D01*
X117231156Y-44662055D01*
X117213182Y-44598325D01*
X117122913Y-44415277D01*
X117093823Y-44376320D01*
X117005155Y-44257580D01*
X117000797Y-44251744D01*
X116864491Y-44125744D01*
X116856279Y-44118153D01*
X116856278Y-44118152D01*
X116850925Y-44113204D01*
X116678316Y-44004296D01*
X116526017Y-43943535D01*
X116495513Y-43931365D01*
X116495511Y-43931365D01*
X116488750Y-43928667D01*
X116481611Y-43927247D01*
X116481608Y-43927246D01*
X116295721Y-43890270D01*
X116295718Y-43890270D01*
X116288576Y-43888849D01*
X116197849Y-43887662D01*
X116091794Y-43886273D01*
X116091789Y-43886273D01*
X116084498Y-43886178D01*
X115883350Y-43920741D01*
X115691869Y-43991382D01*
X115685601Y-43995111D01*
X115685599Y-43995112D01*
X115522737Y-44092005D01*
X115522735Y-44092007D01*
X115516468Y-44095735D01*
X115510985Y-44100544D01*
X115510983Y-44100545D01*
X115374537Y-44220206D01*
X115363021Y-44230305D01*
X115358511Y-44236026D01*
X115358510Y-44236027D01*
X115346583Y-44251157D01*
X115236667Y-44390585D01*
X115141637Y-44571207D01*
X115139478Y-44578160D01*
X115139476Y-44578165D01*
X115123661Y-44629099D01*
X115081114Y-44766122D01*
X115080257Y-44773359D01*
X115080257Y-44773361D01*
X115058983Y-44953106D01*
X115042487Y-44997002D01*
X115061235Y-45041574D01*
X115062837Y-45055945D01*
X115070474Y-45172462D01*
X115072267Y-45179522D01*
X115118918Y-45363215D01*
X115118920Y-45363220D01*
X115120712Y-45370277D01*
X115123760Y-45376889D01*
X115123762Y-45376894D01*
X115168354Y-45473621D01*
X115206159Y-45555625D01*
X115323952Y-45722298D01*
X115470146Y-45864714D01*
X115523154Y-45900133D01*
X115590836Y-45945357D01*
X115642156Y-46001552D01*
X115661500Y-46077560D01*
X115661500Y-46341673D01*
X115660985Y-46354454D01*
X115660905Y-46355446D01*
X115636812Y-46427634D01*
X115581931Y-46480356D01*
X115508835Y-46501536D01*
X115434270Y-46486319D01*
X115396648Y-46461380D01*
X115392880Y-46458023D01*
X115385725Y-46451648D01*
X115244440Y-46376841D01*
X115089391Y-46337895D01*
X115009458Y-46337476D01*
X114939107Y-46337108D01*
X114939106Y-46337108D01*
X114929526Y-46337058D01*
X114881131Y-46348677D01*
X114783397Y-46372140D01*
X114783393Y-46372141D01*
X114774077Y-46374378D01*
X114765562Y-46378773D01*
X114765559Y-46378774D01*
X114663419Y-46431493D01*
X114632017Y-46447701D01*
X114624798Y-46453999D01*
X114624796Y-46454000D01*
X114532281Y-46534706D01*
X114511548Y-46552793D01*
X114419624Y-46683588D01*
X114361552Y-46832534D01*
X114340685Y-46991033D01*
X109246122Y-46991033D01*
X109245636Y-46989746D01*
X109155087Y-46857995D01*
X109142175Y-46846491D01*
X109042880Y-46758022D01*
X109042876Y-46758019D01*
X109035725Y-46751648D01*
X108894440Y-46676841D01*
X108739391Y-46637895D01*
X108659458Y-46637476D01*
X108589107Y-46637108D01*
X108589106Y-46637108D01*
X108579526Y-46637058D01*
X108531131Y-46648677D01*
X108433397Y-46672140D01*
X108433393Y-46672141D01*
X108424077Y-46674378D01*
X108415562Y-46678773D01*
X108415559Y-46678774D01*
X108290530Y-46743307D01*
X108282017Y-46747701D01*
X108274798Y-46753999D01*
X108274796Y-46754000D01*
X108168772Y-46846491D01*
X108161548Y-46852793D01*
X108069624Y-46983588D01*
X108066142Y-46992520D01*
X108066141Y-46992521D01*
X108015032Y-47123608D01*
X108011552Y-47132534D01*
X107990685Y-47291033D01*
X101676835Y-47291033D01*
X101676335Y-46264866D01*
X102889864Y-46264866D01*
X102890580Y-46266457D01*
X102896770Y-46271974D01*
X103078994Y-46383640D01*
X103090083Y-46389290D01*
X103304533Y-46478119D01*
X103316376Y-46481967D01*
X103542070Y-46536152D01*
X103554381Y-46538101D01*
X103785774Y-46556312D01*
X103798226Y-46556312D01*
X104029619Y-46538101D01*
X104041930Y-46536152D01*
X104267624Y-46481967D01*
X104279467Y-46478119D01*
X104493917Y-46389290D01*
X104505006Y-46383640D01*
X104682883Y-46274638D01*
X104694353Y-46263028D01*
X104694028Y-46261312D01*
X104689300Y-46254507D01*
X103805651Y-45370858D01*
X103791685Y-45362415D01*
X103782788Y-45366419D01*
X102898307Y-46250900D01*
X102889864Y-46264866D01*
X101676335Y-46264866D01*
X101675721Y-45004223D01*
X102233685Y-45004223D01*
X102251896Y-45235616D01*
X102253845Y-45247927D01*
X102308030Y-45473621D01*
X102311878Y-45485464D01*
X102400707Y-45699914D01*
X102406357Y-45711003D01*
X102515359Y-45888880D01*
X102526969Y-45900350D01*
X102528685Y-45900025D01*
X102535490Y-45895297D01*
X103419139Y-45011648D01*
X103427201Y-44998312D01*
X104156418Y-44998312D01*
X104160422Y-45007209D01*
X105044903Y-45891690D01*
X105058869Y-45900133D01*
X105060460Y-45899417D01*
X105065977Y-45893227D01*
X105177643Y-45711003D01*
X105183293Y-45699914D01*
X105272122Y-45485464D01*
X105275970Y-45473621D01*
X105330155Y-45247927D01*
X105332104Y-45235616D01*
X105350315Y-45004223D01*
X105350315Y-44991771D01*
X105348507Y-44968803D01*
X109977125Y-44968803D01*
X109977601Y-44976066D01*
X109977601Y-44976068D01*
X109979059Y-44998312D01*
X109990474Y-45172462D01*
X109992267Y-45179522D01*
X110038918Y-45363215D01*
X110038920Y-45363220D01*
X110040712Y-45370277D01*
X110043760Y-45376889D01*
X110043762Y-45376894D01*
X110088354Y-45473621D01*
X110126159Y-45555625D01*
X110243952Y-45722298D01*
X110390146Y-45864714D01*
X110559845Y-45978104D01*
X110566546Y-45980983D01*
X110566548Y-45980984D01*
X110726221Y-46049584D01*
X110747367Y-46058669D01*
X110754479Y-46060278D01*
X110754481Y-46060279D01*
X110939313Y-46102103D01*
X110939318Y-46102104D01*
X110946430Y-46103713D01*
X111061869Y-46108249D01*
X111143080Y-46111440D01*
X111143084Y-46111440D01*
X111150368Y-46111726D01*
X111255812Y-46096437D01*
X111345140Y-46083485D01*
X111345143Y-46083484D01*
X111352352Y-46082439D01*
X111545616Y-46016835D01*
X111723689Y-45917110D01*
X111729290Y-45912452D01*
X111729294Y-45912449D01*
X111875003Y-45791263D01*
X111880606Y-45786603D01*
X111889109Y-45776379D01*
X112006452Y-45635291D01*
X112006455Y-45635287D01*
X112011113Y-45629686D01*
X112110838Y-45451613D01*
X112176442Y-45258349D01*
X112178068Y-45247140D01*
X112205056Y-45061007D01*
X112205056Y-45061006D01*
X112205729Y-45056365D01*
X112205827Y-45052614D01*
X112222546Y-45003294D01*
X112220254Y-44997002D01*
X112502487Y-44997002D01*
X112521235Y-45041574D01*
X112522837Y-45055945D01*
X112530474Y-45172462D01*
X112532267Y-45179522D01*
X112578918Y-45363215D01*
X112578920Y-45363220D01*
X112580712Y-45370277D01*
X112583760Y-45376889D01*
X112583762Y-45376894D01*
X112628354Y-45473621D01*
X112666159Y-45555625D01*
X112783952Y-45722298D01*
X112930146Y-45864714D01*
X113099845Y-45978104D01*
X113106546Y-45980983D01*
X113106548Y-45980984D01*
X113266221Y-46049584D01*
X113287367Y-46058669D01*
X113294479Y-46060278D01*
X113294481Y-46060279D01*
X113479313Y-46102103D01*
X113479318Y-46102104D01*
X113486430Y-46103713D01*
X113601869Y-46108249D01*
X113683080Y-46111440D01*
X113683084Y-46111440D01*
X113690368Y-46111726D01*
X113795812Y-46096437D01*
X113885140Y-46083485D01*
X113885143Y-46083484D01*
X113892352Y-46082439D01*
X114085616Y-46016835D01*
X114263689Y-45917110D01*
X114269290Y-45912452D01*
X114269294Y-45912449D01*
X114415003Y-45791263D01*
X114420606Y-45786603D01*
X114429109Y-45776379D01*
X114546452Y-45635291D01*
X114546455Y-45635287D01*
X114551113Y-45629686D01*
X114650838Y-45451613D01*
X114716442Y-45258349D01*
X114718068Y-45247140D01*
X114745056Y-45061007D01*
X114745056Y-45061006D01*
X114745729Y-45056365D01*
X114745827Y-45052614D01*
X114762546Y-45003294D01*
X114742752Y-44948967D01*
X114729249Y-44802017D01*
X114728582Y-44794758D01*
X114722548Y-44773361D01*
X114691156Y-44662055D01*
X114673182Y-44598325D01*
X114582913Y-44415277D01*
X114553823Y-44376320D01*
X114465155Y-44257580D01*
X114460797Y-44251744D01*
X114324491Y-44125744D01*
X114316279Y-44118153D01*
X114316278Y-44118152D01*
X114310925Y-44113204D01*
X114138316Y-44004296D01*
X113986017Y-43943535D01*
X113955513Y-43931365D01*
X113955511Y-43931365D01*
X113948750Y-43928667D01*
X113941611Y-43927247D01*
X113941608Y-43927246D01*
X113755721Y-43890270D01*
X113755718Y-43890270D01*
X113748576Y-43888849D01*
X113657849Y-43887662D01*
X113551794Y-43886273D01*
X113551789Y-43886273D01*
X113544498Y-43886178D01*
X113343350Y-43920741D01*
X113151869Y-43991382D01*
X113145601Y-43995111D01*
X113145599Y-43995112D01*
X112982737Y-44092005D01*
X112982735Y-44092007D01*
X112976468Y-44095735D01*
X112970985Y-44100544D01*
X112970983Y-44100545D01*
X112834537Y-44220206D01*
X112823021Y-44230305D01*
X112818511Y-44236026D01*
X112818510Y-44236027D01*
X112806583Y-44251157D01*
X112696667Y-44390585D01*
X112601637Y-44571207D01*
X112599478Y-44578160D01*
X112599476Y-44578165D01*
X112583661Y-44629099D01*
X112541114Y-44766122D01*
X112540257Y-44773359D01*
X112540257Y-44773361D01*
X112518983Y-44953106D01*
X112502487Y-44997002D01*
X112220254Y-44997002D01*
X112202752Y-44948967D01*
X112189249Y-44802017D01*
X112188582Y-44794758D01*
X112182548Y-44773361D01*
X112151156Y-44662055D01*
X112133182Y-44598325D01*
X112042913Y-44415277D01*
X112013823Y-44376320D01*
X111925155Y-44257580D01*
X111920797Y-44251744D01*
X111784491Y-44125744D01*
X111776279Y-44118153D01*
X111776278Y-44118152D01*
X111770925Y-44113204D01*
X111598316Y-44004296D01*
X111446017Y-43943535D01*
X111415513Y-43931365D01*
X111415511Y-43931365D01*
X111408750Y-43928667D01*
X111401611Y-43927247D01*
X111401608Y-43927246D01*
X111215721Y-43890270D01*
X111215718Y-43890270D01*
X111208576Y-43888849D01*
X111117849Y-43887662D01*
X111011794Y-43886273D01*
X111011789Y-43886273D01*
X111004498Y-43886178D01*
X110803350Y-43920741D01*
X110611869Y-43991382D01*
X110605601Y-43995111D01*
X110605599Y-43995112D01*
X110442737Y-44092005D01*
X110442735Y-44092007D01*
X110436468Y-44095735D01*
X110430985Y-44100544D01*
X110430983Y-44100545D01*
X110294537Y-44220206D01*
X110283021Y-44230305D01*
X110278511Y-44236026D01*
X110278510Y-44236027D01*
X110266583Y-44251157D01*
X110156667Y-44390585D01*
X110061637Y-44571207D01*
X110059478Y-44578160D01*
X110059476Y-44578165D01*
X110043661Y-44629099D01*
X110001114Y-44766122D01*
X110000258Y-44773354D01*
X110000257Y-44773359D01*
X109984725Y-44904589D01*
X109977125Y-44968803D01*
X105348507Y-44968803D01*
X105332104Y-44760378D01*
X105330155Y-44748067D01*
X105275970Y-44522373D01*
X105272122Y-44510530D01*
X105183293Y-44296080D01*
X105177643Y-44284991D01*
X105068641Y-44107114D01*
X105057031Y-44095644D01*
X105055315Y-44095969D01*
X105048510Y-44100697D01*
X104164861Y-44984346D01*
X104156418Y-44998312D01*
X103427201Y-44998312D01*
X103427582Y-44997682D01*
X103423578Y-44988785D01*
X102539097Y-44104304D01*
X102525131Y-44095861D01*
X102523540Y-44096577D01*
X102518023Y-44102767D01*
X102406357Y-44284991D01*
X102400707Y-44296080D01*
X102311878Y-44510530D01*
X102308030Y-44522373D01*
X102253845Y-44748067D01*
X102251896Y-44760378D01*
X102233685Y-44991771D01*
X102233685Y-45004223D01*
X101675721Y-45004223D01*
X101675102Y-43732966D01*
X102889647Y-43732966D01*
X102889972Y-43734682D01*
X102894700Y-43741487D01*
X103778349Y-44625136D01*
X103792315Y-44633579D01*
X103801212Y-44629575D01*
X104685693Y-43745094D01*
X104693025Y-43732966D01*
X141389647Y-43732966D01*
X141389972Y-43734682D01*
X141394700Y-43741487D01*
X142278349Y-44625136D01*
X142292315Y-44633579D01*
X142301212Y-44629575D01*
X143185693Y-43745094D01*
X143194136Y-43731128D01*
X143193420Y-43729537D01*
X143187230Y-43724020D01*
X143005006Y-43612354D01*
X142993917Y-43606704D01*
X142779467Y-43517875D01*
X142767624Y-43514027D01*
X142541930Y-43459842D01*
X142529619Y-43457893D01*
X142298226Y-43439682D01*
X142285774Y-43439682D01*
X142054381Y-43457893D01*
X142042070Y-43459842D01*
X141816376Y-43514027D01*
X141804533Y-43517875D01*
X141590083Y-43606704D01*
X141578994Y-43612354D01*
X141401117Y-43721356D01*
X141389647Y-43732966D01*
X104693025Y-43732966D01*
X104694136Y-43731128D01*
X104693420Y-43729537D01*
X104687230Y-43724020D01*
X104505006Y-43612354D01*
X104493917Y-43606704D01*
X104279467Y-43517875D01*
X104267624Y-43514027D01*
X104041930Y-43459842D01*
X104029619Y-43457893D01*
X103798226Y-43439682D01*
X103785774Y-43439682D01*
X103554381Y-43457893D01*
X103542070Y-43459842D01*
X103316376Y-43514027D01*
X103304533Y-43517875D01*
X103090083Y-43606704D01*
X103078994Y-43612354D01*
X102901117Y-43721356D01*
X102889647Y-43732966D01*
X101675102Y-43732966D01*
X101674764Y-43039574D01*
X101692941Y-42965675D01*
X101743378Y-42908687D01*
X101814522Y-42881666D01*
X101833764Y-42880497D01*
X156166861Y-42880497D01*
X156240752Y-42898709D01*
G37*
%TD.AperFunction*%
%TD*%
M02*
