%FSLAX45Y45*%
G04 Gerber Fmt 4.5, Leading zero omitted, Abs format (unit mm)*
G04 Created by KiCad (PCBNEW (6.0.5)) date 2022-08-19 15:51:07*
%MOMM*%
%LPD*%
G01*
G04 APERTURE LIST*
%TA.AperFunction,Profile*%
%ADD10C,0.100000*%
%TD*%
%TA.AperFunction,Profile*%
%ADD11C,0.050000*%
%TD*%
%ADD12C,0.200000*%
%ADD13C,0.040000*%
%ADD14C,0.100000*%
%ADD15C,0.130000*%
%ADD16C,0.220000*%
G04 APERTURE END LIST*
D10*
X13093400Y-7480000D02*
G75*
G03*
X12943400Y-7630000I0J-150000D01*
G01*
D11*
X10129200Y-14149800D02*
X16589200Y-14149800D01*
D10*
X12943400Y-10269000D02*
G75*
G03*
X13093400Y-10419000I150000J0D01*
G01*
D11*
X18329200Y-4249800D02*
X10129200Y-4249800D01*
D10*
X15377400Y-10419000D02*
X13093400Y-10419000D01*
X15527400Y-7630000D02*
G75*
G03*
X15377400Y-7480000I-149990J10D01*
G01*
D11*
X18329200Y-14149800D02*
X18329200Y-4249800D01*
D10*
X13093400Y-7480000D02*
X15377400Y-7480000D01*
D11*
X10129600Y-5070800D02*
X10129200Y-4249800D01*
X10129600Y-12107800D02*
X10129600Y-5070800D01*
D10*
X12943400Y-10269000D02*
X12943400Y-7630000D01*
D11*
X16589200Y-14149800D02*
X18329200Y-14149800D01*
D10*
X15527400Y-7630000D02*
X15527400Y-10269000D01*
D11*
X10129200Y-14149800D02*
X10129600Y-12107800D01*
D10*
X15377400Y-10419000D02*
G75*
G03*
X15527400Y-10269000I0J150000D01*
G01*
D12*
D13*
X10518100Y-5679800D02*
X10558100Y-5719800D01*
X10558100Y-5679800D02*
X10518100Y-5719800D01*
X10845600Y-4709800D02*
X10885600Y-4749800D01*
X10885600Y-4709800D02*
X10845600Y-4749800D01*
X10863100Y-6047300D02*
X10903100Y-6087300D01*
X10903100Y-6047300D02*
X10863100Y-6087300D01*
X10910600Y-5552300D02*
X10950600Y-5592300D01*
X10950600Y-5552300D02*
X10910600Y-5592300D01*
X10921000Y-5124000D02*
X10961000Y-5164000D01*
X10961000Y-5124000D02*
X10921000Y-5164000D01*
X11192600Y-5780500D02*
X11232600Y-5820500D01*
X11232600Y-5780500D02*
X11192600Y-5820500D01*
X11192750Y-5120250D02*
X11232750Y-5160250D01*
X11232750Y-5120250D02*
X11192750Y-5160250D01*
X11323100Y-5999800D02*
X11363100Y-6039800D01*
X11363100Y-5999800D02*
X11323100Y-6039800D01*
X11395600Y-6147300D02*
X11435600Y-6187300D01*
X11435600Y-6147300D02*
X11395600Y-6187300D01*
X11441000Y-5123000D02*
X11481000Y-5163000D01*
X11481000Y-5123000D02*
X11441000Y-5163000D01*
X11480600Y-4679800D02*
X11520600Y-4719800D01*
X11520600Y-4679800D02*
X11480600Y-4719800D01*
X11583100Y-6387300D02*
X11623100Y-6427300D01*
X11623100Y-6387300D02*
X11583100Y-6427300D01*
X11698100Y-6649800D02*
X11738100Y-6689800D01*
X11738100Y-6649800D02*
X11698100Y-6689800D01*
X11963100Y-6669800D02*
X12003100Y-6709800D01*
X12003100Y-6669800D02*
X11963100Y-6709800D01*
X12201600Y-8806600D02*
X12241600Y-8846600D01*
X12241600Y-8806600D02*
X12201600Y-8846600D01*
X12427600Y-10781800D02*
X12467600Y-10821800D01*
X12467600Y-10781800D02*
X12427600Y-10821800D01*
X14663100Y-4424800D02*
X14703100Y-4464800D01*
X14703100Y-4424800D02*
X14663100Y-4464800D01*
X14805600Y-4787300D02*
X14845600Y-4827300D01*
X14845600Y-4787300D02*
X14805600Y-4827300D01*
X15330600Y-4842300D02*
X15370600Y-4882300D01*
X15370600Y-4842300D02*
X15330600Y-4882300D01*
X15613100Y-4717300D02*
X15653100Y-4757300D01*
X15653100Y-4717300D02*
X15613100Y-4757300D01*
X15638100Y-4354800D02*
X15678100Y-4394800D01*
X15678100Y-4354800D02*
X15638100Y-4394800D01*
X15948600Y-10064800D02*
X15988600Y-10104800D01*
X15988600Y-10064800D02*
X15948600Y-10104800D01*
X16126600Y-9836000D02*
X16166600Y-9876000D01*
X16166600Y-9836000D02*
X16126600Y-9876000D01*
X16126850Y-4342300D02*
X16166850Y-4382300D01*
X16166850Y-4342300D02*
X16126850Y-4382300D01*
X16228200Y-4784700D02*
X16268200Y-4824700D01*
X16268200Y-4784700D02*
X16228200Y-4824700D01*
X16665600Y-5727300D02*
X16705600Y-5767300D01*
X16705600Y-5727300D02*
X16665600Y-5767300D01*
X16758100Y-4567300D02*
X16798100Y-4607300D01*
X16798100Y-4567300D02*
X16758100Y-4607300D01*
X16837800Y-5543400D02*
X16877800Y-5583400D01*
X16877800Y-5543400D02*
X16837800Y-5583400D01*
X16968100Y-4749800D02*
X17008100Y-4789800D01*
X17008100Y-4749800D02*
X16968100Y-4789800D01*
X17084600Y-5735800D02*
X17124600Y-5775800D01*
X17124600Y-5735800D02*
X17084600Y-5775800D01*
X17123600Y-5232800D02*
X17163600Y-5272800D01*
X17163600Y-5232800D02*
X17123600Y-5272800D01*
X17378100Y-5277300D02*
X17418100Y-5317300D01*
X17418100Y-5277300D02*
X17378100Y-5317300D01*
X17428100Y-5492300D02*
X17468100Y-5532300D01*
X17468100Y-5492300D02*
X17428100Y-5532300D01*
X17428100Y-5777300D02*
X17468100Y-5817300D01*
X17468100Y-5777300D02*
X17428100Y-5817300D01*
X17430600Y-5134800D02*
X17470600Y-5174800D01*
X17470600Y-5134800D02*
X17430600Y-5174800D01*
X17653100Y-5367300D02*
X17693100Y-5407300D01*
X17693100Y-5367300D02*
X17653100Y-5407300D01*
X17683600Y-4982800D02*
X17723600Y-5022800D01*
X17723600Y-4982800D02*
X17683600Y-5022800D01*
X17758100Y-4384800D02*
X17798100Y-4424800D01*
X17798100Y-4384800D02*
X17758100Y-4424800D01*
X17772600Y-5349800D02*
X17812600Y-5389800D01*
X17812600Y-5349800D02*
X17772600Y-5389800D01*
X17788100Y-4784800D02*
X17828100Y-4824800D01*
X17828100Y-4784800D02*
X17788100Y-4824800D01*
X17930600Y-4847300D02*
X17970600Y-4887300D01*
X17970600Y-4847300D02*
X17930600Y-4887300D01*
X17957800Y-5002000D02*
X17997800Y-5042000D01*
X17997800Y-5002000D02*
X17957800Y-5042000D01*
X17958100Y-5787300D02*
X17998100Y-5827300D01*
X17998100Y-5787300D02*
X17958100Y-5827300D01*
X18123100Y-5077300D02*
X18163100Y-5117300D01*
X18163100Y-5077300D02*
X18123100Y-5117300D01*
D14*
X11159200Y-4499800D02*
G75*
G03*
X11159200Y-4499800I-50000J0D01*
G01*
X11413200Y-4499800D02*
G75*
G03*
X11413200Y-4499800I-50000J0D01*
G01*
X11667200Y-4499800D02*
G75*
G03*
X11667200Y-4499800I-50000J0D01*
G01*
X11921200Y-4499800D02*
G75*
G03*
X11921200Y-4499800I-50000J0D01*
G01*
X12175200Y-4499800D02*
G75*
G03*
X12175200Y-4499800I-50000J0D01*
G01*
X12429200Y-4499800D02*
G75*
G03*
X12429200Y-4499800I-50000J0D01*
G01*
D15*
X13183800Y-10551800D02*
X13183800Y-10681800D01*
X13118800Y-10616800D02*
X13248800Y-10616800D01*
X13945800Y-10551800D02*
X13945800Y-10681800D01*
X13880800Y-10616800D02*
X14010800Y-10616800D01*
D12*
X10962511Y-9645911D02*
X10962511Y-9504489D01*
X10821089Y-9504489D01*
X10821089Y-9645911D01*
X10962511Y-9645911D01*
X10962511Y-10576511D02*
X10962511Y-10435089D01*
X10821089Y-10435089D01*
X10821089Y-10576511D01*
X10962511Y-10576511D01*
X11862511Y-9645911D02*
X11862511Y-9504489D01*
X11721089Y-9504489D01*
X11721089Y-9645911D01*
X11862511Y-9645911D01*
X11862511Y-10576511D02*
X11862511Y-10435089D01*
X11721089Y-10435089D01*
X11721089Y-10576511D01*
X11862511Y-10576511D01*
X12993311Y-12078511D02*
X12993311Y-11937089D01*
X12851889Y-11937089D01*
X12851889Y-12078511D01*
X12993311Y-12078511D01*
X12993311Y-12978511D02*
X12993311Y-12837089D01*
X12851889Y-12837089D01*
X12851889Y-12978511D01*
X12993311Y-12978511D01*
X12998311Y-5486511D02*
X12998311Y-5345089D01*
X12856889Y-5345089D01*
X12856889Y-5486511D01*
X12998311Y-5486511D01*
X12998311Y-6386511D02*
X12998311Y-6245089D01*
X12856889Y-6245089D01*
X12856889Y-6386511D01*
X12998311Y-6386511D01*
X16728311Y-9645911D02*
X16728311Y-9504489D01*
X16586889Y-9504489D01*
X16586889Y-9645911D01*
X16728311Y-9645911D01*
X16728311Y-10576511D02*
X16728311Y-10435089D01*
X16586889Y-10435089D01*
X16586889Y-10576511D01*
X16728311Y-10576511D01*
X17628311Y-9645911D02*
X17628311Y-9504489D01*
X17486889Y-9504489D01*
X17486889Y-9645911D01*
X17628311Y-9645911D01*
X17628311Y-10576511D02*
X17628311Y-10435089D01*
X17486889Y-10435089D01*
X17486889Y-10576511D01*
X17628311Y-10576511D01*
D16*
X10379200Y-4609800D02*
X10489200Y-4499800D01*
X10379200Y-4389800D01*
X10269200Y-4499800D01*
X10379200Y-4609800D01*
X10379200Y-14009800D02*
X10489200Y-13899800D01*
X10379200Y-13789800D01*
X10269200Y-13899800D01*
X10379200Y-14009800D01*
X14229200Y-4609800D02*
X14339200Y-4499800D01*
X14229200Y-4389800D01*
X14119200Y-4499800D01*
X14229200Y-4609800D01*
X14229200Y-14009800D02*
X14339200Y-13899800D01*
X14229200Y-13789800D01*
X14119200Y-13899800D01*
X14229200Y-14009800D01*
X18079200Y-4609800D02*
X18189200Y-4499800D01*
X18079200Y-4389800D01*
X17969200Y-4499800D01*
X18079200Y-4609800D01*
X18079200Y-14009800D02*
X18189200Y-13899800D01*
X18079200Y-13789800D01*
X17969200Y-13899800D01*
X18079200Y-14009800D01*
D12*
X10384319Y-14462776D02*
X10384319Y-14262776D01*
X10431938Y-14262776D01*
X10460510Y-14272300D01*
X10479557Y-14291347D01*
X10489081Y-14310395D01*
X10498605Y-14348490D01*
X10498605Y-14377062D01*
X10489081Y-14415157D01*
X10479557Y-14434204D01*
X10460510Y-14453252D01*
X10431938Y-14462776D01*
X10384319Y-14462776D01*
X10584319Y-14462776D02*
X10584319Y-14329442D01*
X10584319Y-14367538D02*
X10593843Y-14348490D01*
X10603367Y-14338966D01*
X10622414Y-14329442D01*
X10641462Y-14329442D01*
X10708129Y-14462776D02*
X10708129Y-14329442D01*
X10708129Y-14262776D02*
X10698605Y-14272300D01*
X10708129Y-14281823D01*
X10717652Y-14272300D01*
X10708129Y-14262776D01*
X10708129Y-14281823D01*
X10831938Y-14462776D02*
X10812890Y-14453252D01*
X10803367Y-14434204D01*
X10803367Y-14262776D01*
X10936700Y-14462776D02*
X10917652Y-14453252D01*
X10908129Y-14434204D01*
X10908129Y-14262776D01*
X11165271Y-14462776D02*
X11165271Y-14262776D01*
X11231938Y-14405633D01*
X11298605Y-14262776D01*
X11298605Y-14462776D01*
X11479557Y-14462776D02*
X11479557Y-14358014D01*
X11470033Y-14338966D01*
X11450986Y-14329442D01*
X11412890Y-14329442D01*
X11393843Y-14338966D01*
X11479557Y-14453252D02*
X11460509Y-14462776D01*
X11412890Y-14462776D01*
X11393843Y-14453252D01*
X11384319Y-14434204D01*
X11384319Y-14415157D01*
X11393843Y-14396109D01*
X11412890Y-14386585D01*
X11460509Y-14386585D01*
X11479557Y-14377062D01*
X11574795Y-14329442D02*
X11574795Y-14529442D01*
X11574795Y-14338966D02*
X11593843Y-14329442D01*
X11631938Y-14329442D01*
X11650986Y-14338966D01*
X11660509Y-14348490D01*
X11670033Y-14367538D01*
X11670033Y-14424681D01*
X11660509Y-14443728D01*
X11650986Y-14453252D01*
X11631938Y-14462776D01*
X11593843Y-14462776D01*
X11574795Y-14453252D01*
X11755748Y-14443728D02*
X11765271Y-14453252D01*
X11755748Y-14462776D01*
X11746224Y-14453252D01*
X11755748Y-14443728D01*
X11755748Y-14462776D01*
X11755748Y-14338966D02*
X11765271Y-14348490D01*
X11755748Y-14358014D01*
X11746224Y-14348490D01*
X11755748Y-14338966D01*
X11755748Y-14358014D01*
D13*
X10086700Y-14772300D02*
X10126700Y-14812300D01*
X10126700Y-14772300D02*
X10086700Y-14812300D01*
D12*
X10422414Y-14682776D02*
X10441462Y-14682776D01*
X10460510Y-14692300D01*
X10470033Y-14701823D01*
X10479557Y-14720871D01*
X10489081Y-14758966D01*
X10489081Y-14806585D01*
X10479557Y-14844681D01*
X10470033Y-14863728D01*
X10460510Y-14873252D01*
X10441462Y-14882776D01*
X10422414Y-14882776D01*
X10403367Y-14873252D01*
X10393843Y-14863728D01*
X10384319Y-14844681D01*
X10374795Y-14806585D01*
X10374795Y-14758966D01*
X10384319Y-14720871D01*
X10393843Y-14701823D01*
X10403367Y-14692300D01*
X10422414Y-14682776D01*
X10574795Y-14863728D02*
X10584319Y-14873252D01*
X10574795Y-14882776D01*
X10565271Y-14873252D01*
X10574795Y-14863728D01*
X10574795Y-14882776D01*
X10755748Y-14749442D02*
X10755748Y-14882776D01*
X10708129Y-14673252D02*
X10660510Y-14816109D01*
X10784319Y-14816109D01*
X10898605Y-14682776D02*
X10917652Y-14682776D01*
X10936700Y-14692300D01*
X10946224Y-14701823D01*
X10955748Y-14720871D01*
X10965271Y-14758966D01*
X10965271Y-14806585D01*
X10955748Y-14844681D01*
X10946224Y-14863728D01*
X10936700Y-14873252D01*
X10917652Y-14882776D01*
X10898605Y-14882776D01*
X10879557Y-14873252D01*
X10870033Y-14863728D01*
X10860510Y-14844681D01*
X10850986Y-14806585D01*
X10850986Y-14758966D01*
X10860510Y-14720871D01*
X10870033Y-14701823D01*
X10879557Y-14692300D01*
X10898605Y-14682776D01*
X11089081Y-14682776D02*
X11108129Y-14682776D01*
X11127176Y-14692300D01*
X11136700Y-14701823D01*
X11146224Y-14720871D01*
X11155748Y-14758966D01*
X11155748Y-14806585D01*
X11146224Y-14844681D01*
X11136700Y-14863728D01*
X11127176Y-14873252D01*
X11108129Y-14882776D01*
X11089081Y-14882776D01*
X11070033Y-14873252D01*
X11060510Y-14863728D01*
X11050986Y-14844681D01*
X11041462Y-14806585D01*
X11041462Y-14758966D01*
X11050986Y-14720871D01*
X11060510Y-14701823D01*
X11070033Y-14692300D01*
X11089081Y-14682776D01*
X11241462Y-14882776D02*
X11241462Y-14749442D01*
X11241462Y-14768490D02*
X11250986Y-14758966D01*
X11270033Y-14749442D01*
X11298605Y-14749442D01*
X11317652Y-14758966D01*
X11327176Y-14778014D01*
X11327176Y-14882776D01*
X11327176Y-14778014D02*
X11336700Y-14758966D01*
X11355748Y-14749442D01*
X11384319Y-14749442D01*
X11403367Y-14758966D01*
X11412890Y-14778014D01*
X11412890Y-14882776D01*
X11508128Y-14882776D02*
X11508128Y-14749442D01*
X11508128Y-14768490D02*
X11517652Y-14758966D01*
X11536700Y-14749442D01*
X11565271Y-14749442D01*
X11584319Y-14758966D01*
X11593843Y-14778014D01*
X11593843Y-14882776D01*
X11593843Y-14778014D02*
X11603367Y-14758966D01*
X11622414Y-14749442D01*
X11650986Y-14749442D01*
X11670033Y-14758966D01*
X11679557Y-14778014D01*
X11679557Y-14882776D01*
X12070033Y-14673252D02*
X11898605Y-14930395D01*
X12327176Y-14682776D02*
X12346224Y-14682776D01*
X12365271Y-14692300D01*
X12374795Y-14701823D01*
X12384319Y-14720871D01*
X12393843Y-14758966D01*
X12393843Y-14806585D01*
X12384319Y-14844681D01*
X12374795Y-14863728D01*
X12365271Y-14873252D01*
X12346224Y-14882776D01*
X12327176Y-14882776D01*
X12308128Y-14873252D01*
X12298605Y-14863728D01*
X12289081Y-14844681D01*
X12279557Y-14806585D01*
X12279557Y-14758966D01*
X12289081Y-14720871D01*
X12298605Y-14701823D01*
X12308128Y-14692300D01*
X12327176Y-14682776D01*
X12479557Y-14863728D02*
X12489081Y-14873252D01*
X12479557Y-14882776D01*
X12470033Y-14873252D01*
X12479557Y-14863728D01*
X12479557Y-14882776D01*
X12612890Y-14682776D02*
X12631938Y-14682776D01*
X12650986Y-14692300D01*
X12660509Y-14701823D01*
X12670033Y-14720871D01*
X12679557Y-14758966D01*
X12679557Y-14806585D01*
X12670033Y-14844681D01*
X12660509Y-14863728D01*
X12650986Y-14873252D01*
X12631938Y-14882776D01*
X12612890Y-14882776D01*
X12593843Y-14873252D01*
X12584319Y-14863728D01*
X12574795Y-14844681D01*
X12565271Y-14806585D01*
X12565271Y-14758966D01*
X12574795Y-14720871D01*
X12584319Y-14701823D01*
X12593843Y-14692300D01*
X12612890Y-14682776D01*
X12870033Y-14882776D02*
X12755748Y-14882776D01*
X12812890Y-14882776D02*
X12812890Y-14682776D01*
X12793843Y-14711347D01*
X12774795Y-14730395D01*
X12755748Y-14739919D01*
X13050986Y-14682776D02*
X12955748Y-14682776D01*
X12946224Y-14778014D01*
X12955748Y-14768490D01*
X12974795Y-14758966D01*
X13022414Y-14758966D01*
X13041462Y-14768490D01*
X13050986Y-14778014D01*
X13060509Y-14797062D01*
X13060509Y-14844681D01*
X13050986Y-14863728D01*
X13041462Y-14873252D01*
X13022414Y-14882776D01*
X12974795Y-14882776D01*
X12955748Y-14873252D01*
X12946224Y-14863728D01*
X13127176Y-14682776D02*
X13260509Y-14682776D01*
X13174795Y-14882776D01*
X13327176Y-14682776D02*
X13327176Y-14720871D01*
X13403367Y-14682776D02*
X13403367Y-14720871D01*
X13698605Y-14958966D02*
X13689081Y-14949442D01*
X13670033Y-14920871D01*
X13660509Y-14901823D01*
X13650986Y-14873252D01*
X13641462Y-14825633D01*
X13641462Y-14787538D01*
X13650986Y-14739919D01*
X13660509Y-14711347D01*
X13670033Y-14692300D01*
X13689081Y-14663728D01*
X13698605Y-14654204D01*
X13860509Y-14749442D02*
X13860509Y-14882776D01*
X13812890Y-14673252D02*
X13765271Y-14816109D01*
X13889081Y-14816109D01*
X14050986Y-14749442D02*
X14050986Y-14882776D01*
X14003367Y-14673252D02*
X13955748Y-14816109D01*
X14079557Y-14816109D01*
X14308128Y-14882776D02*
X14308128Y-14682776D01*
X14393843Y-14882776D02*
X14393843Y-14778014D01*
X14384319Y-14758966D01*
X14365271Y-14749442D01*
X14336700Y-14749442D01*
X14317652Y-14758966D01*
X14308128Y-14768490D01*
X14517652Y-14882776D02*
X14498605Y-14873252D01*
X14489081Y-14863728D01*
X14479557Y-14844681D01*
X14479557Y-14787538D01*
X14489081Y-14768490D01*
X14498605Y-14758966D01*
X14517652Y-14749442D01*
X14546224Y-14749442D01*
X14565271Y-14758966D01*
X14574795Y-14768490D01*
X14584319Y-14787538D01*
X14584319Y-14844681D01*
X14574795Y-14863728D01*
X14565271Y-14873252D01*
X14546224Y-14882776D01*
X14517652Y-14882776D01*
X14698605Y-14882776D02*
X14679557Y-14873252D01*
X14670033Y-14854204D01*
X14670033Y-14682776D01*
X14850986Y-14873252D02*
X14831938Y-14882776D01*
X14793843Y-14882776D01*
X14774795Y-14873252D01*
X14765271Y-14854204D01*
X14765271Y-14778014D01*
X14774795Y-14758966D01*
X14793843Y-14749442D01*
X14831938Y-14749442D01*
X14850986Y-14758966D01*
X14860509Y-14778014D01*
X14860509Y-14797062D01*
X14765271Y-14816109D01*
X14936700Y-14873252D02*
X14955748Y-14882776D01*
X14993843Y-14882776D01*
X15012890Y-14873252D01*
X15022414Y-14854204D01*
X15022414Y-14844681D01*
X15012890Y-14825633D01*
X14993843Y-14816109D01*
X14965271Y-14816109D01*
X14946224Y-14806585D01*
X14936700Y-14787538D01*
X14936700Y-14778014D01*
X14946224Y-14758966D01*
X14965271Y-14749442D01*
X14993843Y-14749442D01*
X15012890Y-14758966D01*
X15089081Y-14958966D02*
X15098605Y-14949442D01*
X15117652Y-14920871D01*
X15127176Y-14901823D01*
X15136700Y-14873252D01*
X15146224Y-14825633D01*
X15146224Y-14787538D01*
X15136700Y-14739919D01*
X15127176Y-14711347D01*
X15117652Y-14692300D01*
X15098605Y-14663728D01*
X15089081Y-14654204D01*
D14*
X10126700Y-15056300D02*
G75*
G03*
X10126700Y-15056300I-50000J0D01*
G01*
D12*
X10489081Y-15146776D02*
X10374795Y-15146776D01*
X10431938Y-15146776D02*
X10431938Y-14946776D01*
X10412890Y-14975347D01*
X10393843Y-14994395D01*
X10374795Y-15003919D01*
X10574795Y-15127728D02*
X10584319Y-15137252D01*
X10574795Y-15146776D01*
X10565271Y-15137252D01*
X10574795Y-15127728D01*
X10574795Y-15146776D01*
X10708129Y-14946776D02*
X10727176Y-14946776D01*
X10746224Y-14956300D01*
X10755748Y-14965823D01*
X10765271Y-14984871D01*
X10774795Y-15022966D01*
X10774795Y-15070585D01*
X10765271Y-15108681D01*
X10755748Y-15127728D01*
X10746224Y-15137252D01*
X10727176Y-15146776D01*
X10708129Y-15146776D01*
X10689081Y-15137252D01*
X10679557Y-15127728D01*
X10670033Y-15108681D01*
X10660510Y-15070585D01*
X10660510Y-15022966D01*
X10670033Y-14984871D01*
X10679557Y-14965823D01*
X10689081Y-14956300D01*
X10708129Y-14946776D01*
X10898605Y-14946776D02*
X10917652Y-14946776D01*
X10936700Y-14956300D01*
X10946224Y-14965823D01*
X10955748Y-14984871D01*
X10965271Y-15022966D01*
X10965271Y-15070585D01*
X10955748Y-15108681D01*
X10946224Y-15127728D01*
X10936700Y-15137252D01*
X10917652Y-15146776D01*
X10898605Y-15146776D01*
X10879557Y-15137252D01*
X10870033Y-15127728D01*
X10860510Y-15108681D01*
X10850986Y-15070585D01*
X10850986Y-15022966D01*
X10860510Y-14984871D01*
X10870033Y-14965823D01*
X10879557Y-14956300D01*
X10898605Y-14946776D01*
X11089081Y-14946776D02*
X11108129Y-14946776D01*
X11127176Y-14956300D01*
X11136700Y-14965823D01*
X11146224Y-14984871D01*
X11155748Y-15022966D01*
X11155748Y-15070585D01*
X11146224Y-15108681D01*
X11136700Y-15127728D01*
X11127176Y-15137252D01*
X11108129Y-15146776D01*
X11089081Y-15146776D01*
X11070033Y-15137252D01*
X11060510Y-15127728D01*
X11050986Y-15108681D01*
X11041462Y-15070585D01*
X11041462Y-15022966D01*
X11050986Y-14984871D01*
X11060510Y-14965823D01*
X11070033Y-14956300D01*
X11089081Y-14946776D01*
X11241462Y-15146776D02*
X11241462Y-15013442D01*
X11241462Y-15032490D02*
X11250986Y-15022966D01*
X11270033Y-15013442D01*
X11298605Y-15013442D01*
X11317652Y-15022966D01*
X11327176Y-15042014D01*
X11327176Y-15146776D01*
X11327176Y-15042014D02*
X11336700Y-15022966D01*
X11355748Y-15013442D01*
X11384319Y-15013442D01*
X11403367Y-15022966D01*
X11412890Y-15042014D01*
X11412890Y-15146776D01*
X11508128Y-15146776D02*
X11508128Y-15013442D01*
X11508128Y-15032490D02*
X11517652Y-15022966D01*
X11536700Y-15013442D01*
X11565271Y-15013442D01*
X11584319Y-15022966D01*
X11593843Y-15042014D01*
X11593843Y-15146776D01*
X11593843Y-15042014D02*
X11603367Y-15022966D01*
X11622414Y-15013442D01*
X11650986Y-15013442D01*
X11670033Y-15022966D01*
X11679557Y-15042014D01*
X11679557Y-15146776D01*
X12070033Y-14937252D02*
X11898605Y-15194395D01*
X12327176Y-14946776D02*
X12346224Y-14946776D01*
X12365271Y-14956300D01*
X12374795Y-14965823D01*
X12384319Y-14984871D01*
X12393843Y-15022966D01*
X12393843Y-15070585D01*
X12384319Y-15108681D01*
X12374795Y-15127728D01*
X12365271Y-15137252D01*
X12346224Y-15146776D01*
X12327176Y-15146776D01*
X12308128Y-15137252D01*
X12298605Y-15127728D01*
X12289081Y-15108681D01*
X12279557Y-15070585D01*
X12279557Y-15022966D01*
X12289081Y-14984871D01*
X12298605Y-14965823D01*
X12308128Y-14956300D01*
X12327176Y-14946776D01*
X12479557Y-15127728D02*
X12489081Y-15137252D01*
X12479557Y-15146776D01*
X12470033Y-15137252D01*
X12479557Y-15127728D01*
X12479557Y-15146776D01*
X12612890Y-14946776D02*
X12631938Y-14946776D01*
X12650986Y-14956300D01*
X12660509Y-14965823D01*
X12670033Y-14984871D01*
X12679557Y-15022966D01*
X12679557Y-15070585D01*
X12670033Y-15108681D01*
X12660509Y-15127728D01*
X12650986Y-15137252D01*
X12631938Y-15146776D01*
X12612890Y-15146776D01*
X12593843Y-15137252D01*
X12584319Y-15127728D01*
X12574795Y-15108681D01*
X12565271Y-15070585D01*
X12565271Y-15022966D01*
X12574795Y-14984871D01*
X12584319Y-14965823D01*
X12593843Y-14956300D01*
X12612890Y-14946776D01*
X12746224Y-14946776D02*
X12870033Y-14946776D01*
X12803367Y-15022966D01*
X12831938Y-15022966D01*
X12850986Y-15032490D01*
X12860509Y-15042014D01*
X12870033Y-15061062D01*
X12870033Y-15108681D01*
X12860509Y-15127728D01*
X12850986Y-15137252D01*
X12831938Y-15146776D01*
X12774795Y-15146776D01*
X12755748Y-15137252D01*
X12746224Y-15127728D01*
X12965271Y-15146776D02*
X13003367Y-15146776D01*
X13022414Y-15137252D01*
X13031938Y-15127728D01*
X13050986Y-15099157D01*
X13060509Y-15061062D01*
X13060509Y-14984871D01*
X13050986Y-14965823D01*
X13041462Y-14956300D01*
X13022414Y-14946776D01*
X12984319Y-14946776D01*
X12965271Y-14956300D01*
X12955748Y-14965823D01*
X12946224Y-14984871D01*
X12946224Y-15032490D01*
X12955748Y-15051538D01*
X12965271Y-15061062D01*
X12984319Y-15070585D01*
X13022414Y-15070585D01*
X13041462Y-15061062D01*
X13050986Y-15051538D01*
X13060509Y-15032490D01*
X13231938Y-15013442D02*
X13231938Y-15146776D01*
X13184319Y-14937252D02*
X13136700Y-15080109D01*
X13260509Y-15080109D01*
X13327176Y-14946776D02*
X13327176Y-14984871D01*
X13403367Y-14946776D02*
X13403367Y-14984871D01*
X13698605Y-15222966D02*
X13689081Y-15213442D01*
X13670033Y-15184871D01*
X13660509Y-15165823D01*
X13650986Y-15137252D01*
X13641462Y-15089633D01*
X13641462Y-15051538D01*
X13650986Y-15003919D01*
X13660509Y-14975347D01*
X13670033Y-14956300D01*
X13689081Y-14927728D01*
X13698605Y-14918204D01*
X13860509Y-14946776D02*
X13822414Y-14946776D01*
X13803367Y-14956300D01*
X13793843Y-14965823D01*
X13774795Y-14994395D01*
X13765271Y-15032490D01*
X13765271Y-15108681D01*
X13774795Y-15127728D01*
X13784319Y-15137252D01*
X13803367Y-15146776D01*
X13841462Y-15146776D01*
X13860509Y-15137252D01*
X13870033Y-15127728D01*
X13879557Y-15108681D01*
X13879557Y-15061062D01*
X13870033Y-15042014D01*
X13860509Y-15032490D01*
X13841462Y-15022966D01*
X13803367Y-15022966D01*
X13784319Y-15032490D01*
X13774795Y-15042014D01*
X13765271Y-15061062D01*
X14117652Y-15146776D02*
X14117652Y-14946776D01*
X14203367Y-15146776D02*
X14203367Y-15042014D01*
X14193843Y-15022966D01*
X14174795Y-15013442D01*
X14146224Y-15013442D01*
X14127176Y-15022966D01*
X14117652Y-15032490D01*
X14327176Y-15146776D02*
X14308128Y-15137252D01*
X14298605Y-15127728D01*
X14289081Y-15108681D01*
X14289081Y-15051538D01*
X14298605Y-15032490D01*
X14308128Y-15022966D01*
X14327176Y-15013442D01*
X14355748Y-15013442D01*
X14374795Y-15022966D01*
X14384319Y-15032490D01*
X14393843Y-15051538D01*
X14393843Y-15108681D01*
X14384319Y-15127728D01*
X14374795Y-15137252D01*
X14355748Y-15146776D01*
X14327176Y-15146776D01*
X14508128Y-15146776D02*
X14489081Y-15137252D01*
X14479557Y-15118204D01*
X14479557Y-14946776D01*
X14660509Y-15137252D02*
X14641462Y-15146776D01*
X14603367Y-15146776D01*
X14584319Y-15137252D01*
X14574795Y-15118204D01*
X14574795Y-15042014D01*
X14584319Y-15022966D01*
X14603367Y-15013442D01*
X14641462Y-15013442D01*
X14660509Y-15022966D01*
X14670033Y-15042014D01*
X14670033Y-15061062D01*
X14574795Y-15080109D01*
X14746224Y-15137252D02*
X14765271Y-15146776D01*
X14803367Y-15146776D01*
X14822414Y-15137252D01*
X14831938Y-15118204D01*
X14831938Y-15108681D01*
X14822414Y-15089633D01*
X14803367Y-15080109D01*
X14774795Y-15080109D01*
X14755748Y-15070585D01*
X14746224Y-15051538D01*
X14746224Y-15042014D01*
X14755748Y-15022966D01*
X14774795Y-15013442D01*
X14803367Y-15013442D01*
X14822414Y-15022966D01*
X14898605Y-15222966D02*
X14908128Y-15213442D01*
X14927176Y-15184871D01*
X14936700Y-15165823D01*
X14946224Y-15137252D01*
X14955748Y-15089633D01*
X14955748Y-15051538D01*
X14946224Y-15003919D01*
X14936700Y-14975347D01*
X14927176Y-14956300D01*
X14908128Y-14927728D01*
X14898605Y-14918204D01*
D15*
X10061700Y-15255300D02*
X10061700Y-15385300D01*
X9996700Y-15320300D02*
X10126700Y-15320300D01*
D12*
X10489081Y-15410776D02*
X10374795Y-15410776D01*
X10431938Y-15410776D02*
X10431938Y-15210776D01*
X10412890Y-15239347D01*
X10393843Y-15258395D01*
X10374795Y-15267919D01*
X10574795Y-15391728D02*
X10584319Y-15401252D01*
X10574795Y-15410776D01*
X10565271Y-15401252D01*
X10574795Y-15391728D01*
X10574795Y-15410776D01*
X10650986Y-15210776D02*
X10774795Y-15210776D01*
X10708129Y-15286966D01*
X10736700Y-15286966D01*
X10755748Y-15296490D01*
X10765271Y-15306014D01*
X10774795Y-15325062D01*
X10774795Y-15372681D01*
X10765271Y-15391728D01*
X10755748Y-15401252D01*
X10736700Y-15410776D01*
X10679557Y-15410776D01*
X10660510Y-15401252D01*
X10650986Y-15391728D01*
X10898605Y-15210776D02*
X10917652Y-15210776D01*
X10936700Y-15220300D01*
X10946224Y-15229823D01*
X10955748Y-15248871D01*
X10965271Y-15286966D01*
X10965271Y-15334585D01*
X10955748Y-15372681D01*
X10946224Y-15391728D01*
X10936700Y-15401252D01*
X10917652Y-15410776D01*
X10898605Y-15410776D01*
X10879557Y-15401252D01*
X10870033Y-15391728D01*
X10860510Y-15372681D01*
X10850986Y-15334585D01*
X10850986Y-15286966D01*
X10860510Y-15248871D01*
X10870033Y-15229823D01*
X10879557Y-15220300D01*
X10898605Y-15210776D01*
X11089081Y-15210776D02*
X11108129Y-15210776D01*
X11127176Y-15220300D01*
X11136700Y-15229823D01*
X11146224Y-15248871D01*
X11155748Y-15286966D01*
X11155748Y-15334585D01*
X11146224Y-15372681D01*
X11136700Y-15391728D01*
X11127176Y-15401252D01*
X11108129Y-15410776D01*
X11089081Y-15410776D01*
X11070033Y-15401252D01*
X11060510Y-15391728D01*
X11050986Y-15372681D01*
X11041462Y-15334585D01*
X11041462Y-15286966D01*
X11050986Y-15248871D01*
X11060510Y-15229823D01*
X11070033Y-15220300D01*
X11089081Y-15210776D01*
X11241462Y-15410776D02*
X11241462Y-15277442D01*
X11241462Y-15296490D02*
X11250986Y-15286966D01*
X11270033Y-15277442D01*
X11298605Y-15277442D01*
X11317652Y-15286966D01*
X11327176Y-15306014D01*
X11327176Y-15410776D01*
X11327176Y-15306014D02*
X11336700Y-15286966D01*
X11355748Y-15277442D01*
X11384319Y-15277442D01*
X11403367Y-15286966D01*
X11412890Y-15306014D01*
X11412890Y-15410776D01*
X11508128Y-15410776D02*
X11508128Y-15277442D01*
X11508128Y-15296490D02*
X11517652Y-15286966D01*
X11536700Y-15277442D01*
X11565271Y-15277442D01*
X11584319Y-15286966D01*
X11593843Y-15306014D01*
X11593843Y-15410776D01*
X11593843Y-15306014D02*
X11603367Y-15286966D01*
X11622414Y-15277442D01*
X11650986Y-15277442D01*
X11670033Y-15286966D01*
X11679557Y-15306014D01*
X11679557Y-15410776D01*
X12070033Y-15201252D02*
X11898605Y-15458395D01*
X12327176Y-15210776D02*
X12346224Y-15210776D01*
X12365271Y-15220300D01*
X12374795Y-15229823D01*
X12384319Y-15248871D01*
X12393843Y-15286966D01*
X12393843Y-15334585D01*
X12384319Y-15372681D01*
X12374795Y-15391728D01*
X12365271Y-15401252D01*
X12346224Y-15410776D01*
X12327176Y-15410776D01*
X12308128Y-15401252D01*
X12298605Y-15391728D01*
X12289081Y-15372681D01*
X12279557Y-15334585D01*
X12279557Y-15286966D01*
X12289081Y-15248871D01*
X12298605Y-15229823D01*
X12308128Y-15220300D01*
X12327176Y-15210776D01*
X12479557Y-15391728D02*
X12489081Y-15401252D01*
X12479557Y-15410776D01*
X12470033Y-15401252D01*
X12479557Y-15391728D01*
X12479557Y-15410776D01*
X12612890Y-15210776D02*
X12631938Y-15210776D01*
X12650986Y-15220300D01*
X12660509Y-15229823D01*
X12670033Y-15248871D01*
X12679557Y-15286966D01*
X12679557Y-15334585D01*
X12670033Y-15372681D01*
X12660509Y-15391728D01*
X12650986Y-15401252D01*
X12631938Y-15410776D01*
X12612890Y-15410776D01*
X12593843Y-15401252D01*
X12584319Y-15391728D01*
X12574795Y-15372681D01*
X12565271Y-15334585D01*
X12565271Y-15286966D01*
X12574795Y-15248871D01*
X12584319Y-15229823D01*
X12593843Y-15220300D01*
X12612890Y-15210776D01*
X12860509Y-15210776D02*
X12765271Y-15210776D01*
X12755748Y-15306014D01*
X12765271Y-15296490D01*
X12784319Y-15286966D01*
X12831938Y-15286966D01*
X12850986Y-15296490D01*
X12860509Y-15306014D01*
X12870033Y-15325062D01*
X12870033Y-15372681D01*
X12860509Y-15391728D01*
X12850986Y-15401252D01*
X12831938Y-15410776D01*
X12784319Y-15410776D01*
X12765271Y-15401252D01*
X12755748Y-15391728D01*
X13060509Y-15410776D02*
X12946224Y-15410776D01*
X13003367Y-15410776D02*
X13003367Y-15210776D01*
X12984319Y-15239347D01*
X12965271Y-15258395D01*
X12946224Y-15267919D01*
X13136700Y-15229823D02*
X13146224Y-15220300D01*
X13165271Y-15210776D01*
X13212890Y-15210776D01*
X13231938Y-15220300D01*
X13241462Y-15229823D01*
X13250986Y-15248871D01*
X13250986Y-15267919D01*
X13241462Y-15296490D01*
X13127176Y-15410776D01*
X13250986Y-15410776D01*
X13327176Y-15210776D02*
X13327176Y-15248871D01*
X13403367Y-15210776D02*
X13403367Y-15248871D01*
X13698605Y-15486966D02*
X13689081Y-15477442D01*
X13670033Y-15448871D01*
X13660509Y-15429823D01*
X13650986Y-15401252D01*
X13641462Y-15353633D01*
X13641462Y-15315538D01*
X13650986Y-15267919D01*
X13660509Y-15239347D01*
X13670033Y-15220300D01*
X13689081Y-15191728D01*
X13698605Y-15182204D01*
X13765271Y-15229823D02*
X13774795Y-15220300D01*
X13793843Y-15210776D01*
X13841462Y-15210776D01*
X13860509Y-15220300D01*
X13870033Y-15229823D01*
X13879557Y-15248871D01*
X13879557Y-15267919D01*
X13870033Y-15296490D01*
X13755748Y-15410776D01*
X13879557Y-15410776D01*
X14117652Y-15410776D02*
X14117652Y-15210776D01*
X14203367Y-15410776D02*
X14203367Y-15306014D01*
X14193843Y-15286966D01*
X14174795Y-15277442D01*
X14146224Y-15277442D01*
X14127176Y-15286966D01*
X14117652Y-15296490D01*
X14327176Y-15410776D02*
X14308128Y-15401252D01*
X14298605Y-15391728D01*
X14289081Y-15372681D01*
X14289081Y-15315538D01*
X14298605Y-15296490D01*
X14308128Y-15286966D01*
X14327176Y-15277442D01*
X14355748Y-15277442D01*
X14374795Y-15286966D01*
X14384319Y-15296490D01*
X14393843Y-15315538D01*
X14393843Y-15372681D01*
X14384319Y-15391728D01*
X14374795Y-15401252D01*
X14355748Y-15410776D01*
X14327176Y-15410776D01*
X14508128Y-15410776D02*
X14489081Y-15401252D01*
X14479557Y-15382204D01*
X14479557Y-15210776D01*
X14660509Y-15401252D02*
X14641462Y-15410776D01*
X14603367Y-15410776D01*
X14584319Y-15401252D01*
X14574795Y-15382204D01*
X14574795Y-15306014D01*
X14584319Y-15286966D01*
X14603367Y-15277442D01*
X14641462Y-15277442D01*
X14660509Y-15286966D01*
X14670033Y-15306014D01*
X14670033Y-15325062D01*
X14574795Y-15344109D01*
X14746224Y-15401252D02*
X14765271Y-15410776D01*
X14803367Y-15410776D01*
X14822414Y-15401252D01*
X14831938Y-15382204D01*
X14831938Y-15372681D01*
X14822414Y-15353633D01*
X14803367Y-15344109D01*
X14774795Y-15344109D01*
X14755748Y-15334585D01*
X14746224Y-15315538D01*
X14746224Y-15306014D01*
X14755748Y-15286966D01*
X14774795Y-15277442D01*
X14803367Y-15277442D01*
X14822414Y-15286966D01*
X14898605Y-15486966D02*
X14908128Y-15477442D01*
X14927176Y-15448871D01*
X14936700Y-15429823D01*
X14946224Y-15401252D01*
X14955748Y-15353633D01*
X14955748Y-15315538D01*
X14946224Y-15267919D01*
X14936700Y-15239347D01*
X14927176Y-15220300D01*
X14908128Y-15191728D01*
X14898605Y-15182204D01*
X10097411Y-15655011D02*
X10097411Y-15513588D01*
X9955989Y-15513588D01*
X9955989Y-15655011D01*
X10097411Y-15655011D01*
X10374795Y-15493823D02*
X10384319Y-15484300D01*
X10403367Y-15474776D01*
X10450986Y-15474776D01*
X10470033Y-15484300D01*
X10479557Y-15493823D01*
X10489081Y-15512871D01*
X10489081Y-15531919D01*
X10479557Y-15560490D01*
X10365271Y-15674776D01*
X10489081Y-15674776D01*
X10574795Y-15655728D02*
X10584319Y-15665252D01*
X10574795Y-15674776D01*
X10565271Y-15665252D01*
X10574795Y-15655728D01*
X10574795Y-15674776D01*
X10708129Y-15474776D02*
X10727176Y-15474776D01*
X10746224Y-15484300D01*
X10755748Y-15493823D01*
X10765271Y-15512871D01*
X10774795Y-15550966D01*
X10774795Y-15598585D01*
X10765271Y-15636681D01*
X10755748Y-15655728D01*
X10746224Y-15665252D01*
X10727176Y-15674776D01*
X10708129Y-15674776D01*
X10689081Y-15665252D01*
X10679557Y-15655728D01*
X10670033Y-15636681D01*
X10660510Y-15598585D01*
X10660510Y-15550966D01*
X10670033Y-15512871D01*
X10679557Y-15493823D01*
X10689081Y-15484300D01*
X10708129Y-15474776D01*
X10898605Y-15474776D02*
X10917652Y-15474776D01*
X10936700Y-15484300D01*
X10946224Y-15493823D01*
X10955748Y-15512871D01*
X10965271Y-15550966D01*
X10965271Y-15598585D01*
X10955748Y-15636681D01*
X10946224Y-15655728D01*
X10936700Y-15665252D01*
X10917652Y-15674776D01*
X10898605Y-15674776D01*
X10879557Y-15665252D01*
X10870033Y-15655728D01*
X10860510Y-15636681D01*
X10850986Y-15598585D01*
X10850986Y-15550966D01*
X10860510Y-15512871D01*
X10870033Y-15493823D01*
X10879557Y-15484300D01*
X10898605Y-15474776D01*
X11089081Y-15474776D02*
X11108129Y-15474776D01*
X11127176Y-15484300D01*
X11136700Y-15493823D01*
X11146224Y-15512871D01*
X11155748Y-15550966D01*
X11155748Y-15598585D01*
X11146224Y-15636681D01*
X11136700Y-15655728D01*
X11127176Y-15665252D01*
X11108129Y-15674776D01*
X11089081Y-15674776D01*
X11070033Y-15665252D01*
X11060510Y-15655728D01*
X11050986Y-15636681D01*
X11041462Y-15598585D01*
X11041462Y-15550966D01*
X11050986Y-15512871D01*
X11060510Y-15493823D01*
X11070033Y-15484300D01*
X11089081Y-15474776D01*
X11241462Y-15674776D02*
X11241462Y-15541442D01*
X11241462Y-15560490D02*
X11250986Y-15550966D01*
X11270033Y-15541442D01*
X11298605Y-15541442D01*
X11317652Y-15550966D01*
X11327176Y-15570014D01*
X11327176Y-15674776D01*
X11327176Y-15570014D02*
X11336700Y-15550966D01*
X11355748Y-15541442D01*
X11384319Y-15541442D01*
X11403367Y-15550966D01*
X11412890Y-15570014D01*
X11412890Y-15674776D01*
X11508128Y-15674776D02*
X11508128Y-15541442D01*
X11508128Y-15560490D02*
X11517652Y-15550966D01*
X11536700Y-15541442D01*
X11565271Y-15541442D01*
X11584319Y-15550966D01*
X11593843Y-15570014D01*
X11593843Y-15674776D01*
X11593843Y-15570014D02*
X11603367Y-15550966D01*
X11622414Y-15541442D01*
X11650986Y-15541442D01*
X11670033Y-15550966D01*
X11679557Y-15570014D01*
X11679557Y-15674776D01*
X12070033Y-15465252D02*
X11898605Y-15722395D01*
X12327176Y-15474776D02*
X12346224Y-15474776D01*
X12365271Y-15484300D01*
X12374795Y-15493823D01*
X12384319Y-15512871D01*
X12393843Y-15550966D01*
X12393843Y-15598585D01*
X12384319Y-15636681D01*
X12374795Y-15655728D01*
X12365271Y-15665252D01*
X12346224Y-15674776D01*
X12327176Y-15674776D01*
X12308128Y-15665252D01*
X12298605Y-15655728D01*
X12289081Y-15636681D01*
X12279557Y-15598585D01*
X12279557Y-15550966D01*
X12289081Y-15512871D01*
X12298605Y-15493823D01*
X12308128Y-15484300D01*
X12327176Y-15474776D01*
X12479557Y-15655728D02*
X12489081Y-15665252D01*
X12479557Y-15674776D01*
X12470033Y-15665252D01*
X12479557Y-15655728D01*
X12479557Y-15674776D01*
X12612890Y-15474776D02*
X12631938Y-15474776D01*
X12650986Y-15484300D01*
X12660509Y-15493823D01*
X12670033Y-15512871D01*
X12679557Y-15550966D01*
X12679557Y-15598585D01*
X12670033Y-15636681D01*
X12660509Y-15655728D01*
X12650986Y-15665252D01*
X12631938Y-15674776D01*
X12612890Y-15674776D01*
X12593843Y-15665252D01*
X12584319Y-15655728D01*
X12574795Y-15636681D01*
X12565271Y-15598585D01*
X12565271Y-15550966D01*
X12574795Y-15512871D01*
X12584319Y-15493823D01*
X12593843Y-15484300D01*
X12612890Y-15474776D01*
X12746224Y-15474776D02*
X12879557Y-15474776D01*
X12793843Y-15674776D01*
X12984319Y-15560490D02*
X12965271Y-15550966D01*
X12955748Y-15541442D01*
X12946224Y-15522395D01*
X12946224Y-15512871D01*
X12955748Y-15493823D01*
X12965271Y-15484300D01*
X12984319Y-15474776D01*
X13022414Y-15474776D01*
X13041462Y-15484300D01*
X13050986Y-15493823D01*
X13060509Y-15512871D01*
X13060509Y-15522395D01*
X13050986Y-15541442D01*
X13041462Y-15550966D01*
X13022414Y-15560490D01*
X12984319Y-15560490D01*
X12965271Y-15570014D01*
X12955748Y-15579538D01*
X12946224Y-15598585D01*
X12946224Y-15636681D01*
X12955748Y-15655728D01*
X12965271Y-15665252D01*
X12984319Y-15674776D01*
X13022414Y-15674776D01*
X13041462Y-15665252D01*
X13050986Y-15655728D01*
X13060509Y-15636681D01*
X13060509Y-15598585D01*
X13050986Y-15579538D01*
X13041462Y-15570014D01*
X13022414Y-15560490D01*
X13127176Y-15474776D02*
X13260509Y-15474776D01*
X13174795Y-15674776D01*
X13327176Y-15474776D02*
X13327176Y-15512871D01*
X13403367Y-15474776D02*
X13403367Y-15512871D01*
X13698605Y-15750966D02*
X13689081Y-15741442D01*
X13670033Y-15712871D01*
X13660509Y-15693823D01*
X13650986Y-15665252D01*
X13641462Y-15617633D01*
X13641462Y-15579538D01*
X13650986Y-15531919D01*
X13660509Y-15503347D01*
X13670033Y-15484300D01*
X13689081Y-15455728D01*
X13698605Y-15446204D01*
X13879557Y-15674776D02*
X13765271Y-15674776D01*
X13822414Y-15674776D02*
X13822414Y-15474776D01*
X13803367Y-15503347D01*
X13784319Y-15522395D01*
X13765271Y-15531919D01*
X13955748Y-15493823D02*
X13965271Y-15484300D01*
X13984319Y-15474776D01*
X14031938Y-15474776D01*
X14050986Y-15484300D01*
X14060509Y-15493823D01*
X14070033Y-15512871D01*
X14070033Y-15531919D01*
X14060509Y-15560490D01*
X13946224Y-15674776D01*
X14070033Y-15674776D01*
X14308128Y-15674776D02*
X14308128Y-15474776D01*
X14393843Y-15674776D02*
X14393843Y-15570014D01*
X14384319Y-15550966D01*
X14365271Y-15541442D01*
X14336700Y-15541442D01*
X14317652Y-15550966D01*
X14308128Y-15560490D01*
X14517652Y-15674776D02*
X14498605Y-15665252D01*
X14489081Y-15655728D01*
X14479557Y-15636681D01*
X14479557Y-15579538D01*
X14489081Y-15560490D01*
X14498605Y-15550966D01*
X14517652Y-15541442D01*
X14546224Y-15541442D01*
X14565271Y-15550966D01*
X14574795Y-15560490D01*
X14584319Y-15579538D01*
X14584319Y-15636681D01*
X14574795Y-15655728D01*
X14565271Y-15665252D01*
X14546224Y-15674776D01*
X14517652Y-15674776D01*
X14698605Y-15674776D02*
X14679557Y-15665252D01*
X14670033Y-15646204D01*
X14670033Y-15474776D01*
X14850986Y-15665252D02*
X14831938Y-15674776D01*
X14793843Y-15674776D01*
X14774795Y-15665252D01*
X14765271Y-15646204D01*
X14765271Y-15570014D01*
X14774795Y-15550966D01*
X14793843Y-15541442D01*
X14831938Y-15541442D01*
X14850986Y-15550966D01*
X14860509Y-15570014D01*
X14860509Y-15589062D01*
X14765271Y-15608109D01*
X14936700Y-15665252D02*
X14955748Y-15674776D01*
X14993843Y-15674776D01*
X15012890Y-15665252D01*
X15022414Y-15646204D01*
X15022414Y-15636681D01*
X15012890Y-15617633D01*
X14993843Y-15608109D01*
X14965271Y-15608109D01*
X14946224Y-15598585D01*
X14936700Y-15579538D01*
X14936700Y-15570014D01*
X14946224Y-15550966D01*
X14965271Y-15541442D01*
X14993843Y-15541442D01*
X15012890Y-15550966D01*
X15089081Y-15750966D02*
X15098605Y-15741442D01*
X15117652Y-15712871D01*
X15127176Y-15693823D01*
X15136700Y-15665252D01*
X15146224Y-15617633D01*
X15146224Y-15579538D01*
X15136700Y-15531919D01*
X15127176Y-15503347D01*
X15117652Y-15484300D01*
X15098605Y-15455728D01*
X15089081Y-15446204D01*
X10026700Y-16004300D02*
X10126700Y-15904300D01*
X10026700Y-15804300D01*
X9926700Y-15904300D01*
X10026700Y-16004300D01*
X10374795Y-15813823D02*
X10384319Y-15804300D01*
X10403367Y-15794776D01*
X10450986Y-15794776D01*
X10470033Y-15804300D01*
X10479557Y-15813823D01*
X10489081Y-15832871D01*
X10489081Y-15851919D01*
X10479557Y-15880490D01*
X10365271Y-15994776D01*
X10489081Y-15994776D01*
X10574795Y-15975728D02*
X10584319Y-15985252D01*
X10574795Y-15994776D01*
X10565271Y-15985252D01*
X10574795Y-15975728D01*
X10574795Y-15994776D01*
X10660510Y-15813823D02*
X10670033Y-15804300D01*
X10689081Y-15794776D01*
X10736700Y-15794776D01*
X10755748Y-15804300D01*
X10765271Y-15813823D01*
X10774795Y-15832871D01*
X10774795Y-15851919D01*
X10765271Y-15880490D01*
X10650986Y-15994776D01*
X10774795Y-15994776D01*
X10898605Y-15794776D02*
X10917652Y-15794776D01*
X10936700Y-15804300D01*
X10946224Y-15813823D01*
X10955748Y-15832871D01*
X10965271Y-15870966D01*
X10965271Y-15918585D01*
X10955748Y-15956681D01*
X10946224Y-15975728D01*
X10936700Y-15985252D01*
X10917652Y-15994776D01*
X10898605Y-15994776D01*
X10879557Y-15985252D01*
X10870033Y-15975728D01*
X10860510Y-15956681D01*
X10850986Y-15918585D01*
X10850986Y-15870966D01*
X10860510Y-15832871D01*
X10870033Y-15813823D01*
X10879557Y-15804300D01*
X10898605Y-15794776D01*
X11089081Y-15794776D02*
X11108129Y-15794776D01*
X11127176Y-15804300D01*
X11136700Y-15813823D01*
X11146224Y-15832871D01*
X11155748Y-15870966D01*
X11155748Y-15918585D01*
X11146224Y-15956681D01*
X11136700Y-15975728D01*
X11127176Y-15985252D01*
X11108129Y-15994776D01*
X11089081Y-15994776D01*
X11070033Y-15985252D01*
X11060510Y-15975728D01*
X11050986Y-15956681D01*
X11041462Y-15918585D01*
X11041462Y-15870966D01*
X11050986Y-15832871D01*
X11060510Y-15813823D01*
X11070033Y-15804300D01*
X11089081Y-15794776D01*
X11241462Y-15994776D02*
X11241462Y-15861442D01*
X11241462Y-15880490D02*
X11250986Y-15870966D01*
X11270033Y-15861442D01*
X11298605Y-15861442D01*
X11317652Y-15870966D01*
X11327176Y-15890014D01*
X11327176Y-15994776D01*
X11327176Y-15890014D02*
X11336700Y-15870966D01*
X11355748Y-15861442D01*
X11384319Y-15861442D01*
X11403367Y-15870966D01*
X11412890Y-15890014D01*
X11412890Y-15994776D01*
X11508128Y-15994776D02*
X11508128Y-15861442D01*
X11508128Y-15880490D02*
X11517652Y-15870966D01*
X11536700Y-15861442D01*
X11565271Y-15861442D01*
X11584319Y-15870966D01*
X11593843Y-15890014D01*
X11593843Y-15994776D01*
X11593843Y-15890014D02*
X11603367Y-15870966D01*
X11622414Y-15861442D01*
X11650986Y-15861442D01*
X11670033Y-15870966D01*
X11679557Y-15890014D01*
X11679557Y-15994776D01*
X12070033Y-15785252D02*
X11898605Y-16042395D01*
X12327176Y-15794776D02*
X12346224Y-15794776D01*
X12365271Y-15804300D01*
X12374795Y-15813823D01*
X12384319Y-15832871D01*
X12393843Y-15870966D01*
X12393843Y-15918585D01*
X12384319Y-15956681D01*
X12374795Y-15975728D01*
X12365271Y-15985252D01*
X12346224Y-15994776D01*
X12327176Y-15994776D01*
X12308128Y-15985252D01*
X12298605Y-15975728D01*
X12289081Y-15956681D01*
X12279557Y-15918585D01*
X12279557Y-15870966D01*
X12289081Y-15832871D01*
X12298605Y-15813823D01*
X12308128Y-15804300D01*
X12327176Y-15794776D01*
X12479557Y-15975728D02*
X12489081Y-15985252D01*
X12479557Y-15994776D01*
X12470033Y-15985252D01*
X12479557Y-15975728D01*
X12479557Y-15994776D01*
X12612890Y-15794776D02*
X12631938Y-15794776D01*
X12650986Y-15804300D01*
X12660509Y-15813823D01*
X12670033Y-15832871D01*
X12679557Y-15870966D01*
X12679557Y-15918585D01*
X12670033Y-15956681D01*
X12660509Y-15975728D01*
X12650986Y-15985252D01*
X12631938Y-15994776D01*
X12612890Y-15994776D01*
X12593843Y-15985252D01*
X12584319Y-15975728D01*
X12574795Y-15956681D01*
X12565271Y-15918585D01*
X12565271Y-15870966D01*
X12574795Y-15832871D01*
X12584319Y-15813823D01*
X12593843Y-15804300D01*
X12612890Y-15794776D01*
X12793843Y-15880490D02*
X12774795Y-15870966D01*
X12765271Y-15861442D01*
X12755748Y-15842395D01*
X12755748Y-15832871D01*
X12765271Y-15813823D01*
X12774795Y-15804300D01*
X12793843Y-15794776D01*
X12831938Y-15794776D01*
X12850986Y-15804300D01*
X12860509Y-15813823D01*
X12870033Y-15832871D01*
X12870033Y-15842395D01*
X12860509Y-15861442D01*
X12850986Y-15870966D01*
X12831938Y-15880490D01*
X12793843Y-15880490D01*
X12774795Y-15890014D01*
X12765271Y-15899538D01*
X12755748Y-15918585D01*
X12755748Y-15956681D01*
X12765271Y-15975728D01*
X12774795Y-15985252D01*
X12793843Y-15994776D01*
X12831938Y-15994776D01*
X12850986Y-15985252D01*
X12860509Y-15975728D01*
X12870033Y-15956681D01*
X12870033Y-15918585D01*
X12860509Y-15899538D01*
X12850986Y-15890014D01*
X12831938Y-15880490D01*
X13041462Y-15794776D02*
X13003367Y-15794776D01*
X12984319Y-15804300D01*
X12974795Y-15813823D01*
X12955748Y-15842395D01*
X12946224Y-15880490D01*
X12946224Y-15956681D01*
X12955748Y-15975728D01*
X12965271Y-15985252D01*
X12984319Y-15994776D01*
X13022414Y-15994776D01*
X13041462Y-15985252D01*
X13050986Y-15975728D01*
X13060509Y-15956681D01*
X13060509Y-15909062D01*
X13050986Y-15890014D01*
X13041462Y-15880490D01*
X13022414Y-15870966D01*
X12984319Y-15870966D01*
X12965271Y-15880490D01*
X12955748Y-15890014D01*
X12946224Y-15909062D01*
X13231938Y-15794776D02*
X13193843Y-15794776D01*
X13174795Y-15804300D01*
X13165271Y-15813823D01*
X13146224Y-15842395D01*
X13136700Y-15880490D01*
X13136700Y-15956681D01*
X13146224Y-15975728D01*
X13155748Y-15985252D01*
X13174795Y-15994776D01*
X13212890Y-15994776D01*
X13231938Y-15985252D01*
X13241462Y-15975728D01*
X13250986Y-15956681D01*
X13250986Y-15909062D01*
X13241462Y-15890014D01*
X13231938Y-15880490D01*
X13212890Y-15870966D01*
X13174795Y-15870966D01*
X13155748Y-15880490D01*
X13146224Y-15890014D01*
X13136700Y-15909062D01*
X13327176Y-15794776D02*
X13327176Y-15832871D01*
X13403367Y-15794776D02*
X13403367Y-15832871D01*
X13698605Y-16070966D02*
X13689081Y-16061442D01*
X13670033Y-16032871D01*
X13660509Y-16013823D01*
X13650986Y-15985252D01*
X13641462Y-15937633D01*
X13641462Y-15899538D01*
X13650986Y-15851919D01*
X13660509Y-15823347D01*
X13670033Y-15804300D01*
X13689081Y-15775728D01*
X13698605Y-15766204D01*
X13860509Y-15794776D02*
X13822414Y-15794776D01*
X13803367Y-15804300D01*
X13793843Y-15813823D01*
X13774795Y-15842395D01*
X13765271Y-15880490D01*
X13765271Y-15956681D01*
X13774795Y-15975728D01*
X13784319Y-15985252D01*
X13803367Y-15994776D01*
X13841462Y-15994776D01*
X13860509Y-15985252D01*
X13870033Y-15975728D01*
X13879557Y-15956681D01*
X13879557Y-15909062D01*
X13870033Y-15890014D01*
X13860509Y-15880490D01*
X13841462Y-15870966D01*
X13803367Y-15870966D01*
X13784319Y-15880490D01*
X13774795Y-15890014D01*
X13765271Y-15909062D01*
X14117652Y-15994776D02*
X14117652Y-15794776D01*
X14203367Y-15994776D02*
X14203367Y-15890014D01*
X14193843Y-15870966D01*
X14174795Y-15861442D01*
X14146224Y-15861442D01*
X14127176Y-15870966D01*
X14117652Y-15880490D01*
X14327176Y-15994776D02*
X14308128Y-15985252D01*
X14298605Y-15975728D01*
X14289081Y-15956681D01*
X14289081Y-15899538D01*
X14298605Y-15880490D01*
X14308128Y-15870966D01*
X14327176Y-15861442D01*
X14355748Y-15861442D01*
X14374795Y-15870966D01*
X14384319Y-15880490D01*
X14393843Y-15899538D01*
X14393843Y-15956681D01*
X14384319Y-15975728D01*
X14374795Y-15985252D01*
X14355748Y-15994776D01*
X14327176Y-15994776D01*
X14508128Y-15994776D02*
X14489081Y-15985252D01*
X14479557Y-15966204D01*
X14479557Y-15794776D01*
X14660509Y-15985252D02*
X14641462Y-15994776D01*
X14603367Y-15994776D01*
X14584319Y-15985252D01*
X14574795Y-15966204D01*
X14574795Y-15890014D01*
X14584319Y-15870966D01*
X14603367Y-15861442D01*
X14641462Y-15861442D01*
X14660509Y-15870966D01*
X14670033Y-15890014D01*
X14670033Y-15909062D01*
X14574795Y-15928109D01*
X14746224Y-15985252D02*
X14765271Y-15994776D01*
X14803367Y-15994776D01*
X14822414Y-15985252D01*
X14831938Y-15966204D01*
X14831938Y-15956681D01*
X14822414Y-15937633D01*
X14803367Y-15928109D01*
X14774795Y-15928109D01*
X14755748Y-15918585D01*
X14746224Y-15899538D01*
X14746224Y-15890014D01*
X14755748Y-15870966D01*
X14774795Y-15861442D01*
X14803367Y-15861442D01*
X14822414Y-15870966D01*
X14898605Y-16070966D02*
X14908128Y-16061442D01*
X14927176Y-16032871D01*
X14936700Y-16013823D01*
X14946224Y-15985252D01*
X14955748Y-15937633D01*
X14955748Y-15899538D01*
X14946224Y-15851919D01*
X14936700Y-15823347D01*
X14927176Y-15804300D01*
X14908128Y-15775728D01*
X14898605Y-15766204D01*
M02*
