%TF.GenerationSoftware,KiCad,Pcbnew,(6.0.5)*%
%TF.CreationDate,2023-01-23T16:46:34-08:00*%
%TF.ProjectId,Z_Panels,5a5f5061-6e65-46c7-932e-6b696361645f,rev?*%
%TF.SameCoordinates,Original*%
%TF.FileFunction,Legend,Bot*%
%TF.FilePolarity,Positive*%
%FSLAX46Y46*%
G04 Gerber Fmt 4.6, Leading zero omitted, Abs format (unit mm)*
G04 Created by KiCad (PCBNEW (6.0.5)) date 2023-01-23 16:46:34*
%MOMM*%
%LPD*%
G01*
G04 APERTURE LIST*
%ADD10C,0.300000*%
%ADD11C,0.150000*%
%ADD12C,0.120000*%
%ADD13C,3.000000*%
%ADD14C,3.800000*%
%ADD15C,2.600000*%
%ADD16R,1.700000X1.700000*%
%ADD17O,1.700000X1.700000*%
%ADD18C,2.050000*%
%ADD19C,2.250000*%
G04 APERTURE END LIST*
D10*
X170180000Y-105010000D02*
X170180000Y-80010000D01*
X195180000Y-105010000D02*
X170180000Y-105010000D01*
X195180000Y-105010000D02*
X195180000Y-80010000D01*
D11*
X183764776Y-76993345D02*
X183764776Y-77707631D01*
X183812395Y-77850488D01*
X183907633Y-77945726D01*
X184050490Y-77993345D01*
X184145728Y-77993345D01*
X182764776Y-77993345D02*
X183336204Y-77993345D01*
X183050490Y-77993345D02*
X183050490Y-76993345D01*
X183145728Y-77136203D01*
X183240966Y-77231441D01*
X183336204Y-77279060D01*
G36*
X170849958Y-129065391D02*
G01*
X170478703Y-129065391D01*
X170478703Y-127301932D01*
X170849958Y-127301932D01*
X170849958Y-129065391D01*
G37*
G36*
X172807016Y-123718373D02*
G01*
X172963302Y-123740854D01*
X173111907Y-123784993D01*
X173246533Y-123848851D01*
X173360883Y-123930490D01*
X173433271Y-123994208D01*
X173433271Y-123759545D01*
X174052028Y-123759545D01*
X174052028Y-126172699D01*
X173417802Y-126172699D01*
X173417802Y-124657902D01*
X173351976Y-124577152D01*
X173306722Y-124527630D01*
X173214838Y-124449641D01*
X173112814Y-124385060D01*
X173011620Y-124341482D01*
X172972329Y-124330715D01*
X172915173Y-124321303D01*
X172846460Y-124317600D01*
X172756630Y-124318754D01*
X172590708Y-124324038D01*
X172554515Y-124032620D01*
X172553920Y-124027823D01*
X172543075Y-123936910D01*
X172534339Y-123857205D01*
X172528185Y-123793574D01*
X172525086Y-123750886D01*
X172525514Y-123734009D01*
X172530035Y-123732314D01*
X172559107Y-123727702D01*
X172608330Y-123722623D01*
X172670287Y-123717902D01*
X172807016Y-123718373D01*
G37*
G36*
X187197711Y-124912933D02*
G01*
X187197857Y-125119330D01*
X187197866Y-125312746D01*
X187197743Y-125491187D01*
X187197491Y-125652658D01*
X187197115Y-125795163D01*
X187196617Y-125916707D01*
X187196002Y-126015294D01*
X187195274Y-126088929D01*
X187194437Y-126135617D01*
X187193495Y-126153363D01*
X187190037Y-126156378D01*
X187173468Y-126160696D01*
X187141456Y-126164225D01*
X187091788Y-126167024D01*
X187022250Y-126169153D01*
X186930631Y-126170673D01*
X186814715Y-126171644D01*
X186672291Y-126172126D01*
X186501144Y-126172178D01*
X186345622Y-126171861D01*
X186163327Y-126170767D01*
X186007024Y-126168780D01*
X185873892Y-126165761D01*
X185761110Y-126161570D01*
X185665855Y-126156070D01*
X185585307Y-126149122D01*
X185516643Y-126140586D01*
X185457042Y-126130324D01*
X185403682Y-126118197D01*
X185381788Y-126112337D01*
X185216784Y-126050699D01*
X185066643Y-125963183D01*
X184933685Y-125852034D01*
X184820228Y-125719498D01*
X184728595Y-125567822D01*
X184661103Y-125399252D01*
X184644912Y-125336195D01*
X184626699Y-125206056D01*
X184624363Y-125109651D01*
X185293179Y-125109651D01*
X185307435Y-125225762D01*
X185348861Y-125328191D01*
X185418596Y-125419864D01*
X185428896Y-125430323D01*
X185490744Y-125482718D01*
X185559035Y-125519783D01*
X185645999Y-125548433D01*
X185655448Y-125550688D01*
X185701503Y-125557587D01*
X185768714Y-125562784D01*
X185859519Y-125566385D01*
X185976358Y-125568498D01*
X186121669Y-125569227D01*
X186519994Y-125569411D01*
X186519994Y-124625805D01*
X186168076Y-124625922D01*
X186128662Y-124626032D01*
X186021135Y-124627265D01*
X185919907Y-124629691D01*
X185831137Y-124633093D01*
X185760985Y-124637253D01*
X185715609Y-124641952D01*
X185615696Y-124665268D01*
X185504289Y-124714474D01*
X185415023Y-124783727D01*
X185349212Y-124871610D01*
X185308166Y-124976709D01*
X185293199Y-125097608D01*
X185293179Y-125109651D01*
X184624363Y-125109651D01*
X184623336Y-125067261D01*
X184634823Y-124931742D01*
X184661159Y-124811433D01*
X184684792Y-124743763D01*
X184752857Y-124600217D01*
X184839363Y-124469459D01*
X184940089Y-124357359D01*
X185050812Y-124269784D01*
X185081378Y-124248440D01*
X185111111Y-124220857D01*
X185117224Y-124202703D01*
X185115507Y-124199899D01*
X185097359Y-124173338D01*
X185071385Y-124137739D01*
X185050078Y-124106246D01*
X185004329Y-124017422D01*
X184964451Y-123910993D01*
X184934150Y-123796178D01*
X184919036Y-123688345D01*
X184919489Y-123666731D01*
X185592537Y-123666731D01*
X185592727Y-123678658D01*
X185610607Y-123780347D01*
X185655650Y-123870888D01*
X185725089Y-123946134D01*
X185816158Y-124001937D01*
X185821069Y-124004038D01*
X185848821Y-124013265D01*
X185884544Y-124020337D01*
X185932831Y-124025650D01*
X185998277Y-124029603D01*
X186085473Y-124032591D01*
X186199014Y-124035011D01*
X186519994Y-124040689D01*
X186519994Y-123295477D01*
X186228892Y-123295477D01*
X186214064Y-123295487D01*
X186088659Y-123296858D01*
X185988962Y-123301196D01*
X185910291Y-123309453D01*
X185847967Y-123322585D01*
X185797309Y-123341545D01*
X185753637Y-123367287D01*
X185712270Y-123400765D01*
X185646694Y-123475807D01*
X185605864Y-123564716D01*
X185592537Y-123666731D01*
X184919489Y-123666731D01*
X184922273Y-123533829D01*
X184953251Y-123382715D01*
X185010145Y-123238461D01*
X185091130Y-123104525D01*
X185194380Y-122984366D01*
X185318069Y-122881443D01*
X185460372Y-122799214D01*
X185477817Y-122791154D01*
X185525581Y-122770657D01*
X185573108Y-122753496D01*
X185623514Y-122739374D01*
X185679919Y-122727999D01*
X185745438Y-122719074D01*
X185823188Y-122712306D01*
X185916288Y-122707399D01*
X186027855Y-122704059D01*
X186161005Y-122701990D01*
X186318856Y-122700899D01*
X186504525Y-122700491D01*
X187192893Y-122699922D01*
X187196003Y-124040689D01*
X187196876Y-124416975D01*
X187196994Y-124469182D01*
X187197292Y-124625805D01*
X187197425Y-124695552D01*
X187197711Y-124912933D01*
G37*
G36*
X177470664Y-129065391D02*
G01*
X177099410Y-129065391D01*
X177099410Y-127301932D01*
X177470664Y-127301932D01*
X177470664Y-129065391D01*
G37*
G36*
X171762965Y-127893619D02*
G01*
X171762997Y-127943988D01*
X171763272Y-128096465D01*
X171764151Y-128222047D01*
X171766091Y-128323858D01*
X171769548Y-128405023D01*
X171774979Y-128468667D01*
X171782841Y-128517914D01*
X171793590Y-128555889D01*
X171807683Y-128585717D01*
X171825576Y-128610523D01*
X171847725Y-128633430D01*
X171874588Y-128657564D01*
X171931730Y-128698447D01*
X172022804Y-128736992D01*
X172120981Y-128753998D01*
X172220003Y-128749914D01*
X172313613Y-128725189D01*
X172395554Y-128680272D01*
X172459568Y-128615612D01*
X172464992Y-128607891D01*
X172482985Y-128579654D01*
X172497673Y-128549871D01*
X172509388Y-128515276D01*
X172518462Y-128472605D01*
X172525228Y-128418592D01*
X172530018Y-128349970D01*
X172533166Y-128263475D01*
X172535002Y-128155840D01*
X172535860Y-128023800D01*
X172536072Y-127864090D01*
X172536072Y-127301932D01*
X172907327Y-127301932D01*
X172907210Y-127854947D01*
X172906920Y-127958326D01*
X172905793Y-128087983D01*
X172903918Y-128208185D01*
X172901401Y-128314635D01*
X172898348Y-128403036D01*
X172894865Y-128469093D01*
X172891059Y-128508509D01*
X172862312Y-128626174D01*
X172803780Y-128754477D01*
X172720973Y-128865278D01*
X172615666Y-128956741D01*
X172489634Y-129027027D01*
X172344651Y-129074298D01*
X172308952Y-129081054D01*
X172202958Y-129090047D01*
X172085878Y-129087586D01*
X171970152Y-129074286D01*
X171868217Y-129050762D01*
X171836396Y-129040004D01*
X171706022Y-128976750D01*
X171594117Y-128889474D01*
X171503011Y-128780325D01*
X171435034Y-128651450D01*
X171427700Y-128632796D01*
X171420113Y-128610635D01*
X171413956Y-128586377D01*
X171409048Y-128556819D01*
X171405209Y-128518754D01*
X171402258Y-128468979D01*
X171400015Y-128404289D01*
X171398298Y-128321480D01*
X171396928Y-128217347D01*
X171395724Y-128088685D01*
X171394504Y-127932291D01*
X171389769Y-127301932D01*
X171762625Y-127301932D01*
X171762965Y-127893619D01*
G37*
G36*
X193933865Y-124230557D02*
G01*
X193881082Y-124341357D01*
X193809536Y-124439484D01*
X193723710Y-124519001D01*
X193628088Y-124573975D01*
X193558478Y-124602602D01*
X193558362Y-124997060D01*
X194667923Y-124997060D01*
X194695867Y-124923582D01*
X194697179Y-124920237D01*
X194731752Y-124859033D01*
X194785707Y-124791326D01*
X194851581Y-124724710D01*
X194921913Y-124666776D01*
X194989239Y-124625117D01*
X195020498Y-124610904D01*
X195057832Y-124598617D01*
X195100671Y-124591436D01*
X195157485Y-124588064D01*
X195236742Y-124587202D01*
X195243828Y-124587202D01*
X195319578Y-124587990D01*
X195373863Y-124591261D01*
X195415459Y-124598492D01*
X195453141Y-124611156D01*
X195495683Y-124630730D01*
X195498304Y-124632026D01*
X195607513Y-124703324D01*
X195700419Y-124799173D01*
X195773563Y-124916019D01*
X195792413Y-124955581D01*
X195809760Y-124999826D01*
X195819442Y-125042664D01*
X195823646Y-125094870D01*
X195824562Y-125167218D01*
X195824449Y-125181589D01*
X195824132Y-125222114D01*
X195821044Y-125278834D01*
X195813089Y-125323183D01*
X195798088Y-125365919D01*
X195773867Y-125417799D01*
X195703880Y-125529890D01*
X195609141Y-125627847D01*
X195495842Y-125702206D01*
X195453742Y-125722257D01*
X195415752Y-125735634D01*
X195374317Y-125743164D01*
X195320279Y-125746490D01*
X195244477Y-125747253D01*
X195185424Y-125746832D01*
X195124742Y-125744054D01*
X195078780Y-125737326D01*
X195038184Y-125725105D01*
X194993600Y-125705846D01*
X194934053Y-125673085D01*
X194842966Y-125604155D01*
X194765089Y-125522353D01*
X194709171Y-125435984D01*
X194668495Y-125352846D01*
X193558362Y-125352846D01*
X193558362Y-126451140D01*
X194667923Y-126451140D01*
X194694608Y-126381267D01*
X194696608Y-126376181D01*
X194741582Y-126296300D01*
X194808584Y-126217179D01*
X194890099Y-126146479D01*
X194978608Y-126091860D01*
X194986138Y-126088168D01*
X195033284Y-126066402D01*
X195073103Y-126052651D01*
X195115159Y-126045092D01*
X195169015Y-126041904D01*
X195244236Y-126041264D01*
X195318403Y-126041978D01*
X195372930Y-126045202D01*
X195414582Y-126052574D01*
X195452504Y-126065731D01*
X195495842Y-126086311D01*
X195603992Y-126156446D01*
X195699714Y-126253322D01*
X195773867Y-126370718D01*
X195792421Y-126409659D01*
X195809747Y-126453843D01*
X195819428Y-126496672D01*
X195823641Y-126548905D01*
X195824562Y-126621299D01*
X195824122Y-126676749D01*
X195821010Y-126733278D01*
X195813004Y-126777562D01*
X195797917Y-126820377D01*
X195773563Y-126872498D01*
X195772158Y-126875335D01*
X195698532Y-126991747D01*
X195605220Y-127087082D01*
X195495683Y-127157787D01*
X195491978Y-127159601D01*
X195450133Y-127178581D01*
X195412461Y-127190768D01*
X195370188Y-127197635D01*
X195314540Y-127200659D01*
X195236742Y-127201315D01*
X195173939Y-127200831D01*
X195112506Y-127198160D01*
X195067252Y-127192010D01*
X195029817Y-127181116D01*
X194991835Y-127164208D01*
X194910412Y-127113887D01*
X194828997Y-127045156D01*
X194759066Y-126967966D01*
X194709667Y-126891078D01*
X194668495Y-126806926D01*
X193558362Y-126806926D01*
X193558362Y-127208960D01*
X193631840Y-127243160D01*
X193672784Y-127266298D01*
X193742372Y-127319288D01*
X193810975Y-127385024D01*
X193869692Y-127454657D01*
X193909621Y-127519338D01*
X193923693Y-127551924D01*
X193958951Y-127677313D01*
X193966796Y-127802257D01*
X193965274Y-127812756D01*
X193949259Y-127923203D01*
X193908374Y-128036600D01*
X193846175Y-128138896D01*
X193764694Y-128226540D01*
X193665966Y-128295980D01*
X193552024Y-128343663D01*
X193424900Y-128366039D01*
X193300060Y-128362756D01*
X193171778Y-128333363D01*
X193057593Y-128279316D01*
X192960078Y-128203187D01*
X192881805Y-128107549D01*
X192825347Y-127994974D01*
X192793276Y-127868035D01*
X192790271Y-127786465D01*
X193140081Y-127786465D01*
X193153171Y-127861390D01*
X193190812Y-127928793D01*
X193252709Y-127982649D01*
X193276814Y-127994275D01*
X193341974Y-128009793D01*
X193412909Y-128011632D01*
X193474129Y-127998670D01*
X193515599Y-127970647D01*
X193558572Y-127924296D01*
X193594046Y-127870860D01*
X193613273Y-127821481D01*
X193614726Y-127812756D01*
X193611811Y-127733293D01*
X193582223Y-127659746D01*
X193529784Y-127598650D01*
X193458315Y-127556539D01*
X193379480Y-127538824D01*
X193303203Y-127549595D01*
X193233414Y-127590566D01*
X193188744Y-127638151D01*
X193151840Y-127710043D01*
X193140081Y-127786465D01*
X192790271Y-127786465D01*
X192788165Y-127729304D01*
X192805331Y-127623915D01*
X192850852Y-127505361D01*
X192920373Y-127399458D01*
X193010470Y-127311229D01*
X193117717Y-127245700D01*
X193202577Y-127206850D01*
X193202577Y-126808362D01*
X191868380Y-126802875D01*
X191682380Y-126802102D01*
X191471123Y-126801173D01*
X191286976Y-126800254D01*
X191127791Y-126799289D01*
X190991423Y-126798220D01*
X190875724Y-126796989D01*
X190778550Y-126795540D01*
X190697754Y-126793814D01*
X190631190Y-126791755D01*
X190576712Y-126789306D01*
X190532173Y-126786407D01*
X190495427Y-126783004D01*
X190464329Y-126779037D01*
X190436732Y-126774450D01*
X190410490Y-126769186D01*
X190383457Y-126763186D01*
X190314490Y-126746493D01*
X190072476Y-126669603D01*
X190014250Y-126643258D01*
X195002140Y-126643258D01*
X195020333Y-126717931D01*
X195059863Y-126782465D01*
X195118612Y-126829037D01*
X195191794Y-126856983D01*
X195263782Y-126859707D01*
X195336385Y-126834672D01*
X195382361Y-126807564D01*
X195433348Y-126759749D01*
X195460664Y-126700061D01*
X195468776Y-126621299D01*
X195467317Y-126578626D01*
X195457541Y-126526875D01*
X195436221Y-126487080D01*
X195435444Y-126486042D01*
X195374192Y-126427042D01*
X195302451Y-126393361D01*
X195226249Y-126384714D01*
X195151612Y-126400818D01*
X195084566Y-126441389D01*
X195031140Y-126506144D01*
X195007404Y-126566266D01*
X195002140Y-126643258D01*
X190014250Y-126643258D01*
X189845767Y-126567026D01*
X189631310Y-126437218D01*
X189426055Y-126278633D01*
X189419391Y-126272924D01*
X189377084Y-126237802D01*
X189344985Y-126213021D01*
X189329596Y-126203637D01*
X189318782Y-126214441D01*
X189298635Y-126248260D01*
X189272879Y-126298978D01*
X189244527Y-126360324D01*
X189216592Y-126426026D01*
X189192088Y-126489813D01*
X189188386Y-126500239D01*
X189127692Y-126718316D01*
X189097536Y-126939122D01*
X189097821Y-127161182D01*
X189128449Y-127383022D01*
X189189322Y-127603167D01*
X189280343Y-127820142D01*
X189348584Y-127944848D01*
X189476644Y-128128209D01*
X189626624Y-128291704D01*
X189796214Y-128433728D01*
X189983101Y-128552671D01*
X190184975Y-128646926D01*
X190399523Y-128714887D01*
X190624436Y-128754945D01*
X190664457Y-128757689D01*
X190736082Y-128760279D01*
X190838086Y-128762607D01*
X190970187Y-128764668D01*
X191132101Y-128766462D01*
X191323545Y-128767987D01*
X191544235Y-128769239D01*
X191793888Y-128770217D01*
X192072220Y-128770918D01*
X192378948Y-128771340D01*
X192713788Y-128771481D01*
X194654843Y-128771481D01*
X194704195Y-128678887D01*
X194723613Y-128643934D01*
X194784276Y-128554758D01*
X194853622Y-128484696D01*
X194939853Y-128424905D01*
X195004263Y-128391840D01*
X195123877Y-128354152D01*
X195244329Y-128343321D01*
X195362203Y-128357246D01*
X195474084Y-128393826D01*
X195576557Y-128450961D01*
X195666206Y-128526549D01*
X195739617Y-128618489D01*
X195793375Y-128724682D01*
X195824063Y-128843025D01*
X195827733Y-128955096D01*
X195828268Y-128971418D01*
X195815459Y-129058966D01*
X195774131Y-129184008D01*
X195709067Y-129295076D01*
X195623147Y-129388556D01*
X195519252Y-129460838D01*
X195400259Y-129508308D01*
X195293777Y-129526304D01*
X195162138Y-129522212D01*
X195033796Y-129491044D01*
X194916189Y-129433942D01*
X194857597Y-129391667D01*
X194773658Y-129304859D01*
X194706597Y-129195224D01*
X194665681Y-129111798D01*
X192629030Y-129111798D01*
X192561161Y-129111799D01*
X192266466Y-129111810D01*
X192000635Y-129111784D01*
X191761963Y-129111656D01*
X191548744Y-129111360D01*
X191359275Y-129110831D01*
X191191851Y-129110002D01*
X191044766Y-129108808D01*
X190916316Y-129107185D01*
X190804797Y-129105065D01*
X190708503Y-129102384D01*
X190625730Y-129099076D01*
X190554773Y-129095076D01*
X190493927Y-129090317D01*
X190441488Y-129084735D01*
X190395750Y-129078263D01*
X190355010Y-129070837D01*
X190317562Y-129062390D01*
X190281702Y-129052857D01*
X190245724Y-129042173D01*
X190207925Y-129030272D01*
X190166599Y-129017088D01*
X190051573Y-128976300D01*
X189958623Y-128933905D01*
X195004708Y-128933905D01*
X195005376Y-128956736D01*
X195020005Y-129027399D01*
X195056990Y-129085610D01*
X195120568Y-129138869D01*
X195159506Y-129159124D01*
X195232937Y-129173067D01*
X195308581Y-129162795D01*
X195378159Y-129129967D01*
X195433394Y-129076240D01*
X195458406Y-129028165D01*
X195473880Y-128955096D01*
X195468916Y-128881680D01*
X195443084Y-128819311D01*
X195424884Y-128794311D01*
X195371216Y-128740060D01*
X195311045Y-128710695D01*
X195236742Y-128701871D01*
X195193235Y-128705088D01*
X195115443Y-128730785D01*
X195056007Y-128779571D01*
X195018054Y-128848319D01*
X195004708Y-128933905D01*
X189958623Y-128933905D01*
X189844585Y-128881892D01*
X189644720Y-128764006D01*
X189644434Y-128763816D01*
X189572182Y-128710001D01*
X189487558Y-128637664D01*
X189396747Y-128552989D01*
X189305933Y-128462161D01*
X189221299Y-128371364D01*
X189149032Y-128286782D01*
X189095314Y-128214600D01*
X189025963Y-128102771D01*
X188912722Y-127878106D01*
X188827175Y-127643953D01*
X188770927Y-127404321D01*
X188760530Y-127326216D01*
X188751623Y-127204045D01*
X188748267Y-127070283D01*
X188750455Y-126935440D01*
X188758179Y-126810022D01*
X188771432Y-126704537D01*
X188810106Y-126534457D01*
X188874630Y-126337502D01*
X188958393Y-126141272D01*
X189057860Y-125955016D01*
X189087810Y-125904737D01*
X189550363Y-125904737D01*
X189654599Y-126002244D01*
X189731682Y-126069707D01*
X189910417Y-126196808D01*
X190106202Y-126300200D01*
X190315142Y-126377994D01*
X190533336Y-126428298D01*
X190543404Y-126429841D01*
X190576730Y-126433898D01*
X190618229Y-126437428D01*
X190669970Y-126440464D01*
X190734022Y-126443038D01*
X190812454Y-126445186D01*
X190907337Y-126446940D01*
X191020740Y-126448334D01*
X191154733Y-126449401D01*
X191311385Y-126450176D01*
X191492765Y-126450691D01*
X191700944Y-126450981D01*
X191937991Y-126451078D01*
X193202577Y-126451140D01*
X193202577Y-125351715D01*
X191860646Y-125356869D01*
X191671439Y-125357604D01*
X191459869Y-125358478D01*
X191275487Y-125359346D01*
X191116206Y-125360264D01*
X190979937Y-125361287D01*
X190864593Y-125362467D01*
X190768086Y-125363862D01*
X190688329Y-125365524D01*
X190623232Y-125367509D01*
X190570709Y-125369871D01*
X190528672Y-125372665D01*
X190495033Y-125375946D01*
X190467704Y-125379768D01*
X190444597Y-125384186D01*
X190423624Y-125389255D01*
X190402698Y-125395028D01*
X190343977Y-125412576D01*
X190129676Y-125492269D01*
X189935398Y-125590332D01*
X189763634Y-125705367D01*
X189616878Y-125835975D01*
X189550363Y-125904737D01*
X189087810Y-125904737D01*
X189090777Y-125899756D01*
X189011607Y-125761682D01*
X188941365Y-125627903D01*
X188862539Y-125438374D01*
X188798118Y-125229094D01*
X188782587Y-125164519D01*
X188770488Y-125097746D01*
X188761919Y-125024547D01*
X188755936Y-124936754D01*
X188751597Y-124826198D01*
X188749976Y-124671308D01*
X188757275Y-124514759D01*
X188775464Y-124370925D01*
X188805738Y-124230753D01*
X188849288Y-124085194D01*
X188915249Y-123913954D01*
X189026988Y-123695644D01*
X189162721Y-123494299D01*
X189320449Y-123311497D01*
X189498168Y-123148814D01*
X189693878Y-123007827D01*
X189905577Y-122890116D01*
X189991866Y-122854612D01*
X195004708Y-122854612D01*
X195004754Y-122860819D01*
X195015670Y-122935915D01*
X195048745Y-122997078D01*
X195108312Y-123052586D01*
X195136112Y-123068369D01*
X195200115Y-123085834D01*
X195269663Y-123087985D01*
X195330323Y-123073465D01*
X195355066Y-123059455D01*
X195404940Y-123017003D01*
X195446827Y-122964847D01*
X195470692Y-122914361D01*
X195472958Y-122904307D01*
X195474850Y-122825492D01*
X195451972Y-122749640D01*
X195408063Y-122685033D01*
X195346859Y-122639954D01*
X195339324Y-122636519D01*
X195258798Y-122616045D01*
X195181225Y-122622661D01*
X195111818Y-122653096D01*
X195055787Y-122704079D01*
X195018347Y-122772341D01*
X195004708Y-122854612D01*
X189991866Y-122854612D01*
X190131263Y-122797256D01*
X190368935Y-122730825D01*
X190616592Y-122692401D01*
X190645274Y-122690575D01*
X190709165Y-122688328D01*
X190801799Y-122686252D01*
X190921931Y-122684354D01*
X191068319Y-122682645D01*
X191239717Y-122681133D01*
X191434883Y-122679829D01*
X191652572Y-122678740D01*
X191891541Y-122677877D01*
X192150545Y-122677248D01*
X192428341Y-122676863D01*
X192723684Y-122676732D01*
X194665681Y-122676719D01*
X194706597Y-122593293D01*
X194730172Y-122549489D01*
X194810149Y-122442239D01*
X194908750Y-122358468D01*
X195023194Y-122299748D01*
X195150698Y-122267657D01*
X195288481Y-122263770D01*
X195405994Y-122284572D01*
X195521035Y-122331299D01*
X195620643Y-122399578D01*
X195703039Y-122485781D01*
X195766441Y-122586279D01*
X195809069Y-122697444D01*
X195829142Y-122815646D01*
X195828797Y-122825492D01*
X195824879Y-122937258D01*
X195794501Y-123058650D01*
X195736226Y-123176195D01*
X195726357Y-123191163D01*
X195642949Y-123287533D01*
X195542011Y-123361846D01*
X195428271Y-123412989D01*
X195306457Y-123439850D01*
X195181297Y-123441316D01*
X195057519Y-123416274D01*
X194939853Y-123363612D01*
X194847823Y-123298791D01*
X194772079Y-123218641D01*
X194708318Y-123116648D01*
X194664391Y-123032578D01*
X192684367Y-123032632D01*
X192625695Y-123032634D01*
X192331971Y-123032663D01*
X192067163Y-123032763D01*
X191829571Y-123032990D01*
X191617494Y-123033398D01*
X191429230Y-123034044D01*
X191263079Y-123034982D01*
X191117339Y-123036266D01*
X190990309Y-123037953D01*
X190880289Y-123040097D01*
X190785578Y-123042752D01*
X190704473Y-123045975D01*
X190635276Y-123049821D01*
X190576283Y-123054343D01*
X190525795Y-123059597D01*
X190482110Y-123065639D01*
X190443527Y-123072524D01*
X190408346Y-123080305D01*
X190374865Y-123089039D01*
X190341383Y-123098781D01*
X190306199Y-123109585D01*
X190127184Y-123176377D01*
X189928633Y-123279310D01*
X189745992Y-123406122D01*
X189581494Y-123554481D01*
X189437376Y-123722054D01*
X189315870Y-123906511D01*
X189219211Y-124105518D01*
X189149633Y-124316744D01*
X189109846Y-124520828D01*
X189094784Y-124747199D01*
X189110601Y-124972017D01*
X189157274Y-125194987D01*
X189234780Y-125415816D01*
X189257479Y-125469373D01*
X189285492Y-125531688D01*
X189307852Y-125569543D01*
X189328697Y-125585302D01*
X189352165Y-125581330D01*
X189382395Y-125559990D01*
X189423527Y-125523647D01*
X189480507Y-125474475D01*
X189678449Y-125330012D01*
X189895768Y-125208457D01*
X189989304Y-125169556D01*
X194997228Y-125169556D01*
X195001601Y-125204516D01*
X195026072Y-125269357D01*
X195065654Y-125328684D01*
X195092183Y-125351715D01*
X195112999Y-125369787D01*
X195157165Y-125390839D01*
X195235147Y-125405983D01*
X195314087Y-125391666D01*
X195364545Y-125367522D01*
X195423212Y-125316225D01*
X195460049Y-125252358D01*
X195475033Y-125181589D01*
X195468139Y-125109583D01*
X195439345Y-125042007D01*
X195388626Y-124984528D01*
X195315959Y-124942811D01*
X195247496Y-124928363D01*
X195171721Y-124937531D01*
X195103313Y-124970143D01*
X195047765Y-125022291D01*
X195010572Y-125090064D01*
X194997228Y-125169556D01*
X189989304Y-125169556D01*
X190130203Y-125110957D01*
X190379495Y-125038659D01*
X190393065Y-125035562D01*
X190418112Y-125030282D01*
X190444351Y-125025662D01*
X190473907Y-125021647D01*
X190508903Y-125018183D01*
X190551465Y-125015218D01*
X190603718Y-125012697D01*
X190667786Y-125010565D01*
X190745794Y-125008770D01*
X190839867Y-125007257D01*
X190952129Y-125005972D01*
X191084705Y-125004862D01*
X191239720Y-125003872D01*
X191419299Y-125002949D01*
X191625566Y-125002039D01*
X191860646Y-125001088D01*
X193202577Y-124995779D01*
X193202577Y-124610752D01*
X193146765Y-124587432D01*
X193133740Y-124581713D01*
X193042459Y-124527799D01*
X192956658Y-124455445D01*
X192888374Y-124374567D01*
X192886824Y-124372272D01*
X192825368Y-124255072D01*
X192791916Y-124131971D01*
X192787231Y-124042664D01*
X193140701Y-124042664D01*
X193155059Y-124120131D01*
X193195408Y-124189084D01*
X193256770Y-124240267D01*
X193312145Y-124264869D01*
X193391659Y-124275899D01*
X193466883Y-124256369D01*
X193536978Y-124206381D01*
X193571666Y-124166162D01*
X193607466Y-124092220D01*
X193614449Y-124014915D01*
X193592550Y-123938947D01*
X193541703Y-123869017D01*
X193520365Y-123849858D01*
X193451258Y-123811040D01*
X193378325Y-123798147D01*
X193306834Y-123808895D01*
X193242056Y-123841003D01*
X193189261Y-123892189D01*
X193153719Y-123960170D01*
X193140701Y-124042664D01*
X192787231Y-124042664D01*
X192785367Y-124007145D01*
X192804623Y-123884773D01*
X192848583Y-123769033D01*
X192916148Y-123664101D01*
X193006219Y-123574155D01*
X193117695Y-123503373D01*
X193160920Y-123483334D01*
X193200169Y-123469710D01*
X193242330Y-123462039D01*
X193296740Y-123458658D01*
X193372735Y-123457900D01*
X193430649Y-123458323D01*
X193491750Y-123461085D01*
X193537943Y-123467771D01*
X193578563Y-123479916D01*
X193622947Y-123499054D01*
X193627615Y-123501267D01*
X193738234Y-123570292D01*
X193829957Y-123659958D01*
X193900386Y-123765747D01*
X193947125Y-123883141D01*
X193967780Y-124007620D01*
X193967331Y-124014915D01*
X193959955Y-124134667D01*
X193933865Y-124230557D01*
G37*
G36*
X178661564Y-127283323D02*
G01*
X178781511Y-127297987D01*
X178886072Y-127323048D01*
X178937665Y-127341436D01*
X179083589Y-127413890D01*
X179210982Y-127508665D01*
X179318112Y-127622734D01*
X179403247Y-127753071D01*
X179464654Y-127896650D01*
X179500600Y-128050445D01*
X179509355Y-128211430D01*
X179489184Y-128376580D01*
X179474023Y-128437839D01*
X179415280Y-128590749D01*
X179331489Y-128727923D01*
X179225021Y-128846993D01*
X179098247Y-128945592D01*
X178953536Y-129021350D01*
X178793259Y-129071900D01*
X178641486Y-129092107D01*
X178478299Y-129087699D01*
X178316410Y-129058768D01*
X178163090Y-129006636D01*
X178025613Y-128932620D01*
X178023810Y-128931419D01*
X177962707Y-128887065D01*
X177907882Y-128840893D01*
X177864178Y-128797680D01*
X177836440Y-128762204D01*
X177829513Y-128739241D01*
X177836446Y-128730232D01*
X177862770Y-128703598D01*
X177903768Y-128665202D01*
X177954271Y-128619982D01*
X178074358Y-128514587D01*
X178153093Y-128590478D01*
X178196214Y-128627688D01*
X178259960Y-128673435D01*
X178319182Y-128707324D01*
X178351159Y-128721548D01*
X178391872Y-128735535D01*
X178435528Y-128743634D01*
X178491450Y-128747372D01*
X178568959Y-128748278D01*
X178581066Y-128748270D01*
X178652399Y-128747394D01*
X178703259Y-128743825D01*
X178742822Y-128735812D01*
X178780265Y-128721603D01*
X178824763Y-128699447D01*
X178896600Y-128655570D01*
X178993660Y-128569345D01*
X179066743Y-128466834D01*
X179114607Y-128351432D01*
X179136012Y-128226529D01*
X179129719Y-128095519D01*
X179094485Y-127961795D01*
X179076151Y-127919735D01*
X179011597Y-127821354D01*
X178924252Y-127736081D01*
X178819646Y-127669792D01*
X178789384Y-127655228D01*
X178742399Y-127635829D01*
X178699009Y-127625029D01*
X178647715Y-127620456D01*
X178577019Y-127619737D01*
X178554715Y-127620019D01*
X178460337Y-127627212D01*
X178381727Y-127646966D01*
X178307308Y-127683242D01*
X178225502Y-127740001D01*
X178152751Y-127795625D01*
X177918683Y-127541701D01*
X177983762Y-127482872D01*
X178002696Y-127466955D01*
X178076151Y-127417384D01*
X178165980Y-127369509D01*
X178261592Y-127328587D01*
X178352394Y-127299875D01*
X178422722Y-127287236D01*
X178538034Y-127279569D01*
X178661564Y-127283323D01*
G37*
G36*
X172373785Y-124661083D02*
G01*
X172392745Y-124775881D01*
X172401606Y-124907450D01*
X172400386Y-125045382D01*
X172389102Y-125179269D01*
X172367770Y-125298704D01*
X172331455Y-125422294D01*
X172255422Y-125596344D01*
X172155716Y-125751457D01*
X172033645Y-125886475D01*
X171890515Y-126000239D01*
X171727634Y-126091591D01*
X171546307Y-126159375D01*
X171347842Y-126202431D01*
X171292702Y-126209291D01*
X171102675Y-126215059D01*
X170913370Y-126194605D01*
X170729488Y-126149325D01*
X170555730Y-126080616D01*
X170396798Y-125989873D01*
X170257392Y-125878495D01*
X170161590Y-125787813D01*
X170530440Y-125416647D01*
X170608370Y-125486712D01*
X170641785Y-125515037D01*
X170763082Y-125594873D01*
X170896172Y-125651965D01*
X171035295Y-125684795D01*
X171174693Y-125691841D01*
X171308609Y-125671584D01*
X171374150Y-125650253D01*
X171491509Y-125590812D01*
X171593829Y-125510654D01*
X171677213Y-125413861D01*
X171737765Y-125304513D01*
X171771590Y-125186690D01*
X171782005Y-125121082D01*
X170948594Y-125117080D01*
X170115183Y-125113077D01*
X170110243Y-124973857D01*
X170112049Y-124840043D01*
X170136667Y-124656743D01*
X170772613Y-124656743D01*
X171259885Y-124656743D01*
X171347750Y-124656796D01*
X171470379Y-124656815D01*
X171566543Y-124656135D01*
X171639030Y-124654048D01*
X171690629Y-124649850D01*
X171724128Y-124642832D01*
X171742316Y-124632289D01*
X171747981Y-124617513D01*
X171743912Y-124597799D01*
X171732898Y-124572439D01*
X171717728Y-124540726D01*
X171692820Y-124494303D01*
X171620636Y-124402882D01*
X171529528Y-124329314D01*
X171424926Y-124275995D01*
X171312259Y-124245319D01*
X171196957Y-124239679D01*
X171084448Y-124261469D01*
X171015356Y-124294013D01*
X170942663Y-124346957D01*
X170876646Y-124412480D01*
X170822716Y-124484323D01*
X170786286Y-124556228D01*
X170772764Y-124621938D01*
X170772613Y-124656743D01*
X170136667Y-124656743D01*
X170137352Y-124651643D01*
X170188042Y-124472643D01*
X170262478Y-124305935D01*
X170359020Y-124154410D01*
X170476028Y-124020959D01*
X170611861Y-123908475D01*
X170764879Y-123819848D01*
X170869305Y-123777362D01*
X171041468Y-123732914D01*
X171218052Y-123716049D01*
X171394998Y-123726114D01*
X171568249Y-123762457D01*
X171733747Y-123824424D01*
X171887434Y-123911363D01*
X172025253Y-124022621D01*
X172128454Y-124136016D01*
X172226560Y-124282134D01*
X172306190Y-124449658D01*
X172361070Y-124617513D01*
X172368839Y-124641274D01*
X172373785Y-124661083D01*
G37*
G36*
X177361280Y-125177896D02*
G01*
X177438717Y-125358972D01*
X177510010Y-125525796D01*
X177574402Y-125676596D01*
X177631138Y-125809600D01*
X177679459Y-125923034D01*
X177718609Y-126015126D01*
X177747831Y-126084105D01*
X177766369Y-126128196D01*
X177773466Y-126145629D01*
X177774683Y-126151493D01*
X177771702Y-126158860D01*
X177759573Y-126164297D01*
X177734664Y-126168096D01*
X177693344Y-126170545D01*
X177631981Y-126171935D01*
X177546944Y-126172557D01*
X177434601Y-126172699D01*
X177087075Y-126172699D01*
X176923440Y-125789843D01*
X176759806Y-125406987D01*
X175364558Y-125406987D01*
X175201917Y-125789843D01*
X175039275Y-126172699D01*
X174691564Y-126172699D01*
X174616046Y-126172648D01*
X174521629Y-126172231D01*
X174452186Y-126171150D01*
X174404087Y-126169114D01*
X174373702Y-126165834D01*
X174357398Y-126161020D01*
X174351546Y-126154381D01*
X174352516Y-126145629D01*
X174356422Y-126135883D01*
X174371813Y-126099124D01*
X174398101Y-126036979D01*
X174434530Y-125951220D01*
X174480344Y-125843620D01*
X174534785Y-125715951D01*
X174597096Y-125569987D01*
X174666521Y-125407498D01*
X174742304Y-125230259D01*
X174823686Y-125040041D01*
X174909912Y-124838617D01*
X174924765Y-124803938D01*
X175629860Y-124803938D01*
X175630198Y-124804235D01*
X175649266Y-124806152D01*
X175694778Y-124807872D01*
X175762821Y-124809328D01*
X175849479Y-124810452D01*
X175950841Y-124811176D01*
X176062991Y-124811433D01*
X176080143Y-124811423D01*
X176190940Y-124810898D01*
X176290369Y-124809644D01*
X176374515Y-124807770D01*
X176439465Y-124805382D01*
X176481305Y-124802590D01*
X176496121Y-124799500D01*
X176491407Y-124786038D01*
X176475743Y-124746970D01*
X176450439Y-124685739D01*
X176416879Y-124605643D01*
X176376445Y-124509981D01*
X176330522Y-124402053D01*
X176280492Y-124285158D01*
X176064863Y-123782748D01*
X176042076Y-123836889D01*
X176038016Y-123846465D01*
X176021200Y-123885839D01*
X175994632Y-123947854D01*
X175960000Y-124028580D01*
X175918989Y-124124088D01*
X175873285Y-124230450D01*
X175824575Y-124343737D01*
X175798142Y-124405261D01*
X175752792Y-124511161D01*
X175712421Y-124605870D01*
X175678485Y-124685944D01*
X175652442Y-124747942D01*
X175635749Y-124788421D01*
X175629860Y-124803938D01*
X174924765Y-124803938D01*
X175000225Y-124627759D01*
X175093868Y-124409240D01*
X175826559Y-122699922D01*
X176299423Y-122699922D01*
X177032113Y-124409240D01*
X177099674Y-124566884D01*
X177191001Y-124780080D01*
X177199316Y-124799500D01*
X177278456Y-124984341D01*
X177361280Y-125177896D01*
G37*
G36*
X168085160Y-127296681D02*
G01*
X168205605Y-127337168D01*
X168311146Y-127398223D01*
X168398166Y-127478705D01*
X168463050Y-127577475D01*
X168476502Y-127606308D01*
X168494790Y-127657740D01*
X168503361Y-127711343D01*
X168505160Y-127781380D01*
X168501147Y-127858313D01*
X168484273Y-127937327D01*
X168450506Y-128006259D01*
X168395853Y-128075864D01*
X168351039Y-128121148D01*
X168299153Y-128162635D01*
X168236498Y-128201290D01*
X168156774Y-128240975D01*
X168053677Y-128285552D01*
X168004880Y-128306231D01*
X167932511Y-128338578D01*
X167869516Y-128368601D01*
X167825596Y-128391782D01*
X167806496Y-128403830D01*
X167747033Y-128458646D01*
X167715687Y-128521642D01*
X167713396Y-128589839D01*
X167741097Y-128660262D01*
X167784922Y-128708385D01*
X167850423Y-128741668D01*
X167929562Y-128755560D01*
X168017178Y-128750407D01*
X168108109Y-128726557D01*
X168197193Y-128684355D01*
X168279268Y-128624147D01*
X168355263Y-128555821D01*
X168476035Y-128688493D01*
X168596808Y-128821164D01*
X168536142Y-128873061D01*
X168485255Y-128911692D01*
X168390582Y-128968939D01*
X168284089Y-129020546D01*
X168177119Y-129061213D01*
X168081017Y-129085642D01*
X168044517Y-129090816D01*
X167907167Y-129093843D01*
X167775374Y-129071950D01*
X167653404Y-129027063D01*
X167545523Y-128961105D01*
X167456000Y-128876000D01*
X167389099Y-128773670D01*
X167382852Y-128760750D01*
X167363749Y-128715225D01*
X167352753Y-128671778D01*
X167347818Y-128619425D01*
X167346896Y-128547182D01*
X167346990Y-128533244D01*
X167349139Y-128464776D01*
X167355463Y-128414894D01*
X167367978Y-128373052D01*
X167388703Y-128328709D01*
X167397426Y-128312624D01*
X167440335Y-128249596D01*
X167496115Y-128191810D01*
X167568233Y-128136884D01*
X167660157Y-128082434D01*
X167775355Y-128026077D01*
X167917294Y-127965429D01*
X167958391Y-127948021D01*
X168039330Y-127906923D01*
X168093611Y-127866399D01*
X168124087Y-127823966D01*
X168133612Y-127777140D01*
X168133582Y-127774258D01*
X168126631Y-127729174D01*
X168111182Y-127695384D01*
X168086355Y-127672953D01*
X168029443Y-127642052D01*
X167960683Y-127620140D01*
X167891689Y-127611651D01*
X167822253Y-127619133D01*
X167745732Y-127639966D01*
X167675599Y-127669893D01*
X167624126Y-127704648D01*
X167589223Y-127737439D01*
X167494803Y-127602114D01*
X167464506Y-127558011D01*
X167431354Y-127507836D01*
X167408744Y-127471228D01*
X167400384Y-127453999D01*
X167404102Y-127445891D01*
X167429472Y-127423600D01*
X167472940Y-127395795D01*
X167527508Y-127366400D01*
X167586180Y-127339337D01*
X167641959Y-127318530D01*
X167670545Y-127310027D01*
X167814014Y-127281970D01*
X167953424Y-127277902D01*
X168085160Y-127296681D01*
G37*
G36*
X174018180Y-127282468D02*
G01*
X174094764Y-127285049D01*
X174156302Y-127291672D01*
X174213619Y-127303791D01*
X174277541Y-127322858D01*
X174413416Y-127378486D01*
X174550271Y-127464296D01*
X174672987Y-127576800D01*
X174713566Y-127623875D01*
X174801954Y-127757904D01*
X174862392Y-127904968D01*
X174894688Y-128064506D01*
X174898649Y-128235955D01*
X174896660Y-128264292D01*
X174868857Y-128432991D01*
X174814771Y-128585529D01*
X174734581Y-128721591D01*
X174628466Y-128840862D01*
X174496604Y-128943027D01*
X174449313Y-128971696D01*
X174304147Y-129039260D01*
X174154948Y-129080456D01*
X174116437Y-129085577D01*
X174032283Y-129089821D01*
X173935893Y-129088539D01*
X173838013Y-129082266D01*
X173749391Y-129071535D01*
X173680774Y-129056882D01*
X173638316Y-129042864D01*
X173515077Y-128988491D01*
X173398484Y-128918340D01*
X173300654Y-128839345D01*
X173290998Y-128829954D01*
X173252782Y-128790190D01*
X173227165Y-128759219D01*
X173219259Y-128743088D01*
X173227167Y-128733403D01*
X173254410Y-128706240D01*
X173296070Y-128667241D01*
X173347057Y-128621259D01*
X173469674Y-128512501D01*
X173543552Y-128586379D01*
X173580983Y-128619913D01*
X173645321Y-128667665D01*
X173707111Y-128704268D01*
X173748037Y-128723200D01*
X173786769Y-128736550D01*
X173828721Y-128744033D01*
X173883125Y-128747242D01*
X173959215Y-128747769D01*
X173980420Y-128747646D01*
X174055413Y-128745562D01*
X174110409Y-128739993D01*
X174154243Y-128729650D01*
X174195747Y-128713243D01*
X174263379Y-128674313D01*
X174349503Y-128603194D01*
X174424521Y-128517663D01*
X174479371Y-128426870D01*
X174489296Y-128404863D01*
X174507394Y-128357759D01*
X174517854Y-128312456D01*
X174522669Y-128258056D01*
X174523831Y-128183662D01*
X174523674Y-128150516D01*
X174521276Y-128085507D01*
X174514422Y-128036093D01*
X174501117Y-127991374D01*
X174479371Y-127940453D01*
X174439045Y-127870100D01*
X174368008Y-127782791D01*
X174283901Y-127707811D01*
X174195747Y-127654263D01*
X174170745Y-127643789D01*
X174121325Y-127629609D01*
X174062030Y-127622155D01*
X173982418Y-127619737D01*
X173944609Y-127619763D01*
X173884773Y-127622115D01*
X173838794Y-127629491D01*
X173795233Y-127644225D01*
X173742650Y-127668650D01*
X173687934Y-127697624D01*
X173633413Y-127730181D01*
X173594815Y-127757274D01*
X173547529Y-127796295D01*
X173311057Y-127537915D01*
X173345093Y-127507112D01*
X173362303Y-127492181D01*
X173454796Y-127426170D01*
X173562619Y-127367273D01*
X173673039Y-127322651D01*
X173703754Y-127312949D01*
X173762828Y-127297351D01*
X173820501Y-127287994D01*
X173887533Y-127283438D01*
X173974684Y-127282239D01*
X174018180Y-127282468D01*
G37*
G36*
X170107449Y-127626780D02*
G01*
X169658849Y-127626780D01*
X169658849Y-129065391D01*
X169287904Y-129065391D01*
X169283882Y-128349953D01*
X169279860Y-127634514D01*
X169051694Y-127630234D01*
X168823527Y-127625953D01*
X168823527Y-127301932D01*
X170107449Y-127301932D01*
X170107449Y-127626780D01*
G37*
G36*
X184346497Y-125188179D02*
G01*
X184326503Y-125292415D01*
X184297158Y-125387858D01*
X184219664Y-125567092D01*
X184118965Y-125728446D01*
X183997032Y-125870104D01*
X183855840Y-125990250D01*
X183697361Y-126087069D01*
X183523569Y-126158745D01*
X183336436Y-126203463D01*
X183182359Y-126215605D01*
X183023265Y-126205499D01*
X182867580Y-126174538D01*
X182722936Y-126124243D01*
X182596961Y-126056133D01*
X182582846Y-126046703D01*
X182536551Y-126016326D01*
X182502867Y-125995073D01*
X182488287Y-125987072D01*
X182485701Y-125997294D01*
X182483462Y-126030926D01*
X182482601Y-126079886D01*
X182482601Y-126172699D01*
X181863843Y-126172699D01*
X181863843Y-125338850D01*
X182513539Y-125338850D01*
X182590933Y-125416244D01*
X182602011Y-125426952D01*
X182686959Y-125493264D01*
X182788162Y-125550583D01*
X182838153Y-125573577D01*
X182886752Y-125592149D01*
X182932970Y-125602989D01*
X182987913Y-125608554D01*
X183062686Y-125611299D01*
X183087065Y-125611700D01*
X183200135Y-125606475D01*
X183294817Y-125587091D01*
X183379903Y-125551017D01*
X183464189Y-125495722D01*
X183562327Y-125404600D01*
X183639589Y-125292819D01*
X183690784Y-125164554D01*
X183715668Y-125020263D01*
X183714923Y-124899737D01*
X183688931Y-124763556D01*
X183637618Y-124638392D01*
X183563033Y-124527930D01*
X183467223Y-124435858D01*
X183352235Y-124365861D01*
X183331135Y-124356458D01*
X183273507Y-124336540D01*
X183210145Y-124324929D01*
X183128524Y-124319001D01*
X183106422Y-124318351D01*
X182955109Y-124329893D01*
X182816101Y-124369761D01*
X182689705Y-124437837D01*
X182576230Y-124533999D01*
X182513539Y-124598598D01*
X182513539Y-125338850D01*
X181863843Y-125338850D01*
X181863843Y-123759545D01*
X182482601Y-123759545D01*
X182482601Y-123852358D01*
X182483567Y-123894579D01*
X182486743Y-123931115D01*
X182491368Y-123945172D01*
X182494364Y-123944307D01*
X182516487Y-123931192D01*
X182549772Y-123907311D01*
X182564920Y-123896421D01*
X182633653Y-123855788D01*
X182719330Y-123814523D01*
X182811637Y-123777292D01*
X182900262Y-123748759D01*
X182918093Y-123744266D01*
X183022751Y-123727505D01*
X183143694Y-123720580D01*
X183270080Y-123723334D01*
X183391068Y-123735613D01*
X183495817Y-123757263D01*
X183624922Y-123802308D01*
X183787957Y-123886538D01*
X183935245Y-123995416D01*
X184064709Y-124126747D01*
X184174274Y-124278340D01*
X184261864Y-124448002D01*
X184325404Y-124633540D01*
X184337088Y-124686016D01*
X184352813Y-124803254D01*
X184359635Y-124933055D01*
X184358246Y-125020263D01*
X184357535Y-125064878D01*
X184346497Y-125188179D01*
G37*
G36*
X179830506Y-124479769D02*
G01*
X180154199Y-125199994D01*
X180286201Y-124932236D01*
X180292592Y-124919267D01*
X180336152Y-124830667D01*
X180389549Y-124721793D01*
X180449640Y-124599068D01*
X180513282Y-124468915D01*
X180577332Y-124337755D01*
X180638647Y-124212011D01*
X180859090Y-123759545D01*
X181567672Y-123759545D01*
X181035125Y-124835915D01*
X181015899Y-124874783D01*
X180932492Y-125043636D01*
X180853423Y-125204074D01*
X180779738Y-125353955D01*
X180712483Y-125491133D01*
X180652704Y-125613465D01*
X180601448Y-125718805D01*
X180559761Y-125805010D01*
X180528689Y-125869935D01*
X180509279Y-125911437D01*
X180502577Y-125927370D01*
X180507820Y-125941444D01*
X180524932Y-125981143D01*
X180552681Y-126043461D01*
X180589779Y-126125564D01*
X180634938Y-126224617D01*
X180686869Y-126337784D01*
X180744286Y-126462231D01*
X180805901Y-126595123D01*
X180859665Y-126710864D01*
X180919288Y-126839350D01*
X180974300Y-126958040D01*
X181023295Y-127063891D01*
X181064864Y-127153861D01*
X181097602Y-127224909D01*
X181120102Y-127273991D01*
X181130956Y-127298065D01*
X181152687Y-127348339D01*
X180477202Y-127348339D01*
X179663197Y-125581012D01*
X179662201Y-125578851D01*
X179560483Y-125357969D01*
X179462281Y-125144649D01*
X179368381Y-124940601D01*
X179279567Y-124747537D01*
X179196628Y-124567168D01*
X179120349Y-124401207D01*
X179051515Y-124251363D01*
X178990914Y-124119348D01*
X178939331Y-124006875D01*
X178897553Y-123915653D01*
X178866365Y-123847395D01*
X178846554Y-123803812D01*
X178838906Y-123786615D01*
X178837397Y-123781377D01*
X178839294Y-123773779D01*
X178850196Y-123768176D01*
X178873758Y-123764266D01*
X178913635Y-123761749D01*
X178973484Y-123760324D01*
X179056960Y-123759689D01*
X179167717Y-123759545D01*
X179506813Y-123759545D01*
X179830506Y-124479769D01*
G37*
G36*
X169821246Y-125187746D02*
G01*
X169801168Y-125292415D01*
X169771823Y-125387858D01*
X169694329Y-125567092D01*
X169593630Y-125728446D01*
X169471697Y-125870104D01*
X169330505Y-125990250D01*
X169172026Y-126087069D01*
X168998234Y-126158745D01*
X168811101Y-126203463D01*
X168657024Y-126215605D01*
X168497930Y-126205499D01*
X168342245Y-126174538D01*
X168197601Y-126124243D01*
X168071626Y-126056133D01*
X168057511Y-126046703D01*
X168011216Y-126016326D01*
X167977532Y-125995073D01*
X167962952Y-125987072D01*
X167960366Y-125997294D01*
X167958127Y-126030926D01*
X167957266Y-126079886D01*
X167957266Y-126172699D01*
X167338508Y-126172699D01*
X167338508Y-125338850D01*
X167988204Y-125338850D01*
X168065598Y-125416244D01*
X168076676Y-125426952D01*
X168161624Y-125493264D01*
X168262827Y-125550583D01*
X168312818Y-125573577D01*
X168361417Y-125592149D01*
X168407635Y-125602989D01*
X168462578Y-125608554D01*
X168537351Y-125611299D01*
X168561730Y-125611700D01*
X168674800Y-125606475D01*
X168769482Y-125587091D01*
X168854568Y-125551017D01*
X168938854Y-125495722D01*
X169036992Y-125404600D01*
X169114255Y-125292819D01*
X169165449Y-125164554D01*
X169190333Y-125020263D01*
X169189588Y-124899737D01*
X169163596Y-124763556D01*
X169112283Y-124638392D01*
X169037698Y-124527930D01*
X168941888Y-124435858D01*
X168826900Y-124365861D01*
X168805800Y-124356458D01*
X168748172Y-124336540D01*
X168684810Y-124324929D01*
X168603189Y-124319001D01*
X168581087Y-124318351D01*
X168429774Y-124329893D01*
X168290766Y-124369761D01*
X168164370Y-124437837D01*
X168050895Y-124533999D01*
X167988204Y-124598598D01*
X167988204Y-125338850D01*
X167338508Y-125338850D01*
X167338508Y-123759545D01*
X167957266Y-123759545D01*
X167957266Y-123852358D01*
X167958232Y-123894579D01*
X167961408Y-123931115D01*
X167966033Y-123945172D01*
X167969029Y-123944307D01*
X167991152Y-123931192D01*
X168024437Y-123907311D01*
X168039706Y-123896340D01*
X168108372Y-123855766D01*
X168193985Y-123814521D01*
X168286264Y-123777259D01*
X168374927Y-123748635D01*
X168407218Y-123740929D01*
X168514605Y-123725825D01*
X168636830Y-123720577D01*
X168763254Y-123724958D01*
X168883239Y-123738741D01*
X168986146Y-123761697D01*
X169088974Y-123798016D01*
X169255284Y-123881679D01*
X169404629Y-123989974D01*
X169535382Y-124121155D01*
X169645916Y-124273479D01*
X169734605Y-124445200D01*
X169799824Y-124634575D01*
X169811434Y-124685837D01*
X169827362Y-124802540D01*
X169834321Y-124932179D01*
X169832964Y-125020263D01*
X169832289Y-125064124D01*
X169821246Y-125187746D01*
G37*
G36*
X176186742Y-129065391D02*
G01*
X176186742Y-128307413D01*
X176135465Y-128307413D01*
X176133652Y-128307424D01*
X176118458Y-128308922D01*
X176102772Y-128314711D01*
X176084265Y-128327293D01*
X176060608Y-128349172D01*
X176029472Y-128382852D01*
X175988527Y-128430836D01*
X175935444Y-128495627D01*
X175867894Y-128579728D01*
X175783547Y-128685644D01*
X175482905Y-129063876D01*
X175246820Y-129064633D01*
X175010734Y-129065391D01*
X175253989Y-128767614D01*
X175295611Y-128716669D01*
X175367712Y-128628442D01*
X175435978Y-128544938D01*
X175496476Y-128470967D01*
X175545271Y-128411338D01*
X175578431Y-128370861D01*
X175659619Y-128271886D01*
X175594465Y-128230486D01*
X175532680Y-128183859D01*
X175451790Y-128097039D01*
X175391958Y-127998820D01*
X175372965Y-127946251D01*
X175362559Y-127884361D01*
X175359523Y-127806654D01*
X175726173Y-127806654D01*
X175743328Y-127872647D01*
X175786263Y-127927492D01*
X175797538Y-127936697D01*
X175819112Y-127950846D01*
X175844394Y-127959758D01*
X175880192Y-127964636D01*
X175933311Y-127966682D01*
X176010560Y-127967096D01*
X176187789Y-127967096D01*
X176183398Y-127800805D01*
X176179008Y-127634514D01*
X176006128Y-127635852D01*
X175962423Y-127636502D01*
X175882370Y-127640838D01*
X175825373Y-127650743D01*
X175786035Y-127668190D01*
X175758959Y-127695154D01*
X175738746Y-127733606D01*
X175736925Y-127738190D01*
X175726173Y-127806654D01*
X175359523Y-127806654D01*
X175359385Y-127803113D01*
X175359393Y-127788814D01*
X175361394Y-127725238D01*
X175368972Y-127676752D01*
X175385236Y-127630010D01*
X175413295Y-127571661D01*
X175435199Y-127531524D01*
X175484343Y-127462452D01*
X175543197Y-127408328D01*
X175560791Y-127395362D01*
X175603227Y-127367680D01*
X175647088Y-127345987D01*
X175696589Y-127329575D01*
X175755942Y-127317735D01*
X175829362Y-127309759D01*
X175921062Y-127304938D01*
X176035255Y-127302566D01*
X176176155Y-127301932D01*
X176557997Y-127301932D01*
X176557997Y-129065391D01*
X176186742Y-129065391D01*
G37*
G36*
X188577016Y-72451295D02*
G01*
X188580281Y-72960670D01*
X188455000Y-72960670D01*
X188455000Y-72510670D01*
X187905000Y-72510670D01*
X187905000Y-72410670D01*
X188455000Y-72410670D01*
X188455000Y-72048606D01*
X187836250Y-72041920D01*
X187836250Y-71941920D01*
X188573750Y-71941920D01*
X188577016Y-72451295D01*
G37*
G36*
X194278347Y-74028635D02*
G01*
X194344248Y-74042392D01*
X194402384Y-74067218D01*
X194459068Y-74104698D01*
X194484783Y-74126385D01*
X194531811Y-74184916D01*
X194558847Y-74254993D01*
X194567500Y-74340114D01*
X194567371Y-74352033D01*
X194560074Y-74420591D01*
X194540116Y-74478670D01*
X194505440Y-74528033D01*
X194453989Y-74570440D01*
X194383709Y-74607655D01*
X194292541Y-74641441D01*
X194178430Y-74673558D01*
X194098323Y-74695057D01*
X194023927Y-74719508D01*
X193969250Y-74744898D01*
X193931530Y-74773408D01*
X193908006Y-74807222D01*
X193895917Y-74848520D01*
X193892500Y-74899484D01*
X193892968Y-74924421D01*
X193898062Y-74956073D01*
X193912776Y-74981456D01*
X193941982Y-75011611D01*
X193974323Y-75036973D01*
X194042946Y-75068068D01*
X194122729Y-75081956D01*
X194209525Y-75078949D01*
X194299185Y-75059362D01*
X194387561Y-75023507D01*
X194470506Y-74971698D01*
X194536250Y-74921934D01*
X194577889Y-74969427D01*
X194619527Y-75016920D01*
X194575346Y-75055241D01*
X194516877Y-75098624D01*
X194430425Y-75145735D01*
X194341193Y-75178388D01*
X194338554Y-75179084D01*
X194273722Y-75190555D01*
X194196342Y-75196246D01*
X194115632Y-75196151D01*
X194040806Y-75190265D01*
X193981082Y-75178583D01*
X193934569Y-75159330D01*
X193871092Y-75117083D01*
X193816335Y-75063128D01*
X193778388Y-75004420D01*
X193773042Y-74991030D01*
X193760151Y-74934809D01*
X193755548Y-74870004D01*
X193759497Y-74807240D01*
X193772260Y-74757143D01*
X193802706Y-74706888D01*
X193854868Y-74657655D01*
X193927790Y-74614220D01*
X194022805Y-74575804D01*
X194141247Y-74541630D01*
X194182866Y-74530980D01*
X194268958Y-74505403D01*
X194333704Y-74479292D01*
X194379642Y-74450811D01*
X194409312Y-74418125D01*
X194425251Y-74379395D01*
X194430000Y-74332787D01*
X194421382Y-74268243D01*
X194393069Y-74213530D01*
X194345295Y-74174243D01*
X194278344Y-74150610D01*
X194192500Y-74142858D01*
X194103703Y-74149558D01*
X194007030Y-74175835D01*
X193917500Y-74223467D01*
X193861250Y-74261188D01*
X193821315Y-74214276D01*
X193805465Y-74195240D01*
X193791427Y-74174080D01*
X193790986Y-74159604D01*
X193802118Y-74144449D01*
X193805510Y-74141174D01*
X193830947Y-74123189D01*
X193870417Y-74100175D01*
X193916926Y-74076287D01*
X193959671Y-74056568D01*
X193997505Y-74042479D01*
X194035242Y-74033863D01*
X194081248Y-74028848D01*
X194143888Y-74025566D01*
X194198368Y-74024360D01*
X194278347Y-74028635D01*
G37*
G36*
X187880000Y-75185670D02*
G01*
X187030000Y-75185670D01*
X187030000Y-75073170D01*
X187742500Y-75073170D01*
X187742500Y-74660670D01*
X187117500Y-74660670D01*
X187117500Y-74548170D01*
X187742500Y-74548170D01*
X187742500Y-74148170D01*
X187042500Y-74148170D01*
X187042500Y-74035670D01*
X187880000Y-74035670D01*
X187880000Y-75185670D01*
G37*
G36*
X191375700Y-74928186D02*
G01*
X191413117Y-75010269D01*
X191444202Y-75078385D01*
X191467953Y-75130337D01*
X191483369Y-75163926D01*
X191489445Y-75176952D01*
X191484302Y-75181009D01*
X191460369Y-75183665D01*
X191422897Y-75183202D01*
X191351004Y-75179420D01*
X191221380Y-74891920D01*
X190589173Y-74891920D01*
X190525212Y-75038566D01*
X190461250Y-75185213D01*
X190389375Y-75185441D01*
X190358188Y-75185011D01*
X190328835Y-75183175D01*
X190317500Y-75180356D01*
X190317792Y-75179465D01*
X190325141Y-75162303D01*
X190341656Y-75125086D01*
X190366357Y-75069984D01*
X190398264Y-74999171D01*
X190436397Y-74914817D01*
X190479776Y-74819094D01*
X190512239Y-74747608D01*
X190659582Y-74747608D01*
X190665960Y-74752751D01*
X190681957Y-74756339D01*
X190710650Y-74758649D01*
X190755115Y-74759956D01*
X190818427Y-74760537D01*
X190903663Y-74760670D01*
X190920260Y-74760649D01*
X190994814Y-74760035D01*
X191059298Y-74758664D01*
X191109978Y-74756676D01*
X191143123Y-74754207D01*
X191155000Y-74751395D01*
X191151271Y-74740085D01*
X191138771Y-74709530D01*
X191119132Y-74663837D01*
X191094076Y-74606810D01*
X191065322Y-74542249D01*
X191034591Y-74473958D01*
X191003602Y-74405738D01*
X190974076Y-74341392D01*
X190947732Y-74284722D01*
X190926292Y-74239531D01*
X190911474Y-74209620D01*
X190905000Y-74198792D01*
X190904546Y-74199200D01*
X190896622Y-74213909D01*
X190880655Y-74246939D01*
X190858374Y-74294475D01*
X190831509Y-74352697D01*
X190801789Y-74417788D01*
X190770943Y-74485931D01*
X190740702Y-74553307D01*
X190712794Y-74616099D01*
X190688950Y-74670489D01*
X190670898Y-74712661D01*
X190660368Y-74738795D01*
X190659748Y-74740633D01*
X190659582Y-74747608D01*
X190512239Y-74747608D01*
X190527421Y-74714175D01*
X190578353Y-74602231D01*
X190839205Y-74029420D01*
X190963537Y-74022000D01*
X191223819Y-74594460D01*
X191235491Y-74620131D01*
X191285885Y-74730919D01*
X191295205Y-74751395D01*
X191332956Y-74834337D01*
X191375700Y-74928186D01*
G37*
G36*
X172942500Y-75185670D02*
G01*
X172092500Y-75185670D01*
X172092500Y-75073170D01*
X172805000Y-75073170D01*
X172805000Y-74660670D01*
X172180000Y-74660670D01*
X172180000Y-74548170D01*
X172805000Y-74548170D01*
X172805000Y-74148170D01*
X172105000Y-74148170D01*
X172105000Y-74035670D01*
X172942500Y-74035670D01*
X172942500Y-75185670D01*
G37*
G36*
X184017781Y-72960670D02*
G01*
X183787504Y-72960670D01*
X183719947Y-72960439D01*
X183647854Y-72959223D01*
X183592623Y-72956641D01*
X183549600Y-72952336D01*
X183514131Y-72945948D01*
X183481562Y-72937120D01*
X183385267Y-72898191D01*
X183291280Y-72836955D01*
X183214992Y-72758341D01*
X183157006Y-72662859D01*
X183155152Y-72658885D01*
X183141034Y-72625754D01*
X183131890Y-72594910D01*
X183126665Y-72559533D01*
X183124303Y-72512805D01*
X183124269Y-72508784D01*
X183243318Y-72508784D01*
X183246812Y-72545373D01*
X183255466Y-72577404D01*
X183270449Y-72613219D01*
X183315996Y-72692854D01*
X183376507Y-72758163D01*
X183452730Y-72807043D01*
X183455796Y-72808545D01*
X183484867Y-72821863D01*
X183511929Y-72831260D01*
X183542385Y-72837564D01*
X183581635Y-72841601D01*
X183635081Y-72844201D01*
X183708125Y-72846191D01*
X183892500Y-72850462D01*
X183892500Y-72045389D01*
X183714375Y-72050306D01*
X183664103Y-72051855D01*
X183604446Y-72054686D01*
X183560477Y-72058827D01*
X183526567Y-72065124D01*
X183497090Y-72074423D01*
X183466419Y-72087569D01*
X183402709Y-72124251D01*
X183330917Y-72187758D01*
X183277771Y-72264126D01*
X183273288Y-72273233D01*
X183259105Y-72313124D01*
X183250147Y-72363435D01*
X183244996Y-72431399D01*
X183243817Y-72459298D01*
X183243318Y-72508784D01*
X183124269Y-72508784D01*
X183123750Y-72447907D01*
X183123831Y-72411966D01*
X183124921Y-72358984D01*
X183128298Y-72320343D01*
X183135223Y-72289056D01*
X183146956Y-72258136D01*
X183164758Y-72220596D01*
X183181846Y-72188966D01*
X183246462Y-72103242D01*
X183328790Y-72033360D01*
X183426248Y-71981211D01*
X183536250Y-71948687D01*
X183541953Y-71947685D01*
X183588335Y-71942665D01*
X183652670Y-71939246D01*
X183728971Y-71937657D01*
X183811250Y-71938129D01*
X184011250Y-71941920D01*
X184011913Y-72045389D01*
X184014516Y-72451295D01*
X184017781Y-72960670D01*
G37*
G36*
X175301148Y-71938607D02*
G01*
X175673750Y-71941920D01*
X175677016Y-72451295D01*
X175680281Y-72960670D01*
X174930000Y-72960670D01*
X174930000Y-72860670D01*
X175555000Y-72860670D01*
X175555000Y-72498170D01*
X174992500Y-72498170D01*
X174992500Y-72398170D01*
X175555000Y-72398170D01*
X175555000Y-72048606D01*
X174936250Y-72041920D01*
X174932398Y-71988607D01*
X174928545Y-71935295D01*
X175301148Y-71938607D01*
G37*
G36*
X185505281Y-72960670D02*
G01*
X185380000Y-72960670D01*
X185380000Y-72560670D01*
X185098028Y-72560670D01*
X184948750Y-72760670D01*
X184799473Y-72960670D01*
X184727237Y-72960670D01*
X184695716Y-72960253D01*
X184666339Y-72958754D01*
X184655000Y-72956538D01*
X184655220Y-72956022D01*
X184664714Y-72942119D01*
X184686600Y-72911855D01*
X184718614Y-72868309D01*
X184758495Y-72814563D01*
X184803981Y-72753695D01*
X184812058Y-72742901D01*
X184856431Y-72682781D01*
X184894397Y-72629986D01*
X184923771Y-72587654D01*
X184942365Y-72558926D01*
X184947991Y-72546941D01*
X184934997Y-72539512D01*
X184907945Y-72531883D01*
X184903105Y-72530804D01*
X184853259Y-72510117D01*
X184800704Y-72474836D01*
X184753907Y-72431546D01*
X184721338Y-72386828D01*
X184716594Y-72377054D01*
X184697726Y-72313745D01*
X184691916Y-72248170D01*
X184811667Y-72248170D01*
X184812599Y-72271710D01*
X184828001Y-72335060D01*
X184863747Y-72385541D01*
X184921678Y-72426130D01*
X184943790Y-72436496D01*
X184968149Y-72444215D01*
X184999013Y-72449678D01*
X185041007Y-72453471D01*
X185098753Y-72456177D01*
X185176875Y-72458382D01*
X185380000Y-72463239D01*
X185380000Y-72046062D01*
X185170625Y-72050269D01*
X185120224Y-72051420D01*
X185051318Y-72053840D01*
X185000572Y-72057231D01*
X184963669Y-72062055D01*
X184936294Y-72068778D01*
X184914129Y-72077864D01*
X184898606Y-72086206D01*
X184849330Y-72126754D01*
X184820839Y-72179930D01*
X184811667Y-72248170D01*
X184691916Y-72248170D01*
X184691354Y-72241826D01*
X184697645Y-72171286D01*
X184716764Y-72112113D01*
X184752617Y-72059484D01*
X184813496Y-72005029D01*
X184888061Y-71965330D01*
X184907392Y-71958617D01*
X184932619Y-71952406D01*
X184963757Y-71947921D01*
X185004621Y-71944896D01*
X185059030Y-71943065D01*
X185130800Y-71942161D01*
X185223750Y-71941920D01*
X185498750Y-71941920D01*
X185499418Y-72046062D01*
X185502016Y-72451295D01*
X185505281Y-72960670D01*
G37*
G36*
X173498750Y-71941920D02*
G01*
X173511250Y-72737468D01*
X173823750Y-72336679D01*
X174136250Y-71935891D01*
X174192500Y-71938905D01*
X174248750Y-71941920D01*
X174252016Y-72451295D01*
X174255281Y-72960670D01*
X174130338Y-72960670D01*
X174127044Y-72549858D01*
X174123750Y-72139047D01*
X173801011Y-72549858D01*
X173478271Y-72960670D01*
X173380000Y-72960670D01*
X173380000Y-71934300D01*
X173498750Y-71941920D01*
G37*
G36*
X182505000Y-75185670D02*
G01*
X182367500Y-75185670D01*
X182367500Y-74035670D01*
X182505000Y-74035670D01*
X182505000Y-75185670D01*
G37*
G36*
X187226636Y-72504711D02*
G01*
X187205954Y-72615253D01*
X187164258Y-72715919D01*
X187103681Y-72804132D01*
X187026357Y-72877315D01*
X186934419Y-72932893D01*
X186830000Y-72968288D01*
X186800563Y-72974442D01*
X186738519Y-72983066D01*
X186681597Y-72982514D01*
X186616996Y-72973074D01*
X186612717Y-72972245D01*
X186503599Y-72938520D01*
X186406845Y-72883899D01*
X186324559Y-72810250D01*
X186258844Y-72719440D01*
X186211802Y-72613336D01*
X186198332Y-72549424D01*
X186193298Y-72469154D01*
X186193636Y-72461212D01*
X186317506Y-72461212D01*
X186324211Y-72542212D01*
X186341867Y-72612508D01*
X186352002Y-72636786D01*
X186399113Y-72714644D01*
X186461550Y-72780745D01*
X186533570Y-72828615D01*
X186582756Y-72848840D01*
X186675727Y-72868079D01*
X186768022Y-72864478D01*
X186856333Y-72839184D01*
X186937347Y-72793345D01*
X187007753Y-72728110D01*
X187064242Y-72644627D01*
X187076207Y-72620688D01*
X187087997Y-72590212D01*
X187094753Y-72557367D01*
X187097839Y-72514616D01*
X187098616Y-72454420D01*
X187098475Y-72421643D01*
X187096578Y-72369339D01*
X187091419Y-72330185D01*
X187081670Y-72296247D01*
X187066003Y-72259588D01*
X187023142Y-72187579D01*
X186956308Y-72116969D01*
X186875028Y-72065610D01*
X186868147Y-72062533D01*
X186791983Y-72040751D01*
X186706564Y-72034078D01*
X186621553Y-72042501D01*
X186546614Y-72066008D01*
X186539141Y-72069612D01*
X186465839Y-72118010D01*
X186401208Y-72183338D01*
X186352651Y-72258259D01*
X186335845Y-72303219D01*
X186321475Y-72378538D01*
X186317506Y-72461212D01*
X186193636Y-72461212D01*
X186196942Y-72383493D01*
X186208867Y-72301469D01*
X186228672Y-72232112D01*
X186266526Y-72160340D01*
X186325828Y-72085583D01*
X186398262Y-72020097D01*
X186477754Y-71970266D01*
X186504332Y-71957433D01*
X186535720Y-71944231D01*
X186565404Y-71935997D01*
X186600059Y-71931563D01*
X186646362Y-71929761D01*
X186710988Y-71929420D01*
X186749384Y-71929511D01*
X186803287Y-71930564D01*
X186841983Y-71933644D01*
X186871790Y-71939789D01*
X186899023Y-71950037D01*
X186930000Y-71965428D01*
X186987776Y-71999173D01*
X187079115Y-72072061D01*
X187148945Y-72157664D01*
X187197103Y-72255700D01*
X187223431Y-72365887D01*
X187226576Y-72454420D01*
X187227767Y-72487944D01*
X187226636Y-72504711D01*
G37*
G36*
X181240003Y-71929487D02*
G01*
X181316417Y-71932773D01*
X181375353Y-71942629D01*
X181422911Y-71961299D01*
X181465195Y-71991027D01*
X181508306Y-72034056D01*
X181516459Y-72043403D01*
X181557907Y-72109011D01*
X181575332Y-72179979D01*
X181569476Y-72259034D01*
X181566030Y-72274318D01*
X181546716Y-72329035D01*
X181516548Y-72374464D01*
X181472700Y-72412650D01*
X181412347Y-72445640D01*
X181332663Y-72475478D01*
X181230822Y-72504211D01*
X181227335Y-72505098D01*
X181137077Y-72530643D01*
X181069069Y-72556422D01*
X181020711Y-72584374D01*
X180989404Y-72616441D01*
X180972550Y-72654561D01*
X180967547Y-72700674D01*
X180975098Y-72749497D01*
X181003613Y-72798783D01*
X181051618Y-72835496D01*
X181117276Y-72858321D01*
X181198750Y-72865947D01*
X181215351Y-72865740D01*
X181280338Y-72861222D01*
X181337532Y-72849014D01*
X181393366Y-72826682D01*
X181454269Y-72791795D01*
X181526673Y-72741920D01*
X181535857Y-72738276D01*
X181554883Y-72745609D01*
X181582247Y-72771959D01*
X181620569Y-72814498D01*
X181590910Y-72837957D01*
X181532817Y-72878327D01*
X181458142Y-72919976D01*
X181386414Y-72950685D01*
X181372187Y-72955134D01*
X181299868Y-72968155D01*
X181205000Y-72972639D01*
X181202003Y-72972645D01*
X181140775Y-72971557D01*
X181096051Y-72967240D01*
X181059740Y-72958403D01*
X181023750Y-72943759D01*
X180972851Y-72914424D01*
X180913706Y-72860995D01*
X180871837Y-72797665D01*
X180848398Y-72728355D01*
X180844542Y-72656984D01*
X180861421Y-72587472D01*
X180900190Y-72523739D01*
X180908757Y-72514535D01*
X180955487Y-72479447D01*
X181021890Y-72445187D01*
X181103798Y-72413677D01*
X181197042Y-72386839D01*
X181221616Y-72380612D01*
X181310341Y-72353054D01*
X181376283Y-72322449D01*
X181421195Y-72287523D01*
X181446833Y-72247001D01*
X181454954Y-72199609D01*
X181449074Y-72152621D01*
X181423191Y-72101888D01*
X181377058Y-72065292D01*
X181311080Y-72043123D01*
X181225659Y-72035670D01*
X181204036Y-72035809D01*
X181160248Y-72038226D01*
X181123953Y-72045623D01*
X181085454Y-72060536D01*
X181035052Y-72085499D01*
X181016331Y-72095174D01*
X180974101Y-72115720D01*
X180946291Y-72123982D01*
X180927034Y-72119244D01*
X180910462Y-72100791D01*
X180890707Y-72067909D01*
X180889972Y-72066610D01*
X180884945Y-72050641D01*
X180890921Y-72035475D01*
X180910913Y-72018495D01*
X180947935Y-71997085D01*
X181005000Y-71968625D01*
X181014899Y-71963880D01*
X181050780Y-71947962D01*
X181082256Y-71937874D01*
X181116677Y-71932299D01*
X181161392Y-71929920D01*
X181223750Y-71929420D01*
X181240003Y-71929487D01*
G37*
G36*
X185280000Y-75185670D02*
G01*
X185142500Y-75185670D01*
X185142500Y-74035670D01*
X185280000Y-74035670D01*
X185280000Y-75185670D01*
G37*
G36*
X191735032Y-72705732D02*
G01*
X191770961Y-72786384D01*
X191800721Y-72853688D01*
X191823266Y-72905290D01*
X191837555Y-72938838D01*
X191842544Y-72951979D01*
X191839200Y-72955087D01*
X191817894Y-72958550D01*
X191783433Y-72958229D01*
X191724365Y-72954420D01*
X191667808Y-72826479D01*
X191611250Y-72698539D01*
X191330952Y-72701479D01*
X191050654Y-72704420D01*
X190993509Y-72832545D01*
X190936363Y-72960670D01*
X190805632Y-72960670D01*
X190846887Y-72870045D01*
X190859782Y-72841669D01*
X190882575Y-72791440D01*
X190912856Y-72724662D01*
X190949141Y-72644609D01*
X190980674Y-72575019D01*
X191107084Y-72575019D01*
X191116760Y-72578280D01*
X191147679Y-72581238D01*
X191196079Y-72583578D01*
X191258130Y-72585116D01*
X191330000Y-72585670D01*
X191393810Y-72585258D01*
X191459625Y-72583764D01*
X191510264Y-72581335D01*
X191542452Y-72578137D01*
X191552917Y-72574337D01*
X191547015Y-72559514D01*
X191531693Y-72523631D01*
X191510075Y-72474501D01*
X191483990Y-72416134D01*
X191455269Y-72352538D01*
X191425739Y-72287725D01*
X191397230Y-72225703D01*
X191371572Y-72170481D01*
X191350594Y-72126070D01*
X191336125Y-72096479D01*
X191329994Y-72085718D01*
X191328312Y-72088109D01*
X191318110Y-72108109D01*
X191300416Y-72145116D01*
X191277046Y-72195145D01*
X191249815Y-72254207D01*
X191220541Y-72318316D01*
X191191039Y-72383485D01*
X191163126Y-72445726D01*
X191138618Y-72501054D01*
X191119332Y-72545480D01*
X191107084Y-72575019D01*
X190980674Y-72575019D01*
X190989947Y-72554555D01*
X191033790Y-72457776D01*
X191079184Y-72357545D01*
X191270226Y-71935670D01*
X191387326Y-71935670D01*
X191614957Y-72438795D01*
X191648838Y-72513794D01*
X191676087Y-72574337D01*
X191693977Y-72614084D01*
X191735032Y-72705732D01*
G37*
G36*
X177286250Y-74154420D02*
G01*
X177095625Y-74157870D01*
X176905000Y-74161321D01*
X176905000Y-75185670D01*
X176767500Y-75185670D01*
X176767500Y-74160670D01*
X176380000Y-74160670D01*
X176380000Y-74035670D01*
X177293870Y-74035670D01*
X177286250Y-74154420D01*
G37*
G36*
X172730000Y-72048170D02*
G01*
X172392500Y-72048170D01*
X172392500Y-72960670D01*
X172267500Y-72960670D01*
X172267500Y-72048170D01*
X171930000Y-72048170D01*
X171930000Y-71935670D01*
X172730000Y-71935670D01*
X172730000Y-72048170D01*
G37*
G36*
X180255000Y-72048170D02*
G01*
X179917500Y-72048170D01*
X179917500Y-72960670D01*
X179792500Y-72960670D01*
X179792500Y-72048170D01*
X179455000Y-72048170D01*
X179455000Y-71935670D01*
X180255000Y-71935670D01*
X180255000Y-72048170D01*
G37*
G36*
X189423750Y-71941920D02*
G01*
X189436250Y-72737468D01*
X189748750Y-72336679D01*
X190061250Y-71935891D01*
X190117500Y-71938905D01*
X190173750Y-71941920D01*
X190177016Y-72451295D01*
X190180281Y-72960670D01*
X190055338Y-72960670D01*
X190052044Y-72549858D01*
X190048750Y-72139047D01*
X189726011Y-72549858D01*
X189403271Y-72960670D01*
X189305000Y-72960670D01*
X189305000Y-71934300D01*
X189423750Y-71941920D01*
G37*
G36*
X194215003Y-71929487D02*
G01*
X194291417Y-71932773D01*
X194350353Y-71942629D01*
X194397911Y-71961299D01*
X194440195Y-71991027D01*
X194483306Y-72034056D01*
X194491459Y-72043403D01*
X194532907Y-72109011D01*
X194550332Y-72179979D01*
X194544476Y-72259034D01*
X194541030Y-72274318D01*
X194521716Y-72329035D01*
X194491548Y-72374464D01*
X194447700Y-72412650D01*
X194387347Y-72445640D01*
X194307663Y-72475478D01*
X194205822Y-72504211D01*
X194202335Y-72505098D01*
X194112077Y-72530643D01*
X194044069Y-72556422D01*
X193995711Y-72584374D01*
X193964404Y-72616441D01*
X193947550Y-72654561D01*
X193942547Y-72700674D01*
X193950098Y-72749497D01*
X193978613Y-72798783D01*
X194026618Y-72835496D01*
X194092276Y-72858321D01*
X194173750Y-72865947D01*
X194190351Y-72865740D01*
X194255338Y-72861222D01*
X194312532Y-72849014D01*
X194368366Y-72826682D01*
X194429269Y-72791795D01*
X194501673Y-72741920D01*
X194510857Y-72738276D01*
X194529883Y-72745609D01*
X194557247Y-72771959D01*
X194595569Y-72814498D01*
X194565910Y-72837957D01*
X194507817Y-72878327D01*
X194433142Y-72919976D01*
X194361414Y-72950685D01*
X194347187Y-72955134D01*
X194274868Y-72968155D01*
X194180000Y-72972639D01*
X194177003Y-72972645D01*
X194115775Y-72971557D01*
X194071051Y-72967240D01*
X194034740Y-72958403D01*
X193998750Y-72943759D01*
X193947851Y-72914424D01*
X193888706Y-72860995D01*
X193846837Y-72797665D01*
X193823398Y-72728355D01*
X193819542Y-72656984D01*
X193836421Y-72587472D01*
X193875190Y-72523739D01*
X193883757Y-72514535D01*
X193930487Y-72479447D01*
X193996890Y-72445187D01*
X194078798Y-72413677D01*
X194172042Y-72386839D01*
X194196616Y-72380612D01*
X194285341Y-72353054D01*
X194351283Y-72322449D01*
X194396195Y-72287523D01*
X194421833Y-72247001D01*
X194429954Y-72199609D01*
X194424074Y-72152621D01*
X194398191Y-72101888D01*
X194352058Y-72065292D01*
X194286080Y-72043123D01*
X194200659Y-72035670D01*
X194179036Y-72035809D01*
X194135248Y-72038226D01*
X194098953Y-72045623D01*
X194060454Y-72060536D01*
X194010052Y-72085499D01*
X193991331Y-72095174D01*
X193949101Y-72115720D01*
X193921291Y-72123982D01*
X193902034Y-72119244D01*
X193885462Y-72100791D01*
X193865707Y-72067909D01*
X193864972Y-72066610D01*
X193859945Y-72050641D01*
X193865921Y-72035475D01*
X193885913Y-72018495D01*
X193922935Y-71997085D01*
X193980000Y-71968625D01*
X193989899Y-71963880D01*
X194025780Y-71947962D01*
X194057256Y-71937874D01*
X194091677Y-71932299D01*
X194136392Y-71929920D01*
X194198750Y-71929420D01*
X194215003Y-71929487D01*
G37*
G36*
X179967500Y-75185670D02*
G01*
X179830000Y-75185670D01*
X179830000Y-74035670D01*
X179967500Y-74035670D01*
X179967500Y-75185670D01*
G37*
G36*
X175630000Y-75185670D02*
G01*
X175492500Y-75185670D01*
X175492500Y-74035670D01*
X175630000Y-74035670D01*
X175630000Y-75185670D01*
G37*
G36*
X178814589Y-72300575D02*
G01*
X178813069Y-72408503D01*
X178811388Y-72494884D01*
X178809346Y-72562528D01*
X178806738Y-72614569D01*
X178803358Y-72654143D01*
X178799001Y-72684386D01*
X178793463Y-72708433D01*
X178786538Y-72729420D01*
X178772906Y-72759025D01*
X178732141Y-72819125D01*
X178678712Y-72875761D01*
X178619466Y-72922179D01*
X178561250Y-72951625D01*
X178555804Y-72953404D01*
X178508276Y-72964306D01*
X178449500Y-72969563D01*
X178372790Y-72969822D01*
X178329911Y-72968526D01*
X178281084Y-72965117D01*
X178244012Y-72958519D01*
X178210744Y-72947115D01*
X178173327Y-72929290D01*
X178165391Y-72925115D01*
X178093184Y-72873730D01*
X178036623Y-72805160D01*
X177993550Y-72716854D01*
X177989715Y-72706315D01*
X177982866Y-72684501D01*
X177977583Y-72660668D01*
X177973665Y-72631536D01*
X177970910Y-72593819D01*
X177969117Y-72544235D01*
X177968085Y-72479501D01*
X177967613Y-72396334D01*
X177967500Y-72291451D01*
X177967500Y-71935670D01*
X178078261Y-71935670D01*
X178082256Y-72289725D01*
X178086250Y-72643781D01*
X178123846Y-72717247D01*
X178134313Y-72737017D01*
X178159130Y-72774929D01*
X178188121Y-72801802D01*
X178230096Y-72826712D01*
X178250017Y-72836892D01*
X178282228Y-72850609D01*
X178313362Y-72857754D01*
X178352087Y-72859886D01*
X178407072Y-72858566D01*
X178429780Y-72857602D01*
X178477904Y-72853998D01*
X178511849Y-72847360D01*
X178539536Y-72835644D01*
X178568889Y-72816805D01*
X178569087Y-72816666D01*
X178616582Y-72772419D01*
X178654317Y-72717192D01*
X178655581Y-72714735D01*
X178664621Y-72696369D01*
X178671750Y-72678457D01*
X178677257Y-72657818D01*
X178681433Y-72631271D01*
X178684568Y-72595633D01*
X178686952Y-72547724D01*
X178688875Y-72484363D01*
X178690628Y-72402367D01*
X178692500Y-72298557D01*
X178698750Y-71941920D01*
X178819204Y-71934230D01*
X178814589Y-72300575D01*
G37*
G36*
X184317500Y-75185670D02*
G01*
X184192500Y-75185670D01*
X184192500Y-74721639D01*
X184192447Y-74637395D01*
X184192131Y-74531039D01*
X184191463Y-74446190D01*
X184190364Y-74380755D01*
X184188757Y-74332642D01*
X184186563Y-74299760D01*
X184183704Y-74280015D01*
X184180101Y-74271316D01*
X184175677Y-74271570D01*
X184167492Y-74280677D01*
X184144837Y-74307961D01*
X184109709Y-74351181D01*
X184063731Y-74408311D01*
X184008528Y-74477327D01*
X183945723Y-74556203D01*
X183876940Y-74642913D01*
X183803802Y-74735432D01*
X183448750Y-75185331D01*
X183395625Y-75185500D01*
X183342500Y-75185670D01*
X183342500Y-74035670D01*
X183467192Y-74035670D01*
X183473750Y-74944546D01*
X183830261Y-74493233D01*
X184186771Y-74041920D01*
X184252136Y-74038141D01*
X184317500Y-74034363D01*
X184317500Y-75185670D01*
G37*
G36*
X173998241Y-74513795D02*
G01*
X174018104Y-74561626D01*
X174059807Y-74661702D01*
X174098253Y-74753496D01*
X174132395Y-74834537D01*
X174161186Y-74902354D01*
X174183580Y-74954474D01*
X174198529Y-74988428D01*
X174204986Y-75001745D01*
X174206985Y-75000100D01*
X174217589Y-74980654D01*
X174236081Y-74941536D01*
X174261431Y-74885095D01*
X174292607Y-74813674D01*
X174328582Y-74729620D01*
X174368324Y-74635278D01*
X174410803Y-74532995D01*
X174430565Y-74485145D01*
X174472106Y-74384959D01*
X174510434Y-74293054D01*
X174544503Y-74211906D01*
X174573269Y-74143988D01*
X174595684Y-74091775D01*
X174610703Y-74057743D01*
X174617281Y-74044366D01*
X174626995Y-74040618D01*
X174656225Y-74037694D01*
X174696133Y-74038116D01*
X174765908Y-74041920D01*
X174535815Y-74579420D01*
X174494186Y-74676606D01*
X174448963Y-74782047D01*
X174407138Y-74879419D01*
X174369784Y-74966236D01*
X174337971Y-75040012D01*
X174312770Y-75098260D01*
X174295252Y-75138493D01*
X174286489Y-75158224D01*
X174278945Y-75173583D01*
X174265359Y-75190795D01*
X174244839Y-75196741D01*
X174208423Y-75195724D01*
X174149590Y-75191920D01*
X173902698Y-74616920D01*
X173892019Y-74592048D01*
X173844279Y-74480803D01*
X173799856Y-74377206D01*
X173759686Y-74283445D01*
X173724705Y-74201709D01*
X173695850Y-74134188D01*
X173674058Y-74083069D01*
X173660263Y-74050542D01*
X173655403Y-74038795D01*
X173662609Y-74037424D01*
X173688740Y-74036158D01*
X173727457Y-74035670D01*
X173799913Y-74035670D01*
X173998241Y-74513795D01*
G37*
G36*
X193217500Y-72048170D02*
G01*
X192880000Y-72048170D01*
X192880000Y-72960670D01*
X192755000Y-72960670D01*
X192755000Y-72048170D01*
X192417500Y-72048170D01*
X192417500Y-71935670D01*
X193217500Y-71935670D01*
X193217500Y-72048170D01*
G37*
G36*
X192303598Y-61821665D02*
G01*
X192302906Y-61906165D01*
X192301407Y-61978607D01*
X192299039Y-62042141D01*
X192295738Y-62099919D01*
X192291441Y-62155092D01*
X192286086Y-62210812D01*
X192281728Y-62253332D01*
X192274424Y-62326447D01*
X192268058Y-62392442D01*
X192263196Y-62445404D01*
X192260403Y-62479420D01*
X192259533Y-62490765D01*
X192253521Y-62550313D01*
X192244176Y-62627122D01*
X192232362Y-62715295D01*
X192218943Y-62808938D01*
X192204782Y-62902154D01*
X192190743Y-62989048D01*
X192177691Y-63063726D01*
X192166490Y-63120291D01*
X192164653Y-63128873D01*
X192155747Y-63175451D01*
X192149296Y-63216527D01*
X192148144Y-63224617D01*
X192139868Y-63268159D01*
X192128951Y-63313156D01*
X192125504Y-63325968D01*
X192116134Y-63364395D01*
X192110768Y-63391920D01*
X192107021Y-63414970D01*
X192098194Y-63461613D01*
X192086084Y-63521627D01*
X192072010Y-63588829D01*
X192057291Y-63657033D01*
X192043247Y-63720055D01*
X192031197Y-63771712D01*
X192022461Y-63805820D01*
X192015924Y-63829246D01*
X192005492Y-63868867D01*
X191999207Y-63895801D01*
X191996010Y-63909964D01*
X191986657Y-63945866D01*
X191974692Y-63988151D01*
X191969065Y-64007349D01*
X191954377Y-64057748D01*
X191936842Y-64118173D01*
X191919133Y-64179420D01*
X191909114Y-64213416D01*
X191891455Y-64270395D01*
X191875377Y-64318970D01*
X191863421Y-64351295D01*
X191858857Y-64362505D01*
X191849794Y-64387993D01*
X191848394Y-64398170D01*
X191848429Y-64398174D01*
X191846153Y-64409580D01*
X191836845Y-64439850D01*
X191821973Y-64484438D01*
X191803004Y-64538795D01*
X191784424Y-64591500D01*
X191765060Y-64647431D01*
X191749670Y-64692963D01*
X191740500Y-64721533D01*
X191730079Y-64754417D01*
X191701796Y-64833312D01*
X191664248Y-64929040D01*
X191619019Y-65038118D01*
X191567695Y-65157061D01*
X191511863Y-65282384D01*
X191453107Y-65410603D01*
X191393014Y-65538232D01*
X191333168Y-65661789D01*
X191275156Y-65777787D01*
X191220562Y-65882742D01*
X191170973Y-65973170D01*
X191164254Y-65985005D01*
X191142715Y-66022946D01*
X191115137Y-66071531D01*
X191085826Y-66123170D01*
X191074931Y-66142251D01*
X191041448Y-66199824D01*
X191008574Y-66255045D01*
X190982086Y-66298170D01*
X190961101Y-66331560D01*
X190935105Y-66373349D01*
X190916074Y-66404420D01*
X190902144Y-66426608D01*
X190876162Y-66466681D01*
X190841954Y-66518717D01*
X190802267Y-66578610D01*
X190759845Y-66642253D01*
X190717434Y-66705540D01*
X190677780Y-66764365D01*
X190643626Y-66814621D01*
X190617719Y-66852202D01*
X190602804Y-66873002D01*
X190589427Y-66890728D01*
X190563264Y-66925805D01*
X190527778Y-66973602D01*
X190485835Y-67030260D01*
X190440298Y-67091920D01*
X190398910Y-67147570D01*
X190354523Y-67206244D01*
X190315438Y-67256880D01*
X190284790Y-67295420D01*
X190265715Y-67317804D01*
X190265254Y-67318293D01*
X190238862Y-67348122D01*
X190204810Y-67388996D01*
X190170345Y-67432219D01*
X190126999Y-67486682D01*
X190023330Y-67609333D01*
X189904199Y-67741906D01*
X189772863Y-67881232D01*
X189632579Y-68024141D01*
X189486605Y-68167466D01*
X189338198Y-68308038D01*
X189190615Y-68442688D01*
X189047115Y-68568247D01*
X188910954Y-68681547D01*
X188785389Y-68779420D01*
X188755681Y-68801713D01*
X188707040Y-68838372D01*
X188651480Y-68880369D01*
X188596131Y-68922317D01*
X188572854Y-68939978D01*
X188511404Y-68986441D01*
X188462929Y-69022678D01*
X188422227Y-69052462D01*
X188384094Y-69079562D01*
X188343328Y-69107752D01*
X188294725Y-69140802D01*
X188286456Y-69146405D01*
X188227830Y-69186268D01*
X188165629Y-69228753D01*
X188112005Y-69265561D01*
X188076942Y-69289094D01*
X188007753Y-69333528D01*
X187924610Y-69385204D01*
X187832351Y-69441225D01*
X187735814Y-69498692D01*
X187639835Y-69554707D01*
X187549254Y-69606372D01*
X187468908Y-69650790D01*
X187429976Y-69671576D01*
X187354374Y-69710899D01*
X187268968Y-69754329D01*
X187178327Y-69799625D01*
X187087016Y-69844547D01*
X186999600Y-69886857D01*
X186920648Y-69924315D01*
X186854724Y-69954681D01*
X186806395Y-69975716D01*
X186769688Y-69990815D01*
X186696713Y-70020872D01*
X186619197Y-70052839D01*
X186548750Y-70081929D01*
X186495425Y-70103757D01*
X186374879Y-70151360D01*
X186254465Y-70196228D01*
X186130094Y-70239722D01*
X185997676Y-70283201D01*
X185853122Y-70328026D01*
X185692344Y-70375559D01*
X185511250Y-70427160D01*
X185504942Y-70428927D01*
X185430178Y-70449295D01*
X185347230Y-70471029D01*
X185260714Y-70493003D01*
X185175249Y-70514095D01*
X185095453Y-70533179D01*
X185025942Y-70549132D01*
X184971336Y-70560830D01*
X184936250Y-70567147D01*
X184916922Y-70570804D01*
X184879090Y-70579440D01*
X184834446Y-70590618D01*
X184798096Y-70599034D01*
X184749895Y-70607422D01*
X184713388Y-70610670D01*
X184682613Y-70612678D01*
X184634819Y-70618854D01*
X184583943Y-70627747D01*
X184580131Y-70628504D01*
X184522974Y-70638897D01*
X184455852Y-70649823D01*
X184392500Y-70659038D01*
X184389767Y-70659404D01*
X184334443Y-70666841D01*
X184263709Y-70676396D01*
X184186374Y-70686877D01*
X184111250Y-70697090D01*
X184015069Y-70708784D01*
X183889797Y-70721187D01*
X183753264Y-70732307D01*
X183612734Y-70741615D01*
X183475474Y-70748582D01*
X183348750Y-70752677D01*
X183319888Y-70753197D01*
X183207213Y-70754059D01*
X183080728Y-70753541D01*
X182946900Y-70751774D01*
X182812196Y-70748888D01*
X182683083Y-70745016D01*
X182566029Y-70740287D01*
X182467500Y-70734833D01*
X182451235Y-70733723D01*
X182315116Y-70722382D01*
X182162065Y-70706569D01*
X181998679Y-70687152D01*
X181831557Y-70664999D01*
X181667296Y-70640980D01*
X181512494Y-70615964D01*
X181373750Y-70590818D01*
X181362282Y-70588600D01*
X181312961Y-70579193D01*
X181272506Y-70571677D01*
X181248750Y-70567510D01*
X181226011Y-70562908D01*
X181180851Y-70552652D01*
X181116229Y-70537403D01*
X181034586Y-70517744D01*
X180938363Y-70494259D01*
X180830000Y-70467529D01*
X180816688Y-70464219D01*
X180770365Y-70452483D01*
X180724013Y-70440297D01*
X180672841Y-70426340D01*
X180612059Y-70409290D01*
X180536876Y-70387825D01*
X180442500Y-70360623D01*
X180407837Y-70350439D01*
X180327784Y-70326011D01*
X180239105Y-70297985D01*
X180146451Y-70267917D01*
X180054470Y-70237358D01*
X179967810Y-70207863D01*
X179891121Y-70180986D01*
X179829052Y-70158280D01*
X179786250Y-70141299D01*
X179784876Y-70140710D01*
X179759759Y-70130137D01*
X179716217Y-70111977D01*
X179658495Y-70087994D01*
X179590841Y-70059952D01*
X179517500Y-70029617D01*
X179432909Y-69993666D01*
X179312981Y-69940178D01*
X179184071Y-69880369D01*
X179051540Y-69816855D01*
X178920747Y-69752252D01*
X178797051Y-69689176D01*
X178685812Y-69630242D01*
X178592389Y-69578068D01*
X178583743Y-69573060D01*
X178528621Y-69541146D01*
X178480283Y-69513186D01*
X178443676Y-69492040D01*
X178423750Y-69480569D01*
X178414725Y-69475261D01*
X178383602Y-69456143D01*
X178347526Y-69433267D01*
X178334846Y-69425206D01*
X178291706Y-69398885D01*
X178253776Y-69377099D01*
X178223837Y-69359604D01*
X178180877Y-69332778D01*
X178136250Y-69303588D01*
X178112445Y-69287581D01*
X178018801Y-69224175D01*
X177926502Y-69161040D01*
X177839447Y-69100882D01*
X177761537Y-69046407D01*
X177696671Y-69000321D01*
X177648750Y-68965330D01*
X177625445Y-68947878D01*
X177512555Y-68862759D01*
X177417171Y-68789716D01*
X177336813Y-68726812D01*
X177269000Y-68672109D01*
X177211250Y-68623670D01*
X177188153Y-68603859D01*
X177134287Y-68557732D01*
X177082080Y-68513108D01*
X177040180Y-68477384D01*
X177013951Y-68454865D01*
X176896308Y-68349704D01*
X176768514Y-68229604D01*
X176634523Y-68098616D01*
X176498289Y-67960790D01*
X176363768Y-67820177D01*
X176234913Y-67680827D01*
X176115680Y-67546793D01*
X176010022Y-67422124D01*
X175914548Y-67303945D01*
X175762680Y-67108002D01*
X175615225Y-66908410D01*
X175479567Y-66715010D01*
X175374618Y-66558612D01*
X175276347Y-66406810D01*
X175185212Y-66259520D01*
X175097949Y-66111189D01*
X175011295Y-65956263D01*
X174921985Y-65789191D01*
X174826755Y-65604420D01*
X174813861Y-65578815D01*
X174785684Y-65521563D01*
X174760505Y-65468817D01*
X174742580Y-65429420D01*
X174742435Y-65429086D01*
X174726611Y-65392879D01*
X174703672Y-65340845D01*
X174676669Y-65279890D01*
X174648656Y-65216920D01*
X174645246Y-65209268D01*
X174604343Y-65116617D01*
X174570588Y-65037812D01*
X174540987Y-64965332D01*
X174512549Y-64891662D01*
X174482282Y-64809280D01*
X174447194Y-64710670D01*
X174420402Y-64634563D01*
X174392334Y-64554424D01*
X174369871Y-64489506D01*
X174351457Y-64435130D01*
X174335535Y-64386614D01*
X174320547Y-64339278D01*
X174304938Y-64288440D01*
X174287151Y-64229420D01*
X174268807Y-64168388D01*
X174251955Y-64112563D01*
X174238533Y-64068350D01*
X174230408Y-64041920D01*
X174230186Y-64041206D01*
X174222829Y-64015162D01*
X174211167Y-63971462D01*
X174196726Y-63916082D01*
X174181032Y-63854997D01*
X174165611Y-63794182D01*
X174151989Y-63739615D01*
X174141690Y-63697269D01*
X174136242Y-63673121D01*
X174135345Y-63668756D01*
X174128855Y-63640776D01*
X174119780Y-63604371D01*
X174117946Y-63596979D01*
X174107705Y-63548057D01*
X174099810Y-63499311D01*
X174096382Y-63476764D01*
X174086551Y-63425256D01*
X174074857Y-63374311D01*
X174068632Y-63348727D01*
X174052718Y-63275678D01*
X174035045Y-63186204D01*
X174016602Y-63086109D01*
X173998383Y-62981196D01*
X173981378Y-62877268D01*
X173966580Y-62780127D01*
X173954979Y-62695576D01*
X173947568Y-62629420D01*
X173944390Y-62598478D01*
X173938845Y-62548929D01*
X173931769Y-62488193D01*
X173923952Y-62423170D01*
X173916231Y-62349811D01*
X173907334Y-62233117D01*
X173900171Y-62099437D01*
X173894741Y-61952583D01*
X173891044Y-61796365D01*
X173889080Y-61634595D01*
X173888995Y-61574092D01*
X174282550Y-61574092D01*
X174283408Y-61709780D01*
X174285346Y-61841251D01*
X174288344Y-61964354D01*
X174292387Y-62074935D01*
X174297456Y-62168841D01*
X174303534Y-62241920D01*
X174315667Y-62354657D01*
X174327371Y-62462416D01*
X174337132Y-62550759D01*
X174345296Y-62622590D01*
X174352208Y-62680811D01*
X174358214Y-62728326D01*
X174363661Y-62768038D01*
X174368893Y-62802852D01*
X174374257Y-62835670D01*
X174376570Y-62849431D01*
X174385525Y-62904222D01*
X174393088Y-62952686D01*
X174397821Y-62985670D01*
X174399419Y-62997270D01*
X174406587Y-63042806D01*
X174417020Y-63104005D01*
X174429574Y-63174402D01*
X174443103Y-63247529D01*
X174456463Y-63316920D01*
X174463870Y-63352265D01*
X174476591Y-63409290D01*
X174491871Y-63475263D01*
X174507826Y-63541920D01*
X174507943Y-63542399D01*
X174522513Y-63602469D01*
X174535212Y-63655385D01*
X174544680Y-63695438D01*
X174549554Y-63716920D01*
X174551891Y-63727487D01*
X174562994Y-63771411D01*
X174579442Y-63831544D01*
X174599735Y-63902849D01*
X174622371Y-63980287D01*
X174645851Y-64058819D01*
X174668674Y-64133408D01*
X174689339Y-64199016D01*
X174706345Y-64250604D01*
X174718193Y-64283133D01*
X174725381Y-64304648D01*
X174730000Y-64331244D01*
X174730019Y-64332171D01*
X174735400Y-64357407D01*
X174747471Y-64390030D01*
X174749677Y-64395144D01*
X174763411Y-64429812D01*
X174781134Y-64477480D01*
X174799582Y-64529420D01*
X174805222Y-64545555D01*
X174821568Y-64590691D01*
X174834809Y-64624947D01*
X174842500Y-64641920D01*
X174850511Y-64659201D01*
X174863739Y-64692921D01*
X174879261Y-64735670D01*
X174894520Y-64778031D01*
X174911504Y-64822862D01*
X174924395Y-64854420D01*
X174934270Y-64876868D01*
X174952375Y-64918237D01*
X174976687Y-64973902D01*
X175005301Y-65039499D01*
X175036312Y-65110670D01*
X175091684Y-65233902D01*
X175181004Y-65420697D01*
X175279139Y-65614175D01*
X175382121Y-65806780D01*
X175485982Y-65990951D01*
X175586753Y-66159130D01*
X175612829Y-66200321D01*
X175649997Y-66257755D01*
X175693984Y-66324871D01*
X175741872Y-66397290D01*
X175790742Y-66470634D01*
X175837677Y-66540522D01*
X175879758Y-66602577D01*
X175914066Y-66652419D01*
X175937682Y-66685670D01*
X175952139Y-66705241D01*
X176069662Y-66860198D01*
X176195178Y-67019051D01*
X176325620Y-67178236D01*
X176457917Y-67334189D01*
X176589001Y-67483348D01*
X176715802Y-67622148D01*
X176835252Y-67747026D01*
X176944282Y-67854420D01*
X177001896Y-67908742D01*
X177167021Y-68061021D01*
X177325439Y-68202049D01*
X177474094Y-68329139D01*
X177609929Y-68439604D01*
X177671494Y-68487578D01*
X177759234Y-68554424D01*
X177852673Y-68624177D01*
X177948626Y-68694563D01*
X178043906Y-68763309D01*
X178135329Y-68828139D01*
X178219710Y-68886780D01*
X178293864Y-68936958D01*
X178354606Y-68976398D01*
X178398750Y-69002827D01*
X178432088Y-69021800D01*
X178460520Y-69038953D01*
X178488044Y-69056350D01*
X178620432Y-69136804D01*
X178766421Y-69221023D01*
X178920334Y-69305987D01*
X179076493Y-69388675D01*
X179229220Y-69466067D01*
X179372837Y-69535141D01*
X179501666Y-69592877D01*
X179548140Y-69612796D01*
X179605158Y-69637409D01*
X179653388Y-69658415D01*
X179685718Y-69672731D01*
X179736437Y-69694875D01*
X179831582Y-69733817D01*
X179941967Y-69776605D01*
X180062803Y-69821557D01*
X180189299Y-69866991D01*
X180316665Y-69911227D01*
X180440112Y-69952581D01*
X180554848Y-69989373D01*
X180656085Y-70019920D01*
X180739031Y-70042541D01*
X180756403Y-70046900D01*
X180794293Y-70056410D01*
X180848085Y-70069913D01*
X180913497Y-70086334D01*
X180986250Y-70104600D01*
X181062963Y-70123769D01*
X181158027Y-70147112D01*
X181236240Y-70165643D01*
X181301948Y-70180321D01*
X181359497Y-70192105D01*
X181413232Y-70201954D01*
X181467500Y-70210828D01*
X181519731Y-70219215D01*
X181590971Y-70231185D01*
X181655000Y-70242446D01*
X181678451Y-70246600D01*
X181760338Y-70259939D01*
X181855906Y-70274152D01*
X181960358Y-70288644D01*
X182068896Y-70302817D01*
X182176725Y-70316077D01*
X182279047Y-70327826D01*
X182371065Y-70337470D01*
X182447982Y-70344411D01*
X182505000Y-70348055D01*
X182546673Y-70349383D01*
X182608337Y-70350804D01*
X182683677Y-70352167D01*
X182769470Y-70353446D01*
X182862493Y-70354617D01*
X182959524Y-70355652D01*
X183057340Y-70356526D01*
X183152718Y-70357213D01*
X183242435Y-70357688D01*
X183323269Y-70357924D01*
X183391996Y-70357897D01*
X183445395Y-70357579D01*
X183480242Y-70356945D01*
X183493314Y-70355970D01*
X183498661Y-70354139D01*
X183524613Y-70351106D01*
X183566461Y-70348824D01*
X183618314Y-70347683D01*
X183666725Y-70346291D01*
X183740756Y-70342030D01*
X183820492Y-70335665D01*
X183895391Y-70327946D01*
X183900404Y-70327355D01*
X183962926Y-70320223D01*
X184018052Y-70314335D01*
X184059976Y-70310289D01*
X184082891Y-70308681D01*
X184099437Y-70307485D01*
X184140869Y-70302632D01*
X184199409Y-70294692D01*
X184270643Y-70284350D01*
X184350159Y-70272291D01*
X184433543Y-70259201D01*
X184516382Y-70245763D01*
X184594264Y-70232663D01*
X184662774Y-70220584D01*
X184717500Y-70210213D01*
X184730089Y-70207736D01*
X184774808Y-70199485D01*
X184811250Y-70193479D01*
X184825017Y-70191226D01*
X184866328Y-70183207D01*
X184911250Y-70173309D01*
X184931651Y-70168670D01*
X184975368Y-70159633D01*
X185008363Y-70153949D01*
X185025970Y-70150867D01*
X185066517Y-70141755D01*
X185111488Y-70129983D01*
X185134502Y-70123498D01*
X185193040Y-70107018D01*
X185246724Y-70091920D01*
X185273656Y-70084795D01*
X185311023Y-70076430D01*
X185334394Y-70073170D01*
X185347835Y-70071574D01*
X185377045Y-70061402D01*
X185394200Y-70054107D01*
X185430213Y-70041727D01*
X185473750Y-70028660D01*
X185534096Y-70011456D01*
X185617467Y-69986863D01*
X185704522Y-69960422D01*
X185791307Y-69933399D01*
X185873867Y-69907060D01*
X185948247Y-69882668D01*
X186010494Y-69861490D01*
X186056652Y-69844790D01*
X186082767Y-69833833D01*
X186084042Y-69833203D01*
X186106172Y-69824006D01*
X186145990Y-69808723D01*
X186198265Y-69789329D01*
X186257767Y-69767798D01*
X186286997Y-69757202D01*
X186453763Y-69692038D01*
X186634806Y-69614227D01*
X186825548Y-69526069D01*
X187021412Y-69429864D01*
X187217820Y-69327914D01*
X187410194Y-69222518D01*
X187593957Y-69115977D01*
X187764530Y-69010591D01*
X187794035Y-68991715D01*
X187853066Y-68954068D01*
X187905519Y-68920766D01*
X187946574Y-68894865D01*
X187971414Y-68879420D01*
X187988698Y-68868732D01*
X188065684Y-68818135D01*
X188156684Y-68754546D01*
X188257979Y-68680821D01*
X188365853Y-68599819D01*
X188476588Y-68514397D01*
X188586468Y-68427414D01*
X188691775Y-68341726D01*
X188788792Y-68260192D01*
X188873802Y-68185670D01*
X188885947Y-68174742D01*
X188928684Y-68136397D01*
X188982306Y-68088394D01*
X189041162Y-68035792D01*
X189099599Y-67983645D01*
X189195546Y-67894921D01*
X189302981Y-67789932D01*
X189416504Y-67674228D01*
X189531674Y-67552505D01*
X189644049Y-67429457D01*
X189749187Y-67309780D01*
X189842647Y-67198170D01*
X189872161Y-67162133D01*
X189910429Y-67116019D01*
X189942380Y-67078140D01*
X189948893Y-67070432D01*
X189980212Y-67031979D01*
X190017835Y-66984293D01*
X190055000Y-66935911D01*
X190069499Y-66916797D01*
X190099883Y-66877176D01*
X190123663Y-66846757D01*
X190136641Y-66830940D01*
X190156105Y-66807665D01*
X190190170Y-66762838D01*
X190233287Y-66703311D01*
X190283068Y-66632611D01*
X190337124Y-66554264D01*
X190393067Y-66471795D01*
X190448509Y-66388731D01*
X190501062Y-66308597D01*
X190548337Y-66234919D01*
X190587946Y-66171223D01*
X190617500Y-66121036D01*
X190641283Y-66079931D01*
X190672615Y-66028344D01*
X190699692Y-65986275D01*
X190700072Y-65985712D01*
X190725899Y-65945071D01*
X190756562Y-65893464D01*
X190785506Y-65841920D01*
X190788038Y-65837249D01*
X190814500Y-65789103D01*
X190839331Y-65744940D01*
X190857459Y-65713795D01*
X190862238Y-65705649D01*
X190873726Y-65682481D01*
X190874692Y-65673170D01*
X190875955Y-65666886D01*
X190886379Y-65641726D01*
X190905188Y-65600714D01*
X190930704Y-65547484D01*
X190961250Y-65485670D01*
X190985155Y-65438732D01*
X191014841Y-65382764D01*
X191039867Y-65338224D01*
X191058143Y-65308797D01*
X191067579Y-65298170D01*
X191070463Y-65297861D01*
X191080000Y-65286896D01*
X191081273Y-65281635D01*
X191090753Y-65256972D01*
X191107468Y-65218286D01*
X191129004Y-65171271D01*
X191159104Y-65105834D01*
X191234979Y-64929922D01*
X191311581Y-64737720D01*
X191386659Y-64535209D01*
X191457965Y-64328366D01*
X191523250Y-64123170D01*
X191531104Y-64097336D01*
X191556207Y-64014651D01*
X191576850Y-63946047D01*
X191594167Y-63887254D01*
X191609289Y-63834004D01*
X191623351Y-63782031D01*
X191637486Y-63727065D01*
X191652828Y-63664839D01*
X191670509Y-63591085D01*
X191691663Y-63501534D01*
X191717423Y-63391920D01*
X191721477Y-63374383D01*
X191745234Y-63261284D01*
X191769022Y-63131462D01*
X191791545Y-62991920D01*
X191794366Y-62973266D01*
X191803407Y-62913659D01*
X191813811Y-62845245D01*
X191823847Y-62779420D01*
X191828410Y-62748964D01*
X191836992Y-62688711D01*
X191844033Y-62635505D01*
X191848341Y-62598170D01*
X191851430Y-62568784D01*
X191857165Y-62518162D01*
X191864404Y-62456714D01*
X191872279Y-62391920D01*
X191877407Y-62342979D01*
X191883449Y-62270964D01*
X191889704Y-62183853D01*
X191895830Y-62086768D01*
X191901483Y-61984833D01*
X191906322Y-61883170D01*
X191912689Y-61667413D01*
X191908276Y-61242508D01*
X191881610Y-60809824D01*
X191832614Y-60368311D01*
X191761211Y-59916920D01*
X191750039Y-59858855D01*
X191734288Y-59782688D01*
X191715520Y-59695722D01*
X191694886Y-59602998D01*
X191673538Y-59509555D01*
X191652629Y-59420436D01*
X191633310Y-59340679D01*
X191616735Y-59275327D01*
X191604055Y-59229420D01*
X191579383Y-59147252D01*
X191542852Y-59026119D01*
X191512003Y-58924694D01*
X191485985Y-58840287D01*
X191463950Y-58770210D01*
X191445046Y-58711774D01*
X191428425Y-58662289D01*
X191413236Y-58619067D01*
X191398630Y-58579420D01*
X191397723Y-58577010D01*
X191380013Y-58529499D01*
X191364760Y-58487791D01*
X191355178Y-58460670D01*
X191349519Y-58445186D01*
X191335128Y-58408235D01*
X191315468Y-58359183D01*
X191293079Y-58304420D01*
X191282008Y-58277564D01*
X191252218Y-58205049D01*
X191221782Y-58130675D01*
X191195810Y-58066920D01*
X191177025Y-58022761D01*
X191141768Y-57945384D01*
X191097702Y-57852958D01*
X191046837Y-57749403D01*
X190991185Y-57638634D01*
X190932759Y-57524570D01*
X190873570Y-57411128D01*
X190815629Y-57302224D01*
X190760948Y-57201777D01*
X190711540Y-57113703D01*
X190669416Y-57041920D01*
X190659462Y-57025524D01*
X190584325Y-56902943D01*
X190515327Y-56792948D01*
X190449347Y-56690962D01*
X190383268Y-56592408D01*
X190313970Y-56492706D01*
X190238333Y-56387279D01*
X190153240Y-56271549D01*
X190055570Y-56140938D01*
X190031301Y-56109078D01*
X189937192Y-55991144D01*
X189828498Y-55862086D01*
X189708770Y-55725704D01*
X189581562Y-55585801D01*
X189450427Y-55446176D01*
X189318917Y-55310630D01*
X189190587Y-55182964D01*
X189068988Y-55066978D01*
X188957674Y-54966474D01*
X188877224Y-54896787D01*
X188725527Y-54768210D01*
X188583214Y-54651936D01*
X188445140Y-54543993D01*
X188306164Y-54440405D01*
X188161139Y-54337200D01*
X188004924Y-54230401D01*
X187997810Y-54225623D01*
X187832396Y-54116276D01*
X187679518Y-54019129D01*
X187532837Y-53930446D01*
X187386010Y-53846495D01*
X187232696Y-53763540D01*
X187066554Y-53677849D01*
X187040000Y-53664427D01*
X186970387Y-53629314D01*
X186916416Y-53602329D01*
X186873054Y-53581067D01*
X186835266Y-53563124D01*
X186798017Y-53546094D01*
X186756274Y-53527573D01*
X186705000Y-53505156D01*
X186703032Y-53504297D01*
X186646847Y-53479598D01*
X186589281Y-53453998D01*
X186542500Y-53432905D01*
X186541008Y-53432225D01*
X186474264Y-53403424D01*
X186388451Y-53368773D01*
X186288195Y-53329963D01*
X186178123Y-53288682D01*
X186062865Y-53246619D01*
X185947046Y-53205465D01*
X185835294Y-53166908D01*
X185732236Y-53132637D01*
X185642500Y-53104343D01*
X185575528Y-53084252D01*
X185465122Y-53052147D01*
X185361824Y-53023341D01*
X185269796Y-52998954D01*
X185193202Y-52980108D01*
X185136202Y-52967925D01*
X185131351Y-52966973D01*
X185099597Y-52959782D01*
X185061202Y-52950154D01*
X185020545Y-52940289D01*
X184954705Y-52925923D01*
X184874703Y-52909603D01*
X184785366Y-52892214D01*
X184691524Y-52874640D01*
X184598006Y-52857767D01*
X184509641Y-52842480D01*
X184431257Y-52829664D01*
X184367684Y-52820205D01*
X184323750Y-52814986D01*
X184308856Y-52813477D01*
X184260197Y-52806904D01*
X184211250Y-52798549D01*
X184184772Y-52793906D01*
X184128394Y-52785801D01*
X184073750Y-52779712D01*
X184061188Y-52778582D01*
X184013872Y-52774283D01*
X183950932Y-52768525D01*
X183879073Y-52761922D01*
X183805000Y-52755089D01*
X183620361Y-52741038D01*
X183362905Y-52729916D01*
X183093574Y-52726896D01*
X182818993Y-52731836D01*
X182545787Y-52744595D01*
X182280581Y-52765032D01*
X182030000Y-52793005D01*
X181978943Y-52799681D01*
X181920440Y-52807241D01*
X181872607Y-52813324D01*
X181842500Y-52817028D01*
X181739825Y-52831122D01*
X181605445Y-52853821D01*
X181448260Y-52884060D01*
X181268776Y-52921742D01*
X181067500Y-52966770D01*
X180833516Y-53024153D01*
X180444593Y-53136234D01*
X180058356Y-53268865D01*
X179672478Y-53422933D01*
X179284635Y-53599330D01*
X178892500Y-53798946D01*
X178882416Y-53804365D01*
X178820023Y-53838599D01*
X178753448Y-53876134D01*
X178686409Y-53914765D01*
X178622626Y-53952282D01*
X178565816Y-53986480D01*
X178519700Y-54015151D01*
X178487996Y-54036088D01*
X178474422Y-54047083D01*
X178473817Y-54052837D01*
X178482886Y-54076436D01*
X178503259Y-54110927D01*
X178531511Y-54150835D01*
X178564218Y-54190684D01*
X178604686Y-54236181D01*
X178651718Y-54206577D01*
X178719495Y-54165101D01*
X178815834Y-54108714D01*
X178922810Y-54048260D01*
X179033917Y-53987352D01*
X179142649Y-53929602D01*
X179242500Y-53878620D01*
X179280018Y-53860094D01*
X179353522Y-53824432D01*
X179431831Y-53787107D01*
X179511529Y-53749683D01*
X179589202Y-53713725D01*
X179661432Y-53680796D01*
X179724804Y-53652462D01*
X179775902Y-53630287D01*
X179811309Y-53615835D01*
X179827611Y-53610669D01*
X179837485Y-53607919D01*
X179866465Y-53597583D01*
X179908667Y-53581606D01*
X179958544Y-53562157D01*
X180010548Y-53541404D01*
X180059133Y-53521516D01*
X180098750Y-53504663D01*
X180110431Y-53499857D01*
X180150673Y-53484856D01*
X180207854Y-53464693D01*
X180277258Y-53440930D01*
X180354169Y-53415129D01*
X180433870Y-53388849D01*
X180511646Y-53363653D01*
X180582778Y-53341103D01*
X180642552Y-53322758D01*
X180686250Y-53310181D01*
X180690485Y-53309041D01*
X180749216Y-53293243D01*
X180808104Y-53277410D01*
X180855000Y-53264809D01*
X181094939Y-53203534D01*
X181341063Y-53148142D01*
X181567500Y-53105539D01*
X181580424Y-53103380D01*
X181653249Y-53091221D01*
X181730946Y-53078252D01*
X181798750Y-53066939D01*
X181817097Y-53063926D01*
X181875001Y-53054948D01*
X181927231Y-53047557D01*
X181964311Y-53043116D01*
X181981588Y-53041426D01*
X182027382Y-53036793D01*
X182084862Y-53030855D01*
X182145561Y-53024482D01*
X182231360Y-53015857D01*
X182535683Y-52992255D01*
X182844724Y-52978617D01*
X183152954Y-52974947D01*
X183454846Y-52981246D01*
X183744871Y-52997516D01*
X184017500Y-53023759D01*
X184027060Y-53024892D01*
X184086399Y-53031672D01*
X184143170Y-53037804D01*
X184186250Y-53042081D01*
X184219967Y-53045772D01*
X184286962Y-53054891D01*
X184372637Y-53068020D01*
X184473547Y-53084625D01*
X184586250Y-53104171D01*
X184595207Y-53105759D01*
X184647576Y-53114995D01*
X184693442Y-53123013D01*
X184723750Y-53128228D01*
X184735342Y-53130331D01*
X184773205Y-53137833D01*
X184823987Y-53148371D01*
X184880000Y-53160361D01*
X184909541Y-53166775D01*
X184960669Y-53177835D01*
X185001013Y-53186508D01*
X185023750Y-53191326D01*
X185037084Y-53194363D01*
X185077212Y-53204389D01*
X185137070Y-53219942D01*
X185213913Y-53240305D01*
X185305000Y-53264764D01*
X185320257Y-53268882D01*
X185370889Y-53282553D01*
X185431636Y-53298957D01*
X185492500Y-53315392D01*
X185505985Y-53319106D01*
X185567294Y-53337048D01*
X185641735Y-53360030D01*
X185721121Y-53385485D01*
X185797261Y-53410849D01*
X186179421Y-53550267D01*
X186600101Y-53726711D01*
X187006012Y-53922515D01*
X187398618Y-54138492D01*
X187779384Y-54375452D01*
X188149773Y-54634208D01*
X188511250Y-54915571D01*
X188564643Y-54959847D01*
X188675826Y-55054918D01*
X188791283Y-55157008D01*
X188907009Y-55262392D01*
X189019001Y-55367346D01*
X189123255Y-55468144D01*
X189215768Y-55561063D01*
X189292535Y-55642378D01*
X189347487Y-55702783D01*
X189404113Y-55765018D01*
X189456181Y-55822233D01*
X189499603Y-55869936D01*
X189530292Y-55903636D01*
X189542382Y-55917031D01*
X189597396Y-55980170D01*
X189659856Y-56054613D01*
X189723908Y-56133302D01*
X189783698Y-56209178D01*
X189791968Y-56219819D01*
X189818816Y-56253666D01*
X189839975Y-56279420D01*
X189855869Y-56299309D01*
X189881956Y-56333741D01*
X189910865Y-56373170D01*
X189936669Y-56408385D01*
X189957338Y-56435513D01*
X189968026Y-56448170D01*
X189968514Y-56448618D01*
X189980113Y-56463107D01*
X190001191Y-56491945D01*
X190027560Y-56529420D01*
X190040143Y-56547518D01*
X190075614Y-56598118D01*
X190116191Y-56655588D01*
X190155344Y-56710670D01*
X190174164Y-56737319D01*
X190211255Y-56791270D01*
X190244527Y-56841355D01*
X190268509Y-56879420D01*
X190293045Y-56919944D01*
X190325431Y-56972555D01*
X190357038Y-57023170D01*
X190400635Y-57093485D01*
X190522339Y-57301215D01*
X190644529Y-57525601D01*
X190764301Y-57760815D01*
X190878747Y-58001032D01*
X190984964Y-58240426D01*
X191080047Y-58473170D01*
X191088084Y-58494582D01*
X191106867Y-58547353D01*
X191130944Y-58617228D01*
X191158915Y-58699971D01*
X191189380Y-58791344D01*
X191220938Y-58887113D01*
X191252188Y-58983042D01*
X191281730Y-59074893D01*
X191308163Y-59158431D01*
X191330087Y-59229420D01*
X191338736Y-59260353D01*
X191352420Y-59313261D01*
X191369000Y-59379944D01*
X191387131Y-59454779D01*
X191405467Y-59532142D01*
X191422661Y-59606411D01*
X191437369Y-59671961D01*
X191448244Y-59723170D01*
X191449595Y-59729859D01*
X191462369Y-59792969D01*
X191475491Y-59857573D01*
X191486319Y-59910670D01*
X191498495Y-59972102D01*
X191527890Y-60136769D01*
X191555004Y-60311399D01*
X191578960Y-60489182D01*
X191598881Y-60663305D01*
X191613891Y-60826956D01*
X191623112Y-60973324D01*
X191630079Y-61129729D01*
X191401915Y-61125880D01*
X191397325Y-61125801D01*
X191310597Y-61123815D01*
X191207773Y-61120734D01*
X191097205Y-61116849D01*
X190987246Y-61112453D01*
X190886250Y-61107838D01*
X190842306Y-61105953D01*
X190749904Y-61103098D01*
X190637045Y-61100652D01*
X190506578Y-61098614D01*
X190361353Y-61096983D01*
X190204222Y-61095758D01*
X190038033Y-61094938D01*
X189865636Y-61094521D01*
X189689883Y-61094507D01*
X189513622Y-61094894D01*
X189339705Y-61095682D01*
X189170980Y-61096869D01*
X189010298Y-61098454D01*
X188860509Y-61100436D01*
X188724463Y-61102814D01*
X188605010Y-61105587D01*
X188505000Y-61108754D01*
X188447700Y-61110934D01*
X188248345Y-61118866D01*
X188048163Y-61127336D01*
X187850843Y-61136166D01*
X187660073Y-61145179D01*
X187479541Y-61154197D01*
X187312934Y-61163042D01*
X187163941Y-61171537D01*
X187036250Y-61179505D01*
X186940622Y-61185803D01*
X186835432Y-61192706D01*
X186730644Y-61199562D01*
X186634440Y-61205835D01*
X186555000Y-61210989D01*
X186478128Y-61216010D01*
X186327407Y-61226235D01*
X186198664Y-61235567D01*
X186089843Y-61244164D01*
X185998891Y-61252185D01*
X185923750Y-61259789D01*
X185906979Y-61261610D01*
X185846289Y-61268033D01*
X185771483Y-61275779D01*
X185690494Y-61284032D01*
X185611250Y-61291973D01*
X185588563Y-61294234D01*
X185498328Y-61303431D01*
X185407031Y-61313106D01*
X185309922Y-61323788D01*
X185202255Y-61336006D01*
X185079281Y-61350289D01*
X184936250Y-61367166D01*
X184894625Y-61372108D01*
X184772372Y-61386679D01*
X184671047Y-61398865D01*
X184587651Y-61409045D01*
X184519188Y-61417597D01*
X184462659Y-61424899D01*
X184415067Y-61431330D01*
X184373414Y-61437269D01*
X184334702Y-61443093D01*
X184313720Y-61446213D01*
X184257249Y-61453602D01*
X184207840Y-61458742D01*
X184174286Y-61460670D01*
X184165712Y-61460884D01*
X184140247Y-61465066D01*
X184132084Y-61472903D01*
X184132311Y-61473405D01*
X184143295Y-61487745D01*
X184168314Y-61517091D01*
X184204699Y-61558409D01*
X184249782Y-61608667D01*
X184300896Y-61664831D01*
X184465541Y-61844526D01*
X184607146Y-61822463D01*
X184649981Y-61815887D01*
X184729857Y-61804093D01*
X184807423Y-61793178D01*
X184878199Y-61783730D01*
X184937707Y-61776340D01*
X184981467Y-61771597D01*
X185005000Y-61770091D01*
X185017033Y-61769459D01*
X185050791Y-61766290D01*
X185098820Y-61761038D01*
X185155000Y-61754346D01*
X185162939Y-61753369D01*
X185228888Y-61745464D01*
X185308931Y-61736144D01*
X185393680Y-61726491D01*
X185473750Y-61717587D01*
X185502764Y-61714409D01*
X185590929Y-61704741D01*
X185689929Y-61693872D01*
X185789655Y-61682914D01*
X185880000Y-61672975D01*
X185926375Y-61667891D01*
X186076196Y-61651817D01*
X186202417Y-61638889D01*
X186305965Y-61629017D01*
X186387768Y-61622112D01*
X186448750Y-61618085D01*
X186453257Y-61617845D01*
X186497304Y-61615095D01*
X186557826Y-61610860D01*
X186627436Y-61605671D01*
X186698750Y-61600061D01*
X186718037Y-61598502D01*
X186859804Y-61587211D01*
X186982376Y-61577820D01*
X187090822Y-61569993D01*
X187190211Y-61563388D01*
X187285611Y-61557669D01*
X187382091Y-61552496D01*
X187484719Y-61547530D01*
X187574327Y-61543144D01*
X187669431Y-61538064D01*
X187761013Y-61532789D01*
X187841920Y-61527732D01*
X187905000Y-61523304D01*
X187914109Y-61522621D01*
X188005573Y-61517028D01*
X188118874Y-61511951D01*
X188251780Y-61507393D01*
X188402063Y-61503354D01*
X188567492Y-61499837D01*
X188745836Y-61496841D01*
X188934867Y-61494369D01*
X189132354Y-61492422D01*
X189336067Y-61491001D01*
X189543776Y-61490108D01*
X189753251Y-61489744D01*
X189962261Y-61489910D01*
X190168578Y-61490609D01*
X190369971Y-61491841D01*
X190564210Y-61493607D01*
X190749065Y-61495909D01*
X190922306Y-61498749D01*
X191081703Y-61502127D01*
X191225026Y-61506046D01*
X191350045Y-61510506D01*
X191454530Y-61515509D01*
X191536250Y-61521057D01*
X191636250Y-61529420D01*
X191632380Y-61760670D01*
X191631092Y-61823333D01*
X191628787Y-61904099D01*
X191625990Y-61978607D01*
X191622940Y-62040608D01*
X191619880Y-62083857D01*
X191611250Y-62175794D01*
X191381764Y-62174379D01*
X191311537Y-62173638D01*
X191246099Y-62172321D01*
X191193211Y-62170586D01*
X191157025Y-62168573D01*
X191141688Y-62166418D01*
X191136574Y-62165637D01*
X191109183Y-62164350D01*
X191060347Y-62163213D01*
X190992350Y-62162223D01*
X190907473Y-62161383D01*
X190808000Y-62160690D01*
X190696214Y-62160146D01*
X190574398Y-62159750D01*
X190444835Y-62159501D01*
X190309808Y-62159401D01*
X190171599Y-62159449D01*
X190032492Y-62159644D01*
X189894770Y-62159987D01*
X189760715Y-62160477D01*
X189632611Y-62161114D01*
X189512740Y-62161899D01*
X189403385Y-62162831D01*
X189306830Y-62163910D01*
X189225358Y-62165136D01*
X189161250Y-62166509D01*
X189128084Y-62167387D01*
X189030953Y-62169970D01*
X188933834Y-62172567D01*
X188842973Y-62175008D01*
X188764613Y-62177128D01*
X188705000Y-62178758D01*
X188696600Y-62178995D01*
X188584152Y-62182913D01*
X188451756Y-62188669D01*
X188303991Y-62195988D01*
X188145433Y-62204594D01*
X187980660Y-62214213D01*
X187814248Y-62224568D01*
X187650774Y-62235384D01*
X187494815Y-62246387D01*
X187350948Y-62257301D01*
X187223750Y-62267850D01*
X187171783Y-62272326D01*
X187102566Y-62278047D01*
X187043128Y-62282685D01*
X186998510Y-62285850D01*
X186973750Y-62287155D01*
X186948968Y-62288438D01*
X186901205Y-62291951D01*
X186835101Y-62297374D01*
X186754065Y-62304406D01*
X186661505Y-62312744D01*
X186560827Y-62322086D01*
X186455440Y-62332131D01*
X186348750Y-62342575D01*
X186257860Y-62351627D01*
X186133655Y-62364156D01*
X186026455Y-62375267D01*
X185931457Y-62385529D01*
X185843857Y-62395511D01*
X185758854Y-62405784D01*
X185671644Y-62416917D01*
X185577425Y-62429479D01*
X185471395Y-62444040D01*
X185348750Y-62461170D01*
X185302932Y-62467285D01*
X185243025Y-62474590D01*
X185193130Y-62479972D01*
X185165570Y-62483079D01*
X185133712Y-62488187D01*
X185118741Y-62492762D01*
X185124734Y-62502643D01*
X185145891Y-62527323D01*
X185179621Y-62563875D01*
X185223269Y-62609426D01*
X185274181Y-62661101D01*
X185287709Y-62674677D01*
X185343952Y-62730916D01*
X185387806Y-62772160D01*
X185424073Y-62800208D01*
X185457556Y-62816858D01*
X185493058Y-62823909D01*
X185535381Y-62823158D01*
X185589328Y-62816404D01*
X185659702Y-62805446D01*
X185661208Y-62805212D01*
X185719407Y-62796751D01*
X185792903Y-62786855D01*
X185872438Y-62776734D01*
X185948750Y-62767602D01*
X185989597Y-62762907D01*
X186108878Y-62749212D01*
X186207790Y-62737892D01*
X186289758Y-62728565D01*
X186358207Y-62720849D01*
X186416559Y-62714364D01*
X186468241Y-62708727D01*
X186516675Y-62703557D01*
X186565287Y-62698472D01*
X186617500Y-62693092D01*
X186708389Y-62683923D01*
X187192612Y-62639857D01*
X187700082Y-62601476D01*
X188231171Y-62568753D01*
X188786250Y-62541663D01*
X188865291Y-62538778D01*
X188973077Y-62535817D01*
X189099465Y-62533114D01*
X189241731Y-62530680D01*
X189397151Y-62528528D01*
X189562999Y-62526667D01*
X189736549Y-62525109D01*
X189915078Y-62523865D01*
X190095861Y-62522946D01*
X190276172Y-62522363D01*
X190453286Y-62522127D01*
X190624478Y-62522250D01*
X190787024Y-62522742D01*
X190938199Y-62523614D01*
X191075277Y-62524878D01*
X191195534Y-62526545D01*
X191296245Y-62528626D01*
X191374684Y-62531131D01*
X191580000Y-62539546D01*
X191580001Y-62570434D01*
X191578219Y-62594697D01*
X191572532Y-62640933D01*
X191563649Y-62703176D01*
X191552302Y-62776924D01*
X191539221Y-62857675D01*
X191525136Y-62940927D01*
X191510780Y-63022178D01*
X191496883Y-63096926D01*
X191484175Y-63160670D01*
X191482281Y-63169527D01*
X191471521Y-63213744D01*
X191461423Y-63246463D01*
X191453953Y-63261147D01*
X191440870Y-63262492D01*
X191407436Y-63261359D01*
X191359435Y-63257729D01*
X191302297Y-63251933D01*
X191290080Y-63250571D01*
X191163717Y-63238259D01*
X191016152Y-63226593D01*
X190850808Y-63215686D01*
X190671108Y-63205654D01*
X190480475Y-63196612D01*
X190282332Y-63188675D01*
X190080102Y-63181957D01*
X189877209Y-63176575D01*
X189677075Y-63172642D01*
X189483124Y-63170273D01*
X189298778Y-63169584D01*
X189127462Y-63170690D01*
X188972598Y-63173705D01*
X188844842Y-63177347D01*
X188700668Y-63181749D01*
X188562234Y-63186276D01*
X188431679Y-63190842D01*
X188311141Y-63195358D01*
X188202761Y-63199739D01*
X188108676Y-63203897D01*
X188031026Y-63207745D01*
X187971950Y-63211197D01*
X187933587Y-63214165D01*
X187918077Y-63216563D01*
X187916323Y-63217257D01*
X187895257Y-63220163D01*
X187857494Y-63222477D01*
X187809803Y-63223751D01*
X187786672Y-63224338D01*
X187728946Y-63227049D01*
X187657087Y-63231498D01*
X187578041Y-63237237D01*
X187498750Y-63243817D01*
X187447555Y-63248246D01*
X187377212Y-63253932D01*
X187316111Y-63258414D01*
X187269469Y-63261316D01*
X187242500Y-63262264D01*
X187232107Y-63262537D01*
X187194653Y-63265194D01*
X187140610Y-63270228D01*
X187075539Y-63277102D01*
X187005000Y-63285276D01*
X186998134Y-63286106D01*
X186909267Y-63296702D01*
X186810597Y-63308251D01*
X186713662Y-63319412D01*
X186630000Y-63328845D01*
X186616155Y-63330389D01*
X186541952Y-63338876D01*
X186469627Y-63347460D01*
X186406840Y-63355218D01*
X186361250Y-63361227D01*
X186316235Y-63367088D01*
X186252051Y-63374409D01*
X186196303Y-63379733D01*
X186160232Y-63383418D01*
X186118510Y-63389655D01*
X186091486Y-63396098D01*
X186089898Y-63396692D01*
X186077403Y-63403336D01*
X186077508Y-63412472D01*
X186092630Y-63428336D01*
X186125184Y-63455163D01*
X186129253Y-63458440D01*
X186170674Y-63492880D01*
X186219561Y-63534895D01*
X186266183Y-63576136D01*
X186298996Y-63605102D01*
X186328307Y-63627209D01*
X186356481Y-63640875D01*
X186388692Y-63647043D01*
X186430109Y-63646657D01*
X186485905Y-63640661D01*
X186561250Y-63629998D01*
X186600793Y-63624458D01*
X186655718Y-63617425D01*
X186720084Y-63609881D01*
X186796468Y-63601556D01*
X186887449Y-63592178D01*
X186995604Y-63581476D01*
X187123512Y-63569180D01*
X187273750Y-63555017D01*
X187339281Y-63549073D01*
X187585757Y-63529635D01*
X187851296Y-63512791D01*
X188131364Y-63498652D01*
X188421425Y-63487331D01*
X188716944Y-63478940D01*
X189013385Y-63473591D01*
X189306214Y-63471394D01*
X189590894Y-63472464D01*
X189862892Y-63476910D01*
X190117671Y-63484845D01*
X190215512Y-63488876D01*
X190382930Y-63496450D01*
X190543735Y-63504562D01*
X190696091Y-63513075D01*
X190838159Y-63521852D01*
X190968103Y-63530759D01*
X191084086Y-63539657D01*
X191184269Y-63548412D01*
X191266815Y-63556886D01*
X191329887Y-63564943D01*
X191371648Y-63572447D01*
X191390260Y-63579262D01*
X191391202Y-63583002D01*
X191388690Y-63604907D01*
X191380757Y-63638346D01*
X191378212Y-63647527D01*
X191365811Y-63694271D01*
X191355556Y-63735670D01*
X191353517Y-63744264D01*
X191339425Y-63798711D01*
X191320936Y-63864380D01*
X191299311Y-63937357D01*
X191275812Y-64013725D01*
X191251699Y-64089570D01*
X191228234Y-64160976D01*
X191206678Y-64224030D01*
X191188292Y-64274814D01*
X191174336Y-64309416D01*
X191166072Y-64323918D01*
X191165038Y-64324930D01*
X191155392Y-64342848D01*
X191139721Y-64378807D01*
X191119955Y-64428200D01*
X191098023Y-64486418D01*
X191090428Y-64507007D01*
X191047848Y-64618215D01*
X190999061Y-64739836D01*
X190946173Y-64867025D01*
X190891287Y-64994937D01*
X190836508Y-65118728D01*
X190783940Y-65233552D01*
X190735688Y-65334564D01*
X190693856Y-65416920D01*
X190689777Y-65424595D01*
X190634604Y-65527171D01*
X190578407Y-65629578D01*
X190524280Y-65726289D01*
X190475313Y-65811775D01*
X190434596Y-65880510D01*
X190380760Y-65969101D01*
X190258505Y-65992436D01*
X190142181Y-66008276D01*
X189999856Y-66015039D01*
X189844882Y-66011257D01*
X189682387Y-65997065D01*
X189517500Y-65972602D01*
X189496332Y-65968677D01*
X189387343Y-65945336D01*
X189273062Y-65916377D01*
X189161018Y-65883950D01*
X189058738Y-65850205D01*
X188973750Y-65817292D01*
X188946833Y-65806545D01*
X188902971Y-65790281D01*
X188855000Y-65773408D01*
X188829840Y-65764682D01*
X188799470Y-65753553D01*
X188768327Y-65741166D01*
X188733327Y-65726104D01*
X188691385Y-65706953D01*
X188639416Y-65682296D01*
X188574336Y-65650717D01*
X188493059Y-65610801D01*
X188392500Y-65561132D01*
X188371689Y-65550793D01*
X188288678Y-65508761D01*
X188206687Y-65466118D01*
X188131094Y-65425727D01*
X188067276Y-65390450D01*
X188020609Y-65363149D01*
X187949720Y-65319636D01*
X187889909Y-65283363D01*
X187841810Y-65254836D01*
X187800549Y-65231164D01*
X187761250Y-65209461D01*
X187750596Y-65203547D01*
X187704699Y-65176281D01*
X187661250Y-65148329D01*
X187650072Y-65140751D01*
X187610697Y-65114209D01*
X187561743Y-65081347D01*
X187511250Y-65047568D01*
X187406910Y-64977686D01*
X187311237Y-64913070D01*
X187235404Y-64861159D01*
X187178787Y-64821525D01*
X187140766Y-64793737D01*
X187120718Y-64777364D01*
X187113043Y-64770614D01*
X187084718Y-64748213D01*
X187044777Y-64718373D01*
X186999280Y-64685670D01*
X186975658Y-64668919D01*
X186934758Y-64639435D01*
X186903676Y-64616394D01*
X186887758Y-64603724D01*
X186883456Y-64599974D01*
X186860045Y-64582024D01*
X186828810Y-64559974D01*
X186816428Y-64551331D01*
X186774972Y-64520519D01*
X186735060Y-64488753D01*
X186731871Y-64486110D01*
X186700926Y-64461113D01*
X186656448Y-64425857D01*
X186603902Y-64384654D01*
X186548750Y-64341811D01*
X186494411Y-64299417D01*
X186341064Y-64176165D01*
X186174359Y-64037397D01*
X185996813Y-63885260D01*
X185810947Y-63721901D01*
X185619278Y-63549468D01*
X185574857Y-63508500D01*
X185513330Y-63450838D01*
X185439559Y-63381052D01*
X185356416Y-63301908D01*
X185266776Y-63216171D01*
X185173513Y-63126605D01*
X185079499Y-63035976D01*
X184987608Y-62947050D01*
X184900714Y-62862591D01*
X184821691Y-62785365D01*
X184753412Y-62718136D01*
X184698750Y-62663670D01*
X184663439Y-62628103D01*
X184581997Y-62545705D01*
X184497565Y-62459840D01*
X184412013Y-62372441D01*
X184327205Y-62285442D01*
X184245010Y-62200777D01*
X184167295Y-62120379D01*
X184095926Y-62046184D01*
X184032771Y-61980124D01*
X183979696Y-61924134D01*
X183938570Y-61880147D01*
X183911258Y-61850098D01*
X183899628Y-61835921D01*
X183896878Y-61831922D01*
X183878815Y-61810062D01*
X183847257Y-61774233D01*
X183804919Y-61727448D01*
X183754512Y-61672715D01*
X183698750Y-61613046D01*
X183636611Y-61546455D01*
X183563468Y-61466986D01*
X183490020Y-61386223D01*
X183422130Y-61310616D01*
X183365665Y-61246618D01*
X183336170Y-61212758D01*
X183278232Y-61146312D01*
X183220695Y-61080400D01*
X183168895Y-61021130D01*
X183128165Y-60974613D01*
X183101095Y-60943541D01*
X183056638Y-60891764D01*
X183016271Y-60843931D01*
X182986250Y-60807413D01*
X182977667Y-60796822D01*
X182941872Y-60753967D01*
X182899073Y-60704101D01*
X182856750Y-60655970D01*
X182843817Y-60641371D01*
X182801042Y-60591807D01*
X182760566Y-60543254D01*
X182729688Y-60504420D01*
X182706007Y-60474315D01*
X182664764Y-60424539D01*
X182625299Y-60379420D01*
X182596759Y-60346632D01*
X182569373Y-60312224D01*
X182552938Y-60287981D01*
X182547862Y-60279275D01*
X182544212Y-60271285D01*
X182544779Y-60262964D01*
X182551772Y-60252155D01*
X182567398Y-60236700D01*
X182593865Y-60214444D01*
X182633380Y-60183229D01*
X182688150Y-60140899D01*
X182760384Y-60085296D01*
X182761967Y-60084076D01*
X182817933Y-60039274D01*
X182861769Y-60000936D01*
X182890673Y-59971660D01*
X182901845Y-59954046D01*
X182900225Y-59941654D01*
X182886952Y-59911341D01*
X182864345Y-59876994D01*
X182850014Y-59858490D01*
X182760099Y-59742594D01*
X182679065Y-59638496D01*
X182607965Y-59547537D01*
X182547855Y-59471058D01*
X182499786Y-59410402D01*
X182464814Y-59366908D01*
X182443992Y-59341920D01*
X182434049Y-59329789D01*
X182409879Y-59297634D01*
X182383698Y-59260458D01*
X182363168Y-59231950D01*
X182326664Y-59185252D01*
X182289873Y-59141708D01*
X182259668Y-59106669D01*
X182217249Y-59055146D01*
X182179094Y-59006596D01*
X182174922Y-59001106D01*
X182092327Y-58892475D01*
X182023164Y-58801843D01*
X181965803Y-58727399D01*
X181918615Y-58667329D01*
X181879969Y-58619821D01*
X181848238Y-58583060D01*
X181821790Y-58555236D01*
X181798997Y-58534534D01*
X181778229Y-58519142D01*
X181757856Y-58507246D01*
X181736249Y-58497035D01*
X181711779Y-58486694D01*
X181705143Y-58483920D01*
X181644215Y-58457768D01*
X181576025Y-58427596D01*
X181514121Y-58399391D01*
X181503250Y-58394370D01*
X181443221Y-58367585D01*
X181382415Y-58341713D01*
X181332478Y-58321733D01*
X181330801Y-58321097D01*
X181288157Y-58302924D01*
X181256211Y-58282701D01*
X181226941Y-58254068D01*
X181192324Y-58210670D01*
X181177271Y-58190788D01*
X181132836Y-58132432D01*
X181081425Y-58065271D01*
X181026726Y-57994086D01*
X180972423Y-57923662D01*
X180922202Y-57858782D01*
X180879749Y-57804229D01*
X180848750Y-57764787D01*
X180843326Y-57757940D01*
X180809085Y-57714369D01*
X180768771Y-57662661D01*
X180730000Y-57612580D01*
X180714909Y-57593283D01*
X180685487Y-57557416D01*
X180663164Y-57532579D01*
X180651875Y-57523269D01*
X180648398Y-57522097D01*
X180642500Y-57507340D01*
X180642367Y-57506159D01*
X180632539Y-57487942D01*
X180610205Y-57458275D01*
X180579689Y-57422965D01*
X180557332Y-57398189D01*
X180486984Y-57316114D01*
X180418035Y-57230239D01*
X180358936Y-57150977D01*
X180344907Y-57131777D01*
X180312121Y-57089929D01*
X180282793Y-57055851D01*
X180277802Y-57050435D01*
X180253876Y-57023016D01*
X180222828Y-56985287D01*
X180182714Y-56934807D01*
X180131586Y-56869137D01*
X180067500Y-56785835D01*
X180058226Y-56773755D01*
X180020503Y-56724879D01*
X179977302Y-56669191D01*
X179936250Y-56616533D01*
X179877153Y-56540944D01*
X179829441Y-56479850D01*
X179792002Y-56431801D01*
X179762233Y-56393442D01*
X179737531Y-56361420D01*
X179715294Y-56332382D01*
X179692920Y-56302974D01*
X179661392Y-56261987D01*
X179626734Y-56217931D01*
X179599170Y-56183904D01*
X179590018Y-56172917D01*
X179559770Y-56136597D01*
X179534759Y-56106551D01*
X179534478Y-56106213D01*
X179513633Y-56079081D01*
X179500450Y-56058317D01*
X179499485Y-56056520D01*
X179485742Y-56036704D01*
X179461246Y-56004842D01*
X179430575Y-55966920D01*
X179412648Y-55944929D01*
X179375557Y-55898594D01*
X179326666Y-55836906D01*
X179268012Y-55762471D01*
X179201628Y-55677899D01*
X179129551Y-55585796D01*
X179053815Y-55488772D01*
X178976455Y-55389435D01*
X178899507Y-55290392D01*
X178825006Y-55194251D01*
X178754987Y-55103621D01*
X178691484Y-55021110D01*
X178636534Y-54949326D01*
X178624503Y-54933626D01*
X178590771Y-54890153D01*
X178554560Y-54844080D01*
X178519432Y-54799878D01*
X178488952Y-54762013D01*
X178466681Y-54734954D01*
X178456184Y-54723170D01*
X178456126Y-54723123D01*
X178444847Y-54710421D01*
X178423290Y-54683517D01*
X178396070Y-54648170D01*
X178368428Y-54612158D01*
X178341956Y-54578602D01*
X178324502Y-54557544D01*
X178312507Y-54541840D01*
X178305000Y-54525107D01*
X178297852Y-54511454D01*
X178278589Y-54490732D01*
X178259522Y-54470923D01*
X178230577Y-54437108D01*
X178199626Y-54398170D01*
X178195739Y-54393090D01*
X178164336Y-54352249D01*
X178120356Y-54295283D01*
X178066183Y-54225268D01*
X178004204Y-54145280D01*
X177936802Y-54058397D01*
X177866363Y-53967694D01*
X177795273Y-53876248D01*
X177725917Y-53787136D01*
X177705182Y-53760474D01*
X177659456Y-53701418D01*
X177617224Y-53646549D01*
X177582454Y-53601036D01*
X177559119Y-53570045D01*
X177538735Y-53544067D01*
X177516781Y-53519969D01*
X177503828Y-53510670D01*
X177498940Y-53508925D01*
X177492500Y-53492961D01*
X177491685Y-53485473D01*
X177482929Y-53471086D01*
X177476703Y-53465831D01*
X177458419Y-53444769D01*
X177434912Y-53414028D01*
X177421855Y-53396970D01*
X177390655Y-53361059D01*
X177363203Y-53334972D01*
X177344067Y-53324577D01*
X177304078Y-53307274D01*
X177247441Y-53284796D01*
X177177835Y-53258443D01*
X177098938Y-53229512D01*
X177014428Y-53199303D01*
X176927982Y-53169113D01*
X176843278Y-53140242D01*
X176763994Y-53113987D01*
X176693808Y-53091647D01*
X176636397Y-53074521D01*
X176595441Y-53063907D01*
X176576812Y-53057838D01*
X176560328Y-53046677D01*
X176551806Y-53040400D01*
X176527691Y-53035670D01*
X176517021Y-53034349D01*
X176483712Y-53026613D01*
X176437173Y-53013497D01*
X176383983Y-52996782D01*
X176350363Y-52985927D01*
X176306113Y-52972488D01*
X176275073Y-52964155D01*
X176262469Y-52962407D01*
X176262181Y-52963194D01*
X176262101Y-52980572D01*
X176264390Y-53015212D01*
X176268642Y-53060670D01*
X176268841Y-53062592D01*
X176273839Y-53124165D01*
X176277656Y-53195186D01*
X176279479Y-53260670D01*
X176279539Y-53265644D01*
X176281853Y-53329163D01*
X176286503Y-53394469D01*
X176292557Y-53448170D01*
X176295605Y-53472232D01*
X176300913Y-53525495D01*
X176306586Y-53593394D01*
X176312119Y-53669696D01*
X176317001Y-53748170D01*
X176322298Y-53833058D01*
X176330368Y-53932377D01*
X176339529Y-54010950D01*
X176350156Y-54071258D01*
X176362624Y-54115783D01*
X176377309Y-54147004D01*
X176377791Y-54147767D01*
X176395938Y-54173951D01*
X176425580Y-54214188D01*
X176462738Y-54263271D01*
X176503432Y-54315995D01*
X176543682Y-54367153D01*
X176579510Y-54411538D01*
X176604476Y-54442643D01*
X176638355Y-54485959D01*
X176672334Y-54530288D01*
X176694424Y-54559362D01*
X176771833Y-54659632D01*
X176854754Y-54764446D01*
X176948750Y-54880860D01*
X176988921Y-54930827D01*
X177028626Y-54981381D01*
X177061498Y-55024420D01*
X177082985Y-55054070D01*
X177105146Y-55084976D01*
X177139116Y-55129517D01*
X177174139Y-55173170D01*
X177220968Y-55229821D01*
X177260399Y-55277838D01*
X177289760Y-55314137D01*
X177312184Y-55342643D01*
X177330803Y-55367282D01*
X177348750Y-55391978D01*
X177380131Y-55434611D01*
X177429658Y-55499273D01*
X177483013Y-55566704D01*
X177533123Y-55627855D01*
X177543509Y-55640449D01*
X177578935Y-55685427D01*
X177611250Y-55728851D01*
X177620072Y-55741054D01*
X177649580Y-55780850D01*
X177686113Y-55829188D01*
X177723750Y-55878207D01*
X177740194Y-55899434D01*
X177776982Y-55946964D01*
X177809565Y-55989104D01*
X177832385Y-56018672D01*
X177835162Y-56022278D01*
X177899274Y-56105349D01*
X177950939Y-56171847D01*
X177992732Y-56224979D01*
X178027226Y-56267956D01*
X178056997Y-56303986D01*
X178084618Y-56336279D01*
X178112666Y-56368044D01*
X178137056Y-56396135D01*
X178180213Y-56448045D01*
X178227050Y-56506326D01*
X178270986Y-56562878D01*
X178310025Y-56613983D01*
X178362702Y-56682493D01*
X178417545Y-56753449D01*
X178467500Y-56817703D01*
X178476882Y-56829731D01*
X178516761Y-56881097D01*
X178551642Y-56926378D01*
X178578047Y-56961045D01*
X178592500Y-56980569D01*
X178599072Y-56989640D01*
X178621071Y-57018939D01*
X178651633Y-57058910D01*
X178686250Y-57103634D01*
X178703060Y-57125541D01*
X178737568Y-57172434D01*
X178766241Y-57213856D01*
X178784155Y-57242809D01*
X178788503Y-57250365D01*
X178808677Y-57275518D01*
X178826863Y-57285669D01*
X178836015Y-57286805D01*
X178838915Y-57293421D01*
X178840138Y-57300295D01*
X178853218Y-57323653D01*
X178877042Y-57358871D01*
X178908707Y-57401456D01*
X178926223Y-57424164D01*
X178965646Y-57475611D01*
X179001906Y-57523334D01*
X179028910Y-57559329D01*
X179047429Y-57583887D01*
X179068357Y-57610379D01*
X179079789Y-57623170D01*
X179089374Y-57633763D01*
X179111686Y-57660656D01*
X179143488Y-57699903D01*
X179181745Y-57747695D01*
X179223424Y-57800221D01*
X179265487Y-57853671D01*
X179304901Y-57904235D01*
X179338630Y-57948103D01*
X179363523Y-57980776D01*
X179418233Y-58052244D01*
X179461018Y-58107501D01*
X179494051Y-58149310D01*
X179519505Y-58180434D01*
X179539551Y-58203635D01*
X179542887Y-58207407D01*
X179572566Y-58244066D01*
X179597591Y-58279420D01*
X179602559Y-58287036D01*
X179628797Y-58323793D01*
X179657732Y-58360670D01*
X179671045Y-58376921D01*
X179701373Y-58414674D01*
X179738489Y-58461447D01*
X179777163Y-58510670D01*
X179804829Y-58545607D01*
X179835812Y-58583482D01*
X179858765Y-58610066D01*
X179870093Y-58621086D01*
X179873891Y-58623996D01*
X179880000Y-58642340D01*
X179881406Y-58650212D01*
X179895963Y-58669423D01*
X179905925Y-58678086D01*
X179928574Y-58702845D01*
X179955245Y-58735670D01*
X179973982Y-58759270D01*
X179995750Y-58784583D01*
X180008033Y-58796086D01*
X180010108Y-58797320D01*
X180017500Y-58813426D01*
X180018168Y-58816099D01*
X180029722Y-58835692D01*
X180052666Y-58867188D01*
X180083125Y-58905172D01*
X180119882Y-58949337D01*
X180161844Y-59000766D01*
X180191814Y-59039717D01*
X180212331Y-59070061D01*
X180225937Y-59095671D01*
X180235172Y-59120416D01*
X180242575Y-59148170D01*
X180249051Y-59176869D01*
X180256033Y-59213621D01*
X180258511Y-59235670D01*
X180258504Y-59236036D01*
X180260780Y-59257819D01*
X180266997Y-59295775D01*
X180275851Y-59341920D01*
X180284658Y-59388967D01*
X180293634Y-59445867D01*
X180299182Y-59491920D01*
X180300839Y-59511135D01*
X180306978Y-59579089D01*
X180313554Y-59629578D01*
X180323080Y-59668584D01*
X180338068Y-59702090D01*
X180361031Y-59736076D01*
X180394480Y-59776525D01*
X180440928Y-59829420D01*
X180441485Y-59830056D01*
X180460332Y-59853211D01*
X180487869Y-59888811D01*
X180518341Y-59929420D01*
X180521300Y-59933421D01*
X180549758Y-59971575D01*
X180573004Y-60002185D01*
X180586250Y-60018943D01*
X180599694Y-60035225D01*
X180627254Y-60069556D01*
X180664561Y-60116545D01*
X180708591Y-60172342D01*
X180756319Y-60233097D01*
X180804723Y-60294959D01*
X180850778Y-60354079D01*
X180891462Y-60406607D01*
X180923750Y-60448693D01*
X180946343Y-60478180D01*
X180987087Y-60530756D01*
X181024287Y-60578151D01*
X181053559Y-60615619D01*
X181093542Y-60667806D01*
X181130466Y-60716920D01*
X181134574Y-60722448D01*
X181161797Y-60758657D01*
X181182689Y-60785732D01*
X181193013Y-60798170D01*
X181193929Y-60799106D01*
X181206662Y-60814529D01*
X181229453Y-60843539D01*
X181258073Y-60880769D01*
X181312577Y-60951124D01*
X181357189Y-61005847D01*
X181395625Y-61049482D01*
X181409760Y-61067767D01*
X181417500Y-61085670D01*
X181417560Y-61087248D01*
X181427538Y-61098381D01*
X181451734Y-61094515D01*
X181485982Y-61077111D01*
X181526115Y-61047626D01*
X181554169Y-61024054D01*
X181589868Y-60994076D01*
X181615437Y-60972626D01*
X181638450Y-60955425D01*
X181653167Y-60948169D01*
X181664963Y-60941853D01*
X181690657Y-60923397D01*
X181723980Y-60897052D01*
X181753587Y-60872754D01*
X181792968Y-60840450D01*
X181823035Y-60815802D01*
X181827630Y-60812195D01*
X181859316Y-60793349D01*
X181886309Y-60785670D01*
X181910097Y-60795352D01*
X181936854Y-60819394D01*
X181958555Y-60849210D01*
X181967500Y-60876212D01*
X181968769Y-60880678D01*
X181982360Y-60902569D01*
X182007676Y-60935291D01*
X182040769Y-60973593D01*
X182042300Y-60975283D01*
X182172832Y-61121852D01*
X182292500Y-61261250D01*
X182324461Y-61299252D01*
X182370045Y-61353270D01*
X182403800Y-61392954D01*
X182428389Y-61421425D01*
X182446471Y-61441804D01*
X182449255Y-61444929D01*
X182470414Y-61469714D01*
X182500505Y-61505919D01*
X182533971Y-61546871D01*
X182535571Y-61548843D01*
X182574807Y-61596532D01*
X182615650Y-61645116D01*
X182649508Y-61684371D01*
X182670734Y-61708824D01*
X182712087Y-61757853D01*
X182749508Y-61803673D01*
X182772656Y-61832238D01*
X182804148Y-61869878D01*
X182828333Y-61897423D01*
X182828702Y-61897823D01*
X182851472Y-61924325D01*
X182882420Y-61962569D01*
X182914960Y-62004420D01*
X182947741Y-62046331D01*
X182988008Y-62095627D01*
X183022878Y-62136227D01*
X183063955Y-62182382D01*
X183101354Y-62225472D01*
X183127280Y-62257162D01*
X183144809Y-62281243D01*
X183157019Y-62301503D01*
X183176360Y-62331113D01*
X183210521Y-62375025D01*
X183260364Y-62434221D01*
X183326875Y-62509910D01*
X183352103Y-62539397D01*
X183372269Y-62565565D01*
X183380000Y-62579318D01*
X183384110Y-62587878D01*
X183401136Y-62610933D01*
X183426875Y-62641089D01*
X183460556Y-62680198D01*
X183499502Y-62729468D01*
X183545308Y-62791336D01*
X183601222Y-62870070D01*
X183618037Y-62893256D01*
X183639936Y-62920881D01*
X183653570Y-62934785D01*
X183656460Y-62937275D01*
X183672643Y-62956470D01*
X183697214Y-62989261D01*
X183726098Y-63030284D01*
X183761644Y-63081746D01*
X183813002Y-63153927D01*
X183852342Y-63206004D01*
X183879340Y-63237558D01*
X183893673Y-63248170D01*
X183898008Y-63249402D01*
X183905000Y-63264267D01*
X183906442Y-63270395D01*
X183919586Y-63294116D01*
X183941992Y-63323642D01*
X183952432Y-63336328D01*
X183971725Y-63363047D01*
X183979708Y-63379420D01*
X183979755Y-63379896D01*
X183989273Y-63396970D01*
X184009991Y-63419936D01*
X184036547Y-63451602D01*
X184059096Y-63488686D01*
X184069165Y-63506171D01*
X184096460Y-63543251D01*
X184128911Y-63579420D01*
X184149804Y-63601090D01*
X184171152Y-63625884D01*
X184179589Y-63639629D01*
X184180439Y-63642860D01*
X184191527Y-63662789D01*
X184211250Y-63690808D01*
X184218235Y-63700183D01*
X184235563Y-63725883D01*
X184242500Y-63740342D01*
X184248634Y-63752203D01*
X184266641Y-63778210D01*
X184292366Y-63811989D01*
X184315307Y-63842618D01*
X184343470Y-63884459D01*
X184362540Y-63917872D01*
X184366184Y-63925197D01*
X184382033Y-63950464D01*
X184394234Y-63960670D01*
X184404363Y-63967235D01*
X184417780Y-63988795D01*
X184434313Y-64022157D01*
X184453375Y-64053915D01*
X184468508Y-64073170D01*
X184469685Y-64074314D01*
X184483685Y-64092156D01*
X184507091Y-64125100D01*
X184536464Y-64168008D01*
X184568364Y-64215744D01*
X184599353Y-64263171D01*
X184625992Y-64305153D01*
X184644842Y-64336552D01*
X184657983Y-64358690D01*
X184690369Y-64408593D01*
X184722967Y-64454242D01*
X184742101Y-64480487D01*
X184760421Y-64508868D01*
X184767500Y-64524650D01*
X184774407Y-64540369D01*
X184792492Y-64563540D01*
X184812590Y-64589609D01*
X184833044Y-64625518D01*
X184833251Y-64625984D01*
X184846918Y-64650497D01*
X184858052Y-64660670D01*
X184860630Y-64661177D01*
X184867500Y-64674004D01*
X184868215Y-64677772D01*
X184879040Y-64699460D01*
X184898750Y-64728308D01*
X184905535Y-64737473D01*
X184923010Y-64764302D01*
X184930026Y-64780599D01*
X184930312Y-64782202D01*
X184939176Y-64800892D01*
X184957938Y-64833186D01*
X184983200Y-64873170D01*
X184985376Y-64876502D01*
X185019491Y-64929911D01*
X185057710Y-64991346D01*
X185092165Y-65048170D01*
X185102865Y-65066007D01*
X185127547Y-65106066D01*
X185146457Y-65135235D01*
X185156173Y-65148170D01*
X185164249Y-65157984D01*
X185180361Y-65184717D01*
X185197800Y-65218188D01*
X185211777Y-65249041D01*
X185217500Y-65267922D01*
X185223626Y-65282584D01*
X185242206Y-65304153D01*
X185257331Y-65321626D01*
X185261183Y-65335779D01*
X185261210Y-65341403D01*
X185270938Y-65363331D01*
X185290208Y-65393483D01*
X185290832Y-65394356D01*
X185314417Y-65430830D01*
X185342669Y-65479263D01*
X185369610Y-65529420D01*
X185369845Y-65529881D01*
X185396666Y-65581544D01*
X185424110Y-65632998D01*
X185446270Y-65673170D01*
X185454567Y-65688031D01*
X185481256Y-65738434D01*
X185504595Y-65785670D01*
X185512509Y-65802232D01*
X185532936Y-65842590D01*
X185549886Y-65873170D01*
X185550870Y-65874807D01*
X185569313Y-65909352D01*
X185587235Y-65948170D01*
X185589320Y-65953074D01*
X185604894Y-65986838D01*
X185617770Y-66010670D01*
X185623110Y-66019755D01*
X185640336Y-66052641D01*
X185664466Y-66101291D01*
X185693275Y-66161016D01*
X185724535Y-66227130D01*
X185756019Y-66294943D01*
X185785501Y-66359769D01*
X185810753Y-66416920D01*
X185814597Y-66425806D01*
X185829877Y-66461147D01*
X185850418Y-66508675D01*
X185872883Y-66560670D01*
X185882773Y-66583435D01*
X185903620Y-66630596D01*
X185920560Y-66667839D01*
X185930642Y-66688625D01*
X185936692Y-66702363D01*
X185942500Y-66729250D01*
X185943621Y-66737997D01*
X185952330Y-66748170D01*
X185953513Y-66748656D01*
X185963122Y-66763758D01*
X185977133Y-66795734D01*
X185992955Y-66838795D01*
X185995896Y-66847384D01*
X186011232Y-66890072D01*
X186023732Y-66921601D01*
X186030926Y-66935670D01*
X186034274Y-66941204D01*
X186043589Y-66965603D01*
X186054425Y-67001295D01*
X186060743Y-67021823D01*
X186072345Y-67049728D01*
X186081625Y-67060670D01*
X186083048Y-67061045D01*
X186089768Y-67075496D01*
X186092500Y-67104420D01*
X186092596Y-67110148D01*
X186096265Y-67137177D01*
X186103609Y-67148170D01*
X186105227Y-67148592D01*
X186114767Y-67163167D01*
X186122953Y-67192067D01*
X186124957Y-67201500D01*
X186134931Y-67240035D01*
X186149623Y-67290739D01*
X186166632Y-67345192D01*
X186172845Y-67364655D01*
X186189354Y-67419433D01*
X186202666Y-67467867D01*
X186210355Y-67501295D01*
X186212083Y-67509926D01*
X186220972Y-67537184D01*
X186230567Y-67548170D01*
X186236436Y-67550788D01*
X186242500Y-67568286D01*
X186244161Y-67581590D01*
X186250743Y-67615996D01*
X186261172Y-67664116D01*
X186274197Y-67719963D01*
X186313446Y-67896798D01*
X186345096Y-68070970D01*
X186366382Y-68229420D01*
X186367511Y-68240465D01*
X186373054Y-68307793D01*
X186377198Y-68380682D01*
X186379853Y-68454049D01*
X186380930Y-68522815D01*
X186380340Y-68581899D01*
X186377993Y-68626220D01*
X186373799Y-68650696D01*
X186370513Y-68663290D01*
X186372812Y-68684152D01*
X186374097Y-68691204D01*
X186373182Y-68719483D01*
X186368702Y-68762869D01*
X186361193Y-68815318D01*
X186356366Y-68846178D01*
X186349549Y-68893681D01*
X186345368Y-68928384D01*
X186344587Y-68944362D01*
X186344669Y-68953385D01*
X186340187Y-68982491D01*
X186331513Y-69022983D01*
X186320464Y-69067680D01*
X186308856Y-69109403D01*
X186298508Y-69140970D01*
X186291236Y-69155201D01*
X186284433Y-69165219D01*
X186280000Y-69190434D01*
X186277714Y-69202272D01*
X186265723Y-69235098D01*
X186246179Y-69279383D01*
X186222173Y-69328854D01*
X186196793Y-69377240D01*
X186173131Y-69418266D01*
X186154276Y-69445660D01*
X186137724Y-69468809D01*
X186118577Y-69501351D01*
X186112426Y-69510837D01*
X186096563Y-69526032D01*
X186071225Y-69542024D01*
X186033984Y-69559833D01*
X185982417Y-69580474D01*
X185914098Y-69604965D01*
X185826601Y-69634324D01*
X185717500Y-69669567D01*
X185540788Y-69724436D01*
X185307221Y-69791630D01*
X185079062Y-69850505D01*
X184851257Y-69902104D01*
X184618752Y-69947470D01*
X184376494Y-69987648D01*
X184119428Y-70023679D01*
X183842500Y-70056607D01*
X183836336Y-70057269D01*
X183757323Y-70063792D01*
X183657782Y-70069227D01*
X183541506Y-70073571D01*
X183412285Y-70076824D01*
X183273913Y-70078985D01*
X183130180Y-70080054D01*
X182984880Y-70080030D01*
X182841803Y-70078912D01*
X182704743Y-70076700D01*
X182577490Y-70073393D01*
X182463838Y-70068989D01*
X182367577Y-70063490D01*
X182292500Y-70056892D01*
X182168597Y-70042481D01*
X182051256Y-70027673D01*
X181953220Y-70013684D01*
X181871521Y-69999960D01*
X181803192Y-69985947D01*
X181745266Y-69971090D01*
X181694774Y-69954835D01*
X181648750Y-69936627D01*
X181636688Y-69931748D01*
X181602226Y-69918928D01*
X181561250Y-69904562D01*
X181540637Y-69897360D01*
X181495205Y-69880417D01*
X181459361Y-69865740D01*
X181455788Y-69864161D01*
X181427738Y-69852816D01*
X181411801Y-69848170D01*
X181407075Y-69847123D01*
X181384206Y-69838686D01*
X181351190Y-69824554D01*
X181313912Y-69808394D01*
X181263154Y-69787265D01*
X181211250Y-69766335D01*
X181186524Y-69756019D01*
X181132301Y-69731744D01*
X181063300Y-69699566D01*
X180984048Y-69661693D01*
X180899072Y-69620337D01*
X180812901Y-69577708D01*
X180730064Y-69536016D01*
X180655087Y-69497473D01*
X180592500Y-69464287D01*
X180587562Y-69461598D01*
X180527125Y-69427456D01*
X180456333Y-69385716D01*
X180380535Y-69339703D01*
X180305080Y-69292741D01*
X180235316Y-69248155D01*
X180176591Y-69209271D01*
X180134254Y-69179412D01*
X180072184Y-69132721D01*
X180000134Y-69077586D01*
X179940178Y-69030077D01*
X179887529Y-68986168D01*
X179837399Y-68941835D01*
X179785002Y-68893052D01*
X179725548Y-68835793D01*
X179718237Y-68828657D01*
X179564583Y-68666823D01*
X179434969Y-68505409D01*
X179328538Y-68343114D01*
X179244431Y-68178635D01*
X179181791Y-68010670D01*
X179178619Y-68000209D01*
X179133215Y-67806699D01*
X179112731Y-67612756D01*
X179117107Y-67418796D01*
X179146280Y-67225233D01*
X179200190Y-67032484D01*
X179278776Y-66840964D01*
X179381976Y-66651088D01*
X179390018Y-66637940D01*
X179408962Y-66607270D01*
X179425680Y-66581262D01*
X179443107Y-66555857D01*
X179464181Y-66526992D01*
X179491835Y-66490607D01*
X179529007Y-66442640D01*
X179578630Y-66379031D01*
X179724751Y-66207426D01*
X179897820Y-66033360D01*
X180094477Y-65860725D01*
X180314013Y-65690015D01*
X180555717Y-65521725D01*
X180818878Y-65356349D01*
X181102786Y-65194381D01*
X181406730Y-65036316D01*
X181730000Y-64882646D01*
X181740389Y-64877933D01*
X181866721Y-64822135D01*
X182005418Y-64763301D01*
X182151484Y-64703391D01*
X182299924Y-64644363D01*
X182445741Y-64588177D01*
X182583940Y-64536790D01*
X182709525Y-64492162D01*
X182817500Y-64456251D01*
X182844559Y-64447473D01*
X182892371Y-64431177D01*
X182930000Y-64417438D01*
X182949138Y-64410499D01*
X182991883Y-64396132D01*
X183046254Y-64378640D01*
X183105000Y-64360389D01*
X183145653Y-64347923D01*
X183203738Y-64329888D01*
X183253147Y-64314295D01*
X183286250Y-64303539D01*
X183291387Y-64301834D01*
X183330257Y-64289571D01*
X183386111Y-64272582D01*
X183453044Y-64252615D01*
X183525148Y-64231424D01*
X183596519Y-64210757D01*
X183661250Y-64192367D01*
X183684809Y-64185917D01*
X183735123Y-64172563D01*
X183795701Y-64156813D01*
X183858125Y-64140870D01*
X183905129Y-64128490D01*
X183950406Y-64115390D01*
X183981161Y-64105076D01*
X183992500Y-64099072D01*
X183986802Y-64087479D01*
X183969867Y-64061146D01*
X183945625Y-64026555D01*
X183924575Y-63997215D01*
X183886736Y-63943584D01*
X183852428Y-63894044D01*
X183806105Y-63826225D01*
X183696178Y-63854876D01*
X183657890Y-63865034D01*
X183594370Y-63882243D01*
X183518446Y-63903081D01*
X183436522Y-63925786D01*
X183355000Y-63948601D01*
X183354847Y-63948644D01*
X183280074Y-63969606D01*
X183211318Y-63988736D01*
X183153089Y-64004788D01*
X183109897Y-64016521D01*
X183086250Y-64022691D01*
X183080796Y-64024038D01*
X183041149Y-64034908D01*
X182998750Y-64047770D01*
X182961560Y-64059637D01*
X182875120Y-64086633D01*
X182773750Y-64117523D01*
X182762914Y-64120848D01*
X182717202Y-64135385D01*
X182656657Y-64155131D01*
X182587888Y-64177919D01*
X182517500Y-64201582D01*
X182500315Y-64207405D01*
X182424946Y-64232935D01*
X182349490Y-64258485D01*
X182281867Y-64281375D01*
X182230000Y-64298921D01*
X182161900Y-64322094D01*
X182096820Y-64344720D01*
X182036384Y-64366450D01*
X181975038Y-64389363D01*
X181907229Y-64415537D01*
X181827401Y-64447050D01*
X181730000Y-64485979D01*
X181640285Y-64522036D01*
X181544837Y-64560650D01*
X181468049Y-64592073D01*
X181407332Y-64617377D01*
X181360096Y-64637632D01*
X181323750Y-64653909D01*
X181321574Y-64654911D01*
X181277252Y-64674963D01*
X181222089Y-64699470D01*
X181167500Y-64723357D01*
X181154208Y-64729202D01*
X181094068Y-64756866D01*
X181018269Y-64793091D01*
X180931592Y-64835470D01*
X180838820Y-64881595D01*
X180744735Y-64929059D01*
X180654117Y-64975454D01*
X180571749Y-65018373D01*
X180502413Y-65055408D01*
X180450890Y-65084152D01*
X180417725Y-65103259D01*
X180376756Y-65126438D01*
X180347785Y-65142294D01*
X180335597Y-65148170D01*
X180333597Y-65148575D01*
X180313428Y-65158372D01*
X180276409Y-65179756D01*
X180225614Y-65210734D01*
X180164121Y-65249315D01*
X180095005Y-65293504D01*
X180021342Y-65341308D01*
X179946210Y-65390736D01*
X179872683Y-65439793D01*
X179803838Y-65486487D01*
X179742752Y-65528825D01*
X179692500Y-65564813D01*
X179495994Y-65715436D01*
X179277921Y-65900255D01*
X179081842Y-66087364D01*
X178908253Y-66276176D01*
X178757649Y-66466105D01*
X178630527Y-66656562D01*
X178527383Y-66846962D01*
X178448713Y-67036718D01*
X178400865Y-67190229D01*
X178361341Y-67371715D01*
X178343671Y-67544839D01*
X178347695Y-67711393D01*
X178373250Y-67873170D01*
X178385245Y-67925779D01*
X178402256Y-67998660D01*
X178415512Y-68052435D01*
X178425905Y-68090489D01*
X178434325Y-68116205D01*
X178441664Y-68132967D01*
X178442317Y-68134231D01*
X178453165Y-68157897D01*
X178469614Y-68196352D01*
X178488373Y-68241920D01*
X178505145Y-68280085D01*
X178544390Y-68356822D01*
X178593462Y-68442173D01*
X178648935Y-68530939D01*
X178707388Y-68617917D01*
X178765396Y-68697910D01*
X178819537Y-68765715D01*
X178866386Y-68816133D01*
X178875875Y-68825468D01*
X178896696Y-68848836D01*
X178905000Y-68863008D01*
X178904763Y-68866041D01*
X178896071Y-68873377D01*
X178873906Y-68866995D01*
X178836959Y-68846177D01*
X178783922Y-68810210D01*
X178713483Y-68758377D01*
X178532815Y-68614791D01*
X178357149Y-68459551D01*
X178196191Y-68300663D01*
X178052312Y-68140612D01*
X177927884Y-67981887D01*
X177825278Y-67826973D01*
X177785771Y-67757113D01*
X177714398Y-67609900D01*
X177653358Y-67455365D01*
X177605575Y-67301324D01*
X177573976Y-67155589D01*
X177571893Y-67142098D01*
X177561249Y-67038142D01*
X177557376Y-66923718D01*
X177560107Y-66807504D01*
X177569271Y-66698178D01*
X177584700Y-66604420D01*
X177594831Y-66561246D01*
X177656805Y-66358023D01*
X177741453Y-66159483D01*
X177849055Y-65965282D01*
X177979895Y-65775071D01*
X178134252Y-65588505D01*
X178312410Y-65405237D01*
X178514649Y-65224920D01*
X178741252Y-65047207D01*
X178992500Y-64871752D01*
X179140389Y-64775728D01*
X179296872Y-64679030D01*
X179449418Y-64590631D01*
X179605790Y-64506052D01*
X179773750Y-64420812D01*
X179828920Y-64393511D01*
X179891513Y-64362377D01*
X179944730Y-64335733D01*
X179984217Y-64315761D01*
X180005623Y-64304640D01*
X180008754Y-64302958D01*
X180044014Y-64285586D01*
X180097784Y-64260740D01*
X180165985Y-64230175D01*
X180244540Y-64195647D01*
X180329373Y-64158912D01*
X180416407Y-64121723D01*
X180501563Y-64085837D01*
X180580766Y-64053008D01*
X180649937Y-64024993D01*
X180705000Y-64003545D01*
X180747989Y-63987095D01*
X180787006Y-63971688D01*
X180811250Y-63961552D01*
X180827366Y-63954756D01*
X180866214Y-63939596D01*
X180915675Y-63921054D01*
X180967932Y-63902007D01*
X181015168Y-63885329D01*
X181049565Y-63873896D01*
X181068879Y-63867515D01*
X181110118Y-63852839D01*
X181155000Y-63835994D01*
X181201789Y-63818662D01*
X181260483Y-63797975D01*
X181317500Y-63778743D01*
X181325430Y-63776134D01*
X181373040Y-63759989D01*
X181412610Y-63745817D01*
X181436250Y-63736429D01*
X181452690Y-63730011D01*
X181492657Y-63716330D01*
X181550617Y-63697524D01*
X181623177Y-63674629D01*
X181706946Y-63648677D01*
X181798532Y-63620705D01*
X181894542Y-63591745D01*
X181991586Y-63562834D01*
X182086272Y-63535004D01*
X182175207Y-63509290D01*
X182255000Y-63486727D01*
X182333840Y-63464820D01*
X182483242Y-63423721D01*
X182613389Y-63388577D01*
X182727460Y-63358559D01*
X182828633Y-63332836D01*
X182920087Y-63310580D01*
X183005000Y-63290961D01*
X183059674Y-63278420D01*
X183116420Y-63264964D01*
X183161250Y-63253893D01*
X183179080Y-63249499D01*
X183231035Y-63238007D01*
X183276810Y-63229439D01*
X183290425Y-63227026D01*
X183320489Y-63219596D01*
X183334805Y-63212707D01*
X183335025Y-63211829D01*
X183328602Y-63195957D01*
X183310877Y-63166624D01*
X183285181Y-63129420D01*
X183255180Y-63087839D01*
X183218241Y-63035966D01*
X183187352Y-62991920D01*
X183168578Y-62966216D01*
X183133392Y-62922764D01*
X183101459Y-62888200D01*
X183058834Y-62846981D01*
X182947542Y-62872956D01*
X182921355Y-62879054D01*
X182821679Y-62901918D01*
X182746129Y-62918604D01*
X182694627Y-62929128D01*
X182673970Y-62933558D01*
X182642061Y-62942059D01*
X182632729Y-62944646D01*
X182599405Y-62952095D01*
X182558685Y-62959755D01*
X182542598Y-62962886D01*
X182498646Y-62972728D01*
X182439542Y-62986925D01*
X182371004Y-63004088D01*
X182298750Y-63022831D01*
X182251894Y-63035175D01*
X182188382Y-63051800D01*
X182135571Y-63065498D01*
X182097948Y-63075108D01*
X182080000Y-63079467D01*
X182079862Y-63079495D01*
X182057860Y-63084756D01*
X182017856Y-63094963D01*
X181965897Y-63108528D01*
X181908029Y-63123858D01*
X181850298Y-63139364D01*
X181798750Y-63153454D01*
X181740364Y-63169579D01*
X181649995Y-63194337D01*
X181582283Y-63212574D01*
X181536333Y-63224530D01*
X181511250Y-63230444D01*
X181491163Y-63235678D01*
X181452328Y-63246975D01*
X181400869Y-63262554D01*
X181342500Y-63280712D01*
X181289533Y-63297316D01*
X181206193Y-63323223D01*
X181119849Y-63349866D01*
X181042500Y-63373534D01*
X180979191Y-63393014D01*
X180878568Y-63424733D01*
X180774615Y-63458283D01*
X180671221Y-63492352D01*
X180572275Y-63525627D01*
X180481666Y-63556796D01*
X180403283Y-63584546D01*
X180341015Y-63607565D01*
X180298750Y-63624540D01*
X180285582Y-63629821D01*
X180250905Y-63642866D01*
X180203218Y-63660294D01*
X180148750Y-63679810D01*
X180112070Y-63692999D01*
X180057758Y-63713138D01*
X180012813Y-63730516D01*
X179984361Y-63742419D01*
X179980652Y-63744120D01*
X179952507Y-63755863D01*
X179936250Y-63760670D01*
X179935266Y-63760749D01*
X179917004Y-63766613D01*
X179888140Y-63778928D01*
X179885109Y-63780316D01*
X179851755Y-63794714D01*
X179805363Y-63813828D01*
X179755000Y-63833914D01*
X179715579Y-63849677D01*
X179653109Y-63875316D01*
X179584068Y-63904183D01*
X179517500Y-63932524D01*
X179355311Y-64003835D01*
X179017584Y-64162346D01*
X178695626Y-64327371D01*
X178392496Y-64497305D01*
X178111250Y-64670544D01*
X178030029Y-64723796D01*
X177857629Y-64842244D01*
X177700837Y-64958632D01*
X177554113Y-65077360D01*
X177411916Y-65202825D01*
X177268707Y-65339426D01*
X177096995Y-65518396D01*
X176945843Y-65697000D01*
X176818893Y-65871726D01*
X176715942Y-66042856D01*
X176636786Y-66210670D01*
X176619071Y-66254113D01*
X176603051Y-66292848D01*
X176592834Y-66316920D01*
X176585197Y-66335660D01*
X176563983Y-66401245D01*
X176542971Y-66483478D01*
X176523278Y-66576279D01*
X176506018Y-66673571D01*
X176492308Y-66769273D01*
X176483263Y-66857306D01*
X176480000Y-66931590D01*
X176479720Y-66937441D01*
X176474991Y-66948054D01*
X176463599Y-66946441D01*
X176444473Y-66931404D01*
X176416544Y-66901745D01*
X176378743Y-66856267D01*
X176329999Y-66793771D01*
X176269244Y-66713062D01*
X176195407Y-66612940D01*
X176149496Y-66550130D01*
X176113153Y-66499953D01*
X176083116Y-66457699D01*
X176055069Y-66417216D01*
X176024694Y-66372352D01*
X175987672Y-66316955D01*
X175939093Y-66244043D01*
X175946359Y-66124231D01*
X175950162Y-66074701D01*
X175979815Y-65880489D01*
X176032353Y-65684472D01*
X176106625Y-65489783D01*
X176201482Y-65299554D01*
X176315777Y-65116920D01*
X176326864Y-65101134D01*
X176436245Y-64958527D01*
X176565061Y-64810744D01*
X176709829Y-64661235D01*
X176867065Y-64513447D01*
X177033283Y-64370829D01*
X177205000Y-64236828D01*
X177239133Y-64212119D01*
X177287935Y-64177789D01*
X177346006Y-64137615D01*
X177410029Y-64093826D01*
X177476688Y-64048649D01*
X177542669Y-64004311D01*
X177604655Y-63963040D01*
X177659331Y-63927063D01*
X177703381Y-63898607D01*
X177733489Y-63879900D01*
X177746340Y-63873170D01*
X177757157Y-63868123D01*
X177785421Y-63852598D01*
X177826450Y-63829102D01*
X177875713Y-63800193D01*
X178001309Y-63728374D01*
X178150769Y-63647892D01*
X178314546Y-63563923D01*
X178487874Y-63478805D01*
X178665987Y-63394879D01*
X178844118Y-63314482D01*
X179017500Y-63239954D01*
X179063912Y-63220531D01*
X179126049Y-63194448D01*
X179178448Y-63172361D01*
X179216664Y-63156145D01*
X179236250Y-63147675D01*
X179251926Y-63140907D01*
X179296250Y-63122954D01*
X179356768Y-63099321D01*
X179428736Y-63071801D01*
X179507411Y-63042187D01*
X179588050Y-63012271D01*
X179665911Y-62983845D01*
X179736250Y-62958703D01*
X179761930Y-62949636D01*
X179824135Y-62927512D01*
X179877864Y-62908186D01*
X179918075Y-62893479D01*
X179939730Y-62885211D01*
X179943548Y-62883674D01*
X179975980Y-62871862D01*
X180027449Y-62854216D01*
X180093910Y-62832037D01*
X180171319Y-62806624D01*
X180255631Y-62779276D01*
X180342803Y-62751293D01*
X180428789Y-62723975D01*
X180509546Y-62698621D01*
X180581030Y-62676531D01*
X180639196Y-62659004D01*
X180680000Y-62647340D01*
X180689211Y-62644811D01*
X180728644Y-62633622D01*
X180783844Y-62617648D01*
X180848800Y-62598635D01*
X180917500Y-62578330D01*
X180933377Y-62573641D01*
X181018499Y-62549131D01*
X181114891Y-62522184D01*
X181211869Y-62495757D01*
X181298750Y-62472806D01*
X181334075Y-62463669D01*
X181410824Y-62443769D01*
X181484082Y-62424715D01*
X181546943Y-62408304D01*
X181592500Y-62396335D01*
X181599418Y-62394510D01*
X181647422Y-62382052D01*
X181687383Y-62372010D01*
X181711250Y-62366413D01*
X181716479Y-62365328D01*
X181762012Y-62355422D01*
X181825456Y-62341115D01*
X181901301Y-62323695D01*
X181984039Y-62304449D01*
X182068162Y-62284665D01*
X182148160Y-62265630D01*
X182218526Y-62248632D01*
X182273750Y-62234957D01*
X182281206Y-62233095D01*
X182322100Y-62223500D01*
X182355000Y-62216649D01*
X182420945Y-62203467D01*
X182472370Y-62190682D01*
X182505664Y-62179296D01*
X182517500Y-62170258D01*
X182517378Y-62169302D01*
X182506840Y-62151081D01*
X182479313Y-62114543D01*
X182434807Y-62059697D01*
X182373333Y-61986558D01*
X182294898Y-61895135D01*
X182263506Y-61859317D01*
X182229762Y-61825099D01*
X182201061Y-61806032D01*
X182171061Y-61799770D01*
X182133422Y-61803967D01*
X182081805Y-61816277D01*
X182051970Y-61823745D01*
X182009544Y-61833762D01*
X181980000Y-61840004D01*
X181940620Y-61847456D01*
X181868723Y-61862082D01*
X181785725Y-61879833D01*
X181699395Y-61899035D01*
X181617500Y-61918018D01*
X181581823Y-61926487D01*
X181516556Y-61941948D01*
X181456516Y-61956134D01*
X181411250Y-61966788D01*
X181370003Y-61976483D01*
X181307939Y-61991120D01*
X181249569Y-62004933D01*
X181248444Y-62005200D01*
X181202540Y-62015976D01*
X181164808Y-62024641D01*
X181143319Y-62029341D01*
X181142880Y-62029428D01*
X181109412Y-62036733D01*
X181058650Y-62048608D01*
X180997366Y-62063383D01*
X180932334Y-62079393D01*
X180870327Y-62094969D01*
X180818118Y-62108445D01*
X180782482Y-62118154D01*
X180756103Y-62125645D01*
X180718571Y-62135769D01*
X180694933Y-62141451D01*
X180687153Y-62143137D01*
X180656092Y-62150923D01*
X180617452Y-62161465D01*
X180600583Y-62166220D01*
X180567555Y-62175389D01*
X180548750Y-62180405D01*
X180490869Y-62195099D01*
X180410970Y-62216538D01*
X180316962Y-62242579D01*
X180213625Y-62271833D01*
X180105741Y-62302911D01*
X179998089Y-62334424D01*
X179895451Y-62364984D01*
X179802607Y-62393200D01*
X179724340Y-62417684D01*
X179665429Y-62437047D01*
X179643040Y-62444650D01*
X179594141Y-62460725D01*
X179555024Y-62472874D01*
X179532592Y-62478920D01*
X179516344Y-62482942D01*
X179474490Y-62495477D01*
X179414704Y-62514754D01*
X179340298Y-62539602D01*
X179254583Y-62568850D01*
X179160873Y-62601325D01*
X179062478Y-62635857D01*
X178962711Y-62671274D01*
X178864883Y-62706406D01*
X178772307Y-62740080D01*
X178688296Y-62771125D01*
X178616159Y-62798370D01*
X178559211Y-62820644D01*
X178520762Y-62836775D01*
X178505130Y-62843522D01*
X178472063Y-62855802D01*
X178451387Y-62860670D01*
X178446066Y-62861129D01*
X178423125Y-62871103D01*
X178414443Y-62876472D01*
X178386381Y-62889349D01*
X178348750Y-62903938D01*
X178327537Y-62911670D01*
X178283149Y-62928514D01*
X178248750Y-62942386D01*
X178208366Y-62959710D01*
X177909324Y-63090912D01*
X177632300Y-63218033D01*
X177375178Y-63342260D01*
X177135845Y-63464782D01*
X176912187Y-63586785D01*
X176702087Y-63709457D01*
X176503434Y-63833985D01*
X176314111Y-63961558D01*
X176132004Y-64093362D01*
X175955000Y-64230584D01*
X175843210Y-64322672D01*
X175666600Y-64480710D01*
X175500496Y-64646951D01*
X175336613Y-64829420D01*
X175309377Y-64860825D01*
X175276822Y-64897212D01*
X175252669Y-64922827D01*
X175240765Y-64933491D01*
X175240131Y-64933636D01*
X175229081Y-64922860D01*
X175211407Y-64891158D01*
X175188078Y-64841161D01*
X175160065Y-64775497D01*
X175128338Y-64696796D01*
X175093867Y-64607688D01*
X175057622Y-64510801D01*
X175020573Y-64408765D01*
X174983690Y-64304210D01*
X174947944Y-64199765D01*
X174914304Y-64098059D01*
X174883741Y-64001721D01*
X174857224Y-63913382D01*
X174835724Y-63835670D01*
X174825103Y-63795508D01*
X174810495Y-63741533D01*
X174798401Y-63698170D01*
X174797476Y-63694899D01*
X174786506Y-63652645D01*
X174773483Y-63597998D01*
X174761029Y-63541920D01*
X174759080Y-63532812D01*
X174747387Y-63480293D01*
X174736406Y-63434042D01*
X174728287Y-63403172D01*
X174723798Y-63386428D01*
X174714072Y-63343526D01*
X174705089Y-63296922D01*
X174698789Y-63262426D01*
X174688284Y-63207611D01*
X174675584Y-63143136D01*
X174662214Y-63076821D01*
X174650294Y-63016678D01*
X174638546Y-62953771D01*
X174629331Y-62900518D01*
X174623979Y-62864321D01*
X174620654Y-62837731D01*
X174613195Y-62783006D01*
X174605296Y-62729420D01*
X174603570Y-62718180D01*
X174572561Y-62478676D01*
X174549240Y-62220739D01*
X174533677Y-61949497D01*
X174525946Y-61670076D01*
X174526119Y-61387606D01*
X174534269Y-61107213D01*
X174550468Y-60834025D01*
X174574789Y-60573170D01*
X174581144Y-60518824D01*
X174597116Y-60395520D01*
X174615690Y-60266274D01*
X174636015Y-60136222D01*
X174657240Y-60010499D01*
X174678512Y-59894242D01*
X174698981Y-59792587D01*
X174717794Y-59710670D01*
X174718307Y-59708611D01*
X174726309Y-59674022D01*
X174737496Y-59622869D01*
X174750317Y-59562448D01*
X174763224Y-59500056D01*
X174774664Y-59442989D01*
X174776678Y-59434011D01*
X174785353Y-59401274D01*
X174796937Y-59361739D01*
X174806504Y-59329528D01*
X174821648Y-59276299D01*
X174836182Y-59223170D01*
X174836736Y-59221097D01*
X174854165Y-59159662D01*
X174877394Y-59083035D01*
X174905104Y-58995122D01*
X174935974Y-58899831D01*
X174968684Y-58801070D01*
X175001914Y-58702745D01*
X175034345Y-58608764D01*
X175064656Y-58523033D01*
X175091528Y-58449461D01*
X175113640Y-58391954D01*
X175129672Y-58354420D01*
X175132937Y-58347283D01*
X175146031Y-58317020D01*
X175164389Y-58273363D01*
X175185117Y-58223170D01*
X175191356Y-58208034D01*
X175215773Y-58150391D01*
X175239756Y-58095828D01*
X175258899Y-58054420D01*
X175259932Y-58052283D01*
X175280731Y-58007961D01*
X175305815Y-57952780D01*
X175329985Y-57898170D01*
X175343888Y-57866744D01*
X175387992Y-57771912D01*
X175436759Y-57672735D01*
X175485589Y-57578420D01*
X175529883Y-57498170D01*
X175558063Y-57448686D01*
X175592894Y-57386387D01*
X175624162Y-57329420D01*
X175653318Y-57277072D01*
X175685552Y-57221570D01*
X175713272Y-57176052D01*
X175732730Y-57144622D01*
X175748822Y-57116994D01*
X175755000Y-57104027D01*
X175755500Y-57102423D01*
X175765001Y-57085022D01*
X175784084Y-57053624D01*
X175809483Y-57013645D01*
X175842173Y-56962840D01*
X175879319Y-56904662D01*
X175911129Y-56854420D01*
X175912497Y-56852244D01*
X175933974Y-56818124D01*
X175951589Y-56790454D01*
X175967977Y-56765411D01*
X175985770Y-56739172D01*
X176007601Y-56707911D01*
X176036103Y-56667807D01*
X176073908Y-56615034D01*
X176123650Y-56545769D01*
X176136951Y-56527358D01*
X176181452Y-56466878D01*
X176232375Y-56398980D01*
X176287340Y-56326713D01*
X176343968Y-56253122D01*
X176399881Y-56181254D01*
X176452698Y-56114158D01*
X176500040Y-56054879D01*
X176539528Y-56006465D01*
X176568782Y-55971963D01*
X176585424Y-55954420D01*
X176591401Y-55948531D01*
X176612712Y-55925678D01*
X176645409Y-55889615D01*
X176686316Y-55843857D01*
X176732255Y-55791920D01*
X176756772Y-55764189D01*
X176804276Y-55711149D01*
X176847166Y-55664113D01*
X176881511Y-55627370D01*
X176903383Y-55605206D01*
X176913066Y-55595751D01*
X176934110Y-55571865D01*
X176942500Y-55556735D01*
X176941324Y-55552921D01*
X176929215Y-55531710D01*
X176906788Y-55498072D01*
X176877516Y-55457318D01*
X176812531Y-55369658D01*
X176670897Y-55518289D01*
X176617649Y-55574625D01*
X176528987Y-55670894D01*
X176443795Y-55767016D01*
X176358561Y-55867153D01*
X176269775Y-55975463D01*
X176173925Y-56096108D01*
X176067500Y-56233247D01*
X176061217Y-56241420D01*
X176026602Y-56286608D01*
X175996741Y-56326091D01*
X175968944Y-56363633D01*
X175940517Y-56402999D01*
X175908770Y-56447956D01*
X175871009Y-56502269D01*
X175824544Y-56569703D01*
X175766681Y-56654023D01*
X175763821Y-56658202D01*
X175688739Y-56771981D01*
X175607607Y-56901916D01*
X175522667Y-57043921D01*
X175436162Y-57193911D01*
X175350335Y-57347799D01*
X175267429Y-57501498D01*
X175189688Y-57650923D01*
X175119354Y-57791987D01*
X175058671Y-57920605D01*
X175009881Y-58032689D01*
X175000487Y-58055477D01*
X174978940Y-58107219D01*
X174960396Y-58151078D01*
X174948070Y-58179420D01*
X174939796Y-58198580D01*
X174922795Y-58240352D01*
X174905224Y-58285670D01*
X174893850Y-58315290D01*
X174878329Y-58354066D01*
X174867394Y-58379420D01*
X174860395Y-58395269D01*
X174842285Y-58441352D01*
X174818995Y-58504947D01*
X174791918Y-58581868D01*
X174762447Y-58667931D01*
X174731977Y-58758951D01*
X174701902Y-58850742D01*
X174673616Y-58939119D01*
X174648512Y-59019898D01*
X174627984Y-59088893D01*
X174613427Y-59141920D01*
X174613291Y-59142450D01*
X174606527Y-59167370D01*
X174595249Y-59207543D01*
X174581823Y-59254534D01*
X174581630Y-59255205D01*
X174568054Y-59303369D01*
X174556612Y-59345765D01*
X174549764Y-59373284D01*
X174548838Y-59377410D01*
X174541445Y-59408346D01*
X174530283Y-59453426D01*
X174517384Y-59504420D01*
X174516620Y-59507418D01*
X174497500Y-59586389D01*
X174477093Y-59677200D01*
X174456610Y-59773831D01*
X174437258Y-59870263D01*
X174420248Y-59960476D01*
X174406789Y-60038451D01*
X174398090Y-60098170D01*
X174396914Y-60107279D01*
X174391334Y-60146335D01*
X174383439Y-60198280D01*
X174374541Y-60254420D01*
X174370453Y-60280221D01*
X174351373Y-60415512D01*
X174332713Y-60571961D01*
X174314828Y-60746402D01*
X174298074Y-60935670D01*
X174295042Y-60977759D01*
X174290248Y-61072235D01*
X174286618Y-61183260D01*
X174284137Y-61306679D01*
X174282787Y-61438341D01*
X174282550Y-61574092D01*
X173888995Y-61574092D01*
X173888850Y-61471085D01*
X173890354Y-61309646D01*
X173893592Y-61154090D01*
X173898563Y-61008228D01*
X173905269Y-60875871D01*
X173913709Y-60760831D01*
X173923884Y-60666920D01*
X173929813Y-60621503D01*
X173936671Y-60565136D01*
X173941641Y-60519625D01*
X173943928Y-60491920D01*
X173944105Y-60488322D01*
X173946244Y-60463836D01*
X173950708Y-60427339D01*
X173957864Y-60376301D01*
X173968077Y-60308196D01*
X173981713Y-60220495D01*
X173999140Y-60110670D01*
X174005069Y-60074189D01*
X174027531Y-59945517D01*
X174051148Y-59823366D01*
X174074170Y-59716920D01*
X174075458Y-59711313D01*
X174086853Y-59659222D01*
X174099850Y-59596562D01*
X174111883Y-59535670D01*
X174113177Y-59529049D01*
X174124235Y-59477503D01*
X174140156Y-59408561D01*
X174159521Y-59327980D01*
X174180908Y-59241518D01*
X174202896Y-59154932D01*
X174224064Y-59073980D01*
X174242992Y-59004420D01*
X174246444Y-58992181D01*
X174269138Y-58915087D01*
X174296705Y-58825816D01*
X174327793Y-58728380D01*
X174361046Y-58626786D01*
X174395110Y-58525044D01*
X174428630Y-58427162D01*
X174460252Y-58337149D01*
X174488621Y-58259016D01*
X174512384Y-58196769D01*
X174530184Y-58154420D01*
X174531519Y-58151461D01*
X174542874Y-58124500D01*
X174559529Y-58083355D01*
X174578382Y-58035670D01*
X174584667Y-58019848D01*
X174609861Y-57959285D01*
X174639190Y-57891851D01*
X174667523Y-57829420D01*
X174679189Y-57804246D01*
X174704702Y-57748091D01*
X174727123Y-57697375D01*
X174742636Y-57660670D01*
X174760896Y-57617744D01*
X174798841Y-57536438D01*
X174846966Y-57439921D01*
X174903327Y-57331772D01*
X174965984Y-57215574D01*
X175032995Y-57094908D01*
X175102417Y-56973356D01*
X175172310Y-56854499D01*
X175240731Y-56741920D01*
X175297905Y-56651030D01*
X175383252Y-56519580D01*
X175473239Y-56385199D01*
X175564458Y-56252815D01*
X175653501Y-56127356D01*
X175736958Y-56013748D01*
X175811422Y-55916920D01*
X175813884Y-55913815D01*
X175857827Y-55858228D01*
X175906307Y-55796676D01*
X175949269Y-55741920D01*
X176009699Y-55666795D01*
X176096741Y-55563508D01*
X176194989Y-55451307D01*
X176300539Y-55334637D01*
X176409487Y-55217942D01*
X176570223Y-55048563D01*
X176512607Y-54976491D01*
X176501613Y-54962641D01*
X176463585Y-54913878D01*
X176420691Y-54857953D01*
X176380278Y-54804420D01*
X176369449Y-54789981D01*
X176333015Y-54742281D01*
X176292960Y-54691308D01*
X176246129Y-54633128D01*
X176189366Y-54563810D01*
X176119516Y-54479420D01*
X176103803Y-54460383D01*
X176051421Y-54394064D01*
X176012647Y-54338410D01*
X175984231Y-54287820D01*
X175962924Y-54236691D01*
X175945474Y-54179420D01*
X175941160Y-54162694D01*
X175927127Y-54100297D01*
X175916156Y-54039680D01*
X175910323Y-53991920D01*
X175910003Y-53987234D01*
X175906465Y-53935080D01*
X175902213Y-53872023D01*
X175898097Y-53810670D01*
X175897573Y-53802863D01*
X175893339Y-53742010D01*
X175888976Y-53682314D01*
X175885350Y-53635670D01*
X175885182Y-53633587D01*
X175882486Y-53592948D01*
X175879345Y-53535242D01*
X175876136Y-53467854D01*
X175873235Y-53398170D01*
X175873042Y-53393238D01*
X175869626Y-53323464D01*
X175865215Y-53256520D01*
X175860355Y-53199792D01*
X175855596Y-53160670D01*
X175847151Y-53078765D01*
X175848765Y-52976343D01*
X175862726Y-52878143D01*
X175888061Y-52790477D01*
X175923792Y-52719657D01*
X175946894Y-52690139D01*
X175994848Y-52643572D01*
X176050382Y-52601761D01*
X176106199Y-52569953D01*
X176155000Y-52553396D01*
X176196226Y-52545010D01*
X176237022Y-52534424D01*
X176253016Y-52530765D01*
X176272502Y-52529788D01*
X176298331Y-52532387D01*
X176334033Y-52539243D01*
X176383143Y-52551039D01*
X176449192Y-52568460D01*
X176535711Y-52592188D01*
X176568362Y-52602086D01*
X176617994Y-52619764D01*
X176656681Y-52636527D01*
X176663018Y-52639594D01*
X176701638Y-52655374D01*
X176752878Y-52673440D01*
X176807425Y-52690460D01*
X176810890Y-52691469D01*
X176864952Y-52707939D01*
X176933479Y-52729779D01*
X177008040Y-52754265D01*
X177080204Y-52778670D01*
X177093944Y-52783385D01*
X177160854Y-52806002D01*
X177223720Y-52826739D01*
X177276025Y-52843471D01*
X177311250Y-52854070D01*
X177329031Y-52859413D01*
X177387337Y-52880494D01*
X177452272Y-52907851D01*
X177516238Y-52937973D01*
X177571636Y-52967352D01*
X177610869Y-52992476D01*
X177622667Y-53002344D01*
X177657063Y-53037691D01*
X177687439Y-53076691D01*
X177705560Y-53102638D01*
X177739473Y-53148299D01*
X177773793Y-53191920D01*
X177800714Y-53225683D01*
X177838229Y-53273901D01*
X177880765Y-53329392D01*
X177923317Y-53385670D01*
X177925845Y-53389039D01*
X177965963Y-53442167D01*
X178003425Y-53491224D01*
X178034139Y-53530882D01*
X178054013Y-53555816D01*
X178075941Y-53582770D01*
X178108059Y-53623014D01*
X178141243Y-53665191D01*
X178143704Y-53668331D01*
X178171771Y-53702376D01*
X178194159Y-53726505D01*
X178206215Y-53735670D01*
X178217753Y-53730647D01*
X178246541Y-53714605D01*
X178287596Y-53690162D01*
X178336277Y-53660016D01*
X178379002Y-53633435D01*
X178424218Y-53606095D01*
X178458807Y-53586074D01*
X178477555Y-53576452D01*
X178498341Y-53566306D01*
X178532955Y-53547052D01*
X178573750Y-53522926D01*
X178593148Y-53511462D01*
X178640763Y-53484468D01*
X178701738Y-53450789D01*
X178770486Y-53413449D01*
X178841420Y-53375474D01*
X178908954Y-53339888D01*
X178967500Y-53309718D01*
X179126660Y-53231823D01*
X179328964Y-53139231D01*
X179540875Y-53048377D01*
X179754326Y-52962703D01*
X179961250Y-52885652D01*
X179987646Y-52876222D01*
X180037026Y-52858436D01*
X180076305Y-52844101D01*
X180098750Y-52835663D01*
X180098913Y-52835599D01*
X180149556Y-52817051D01*
X180217526Y-52794290D01*
X180296966Y-52769070D01*
X180382021Y-52743142D01*
X180466832Y-52718258D01*
X180545546Y-52696170D01*
X180612304Y-52678630D01*
X180661250Y-52667389D01*
X180680562Y-52663011D01*
X180719391Y-52653625D01*
X180771157Y-52640807D01*
X180830000Y-52625995D01*
X180877440Y-52614061D01*
X180948626Y-52596453D01*
X181015255Y-52580280D01*
X181067500Y-52567942D01*
X181121769Y-52555446D01*
X181184095Y-52541091D01*
X181236250Y-52529075D01*
X181306624Y-52513232D01*
X181410276Y-52491378D01*
X181517517Y-52470674D01*
X181632604Y-52450382D01*
X181759793Y-52429761D01*
X181903340Y-52408072D01*
X182067500Y-52384575D01*
X182138853Y-52375662D01*
X182229134Y-52367035D01*
X182331017Y-52359969D01*
X182446733Y-52354376D01*
X182578510Y-52350172D01*
X182728577Y-52347269D01*
X182899164Y-52345583D01*
X183092500Y-52345027D01*
X183191296Y-52345160D01*
X183380911Y-52346394D01*
X183548454Y-52348983D01*
X183695887Y-52353005D01*
X183825171Y-52358534D01*
X183938269Y-52365646D01*
X184037142Y-52374418D01*
X184123750Y-52384925D01*
X184152554Y-52388979D01*
X184218390Y-52398274D01*
X184291683Y-52408649D01*
X184361250Y-52418522D01*
X184390267Y-52422942D01*
X184454398Y-52433708D01*
X184534306Y-52447940D01*
X184624588Y-52464606D01*
X184719841Y-52482676D01*
X184814662Y-52501121D01*
X184903647Y-52518910D01*
X184981395Y-52535014D01*
X185042500Y-52548401D01*
X185043264Y-52548576D01*
X185078172Y-52556466D01*
X185126877Y-52567350D01*
X185179084Y-52578927D01*
X185187015Y-52580691D01*
X185231632Y-52591151D01*
X185265344Y-52599925D01*
X185281374Y-52605268D01*
X185285641Y-52607142D01*
X185309714Y-52614069D01*
X185344790Y-52621943D01*
X185355306Y-52624134D01*
X185402700Y-52634917D01*
X185465248Y-52650013D01*
X185536101Y-52667695D01*
X185608411Y-52686239D01*
X185675327Y-52703917D01*
X185730000Y-52719005D01*
X185768954Y-52730548D01*
X185831429Y-52750047D01*
X185904079Y-52773511D01*
X185983130Y-52799645D01*
X186064809Y-52827153D01*
X186145343Y-52854741D01*
X186220958Y-52881112D01*
X186287879Y-52904973D01*
X186342334Y-52925027D01*
X186380549Y-52939979D01*
X186398750Y-52948535D01*
X186402550Y-52950783D01*
X186426897Y-52961251D01*
X186461250Y-52973227D01*
X186484162Y-52980958D01*
X186546030Y-53004376D01*
X186624338Y-53036379D01*
X186715127Y-53075167D01*
X186814436Y-53118939D01*
X186918307Y-53165893D01*
X187022780Y-53214231D01*
X187123896Y-53262149D01*
X187217694Y-53307849D01*
X187300215Y-53349528D01*
X187367500Y-53385387D01*
X187415511Y-53411954D01*
X187472183Y-53443195D01*
X187521014Y-53469993D01*
X187555000Y-53488494D01*
X187605303Y-53516032D01*
X187770274Y-53611164D01*
X187946284Y-53719119D01*
X188128137Y-53836417D01*
X188310638Y-53959576D01*
X188488593Y-54085117D01*
X188656806Y-54209558D01*
X188810084Y-54329420D01*
X188835774Y-54350181D01*
X188916085Y-54415201D01*
X188981599Y-54468536D01*
X189035988Y-54513279D01*
X189082926Y-54552524D01*
X189126084Y-54589362D01*
X189169135Y-54626885D01*
X189215752Y-54668187D01*
X189269607Y-54716360D01*
X189353532Y-54792102D01*
X189448359Y-54879443D01*
X189532990Y-54960011D01*
X189612562Y-55038923D01*
X189692210Y-55121300D01*
X189777072Y-55212259D01*
X189872284Y-55316920D01*
X189924340Y-55374809D01*
X190031066Y-55494874D01*
X190124908Y-55602803D01*
X190209101Y-55702532D01*
X190286876Y-55797997D01*
X190361469Y-55893134D01*
X190436111Y-55991879D01*
X190514036Y-56098170D01*
X190541143Y-56135598D01*
X190582627Y-56192854D01*
X190618978Y-56242996D01*
X190647021Y-56281644D01*
X190663581Y-56304420D01*
X190679005Y-56325740D01*
X190711094Y-56371041D01*
X190741776Y-56415407D01*
X190767764Y-56453991D01*
X190785768Y-56481946D01*
X190792501Y-56494425D01*
X190794887Y-56499984D01*
X190807922Y-56521550D01*
X190828515Y-56552376D01*
X190834331Y-56560809D01*
X190918148Y-56687991D01*
X191007590Y-56833107D01*
X191099846Y-56991004D01*
X191192104Y-57156531D01*
X191281554Y-57324537D01*
X191365386Y-57489871D01*
X191440787Y-57647382D01*
X191504946Y-57791920D01*
X191522618Y-57833184D01*
X191543073Y-57879447D01*
X191558810Y-57913307D01*
X191567401Y-57929420D01*
X191575528Y-57944138D01*
X191591908Y-57981046D01*
X191614180Y-58035568D01*
X191641124Y-58104374D01*
X191671521Y-58184134D01*
X191704149Y-58271517D01*
X191737790Y-58363193D01*
X191771223Y-58455833D01*
X191803227Y-58546105D01*
X191832584Y-58630680D01*
X191858071Y-58706228D01*
X191878471Y-58769418D01*
X191892561Y-58816920D01*
X191892716Y-58817485D01*
X191900339Y-58844547D01*
X191913162Y-58889298D01*
X191929434Y-58945649D01*
X191947402Y-59007512D01*
X191948600Y-59011628D01*
X191965984Y-59072063D01*
X191980995Y-59125504D01*
X191992065Y-59166291D01*
X191997626Y-59188762D01*
X192000439Y-59201547D01*
X192008897Y-59237280D01*
X192020874Y-59286298D01*
X192034752Y-59341920D01*
X192044010Y-59379263D01*
X192059867Y-59446807D01*
X192075551Y-59519085D01*
X192092480Y-59602742D01*
X192112072Y-59704420D01*
X192116437Y-59725826D01*
X192124757Y-59764766D01*
X192134810Y-59810670D01*
X192149686Y-59880422D01*
X192174313Y-60006782D01*
X192197801Y-60139998D01*
X192219179Y-60273844D01*
X192237472Y-60402096D01*
X192251706Y-60518530D01*
X192260909Y-60616920D01*
X192265374Y-60667344D01*
X192272921Y-60735618D01*
X192281216Y-60798170D01*
X192282913Y-60813137D01*
X192286063Y-60858198D01*
X192289195Y-60923554D01*
X192292213Y-61006163D01*
X192295026Y-61102985D01*
X192297537Y-61210978D01*
X192299655Y-61327101D01*
X192301284Y-61448312D01*
X192301459Y-61464299D01*
X192302811Y-61603883D01*
X192303206Y-61667413D01*
X192303545Y-61721955D01*
X192303598Y-61821665D01*
G37*
G36*
X181623750Y-74154420D02*
G01*
X181433125Y-74157870D01*
X181242500Y-74161321D01*
X181242500Y-75185670D01*
X181105000Y-75185670D01*
X181105000Y-74160670D01*
X180717500Y-74160670D01*
X180717500Y-74035670D01*
X181631370Y-74035670D01*
X181623750Y-74154420D01*
G37*
G36*
X192855000Y-75185670D02*
G01*
X192855000Y-74785670D01*
X192695625Y-74785452D01*
X192596793Y-74783208D01*
X192493647Y-74774047D01*
X192408157Y-74756822D01*
X192336681Y-74730464D01*
X192275581Y-74693906D01*
X192221217Y-74646076D01*
X192220317Y-74645146D01*
X192176403Y-74592722D01*
X192148676Y-74539884D01*
X192134220Y-74478814D01*
X192130993Y-74418081D01*
X192270044Y-74418081D01*
X192277557Y-74480448D01*
X192300193Y-74540184D01*
X192340507Y-74586779D01*
X192401536Y-74625015D01*
X192426857Y-74636390D01*
X192452614Y-74644605D01*
X192483702Y-74650293D01*
X192525039Y-74654099D01*
X192581541Y-74656668D01*
X192658125Y-74658643D01*
X192855000Y-74662866D01*
X192855000Y-74158562D01*
X192644599Y-74162741D01*
X192640429Y-74162824D01*
X192564324Y-74164469D01*
X192508463Y-74166382D01*
X192468311Y-74169261D01*
X192439330Y-74173806D01*
X192416983Y-74180714D01*
X192396734Y-74190686D01*
X192374045Y-74204420D01*
X192372029Y-74205683D01*
X192320342Y-74245477D01*
X192288018Y-74290234D01*
X192272202Y-74345815D01*
X192270044Y-74418081D01*
X192130993Y-74418081D01*
X192130123Y-74401696D01*
X192134084Y-74334457D01*
X192154533Y-74250805D01*
X192193911Y-74181795D01*
X192253917Y-74124753D01*
X192336250Y-74077001D01*
X192343634Y-74073556D01*
X192367002Y-74063166D01*
X192388935Y-74055280D01*
X192413210Y-74049494D01*
X192443604Y-74045406D01*
X192483891Y-74042612D01*
X192537848Y-74040709D01*
X192609251Y-74039294D01*
X192701875Y-74037963D01*
X192992500Y-74034007D01*
X192992500Y-75185670D01*
X192855000Y-75185670D01*
G37*
G36*
X177255281Y-72960670D02*
G01*
X177025004Y-72960670D01*
X176957447Y-72960439D01*
X176885354Y-72959223D01*
X176830123Y-72956641D01*
X176787100Y-72952336D01*
X176751631Y-72945948D01*
X176719062Y-72937120D01*
X176622767Y-72898191D01*
X176528780Y-72836955D01*
X176452492Y-72758341D01*
X176394506Y-72662859D01*
X176392652Y-72658885D01*
X176378534Y-72625754D01*
X176369390Y-72594910D01*
X176364165Y-72559533D01*
X176361803Y-72512805D01*
X176361769Y-72508784D01*
X176480818Y-72508784D01*
X176484312Y-72545373D01*
X176492966Y-72577404D01*
X176507949Y-72613219D01*
X176553496Y-72692854D01*
X176614007Y-72758163D01*
X176690230Y-72807043D01*
X176693296Y-72808545D01*
X176722367Y-72821863D01*
X176749429Y-72831260D01*
X176779885Y-72837564D01*
X176819135Y-72841601D01*
X176872581Y-72844201D01*
X176945625Y-72846191D01*
X177130000Y-72850462D01*
X177130000Y-72045389D01*
X176951875Y-72050306D01*
X176901603Y-72051855D01*
X176841946Y-72054686D01*
X176797977Y-72058827D01*
X176764067Y-72065124D01*
X176734590Y-72074423D01*
X176703919Y-72087569D01*
X176640209Y-72124251D01*
X176568417Y-72187758D01*
X176515271Y-72264126D01*
X176510788Y-72273233D01*
X176496605Y-72313124D01*
X176487647Y-72363435D01*
X176482496Y-72431399D01*
X176481317Y-72459298D01*
X176480818Y-72508784D01*
X176361769Y-72508784D01*
X176361250Y-72447907D01*
X176361331Y-72411966D01*
X176362421Y-72358984D01*
X176365798Y-72320343D01*
X176372723Y-72289056D01*
X176384456Y-72258136D01*
X176402258Y-72220596D01*
X176419346Y-72188966D01*
X176483962Y-72103242D01*
X176566290Y-72033360D01*
X176663748Y-71981211D01*
X176773750Y-71948687D01*
X176779453Y-71947685D01*
X176825835Y-71942665D01*
X176890170Y-71939246D01*
X176966471Y-71937657D01*
X177048750Y-71938129D01*
X177248750Y-71941920D01*
X177249413Y-72045389D01*
X177252016Y-72451295D01*
X177255281Y-72960670D01*
G37*
G36*
X189120268Y-74019180D02*
G01*
X189229658Y-74042041D01*
X189332224Y-74083376D01*
X189424551Y-74142152D01*
X189503224Y-74217331D01*
X189564829Y-74307879D01*
X189596904Y-74374382D01*
X189625782Y-74459663D01*
X189639234Y-74547309D01*
X189639467Y-74647359D01*
X189639014Y-74655564D01*
X189625672Y-74763626D01*
X189597965Y-74856035D01*
X189553475Y-74938777D01*
X189489784Y-75017834D01*
X189457706Y-75050187D01*
X189366039Y-75122547D01*
X189266191Y-75172583D01*
X189155000Y-75202034D01*
X189123344Y-75206218D01*
X189019934Y-75206518D01*
X188914525Y-75188919D01*
X188813304Y-75155307D01*
X188722460Y-75107568D01*
X188648182Y-75047587D01*
X188629012Y-75027156D01*
X188610726Y-75005165D01*
X188605875Y-74995274D01*
X188608523Y-74993285D01*
X188625457Y-74978844D01*
X188651093Y-74956015D01*
X188690811Y-74920111D01*
X188745654Y-74965051D01*
X188776815Y-74989150D01*
X188863035Y-75039978D01*
X188953827Y-75069108D01*
X189055254Y-75078768D01*
X189073979Y-75078814D01*
X189124634Y-75077259D01*
X189163341Y-75071430D01*
X189200137Y-75059192D01*
X189245064Y-75038412D01*
X189302182Y-75005436D01*
X189381463Y-74937701D01*
X189441768Y-74854360D01*
X189482185Y-74756807D01*
X189501802Y-74646434D01*
X189503171Y-74591182D01*
X189489098Y-74485430D01*
X189454007Y-74388308D01*
X189399552Y-74302767D01*
X189327391Y-74231762D01*
X189239179Y-74178244D01*
X189197563Y-74160734D01*
X189157783Y-74149369D01*
X189113696Y-74144084D01*
X189055000Y-74142901D01*
X188985448Y-74146855D01*
X188906602Y-74164270D01*
X188831815Y-74198170D01*
X188753239Y-74251377D01*
X188695227Y-74295923D01*
X188656364Y-74255826D01*
X188645899Y-74244521D01*
X188625574Y-74218681D01*
X188617500Y-74201994D01*
X188626288Y-74184206D01*
X188652578Y-74157632D01*
X188691318Y-74127364D01*
X188737385Y-74097373D01*
X188785658Y-74071631D01*
X188894672Y-74033025D01*
X189007467Y-74015830D01*
X189120268Y-74019180D01*
G37*
G36*
X178988200Y-74928186D02*
G01*
X179025617Y-75010269D01*
X179056702Y-75078385D01*
X179080453Y-75130337D01*
X179095869Y-75163926D01*
X179101945Y-75176952D01*
X179096802Y-75181009D01*
X179072869Y-75183665D01*
X179035397Y-75183202D01*
X178963504Y-75179420D01*
X178833880Y-74891920D01*
X178201673Y-74891920D01*
X178137712Y-75038566D01*
X178073750Y-75185213D01*
X178001875Y-75185441D01*
X177970688Y-75185011D01*
X177941335Y-75183175D01*
X177930000Y-75180356D01*
X177930292Y-75179465D01*
X177937641Y-75162303D01*
X177954156Y-75125086D01*
X177978857Y-75069984D01*
X178010764Y-74999171D01*
X178048897Y-74914817D01*
X178092276Y-74819094D01*
X178124739Y-74747608D01*
X178272082Y-74747608D01*
X178278460Y-74752751D01*
X178294457Y-74756339D01*
X178323150Y-74758649D01*
X178367615Y-74759956D01*
X178430927Y-74760537D01*
X178516163Y-74760670D01*
X178532760Y-74760649D01*
X178607314Y-74760035D01*
X178671798Y-74758664D01*
X178722478Y-74756676D01*
X178755623Y-74754207D01*
X178767500Y-74751395D01*
X178763771Y-74740085D01*
X178751271Y-74709530D01*
X178731632Y-74663837D01*
X178706576Y-74606810D01*
X178677822Y-74542249D01*
X178647091Y-74473958D01*
X178616102Y-74405738D01*
X178586576Y-74341392D01*
X178560232Y-74284722D01*
X178538792Y-74239531D01*
X178523974Y-74209620D01*
X178517500Y-74198792D01*
X178517046Y-74199200D01*
X178509122Y-74213909D01*
X178493155Y-74246939D01*
X178470874Y-74294475D01*
X178444009Y-74352697D01*
X178414289Y-74417788D01*
X178383443Y-74485931D01*
X178353202Y-74553307D01*
X178325294Y-74616099D01*
X178301450Y-74670489D01*
X178283398Y-74712661D01*
X178272868Y-74738795D01*
X178272248Y-74740633D01*
X178272082Y-74747608D01*
X178124739Y-74747608D01*
X178139921Y-74714175D01*
X178190853Y-74602231D01*
X178451705Y-74029420D01*
X178576037Y-74022000D01*
X178836319Y-74594460D01*
X178847991Y-74620131D01*
X178898385Y-74730919D01*
X178907705Y-74751395D01*
X178945456Y-74834337D01*
X178988200Y-74928186D01*
G37*
D12*
X184881443Y-85645965D02*
X181981443Y-85645965D01*
X186786443Y-80840965D02*
X186786443Y-83740965D01*
X180076443Y-80840965D02*
X180076443Y-83740965D01*
X184881443Y-78935965D02*
X181981443Y-78935965D01*
%LPC*%
D13*
X150042000Y-97830000D03*
X141042000Y-97830000D03*
D14*
X155182000Y-45965600D03*
D15*
X155182000Y-45965600D03*
D16*
X202656000Y-100503000D03*
X200116000Y-100503000D03*
X198846000Y-97963000D03*
X204216000Y-97963000D03*
D17*
X204216000Y-92883000D03*
D16*
X202656000Y-90343000D03*
X200116000Y-90343000D03*
D17*
X198846000Y-92883000D03*
D13*
X187160000Y-132310000D03*
X178160000Y-132310000D03*
D15*
X158170000Y-90670000D03*
X158170000Y-98290000D03*
X211856000Y-45965600D03*
D14*
X211856000Y-45965600D03*
D13*
X204008000Y-56968000D03*
X204008000Y-65968000D03*
X226020000Y-109330000D03*
X226020000Y-118330000D03*
X224210000Y-97830000D03*
X215210000Y-97830000D03*
D14*
X211856000Y-130965600D03*
D15*
X211856000Y-130965600D03*
D13*
X139280000Y-118350000D03*
X139280000Y-109350000D03*
D15*
X155182000Y-130965600D03*
D14*
X155182000Y-130965600D03*
D16*
X155448000Y-50038000D03*
D17*
X157988000Y-50038000D03*
X160528000Y-50038000D03*
X163068000Y-50038000D03*
X165608000Y-50038000D03*
X168148000Y-50038000D03*
X170688000Y-50038000D03*
X173228000Y-50038000D03*
D18*
X183431443Y-82290965D03*
D19*
X185971443Y-79750965D03*
X180891443Y-84830965D03*
X185971443Y-84830965D03*
X180891443Y-79750965D03*
M02*
