%TF.GenerationSoftware,KiCad,Pcbnew,(6.0.5)*%
%TF.CreationDate,2023-01-23T16:46:33-08:00*%
%TF.ProjectId,Z_Panels,5a5f5061-6e65-46c7-932e-6b696361645f,rev?*%
%TF.SameCoordinates,Original*%
%TF.FileFunction,Copper,L2,Inr*%
%TF.FilePolarity,Positive*%
%FSLAX46Y46*%
G04 Gerber Fmt 4.6, Leading zero omitted, Abs format (unit mm)*
G04 Created by KiCad (PCBNEW (6.0.5)) date 2023-01-23 16:46:33*
%MOMM*%
%LPD*%
G01*
G04 APERTURE LIST*
%TA.AperFunction,ComponentPad*%
%ADD10C,3.000000*%
%TD*%
%TA.AperFunction,ComponentPad*%
%ADD11C,2.600000*%
%TD*%
%TA.AperFunction,ComponentPad*%
%ADD12R,1.700000X1.700000*%
%TD*%
%TA.AperFunction,ComponentPad*%
%ADD13O,1.700000X1.700000*%
%TD*%
%TA.AperFunction,ComponentPad*%
%ADD14C,2.050000*%
%TD*%
%TA.AperFunction,ComponentPad*%
%ADD15C,2.250000*%
%TD*%
%TA.AperFunction,ViaPad*%
%ADD16C,0.800000*%
%TD*%
%TA.AperFunction,Conductor*%
%ADD17C,0.500000*%
%TD*%
%TA.AperFunction,Conductor*%
%ADD18C,1.000000*%
%TD*%
%TA.AperFunction,Conductor*%
%ADD19C,0.250000*%
%TD*%
G04 APERTURE END LIST*
D10*
X150042000Y-97830000D03*
X141042000Y-97830000D03*
D11*
X155182000Y-45965600D03*
D12*
X202656000Y-100503000D03*
X200116000Y-100503000D03*
X198846000Y-97963000D03*
X204216000Y-97963000D03*
D13*
X204216000Y-92883000D03*
D12*
X202656000Y-90343000D03*
X200116000Y-90343000D03*
D13*
X198846000Y-92883000D03*
D10*
X187160000Y-132310000D03*
X178160000Y-132310000D03*
D11*
X158170000Y-90670000D03*
X158170000Y-98290000D03*
X211856000Y-45965600D03*
D10*
X204008000Y-56968000D03*
X204008000Y-65968000D03*
X226020000Y-109330000D03*
X226020000Y-118330000D03*
X224210000Y-97830000D03*
X215210000Y-97830000D03*
D11*
X211856000Y-130965600D03*
D10*
X139280000Y-118350000D03*
X139280000Y-109350000D03*
D11*
X155182000Y-130965600D03*
D12*
X155448000Y-50038000D03*
D13*
X157988000Y-50038000D03*
X160528000Y-50038000D03*
X163068000Y-50038000D03*
X165608000Y-50038000D03*
X168148000Y-50038000D03*
X170688000Y-50038000D03*
X173228000Y-50038000D03*
D14*
X183431443Y-82290965D03*
D15*
X185971443Y-79750965D03*
X180891443Y-84830965D03*
X185971443Y-84830965D03*
X180891443Y-79750965D03*
D16*
X182468000Y-72612000D03*
X150897500Y-62212500D03*
X176276000Y-93314000D03*
X170942000Y-70612000D03*
X204502000Y-70612000D03*
X168276000Y-91314000D03*
X200502000Y-70612000D03*
X194502000Y-70612000D03*
X193104000Y-95314000D03*
X172276000Y-93314000D03*
X168276000Y-97314000D03*
X172276000Y-91314000D03*
X141300000Y-60230000D03*
X176468000Y-70612000D03*
X195580000Y-79058000D03*
X204502000Y-72612000D03*
X189104000Y-91314000D03*
X206502000Y-72612000D03*
X168942000Y-70612000D03*
X164942000Y-72612000D03*
X170276000Y-87314000D03*
X162942000Y-72612000D03*
X169672000Y-81058000D03*
X191104000Y-99314000D03*
X186468000Y-70612000D03*
X158942000Y-70612000D03*
X202502000Y-72612000D03*
X193104000Y-93314000D03*
X168276000Y-95314000D03*
X141340000Y-57280000D03*
X176276000Y-99314000D03*
X170276000Y-95314000D03*
X198502000Y-72612000D03*
X193104000Y-89314000D03*
X191104000Y-97314000D03*
X172276000Y-97314000D03*
X141440000Y-54600000D03*
X168276000Y-87314000D03*
X174276000Y-87314000D03*
X168276000Y-93314000D03*
X195072000Y-87303622D03*
X191104000Y-89314000D03*
X172276000Y-87314000D03*
X168276000Y-99314000D03*
X196502000Y-70612000D03*
X195072000Y-91303622D03*
X195580000Y-83058000D03*
X174276000Y-97314000D03*
X176276000Y-87314000D03*
X169672000Y-77058000D03*
X180468000Y-72612000D03*
X160528000Y-51562000D03*
X164942000Y-70612000D03*
X193104000Y-91314000D03*
X183388000Y-85090000D03*
X189104000Y-93314000D03*
X202502000Y-70612000D03*
X198502000Y-70612000D03*
X191104000Y-91314000D03*
X169672000Y-83058000D03*
X178562000Y-81090000D03*
X168942000Y-72612000D03*
X195072000Y-89303622D03*
X195072000Y-93303622D03*
X191104000Y-87314000D03*
X176276000Y-97314000D03*
X170276000Y-89314000D03*
X178468000Y-72612000D03*
X200502000Y-72612000D03*
X168276000Y-89314000D03*
X166942000Y-72612000D03*
X148530000Y-61790000D03*
X193104000Y-87314000D03*
X184468000Y-72612000D03*
X193104000Y-99314000D03*
X186468000Y-72612000D03*
X154310000Y-53830000D03*
X160942000Y-70612000D03*
X189104000Y-89314000D03*
X176276000Y-91314000D03*
X170276000Y-97314000D03*
X150970000Y-54750000D03*
X195580000Y-77058000D03*
X148400000Y-63890000D03*
X189104000Y-99314000D03*
X182468000Y-70612000D03*
X196502000Y-72612000D03*
X170276000Y-93314000D03*
X174276000Y-99314000D03*
X184468000Y-70612000D03*
X195072000Y-95303622D03*
X174276000Y-95314000D03*
X169672000Y-75058000D03*
X195580000Y-75058000D03*
X178468000Y-70612000D03*
X186182000Y-82296000D03*
X169672000Y-79058000D03*
X195580000Y-81058000D03*
X166942000Y-70612000D03*
X180468000Y-70612000D03*
X174276000Y-89314000D03*
X189104000Y-97314000D03*
X172276000Y-89314000D03*
X206502000Y-70612000D03*
X178562000Y-83090000D03*
X176276000Y-95314000D03*
X149120000Y-50220000D03*
X193104000Y-97314000D03*
X174276000Y-93314000D03*
X191104000Y-95314000D03*
X160528000Y-48010000D03*
X158942000Y-72612000D03*
X195072000Y-99303622D03*
X160942000Y-72612000D03*
X189104000Y-95314000D03*
X189104000Y-87314000D03*
X172276000Y-99314000D03*
X153500000Y-54750000D03*
X176276000Y-89314000D03*
X172276000Y-95314000D03*
X170276000Y-99314000D03*
X154380000Y-55780000D03*
X188468000Y-70612000D03*
X191104000Y-93314000D03*
X174276000Y-91314000D03*
X180594000Y-82296000D03*
X178562000Y-85090000D03*
X178562000Y-79090000D03*
X162942000Y-70612000D03*
X195072000Y-97303622D03*
X152772500Y-62212500D03*
X170276000Y-91314000D03*
X150710000Y-50030000D03*
X143140000Y-66360000D03*
X173010000Y-41610000D03*
X169460000Y-64390000D03*
X201457600Y-48777600D03*
X210058000Y-127000000D03*
X191513000Y-47286000D03*
X187553000Y-45236000D03*
X194813000Y-47676000D03*
X179113000Y-48156000D03*
X181298000Y-51591000D03*
X183473000Y-49276000D03*
X165985000Y-59535000D03*
X153357500Y-64312500D03*
X176173000Y-41876000D03*
X182713000Y-43696000D03*
X195008000Y-51181000D03*
X168500000Y-57900000D03*
X152370000Y-67460000D03*
X191215500Y-44373500D03*
X194943000Y-44106000D03*
X159430000Y-60980000D03*
X159470000Y-59300000D03*
X178562000Y-58166000D03*
X177292000Y-56134000D03*
X177292000Y-55118000D03*
X178562000Y-56134000D03*
X177292000Y-58166000D03*
X177292000Y-57150000D03*
X178562000Y-55118000D03*
X178562000Y-57150000D03*
D17*
X152883600Y-52360000D02*
X155448000Y-49795600D01*
X148450000Y-52360000D02*
X152883600Y-52360000D01*
X148450000Y-52360000D02*
X143140000Y-57670000D01*
X143140000Y-57670000D02*
X143140000Y-66360000D01*
D18*
X173010000Y-41610000D02*
X164130000Y-41610000D01*
X164130000Y-41610000D02*
X157988000Y-47752000D01*
X157988000Y-47752000D02*
X157988000Y-49795600D01*
X150296000Y-77034000D02*
X160060000Y-67270000D01*
X150296000Y-97830000D02*
X150296000Y-77034000D01*
X202198000Y-67270000D02*
X203500000Y-65968000D01*
X160060000Y-67270000D02*
X202198000Y-67270000D01*
X221812000Y-113538000D02*
X226020000Y-109330000D01*
X152654000Y-113538000D02*
X221812000Y-113538000D01*
X141296000Y-97830000D02*
X141296000Y-102180000D01*
X141296000Y-102180000D02*
X152654000Y-113538000D01*
X178160000Y-132310000D02*
X164200000Y-118350000D01*
X164200000Y-118350000D02*
X139280000Y-118350000D01*
D19*
X189463000Y-45236000D02*
X187553000Y-45236000D01*
X194813000Y-47676000D02*
X191903000Y-47676000D01*
X191513000Y-47286000D02*
X189463000Y-45236000D01*
X191903000Y-47676000D02*
X191513000Y-47286000D01*
D17*
X179113000Y-47287000D02*
X178562000Y-46736000D01*
X166624000Y-46736000D02*
X165608000Y-47752000D01*
X165608000Y-47752000D02*
X165608000Y-49795600D01*
X179113000Y-49406000D02*
X181298000Y-51591000D01*
X179113000Y-48156000D02*
X179113000Y-49406000D01*
X179113000Y-48156000D02*
X179113000Y-47287000D01*
X178562000Y-46736000D02*
X166624000Y-46736000D01*
D19*
X182713000Y-48516000D02*
X183473000Y-49276000D01*
X182713000Y-43696000D02*
X177993000Y-43696000D01*
D17*
X158567500Y-64312500D02*
X163345000Y-59535000D01*
D19*
X182713000Y-43696000D02*
X182713000Y-48516000D01*
D17*
X163345000Y-59535000D02*
X165985000Y-59535000D01*
X153357500Y-64312500D02*
X158567500Y-64312500D01*
D19*
X177993000Y-43696000D02*
X176173000Y-41876000D01*
X197093000Y-49096000D02*
X195008000Y-51181000D01*
D17*
X168500000Y-57900000D02*
X168500000Y-60960000D01*
X157300000Y-67460000D02*
X152370000Y-67460000D01*
X164130000Y-65330000D02*
X159430000Y-65330000D01*
X159430000Y-65330000D02*
X157300000Y-67460000D01*
D19*
X194675500Y-44373500D02*
X194943000Y-44106000D01*
X194943000Y-44106000D02*
X197093000Y-46256000D01*
X191215500Y-44373500D02*
X194675500Y-44373500D01*
X197093000Y-46256000D02*
X197093000Y-49096000D01*
D17*
X168500000Y-60960000D02*
X164130000Y-65330000D01*
%TA.AperFunction,Conductor*%
G36*
X208241660Y-40126685D02*
G01*
X208278532Y-40177435D01*
X208283500Y-40208800D01*
X208283500Y-40751378D01*
X208283016Y-40761280D01*
X208282361Y-40767967D01*
X208279754Y-40776968D01*
X208282594Y-40809759D01*
X208283121Y-40815845D01*
X208283500Y-40824603D01*
X208283500Y-40834748D01*
X208284356Y-40839344D01*
X208284942Y-40842490D01*
X208286280Y-40852318D01*
X208289413Y-40888496D01*
X208293529Y-40896917D01*
X208295042Y-40902373D01*
X208297075Y-40907641D01*
X208298791Y-40916853D01*
X208310073Y-40935155D01*
X208317849Y-40947771D01*
X208322633Y-40956456D01*
X208333499Y-40978684D01*
X208338575Y-40989069D01*
X208345444Y-40995441D01*
X208348814Y-40999979D01*
X208352614Y-41004170D01*
X208357532Y-41012148D01*
X208386444Y-41034133D01*
X208394020Y-41040502D01*
X208420646Y-41065201D01*
X208429348Y-41068673D01*
X208434124Y-41071692D01*
X208439181Y-41074235D01*
X208446641Y-41079908D01*
X208469524Y-41086534D01*
X208481516Y-41090007D01*
X208490897Y-41093228D01*
X208524622Y-41106683D01*
X208530915Y-41107300D01*
X208532664Y-41107300D01*
X208536158Y-41107556D01*
X208545165Y-41108439D01*
X208554168Y-41111046D01*
X208593045Y-41107679D01*
X208601803Y-41107300D01*
X219456000Y-41107300D01*
X219515660Y-41126685D01*
X219552532Y-41177435D01*
X219557500Y-41208800D01*
X219557500Y-51266978D01*
X219557016Y-51276880D01*
X219556361Y-51283567D01*
X219553754Y-51292568D01*
X219555176Y-51308986D01*
X219557121Y-51331445D01*
X219557500Y-51340203D01*
X219557500Y-51350348D01*
X219558356Y-51354944D01*
X219558942Y-51358090D01*
X219560280Y-51367918D01*
X219563413Y-51404096D01*
X219567529Y-51412517D01*
X219569042Y-51417973D01*
X219571075Y-51423241D01*
X219572791Y-51432453D01*
X219584073Y-51450755D01*
X219591849Y-51463371D01*
X219596633Y-51472056D01*
X219612575Y-51504669D01*
X219619444Y-51511041D01*
X219622814Y-51515579D01*
X219626614Y-51519770D01*
X219631532Y-51527748D01*
X219660444Y-51549733D01*
X219668020Y-51556102D01*
X219694646Y-51580801D01*
X219703348Y-51584273D01*
X219708124Y-51587292D01*
X219713181Y-51589835D01*
X219720641Y-51595508D01*
X219743524Y-51602134D01*
X219755516Y-51605607D01*
X219764897Y-51608828D01*
X219798622Y-51622283D01*
X219804915Y-51622900D01*
X219806664Y-51622900D01*
X219810158Y-51623156D01*
X219819165Y-51624039D01*
X219828168Y-51626646D01*
X219867045Y-51623279D01*
X219875803Y-51622900D01*
X230729988Y-51622900D01*
X230789648Y-51642285D01*
X230826520Y-51693035D01*
X230831488Y-51724403D01*
X230830808Y-77019892D01*
X230829648Y-120143240D01*
X230829511Y-125218003D01*
X230810125Y-125277662D01*
X230759374Y-125314533D01*
X230728011Y-125319500D01*
X219911422Y-125319500D01*
X219901520Y-125319016D01*
X219894833Y-125318361D01*
X219885832Y-125315754D01*
X219847924Y-125319037D01*
X219846955Y-125319121D01*
X219838197Y-125319500D01*
X219828052Y-125319500D01*
X219823456Y-125320356D01*
X219820310Y-125320942D01*
X219810482Y-125322280D01*
X219774304Y-125325413D01*
X219765883Y-125329529D01*
X219760427Y-125331042D01*
X219755159Y-125333075D01*
X219745947Y-125334791D01*
X219730545Y-125344285D01*
X219715029Y-125353849D01*
X219706344Y-125358633D01*
X219700277Y-125361599D01*
X219673731Y-125374575D01*
X219667359Y-125381444D01*
X219662821Y-125384814D01*
X219658630Y-125388614D01*
X219650652Y-125393532D01*
X219628667Y-125422444D01*
X219622298Y-125430020D01*
X219597599Y-125456646D01*
X219594127Y-125465348D01*
X219591108Y-125470124D01*
X219588565Y-125475181D01*
X219582892Y-125482641D01*
X219580285Y-125491645D01*
X219572793Y-125517516D01*
X219569572Y-125526897D01*
X219556117Y-125560622D01*
X219555500Y-125566915D01*
X219555500Y-125568664D01*
X219555244Y-125572158D01*
X219554361Y-125581165D01*
X219551754Y-125590168D01*
X219552563Y-125599507D01*
X219555121Y-125629045D01*
X219555500Y-125637803D01*
X219555500Y-135733600D01*
X219536115Y-135793260D01*
X219485365Y-135830132D01*
X219454000Y-135835100D01*
X208637422Y-135835100D01*
X208627520Y-135834616D01*
X208620833Y-135833961D01*
X208611832Y-135831354D01*
X208573924Y-135834637D01*
X208572955Y-135834721D01*
X208564197Y-135835100D01*
X208554052Y-135835100D01*
X208549456Y-135835956D01*
X208546310Y-135836542D01*
X208536482Y-135837880D01*
X208500304Y-135841013D01*
X208491883Y-135845129D01*
X208486427Y-135846642D01*
X208481159Y-135848675D01*
X208471947Y-135850391D01*
X208456545Y-135859885D01*
X208441029Y-135869449D01*
X208432344Y-135874233D01*
X208426277Y-135877199D01*
X208399731Y-135890175D01*
X208393359Y-135897044D01*
X208388821Y-135900414D01*
X208384630Y-135904214D01*
X208376652Y-135909132D01*
X208354667Y-135938044D01*
X208348298Y-135945620D01*
X208323599Y-135972246D01*
X208320127Y-135980948D01*
X208317108Y-135985724D01*
X208314565Y-135990781D01*
X208308892Y-135998241D01*
X208306285Y-136007245D01*
X208298793Y-136033116D01*
X208295572Y-136042497D01*
X208282117Y-136076222D01*
X208281500Y-136082515D01*
X208281500Y-136084264D01*
X208281244Y-136087758D01*
X208280361Y-136096765D01*
X208277754Y-136105768D01*
X208278563Y-136115107D01*
X208281121Y-136144645D01*
X208281500Y-136153403D01*
X208281500Y-136733600D01*
X208262115Y-136793260D01*
X208211365Y-136830132D01*
X208180000Y-136835100D01*
X157112000Y-136835100D01*
X157052340Y-136815715D01*
X157015468Y-136764965D01*
X157010500Y-136733600D01*
X157010500Y-136191022D01*
X157010984Y-136181120D01*
X157011639Y-136174433D01*
X157014246Y-136165432D01*
X157010879Y-136126555D01*
X157010500Y-136117797D01*
X157010500Y-136107652D01*
X157009058Y-136099909D01*
X157007720Y-136090082D01*
X157007065Y-136082515D01*
X157004587Y-136053904D01*
X157000471Y-136045483D01*
X156998958Y-136040027D01*
X156996925Y-136034759D01*
X156995209Y-136025547D01*
X156976151Y-135994629D01*
X156971367Y-135985944D01*
X156959540Y-135961749D01*
X156955425Y-135953331D01*
X156948556Y-135946959D01*
X156945186Y-135942421D01*
X156941386Y-135938230D01*
X156936468Y-135930252D01*
X156907556Y-135908267D01*
X156899980Y-135901898D01*
X156873354Y-135877199D01*
X156864652Y-135873727D01*
X156859876Y-135870708D01*
X156854819Y-135868165D01*
X156847359Y-135862492D01*
X156822550Y-135855308D01*
X156812484Y-135852393D01*
X156803102Y-135849172D01*
X156782652Y-135841013D01*
X156769378Y-135835717D01*
X156763085Y-135835100D01*
X156761336Y-135835100D01*
X156757842Y-135834844D01*
X156748835Y-135833961D01*
X156739832Y-135831354D01*
X156702368Y-135834599D01*
X156700955Y-135834721D01*
X156692197Y-135835100D01*
X145838000Y-135835100D01*
X145778340Y-135815715D01*
X145741468Y-135764965D01*
X145736500Y-135733600D01*
X145736500Y-132411943D01*
X154100844Y-132411943D01*
X154101039Y-132413171D01*
X154105282Y-132418162D01*
X154218185Y-132500946D01*
X154224550Y-132504923D01*
X154455703Y-132626538D01*
X154462598Y-132629536D01*
X154709192Y-132715651D01*
X154716438Y-132717592D01*
X154973053Y-132766312D01*
X154980521Y-132767163D01*
X155241518Y-132777418D01*
X155249013Y-132777157D01*
X155508662Y-132748720D01*
X155516051Y-132747350D01*
X155768626Y-132680852D01*
X155775749Y-132678400D01*
X156015724Y-132575299D01*
X156022379Y-132571835D01*
X156244501Y-132434381D01*
X156250564Y-132429976D01*
X156258118Y-132423581D01*
X156265312Y-132411955D01*
X156265079Y-132408817D01*
X156263238Y-132406048D01*
X155193368Y-131336178D01*
X155181182Y-131329969D01*
X155176024Y-131330786D01*
X154107053Y-132399757D01*
X154100844Y-132411943D01*
X145736500Y-132411943D01*
X145736500Y-130921901D01*
X153369732Y-130921901D01*
X153382263Y-131182793D01*
X153383179Y-131190252D01*
X153434137Y-131446430D01*
X153436145Y-131453670D01*
X153524404Y-131699493D01*
X153527462Y-131706362D01*
X153651087Y-131936439D01*
X153655128Y-131942784D01*
X153726940Y-132038950D01*
X153738108Y-132046843D01*
X153739591Y-132046823D01*
X153744816Y-132043574D01*
X154811422Y-130976968D01*
X154816797Y-130966418D01*
X155546369Y-130966418D01*
X155547186Y-130971576D01*
X156619538Y-132043928D01*
X156631496Y-132050021D01*
X156638196Y-132043962D01*
X156773319Y-131833891D01*
X156776903Y-131827290D01*
X156884181Y-131589140D01*
X156886751Y-131582078D01*
X156957651Y-131330687D01*
X156959146Y-131323342D01*
X156992264Y-131063014D01*
X156992652Y-131057937D01*
X156995003Y-130968152D01*
X156994881Y-130963058D01*
X156975434Y-130701370D01*
X156974323Y-130693933D01*
X156916677Y-130439179D01*
X156914484Y-130432005D01*
X156819816Y-130188565D01*
X156816580Y-130181780D01*
X156686974Y-129955017D01*
X156682771Y-129948785D01*
X156637733Y-129891656D01*
X156626362Y-129884058D01*
X156624166Y-129884144D01*
X156619997Y-129886813D01*
X155552578Y-130954232D01*
X155546369Y-130966418D01*
X154816797Y-130966418D01*
X154817631Y-130964782D01*
X154816814Y-130959624D01*
X153746372Y-129889182D01*
X153734186Y-129882973D01*
X153731313Y-129883428D01*
X153728397Y-129885759D01*
X153708366Y-129909842D01*
X153703994Y-129915972D01*
X153568501Y-130139257D01*
X153565083Y-130145964D01*
X153464080Y-130386830D01*
X153461696Y-130393953D01*
X153397401Y-130647117D01*
X153396098Y-130654510D01*
X153369928Y-130914391D01*
X153369732Y-130921901D01*
X145736500Y-130921901D01*
X145736500Y-129519242D01*
X154098045Y-129519242D01*
X154102460Y-129526850D01*
X155170632Y-130595022D01*
X155182818Y-130601231D01*
X155187976Y-130600414D01*
X156257793Y-129530597D01*
X156264002Y-129518411D01*
X156263920Y-129517893D01*
X156258828Y-129512061D01*
X156105298Y-129405553D01*
X156098826Y-129401741D01*
X155864561Y-129286215D01*
X155857604Y-129283404D01*
X155608845Y-129203775D01*
X155601530Y-129202019D01*
X155343741Y-129160035D01*
X155336247Y-129159380D01*
X155075086Y-129155961D01*
X155067581Y-129156420D01*
X154808774Y-129191642D01*
X154801426Y-129193204D01*
X154550664Y-129266295D01*
X154543634Y-129268923D01*
X154306423Y-129378278D01*
X154299857Y-129381917D01*
X154106533Y-129508667D01*
X154098045Y-129519242D01*
X145736500Y-129519242D01*
X145736500Y-125675422D01*
X145736984Y-125665520D01*
X145737639Y-125658833D01*
X145740246Y-125649832D01*
X145736879Y-125610955D01*
X145736500Y-125602197D01*
X145736500Y-125592052D01*
X145735058Y-125584309D01*
X145733720Y-125574482D01*
X145733065Y-125566915D01*
X145730587Y-125538304D01*
X145726471Y-125529883D01*
X145724958Y-125524427D01*
X145722925Y-125519159D01*
X145721209Y-125509947D01*
X145702151Y-125479029D01*
X145697367Y-125470344D01*
X145685540Y-125446149D01*
X145681425Y-125437731D01*
X145674556Y-125431359D01*
X145671186Y-125426821D01*
X145667386Y-125422630D01*
X145662468Y-125414652D01*
X145633556Y-125392667D01*
X145625980Y-125386298D01*
X145599354Y-125361599D01*
X145590652Y-125358127D01*
X145585876Y-125355108D01*
X145580819Y-125352565D01*
X145573359Y-125346892D01*
X145548550Y-125339708D01*
X145538484Y-125336793D01*
X145529102Y-125333572D01*
X145508652Y-125325413D01*
X145495378Y-125320117D01*
X145489085Y-125319500D01*
X145487336Y-125319500D01*
X145483842Y-125319244D01*
X145474835Y-125318361D01*
X145465832Y-125315754D01*
X145428368Y-125318999D01*
X145426955Y-125319121D01*
X145418197Y-125319500D01*
X134564012Y-125319500D01*
X134504352Y-125300115D01*
X134467480Y-125249365D01*
X134462512Y-125217997D01*
X134462698Y-118302736D01*
X137475070Y-118302736D01*
X137476380Y-118330000D01*
X137486768Y-118546276D01*
X137487909Y-118570041D01*
X137540118Y-118832512D01*
X137541390Y-118836054D01*
X137629276Y-119080839D01*
X137629279Y-119080846D01*
X137630549Y-119084383D01*
X137757215Y-119320121D01*
X137917335Y-119534547D01*
X138107390Y-119722950D01*
X138110434Y-119725182D01*
X138298318Y-119862944D01*
X138323205Y-119881192D01*
X138560039Y-120005797D01*
X138563591Y-120007037D01*
X138563597Y-120007040D01*
X138809130Y-120092783D01*
X138809132Y-120092784D01*
X138812690Y-120094026D01*
X138816390Y-120094729D01*
X138816392Y-120094729D01*
X138874309Y-120105725D01*
X139075606Y-120143943D01*
X139079371Y-120144091D01*
X139079372Y-120144091D01*
X139103244Y-120145029D01*
X139343013Y-120154449D01*
X139346746Y-120154040D01*
X139346751Y-120154040D01*
X139605291Y-120125725D01*
X139609035Y-120125315D01*
X139867829Y-120057180D01*
X139871297Y-120055690D01*
X139871300Y-120055689D01*
X140110251Y-119953028D01*
X140113710Y-119951542D01*
X140341275Y-119810720D01*
X140442317Y-119725182D01*
X140542656Y-119640239D01*
X140542659Y-119640236D01*
X140545526Y-119637809D01*
X140721976Y-119436607D01*
X140866747Y-119211534D01*
X140868291Y-119208107D01*
X140870090Y-119204793D01*
X140871585Y-119205604D01*
X140909447Y-119163894D01*
X140959841Y-119150500D01*
X163826380Y-119150500D01*
X163886040Y-119169885D01*
X163898151Y-119180229D01*
X176408411Y-131690489D01*
X176436890Y-131746382D01*
X176435017Y-131787244D01*
X176382810Y-131992811D01*
X176382809Y-131992814D01*
X176381881Y-131996470D01*
X176355070Y-132262736D01*
X176362237Y-132411943D01*
X176366703Y-132504923D01*
X176367909Y-132530041D01*
X176420118Y-132792512D01*
X176421390Y-132796054D01*
X176509276Y-133040839D01*
X176509279Y-133040846D01*
X176510549Y-133044383D01*
X176637215Y-133280121D01*
X176797335Y-133494547D01*
X176987390Y-133682950D01*
X177203205Y-133841192D01*
X177440039Y-133965797D01*
X177443591Y-133967037D01*
X177443597Y-133967040D01*
X177689130Y-134052783D01*
X177689132Y-134052784D01*
X177692690Y-134054026D01*
X177696390Y-134054729D01*
X177696392Y-134054729D01*
X177824148Y-134078985D01*
X177955606Y-134103943D01*
X177959371Y-134104091D01*
X177959372Y-134104091D01*
X177983244Y-134105029D01*
X178223013Y-134114449D01*
X178226746Y-134114040D01*
X178226751Y-134114040D01*
X178485291Y-134085725D01*
X178489035Y-134085315D01*
X178747829Y-134017180D01*
X178751297Y-134015690D01*
X178751300Y-134015689D01*
X178990251Y-133913028D01*
X178993710Y-133911542D01*
X179221275Y-133770720D01*
X179322317Y-133685182D01*
X179422656Y-133600239D01*
X179422659Y-133600236D01*
X179425526Y-133597809D01*
X179601976Y-133396607D01*
X179746747Y-133171534D01*
X179856661Y-132927534D01*
X179899072Y-132777157D01*
X179928278Y-132673601D01*
X179928279Y-132673597D01*
X179929302Y-132669969D01*
X179934828Y-132626538D01*
X179962753Y-132407029D01*
X179962754Y-132407022D01*
X179963075Y-132404495D01*
X179965549Y-132310000D01*
X179962037Y-132262736D01*
X185355070Y-132262736D01*
X185362237Y-132411943D01*
X185366703Y-132504923D01*
X185367909Y-132530041D01*
X185420118Y-132792512D01*
X185421390Y-132796054D01*
X185509276Y-133040839D01*
X185509279Y-133040846D01*
X185510549Y-133044383D01*
X185637215Y-133280121D01*
X185797335Y-133494547D01*
X185987390Y-133682950D01*
X186203205Y-133841192D01*
X186440039Y-133965797D01*
X186443591Y-133967037D01*
X186443597Y-133967040D01*
X186689130Y-134052783D01*
X186689132Y-134052784D01*
X186692690Y-134054026D01*
X186696390Y-134054729D01*
X186696392Y-134054729D01*
X186824148Y-134078985D01*
X186955606Y-134103943D01*
X186959371Y-134104091D01*
X186959372Y-134104091D01*
X186983244Y-134105029D01*
X187223013Y-134114449D01*
X187226746Y-134114040D01*
X187226751Y-134114040D01*
X187485291Y-134085725D01*
X187489035Y-134085315D01*
X187747829Y-134017180D01*
X187751297Y-134015690D01*
X187751300Y-134015689D01*
X187990251Y-133913028D01*
X187993710Y-133911542D01*
X188221275Y-133770720D01*
X188322317Y-133685182D01*
X188422656Y-133600239D01*
X188422659Y-133600236D01*
X188425526Y-133597809D01*
X188601976Y-133396607D01*
X188746747Y-133171534D01*
X188856661Y-132927534D01*
X188899072Y-132777157D01*
X188928278Y-132673601D01*
X188928279Y-132673597D01*
X188929302Y-132669969D01*
X188934828Y-132626538D01*
X188962128Y-132411943D01*
X210774844Y-132411943D01*
X210775039Y-132413171D01*
X210779282Y-132418162D01*
X210892185Y-132500946D01*
X210898550Y-132504923D01*
X211129703Y-132626538D01*
X211136598Y-132629536D01*
X211383192Y-132715651D01*
X211390438Y-132717592D01*
X211647053Y-132766312D01*
X211654521Y-132767163D01*
X211915518Y-132777418D01*
X211923013Y-132777157D01*
X212182662Y-132748720D01*
X212190051Y-132747350D01*
X212442626Y-132680852D01*
X212449749Y-132678400D01*
X212689724Y-132575299D01*
X212696379Y-132571835D01*
X212918501Y-132434381D01*
X212924564Y-132429976D01*
X212932118Y-132423581D01*
X212939312Y-132411955D01*
X212939079Y-132408817D01*
X212937238Y-132406048D01*
X211867368Y-131336178D01*
X211855182Y-131329969D01*
X211850024Y-131330786D01*
X210781053Y-132399757D01*
X210774844Y-132411943D01*
X188962128Y-132411943D01*
X188962753Y-132407029D01*
X188962754Y-132407022D01*
X188963075Y-132404495D01*
X188965549Y-132310000D01*
X188945717Y-132043123D01*
X188935161Y-131996470D01*
X188898372Y-131833891D01*
X188886655Y-131782109D01*
X188872762Y-131746382D01*
X188791028Y-131536203D01*
X188791027Y-131536200D01*
X188789662Y-131532691D01*
X188787795Y-131529425D01*
X188787792Y-131529418D01*
X188658739Y-131303623D01*
X188658737Y-131303620D01*
X188656868Y-131300350D01*
X188491190Y-131090189D01*
X188312295Y-130921901D01*
X210043732Y-130921901D01*
X210056263Y-131182793D01*
X210057179Y-131190252D01*
X210108137Y-131446430D01*
X210110145Y-131453670D01*
X210198404Y-131699493D01*
X210201462Y-131706362D01*
X210325087Y-131936439D01*
X210329128Y-131942784D01*
X210400940Y-132038950D01*
X210412108Y-132046843D01*
X210413591Y-132046823D01*
X210418816Y-132043574D01*
X211485422Y-130976968D01*
X211490797Y-130966418D01*
X212220369Y-130966418D01*
X212221186Y-130971576D01*
X213293538Y-132043928D01*
X213305496Y-132050021D01*
X213312196Y-132043962D01*
X213447319Y-131833891D01*
X213450903Y-131827290D01*
X213558181Y-131589140D01*
X213560751Y-131582078D01*
X213631651Y-131330687D01*
X213633146Y-131323342D01*
X213666264Y-131063014D01*
X213666652Y-131057937D01*
X213669003Y-130968152D01*
X213668881Y-130963058D01*
X213649434Y-130701370D01*
X213648323Y-130693933D01*
X213590677Y-130439179D01*
X213588484Y-130432005D01*
X213493816Y-130188565D01*
X213490580Y-130181780D01*
X213360974Y-129955017D01*
X213356771Y-129948785D01*
X213311733Y-129891656D01*
X213300362Y-129884058D01*
X213298166Y-129884144D01*
X213293997Y-129886813D01*
X212226578Y-130954232D01*
X212220369Y-130966418D01*
X211490797Y-130966418D01*
X211491631Y-130964782D01*
X211490814Y-130959624D01*
X210420372Y-129889182D01*
X210408186Y-129882973D01*
X210405313Y-129883428D01*
X210402397Y-129885759D01*
X210382366Y-129909842D01*
X210377994Y-129915972D01*
X210242501Y-130139257D01*
X210239083Y-130145964D01*
X210138080Y-130386830D01*
X210135696Y-130393953D01*
X210071401Y-130647117D01*
X210070098Y-130654510D01*
X210043928Y-130914391D01*
X210043732Y-130921901D01*
X188312295Y-130921901D01*
X188296269Y-130906825D01*
X188076385Y-130754286D01*
X188073015Y-130752624D01*
X188073008Y-130752620D01*
X187839744Y-130637587D01*
X187839740Y-130637585D01*
X187836371Y-130635924D01*
X187581497Y-130554338D01*
X187449431Y-130532830D01*
X187321087Y-130511928D01*
X187321083Y-130511928D01*
X187317364Y-130511322D01*
X187181283Y-130509541D01*
X187053545Y-130507868D01*
X187053540Y-130507868D01*
X187049774Y-130507819D01*
X187046042Y-130508327D01*
X187046040Y-130508327D01*
X186788343Y-130543398D01*
X186788339Y-130543399D01*
X186784605Y-130543907D01*
X186780982Y-130544963D01*
X186531298Y-130617738D01*
X186531294Y-130617740D01*
X186527683Y-130618792D01*
X186284652Y-130730831D01*
X186281509Y-130732892D01*
X186281503Y-130732895D01*
X186064003Y-130875495D01*
X186063999Y-130875498D01*
X186060851Y-130877562D01*
X185861197Y-131055760D01*
X185690075Y-131261512D01*
X185688124Y-131264728D01*
X185688122Y-131264730D01*
X185648038Y-131330786D01*
X185551244Y-131490298D01*
X185447755Y-131737091D01*
X185446827Y-131740745D01*
X185382809Y-131992814D01*
X185382808Y-131992821D01*
X185381881Y-131996470D01*
X185355070Y-132262736D01*
X179962037Y-132262736D01*
X179945717Y-132043123D01*
X179935161Y-131996470D01*
X179898372Y-131833891D01*
X179886655Y-131782109D01*
X179872762Y-131746382D01*
X179791028Y-131536203D01*
X179791027Y-131536200D01*
X179789662Y-131532691D01*
X179787795Y-131529425D01*
X179787792Y-131529418D01*
X179658739Y-131303623D01*
X179658737Y-131303620D01*
X179656868Y-131300350D01*
X179491190Y-131090189D01*
X179296269Y-130906825D01*
X179076385Y-130754286D01*
X179073015Y-130752624D01*
X179073008Y-130752620D01*
X178839744Y-130637587D01*
X178839740Y-130637585D01*
X178836371Y-130635924D01*
X178581497Y-130554338D01*
X178449431Y-130532830D01*
X178321087Y-130511928D01*
X178321083Y-130511928D01*
X178317364Y-130511322D01*
X178181283Y-130509541D01*
X178053545Y-130507868D01*
X178053540Y-130507868D01*
X178049774Y-130507819D01*
X178046042Y-130508327D01*
X178046040Y-130508327D01*
X177788337Y-130543399D01*
X177788336Y-130543399D01*
X177784605Y-130543907D01*
X177642039Y-130585461D01*
X177579337Y-130583545D01*
X177541865Y-130559787D01*
X176501320Y-129519242D01*
X210772045Y-129519242D01*
X210776460Y-129526850D01*
X211844632Y-130595022D01*
X211856818Y-130601231D01*
X211861976Y-130600414D01*
X212931793Y-129530597D01*
X212938002Y-129518411D01*
X212937920Y-129517893D01*
X212932828Y-129512061D01*
X212779298Y-129405553D01*
X212772826Y-129401741D01*
X212538561Y-129286215D01*
X212531604Y-129283404D01*
X212282845Y-129203775D01*
X212275530Y-129202019D01*
X212017741Y-129160035D01*
X212010247Y-129159380D01*
X211749086Y-129155961D01*
X211741581Y-129156420D01*
X211482774Y-129191642D01*
X211475426Y-129193204D01*
X211224664Y-129266295D01*
X211217634Y-129268923D01*
X210980423Y-129378278D01*
X210973857Y-129381917D01*
X210780533Y-129508667D01*
X210772045Y-129519242D01*
X176501320Y-129519242D01*
X173974689Y-126992611D01*
X209352394Y-126992611D01*
X209370999Y-127161135D01*
X209429266Y-127320356D01*
X209523830Y-127461083D01*
X209649233Y-127575191D01*
X209654606Y-127578108D01*
X209654607Y-127578109D01*
X209792855Y-127653171D01*
X209798235Y-127656092D01*
X209962233Y-127699116D01*
X210032476Y-127700219D01*
X210125639Y-127701683D01*
X210125640Y-127701683D01*
X210131760Y-127701779D01*
X210223425Y-127680785D01*
X210291066Y-127665294D01*
X210291068Y-127665293D01*
X210297029Y-127663928D01*
X210372238Y-127626102D01*
X210443035Y-127590495D01*
X210443037Y-127590493D01*
X210448498Y-127587747D01*
X210577423Y-127477634D01*
X210676361Y-127339947D01*
X210739601Y-127182634D01*
X210763490Y-127014778D01*
X210763645Y-127000000D01*
X210762018Y-126986550D01*
X210755853Y-126935613D01*
X210743276Y-126831680D01*
X210683345Y-126673077D01*
X210678857Y-126666547D01*
X210590777Y-126538390D01*
X210590775Y-126538388D01*
X210587312Y-126533349D01*
X210582749Y-126529284D01*
X210582746Y-126529280D01*
X210515049Y-126468965D01*
X210460721Y-126420560D01*
X210398505Y-126387618D01*
X210316289Y-126344087D01*
X210316286Y-126344086D01*
X210310881Y-126341224D01*
X210304950Y-126339734D01*
X210304947Y-126339733D01*
X210229048Y-126320669D01*
X210146441Y-126299919D01*
X210099522Y-126299673D01*
X209983014Y-126299063D01*
X209976895Y-126299031D01*
X209970944Y-126300460D01*
X209970942Y-126300460D01*
X209817982Y-126337183D01*
X209817978Y-126337184D01*
X209812032Y-126338612D01*
X209661369Y-126416375D01*
X209656757Y-126420398D01*
X209656756Y-126420399D01*
X209538216Y-126523807D01*
X209538213Y-126523810D01*
X209533604Y-126527831D01*
X209436113Y-126666547D01*
X209374524Y-126824513D01*
X209352394Y-126992611D01*
X173974689Y-126992611D01*
X165264814Y-118282736D01*
X224215070Y-118282736D01*
X224227909Y-118550041D01*
X224280118Y-118812512D01*
X224310995Y-118898512D01*
X224369276Y-119060839D01*
X224369279Y-119060846D01*
X224370549Y-119064383D01*
X224497215Y-119300121D01*
X224657335Y-119514547D01*
X224847390Y-119702950D01*
X224850434Y-119705182D01*
X224997065Y-119812696D01*
X225063205Y-119861192D01*
X225300039Y-119985797D01*
X225303591Y-119987037D01*
X225303597Y-119987040D01*
X225549130Y-120072783D01*
X225549132Y-120072784D01*
X225552690Y-120074026D01*
X225556390Y-120074729D01*
X225556392Y-120074729D01*
X225651484Y-120092783D01*
X225815606Y-120123943D01*
X225819371Y-120124091D01*
X225819372Y-120124091D01*
X225843244Y-120125029D01*
X226083013Y-120134449D01*
X226086746Y-120134040D01*
X226086751Y-120134040D01*
X226345291Y-120105725D01*
X226349035Y-120105315D01*
X226607829Y-120037180D01*
X226611297Y-120035690D01*
X226611300Y-120035689D01*
X226850251Y-119933028D01*
X226853710Y-119931542D01*
X227045762Y-119812696D01*
X227078082Y-119792696D01*
X227078083Y-119792695D01*
X227081275Y-119790720D01*
X227158692Y-119725182D01*
X227282656Y-119620239D01*
X227282659Y-119620236D01*
X227285526Y-119617809D01*
X227461976Y-119416607D01*
X227606747Y-119191534D01*
X227625232Y-119150500D01*
X227715114Y-118950968D01*
X227716661Y-118947534D01*
X227749101Y-118832512D01*
X227788278Y-118693601D01*
X227788279Y-118693597D01*
X227789302Y-118689969D01*
X227806634Y-118553735D01*
X227822753Y-118427029D01*
X227822754Y-118427022D01*
X227823075Y-118424495D01*
X227825549Y-118330000D01*
X227805717Y-118063123D01*
X227795161Y-118016470D01*
X227747485Y-117805778D01*
X227746655Y-117802109D01*
X227735572Y-117773610D01*
X227651028Y-117556203D01*
X227651027Y-117556200D01*
X227649662Y-117552691D01*
X227647795Y-117549425D01*
X227647792Y-117549418D01*
X227518739Y-117323623D01*
X227518737Y-117323620D01*
X227516868Y-117320350D01*
X227351190Y-117110189D01*
X227156269Y-116926825D01*
X226936385Y-116774286D01*
X226933015Y-116772624D01*
X226933008Y-116772620D01*
X226699744Y-116657587D01*
X226699740Y-116657585D01*
X226696371Y-116655924D01*
X226441497Y-116574338D01*
X226281781Y-116548327D01*
X226181087Y-116531928D01*
X226181083Y-116531928D01*
X226177364Y-116531322D01*
X226041283Y-116529541D01*
X225913545Y-116527868D01*
X225913540Y-116527868D01*
X225909774Y-116527819D01*
X225906042Y-116528327D01*
X225906040Y-116528327D01*
X225648343Y-116563398D01*
X225648339Y-116563399D01*
X225644605Y-116563907D01*
X225640982Y-116564963D01*
X225391298Y-116637738D01*
X225391294Y-116637740D01*
X225387683Y-116638792D01*
X225144652Y-116750831D01*
X225141509Y-116752892D01*
X225141503Y-116752895D01*
X224924003Y-116895495D01*
X224923999Y-116895498D01*
X224920851Y-116897562D01*
X224721197Y-117075760D01*
X224550075Y-117281512D01*
X224548124Y-117284728D01*
X224548122Y-117284730D01*
X224535986Y-117304730D01*
X224411244Y-117510298D01*
X224307755Y-117757091D01*
X224306827Y-117760745D01*
X224242809Y-118012814D01*
X224242808Y-118012821D01*
X224241881Y-118016470D01*
X224215070Y-118282736D01*
X165264814Y-118282736D01*
X164772432Y-117790354D01*
X164771684Y-117789599D01*
X164713111Y-117729786D01*
X164709141Y-117725732D01*
X164672069Y-117701841D01*
X164663728Y-117695847D01*
X164633701Y-117671876D01*
X164633698Y-117671874D01*
X164629266Y-117668336D01*
X164598089Y-117653265D01*
X164587290Y-117647204D01*
X164562953Y-117631520D01*
X164558183Y-117628446D01*
X164552853Y-117626506D01*
X164552847Y-117626503D01*
X164516739Y-117613360D01*
X164507280Y-117609365D01*
X164487937Y-117600015D01*
X164467578Y-117590173D01*
X164433830Y-117582381D01*
X164421971Y-117578869D01*
X164389422Y-117567022D01*
X164366356Y-117564108D01*
X164345666Y-117561494D01*
X164335557Y-117559693D01*
X164298122Y-117551051D01*
X164298119Y-117551051D01*
X164292589Y-117549774D01*
X164286911Y-117549754D01*
X164286910Y-117549754D01*
X164278864Y-117549726D01*
X164252499Y-117549634D01*
X164251521Y-117549601D01*
X164250717Y-117549500D01*
X164214176Y-117549500D01*
X164213822Y-117549499D01*
X164212371Y-117549494D01*
X164113000Y-117549147D01*
X164111839Y-117549407D01*
X164110114Y-117549500D01*
X140955304Y-117549500D01*
X140895644Y-117530115D01*
X140867182Y-117498366D01*
X140778739Y-117343623D01*
X140778737Y-117343620D01*
X140776868Y-117340350D01*
X140611190Y-117130189D01*
X140416269Y-116946825D01*
X140196385Y-116794286D01*
X140193015Y-116792624D01*
X140193008Y-116792620D01*
X139959744Y-116677587D01*
X139959740Y-116677585D01*
X139956371Y-116675924D01*
X139701497Y-116594338D01*
X139569430Y-116572830D01*
X139441087Y-116551928D01*
X139441083Y-116551928D01*
X139437364Y-116551322D01*
X139301283Y-116549541D01*
X139173545Y-116547868D01*
X139173540Y-116547868D01*
X139169774Y-116547819D01*
X139166042Y-116548327D01*
X139166040Y-116548327D01*
X138908343Y-116583398D01*
X138908339Y-116583399D01*
X138904605Y-116583907D01*
X138900982Y-116584963D01*
X138651298Y-116657738D01*
X138651294Y-116657740D01*
X138647683Y-116658792D01*
X138404652Y-116770831D01*
X138401509Y-116772892D01*
X138401503Y-116772895D01*
X138184003Y-116915495D01*
X138183999Y-116915498D01*
X138180851Y-116917562D01*
X137981197Y-117095760D01*
X137810075Y-117301512D01*
X137808124Y-117304728D01*
X137808122Y-117304730D01*
X137788302Y-117337392D01*
X137671244Y-117530298D01*
X137567755Y-117777091D01*
X137566827Y-117780745D01*
X137502809Y-118032814D01*
X137502808Y-118032821D01*
X137501881Y-118036470D01*
X137501503Y-118040226D01*
X137477084Y-118282736D01*
X137475070Y-118302736D01*
X134462698Y-118302736D01*
X134462940Y-109302736D01*
X137475070Y-109302736D01*
X137476380Y-109330000D01*
X137486768Y-109546276D01*
X137487909Y-109570041D01*
X137540118Y-109832512D01*
X137541390Y-109836054D01*
X137629276Y-110080839D01*
X137629279Y-110080846D01*
X137630549Y-110084383D01*
X137757215Y-110320121D01*
X137917335Y-110534547D01*
X138107390Y-110722950D01*
X138110434Y-110725182D01*
X138202512Y-110792696D01*
X138323205Y-110881192D01*
X138560039Y-111005797D01*
X138563591Y-111007037D01*
X138563597Y-111007040D01*
X138809130Y-111092783D01*
X138809132Y-111092784D01*
X138812690Y-111094026D01*
X138816390Y-111094729D01*
X138816392Y-111094729D01*
X138874309Y-111105725D01*
X139075606Y-111143943D01*
X139079371Y-111144091D01*
X139079372Y-111144091D01*
X139103244Y-111145029D01*
X139343013Y-111154449D01*
X139346746Y-111154040D01*
X139346751Y-111154040D01*
X139605291Y-111125725D01*
X139609035Y-111125315D01*
X139867829Y-111057180D01*
X139871297Y-111055690D01*
X139871300Y-111055689D01*
X140110251Y-110953028D01*
X140113710Y-110951542D01*
X140341275Y-110810720D01*
X140442317Y-110725182D01*
X140542656Y-110640239D01*
X140542659Y-110640236D01*
X140545526Y-110637809D01*
X140721976Y-110436607D01*
X140866747Y-110211534D01*
X140874334Y-110194693D01*
X140975114Y-109970968D01*
X140976661Y-109967534D01*
X141049302Y-109709969D01*
X141051385Y-109693601D01*
X141082753Y-109447029D01*
X141082754Y-109447022D01*
X141083075Y-109444495D01*
X141083666Y-109421944D01*
X141085482Y-109352552D01*
X141085549Y-109350000D01*
X141065717Y-109083123D01*
X141061192Y-109063123D01*
X141007485Y-108825778D01*
X141006655Y-108822109D01*
X140997514Y-108798604D01*
X140911028Y-108576203D01*
X140911027Y-108576200D01*
X140909662Y-108572691D01*
X140907795Y-108569425D01*
X140907792Y-108569418D01*
X140778739Y-108343623D01*
X140778737Y-108343620D01*
X140776868Y-108340350D01*
X140611190Y-108130189D01*
X140416269Y-107946825D01*
X140196385Y-107794286D01*
X140193015Y-107792624D01*
X140193008Y-107792620D01*
X139959744Y-107677587D01*
X139959740Y-107677585D01*
X139956371Y-107675924D01*
X139701497Y-107594338D01*
X139569431Y-107572830D01*
X139441087Y-107551928D01*
X139441083Y-107551928D01*
X139437364Y-107551322D01*
X139301283Y-107549541D01*
X139173545Y-107547868D01*
X139173540Y-107547868D01*
X139169774Y-107547819D01*
X139166042Y-107548327D01*
X139166040Y-107548327D01*
X138908343Y-107583398D01*
X138908339Y-107583399D01*
X138904605Y-107583907D01*
X138900982Y-107584963D01*
X138651298Y-107657738D01*
X138651294Y-107657740D01*
X138647683Y-107658792D01*
X138404652Y-107770831D01*
X138401509Y-107772892D01*
X138401503Y-107772895D01*
X138184003Y-107915495D01*
X138183999Y-107915498D01*
X138180851Y-107917562D01*
X137981197Y-108095760D01*
X137810075Y-108301512D01*
X137808124Y-108304728D01*
X137808122Y-108304730D01*
X137788302Y-108337392D01*
X137671244Y-108530298D01*
X137567755Y-108777091D01*
X137566827Y-108780745D01*
X137502809Y-109032814D01*
X137502808Y-109032821D01*
X137501881Y-109036470D01*
X137501503Y-109040226D01*
X137477084Y-109282736D01*
X137475070Y-109302736D01*
X134462940Y-109302736D01*
X134463250Y-97782736D01*
X139237070Y-97782736D01*
X139239436Y-97831999D01*
X139249563Y-98042828D01*
X139249909Y-98050041D01*
X139302118Y-98312512D01*
X139303390Y-98316054D01*
X139391276Y-98560839D01*
X139391279Y-98560846D01*
X139392549Y-98564383D01*
X139519215Y-98800121D01*
X139679335Y-99014547D01*
X139869390Y-99202950D01*
X139872434Y-99205182D01*
X140080837Y-99357989D01*
X140085205Y-99361192D01*
X140322039Y-99485797D01*
X140341317Y-99492529D01*
X140427464Y-99522613D01*
X140477397Y-99560584D01*
X140495500Y-99618438D01*
X140495500Y-102171079D01*
X140495494Y-102172142D01*
X140494559Y-102261407D01*
X140495758Y-102266952D01*
X140495758Y-102266953D01*
X140503880Y-102304517D01*
X140505539Y-102314650D01*
X140510454Y-102358472D01*
X140512320Y-102363829D01*
X140521842Y-102391174D01*
X140525195Y-102403103D01*
X140532511Y-102436942D01*
X140534904Y-102442073D01*
X140534908Y-102442086D01*
X140551149Y-102476914D01*
X140555012Y-102486426D01*
X140569515Y-102528073D01*
X140572525Y-102532890D01*
X140587866Y-102557442D01*
X140593777Y-102568329D01*
X140608409Y-102599707D01*
X140635440Y-102634554D01*
X140641307Y-102642964D01*
X140664684Y-102680375D01*
X140668679Y-102684398D01*
X140668683Y-102684403D01*
X140692940Y-102708830D01*
X140693603Y-102709538D01*
X140694099Y-102710177D01*
X140719959Y-102736037D01*
X140791230Y-102807807D01*
X140792233Y-102808443D01*
X140793526Y-102809604D01*
X152081568Y-114097646D01*
X152082315Y-114098400D01*
X152144859Y-114162268D01*
X152160457Y-114172320D01*
X152181931Y-114186159D01*
X152190272Y-114192153D01*
X152224734Y-114219664D01*
X152255916Y-114234737D01*
X152266706Y-114240793D01*
X152295817Y-114259554D01*
X152314494Y-114266352D01*
X152337250Y-114274635D01*
X152346709Y-114278630D01*
X152381317Y-114295360D01*
X152381319Y-114295361D01*
X152386423Y-114297828D01*
X152391948Y-114299104D01*
X152391955Y-114299106D01*
X152420165Y-114305619D01*
X152432046Y-114309138D01*
X152451793Y-114316324D01*
X152464578Y-114320978D01*
X152470206Y-114321689D01*
X152508326Y-114326505D01*
X152518435Y-114328306D01*
X152555879Y-114336950D01*
X152561411Y-114338227D01*
X152567087Y-114338247D01*
X152567089Y-114338247D01*
X152580489Y-114338293D01*
X152601515Y-114338366D01*
X152602484Y-114338399D01*
X152603283Y-114338500D01*
X152639664Y-114338500D01*
X152640017Y-114338501D01*
X152741001Y-114338853D01*
X152742162Y-114338593D01*
X152743887Y-114338500D01*
X221803079Y-114338500D01*
X221804142Y-114338506D01*
X221887728Y-114339382D01*
X221887732Y-114339382D01*
X221893407Y-114339441D01*
X221936524Y-114330119D01*
X221946650Y-114328461D01*
X221960381Y-114326921D01*
X221984831Y-114324179D01*
X221984833Y-114324178D01*
X221990472Y-114323546D01*
X222012574Y-114315849D01*
X222023174Y-114312158D01*
X222035103Y-114308805D01*
X222049839Y-114305619D01*
X222068942Y-114301489D01*
X222074073Y-114299096D01*
X222074086Y-114299092D01*
X222108914Y-114282851D01*
X222118426Y-114278988D01*
X222160073Y-114264485D01*
X222172882Y-114256481D01*
X222189442Y-114246134D01*
X222200329Y-114240223D01*
X222231707Y-114225591D01*
X222266556Y-114198559D01*
X222274964Y-114192693D01*
X222312375Y-114169316D01*
X222316398Y-114165321D01*
X222316403Y-114165317D01*
X222340830Y-114141060D01*
X222341538Y-114140397D01*
X222342177Y-114139901D01*
X222368037Y-114114041D01*
X222439807Y-114042770D01*
X222440443Y-114041767D01*
X222441604Y-114040474D01*
X225400423Y-111081655D01*
X225456316Y-111053176D01*
X225505654Y-111057601D01*
X225552690Y-111074026D01*
X225556390Y-111074729D01*
X225556392Y-111074729D01*
X225592872Y-111081655D01*
X225815606Y-111123943D01*
X225819371Y-111124091D01*
X225819372Y-111124091D01*
X225843244Y-111125029D01*
X226083013Y-111134449D01*
X226086746Y-111134040D01*
X226086751Y-111134040D01*
X226345291Y-111105725D01*
X226349035Y-111105315D01*
X226607829Y-111037180D01*
X226611297Y-111035690D01*
X226611300Y-111035689D01*
X226850251Y-110933028D01*
X226853710Y-110931542D01*
X227045762Y-110812696D01*
X227078082Y-110792696D01*
X227078083Y-110792695D01*
X227081275Y-110790720D01*
X227158692Y-110725182D01*
X227282656Y-110620239D01*
X227282659Y-110620236D01*
X227285526Y-110617809D01*
X227461976Y-110416607D01*
X227606747Y-110191534D01*
X227656612Y-110080839D01*
X227715114Y-109950968D01*
X227716661Y-109947534D01*
X227749101Y-109832512D01*
X227788278Y-109693601D01*
X227788279Y-109693597D01*
X227789302Y-109689969D01*
X227806634Y-109553735D01*
X227822753Y-109427029D01*
X227822754Y-109427022D01*
X227823075Y-109424495D01*
X227825549Y-109330000D01*
X227805717Y-109063123D01*
X227795161Y-109016470D01*
X227752011Y-108825778D01*
X227746655Y-108802109D01*
X227735572Y-108773610D01*
X227651028Y-108556203D01*
X227651027Y-108556200D01*
X227649662Y-108552691D01*
X227647795Y-108549425D01*
X227647792Y-108549418D01*
X227518739Y-108323623D01*
X227518737Y-108323620D01*
X227516868Y-108320350D01*
X227351190Y-108110189D01*
X227156269Y-107926825D01*
X226936385Y-107774286D01*
X226933015Y-107772624D01*
X226933008Y-107772620D01*
X226699744Y-107657587D01*
X226699740Y-107657585D01*
X226696371Y-107655924D01*
X226441497Y-107574338D01*
X226281781Y-107548327D01*
X226181087Y-107531928D01*
X226181083Y-107531928D01*
X226177364Y-107531322D01*
X226041283Y-107529541D01*
X225913545Y-107527868D01*
X225913540Y-107527868D01*
X225909774Y-107527819D01*
X225906042Y-107528327D01*
X225906040Y-107528327D01*
X225648343Y-107563398D01*
X225648339Y-107563399D01*
X225644605Y-107563907D01*
X225640982Y-107564963D01*
X225391298Y-107637738D01*
X225391294Y-107637740D01*
X225387683Y-107638792D01*
X225144652Y-107750831D01*
X225141509Y-107752892D01*
X225141503Y-107752895D01*
X224924003Y-107895495D01*
X224923999Y-107895498D01*
X224920851Y-107897562D01*
X224721197Y-108075760D01*
X224550075Y-108281512D01*
X224548124Y-108284728D01*
X224548122Y-108284730D01*
X224535986Y-108304730D01*
X224411244Y-108510298D01*
X224307755Y-108757091D01*
X224306827Y-108760745D01*
X224242809Y-109012814D01*
X224242808Y-109012821D01*
X224241881Y-109016470D01*
X224215070Y-109282736D01*
X224227909Y-109550041D01*
X224280118Y-109812512D01*
X224291473Y-109844139D01*
X224293389Y-109906838D01*
X224267715Y-109950207D01*
X221510151Y-112707771D01*
X221454258Y-112736250D01*
X221438380Y-112737500D01*
X153027620Y-112737500D01*
X152967960Y-112718115D01*
X152955849Y-112707771D01*
X142126229Y-101878151D01*
X142097750Y-101822258D01*
X142096500Y-101806380D01*
X142096500Y-99343517D01*
X142115885Y-99283857D01*
X142132418Y-99266049D01*
X142304656Y-99120239D01*
X142304659Y-99120236D01*
X142307526Y-99117809D01*
X142483976Y-98916607D01*
X142628747Y-98691534D01*
X142640876Y-98664610D01*
X142737114Y-98450968D01*
X142738661Y-98447534D01*
X142802813Y-98220070D01*
X142810278Y-98193601D01*
X142810279Y-98193597D01*
X142811302Y-98189969D01*
X142817480Y-98141413D01*
X142844753Y-97927029D01*
X142844754Y-97927022D01*
X142845075Y-97924495D01*
X142847549Y-97830000D01*
X142844037Y-97782736D01*
X148237070Y-97782736D01*
X148239436Y-97831999D01*
X148249563Y-98042828D01*
X148249909Y-98050041D01*
X148302118Y-98312512D01*
X148303390Y-98316054D01*
X148391276Y-98560839D01*
X148391279Y-98560846D01*
X148392549Y-98564383D01*
X148519215Y-98800121D01*
X148679335Y-99014547D01*
X148869390Y-99202950D01*
X148872434Y-99205182D01*
X149080837Y-99357989D01*
X149085205Y-99361192D01*
X149322039Y-99485797D01*
X149325591Y-99487037D01*
X149325597Y-99487040D01*
X149571130Y-99572783D01*
X149571132Y-99572784D01*
X149574690Y-99574026D01*
X149578390Y-99574729D01*
X149578392Y-99574729D01*
X149706148Y-99598985D01*
X149837606Y-99623943D01*
X149841371Y-99624091D01*
X149841372Y-99624091D01*
X149865244Y-99625029D01*
X150105013Y-99634449D01*
X150108746Y-99634040D01*
X150108751Y-99634040D01*
X150367291Y-99605725D01*
X150371035Y-99605315D01*
X150629829Y-99537180D01*
X150633297Y-99535690D01*
X150633300Y-99535689D01*
X150872251Y-99433028D01*
X150875710Y-99431542D01*
X151054345Y-99320999D01*
X151100082Y-99292696D01*
X151100083Y-99292695D01*
X151103275Y-99290720D01*
X151140940Y-99258834D01*
X151304656Y-99120239D01*
X151304659Y-99120236D01*
X151307526Y-99117809D01*
X151483976Y-98916607D01*
X151628747Y-98691534D01*
X151640876Y-98664610D01*
X151737114Y-98450968D01*
X151738661Y-98447534D01*
X151802813Y-98220070D01*
X151810278Y-98193601D01*
X151810279Y-98193597D01*
X151811302Y-98189969D01*
X151817480Y-98141413D01*
X151844753Y-97927029D01*
X151844754Y-97927022D01*
X151845075Y-97924495D01*
X151847549Y-97830000D01*
X151827717Y-97563123D01*
X151817161Y-97516470D01*
X151769485Y-97305778D01*
X151768655Y-97302109D01*
X151754316Y-97265235D01*
X151673028Y-97056203D01*
X151673027Y-97056200D01*
X151671662Y-97052691D01*
X151669795Y-97049425D01*
X151669792Y-97049418D01*
X151540739Y-96823623D01*
X151540737Y-96823620D01*
X151538868Y-96820350D01*
X151373190Y-96610189D01*
X151178269Y-96426825D01*
X151140145Y-96400377D01*
X151102175Y-96350446D01*
X151096500Y-96316981D01*
X151096500Y-77407620D01*
X151115885Y-77347960D01*
X151126229Y-77335849D01*
X157366729Y-71095349D01*
X157422622Y-71066870D01*
X157484580Y-71076683D01*
X157528937Y-71121040D01*
X157540000Y-71167120D01*
X157540000Y-89130765D01*
X157520615Y-89190425D01*
X157477342Y-89224539D01*
X157441141Y-89239534D01*
X157437746Y-89241615D01*
X157437745Y-89241615D01*
X157320189Y-89313654D01*
X157226341Y-89371164D01*
X157223309Y-89373753D01*
X157223307Y-89373755D01*
X157157791Y-89429711D01*
X157034776Y-89534776D01*
X156871164Y-89726341D01*
X156739534Y-89941141D01*
X156643127Y-90173889D01*
X156584317Y-90418852D01*
X156564551Y-90670000D01*
X156584317Y-90921148D01*
X156643127Y-91166111D01*
X156739534Y-91398859D01*
X156741617Y-91402259D01*
X156741618Y-91402260D01*
X156796170Y-91491281D01*
X156871164Y-91613659D01*
X157034776Y-91805224D01*
X157226341Y-91968836D01*
X157441141Y-92100466D01*
X157444823Y-92101991D01*
X157477342Y-92115461D01*
X157525043Y-92156201D01*
X157540000Y-92209235D01*
X157540000Y-96750765D01*
X157520615Y-96810425D01*
X157477342Y-96844539D01*
X157441141Y-96859534D01*
X157226341Y-96991164D01*
X157223309Y-96993753D01*
X157223307Y-96993755D01*
X157044740Y-97146266D01*
X157034776Y-97154776D01*
X157032189Y-97157805D01*
X156908942Y-97302109D01*
X156871164Y-97346341D01*
X156869082Y-97349739D01*
X156869081Y-97349740D01*
X156752842Y-97539425D01*
X156739534Y-97561141D01*
X156643127Y-97793889D01*
X156642199Y-97797756D01*
X156642198Y-97797758D01*
X156633978Y-97831999D01*
X156584317Y-98038852D01*
X156584004Y-98042827D01*
X156584004Y-98042828D01*
X156572424Y-98189969D01*
X156564551Y-98290000D01*
X156584317Y-98541148D01*
X156585246Y-98545019D01*
X156585247Y-98545023D01*
X156642198Y-98782242D01*
X156643127Y-98786111D01*
X156739534Y-99018859D01*
X156741617Y-99022259D01*
X156741618Y-99022260D01*
X156818715Y-99148070D01*
X156871164Y-99233659D01*
X156873753Y-99236691D01*
X156873755Y-99236693D01*
X156945507Y-99320704D01*
X157034776Y-99425224D01*
X157037805Y-99427811D01*
X157209001Y-99574026D01*
X157226341Y-99588836D01*
X157229739Y-99590918D01*
X157229740Y-99590919D01*
X157274647Y-99618438D01*
X157441141Y-99720466D01*
X157444823Y-99721991D01*
X157477342Y-99735461D01*
X157525043Y-99776201D01*
X157540000Y-99829235D01*
X157540000Y-103316102D01*
X157548487Y-103316128D01*
X165645332Y-103340864D01*
X194953677Y-103430400D01*
X194954730Y-103430410D01*
X195952472Y-103444712D01*
X197595926Y-103468272D01*
X197595927Y-103468272D01*
X197612000Y-103468502D01*
X197612000Y-101398339D01*
X198758001Y-101398339D01*
X198758297Y-101403816D01*
X198764061Y-101456880D01*
X198766983Y-101469169D01*
X198813289Y-101592688D01*
X198820166Y-101605250D01*
X198898762Y-101710121D01*
X198908879Y-101720238D01*
X199013750Y-101798834D01*
X199026312Y-101805711D01*
X199149834Y-101852018D01*
X199162121Y-101854939D01*
X199215182Y-101860704D01*
X199220653Y-101861000D01*
X199845924Y-101861000D01*
X199858930Y-101856774D01*
X199862000Y-101852548D01*
X199862000Y-101844923D01*
X200370000Y-101844923D01*
X200374226Y-101857929D01*
X200378452Y-101860999D01*
X201011339Y-101860999D01*
X201016816Y-101860703D01*
X201069880Y-101854939D01*
X201082169Y-101852017D01*
X201205688Y-101805711D01*
X201218250Y-101798834D01*
X201325128Y-101718734D01*
X201384494Y-101698466D01*
X201446872Y-101718734D01*
X201553750Y-101798834D01*
X201566312Y-101805711D01*
X201689834Y-101852018D01*
X201702121Y-101854939D01*
X201755182Y-101860704D01*
X201760653Y-101861000D01*
X202385924Y-101861000D01*
X202398930Y-101856774D01*
X202402000Y-101852548D01*
X202402000Y-101844923D01*
X202910000Y-101844923D01*
X202914226Y-101857929D01*
X202918452Y-101860999D01*
X203551339Y-101860999D01*
X203556816Y-101860703D01*
X203609880Y-101854939D01*
X203622169Y-101852017D01*
X203745688Y-101805711D01*
X203758250Y-101798834D01*
X203863121Y-101720238D01*
X203873238Y-101710121D01*
X203951834Y-101605250D01*
X203958711Y-101592688D01*
X204005018Y-101469166D01*
X204007939Y-101456879D01*
X204013704Y-101403818D01*
X204014000Y-101398347D01*
X204014000Y-100773076D01*
X204009774Y-100760070D01*
X204005548Y-100757000D01*
X202926076Y-100757000D01*
X202913070Y-100761226D01*
X202910000Y-100765452D01*
X202910000Y-101844923D01*
X202402000Y-101844923D01*
X202402000Y-100773076D01*
X202397774Y-100760070D01*
X202393548Y-100757000D01*
X200386076Y-100757000D01*
X200373070Y-100761226D01*
X200370000Y-100765452D01*
X200370000Y-101844923D01*
X199862000Y-101844923D01*
X199862000Y-100773076D01*
X199857774Y-100760070D01*
X199853548Y-100757000D01*
X198774077Y-100757000D01*
X198761071Y-100761226D01*
X198758001Y-100765452D01*
X198758001Y-101398339D01*
X197612000Y-101398339D01*
X197612000Y-99357989D01*
X197631385Y-99298329D01*
X197682135Y-99261457D01*
X197744865Y-99261457D01*
X197749440Y-99263433D01*
X197749538Y-99263172D01*
X197879834Y-99312018D01*
X197892121Y-99314939D01*
X197945182Y-99320704D01*
X197950653Y-99321000D01*
X198701447Y-99320999D01*
X198761107Y-99340384D01*
X198797979Y-99391134D01*
X198796488Y-99458129D01*
X198766981Y-99536837D01*
X198764061Y-99549121D01*
X198758296Y-99602182D01*
X198758000Y-99607653D01*
X198758000Y-100232924D01*
X198762226Y-100245930D01*
X198766452Y-100249000D01*
X202385924Y-100249000D01*
X202398930Y-100244774D01*
X202402000Y-100240548D01*
X202402000Y-99161076D01*
X202397774Y-99148070D01*
X202393548Y-99145000D01*
X201760661Y-99145001D01*
X201755184Y-99145297D01*
X201702120Y-99151061D01*
X201689831Y-99153983D01*
X201566312Y-99200289D01*
X201553750Y-99207166D01*
X201446872Y-99287266D01*
X201387506Y-99307534D01*
X201325128Y-99287266D01*
X201218250Y-99207166D01*
X201205688Y-99200289D01*
X201082166Y-99153982D01*
X201069879Y-99151061D01*
X201016818Y-99145296D01*
X201011347Y-99145000D01*
X200260553Y-99145001D01*
X200200893Y-99125616D01*
X200164021Y-99074866D01*
X200165512Y-99007871D01*
X200195019Y-98929163D01*
X200197939Y-98916879D01*
X200203704Y-98863818D01*
X200204000Y-98858347D01*
X200204000Y-98858339D01*
X202858001Y-98858339D01*
X202858297Y-98863816D01*
X202864061Y-98916880D01*
X202866983Y-98929169D01*
X202915828Y-99059462D01*
X202914144Y-99060093D01*
X202924111Y-99112808D01*
X202911219Y-99145291D01*
X202910000Y-99152987D01*
X202910000Y-100232924D01*
X202914226Y-100245930D01*
X202918452Y-100249000D01*
X203997923Y-100249000D01*
X204010929Y-100244774D01*
X204013999Y-100240548D01*
X204013999Y-99607661D01*
X204013703Y-99602184D01*
X204007939Y-99549120D01*
X204005017Y-99536831D01*
X203961192Y-99419930D01*
X213985257Y-99419930D01*
X213985723Y-99422873D01*
X213987973Y-99425697D01*
X214024317Y-99456085D01*
X214029894Y-99460137D01*
X214255972Y-99601955D01*
X214262054Y-99605216D01*
X214505284Y-99715039D01*
X214511742Y-99717440D01*
X214767626Y-99793237D01*
X214774367Y-99794744D01*
X215038166Y-99835110D01*
X215045040Y-99835687D01*
X215311878Y-99839880D01*
X215318765Y-99839519D01*
X215583707Y-99807458D01*
X215590484Y-99806165D01*
X215848625Y-99738443D01*
X215855162Y-99736243D01*
X216101729Y-99634111D01*
X216107887Y-99631055D01*
X216338325Y-99496397D01*
X216344016Y-99492529D01*
X216426261Y-99428042D01*
X216433888Y-99416691D01*
X216433810Y-99414566D01*
X216431083Y-99410293D01*
X215221368Y-98200578D01*
X215209182Y-98194369D01*
X215204024Y-98195186D01*
X213991466Y-99407744D01*
X213985257Y-99419930D01*
X203961192Y-99419930D01*
X203956172Y-99406538D01*
X203957856Y-99405907D01*
X203947889Y-99353192D01*
X203960781Y-99320709D01*
X203962000Y-99313013D01*
X203962000Y-99304924D01*
X204470000Y-99304924D01*
X204474226Y-99317930D01*
X204478452Y-99321000D01*
X205111339Y-99320999D01*
X205116816Y-99320703D01*
X205169880Y-99314939D01*
X205182169Y-99312017D01*
X205305688Y-99265711D01*
X205318250Y-99258834D01*
X205423121Y-99180238D01*
X205433238Y-99170121D01*
X205511834Y-99065250D01*
X205518711Y-99052688D01*
X205565018Y-98929166D01*
X205567939Y-98916879D01*
X205573704Y-98863818D01*
X205574000Y-98858347D01*
X205574000Y-98233076D01*
X205569774Y-98220070D01*
X205565548Y-98217000D01*
X204486076Y-98217000D01*
X204473070Y-98221226D01*
X204470000Y-98225452D01*
X204470000Y-99304924D01*
X203962000Y-99304924D01*
X203962000Y-98233076D01*
X203957774Y-98220070D01*
X203953548Y-98217000D01*
X202874077Y-98217000D01*
X202861071Y-98221226D01*
X202858001Y-98225452D01*
X202858001Y-98858339D01*
X200204000Y-98858339D01*
X200204000Y-98233076D01*
X200199774Y-98220070D01*
X200195548Y-98217000D01*
X198693500Y-98217000D01*
X198633840Y-98197615D01*
X198596968Y-98146865D01*
X198592000Y-98115500D01*
X198592000Y-97812365D01*
X213197616Y-97812365D01*
X213212980Y-98078812D01*
X213213844Y-98085647D01*
X213265224Y-98347531D01*
X213267008Y-98354191D01*
X213353452Y-98606676D01*
X213356129Y-98613043D01*
X213476036Y-98851453D01*
X213479550Y-98857395D01*
X213610503Y-99047931D01*
X213621354Y-99056257D01*
X213621759Y-99056268D01*
X213628581Y-99052209D01*
X214839422Y-97841368D01*
X214844797Y-97830818D01*
X215574369Y-97830818D01*
X215575186Y-97835976D01*
X216787174Y-99047964D01*
X216799360Y-99054173D01*
X216800611Y-99053975D01*
X216805576Y-99049757D01*
X216907329Y-98911235D01*
X216911018Y-98905423D01*
X217038361Y-98670886D01*
X217041234Y-98664610D01*
X217135571Y-98414956D01*
X217137559Y-98408368D01*
X217197141Y-98148222D01*
X217198219Y-98141413D01*
X217222072Y-97874151D01*
X217222272Y-97870139D01*
X217222671Y-97831999D01*
X217222556Y-97828012D01*
X217219469Y-97782736D01*
X222405070Y-97782736D01*
X222407436Y-97831999D01*
X222417563Y-98042828D01*
X222417909Y-98050041D01*
X222470118Y-98312512D01*
X222471390Y-98316054D01*
X222559276Y-98560839D01*
X222559279Y-98560846D01*
X222560549Y-98564383D01*
X222687215Y-98800121D01*
X222847335Y-99014547D01*
X223037390Y-99202950D01*
X223040434Y-99205182D01*
X223248837Y-99357989D01*
X223253205Y-99361192D01*
X223490039Y-99485797D01*
X223493591Y-99487037D01*
X223493597Y-99487040D01*
X223739130Y-99572783D01*
X223739132Y-99572784D01*
X223742690Y-99574026D01*
X223746390Y-99574729D01*
X223746392Y-99574729D01*
X223874148Y-99598985D01*
X224005606Y-99623943D01*
X224009371Y-99624091D01*
X224009372Y-99624091D01*
X224033244Y-99625029D01*
X224273013Y-99634449D01*
X224276746Y-99634040D01*
X224276751Y-99634040D01*
X224535291Y-99605725D01*
X224539035Y-99605315D01*
X224797829Y-99537180D01*
X224801297Y-99535690D01*
X224801300Y-99535689D01*
X225040251Y-99433028D01*
X225043710Y-99431542D01*
X225222345Y-99320999D01*
X225268082Y-99292696D01*
X225268083Y-99292695D01*
X225271275Y-99290720D01*
X225308940Y-99258834D01*
X225472656Y-99120239D01*
X225472659Y-99120236D01*
X225475526Y-99117809D01*
X225651976Y-98916607D01*
X225796747Y-98691534D01*
X225808876Y-98664610D01*
X225905114Y-98450968D01*
X225906661Y-98447534D01*
X225970813Y-98220070D01*
X225978278Y-98193601D01*
X225978279Y-98193597D01*
X225979302Y-98189969D01*
X225985480Y-98141413D01*
X226012753Y-97927029D01*
X226012754Y-97927022D01*
X226013075Y-97924495D01*
X226015549Y-97830000D01*
X225995717Y-97563123D01*
X225985161Y-97516470D01*
X225937485Y-97305778D01*
X225936655Y-97302109D01*
X225922316Y-97265235D01*
X225841028Y-97056203D01*
X225841027Y-97056200D01*
X225839662Y-97052691D01*
X225837795Y-97049425D01*
X225837792Y-97049418D01*
X225708739Y-96823623D01*
X225708737Y-96823620D01*
X225706868Y-96820350D01*
X225541190Y-96610189D01*
X225346269Y-96426825D01*
X225126385Y-96274286D01*
X225123015Y-96272624D01*
X225123008Y-96272620D01*
X224889744Y-96157587D01*
X224889740Y-96157585D01*
X224886371Y-96155924D01*
X224631497Y-96074338D01*
X224451088Y-96044957D01*
X224371087Y-96031928D01*
X224371083Y-96031928D01*
X224367364Y-96031322D01*
X224231283Y-96029541D01*
X224103545Y-96027868D01*
X224103540Y-96027868D01*
X224099774Y-96027819D01*
X224096042Y-96028327D01*
X224096040Y-96028327D01*
X223838343Y-96063398D01*
X223838339Y-96063399D01*
X223834605Y-96063907D01*
X223830982Y-96064963D01*
X223581298Y-96137738D01*
X223581294Y-96137740D01*
X223577683Y-96138792D01*
X223334652Y-96250831D01*
X223331509Y-96252892D01*
X223331503Y-96252895D01*
X223114003Y-96395495D01*
X223113999Y-96395498D01*
X223110851Y-96397562D01*
X222911197Y-96575760D01*
X222740075Y-96781512D01*
X222738124Y-96784728D01*
X222738122Y-96784730D01*
X222716507Y-96820350D01*
X222601244Y-97010298D01*
X222497755Y-97257091D01*
X222496827Y-97260745D01*
X222432809Y-97512814D01*
X222432808Y-97512821D01*
X222431881Y-97516470D01*
X222427554Y-97559445D01*
X222412495Y-97709000D01*
X222405070Y-97782736D01*
X217219469Y-97782736D01*
X217204305Y-97560298D01*
X217203368Y-97553456D01*
X217149250Y-97292126D01*
X217147398Y-97285495D01*
X217058311Y-97033922D01*
X217055572Y-97027594D01*
X216933166Y-96790433D01*
X216929601Y-96784548D01*
X216808859Y-96612750D01*
X216797921Y-96604537D01*
X216797229Y-96604526D01*
X216790833Y-96608377D01*
X215580578Y-97818632D01*
X215574369Y-97830818D01*
X214844797Y-97830818D01*
X214845631Y-97829182D01*
X214844814Y-97824024D01*
X213632370Y-96611580D01*
X213620184Y-96605371D01*
X213619217Y-96605524D01*
X213613911Y-96610081D01*
X213501447Y-96766590D01*
X213497811Y-96772455D01*
X213372931Y-97008310D01*
X213370126Y-97014610D01*
X213278411Y-97265235D01*
X213276490Y-97271849D01*
X213219635Y-97532604D01*
X213218628Y-97539425D01*
X213197689Y-97805485D01*
X213197616Y-97812365D01*
X198592000Y-97812365D01*
X198592000Y-97692924D01*
X199100000Y-97692924D01*
X199104226Y-97705930D01*
X199108452Y-97709000D01*
X200187923Y-97709000D01*
X200200929Y-97704774D01*
X200203999Y-97700548D01*
X200203999Y-97692924D01*
X202858000Y-97692924D01*
X202862226Y-97705930D01*
X202866452Y-97709000D01*
X203945924Y-97709000D01*
X203958930Y-97704774D01*
X203962000Y-97700548D01*
X203962000Y-97692924D01*
X204470000Y-97692924D01*
X204474226Y-97705930D01*
X204478452Y-97709000D01*
X205557923Y-97709000D01*
X205570929Y-97704774D01*
X205573999Y-97700548D01*
X205573999Y-97067661D01*
X205573703Y-97062184D01*
X205567939Y-97009120D01*
X205565017Y-96996831D01*
X205518711Y-96873312D01*
X205511834Y-96860750D01*
X205433238Y-96755879D01*
X205423121Y-96745762D01*
X205318250Y-96667166D01*
X205305688Y-96660289D01*
X205182166Y-96613982D01*
X205169879Y-96611061D01*
X205116818Y-96605296D01*
X205111347Y-96605000D01*
X204486076Y-96605000D01*
X204473070Y-96609226D01*
X204470000Y-96613452D01*
X204470000Y-97692924D01*
X203962000Y-97692924D01*
X203962000Y-96621077D01*
X203957774Y-96608071D01*
X203953548Y-96605001D01*
X203320661Y-96605001D01*
X203315184Y-96605297D01*
X203262120Y-96611061D01*
X203249831Y-96613983D01*
X203126312Y-96660289D01*
X203113750Y-96667166D01*
X203008879Y-96745762D01*
X202998762Y-96755879D01*
X202920166Y-96860750D01*
X202913289Y-96873312D01*
X202866982Y-96996834D01*
X202864061Y-97009121D01*
X202858296Y-97062182D01*
X202858000Y-97067653D01*
X202858000Y-97692924D01*
X200203999Y-97692924D01*
X200203999Y-97067661D01*
X200203703Y-97062184D01*
X200197939Y-97009120D01*
X200195017Y-96996831D01*
X200148711Y-96873312D01*
X200141834Y-96860750D01*
X200063238Y-96755879D01*
X200053121Y-96745762D01*
X199948250Y-96667166D01*
X199935688Y-96660289D01*
X199812166Y-96613982D01*
X199799879Y-96611061D01*
X199746818Y-96605296D01*
X199741347Y-96605000D01*
X199116076Y-96605000D01*
X199103070Y-96609226D01*
X199100000Y-96613452D01*
X199100000Y-97692924D01*
X198592000Y-97692924D01*
X198592000Y-96621077D01*
X198587774Y-96608071D01*
X198583548Y-96605001D01*
X197950661Y-96605001D01*
X197945184Y-96605297D01*
X197892120Y-96611061D01*
X197879831Y-96613983D01*
X197749538Y-96662828D01*
X197748352Y-96659663D01*
X197700618Y-96668690D01*
X197643900Y-96641890D01*
X197613768Y-96586871D01*
X197612000Y-96568011D01*
X197612000Y-96243084D01*
X213985952Y-96243084D01*
X213986065Y-96245490D01*
X213988554Y-96249344D01*
X215198632Y-97459422D01*
X215210818Y-97465631D01*
X215215976Y-97464814D01*
X216428048Y-96252742D01*
X216434257Y-96240556D01*
X216433835Y-96237895D01*
X216431263Y-96234701D01*
X216378590Y-96191588D01*
X216372969Y-96187594D01*
X216145417Y-96048149D01*
X216139311Y-96044957D01*
X215894943Y-95937688D01*
X215888447Y-95935349D01*
X215631781Y-95862235D01*
X215625040Y-95860803D01*
X215360830Y-95823200D01*
X215353953Y-95822695D01*
X215087077Y-95821298D01*
X215080196Y-95821731D01*
X214815602Y-95856565D01*
X214808846Y-95857927D01*
X214551416Y-95928352D01*
X214544922Y-95930613D01*
X214299431Y-96035324D01*
X214293300Y-96038448D01*
X214064289Y-96175508D01*
X214058634Y-96179439D01*
X213993461Y-96231652D01*
X213985952Y-96243084D01*
X197612000Y-96243084D01*
X197612000Y-93417109D01*
X197631385Y-93357449D01*
X197682135Y-93320577D01*
X197744865Y-93320577D01*
X197795615Y-93357449D01*
X197805677Y-93374615D01*
X197845369Y-93460714D01*
X197967405Y-93633391D01*
X198118865Y-93780937D01*
X198294677Y-93898411D01*
X198488953Y-93981878D01*
X198591172Y-94005008D01*
X198690650Y-94027518D01*
X198690654Y-94027519D01*
X198695186Y-94028544D01*
X198699826Y-94028726D01*
X198699831Y-94028727D01*
X198809758Y-94033046D01*
X198906470Y-94036846D01*
X198911069Y-94036179D01*
X198911072Y-94036179D01*
X199111130Y-94007171D01*
X199115730Y-94006504D01*
X199218279Y-93971694D01*
X199311546Y-93940034D01*
X199311549Y-93940033D01*
X199315955Y-93938537D01*
X199500442Y-93835219D01*
X199663012Y-93700012D01*
X199798219Y-93537442D01*
X199901537Y-93352955D01*
X199928707Y-93272916D01*
X199968008Y-93157136D01*
X199969504Y-93152730D01*
X199999846Y-92943470D01*
X200000279Y-92926937D01*
X200001351Y-92885999D01*
X200001351Y-92885990D01*
X200001429Y-92883000D01*
X199999077Y-92857395D01*
X199998651Y-92852754D01*
X203060967Y-92852754D01*
X203061271Y-92857393D01*
X203061271Y-92857395D01*
X203062949Y-92883000D01*
X203074796Y-93063749D01*
X203075939Y-93068251D01*
X203075940Y-93068255D01*
X203125699Y-93264178D01*
X203126845Y-93268690D01*
X203128792Y-93272914D01*
X203128793Y-93272916D01*
X203165692Y-93352955D01*
X203215369Y-93460714D01*
X203337405Y-93633391D01*
X203488865Y-93780937D01*
X203664677Y-93898411D01*
X203858953Y-93981878D01*
X203961172Y-94005008D01*
X204060650Y-94027518D01*
X204060654Y-94027519D01*
X204065186Y-94028544D01*
X204069826Y-94028726D01*
X204069831Y-94028727D01*
X204179758Y-94033046D01*
X204276470Y-94036846D01*
X204281069Y-94036179D01*
X204281072Y-94036179D01*
X204481130Y-94007171D01*
X204485730Y-94006504D01*
X204588279Y-93971694D01*
X204681546Y-93940034D01*
X204681549Y-93940033D01*
X204685955Y-93938537D01*
X204870442Y-93835219D01*
X205033012Y-93700012D01*
X205168219Y-93537442D01*
X205271537Y-93352955D01*
X205298707Y-93272916D01*
X205338008Y-93157136D01*
X205339504Y-93152730D01*
X205369846Y-92943470D01*
X205370279Y-92926937D01*
X205371351Y-92885999D01*
X205371351Y-92885990D01*
X205371429Y-92883000D01*
X205369077Y-92857395D01*
X205352507Y-92677074D01*
X205352507Y-92677072D01*
X205352081Y-92672440D01*
X205294686Y-92468931D01*
X205201165Y-92279290D01*
X205198384Y-92275565D01*
X205198381Y-92275561D01*
X205077437Y-92113597D01*
X205077433Y-92113593D01*
X205074651Y-92109867D01*
X205050623Y-92087655D01*
X204922796Y-91969494D01*
X204919381Y-91966337D01*
X204895548Y-91951299D01*
X204861056Y-91929536D01*
X204740554Y-91853505D01*
X204626021Y-91807811D01*
X204548490Y-91776879D01*
X204548485Y-91776878D01*
X204544160Y-91775152D01*
X204539593Y-91774244D01*
X204539591Y-91774243D01*
X204341335Y-91734808D01*
X204336775Y-91733901D01*
X204332124Y-91733840D01*
X204332123Y-91733840D01*
X204231060Y-91732517D01*
X204125346Y-91731133D01*
X203916953Y-91766941D01*
X203718575Y-91840127D01*
X203714578Y-91842505D01*
X203540847Y-91945863D01*
X203540842Y-91945866D01*
X203536856Y-91948238D01*
X203377881Y-92087655D01*
X203375006Y-92091302D01*
X203375004Y-92091304D01*
X203249854Y-92250057D01*
X203246976Y-92253708D01*
X203244812Y-92257820D01*
X203244810Y-92257824D01*
X203198191Y-92346433D01*
X203148523Y-92440836D01*
X203085820Y-92642773D01*
X203060967Y-92852754D01*
X199998651Y-92852754D01*
X199982507Y-92677074D01*
X199982507Y-92677072D01*
X199982081Y-92672440D01*
X199924686Y-92468931D01*
X199831165Y-92279290D01*
X199828384Y-92275565D01*
X199828381Y-92275561D01*
X199707437Y-92113597D01*
X199707433Y-92113593D01*
X199704651Y-92109867D01*
X199680623Y-92087655D01*
X199552796Y-91969494D01*
X199549381Y-91966337D01*
X199525548Y-91951299D01*
X199491056Y-91929536D01*
X199370554Y-91853505D01*
X199256021Y-91807811D01*
X199178490Y-91776879D01*
X199178485Y-91776878D01*
X199174160Y-91775152D01*
X199169593Y-91774244D01*
X199169591Y-91774243D01*
X198971335Y-91734808D01*
X198966775Y-91733901D01*
X198962124Y-91733840D01*
X198962123Y-91733840D01*
X198861060Y-91732517D01*
X198755346Y-91731133D01*
X198546953Y-91766941D01*
X198348575Y-91840127D01*
X198344578Y-91842505D01*
X198170847Y-91945863D01*
X198170842Y-91945866D01*
X198166856Y-91948238D01*
X198007881Y-92087655D01*
X198005006Y-92091302D01*
X198005004Y-92091304D01*
X197879854Y-92250057D01*
X197876976Y-92253708D01*
X197874810Y-92257825D01*
X197803326Y-92393693D01*
X197758392Y-92437466D01*
X197696311Y-92446467D01*
X197640795Y-92417259D01*
X197613050Y-92360997D01*
X197612000Y-92346433D01*
X197612000Y-91237646D01*
X198965500Y-91237646D01*
X198968618Y-91263846D01*
X198971707Y-91270799D01*
X198971707Y-91270801D01*
X199010058Y-91357140D01*
X199014061Y-91366153D01*
X199020691Y-91372771D01*
X199020692Y-91372773D01*
X199086654Y-91438620D01*
X199093287Y-91445241D01*
X199195673Y-91490506D01*
X199211545Y-91492356D01*
X199218427Y-91493159D01*
X199218431Y-91493159D01*
X199221354Y-91493500D01*
X201010646Y-91493500D01*
X201036846Y-91490382D01*
X201043799Y-91487293D01*
X201043801Y-91487293D01*
X201130590Y-91448743D01*
X201130592Y-91448742D01*
X201139153Y-91444939D01*
X201145771Y-91438309D01*
X201145773Y-91438308D01*
X201211620Y-91372346D01*
X201211621Y-91372345D01*
X201218241Y-91365713D01*
X201263506Y-91263327D01*
X201266500Y-91237646D01*
X201505500Y-91237646D01*
X201508618Y-91263846D01*
X201511707Y-91270799D01*
X201511707Y-91270801D01*
X201550058Y-91357140D01*
X201554061Y-91366153D01*
X201560691Y-91372771D01*
X201560692Y-91372773D01*
X201626654Y-91438620D01*
X201633287Y-91445241D01*
X201735673Y-91490506D01*
X201751545Y-91492356D01*
X201758427Y-91493159D01*
X201758431Y-91493159D01*
X201761354Y-91493500D01*
X203550646Y-91493500D01*
X203576846Y-91490382D01*
X203583799Y-91487293D01*
X203583801Y-91487293D01*
X203670590Y-91448743D01*
X203670592Y-91448742D01*
X203679153Y-91444939D01*
X203685771Y-91438309D01*
X203685773Y-91438308D01*
X203751620Y-91372346D01*
X203751621Y-91372345D01*
X203758241Y-91365713D01*
X203803506Y-91263327D01*
X203806500Y-91237646D01*
X203806500Y-89448354D01*
X203803382Y-89422154D01*
X203781884Y-89373755D01*
X203761743Y-89328410D01*
X203761742Y-89328408D01*
X203757939Y-89319847D01*
X203751309Y-89313229D01*
X203751308Y-89313227D01*
X203685346Y-89247380D01*
X203685345Y-89247379D01*
X203678713Y-89240759D01*
X203576327Y-89195494D01*
X203560455Y-89193644D01*
X203553573Y-89192841D01*
X203553569Y-89192841D01*
X203550646Y-89192500D01*
X201761354Y-89192500D01*
X201735154Y-89195618D01*
X201728201Y-89198707D01*
X201728199Y-89198707D01*
X201641410Y-89237257D01*
X201641408Y-89237258D01*
X201632847Y-89241061D01*
X201626229Y-89247691D01*
X201626227Y-89247692D01*
X201560380Y-89313654D01*
X201553759Y-89320287D01*
X201508494Y-89422673D01*
X201505500Y-89448354D01*
X201505500Y-91237646D01*
X201266500Y-91237646D01*
X201266500Y-89448354D01*
X201263382Y-89422154D01*
X201241884Y-89373755D01*
X201221743Y-89328410D01*
X201221742Y-89328408D01*
X201217939Y-89319847D01*
X201211309Y-89313229D01*
X201211308Y-89313227D01*
X201145346Y-89247380D01*
X201145345Y-89247379D01*
X201138713Y-89240759D01*
X201036327Y-89195494D01*
X201020455Y-89193644D01*
X201013573Y-89192841D01*
X201013569Y-89192841D01*
X201010646Y-89192500D01*
X199221354Y-89192500D01*
X199195154Y-89195618D01*
X199188201Y-89198707D01*
X199188199Y-89198707D01*
X199101410Y-89237257D01*
X199101408Y-89237258D01*
X199092847Y-89241061D01*
X199086229Y-89247691D01*
X199086227Y-89247692D01*
X199020380Y-89313654D01*
X199013759Y-89320287D01*
X198968494Y-89422673D01*
X198965500Y-89448354D01*
X198965500Y-91237646D01*
X197612000Y-91237646D01*
X197612000Y-88239500D01*
X197631385Y-88179840D01*
X197682135Y-88142968D01*
X197713500Y-88138000D01*
X207425600Y-88138000D01*
X207425600Y-70358000D01*
X158349120Y-70358000D01*
X158289460Y-70338615D01*
X158252588Y-70287865D01*
X158252588Y-70225135D01*
X158277349Y-70184729D01*
X160361849Y-68100229D01*
X160417742Y-68071750D01*
X160433620Y-68070500D01*
X202189079Y-68070500D01*
X202190142Y-68070506D01*
X202273728Y-68071382D01*
X202273732Y-68071382D01*
X202279407Y-68071441D01*
X202322524Y-68062119D01*
X202332650Y-68060461D01*
X202346381Y-68058921D01*
X202370831Y-68056179D01*
X202370833Y-68056178D01*
X202376472Y-68055546D01*
X202398867Y-68047747D01*
X202409174Y-68044158D01*
X202421103Y-68040805D01*
X202428231Y-68039264D01*
X202454942Y-68033489D01*
X202460073Y-68031096D01*
X202460086Y-68031092D01*
X202494914Y-68014851D01*
X202504426Y-68010988D01*
X202546073Y-67996485D01*
X202559068Y-67988365D01*
X202575442Y-67978134D01*
X202586329Y-67972223D01*
X202617707Y-67957591D01*
X202652556Y-67930559D01*
X202660964Y-67924693D01*
X202698375Y-67901316D01*
X202702398Y-67897321D01*
X202702403Y-67897317D01*
X202726830Y-67873060D01*
X202727538Y-67872397D01*
X202728177Y-67871901D01*
X202754037Y-67846041D01*
X202825807Y-67774770D01*
X202826443Y-67773767D01*
X202827604Y-67772474D01*
X203030893Y-67569185D01*
X203086786Y-67540706D01*
X203149923Y-67551130D01*
X203187743Y-67571028D01*
X203284704Y-67622043D01*
X203284711Y-67622046D01*
X203288039Y-67623797D01*
X203291591Y-67625037D01*
X203291597Y-67625040D01*
X203537130Y-67710783D01*
X203537132Y-67710784D01*
X203540690Y-67712026D01*
X203544390Y-67712729D01*
X203544392Y-67712729D01*
X203672148Y-67736985D01*
X203803606Y-67761943D01*
X203807371Y-67762091D01*
X203807372Y-67762091D01*
X203831244Y-67763029D01*
X204071013Y-67772449D01*
X204074746Y-67772040D01*
X204074751Y-67772040D01*
X204333291Y-67743725D01*
X204337035Y-67743315D01*
X204595829Y-67675180D01*
X204599297Y-67673690D01*
X204599300Y-67673689D01*
X204838251Y-67571028D01*
X204841710Y-67569542D01*
X205069275Y-67428720D01*
X205232458Y-67290576D01*
X205270656Y-67258239D01*
X205270659Y-67258236D01*
X205273526Y-67255809D01*
X205449976Y-67054607D01*
X205594747Y-66829534D01*
X205596700Y-66825200D01*
X205682074Y-66635676D01*
X205704661Y-66585534D01*
X205763169Y-66378081D01*
X205776278Y-66331601D01*
X205776279Y-66331597D01*
X205777302Y-66327969D01*
X205793869Y-66197750D01*
X205810753Y-66065029D01*
X205810754Y-66065022D01*
X205811075Y-66062495D01*
X205813549Y-65968000D01*
X205793717Y-65701123D01*
X205791965Y-65693378D01*
X205735485Y-65443778D01*
X205734655Y-65440109D01*
X205733292Y-65436604D01*
X205639028Y-65194203D01*
X205639027Y-65194200D01*
X205637662Y-65190691D01*
X205635795Y-65187425D01*
X205635792Y-65187418D01*
X205506739Y-64961623D01*
X205506737Y-64961620D01*
X205504868Y-64958350D01*
X205339190Y-64748189D01*
X205144269Y-64564825D01*
X204924385Y-64412286D01*
X204921015Y-64410624D01*
X204921008Y-64410620D01*
X204687744Y-64295587D01*
X204687740Y-64295585D01*
X204684371Y-64293924D01*
X204429497Y-64212338D01*
X204297430Y-64190830D01*
X204169087Y-64169928D01*
X204169083Y-64169928D01*
X204165364Y-64169322D01*
X204029283Y-64167541D01*
X203901545Y-64165868D01*
X203901540Y-64165868D01*
X203897774Y-64165819D01*
X203894042Y-64166327D01*
X203894040Y-64166327D01*
X203636343Y-64201398D01*
X203636339Y-64201399D01*
X203632605Y-64201907D01*
X203628982Y-64202963D01*
X203379298Y-64275738D01*
X203379294Y-64275740D01*
X203375683Y-64276792D01*
X203132652Y-64388831D01*
X203129509Y-64390892D01*
X203129503Y-64390895D01*
X202912003Y-64533495D01*
X202911999Y-64533498D01*
X202908851Y-64535562D01*
X202709197Y-64713760D01*
X202538075Y-64919512D01*
X202536124Y-64922728D01*
X202536122Y-64922730D01*
X202483127Y-65010064D01*
X202399244Y-65148298D01*
X202295755Y-65395091D01*
X202294827Y-65398745D01*
X202230809Y-65650814D01*
X202230808Y-65650821D01*
X202229881Y-65654470D01*
X202229503Y-65658226D01*
X202205876Y-65892873D01*
X202203070Y-65920736D01*
X202210636Y-66078257D01*
X202194136Y-66138779D01*
X202181024Y-66154898D01*
X201896151Y-66439771D01*
X201840258Y-66468250D01*
X201824380Y-66469500D01*
X160068921Y-66469500D01*
X160067858Y-66469494D01*
X159984272Y-66468618D01*
X159984268Y-66468618D01*
X159978593Y-66468559D01*
X159935476Y-66477881D01*
X159925350Y-66479539D01*
X159911619Y-66481079D01*
X159887169Y-66483821D01*
X159887167Y-66483822D01*
X159881528Y-66484454D01*
X159859426Y-66492151D01*
X159848826Y-66495842D01*
X159836895Y-66499195D01*
X159803058Y-66506511D01*
X159797912Y-66508911D01*
X159797911Y-66508911D01*
X159763093Y-66525147D01*
X159753577Y-66529011D01*
X159711927Y-66543515D01*
X159688797Y-66557968D01*
X159682562Y-66561864D01*
X159671672Y-66567777D01*
X159640292Y-66582410D01*
X159635809Y-66585887D01*
X159635808Y-66585888D01*
X159605451Y-66609436D01*
X159597026Y-66615313D01*
X159564438Y-66635676D01*
X159564435Y-66635678D01*
X159559625Y-66638684D01*
X159555605Y-66642676D01*
X159555600Y-66642680D01*
X159531170Y-66666940D01*
X159530462Y-66667603D01*
X159529823Y-66668099D01*
X159503963Y-66693959D01*
X159432193Y-66765230D01*
X159431557Y-66766233D01*
X159430396Y-66767526D01*
X149736354Y-76461568D01*
X149735600Y-76462315D01*
X149671732Y-76524859D01*
X149668658Y-76529629D01*
X149647841Y-76561931D01*
X149641847Y-76570272D01*
X149614336Y-76604734D01*
X149599265Y-76635911D01*
X149593204Y-76646710D01*
X149574446Y-76675817D01*
X149572506Y-76681147D01*
X149572503Y-76681153D01*
X149559360Y-76717261D01*
X149555365Y-76726720D01*
X149536173Y-76766422D01*
X149528381Y-76800170D01*
X149524869Y-76812029D01*
X149513022Y-76844578D01*
X149512311Y-76850208D01*
X149507494Y-76888334D01*
X149505693Y-76898443D01*
X149497051Y-76935878D01*
X149495774Y-76941411D01*
X149495754Y-76947089D01*
X149495754Y-76947090D01*
X149495634Y-76981489D01*
X149495601Y-76982479D01*
X149495500Y-76983283D01*
X149495500Y-77019892D01*
X149495147Y-77121000D01*
X149495407Y-77122161D01*
X149495500Y-77123886D01*
X149495500Y-96037640D01*
X149476115Y-96097300D01*
X149422403Y-96135084D01*
X149409683Y-96138792D01*
X149166652Y-96250831D01*
X149163509Y-96252892D01*
X149163503Y-96252895D01*
X148946003Y-96395495D01*
X148945999Y-96395498D01*
X148942851Y-96397562D01*
X148743197Y-96575760D01*
X148572075Y-96781512D01*
X148570124Y-96784728D01*
X148570122Y-96784730D01*
X148548507Y-96820350D01*
X148433244Y-97010298D01*
X148329755Y-97257091D01*
X148328827Y-97260745D01*
X148264809Y-97512814D01*
X148264808Y-97512821D01*
X148263881Y-97516470D01*
X148259554Y-97559445D01*
X148244495Y-97709000D01*
X148237070Y-97782736D01*
X142844037Y-97782736D01*
X142827717Y-97563123D01*
X142817161Y-97516470D01*
X142769485Y-97305778D01*
X142768655Y-97302109D01*
X142754316Y-97265235D01*
X142673028Y-97056203D01*
X142673027Y-97056200D01*
X142671662Y-97052691D01*
X142669795Y-97049425D01*
X142669792Y-97049418D01*
X142540739Y-96823623D01*
X142540737Y-96823620D01*
X142538868Y-96820350D01*
X142373190Y-96610189D01*
X142178269Y-96426825D01*
X141958385Y-96274286D01*
X141955015Y-96272624D01*
X141955008Y-96272620D01*
X141721744Y-96157587D01*
X141721740Y-96157585D01*
X141718371Y-96155924D01*
X141463497Y-96074338D01*
X141283088Y-96044957D01*
X141203087Y-96031928D01*
X141203083Y-96031928D01*
X141199364Y-96031322D01*
X141063283Y-96029541D01*
X140935545Y-96027868D01*
X140935540Y-96027868D01*
X140931774Y-96027819D01*
X140928042Y-96028327D01*
X140928040Y-96028327D01*
X140670343Y-96063398D01*
X140670339Y-96063399D01*
X140666605Y-96063907D01*
X140662982Y-96064963D01*
X140413298Y-96137738D01*
X140413294Y-96137740D01*
X140409683Y-96138792D01*
X140166652Y-96250831D01*
X140163509Y-96252892D01*
X140163503Y-96252895D01*
X139946003Y-96395495D01*
X139945999Y-96395498D01*
X139942851Y-96397562D01*
X139743197Y-96575760D01*
X139572075Y-96781512D01*
X139570124Y-96784728D01*
X139570122Y-96784730D01*
X139548507Y-96820350D01*
X139433244Y-97010298D01*
X139329755Y-97257091D01*
X139328827Y-97260745D01*
X139264809Y-97512814D01*
X139264808Y-97512821D01*
X139263881Y-97516470D01*
X139259554Y-97559445D01*
X139244495Y-97709000D01*
X139237070Y-97782736D01*
X134463250Y-97782736D01*
X134463809Y-77019892D01*
X134464066Y-67452611D01*
X151664394Y-67452611D01*
X151682999Y-67621135D01*
X151741266Y-67780356D01*
X151744679Y-67785435D01*
X151825767Y-67906107D01*
X151835830Y-67921083D01*
X151961233Y-68035191D01*
X151966606Y-68038108D01*
X151966607Y-68038109D01*
X152081019Y-68100229D01*
X152110235Y-68116092D01*
X152274233Y-68159116D01*
X152344476Y-68160219D01*
X152437639Y-68161683D01*
X152437640Y-68161683D01*
X152443760Y-68161779D01*
X152535425Y-68140785D01*
X152603066Y-68125294D01*
X152603068Y-68125293D01*
X152609029Y-68123928D01*
X152760498Y-68047747D01*
X152765151Y-68043773D01*
X152765157Y-68043769D01*
X152775637Y-68034818D01*
X152833592Y-68010813D01*
X152841555Y-68010500D01*
X157285508Y-68010500D01*
X157289759Y-68010589D01*
X157352294Y-68013210D01*
X157362525Y-68010810D01*
X157395779Y-68003011D01*
X157405180Y-68001268D01*
X157442578Y-67996145D01*
X157442579Y-67996145D01*
X157449432Y-67995206D01*
X157461618Y-67989933D01*
X157465241Y-67988365D01*
X157482371Y-67982700D01*
X157499136Y-67978768D01*
X157538283Y-67957247D01*
X157546869Y-67953041D01*
X157587855Y-67935305D01*
X157601239Y-67924467D01*
X157616209Y-67914408D01*
X157631308Y-67906107D01*
X157639422Y-67899103D01*
X157664869Y-67873656D01*
X157672764Y-67866547D01*
X157699690Y-67844743D01*
X157699691Y-67844742D01*
X157705070Y-67840386D01*
X157717157Y-67823378D01*
X157728121Y-67810404D01*
X159628295Y-65910229D01*
X159684188Y-65881750D01*
X159700066Y-65880500D01*
X164115508Y-65880500D01*
X164119759Y-65880589D01*
X164182294Y-65883210D01*
X164192525Y-65880810D01*
X164225779Y-65873011D01*
X164235180Y-65871268D01*
X164272578Y-65866145D01*
X164272579Y-65866145D01*
X164279432Y-65865206D01*
X164291618Y-65859933D01*
X164295241Y-65858365D01*
X164312371Y-65852700D01*
X164329136Y-65848768D01*
X164368283Y-65827247D01*
X164376869Y-65823041D01*
X164417855Y-65805305D01*
X164431239Y-65794467D01*
X164446209Y-65784408D01*
X164461308Y-65776107D01*
X164469422Y-65769103D01*
X164494869Y-65743656D01*
X164502764Y-65736547D01*
X164529690Y-65714743D01*
X164529691Y-65714742D01*
X164535070Y-65710386D01*
X164547157Y-65693378D01*
X164558121Y-65680404D01*
X165855914Y-64382611D01*
X168754394Y-64382611D01*
X168772999Y-64551135D01*
X168831266Y-64710356D01*
X168840614Y-64724268D01*
X168918964Y-64840865D01*
X168925830Y-64851083D01*
X169051233Y-64965191D01*
X169056606Y-64968108D01*
X169056607Y-64968109D01*
X169141642Y-65014279D01*
X169200235Y-65046092D01*
X169364233Y-65089116D01*
X169434476Y-65090219D01*
X169527639Y-65091683D01*
X169527640Y-65091683D01*
X169533760Y-65091779D01*
X169625425Y-65070785D01*
X169693066Y-65055294D01*
X169693068Y-65055293D01*
X169699029Y-65053928D01*
X169786243Y-65010064D01*
X169845035Y-64980495D01*
X169845037Y-64980493D01*
X169850498Y-64977747D01*
X169979423Y-64867634D01*
X170044701Y-64776790D01*
X170074790Y-64734917D01*
X170074791Y-64734915D01*
X170078361Y-64729947D01*
X170141601Y-64572634D01*
X170164422Y-64412286D01*
X170165020Y-64408081D01*
X170165020Y-64408080D01*
X170165490Y-64404778D01*
X170165645Y-64390000D01*
X170164018Y-64376550D01*
X170154220Y-64295587D01*
X170145276Y-64221680D01*
X170085345Y-64063077D01*
X170080857Y-64056547D01*
X169992777Y-63928390D01*
X169992775Y-63928388D01*
X169989312Y-63923349D01*
X169984749Y-63919284D01*
X169984746Y-63919280D01*
X169896135Y-63840331D01*
X169862721Y-63810560D01*
X169734395Y-63742615D01*
X169718289Y-63734087D01*
X169718286Y-63734086D01*
X169712881Y-63731224D01*
X169706950Y-63729734D01*
X169706947Y-63729733D01*
X169631048Y-63710669D01*
X169548441Y-63689919D01*
X169501522Y-63689673D01*
X169385014Y-63689063D01*
X169378895Y-63689031D01*
X169372944Y-63690460D01*
X169372942Y-63690460D01*
X169219982Y-63727183D01*
X169219978Y-63727184D01*
X169214032Y-63728612D01*
X169208598Y-63731416D01*
X169208597Y-63731417D01*
X169151766Y-63760750D01*
X169063369Y-63806375D01*
X169058757Y-63810398D01*
X169058756Y-63810399D01*
X168940216Y-63913807D01*
X168940213Y-63913810D01*
X168935604Y-63917831D01*
X168838113Y-64056547D01*
X168835891Y-64062246D01*
X168794163Y-64169273D01*
X168776524Y-64214513D01*
X168754394Y-64382611D01*
X165855914Y-64382611D01*
X168878998Y-61359526D01*
X168882066Y-61356583D01*
X168923061Y-61318886D01*
X168928156Y-61314201D01*
X168951701Y-61276226D01*
X168957103Y-61268367D01*
X168984112Y-61232784D01*
X168990453Y-61216769D01*
X168998558Y-61200654D01*
X169003990Y-61191893D01*
X169007635Y-61186014D01*
X169020101Y-61143108D01*
X169023196Y-61134070D01*
X169037087Y-61098986D01*
X169037089Y-61098977D01*
X169039635Y-61092547D01*
X169041434Y-61075428D01*
X169044909Y-61057715D01*
X169048230Y-61046286D01*
X169049715Y-61041175D01*
X169050500Y-61030485D01*
X169050500Y-60994495D01*
X169051056Y-60983885D01*
X169054678Y-60949427D01*
X169054678Y-60949425D01*
X169055401Y-60942546D01*
X169051921Y-60921970D01*
X169050500Y-60905044D01*
X169050500Y-58367072D01*
X169069573Y-58307843D01*
X169114790Y-58244917D01*
X169114791Y-58244915D01*
X169118361Y-58239947D01*
X169151058Y-58158611D01*
X176586394Y-58158611D01*
X176604999Y-58327135D01*
X176663266Y-58486356D01*
X176666679Y-58491435D01*
X176739577Y-58599919D01*
X176757830Y-58627083D01*
X176883233Y-58741191D01*
X176888606Y-58744108D01*
X176888607Y-58744109D01*
X176921726Y-58762091D01*
X177032235Y-58822092D01*
X177196233Y-58865116D01*
X177266476Y-58866219D01*
X177359639Y-58867683D01*
X177359640Y-58867683D01*
X177365760Y-58867779D01*
X177457425Y-58846785D01*
X177525066Y-58831294D01*
X177525068Y-58831293D01*
X177531029Y-58829928D01*
X177606238Y-58792102D01*
X177677035Y-58756495D01*
X177677037Y-58756493D01*
X177682498Y-58753747D01*
X177811423Y-58643634D01*
X177814992Y-58638668D01*
X177814996Y-58638663D01*
X177843781Y-58598604D01*
X177894337Y-58561467D01*
X177957067Y-58561139D01*
X178010452Y-58601221D01*
X178027830Y-58627083D01*
X178153233Y-58741191D01*
X178158606Y-58744108D01*
X178158607Y-58744109D01*
X178191726Y-58762091D01*
X178302235Y-58822092D01*
X178466233Y-58865116D01*
X178536476Y-58866219D01*
X178629639Y-58867683D01*
X178629640Y-58867683D01*
X178635760Y-58867779D01*
X178727425Y-58846785D01*
X178795066Y-58831294D01*
X178795068Y-58831293D01*
X178801029Y-58829928D01*
X178876238Y-58792102D01*
X178947035Y-58756495D01*
X178947037Y-58756493D01*
X178952498Y-58753747D01*
X179081423Y-58643634D01*
X179180361Y-58505947D01*
X179243601Y-58348634D01*
X179261135Y-58225435D01*
X179267020Y-58184081D01*
X179267020Y-58184080D01*
X179267490Y-58180778D01*
X179267645Y-58166000D01*
X179247276Y-57997680D01*
X179187345Y-57839077D01*
X179183880Y-57834035D01*
X179101690Y-57714448D01*
X179083874Y-57654301D01*
X179102912Y-57597729D01*
X179176790Y-57494917D01*
X179176791Y-57494915D01*
X179180361Y-57489947D01*
X179243601Y-57332634D01*
X179246315Y-57313568D01*
X179267020Y-57168081D01*
X179267020Y-57168080D01*
X179267490Y-57164778D01*
X179267645Y-57150000D01*
X179266018Y-57136550D01*
X179256747Y-57059944D01*
X179247276Y-56981680D01*
X179224247Y-56920736D01*
X202203070Y-56920736D01*
X202215909Y-57188041D01*
X202268118Y-57450512D01*
X202269390Y-57454054D01*
X202357276Y-57698839D01*
X202357279Y-57698846D01*
X202358549Y-57702383D01*
X202360328Y-57705695D01*
X202360329Y-57705696D01*
X202374291Y-57731680D01*
X202485215Y-57938121D01*
X202645335Y-58152547D01*
X202835390Y-58340950D01*
X202838434Y-58343182D01*
X203040626Y-58491435D01*
X203051205Y-58499192D01*
X203288039Y-58623797D01*
X203291591Y-58625037D01*
X203291597Y-58625040D01*
X203537130Y-58710783D01*
X203537132Y-58710784D01*
X203540690Y-58712026D01*
X203544390Y-58712729D01*
X203544392Y-58712729D01*
X203584791Y-58720399D01*
X203803606Y-58761943D01*
X203807371Y-58762091D01*
X203807372Y-58762091D01*
X203831244Y-58763029D01*
X204071013Y-58772449D01*
X204074746Y-58772040D01*
X204074751Y-58772040D01*
X204333291Y-58743725D01*
X204337035Y-58743315D01*
X204595829Y-58675180D01*
X204599297Y-58673690D01*
X204599300Y-58673689D01*
X204838251Y-58571028D01*
X204841710Y-58569542D01*
X205069275Y-58428720D01*
X205170317Y-58343182D01*
X205270656Y-58258239D01*
X205270659Y-58258236D01*
X205273526Y-58255809D01*
X205449976Y-58054607D01*
X205594747Y-57829534D01*
X205646590Y-57714448D01*
X205698363Y-57599515D01*
X205704661Y-57585534D01*
X205750273Y-57423807D01*
X205776278Y-57331601D01*
X205776279Y-57331597D01*
X205777302Y-57327969D01*
X205778851Y-57315799D01*
X205810753Y-57065029D01*
X205810754Y-57065022D01*
X205811075Y-57062495D01*
X205813549Y-56968000D01*
X205793717Y-56701123D01*
X205783161Y-56654470D01*
X205735485Y-56443778D01*
X205734655Y-56440109D01*
X205732585Y-56434785D01*
X205639028Y-56194203D01*
X205639027Y-56194200D01*
X205637662Y-56190691D01*
X205635795Y-56187425D01*
X205635792Y-56187418D01*
X205506739Y-55961623D01*
X205506737Y-55961620D01*
X205504868Y-55958350D01*
X205339190Y-55748189D01*
X205144269Y-55564825D01*
X204924385Y-55412286D01*
X204921015Y-55410624D01*
X204921008Y-55410620D01*
X204687744Y-55295587D01*
X204687740Y-55295585D01*
X204684371Y-55293924D01*
X204429497Y-55212338D01*
X204297430Y-55190830D01*
X204169087Y-55169928D01*
X204169083Y-55169928D01*
X204165364Y-55169322D01*
X204029283Y-55167541D01*
X203901545Y-55165868D01*
X203901540Y-55165868D01*
X203897774Y-55165819D01*
X203894042Y-55166327D01*
X203894040Y-55166327D01*
X203636343Y-55201398D01*
X203636339Y-55201399D01*
X203632605Y-55201907D01*
X203628982Y-55202963D01*
X203379298Y-55275738D01*
X203379294Y-55275740D01*
X203375683Y-55276792D01*
X203132652Y-55388831D01*
X203129509Y-55390892D01*
X203129503Y-55390895D01*
X202912003Y-55533495D01*
X202911999Y-55533498D01*
X202908851Y-55535562D01*
X202709197Y-55713760D01*
X202538075Y-55919512D01*
X202536124Y-55922728D01*
X202536122Y-55922730D01*
X202506376Y-55971750D01*
X202399244Y-56148298D01*
X202295755Y-56395091D01*
X202294827Y-56398745D01*
X202230809Y-56650814D01*
X202230808Y-56650821D01*
X202229881Y-56654470D01*
X202229503Y-56658226D01*
X202212904Y-56823077D01*
X202203070Y-56920736D01*
X179224247Y-56920736D01*
X179187345Y-56823077D01*
X179182857Y-56816547D01*
X179101690Y-56698448D01*
X179083874Y-56638301D01*
X179102912Y-56581729D01*
X179176790Y-56478917D01*
X179176791Y-56478915D01*
X179180361Y-56473947D01*
X179243601Y-56316634D01*
X179267490Y-56148778D01*
X179267645Y-56134000D01*
X179266018Y-56120550D01*
X179259853Y-56069613D01*
X179247276Y-55965680D01*
X179187345Y-55807077D01*
X179182857Y-55800547D01*
X179101690Y-55682448D01*
X179083874Y-55622301D01*
X179102912Y-55565729D01*
X179176790Y-55462917D01*
X179176791Y-55462915D01*
X179180361Y-55457947D01*
X179243601Y-55300634D01*
X179256004Y-55213488D01*
X179267020Y-55136081D01*
X179267020Y-55136080D01*
X179267490Y-55132778D01*
X179267645Y-55118000D01*
X179266018Y-55104550D01*
X179259853Y-55053613D01*
X179247276Y-54949680D01*
X179187345Y-54791077D01*
X179182857Y-54784547D01*
X179094777Y-54656390D01*
X179094775Y-54656388D01*
X179091312Y-54651349D01*
X179086749Y-54647284D01*
X179086746Y-54647280D01*
X179019049Y-54586965D01*
X178964721Y-54538560D01*
X178902505Y-54505618D01*
X178820289Y-54462087D01*
X178820286Y-54462086D01*
X178814881Y-54459224D01*
X178808950Y-54457734D01*
X178808947Y-54457733D01*
X178733048Y-54438669D01*
X178650441Y-54417919D01*
X178603522Y-54417673D01*
X178487014Y-54417063D01*
X178480895Y-54417031D01*
X178474944Y-54418460D01*
X178474942Y-54418460D01*
X178321982Y-54455183D01*
X178321978Y-54455184D01*
X178316032Y-54456612D01*
X178165369Y-54534375D01*
X178160757Y-54538398D01*
X178160756Y-54538399D01*
X178042216Y-54641807D01*
X178042213Y-54641810D01*
X178037604Y-54645831D01*
X178010305Y-54684673D01*
X177960143Y-54722337D01*
X177897420Y-54723323D01*
X177843615Y-54683800D01*
X177824777Y-54656390D01*
X177824775Y-54656388D01*
X177821312Y-54651349D01*
X177816749Y-54647284D01*
X177816746Y-54647280D01*
X177749049Y-54586965D01*
X177694721Y-54538560D01*
X177632505Y-54505618D01*
X177550289Y-54462087D01*
X177550286Y-54462086D01*
X177544881Y-54459224D01*
X177538950Y-54457734D01*
X177538947Y-54457733D01*
X177463048Y-54438669D01*
X177380441Y-54417919D01*
X177333522Y-54417673D01*
X177217014Y-54417063D01*
X177210895Y-54417031D01*
X177204944Y-54418460D01*
X177204942Y-54418460D01*
X177051982Y-54455183D01*
X177051978Y-54455184D01*
X177046032Y-54456612D01*
X176895369Y-54534375D01*
X176890757Y-54538398D01*
X176890756Y-54538399D01*
X176772216Y-54641807D01*
X176772213Y-54641810D01*
X176767604Y-54645831D01*
X176670113Y-54784547D01*
X176608524Y-54942513D01*
X176586394Y-55110611D01*
X176604999Y-55279135D01*
X176663266Y-55438356D01*
X176749982Y-55567403D01*
X176752126Y-55570594D01*
X176769312Y-55630924D01*
X176750923Y-55685566D01*
X176670113Y-55800547D01*
X176608524Y-55958513D01*
X176586394Y-56126611D01*
X176604999Y-56295135D01*
X176663266Y-56454356D01*
X176672615Y-56468268D01*
X176752126Y-56586594D01*
X176769312Y-56646924D01*
X176750923Y-56701566D01*
X176670113Y-56816547D01*
X176608524Y-56974513D01*
X176586394Y-57142611D01*
X176604999Y-57311135D01*
X176663266Y-57470356D01*
X176746440Y-57594132D01*
X176752126Y-57602594D01*
X176769312Y-57662924D01*
X176750923Y-57717566D01*
X176670113Y-57832547D01*
X176667891Y-57838246D01*
X176645101Y-57896700D01*
X176608524Y-57990513D01*
X176600502Y-58051451D01*
X176597195Y-58076571D01*
X176586394Y-58158611D01*
X169151058Y-58158611D01*
X169181601Y-58082634D01*
X169205490Y-57914778D01*
X169205645Y-57900000D01*
X169204018Y-57886550D01*
X169196703Y-57826107D01*
X169185276Y-57731680D01*
X169125345Y-57573077D01*
X169118823Y-57563587D01*
X169032777Y-57438390D01*
X169032775Y-57438388D01*
X169029312Y-57433349D01*
X169024749Y-57429284D01*
X169024746Y-57429280D01*
X168939986Y-57353762D01*
X168902721Y-57320560D01*
X168808125Y-57270474D01*
X168758289Y-57244087D01*
X168758286Y-57244086D01*
X168752881Y-57241224D01*
X168746950Y-57239734D01*
X168746947Y-57239733D01*
X168671048Y-57220669D01*
X168588441Y-57199919D01*
X168541522Y-57199673D01*
X168425014Y-57199063D01*
X168418895Y-57199031D01*
X168412944Y-57200460D01*
X168412942Y-57200460D01*
X168259982Y-57237183D01*
X168259978Y-57237184D01*
X168254032Y-57238612D01*
X168248598Y-57241416D01*
X168248597Y-57241417D01*
X168186599Y-57273417D01*
X168103369Y-57316375D01*
X168098757Y-57320398D01*
X168098756Y-57320399D01*
X167980216Y-57423807D01*
X167980213Y-57423810D01*
X167975604Y-57427831D01*
X167927745Y-57495928D01*
X167898561Y-57537453D01*
X167878113Y-57566547D01*
X167875891Y-57572246D01*
X167823861Y-57705696D01*
X167816524Y-57724513D01*
X167794394Y-57892611D01*
X167812999Y-58061135D01*
X167871266Y-58220356D01*
X167880615Y-58234268D01*
X167932246Y-58311104D01*
X167949500Y-58367715D01*
X167949500Y-60689933D01*
X167930115Y-60749593D01*
X167919771Y-60761704D01*
X163931705Y-64749771D01*
X163875812Y-64778250D01*
X163859934Y-64779500D01*
X159444492Y-64779500D01*
X159440242Y-64779411D01*
X159437451Y-64779294D01*
X159377706Y-64776790D01*
X159370970Y-64778370D01*
X159334221Y-64786989D01*
X159324820Y-64788732D01*
X159287422Y-64793855D01*
X159287421Y-64793855D01*
X159280568Y-64794794D01*
X159268382Y-64800067D01*
X159264759Y-64801635D01*
X159247630Y-64807300D01*
X159230864Y-64811232D01*
X159224798Y-64814567D01*
X159191719Y-64832752D01*
X159183133Y-64836958D01*
X159142145Y-64854695D01*
X159136768Y-64859049D01*
X159128762Y-64865532D01*
X159113791Y-64875592D01*
X159098692Y-64883893D01*
X159090578Y-64890897D01*
X159065131Y-64916344D01*
X159057236Y-64923453D01*
X159024930Y-64949614D01*
X159020920Y-64955257D01*
X159012843Y-64966622D01*
X159001879Y-64979596D01*
X157101705Y-66879771D01*
X157045812Y-66908250D01*
X157029934Y-66909500D01*
X152843860Y-66909500D01*
X152784200Y-66890115D01*
X152778029Y-66885145D01*
X152777292Y-66884633D01*
X152772721Y-66880560D01*
X152764817Y-66876375D01*
X152628289Y-66804087D01*
X152628286Y-66804086D01*
X152622881Y-66801224D01*
X152616950Y-66799734D01*
X152616947Y-66799733D01*
X152541048Y-66780669D01*
X152458441Y-66759919D01*
X152411522Y-66759673D01*
X152295014Y-66759063D01*
X152288895Y-66759031D01*
X152282944Y-66760460D01*
X152282942Y-66760460D01*
X152129982Y-66797183D01*
X152129978Y-66797184D01*
X152124032Y-66798612D01*
X152118598Y-66801416D01*
X152118597Y-66801417D01*
X152040727Y-66841609D01*
X151973369Y-66876375D01*
X151968757Y-66880398D01*
X151968756Y-66880399D01*
X151850216Y-66983807D01*
X151850213Y-66983810D01*
X151845604Y-66987831D01*
X151748113Y-67126547D01*
X151686524Y-67284513D01*
X151664394Y-67452611D01*
X134464066Y-67452611D01*
X134464096Y-66352611D01*
X142434394Y-66352611D01*
X142452999Y-66521135D01*
X142511266Y-66680356D01*
X142514679Y-66685435D01*
X142568299Y-66765230D01*
X142605830Y-66821083D01*
X142731233Y-66935191D01*
X142736606Y-66938108D01*
X142736607Y-66938109D01*
X142820773Y-66983807D01*
X142880235Y-67016092D01*
X143044233Y-67059116D01*
X143114476Y-67060219D01*
X143207639Y-67061683D01*
X143207640Y-67061683D01*
X143213760Y-67061779D01*
X143305425Y-67040785D01*
X143373066Y-67025294D01*
X143373068Y-67025293D01*
X143379029Y-67023928D01*
X143458801Y-66983807D01*
X143525035Y-66950495D01*
X143525037Y-66950493D01*
X143530498Y-66947747D01*
X143659423Y-66837634D01*
X143758361Y-66699947D01*
X143821601Y-66542634D01*
X143823781Y-66527320D01*
X143845020Y-66378081D01*
X143845020Y-66378080D01*
X143845490Y-66374778D01*
X143845645Y-66360000D01*
X143844018Y-66346550D01*
X143837853Y-66295613D01*
X143825276Y-66191680D01*
X143765345Y-66033077D01*
X143708351Y-65950151D01*
X143690500Y-65892660D01*
X143690500Y-64305111D01*
X152651894Y-64305111D01*
X152670499Y-64473635D01*
X152728766Y-64632856D01*
X152732179Y-64637935D01*
X152813267Y-64758607D01*
X152823330Y-64773583D01*
X152948733Y-64887691D01*
X152954106Y-64890608D01*
X152954107Y-64890609D01*
X153091471Y-64965191D01*
X153097735Y-64968592D01*
X153261733Y-65011616D01*
X153331976Y-65012719D01*
X153425139Y-65014183D01*
X153425140Y-65014183D01*
X153431260Y-65014279D01*
X153522925Y-64993285D01*
X153590566Y-64977794D01*
X153590568Y-64977793D01*
X153596529Y-64976428D01*
X153747998Y-64900247D01*
X153752651Y-64896273D01*
X153752657Y-64896269D01*
X153763137Y-64887318D01*
X153821092Y-64863313D01*
X153829055Y-64863000D01*
X158553008Y-64863000D01*
X158557259Y-64863089D01*
X158619794Y-64865710D01*
X158630025Y-64863310D01*
X158663279Y-64855511D01*
X158672680Y-64853768D01*
X158710078Y-64848645D01*
X158710079Y-64848645D01*
X158716932Y-64847706D01*
X158729118Y-64842433D01*
X158732741Y-64840865D01*
X158749871Y-64835200D01*
X158750481Y-64835057D01*
X158766636Y-64831268D01*
X158805783Y-64809747D01*
X158814369Y-64805541D01*
X158855355Y-64787805D01*
X158868739Y-64776967D01*
X158883709Y-64766908D01*
X158898808Y-64758607D01*
X158906922Y-64751603D01*
X158932369Y-64726156D01*
X158940264Y-64719047D01*
X158967190Y-64697243D01*
X158967191Y-64697242D01*
X158972570Y-64692886D01*
X158984657Y-64675878D01*
X158995621Y-64662904D01*
X163543295Y-60115229D01*
X163599188Y-60086750D01*
X163615066Y-60085500D01*
X165510366Y-60085500D01*
X165569163Y-60104264D01*
X165571703Y-60106069D01*
X165576233Y-60110191D01*
X165725235Y-60191092D01*
X165889233Y-60234116D01*
X165959476Y-60235219D01*
X166052639Y-60236683D01*
X166052640Y-60236683D01*
X166058760Y-60236779D01*
X166150425Y-60215785D01*
X166218066Y-60200294D01*
X166218068Y-60200293D01*
X166224029Y-60198928D01*
X166299238Y-60161102D01*
X166370035Y-60125495D01*
X166370037Y-60125493D01*
X166375498Y-60122747D01*
X166504423Y-60012634D01*
X166592189Y-59890495D01*
X166599790Y-59879917D01*
X166599791Y-59879915D01*
X166603361Y-59874947D01*
X166666601Y-59717634D01*
X166680446Y-59620356D01*
X166690020Y-59553081D01*
X166690020Y-59553080D01*
X166690490Y-59549778D01*
X166690645Y-59535000D01*
X166684996Y-59488315D01*
X166680971Y-59455056D01*
X166670276Y-59366680D01*
X166610345Y-59208077D01*
X166570608Y-59150259D01*
X166517777Y-59073390D01*
X166517775Y-59073388D01*
X166514312Y-59068349D01*
X166509749Y-59064284D01*
X166509746Y-59064280D01*
X166417486Y-58982080D01*
X166387721Y-58955560D01*
X166325505Y-58922618D01*
X166243289Y-58879087D01*
X166243286Y-58879086D01*
X166237881Y-58876224D01*
X166231950Y-58874734D01*
X166231947Y-58874733D01*
X166156048Y-58855669D01*
X166073441Y-58834919D01*
X166026522Y-58834673D01*
X165910014Y-58834063D01*
X165903895Y-58834031D01*
X165897944Y-58835460D01*
X165897942Y-58835460D01*
X165744982Y-58872183D01*
X165744978Y-58872184D01*
X165739032Y-58873612D01*
X165588369Y-58951375D01*
X165583757Y-58955398D01*
X165583756Y-58955399D01*
X165579070Y-58959487D01*
X165521370Y-58984098D01*
X165512347Y-58984500D01*
X163359492Y-58984500D01*
X163355242Y-58984411D01*
X163352451Y-58984294D01*
X163292706Y-58981790D01*
X163285970Y-58983370D01*
X163249221Y-58991989D01*
X163239820Y-58993732D01*
X163202422Y-58998855D01*
X163202421Y-58998855D01*
X163195568Y-58999794D01*
X163183382Y-59005067D01*
X163179759Y-59006635D01*
X163162630Y-59012300D01*
X163145864Y-59016232D01*
X163139804Y-59019564D01*
X163139803Y-59019564D01*
X163106718Y-59037753D01*
X163098129Y-59041960D01*
X163057145Y-59059695D01*
X163051483Y-59064280D01*
X163043760Y-59070534D01*
X163028787Y-59080596D01*
X163013692Y-59088894D01*
X163005578Y-59095898D01*
X162980136Y-59121340D01*
X162972241Y-59128449D01*
X162939930Y-59154614D01*
X162935922Y-59160253D01*
X162935918Y-59160258D01*
X162927837Y-59171629D01*
X162916873Y-59184603D01*
X158369205Y-63732271D01*
X158313312Y-63760750D01*
X158297434Y-63762000D01*
X153831360Y-63762000D01*
X153771700Y-63742615D01*
X153765529Y-63737645D01*
X153764792Y-63737133D01*
X153760221Y-63733060D01*
X153754812Y-63730196D01*
X153615789Y-63656587D01*
X153615786Y-63656586D01*
X153610381Y-63653724D01*
X153604450Y-63652234D01*
X153604447Y-63652233D01*
X153528548Y-63633169D01*
X153445941Y-63612419D01*
X153399022Y-63612173D01*
X153282514Y-63611563D01*
X153276395Y-63611531D01*
X153270444Y-63612960D01*
X153270442Y-63612960D01*
X153117482Y-63649683D01*
X153117478Y-63649684D01*
X153111532Y-63651112D01*
X153106098Y-63653916D01*
X153106097Y-63653917D01*
X153035297Y-63690460D01*
X152960869Y-63728875D01*
X152956257Y-63732898D01*
X152956256Y-63732899D01*
X152837716Y-63836307D01*
X152837713Y-63836310D01*
X152833104Y-63840331D01*
X152735613Y-63979047D01*
X152733391Y-63984746D01*
X152704817Y-64058035D01*
X152674024Y-64137013D01*
X152651894Y-64305111D01*
X143690500Y-64305111D01*
X143690500Y-60972611D01*
X158724394Y-60972611D01*
X158742999Y-61141135D01*
X158801266Y-61300356D01*
X158895830Y-61441083D01*
X159021233Y-61555191D01*
X159026606Y-61558108D01*
X159026607Y-61558109D01*
X159164855Y-61633171D01*
X159170235Y-61636092D01*
X159334233Y-61679116D01*
X159404476Y-61680219D01*
X159497639Y-61681683D01*
X159497640Y-61681683D01*
X159503760Y-61681779D01*
X159595425Y-61660785D01*
X159663066Y-61645294D01*
X159663068Y-61645293D01*
X159669029Y-61643928D01*
X159744238Y-61606102D01*
X159815035Y-61570495D01*
X159815037Y-61570493D01*
X159820498Y-61567747D01*
X159949423Y-61457634D01*
X160021009Y-61358012D01*
X160044790Y-61324917D01*
X160044791Y-61324915D01*
X160048361Y-61319947D01*
X160111601Y-61162634D01*
X160125295Y-61066417D01*
X160135020Y-60998081D01*
X160135020Y-60998080D01*
X160135490Y-60994778D01*
X160135645Y-60980000D01*
X160134018Y-60966550D01*
X160126574Y-60905044D01*
X160115276Y-60811680D01*
X160055345Y-60653077D01*
X160050857Y-60646547D01*
X159962777Y-60518390D01*
X159962775Y-60518388D01*
X159959312Y-60513349D01*
X159954749Y-60509284D01*
X159954746Y-60509280D01*
X159887049Y-60448965D01*
X159832721Y-60400560D01*
X159770505Y-60367618D01*
X159688289Y-60324087D01*
X159688286Y-60324086D01*
X159682881Y-60321224D01*
X159676950Y-60319734D01*
X159676947Y-60319733D01*
X159601048Y-60300669D01*
X159518441Y-60279919D01*
X159471522Y-60279673D01*
X159355014Y-60279063D01*
X159348895Y-60279031D01*
X159342944Y-60280460D01*
X159342942Y-60280460D01*
X159189982Y-60317183D01*
X159189978Y-60317184D01*
X159184032Y-60318612D01*
X159033369Y-60396375D01*
X159028757Y-60400398D01*
X159028756Y-60400399D01*
X158910216Y-60503807D01*
X158910213Y-60503810D01*
X158905604Y-60507831D01*
X158808113Y-60646547D01*
X158805891Y-60652246D01*
X158767937Y-60749593D01*
X158746524Y-60804513D01*
X158724394Y-60972611D01*
X143690500Y-60972611D01*
X143690500Y-59292611D01*
X158764394Y-59292611D01*
X158782999Y-59461135D01*
X158841266Y-59620356D01*
X158844679Y-59625435D01*
X158906634Y-59717634D01*
X158935830Y-59761083D01*
X159061233Y-59875191D01*
X159066606Y-59878108D01*
X159066607Y-59878109D01*
X159204855Y-59953171D01*
X159210235Y-59956092D01*
X159374233Y-59999116D01*
X159444476Y-60000219D01*
X159537639Y-60001683D01*
X159537640Y-60001683D01*
X159543760Y-60001779D01*
X159635425Y-59980785D01*
X159703066Y-59965294D01*
X159703068Y-59965293D01*
X159709029Y-59963928D01*
X159784238Y-59926102D01*
X159855035Y-59890495D01*
X159855037Y-59890493D01*
X159860498Y-59887747D01*
X159989423Y-59777634D01*
X160088361Y-59639947D01*
X160151601Y-59482634D01*
X160175490Y-59314778D01*
X160175645Y-59300000D01*
X160174018Y-59286550D01*
X160167853Y-59235613D01*
X160155276Y-59131680D01*
X160095345Y-58973077D01*
X160090857Y-58966547D01*
X160002777Y-58838390D01*
X160002775Y-58838388D01*
X159999312Y-58833349D01*
X159994749Y-58829284D01*
X159994746Y-58829280D01*
X159905511Y-58749775D01*
X159872721Y-58720560D01*
X159784197Y-58673689D01*
X159728289Y-58644087D01*
X159728286Y-58644086D01*
X159722881Y-58641224D01*
X159716950Y-58639734D01*
X159716947Y-58639733D01*
X159641048Y-58620669D01*
X159558441Y-58599919D01*
X159511522Y-58599673D01*
X159395014Y-58599063D01*
X159388895Y-58599031D01*
X159382944Y-58600460D01*
X159382942Y-58600460D01*
X159229982Y-58637183D01*
X159229978Y-58637184D01*
X159224032Y-58638612D01*
X159218598Y-58641416D01*
X159218597Y-58641417D01*
X159151321Y-58676141D01*
X159073369Y-58716375D01*
X159068757Y-58720398D01*
X159068756Y-58720399D01*
X158950216Y-58823807D01*
X158950213Y-58823810D01*
X158945604Y-58827831D01*
X158909581Y-58879087D01*
X158857846Y-58952699D01*
X158848113Y-58966547D01*
X158845891Y-58972246D01*
X158797681Y-59095898D01*
X158786524Y-59124513D01*
X158764394Y-59292611D01*
X143690500Y-59292611D01*
X143690500Y-57940067D01*
X143709885Y-57880407D01*
X143720229Y-57868296D01*
X148648295Y-52940229D01*
X148704188Y-52911750D01*
X148720066Y-52910500D01*
X152869108Y-52910500D01*
X152873359Y-52910589D01*
X152935894Y-52913210D01*
X152946125Y-52910810D01*
X152979379Y-52903011D01*
X152988780Y-52901268D01*
X153026178Y-52896145D01*
X153026179Y-52896145D01*
X153033032Y-52895206D01*
X153045218Y-52889933D01*
X153048841Y-52888365D01*
X153065971Y-52882700D01*
X153082736Y-52878768D01*
X153121883Y-52857247D01*
X153130469Y-52853041D01*
X153171455Y-52835305D01*
X153184839Y-52824467D01*
X153199809Y-52814408D01*
X153214908Y-52806107D01*
X153223022Y-52799103D01*
X153248469Y-52773656D01*
X153256364Y-52766547D01*
X153283290Y-52744743D01*
X153283291Y-52744742D01*
X153288670Y-52740386D01*
X153300757Y-52723378D01*
X153311721Y-52710404D01*
X154046868Y-51975257D01*
X154803895Y-51218229D01*
X154859788Y-51189750D01*
X154875666Y-51188500D01*
X156342646Y-51188500D01*
X156368846Y-51185382D01*
X156375799Y-51182293D01*
X156375801Y-51182293D01*
X156462590Y-51143743D01*
X156462592Y-51143742D01*
X156471153Y-51139939D01*
X156477771Y-51133309D01*
X156477773Y-51133308D01*
X156543620Y-51067346D01*
X156543621Y-51067345D01*
X156550241Y-51060713D01*
X156595506Y-50958327D01*
X156597815Y-50938524D01*
X156598159Y-50935573D01*
X156598159Y-50935569D01*
X156598500Y-50932646D01*
X156598500Y-50007754D01*
X156832967Y-50007754D01*
X156833271Y-50012393D01*
X156833271Y-50012395D01*
X156834949Y-50038000D01*
X156846796Y-50218749D01*
X156847939Y-50223251D01*
X156847940Y-50223255D01*
X156896048Y-50412676D01*
X156898845Y-50423690D01*
X156900792Y-50427914D01*
X156900793Y-50427916D01*
X156980770Y-50601399D01*
X156987369Y-50615714D01*
X157109405Y-50788391D01*
X157260865Y-50935937D01*
X157436677Y-51053411D01*
X157440955Y-51055249D01*
X157622644Y-51133308D01*
X157630953Y-51136878D01*
X157728890Y-51159039D01*
X157832650Y-51182518D01*
X157832654Y-51182519D01*
X157837186Y-51183544D01*
X157841826Y-51183726D01*
X157841831Y-51183727D01*
X157951758Y-51188046D01*
X158048470Y-51191846D01*
X158053069Y-51191179D01*
X158053072Y-51191179D01*
X158253130Y-51162171D01*
X158257730Y-51161504D01*
X158360279Y-51126694D01*
X158453546Y-51095034D01*
X158453549Y-51095033D01*
X158457955Y-51093537D01*
X158642442Y-50990219D01*
X158713966Y-50930734D01*
X158801441Y-50857982D01*
X158805012Y-50855012D01*
X158903925Y-50736081D01*
X158937245Y-50696018D01*
X158937245Y-50696017D01*
X158940219Y-50692442D01*
X159043537Y-50507955D01*
X159051330Y-50484997D01*
X159088863Y-50434735D01*
X159148772Y-50416133D01*
X159208173Y-50436297D01*
X159241486Y-50479437D01*
X159310149Y-50648535D01*
X159313889Y-50655940D01*
X159426215Y-50839238D01*
X159431122Y-50845943D01*
X159571871Y-51008428D01*
X159577807Y-51014241D01*
X159743209Y-51151560D01*
X159750008Y-51156321D01*
X159935624Y-51264786D01*
X159943106Y-51268371D01*
X160143940Y-51345062D01*
X160151917Y-51347379D01*
X160258244Y-51369011D01*
X160271792Y-51367468D01*
X160274000Y-51359080D01*
X160274000Y-51358556D01*
X160782000Y-51358556D01*
X160786226Y-51371562D01*
X160787792Y-51372699D01*
X160793161Y-51373202D01*
X160807183Y-51371406D01*
X160815298Y-51369681D01*
X161021211Y-51307904D01*
X161028940Y-51304875D01*
X161221999Y-51210296D01*
X161229127Y-51206047D01*
X161404141Y-51081212D01*
X161410492Y-51075845D01*
X161562753Y-50924112D01*
X161568152Y-50917768D01*
X161693587Y-50743208D01*
X161697870Y-50736081D01*
X161793118Y-50543362D01*
X161796177Y-50535634D01*
X161811668Y-50484650D01*
X161847559Y-50433202D01*
X161906836Y-50412676D01*
X161966857Y-50430912D01*
X162000961Y-50471662D01*
X162006948Y-50484650D01*
X162060770Y-50601399D01*
X162067369Y-50615714D01*
X162189405Y-50788391D01*
X162340865Y-50935937D01*
X162516677Y-51053411D01*
X162520955Y-51055249D01*
X162702644Y-51133308D01*
X162710953Y-51136878D01*
X162808890Y-51159039D01*
X162912650Y-51182518D01*
X162912654Y-51182519D01*
X162917186Y-51183544D01*
X162921826Y-51183726D01*
X162921831Y-51183727D01*
X163031758Y-51188046D01*
X163128470Y-51191846D01*
X163133069Y-51191179D01*
X163133072Y-51191179D01*
X163333130Y-51162171D01*
X163337730Y-51161504D01*
X163440279Y-51126694D01*
X163533546Y-51095034D01*
X163533549Y-51095033D01*
X163537955Y-51093537D01*
X163722442Y-50990219D01*
X163793966Y-50930734D01*
X163881441Y-50857982D01*
X163885012Y-50855012D01*
X163983925Y-50736081D01*
X164017245Y-50696018D01*
X164017245Y-50696017D01*
X164020219Y-50692442D01*
X164123537Y-50507955D01*
X164132041Y-50482905D01*
X164190008Y-50312136D01*
X164191504Y-50307730D01*
X164221846Y-50098470D01*
X164222279Y-50081937D01*
X164223351Y-50040999D01*
X164223351Y-50040990D01*
X164223429Y-50038000D01*
X164221077Y-50012395D01*
X164220651Y-50007754D01*
X164452967Y-50007754D01*
X164453271Y-50012393D01*
X164453271Y-50012395D01*
X164454949Y-50038000D01*
X164466796Y-50218749D01*
X164467939Y-50223251D01*
X164467940Y-50223255D01*
X164516048Y-50412676D01*
X164518845Y-50423690D01*
X164520792Y-50427914D01*
X164520793Y-50427916D01*
X164600770Y-50601399D01*
X164607369Y-50615714D01*
X164729405Y-50788391D01*
X164880865Y-50935937D01*
X165056677Y-51053411D01*
X165060955Y-51055249D01*
X165242644Y-51133308D01*
X165250953Y-51136878D01*
X165348890Y-51159039D01*
X165452650Y-51182518D01*
X165452654Y-51182519D01*
X165457186Y-51183544D01*
X165461826Y-51183726D01*
X165461831Y-51183727D01*
X165571758Y-51188046D01*
X165668470Y-51191846D01*
X165673069Y-51191179D01*
X165673072Y-51191179D01*
X165873130Y-51162171D01*
X165877730Y-51161504D01*
X165980279Y-51126694D01*
X166073546Y-51095034D01*
X166073549Y-51095033D01*
X166077955Y-51093537D01*
X166262442Y-50990219D01*
X166333966Y-50930734D01*
X166421441Y-50857982D01*
X166425012Y-50855012D01*
X166523925Y-50736081D01*
X166557245Y-50696018D01*
X166557245Y-50696017D01*
X166560219Y-50692442D01*
X166663537Y-50507955D01*
X166672041Y-50482905D01*
X166730008Y-50312136D01*
X166731504Y-50307730D01*
X166761846Y-50098470D01*
X166762279Y-50081937D01*
X166763351Y-50040999D01*
X166763351Y-50040990D01*
X166763429Y-50038000D01*
X166761077Y-50012395D01*
X166760651Y-50007754D01*
X166992967Y-50007754D01*
X166993271Y-50012393D01*
X166993271Y-50012395D01*
X166994949Y-50038000D01*
X167006796Y-50218749D01*
X167007939Y-50223251D01*
X167007940Y-50223255D01*
X167056048Y-50412676D01*
X167058845Y-50423690D01*
X167060792Y-50427914D01*
X167060793Y-50427916D01*
X167140770Y-50601399D01*
X167147369Y-50615714D01*
X167269405Y-50788391D01*
X167420865Y-50935937D01*
X167596677Y-51053411D01*
X167600955Y-51055249D01*
X167782644Y-51133308D01*
X167790953Y-51136878D01*
X167888890Y-51159039D01*
X167992650Y-51182518D01*
X167992654Y-51182519D01*
X167997186Y-51183544D01*
X168001826Y-51183726D01*
X168001831Y-51183727D01*
X168111758Y-51188046D01*
X168208470Y-51191846D01*
X168213069Y-51191179D01*
X168213072Y-51191179D01*
X168413130Y-51162171D01*
X168417730Y-51161504D01*
X168520279Y-51126694D01*
X168613546Y-51095034D01*
X168613549Y-51095033D01*
X168617955Y-51093537D01*
X168802442Y-50990219D01*
X168873966Y-50930734D01*
X168961441Y-50857982D01*
X168965012Y-50855012D01*
X169063925Y-50736081D01*
X169097245Y-50696018D01*
X169097245Y-50696017D01*
X169100219Y-50692442D01*
X169203537Y-50507955D01*
X169211330Y-50484997D01*
X169248863Y-50434735D01*
X169308772Y-50416133D01*
X169368173Y-50436297D01*
X169401486Y-50479437D01*
X169470149Y-50648535D01*
X169473889Y-50655940D01*
X169586215Y-50839238D01*
X169591122Y-50845943D01*
X169731871Y-51008428D01*
X169737807Y-51014241D01*
X169903209Y-51151560D01*
X169910008Y-51156321D01*
X170095624Y-51264786D01*
X170103106Y-51268371D01*
X170303940Y-51345062D01*
X170311917Y-51347379D01*
X170418244Y-51369011D01*
X170431792Y-51367468D01*
X170434000Y-51359080D01*
X170434000Y-51358556D01*
X170942000Y-51358556D01*
X170946226Y-51371562D01*
X170947792Y-51372699D01*
X170953161Y-51373202D01*
X170967183Y-51371406D01*
X170975298Y-51369681D01*
X171181211Y-51307904D01*
X171188940Y-51304875D01*
X171381999Y-51210296D01*
X171389127Y-51206047D01*
X171564141Y-51081212D01*
X171570492Y-51075845D01*
X171722753Y-50924112D01*
X171728152Y-50917768D01*
X171853587Y-50743208D01*
X171857870Y-50736081D01*
X171953118Y-50543362D01*
X171956177Y-50535634D01*
X171971668Y-50484650D01*
X172007559Y-50433202D01*
X172066836Y-50412676D01*
X172126857Y-50430912D01*
X172160961Y-50471662D01*
X172166948Y-50484650D01*
X172220770Y-50601399D01*
X172227369Y-50615714D01*
X172349405Y-50788391D01*
X172500865Y-50935937D01*
X172676677Y-51053411D01*
X172680955Y-51055249D01*
X172862644Y-51133308D01*
X172870953Y-51136878D01*
X172968890Y-51159039D01*
X173072650Y-51182518D01*
X173072654Y-51182519D01*
X173077186Y-51183544D01*
X173081826Y-51183726D01*
X173081831Y-51183727D01*
X173191758Y-51188046D01*
X173288470Y-51191846D01*
X173293069Y-51191179D01*
X173293072Y-51191179D01*
X173493130Y-51162171D01*
X173497730Y-51161504D01*
X173600279Y-51126694D01*
X173693546Y-51095034D01*
X173693549Y-51095033D01*
X173697955Y-51093537D01*
X173882442Y-50990219D01*
X173953966Y-50930734D01*
X174041441Y-50857982D01*
X174045012Y-50855012D01*
X174143925Y-50736081D01*
X174177245Y-50696018D01*
X174177245Y-50696017D01*
X174180219Y-50692442D01*
X174283537Y-50507955D01*
X174292041Y-50482905D01*
X174350008Y-50312136D01*
X174351504Y-50307730D01*
X174381846Y-50098470D01*
X174382279Y-50081937D01*
X174383351Y-50040999D01*
X174383351Y-50040990D01*
X174383429Y-50038000D01*
X174381077Y-50012395D01*
X174364507Y-49832074D01*
X174364507Y-49832072D01*
X174364081Y-49827440D01*
X174349188Y-49774632D01*
X174307949Y-49628408D01*
X174307948Y-49628404D01*
X174306686Y-49623931D01*
X174213165Y-49434290D01*
X174210384Y-49430565D01*
X174210381Y-49430561D01*
X174089437Y-49268597D01*
X174089433Y-49268593D01*
X174086651Y-49264867D01*
X174080531Y-49259209D01*
X173964349Y-49151812D01*
X173931381Y-49121337D01*
X173925375Y-49117547D01*
X173825838Y-49054744D01*
X173752554Y-49008505D01*
X173653494Y-48968984D01*
X173560490Y-48931879D01*
X173560485Y-48931878D01*
X173556160Y-48930152D01*
X173551593Y-48929244D01*
X173551591Y-48929243D01*
X173353335Y-48889808D01*
X173348775Y-48888901D01*
X173344124Y-48888840D01*
X173344123Y-48888840D01*
X173236262Y-48887428D01*
X173137346Y-48886133D01*
X172928953Y-48921941D01*
X172730575Y-48995127D01*
X172726578Y-48997505D01*
X172552847Y-49100863D01*
X172552842Y-49100866D01*
X172548856Y-49103238D01*
X172389881Y-49242655D01*
X172387006Y-49246302D01*
X172387004Y-49246304D01*
X172269185Y-49395758D01*
X172258976Y-49408708D01*
X172256812Y-49412820D01*
X172256810Y-49412824D01*
X172163272Y-49590611D01*
X172160523Y-49595836D01*
X172159691Y-49595398D01*
X172121810Y-49639747D01*
X172060813Y-49654388D01*
X172002858Y-49630379D01*
X171975699Y-49593674D01*
X171890572Y-49397894D01*
X171886648Y-49390578D01*
X171769882Y-49210085D01*
X171764811Y-49203499D01*
X171620138Y-49044506D01*
X171614052Y-49038831D01*
X171445348Y-48905597D01*
X171438439Y-48901006D01*
X171250224Y-48797106D01*
X171242661Y-48793707D01*
X171040013Y-48721945D01*
X171031981Y-48719823D01*
X170957828Y-48706614D01*
X170944282Y-48708494D01*
X170943851Y-48708909D01*
X170942000Y-48716304D01*
X170942000Y-51358556D01*
X170434000Y-51358556D01*
X170434000Y-48719063D01*
X170429774Y-48706057D01*
X170428748Y-48705312D01*
X170422257Y-48704784D01*
X170376328Y-48711813D01*
X170368244Y-48713739D01*
X170163913Y-48780524D01*
X170156258Y-48783741D01*
X169965560Y-48883012D01*
X169958549Y-48887428D01*
X169786626Y-49016511D01*
X169780423Y-49022019D01*
X169631900Y-49177439D01*
X169626669Y-49183899D01*
X169505527Y-49361486D01*
X169501424Y-49368708D01*
X169410915Y-49563695D01*
X169408045Y-49571496D01*
X169404584Y-49583975D01*
X169369960Y-49636285D01*
X169311202Y-49658252D01*
X169250753Y-49641488D01*
X169215743Y-49601741D01*
X169166447Y-49501779D01*
X169133165Y-49434290D01*
X169130384Y-49430565D01*
X169130381Y-49430561D01*
X169009437Y-49268597D01*
X169009433Y-49268593D01*
X169006651Y-49264867D01*
X169000531Y-49259209D01*
X168884349Y-49151812D01*
X168851381Y-49121337D01*
X168845375Y-49117547D01*
X168745838Y-49054744D01*
X168672554Y-49008505D01*
X168573494Y-48968984D01*
X168480490Y-48931879D01*
X168480485Y-48931878D01*
X168476160Y-48930152D01*
X168471593Y-48929244D01*
X168471591Y-48929243D01*
X168273335Y-48889808D01*
X168268775Y-48888901D01*
X168264124Y-48888840D01*
X168264123Y-48888840D01*
X168156262Y-48887428D01*
X168057346Y-48886133D01*
X167848953Y-48921941D01*
X167650575Y-48995127D01*
X167646578Y-48997505D01*
X167472847Y-49100863D01*
X167472842Y-49100866D01*
X167468856Y-49103238D01*
X167309881Y-49242655D01*
X167307006Y-49246302D01*
X167307004Y-49246304D01*
X167189185Y-49395758D01*
X167178976Y-49408708D01*
X167176812Y-49412820D01*
X167176810Y-49412824D01*
X167144012Y-49475164D01*
X167080523Y-49595836D01*
X167017820Y-49797773D01*
X167011498Y-49851191D01*
X166996677Y-49976412D01*
X166992967Y-50007754D01*
X166760651Y-50007754D01*
X166744507Y-49832074D01*
X166744507Y-49832072D01*
X166744081Y-49827440D01*
X166729188Y-49774632D01*
X166687949Y-49628408D01*
X166687948Y-49628404D01*
X166686686Y-49623931D01*
X166593165Y-49434290D01*
X166590384Y-49430565D01*
X166590381Y-49430561D01*
X166469437Y-49268597D01*
X166469433Y-49268593D01*
X166466651Y-49264867D01*
X166460531Y-49259209D01*
X166344349Y-49151812D01*
X166311381Y-49121337D01*
X166305375Y-49117547D01*
X166205838Y-49054744D01*
X166165726Y-49006514D01*
X166158500Y-48968903D01*
X166158500Y-48022067D01*
X166177885Y-47962407D01*
X166188229Y-47950296D01*
X166822295Y-47316229D01*
X166878188Y-47287750D01*
X166894066Y-47286500D01*
X178291933Y-47286500D01*
X178351593Y-47305885D01*
X178363704Y-47316229D01*
X178532771Y-47485296D01*
X178561250Y-47541189D01*
X178562500Y-47557067D01*
X178562500Y-47688873D01*
X178544042Y-47747236D01*
X178491113Y-47822547D01*
X178429524Y-47980513D01*
X178407394Y-48148611D01*
X178425999Y-48317135D01*
X178484266Y-48476356D01*
X178537420Y-48555457D01*
X178545246Y-48567104D01*
X178562500Y-48623715D01*
X178562500Y-49391508D01*
X178562411Y-49395758D01*
X178559790Y-49458294D01*
X178561370Y-49465030D01*
X178569989Y-49501779D01*
X178571732Y-49511180D01*
X178577794Y-49555432D01*
X178580542Y-49561781D01*
X178584635Y-49571241D01*
X178590300Y-49588370D01*
X178594232Y-49605136D01*
X178615752Y-49644281D01*
X178619958Y-49652867D01*
X178637695Y-49693855D01*
X178642049Y-49699232D01*
X178648532Y-49707238D01*
X178658592Y-49722209D01*
X178666893Y-49737308D01*
X178673897Y-49745422D01*
X178699344Y-49770869D01*
X178706453Y-49778764D01*
X178732614Y-49811070D01*
X178738257Y-49815080D01*
X178749622Y-49823157D01*
X178762596Y-49834121D01*
X180577155Y-51648680D01*
X180606271Y-51709312D01*
X180610999Y-51752135D01*
X180669266Y-51911356D01*
X180763830Y-52052083D01*
X180889233Y-52166191D01*
X180894606Y-52169108D01*
X180894607Y-52169109D01*
X181032855Y-52244171D01*
X181038235Y-52247092D01*
X181202233Y-52290116D01*
X181272476Y-52291219D01*
X181365639Y-52292683D01*
X181365640Y-52292683D01*
X181371760Y-52292779D01*
X181463425Y-52271785D01*
X181531066Y-52256294D01*
X181531068Y-52256293D01*
X181537029Y-52254928D01*
X181612238Y-52217102D01*
X181683035Y-52181495D01*
X181683037Y-52181493D01*
X181688498Y-52178747D01*
X181817423Y-52068634D01*
X181916361Y-51930947D01*
X181979601Y-51773634D01*
X181982084Y-51756191D01*
X182003020Y-51609081D01*
X182003020Y-51609080D01*
X182003490Y-51605778D01*
X182003645Y-51591000D01*
X182003197Y-51587292D01*
X181992179Y-51496251D01*
X181983276Y-51422680D01*
X181923345Y-51264077D01*
X181896270Y-51224683D01*
X181830777Y-51129390D01*
X181830775Y-51129388D01*
X181827312Y-51124349D01*
X181822749Y-51120284D01*
X181822746Y-51120280D01*
X181743075Y-51049296D01*
X181700721Y-51011560D01*
X181557894Y-50935937D01*
X181556289Y-50935087D01*
X181556286Y-50935086D01*
X181550881Y-50932224D01*
X181400297Y-50894399D01*
X181353254Y-50867729D01*
X180523525Y-50038000D01*
X179693229Y-49207705D01*
X179664750Y-49151812D01*
X179663500Y-49135934D01*
X179663500Y-48623072D01*
X179682573Y-48563843D01*
X179727790Y-48500917D01*
X179727791Y-48500915D01*
X179731361Y-48495947D01*
X179794601Y-48338634D01*
X179799327Y-48305431D01*
X179818020Y-48174081D01*
X179818020Y-48174080D01*
X179818490Y-48170778D01*
X179818645Y-48156000D01*
X179817758Y-48148664D01*
X179802051Y-48018875D01*
X179798276Y-47987680D01*
X179742095Y-47839000D01*
X179740508Y-47834801D01*
X179740508Y-47834800D01*
X179738345Y-47829077D01*
X179730416Y-47817541D01*
X179681351Y-47746151D01*
X179663500Y-47688660D01*
X179663500Y-47301492D01*
X179663589Y-47297242D01*
X179664133Y-47284251D01*
X179666210Y-47234706D01*
X179661445Y-47214390D01*
X179656011Y-47191221D01*
X179654268Y-47181820D01*
X179649145Y-47144422D01*
X179649145Y-47144421D01*
X179648206Y-47137568D01*
X179641365Y-47121759D01*
X179635700Y-47104629D01*
X179634761Y-47100627D01*
X179631768Y-47087864D01*
X179610247Y-47048717D01*
X179606041Y-47040131D01*
X179594998Y-47014612D01*
X179588305Y-46999145D01*
X179577467Y-46985761D01*
X179567408Y-46970791D01*
X179559107Y-46955692D01*
X179552103Y-46947578D01*
X179526656Y-46922131D01*
X179519547Y-46914236D01*
X179497743Y-46887310D01*
X179497742Y-46887309D01*
X179493386Y-46881930D01*
X179476378Y-46869843D01*
X179463404Y-46858879D01*
X178961525Y-46357001D01*
X178958582Y-46353933D01*
X178936546Y-46329969D01*
X178916201Y-46307844D01*
X178910320Y-46304198D01*
X178910318Y-46304196D01*
X178878238Y-46284306D01*
X178870357Y-46278890D01*
X178840293Y-46256070D01*
X178840291Y-46256069D01*
X178834783Y-46251888D01*
X178828350Y-46249341D01*
X178828348Y-46249340D01*
X178818769Y-46245547D01*
X178802654Y-46237443D01*
X178788014Y-46228365D01*
X178745118Y-46215903D01*
X178736072Y-46212805D01*
X178712676Y-46203542D01*
X178694547Y-46196364D01*
X178677419Y-46194564D01*
X178659718Y-46191091D01*
X178643175Y-46186285D01*
X178637871Y-46185895D01*
X178637868Y-46185895D01*
X178636179Y-46185771D01*
X178632485Y-46185500D01*
X178596497Y-46185500D01*
X178585888Y-46184944D01*
X178551427Y-46181322D01*
X178551426Y-46181322D01*
X178544546Y-46180599D01*
X178523971Y-46184079D01*
X178507044Y-46185500D01*
X166638492Y-46185500D01*
X166634242Y-46185411D01*
X166631451Y-46185294D01*
X166571706Y-46182790D01*
X166564970Y-46184370D01*
X166528221Y-46192989D01*
X166518820Y-46194732D01*
X166481422Y-46199855D01*
X166481421Y-46199855D01*
X166474568Y-46200794D01*
X166462382Y-46206067D01*
X166458759Y-46207635D01*
X166441630Y-46213300D01*
X166424864Y-46217232D01*
X166418798Y-46220567D01*
X166385719Y-46238752D01*
X166377133Y-46242958D01*
X166336145Y-46260695D01*
X166330768Y-46265049D01*
X166322762Y-46271532D01*
X166307791Y-46281592D01*
X166292692Y-46289893D01*
X166284578Y-46296897D01*
X166259131Y-46322344D01*
X166251236Y-46329453D01*
X166218930Y-46355614D01*
X166214920Y-46361257D01*
X166206843Y-46372622D01*
X166195879Y-46385596D01*
X165229001Y-47352475D01*
X165225934Y-47355417D01*
X165179844Y-47397799D01*
X165176198Y-47403680D01*
X165176196Y-47403682D01*
X165156306Y-47435762D01*
X165150890Y-47443643D01*
X165123888Y-47479217D01*
X165121341Y-47485650D01*
X165121340Y-47485652D01*
X165117547Y-47495231D01*
X165109443Y-47511346D01*
X165100365Y-47525986D01*
X165087903Y-47568881D01*
X165084805Y-47577928D01*
X165068364Y-47619453D01*
X165067304Y-47629536D01*
X165066564Y-47636579D01*
X165063091Y-47654282D01*
X165058285Y-47670825D01*
X165057500Y-47681515D01*
X165057500Y-47717503D01*
X165056944Y-47728112D01*
X165052599Y-47769454D01*
X165053753Y-47776275D01*
X165056079Y-47790029D01*
X165057500Y-47806956D01*
X165057500Y-48968984D01*
X165038115Y-49028644D01*
X165007896Y-49056214D01*
X164928856Y-49103238D01*
X164769881Y-49242655D01*
X164767006Y-49246302D01*
X164767004Y-49246304D01*
X164649185Y-49395758D01*
X164638976Y-49408708D01*
X164636812Y-49412820D01*
X164636810Y-49412824D01*
X164604012Y-49475164D01*
X164540523Y-49595836D01*
X164477820Y-49797773D01*
X164471498Y-49851191D01*
X164456677Y-49976412D01*
X164452967Y-50007754D01*
X164220651Y-50007754D01*
X164204507Y-49832074D01*
X164204507Y-49832072D01*
X164204081Y-49827440D01*
X164189188Y-49774632D01*
X164147949Y-49628408D01*
X164147948Y-49628404D01*
X164146686Y-49623931D01*
X164053165Y-49434290D01*
X164050384Y-49430565D01*
X164050381Y-49430561D01*
X163929437Y-49268597D01*
X163929433Y-49268593D01*
X163926651Y-49264867D01*
X163920531Y-49259209D01*
X163804349Y-49151812D01*
X163771381Y-49121337D01*
X163765375Y-49117547D01*
X163665838Y-49054744D01*
X163592554Y-49008505D01*
X163493494Y-48968984D01*
X163400490Y-48931879D01*
X163400485Y-48931878D01*
X163396160Y-48930152D01*
X163391593Y-48929244D01*
X163391591Y-48929243D01*
X163193335Y-48889808D01*
X163188775Y-48888901D01*
X163184124Y-48888840D01*
X163184123Y-48888840D01*
X163076262Y-48887428D01*
X162977346Y-48886133D01*
X162768953Y-48921941D01*
X162570575Y-48995127D01*
X162566578Y-48997505D01*
X162392847Y-49100863D01*
X162392842Y-49100866D01*
X162388856Y-49103238D01*
X162229881Y-49242655D01*
X162227006Y-49246302D01*
X162227004Y-49246304D01*
X162109185Y-49395758D01*
X162098976Y-49408708D01*
X162096812Y-49412820D01*
X162096810Y-49412824D01*
X162003272Y-49590611D01*
X162000523Y-49595836D01*
X161999691Y-49595398D01*
X161961810Y-49639747D01*
X161900813Y-49654388D01*
X161842858Y-49630379D01*
X161815699Y-49593674D01*
X161730572Y-49397894D01*
X161726648Y-49390578D01*
X161609882Y-49210085D01*
X161604811Y-49203499D01*
X161460138Y-49044506D01*
X161454052Y-49038831D01*
X161285348Y-48905597D01*
X161278439Y-48901006D01*
X161090224Y-48797106D01*
X161082661Y-48793707D01*
X160880013Y-48721945D01*
X160871981Y-48719823D01*
X160797828Y-48706614D01*
X160784282Y-48708494D01*
X160783851Y-48708909D01*
X160782000Y-48716304D01*
X160782000Y-51358556D01*
X160274000Y-51358556D01*
X160274000Y-48719063D01*
X160269774Y-48706057D01*
X160268748Y-48705312D01*
X160262257Y-48704784D01*
X160216328Y-48711813D01*
X160208244Y-48713739D01*
X160003913Y-48780524D01*
X159996258Y-48783741D01*
X159805560Y-48883012D01*
X159798549Y-48887428D01*
X159626626Y-49016511D01*
X159620423Y-49022019D01*
X159471900Y-49177439D01*
X159466669Y-49183899D01*
X159345527Y-49361486D01*
X159341424Y-49368708D01*
X159250915Y-49563695D01*
X159248045Y-49571496D01*
X159244584Y-49583975D01*
X159209960Y-49636285D01*
X159151202Y-49658252D01*
X159090753Y-49641488D01*
X159055743Y-49601741D01*
X159006447Y-49501779D01*
X158973165Y-49434290D01*
X158970384Y-49430565D01*
X158970381Y-49430561D01*
X158849437Y-49268597D01*
X158849433Y-49268593D01*
X158846651Y-49264867D01*
X158840531Y-49259209D01*
X158821102Y-49241250D01*
X158790450Y-49186518D01*
X158788500Y-49166716D01*
X158788500Y-48125620D01*
X158807885Y-48065960D01*
X158818229Y-48053849D01*
X164431849Y-42440229D01*
X164487742Y-42411750D01*
X164503620Y-42410500D01*
X173055155Y-42410500D01*
X173188472Y-42395546D01*
X173193832Y-42393679D01*
X173193834Y-42393679D01*
X173352712Y-42338352D01*
X173352713Y-42338352D01*
X173358073Y-42336485D01*
X173362883Y-42333480D01*
X173362886Y-42333478D01*
X173505567Y-42244321D01*
X173505571Y-42244318D01*
X173510375Y-42241316D01*
X173637807Y-42114770D01*
X173734037Y-41963136D01*
X173758627Y-41894079D01*
X173767696Y-41868611D01*
X175467394Y-41868611D01*
X175485999Y-42037135D01*
X175544266Y-42196356D01*
X175638830Y-42337083D01*
X175764233Y-42451191D01*
X175913235Y-42532092D01*
X176077233Y-42575116D01*
X176112020Y-42575662D01*
X176232345Y-42577553D01*
X176291693Y-42597872D01*
X176302521Y-42607269D01*
X177739780Y-44044528D01*
X177762875Y-44056295D01*
X177776445Y-44064612D01*
X177790951Y-44075152D01*
X177790957Y-44075155D01*
X177797419Y-44079850D01*
X177822081Y-44087863D01*
X177836779Y-44093952D01*
X177859874Y-44105719D01*
X177867764Y-44106969D01*
X177867765Y-44106969D01*
X177885469Y-44109773D01*
X177900954Y-44113490D01*
X177918010Y-44119032D01*
X177918012Y-44119032D01*
X177925607Y-44121500D01*
X182102616Y-44121500D01*
X182162276Y-44140885D01*
X182177114Y-44154529D01*
X182178830Y-44157083D01*
X182183351Y-44161197D01*
X182183353Y-44161199D01*
X182254311Y-44225765D01*
X182285391Y-44280255D01*
X182287500Y-44300838D01*
X182287500Y-48583393D01*
X182295512Y-48608051D01*
X182299225Y-48623515D01*
X182303281Y-48649126D01*
X182315050Y-48672225D01*
X182321140Y-48686927D01*
X182329151Y-48711581D01*
X182333846Y-48718044D01*
X182333848Y-48718047D01*
X182344384Y-48732549D01*
X182352706Y-48746129D01*
X182360842Y-48762097D01*
X182360844Y-48762100D01*
X182364472Y-48769220D01*
X182743223Y-49147971D01*
X182771702Y-49203864D01*
X182772083Y-49232992D01*
X182768192Y-49262544D01*
X182768192Y-49262550D01*
X182767394Y-49268611D01*
X182785999Y-49437135D01*
X182844266Y-49596356D01*
X182847679Y-49601435D01*
X182923504Y-49714275D01*
X182938830Y-49737083D01*
X183064233Y-49851191D01*
X183069606Y-49854108D01*
X183069607Y-49854109D01*
X183207855Y-49929171D01*
X183213235Y-49932092D01*
X183377233Y-49975116D01*
X183447476Y-49976219D01*
X183540639Y-49977683D01*
X183540640Y-49977683D01*
X183546760Y-49977779D01*
X183638425Y-49956785D01*
X183706066Y-49941294D01*
X183706068Y-49941293D01*
X183712029Y-49939928D01*
X183787238Y-49902102D01*
X183858035Y-49866495D01*
X183858037Y-49866493D01*
X183863498Y-49863747D01*
X183992423Y-49753634D01*
X184060962Y-49658252D01*
X184087790Y-49620917D01*
X184087791Y-49620915D01*
X184091361Y-49615947D01*
X184154601Y-49458634D01*
X184157036Y-49441528D01*
X184178020Y-49294081D01*
X184178020Y-49294080D01*
X184178490Y-49290778D01*
X184178645Y-49276000D01*
X184177548Y-49266929D01*
X184168920Y-49195638D01*
X184158276Y-49107680D01*
X184098345Y-48949077D01*
X184093957Y-48942692D01*
X184005777Y-48814390D01*
X184005775Y-48814388D01*
X184002312Y-48809349D01*
X183997749Y-48805284D01*
X183997746Y-48805280D01*
X183904212Y-48721945D01*
X183875721Y-48696560D01*
X183771238Y-48641239D01*
X183731289Y-48620087D01*
X183731286Y-48620086D01*
X183725881Y-48617224D01*
X183719950Y-48615734D01*
X183719947Y-48615733D01*
X183643042Y-48596416D01*
X183561441Y-48575919D01*
X183543039Y-48575823D01*
X183415413Y-48575154D01*
X183355855Y-48555457D01*
X183344174Y-48545426D01*
X183168229Y-48369481D01*
X183139750Y-48313588D01*
X183138500Y-48297710D01*
X183138500Y-45228611D01*
X186847394Y-45228611D01*
X186865999Y-45397135D01*
X186924266Y-45556356D01*
X186927679Y-45561435D01*
X186954421Y-45601231D01*
X187018830Y-45697083D01*
X187144233Y-45811191D01*
X187149606Y-45814108D01*
X187149607Y-45814109D01*
X187287855Y-45889171D01*
X187293235Y-45892092D01*
X187457233Y-45935116D01*
X187527476Y-45936219D01*
X187620639Y-45937683D01*
X187620640Y-45937683D01*
X187626760Y-45937779D01*
X187728879Y-45914391D01*
X187786066Y-45901294D01*
X187786068Y-45901293D01*
X187792029Y-45899928D01*
X187867238Y-45862102D01*
X187938035Y-45826495D01*
X187938037Y-45826493D01*
X187943498Y-45823747D01*
X188072423Y-45713634D01*
X188079510Y-45703771D01*
X188130065Y-45666634D01*
X188161937Y-45661500D01*
X189244710Y-45661500D01*
X189304370Y-45680885D01*
X189316481Y-45691229D01*
X190783223Y-47157971D01*
X190811702Y-47213864D01*
X190812083Y-47242992D01*
X190808192Y-47272544D01*
X190808192Y-47272550D01*
X190807394Y-47278611D01*
X190825999Y-47447135D01*
X190884266Y-47606356D01*
X190887678Y-47611434D01*
X190887679Y-47611435D01*
X190960751Y-47720178D01*
X190978830Y-47747083D01*
X191104233Y-47861191D01*
X191109606Y-47864108D01*
X191109607Y-47864109D01*
X191247855Y-47939171D01*
X191253235Y-47942092D01*
X191417233Y-47985116D01*
X191452020Y-47985662D01*
X191572345Y-47987553D01*
X191631693Y-48007872D01*
X191642521Y-48017269D01*
X191649780Y-48024528D01*
X191656900Y-48028156D01*
X191656903Y-48028158D01*
X191672871Y-48036294D01*
X191686451Y-48044616D01*
X191700953Y-48055152D01*
X191700956Y-48055154D01*
X191707419Y-48059849D01*
X191732071Y-48067859D01*
X191746775Y-48073950D01*
X191769874Y-48085719D01*
X191795485Y-48089775D01*
X191810949Y-48093488D01*
X191835607Y-48101500D01*
X194202616Y-48101500D01*
X194262276Y-48120885D01*
X194277114Y-48134529D01*
X194278830Y-48137083D01*
X194283351Y-48141197D01*
X194283353Y-48141199D01*
X194345776Y-48197999D01*
X194404233Y-48251191D01*
X194409606Y-48254108D01*
X194409607Y-48254109D01*
X194525687Y-48317135D01*
X194553235Y-48332092D01*
X194717233Y-48375116D01*
X194787476Y-48376219D01*
X194880639Y-48377683D01*
X194880640Y-48377683D01*
X194886760Y-48377779D01*
X194978425Y-48356785D01*
X195046066Y-48341294D01*
X195046068Y-48341293D01*
X195052029Y-48339928D01*
X195135970Y-48297710D01*
X195198035Y-48266495D01*
X195198037Y-48266493D01*
X195203498Y-48263747D01*
X195332423Y-48153634D01*
X195392286Y-48070326D01*
X195427790Y-48020917D01*
X195427791Y-48020915D01*
X195431361Y-48015947D01*
X195494601Y-47858634D01*
X195497881Y-47835591D01*
X195518020Y-47694081D01*
X195518020Y-47694080D01*
X195518490Y-47690778D01*
X195518645Y-47676000D01*
X195516018Y-47654287D01*
X195506238Y-47573476D01*
X195498276Y-47507680D01*
X195438345Y-47349077D01*
X195385745Y-47272544D01*
X195345777Y-47214390D01*
X195345775Y-47214388D01*
X195342312Y-47209349D01*
X195337749Y-47205284D01*
X195337746Y-47205280D01*
X195246238Y-47123750D01*
X195215721Y-47096560D01*
X195117446Y-47044526D01*
X195071289Y-47020087D01*
X195071286Y-47020086D01*
X195065881Y-47017224D01*
X195059950Y-47015734D01*
X195059947Y-47015733D01*
X194972500Y-46993768D01*
X194901441Y-46975919D01*
X194854522Y-46975673D01*
X194738014Y-46975063D01*
X194731895Y-46975031D01*
X194725944Y-46976460D01*
X194725942Y-46976460D01*
X194572982Y-47013183D01*
X194572978Y-47013184D01*
X194567032Y-47014612D01*
X194561598Y-47017416D01*
X194561597Y-47017417D01*
X194425109Y-47087864D01*
X194416369Y-47092375D01*
X194411757Y-47096398D01*
X194411756Y-47096399D01*
X194293216Y-47199807D01*
X194293213Y-47199810D01*
X194288604Y-47203831D01*
X194285086Y-47208837D01*
X194280990Y-47213386D01*
X194279677Y-47212204D01*
X194235950Y-47245030D01*
X194203079Y-47250500D01*
X192304307Y-47250500D01*
X192244647Y-47231115D01*
X192207775Y-47180365D01*
X192203542Y-47161194D01*
X192199011Y-47123750D01*
X192199010Y-47123746D01*
X192198276Y-47117680D01*
X192138345Y-46959077D01*
X192134880Y-46954035D01*
X192045777Y-46824390D01*
X192045775Y-46824388D01*
X192042312Y-46819349D01*
X192037749Y-46815284D01*
X192037746Y-46815280D01*
X191970049Y-46754965D01*
X191915721Y-46706560D01*
X191853505Y-46673618D01*
X191771289Y-46630087D01*
X191771286Y-46630086D01*
X191765881Y-46627224D01*
X191759950Y-46625734D01*
X191759947Y-46625733D01*
X191684048Y-46606669D01*
X191601441Y-46585919D01*
X191583039Y-46585823D01*
X191455413Y-46585154D01*
X191395855Y-46565457D01*
X191384174Y-46555426D01*
X189716220Y-44887472D01*
X189709100Y-44883844D01*
X189709097Y-44883842D01*
X189693129Y-44875706D01*
X189679549Y-44867384D01*
X189665047Y-44856848D01*
X189665044Y-44856846D01*
X189658581Y-44852151D01*
X189633927Y-44844140D01*
X189619225Y-44838050D01*
X189596126Y-44826281D01*
X189570515Y-44822225D01*
X189555051Y-44818512D01*
X189530393Y-44810500D01*
X188163441Y-44810500D01*
X188103781Y-44791115D01*
X188087305Y-44776124D01*
X188085777Y-44774391D01*
X188082312Y-44769349D01*
X187955721Y-44656560D01*
X187893505Y-44623618D01*
X187811289Y-44580087D01*
X187811286Y-44580086D01*
X187805881Y-44577224D01*
X187799950Y-44575734D01*
X187799947Y-44575733D01*
X187724048Y-44556669D01*
X187641441Y-44535919D01*
X187594522Y-44535673D01*
X187478014Y-44535063D01*
X187471895Y-44535031D01*
X187465944Y-44536460D01*
X187465942Y-44536460D01*
X187312982Y-44573183D01*
X187312978Y-44573184D01*
X187307032Y-44574612D01*
X187156369Y-44652375D01*
X187151757Y-44656398D01*
X187151756Y-44656399D01*
X187033216Y-44759807D01*
X187033213Y-44759810D01*
X187028604Y-44763831D01*
X186931113Y-44902547D01*
X186928891Y-44908246D01*
X186878525Y-45037428D01*
X186869524Y-45060513D01*
X186847394Y-45228611D01*
X183138500Y-45228611D01*
X183138500Y-44366111D01*
X190509894Y-44366111D01*
X190528499Y-44534635D01*
X190586766Y-44693856D01*
X190590179Y-44698935D01*
X190674913Y-44825033D01*
X190681330Y-44834583D01*
X190806733Y-44948691D01*
X190812106Y-44951608D01*
X190812107Y-44951609D01*
X190950355Y-45026671D01*
X190955735Y-45029592D01*
X191119733Y-45072616D01*
X191189976Y-45073719D01*
X191283139Y-45075183D01*
X191283140Y-45075183D01*
X191289260Y-45075279D01*
X191380925Y-45054285D01*
X191448566Y-45038794D01*
X191448568Y-45038793D01*
X191454529Y-45037428D01*
X191529738Y-44999602D01*
X191600535Y-44963995D01*
X191600537Y-44963993D01*
X191605998Y-44961247D01*
X191734923Y-44851134D01*
X191742010Y-44841271D01*
X191792565Y-44804134D01*
X191824437Y-44799000D01*
X194742893Y-44799000D01*
X194750775Y-44796439D01*
X194751141Y-44796428D01*
X194758379Y-44795282D01*
X194758527Y-44796216D01*
X194807892Y-44794795D01*
X194841319Y-44803565D01*
X194841323Y-44803566D01*
X194847233Y-44805116D01*
X194878420Y-44805606D01*
X195002345Y-44807553D01*
X195061694Y-44827872D01*
X195072522Y-44837269D01*
X196637771Y-46402518D01*
X196666250Y-46458411D01*
X196667500Y-46474289D01*
X196667500Y-48877710D01*
X196648115Y-48937370D01*
X196637771Y-48949481D01*
X195136231Y-50451021D01*
X195080338Y-50479500D01*
X195063932Y-50480749D01*
X194951872Y-50480162D01*
X194933014Y-50480063D01*
X194926895Y-50480031D01*
X194920944Y-50481460D01*
X194920942Y-50481460D01*
X194767982Y-50518183D01*
X194767978Y-50518184D01*
X194762032Y-50519612D01*
X194611369Y-50597375D01*
X194606757Y-50601398D01*
X194606756Y-50601399D01*
X194488216Y-50704807D01*
X194488213Y-50704810D01*
X194483604Y-50708831D01*
X194415340Y-50805960D01*
X194391953Y-50839238D01*
X194386113Y-50847547D01*
X194383891Y-50853246D01*
X194345879Y-50950742D01*
X194324524Y-51005513D01*
X194302394Y-51173611D01*
X194320999Y-51342135D01*
X194379266Y-51501356D01*
X194382679Y-51506435D01*
X194463457Y-51626646D01*
X194473830Y-51642083D01*
X194599233Y-51756191D01*
X194604606Y-51759108D01*
X194604607Y-51759109D01*
X194714420Y-51818732D01*
X194748235Y-51837092D01*
X194912233Y-51880116D01*
X194982476Y-51881219D01*
X195075639Y-51882683D01*
X195075640Y-51882683D01*
X195081760Y-51882779D01*
X195173425Y-51861785D01*
X195241066Y-51846294D01*
X195241068Y-51846293D01*
X195247029Y-51844928D01*
X195322858Y-51806790D01*
X195393035Y-51771495D01*
X195393037Y-51771493D01*
X195398498Y-51768747D01*
X195505412Y-51677433D01*
X195522769Y-51662609D01*
X195527423Y-51658634D01*
X195626361Y-51520947D01*
X195689601Y-51363634D01*
X195691915Y-51347379D01*
X195713020Y-51199081D01*
X195713020Y-51199080D01*
X195713490Y-51195778D01*
X195713645Y-51181000D01*
X195713187Y-51177211D01*
X195711286Y-51161504D01*
X195708363Y-51137356D01*
X195720440Y-51075800D01*
X195737357Y-51053391D01*
X197441528Y-49349220D01*
X197445156Y-49342100D01*
X197445158Y-49342097D01*
X197453294Y-49326129D01*
X197461616Y-49312549D01*
X197472152Y-49298047D01*
X197472154Y-49298044D01*
X197476849Y-49291581D01*
X197484860Y-49266927D01*
X197490950Y-49252225D01*
X197502719Y-49229126D01*
X197506775Y-49203515D01*
X197510488Y-49188051D01*
X197518500Y-49163393D01*
X197518500Y-48770211D01*
X200751994Y-48770211D01*
X200770599Y-48938735D01*
X200828866Y-49097956D01*
X200838214Y-49111868D01*
X200919606Y-49232992D01*
X200923430Y-49238683D01*
X201048833Y-49352791D01*
X201054206Y-49355708D01*
X201054207Y-49355709D01*
X201151820Y-49408708D01*
X201197835Y-49433692D01*
X201361833Y-49476716D01*
X201432076Y-49477819D01*
X201525239Y-49479283D01*
X201525240Y-49479283D01*
X201531360Y-49479379D01*
X201653595Y-49451384D01*
X201690666Y-49442894D01*
X201690668Y-49442893D01*
X201696629Y-49441528D01*
X201783386Y-49397894D01*
X201842635Y-49368095D01*
X201842637Y-49368093D01*
X201848098Y-49365347D01*
X201977023Y-49255234D01*
X202040630Y-49166716D01*
X202072390Y-49122517D01*
X202072391Y-49122515D01*
X202075961Y-49117547D01*
X202139201Y-48960234D01*
X202141507Y-48944035D01*
X202162620Y-48795681D01*
X202162620Y-48795680D01*
X202163090Y-48792378D01*
X202163245Y-48777600D01*
X202161618Y-48764150D01*
X202153092Y-48693699D01*
X202142876Y-48609280D01*
X202082945Y-48450677D01*
X202078457Y-48444147D01*
X201990377Y-48315990D01*
X201990375Y-48315988D01*
X201986912Y-48310949D01*
X201982349Y-48306884D01*
X201982346Y-48306880D01*
X201914649Y-48246565D01*
X201860321Y-48198160D01*
X201783733Y-48157609D01*
X201715889Y-48121687D01*
X201715886Y-48121686D01*
X201710481Y-48118824D01*
X201704550Y-48117334D01*
X201704547Y-48117333D01*
X201609627Y-48093491D01*
X201546041Y-48077519D01*
X201499122Y-48077273D01*
X201382614Y-48076663D01*
X201376495Y-48076631D01*
X201370544Y-48078060D01*
X201370542Y-48078060D01*
X201217582Y-48114783D01*
X201217578Y-48114784D01*
X201211632Y-48116212D01*
X201206198Y-48119016D01*
X201206197Y-48119017D01*
X201099513Y-48174081D01*
X201060969Y-48193975D01*
X201056357Y-48197998D01*
X201056356Y-48197999D01*
X200937816Y-48301407D01*
X200937813Y-48301410D01*
X200933204Y-48305431D01*
X200835713Y-48444147D01*
X200833491Y-48449846D01*
X200783316Y-48578538D01*
X200774124Y-48602113D01*
X200751994Y-48770211D01*
X197518500Y-48770211D01*
X197518500Y-47411943D01*
X210774844Y-47411943D01*
X210775039Y-47413171D01*
X210779282Y-47418162D01*
X210892185Y-47500946D01*
X210898550Y-47504923D01*
X211129703Y-47626538D01*
X211136598Y-47629536D01*
X211383192Y-47715651D01*
X211390438Y-47717592D01*
X211647053Y-47766312D01*
X211654521Y-47767163D01*
X211915518Y-47777418D01*
X211923013Y-47777157D01*
X212182662Y-47748720D01*
X212190051Y-47747350D01*
X212442626Y-47680852D01*
X212449749Y-47678400D01*
X212689724Y-47575299D01*
X212696379Y-47571835D01*
X212918501Y-47434381D01*
X212924564Y-47429976D01*
X212932118Y-47423581D01*
X212939312Y-47411955D01*
X212939079Y-47408817D01*
X212937238Y-47406048D01*
X211867368Y-46336178D01*
X211855182Y-46329969D01*
X211850024Y-46330786D01*
X210781053Y-47399757D01*
X210774844Y-47411943D01*
X197518500Y-47411943D01*
X197518500Y-46188607D01*
X197510488Y-46163949D01*
X197506775Y-46148485D01*
X197502719Y-46122874D01*
X197490950Y-46099775D01*
X197484859Y-46085071D01*
X197476849Y-46060419D01*
X197461614Y-46039451D01*
X197453297Y-46025877D01*
X197445158Y-46009902D01*
X197445154Y-46009897D01*
X197441528Y-46002780D01*
X197360649Y-45921901D01*
X210043732Y-45921901D01*
X210056263Y-46182790D01*
X210057179Y-46190252D01*
X210108137Y-46446430D01*
X210110145Y-46453670D01*
X210198404Y-46699493D01*
X210201462Y-46706362D01*
X210325087Y-46936439D01*
X210329128Y-46942784D01*
X210400940Y-47038950D01*
X210412108Y-47046843D01*
X210413591Y-47046823D01*
X210418816Y-47043574D01*
X211485422Y-45976968D01*
X211490797Y-45966418D01*
X212220369Y-45966418D01*
X212221186Y-45971576D01*
X213293538Y-47043928D01*
X213305496Y-47050021D01*
X213312196Y-47043962D01*
X213447319Y-46833891D01*
X213450903Y-46827290D01*
X213558181Y-46589140D01*
X213560751Y-46582078D01*
X213631651Y-46330687D01*
X213633146Y-46323342D01*
X213666264Y-46063014D01*
X213666652Y-46057937D01*
X213669003Y-45968152D01*
X213668881Y-45963058D01*
X213649434Y-45701370D01*
X213648323Y-45693933D01*
X213590677Y-45439179D01*
X213588484Y-45432005D01*
X213493816Y-45188565D01*
X213490580Y-45181780D01*
X213360974Y-44955017D01*
X213356771Y-44948785D01*
X213311733Y-44891656D01*
X213300362Y-44884058D01*
X213298166Y-44884144D01*
X213293997Y-44886813D01*
X212226578Y-45954232D01*
X212220369Y-45966418D01*
X211490797Y-45966418D01*
X211491631Y-45964782D01*
X211490814Y-45959624D01*
X210420372Y-44889182D01*
X210408186Y-44882973D01*
X210405313Y-44883428D01*
X210402397Y-44885759D01*
X210382366Y-44909842D01*
X210377994Y-44915972D01*
X210242501Y-45139257D01*
X210239083Y-45145964D01*
X210138080Y-45386830D01*
X210135696Y-45393953D01*
X210071401Y-45647117D01*
X210070098Y-45654510D01*
X210043928Y-45914391D01*
X210043732Y-45921901D01*
X197360649Y-45921901D01*
X197346220Y-45907472D01*
X197346218Y-45907471D01*
X196509811Y-45071064D01*
X195957990Y-44519242D01*
X210772045Y-44519242D01*
X210776460Y-44526850D01*
X211844632Y-45595022D01*
X211856818Y-45601231D01*
X211861976Y-45600414D01*
X212931793Y-44530597D01*
X212938002Y-44518411D01*
X212937920Y-44517893D01*
X212932828Y-44512061D01*
X212779298Y-44405553D01*
X212772826Y-44401741D01*
X212538561Y-44286215D01*
X212531604Y-44283404D01*
X212282845Y-44203775D01*
X212275530Y-44202019D01*
X212017741Y-44160035D01*
X212010247Y-44159380D01*
X211749086Y-44155961D01*
X211741581Y-44156420D01*
X211482774Y-44191642D01*
X211475426Y-44193204D01*
X211224664Y-44266295D01*
X211217634Y-44268923D01*
X210980423Y-44378278D01*
X210973857Y-44381917D01*
X210780533Y-44508667D01*
X210772045Y-44519242D01*
X195957990Y-44519242D01*
X195673268Y-44234520D01*
X195644789Y-44178627D01*
X195644552Y-44148447D01*
X195648020Y-44124079D01*
X195648490Y-44120778D01*
X195648645Y-44106000D01*
X195647188Y-44093955D01*
X195639480Y-44030268D01*
X195628276Y-43937680D01*
X195568345Y-43779077D01*
X195563857Y-43772547D01*
X195475777Y-43644390D01*
X195475775Y-43644388D01*
X195472312Y-43639349D01*
X195467749Y-43635284D01*
X195467746Y-43635280D01*
X195400049Y-43574965D01*
X195345721Y-43526560D01*
X195283505Y-43493618D01*
X195201289Y-43450087D01*
X195201286Y-43450086D01*
X195195881Y-43447224D01*
X195189950Y-43445734D01*
X195189947Y-43445733D01*
X195114048Y-43426669D01*
X195031441Y-43405919D01*
X194984522Y-43405673D01*
X194868014Y-43405063D01*
X194861895Y-43405031D01*
X194855944Y-43406460D01*
X194855942Y-43406460D01*
X194702982Y-43443183D01*
X194702978Y-43443184D01*
X194697032Y-43444612D01*
X194546369Y-43522375D01*
X194541757Y-43526398D01*
X194541756Y-43526399D01*
X194423216Y-43629807D01*
X194423213Y-43629810D01*
X194418604Y-43633831D01*
X194321113Y-43772547D01*
X194318891Y-43778247D01*
X194318889Y-43778250D01*
X194277903Y-43883371D01*
X194238171Y-43931914D01*
X194183337Y-43948000D01*
X191825941Y-43948000D01*
X191766281Y-43928615D01*
X191749805Y-43913624D01*
X191748277Y-43911891D01*
X191744812Y-43906849D01*
X191618221Y-43794060D01*
X191556005Y-43761118D01*
X191473789Y-43717587D01*
X191473786Y-43717586D01*
X191468381Y-43714724D01*
X191462450Y-43713234D01*
X191462447Y-43713233D01*
X191380701Y-43692700D01*
X191303941Y-43673419D01*
X191257022Y-43673173D01*
X191140514Y-43672563D01*
X191134395Y-43672531D01*
X191128444Y-43673960D01*
X191128442Y-43673960D01*
X190975482Y-43710683D01*
X190975478Y-43710684D01*
X190969532Y-43712112D01*
X190964098Y-43714916D01*
X190964097Y-43714917D01*
X190828704Y-43784799D01*
X190818869Y-43789875D01*
X190814257Y-43793898D01*
X190814256Y-43793899D01*
X190695716Y-43897307D01*
X190695713Y-43897310D01*
X190691104Y-43901331D01*
X190593613Y-44040047D01*
X190591391Y-44045746D01*
X190547087Y-44159380D01*
X190532024Y-44198013D01*
X190509894Y-44366111D01*
X183138500Y-44366111D01*
X183138500Y-44300644D01*
X183157885Y-44240984D01*
X183174081Y-44223463D01*
X183227769Y-44177609D01*
X183232423Y-44173634D01*
X183292284Y-44090328D01*
X183327790Y-44040917D01*
X183327791Y-44040915D01*
X183331361Y-44035947D01*
X183394601Y-43878634D01*
X183406638Y-43794060D01*
X183418020Y-43714081D01*
X183418020Y-43714080D01*
X183418490Y-43710778D01*
X183418645Y-43696000D01*
X183415913Y-43673419D01*
X183410635Y-43629807D01*
X183398276Y-43527680D01*
X183338345Y-43369077D01*
X183334880Y-43364035D01*
X183245777Y-43234390D01*
X183245775Y-43234388D01*
X183242312Y-43229349D01*
X183237749Y-43225284D01*
X183237746Y-43225280D01*
X183170049Y-43164965D01*
X183115721Y-43116560D01*
X183053505Y-43083618D01*
X182971289Y-43040087D01*
X182971286Y-43040086D01*
X182965881Y-43037224D01*
X182959950Y-43035734D01*
X182959947Y-43035733D01*
X182884048Y-43016669D01*
X182801441Y-42995919D01*
X182754522Y-42995673D01*
X182638014Y-42995063D01*
X182631895Y-42995031D01*
X182625944Y-42996460D01*
X182625942Y-42996460D01*
X182472982Y-43033183D01*
X182472978Y-43033184D01*
X182467032Y-43034612D01*
X182316369Y-43112375D01*
X182311757Y-43116398D01*
X182311756Y-43116399D01*
X182193216Y-43219807D01*
X182193213Y-43219810D01*
X182188604Y-43223831D01*
X182185086Y-43228837D01*
X182180990Y-43233386D01*
X182179677Y-43232204D01*
X182135950Y-43265030D01*
X182103079Y-43270500D01*
X178211290Y-43270500D01*
X178151630Y-43251115D01*
X178139519Y-43240771D01*
X176903268Y-42004520D01*
X176874789Y-41948627D01*
X176874552Y-41918447D01*
X176878020Y-41894079D01*
X176878490Y-41890778D01*
X176878645Y-41876000D01*
X176877018Y-41862550D01*
X176868716Y-41793951D01*
X176858276Y-41707680D01*
X176798345Y-41549077D01*
X176793857Y-41542547D01*
X176705777Y-41414390D01*
X176705775Y-41414388D01*
X176702312Y-41409349D01*
X176697749Y-41405284D01*
X176697746Y-41405280D01*
X176630049Y-41344965D01*
X176575721Y-41296560D01*
X176510773Y-41262172D01*
X176431289Y-41220087D01*
X176431286Y-41220086D01*
X176425881Y-41217224D01*
X176419950Y-41215734D01*
X176419947Y-41215733D01*
X176344048Y-41196669D01*
X176261441Y-41175919D01*
X176214522Y-41175673D01*
X176098014Y-41175063D01*
X176091895Y-41175031D01*
X176085944Y-41176460D01*
X176085942Y-41176460D01*
X175932982Y-41213183D01*
X175932978Y-41213184D01*
X175927032Y-41214612D01*
X175921598Y-41217416D01*
X175921597Y-41217417D01*
X175815109Y-41272380D01*
X175776369Y-41292375D01*
X175771757Y-41296398D01*
X175771756Y-41296399D01*
X175653216Y-41399807D01*
X175653213Y-41399810D01*
X175648604Y-41403831D01*
X175551113Y-41542547D01*
X175548891Y-41548246D01*
X175520423Y-41621263D01*
X175489524Y-41700513D01*
X175467394Y-41868611D01*
X173767696Y-41868611D01*
X173792379Y-41799293D01*
X173792379Y-41799291D01*
X173794281Y-41793951D01*
X173815545Y-41615624D01*
X173796773Y-41437017D01*
X173738897Y-41267007D01*
X173644794Y-41114045D01*
X173634985Y-41104028D01*
X173523110Y-40989785D01*
X173519141Y-40985732D01*
X173368183Y-40888446D01*
X173304181Y-40865151D01*
X173204753Y-40828962D01*
X173204750Y-40828961D01*
X173199422Y-40827022D01*
X173193796Y-40826311D01*
X173193795Y-40826311D01*
X173135642Y-40818965D01*
X173060717Y-40809500D01*
X164138921Y-40809500D01*
X164137858Y-40809494D01*
X164054273Y-40808618D01*
X164054269Y-40808618D01*
X164048593Y-40808559D01*
X164043045Y-40809759D01*
X164043040Y-40809759D01*
X164005481Y-40817879D01*
X163995350Y-40819538D01*
X163972352Y-40822118D01*
X163951528Y-40824454D01*
X163946174Y-40826318D01*
X163946167Y-40826320D01*
X163918834Y-40835838D01*
X163906908Y-40839191D01*
X163873058Y-40846510D01*
X163860603Y-40852318D01*
X163833082Y-40865151D01*
X163823565Y-40869015D01*
X163781927Y-40883515D01*
X163777113Y-40886523D01*
X163777107Y-40886526D01*
X163752564Y-40901863D01*
X163741680Y-40907773D01*
X163710293Y-40922409D01*
X163705815Y-40925883D01*
X163705811Y-40925885D01*
X163675448Y-40949438D01*
X163667023Y-40955315D01*
X163634437Y-40975676D01*
X163634430Y-40975681D01*
X163629625Y-40978684D01*
X163625605Y-40982676D01*
X163625600Y-40982680D01*
X163601171Y-41006939D01*
X163600463Y-41007602D01*
X163599824Y-41008098D01*
X163573963Y-41033959D01*
X163502193Y-41105230D01*
X163501557Y-41106233D01*
X163500396Y-41107526D01*
X157428354Y-47179568D01*
X157427600Y-47180315D01*
X157363732Y-47242859D01*
X157360658Y-47247629D01*
X157339841Y-47279931D01*
X157333847Y-47288272D01*
X157319787Y-47305885D01*
X157306336Y-47322734D01*
X157291265Y-47353911D01*
X157285204Y-47364710D01*
X157266446Y-47393817D01*
X157264506Y-47399147D01*
X157264503Y-47399153D01*
X157251360Y-47435261D01*
X157247365Y-47444720D01*
X157238015Y-47464063D01*
X157228173Y-47484422D01*
X157220381Y-47518170D01*
X157216869Y-47530029D01*
X157205022Y-47562578D01*
X157204311Y-47568208D01*
X157199494Y-47606334D01*
X157197693Y-47616443D01*
X157193045Y-47636579D01*
X157187774Y-47659411D01*
X157187708Y-47678400D01*
X157187634Y-47699489D01*
X157187601Y-47700479D01*
X157187500Y-47701283D01*
X157187500Y-47737892D01*
X157187147Y-47839000D01*
X157187407Y-47840161D01*
X157187500Y-47841886D01*
X157187500Y-49163674D01*
X157168115Y-49223334D01*
X157156468Y-49236101D01*
X157156583Y-49236210D01*
X157153374Y-49239592D01*
X157149881Y-49242655D01*
X157147006Y-49246302D01*
X157147004Y-49246304D01*
X157029185Y-49395758D01*
X157018976Y-49408708D01*
X157016812Y-49412820D01*
X157016810Y-49412824D01*
X156984012Y-49475164D01*
X156920523Y-49595836D01*
X156857820Y-49797773D01*
X156851498Y-49851191D01*
X156836677Y-49976412D01*
X156832967Y-50007754D01*
X156598500Y-50007754D01*
X156598500Y-49143354D01*
X156595382Y-49117154D01*
X156591174Y-49107680D01*
X156553743Y-49023410D01*
X156553742Y-49023408D01*
X156549939Y-49014847D01*
X156543309Y-49008229D01*
X156543308Y-49008227D01*
X156477346Y-48942380D01*
X156477345Y-48942379D01*
X156470713Y-48935759D01*
X156368327Y-48890494D01*
X156352455Y-48888644D01*
X156345573Y-48887841D01*
X156345569Y-48887841D01*
X156342646Y-48887500D01*
X154553354Y-48887500D01*
X154527154Y-48890618D01*
X154520201Y-48893707D01*
X154520199Y-48893707D01*
X154433410Y-48932257D01*
X154433408Y-48932258D01*
X154424847Y-48936061D01*
X154418229Y-48942691D01*
X154418227Y-48942692D01*
X154352529Y-49008505D01*
X154345759Y-49015287D01*
X154300494Y-49117673D01*
X154297500Y-49143354D01*
X154297500Y-50125533D01*
X154278115Y-50185193D01*
X154267771Y-50197304D01*
X152685305Y-51779771D01*
X152629412Y-51808250D01*
X152613534Y-51809500D01*
X148464492Y-51809500D01*
X148460242Y-51809411D01*
X148457451Y-51809294D01*
X148397706Y-51806790D01*
X148390970Y-51808370D01*
X148354221Y-51816989D01*
X148344820Y-51818732D01*
X148307422Y-51823855D01*
X148307421Y-51823855D01*
X148300568Y-51824794D01*
X148288382Y-51830067D01*
X148284759Y-51831635D01*
X148267630Y-51837300D01*
X148250864Y-51841232D01*
X148211719Y-51862752D01*
X148203133Y-51866958D01*
X148162145Y-51884695D01*
X148156768Y-51889049D01*
X148148762Y-51895532D01*
X148133791Y-51905592D01*
X148118692Y-51913893D01*
X148110578Y-51920897D01*
X148085131Y-51946344D01*
X148077236Y-51953453D01*
X148044930Y-51979614D01*
X148040920Y-51985257D01*
X148032843Y-51996622D01*
X148021879Y-52009596D01*
X142761002Y-57270474D01*
X142757935Y-57273417D01*
X142711844Y-57315799D01*
X142708198Y-57321680D01*
X142708196Y-57321682D01*
X142688306Y-57353762D01*
X142682890Y-57361643D01*
X142655888Y-57397217D01*
X142653341Y-57403650D01*
X142653340Y-57403652D01*
X142649547Y-57413231D01*
X142641443Y-57429346D01*
X142632365Y-57443986D01*
X142630390Y-57450785D01*
X142619903Y-57486881D01*
X142616805Y-57495928D01*
X142600364Y-57537453D01*
X142599641Y-57544335D01*
X142598564Y-57554579D01*
X142595091Y-57572282D01*
X142590285Y-57588825D01*
X142589500Y-57599515D01*
X142589500Y-57635503D01*
X142588944Y-57646112D01*
X142584599Y-57687454D01*
X142585753Y-57694275D01*
X142588079Y-57708029D01*
X142589500Y-57724956D01*
X142589500Y-65892873D01*
X142571042Y-65951236D01*
X142561048Y-65965457D01*
X142518113Y-66026547D01*
X142515891Y-66032246D01*
X142468071Y-66154898D01*
X142456524Y-66184513D01*
X142434394Y-66352611D01*
X134464096Y-66352611D01*
X134464489Y-51724396D01*
X134483875Y-51664738D01*
X134534626Y-51627867D01*
X134565989Y-51622900D01*
X145382578Y-51622900D01*
X145392480Y-51623384D01*
X145399167Y-51624039D01*
X145408168Y-51626646D01*
X145447045Y-51623279D01*
X145455803Y-51622900D01*
X145465948Y-51622900D01*
X145473691Y-51621458D01*
X145483518Y-51620120D01*
X145519696Y-51616987D01*
X145528117Y-51612871D01*
X145533573Y-51611358D01*
X145538841Y-51609325D01*
X145548053Y-51607609D01*
X145578971Y-51588551D01*
X145587656Y-51583767D01*
X145611851Y-51571940D01*
X145620269Y-51567825D01*
X145626641Y-51560956D01*
X145631179Y-51557586D01*
X145635370Y-51553786D01*
X145643348Y-51548868D01*
X145665333Y-51519956D01*
X145671702Y-51512380D01*
X145696401Y-51485754D01*
X145699873Y-51477052D01*
X145702892Y-51472276D01*
X145705435Y-51467219D01*
X145711108Y-51459759D01*
X145721207Y-51424884D01*
X145724428Y-51415502D01*
X145728979Y-51404096D01*
X145737883Y-51381778D01*
X145738500Y-51375485D01*
X145738500Y-51373736D01*
X145738756Y-51370242D01*
X145739639Y-51361235D01*
X145742246Y-51352232D01*
X145738879Y-51313355D01*
X145738500Y-51304597D01*
X145738500Y-47411943D01*
X154100844Y-47411943D01*
X154101039Y-47413171D01*
X154105282Y-47418162D01*
X154218185Y-47500946D01*
X154224550Y-47504923D01*
X154455703Y-47626538D01*
X154462598Y-47629536D01*
X154709192Y-47715651D01*
X154716438Y-47717592D01*
X154973053Y-47766312D01*
X154980521Y-47767163D01*
X155241518Y-47777418D01*
X155249013Y-47777157D01*
X155508662Y-47748720D01*
X155516051Y-47747350D01*
X155768626Y-47680852D01*
X155775749Y-47678400D01*
X156015724Y-47575299D01*
X156022379Y-47571835D01*
X156244501Y-47434381D01*
X156250564Y-47429976D01*
X156258118Y-47423581D01*
X156265312Y-47411955D01*
X156265079Y-47408817D01*
X156263238Y-47406048D01*
X155193368Y-46336178D01*
X155181182Y-46329969D01*
X155176024Y-46330786D01*
X154107053Y-47399757D01*
X154100844Y-47411943D01*
X145738500Y-47411943D01*
X145738500Y-45921901D01*
X153369732Y-45921901D01*
X153382263Y-46182790D01*
X153383179Y-46190252D01*
X153434137Y-46446430D01*
X153436145Y-46453670D01*
X153524404Y-46699493D01*
X153527462Y-46706362D01*
X153651087Y-46936439D01*
X153655128Y-46942784D01*
X153726940Y-47038950D01*
X153738108Y-47046843D01*
X153739591Y-47046823D01*
X153744816Y-47043574D01*
X154811422Y-45976968D01*
X154816797Y-45966418D01*
X155546369Y-45966418D01*
X155547186Y-45971576D01*
X156619538Y-47043928D01*
X156631496Y-47050021D01*
X156638196Y-47043962D01*
X156773319Y-46833891D01*
X156776903Y-46827290D01*
X156884181Y-46589140D01*
X156886751Y-46582078D01*
X156957651Y-46330687D01*
X156959146Y-46323342D01*
X156992264Y-46063014D01*
X156992652Y-46057937D01*
X156995003Y-45968152D01*
X156994881Y-45963058D01*
X156975434Y-45701370D01*
X156974323Y-45693933D01*
X156916677Y-45439179D01*
X156914484Y-45432005D01*
X156819816Y-45188565D01*
X156816580Y-45181780D01*
X156686974Y-44955017D01*
X156682771Y-44948785D01*
X156637733Y-44891656D01*
X156626362Y-44884058D01*
X156624166Y-44884144D01*
X156619997Y-44886813D01*
X155552578Y-45954232D01*
X155546369Y-45966418D01*
X154816797Y-45966418D01*
X154817631Y-45964782D01*
X154816814Y-45959624D01*
X153746372Y-44889182D01*
X153734186Y-44882973D01*
X153731313Y-44883428D01*
X153728397Y-44885759D01*
X153708366Y-44909842D01*
X153703994Y-44915972D01*
X153568501Y-45139257D01*
X153565083Y-45145964D01*
X153464080Y-45386830D01*
X153461696Y-45393953D01*
X153397401Y-45647117D01*
X153396098Y-45654510D01*
X153369928Y-45914391D01*
X153369732Y-45921901D01*
X145738500Y-45921901D01*
X145738500Y-44519242D01*
X154098045Y-44519242D01*
X154102460Y-44526850D01*
X155170632Y-45595022D01*
X155182818Y-45601231D01*
X155187976Y-45600414D01*
X156257793Y-44530597D01*
X156264002Y-44518411D01*
X156263920Y-44517893D01*
X156258828Y-44512061D01*
X156105298Y-44405553D01*
X156098826Y-44401741D01*
X155864561Y-44286215D01*
X155857604Y-44283404D01*
X155608845Y-44203775D01*
X155601530Y-44202019D01*
X155343741Y-44160035D01*
X155336247Y-44159380D01*
X155075086Y-44155961D01*
X155067581Y-44156420D01*
X154808774Y-44191642D01*
X154801426Y-44193204D01*
X154550664Y-44266295D01*
X154543634Y-44268923D01*
X154306423Y-44378278D01*
X154299857Y-44381917D01*
X154106533Y-44508667D01*
X154098045Y-44519242D01*
X145738500Y-44519242D01*
X145738500Y-41208800D01*
X145757885Y-41149140D01*
X145808635Y-41112268D01*
X145840000Y-41107300D01*
X156656578Y-41107300D01*
X156666480Y-41107784D01*
X156673167Y-41108439D01*
X156682168Y-41111046D01*
X156721045Y-41107679D01*
X156729803Y-41107300D01*
X156739948Y-41107300D01*
X156747691Y-41105858D01*
X156757518Y-41104520D01*
X156793696Y-41101387D01*
X156802117Y-41097271D01*
X156807573Y-41095758D01*
X156812841Y-41093725D01*
X156822053Y-41092009D01*
X156852971Y-41072951D01*
X156861656Y-41068167D01*
X156885851Y-41056340D01*
X156894269Y-41052225D01*
X156900641Y-41045356D01*
X156905179Y-41041986D01*
X156909370Y-41038186D01*
X156917348Y-41033268D01*
X156939333Y-41004356D01*
X156945702Y-40996780D01*
X156970401Y-40970154D01*
X156973873Y-40961452D01*
X156976892Y-40956676D01*
X156979435Y-40951619D01*
X156985108Y-40944159D01*
X156995207Y-40909284D01*
X156998428Y-40899902D01*
X157005711Y-40881647D01*
X157011883Y-40866178D01*
X157012500Y-40859885D01*
X157012500Y-40858136D01*
X157012756Y-40854642D01*
X157013639Y-40845635D01*
X157016246Y-40836632D01*
X157012879Y-40797755D01*
X157012500Y-40788997D01*
X157012500Y-40208800D01*
X157031885Y-40149140D01*
X157082635Y-40112268D01*
X157114000Y-40107300D01*
X208182000Y-40107300D01*
X208241660Y-40126685D01*
G37*
%TD.AperFunction*%
M02*
