%TF.GenerationSoftware,KiCad,Pcbnew,(6.0.4-0)*%
%TF.CreationDate,2022-05-09T11:38:03-07:00*%
%TF.ProjectId,solar-panel-side-X-minus,736f6c61-722d-4706-916e-656c2d736964,rev?*%
%TF.SameCoordinates,Original*%
%TF.FileFunction,Legend,Bot*%
%TF.FilePolarity,Positive*%
%FSLAX46Y46*%
G04 Gerber Fmt 4.6, Leading zero omitted, Abs format (unit mm)*
G04 Created by KiCad (PCBNEW (6.0.4-0)) date 2022-05-09 11:38:03*
%MOMM*%
%LPD*%
G01*
G04 APERTURE LIST*
G04 Aperture macros list*
%AMRoundRect*
0 Rectangle with rounded corners*
0 $1 Rounding radius*
0 $2 $3 $4 $5 $6 $7 $8 $9 X,Y pos of 4 corners*
0 Add a 4 corners polygon primitive as box body*
4,1,4,$2,$3,$4,$5,$6,$7,$8,$9,$2,$3,0*
0 Add four circle primitives for the rounded corners*
1,1,$1+$1,$2,$3*
1,1,$1+$1,$4,$5*
1,1,$1+$1,$6,$7*
1,1,$1+$1,$8,$9*
0 Add four rect primitives between the rounded corners*
20,1,$1+$1,$2,$3,$4,$5,0*
20,1,$1+$1,$4,$5,$6,$7,0*
20,1,$1+$1,$6,$7,$8,$9,0*
20,1,$1+$1,$8,$9,$2,$3,0*%
G04 Aperture macros list end*
%ADD10C,0.150000*%
%ADD11C,0.100000*%
%ADD12C,0.127000*%
%ADD13C,0.120000*%
%ADD14C,0.200000*%
%ADD15C,0.010000*%
%ADD16C,3.000000*%
%ADD17C,3.800000*%
%ADD18C,2.600000*%
%ADD19RoundRect,0.218750X0.256250X-0.218750X0.256250X0.218750X-0.256250X0.218750X-0.256250X-0.218750X0*%
%ADD20RoundRect,0.218750X-0.256250X0.218750X-0.256250X-0.218750X0.256250X-0.218750X0.256250X0.218750X0*%
%ADD21R,0.600000X0.400000*%
%ADD22R,0.650000X0.400000*%
G04 APERTURE END LIST*
D10*
X116585904Y-56904000D02*
X116681142Y-56856380D01*
X116824000Y-56856380D01*
X116966857Y-56904000D01*
X117062095Y-56999238D01*
X117109714Y-57094476D01*
X117157333Y-57284952D01*
X117157333Y-57427809D01*
X117109714Y-57618285D01*
X117062095Y-57713523D01*
X116966857Y-57808761D01*
X116824000Y-57856380D01*
X116728761Y-57856380D01*
X116585904Y-57808761D01*
X116538285Y-57761142D01*
X116538285Y-57427809D01*
X116728761Y-57427809D01*
X116109714Y-57856380D02*
X116109714Y-56856380D01*
X115538285Y-57856380D01*
X115538285Y-56856380D01*
X115062095Y-57856380D02*
X115062095Y-56856380D01*
X114824000Y-56856380D01*
X114681142Y-56904000D01*
X114585904Y-56999238D01*
X114538285Y-57094476D01*
X114490666Y-57284952D01*
X114490666Y-57427809D01*
X114538285Y-57618285D01*
X114585904Y-57713523D01*
X114681142Y-57808761D01*
X114824000Y-57856380D01*
X115062095Y-57856380D01*
D11*
X143178571Y-71624285D02*
X143107142Y-71648095D01*
X143083333Y-71671904D01*
X143059523Y-71719523D01*
X143059523Y-71790952D01*
X143083333Y-71838571D01*
X143107142Y-71862380D01*
X143154761Y-71886190D01*
X143345238Y-71886190D01*
X143345238Y-71386190D01*
X143178571Y-71386190D01*
X143130952Y-71410000D01*
X143107142Y-71433809D01*
X143083333Y-71481428D01*
X143083333Y-71529047D01*
X143107142Y-71576666D01*
X143130952Y-71600476D01*
X143178571Y-71624285D01*
X143345238Y-71624285D01*
X142750000Y-71648095D02*
X142750000Y-71886190D01*
X142916666Y-71386190D02*
X142750000Y-71648095D01*
X142583333Y-71386190D01*
X142416666Y-71886190D02*
X142416666Y-71386190D01*
X142226190Y-71386190D01*
X142178571Y-71410000D01*
X142154761Y-71433809D01*
X142130952Y-71481428D01*
X142130952Y-71552857D01*
X142154761Y-71600476D01*
X142178571Y-71624285D01*
X142226190Y-71648095D01*
X142416666Y-71648095D01*
D10*
X117014476Y-61872761D02*
X116871619Y-61920380D01*
X116633523Y-61920380D01*
X116538285Y-61872761D01*
X116490666Y-61825142D01*
X116443047Y-61729904D01*
X116443047Y-61634666D01*
X116490666Y-61539428D01*
X116538285Y-61491809D01*
X116633523Y-61444190D01*
X116824000Y-61396571D01*
X116919238Y-61348952D01*
X116966857Y-61301333D01*
X117014476Y-61206095D01*
X117014476Y-61110857D01*
X116966857Y-61015619D01*
X116919238Y-60968000D01*
X116824000Y-60920380D01*
X116585904Y-60920380D01*
X116443047Y-60968000D01*
X115443047Y-61825142D02*
X115490666Y-61872761D01*
X115633523Y-61920380D01*
X115728761Y-61920380D01*
X115871619Y-61872761D01*
X115966857Y-61777523D01*
X116014476Y-61682285D01*
X116062095Y-61491809D01*
X116062095Y-61348952D01*
X116014476Y-61158476D01*
X115966857Y-61063238D01*
X115871619Y-60968000D01*
X115728761Y-60920380D01*
X115633523Y-60920380D01*
X115490666Y-60968000D01*
X115443047Y-61015619D01*
X114538285Y-61920380D02*
X115014476Y-61920380D01*
X115014476Y-60920380D01*
X117347714Y-52792380D02*
X117014380Y-53792380D01*
X116681047Y-52792380D01*
X116395333Y-53744761D02*
X116252476Y-53792380D01*
X116014380Y-53792380D01*
X115919142Y-53744761D01*
X115871523Y-53697142D01*
X115823904Y-53601904D01*
X115823904Y-53506666D01*
X115871523Y-53411428D01*
X115919142Y-53363809D01*
X116014380Y-53316190D01*
X116204857Y-53268571D01*
X116300095Y-53220952D01*
X116347714Y-53173333D01*
X116395333Y-53078095D01*
X116395333Y-52982857D01*
X116347714Y-52887619D01*
X116300095Y-52840000D01*
X116204857Y-52792380D01*
X115966761Y-52792380D01*
X115823904Y-52840000D01*
X115252476Y-53792380D02*
X115347714Y-53744761D01*
X115395333Y-53697142D01*
X115442952Y-53601904D01*
X115442952Y-53316190D01*
X115395333Y-53220952D01*
X115347714Y-53173333D01*
X115252476Y-53125714D01*
X115109619Y-53125714D01*
X115014380Y-53173333D01*
X114966761Y-53220952D01*
X114919142Y-53316190D01*
X114919142Y-53601904D01*
X114966761Y-53697142D01*
X115014380Y-53744761D01*
X115109619Y-53792380D01*
X115252476Y-53792380D01*
X114347714Y-53792380D02*
X114442952Y-53744761D01*
X114490571Y-53649523D01*
X114490571Y-52792380D01*
X113538190Y-53792380D02*
X113538190Y-53268571D01*
X113585809Y-53173333D01*
X113681047Y-53125714D01*
X113871523Y-53125714D01*
X113966761Y-53173333D01*
X113538190Y-53744761D02*
X113633428Y-53792380D01*
X113871523Y-53792380D01*
X113966761Y-53744761D01*
X114014380Y-53649523D01*
X114014380Y-53554285D01*
X113966761Y-53459047D01*
X113871523Y-53411428D01*
X113633428Y-53411428D01*
X113538190Y-53363809D01*
X113061999Y-53792380D02*
X113061999Y-53125714D01*
X113061999Y-53316190D02*
X113014380Y-53220952D01*
X112966761Y-53173333D01*
X112871523Y-53125714D01*
X112776285Y-53125714D01*
X117038285Y-59840761D02*
X116895428Y-59888380D01*
X116657333Y-59888380D01*
X116562095Y-59840761D01*
X116514476Y-59793142D01*
X116466857Y-59697904D01*
X116466857Y-59602666D01*
X116514476Y-59507428D01*
X116562095Y-59459809D01*
X116657333Y-59412190D01*
X116847809Y-59364571D01*
X116943047Y-59316952D01*
X116990666Y-59269333D01*
X117038285Y-59174095D01*
X117038285Y-59078857D01*
X116990666Y-58983619D01*
X116943047Y-58936000D01*
X116847809Y-58888380D01*
X116609714Y-58888380D01*
X116466857Y-58936000D01*
X116038285Y-59888380D02*
X116038285Y-58888380D01*
X115800190Y-58888380D01*
X115657333Y-58936000D01*
X115562095Y-59031238D01*
X115514476Y-59126476D01*
X115466857Y-59316952D01*
X115466857Y-59459809D01*
X115514476Y-59650285D01*
X115562095Y-59745523D01*
X115657333Y-59840761D01*
X115800190Y-59888380D01*
X116038285Y-59888380D01*
X115085904Y-59602666D02*
X114609714Y-59602666D01*
X115181142Y-59888380D02*
X114847809Y-58888380D01*
X114514476Y-59888380D01*
D11*
X144262190Y-84373642D02*
X143762190Y-84373642D01*
X143762190Y-84492690D01*
X143786000Y-84564119D01*
X143833619Y-84611738D01*
X143881238Y-84635547D01*
X143976476Y-84659357D01*
X144047904Y-84659357D01*
X144143142Y-84635547D01*
X144190761Y-84611738D01*
X144238380Y-84564119D01*
X144262190Y-84492690D01*
X144262190Y-84373642D01*
X144262190Y-84873642D02*
X143762190Y-84873642D01*
X144262190Y-85159357D01*
X143762190Y-85159357D01*
X144262190Y-85397452D02*
X143762190Y-85397452D01*
X143762190Y-85587928D01*
X143786000Y-85635547D01*
X143809809Y-85659357D01*
X143857428Y-85683166D01*
X143928857Y-85683166D01*
X143976476Y-85659357D01*
X144000285Y-85635547D01*
X144024095Y-85587928D01*
X144024095Y-85397452D01*
D10*
X117316000Y-55443428D02*
X116554095Y-55443428D01*
X116935047Y-55824380D02*
X116935047Y-55062476D01*
X116173142Y-54824380D02*
X115554095Y-54824380D01*
X115887428Y-55205333D01*
X115744571Y-55205333D01*
X115649333Y-55252952D01*
X115601714Y-55300571D01*
X115554095Y-55395809D01*
X115554095Y-55633904D01*
X115601714Y-55729142D01*
X115649333Y-55776761D01*
X115744571Y-55824380D01*
X116030285Y-55824380D01*
X116125523Y-55776761D01*
X116173142Y-55729142D01*
X115125523Y-55729142D02*
X115077904Y-55776761D01*
X115125523Y-55824380D01*
X115173142Y-55776761D01*
X115125523Y-55729142D01*
X115125523Y-55824380D01*
X114744571Y-54824380D02*
X114125523Y-54824380D01*
X114458857Y-55205333D01*
X114316000Y-55205333D01*
X114220761Y-55252952D01*
X114173142Y-55300571D01*
X114125523Y-55395809D01*
X114125523Y-55633904D01*
X114173142Y-55729142D01*
X114220761Y-55776761D01*
X114316000Y-55824380D01*
X114601714Y-55824380D01*
X114696952Y-55776761D01*
X114744571Y-55729142D01*
X113839809Y-54824380D02*
X113506476Y-55824380D01*
X113173142Y-54824380D01*
D11*
X144262190Y-74213642D02*
X143762190Y-74213642D01*
X143762190Y-74332690D01*
X143786000Y-74404119D01*
X143833619Y-74451738D01*
X143881238Y-74475547D01*
X143976476Y-74499357D01*
X144047904Y-74499357D01*
X144143142Y-74475547D01*
X144190761Y-74451738D01*
X144238380Y-74404119D01*
X144262190Y-74332690D01*
X144262190Y-74213642D01*
X144262190Y-74713642D02*
X143762190Y-74713642D01*
X144262190Y-74999357D01*
X143762190Y-74999357D01*
X144262190Y-75237452D02*
X143762190Y-75237452D01*
X143762190Y-75427928D01*
X143786000Y-75475547D01*
X143809809Y-75499357D01*
X143857428Y-75523166D01*
X143928857Y-75523166D01*
X143976476Y-75499357D01*
X144000285Y-75475547D01*
X144024095Y-75427928D01*
X144024095Y-75237452D01*
D10*
X116585904Y-63000000D02*
X116681142Y-62952380D01*
X116824000Y-62952380D01*
X116966857Y-63000000D01*
X117062095Y-63095238D01*
X117109714Y-63190476D01*
X117157333Y-63380952D01*
X117157333Y-63523809D01*
X117109714Y-63714285D01*
X117062095Y-63809523D01*
X116966857Y-63904761D01*
X116824000Y-63952380D01*
X116728761Y-63952380D01*
X116585904Y-63904761D01*
X116538285Y-63857142D01*
X116538285Y-63523809D01*
X116728761Y-63523809D01*
X116109714Y-63952380D02*
X116109714Y-62952380D01*
X115538285Y-63952380D01*
X115538285Y-62952380D01*
X115062095Y-63952380D02*
X115062095Y-62952380D01*
X114824000Y-62952380D01*
X114681142Y-63000000D01*
X114585904Y-63095238D01*
X114538285Y-63190476D01*
X114490666Y-63380952D01*
X114490666Y-63523809D01*
X114538285Y-63714285D01*
X114585904Y-63809523D01*
X114681142Y-63904761D01*
X114824000Y-63952380D01*
X115062095Y-63952380D01*
D11*
X143448571Y-82186785D02*
X143377142Y-82210595D01*
X143353333Y-82234404D01*
X143329523Y-82282023D01*
X143329523Y-82353452D01*
X143353333Y-82401071D01*
X143377142Y-82424880D01*
X143424761Y-82448690D01*
X143615238Y-82448690D01*
X143615238Y-81948690D01*
X143448571Y-81948690D01*
X143400952Y-81972500D01*
X143377142Y-81996309D01*
X143353333Y-82043928D01*
X143353333Y-82091547D01*
X143377142Y-82139166D01*
X143400952Y-82162976D01*
X143448571Y-82186785D01*
X143615238Y-82186785D01*
X143020000Y-82210595D02*
X143020000Y-82448690D01*
X143186666Y-81948690D02*
X143020000Y-82210595D01*
X142853333Y-81948690D01*
X142686666Y-82448690D02*
X142686666Y-81948690D01*
X142496190Y-81948690D01*
X142448571Y-81972500D01*
X142424761Y-81996309D01*
X142400952Y-82043928D01*
X142400952Y-82115357D01*
X142424761Y-82162976D01*
X142448571Y-82186785D01*
X142496190Y-82210595D01*
X142686666Y-82210595D01*
D10*
%TO.C,J1*%
X130837380Y-64866666D02*
X131551666Y-64866666D01*
X131694523Y-64819047D01*
X131789761Y-64723809D01*
X131837380Y-64580952D01*
X131837380Y-64485714D01*
X131837380Y-65866666D02*
X131837380Y-65295238D01*
X131837380Y-65580952D02*
X130837380Y-65580952D01*
X130980238Y-65485714D01*
X131075476Y-65390476D01*
X131123095Y-65295238D01*
%TO.C,R12*%
X143682857Y-73222380D02*
X144016190Y-72746190D01*
X144254285Y-73222380D02*
X144254285Y-72222380D01*
X143873333Y-72222380D01*
X143778095Y-72270000D01*
X143730476Y-72317619D01*
X143682857Y-72412857D01*
X143682857Y-72555714D01*
X143730476Y-72650952D01*
X143778095Y-72698571D01*
X143873333Y-72746190D01*
X144254285Y-72746190D01*
X142730476Y-73222380D02*
X143301904Y-73222380D01*
X143016190Y-73222380D02*
X143016190Y-72222380D01*
X143111428Y-72365238D01*
X143206666Y-72460476D01*
X143301904Y-72508095D01*
X142349523Y-72317619D02*
X142301904Y-72270000D01*
X142206666Y-72222380D01*
X141968571Y-72222380D01*
X141873333Y-72270000D01*
X141825714Y-72317619D01*
X141778095Y-72412857D01*
X141778095Y-72508095D01*
X141825714Y-72650952D01*
X142397142Y-73222380D01*
X141778095Y-73222380D01*
%TO.C,R7*%
X130500380Y-88405833D02*
X130024190Y-88072500D01*
X130500380Y-87834404D02*
X129500380Y-87834404D01*
X129500380Y-88215357D01*
X129548000Y-88310595D01*
X129595619Y-88358214D01*
X129690857Y-88405833D01*
X129833714Y-88405833D01*
X129928952Y-88358214D01*
X129976571Y-88310595D01*
X130024190Y-88215357D01*
X130024190Y-87834404D01*
X129500380Y-88739166D02*
X129500380Y-89405833D01*
X130500380Y-88977261D01*
%TO.C,R8*%
X130642380Y-77933333D02*
X130166190Y-77600000D01*
X130642380Y-77361904D02*
X129642380Y-77361904D01*
X129642380Y-77742857D01*
X129690000Y-77838095D01*
X129737619Y-77885714D01*
X129832857Y-77933333D01*
X129975714Y-77933333D01*
X130070952Y-77885714D01*
X130118571Y-77838095D01*
X130166190Y-77742857D01*
X130166190Y-77361904D01*
X130070952Y-78504761D02*
X130023333Y-78409523D01*
X129975714Y-78361904D01*
X129880476Y-78314285D01*
X129832857Y-78314285D01*
X129737619Y-78361904D01*
X129690000Y-78409523D01*
X129642380Y-78504761D01*
X129642380Y-78695238D01*
X129690000Y-78790476D01*
X129737619Y-78838095D01*
X129832857Y-78885714D01*
X129880476Y-78885714D01*
X129975714Y-78838095D01*
X130023333Y-78790476D01*
X130070952Y-78695238D01*
X130070952Y-78504761D01*
X130118571Y-78409523D01*
X130166190Y-78361904D01*
X130261428Y-78314285D01*
X130451904Y-78314285D01*
X130547142Y-78361904D01*
X130594761Y-78409523D01*
X130642380Y-78504761D01*
X130642380Y-78695238D01*
X130594761Y-78790476D01*
X130547142Y-78838095D01*
X130451904Y-78885714D01*
X130261428Y-78885714D01*
X130166190Y-78838095D01*
X130118571Y-78790476D01*
X130070952Y-78695238D01*
%TO.C,R10*%
X139312857Y-81382380D02*
X139646190Y-80906190D01*
X139884285Y-81382380D02*
X139884285Y-80382380D01*
X139503333Y-80382380D01*
X139408095Y-80430000D01*
X139360476Y-80477619D01*
X139312857Y-80572857D01*
X139312857Y-80715714D01*
X139360476Y-80810952D01*
X139408095Y-80858571D01*
X139503333Y-80906190D01*
X139884285Y-80906190D01*
X138360476Y-81382380D02*
X138931904Y-81382380D01*
X138646190Y-81382380D02*
X138646190Y-80382380D01*
X138741428Y-80525238D01*
X138836666Y-80620476D01*
X138931904Y-80668095D01*
X137741428Y-80382380D02*
X137646190Y-80382380D01*
X137550952Y-80430000D01*
X137503333Y-80477619D01*
X137455714Y-80572857D01*
X137408095Y-80763333D01*
X137408095Y-81001428D01*
X137455714Y-81191904D01*
X137503333Y-81287142D01*
X137550952Y-81334761D01*
X137646190Y-81382380D01*
X137741428Y-81382380D01*
X137836666Y-81334761D01*
X137884285Y-81287142D01*
X137931904Y-81191904D01*
X137979523Y-81001428D01*
X137979523Y-80763333D01*
X137931904Y-80572857D01*
X137884285Y-80477619D01*
X137836666Y-80430000D01*
X137741428Y-80382380D01*
%TO.C,R11*%
X143562857Y-83652380D02*
X143896190Y-83176190D01*
X144134285Y-83652380D02*
X144134285Y-82652380D01*
X143753333Y-82652380D01*
X143658095Y-82700000D01*
X143610476Y-82747619D01*
X143562857Y-82842857D01*
X143562857Y-82985714D01*
X143610476Y-83080952D01*
X143658095Y-83128571D01*
X143753333Y-83176190D01*
X144134285Y-83176190D01*
X142610476Y-83652380D02*
X143181904Y-83652380D01*
X142896190Y-83652380D02*
X142896190Y-82652380D01*
X142991428Y-82795238D01*
X143086666Y-82890476D01*
X143181904Y-82938095D01*
X141658095Y-83652380D02*
X142229523Y-83652380D01*
X141943809Y-83652380D02*
X141943809Y-82652380D01*
X142039047Y-82795238D01*
X142134285Y-82890476D01*
X142229523Y-82938095D01*
%TO.C,R2*%
X138868666Y-72006880D02*
X139202000Y-71530690D01*
X139440095Y-72006880D02*
X139440095Y-71006880D01*
X139059142Y-71006880D01*
X138963904Y-71054500D01*
X138916285Y-71102119D01*
X138868666Y-71197357D01*
X138868666Y-71340214D01*
X138916285Y-71435452D01*
X138963904Y-71483071D01*
X139059142Y-71530690D01*
X139440095Y-71530690D01*
X138487714Y-71102119D02*
X138440095Y-71054500D01*
X138344857Y-71006880D01*
X138106761Y-71006880D01*
X138011523Y-71054500D01*
X137963904Y-71102119D01*
X137916285Y-71197357D01*
X137916285Y-71292595D01*
X137963904Y-71435452D01*
X138535333Y-72006880D01*
X137916285Y-72006880D01*
%TO.C,R1*%
X138868666Y-82674880D02*
X139202000Y-82198690D01*
X139440095Y-82674880D02*
X139440095Y-81674880D01*
X139059142Y-81674880D01*
X138963904Y-81722500D01*
X138916285Y-81770119D01*
X138868666Y-81865357D01*
X138868666Y-82008214D01*
X138916285Y-82103452D01*
X138963904Y-82151071D01*
X139059142Y-82198690D01*
X139440095Y-82198690D01*
X137916285Y-82674880D02*
X138487714Y-82674880D01*
X138202000Y-82674880D02*
X138202000Y-81674880D01*
X138297238Y-81817738D01*
X138392476Y-81912976D01*
X138487714Y-81960595D01*
D12*
%TO.C,Q3*%
X135218571Y-91021785D02*
X135291142Y-90985500D01*
X135363714Y-90912928D01*
X135472571Y-90804071D01*
X135545142Y-90767785D01*
X135617714Y-90767785D01*
X135581428Y-90949214D02*
X135654000Y-90912928D01*
X135726571Y-90840357D01*
X135762857Y-90695214D01*
X135762857Y-90441214D01*
X135726571Y-90296071D01*
X135654000Y-90223500D01*
X135581428Y-90187214D01*
X135436285Y-90187214D01*
X135363714Y-90223500D01*
X135291142Y-90296071D01*
X135254857Y-90441214D01*
X135254857Y-90695214D01*
X135291142Y-90840357D01*
X135363714Y-90912928D01*
X135436285Y-90949214D01*
X135581428Y-90949214D01*
X135000857Y-90187214D02*
X134529142Y-90187214D01*
X134783142Y-90477500D01*
X134674285Y-90477500D01*
X134601714Y-90513785D01*
X134565428Y-90550071D01*
X134529142Y-90622642D01*
X134529142Y-90804071D01*
X134565428Y-90876642D01*
X134601714Y-90912928D01*
X134674285Y-90949214D01*
X134892000Y-90949214D01*
X134964571Y-90912928D01*
X135000857Y-90876642D01*
%TO.C,Q4*%
X135218571Y-80607785D02*
X135291142Y-80571500D01*
X135363714Y-80498928D01*
X135472571Y-80390071D01*
X135545142Y-80353785D01*
X135617714Y-80353785D01*
X135581428Y-80535214D02*
X135654000Y-80498928D01*
X135726571Y-80426357D01*
X135762857Y-80281214D01*
X135762857Y-80027214D01*
X135726571Y-79882071D01*
X135654000Y-79809500D01*
X135581428Y-79773214D01*
X135436285Y-79773214D01*
X135363714Y-79809500D01*
X135291142Y-79882071D01*
X135254857Y-80027214D01*
X135254857Y-80281214D01*
X135291142Y-80426357D01*
X135363714Y-80498928D01*
X135436285Y-80535214D01*
X135581428Y-80535214D01*
X134601714Y-80027214D02*
X134601714Y-80535214D01*
X134783142Y-79736928D02*
X134964571Y-80281214D01*
X134492857Y-80281214D01*
D10*
%TO.C,C3*%
X142932666Y-81309642D02*
X142980285Y-81357261D01*
X143123142Y-81404880D01*
X143218380Y-81404880D01*
X143361238Y-81357261D01*
X143456476Y-81262023D01*
X143504095Y-81166785D01*
X143551714Y-80976309D01*
X143551714Y-80833452D01*
X143504095Y-80642976D01*
X143456476Y-80547738D01*
X143361238Y-80452500D01*
X143218380Y-80404880D01*
X143123142Y-80404880D01*
X142980285Y-80452500D01*
X142932666Y-80500119D01*
X142599333Y-80404880D02*
X141980285Y-80404880D01*
X142313619Y-80785833D01*
X142170761Y-80785833D01*
X142075523Y-80833452D01*
X142027904Y-80881071D01*
X141980285Y-80976309D01*
X141980285Y-81214404D01*
X142027904Y-81309642D01*
X142075523Y-81357261D01*
X142170761Y-81404880D01*
X142456476Y-81404880D01*
X142551714Y-81357261D01*
X142599333Y-81309642D01*
%TO.C,C2*%
X142914666Y-91543142D02*
X142962285Y-91590761D01*
X143105142Y-91638380D01*
X143200380Y-91638380D01*
X143343238Y-91590761D01*
X143438476Y-91495523D01*
X143486095Y-91400285D01*
X143533714Y-91209809D01*
X143533714Y-91066952D01*
X143486095Y-90876476D01*
X143438476Y-90781238D01*
X143343238Y-90686000D01*
X143200380Y-90638380D01*
X143105142Y-90638380D01*
X142962285Y-90686000D01*
X142914666Y-90733619D01*
X142533714Y-90733619D02*
X142486095Y-90686000D01*
X142390857Y-90638380D01*
X142152761Y-90638380D01*
X142057523Y-90686000D01*
X142009904Y-90733619D01*
X141962285Y-90828857D01*
X141962285Y-90924095D01*
X142009904Y-91066952D01*
X142581333Y-91638380D01*
X141962285Y-91638380D01*
%TO.C,R6*%
X141154666Y-81404880D02*
X141488000Y-80928690D01*
X141726095Y-81404880D02*
X141726095Y-80404880D01*
X141345142Y-80404880D01*
X141249904Y-80452500D01*
X141202285Y-80500119D01*
X141154666Y-80595357D01*
X141154666Y-80738214D01*
X141202285Y-80833452D01*
X141249904Y-80881071D01*
X141345142Y-80928690D01*
X141726095Y-80928690D01*
X140297523Y-80404880D02*
X140488000Y-80404880D01*
X140583238Y-80452500D01*
X140630857Y-80500119D01*
X140726095Y-80642976D01*
X140773714Y-80833452D01*
X140773714Y-81214404D01*
X140726095Y-81309642D01*
X140678476Y-81357261D01*
X140583238Y-81404880D01*
X140392761Y-81404880D01*
X140297523Y-81357261D01*
X140249904Y-81309642D01*
X140202285Y-81214404D01*
X140202285Y-80976309D01*
X140249904Y-80881071D01*
X140297523Y-80833452D01*
X140392761Y-80785833D01*
X140583238Y-80785833D01*
X140678476Y-80833452D01*
X140726095Y-80881071D01*
X140773714Y-80976309D01*
%TO.C,Q2*%
X132701238Y-74515119D02*
X132796476Y-74467500D01*
X132891714Y-74372261D01*
X133034571Y-74229404D01*
X133129809Y-74181785D01*
X133225047Y-74181785D01*
X133177428Y-74419880D02*
X133272666Y-74372261D01*
X133367904Y-74277023D01*
X133415523Y-74086547D01*
X133415523Y-73753214D01*
X133367904Y-73562738D01*
X133272666Y-73467500D01*
X133177428Y-73419880D01*
X132986952Y-73419880D01*
X132891714Y-73467500D01*
X132796476Y-73562738D01*
X132748857Y-73753214D01*
X132748857Y-74086547D01*
X132796476Y-74277023D01*
X132891714Y-74372261D01*
X132986952Y-74419880D01*
X133177428Y-74419880D01*
X132367904Y-73515119D02*
X132320285Y-73467500D01*
X132225047Y-73419880D01*
X131986952Y-73419880D01*
X131891714Y-73467500D01*
X131844095Y-73515119D01*
X131796476Y-73610357D01*
X131796476Y-73705595D01*
X131844095Y-73848452D01*
X132415523Y-74419880D01*
X131796476Y-74419880D01*
%TO.C,R5*%
X141026666Y-82732380D02*
X141360000Y-82256190D01*
X141598095Y-82732380D02*
X141598095Y-81732380D01*
X141217142Y-81732380D01*
X141121904Y-81780000D01*
X141074285Y-81827619D01*
X141026666Y-81922857D01*
X141026666Y-82065714D01*
X141074285Y-82160952D01*
X141121904Y-82208571D01*
X141217142Y-82256190D01*
X141598095Y-82256190D01*
X140121904Y-81732380D02*
X140598095Y-81732380D01*
X140645714Y-82208571D01*
X140598095Y-82160952D01*
X140502857Y-82113333D01*
X140264761Y-82113333D01*
X140169523Y-82160952D01*
X140121904Y-82208571D01*
X140074285Y-82303809D01*
X140074285Y-82541904D01*
X140121904Y-82637142D01*
X140169523Y-82684761D01*
X140264761Y-82732380D01*
X140502857Y-82732380D01*
X140598095Y-82684761D01*
X140645714Y-82637142D01*
%TO.C,Q1*%
X132701238Y-84421119D02*
X132796476Y-84373500D01*
X132891714Y-84278261D01*
X133034571Y-84135404D01*
X133129809Y-84087785D01*
X133225047Y-84087785D01*
X133177428Y-84325880D02*
X133272666Y-84278261D01*
X133367904Y-84183023D01*
X133415523Y-83992547D01*
X133415523Y-83659214D01*
X133367904Y-83468738D01*
X133272666Y-83373500D01*
X133177428Y-83325880D01*
X132986952Y-83325880D01*
X132891714Y-83373500D01*
X132796476Y-83468738D01*
X132748857Y-83659214D01*
X132748857Y-83992547D01*
X132796476Y-84183023D01*
X132891714Y-84278261D01*
X132986952Y-84325880D01*
X133177428Y-84325880D01*
X131796476Y-84325880D02*
X132367904Y-84325880D01*
X132082190Y-84325880D02*
X132082190Y-83325880D01*
X132177428Y-83468738D01*
X132272666Y-83563976D01*
X132367904Y-83611595D01*
%TO.C,R3*%
X141076666Y-91652380D02*
X141410000Y-91176190D01*
X141648095Y-91652380D02*
X141648095Y-90652380D01*
X141267142Y-90652380D01*
X141171904Y-90700000D01*
X141124285Y-90747619D01*
X141076666Y-90842857D01*
X141076666Y-90985714D01*
X141124285Y-91080952D01*
X141171904Y-91128571D01*
X141267142Y-91176190D01*
X141648095Y-91176190D01*
X140743333Y-90652380D02*
X140124285Y-90652380D01*
X140457619Y-91033333D01*
X140314761Y-91033333D01*
X140219523Y-91080952D01*
X140171904Y-91128571D01*
X140124285Y-91223809D01*
X140124285Y-91461904D01*
X140171904Y-91557142D01*
X140219523Y-91604761D01*
X140314761Y-91652380D01*
X140600476Y-91652380D01*
X140695714Y-91604761D01*
X140743333Y-91557142D01*
%TO.C,R4*%
X140916666Y-72052380D02*
X141250000Y-71576190D01*
X141488095Y-72052380D02*
X141488095Y-71052380D01*
X141107142Y-71052380D01*
X141011904Y-71100000D01*
X140964285Y-71147619D01*
X140916666Y-71242857D01*
X140916666Y-71385714D01*
X140964285Y-71480952D01*
X141011904Y-71528571D01*
X141107142Y-71576190D01*
X141488095Y-71576190D01*
X140059523Y-71385714D02*
X140059523Y-72052380D01*
X140297619Y-71004761D02*
X140535714Y-71719047D01*
X139916666Y-71719047D01*
%TO.C,R9*%
X139136666Y-91592380D02*
X139470000Y-91116190D01*
X139708095Y-91592380D02*
X139708095Y-90592380D01*
X139327142Y-90592380D01*
X139231904Y-90640000D01*
X139184285Y-90687619D01*
X139136666Y-90782857D01*
X139136666Y-90925714D01*
X139184285Y-91020952D01*
X139231904Y-91068571D01*
X139327142Y-91116190D01*
X139708095Y-91116190D01*
X138660476Y-91592380D02*
X138470000Y-91592380D01*
X138374761Y-91544761D01*
X138327142Y-91497142D01*
X138231904Y-91354285D01*
X138184285Y-91163809D01*
X138184285Y-90782857D01*
X138231904Y-90687619D01*
X138279523Y-90640000D01*
X138374761Y-90592380D01*
X138565238Y-90592380D01*
X138660476Y-90640000D01*
X138708095Y-90687619D01*
X138755714Y-90782857D01*
X138755714Y-91020952D01*
X138708095Y-91116190D01*
X138660476Y-91163809D01*
X138565238Y-91211428D01*
X138374761Y-91211428D01*
X138279523Y-91163809D01*
X138231904Y-91116190D01*
X138184285Y-91020952D01*
D12*
%TO.C,J1*%
X120825000Y-51500000D02*
X120825000Y-53975000D01*
X119680000Y-55175000D02*
X120180000Y-54875000D01*
X120825000Y-68250000D02*
X125450000Y-68250000D01*
X120825000Y-65775000D02*
X120825000Y-68250000D01*
X119680000Y-54575000D02*
X119680000Y-55175000D01*
X120180000Y-54875000D02*
X119680000Y-54575000D01*
X125450000Y-51500000D02*
X120825000Y-51500000D01*
X128775000Y-53075000D02*
X128775000Y-66675000D01*
D13*
%TO.C,R12*%
X143268000Y-74709721D02*
X143268000Y-75035279D01*
X142248000Y-74709721D02*
X142248000Y-75035279D01*
%TO.C,R7*%
X131080000Y-88409721D02*
X131080000Y-88735279D01*
X132100000Y-88409721D02*
X132100000Y-88735279D01*
%TO.C,R8*%
X131080000Y-78123721D02*
X131080000Y-78449279D01*
X132100000Y-78123721D02*
X132100000Y-78449279D01*
%TO.C,R10*%
X139458000Y-78195279D02*
X139458000Y-77869721D01*
X138438000Y-78195279D02*
X138438000Y-77869721D01*
%TO.C,R11*%
X142248000Y-85133221D02*
X142248000Y-85458779D01*
X143268000Y-85133221D02*
X143268000Y-85458779D01*
%TO.C,R2*%
X139458000Y-75035279D02*
X139458000Y-74709721D01*
X138438000Y-75035279D02*
X138438000Y-74709721D01*
%TO.C,R1*%
X138438000Y-85458779D02*
X138438000Y-85133221D01*
X139458000Y-85458779D02*
X139458000Y-85133221D01*
D14*
%TO.C,Q3*%
X133906000Y-89772500D02*
X134646000Y-89772500D01*
%TO.C,Q4*%
X133906000Y-79486500D02*
X134646000Y-79486500D01*
D13*
%TO.C,C3*%
X143268000Y-78195279D02*
X143268000Y-77869721D01*
X142248000Y-78195279D02*
X142248000Y-77869721D01*
%TO.C,C2*%
X143268000Y-88481279D02*
X143268000Y-88155721D01*
X142248000Y-88481279D02*
X142248000Y-88155721D01*
%TO.C,R6*%
X140343000Y-77869721D02*
X140343000Y-78195279D01*
X141363000Y-77869721D02*
X141363000Y-78195279D01*
%TO.C,Q2*%
X135846000Y-75778500D02*
X133946000Y-75778500D01*
X134446000Y-73458500D02*
X135846000Y-73458500D01*
%TO.C,R5*%
X141363000Y-88481279D02*
X141363000Y-88155721D01*
X140343000Y-88481279D02*
X140343000Y-88155721D01*
%TO.C,Q1*%
X135846000Y-86064500D02*
X133946000Y-86064500D01*
X134446000Y-83744500D02*
X135846000Y-83744500D01*
%TO.C,R3*%
X140343000Y-85133221D02*
X140343000Y-85458779D01*
X141363000Y-85133221D02*
X141363000Y-85458779D01*
%TO.C,R4*%
X141363000Y-74709721D02*
X141363000Y-75035279D01*
X140343000Y-74709721D02*
X140343000Y-75035279D01*
%TO.C,R9*%
X139458000Y-88481279D02*
X139458000Y-88155721D01*
X138438000Y-88481279D02*
X138438000Y-88155721D01*
%TD*%
%LPC*%
%TO.C,J1*%
G36*
X122051200Y-63501200D02*
G01*
X120448800Y-63501200D01*
X120448800Y-62248800D01*
X122051200Y-62248800D01*
X122051200Y-63501200D01*
G37*
D15*
X122051200Y-63501200D02*
X120448800Y-63501200D01*
X120448800Y-62248800D01*
X122051200Y-62248800D01*
X122051200Y-63501200D01*
G36*
X128751200Y-52731200D02*
G01*
X125698800Y-52731200D01*
X125698800Y-51228800D01*
X128751200Y-51228800D01*
X128751200Y-52731200D01*
G37*
X128751200Y-52731200D02*
X125698800Y-52731200D01*
X125698800Y-51228800D01*
X128751200Y-51228800D01*
X128751200Y-52731200D01*
G36*
X122051200Y-55501200D02*
G01*
X120448800Y-55501200D01*
X120448800Y-54248800D01*
X122051200Y-54248800D01*
X122051200Y-55501200D01*
G37*
X122051200Y-55501200D02*
X120448800Y-55501200D01*
X120448800Y-54248800D01*
X122051200Y-54248800D01*
X122051200Y-55501200D01*
G36*
X122051200Y-57501200D02*
G01*
X120448800Y-57501200D01*
X120448800Y-56248800D01*
X122051200Y-56248800D01*
X122051200Y-57501200D01*
G37*
X122051200Y-57501200D02*
X120448800Y-57501200D01*
X120448800Y-56248800D01*
X122051200Y-56248800D01*
X122051200Y-57501200D01*
G36*
X128751200Y-68521200D02*
G01*
X125698800Y-68521200D01*
X125698800Y-67018800D01*
X128751200Y-67018800D01*
X128751200Y-68521200D01*
G37*
X128751200Y-68521200D02*
X125698800Y-68521200D01*
X125698800Y-67018800D01*
X128751200Y-67018800D01*
X128751200Y-68521200D01*
G36*
X122051200Y-59501200D02*
G01*
X120448800Y-59501200D01*
X120448800Y-58248800D01*
X122051200Y-58248800D01*
X122051200Y-59501200D01*
G37*
X122051200Y-59501200D02*
X120448800Y-59501200D01*
X120448800Y-58248800D01*
X122051200Y-58248800D01*
X122051200Y-59501200D01*
G36*
X122051200Y-65501200D02*
G01*
X120448800Y-65501200D01*
X120448800Y-64248800D01*
X122051200Y-64248800D01*
X122051200Y-65501200D01*
G37*
X122051200Y-65501200D02*
X120448800Y-65501200D01*
X120448800Y-64248800D01*
X122051200Y-64248800D01*
X122051200Y-65501200D01*
G36*
X122051200Y-61501200D02*
G01*
X120448800Y-61501200D01*
X120448800Y-60248800D01*
X122051200Y-60248800D01*
X122051200Y-61501200D01*
G37*
X122051200Y-61501200D02*
X120448800Y-61501200D01*
X120448800Y-60248800D01*
X122051200Y-60248800D01*
X122051200Y-61501200D01*
%TD*%
D16*
%TO.C,SC1*%
X122125000Y-48400000D03*
X131125000Y-48400000D03*
%TD*%
%TO.C,SC2*%
X171125000Y-48400000D03*
X180125000Y-48400000D03*
%TD*%
%TO.C,SC3*%
X155800000Y-101975000D03*
X155800000Y-92975000D03*
%TD*%
%TO.C,SC4*%
X155750000Y-124550000D03*
X155750000Y-115550000D03*
%TD*%
%TO.C,SC5*%
X146200000Y-115550000D03*
X146200000Y-124550000D03*
%TD*%
%TO.C,SC6*%
X146350000Y-92975000D03*
X146350000Y-101975000D03*
%TD*%
D17*
%TO.C,H1*%
X189660000Y-46150000D03*
D18*
X189660000Y-46150000D03*
%TD*%
%TO.C,H2*%
X151160000Y-46150000D03*
D17*
X151160000Y-46150000D03*
%TD*%
D18*
%TO.C,H3*%
X112660000Y-46150000D03*
D17*
X112660000Y-46150000D03*
%TD*%
D18*
%TO.C,H4*%
X112660000Y-93150000D03*
D17*
X112660000Y-93150000D03*
%TD*%
%TO.C,H5*%
X112660000Y-140150000D03*
D18*
X112660000Y-140150000D03*
%TD*%
D17*
%TO.C,H6*%
X151160000Y-140150000D03*
D18*
X151160000Y-140150000D03*
%TD*%
%TO.C,H7*%
X189660000Y-140150000D03*
D17*
X189660000Y-140150000D03*
%TD*%
%TO.C,H8*%
X189660000Y-93150000D03*
D18*
X189660000Y-93150000D03*
%TD*%
D19*
%TO.C,R12*%
X142758000Y-74085000D03*
X142758000Y-75660000D03*
%TD*%
%TO.C,R7*%
X131590000Y-87785000D03*
X131590000Y-89360000D03*
%TD*%
%TO.C,R8*%
X131590000Y-77499000D03*
X131590000Y-79074000D03*
%TD*%
D20*
%TO.C,R10*%
X138948000Y-78820000D03*
X138948000Y-77245000D03*
%TD*%
D19*
%TO.C,R11*%
X142758000Y-84508500D03*
X142758000Y-86083500D03*
%TD*%
D20*
%TO.C,R2*%
X138948000Y-75660000D03*
X138948000Y-74085000D03*
%TD*%
%TO.C,R1*%
X138948000Y-86083500D03*
X138948000Y-84508500D03*
%TD*%
D21*
%TO.C,Q3*%
X134196000Y-89222500D03*
X134196000Y-88572500D03*
X134196000Y-87922500D03*
X136096000Y-87922500D03*
X136096000Y-88572500D03*
X136096000Y-89222500D03*
%TD*%
%TO.C,Q4*%
X134196000Y-78936500D03*
X134196000Y-78286500D03*
X134196000Y-77636500D03*
X136096000Y-77636500D03*
X136096000Y-78286500D03*
X136096000Y-78936500D03*
%TD*%
D20*
%TO.C,C3*%
X142758000Y-78820000D03*
X142758000Y-77245000D03*
%TD*%
%TO.C,C2*%
X142758000Y-89106000D03*
X142758000Y-87531000D03*
%TD*%
D19*
%TO.C,R6*%
X140853000Y-77245000D03*
X140853000Y-78820000D03*
%TD*%
D22*
%TO.C,Q2*%
X134196000Y-75268500D03*
X134196000Y-74618500D03*
X134196000Y-73968500D03*
X136096000Y-73968500D03*
X136096000Y-74618500D03*
X136096000Y-75268500D03*
%TD*%
D20*
%TO.C,R5*%
X140853000Y-89106000D03*
X140853000Y-87531000D03*
%TD*%
D22*
%TO.C,Q1*%
X134196000Y-85554500D03*
X134196000Y-84904500D03*
X134196000Y-84254500D03*
X136096000Y-84254500D03*
X136096000Y-84904500D03*
X136096000Y-85554500D03*
%TD*%
D19*
%TO.C,R3*%
X140853000Y-84508500D03*
X140853000Y-86083500D03*
%TD*%
%TO.C,R4*%
X140853000Y-74085000D03*
X140853000Y-75660000D03*
%TD*%
%TO.C,R9*%
X138948000Y-89106000D03*
X138948000Y-87531000D03*
%TD*%
M02*
