M48
; DRILL file {KiCad (6.0.4-0)} date Monday, May 09, 2022 at 11:38:53 AM
; FORMAT={-:-/ absolute / metric / decimal}
; #@! TF.CreationDate,2022-05-09T11:38:53-07:00
; #@! TF.GenerationSoftware,Kicad,Pcbnew,(6.0.4-0)
; #@! TF.FileFunction,Plated,1,6,PTH
FMAT,2
METRIC
; #@! TA.AperFunction,Plated,PTH,ViaDrill
T1C0.400
; #@! TA.AperFunction,Plated,PTH,ComponentDrill
T2C2.000
; #@! TA.AperFunction,Plated,PTH,ComponentDrill
T3C2.200
%
G90
G05
T1
X112.75Y-58.72
X112.77Y-60.3
X114.375Y-136.95
X115.725Y-138.3
X126.51Y-123.58
X126.6Y-125.8
X127.62Y-123.56
X132.86Y-78.92
X132.86Y-89.334
X137.686Y-74.856
X137.686Y-85.27
X146.9Y-78.04
X151.472Y-74.23
X151.472Y-78.04
T2
X122.125Y-48.4
X131.125Y-48.4
X146.2Y-115.55
X146.2Y-124.55
X146.35Y-92.975
X146.35Y-101.975
X155.75Y-115.55
X155.75Y-124.55
X155.8Y-92.975
X155.8Y-101.975
X171.125Y-48.4
X180.125Y-48.4
T3
X112.66Y-46.15
X112.66Y-93.15
X112.66Y-140.15
X151.16Y-46.15
X151.16Y-140.15
X189.66Y-46.15
X189.66Y-93.15
X189.66Y-140.15
T0
M30
