%TF.GenerationSoftware,KiCad,Pcbnew,(6.0.4-0)*%
%TF.CreationDate,2022-05-09T11:38:02-07:00*%
%TF.ProjectId,solar-panel-side-X-minus,736f6c61-722d-4706-916e-656c2d736964,rev?*%
%TF.SameCoordinates,Original*%
%TF.FileFunction,Copper,L1,Top*%
%TF.FilePolarity,Positive*%
%FSLAX46Y46*%
G04 Gerber Fmt 4.6, Leading zero omitted, Abs format (unit mm)*
G04 Created by KiCad (PCBNEW (6.0.4-0)) date 2022-05-09 11:38:02*
%MOMM*%
%LPD*%
G01*
G04 APERTURE LIST*
G04 Aperture macros list*
%AMRoundRect*
0 Rectangle with rounded corners*
0 $1 Rounding radius*
0 $2 $3 $4 $5 $6 $7 $8 $9 X,Y pos of 4 corners*
0 Add a 4 corners polygon primitive as box body*
4,1,4,$2,$3,$4,$5,$6,$7,$8,$9,$2,$3,0*
0 Add four circle primitives for the rounded corners*
1,1,$1+$1,$2,$3*
1,1,$1+$1,$4,$5*
1,1,$1+$1,$6,$7*
1,1,$1+$1,$8,$9*
0 Add four rect primitives between the rounded corners*
20,1,$1+$1,$2,$3,$4,$5,0*
20,1,$1+$1,$4,$5,$6,$7,0*
20,1,$1+$1,$6,$7,$8,$9,0*
20,1,$1+$1,$8,$9,$2,$3,0*%
G04 Aperture macros list end*
%TA.AperFunction,SMDPad,CuDef*%
%ADD10R,2.500000X1.700000*%
%TD*%
%TA.AperFunction,SMDPad,CuDef*%
%ADD11R,1.700000X2.500000*%
%TD*%
%TA.AperFunction,ComponentPad*%
%ADD12C,3.000000*%
%TD*%
%TA.AperFunction,ConnectorPad*%
%ADD13C,3.800000*%
%TD*%
%TA.AperFunction,ComponentPad*%
%ADD14C,2.600000*%
%TD*%
%TA.AperFunction,SMDPad,CuDef*%
%ADD15R,1.411200X0.270000*%
%TD*%
%TA.AperFunction,SMDPad,CuDef*%
%ADD16R,1.720000X2.180000*%
%TD*%
%TA.AperFunction,SMDPad,CuDef*%
%ADD17RoundRect,0.135000X0.135000X0.185000X-0.135000X0.185000X-0.135000X-0.185000X0.135000X-0.185000X0*%
%TD*%
%TA.AperFunction,SMDPad,CuDef*%
%ADD18RoundRect,0.135000X-0.135000X-0.185000X0.135000X-0.185000X0.135000X0.185000X-0.135000X0.185000X0*%
%TD*%
%TA.AperFunction,SMDPad,CuDef*%
%ADD19RoundRect,0.218750X0.218750X0.256250X-0.218750X0.256250X-0.218750X-0.256250X0.218750X-0.256250X0*%
%TD*%
%TA.AperFunction,SMDPad,CuDef*%
%ADD20RoundRect,0.140000X0.140000X0.170000X-0.140000X0.170000X-0.140000X-0.170000X0.140000X-0.170000X0*%
%TD*%
%TA.AperFunction,SMDPad,CuDef*%
%ADD21RoundRect,0.250000X0.250000X0.475000X-0.250000X0.475000X-0.250000X-0.475000X0.250000X-0.475000X0*%
%TD*%
%TA.AperFunction,SMDPad,CuDef*%
%ADD22RoundRect,0.218750X-0.256250X0.218750X-0.256250X-0.218750X0.256250X-0.218750X0.256250X0.218750X0*%
%TD*%
%TA.AperFunction,SMDPad,CuDef*%
%ADD23R,0.740000X0.270000*%
%TD*%
%TA.AperFunction,SMDPad,CuDef*%
%ADD24R,0.650000X1.350000*%
%TD*%
%TA.AperFunction,ViaPad*%
%ADD25C,0.800000*%
%TD*%
%TA.AperFunction,Conductor*%
%ADD26C,0.500000*%
%TD*%
%TA.AperFunction,Conductor*%
%ADD27C,0.250000*%
%TD*%
G04 APERTURE END LIST*
D10*
%TO.P,D1,1,K*%
%TO.N,Net-(D1-Pad1)*%
X141150000Y-47125000D03*
%TO.P,D1,2,A*%
%TO.N,Net-(D1-Pad2)*%
X145150000Y-47125000D03*
%TD*%
%TO.P,D2,1,K*%
%TO.N,Net-(D1-Pad2)*%
X156625000Y-46950000D03*
%TO.P,D2,2,A*%
%TO.N,Net-(D2-Pad2)*%
X160625000Y-46950000D03*
%TD*%
D11*
%TO.P,D3,1,K*%
%TO.N,Net-(D2-Pad2)*%
X189400000Y-104125000D03*
%TO.P,D3,2,A*%
%TO.N,Net-(D3-Pad2)*%
X189400000Y-100125000D03*
%TD*%
%TO.P,D4,1,K*%
%TO.N,Net-(D3-Pad2)*%
X189275000Y-121775000D03*
%TO.P,D4,2,A*%
%TO.N,Net-(D4-Pad2)*%
X189275000Y-117775000D03*
%TD*%
%TO.P,D5,1,K*%
%TO.N,Net-(D4-Pad2)*%
X113075000Y-120625000D03*
%TO.P,D5,2,A*%
%TO.N,Net-(D5-Pad2)*%
X113075000Y-116625000D03*
%TD*%
%TO.P,D6,1,K*%
%TO.N,Net-(D5-Pad2)*%
X113030000Y-104870000D03*
%TO.P,D6,2,A*%
%TO.N,GND*%
X113030000Y-100870000D03*
%TD*%
%TO.P,D9,1,K*%
%TO.N,VSOLAR*%
X112710000Y-56440000D03*
%TO.P,D9,2,A*%
%TO.N,Net-(D1-Pad1)*%
X112710000Y-52440000D03*
%TD*%
D12*
%TO.P,SC1,1,+*%
%TO.N,Net-(D1-Pad1)*%
X122125000Y-48400000D03*
%TO.P,SC1,2,-*%
%TO.N,Net-(D1-Pad2)*%
X131125000Y-48400000D03*
%TD*%
%TO.P,SC2,1,+*%
%TO.N,Net-(D1-Pad2)*%
X171125000Y-48400000D03*
%TO.P,SC2,2,-*%
%TO.N,Net-(D2-Pad2)*%
X180125000Y-48400000D03*
%TD*%
%TO.P,SC3,1,+*%
%TO.N,Net-(D2-Pad2)*%
X155800000Y-101975000D03*
%TO.P,SC3,2,-*%
%TO.N,Net-(D3-Pad2)*%
X155800000Y-92975000D03*
%TD*%
%TO.P,SC4,1,+*%
%TO.N,Net-(D3-Pad2)*%
X155750000Y-124550000D03*
%TO.P,SC4,2,-*%
%TO.N,Net-(D4-Pad2)*%
X155750000Y-115550000D03*
%TD*%
%TO.P,SC5,1,+*%
%TO.N,Net-(D4-Pad2)*%
X146200000Y-115550000D03*
%TO.P,SC5,2,-*%
%TO.N,Net-(D5-Pad2)*%
X146200000Y-124550000D03*
%TD*%
%TO.P,SC6,1,+*%
%TO.N,Net-(D5-Pad2)*%
X146350000Y-92975000D03*
%TO.P,SC6,2,-*%
%TO.N,GND*%
X146350000Y-101975000D03*
%TD*%
D13*
%TO.P,H1,1,1*%
%TO.N,GND*%
X189660000Y-46150000D03*
D14*
X189660000Y-46150000D03*
%TD*%
%TO.P,H2,1,1*%
%TO.N,GND*%
X151160000Y-46150000D03*
D13*
X151160000Y-46150000D03*
%TD*%
D14*
%TO.P,H3,1,1*%
%TO.N,GND*%
X112660000Y-46150000D03*
D13*
X112660000Y-46150000D03*
%TD*%
%TO.P,H4,1,1*%
%TO.N,GND*%
X112660000Y-93150000D03*
D14*
X112660000Y-93150000D03*
%TD*%
%TO.P,H5,1,1*%
%TO.N,GND*%
X112660000Y-140150000D03*
D13*
X112660000Y-140150000D03*
%TD*%
%TO.P,H6,1,1*%
%TO.N,GND*%
X151160000Y-140150000D03*
D14*
X151160000Y-140150000D03*
%TD*%
%TO.P,H7,1,1*%
%TO.N,GND*%
X189660000Y-140150000D03*
D13*
X189660000Y-140150000D03*
%TD*%
D14*
%TO.P,H8,1,1*%
%TO.N,GND*%
X189660000Y-93150000D03*
D13*
X189660000Y-93150000D03*
%TD*%
D15*
%TO.P,U2,1,OUT2*%
%TO.N,Net-(L1-Pad2)*%
X158706999Y-76942001D03*
%TO.P,U2,2,ISENSE*%
%TO.N,Net-(R17-Pad2)*%
X158706999Y-76441999D03*
%TO.P,U2,3,OUT1*%
%TO.N,Net-(L2-Pad2)*%
X158706999Y-75942000D03*
%TO.P,U2,4,VCC*%
%TO.N,+3V3*%
X158706999Y-75442001D03*
%TO.P,U2,5,GND*%
%TO.N,GND*%
X158706999Y-74941999D03*
%TO.P,U2,6,FAULTN*%
%TO.N,unconnected-(U2-Pad6)*%
X154357001Y-74941999D03*
%TO.P,U2,7,A0*%
%TO.N,Net-(R15-Pad1)*%
X154357001Y-75442001D03*
%TO.P,U2,8,A1*%
%TO.N,Net-(R13-Pad1)*%
X154357001Y-75942000D03*
%TO.P,U2,9,SDA*%
%TO.N,SDA*%
X154357001Y-76441999D03*
%TO.P,U2,10,SCL*%
%TO.N,SCL*%
X154357001Y-76942001D03*
D16*
%TO.P,U2,EPAD*%
%TO.N,GND*%
X156532000Y-75942000D03*
%TD*%
D17*
%TO.P,R17,1*%
%TO.N,GND*%
X161385000Y-76350000D03*
%TO.P,R17,2*%
%TO.N,Net-(R17-Pad2)*%
X160365000Y-76350000D03*
%TD*%
D18*
%TO.P,R15,1*%
%TO.N,Net-(R15-Pad1)*%
X153480000Y-71760000D03*
%TO.P,R15,2*%
%TO.N,+3V3*%
X154500000Y-71760000D03*
%TD*%
D19*
%TO.P,L1,1,1*%
%TO.N,/torque-coil*%
X162237500Y-77925000D03*
%TO.P,L1,2,2*%
%TO.N,Net-(L1-Pad2)*%
X160662500Y-77925000D03*
%TD*%
D17*
%TO.P,R16,1*%
%TO.N,GND*%
X154500000Y-72900000D03*
%TO.P,R16,2*%
%TO.N,Net-(R15-Pad1)*%
X153480000Y-72900000D03*
%TD*%
D19*
%TO.P,L2,1,1*%
%TO.N,/torque-coil*%
X162219500Y-74867000D03*
%TO.P,L2,2,2*%
%TO.N,Net-(L2-Pad2)*%
X160644500Y-74867000D03*
%TD*%
D20*
%TO.P,C4,1*%
%TO.N,+3V3*%
X160630000Y-73075000D03*
%TO.P,C4,2*%
%TO.N,GND*%
X159670000Y-73075000D03*
%TD*%
D17*
%TO.P,R13,1*%
%TO.N,Net-(R13-Pad1)*%
X152320000Y-71760000D03*
%TO.P,R13,2*%
%TO.N,+3V3*%
X151300000Y-71760000D03*
%TD*%
D21*
%TO.P,C5,1*%
%TO.N,+3V3*%
X161875000Y-71400000D03*
%TO.P,C5,2*%
%TO.N,GND*%
X159975000Y-71400000D03*
%TD*%
D22*
%TO.P,C1,1*%
%TO.N,+3V3*%
X146900000Y-75475000D03*
%TO.P,C1,2*%
%TO.N,GND*%
X146900000Y-77050000D03*
%TD*%
D23*
%TO.P,U1,1,VDD*%
%TO.N,+3V3*%
X149461000Y-75612500D03*
%TO.P,U1,2,ADDR*%
%TO.N,GND*%
X149461000Y-76262500D03*
%TO.P,U1,3,GND*%
X149461000Y-76912500D03*
%TO.P,U1,4,SCL*%
%TO.N,SCL*%
X151451000Y-76912500D03*
%TO.P,U1,5,INT*%
%TO.N,unconnected-(U1-Pad5)*%
X151451000Y-76262500D03*
%TO.P,U1,6,SDA*%
%TO.N,SDA*%
X151451000Y-75612500D03*
D24*
%TO.P,U1,7,EXP*%
%TO.N,GND*%
X150456000Y-76262500D03*
%TD*%
D18*
%TO.P,R14,1*%
%TO.N,GND*%
X151300000Y-72920000D03*
%TO.P,R14,2*%
%TO.N,Net-(R13-Pad1)*%
X152320000Y-72920000D03*
%TD*%
D25*
%TO.N,GND*%
X146900000Y-78040500D03*
%TO.N,+3V3*%
X137686000Y-85270500D03*
X112770000Y-60300000D03*
X132860000Y-78920500D03*
X137686000Y-74856500D03*
X132860000Y-89334500D03*
%TO.N,VSOLAR*%
X112750000Y-58720000D03*
%TO.N,SCL*%
X151472000Y-78040500D03*
%TO.N,SDA*%
X151472000Y-74230500D03*
%TO.N,/torque-coil*%
X126510000Y-123580000D03*
X115725000Y-138300000D03*
X114375000Y-136950000D03*
X126600000Y-125800000D03*
X127620000Y-123560000D03*
%TD*%
D26*
%TO.N,Net-(D1-Pad2)*%
X156625000Y-46950000D02*
X154375000Y-49200000D01*
X138925000Y-48400000D02*
X139650000Y-49125000D01*
X139650000Y-49125000D02*
X143150000Y-49125000D01*
X163175000Y-48400000D02*
X162450000Y-49125000D01*
X171125000Y-48400000D02*
X163175000Y-48400000D01*
X162450000Y-49125000D02*
X158800000Y-49125000D01*
X158800000Y-49125000D02*
X156625000Y-46950000D01*
X143150000Y-49125000D02*
X145150000Y-47125000D01*
X147225000Y-49200000D02*
X145150000Y-47125000D01*
X154375000Y-49200000D02*
X147225000Y-49200000D01*
X131125000Y-48400000D02*
X138925000Y-48400000D01*
%TO.N,Net-(D1-Pad1)*%
X116750000Y-48400000D02*
X112710000Y-52440000D01*
X139250000Y-45625000D02*
X124900000Y-45625000D01*
X122125000Y-48400000D02*
X116750000Y-48400000D01*
X124900000Y-45625000D02*
X122125000Y-48400000D01*
X140750000Y-47125000D02*
X139250000Y-45625000D01*
X141150000Y-47125000D02*
X140750000Y-47125000D01*
%TO.N,Net-(D2-Pad2)*%
X180125000Y-48400000D02*
X180125000Y-46550000D01*
X180125000Y-77650000D02*
X180125000Y-48400000D01*
X162350000Y-45225000D02*
X160625000Y-46950000D01*
X180125000Y-46550000D02*
X178800000Y-45225000D01*
X189400000Y-104125000D02*
X157950000Y-104125000D01*
X157950000Y-104125000D02*
X155800000Y-101975000D01*
X155800000Y-101975000D02*
X180125000Y-77650000D01*
X178800000Y-45225000D02*
X162350000Y-45225000D01*
%TO.N,Net-(D3-Pad2)*%
X155800000Y-92975000D02*
X152910000Y-95865000D01*
X186500000Y-119000000D02*
X189275000Y-121775000D01*
X159760000Y-113420000D02*
X159760000Y-120540000D01*
X186900000Y-124550000D02*
X155750000Y-124550000D01*
X191480000Y-102010000D02*
X191480000Y-111020000D01*
X189275000Y-122175000D02*
X186900000Y-124550000D01*
X159760000Y-120540000D02*
X155750000Y-124550000D01*
X152910000Y-106570000D02*
X159760000Y-113420000D01*
X189400000Y-100125000D02*
X189595000Y-100125000D01*
X189275000Y-121775000D02*
X189275000Y-122175000D01*
X186500000Y-116000000D02*
X186500000Y-119000000D01*
X191480000Y-111020000D02*
X186500000Y-116000000D01*
X189595000Y-100125000D02*
X191480000Y-102010000D01*
X152910000Y-95865000D02*
X152910000Y-106570000D01*
%TO.N,Net-(D4-Pad2)*%
X150880000Y-125730000D02*
X149360000Y-127250000D01*
X189000000Y-127250000D02*
X191250000Y-125000000D01*
X191250000Y-119750000D02*
X189275000Y-117775000D01*
X149360000Y-127250000D02*
X119700000Y-127250000D01*
X150880000Y-120420000D02*
X155750000Y-115550000D01*
X155750000Y-115550000D02*
X146200000Y-115550000D01*
X150880000Y-125730000D02*
X150880000Y-120420000D01*
X150880000Y-125730000D02*
X152400000Y-127250000D01*
X191250000Y-125000000D02*
X191250000Y-119750000D01*
X119700000Y-127250000D02*
X113075000Y-120625000D01*
X152400000Y-127250000D02*
X189000000Y-127250000D01*
%TO.N,Net-(D5-Pad2)*%
X146200000Y-124550000D02*
X141610000Y-119960000D01*
X113075000Y-104915000D02*
X113030000Y-104870000D01*
X146200000Y-124550000D02*
X120330000Y-124550000D01*
X151215000Y-97840000D02*
X146350000Y-92975000D01*
X113075000Y-117295000D02*
X113075000Y-116625000D01*
X151380000Y-97840000D02*
X151215000Y-97840000D01*
X113075000Y-116625000D02*
X113075000Y-104915000D01*
X120330000Y-124550000D02*
X113075000Y-117295000D01*
X141610000Y-119960000D02*
X141610000Y-113510000D01*
X141610000Y-113510000D02*
X151380000Y-103740000D01*
X151380000Y-103740000D02*
X151380000Y-97840000D01*
D27*
%TO.N,GND*%
X153938989Y-78765011D02*
X147624511Y-78765011D01*
X161385000Y-76350000D02*
X161424520Y-76389520D01*
X159495000Y-72900000D02*
X159670000Y-73075000D01*
X158706999Y-74941999D02*
X158706999Y-74038001D01*
X159670000Y-71705000D02*
X159975000Y-71400000D01*
X151300000Y-72920000D02*
X150456000Y-73764000D01*
X156532000Y-75942000D02*
X156532000Y-76172000D01*
X158988520Y-78724520D02*
X156532000Y-76268000D01*
X161424520Y-78605480D02*
X161305480Y-78724520D01*
X154500000Y-72900000D02*
X159495000Y-72900000D01*
X150456000Y-76262500D02*
X149461000Y-76262500D01*
D26*
X145245000Y-100870000D02*
X146350000Y-101975000D01*
D27*
X159670000Y-73075000D02*
X159670000Y-71705000D01*
X158706999Y-74941999D02*
X157532001Y-74941999D01*
X147037500Y-76912500D02*
X146900000Y-77050000D01*
X156532000Y-76268000D02*
X156532000Y-75942000D01*
X150456000Y-73764000D02*
X150456000Y-76262500D01*
X146900000Y-77050000D02*
X146900000Y-78040500D01*
X147624511Y-78765011D02*
X146900000Y-78040500D01*
X149461000Y-76262500D02*
X149461000Y-76912500D01*
X157532001Y-74941999D02*
X156532000Y-75942000D01*
X161424520Y-76389520D02*
X161424520Y-78605480D01*
X161305480Y-78724520D02*
X158988520Y-78724520D01*
X156532000Y-76172000D02*
X153938989Y-78765011D01*
D26*
X113030000Y-100870000D02*
X145245000Y-100870000D01*
D27*
X158706999Y-74038001D02*
X159670000Y-73075000D01*
X149461000Y-76912500D02*
X147037500Y-76912500D01*
%TO.N,+3V3*%
X158706999Y-75442001D02*
X159662599Y-75442001D01*
X149461000Y-75612500D02*
X147037500Y-75612500D01*
X159662599Y-75442001D02*
X159882480Y-75222120D01*
X159882480Y-75222120D02*
X159882480Y-73837520D01*
X160630000Y-73090000D02*
X160630000Y-73075000D01*
X159882480Y-73837520D02*
X160630000Y-73090000D01*
X147037500Y-75612500D02*
X146900000Y-75475000D01*
D26*
%TO.N,VSOLAR*%
X112710000Y-56440000D02*
X112710000Y-58680000D01*
X112710000Y-58680000D02*
X112750000Y-58720000D01*
D27*
%TO.N,SCL*%
X151472000Y-76933500D02*
X151451000Y-76912500D01*
X151472000Y-78040500D02*
X151472000Y-76933500D01*
X151451000Y-76912500D02*
X154327500Y-76912500D01*
X154327500Y-76912500D02*
X154357001Y-76942001D01*
%TO.N,SDA*%
X151472000Y-74230500D02*
X151472000Y-75591500D01*
X151451000Y-75612500D02*
X152071000Y-75612500D01*
X152921480Y-76462980D02*
X152942461Y-76441999D01*
X152071000Y-75612500D02*
X152921480Y-76462980D01*
X152942461Y-76441999D02*
X154357001Y-76441999D01*
X151472000Y-75591500D02*
X151451000Y-75612500D01*
%TO.N,Net-(L1-Pad2)*%
X159679501Y-76942001D02*
X160662500Y-77925000D01*
X158706999Y-76942001D02*
X159679501Y-76942001D01*
%TO.N,Net-(R17-Pad2)*%
X160273001Y-76441999D02*
X160365000Y-76350000D01*
X158706999Y-76441999D02*
X160273001Y-76441999D01*
%TO.N,Net-(L2-Pad2)*%
X160644500Y-75100641D02*
X160644500Y-74867000D01*
X158706999Y-75942000D02*
X159803141Y-75942000D01*
X159803141Y-75942000D02*
X160644500Y-75100641D01*
%TO.N,Net-(R15-Pad1)*%
X153232000Y-75306620D02*
X153232000Y-73148000D01*
X154357001Y-75442001D02*
X153367381Y-75442001D01*
X153367381Y-75442001D02*
X153232000Y-75306620D01*
X153480000Y-72900000D02*
X153480000Y-71760000D01*
%TO.N,Net-(R13-Pad1)*%
X153181183Y-75992479D02*
X153086697Y-75992479D01*
X152320000Y-75225782D02*
X152320000Y-72920000D01*
X154357001Y-75942000D02*
X153231662Y-75942000D01*
X153086697Y-75992479D02*
X152320000Y-75225782D01*
X153231662Y-75942000D02*
X153181183Y-75992479D01*
X152320000Y-72920000D02*
X152320000Y-71760000D01*
%TO.N,/torque-coil*%
X162237500Y-78428218D02*
X161417718Y-79248000D01*
X162219500Y-74867000D02*
X162837000Y-74867000D01*
X142970000Y-95340000D02*
X148500000Y-100870000D01*
X162837000Y-74867000D02*
X163350000Y-75380000D01*
X162237500Y-77925000D02*
X162237500Y-78428218D01*
X142970000Y-92160000D02*
X142970000Y-95340000D01*
X163350000Y-75380000D02*
X163350000Y-78500000D01*
X156530000Y-79730000D02*
X143810000Y-92450000D01*
X163350000Y-78500000D02*
X162120000Y-79730000D01*
X149670000Y-103600000D02*
X129710000Y-123560000D01*
X129710000Y-123560000D02*
X127620000Y-123560000D01*
X149670000Y-100820000D02*
X149670000Y-103600000D01*
X162120000Y-79730000D02*
X156530000Y-79730000D01*
X161417718Y-79248000D02*
X155882000Y-79248000D01*
X143810000Y-94960000D02*
X149670000Y-100820000D01*
X130970000Y-121210000D02*
X128880000Y-121210000D01*
X148500000Y-100870000D02*
X148500000Y-103680000D01*
X143810000Y-92450000D02*
X143810000Y-94960000D01*
X155882000Y-79248000D02*
X142970000Y-92160000D01*
X148500000Y-103680000D02*
X130970000Y-121210000D01*
X128880000Y-121210000D02*
X126510000Y-123580000D01*
%TD*%
%TA.AperFunction,Conductor*%
%TO.N,+3V3*%
G36*
X150513285Y-43923713D02*
G01*
X150549830Y-43974013D01*
X150549830Y-44036187D01*
X150513285Y-44086487D01*
X150480700Y-44102134D01*
X150449801Y-44110587D01*
X150179592Y-44225841D01*
X149927525Y-44376700D01*
X149924854Y-44378840D01*
X149924851Y-44378842D01*
X149700941Y-44558227D01*
X149700937Y-44558231D01*
X149698263Y-44560373D01*
X149695903Y-44562860D01*
X149533099Y-44734420D01*
X149496050Y-44773461D01*
X149494052Y-44776242D01*
X149494050Y-44776244D01*
X149400775Y-44906051D01*
X149324628Y-45012021D01*
X149323030Y-45015040D01*
X149323027Y-45015044D01*
X149312805Y-45034350D01*
X149187168Y-45271638D01*
X149185995Y-45274844D01*
X149185993Y-45274848D01*
X149127100Y-45435782D01*
X149086213Y-45547509D01*
X149085485Y-45550846D01*
X149085484Y-45550851D01*
X149040108Y-45758965D01*
X149023633Y-45834529D01*
X149023365Y-45837936D01*
X149023364Y-45837942D01*
X149004323Y-46079880D01*
X149000584Y-46127386D01*
X149017495Y-46420661D01*
X149018154Y-46424022D01*
X149018155Y-46424027D01*
X149040286Y-46536829D01*
X149074050Y-46708929D01*
X149169205Y-46986853D01*
X149192251Y-47032674D01*
X149283592Y-47214286D01*
X149301198Y-47249292D01*
X149303141Y-47252119D01*
X149389863Y-47378300D01*
X149467587Y-47491390D01*
X149469888Y-47493919D01*
X149469889Y-47493920D01*
X149602178Y-47639303D01*
X149665293Y-47708666D01*
X149739239Y-47770494D01*
X149881667Y-47889582D01*
X149890658Y-47897100D01*
X149893563Y-47898922D01*
X149893564Y-47898923D01*
X150109261Y-48034229D01*
X150139511Y-48053205D01*
X150142628Y-48054612D01*
X150142631Y-48054614D01*
X150339869Y-48143670D01*
X150407247Y-48174092D01*
X150410523Y-48175062D01*
X150410530Y-48175065D01*
X150659160Y-48248712D01*
X150688912Y-48257525D01*
X150764535Y-48269097D01*
X150975901Y-48301441D01*
X150975906Y-48301441D01*
X150979295Y-48301960D01*
X150982720Y-48302014D01*
X150982722Y-48302014D01*
X151108415Y-48303988D01*
X151273021Y-48306574D01*
X151276425Y-48306162D01*
X151276427Y-48306162D01*
X151373361Y-48294432D01*
X151564656Y-48271283D01*
X151567961Y-48270416D01*
X151567966Y-48270415D01*
X151845491Y-48197607D01*
X151845492Y-48197607D01*
X151848803Y-48196738D01*
X151996354Y-48135621D01*
X152117036Y-48085633D01*
X152117040Y-48085631D01*
X152120205Y-48084320D01*
X152123256Y-48082537D01*
X152370876Y-47937840D01*
X152370878Y-47937839D01*
X152373838Y-47936109D01*
X152376531Y-47933997D01*
X152376536Y-47933994D01*
X152602318Y-47756958D01*
X152602320Y-47756956D01*
X152605010Y-47754847D01*
X152652218Y-47706132D01*
X152807067Y-47546340D01*
X152807068Y-47546339D01*
X152809443Y-47543888D01*
X152983355Y-47307136D01*
X153123526Y-47048973D01*
X153129685Y-47032674D01*
X153226156Y-46777372D01*
X153226158Y-46777366D01*
X153227364Y-46774174D01*
X153228241Y-46770347D01*
X153292184Y-46491159D01*
X153292185Y-46491154D01*
X153292947Y-46487826D01*
X153295984Y-46453797D01*
X153318885Y-46197192D01*
X153318886Y-46197181D01*
X153319060Y-46195226D01*
X153319534Y-46150000D01*
X153299554Y-45856918D01*
X153239982Y-45569259D01*
X153141922Y-45292346D01*
X153053083Y-45120223D01*
X153008761Y-45034350D01*
X153008759Y-45034346D01*
X153007188Y-45031303D01*
X152995761Y-45015044D01*
X152840242Y-44793762D01*
X152840239Y-44793758D01*
X152838273Y-44790961D01*
X152835947Y-44788458D01*
X152835943Y-44788453D01*
X152640636Y-44578278D01*
X152638303Y-44575767D01*
X152635660Y-44573604D01*
X152635655Y-44573599D01*
X152516480Y-44476057D01*
X152410977Y-44389704D01*
X152160504Y-44236213D01*
X152133812Y-44224496D01*
X151894649Y-44119511D01*
X151894645Y-44119510D01*
X151891516Y-44118136D01*
X151888226Y-44117199D01*
X151888221Y-44117197D01*
X151834347Y-44101851D01*
X151782741Y-44067174D01*
X151761375Y-44008786D01*
X151778408Y-43948991D01*
X151827335Y-43910627D01*
X151861907Y-43904500D01*
X188954154Y-43904500D01*
X189013285Y-43923713D01*
X189049830Y-43974013D01*
X189049830Y-44036187D01*
X189013285Y-44086487D01*
X188980700Y-44102134D01*
X188949801Y-44110587D01*
X188679592Y-44225841D01*
X188427525Y-44376700D01*
X188424854Y-44378840D01*
X188424851Y-44378842D01*
X188200941Y-44558227D01*
X188200937Y-44558231D01*
X188198263Y-44560373D01*
X188195903Y-44562860D01*
X188033099Y-44734420D01*
X187996050Y-44773461D01*
X187994052Y-44776242D01*
X187994050Y-44776244D01*
X187900775Y-44906051D01*
X187824628Y-45012021D01*
X187823030Y-45015040D01*
X187823027Y-45015044D01*
X187812805Y-45034350D01*
X187687168Y-45271638D01*
X187685995Y-45274844D01*
X187685993Y-45274848D01*
X187627100Y-45435782D01*
X187586213Y-45547509D01*
X187585485Y-45550846D01*
X187585484Y-45550851D01*
X187540108Y-45758965D01*
X187523633Y-45834529D01*
X187523365Y-45837936D01*
X187523364Y-45837942D01*
X187504323Y-46079880D01*
X187500584Y-46127386D01*
X187517495Y-46420661D01*
X187518154Y-46424022D01*
X187518155Y-46424027D01*
X187540286Y-46536829D01*
X187574050Y-46708929D01*
X187669205Y-46986853D01*
X187692251Y-47032674D01*
X187783592Y-47214286D01*
X187801198Y-47249292D01*
X187803141Y-47252119D01*
X187889863Y-47378300D01*
X187967587Y-47491390D01*
X187969888Y-47493919D01*
X187969889Y-47493920D01*
X188102178Y-47639303D01*
X188165293Y-47708666D01*
X188239239Y-47770494D01*
X188381667Y-47889582D01*
X188390658Y-47897100D01*
X188393563Y-47898922D01*
X188393564Y-47898923D01*
X188609261Y-48034229D01*
X188639511Y-48053205D01*
X188642628Y-48054612D01*
X188642631Y-48054614D01*
X188839869Y-48143670D01*
X188907247Y-48174092D01*
X188910523Y-48175062D01*
X188910530Y-48175065D01*
X189159160Y-48248712D01*
X189188912Y-48257525D01*
X189264535Y-48269097D01*
X189475901Y-48301441D01*
X189475906Y-48301441D01*
X189479295Y-48301960D01*
X189482720Y-48302014D01*
X189482722Y-48302014D01*
X189608415Y-48303988D01*
X189773021Y-48306574D01*
X189776425Y-48306162D01*
X189776427Y-48306162D01*
X189873361Y-48294432D01*
X190064656Y-48271283D01*
X190067961Y-48270416D01*
X190067966Y-48270415D01*
X190345491Y-48197607D01*
X190345492Y-48197607D01*
X190348803Y-48196738D01*
X190496354Y-48135621D01*
X190617036Y-48085633D01*
X190617040Y-48085631D01*
X190620205Y-48084320D01*
X190623256Y-48082537D01*
X190870876Y-47937840D01*
X190870878Y-47937839D01*
X190873838Y-47936109D01*
X190876531Y-47933997D01*
X190876536Y-47933994D01*
X191102318Y-47756958D01*
X191102320Y-47756956D01*
X191105010Y-47754847D01*
X191152218Y-47706132D01*
X191307067Y-47546340D01*
X191307068Y-47546339D01*
X191309443Y-47543888D01*
X191483355Y-47307136D01*
X191623526Y-47048973D01*
X191630488Y-47030550D01*
X191707388Y-46827039D01*
X191710794Y-46818025D01*
X191749668Y-46769503D01*
X191809639Y-46753097D01*
X191867799Y-46775074D01*
X191901934Y-46827039D01*
X191905500Y-46853585D01*
X191905500Y-92451209D01*
X191886287Y-92510340D01*
X191835987Y-92546885D01*
X191773813Y-92546885D01*
X191723513Y-92510340D01*
X191710070Y-92484790D01*
X191643063Y-92295568D01*
X191641922Y-92292346D01*
X191539471Y-92093851D01*
X191508761Y-92034350D01*
X191508759Y-92034346D01*
X191507188Y-92031303D01*
X191495761Y-92015044D01*
X191340242Y-91793762D01*
X191340239Y-91793758D01*
X191338273Y-91790961D01*
X191335947Y-91788458D01*
X191335943Y-91788453D01*
X191170329Y-91610231D01*
X191138303Y-91575767D01*
X191135660Y-91573604D01*
X191135655Y-91573599D01*
X190993661Y-91457380D01*
X190910977Y-91389704D01*
X190660504Y-91236213D01*
X190504322Y-91167654D01*
X190394649Y-91119511D01*
X190394645Y-91119510D01*
X190391516Y-91118136D01*
X190388226Y-91117199D01*
X190388221Y-91117197D01*
X190112292Y-91038597D01*
X190108992Y-91037657D01*
X190105603Y-91037175D01*
X190105595Y-91037173D01*
X189821547Y-90996747D01*
X189821546Y-90996747D01*
X189818160Y-90996265D01*
X189814747Y-90996247D01*
X189814745Y-90996247D01*
X189653788Y-90995404D01*
X189524402Y-90994727D01*
X189521007Y-90995174D01*
X189521006Y-90995174D01*
X189475029Y-91001227D01*
X189233152Y-91033071D01*
X188949801Y-91110587D01*
X188946648Y-91111932D01*
X188694775Y-91219365D01*
X188679592Y-91225841D01*
X188427525Y-91376700D01*
X188424854Y-91378840D01*
X188424851Y-91378842D01*
X188200941Y-91558227D01*
X188200937Y-91558231D01*
X188198263Y-91560373D01*
X188195903Y-91562860D01*
X188012924Y-91755680D01*
X187996050Y-91773461D01*
X187994052Y-91776242D01*
X187994050Y-91776244D01*
X187880732Y-91933943D01*
X187824628Y-92012021D01*
X187823030Y-92015040D01*
X187823027Y-92015044D01*
X187772154Y-92111128D01*
X187687168Y-92271638D01*
X187685995Y-92274844D01*
X187685993Y-92274848D01*
X187651459Y-92369217D01*
X187586213Y-92547509D01*
X187585485Y-92550846D01*
X187585484Y-92550851D01*
X187549707Y-92714941D01*
X187523633Y-92834529D01*
X187523365Y-92837936D01*
X187523364Y-92837942D01*
X187516202Y-92928944D01*
X187500584Y-93127386D01*
X187517495Y-93420661D01*
X187574050Y-93708929D01*
X187669205Y-93986853D01*
X187801198Y-94249292D01*
X187803141Y-94252119D01*
X187903678Y-94398401D01*
X187967587Y-94491390D01*
X187969888Y-94493919D01*
X187969889Y-94493920D01*
X188161054Y-94704007D01*
X188165293Y-94708666D01*
X188390658Y-94897100D01*
X188393563Y-94898922D01*
X188393564Y-94898923D01*
X188576205Y-95013493D01*
X188639511Y-95053205D01*
X188642628Y-95054612D01*
X188642631Y-95054614D01*
X188708423Y-95084320D01*
X188907247Y-95174092D01*
X188910523Y-95175062D01*
X188910530Y-95175065D01*
X189185617Y-95256549D01*
X189188912Y-95257525D01*
X189264535Y-95269097D01*
X189475901Y-95301441D01*
X189475906Y-95301441D01*
X189479295Y-95301960D01*
X189482720Y-95302014D01*
X189482722Y-95302014D01*
X189608415Y-95303988D01*
X189773021Y-95306574D01*
X189776425Y-95306162D01*
X189776427Y-95306162D01*
X189873361Y-95294432D01*
X190064656Y-95271283D01*
X190067961Y-95270416D01*
X190067966Y-95270415D01*
X190345491Y-95197607D01*
X190345492Y-95197607D01*
X190348803Y-95196738D01*
X190504252Y-95132349D01*
X190617036Y-95085633D01*
X190617040Y-95085631D01*
X190620205Y-95084320D01*
X190623164Y-95082591D01*
X190870876Y-94937840D01*
X190870878Y-94937839D01*
X190873838Y-94936109D01*
X190876531Y-94933997D01*
X190876536Y-94933994D01*
X191102318Y-94756958D01*
X191102320Y-94756956D01*
X191105010Y-94754847D01*
X191309443Y-94543888D01*
X191316959Y-94533657D01*
X191418087Y-94395987D01*
X191483355Y-94307136D01*
X191623526Y-94048973D01*
X191629243Y-94033845D01*
X191710794Y-93818025D01*
X191749668Y-93769503D01*
X191809639Y-93753097D01*
X191867799Y-93775074D01*
X191901934Y-93827039D01*
X191905500Y-93853585D01*
X191905500Y-101479159D01*
X191886287Y-101538290D01*
X191835987Y-101574835D01*
X191773813Y-101574835D01*
X191733765Y-101550294D01*
X190533965Y-100350494D01*
X190505739Y-100295096D01*
X190504500Y-100279359D01*
X190504499Y-98854872D01*
X190504499Y-98849934D01*
X190489734Y-98775699D01*
X190484230Y-98767461D01*
X190438988Y-98699753D01*
X190433484Y-98691516D01*
X190349301Y-98635266D01*
X190300761Y-98625611D01*
X190279919Y-98621465D01*
X190279918Y-98621465D01*
X190275067Y-98620500D01*
X190270120Y-98620500D01*
X189399204Y-98620501D01*
X188524934Y-98620501D01*
X188489452Y-98627558D01*
X188460416Y-98633333D01*
X188460414Y-98633334D01*
X188450699Y-98635266D01*
X188366516Y-98691516D01*
X188310266Y-98775699D01*
X188295500Y-98849933D01*
X188295501Y-101400066D01*
X188296465Y-101404911D01*
X188306848Y-101457114D01*
X188310266Y-101474301D01*
X188315769Y-101482536D01*
X188315769Y-101482537D01*
X188361012Y-101550247D01*
X188366516Y-101558484D01*
X188450699Y-101614734D01*
X188499239Y-101624389D01*
X188520081Y-101628535D01*
X188520082Y-101628535D01*
X188524933Y-101629500D01*
X188529880Y-101629500D01*
X189400796Y-101629499D01*
X190275066Y-101629499D01*
X190314885Y-101621579D01*
X190376627Y-101628889D01*
X190405642Y-101649112D01*
X190946035Y-102189505D01*
X190974261Y-102244903D01*
X190975500Y-102260640D01*
X190975500Y-110769359D01*
X190956287Y-110828490D01*
X190946035Y-110840494D01*
X186191197Y-115595332D01*
X186181155Y-115603355D01*
X186181180Y-115603384D01*
X186175724Y-115608028D01*
X186169661Y-115611853D01*
X186164916Y-115617226D01*
X186133815Y-115652441D01*
X186129547Y-115656982D01*
X186117649Y-115668880D01*
X186115505Y-115671741D01*
X186110831Y-115677977D01*
X186105742Y-115684227D01*
X186073999Y-115720170D01*
X186069638Y-115729459D01*
X186059080Y-115747029D01*
X186057231Y-115749496D01*
X186057229Y-115749500D01*
X186052930Y-115755236D01*
X186050414Y-115761947D01*
X186050413Y-115761949D01*
X186036098Y-115800134D01*
X186032963Y-115807573D01*
X186012583Y-115850982D01*
X186011481Y-115858059D01*
X186011480Y-115858063D01*
X186011006Y-115861111D01*
X186005801Y-115880952D01*
X186002202Y-115890552D01*
X186001671Y-115897704D01*
X185998650Y-115938357D01*
X185997729Y-115946382D01*
X185995500Y-115960697D01*
X185995500Y-115977016D01*
X185995223Y-115984470D01*
X185991493Y-116034667D01*
X185992990Y-116041678D01*
X185993283Y-116043052D01*
X185995500Y-116064054D01*
X185995500Y-118932215D01*
X185994073Y-118944989D01*
X185994111Y-118944992D01*
X185993537Y-118952130D01*
X185991954Y-118959124D01*
X185992398Y-118966279D01*
X185995307Y-119013172D01*
X185995500Y-119019401D01*
X185995500Y-119036226D01*
X185996007Y-119039764D01*
X185996008Y-119039781D01*
X185997110Y-119047475D01*
X185997933Y-119055504D01*
X186000902Y-119103359D01*
X186004386Y-119113010D01*
X186009345Y-119132901D01*
X186009783Y-119135962D01*
X186009784Y-119135965D01*
X186010799Y-119143052D01*
X186013763Y-119149572D01*
X186013764Y-119149574D01*
X186030644Y-119186701D01*
X186033688Y-119194178D01*
X186049972Y-119239284D01*
X186054200Y-119245071D01*
X186056021Y-119247564D01*
X186066366Y-119265267D01*
X186070612Y-119274605D01*
X186101920Y-119310939D01*
X186106928Y-119317247D01*
X186113183Y-119325810D01*
X186113187Y-119325814D01*
X186115473Y-119328944D01*
X186127006Y-119340477D01*
X186132082Y-119345944D01*
X186160267Y-119378655D01*
X186160270Y-119378658D01*
X186164944Y-119384082D01*
X186170958Y-119387980D01*
X186170959Y-119387981D01*
X186172142Y-119388748D01*
X186188559Y-119402030D01*
X188141035Y-121354506D01*
X188169261Y-121409904D01*
X188170500Y-121425641D01*
X188170501Y-122524358D01*
X188151288Y-122583489D01*
X188141036Y-122595493D01*
X186720494Y-124016035D01*
X186665096Y-124044261D01*
X186649359Y-124045500D01*
X157505212Y-124045500D01*
X157446081Y-124026287D01*
X157411452Y-123981361D01*
X157339382Y-123796033D01*
X157339379Y-123796027D01*
X157338027Y-123792550D01*
X157333567Y-123784746D01*
X157320908Y-123723874D01*
X157349775Y-123663696D01*
X160068803Y-120944668D01*
X160078845Y-120936645D01*
X160078820Y-120936616D01*
X160084276Y-120931972D01*
X160090339Y-120928147D01*
X160126186Y-120887558D01*
X160130453Y-120883018D01*
X160142351Y-120871120D01*
X160149172Y-120862019D01*
X160154244Y-120855789D01*
X160186001Y-120819830D01*
X160190358Y-120810549D01*
X160200923Y-120792967D01*
X160202773Y-120790498D01*
X160207070Y-120784765D01*
X160223909Y-120739847D01*
X160227035Y-120732430D01*
X160244371Y-120695507D01*
X160244372Y-120695503D01*
X160247417Y-120689018D01*
X160248994Y-120678889D01*
X160254200Y-120659044D01*
X160255284Y-120656154D01*
X160255284Y-120656153D01*
X160257798Y-120649448D01*
X160261352Y-120601633D01*
X160262270Y-120593631D01*
X160264500Y-120579303D01*
X160264500Y-120562984D01*
X160264777Y-120555529D01*
X160267976Y-120512483D01*
X160267976Y-120512481D01*
X160268507Y-120505334D01*
X160266717Y-120496948D01*
X160264500Y-120475947D01*
X160264500Y-113487785D01*
X160265927Y-113475011D01*
X160265889Y-113475008D01*
X160266463Y-113467870D01*
X160268046Y-113460876D01*
X160264693Y-113406829D01*
X160264500Y-113400600D01*
X160264500Y-113383774D01*
X160263993Y-113380234D01*
X160263992Y-113380220D01*
X160262890Y-113372526D01*
X160262067Y-113364497D01*
X160259542Y-113323797D01*
X160259542Y-113323796D01*
X160259098Y-113316642D01*
X160255614Y-113306991D01*
X160250655Y-113287099D01*
X160250217Y-113284040D01*
X160250216Y-113284038D01*
X160249201Y-113276948D01*
X160229354Y-113233297D01*
X160226313Y-113225827D01*
X160212463Y-113187461D01*
X160210028Y-113180716D01*
X160203979Y-113172436D01*
X160193634Y-113154733D01*
X160192355Y-113151920D01*
X160192354Y-113151918D01*
X160189388Y-113145395D01*
X160158080Y-113109061D01*
X160153072Y-113102753D01*
X160146817Y-113094190D01*
X160146813Y-113094186D01*
X160144527Y-113091056D01*
X160132994Y-113079523D01*
X160127918Y-113074056D01*
X160099733Y-113041345D01*
X160099730Y-113041342D01*
X160095056Y-113035918D01*
X160089041Y-113032019D01*
X160087858Y-113031252D01*
X160071441Y-113017970D01*
X153443965Y-106390494D01*
X153415739Y-106335096D01*
X153414500Y-106319359D01*
X153414500Y-101928944D01*
X154041183Y-101928944D01*
X154053694Y-102189419D01*
X154104569Y-102445185D01*
X154105831Y-102448700D01*
X154190626Y-102684871D01*
X154192690Y-102690621D01*
X154316120Y-102920336D01*
X154318350Y-102923322D01*
X154318353Y-102923327D01*
X154402980Y-103036655D01*
X154472149Y-103129283D01*
X154657348Y-103312873D01*
X154730438Y-103366465D01*
X154864641Y-103464868D01*
X154864646Y-103464871D01*
X154867649Y-103467073D01*
X154910008Y-103489359D01*
X155095127Y-103586755D01*
X155095131Y-103586757D01*
X155098433Y-103588494D01*
X155101960Y-103589726D01*
X155101963Y-103589727D01*
X155304868Y-103660584D01*
X155344629Y-103674469D01*
X155600828Y-103723110D01*
X155604557Y-103723256D01*
X155604561Y-103723257D01*
X155770618Y-103729781D01*
X155861403Y-103733348D01*
X155954885Y-103723110D01*
X156116916Y-103705365D01*
X156116921Y-103705364D01*
X156120629Y-103704958D01*
X156241114Y-103673237D01*
X156369204Y-103639514D01*
X156369208Y-103639512D01*
X156372811Y-103638564D01*
X156376240Y-103637091D01*
X156376248Y-103637088D01*
X156574074Y-103552096D01*
X156635987Y-103546407D01*
X156684920Y-103573391D01*
X157545332Y-104433803D01*
X157553355Y-104443845D01*
X157553384Y-104443820D01*
X157558028Y-104449276D01*
X157561853Y-104455339D01*
X157567226Y-104460084D01*
X157602441Y-104491185D01*
X157606982Y-104495453D01*
X157618880Y-104507351D01*
X157621741Y-104509495D01*
X157627977Y-104514169D01*
X157634227Y-104519258D01*
X157670170Y-104551001D01*
X157679459Y-104555362D01*
X157697029Y-104565920D01*
X157699496Y-104567769D01*
X157699500Y-104567771D01*
X157705236Y-104572070D01*
X157711947Y-104574586D01*
X157711949Y-104574587D01*
X157750134Y-104588902D01*
X157757573Y-104592037D01*
X157800982Y-104612417D01*
X157808059Y-104613519D01*
X157808063Y-104613520D01*
X157811111Y-104613994D01*
X157830952Y-104619199D01*
X157840552Y-104622798D01*
X157880299Y-104625751D01*
X157888357Y-104626350D01*
X157896382Y-104627271D01*
X157906856Y-104628902D01*
X157906858Y-104628902D01*
X157910697Y-104629500D01*
X157927016Y-104629500D01*
X157934471Y-104629777D01*
X157977518Y-104632976D01*
X157977520Y-104632976D01*
X157984667Y-104633507D01*
X157993053Y-104631717D01*
X158014054Y-104629500D01*
X188194901Y-104629500D01*
X188254032Y-104648713D01*
X188290577Y-104699013D01*
X188295501Y-104730100D01*
X188295501Y-105400066D01*
X188310266Y-105474301D01*
X188315769Y-105482536D01*
X188315769Y-105482537D01*
X188361012Y-105550247D01*
X188366516Y-105558484D01*
X188450699Y-105614734D01*
X188499239Y-105624389D01*
X188520081Y-105628535D01*
X188520082Y-105628535D01*
X188524933Y-105629500D01*
X188529880Y-105629500D01*
X189400796Y-105629499D01*
X190275066Y-105629499D01*
X190310548Y-105622442D01*
X190339584Y-105616667D01*
X190339586Y-105616666D01*
X190349301Y-105614734D01*
X190433484Y-105558484D01*
X190489734Y-105474301D01*
X190504500Y-105400067D01*
X190504499Y-102849934D01*
X190496778Y-102811114D01*
X190491667Y-102785416D01*
X190491666Y-102785414D01*
X190489734Y-102775699D01*
X190484230Y-102767461D01*
X190438988Y-102699753D01*
X190433484Y-102691516D01*
X190349301Y-102635266D01*
X190300761Y-102625611D01*
X190279919Y-102621465D01*
X190279918Y-102621465D01*
X190275067Y-102620500D01*
X190270120Y-102620500D01*
X189399204Y-102620501D01*
X188524934Y-102620501D01*
X188489452Y-102627558D01*
X188460416Y-102633333D01*
X188460414Y-102633334D01*
X188450699Y-102635266D01*
X188366516Y-102691516D01*
X188310266Y-102775699D01*
X188295500Y-102849933D01*
X188295500Y-103519900D01*
X188276287Y-103579031D01*
X188225987Y-103615576D01*
X188194900Y-103620500D01*
X158200641Y-103620500D01*
X158141510Y-103601287D01*
X158129506Y-103591035D01*
X157397434Y-102858963D01*
X157369208Y-102803565D01*
X157376846Y-102746510D01*
X157451780Y-102580163D01*
X157451781Y-102580160D01*
X157453314Y-102576757D01*
X157491454Y-102441523D01*
X157523086Y-102329365D01*
X157523087Y-102329361D01*
X157524099Y-102325772D01*
X157526234Y-102308988D01*
X157556691Y-102069582D01*
X157556691Y-102069579D01*
X157557009Y-102067081D01*
X157559420Y-101975000D01*
X157540094Y-101714941D01*
X157530648Y-101673193D01*
X157483367Y-101464240D01*
X157483366Y-101464237D01*
X157482542Y-101460595D01*
X157481192Y-101457122D01*
X157481189Y-101457114D01*
X157389382Y-101221033D01*
X157389379Y-101221027D01*
X157388027Y-101217550D01*
X157383567Y-101209746D01*
X157370908Y-101148874D01*
X157399775Y-101088696D01*
X180433803Y-78054668D01*
X180443845Y-78046645D01*
X180443820Y-78046616D01*
X180449276Y-78041972D01*
X180455339Y-78038147D01*
X180491186Y-77997558D01*
X180495453Y-77993018D01*
X180507351Y-77981120D01*
X180514169Y-77972023D01*
X180519258Y-77965773D01*
X180551001Y-77929830D01*
X180555362Y-77920541D01*
X180565920Y-77902971D01*
X180567769Y-77900504D01*
X180567771Y-77900500D01*
X180572070Y-77894764D01*
X180578520Y-77877561D01*
X180588902Y-77849866D01*
X180592037Y-77842427D01*
X180609371Y-77805506D01*
X180612417Y-77799018D01*
X180613519Y-77791941D01*
X180613520Y-77791937D01*
X180613994Y-77788889D01*
X180619200Y-77769044D01*
X180620282Y-77766158D01*
X180622798Y-77759448D01*
X180626350Y-77711643D01*
X180627271Y-77703618D01*
X180628902Y-77693144D01*
X180628902Y-77693142D01*
X180629500Y-77689303D01*
X180629500Y-77672984D01*
X180629777Y-77665529D01*
X180632976Y-77622482D01*
X180632976Y-77622480D01*
X180633507Y-77615333D01*
X180631717Y-77606947D01*
X180629500Y-77585946D01*
X180629500Y-50158550D01*
X180648713Y-50099419D01*
X180696818Y-50063825D01*
X180697811Y-50063564D01*
X180708984Y-50058764D01*
X180933979Y-49962099D01*
X180933978Y-49962099D01*
X180937410Y-49960625D01*
X181159161Y-49823401D01*
X181295507Y-49707976D01*
X181355339Y-49657324D01*
X181358194Y-49654907D01*
X181422321Y-49581784D01*
X181527671Y-49461655D01*
X181527673Y-49461653D01*
X181530135Y-49458845D01*
X181532153Y-49455707D01*
X181532158Y-49455701D01*
X181669183Y-49242672D01*
X181669186Y-49242667D01*
X181671208Y-49239523D01*
X181672743Y-49236116D01*
X181672746Y-49236110D01*
X181776780Y-49005163D01*
X181776781Y-49005160D01*
X181778314Y-49001757D01*
X181849099Y-48750772D01*
X181865672Y-48620500D01*
X181881691Y-48494582D01*
X181881691Y-48494579D01*
X181882009Y-48492081D01*
X181884420Y-48400000D01*
X181865094Y-48139941D01*
X181855648Y-48098193D01*
X181808367Y-47889240D01*
X181808366Y-47889237D01*
X181807542Y-47885595D01*
X181806192Y-47882122D01*
X181806189Y-47882114D01*
X181714381Y-47646032D01*
X181713027Y-47642550D01*
X181583625Y-47416145D01*
X181422180Y-47211353D01*
X181386517Y-47177804D01*
X181234957Y-47035231D01*
X181232239Y-47032674D01*
X181229182Y-47030554D01*
X181229178Y-47030550D01*
X181115977Y-46952020D01*
X181017973Y-46884032D01*
X180784090Y-46768694D01*
X180780535Y-46767556D01*
X180780533Y-46767555D01*
X180726371Y-46750218D01*
X180699430Y-46741595D01*
X180648972Y-46705270D01*
X180629500Y-46645784D01*
X180629500Y-46617785D01*
X180630927Y-46605011D01*
X180630889Y-46605008D01*
X180631463Y-46597870D01*
X180633046Y-46590876D01*
X180629693Y-46536829D01*
X180629500Y-46530600D01*
X180629500Y-46513774D01*
X180628993Y-46510234D01*
X180628992Y-46510220D01*
X180627890Y-46502526D01*
X180627067Y-46494497D01*
X180624542Y-46453797D01*
X180624542Y-46453796D01*
X180624098Y-46446642D01*
X180620614Y-46436991D01*
X180615655Y-46417099D01*
X180615217Y-46414040D01*
X180615216Y-46414038D01*
X180614201Y-46406948D01*
X180594354Y-46363297D01*
X180591313Y-46355827D01*
X180577463Y-46317461D01*
X180575028Y-46310716D01*
X180568979Y-46302436D01*
X180558634Y-46284733D01*
X180557355Y-46281920D01*
X180557354Y-46281918D01*
X180554388Y-46275395D01*
X180523080Y-46239061D01*
X180518072Y-46232753D01*
X180511817Y-46224190D01*
X180511813Y-46224186D01*
X180509527Y-46221056D01*
X180497994Y-46209523D01*
X180492918Y-46204056D01*
X180464733Y-46171345D01*
X180464730Y-46171342D01*
X180460056Y-46165918D01*
X180454041Y-46162019D01*
X180452858Y-46161252D01*
X180436441Y-46147970D01*
X179204668Y-44916197D01*
X179196645Y-44906155D01*
X179196616Y-44906180D01*
X179191972Y-44900724D01*
X179188147Y-44894661D01*
X179147558Y-44858814D01*
X179143018Y-44854547D01*
X179131120Y-44842649D01*
X179122023Y-44835831D01*
X179115773Y-44830742D01*
X179079830Y-44798999D01*
X179070541Y-44794638D01*
X179052971Y-44784080D01*
X179050504Y-44782231D01*
X179050500Y-44782229D01*
X179044764Y-44777930D01*
X179038053Y-44775414D01*
X179038051Y-44775413D01*
X178999866Y-44761098D01*
X178992427Y-44757963D01*
X178955506Y-44740629D01*
X178949018Y-44737583D01*
X178941941Y-44736481D01*
X178941937Y-44736480D01*
X178938889Y-44736006D01*
X178919048Y-44730801D01*
X178909448Y-44727202D01*
X178869701Y-44724249D01*
X178861643Y-44723650D01*
X178853618Y-44722729D01*
X178843144Y-44721098D01*
X178843142Y-44721098D01*
X178839303Y-44720500D01*
X178822984Y-44720500D01*
X178815529Y-44720223D01*
X178772482Y-44717024D01*
X178772480Y-44717024D01*
X178765333Y-44716493D01*
X178756948Y-44718283D01*
X178735946Y-44720500D01*
X162417785Y-44720500D01*
X162405011Y-44719073D01*
X162405008Y-44719111D01*
X162397870Y-44718537D01*
X162390876Y-44716954D01*
X162356107Y-44719111D01*
X162336828Y-44720307D01*
X162330599Y-44720500D01*
X162313774Y-44720500D01*
X162310236Y-44721007D01*
X162310219Y-44721008D01*
X162302525Y-44722110D01*
X162294496Y-44722933D01*
X162253796Y-44725458D01*
X162253795Y-44725458D01*
X162246641Y-44725902D01*
X162236990Y-44729386D01*
X162217099Y-44734345D01*
X162214038Y-44734783D01*
X162214035Y-44734784D01*
X162206948Y-44735799D01*
X162200429Y-44738763D01*
X162163296Y-44755646D01*
X162155818Y-44758690D01*
X162117453Y-44772540D01*
X162117450Y-44772542D01*
X162110715Y-44774973D01*
X162104927Y-44779201D01*
X162104926Y-44779202D01*
X162102437Y-44781020D01*
X162084735Y-44791365D01*
X162081922Y-44792644D01*
X162081919Y-44792646D01*
X162075395Y-44795612D01*
X162039061Y-44826920D01*
X162032753Y-44831928D01*
X162024190Y-44838183D01*
X162024186Y-44838187D01*
X162021056Y-44840473D01*
X162009523Y-44852006D01*
X162004056Y-44857082D01*
X161971345Y-44885267D01*
X161971342Y-44885270D01*
X161965918Y-44889944D01*
X161962020Y-44895958D01*
X161962019Y-44895959D01*
X161961252Y-44897142D01*
X161947970Y-44913559D01*
X161045494Y-45816035D01*
X160990096Y-45844261D01*
X160974359Y-45845500D01*
X159526453Y-45845501D01*
X159349934Y-45845501D01*
X159314452Y-45852558D01*
X159285416Y-45858333D01*
X159285414Y-45858334D01*
X159275699Y-45860266D01*
X159191516Y-45916516D01*
X159135266Y-46000699D01*
X159120500Y-46074933D01*
X159120501Y-47825066D01*
X159121753Y-47831361D01*
X159131848Y-47882114D01*
X159135266Y-47899301D01*
X159140769Y-47907536D01*
X159140769Y-47907537D01*
X159182266Y-47969641D01*
X159191516Y-47983484D01*
X159275699Y-48039734D01*
X159324239Y-48049389D01*
X159345081Y-48053535D01*
X159345082Y-48053535D01*
X159349933Y-48054500D01*
X159354880Y-48054500D01*
X160626160Y-48054499D01*
X161900066Y-48054499D01*
X161935548Y-48047442D01*
X161964584Y-48041667D01*
X161964586Y-48041666D01*
X161974301Y-48039734D01*
X161983160Y-48033815D01*
X162050247Y-47988988D01*
X162058484Y-47983484D01*
X162114734Y-47899301D01*
X162129500Y-47825067D01*
X162129499Y-46200642D01*
X162148712Y-46141511D01*
X162158964Y-46129507D01*
X162529506Y-45758965D01*
X162584904Y-45730739D01*
X162600641Y-45729500D01*
X178549359Y-45729500D01*
X178608490Y-45748713D01*
X178620494Y-45758965D01*
X179478431Y-46616902D01*
X179506657Y-46672300D01*
X179496931Y-46733708D01*
X179449414Y-46779395D01*
X179272016Y-46861177D01*
X179268895Y-46863223D01*
X179268890Y-46863226D01*
X179113459Y-46965131D01*
X179053933Y-47004158D01*
X178859379Y-47177804D01*
X178856987Y-47180680D01*
X178695016Y-47375429D01*
X178695011Y-47375436D01*
X178692629Y-47378300D01*
X178557345Y-47601240D01*
X178456500Y-47841728D01*
X178437630Y-47916029D01*
X178393814Y-48088559D01*
X178392310Y-48094480D01*
X178391936Y-48098191D01*
X178391936Y-48098193D01*
X178371418Y-48301960D01*
X178366183Y-48353944D01*
X178378694Y-48614419D01*
X178429569Y-48870185D01*
X178517690Y-49115621D01*
X178641120Y-49345336D01*
X178643350Y-49348322D01*
X178643353Y-49348327D01*
X178791157Y-49546259D01*
X178797149Y-49554283D01*
X178982348Y-49737873D01*
X179095701Y-49820987D01*
X179189641Y-49889868D01*
X179189646Y-49889871D01*
X179192649Y-49892073D01*
X179195947Y-49893808D01*
X179420127Y-50011755D01*
X179420131Y-50011757D01*
X179423433Y-50013494D01*
X179426960Y-50014726D01*
X179426963Y-50014727D01*
X179553067Y-50058764D01*
X179602558Y-50096397D01*
X179620500Y-50153739D01*
X179620500Y-77399359D01*
X179601287Y-77458490D01*
X179591035Y-77470494D01*
X156683354Y-100378175D01*
X156627956Y-100406401D01*
X156567725Y-100397266D01*
X156509088Y-100368350D01*
X156459090Y-100343694D01*
X156455540Y-100342558D01*
X156455536Y-100342556D01*
X156341214Y-100305962D01*
X156210728Y-100264193D01*
X155953344Y-100222275D01*
X155949602Y-100222226D01*
X155920905Y-100221850D01*
X155692590Y-100218862D01*
X155582620Y-100233828D01*
X155437898Y-100253524D01*
X155437896Y-100253524D01*
X155434196Y-100254028D01*
X155430613Y-100255072D01*
X155430610Y-100255073D01*
X155399321Y-100264193D01*
X155183838Y-100327000D01*
X155180456Y-100328559D01*
X155180451Y-100328561D01*
X155031420Y-100397266D01*
X154947016Y-100436177D01*
X154943895Y-100438223D01*
X154943890Y-100438226D01*
X154818548Y-100520404D01*
X154728933Y-100579158D01*
X154534379Y-100752804D01*
X154531987Y-100755680D01*
X154370016Y-100950429D01*
X154370011Y-100950436D01*
X154367629Y-100953300D01*
X154232345Y-101176240D01*
X154131500Y-101416728D01*
X154116879Y-101474301D01*
X154072483Y-101649112D01*
X154067310Y-101669480D01*
X154066936Y-101673191D01*
X154066936Y-101673193D01*
X154063100Y-101711293D01*
X154041183Y-101928944D01*
X153414500Y-101928944D01*
X153414500Y-96115641D01*
X153433713Y-96056510D01*
X153443965Y-96044506D01*
X154915996Y-94572475D01*
X154971394Y-94544249D01*
X155033971Y-94554580D01*
X155095121Y-94586752D01*
X155095127Y-94586755D01*
X155098433Y-94588494D01*
X155101960Y-94589726D01*
X155101963Y-94589727D01*
X155341101Y-94673237D01*
X155344629Y-94674469D01*
X155600828Y-94723110D01*
X155604557Y-94723256D01*
X155604561Y-94723257D01*
X155770618Y-94729781D01*
X155861403Y-94733348D01*
X155954885Y-94723110D01*
X156116916Y-94705365D01*
X156116921Y-94705364D01*
X156120629Y-94704958D01*
X156241114Y-94673237D01*
X156369204Y-94639514D01*
X156369208Y-94639512D01*
X156372811Y-94638564D01*
X156612410Y-94535625D01*
X156834161Y-94398401D01*
X156941968Y-94307136D01*
X157030339Y-94232324D01*
X157033194Y-94229907D01*
X157119138Y-94131906D01*
X157202671Y-94036655D01*
X157202673Y-94036653D01*
X157205135Y-94033845D01*
X157207153Y-94030707D01*
X157207158Y-94030701D01*
X157344183Y-93817672D01*
X157344186Y-93817667D01*
X157346208Y-93814523D01*
X157347743Y-93811116D01*
X157347746Y-93811110D01*
X157451780Y-93580163D01*
X157451781Y-93580160D01*
X157453314Y-93576757D01*
X157524099Y-93325772D01*
X157540980Y-93193077D01*
X157556691Y-93069582D01*
X157556691Y-93069579D01*
X157557009Y-93067081D01*
X157559420Y-92975000D01*
X157540094Y-92714941D01*
X157530648Y-92673193D01*
X157483367Y-92464240D01*
X157483366Y-92464237D01*
X157482542Y-92460595D01*
X157481192Y-92457122D01*
X157481189Y-92457114D01*
X157393239Y-92230953D01*
X157388027Y-92217550D01*
X157258625Y-91991145D01*
X157097180Y-91786353D01*
X157083476Y-91773461D01*
X156909957Y-91610231D01*
X156907239Y-91607674D01*
X156904182Y-91605554D01*
X156904178Y-91605550D01*
X156790977Y-91527020D01*
X156692973Y-91459032D01*
X156459090Y-91343694D01*
X156455538Y-91342557D01*
X156455533Y-91342555D01*
X156334909Y-91303944D01*
X156210728Y-91264193D01*
X155953344Y-91222275D01*
X155949602Y-91222226D01*
X155920905Y-91221850D01*
X155692590Y-91218862D01*
X155628363Y-91227603D01*
X155437898Y-91253524D01*
X155437896Y-91253524D01*
X155434196Y-91254028D01*
X155430613Y-91255072D01*
X155430610Y-91255073D01*
X155399321Y-91264193D01*
X155183838Y-91327000D01*
X155180456Y-91328559D01*
X155180451Y-91328561D01*
X155051697Y-91387918D01*
X154947016Y-91436177D01*
X154943895Y-91438223D01*
X154943890Y-91438226D01*
X154788459Y-91540131D01*
X154728933Y-91579158D01*
X154534379Y-91752804D01*
X154531987Y-91755680D01*
X154370016Y-91950429D01*
X154370011Y-91950436D01*
X154367629Y-91953300D01*
X154232345Y-92176240D01*
X154131500Y-92416728D01*
X154119434Y-92464240D01*
X154072546Y-92648864D01*
X154067310Y-92669480D01*
X154066936Y-92673191D01*
X154066936Y-92673193D01*
X154048436Y-92856918D01*
X154041183Y-92928944D01*
X154053694Y-93189419D01*
X154104569Y-93445185D01*
X154192690Y-93690621D01*
X154194456Y-93693907D01*
X154194459Y-93693914D01*
X154219585Y-93740677D01*
X154230648Y-93801859D01*
X154202102Y-93859427D01*
X152601197Y-95460332D01*
X152591155Y-95468355D01*
X152591180Y-95468384D01*
X152585724Y-95473028D01*
X152579661Y-95476853D01*
X152574916Y-95482226D01*
X152543815Y-95517441D01*
X152539547Y-95521982D01*
X152527649Y-95533880D01*
X152525505Y-95536741D01*
X152520831Y-95542977D01*
X152515742Y-95549227D01*
X152483999Y-95585170D01*
X152479638Y-95594459D01*
X152469080Y-95612029D01*
X152467231Y-95614496D01*
X152467229Y-95614500D01*
X152462930Y-95620236D01*
X152460414Y-95626947D01*
X152460413Y-95626949D01*
X152446098Y-95665134D01*
X152442963Y-95672573D01*
X152422583Y-95715982D01*
X152421481Y-95723059D01*
X152421480Y-95723063D01*
X152421006Y-95726111D01*
X152415801Y-95745952D01*
X152412202Y-95755552D01*
X152411671Y-95762704D01*
X152408650Y-95803357D01*
X152407729Y-95811382D01*
X152405500Y-95825697D01*
X152405500Y-95842016D01*
X152405223Y-95849470D01*
X152401493Y-95899667D01*
X152402990Y-95906678D01*
X152403283Y-95908052D01*
X152405500Y-95929054D01*
X152405500Y-106502215D01*
X152404073Y-106514989D01*
X152404111Y-106514992D01*
X152403537Y-106522130D01*
X152401954Y-106529124D01*
X152402398Y-106536279D01*
X152405307Y-106583172D01*
X152405500Y-106589401D01*
X152405500Y-106606226D01*
X152406007Y-106609764D01*
X152406008Y-106609781D01*
X152407110Y-106617475D01*
X152407933Y-106625504D01*
X152410902Y-106673359D01*
X152414386Y-106683010D01*
X152419345Y-106702901D01*
X152419783Y-106705962D01*
X152419784Y-106705965D01*
X152420799Y-106713052D01*
X152423763Y-106719572D01*
X152423764Y-106719574D01*
X152440644Y-106756701D01*
X152443688Y-106764178D01*
X152459972Y-106809284D01*
X152464200Y-106815071D01*
X152466021Y-106817564D01*
X152476366Y-106835267D01*
X152480612Y-106844605D01*
X152511920Y-106880939D01*
X152516928Y-106887247D01*
X152523183Y-106895810D01*
X152523187Y-106895814D01*
X152525473Y-106898944D01*
X152537006Y-106910477D01*
X152542082Y-106915944D01*
X152570267Y-106948655D01*
X152570270Y-106948658D01*
X152574944Y-106954082D01*
X152580958Y-106957980D01*
X152580959Y-106957981D01*
X152582142Y-106958748D01*
X152598559Y-106972030D01*
X159226035Y-113599506D01*
X159254261Y-113654904D01*
X159255500Y-113670641D01*
X159255500Y-120289359D01*
X159236287Y-120348490D01*
X159226035Y-120360494D01*
X156633354Y-122953175D01*
X156577956Y-122981401D01*
X156517725Y-122972266D01*
X156437846Y-122932875D01*
X156409090Y-122918694D01*
X156405540Y-122917558D01*
X156405536Y-122917556D01*
X156291214Y-122880962D01*
X156160728Y-122839193D01*
X155903344Y-122797275D01*
X155899602Y-122797226D01*
X155870905Y-122796850D01*
X155642590Y-122793862D01*
X155532620Y-122808828D01*
X155387898Y-122828524D01*
X155387896Y-122828524D01*
X155384196Y-122829028D01*
X155380613Y-122830072D01*
X155380610Y-122830073D01*
X155246351Y-122869206D01*
X155133838Y-122902000D01*
X155130456Y-122903559D01*
X155130451Y-122903561D01*
X155023471Y-122952880D01*
X154897016Y-123011177D01*
X154893895Y-123013223D01*
X154893890Y-123013226D01*
X154830298Y-123054919D01*
X154678933Y-123154158D01*
X154484379Y-123327804D01*
X154481987Y-123330680D01*
X154320016Y-123525429D01*
X154320011Y-123525436D01*
X154317629Y-123528300D01*
X154182345Y-123751240D01*
X154081500Y-123991728D01*
X154017310Y-124244480D01*
X154016936Y-124248191D01*
X154016936Y-124248193D01*
X154013100Y-124286293D01*
X153991183Y-124503944D01*
X154003694Y-124764419D01*
X154054569Y-125020185D01*
X154055831Y-125023700D01*
X154138147Y-125252967D01*
X154142690Y-125265621D01*
X154266120Y-125495336D01*
X154268350Y-125498322D01*
X154268353Y-125498327D01*
X154376187Y-125642733D01*
X154422149Y-125704283D01*
X154607348Y-125887873D01*
X154700598Y-125956247D01*
X154814641Y-126039868D01*
X154814646Y-126039871D01*
X154817649Y-126042073D01*
X154820947Y-126043808D01*
X155045127Y-126161755D01*
X155045131Y-126161757D01*
X155048433Y-126163494D01*
X155051960Y-126164726D01*
X155051963Y-126164727D01*
X155291101Y-126248237D01*
X155294629Y-126249469D01*
X155550828Y-126298110D01*
X155554557Y-126298256D01*
X155554561Y-126298257D01*
X155720618Y-126304781D01*
X155811403Y-126308348D01*
X155904885Y-126298110D01*
X156066916Y-126280365D01*
X156066921Y-126280364D01*
X156070629Y-126279958D01*
X156198589Y-126246269D01*
X156319204Y-126214514D01*
X156319208Y-126214512D01*
X156322811Y-126213564D01*
X156562410Y-126110625D01*
X156784161Y-125973401D01*
X156787422Y-125970641D01*
X156980339Y-125807324D01*
X156983194Y-125804907D01*
X157069138Y-125706906D01*
X157152671Y-125611655D01*
X157152673Y-125611653D01*
X157155135Y-125608845D01*
X157157153Y-125605707D01*
X157157158Y-125605701D01*
X157294183Y-125392672D01*
X157294186Y-125392667D01*
X157296208Y-125389523D01*
X157297743Y-125386116D01*
X157297746Y-125386110D01*
X157401780Y-125155163D01*
X157401781Y-125155160D01*
X157403314Y-125151757D01*
X157410073Y-125127793D01*
X157444612Y-125076098D01*
X157506895Y-125054500D01*
X186832215Y-125054500D01*
X186844989Y-125055927D01*
X186844992Y-125055889D01*
X186852130Y-125056463D01*
X186859124Y-125058046D01*
X186913172Y-125054693D01*
X186919401Y-125054500D01*
X186936226Y-125054500D01*
X186939764Y-125053993D01*
X186939781Y-125053992D01*
X186947475Y-125052890D01*
X186955504Y-125052067D01*
X186996204Y-125049542D01*
X186996205Y-125049542D01*
X187003359Y-125049098D01*
X187013010Y-125045614D01*
X187032901Y-125040655D01*
X187035962Y-125040217D01*
X187035965Y-125040216D01*
X187043052Y-125039201D01*
X187049572Y-125036237D01*
X187049574Y-125036236D01*
X187086701Y-125019356D01*
X187094178Y-125016312D01*
X187112754Y-125009606D01*
X187139284Y-125000028D01*
X187147564Y-124993979D01*
X187165267Y-124983634D01*
X187168080Y-124982355D01*
X187168082Y-124982354D01*
X187174605Y-124979388D01*
X187210939Y-124948080D01*
X187217247Y-124943072D01*
X187225810Y-124936817D01*
X187225814Y-124936813D01*
X187228944Y-124934527D01*
X187240477Y-124922994D01*
X187245944Y-124917918D01*
X187278655Y-124889733D01*
X187278658Y-124889730D01*
X187284082Y-124885056D01*
X187287981Y-124879041D01*
X187288748Y-124877858D01*
X187302030Y-124861441D01*
X188854506Y-123308965D01*
X188909904Y-123280739D01*
X188925641Y-123279500D01*
X190015926Y-123279499D01*
X190150066Y-123279499D01*
X190185548Y-123272442D01*
X190214584Y-123266667D01*
X190214586Y-123266666D01*
X190224301Y-123264734D01*
X190308484Y-123208484D01*
X190364734Y-123124301D01*
X190379500Y-123050067D01*
X190379499Y-120499934D01*
X190364734Y-120425699D01*
X190345569Y-120397016D01*
X190313988Y-120349753D01*
X190308484Y-120341516D01*
X190224301Y-120285266D01*
X190175761Y-120275611D01*
X190154919Y-120271465D01*
X190154918Y-120271465D01*
X190150067Y-120270500D01*
X189973261Y-120270500D01*
X188525642Y-120270501D01*
X188466511Y-120251288D01*
X188454507Y-120241036D01*
X187033965Y-118820494D01*
X187005739Y-118765096D01*
X187004500Y-118749359D01*
X187004500Y-116250641D01*
X187023713Y-116191510D01*
X187033965Y-116179506D01*
X189383398Y-113830073D01*
X191733765Y-111479705D01*
X191789163Y-111451479D01*
X191850571Y-111461205D01*
X191894535Y-111505169D01*
X191905500Y-111550840D01*
X191905500Y-119504948D01*
X191886287Y-119564079D01*
X191835987Y-119600624D01*
X191773813Y-119600624D01*
X191723513Y-119564079D01*
X191710277Y-119539106D01*
X191702464Y-119517463D01*
X191702463Y-119517461D01*
X191700028Y-119510716D01*
X191693979Y-119502436D01*
X191683634Y-119484733D01*
X191682355Y-119481920D01*
X191682354Y-119481918D01*
X191679388Y-119475395D01*
X191648080Y-119439061D01*
X191643072Y-119432753D01*
X191636817Y-119424190D01*
X191636813Y-119424186D01*
X191634527Y-119421056D01*
X191622994Y-119409523D01*
X191617918Y-119404056D01*
X191589733Y-119371345D01*
X191589730Y-119371342D01*
X191585056Y-119365918D01*
X191579041Y-119362019D01*
X191577858Y-119361252D01*
X191561441Y-119347970D01*
X190408965Y-118195494D01*
X190380739Y-118140096D01*
X190379500Y-118124359D01*
X190379499Y-116504872D01*
X190379499Y-116499934D01*
X190364734Y-116425699D01*
X190359230Y-116417461D01*
X190313988Y-116349753D01*
X190308484Y-116341516D01*
X190224301Y-116285266D01*
X190175761Y-116275611D01*
X190154919Y-116271465D01*
X190154918Y-116271465D01*
X190150067Y-116270500D01*
X190145120Y-116270500D01*
X189274204Y-116270501D01*
X188399934Y-116270501D01*
X188364452Y-116277558D01*
X188335416Y-116283333D01*
X188335414Y-116283334D01*
X188325699Y-116285266D01*
X188241516Y-116341516D01*
X188185266Y-116425699D01*
X188170500Y-116499933D01*
X188170501Y-119050066D01*
X188171465Y-119054911D01*
X188183019Y-119113002D01*
X188185266Y-119124301D01*
X188190769Y-119132536D01*
X188190769Y-119132537D01*
X188193058Y-119135962D01*
X188241516Y-119208484D01*
X188325699Y-119264734D01*
X188342521Y-119268080D01*
X188395081Y-119278535D01*
X188395082Y-119278535D01*
X188399933Y-119279500D01*
X188576739Y-119279500D01*
X190024358Y-119279499D01*
X190083489Y-119298712D01*
X190095493Y-119308964D01*
X190716035Y-119929506D01*
X190744261Y-119984904D01*
X190745500Y-120000641D01*
X190745500Y-124749359D01*
X190726287Y-124808490D01*
X190716035Y-124820494D01*
X188820494Y-126716035D01*
X188765096Y-126744261D01*
X188749359Y-126745500D01*
X152650641Y-126745500D01*
X152591510Y-126726287D01*
X152579506Y-126716035D01*
X151413965Y-125550494D01*
X151385739Y-125495096D01*
X151384500Y-125479359D01*
X151384500Y-120670641D01*
X151403713Y-120611510D01*
X151413965Y-120599506D01*
X154865996Y-117147475D01*
X154921394Y-117119249D01*
X154983971Y-117129580D01*
X155045121Y-117161752D01*
X155045127Y-117161755D01*
X155048433Y-117163494D01*
X155051960Y-117164726D01*
X155051963Y-117164727D01*
X155291101Y-117248237D01*
X155294629Y-117249469D01*
X155550828Y-117298110D01*
X155554557Y-117298256D01*
X155554561Y-117298257D01*
X155720618Y-117304781D01*
X155811403Y-117308348D01*
X155904885Y-117298110D01*
X156066916Y-117280365D01*
X156066921Y-117280364D01*
X156070629Y-117279958D01*
X156191114Y-117248237D01*
X156319204Y-117214514D01*
X156319208Y-117214512D01*
X156322811Y-117213564D01*
X156562410Y-117110625D01*
X156784161Y-116973401D01*
X156983194Y-116804907D01*
X157069138Y-116706906D01*
X157152671Y-116611655D01*
X157152673Y-116611653D01*
X157155135Y-116608845D01*
X157157153Y-116605707D01*
X157157158Y-116605701D01*
X157294183Y-116392672D01*
X157294186Y-116392667D01*
X157296208Y-116389523D01*
X157297743Y-116386116D01*
X157297746Y-116386110D01*
X157401780Y-116155163D01*
X157401781Y-116155160D01*
X157403314Y-116151757D01*
X157441454Y-116016523D01*
X157473086Y-115904365D01*
X157473087Y-115904361D01*
X157474099Y-115900772D01*
X157476620Y-115880956D01*
X157506691Y-115644582D01*
X157506691Y-115644579D01*
X157507009Y-115642081D01*
X157507801Y-115611853D01*
X157509354Y-115552522D01*
X157509354Y-115552521D01*
X157509420Y-115550000D01*
X157490094Y-115289941D01*
X157489071Y-115285416D01*
X157433367Y-115039240D01*
X157433366Y-115039237D01*
X157432542Y-115035595D01*
X157431192Y-115032122D01*
X157431189Y-115032114D01*
X157339381Y-114796032D01*
X157338027Y-114792550D01*
X157208625Y-114566145D01*
X157047180Y-114361353D01*
X157011517Y-114327804D01*
X156859957Y-114185231D01*
X156857239Y-114182674D01*
X156854182Y-114180554D01*
X156854178Y-114180550D01*
X156740977Y-114102020D01*
X156642973Y-114034032D01*
X156409090Y-113918694D01*
X156405538Y-113917557D01*
X156405533Y-113917555D01*
X156284909Y-113878943D01*
X156160728Y-113839193D01*
X155903344Y-113797275D01*
X155899602Y-113797226D01*
X155870905Y-113796850D01*
X155642590Y-113793862D01*
X155532620Y-113808828D01*
X155387898Y-113828524D01*
X155387896Y-113828524D01*
X155384196Y-113829028D01*
X155380613Y-113830072D01*
X155380610Y-113830073D01*
X155349321Y-113839193D01*
X155133838Y-113902000D01*
X155130456Y-113903559D01*
X155130451Y-113903561D01*
X155094040Y-113920347D01*
X154897016Y-114011177D01*
X154893895Y-114013223D01*
X154893890Y-114013226D01*
X154738459Y-114115131D01*
X154678933Y-114154158D01*
X154484379Y-114327804D01*
X154481987Y-114330680D01*
X154320016Y-114525429D01*
X154320011Y-114525436D01*
X154317629Y-114528300D01*
X154182345Y-114751240D01*
X154180900Y-114754686D01*
X154084823Y-114983803D01*
X154044239Y-115030904D01*
X153992050Y-115045500D01*
X147955212Y-115045500D01*
X147896081Y-115026287D01*
X147861452Y-114981361D01*
X147789381Y-114796032D01*
X147788027Y-114792550D01*
X147658625Y-114566145D01*
X147497180Y-114361353D01*
X147461517Y-114327804D01*
X147309957Y-114185231D01*
X147307239Y-114182674D01*
X147304182Y-114180554D01*
X147304178Y-114180550D01*
X147190977Y-114102020D01*
X147092973Y-114034032D01*
X146859090Y-113918694D01*
X146855538Y-113917557D01*
X146855533Y-113917555D01*
X146734909Y-113878943D01*
X146610728Y-113839193D01*
X146353344Y-113797275D01*
X146349602Y-113797226D01*
X146320905Y-113796850D01*
X146092590Y-113793862D01*
X145982620Y-113808828D01*
X145837898Y-113828524D01*
X145837896Y-113828524D01*
X145834196Y-113829028D01*
X145830613Y-113830072D01*
X145830610Y-113830073D01*
X145799321Y-113839193D01*
X145583838Y-113902000D01*
X145580456Y-113903559D01*
X145580451Y-113903561D01*
X145544040Y-113920347D01*
X145347016Y-114011177D01*
X145343895Y-114013223D01*
X145343890Y-114013226D01*
X145188459Y-114115131D01*
X145128933Y-114154158D01*
X144934379Y-114327804D01*
X144931987Y-114330680D01*
X144770016Y-114525429D01*
X144770011Y-114525436D01*
X144767629Y-114528300D01*
X144632345Y-114751240D01*
X144531500Y-114991728D01*
X144467310Y-115244480D01*
X144466936Y-115248191D01*
X144466936Y-115248193D01*
X144463100Y-115286293D01*
X144441183Y-115503944D01*
X144441362Y-115507674D01*
X144441362Y-115507679D01*
X144449542Y-115677977D01*
X144453694Y-115764419D01*
X144504569Y-116020185D01*
X144505831Y-116023700D01*
X144587312Y-116250641D01*
X144592690Y-116265621D01*
X144716120Y-116495336D01*
X144718350Y-116498322D01*
X144718353Y-116498327D01*
X144802980Y-116611655D01*
X144872149Y-116704283D01*
X145057348Y-116887873D01*
X145170701Y-116970987D01*
X145264641Y-117039868D01*
X145264646Y-117039871D01*
X145267649Y-117042073D01*
X145270947Y-117043808D01*
X145495127Y-117161755D01*
X145495131Y-117161757D01*
X145498433Y-117163494D01*
X145501960Y-117164726D01*
X145501963Y-117164727D01*
X145741101Y-117248237D01*
X145744629Y-117249469D01*
X146000828Y-117298110D01*
X146004557Y-117298256D01*
X146004561Y-117298257D01*
X146170618Y-117304781D01*
X146261403Y-117308348D01*
X146354885Y-117298110D01*
X146516916Y-117280365D01*
X146516921Y-117280364D01*
X146520629Y-117279958D01*
X146641114Y-117248237D01*
X146769204Y-117214514D01*
X146769208Y-117214512D01*
X146772811Y-117213564D01*
X147012410Y-117110625D01*
X147234161Y-116973401D01*
X147433194Y-116804907D01*
X147519138Y-116706906D01*
X147602671Y-116611655D01*
X147602673Y-116611653D01*
X147605135Y-116608845D01*
X147607153Y-116605707D01*
X147607158Y-116605701D01*
X147744183Y-116392672D01*
X147744186Y-116392667D01*
X147746208Y-116389523D01*
X147747743Y-116386116D01*
X147747746Y-116386110D01*
X147851780Y-116155163D01*
X147851781Y-116155160D01*
X147853314Y-116151757D01*
X147860073Y-116127793D01*
X147894612Y-116076098D01*
X147956895Y-116054500D01*
X153996121Y-116054500D01*
X154055252Y-116073713D01*
X154090803Y-116121105D01*
X154137312Y-116250641D01*
X154142690Y-116265621D01*
X154144456Y-116268907D01*
X154144459Y-116268914D01*
X154169585Y-116315677D01*
X154180648Y-116376859D01*
X154152102Y-116434427D01*
X150571197Y-120015332D01*
X150561155Y-120023355D01*
X150561180Y-120023384D01*
X150555724Y-120028028D01*
X150549661Y-120031853D01*
X150544916Y-120037226D01*
X150513815Y-120072441D01*
X150509547Y-120076982D01*
X150497649Y-120088880D01*
X150493455Y-120094476D01*
X150490831Y-120097977D01*
X150485742Y-120104227D01*
X150453999Y-120140170D01*
X150449638Y-120149459D01*
X150439080Y-120167029D01*
X150437231Y-120169496D01*
X150437229Y-120169500D01*
X150432930Y-120175236D01*
X150430414Y-120181947D01*
X150430413Y-120181949D01*
X150416098Y-120220134D01*
X150412963Y-120227573D01*
X150392583Y-120270982D01*
X150391481Y-120278059D01*
X150391480Y-120278063D01*
X150391006Y-120281111D01*
X150385801Y-120300952D01*
X150382202Y-120310552D01*
X150381671Y-120317704D01*
X150378650Y-120358357D01*
X150377729Y-120366382D01*
X150375500Y-120380697D01*
X150375500Y-120397016D01*
X150375223Y-120404471D01*
X150372924Y-120435416D01*
X150371493Y-120454667D01*
X150372990Y-120461678D01*
X150373283Y-120463052D01*
X150375500Y-120484054D01*
X150375500Y-125479359D01*
X150356287Y-125538490D01*
X150346035Y-125550494D01*
X149180494Y-126716035D01*
X149125096Y-126744261D01*
X149109359Y-126745500D01*
X119950641Y-126745500D01*
X119891510Y-126726287D01*
X119879506Y-126716035D01*
X114208965Y-121045494D01*
X114180739Y-120990096D01*
X114179500Y-120974359D01*
X114179499Y-119355840D01*
X114198712Y-119296709D01*
X114249012Y-119260164D01*
X114311186Y-119260164D01*
X114351234Y-119284705D01*
X119925332Y-124858803D01*
X119933355Y-124868845D01*
X119933384Y-124868820D01*
X119938028Y-124874276D01*
X119941853Y-124880339D01*
X119964989Y-124900772D01*
X119982441Y-124916185D01*
X119986982Y-124920453D01*
X119998880Y-124932351D01*
X120007981Y-124939172D01*
X120014211Y-124944244D01*
X120050170Y-124976001D01*
X120059451Y-124980358D01*
X120077033Y-124990923D01*
X120085235Y-124997070D01*
X120130153Y-125013909D01*
X120137570Y-125017035D01*
X120174493Y-125034371D01*
X120174497Y-125034372D01*
X120180982Y-125037417D01*
X120190523Y-125038902D01*
X120191111Y-125038994D01*
X120210952Y-125044199D01*
X120220552Y-125047798D01*
X120268367Y-125051352D01*
X120276369Y-125052270D01*
X120290697Y-125054500D01*
X120307016Y-125054500D01*
X120314471Y-125054777D01*
X120357517Y-125057976D01*
X120357519Y-125057976D01*
X120364666Y-125058507D01*
X120373052Y-125056717D01*
X120394053Y-125054500D01*
X126203046Y-125054500D01*
X126262177Y-125073713D01*
X126298722Y-125124013D01*
X126298722Y-125186187D01*
X126262177Y-125236487D01*
X126249187Y-125244494D01*
X126229414Y-125254700D01*
X126200607Y-125279830D01*
X126138915Y-125333648D01*
X126110039Y-125358838D01*
X126018950Y-125488444D01*
X125961406Y-125636037D01*
X125940729Y-125793096D01*
X125941394Y-125799120D01*
X125941394Y-125799124D01*
X125943376Y-125817071D01*
X125958113Y-125950553D01*
X126012553Y-126099319D01*
X126015939Y-126104358D01*
X126089323Y-126213564D01*
X126100908Y-126230805D01*
X126218076Y-126337419D01*
X126223403Y-126340311D01*
X126223404Y-126340312D01*
X126244704Y-126351877D01*
X126357293Y-126413008D01*
X126363163Y-126414548D01*
X126504655Y-126451668D01*
X126504656Y-126451668D01*
X126510522Y-126453207D01*
X126582716Y-126454341D01*
X126662852Y-126455600D01*
X126662854Y-126455600D01*
X126668916Y-126455695D01*
X126674827Y-126454341D01*
X126674829Y-126454341D01*
X126817422Y-126421683D01*
X126817425Y-126421682D01*
X126823332Y-126420329D01*
X126964855Y-126349151D01*
X127045393Y-126280365D01*
X127080705Y-126250206D01*
X127080707Y-126250204D01*
X127085314Y-126246269D01*
X127146044Y-126161755D01*
X127174218Y-126122547D01*
X127174220Y-126122544D01*
X127177755Y-126117624D01*
X127236842Y-125970641D01*
X127259162Y-125813807D01*
X127259307Y-125800000D01*
X127240276Y-125642733D01*
X127228533Y-125611655D01*
X127186425Y-125500222D01*
X127186424Y-125500221D01*
X127184280Y-125494546D01*
X127094553Y-125363992D01*
X126992801Y-125273335D01*
X126980804Y-125262646D01*
X126980803Y-125262645D01*
X126976275Y-125258611D01*
X126948693Y-125244007D01*
X126905425Y-125199358D01*
X126896665Y-125137804D01*
X126925758Y-125082856D01*
X126981593Y-125055504D01*
X126995767Y-125054500D01*
X144446121Y-125054500D01*
X144505252Y-125073713D01*
X144540803Y-125121105D01*
X144588147Y-125252967D01*
X144592690Y-125265621D01*
X144716120Y-125495336D01*
X144718350Y-125498322D01*
X144718353Y-125498327D01*
X144826187Y-125642733D01*
X144872149Y-125704283D01*
X145057348Y-125887873D01*
X145150598Y-125956247D01*
X145264641Y-126039868D01*
X145264646Y-126039871D01*
X145267649Y-126042073D01*
X145270947Y-126043808D01*
X145495127Y-126161755D01*
X145495131Y-126161757D01*
X145498433Y-126163494D01*
X145501960Y-126164726D01*
X145501963Y-126164727D01*
X145741101Y-126248237D01*
X145744629Y-126249469D01*
X146000828Y-126298110D01*
X146004557Y-126298256D01*
X146004561Y-126298257D01*
X146170618Y-126304781D01*
X146261403Y-126308348D01*
X146354885Y-126298110D01*
X146516916Y-126280365D01*
X146516921Y-126280364D01*
X146520629Y-126279958D01*
X146648589Y-126246269D01*
X146769204Y-126214514D01*
X146769208Y-126214512D01*
X146772811Y-126213564D01*
X147012410Y-126110625D01*
X147234161Y-125973401D01*
X147237422Y-125970641D01*
X147430339Y-125807324D01*
X147433194Y-125804907D01*
X147519138Y-125706906D01*
X147602671Y-125611655D01*
X147602673Y-125611653D01*
X147605135Y-125608845D01*
X147607153Y-125605707D01*
X147607158Y-125605701D01*
X147744183Y-125392672D01*
X147744186Y-125392667D01*
X147746208Y-125389523D01*
X147747743Y-125386116D01*
X147747746Y-125386110D01*
X147851780Y-125155163D01*
X147851781Y-125155160D01*
X147853314Y-125151757D01*
X147891126Y-125017684D01*
X147923086Y-124904365D01*
X147923087Y-124904361D01*
X147924099Y-124900772D01*
X147924570Y-124897071D01*
X147956691Y-124644582D01*
X147956691Y-124644579D01*
X147957009Y-124642081D01*
X147959420Y-124550000D01*
X147940094Y-124289941D01*
X147930648Y-124248193D01*
X147883367Y-124039240D01*
X147883366Y-124039237D01*
X147882542Y-124035595D01*
X147881192Y-124032122D01*
X147881189Y-124032114D01*
X147789381Y-123796032D01*
X147788027Y-123792550D01*
X147658625Y-123566145D01*
X147497180Y-123361353D01*
X147461517Y-123327804D01*
X147309957Y-123185231D01*
X147307239Y-123182674D01*
X147304182Y-123180554D01*
X147304178Y-123180550D01*
X147099683Y-123038687D01*
X147092973Y-123034032D01*
X146859090Y-122918694D01*
X146855535Y-122917556D01*
X146855533Y-122917555D01*
X146734909Y-122878943D01*
X146610728Y-122839193D01*
X146353344Y-122797275D01*
X146349602Y-122797226D01*
X146320905Y-122796850D01*
X146092590Y-122793862D01*
X145982620Y-122808828D01*
X145837898Y-122828524D01*
X145837896Y-122828524D01*
X145834196Y-122829028D01*
X145830613Y-122830072D01*
X145830610Y-122830073D01*
X145696351Y-122869206D01*
X145583838Y-122902000D01*
X145580458Y-122903558D01*
X145580456Y-122903559D01*
X145557712Y-122914044D01*
X145429602Y-122973104D01*
X145367860Y-122980412D01*
X145316351Y-122952880D01*
X142143965Y-119780494D01*
X142115739Y-119725096D01*
X142114500Y-119709359D01*
X142114500Y-113760641D01*
X142133713Y-113701510D01*
X142143965Y-113689506D01*
X151688800Y-104144670D01*
X151698844Y-104136644D01*
X151698820Y-104136616D01*
X151704276Y-104131973D01*
X151710339Y-104128147D01*
X151746193Y-104087550D01*
X151750460Y-104083010D01*
X151762351Y-104071119D01*
X151764493Y-104068261D01*
X151764499Y-104068254D01*
X151769157Y-104062038D01*
X151774256Y-104055774D01*
X151801255Y-104025204D01*
X151801255Y-104025203D01*
X151806001Y-104019830D01*
X151809046Y-104013344D01*
X151809052Y-104013335D01*
X151810362Y-104010544D01*
X151820923Y-103992967D01*
X151822773Y-103990499D01*
X151822774Y-103990498D01*
X151827071Y-103984764D01*
X151843905Y-103939859D01*
X151847040Y-103932420D01*
X151850028Y-103926056D01*
X151867417Y-103889018D01*
X151868995Y-103878887D01*
X151874197Y-103859059D01*
X151875283Y-103856162D01*
X151875284Y-103856156D01*
X151877799Y-103849448D01*
X151881352Y-103801628D01*
X151882273Y-103793604D01*
X151883902Y-103783143D01*
X151884500Y-103779303D01*
X151884500Y-103762997D01*
X151884777Y-103755542D01*
X151887977Y-103712483D01*
X151887977Y-103712481D01*
X151888508Y-103705333D01*
X151886717Y-103696942D01*
X151884500Y-103675942D01*
X151884500Y-97848447D01*
X151884502Y-97847833D01*
X151884928Y-97777993D01*
X151884972Y-97770827D01*
X151883004Y-97763940D01*
X151883003Y-97763935D01*
X151876453Y-97741018D01*
X151873596Y-97727636D01*
X151870217Y-97704042D01*
X151869201Y-97696948D01*
X151857906Y-97672107D01*
X151852759Y-97658116D01*
X151847230Y-97638770D01*
X151845261Y-97631879D01*
X151828716Y-97605657D01*
X151822219Y-97593614D01*
X151812355Y-97571920D01*
X151812354Y-97571918D01*
X151809388Y-97565395D01*
X151791574Y-97544721D01*
X151782706Y-97532736D01*
X151771973Y-97515724D01*
X151771971Y-97515722D01*
X151768147Y-97509661D01*
X151762771Y-97504913D01*
X151744907Y-97489136D01*
X151735297Y-97479409D01*
X151715056Y-97455918D01*
X151692154Y-97441074D01*
X151680282Y-97432062D01*
X151665199Y-97418741D01*
X151659830Y-97413999D01*
X151653346Y-97410955D01*
X151653345Y-97410954D01*
X151631765Y-97400822D01*
X151619802Y-97394177D01*
X151593790Y-97377317D01*
X151567639Y-97369496D01*
X151553715Y-97364178D01*
X151535505Y-97355628D01*
X151535501Y-97355627D01*
X151529018Y-97352583D01*
X151521938Y-97351481D01*
X151521936Y-97351480D01*
X151498395Y-97347815D01*
X151485045Y-97344795D01*
X151462201Y-97337963D01*
X151462202Y-97337963D01*
X151455337Y-97335910D01*
X151451581Y-97335887D01*
X151396693Y-97308222D01*
X147947434Y-93858963D01*
X147919208Y-93803565D01*
X147926846Y-93746510D01*
X148001780Y-93580163D01*
X148001781Y-93580160D01*
X148003314Y-93576757D01*
X148074099Y-93325772D01*
X148090980Y-93193077D01*
X148106691Y-93069582D01*
X148106691Y-93069579D01*
X148107009Y-93067081D01*
X148109420Y-92975000D01*
X148090094Y-92714941D01*
X148080648Y-92673193D01*
X148033367Y-92464240D01*
X148033366Y-92464237D01*
X148032542Y-92460595D01*
X148031192Y-92457122D01*
X148031189Y-92457114D01*
X147943239Y-92230953D01*
X147938027Y-92217550D01*
X147808625Y-91991145D01*
X147647180Y-91786353D01*
X147633476Y-91773461D01*
X147459957Y-91610231D01*
X147457239Y-91607674D01*
X147454182Y-91605554D01*
X147454178Y-91605550D01*
X147340977Y-91527020D01*
X147242973Y-91459032D01*
X147009090Y-91343694D01*
X147005538Y-91342557D01*
X147005533Y-91342555D01*
X146884909Y-91303944D01*
X146760728Y-91264193D01*
X146503344Y-91222275D01*
X146499602Y-91222226D01*
X146470905Y-91221850D01*
X146242590Y-91218862D01*
X146178363Y-91227603D01*
X145987898Y-91253524D01*
X145987896Y-91253524D01*
X145984196Y-91254028D01*
X145980611Y-91255073D01*
X145980606Y-91255074D01*
X145737871Y-91325824D01*
X145675726Y-91323925D01*
X145626566Y-91285861D01*
X145609168Y-91226170D01*
X145630178Y-91167654D01*
X145638586Y-91158108D01*
X156657729Y-80138965D01*
X156713127Y-80110739D01*
X156728864Y-80109500D01*
X162068784Y-80109500D01*
X162089958Y-80111754D01*
X162093747Y-80112570D01*
X162093748Y-80112570D01*
X162101876Y-80114320D01*
X162110131Y-80113343D01*
X162136710Y-80110197D01*
X162144499Y-80109738D01*
X162147378Y-80109500D01*
X162151524Y-80109500D01*
X162155614Y-80108819D01*
X162155616Y-80108819D01*
X162171160Y-80106232D01*
X162175853Y-80105564D01*
X162219082Y-80100448D01*
X162219085Y-80100447D01*
X162227341Y-80099470D01*
X162234354Y-80096102D01*
X162236949Y-80095281D01*
X162244626Y-80094004D01*
X162290252Y-80069385D01*
X162294474Y-80067234D01*
X162335520Y-80047524D01*
X162335521Y-80047523D01*
X162341232Y-80044781D01*
X162345508Y-80041186D01*
X162347053Y-80039641D01*
X162347981Y-80038790D01*
X162349801Y-80037255D01*
X162355814Y-80034010D01*
X162392734Y-79994070D01*
X162395472Y-79991222D01*
X163582129Y-78804565D01*
X163598695Y-78791186D01*
X163608940Y-78784571D01*
X163630652Y-78757029D01*
X163635830Y-78751201D01*
X163637702Y-78748992D01*
X163640638Y-78746056D01*
X163652222Y-78729846D01*
X163655068Y-78726057D01*
X163682008Y-78691884D01*
X163682009Y-78691882D01*
X163687156Y-78685353D01*
X163689732Y-78678018D01*
X163690988Y-78675600D01*
X163695514Y-78669266D01*
X163697895Y-78661303D01*
X163697897Y-78661300D01*
X163710379Y-78619561D01*
X163711834Y-78615082D01*
X163729018Y-78566149D01*
X163729500Y-78560584D01*
X163729500Y-78558418D01*
X163729555Y-78557143D01*
X163729756Y-78554766D01*
X163731713Y-78548222D01*
X163729578Y-78493881D01*
X163729500Y-78489932D01*
X163729500Y-75431221D01*
X163731754Y-75410045D01*
X163732571Y-75406251D01*
X163734321Y-75398124D01*
X163730197Y-75363283D01*
X163729740Y-75355523D01*
X163729500Y-75352620D01*
X163729500Y-75348476D01*
X163727899Y-75338855D01*
X163726236Y-75328862D01*
X163725569Y-75324173D01*
X163720449Y-75280924D01*
X163720448Y-75280920D01*
X163719470Y-75272659D01*
X163716102Y-75265647D01*
X163715281Y-75263049D01*
X163714004Y-75255374D01*
X163689367Y-75209713D01*
X163687228Y-75205515D01*
X163671930Y-75173657D01*
X163664781Y-75158769D01*
X163661187Y-75154493D01*
X163659654Y-75152960D01*
X163658790Y-75152018D01*
X163657254Y-75150198D01*
X163654010Y-75144186D01*
X163614070Y-75107266D01*
X163611222Y-75104528D01*
X163141565Y-74634871D01*
X163128186Y-74618305D01*
X163127840Y-74617769D01*
X163121571Y-74608060D01*
X163115041Y-74602913D01*
X163115040Y-74602911D01*
X163094029Y-74586348D01*
X163088201Y-74581170D01*
X163085992Y-74579298D01*
X163083056Y-74576362D01*
X163072290Y-74568668D01*
X163066846Y-74564778D01*
X163063057Y-74561932D01*
X163028884Y-74534992D01*
X163028882Y-74534991D01*
X163022353Y-74529844D01*
X163015018Y-74527268D01*
X163012600Y-74526012D01*
X163006266Y-74521486D01*
X162998303Y-74519105D01*
X162998300Y-74519103D01*
X162956561Y-74506621D01*
X162952093Y-74505170D01*
X162941205Y-74501346D01*
X162891783Y-74463625D01*
X162880345Y-74441745D01*
X162863111Y-74395774D01*
X162857628Y-74381147D01*
X162776330Y-74272670D01*
X162667853Y-74191372D01*
X162661142Y-74188856D01*
X162661140Y-74188855D01*
X162546825Y-74146000D01*
X162546824Y-74146000D01*
X162540919Y-74143786D01*
X162483053Y-74137500D01*
X162219597Y-74137500D01*
X161955948Y-74137501D01*
X161934542Y-74139826D01*
X161904348Y-74143105D01*
X161904345Y-74143106D01*
X161898081Y-74143786D01*
X161892179Y-74145998D01*
X161892177Y-74145999D01*
X161777860Y-74188855D01*
X161777858Y-74188856D01*
X161771147Y-74191372D01*
X161662670Y-74272670D01*
X161581372Y-74381147D01*
X161578856Y-74387858D01*
X161578855Y-74387860D01*
X161541321Y-74487982D01*
X161533786Y-74508081D01*
X161533105Y-74514348D01*
X161533105Y-74514350D01*
X161532012Y-74524413D01*
X161506526Y-74581124D01*
X161452574Y-74612024D01*
X161390764Y-74605310D01*
X161344704Y-74563547D01*
X161331988Y-74524414D01*
X161330895Y-74514348D01*
X161330894Y-74514345D01*
X161330214Y-74508081D01*
X161322679Y-74487982D01*
X161285145Y-74387860D01*
X161285144Y-74387858D01*
X161282628Y-74381147D01*
X161201330Y-74272670D01*
X161092853Y-74191372D01*
X161086142Y-74188856D01*
X161086140Y-74188855D01*
X160971825Y-74146000D01*
X160971824Y-74146000D01*
X160965919Y-74143786D01*
X160908053Y-74137500D01*
X160644597Y-74137500D01*
X160380948Y-74137501D01*
X160359542Y-74139826D01*
X160329348Y-74143105D01*
X160329345Y-74143106D01*
X160323081Y-74143786D01*
X160317179Y-74145998D01*
X160317177Y-74145999D01*
X160202860Y-74188855D01*
X160202858Y-74188856D01*
X160196147Y-74191372D01*
X160087670Y-74272670D01*
X160006372Y-74381147D01*
X160003856Y-74387858D01*
X160003855Y-74387860D01*
X159966321Y-74487982D01*
X159958786Y-74508081D01*
X159952500Y-74565947D01*
X159952501Y-75168052D01*
X159955908Y-75199418D01*
X159943192Y-75260278D01*
X159927031Y-75281416D01*
X159838333Y-75370114D01*
X159782935Y-75398340D01*
X159721527Y-75388614D01*
X159677563Y-75344650D01*
X159666598Y-75298979D01*
X159666598Y-75286923D01*
X159665634Y-75277140D01*
X159652859Y-75212907D01*
X159652859Y-75173657D01*
X159666134Y-75106918D01*
X159666134Y-75106917D01*
X159667099Y-75102066D01*
X159667098Y-74781933D01*
X159652333Y-74707698D01*
X159641263Y-74691130D01*
X159601587Y-74631752D01*
X159601586Y-74631751D01*
X159596083Y-74623515D01*
X159583409Y-74615046D01*
X159565247Y-74602911D01*
X159511900Y-74567265D01*
X159452507Y-74555451D01*
X159442518Y-74553464D01*
X159442517Y-74553464D01*
X159437666Y-74552499D01*
X159187099Y-74552499D01*
X159127968Y-74533286D01*
X159091423Y-74482986D01*
X159086499Y-74451899D01*
X159086499Y-74236865D01*
X159105712Y-74177734D01*
X159115964Y-74165730D01*
X159612729Y-73668965D01*
X159668127Y-73640739D01*
X159683863Y-73639500D01*
X159823826Y-73639499D01*
X159841044Y-73639499D01*
X159933427Y-73624868D01*
X159940481Y-73621274D01*
X160037718Y-73571729D01*
X160037719Y-73571728D01*
X160044771Y-73568135D01*
X160079218Y-73533688D01*
X160134616Y-73505462D01*
X160196024Y-73515188D01*
X160221488Y-73533688D01*
X160249927Y-73562127D01*
X160262582Y-73571321D01*
X160359674Y-73620792D01*
X160365187Y-73622583D01*
X160373649Y-73621242D01*
X160374439Y-73620452D01*
X160376000Y-73613951D01*
X160376000Y-73609922D01*
X160884000Y-73609922D01*
X160888188Y-73622812D01*
X160889091Y-73623468D01*
X160891506Y-73623658D01*
X160900326Y-73620792D01*
X160997418Y-73571321D01*
X161010073Y-73562127D01*
X161087127Y-73485073D01*
X161096321Y-73472418D01*
X161145792Y-73375326D01*
X161150626Y-73360448D01*
X161153114Y-73344738D01*
X161150994Y-73331350D01*
X161150206Y-73330562D01*
X161143701Y-73329000D01*
X160899933Y-73329000D01*
X160887043Y-73333188D01*
X160884000Y-73337377D01*
X160884000Y-73609922D01*
X160376000Y-73609922D01*
X160376000Y-72805067D01*
X160884000Y-72805067D01*
X160888188Y-72817957D01*
X160892377Y-72821000D01*
X161139673Y-72821000D01*
X161152563Y-72816812D01*
X161153219Y-72815909D01*
X161153744Y-72809240D01*
X161150625Y-72789551D01*
X161145792Y-72774674D01*
X161096321Y-72677582D01*
X161087127Y-72664927D01*
X161010073Y-72587873D01*
X160997418Y-72578679D01*
X160900326Y-72529208D01*
X160894813Y-72527417D01*
X160886351Y-72528758D01*
X160885561Y-72529548D01*
X160884000Y-72536049D01*
X160884000Y-72805067D01*
X160376000Y-72805067D01*
X160376000Y-72540078D01*
X160371813Y-72527190D01*
X160370231Y-72526041D01*
X160333686Y-72475741D01*
X160333685Y-72413567D01*
X160370230Y-72363266D01*
X160394049Y-72350455D01*
X160460614Y-72325501D01*
X160469764Y-72322071D01*
X160585404Y-72235404D01*
X160589971Y-72229311D01*
X160629328Y-72176796D01*
X160672071Y-72119764D01*
X160722798Y-71984448D01*
X160729500Y-71922756D01*
X160729500Y-71919989D01*
X161121001Y-71919989D01*
X161121295Y-71925413D01*
X161127014Y-71978070D01*
X161129910Y-71990249D01*
X161175855Y-72112807D01*
X161182672Y-72125259D01*
X161260654Y-72229311D01*
X161270689Y-72239346D01*
X161374741Y-72317328D01*
X161387193Y-72324145D01*
X161509749Y-72370089D01*
X161521932Y-72372986D01*
X161574589Y-72378707D01*
X161580009Y-72379000D01*
X161605067Y-72379000D01*
X161617957Y-72374812D01*
X161621000Y-72370623D01*
X161621000Y-72363066D01*
X162129000Y-72363066D01*
X162133188Y-72375956D01*
X162137377Y-72378999D01*
X162169989Y-72378999D01*
X162175413Y-72378705D01*
X162228070Y-72372986D01*
X162240249Y-72370090D01*
X162362807Y-72324145D01*
X162375259Y-72317328D01*
X162479311Y-72239346D01*
X162489346Y-72229311D01*
X162567328Y-72125259D01*
X162574145Y-72112807D01*
X162620089Y-71990251D01*
X162622986Y-71978068D01*
X162628707Y-71925411D01*
X162629000Y-71919991D01*
X162629000Y-71669933D01*
X162624812Y-71657043D01*
X162620623Y-71654000D01*
X162144933Y-71654000D01*
X162132043Y-71658188D01*
X162129000Y-71662377D01*
X162129000Y-72363066D01*
X161621000Y-72363066D01*
X161621000Y-71669933D01*
X161616812Y-71657043D01*
X161612623Y-71654000D01*
X161136934Y-71654000D01*
X161124044Y-71658188D01*
X161121001Y-71662377D01*
X161121001Y-71919989D01*
X160729500Y-71919989D01*
X160729500Y-71130067D01*
X161121000Y-71130067D01*
X161125188Y-71142957D01*
X161129377Y-71146000D01*
X161605067Y-71146000D01*
X161617957Y-71141812D01*
X161621000Y-71137623D01*
X161621000Y-71130067D01*
X162129000Y-71130067D01*
X162133188Y-71142957D01*
X162137377Y-71146000D01*
X162613066Y-71146000D01*
X162625956Y-71141812D01*
X162628999Y-71137623D01*
X162628999Y-70880011D01*
X162628705Y-70874587D01*
X162622986Y-70821930D01*
X162620090Y-70809751D01*
X162574145Y-70687193D01*
X162567328Y-70674741D01*
X162489346Y-70570689D01*
X162479311Y-70560654D01*
X162375259Y-70482672D01*
X162362807Y-70475855D01*
X162240251Y-70429911D01*
X162228068Y-70427014D01*
X162175411Y-70421293D01*
X162169991Y-70421000D01*
X162144933Y-70421000D01*
X162132043Y-70425188D01*
X162129000Y-70429377D01*
X162129000Y-71130067D01*
X161621000Y-71130067D01*
X161621000Y-70436934D01*
X161616812Y-70424044D01*
X161612623Y-70421001D01*
X161580011Y-70421001D01*
X161574587Y-70421295D01*
X161521930Y-70427014D01*
X161509751Y-70429910D01*
X161387193Y-70475855D01*
X161374741Y-70482672D01*
X161270689Y-70560654D01*
X161260654Y-70570689D01*
X161182672Y-70674741D01*
X161175855Y-70687193D01*
X161129911Y-70809749D01*
X161127014Y-70821932D01*
X161121293Y-70874589D01*
X161121000Y-70880009D01*
X161121000Y-71130067D01*
X160729500Y-71130067D01*
X160729500Y-70877244D01*
X160722798Y-70815552D01*
X160672071Y-70680236D01*
X160609194Y-70596339D01*
X160589703Y-70570332D01*
X160585404Y-70564596D01*
X160469764Y-70477929D01*
X160334448Y-70427202D01*
X160299918Y-70423451D01*
X160275456Y-70420793D01*
X160275450Y-70420793D01*
X160272756Y-70420500D01*
X159677244Y-70420500D01*
X159674550Y-70420793D01*
X159674544Y-70420793D01*
X159650082Y-70423451D01*
X159615552Y-70427202D01*
X159480236Y-70477929D01*
X159364596Y-70564596D01*
X159360297Y-70570332D01*
X159340806Y-70596339D01*
X159277929Y-70680236D01*
X159227202Y-70815552D01*
X159220500Y-70877244D01*
X159220500Y-71922756D01*
X159227202Y-71984448D01*
X159277929Y-72119764D01*
X159278924Y-72121091D01*
X159290500Y-72166346D01*
X159290500Y-72419900D01*
X159271287Y-72479031D01*
X159220987Y-72515576D01*
X159189900Y-72520500D01*
X155030865Y-72520500D01*
X154971734Y-72501287D01*
X154954445Y-72483999D01*
X154954040Y-72483204D01*
X154871618Y-72400782D01*
X154843392Y-72345384D01*
X154853118Y-72283976D01*
X154871618Y-72258512D01*
X154948032Y-72182098D01*
X154957226Y-72169443D01*
X155005978Y-72073763D01*
X155010812Y-72058884D01*
X155015428Y-72029738D01*
X155013307Y-72016350D01*
X155012519Y-72015561D01*
X155006015Y-72014000D01*
X154346600Y-72014000D01*
X154287469Y-71994787D01*
X154250924Y-71944487D01*
X154246000Y-71913400D01*
X154246000Y-71606600D01*
X154265213Y-71547469D01*
X154315513Y-71510924D01*
X154346600Y-71506000D01*
X155001988Y-71506000D01*
X155014878Y-71501812D01*
X155015533Y-71500910D01*
X155016058Y-71494238D01*
X155010812Y-71461116D01*
X155005978Y-71446237D01*
X154957226Y-71350557D01*
X154948032Y-71337902D01*
X154872098Y-71261968D01*
X154859443Y-71252774D01*
X154763761Y-71204022D01*
X154748885Y-71199188D01*
X154719038Y-71194461D01*
X154663640Y-71166235D01*
X154635414Y-71110837D01*
X154645140Y-71049429D01*
X154689103Y-71005465D01*
X154734775Y-70994500D01*
X155605025Y-70994500D01*
X155624650Y-70996433D01*
X155630281Y-70997553D01*
X155630282Y-70997553D01*
X155640000Y-70999486D01*
X155648572Y-70997781D01*
X155651760Y-70997553D01*
X155653204Y-70997553D01*
X155654838Y-70997333D01*
X155857513Y-70982837D01*
X155861023Y-70982073D01*
X155861026Y-70982073D01*
X155928855Y-70967317D01*
X156070598Y-70936483D01*
X156073965Y-70935227D01*
X156073969Y-70935226D01*
X156271554Y-70861531D01*
X156271558Y-70861529D01*
X156274918Y-70860276D01*
X156278062Y-70858559D01*
X156278067Y-70858557D01*
X156463160Y-70757488D01*
X156466312Y-70755767D01*
X156557916Y-70687193D01*
X156638004Y-70627240D01*
X156638007Y-70627238D01*
X156640885Y-70625083D01*
X156795083Y-70470885D01*
X156820499Y-70436934D01*
X156923612Y-70299191D01*
X156923613Y-70299189D01*
X156925767Y-70296312D01*
X156952192Y-70247918D01*
X157028557Y-70108067D01*
X157028559Y-70108062D01*
X157030276Y-70104918D01*
X157106483Y-69900598D01*
X157152837Y-69687513D01*
X157167333Y-69484838D01*
X157167553Y-69483204D01*
X157167553Y-69481760D01*
X157167781Y-69478572D01*
X157169486Y-69470000D01*
X157166433Y-69454650D01*
X157164500Y-69435025D01*
X157164500Y-64264975D01*
X157166433Y-64245350D01*
X157167553Y-64239719D01*
X157167553Y-64239718D01*
X157169486Y-64230000D01*
X157167781Y-64221428D01*
X157167553Y-64218240D01*
X157167553Y-64216796D01*
X157167332Y-64215156D01*
X157155782Y-64053660D01*
X157152837Y-64012487D01*
X157106483Y-63799402D01*
X157030276Y-63595082D01*
X157020539Y-63577249D01*
X156927488Y-63406840D01*
X156925767Y-63403688D01*
X156795083Y-63229115D01*
X156640885Y-63074917D01*
X156466312Y-62944233D01*
X156425943Y-62922190D01*
X156278067Y-62841443D01*
X156278062Y-62841441D01*
X156274918Y-62839724D01*
X156271558Y-62838471D01*
X156271554Y-62838469D01*
X156073969Y-62764774D01*
X156073965Y-62764773D01*
X156070598Y-62763517D01*
X155928855Y-62732683D01*
X155861026Y-62717927D01*
X155861023Y-62717927D01*
X155857513Y-62717163D01*
X155654838Y-62702667D01*
X155653204Y-62702447D01*
X155651760Y-62702447D01*
X155648572Y-62702219D01*
X155640000Y-62700514D01*
X155630282Y-62702447D01*
X155630281Y-62702447D01*
X155624650Y-62703567D01*
X155605025Y-62705500D01*
X139654975Y-62705500D01*
X139635350Y-62703567D01*
X139629719Y-62702447D01*
X139629718Y-62702447D01*
X139620000Y-62700514D01*
X139611428Y-62702219D01*
X139608240Y-62702447D01*
X139606796Y-62702447D01*
X139605162Y-62702667D01*
X139402487Y-62717163D01*
X139398977Y-62717927D01*
X139398974Y-62717927D01*
X139331145Y-62732683D01*
X139189402Y-62763517D01*
X139186035Y-62764773D01*
X139186031Y-62764774D01*
X138988446Y-62838469D01*
X138988442Y-62838471D01*
X138985082Y-62839724D01*
X138981938Y-62841441D01*
X138981933Y-62841443D01*
X138834057Y-62922190D01*
X138793688Y-62944233D01*
X138619115Y-63074917D01*
X138464917Y-63229115D01*
X138334233Y-63403688D01*
X138332512Y-63406840D01*
X138239462Y-63577249D01*
X138229724Y-63595082D01*
X138153517Y-63799402D01*
X138107163Y-64012487D01*
X138104219Y-64053660D01*
X138092668Y-64215156D01*
X138092447Y-64216796D01*
X138092447Y-64218240D01*
X138092219Y-64221428D01*
X138090514Y-64230000D01*
X138092447Y-64239718D01*
X138092447Y-64239719D01*
X138093567Y-64245350D01*
X138095500Y-64264975D01*
X138095500Y-69435025D01*
X138093567Y-69454650D01*
X138090514Y-69470000D01*
X138092219Y-69478572D01*
X138092447Y-69481760D01*
X138092447Y-69483204D01*
X138092667Y-69484838D01*
X138107163Y-69687513D01*
X138153517Y-69900598D01*
X138229724Y-70104918D01*
X138231441Y-70108062D01*
X138231443Y-70108067D01*
X138307808Y-70247918D01*
X138334233Y-70296312D01*
X138336387Y-70299189D01*
X138336388Y-70299191D01*
X138439502Y-70436934D01*
X138464917Y-70470885D01*
X138619115Y-70625083D01*
X138621993Y-70627238D01*
X138621996Y-70627240D01*
X138702084Y-70687193D01*
X138793688Y-70755767D01*
X138796840Y-70757488D01*
X138981933Y-70858557D01*
X138981938Y-70858559D01*
X138985082Y-70860276D01*
X138988442Y-70861529D01*
X138988446Y-70861531D01*
X139186031Y-70935226D01*
X139186035Y-70935227D01*
X139189402Y-70936483D01*
X139331145Y-70967317D01*
X139398974Y-70982073D01*
X139398977Y-70982073D01*
X139402487Y-70982837D01*
X139605162Y-70997333D01*
X139606796Y-70997553D01*
X139608240Y-70997553D01*
X139611428Y-70997781D01*
X139620000Y-70999486D01*
X139629718Y-70997553D01*
X139629719Y-70997553D01*
X139635350Y-70996433D01*
X139654975Y-70994500D01*
X151065225Y-70994500D01*
X151124356Y-71013713D01*
X151160901Y-71064013D01*
X151160901Y-71126187D01*
X151124356Y-71176487D01*
X151080962Y-71194461D01*
X151051115Y-71199188D01*
X151036239Y-71204022D01*
X150940557Y-71252774D01*
X150927902Y-71261968D01*
X150851968Y-71337902D01*
X150842774Y-71350557D01*
X150794022Y-71446237D01*
X150789188Y-71461116D01*
X150784572Y-71490260D01*
X150786693Y-71503650D01*
X150787481Y-71504439D01*
X150793985Y-71506000D01*
X151453400Y-71506000D01*
X151512531Y-71525213D01*
X151549076Y-71575513D01*
X151554000Y-71606600D01*
X151554000Y-71913400D01*
X151534787Y-71972531D01*
X151484487Y-72009076D01*
X151453400Y-72014000D01*
X150798012Y-72014000D01*
X150785122Y-72018188D01*
X150784467Y-72019090D01*
X150783942Y-72025762D01*
X150789188Y-72058884D01*
X150794022Y-72073763D01*
X150842774Y-72169443D01*
X150851968Y-72182098D01*
X150927905Y-72258035D01*
X150928274Y-72258303D01*
X150928542Y-72258672D01*
X150933501Y-72263631D01*
X150932715Y-72264417D01*
X150964817Y-72308605D01*
X150964815Y-72370779D01*
X150932499Y-72415255D01*
X150933204Y-72415960D01*
X150845960Y-72503204D01*
X150789946Y-72613138D01*
X150775500Y-72704347D01*
X150775500Y-72866136D01*
X150756287Y-72925267D01*
X150746035Y-72937271D01*
X150223871Y-73459435D01*
X150207305Y-73472814D01*
X150197060Y-73479429D01*
X150191913Y-73485959D01*
X150191911Y-73485960D01*
X150175348Y-73506971D01*
X150170170Y-73512799D01*
X150168298Y-73515008D01*
X150165362Y-73517944D01*
X150162951Y-73521318D01*
X150162950Y-73521319D01*
X150153778Y-73534154D01*
X150150932Y-73537943D01*
X150123992Y-73572116D01*
X150123991Y-73572118D01*
X150118844Y-73578647D01*
X150116268Y-73585982D01*
X150115012Y-73588400D01*
X150110486Y-73594734D01*
X150108105Y-73602697D01*
X150108103Y-73602700D01*
X150095621Y-73644439D01*
X150094166Y-73648918D01*
X150076982Y-73697851D01*
X150076500Y-73703416D01*
X150076500Y-73705582D01*
X150076445Y-73706857D01*
X150076244Y-73709234D01*
X150074287Y-73715778D01*
X150075589Y-73748920D01*
X150076422Y-73770119D01*
X150076500Y-73774068D01*
X150076500Y-75150409D01*
X150057287Y-75209540D01*
X150006987Y-75246085D01*
X149944813Y-75246085D01*
X149937402Y-75243351D01*
X149920390Y-75236304D01*
X149860869Y-75224465D01*
X149851070Y-75223500D01*
X149611933Y-75223500D01*
X149599043Y-75227688D01*
X149596000Y-75231877D01*
X149596000Y-75646900D01*
X149576787Y-75706031D01*
X149526487Y-75742576D01*
X149495400Y-75747500D01*
X148852934Y-75747500D01*
X148840044Y-75751688D01*
X148837001Y-75755877D01*
X148837001Y-75767578D01*
X148837965Y-75777361D01*
X148849804Y-75836886D01*
X148857242Y-75854845D01*
X148874825Y-75881160D01*
X148891701Y-75941000D01*
X148874824Y-75992941D01*
X148856772Y-76019957D01*
X148856770Y-76019962D01*
X148851266Y-76028199D01*
X148836500Y-76102433D01*
X148836501Y-76422566D01*
X148836728Y-76423707D01*
X148823663Y-76483265D01*
X148777189Y-76524567D01*
X148736870Y-76533000D01*
X147574393Y-76533000D01*
X147515262Y-76513787D01*
X147503258Y-76503535D01*
X147498628Y-76498905D01*
X147494330Y-76493170D01*
X147385853Y-76411872D01*
X147379142Y-76409356D01*
X147379140Y-76409355D01*
X147264825Y-76366500D01*
X147264824Y-76366500D01*
X147258919Y-76364286D01*
X147252653Y-76363605D01*
X147252643Y-76363603D01*
X147240252Y-76362257D01*
X147183542Y-76336770D01*
X147152644Y-76282817D01*
X147159359Y-76221006D01*
X147201124Y-76174948D01*
X147240257Y-76162234D01*
X147252540Y-76160900D01*
X147264714Y-76158006D01*
X147378902Y-76115200D01*
X147391344Y-76108388D01*
X147488236Y-76035771D01*
X147498271Y-76025736D01*
X147570888Y-75928844D01*
X147577700Y-75916402D01*
X147620508Y-75802209D01*
X147623399Y-75790047D01*
X147628476Y-75743320D01*
X147624812Y-75732043D01*
X147620623Y-75729000D01*
X146186934Y-75729000D01*
X146174044Y-75733188D01*
X146171082Y-75737266D01*
X146171295Y-75741197D01*
X146176600Y-75790041D01*
X146179494Y-75802214D01*
X146222300Y-75916402D01*
X146229112Y-75928844D01*
X146301729Y-76025736D01*
X146311764Y-76035771D01*
X146408656Y-76108388D01*
X146421098Y-76115200D01*
X146535291Y-76158008D01*
X146547453Y-76160899D01*
X146559747Y-76162235D01*
X146616457Y-76187722D01*
X146647356Y-76241675D01*
X146640641Y-76303486D01*
X146598877Y-76349544D01*
X146559744Y-76362259D01*
X146547348Y-76363605D01*
X146547345Y-76363606D01*
X146541081Y-76364286D01*
X146535179Y-76366498D01*
X146535177Y-76366499D01*
X146420860Y-76409355D01*
X146420858Y-76409356D01*
X146414147Y-76411872D01*
X146305670Y-76493170D01*
X146224372Y-76601647D01*
X146221856Y-76608358D01*
X146221855Y-76608360D01*
X146190500Y-76692000D01*
X146176786Y-76728581D01*
X146170500Y-76786447D01*
X146170501Y-77313552D01*
X146170795Y-77316257D01*
X146174875Y-77353820D01*
X146176786Y-77371419D01*
X146178998Y-77377321D01*
X146178999Y-77377323D01*
X146216858Y-77478309D01*
X146224372Y-77498353D01*
X146305670Y-77606830D01*
X146306440Y-77607407D01*
X146333374Y-77660269D01*
X146322672Y-77723545D01*
X146322438Y-77723981D01*
X146318950Y-77728944D01*
X146316747Y-77734593D01*
X146316746Y-77734596D01*
X146263611Y-77870881D01*
X146261406Y-77876537D01*
X146240729Y-78033596D01*
X146241394Y-78039620D01*
X146241394Y-78039624D01*
X146243055Y-78054668D01*
X146258113Y-78191053D01*
X146273669Y-78233561D01*
X146303836Y-78315998D01*
X146312553Y-78339819D01*
X146400908Y-78471305D01*
X146518076Y-78577919D01*
X146657293Y-78653508D01*
X146663163Y-78655048D01*
X146804655Y-78692168D01*
X146804656Y-78692168D01*
X146810522Y-78693707D01*
X146889719Y-78694951D01*
X146962854Y-78696100D01*
X146962856Y-78696100D01*
X146967684Y-78696176D01*
X146967686Y-78696176D01*
X146968916Y-78696195D01*
X146968912Y-78696436D01*
X147026663Y-78708708D01*
X147047504Y-78724698D01*
X147319946Y-78997140D01*
X147333325Y-79013706D01*
X147339940Y-79023951D01*
X147346470Y-79029098D01*
X147346471Y-79029100D01*
X147367482Y-79045663D01*
X147373317Y-79050848D01*
X147375523Y-79052717D01*
X147378455Y-79055649D01*
X147388623Y-79062915D01*
X147394636Y-79067212D01*
X147398424Y-79070056D01*
X147406214Y-79076197D01*
X147439158Y-79102167D01*
X147446497Y-79104744D01*
X147448916Y-79106001D01*
X147455245Y-79110524D01*
X147463213Y-79112907D01*
X147463215Y-79112908D01*
X147496719Y-79122928D01*
X147503866Y-79125065D01*
X147504939Y-79125386D01*
X147509443Y-79126850D01*
X147558362Y-79144029D01*
X147563927Y-79144511D01*
X147566093Y-79144511D01*
X147567368Y-79144566D01*
X147569745Y-79144767D01*
X147576289Y-79146724D01*
X147630629Y-79144589D01*
X147634579Y-79144511D01*
X153887773Y-79144511D01*
X153908947Y-79146765D01*
X153912736Y-79147581D01*
X153912737Y-79147581D01*
X153920865Y-79149331D01*
X153929120Y-79148354D01*
X153948319Y-79146082D01*
X153955699Y-79145208D01*
X153963488Y-79144749D01*
X153966367Y-79144511D01*
X153970513Y-79144511D01*
X153974603Y-79143830D01*
X153974605Y-79143830D01*
X153990149Y-79141243D01*
X153994842Y-79140575D01*
X154038071Y-79135459D01*
X154038074Y-79135458D01*
X154046330Y-79134481D01*
X154053343Y-79131113D01*
X154055938Y-79130292D01*
X154063615Y-79129015D01*
X154109241Y-79104396D01*
X154113463Y-79102245D01*
X154154509Y-79082535D01*
X154154510Y-79082534D01*
X154160221Y-79079792D01*
X154164497Y-79076197D01*
X154166042Y-79074652D01*
X154166970Y-79073801D01*
X154168790Y-79072266D01*
X154174803Y-79069021D01*
X154211723Y-79029081D01*
X154214461Y-79026233D01*
X155924729Y-77315965D01*
X155980127Y-77287739D01*
X155995864Y-77286500D01*
X156484000Y-77286500D01*
X156972135Y-77286499D01*
X157031266Y-77305712D01*
X157043270Y-77315964D01*
X158424071Y-78696765D01*
X158452297Y-78752163D01*
X158442571Y-78813571D01*
X158398607Y-78857535D01*
X158352936Y-78868500D01*
X155933221Y-78868500D01*
X155912048Y-78866246D01*
X155900124Y-78863679D01*
X155891870Y-78864656D01*
X155891869Y-78864656D01*
X155865283Y-78867803D01*
X155857523Y-78868260D01*
X155854620Y-78868500D01*
X155850476Y-78868500D01*
X155846386Y-78869181D01*
X155846382Y-78869181D01*
X155830862Y-78871764D01*
X155826173Y-78872431D01*
X155782924Y-78877551D01*
X155782920Y-78877552D01*
X155774659Y-78878530D01*
X155767647Y-78881898D01*
X155765049Y-78882719D01*
X155757374Y-78883996D01*
X155711713Y-78908633D01*
X155707523Y-78910768D01*
X155660769Y-78933219D01*
X155656493Y-78936813D01*
X155654960Y-78938346D01*
X155654018Y-78939210D01*
X155652198Y-78940746D01*
X155646186Y-78943990D01*
X155640542Y-78950096D01*
X155609266Y-78983930D01*
X155606528Y-78986778D01*
X142737871Y-91855435D01*
X142721305Y-91868814D01*
X142711060Y-91875429D01*
X142705913Y-91881959D01*
X142705911Y-91881960D01*
X142689348Y-91902971D01*
X142684170Y-91908799D01*
X142682298Y-91911008D01*
X142679362Y-91913944D01*
X142676951Y-91917318D01*
X142676950Y-91917319D01*
X142667778Y-91930154D01*
X142664932Y-91933943D01*
X142637992Y-91968116D01*
X142637991Y-91968118D01*
X142632844Y-91974647D01*
X142630268Y-91981982D01*
X142629012Y-91984400D01*
X142624486Y-91990734D01*
X142622105Y-91998697D01*
X142622103Y-91998700D01*
X142609621Y-92040439D01*
X142608166Y-92044918D01*
X142590982Y-92093851D01*
X142590500Y-92099416D01*
X142590500Y-92101582D01*
X142590445Y-92102857D01*
X142590244Y-92105234D01*
X142588287Y-92111778D01*
X142588614Y-92120091D01*
X142590422Y-92166119D01*
X142590500Y-92170068D01*
X142590500Y-95288784D01*
X142588246Y-95309958D01*
X142585680Y-95321876D01*
X142586657Y-95330131D01*
X142589803Y-95356710D01*
X142590262Y-95364499D01*
X142590500Y-95367378D01*
X142590500Y-95371524D01*
X142591181Y-95375614D01*
X142591181Y-95375616D01*
X142593768Y-95391160D01*
X142594436Y-95395853D01*
X142599552Y-95439082D01*
X142599553Y-95439085D01*
X142600530Y-95447341D01*
X142603898Y-95454354D01*
X142604719Y-95456949D01*
X142605996Y-95464626D01*
X142630613Y-95510249D01*
X142632766Y-95514474D01*
X142646453Y-95542977D01*
X142655219Y-95561232D01*
X142658814Y-95565508D01*
X142660359Y-95567053D01*
X142661210Y-95567981D01*
X142662745Y-95569801D01*
X142665990Y-95575814D01*
X142683128Y-95591656D01*
X142705930Y-95612734D01*
X142708778Y-95615472D01*
X147459917Y-100366611D01*
X147488143Y-100422009D01*
X147478417Y-100483417D01*
X147434453Y-100527381D01*
X147373045Y-100537107D01*
X147331440Y-100520404D01*
X147242973Y-100459032D01*
X147009090Y-100343694D01*
X147005535Y-100342556D01*
X147005533Y-100342555D01*
X146857269Y-100295096D01*
X146760728Y-100264193D01*
X146503344Y-100222275D01*
X146499602Y-100222226D01*
X146470905Y-100221850D01*
X146242590Y-100218862D01*
X146132620Y-100233828D01*
X145987898Y-100253524D01*
X145987896Y-100253524D01*
X145984196Y-100254028D01*
X145980613Y-100255072D01*
X145980610Y-100255073D01*
X145949321Y-100264193D01*
X145733838Y-100327000D01*
X145547733Y-100412796D01*
X145485993Y-100420104D01*
X145470302Y-100415634D01*
X145444864Y-100406097D01*
X145437427Y-100402963D01*
X145400506Y-100385629D01*
X145394018Y-100382583D01*
X145386941Y-100381481D01*
X145386937Y-100381480D01*
X145383889Y-100381006D01*
X145364048Y-100375801D01*
X145354448Y-100372202D01*
X145314701Y-100369249D01*
X145306643Y-100368650D01*
X145298618Y-100367729D01*
X145288144Y-100366098D01*
X145288142Y-100366098D01*
X145284303Y-100365500D01*
X145267984Y-100365500D01*
X145260529Y-100365223D01*
X145217482Y-100362024D01*
X145217480Y-100362024D01*
X145210333Y-100361493D01*
X145201948Y-100363283D01*
X145180946Y-100365500D01*
X114235099Y-100365500D01*
X114175968Y-100346287D01*
X114139423Y-100295987D01*
X114134499Y-100264900D01*
X114134499Y-99594934D01*
X114119734Y-99520699D01*
X114114230Y-99512461D01*
X114068988Y-99444753D01*
X114063484Y-99436516D01*
X113979301Y-99380266D01*
X113930761Y-99370611D01*
X113909919Y-99366465D01*
X113909918Y-99366465D01*
X113905067Y-99365500D01*
X113900120Y-99365500D01*
X113029204Y-99365501D01*
X112154934Y-99365501D01*
X112119452Y-99372558D01*
X112090416Y-99378333D01*
X112090414Y-99378334D01*
X112080699Y-99380266D01*
X111996516Y-99436516D01*
X111940266Y-99520699D01*
X111925500Y-99594933D01*
X111925501Y-102145066D01*
X111940266Y-102219301D01*
X111945769Y-102227536D01*
X111945769Y-102227537D01*
X111957373Y-102244903D01*
X111996516Y-102303484D01*
X112080699Y-102359734D01*
X112129239Y-102369389D01*
X112150081Y-102373535D01*
X112150082Y-102373535D01*
X112154933Y-102374500D01*
X112159880Y-102374500D01*
X113030796Y-102374499D01*
X113905066Y-102374499D01*
X113940548Y-102367442D01*
X113969584Y-102361667D01*
X113969586Y-102361666D01*
X113979301Y-102359734D01*
X114063484Y-102303484D01*
X114119734Y-102219301D01*
X114134500Y-102145067D01*
X114134500Y-101475100D01*
X114153713Y-101415969D01*
X114204013Y-101379424D01*
X114235100Y-101374500D01*
X144562882Y-101374500D01*
X144622013Y-101393713D01*
X144658558Y-101444013D01*
X144660387Y-101499863D01*
X144622483Y-101649112D01*
X144617310Y-101669480D01*
X144616936Y-101673191D01*
X144616936Y-101673193D01*
X144613100Y-101711293D01*
X144591183Y-101928944D01*
X144603694Y-102189419D01*
X144654569Y-102445185D01*
X144655831Y-102448700D01*
X144740626Y-102684871D01*
X144742690Y-102690621D01*
X144866120Y-102920336D01*
X144868350Y-102923322D01*
X144868353Y-102923327D01*
X144952980Y-103036655D01*
X145022149Y-103129283D01*
X145207348Y-103312873D01*
X145280438Y-103366465D01*
X145414641Y-103464868D01*
X145414646Y-103464871D01*
X145417649Y-103467073D01*
X145460008Y-103489359D01*
X145645127Y-103586755D01*
X145645131Y-103586757D01*
X145648433Y-103588494D01*
X145651960Y-103589726D01*
X145651963Y-103589727D01*
X145854868Y-103660584D01*
X145894629Y-103674469D01*
X146150828Y-103723110D01*
X146154557Y-103723256D01*
X146154561Y-103723257D01*
X146320618Y-103729781D01*
X146411403Y-103733348D01*
X146504885Y-103723110D01*
X146666916Y-103705365D01*
X146666921Y-103705364D01*
X146670629Y-103704958D01*
X146791114Y-103673237D01*
X146919204Y-103639514D01*
X146919208Y-103639512D01*
X146922811Y-103638564D01*
X147162410Y-103535625D01*
X147384161Y-103398401D01*
X147399081Y-103385771D01*
X147580339Y-103232324D01*
X147583194Y-103229907D01*
X147669138Y-103131906D01*
X147752671Y-103036655D01*
X147752673Y-103036653D01*
X147755135Y-103033845D01*
X147757153Y-103030707D01*
X147757158Y-103030701D01*
X147894183Y-102817672D01*
X147894186Y-102817667D01*
X147896208Y-102814523D01*
X147928178Y-102743553D01*
X147969981Y-102697532D01*
X148030852Y-102684871D01*
X148087540Y-102710407D01*
X148118392Y-102764387D01*
X148120500Y-102784873D01*
X148120500Y-103481136D01*
X148101287Y-103540267D01*
X148091035Y-103552271D01*
X130842271Y-120801035D01*
X130786873Y-120829261D01*
X130771136Y-120830500D01*
X128931216Y-120830500D01*
X128910042Y-120828246D01*
X128906253Y-120827430D01*
X128906252Y-120827430D01*
X128898124Y-120825680D01*
X128889869Y-120826657D01*
X128863290Y-120829803D01*
X128855501Y-120830262D01*
X128852622Y-120830500D01*
X128848476Y-120830500D01*
X128844386Y-120831181D01*
X128844384Y-120831181D01*
X128828840Y-120833768D01*
X128824147Y-120834436D01*
X128780918Y-120839552D01*
X128780915Y-120839553D01*
X128772659Y-120840530D01*
X128765646Y-120843898D01*
X128763051Y-120844719D01*
X128755374Y-120845996D01*
X128709751Y-120870613D01*
X128705526Y-120872766D01*
X128674720Y-120887559D01*
X128658768Y-120895219D01*
X128654492Y-120898814D01*
X128652947Y-120900359D01*
X128652019Y-120901210D01*
X128650199Y-120902745D01*
X128644186Y-120905990D01*
X128615876Y-120936616D01*
X128607266Y-120945930D01*
X128604528Y-120948778D01*
X126656917Y-122896389D01*
X126601519Y-122924615D01*
X126585255Y-122925853D01*
X126498124Y-122925397D01*
X126434221Y-122925062D01*
X126428324Y-122926478D01*
X126428322Y-122926478D01*
X126317122Y-122953175D01*
X126280184Y-122962043D01*
X126274798Y-122964823D01*
X126274795Y-122964824D01*
X126198603Y-123004150D01*
X126139414Y-123034700D01*
X126121799Y-123050067D01*
X126027260Y-123132539D01*
X126020039Y-123138838D01*
X126016553Y-123143798D01*
X125991629Y-123179261D01*
X125928950Y-123268444D01*
X125871406Y-123416037D01*
X125850729Y-123573096D01*
X125851394Y-123579120D01*
X125851394Y-123579124D01*
X125859421Y-123651824D01*
X125868113Y-123730553D01*
X125884185Y-123774473D01*
X125919577Y-123871186D01*
X125922553Y-123879319D01*
X125928919Y-123888792D01*
X125945951Y-123948586D01*
X125924585Y-124006973D01*
X125872980Y-124041651D01*
X125845419Y-124045500D01*
X120580641Y-124045500D01*
X120521510Y-124026287D01*
X120509506Y-124016035D01*
X114208965Y-117715494D01*
X114180739Y-117660096D01*
X114179500Y-117644359D01*
X114179499Y-115354872D01*
X114179499Y-115349934D01*
X114172442Y-115314452D01*
X114166667Y-115285416D01*
X114166666Y-115285414D01*
X114164734Y-115275699D01*
X114159230Y-115267461D01*
X114113988Y-115199753D01*
X114108484Y-115191516D01*
X114024301Y-115135266D01*
X113975761Y-115125611D01*
X113954919Y-115121465D01*
X113954918Y-115121465D01*
X113950067Y-115120500D01*
X113680100Y-115120500D01*
X113620969Y-115101287D01*
X113584424Y-115050987D01*
X113579500Y-115019900D01*
X113579500Y-106475099D01*
X113598713Y-106415968D01*
X113649013Y-106379423D01*
X113680100Y-106374499D01*
X113905066Y-106374499D01*
X113940548Y-106367442D01*
X113969584Y-106361667D01*
X113969586Y-106361666D01*
X113979301Y-106359734D01*
X114063484Y-106303484D01*
X114119734Y-106219301D01*
X114134500Y-106145067D01*
X114134499Y-103594934D01*
X114122703Y-103535625D01*
X114121667Y-103530416D01*
X114121666Y-103530414D01*
X114119734Y-103520699D01*
X114114230Y-103512461D01*
X114068988Y-103444753D01*
X114063484Y-103436516D01*
X113979301Y-103380266D01*
X113930761Y-103370611D01*
X113909919Y-103366465D01*
X113909918Y-103366465D01*
X113905067Y-103365500D01*
X113900120Y-103365500D01*
X113029204Y-103365501D01*
X112154934Y-103365501D01*
X112119452Y-103372558D01*
X112090416Y-103378333D01*
X112090414Y-103378334D01*
X112080699Y-103380266D01*
X112072464Y-103385769D01*
X112072463Y-103385769D01*
X112049465Y-103401136D01*
X111996516Y-103436516D01*
X111940266Y-103520699D01*
X111934738Y-103548490D01*
X111926536Y-103589727D01*
X111925500Y-103594933D01*
X111925501Y-106145066D01*
X111940266Y-106219301D01*
X111945769Y-106227536D01*
X111945769Y-106227537D01*
X111991012Y-106295247D01*
X111996516Y-106303484D01*
X112080699Y-106359734D01*
X112129239Y-106369389D01*
X112150081Y-106373535D01*
X112150082Y-106373535D01*
X112154933Y-106374500D01*
X112469900Y-106374500D01*
X112529031Y-106393713D01*
X112565576Y-106444013D01*
X112570500Y-106475100D01*
X112570500Y-115019901D01*
X112551287Y-115079032D01*
X112500987Y-115115577D01*
X112469900Y-115120501D01*
X112199934Y-115120501D01*
X112164452Y-115127558D01*
X112135416Y-115133333D01*
X112135414Y-115133334D01*
X112125699Y-115135266D01*
X112041516Y-115191516D01*
X111985266Y-115275699D01*
X111970500Y-115349933D01*
X111970501Y-117900066D01*
X111985266Y-117974301D01*
X112041516Y-118058484D01*
X112125699Y-118114734D01*
X112174087Y-118124359D01*
X112195081Y-118128535D01*
X112195082Y-118128535D01*
X112199933Y-118129500D01*
X112305639Y-118129500D01*
X113154358Y-118129499D01*
X113213489Y-118148712D01*
X113225493Y-118158964D01*
X114015294Y-118948765D01*
X114043520Y-119004163D01*
X114033794Y-119065571D01*
X113989830Y-119109535D01*
X113944159Y-119120500D01*
X112996740Y-119120501D01*
X112199934Y-119120501D01*
X112164452Y-119127558D01*
X112135416Y-119133333D01*
X112135414Y-119133334D01*
X112125699Y-119135266D01*
X112117464Y-119140769D01*
X112117463Y-119140769D01*
X112104286Y-119149574D01*
X112041516Y-119191516D01*
X111985266Y-119275699D01*
X111978649Y-119308964D01*
X111971856Y-119343118D01*
X111970500Y-119349933D01*
X111970501Y-121900066D01*
X111985266Y-121974301D01*
X112041516Y-122058484D01*
X112125699Y-122114734D01*
X112174239Y-122124389D01*
X112195081Y-122128535D01*
X112195082Y-122128535D01*
X112199933Y-122129500D01*
X112376739Y-122129500D01*
X113824358Y-122129499D01*
X113883489Y-122148712D01*
X113895493Y-122158964D01*
X119295332Y-127558803D01*
X119303355Y-127568845D01*
X119303384Y-127568820D01*
X119308028Y-127574276D01*
X119311853Y-127580339D01*
X119317226Y-127585084D01*
X119352441Y-127616185D01*
X119356982Y-127620453D01*
X119368880Y-127632351D01*
X119374476Y-127636545D01*
X119377977Y-127639169D01*
X119384225Y-127644256D01*
X119420170Y-127676001D01*
X119429459Y-127680362D01*
X119447029Y-127690920D01*
X119449496Y-127692769D01*
X119449500Y-127692771D01*
X119455236Y-127697070D01*
X119461945Y-127699585D01*
X119461949Y-127699587D01*
X119500134Y-127713902D01*
X119507573Y-127717037D01*
X119544494Y-127734371D01*
X119550982Y-127737417D01*
X119558059Y-127738519D01*
X119558063Y-127738520D01*
X119561111Y-127738994D01*
X119580952Y-127744199D01*
X119590552Y-127747798D01*
X119630299Y-127750751D01*
X119638357Y-127751350D01*
X119646382Y-127752271D01*
X119656856Y-127753902D01*
X119656858Y-127753902D01*
X119660697Y-127754500D01*
X119677016Y-127754500D01*
X119684471Y-127754777D01*
X119727518Y-127757976D01*
X119727520Y-127757976D01*
X119734667Y-127758507D01*
X119743053Y-127756717D01*
X119764054Y-127754500D01*
X149292215Y-127754500D01*
X149304989Y-127755927D01*
X149304992Y-127755889D01*
X149312130Y-127756463D01*
X149319124Y-127758046D01*
X149373172Y-127754693D01*
X149379401Y-127754500D01*
X149396226Y-127754500D01*
X149399764Y-127753993D01*
X149399781Y-127753992D01*
X149407475Y-127752890D01*
X149415504Y-127752067D01*
X149456204Y-127749542D01*
X149456205Y-127749542D01*
X149463359Y-127749098D01*
X149473010Y-127745614D01*
X149492901Y-127740655D01*
X149495962Y-127740217D01*
X149495965Y-127740216D01*
X149503052Y-127739201D01*
X149509572Y-127736237D01*
X149509574Y-127736236D01*
X149546701Y-127719356D01*
X149554178Y-127716312D01*
X149572754Y-127709606D01*
X149599284Y-127700028D01*
X149607564Y-127693979D01*
X149625267Y-127683634D01*
X149628080Y-127682355D01*
X149628082Y-127682354D01*
X149634605Y-127679388D01*
X149670939Y-127648080D01*
X149677247Y-127643072D01*
X149685810Y-127636817D01*
X149685814Y-127636813D01*
X149688944Y-127634527D01*
X149700477Y-127622994D01*
X149705944Y-127617918D01*
X149738655Y-127589733D01*
X149738658Y-127589730D01*
X149744082Y-127585056D01*
X149747981Y-127579041D01*
X149748748Y-127577858D01*
X149762030Y-127561441D01*
X150808865Y-126514605D01*
X150864263Y-126486379D01*
X150925671Y-126496105D01*
X150951135Y-126514605D01*
X151995330Y-127558800D01*
X152003356Y-127568844D01*
X152003384Y-127568820D01*
X152008027Y-127574276D01*
X152011853Y-127580339D01*
X152017226Y-127585084D01*
X152052449Y-127616192D01*
X152056983Y-127620453D01*
X152068881Y-127632351D01*
X152071739Y-127634493D01*
X152071746Y-127634499D01*
X152077962Y-127639157D01*
X152084222Y-127644253D01*
X152120170Y-127676001D01*
X152126654Y-127679045D01*
X152126665Y-127679052D01*
X152129456Y-127680362D01*
X152147033Y-127690923D01*
X152155236Y-127697071D01*
X152200157Y-127713911D01*
X152207552Y-127717027D01*
X152250982Y-127737417D01*
X152260523Y-127738902D01*
X152261111Y-127738994D01*
X152280952Y-127744199D01*
X152290552Y-127747798D01*
X152338374Y-127751352D01*
X152346378Y-127752270D01*
X152360697Y-127754500D01*
X152377006Y-127754500D01*
X152384462Y-127754777D01*
X152427517Y-127757977D01*
X152427520Y-127757977D01*
X152434667Y-127758508D01*
X152443058Y-127756717D01*
X152464058Y-127754500D01*
X188932215Y-127754500D01*
X188944989Y-127755927D01*
X188944992Y-127755889D01*
X188952130Y-127756463D01*
X188959124Y-127758046D01*
X189013172Y-127754693D01*
X189019401Y-127754500D01*
X189036226Y-127754500D01*
X189039764Y-127753993D01*
X189039781Y-127753992D01*
X189047475Y-127752890D01*
X189055504Y-127752067D01*
X189096204Y-127749542D01*
X189096205Y-127749542D01*
X189103359Y-127749098D01*
X189113010Y-127745614D01*
X189132901Y-127740655D01*
X189135962Y-127740217D01*
X189135965Y-127740216D01*
X189143052Y-127739201D01*
X189149572Y-127736237D01*
X189149574Y-127736236D01*
X189186701Y-127719356D01*
X189194178Y-127716312D01*
X189212754Y-127709606D01*
X189239284Y-127700028D01*
X189247564Y-127693979D01*
X189265267Y-127683634D01*
X189268080Y-127682355D01*
X189268082Y-127682354D01*
X189274605Y-127679388D01*
X189310939Y-127648080D01*
X189317247Y-127643072D01*
X189325810Y-127636817D01*
X189325814Y-127636813D01*
X189328944Y-127634527D01*
X189340477Y-127622994D01*
X189345944Y-127617918D01*
X189378655Y-127589733D01*
X189378658Y-127589730D01*
X189384082Y-127585056D01*
X189387981Y-127579041D01*
X189388748Y-127577858D01*
X189402030Y-127561441D01*
X191558800Y-125404670D01*
X191568844Y-125396644D01*
X191568820Y-125396616D01*
X191574276Y-125391973D01*
X191580339Y-125388147D01*
X191616193Y-125347550D01*
X191620460Y-125343010D01*
X191632351Y-125331119D01*
X191634493Y-125328261D01*
X191634499Y-125328254D01*
X191639157Y-125322038D01*
X191644256Y-125315774D01*
X191671255Y-125285204D01*
X191671255Y-125285203D01*
X191676001Y-125279830D01*
X191679046Y-125273344D01*
X191679052Y-125273335D01*
X191680362Y-125270544D01*
X191690923Y-125252967D01*
X191692773Y-125250499D01*
X191692774Y-125250498D01*
X191697071Y-125244764D01*
X191710702Y-125208404D01*
X191749449Y-125159780D01*
X191809377Y-125143218D01*
X191867594Y-125165043D01*
X191901865Y-125216919D01*
X191905500Y-125243718D01*
X191905500Y-139451209D01*
X191886287Y-139510340D01*
X191835987Y-139546885D01*
X191773813Y-139546885D01*
X191723513Y-139510340D01*
X191710070Y-139484790D01*
X191643063Y-139295568D01*
X191641922Y-139292346D01*
X191507188Y-139031303D01*
X191495761Y-139015044D01*
X191340242Y-138793762D01*
X191340239Y-138793758D01*
X191338273Y-138790961D01*
X191335947Y-138788458D01*
X191335943Y-138788453D01*
X191215968Y-138659345D01*
X191138303Y-138575767D01*
X191135660Y-138573604D01*
X191135655Y-138573599D01*
X190985320Y-138450553D01*
X190910977Y-138389704D01*
X190660504Y-138236213D01*
X190633812Y-138224496D01*
X190394649Y-138119511D01*
X190394645Y-138119510D01*
X190391516Y-138118136D01*
X190388226Y-138117199D01*
X190388221Y-138117197D01*
X190112292Y-138038597D01*
X190108992Y-138037657D01*
X190105603Y-138037175D01*
X190105595Y-138037173D01*
X189821547Y-137996747D01*
X189821546Y-137996747D01*
X189818160Y-137996265D01*
X189814747Y-137996247D01*
X189814745Y-137996247D01*
X189653788Y-137995404D01*
X189524402Y-137994727D01*
X189521007Y-137995174D01*
X189521006Y-137995174D01*
X189475029Y-138001227D01*
X189233152Y-138033071D01*
X188949801Y-138110587D01*
X188679592Y-138225841D01*
X188427525Y-138376700D01*
X188424854Y-138378840D01*
X188424851Y-138378842D01*
X188200941Y-138558227D01*
X188200937Y-138558231D01*
X188198263Y-138560373D01*
X187996050Y-138773461D01*
X187994052Y-138776242D01*
X187994050Y-138776244D01*
X187897857Y-138910112D01*
X187824628Y-139012021D01*
X187823030Y-139015040D01*
X187823027Y-139015044D01*
X187812805Y-139034350D01*
X187687168Y-139271638D01*
X187586213Y-139547509D01*
X187585485Y-139550846D01*
X187585484Y-139550851D01*
X187580740Y-139572609D01*
X187523633Y-139834529D01*
X187523365Y-139837936D01*
X187523364Y-139837942D01*
X187500853Y-140123965D01*
X187500584Y-140127386D01*
X187517495Y-140420661D01*
X187574050Y-140708929D01*
X187669205Y-140986853D01*
X187801198Y-141249292D01*
X187967587Y-141491390D01*
X187969888Y-141493919D01*
X187969889Y-141493920D01*
X188015357Y-141543888D01*
X188165293Y-141708666D01*
X188390658Y-141897100D01*
X188639511Y-142053205D01*
X188642628Y-142054612D01*
X188642631Y-142054614D01*
X188708423Y-142084320D01*
X188907247Y-142174092D01*
X188910523Y-142175062D01*
X188910530Y-142175065D01*
X188989455Y-142198443D01*
X189040694Y-142233658D01*
X189061449Y-142292266D01*
X189043790Y-142351880D01*
X188994464Y-142389730D01*
X188960883Y-142395500D01*
X151871072Y-142395500D01*
X151811941Y-142376287D01*
X151775396Y-142325987D01*
X151775396Y-142263813D01*
X151811941Y-142213513D01*
X151842375Y-142199094D01*
X151842243Y-142198700D01*
X151845489Y-142197607D01*
X151848803Y-142196738D01*
X151996354Y-142135621D01*
X152117036Y-142085633D01*
X152117040Y-142085631D01*
X152120205Y-142084320D01*
X152373838Y-141936109D01*
X152376531Y-141933997D01*
X152376536Y-141933994D01*
X152602318Y-141756958D01*
X152602320Y-141756956D01*
X152605010Y-141754847D01*
X152809443Y-141543888D01*
X152983355Y-141307136D01*
X153123526Y-141048973D01*
X153145842Y-140989916D01*
X153226156Y-140777372D01*
X153226158Y-140777366D01*
X153227364Y-140774174D01*
X153228434Y-140769503D01*
X153292184Y-140491159D01*
X153292185Y-140491154D01*
X153292947Y-140487826D01*
X153319060Y-140195226D01*
X153319534Y-140150000D01*
X153299554Y-139856918D01*
X153239982Y-139569259D01*
X153141922Y-139292346D01*
X153007188Y-139031303D01*
X152995761Y-139015044D01*
X152840242Y-138793762D01*
X152840239Y-138793758D01*
X152838273Y-138790961D01*
X152835947Y-138788458D01*
X152835943Y-138788453D01*
X152715968Y-138659345D01*
X152638303Y-138575767D01*
X152635660Y-138573604D01*
X152635655Y-138573599D01*
X152485320Y-138450553D01*
X152410977Y-138389704D01*
X152160504Y-138236213D01*
X152133812Y-138224496D01*
X151894649Y-138119511D01*
X151894645Y-138119510D01*
X151891516Y-138118136D01*
X151888226Y-138117199D01*
X151888221Y-138117197D01*
X151612292Y-138038597D01*
X151608992Y-138037657D01*
X151605603Y-138037175D01*
X151605595Y-138037173D01*
X151321547Y-137996747D01*
X151321546Y-137996747D01*
X151318160Y-137996265D01*
X151314747Y-137996247D01*
X151314745Y-137996247D01*
X151153788Y-137995404D01*
X151024402Y-137994727D01*
X151021007Y-137995174D01*
X151021006Y-137995174D01*
X150975029Y-138001227D01*
X150733152Y-138033071D01*
X150449801Y-138110587D01*
X150179592Y-138225841D01*
X149927525Y-138376700D01*
X149924854Y-138378840D01*
X149924851Y-138378842D01*
X149700941Y-138558227D01*
X149700937Y-138558231D01*
X149698263Y-138560373D01*
X149496050Y-138773461D01*
X149494052Y-138776242D01*
X149494050Y-138776244D01*
X149397857Y-138910112D01*
X149324628Y-139012021D01*
X149323030Y-139015040D01*
X149323027Y-139015044D01*
X149312805Y-139034350D01*
X149187168Y-139271638D01*
X149086213Y-139547509D01*
X149085485Y-139550846D01*
X149085484Y-139550851D01*
X149080740Y-139572609D01*
X149023633Y-139834529D01*
X149023365Y-139837936D01*
X149023364Y-139837942D01*
X149000853Y-140123965D01*
X149000584Y-140127386D01*
X149017495Y-140420661D01*
X149074050Y-140708929D01*
X149169205Y-140986853D01*
X149301198Y-141249292D01*
X149467587Y-141491390D01*
X149469888Y-141493919D01*
X149469889Y-141493920D01*
X149515357Y-141543888D01*
X149665293Y-141708666D01*
X149890658Y-141897100D01*
X150139511Y-142053205D01*
X150142628Y-142054612D01*
X150142631Y-142054614D01*
X150208423Y-142084320D01*
X150407247Y-142174092D01*
X150410523Y-142175062D01*
X150410530Y-142175065D01*
X150489455Y-142198443D01*
X150540694Y-142233658D01*
X150561449Y-142292266D01*
X150543790Y-142351880D01*
X150494464Y-142389730D01*
X150460883Y-142395500D01*
X113371072Y-142395500D01*
X113311941Y-142376287D01*
X113275396Y-142325987D01*
X113275396Y-142263813D01*
X113311941Y-142213513D01*
X113342375Y-142199094D01*
X113342243Y-142198700D01*
X113345489Y-142197607D01*
X113348803Y-142196738D01*
X113496354Y-142135621D01*
X113617036Y-142085633D01*
X113617040Y-142085631D01*
X113620205Y-142084320D01*
X113873838Y-141936109D01*
X113876531Y-141933997D01*
X113876536Y-141933994D01*
X114102318Y-141756958D01*
X114102320Y-141756956D01*
X114105010Y-141754847D01*
X114309443Y-141543888D01*
X114483355Y-141307136D01*
X114623526Y-141048973D01*
X114645842Y-140989916D01*
X114726156Y-140777372D01*
X114726158Y-140777366D01*
X114727364Y-140774174D01*
X114728434Y-140769503D01*
X114792184Y-140491159D01*
X114792185Y-140491154D01*
X114792947Y-140487826D01*
X114819060Y-140195226D01*
X114819534Y-140150000D01*
X114799554Y-139856918D01*
X114739982Y-139569259D01*
X114641922Y-139292346D01*
X114507188Y-139031303D01*
X114495761Y-139015044D01*
X114340242Y-138793762D01*
X114340239Y-138793758D01*
X114338273Y-138790961D01*
X114335947Y-138788458D01*
X114335943Y-138788453D01*
X114215968Y-138659345D01*
X114138303Y-138575767D01*
X114135660Y-138573604D01*
X114135655Y-138573599D01*
X113985320Y-138450553D01*
X113910977Y-138389704D01*
X113753328Y-138293096D01*
X115065729Y-138293096D01*
X115066394Y-138299120D01*
X115066394Y-138299124D01*
X115068376Y-138317071D01*
X115083113Y-138450553D01*
X115085197Y-138456247D01*
X115122516Y-138558227D01*
X115137553Y-138599319D01*
X115140939Y-138604358D01*
X115153162Y-138622547D01*
X115225908Y-138730805D01*
X115343076Y-138837419D01*
X115348403Y-138840311D01*
X115348404Y-138840312D01*
X115369704Y-138851877D01*
X115482293Y-138913008D01*
X115488163Y-138914548D01*
X115629655Y-138951668D01*
X115629656Y-138951668D01*
X115635522Y-138953207D01*
X115707716Y-138954341D01*
X115787852Y-138955600D01*
X115787854Y-138955600D01*
X115793916Y-138955695D01*
X115799827Y-138954341D01*
X115799829Y-138954341D01*
X115942422Y-138921683D01*
X115942425Y-138921682D01*
X115948332Y-138920329D01*
X116089855Y-138849151D01*
X116175218Y-138776244D01*
X116205705Y-138750206D01*
X116205707Y-138750204D01*
X116210314Y-138746269D01*
X116241554Y-138702794D01*
X116299218Y-138622547D01*
X116299220Y-138622544D01*
X116302755Y-138617624D01*
X116319582Y-138575767D01*
X116359580Y-138476267D01*
X116361842Y-138470641D01*
X116384162Y-138313807D01*
X116384307Y-138300000D01*
X116376805Y-138238001D01*
X116366005Y-138148755D01*
X116366004Y-138148753D01*
X116365276Y-138142733D01*
X116355982Y-138118136D01*
X116311425Y-138000222D01*
X116311424Y-138000221D01*
X116309280Y-137994546D01*
X116219553Y-137863992D01*
X116101275Y-137758611D01*
X115961274Y-137684484D01*
X115807633Y-137645892D01*
X115801576Y-137645860D01*
X115801574Y-137645860D01*
X115724450Y-137645456D01*
X115649221Y-137645062D01*
X115643324Y-137646478D01*
X115643322Y-137646478D01*
X115501082Y-137680627D01*
X115495184Y-137682043D01*
X115489798Y-137684823D01*
X115489795Y-137684824D01*
X115359802Y-137751919D01*
X115354414Y-137754700D01*
X115235039Y-137858838D01*
X115143950Y-137988444D01*
X115141326Y-137995174D01*
X115096329Y-138110587D01*
X115086406Y-138136037D01*
X115065729Y-138293096D01*
X113753328Y-138293096D01*
X113660504Y-138236213D01*
X113633812Y-138224496D01*
X113394649Y-138119511D01*
X113394645Y-138119510D01*
X113391516Y-138118136D01*
X113388226Y-138117199D01*
X113388221Y-138117197D01*
X113112292Y-138038597D01*
X113108992Y-138037657D01*
X113105603Y-138037175D01*
X113105595Y-138037173D01*
X112821547Y-137996747D01*
X112821546Y-137996747D01*
X112818160Y-137996265D01*
X112814747Y-137996247D01*
X112814745Y-137996247D01*
X112653788Y-137995404D01*
X112524402Y-137994727D01*
X112521007Y-137995174D01*
X112521006Y-137995174D01*
X112475029Y-138001227D01*
X112233152Y-138033071D01*
X111949801Y-138110587D01*
X111679592Y-138225841D01*
X111427525Y-138376700D01*
X111424854Y-138378840D01*
X111424851Y-138378842D01*
X111200941Y-138558227D01*
X111200937Y-138558231D01*
X111198263Y-138560373D01*
X110996050Y-138773461D01*
X110994052Y-138776242D01*
X110994050Y-138776244D01*
X110897857Y-138910112D01*
X110824628Y-139012021D01*
X110823030Y-139015040D01*
X110823027Y-139015044D01*
X110812805Y-139034350D01*
X110687168Y-139271638D01*
X110685995Y-139274844D01*
X110685993Y-139274848D01*
X110609573Y-139483675D01*
X110571209Y-139532602D01*
X110511413Y-139549635D01*
X110453026Y-139528269D01*
X110418349Y-139476663D01*
X110414500Y-139449103D01*
X110414500Y-136943096D01*
X113715729Y-136943096D01*
X113716394Y-136949120D01*
X113716394Y-136949124D01*
X113718376Y-136967071D01*
X113733113Y-137100553D01*
X113787553Y-137249319D01*
X113790939Y-137254358D01*
X113803162Y-137272547D01*
X113875908Y-137380805D01*
X113993076Y-137487419D01*
X113998403Y-137490311D01*
X113998404Y-137490312D01*
X114019704Y-137501877D01*
X114132293Y-137563008D01*
X114138163Y-137564548D01*
X114279655Y-137601668D01*
X114279656Y-137601668D01*
X114285522Y-137603207D01*
X114357716Y-137604341D01*
X114437852Y-137605600D01*
X114437854Y-137605600D01*
X114443916Y-137605695D01*
X114449827Y-137604341D01*
X114449829Y-137604341D01*
X114592422Y-137571683D01*
X114592425Y-137571682D01*
X114598332Y-137570329D01*
X114739855Y-137499151D01*
X114806806Y-137441970D01*
X114855705Y-137400206D01*
X114855707Y-137400204D01*
X114860314Y-137396269D01*
X114891554Y-137352794D01*
X114949218Y-137272547D01*
X114949220Y-137272544D01*
X114952755Y-137267624D01*
X115011842Y-137120641D01*
X115034162Y-136963807D01*
X115034307Y-136950000D01*
X115015276Y-136792733D01*
X114959280Y-136644546D01*
X114869553Y-136513992D01*
X114751275Y-136408611D01*
X114611274Y-136334484D01*
X114457633Y-136295892D01*
X114451576Y-136295860D01*
X114451574Y-136295860D01*
X114374450Y-136295456D01*
X114299221Y-136295062D01*
X114293324Y-136296478D01*
X114293322Y-136296478D01*
X114151082Y-136330627D01*
X114145184Y-136332043D01*
X114139798Y-136334823D01*
X114139795Y-136334824D01*
X114009802Y-136401919D01*
X114004414Y-136404700D01*
X113885039Y-136508838D01*
X113793950Y-136638444D01*
X113736406Y-136786037D01*
X113715729Y-136943096D01*
X110414500Y-136943096D01*
X110414500Y-93847322D01*
X110433713Y-93788191D01*
X110484013Y-93751646D01*
X110546187Y-93751646D01*
X110596487Y-93788191D01*
X110610276Y-93814736D01*
X110669205Y-93986853D01*
X110801198Y-94249292D01*
X110803141Y-94252119D01*
X110903678Y-94398401D01*
X110967587Y-94491390D01*
X110969888Y-94493919D01*
X110969889Y-94493920D01*
X111161054Y-94704007D01*
X111165293Y-94708666D01*
X111390658Y-94897100D01*
X111393563Y-94898922D01*
X111393564Y-94898923D01*
X111576205Y-95013493D01*
X111639511Y-95053205D01*
X111642628Y-95054612D01*
X111642631Y-95054614D01*
X111708423Y-95084320D01*
X111907247Y-95174092D01*
X111910523Y-95175062D01*
X111910530Y-95175065D01*
X112185617Y-95256549D01*
X112188912Y-95257525D01*
X112264535Y-95269097D01*
X112475901Y-95301441D01*
X112475906Y-95301441D01*
X112479295Y-95301960D01*
X112482720Y-95302014D01*
X112482722Y-95302014D01*
X112608415Y-95303988D01*
X112773021Y-95306574D01*
X112776425Y-95306162D01*
X112776427Y-95306162D01*
X112873361Y-95294432D01*
X113064656Y-95271283D01*
X113067961Y-95270416D01*
X113067966Y-95270415D01*
X113345491Y-95197607D01*
X113345492Y-95197607D01*
X113348803Y-95196738D01*
X113504252Y-95132349D01*
X113617036Y-95085633D01*
X113617040Y-95085631D01*
X113620205Y-95084320D01*
X113623164Y-95082591D01*
X113870876Y-94937840D01*
X113870878Y-94937839D01*
X113873838Y-94936109D01*
X113876531Y-94933997D01*
X113876536Y-94933994D01*
X114102318Y-94756958D01*
X114102320Y-94756956D01*
X114105010Y-94754847D01*
X114309443Y-94543888D01*
X114316959Y-94533657D01*
X114418087Y-94395987D01*
X114483355Y-94307136D01*
X114623526Y-94048973D01*
X114628181Y-94036655D01*
X114726156Y-93777372D01*
X114726158Y-93777366D01*
X114727364Y-93774174D01*
X114728434Y-93769503D01*
X114792184Y-93491159D01*
X114792185Y-93491154D01*
X114792947Y-93487826D01*
X114796439Y-93448700D01*
X114818885Y-93197192D01*
X114818886Y-93197181D01*
X114819060Y-93195226D01*
X114819534Y-93150000D01*
X114799554Y-92856918D01*
X114739982Y-92569259D01*
X114641922Y-92292346D01*
X114539471Y-92093851D01*
X114508761Y-92034350D01*
X114508759Y-92034346D01*
X114507188Y-92031303D01*
X114495761Y-92015044D01*
X114340242Y-91793762D01*
X114340239Y-91793758D01*
X114338273Y-91790961D01*
X114335947Y-91788458D01*
X114335943Y-91788453D01*
X114170329Y-91610231D01*
X114138303Y-91575767D01*
X114135660Y-91573604D01*
X114135655Y-91573599D01*
X113993661Y-91457380D01*
X113910977Y-91389704D01*
X113660504Y-91236213D01*
X113504322Y-91167654D01*
X113394649Y-91119511D01*
X113394645Y-91119510D01*
X113391516Y-91118136D01*
X113388226Y-91117199D01*
X113388221Y-91117197D01*
X113112292Y-91038597D01*
X113108992Y-91037657D01*
X113105603Y-91037175D01*
X113105595Y-91037173D01*
X112821547Y-90996747D01*
X112821546Y-90996747D01*
X112818160Y-90996265D01*
X112814747Y-90996247D01*
X112814745Y-90996247D01*
X112653788Y-90995404D01*
X112524402Y-90994727D01*
X112521007Y-90995174D01*
X112521006Y-90995174D01*
X112475029Y-91001227D01*
X112233152Y-91033071D01*
X111949801Y-91110587D01*
X111946648Y-91111932D01*
X111694775Y-91219365D01*
X111679592Y-91225841D01*
X111427525Y-91376700D01*
X111424854Y-91378840D01*
X111424851Y-91378842D01*
X111200941Y-91558227D01*
X111200937Y-91558231D01*
X111198263Y-91560373D01*
X111195903Y-91562860D01*
X111012924Y-91755680D01*
X110996050Y-91773461D01*
X110994052Y-91776242D01*
X110994050Y-91776244D01*
X110880732Y-91933943D01*
X110824628Y-92012021D01*
X110823030Y-92015040D01*
X110823027Y-92015044D01*
X110772154Y-92111128D01*
X110687168Y-92271638D01*
X110685995Y-92274844D01*
X110685993Y-92274848D01*
X110609573Y-92483675D01*
X110571209Y-92532602D01*
X110511413Y-92549635D01*
X110453026Y-92528269D01*
X110418349Y-92476663D01*
X110414500Y-92449103D01*
X110414500Y-75461567D01*
X148837000Y-75461567D01*
X148841188Y-75474457D01*
X148845377Y-75477500D01*
X149310067Y-75477500D01*
X149322957Y-75473312D01*
X149326000Y-75469123D01*
X149326000Y-75239434D01*
X149321812Y-75226544D01*
X149317623Y-75223501D01*
X149070922Y-75223501D01*
X149061139Y-75224465D01*
X149001614Y-75236304D01*
X148983655Y-75243742D01*
X148916115Y-75288871D01*
X148902371Y-75302615D01*
X148857241Y-75370157D01*
X148849804Y-75388111D01*
X148837965Y-75447631D01*
X148837000Y-75457430D01*
X148837000Y-75461567D01*
X110414500Y-75461567D01*
X110414500Y-75206680D01*
X146171524Y-75206680D01*
X146175188Y-75217957D01*
X146179377Y-75221000D01*
X146630067Y-75221000D01*
X146642957Y-75216812D01*
X146646000Y-75212623D01*
X146646000Y-75205067D01*
X147154000Y-75205067D01*
X147158188Y-75217957D01*
X147162377Y-75221000D01*
X147613066Y-75221000D01*
X147625956Y-75216812D01*
X147628918Y-75212734D01*
X147628705Y-75208803D01*
X147623400Y-75159959D01*
X147620506Y-75147786D01*
X147577700Y-75033598D01*
X147570888Y-75021156D01*
X147498271Y-74924264D01*
X147488236Y-74914229D01*
X147391344Y-74841612D01*
X147378902Y-74834800D01*
X147264709Y-74791992D01*
X147252547Y-74789101D01*
X147203695Y-74783793D01*
X147198275Y-74783500D01*
X147169933Y-74783500D01*
X147157043Y-74787688D01*
X147154000Y-74791877D01*
X147154000Y-75205067D01*
X146646000Y-75205067D01*
X146646000Y-74799434D01*
X146641812Y-74786544D01*
X146637623Y-74783501D01*
X146601727Y-74783501D01*
X146596303Y-74783795D01*
X146547459Y-74789100D01*
X146535286Y-74791994D01*
X146421098Y-74834800D01*
X146408656Y-74841612D01*
X146311764Y-74914229D01*
X146301729Y-74924264D01*
X146229112Y-75021156D01*
X146222300Y-75033598D01*
X146179492Y-75147791D01*
X146176601Y-75159953D01*
X146171524Y-75206680D01*
X110414500Y-75206680D01*
X110414500Y-55164933D01*
X111605500Y-55164933D01*
X111605501Y-57715066D01*
X111620266Y-57789301D01*
X111625769Y-57797536D01*
X111625769Y-57797537D01*
X111671012Y-57865247D01*
X111676516Y-57873484D01*
X111760699Y-57929734D01*
X111809239Y-57939389D01*
X111830081Y-57943535D01*
X111830082Y-57943535D01*
X111834933Y-57944500D01*
X112104900Y-57944500D01*
X112164031Y-57963713D01*
X112200576Y-58014013D01*
X112205500Y-58045100D01*
X112205500Y-58324623D01*
X112187205Y-58382470D01*
X112168950Y-58408444D01*
X112111406Y-58556037D01*
X112090729Y-58713096D01*
X112091394Y-58719120D01*
X112091394Y-58719124D01*
X112093376Y-58737071D01*
X112108113Y-58870553D01*
X112162553Y-59019319D01*
X112165939Y-59024358D01*
X112178162Y-59042547D01*
X112250908Y-59150805D01*
X112368076Y-59257419D01*
X112373403Y-59260311D01*
X112373404Y-59260312D01*
X112394704Y-59271877D01*
X112507293Y-59333008D01*
X112513163Y-59334548D01*
X112654655Y-59371668D01*
X112654656Y-59371668D01*
X112660522Y-59373207D01*
X112732716Y-59374341D01*
X112812852Y-59375600D01*
X112812854Y-59375600D01*
X112818916Y-59375695D01*
X112824827Y-59374341D01*
X112824829Y-59374341D01*
X112967422Y-59341683D01*
X112967425Y-59341682D01*
X112973332Y-59340329D01*
X113114855Y-59269151D01*
X113181806Y-59211970D01*
X113230705Y-59170206D01*
X113230707Y-59170204D01*
X113235314Y-59166269D01*
X113266554Y-59122794D01*
X113324218Y-59042547D01*
X113324220Y-59042544D01*
X113327755Y-59037624D01*
X113386842Y-58890641D01*
X113409162Y-58733807D01*
X113409307Y-58720000D01*
X113390276Y-58562733D01*
X113334280Y-58414546D01*
X113244553Y-58283992D01*
X113240024Y-58279957D01*
X113239638Y-58279519D01*
X113214946Y-58222458D01*
X113214500Y-58212992D01*
X113214500Y-58045099D01*
X113233713Y-57985968D01*
X113284013Y-57949423D01*
X113315100Y-57944499D01*
X113585066Y-57944499D01*
X113620548Y-57937442D01*
X113649584Y-57931667D01*
X113649586Y-57931666D01*
X113659301Y-57929734D01*
X113743484Y-57873484D01*
X113799734Y-57789301D01*
X113814500Y-57715067D01*
X113814499Y-55164934D01*
X113799734Y-55090699D01*
X113794230Y-55082461D01*
X113748988Y-55014753D01*
X113743484Y-55006516D01*
X113659301Y-54950266D01*
X113610761Y-54940611D01*
X113589919Y-54936465D01*
X113589918Y-54936465D01*
X113585067Y-54935500D01*
X113580120Y-54935500D01*
X112709204Y-54935501D01*
X111834934Y-54935501D01*
X111799452Y-54942558D01*
X111770416Y-54948333D01*
X111770414Y-54948334D01*
X111760699Y-54950266D01*
X111676516Y-55006516D01*
X111620266Y-55090699D01*
X111605500Y-55164933D01*
X110414500Y-55164933D01*
X110414500Y-51164933D01*
X111605500Y-51164933D01*
X111605501Y-53715066D01*
X111620266Y-53789301D01*
X111625769Y-53797536D01*
X111625769Y-53797537D01*
X111671012Y-53865247D01*
X111676516Y-53873484D01*
X111760699Y-53929734D01*
X111809239Y-53939389D01*
X111830081Y-53943535D01*
X111830082Y-53943535D01*
X111834933Y-53944500D01*
X111839880Y-53944500D01*
X112710796Y-53944499D01*
X113585066Y-53944499D01*
X113620548Y-53937442D01*
X113649584Y-53931667D01*
X113649586Y-53931666D01*
X113659301Y-53929734D01*
X113743484Y-53873484D01*
X113799734Y-53789301D01*
X113814500Y-53715067D01*
X113814499Y-52090642D01*
X113833712Y-52031511D01*
X113843964Y-52019507D01*
X116929506Y-48933965D01*
X116984904Y-48905739D01*
X117000641Y-48904500D01*
X120371121Y-48904500D01*
X120430252Y-48923713D01*
X120465803Y-48971105D01*
X120517690Y-49115621D01*
X120641120Y-49345336D01*
X120643350Y-49348322D01*
X120643353Y-49348327D01*
X120791157Y-49546259D01*
X120797149Y-49554283D01*
X120982348Y-49737873D01*
X121095701Y-49820987D01*
X121189641Y-49889868D01*
X121189646Y-49889871D01*
X121192649Y-49892073D01*
X121195947Y-49893808D01*
X121420127Y-50011755D01*
X121420131Y-50011757D01*
X121423433Y-50013494D01*
X121426960Y-50014726D01*
X121426963Y-50014727D01*
X121660832Y-50096397D01*
X121669629Y-50099469D01*
X121925828Y-50148110D01*
X121929557Y-50148256D01*
X121929561Y-50148257D01*
X122095618Y-50154781D01*
X122186403Y-50158348D01*
X122279885Y-50148110D01*
X122441916Y-50130365D01*
X122441921Y-50130364D01*
X122445629Y-50129958D01*
X122573103Y-50096397D01*
X122694204Y-50064514D01*
X122694208Y-50064512D01*
X122697811Y-50063564D01*
X122937410Y-49960625D01*
X123159161Y-49823401D01*
X123295507Y-49707976D01*
X123355339Y-49657324D01*
X123358194Y-49654907D01*
X123422321Y-49581784D01*
X123527671Y-49461655D01*
X123527673Y-49461653D01*
X123530135Y-49458845D01*
X123532153Y-49455707D01*
X123532158Y-49455701D01*
X123669183Y-49242672D01*
X123669186Y-49242667D01*
X123671208Y-49239523D01*
X123672743Y-49236116D01*
X123672746Y-49236110D01*
X123776780Y-49005163D01*
X123776781Y-49005160D01*
X123778314Y-49001757D01*
X123849099Y-48750772D01*
X123865672Y-48620500D01*
X123881691Y-48494582D01*
X123881691Y-48494579D01*
X123882009Y-48492081D01*
X123884420Y-48400000D01*
X123880997Y-48353944D01*
X129366183Y-48353944D01*
X129378694Y-48614419D01*
X129429569Y-48870185D01*
X129517690Y-49115621D01*
X129641120Y-49345336D01*
X129643350Y-49348322D01*
X129643353Y-49348327D01*
X129791157Y-49546259D01*
X129797149Y-49554283D01*
X129982348Y-49737873D01*
X130095701Y-49820987D01*
X130189641Y-49889868D01*
X130189646Y-49889871D01*
X130192649Y-49892073D01*
X130195947Y-49893808D01*
X130420127Y-50011755D01*
X130420131Y-50011757D01*
X130423433Y-50013494D01*
X130426960Y-50014726D01*
X130426963Y-50014727D01*
X130660832Y-50096397D01*
X130669629Y-50099469D01*
X130925828Y-50148110D01*
X130929557Y-50148256D01*
X130929561Y-50148257D01*
X131095618Y-50154781D01*
X131186403Y-50158348D01*
X131279885Y-50148110D01*
X131441916Y-50130365D01*
X131441921Y-50130364D01*
X131445629Y-50129958D01*
X131573103Y-50096397D01*
X131694204Y-50064514D01*
X131694208Y-50064512D01*
X131697811Y-50063564D01*
X131937410Y-49960625D01*
X132159161Y-49823401D01*
X132295507Y-49707976D01*
X132355339Y-49657324D01*
X132358194Y-49654907D01*
X132422321Y-49581784D01*
X132527671Y-49461655D01*
X132527673Y-49461653D01*
X132530135Y-49458845D01*
X132532153Y-49455707D01*
X132532158Y-49455701D01*
X132669183Y-49242672D01*
X132669186Y-49242667D01*
X132671208Y-49239523D01*
X132672743Y-49236116D01*
X132672746Y-49236110D01*
X132776780Y-49005163D01*
X132776781Y-49005160D01*
X132778314Y-49001757D01*
X132785073Y-48977793D01*
X132819612Y-48926098D01*
X132881895Y-48904500D01*
X138674359Y-48904500D01*
X138733490Y-48923713D01*
X138745494Y-48933965D01*
X139245332Y-49433803D01*
X139253355Y-49443845D01*
X139253384Y-49443820D01*
X139258028Y-49449276D01*
X139261853Y-49455339D01*
X139267226Y-49460084D01*
X139302441Y-49491185D01*
X139306982Y-49495453D01*
X139318880Y-49507351D01*
X139327981Y-49514172D01*
X139334211Y-49519244D01*
X139370170Y-49551001D01*
X139376654Y-49554045D01*
X139376658Y-49554048D01*
X139379457Y-49555362D01*
X139397025Y-49565918D01*
X139399501Y-49567773D01*
X139405236Y-49572071D01*
X139450157Y-49588911D01*
X139457552Y-49592027D01*
X139500982Y-49612417D01*
X139510523Y-49613902D01*
X139511111Y-49613994D01*
X139530952Y-49619199D01*
X139540552Y-49622798D01*
X139580299Y-49625751D01*
X139588357Y-49626350D01*
X139596382Y-49627271D01*
X139606856Y-49628902D01*
X139606858Y-49628902D01*
X139610697Y-49629500D01*
X139627016Y-49629500D01*
X139634471Y-49629777D01*
X139677518Y-49632976D01*
X139677520Y-49632976D01*
X139684667Y-49633507D01*
X139693053Y-49631717D01*
X139714054Y-49629500D01*
X143082215Y-49629500D01*
X143094989Y-49630927D01*
X143094992Y-49630889D01*
X143102130Y-49631463D01*
X143109124Y-49633046D01*
X143163172Y-49629693D01*
X143169401Y-49629500D01*
X143186226Y-49629500D01*
X143189764Y-49628993D01*
X143189781Y-49628992D01*
X143197475Y-49627890D01*
X143205504Y-49627067D01*
X143246204Y-49624542D01*
X143246205Y-49624542D01*
X143253359Y-49624098D01*
X143263010Y-49620614D01*
X143282901Y-49615655D01*
X143285962Y-49615217D01*
X143285965Y-49615216D01*
X143293052Y-49614201D01*
X143299572Y-49611237D01*
X143299574Y-49611236D01*
X143336701Y-49594356D01*
X143344178Y-49591312D01*
X143370570Y-49581784D01*
X143389284Y-49575028D01*
X143397564Y-49568979D01*
X143415267Y-49558634D01*
X143418080Y-49557355D01*
X143418082Y-49557354D01*
X143424605Y-49554388D01*
X143460939Y-49523080D01*
X143467247Y-49518072D01*
X143475810Y-49511817D01*
X143475814Y-49511813D01*
X143478944Y-49509527D01*
X143490477Y-49497994D01*
X143495944Y-49492918D01*
X143528655Y-49464733D01*
X143528658Y-49464730D01*
X143534082Y-49460056D01*
X143537981Y-49454041D01*
X143538748Y-49452858D01*
X143552030Y-49436441D01*
X144729506Y-48258965D01*
X144784904Y-48230739D01*
X144800641Y-48229500D01*
X145150000Y-48229500D01*
X145499358Y-48229499D01*
X145558489Y-48248712D01*
X145570493Y-48258964D01*
X146820332Y-49508803D01*
X146828355Y-49518845D01*
X146828384Y-49518820D01*
X146833028Y-49524276D01*
X146836853Y-49530339D01*
X146867443Y-49557355D01*
X146877441Y-49566185D01*
X146881982Y-49570453D01*
X146893880Y-49582351D01*
X146899476Y-49586545D01*
X146902977Y-49589169D01*
X146909227Y-49594258D01*
X146945170Y-49626001D01*
X146954459Y-49630362D01*
X146972029Y-49640920D01*
X146974496Y-49642769D01*
X146974500Y-49642771D01*
X146980236Y-49647070D01*
X146986947Y-49649586D01*
X146986949Y-49649587D01*
X147025134Y-49663902D01*
X147032573Y-49667037D01*
X147069494Y-49684371D01*
X147075982Y-49687417D01*
X147083059Y-49688519D01*
X147083063Y-49688520D01*
X147086111Y-49688994D01*
X147105952Y-49694199D01*
X147115552Y-49697798D01*
X147155299Y-49700751D01*
X147163357Y-49701350D01*
X147171382Y-49702271D01*
X147181856Y-49703902D01*
X147181858Y-49703902D01*
X147185697Y-49704500D01*
X147202016Y-49704500D01*
X147209471Y-49704777D01*
X147252518Y-49707976D01*
X147252520Y-49707976D01*
X147259667Y-49708507D01*
X147268053Y-49706717D01*
X147289054Y-49704500D01*
X154307215Y-49704500D01*
X154319989Y-49705927D01*
X154319992Y-49705889D01*
X154327130Y-49706463D01*
X154334124Y-49708046D01*
X154388172Y-49704693D01*
X154394401Y-49704500D01*
X154411226Y-49704500D01*
X154414764Y-49703993D01*
X154414781Y-49703992D01*
X154422475Y-49702890D01*
X154430504Y-49702067D01*
X154471204Y-49699542D01*
X154471205Y-49699542D01*
X154478359Y-49699098D01*
X154488010Y-49695614D01*
X154507901Y-49690655D01*
X154510962Y-49690217D01*
X154510965Y-49690216D01*
X154518052Y-49689201D01*
X154524572Y-49686237D01*
X154524574Y-49686236D01*
X154561701Y-49669356D01*
X154569178Y-49666312D01*
X154600769Y-49654907D01*
X154614284Y-49650028D01*
X154622564Y-49643979D01*
X154640267Y-49633634D01*
X154643080Y-49632355D01*
X154643082Y-49632354D01*
X154649605Y-49629388D01*
X154685939Y-49598080D01*
X154692247Y-49593072D01*
X154700810Y-49586817D01*
X154700814Y-49586813D01*
X154703944Y-49584527D01*
X154715477Y-49572994D01*
X154720944Y-49567918D01*
X154753655Y-49539733D01*
X154753658Y-49539730D01*
X154759082Y-49535056D01*
X154762981Y-49529041D01*
X154763748Y-49527858D01*
X154777030Y-49511441D01*
X156204506Y-48083965D01*
X156259904Y-48055739D01*
X156275641Y-48054500D01*
X156625000Y-48054500D01*
X156974358Y-48054499D01*
X157033489Y-48073712D01*
X157045493Y-48083964D01*
X158395332Y-49433803D01*
X158403355Y-49443845D01*
X158403384Y-49443820D01*
X158408028Y-49449276D01*
X158411853Y-49455339D01*
X158417226Y-49460084D01*
X158452441Y-49491185D01*
X158456982Y-49495453D01*
X158468880Y-49507351D01*
X158477981Y-49514172D01*
X158484211Y-49519244D01*
X158520170Y-49551001D01*
X158529451Y-49555358D01*
X158547033Y-49565923D01*
X158555235Y-49572070D01*
X158600153Y-49588909D01*
X158607570Y-49592035D01*
X158644493Y-49609371D01*
X158644497Y-49609372D01*
X158650982Y-49612417D01*
X158660523Y-49613902D01*
X158661111Y-49613994D01*
X158680952Y-49619199D01*
X158690552Y-49622798D01*
X158738367Y-49626352D01*
X158746369Y-49627270D01*
X158760697Y-49629500D01*
X158777016Y-49629500D01*
X158784471Y-49629777D01*
X158827517Y-49632976D01*
X158827519Y-49632976D01*
X158834666Y-49633507D01*
X158843052Y-49631717D01*
X158864053Y-49629500D01*
X162382215Y-49629500D01*
X162394989Y-49630927D01*
X162394992Y-49630889D01*
X162402130Y-49631463D01*
X162409124Y-49633046D01*
X162463172Y-49629693D01*
X162469401Y-49629500D01*
X162486226Y-49629500D01*
X162489764Y-49628993D01*
X162489781Y-49628992D01*
X162497475Y-49627890D01*
X162505504Y-49627067D01*
X162546204Y-49624542D01*
X162546205Y-49624542D01*
X162553359Y-49624098D01*
X162563010Y-49620614D01*
X162582901Y-49615655D01*
X162585962Y-49615217D01*
X162585965Y-49615216D01*
X162593052Y-49614201D01*
X162599572Y-49611237D01*
X162599574Y-49611236D01*
X162636701Y-49594356D01*
X162644178Y-49591312D01*
X162670570Y-49581784D01*
X162689284Y-49575028D01*
X162697564Y-49568979D01*
X162715267Y-49558634D01*
X162718080Y-49557355D01*
X162718082Y-49557354D01*
X162724605Y-49554388D01*
X162760939Y-49523080D01*
X162767247Y-49518072D01*
X162775810Y-49511817D01*
X162775814Y-49511813D01*
X162778944Y-49509527D01*
X162790477Y-49497994D01*
X162795944Y-49492918D01*
X162828655Y-49464733D01*
X162828658Y-49464730D01*
X162834082Y-49460056D01*
X162837981Y-49454041D01*
X162838748Y-49452858D01*
X162852030Y-49436441D01*
X163354506Y-48933965D01*
X163409904Y-48905739D01*
X163425641Y-48904500D01*
X169371121Y-48904500D01*
X169430252Y-48923713D01*
X169465803Y-48971105D01*
X169517690Y-49115621D01*
X169641120Y-49345336D01*
X169643350Y-49348322D01*
X169643353Y-49348327D01*
X169791157Y-49546259D01*
X169797149Y-49554283D01*
X169982348Y-49737873D01*
X170095701Y-49820987D01*
X170189641Y-49889868D01*
X170189646Y-49889871D01*
X170192649Y-49892073D01*
X170195947Y-49893808D01*
X170420127Y-50011755D01*
X170420131Y-50011757D01*
X170423433Y-50013494D01*
X170426960Y-50014726D01*
X170426963Y-50014727D01*
X170660832Y-50096397D01*
X170669629Y-50099469D01*
X170925828Y-50148110D01*
X170929557Y-50148256D01*
X170929561Y-50148257D01*
X171095618Y-50154781D01*
X171186403Y-50158348D01*
X171279885Y-50148110D01*
X171441916Y-50130365D01*
X171441921Y-50130364D01*
X171445629Y-50129958D01*
X171573103Y-50096397D01*
X171694204Y-50064514D01*
X171694208Y-50064512D01*
X171697811Y-50063564D01*
X171937410Y-49960625D01*
X172159161Y-49823401D01*
X172295507Y-49707976D01*
X172355339Y-49657324D01*
X172358194Y-49654907D01*
X172422321Y-49581784D01*
X172527671Y-49461655D01*
X172527673Y-49461653D01*
X172530135Y-49458845D01*
X172532153Y-49455707D01*
X172532158Y-49455701D01*
X172669183Y-49242672D01*
X172669186Y-49242667D01*
X172671208Y-49239523D01*
X172672743Y-49236116D01*
X172672746Y-49236110D01*
X172776780Y-49005163D01*
X172776781Y-49005160D01*
X172778314Y-49001757D01*
X172849099Y-48750772D01*
X172865672Y-48620500D01*
X172881691Y-48494582D01*
X172881691Y-48494579D01*
X172882009Y-48492081D01*
X172884420Y-48400000D01*
X172865094Y-48139941D01*
X172855648Y-48098193D01*
X172808367Y-47889240D01*
X172808366Y-47889237D01*
X172807542Y-47885595D01*
X172806192Y-47882122D01*
X172806189Y-47882114D01*
X172714381Y-47646032D01*
X172713027Y-47642550D01*
X172583625Y-47416145D01*
X172422180Y-47211353D01*
X172386517Y-47177804D01*
X172234957Y-47035231D01*
X172232239Y-47032674D01*
X172229182Y-47030554D01*
X172229178Y-47030550D01*
X172115977Y-46952020D01*
X172017973Y-46884032D01*
X171784090Y-46768694D01*
X171780535Y-46767556D01*
X171780533Y-46767555D01*
X171597383Y-46708929D01*
X171535728Y-46689193D01*
X171278344Y-46647275D01*
X171274602Y-46647226D01*
X171245905Y-46646850D01*
X171017590Y-46643862D01*
X170907620Y-46658828D01*
X170762898Y-46678524D01*
X170762896Y-46678524D01*
X170759196Y-46679028D01*
X170755613Y-46680072D01*
X170755610Y-46680073D01*
X170656609Y-46708929D01*
X170508838Y-46752000D01*
X170505456Y-46753559D01*
X170505451Y-46753561D01*
X170430334Y-46788191D01*
X170272016Y-46861177D01*
X170268895Y-46863223D01*
X170268890Y-46863226D01*
X170113459Y-46965131D01*
X170053933Y-47004158D01*
X169859379Y-47177804D01*
X169856987Y-47180680D01*
X169695016Y-47375429D01*
X169695011Y-47375436D01*
X169692629Y-47378300D01*
X169557345Y-47601240D01*
X169555900Y-47604686D01*
X169459823Y-47833803D01*
X169419239Y-47880904D01*
X169367050Y-47895500D01*
X163242786Y-47895500D01*
X163230012Y-47894073D01*
X163230009Y-47894111D01*
X163222871Y-47893537D01*
X163215877Y-47891954D01*
X163163183Y-47895223D01*
X163161829Y-47895307D01*
X163155600Y-47895500D01*
X163138774Y-47895500D01*
X163135234Y-47896007D01*
X163135220Y-47896008D01*
X163127526Y-47897110D01*
X163119497Y-47897933D01*
X163078797Y-47900458D01*
X163078796Y-47900458D01*
X163071642Y-47900902D01*
X163061991Y-47904386D01*
X163042099Y-47909345D01*
X163039040Y-47909783D01*
X163039038Y-47909784D01*
X163031948Y-47910799D01*
X162988297Y-47930646D01*
X162980827Y-47933687D01*
X162935716Y-47949972D01*
X162929925Y-47954202D01*
X162929926Y-47954202D01*
X162927436Y-47956021D01*
X162909733Y-47966366D01*
X162906920Y-47967645D01*
X162906918Y-47967646D01*
X162900395Y-47970612D01*
X162864061Y-48001920D01*
X162857753Y-48006928D01*
X162849190Y-48013183D01*
X162849186Y-48013187D01*
X162846056Y-48015473D01*
X162834523Y-48027006D01*
X162829056Y-48032082D01*
X162796345Y-48060267D01*
X162796342Y-48060270D01*
X162790918Y-48064944D01*
X162787020Y-48070958D01*
X162787019Y-48070959D01*
X162786252Y-48072142D01*
X162772970Y-48088559D01*
X162270494Y-48591035D01*
X162215096Y-48619261D01*
X162199359Y-48620500D01*
X159050640Y-48620500D01*
X158991509Y-48601287D01*
X158979505Y-48591035D01*
X158158965Y-47770494D01*
X158130739Y-47715096D01*
X158129500Y-47699359D01*
X158129499Y-46079872D01*
X158129499Y-46074934D01*
X158118673Y-46020501D01*
X158116667Y-46010416D01*
X158116666Y-46010414D01*
X158114734Y-46000699D01*
X158109230Y-45992461D01*
X158063988Y-45924753D01*
X158058484Y-45916516D01*
X157974301Y-45860266D01*
X157925761Y-45850611D01*
X157904919Y-45846465D01*
X157904918Y-45846465D01*
X157900067Y-45845500D01*
X157895120Y-45845500D01*
X156623840Y-45845501D01*
X155349934Y-45845501D01*
X155314452Y-45852558D01*
X155285416Y-45858333D01*
X155285414Y-45858334D01*
X155275699Y-45860266D01*
X155191516Y-45916516D01*
X155135266Y-46000699D01*
X155120500Y-46074933D01*
X155120500Y-46079880D01*
X155120501Y-47699358D01*
X155101288Y-47758489D01*
X155091036Y-47770493D01*
X154195494Y-48666035D01*
X154140096Y-48694261D01*
X154124359Y-48695500D01*
X147475641Y-48695500D01*
X147416510Y-48676287D01*
X147404506Y-48666035D01*
X146683965Y-47945494D01*
X146655739Y-47890096D01*
X146654500Y-47874359D01*
X146654499Y-46254872D01*
X146654499Y-46249934D01*
X146643618Y-46195226D01*
X146641667Y-46185416D01*
X146641666Y-46185414D01*
X146639734Y-46175699D01*
X146634230Y-46167461D01*
X146588988Y-46099753D01*
X146583484Y-46091516D01*
X146499301Y-46035266D01*
X146450761Y-46025611D01*
X146429919Y-46021465D01*
X146429918Y-46021465D01*
X146425067Y-46020500D01*
X146420120Y-46020500D01*
X145148840Y-46020501D01*
X143874934Y-46020501D01*
X143839452Y-46027558D01*
X143810416Y-46033333D01*
X143810414Y-46033334D01*
X143800699Y-46035266D01*
X143716516Y-46091516D01*
X143660266Y-46175699D01*
X143645500Y-46249933D01*
X143645500Y-46254880D01*
X143645501Y-47874358D01*
X143626288Y-47933489D01*
X143616036Y-47945493D01*
X142970494Y-48591035D01*
X142915096Y-48619261D01*
X142899359Y-48620500D01*
X139900641Y-48620500D01*
X139841510Y-48601287D01*
X139829506Y-48591035D01*
X139329668Y-48091197D01*
X139321645Y-48081155D01*
X139321616Y-48081180D01*
X139316972Y-48075724D01*
X139313147Y-48069661D01*
X139272558Y-48033814D01*
X139268018Y-48029547D01*
X139256120Y-48017649D01*
X139247023Y-48010831D01*
X139240773Y-48005742D01*
X139204830Y-47973999D01*
X139195541Y-47969638D01*
X139177971Y-47959080D01*
X139175504Y-47957231D01*
X139175500Y-47957229D01*
X139169764Y-47952930D01*
X139163053Y-47950414D01*
X139163051Y-47950413D01*
X139124866Y-47936098D01*
X139117427Y-47932963D01*
X139080506Y-47915629D01*
X139074018Y-47912583D01*
X139066941Y-47911481D01*
X139066937Y-47911480D01*
X139063889Y-47911006D01*
X139044048Y-47905801D01*
X139034448Y-47902202D01*
X138994701Y-47899249D01*
X138986643Y-47898650D01*
X138978618Y-47897729D01*
X138968144Y-47896098D01*
X138968142Y-47896098D01*
X138964303Y-47895500D01*
X138947984Y-47895500D01*
X138940529Y-47895223D01*
X138897482Y-47892024D01*
X138897480Y-47892024D01*
X138890333Y-47891493D01*
X138881948Y-47893283D01*
X138860946Y-47895500D01*
X132880212Y-47895500D01*
X132821081Y-47876287D01*
X132786452Y-47831361D01*
X132714381Y-47646032D01*
X132713027Y-47642550D01*
X132583625Y-47416145D01*
X132422180Y-47211353D01*
X132386517Y-47177804D01*
X132234957Y-47035231D01*
X132232239Y-47032674D01*
X132229182Y-47030554D01*
X132229178Y-47030550D01*
X132115977Y-46952020D01*
X132017973Y-46884032D01*
X131784090Y-46768694D01*
X131780535Y-46767556D01*
X131780533Y-46767555D01*
X131597383Y-46708929D01*
X131535728Y-46689193D01*
X131278344Y-46647275D01*
X131274602Y-46647226D01*
X131245905Y-46646850D01*
X131017590Y-46643862D01*
X130907620Y-46658828D01*
X130762898Y-46678524D01*
X130762896Y-46678524D01*
X130759196Y-46679028D01*
X130755613Y-46680072D01*
X130755610Y-46680073D01*
X130656609Y-46708929D01*
X130508838Y-46752000D01*
X130505456Y-46753559D01*
X130505451Y-46753561D01*
X130430334Y-46788191D01*
X130272016Y-46861177D01*
X130268895Y-46863223D01*
X130268890Y-46863226D01*
X130113459Y-46965131D01*
X130053933Y-47004158D01*
X129859379Y-47177804D01*
X129856987Y-47180680D01*
X129695016Y-47375429D01*
X129695011Y-47375436D01*
X129692629Y-47378300D01*
X129557345Y-47601240D01*
X129456500Y-47841728D01*
X129437630Y-47916029D01*
X129393814Y-48088559D01*
X129392310Y-48094480D01*
X129391936Y-48098191D01*
X129391936Y-48098193D01*
X129371418Y-48301960D01*
X129366183Y-48353944D01*
X123880997Y-48353944D01*
X123865094Y-48139941D01*
X123855648Y-48098193D01*
X123808367Y-47889240D01*
X123808366Y-47889237D01*
X123807542Y-47885595D01*
X123806192Y-47882122D01*
X123806189Y-47882114D01*
X123714382Y-47646033D01*
X123714379Y-47646027D01*
X123713027Y-47642550D01*
X123708567Y-47634746D01*
X123695908Y-47573874D01*
X123724775Y-47513696D01*
X125079505Y-46158965D01*
X125134903Y-46130739D01*
X125150640Y-46129500D01*
X138999359Y-46129500D01*
X139058490Y-46148713D01*
X139070494Y-46158965D01*
X139616035Y-46704506D01*
X139644261Y-46759904D01*
X139645500Y-46775641D01*
X139645501Y-47413214D01*
X139645501Y-48000066D01*
X139648572Y-48015505D01*
X139657475Y-48060267D01*
X139660266Y-48074301D01*
X139665769Y-48082536D01*
X139665769Y-48082537D01*
X139667838Y-48085633D01*
X139716516Y-48158484D01*
X139800699Y-48214734D01*
X139849239Y-48224389D01*
X139870081Y-48228535D01*
X139870082Y-48228535D01*
X139874933Y-48229500D01*
X139879880Y-48229500D01*
X141151160Y-48229499D01*
X142425066Y-48229499D01*
X142460548Y-48222442D01*
X142489584Y-48216667D01*
X142489586Y-48216666D01*
X142499301Y-48214734D01*
X142560126Y-48174092D01*
X142575247Y-48163988D01*
X142583484Y-48158484D01*
X142639734Y-48074301D01*
X142652359Y-48010831D01*
X142653535Y-48004919D01*
X142653536Y-48004911D01*
X142654500Y-48000067D01*
X142654499Y-46249934D01*
X142643618Y-46195226D01*
X142641667Y-46185416D01*
X142641666Y-46185414D01*
X142639734Y-46175699D01*
X142634230Y-46167461D01*
X142588988Y-46099753D01*
X142583484Y-46091516D01*
X142499301Y-46035266D01*
X142450761Y-46025611D01*
X142429919Y-46021465D01*
X142429918Y-46021465D01*
X142425067Y-46020500D01*
X142205813Y-46020500D01*
X140400642Y-46020501D01*
X140341511Y-46001288D01*
X140329507Y-45991036D01*
X139654668Y-45316197D01*
X139646645Y-45306155D01*
X139646616Y-45306180D01*
X139641972Y-45300724D01*
X139638147Y-45294661D01*
X139597558Y-45258814D01*
X139593018Y-45254547D01*
X139581120Y-45242649D01*
X139572023Y-45235831D01*
X139565773Y-45230742D01*
X139529830Y-45198999D01*
X139520541Y-45194638D01*
X139502971Y-45184080D01*
X139500504Y-45182231D01*
X139500500Y-45182229D01*
X139494764Y-45177930D01*
X139488053Y-45175414D01*
X139488051Y-45175413D01*
X139449866Y-45161098D01*
X139442427Y-45157963D01*
X139405506Y-45140629D01*
X139399018Y-45137583D01*
X139391941Y-45136481D01*
X139391937Y-45136480D01*
X139388889Y-45136006D01*
X139369048Y-45130801D01*
X139359448Y-45127202D01*
X139319701Y-45124249D01*
X139311643Y-45123650D01*
X139303618Y-45122729D01*
X139293144Y-45121098D01*
X139293142Y-45121098D01*
X139289303Y-45120500D01*
X139272984Y-45120500D01*
X139265529Y-45120223D01*
X139222482Y-45117024D01*
X139222480Y-45117024D01*
X139215333Y-45116493D01*
X139206948Y-45118283D01*
X139185946Y-45120500D01*
X124967791Y-45120500D01*
X124955014Y-45119072D01*
X124955011Y-45119110D01*
X124947870Y-45118535D01*
X124940877Y-45116953D01*
X124888173Y-45120223D01*
X124886819Y-45120307D01*
X124880589Y-45120500D01*
X124863774Y-45120500D01*
X124860228Y-45121008D01*
X124860225Y-45121008D01*
X124852538Y-45122109D01*
X124844510Y-45122932D01*
X124796642Y-45125902D01*
X124786991Y-45129386D01*
X124767099Y-45134345D01*
X124764040Y-45134783D01*
X124764038Y-45134784D01*
X124756948Y-45135799D01*
X124713297Y-45155646D01*
X124705827Y-45158687D01*
X124660716Y-45174972D01*
X124654925Y-45179202D01*
X124654926Y-45179202D01*
X124652436Y-45181021D01*
X124634733Y-45191366D01*
X124631920Y-45192645D01*
X124631918Y-45192646D01*
X124625395Y-45195612D01*
X124589061Y-45226920D01*
X124582753Y-45231928D01*
X124574190Y-45238183D01*
X124574186Y-45238187D01*
X124571056Y-45240473D01*
X124559523Y-45252006D01*
X124554056Y-45257082D01*
X124521345Y-45285267D01*
X124521342Y-45285270D01*
X124515918Y-45289944D01*
X124512020Y-45295958D01*
X124512019Y-45295959D01*
X124511252Y-45297142D01*
X124497970Y-45313559D01*
X123008354Y-46803175D01*
X122952956Y-46831401D01*
X122892725Y-46822266D01*
X122823626Y-46788191D01*
X122784090Y-46768694D01*
X122780540Y-46767558D01*
X122780536Y-46767556D01*
X122597383Y-46708929D01*
X122535728Y-46689193D01*
X122278344Y-46647275D01*
X122274602Y-46647226D01*
X122245905Y-46646850D01*
X122017590Y-46643862D01*
X121907620Y-46658828D01*
X121762898Y-46678524D01*
X121762896Y-46678524D01*
X121759196Y-46679028D01*
X121755613Y-46680072D01*
X121755610Y-46680073D01*
X121656609Y-46708929D01*
X121508838Y-46752000D01*
X121505456Y-46753559D01*
X121505451Y-46753561D01*
X121430334Y-46788191D01*
X121272016Y-46861177D01*
X121268895Y-46863223D01*
X121268890Y-46863226D01*
X121113459Y-46965131D01*
X121053933Y-47004158D01*
X120859379Y-47177804D01*
X120856987Y-47180680D01*
X120695016Y-47375429D01*
X120695011Y-47375436D01*
X120692629Y-47378300D01*
X120557345Y-47601240D01*
X120555900Y-47604686D01*
X120459823Y-47833803D01*
X120419239Y-47880904D01*
X120367050Y-47895500D01*
X116817786Y-47895500D01*
X116805012Y-47894073D01*
X116805009Y-47894111D01*
X116797871Y-47893537D01*
X116790877Y-47891954D01*
X116738183Y-47895223D01*
X116736829Y-47895307D01*
X116730600Y-47895500D01*
X116713774Y-47895500D01*
X116710234Y-47896007D01*
X116710220Y-47896008D01*
X116702526Y-47897110D01*
X116694497Y-47897933D01*
X116653797Y-47900458D01*
X116653796Y-47900458D01*
X116646642Y-47900902D01*
X116636991Y-47904386D01*
X116617099Y-47909345D01*
X116614040Y-47909783D01*
X116614038Y-47909784D01*
X116606948Y-47910799D01*
X116563297Y-47930646D01*
X116555827Y-47933687D01*
X116510716Y-47949972D01*
X116504925Y-47954202D01*
X116504926Y-47954202D01*
X116502436Y-47956021D01*
X116484733Y-47966366D01*
X116481920Y-47967645D01*
X116481918Y-47967646D01*
X116475395Y-47970612D01*
X116439061Y-48001920D01*
X116432753Y-48006928D01*
X116424190Y-48013183D01*
X116424186Y-48013187D01*
X116421056Y-48015473D01*
X116409523Y-48027006D01*
X116404056Y-48032082D01*
X116371345Y-48060267D01*
X116371342Y-48060270D01*
X116365918Y-48064944D01*
X116362020Y-48070958D01*
X116362019Y-48070959D01*
X116361252Y-48072142D01*
X116347970Y-48088559D01*
X113530494Y-50906035D01*
X113475096Y-50934261D01*
X113459359Y-50935500D01*
X112011453Y-50935501D01*
X111834934Y-50935501D01*
X111799452Y-50942558D01*
X111770416Y-50948333D01*
X111770414Y-50948334D01*
X111760699Y-50950266D01*
X111676516Y-51006516D01*
X111620266Y-51090699D01*
X111605500Y-51164933D01*
X110414500Y-51164933D01*
X110414500Y-46847322D01*
X110433713Y-46788191D01*
X110484013Y-46751646D01*
X110546187Y-46751646D01*
X110596487Y-46788191D01*
X110610276Y-46814736D01*
X110669205Y-46986853D01*
X110692251Y-47032674D01*
X110783592Y-47214286D01*
X110801198Y-47249292D01*
X110803141Y-47252119D01*
X110889863Y-47378300D01*
X110967587Y-47491390D01*
X110969888Y-47493919D01*
X110969889Y-47493920D01*
X111102178Y-47639303D01*
X111165293Y-47708666D01*
X111239239Y-47770494D01*
X111381667Y-47889582D01*
X111390658Y-47897100D01*
X111393563Y-47898922D01*
X111393564Y-47898923D01*
X111609261Y-48034229D01*
X111639511Y-48053205D01*
X111642628Y-48054612D01*
X111642631Y-48054614D01*
X111839869Y-48143670D01*
X111907247Y-48174092D01*
X111910523Y-48175062D01*
X111910530Y-48175065D01*
X112159160Y-48248712D01*
X112188912Y-48257525D01*
X112264535Y-48269097D01*
X112475901Y-48301441D01*
X112475906Y-48301441D01*
X112479295Y-48301960D01*
X112482720Y-48302014D01*
X112482722Y-48302014D01*
X112608415Y-48303988D01*
X112773021Y-48306574D01*
X112776425Y-48306162D01*
X112776427Y-48306162D01*
X112873361Y-48294432D01*
X113064656Y-48271283D01*
X113067961Y-48270416D01*
X113067966Y-48270415D01*
X113345491Y-48197607D01*
X113345492Y-48197607D01*
X113348803Y-48196738D01*
X113496354Y-48135621D01*
X113617036Y-48085633D01*
X113617040Y-48085631D01*
X113620205Y-48084320D01*
X113623256Y-48082537D01*
X113870876Y-47937840D01*
X113870878Y-47937839D01*
X113873838Y-47936109D01*
X113876531Y-47933997D01*
X113876536Y-47933994D01*
X114102318Y-47756958D01*
X114102320Y-47756956D01*
X114105010Y-47754847D01*
X114152218Y-47706132D01*
X114307067Y-47546340D01*
X114307068Y-47546339D01*
X114309443Y-47543888D01*
X114483355Y-47307136D01*
X114623526Y-47048973D01*
X114629685Y-47032674D01*
X114726156Y-46777372D01*
X114726158Y-46777366D01*
X114727364Y-46774174D01*
X114728241Y-46770347D01*
X114792184Y-46491159D01*
X114792185Y-46491154D01*
X114792947Y-46487826D01*
X114795984Y-46453797D01*
X114818885Y-46197192D01*
X114818886Y-46197181D01*
X114819060Y-46195226D01*
X114819534Y-46150000D01*
X114799554Y-45856918D01*
X114739982Y-45569259D01*
X114641922Y-45292346D01*
X114553083Y-45120223D01*
X114508761Y-45034350D01*
X114508759Y-45034346D01*
X114507188Y-45031303D01*
X114495761Y-45015044D01*
X114340242Y-44793762D01*
X114340239Y-44793758D01*
X114338273Y-44790961D01*
X114335947Y-44788458D01*
X114335943Y-44788453D01*
X114140636Y-44578278D01*
X114138303Y-44575767D01*
X114135660Y-44573604D01*
X114135655Y-44573599D01*
X114016480Y-44476057D01*
X113910977Y-44389704D01*
X113660504Y-44236213D01*
X113633812Y-44224496D01*
X113394649Y-44119511D01*
X113394645Y-44119510D01*
X113391516Y-44118136D01*
X113388226Y-44117199D01*
X113388221Y-44117197D01*
X113334347Y-44101851D01*
X113282741Y-44067174D01*
X113261375Y-44008786D01*
X113278408Y-43948991D01*
X113327335Y-43910627D01*
X113361907Y-43904500D01*
X150454154Y-43904500D01*
X150513285Y-43923713D01*
G37*
%TD.AperFunction*%
%TD*%
M02*
