%TF.GenerationSoftware,KiCad,Pcbnew,(6.0.4-0)*%
%TF.CreationDate,2022-05-09T11:38:02-07:00*%
%TF.ProjectId,solar-panel-side-X-minus,736f6c61-722d-4706-916e-656c2d736964,rev?*%
%TF.SameCoordinates,Original*%
%TF.FileFunction,Paste,Top*%
%TF.FilePolarity,Positive*%
%FSLAX46Y46*%
G04 Gerber Fmt 4.6, Leading zero omitted, Abs format (unit mm)*
G04 Created by KiCad (PCBNEW (6.0.4-0)) date 2022-05-09 11:38:02*
%MOMM*%
%LPD*%
G01*
G04 APERTURE LIST*
G04 Aperture macros list*
%AMRoundRect*
0 Rectangle with rounded corners*
0 $1 Rounding radius*
0 $2 $3 $4 $5 $6 $7 $8 $9 X,Y pos of 4 corners*
0 Add a 4 corners polygon primitive as box body*
4,1,4,$2,$3,$4,$5,$6,$7,$8,$9,$2,$3,0*
0 Add four circle primitives for the rounded corners*
1,1,$1+$1,$2,$3*
1,1,$1+$1,$4,$5*
1,1,$1+$1,$6,$7*
1,1,$1+$1,$8,$9*
0 Add four rect primitives between the rounded corners*
20,1,$1+$1,$2,$3,$4,$5,0*
20,1,$1+$1,$4,$5,$6,$7,0*
20,1,$1+$1,$6,$7,$8,$9,0*
20,1,$1+$1,$8,$9,$2,$3,0*%
G04 Aperture macros list end*
%ADD10C,0.100000*%
%ADD11C,0.010000*%
%ADD12R,2.500000X1.700000*%
%ADD13R,1.700000X2.500000*%
%ADD14R,1.411200X0.270000*%
%ADD15RoundRect,0.135000X0.135000X0.185000X-0.135000X0.185000X-0.135000X-0.185000X0.135000X-0.185000X0*%
%ADD16RoundRect,0.135000X-0.135000X-0.185000X0.135000X-0.185000X0.135000X0.185000X-0.135000X0.185000X0*%
%ADD17RoundRect,0.218750X0.218750X0.256250X-0.218750X0.256250X-0.218750X-0.256250X0.218750X-0.256250X0*%
%ADD18RoundRect,0.140000X0.140000X0.170000X-0.140000X0.170000X-0.140000X-0.170000X0.140000X-0.170000X0*%
%ADD19RoundRect,0.250000X0.250000X0.475000X-0.250000X0.475000X-0.250000X-0.475000X0.250000X-0.475000X0*%
%ADD20RoundRect,0.218750X-0.256250X0.218750X-0.256250X-0.218750X0.256250X-0.218750X0.256250X0.218750X0*%
%ADD21R,0.740000X0.270000*%
G04 APERTURE END LIST*
%TO.C,U2*%
G36*
X156825700Y-75789721D02*
G01*
X156825700Y-76094279D01*
X156684279Y-76235700D01*
X156379721Y-76235700D01*
X156238300Y-76094279D01*
X156238300Y-75789721D01*
X156379721Y-75648300D01*
X156684279Y-75648300D01*
X156825700Y-75789721D01*
G37*
D10*
X156825700Y-75789721D02*
X156825700Y-76094279D01*
X156684279Y-76235700D01*
X156379721Y-76235700D01*
X156238300Y-76094279D01*
X156238300Y-75789721D01*
X156379721Y-75648300D01*
X156684279Y-75648300D01*
X156825700Y-75789721D01*
G36*
X156038300Y-76577121D02*
G01*
X156038300Y-76957070D01*
X155746930Y-76957070D01*
X155746930Y-76435700D01*
X155896879Y-76435700D01*
X156038300Y-76577121D01*
G37*
X156038300Y-76577121D02*
X156038300Y-76957070D01*
X155746930Y-76957070D01*
X155746930Y-76435700D01*
X155896879Y-76435700D01*
X156038300Y-76577121D01*
G36*
X156038300Y-75789721D02*
G01*
X156038300Y-76094279D01*
X155896879Y-76235700D01*
X155746930Y-76235700D01*
X155746930Y-75648300D01*
X155896879Y-75648300D01*
X156038300Y-75789721D01*
G37*
X156038300Y-75789721D02*
X156038300Y-76094279D01*
X155896879Y-76235700D01*
X155746930Y-76235700D01*
X155746930Y-75648300D01*
X155896879Y-75648300D01*
X156038300Y-75789721D01*
G36*
X157317070Y-75448300D02*
G01*
X157167121Y-75448300D01*
X157025700Y-75306879D01*
X157025700Y-74926930D01*
X157317070Y-74926930D01*
X157317070Y-75448300D01*
G37*
X157317070Y-75448300D02*
X157167121Y-75448300D01*
X157025700Y-75306879D01*
X157025700Y-74926930D01*
X157317070Y-74926930D01*
X157317070Y-75448300D01*
G36*
X156038300Y-75306879D02*
G01*
X155896879Y-75448300D01*
X155746930Y-75448300D01*
X155746930Y-74926930D01*
X156038300Y-74926930D01*
X156038300Y-75306879D01*
G37*
X156038300Y-75306879D02*
X155896879Y-75448300D01*
X155746930Y-75448300D01*
X155746930Y-74926930D01*
X156038300Y-74926930D01*
X156038300Y-75306879D01*
G36*
X157317070Y-76235700D02*
G01*
X157167121Y-76235700D01*
X157025700Y-76094279D01*
X157025700Y-75789721D01*
X157167121Y-75648300D01*
X157317070Y-75648300D01*
X157317070Y-76235700D01*
G37*
X157317070Y-76235700D02*
X157167121Y-76235700D01*
X157025700Y-76094279D01*
X157025700Y-75789721D01*
X157167121Y-75648300D01*
X157317070Y-75648300D01*
X157317070Y-76235700D01*
G36*
X156825700Y-75306879D02*
G01*
X156684279Y-75448300D01*
X156379721Y-75448300D01*
X156238300Y-75306879D01*
X156238300Y-74926930D01*
X156825700Y-74926930D01*
X156825700Y-75306879D01*
G37*
X156825700Y-75306879D02*
X156684279Y-75448300D01*
X156379721Y-75448300D01*
X156238300Y-75306879D01*
X156238300Y-74926930D01*
X156825700Y-74926930D01*
X156825700Y-75306879D01*
G36*
X156825700Y-76577121D02*
G01*
X156825700Y-76957070D01*
X156238300Y-76957070D01*
X156238300Y-76577121D01*
X156379721Y-76435700D01*
X156684279Y-76435700D01*
X156825700Y-76577121D01*
G37*
X156825700Y-76577121D02*
X156825700Y-76957070D01*
X156238300Y-76957070D01*
X156238300Y-76577121D01*
X156379721Y-76435700D01*
X156684279Y-76435700D01*
X156825700Y-76577121D01*
G36*
X157317070Y-76957070D02*
G01*
X157025700Y-76957070D01*
X157025700Y-76577121D01*
X157167121Y-76435700D01*
X157317070Y-76435700D01*
X157317070Y-76957070D01*
G37*
X157317070Y-76957070D02*
X157025700Y-76957070D01*
X157025700Y-76577121D01*
X157167121Y-76435700D01*
X157317070Y-76435700D01*
X157317070Y-76957070D01*
%TO.C,U1*%
G36*
X150666000Y-76692500D02*
G01*
X150246000Y-76692500D01*
X150246000Y-75832500D01*
X150666000Y-75832500D01*
X150666000Y-76692500D01*
G37*
D11*
X150666000Y-76692500D02*
X150246000Y-76692500D01*
X150246000Y-75832500D01*
X150666000Y-75832500D01*
X150666000Y-76692500D01*
%TD*%
D12*
%TO.C,D1*%
X141150000Y-47125000D03*
X145150000Y-47125000D03*
%TD*%
%TO.C,D2*%
X156625000Y-46950000D03*
X160625000Y-46950000D03*
%TD*%
D13*
%TO.C,D3*%
X189400000Y-104125000D03*
X189400000Y-100125000D03*
%TD*%
%TO.C,D4*%
X189275000Y-121775000D03*
X189275000Y-117775000D03*
%TD*%
%TO.C,D5*%
X113075000Y-120625000D03*
X113075000Y-116625000D03*
%TD*%
%TO.C,D6*%
X113030000Y-104870000D03*
X113030000Y-100870000D03*
%TD*%
%TO.C,D9*%
X112710000Y-56440000D03*
X112710000Y-52440000D03*
%TD*%
D14*
%TO.C,U2*%
X158706999Y-76942001D03*
X158706999Y-76441999D03*
X158706999Y-75942000D03*
X158706999Y-75442001D03*
X158706999Y-74941999D03*
X154357001Y-74941999D03*
X154357001Y-75442001D03*
X154357001Y-75942000D03*
X154357001Y-76441999D03*
X154357001Y-76942001D03*
%TD*%
D15*
%TO.C,R17*%
X161385000Y-76350000D03*
X160365000Y-76350000D03*
%TD*%
D16*
%TO.C,R15*%
X153480000Y-71760000D03*
X154500000Y-71760000D03*
%TD*%
D17*
%TO.C,L1*%
X162237500Y-77925000D03*
X160662500Y-77925000D03*
%TD*%
D15*
%TO.C,R16*%
X154500000Y-72900000D03*
X153480000Y-72900000D03*
%TD*%
D17*
%TO.C,L2*%
X162219500Y-74867000D03*
X160644500Y-74867000D03*
%TD*%
D18*
%TO.C,C4*%
X160630000Y-73075000D03*
X159670000Y-73075000D03*
%TD*%
D15*
%TO.C,R13*%
X152320000Y-71760000D03*
X151300000Y-71760000D03*
%TD*%
D19*
%TO.C,C5*%
X161875000Y-71400000D03*
X159975000Y-71400000D03*
%TD*%
D20*
%TO.C,C1*%
X146900000Y-75475000D03*
X146900000Y-77050000D03*
%TD*%
D21*
%TO.C,U1*%
X149461000Y-75612500D03*
X149461000Y-76262500D03*
X149461000Y-76912500D03*
X151451000Y-76912500D03*
X151451000Y-76262500D03*
X151451000Y-75612500D03*
%TD*%
D16*
%TO.C,R14*%
X151300000Y-72920000D03*
X152320000Y-72920000D03*
%TD*%
M02*
