%TF.GenerationSoftware,KiCad,Pcbnew,(6.0.4-0)*%
%TF.CreationDate,2022-05-09T11:38:02-07:00*%
%TF.ProjectId,solar-panel-side-X-minus,736f6c61-722d-4706-916e-656c2d736964,rev?*%
%TF.SameCoordinates,Original*%
%TF.FileFunction,Copper,L3,Inr*%
%TF.FilePolarity,Positive*%
%FSLAX46Y46*%
G04 Gerber Fmt 4.6, Leading zero omitted, Abs format (unit mm)*
G04 Created by KiCad (PCBNEW (6.0.4-0)) date 2022-05-09 11:38:02*
%MOMM*%
%LPD*%
G01*
G04 APERTURE LIST*
%TA.AperFunction,ComponentPad*%
%ADD10C,3.000000*%
%TD*%
%TA.AperFunction,ComponentPad*%
%ADD11C,2.600000*%
%TD*%
%TA.AperFunction,ViaPad*%
%ADD12C,0.800000*%
%TD*%
%TA.AperFunction,Conductor*%
%ADD13C,0.152400*%
%TD*%
G04 APERTURE END LIST*
D10*
%TO.N,Net-(D1-Pad1)*%
%TO.C,SC1*%
X122125000Y-48400000D03*
%TO.N,Net-(D1-Pad2)*%
X131125000Y-48400000D03*
%TD*%
%TO.N,Net-(D1-Pad2)*%
%TO.C,SC2*%
X171125000Y-48400000D03*
%TO.N,Net-(D2-Pad2)*%
X180125000Y-48400000D03*
%TD*%
%TO.N,Net-(D2-Pad2)*%
%TO.C,SC3*%
X155800000Y-101975000D03*
%TO.N,Net-(D3-Pad2)*%
X155800000Y-92975000D03*
%TD*%
%TO.N,Net-(D3-Pad2)*%
%TO.C,SC4*%
X155750000Y-124550000D03*
%TO.N,Net-(D4-Pad2)*%
X155750000Y-115550000D03*
%TD*%
%TO.N,Net-(D4-Pad2)*%
%TO.C,SC5*%
X146200000Y-115550000D03*
%TO.N,Net-(D5-Pad2)*%
X146200000Y-124550000D03*
%TD*%
%TO.N,Net-(D5-Pad2)*%
%TO.C,SC6*%
X146350000Y-92975000D03*
%TO.N,GND*%
X146350000Y-101975000D03*
%TD*%
D11*
%TO.N,GND*%
%TO.C,H1*%
X189660000Y-46150000D03*
%TD*%
%TO.N,GND*%
%TO.C,H2*%
X151160000Y-46150000D03*
%TD*%
%TO.N,GND*%
%TO.C,H3*%
X112660000Y-46150000D03*
%TD*%
%TO.N,GND*%
%TO.C,H4*%
X112660000Y-93150000D03*
%TD*%
%TO.N,GND*%
%TO.C,H5*%
X112660000Y-140150000D03*
%TD*%
%TO.N,GND*%
%TO.C,H6*%
X151160000Y-140150000D03*
%TD*%
%TO.N,GND*%
%TO.C,H7*%
X189660000Y-140150000D03*
%TD*%
%TO.N,GND*%
%TO.C,H8*%
X189660000Y-93150000D03*
%TD*%
D12*
%TO.N,GND*%
X146900000Y-78040500D03*
%TO.N,+3V3*%
X137686000Y-85270500D03*
X112770000Y-60300000D03*
X132860000Y-78920500D03*
X137686000Y-74856500D03*
X132860000Y-89334500D03*
%TO.N,VSOLAR*%
X112750000Y-58720000D03*
%TO.N,SCL*%
X151472000Y-78040500D03*
%TO.N,SDA*%
X151472000Y-74230500D03*
%TO.N,/torque-coil*%
X126510000Y-123580000D03*
X115725000Y-138300000D03*
X114375000Y-136950000D03*
X126600000Y-125800000D03*
X127620000Y-123560000D03*
%TD*%
D13*
%TO.N,/torque-coil*%
X183375200Y-53752800D02*
X118757600Y-53752800D01*
X120281600Y-55886400D02*
X120281600Y-131781600D01*
X177279200Y-127514400D02*
X177279200Y-60458400D01*
X186423200Y-51314400D02*
X186118400Y-51009600D01*
X183984800Y-134220000D02*
X183984800Y-53752800D01*
X120891200Y-56496000D02*
X120891200Y-131172000D01*
X182156000Y-54972000D02*
X119976800Y-54972000D01*
X122415200Y-130257600D02*
X179412800Y-130257600D01*
X181851200Y-55886400D02*
X181546400Y-55581600D01*
X120281600Y-132391200D02*
X181546400Y-132391200D01*
X125463200Y-126600000D02*
X125768000Y-126904800D01*
X126072800Y-61068000D02*
X125768000Y-61372800D01*
X118757600Y-54362400D02*
X118757600Y-133305600D01*
X176974400Y-127819200D02*
X177279200Y-127514400D01*
X184899200Y-135134400D02*
X184899200Y-52838400D01*
X118452800Y-134220000D02*
X183375200Y-134220000D01*
X176669600Y-126904800D02*
X176669600Y-61068000D01*
X120891200Y-55886400D02*
X120586400Y-56191200D01*
X119367200Y-132696000D02*
X119672000Y-133000800D01*
X181851200Y-132086400D02*
X181851200Y-55886400D01*
X184289600Y-135134400D02*
X184594400Y-134829600D01*
X122110400Y-129952800D02*
X122415200Y-130257600D01*
X123329600Y-128733600D02*
X123634400Y-129038400D01*
X116014400Y-136048800D02*
X116319200Y-136353600D01*
X181241600Y-56496000D02*
X180936800Y-56191200D01*
X120586400Y-131476800D02*
X120891200Y-131781600D01*
X122110400Y-130562400D02*
X179717600Y-130562400D01*
X123634400Y-59239200D02*
X123634400Y-128428800D01*
X180632000Y-131476800D02*
X180936800Y-131172000D01*
X123939200Y-59544000D02*
X123939200Y-128124000D01*
X182765600Y-54362400D02*
X119367200Y-54362400D01*
X116928800Y-52533600D02*
X116928800Y-135134400D01*
X118148000Y-134524800D02*
X183680000Y-134524800D01*
X119672000Y-132391200D02*
X119976800Y-132696000D01*
X121500800Y-56496000D02*
X121196000Y-56800800D01*
X182156000Y-55581600D02*
X181851200Y-55276800D01*
X184289600Y-52838400D02*
X117843200Y-52838400D01*
X176364800Y-126600000D02*
X176364800Y-61372800D01*
X178498400Y-59239200D02*
X178193600Y-58934400D01*
X183375200Y-134220000D02*
X183680000Y-133915200D01*
X124548800Y-128124000D02*
X177279200Y-128124000D01*
X181851200Y-55276800D02*
X120281600Y-55276800D01*
X115709600Y-136963200D02*
X186118400Y-136963200D01*
X125463200Y-60458400D02*
X125158400Y-60763200D01*
X125158400Y-60153600D02*
X124853600Y-60458400D01*
X116319200Y-136353600D02*
X185508800Y-136353600D01*
X180327200Y-131172000D02*
X180632000Y-130867200D01*
X117538400Y-135134400D02*
X184289600Y-135134400D01*
X119672000Y-54667200D02*
X119367200Y-54972000D01*
X186728000Y-51009600D02*
X186423200Y-50704800D01*
X116014400Y-51619200D02*
X116014400Y-136048800D01*
X115709600Y-51314400D02*
X115709600Y-136353600D01*
X121500800Y-130562400D02*
X121805600Y-130867200D01*
X186728000Y-137572800D02*
X187032800Y-137268000D01*
X118757600Y-53752800D02*
X118452800Y-54057600D01*
X180936800Y-131781600D02*
X181241600Y-131476800D01*
X183070400Y-54667200D02*
X182765600Y-54362400D01*
X116014400Y-136658400D02*
X185813600Y-136658400D01*
X181241600Y-55886400D02*
X120891200Y-55886400D01*
X181546400Y-55581600D02*
X120586400Y-55581600D01*
X123939200Y-58934400D02*
X123634400Y-59239200D01*
X115404800Y-136658400D02*
X115709600Y-136963200D01*
X178803200Y-58324800D02*
X123329600Y-58324800D01*
X176974400Y-127209600D02*
X176974400Y-60763200D01*
X121500800Y-131172000D02*
X180327200Y-131172000D01*
X187032800Y-50704800D02*
X186728000Y-50400000D01*
X121805600Y-56800800D02*
X121500800Y-57105600D01*
X117538400Y-53143200D02*
X117538400Y-134524800D01*
X123024800Y-129038400D02*
X123329600Y-129343200D01*
X114997800Y-137572800D02*
X114375000Y-136950000D01*
X123024800Y-58629600D02*
X123024800Y-129038400D01*
X119062400Y-133000800D02*
X119367200Y-133305600D01*
X185204000Y-136048800D02*
X185508800Y-135744000D01*
X178498400Y-129343200D02*
X178803200Y-129038400D01*
X186423200Y-50704800D02*
X115709600Y-50704800D01*
X119367200Y-133305600D02*
X182460800Y-133305600D01*
X182765600Y-54972000D02*
X182460800Y-54667200D01*
X184594400Y-53143200D02*
X184289600Y-52838400D01*
X179108000Y-129343200D02*
X179108000Y-58629600D01*
X177584000Y-128428800D02*
X177888800Y-128124000D01*
X115404800Y-137268000D02*
X186423200Y-137268000D01*
X181546400Y-132391200D02*
X181851200Y-132086400D01*
X120281600Y-55276800D02*
X119976800Y-55581600D01*
X177888800Y-128733600D02*
X178193600Y-128428800D01*
X118148000Y-133915200D02*
X118452800Y-134220000D01*
X119672000Y-55276800D02*
X119672000Y-132391200D01*
X118452800Y-53448000D02*
X118148000Y-53752800D01*
X186118400Y-51619200D02*
X185813600Y-51314400D01*
X184289600Y-134524800D02*
X184289600Y-53448000D01*
X115100000Y-50704800D02*
X115100000Y-136963200D01*
X124548800Y-59544000D02*
X124244000Y-59848800D01*
X121805600Y-130867200D02*
X180022400Y-130867200D01*
X119367200Y-54362400D02*
X119062400Y-54667200D01*
X120586400Y-55581600D02*
X120281600Y-55886400D01*
X183680000Y-53448000D02*
X118452800Y-53448000D01*
X185813600Y-51314400D02*
X116319200Y-51314400D01*
X116624000Y-136048800D02*
X185204000Y-136048800D01*
X176669600Y-60458400D02*
X125463200Y-60458400D01*
X181851200Y-132696000D02*
X182156000Y-132391200D01*
X180327200Y-56800800D02*
X121805600Y-56800800D01*
X116928800Y-51924000D02*
X116624000Y-52228800D01*
X183680000Y-54057600D02*
X183375200Y-53752800D01*
X120891200Y-131781600D02*
X180936800Y-131781600D01*
X119976800Y-132086400D02*
X120281600Y-132391200D01*
X118452800Y-54057600D02*
X118452800Y-133610400D01*
X184899200Y-52838400D02*
X184594400Y-52533600D01*
X123939200Y-128733600D02*
X177888800Y-128733600D01*
X122110400Y-57105600D02*
X121805600Y-57410400D01*
X179717600Y-57410400D02*
X122415200Y-57410400D01*
X184594400Y-134829600D02*
X184594400Y-53143200D01*
X123634400Y-129038400D02*
X178193600Y-129038400D01*
X183680000Y-133915200D02*
X183680000Y-54057600D01*
X177888800Y-128124000D02*
X177888800Y-59848800D01*
X125768000Y-126904800D02*
X176060000Y-126904800D01*
X185204000Y-135439200D02*
X185204000Y-52533600D01*
X118148000Y-53752800D02*
X118148000Y-133915200D01*
X185813600Y-136048800D02*
X185813600Y-51924000D01*
X180632000Y-130867200D02*
X180632000Y-57105600D01*
X179412800Y-57715200D02*
X122720000Y-57715200D01*
X181546400Y-131781600D02*
X181546400Y-56191200D01*
X124853600Y-127819200D02*
X176974400Y-127819200D01*
X117843200Y-52838400D02*
X117538400Y-53143200D01*
X180327200Y-130562400D02*
X180327200Y-57410400D01*
X185508800Y-136353600D02*
X185813600Y-136048800D01*
X184594400Y-52533600D02*
X117538400Y-52533600D01*
X178498400Y-128733600D02*
X178498400Y-59239200D01*
X180632000Y-56496000D02*
X121500800Y-56496000D01*
X178803200Y-58934400D02*
X178498400Y-58629600D01*
X178498400Y-58629600D02*
X123634400Y-58629600D01*
X121500800Y-57105600D02*
X121500800Y-130562400D01*
X125158400Y-126904800D02*
X125463200Y-127209600D01*
X180022400Y-130257600D02*
X180022400Y-57715200D01*
X182460800Y-54667200D02*
X119672000Y-54667200D01*
X116319200Y-135744000D02*
X116624000Y-136048800D01*
X125768000Y-124968000D02*
X126600000Y-125800000D01*
X123329600Y-58324800D02*
X123024800Y-58629600D01*
X118148000Y-53143200D02*
X117843200Y-53448000D01*
X178193600Y-129038400D02*
X178498400Y-128733600D01*
X119976800Y-132696000D02*
X181851200Y-132696000D01*
X185204000Y-52533600D02*
X184899200Y-52228800D01*
X178803200Y-129648000D02*
X179108000Y-129343200D01*
X179412800Y-129648000D02*
X179412800Y-58324800D01*
X183375200Y-54362400D02*
X183070400Y-54057600D01*
X183984800Y-53752800D02*
X183680000Y-53448000D01*
X177279200Y-60458400D02*
X176974400Y-60153600D01*
X183070400Y-133915200D02*
X183375200Y-133610400D01*
X184899200Y-52228800D02*
X117233600Y-52228800D01*
X180022400Y-130867200D02*
X180327200Y-130562400D01*
X186423200Y-136658400D02*
X186423200Y-51314400D01*
X120586400Y-56191200D02*
X120586400Y-131476800D01*
X123024800Y-58020000D02*
X122720000Y-58324800D01*
X122415200Y-129648000D02*
X122720000Y-129952800D01*
X186118400Y-51009600D02*
X116014400Y-51009600D01*
X179717600Y-130562400D02*
X180022400Y-130257600D01*
X117233600Y-52228800D02*
X116928800Y-52533600D01*
X186728000Y-136963200D02*
X186728000Y-51009600D01*
X185813600Y-51924000D02*
X185508800Y-51619200D01*
X121805600Y-130257600D02*
X122110400Y-130562400D01*
X176669600Y-127514400D02*
X176974400Y-127209600D01*
X117233600Y-134829600D02*
X117538400Y-135134400D01*
X119062400Y-54057600D02*
X118757600Y-54362400D01*
X116319200Y-51314400D02*
X116014400Y-51619200D01*
X118757600Y-133305600D02*
X119062400Y-133610400D01*
X183680000Y-134524800D02*
X183984800Y-134220000D01*
X177888800Y-59848800D02*
X177584000Y-59544000D01*
X115709600Y-136353600D02*
X116014400Y-136658400D01*
X121805600Y-57410400D02*
X121805600Y-130257600D01*
X123634400Y-128428800D02*
X123939200Y-128733600D01*
X177584000Y-127819200D02*
X177584000Y-60153600D01*
X176364800Y-61372800D02*
X176060000Y-61068000D01*
X120586400Y-132086400D02*
X181241600Y-132086400D01*
X120891200Y-131172000D02*
X121196000Y-131476800D01*
X121196000Y-131476800D02*
X180632000Y-131476800D01*
X182765600Y-133610400D02*
X183070400Y-133305600D01*
X180936800Y-56191200D02*
X121196000Y-56191200D01*
X123024800Y-129648000D02*
X178803200Y-129648000D01*
X115709600Y-137572800D02*
X186728000Y-137572800D01*
X118452800Y-133610400D02*
X118757600Y-133915200D01*
X182765600Y-133000800D02*
X182765600Y-54972000D01*
X119367200Y-54972000D02*
X119367200Y-132696000D01*
X177279200Y-128124000D02*
X177584000Y-127819200D01*
X119062400Y-133610400D02*
X182765600Y-133610400D01*
X181241600Y-131476800D02*
X181241600Y-56496000D01*
X183984800Y-134829600D02*
X184289600Y-134524800D01*
X116928800Y-135134400D02*
X117233600Y-135439200D01*
X124548800Y-127514400D02*
X124853600Y-127819200D01*
X184594400Y-135439200D02*
X184899200Y-135134400D01*
X180936800Y-131172000D02*
X180936800Y-56800800D01*
X176974400Y-60153600D02*
X125158400Y-60153600D01*
X176060000Y-126904800D02*
X176364800Y-126600000D01*
X179108000Y-58020000D02*
X123024800Y-58020000D01*
X116014400Y-51009600D02*
X115709600Y-51314400D01*
X122720000Y-57715200D02*
X122415200Y-58020000D01*
X116624000Y-51619200D02*
X116319200Y-51924000D01*
X184289600Y-53448000D02*
X183984800Y-53143200D01*
X180632000Y-57105600D02*
X180327200Y-56800800D01*
X123634400Y-58629600D02*
X123329600Y-58934400D01*
X124244000Y-128428800D02*
X177584000Y-128428800D01*
X122720000Y-129343200D02*
X123024800Y-129648000D01*
X183984800Y-53143200D02*
X118148000Y-53143200D01*
X179108000Y-129952800D02*
X179412800Y-129648000D01*
X181241600Y-132086400D02*
X181546400Y-131781600D01*
X118757600Y-133915200D02*
X183070400Y-133915200D01*
X179108000Y-58629600D02*
X178803200Y-58324800D01*
X176669600Y-61068000D02*
X176364800Y-60763200D01*
X186423200Y-137268000D02*
X186728000Y-136963200D01*
X115709600Y-50704800D02*
X115404800Y-51009600D01*
X177584000Y-59544000D02*
X124548800Y-59544000D01*
X122415200Y-58020000D02*
X122415200Y-129648000D01*
X182156000Y-132391200D02*
X182156000Y-55581600D01*
X182460800Y-132696000D02*
X182460800Y-55276800D01*
X182460800Y-133305600D02*
X182765600Y-133000800D01*
X124244000Y-59848800D02*
X124244000Y-127819200D01*
X185508800Y-51619200D02*
X116624000Y-51619200D01*
X186728000Y-50400000D02*
X115404800Y-50400000D01*
X125768000Y-60763200D02*
X125463200Y-61068000D01*
X123939200Y-128124000D02*
X124244000Y-128428800D01*
X187032800Y-137268000D02*
X187032800Y-50704800D01*
X119976800Y-55581600D02*
X119976800Y-132086400D01*
X117538400Y-134524800D02*
X117843200Y-134829600D01*
X125768000Y-124771200D02*
X125768000Y-124968000D01*
X186118400Y-136963200D02*
X186423200Y-136658400D01*
X176364800Y-127209600D02*
X176669600Y-126904800D01*
X125158400Y-60763200D02*
X125158400Y-126904800D01*
X117843200Y-53448000D02*
X117843200Y-134220000D01*
X125463200Y-127209600D02*
X176364800Y-127209600D01*
X115100000Y-136963200D02*
X115404800Y-137268000D01*
X121196000Y-56191200D02*
X120891200Y-56496000D01*
X182156000Y-133000800D02*
X182460800Y-132696000D01*
X180327200Y-57410400D02*
X180022400Y-57105600D01*
X117538400Y-52533600D02*
X117233600Y-52838400D01*
X176060000Y-61068000D02*
X126072800Y-61068000D01*
X120281600Y-131781600D02*
X120586400Y-132086400D01*
X180022400Y-57715200D02*
X179717600Y-57410400D01*
X121196000Y-130867200D02*
X121500800Y-131172000D01*
X115404800Y-50400000D02*
X115100000Y-50704800D01*
X117843200Y-134220000D02*
X118148000Y-134524800D01*
X124548800Y-60153600D02*
X124548800Y-127514400D01*
X186118400Y-136353600D02*
X186118400Y-51619200D01*
X122720000Y-129952800D02*
X179108000Y-129952800D01*
X123329600Y-58934400D02*
X123329600Y-128733600D01*
X183070400Y-54057600D02*
X119062400Y-54057600D01*
X119062400Y-54667200D02*
X119062400Y-133000800D01*
X183375200Y-133610400D02*
X183375200Y-54362400D01*
X178803200Y-129038400D02*
X178803200Y-58934400D01*
X179412800Y-58324800D02*
X179108000Y-58020000D01*
X124853600Y-59848800D02*
X124548800Y-60153600D01*
X180936800Y-56800800D02*
X180632000Y-56496000D01*
X177279200Y-59848800D02*
X124853600Y-59848800D01*
X124853600Y-127209600D02*
X125158400Y-127514400D01*
X124244000Y-127819200D02*
X124548800Y-128124000D01*
X116928800Y-135744000D02*
X184899200Y-135744000D01*
X185508800Y-52228800D02*
X185204000Y-51924000D01*
X185204000Y-51924000D02*
X116928800Y-51924000D01*
X185813600Y-136658400D02*
X186118400Y-136353600D01*
X125768000Y-61372800D02*
X125768000Y-124771200D01*
X119672000Y-133000800D02*
X182156000Y-133000800D01*
X183070400Y-133305600D02*
X183070400Y-54667200D01*
X178193600Y-128428800D02*
X178193600Y-59544000D01*
X115709600Y-137572800D02*
X114997800Y-137572800D01*
X125463200Y-61068000D02*
X125463200Y-126600000D01*
X185508800Y-135744000D02*
X185508800Y-52228800D01*
X117843200Y-134829600D02*
X183984800Y-134829600D01*
X122110400Y-57715200D02*
X122110400Y-129952800D01*
X178193600Y-59544000D02*
X177888800Y-59239200D01*
X180022400Y-57105600D02*
X122110400Y-57105600D01*
X176974400Y-60763200D02*
X176669600Y-60458400D01*
X184899200Y-135744000D02*
X185204000Y-135439200D01*
X178193600Y-58934400D02*
X123939200Y-58934400D01*
X177584000Y-60153600D02*
X177279200Y-59848800D01*
X179717600Y-58020000D02*
X179412800Y-57715200D01*
X124244000Y-59239200D02*
X123939200Y-59544000D01*
X121196000Y-56800800D02*
X121196000Y-130867200D01*
X179717600Y-129952800D02*
X179717600Y-58020000D01*
X122415200Y-57410400D02*
X122110400Y-57715200D01*
X182460800Y-55276800D02*
X182156000Y-54972000D01*
X115404800Y-51009600D02*
X115404800Y-136658400D01*
X177888800Y-59239200D02*
X124244000Y-59239200D01*
X123329600Y-129343200D02*
X178498400Y-129343200D01*
X116624000Y-135439200D02*
X116928800Y-135744000D01*
X176364800Y-60763200D02*
X125768000Y-60763200D01*
X122720000Y-58324800D02*
X122720000Y-129343200D01*
X181546400Y-56191200D02*
X181241600Y-55886400D01*
X116319200Y-51924000D02*
X116319200Y-135744000D01*
X124853600Y-60458400D02*
X124853600Y-127209600D01*
X117233600Y-52838400D02*
X117233600Y-134829600D01*
X125158400Y-127514400D02*
X176669600Y-127514400D01*
X116624000Y-52228800D02*
X116624000Y-135439200D01*
X117233600Y-135439200D02*
X184594400Y-135439200D01*
X179412800Y-130257600D02*
X179717600Y-129952800D01*
X119976800Y-54972000D02*
X119672000Y-55276800D01*
%TD*%
M02*
