%TF.GenerationSoftware,KiCad,Pcbnew,(6.0.4-0)*%
%TF.CreationDate,2022-05-09T11:38:03-07:00*%
%TF.ProjectId,solar-panel-side-X-minus,736f6c61-722d-4706-916e-656c2d736964,rev?*%
%TF.SameCoordinates,Original*%
%TF.FileFunction,Soldermask,Top*%
%TF.FilePolarity,Negative*%
%FSLAX46Y46*%
G04 Gerber Fmt 4.6, Leading zero omitted, Abs format (unit mm)*
G04 Created by KiCad (PCBNEW (6.0.4-0)) date 2022-05-09 11:38:03*
%MOMM*%
%LPD*%
G01*
G04 APERTURE LIST*
G04 Aperture macros list*
%AMRoundRect*
0 Rectangle with rounded corners*
0 $1 Rounding radius*
0 $2 $3 $4 $5 $6 $7 $8 $9 X,Y pos of 4 corners*
0 Add a 4 corners polygon primitive as box body*
4,1,4,$2,$3,$4,$5,$6,$7,$8,$9,$2,$3,0*
0 Add four circle primitives for the rounded corners*
1,1,$1+$1,$2,$3*
1,1,$1+$1,$4,$5*
1,1,$1+$1,$6,$7*
1,1,$1+$1,$8,$9*
0 Add four rect primitives between the rounded corners*
20,1,$1+$1,$2,$3,$4,$5,0*
20,1,$1+$1,$4,$5,$6,$7,0*
20,1,$1+$1,$6,$7,$8,$9,0*
20,1,$1+$1,$8,$9,$2,$3,0*%
G04 Aperture macros list end*
%ADD10C,0.100000*%
%ADD11R,2.500000X1.700000*%
%ADD12R,1.700000X2.500000*%
%ADD13C,3.000000*%
%ADD14C,3.800000*%
%ADD15C,2.600000*%
%ADD16R,1.411200X0.270000*%
%ADD17RoundRect,0.135000X0.135000X0.185000X-0.135000X0.185000X-0.135000X-0.185000X0.135000X-0.185000X0*%
%ADD18RoundRect,0.135000X-0.135000X-0.185000X0.135000X-0.185000X0.135000X0.185000X-0.135000X0.185000X0*%
%ADD19RoundRect,0.218750X0.218750X0.256250X-0.218750X0.256250X-0.218750X-0.256250X0.218750X-0.256250X0*%
%ADD20RoundRect,0.140000X0.140000X0.170000X-0.140000X0.170000X-0.140000X-0.170000X0.140000X-0.170000X0*%
%ADD21RoundRect,0.250000X0.250000X0.475000X-0.250000X0.475000X-0.250000X-0.475000X0.250000X-0.475000X0*%
%ADD22RoundRect,0.218750X-0.256250X0.218750X-0.256250X-0.218750X0.256250X-0.218750X0.256250X0.218750X0*%
%ADD23R,0.740000X0.270000*%
%ADD24R,0.650000X1.350000*%
G04 APERTURE END LIST*
%TO.C,U2*%
G36*
X157455500Y-77095500D02*
G01*
X155608500Y-77095500D01*
X155608500Y-76535700D01*
X157455500Y-76535700D01*
X157455500Y-77095500D01*
G37*
D10*
X157455500Y-77095500D02*
X155608500Y-77095500D01*
X155608500Y-76535700D01*
X157455500Y-76535700D01*
X157455500Y-77095500D01*
G36*
X157455500Y-75348300D02*
G01*
X155608500Y-75348300D01*
X155608500Y-74788500D01*
X157455500Y-74788500D01*
X157455500Y-75348300D01*
G37*
X157455500Y-75348300D02*
X155608500Y-75348300D01*
X155608500Y-74788500D01*
X157455500Y-74788500D01*
X157455500Y-75348300D01*
G36*
X156725700Y-77095500D02*
G01*
X156338300Y-77095500D01*
X156338300Y-74788500D01*
X156725700Y-74788500D01*
X156725700Y-77095500D01*
G37*
X156725700Y-77095500D02*
X156338300Y-77095500D01*
X156338300Y-74788500D01*
X156725700Y-74788500D01*
X156725700Y-77095500D01*
G36*
X157455500Y-76135700D02*
G01*
X155608500Y-76135700D01*
X155608500Y-75748300D01*
X157455500Y-75748300D01*
X157455500Y-76135700D01*
G37*
X157455500Y-76135700D02*
X155608500Y-76135700D01*
X155608500Y-75748300D01*
X157455500Y-75748300D01*
X157455500Y-76135700D01*
G36*
X155938300Y-77095500D02*
G01*
X155608500Y-77095500D01*
X155608500Y-74788500D01*
X155938300Y-74788500D01*
X155938300Y-77095500D01*
G37*
X155938300Y-77095500D02*
X155608500Y-77095500D01*
X155608500Y-74788500D01*
X155938300Y-74788500D01*
X155938300Y-77095500D01*
G36*
X157455500Y-77095500D02*
G01*
X157125700Y-77095500D01*
X157125700Y-74788500D01*
X157455500Y-74788500D01*
X157455500Y-77095500D01*
G37*
X157455500Y-77095500D02*
X157125700Y-77095500D01*
X157125700Y-74788500D01*
X157455500Y-74788500D01*
X157455500Y-77095500D01*
%TD*%
D11*
%TO.C,D1*%
X141150000Y-47125000D03*
X145150000Y-47125000D03*
%TD*%
%TO.C,D2*%
X156625000Y-46950000D03*
X160625000Y-46950000D03*
%TD*%
D12*
%TO.C,D3*%
X189400000Y-104125000D03*
X189400000Y-100125000D03*
%TD*%
%TO.C,D4*%
X189275000Y-121775000D03*
X189275000Y-117775000D03*
%TD*%
%TO.C,D5*%
X113075000Y-120625000D03*
X113075000Y-116625000D03*
%TD*%
%TO.C,D6*%
X113030000Y-104870000D03*
X113030000Y-100870000D03*
%TD*%
%TO.C,D9*%
X112710000Y-56440000D03*
X112710000Y-52440000D03*
%TD*%
D13*
%TO.C,SC1*%
X122125000Y-48400000D03*
X131125000Y-48400000D03*
%TD*%
%TO.C,SC2*%
X171125000Y-48400000D03*
X180125000Y-48400000D03*
%TD*%
%TO.C,SC3*%
X155800000Y-101975000D03*
X155800000Y-92975000D03*
%TD*%
%TO.C,SC4*%
X155750000Y-124550000D03*
X155750000Y-115550000D03*
%TD*%
%TO.C,SC5*%
X146200000Y-115550000D03*
X146200000Y-124550000D03*
%TD*%
%TO.C,SC6*%
X146350000Y-92975000D03*
X146350000Y-101975000D03*
%TD*%
D14*
%TO.C,H1*%
X189660000Y-46150000D03*
D15*
X189660000Y-46150000D03*
%TD*%
%TO.C,H2*%
X151160000Y-46150000D03*
D14*
X151160000Y-46150000D03*
%TD*%
D15*
%TO.C,H3*%
X112660000Y-46150000D03*
D14*
X112660000Y-46150000D03*
%TD*%
%TO.C,H4*%
X112660000Y-93150000D03*
D15*
X112660000Y-93150000D03*
%TD*%
%TO.C,H5*%
X112660000Y-140150000D03*
D14*
X112660000Y-140150000D03*
%TD*%
%TO.C,H6*%
X151160000Y-140150000D03*
D15*
X151160000Y-140150000D03*
%TD*%
%TO.C,H7*%
X189660000Y-140150000D03*
D14*
X189660000Y-140150000D03*
%TD*%
D15*
%TO.C,H8*%
X189660000Y-93150000D03*
D14*
X189660000Y-93150000D03*
%TD*%
D16*
%TO.C,U2*%
X158706999Y-76942001D03*
X158706999Y-76441999D03*
X158706999Y-75942000D03*
X158706999Y-75442001D03*
X158706999Y-74941999D03*
X154357001Y-74941999D03*
X154357001Y-75442001D03*
X154357001Y-75942000D03*
X154357001Y-76441999D03*
X154357001Y-76942001D03*
%TD*%
D17*
%TO.C,R17*%
X161385000Y-76350000D03*
X160365000Y-76350000D03*
%TD*%
D18*
%TO.C,R15*%
X153480000Y-71760000D03*
X154500000Y-71760000D03*
%TD*%
D19*
%TO.C,L1*%
X162237500Y-77925000D03*
X160662500Y-77925000D03*
%TD*%
D17*
%TO.C,R16*%
X154500000Y-72900000D03*
X153480000Y-72900000D03*
%TD*%
D19*
%TO.C,L2*%
X162219500Y-74867000D03*
X160644500Y-74867000D03*
%TD*%
D20*
%TO.C,C4*%
X160630000Y-73075000D03*
X159670000Y-73075000D03*
%TD*%
D17*
%TO.C,R13*%
X152320000Y-71760000D03*
X151300000Y-71760000D03*
%TD*%
D21*
%TO.C,C5*%
X161875000Y-71400000D03*
X159975000Y-71400000D03*
%TD*%
D22*
%TO.C,C1*%
X146900000Y-75475000D03*
X146900000Y-77050000D03*
%TD*%
D23*
%TO.C,U1*%
X149461000Y-75612500D03*
X149461000Y-76262500D03*
X149461000Y-76912500D03*
X151451000Y-76912500D03*
X151451000Y-76262500D03*
X151451000Y-75612500D03*
D24*
X150456000Y-76262500D03*
%TD*%
D18*
%TO.C,R14*%
X151300000Y-72920000D03*
X152320000Y-72920000D03*
%TD*%
M02*
