%TF.GenerationSoftware,KiCad,Pcbnew,(6.0.4-0)*%
%TF.CreationDate,2022-05-09T11:38:03-07:00*%
%TF.ProjectId,solar-panel-side-X-minus,736f6c61-722d-4706-916e-656c2d736964,rev?*%
%TF.SameCoordinates,Original*%
%TF.FileFunction,Legend,Top*%
%TF.FilePolarity,Positive*%
%FSLAX46Y46*%
G04 Gerber Fmt 4.6, Leading zero omitted, Abs format (unit mm)*
G04 Created by KiCad (PCBNEW (6.0.4-0)) date 2022-05-09 11:38:03*
%MOMM*%
%LPD*%
G01*
G04 APERTURE LIST*
G04 Aperture macros list*
%AMRoundRect*
0 Rectangle with rounded corners*
0 $1 Rounding radius*
0 $2 $3 $4 $5 $6 $7 $8 $9 X,Y pos of 4 corners*
0 Add a 4 corners polygon primitive as box body*
4,1,4,$2,$3,$4,$5,$6,$7,$8,$9,$2,$3,0*
0 Add four circle primitives for the rounded corners*
1,1,$1+$1,$2,$3*
1,1,$1+$1,$4,$5*
1,1,$1+$1,$6,$7*
1,1,$1+$1,$8,$9*
0 Add four rect primitives between the rounded corners*
20,1,$1+$1,$2,$3,$4,$5,0*
20,1,$1+$1,$4,$5,$6,$7,0*
20,1,$1+$1,$6,$7,$8,$9,0*
20,1,$1+$1,$8,$9,$2,$3,0*%
G04 Aperture macros list end*
%ADD10C,0.150000*%
%ADD11C,0.300000*%
%ADD12C,0.120000*%
%ADD13C,0.100000*%
%ADD14C,0.127000*%
%ADD15C,0.200000*%
%ADD16R,2.500000X1.700000*%
%ADD17R,1.700000X2.500000*%
%ADD18C,3.000000*%
%ADD19C,3.800000*%
%ADD20C,2.600000*%
%ADD21R,1.411200X0.270000*%
%ADD22RoundRect,0.135000X0.135000X0.185000X-0.135000X0.185000X-0.135000X-0.185000X0.135000X-0.185000X0*%
%ADD23RoundRect,0.135000X-0.135000X-0.185000X0.135000X-0.185000X0.135000X0.185000X-0.135000X0.185000X0*%
%ADD24RoundRect,0.218750X0.218750X0.256250X-0.218750X0.256250X-0.218750X-0.256250X0.218750X-0.256250X0*%
%ADD25RoundRect,0.140000X0.140000X0.170000X-0.140000X0.170000X-0.140000X-0.170000X0.140000X-0.170000X0*%
%ADD26RoundRect,0.250000X0.250000X0.475000X-0.250000X0.475000X-0.250000X-0.475000X0.250000X-0.475000X0*%
%ADD27RoundRect,0.218750X-0.256250X0.218750X-0.256250X-0.218750X0.256250X-0.218750X0.256250X0.218750X0*%
%ADD28R,0.740000X0.270000*%
%ADD29R,0.650000X1.350000*%
G04 APERTURE END LIST*
D10*
X157030327Y-82599761D02*
X157167232Y-82647380D01*
X157405327Y-82647380D01*
X157506517Y-82599761D01*
X157560089Y-82552142D01*
X157619613Y-82456904D01*
X157631517Y-82361666D01*
X157595803Y-82266428D01*
X157554136Y-82218809D01*
X157464851Y-82171190D01*
X157280327Y-82123571D01*
X157191041Y-82075952D01*
X157149375Y-82028333D01*
X157113660Y-81933095D01*
X157125565Y-81837857D01*
X157185089Y-81742619D01*
X157238660Y-81695000D01*
X157339851Y-81647380D01*
X157577946Y-81647380D01*
X157714851Y-81695000D01*
X158452946Y-82647380D02*
X158518422Y-82123571D01*
X158482708Y-82028333D01*
X158393422Y-81980714D01*
X158202946Y-81980714D01*
X158101755Y-82028333D01*
X158458898Y-82599761D02*
X158357708Y-82647380D01*
X158119613Y-82647380D01*
X158030327Y-82599761D01*
X157994613Y-82504523D01*
X158006517Y-82409285D01*
X158066041Y-82314047D01*
X158167232Y-82266428D01*
X158405327Y-82266428D01*
X158506517Y-82218809D01*
X159012470Y-81980714D02*
X158887470Y-82980714D01*
X159006517Y-82028333D02*
X159107708Y-81980714D01*
X159298184Y-81980714D01*
X159387470Y-82028333D01*
X159429136Y-82075952D01*
X159464851Y-82171190D01*
X159429136Y-82456904D01*
X159369613Y-82552142D01*
X159316041Y-82599761D01*
X159214851Y-82647380D01*
X159024375Y-82647380D01*
X158935089Y-82599761D01*
X159976755Y-82647380D02*
X159887470Y-82599761D01*
X159851755Y-82504523D01*
X159958898Y-81647380D01*
X160357708Y-82647380D02*
X160441041Y-81980714D01*
X160482708Y-81647380D02*
X160429136Y-81695000D01*
X160470803Y-81742619D01*
X160524375Y-81695000D01*
X160482708Y-81647380D01*
X160470803Y-81742619D01*
X160917232Y-81980714D02*
X160833898Y-82647380D01*
X160905327Y-82075952D02*
X160958898Y-82028333D01*
X161060089Y-81980714D01*
X161202946Y-81980714D01*
X161292232Y-82028333D01*
X161327946Y-82123571D01*
X161262470Y-82647380D01*
X162250565Y-81980714D02*
X162149375Y-82790238D01*
X162089851Y-82885476D01*
X162036279Y-82933095D01*
X161935089Y-82980714D01*
X161792232Y-82980714D01*
X161702946Y-82933095D01*
X162173184Y-82599761D02*
X162071994Y-82647380D01*
X161881517Y-82647380D01*
X161792232Y-82599761D01*
X161750565Y-82552142D01*
X161714851Y-82456904D01*
X161750565Y-82171190D01*
X161810089Y-82075952D01*
X161863660Y-82028333D01*
X161964851Y-81980714D01*
X162155327Y-81980714D01*
X162244613Y-82028333D01*
X163976755Y-82647380D02*
X163702946Y-82171190D01*
X163405327Y-82647380D02*
X163530327Y-81647380D01*
X163911279Y-81647380D01*
X164000565Y-81695000D01*
X164042232Y-81742619D01*
X164077946Y-81837857D01*
X164060089Y-81980714D01*
X164000565Y-82075952D01*
X163946994Y-82123571D01*
X163845803Y-82171190D01*
X163464851Y-82171190D01*
X164792232Y-82599761D02*
X164691041Y-82647380D01*
X164500565Y-82647380D01*
X164411279Y-82599761D01*
X164375565Y-82504523D01*
X164423184Y-82123571D01*
X164482708Y-82028333D01*
X164583898Y-81980714D01*
X164774375Y-81980714D01*
X164863660Y-82028333D01*
X164899375Y-82123571D01*
X164887470Y-82218809D01*
X164399375Y-82314047D01*
X165250565Y-81980714D02*
X165405327Y-82647380D01*
X165726755Y-81980714D01*
X166036279Y-82552142D02*
X166077946Y-82599761D01*
X166024375Y-82647380D01*
X165982708Y-82599761D01*
X166036279Y-82552142D01*
X166024375Y-82647380D01*
X167786279Y-82647380D02*
X167214851Y-82647380D01*
X167500565Y-82647380D02*
X167625565Y-81647380D01*
X167512470Y-81790238D01*
X167405327Y-81885476D01*
X167304136Y-81933095D01*
X157506517Y-84209761D02*
X157643422Y-84257380D01*
X157881517Y-84257380D01*
X157982708Y-84209761D01*
X158036279Y-84162142D01*
X158095803Y-84066904D01*
X158107708Y-83971666D01*
X158071994Y-83876428D01*
X158030327Y-83828809D01*
X157941041Y-83781190D01*
X157756517Y-83733571D01*
X157667232Y-83685952D01*
X157625565Y-83638333D01*
X157589851Y-83543095D01*
X157601755Y-83447857D01*
X157661279Y-83352619D01*
X157714851Y-83305000D01*
X157816041Y-83257380D01*
X158054136Y-83257380D01*
X158191041Y-83305000D01*
X158458898Y-84209761D02*
X158595803Y-84257380D01*
X158833898Y-84257380D01*
X158935089Y-84209761D01*
X158988660Y-84162142D01*
X159048184Y-84066904D01*
X159060089Y-83971666D01*
X159024375Y-83876428D01*
X158982708Y-83828809D01*
X158893422Y-83781190D01*
X158708898Y-83733571D01*
X158619613Y-83685952D01*
X158577946Y-83638333D01*
X158542232Y-83543095D01*
X158554136Y-83447857D01*
X158613660Y-83352619D01*
X158667232Y-83305000D01*
X158768422Y-83257380D01*
X159006517Y-83257380D01*
X159143422Y-83305000D01*
X159452946Y-84257380D02*
X159577946Y-83257380D01*
X160649375Y-84209761D02*
X160786279Y-84257380D01*
X161024375Y-84257380D01*
X161125565Y-84209761D01*
X161179136Y-84162142D01*
X161238660Y-84066904D01*
X161250565Y-83971666D01*
X161214851Y-83876428D01*
X161173184Y-83828809D01*
X161083898Y-83781190D01*
X160899375Y-83733571D01*
X160810089Y-83685952D01*
X160768422Y-83638333D01*
X160732708Y-83543095D01*
X160744613Y-83447857D01*
X160804136Y-83352619D01*
X160857708Y-83305000D01*
X160958898Y-83257380D01*
X161196994Y-83257380D01*
X161333898Y-83305000D01*
X162071994Y-84257380D02*
X162137470Y-83733571D01*
X162101755Y-83638333D01*
X162012470Y-83590714D01*
X161821994Y-83590714D01*
X161720803Y-83638333D01*
X162077946Y-84209761D02*
X161976755Y-84257380D01*
X161738660Y-84257380D01*
X161649375Y-84209761D01*
X161613660Y-84114523D01*
X161625565Y-84019285D01*
X161685089Y-83924047D01*
X161786279Y-83876428D01*
X162024375Y-83876428D01*
X162125565Y-83828809D01*
X162488660Y-83590714D02*
X162869613Y-83590714D01*
X162673184Y-83257380D02*
X162566041Y-84114523D01*
X162601755Y-84209761D01*
X162691041Y-84257380D01*
X162786279Y-84257380D01*
X163506517Y-84209761D02*
X163405327Y-84257380D01*
X163214851Y-84257380D01*
X163125565Y-84209761D01*
X163089851Y-84114523D01*
X163137470Y-83733571D01*
X163196994Y-83638333D01*
X163298184Y-83590714D01*
X163488660Y-83590714D01*
X163577946Y-83638333D01*
X163613660Y-83733571D01*
X163601755Y-83828809D01*
X163113660Y-83924047D01*
X164119613Y-84257380D02*
X164030327Y-84209761D01*
X163994613Y-84114523D01*
X164101755Y-83257380D01*
X164643422Y-84257380D02*
X164554136Y-84209761D01*
X164518422Y-84114523D01*
X164625565Y-83257380D01*
X165024375Y-84257380D02*
X165107708Y-83590714D01*
X165149375Y-83257380D02*
X165095803Y-83305000D01*
X165137470Y-83352619D01*
X165191041Y-83305000D01*
X165149375Y-83257380D01*
X165137470Y-83352619D01*
X165441041Y-83590714D02*
X165821994Y-83590714D01*
X165625565Y-83257380D02*
X165518422Y-84114523D01*
X165554136Y-84209761D01*
X165643422Y-84257380D01*
X165738660Y-84257380D01*
X166458898Y-84209761D02*
X166357708Y-84257380D01*
X166167232Y-84257380D01*
X166077946Y-84209761D01*
X166042232Y-84114523D01*
X166089851Y-83733571D01*
X166149375Y-83638333D01*
X166250565Y-83590714D01*
X166441041Y-83590714D01*
X166530327Y-83638333D01*
X166566041Y-83733571D01*
X166554136Y-83828809D01*
X166066041Y-83924047D01*
X166887470Y-84209761D02*
X166976755Y-84257380D01*
X167167232Y-84257380D01*
X167268422Y-84209761D01*
X167327946Y-84114523D01*
X167333898Y-84066904D01*
X167298184Y-83971666D01*
X167208898Y-83924047D01*
X167066041Y-83924047D01*
X166976755Y-83876428D01*
X166941041Y-83781190D01*
X166946994Y-83733571D01*
X167006517Y-83638333D01*
X167107708Y-83590714D01*
X167250565Y-83590714D01*
X167339851Y-83638333D01*
D11*
X173142857Y-44857142D02*
X175142857Y-47857142D01*
X175142857Y-44857142D02*
X173142857Y-47857142D01*
X176285714Y-46714285D02*
X178571428Y-46714285D01*
D10*
%TO.C,D1*%
X139157380Y-47863095D02*
X138157380Y-47863095D01*
X138157380Y-47625000D01*
X138205000Y-47482142D01*
X138300238Y-47386904D01*
X138395476Y-47339285D01*
X138585952Y-47291666D01*
X138728809Y-47291666D01*
X138919285Y-47339285D01*
X139014523Y-47386904D01*
X139109761Y-47482142D01*
X139157380Y-47625000D01*
X139157380Y-47863095D01*
X139157380Y-46339285D02*
X139157380Y-46910714D01*
X139157380Y-46625000D02*
X138157380Y-46625000D01*
X138300238Y-46720238D01*
X138395476Y-46815476D01*
X138443095Y-46910714D01*
%TO.C,D2*%
X163776380Y-47561095D02*
X162776380Y-47561095D01*
X162776380Y-47323000D01*
X162824000Y-47180142D01*
X162919238Y-47084904D01*
X163014476Y-47037285D01*
X163204952Y-46989666D01*
X163347809Y-46989666D01*
X163538285Y-47037285D01*
X163633523Y-47084904D01*
X163728761Y-47180142D01*
X163776380Y-47323000D01*
X163776380Y-47561095D01*
X162871619Y-46608714D02*
X162824000Y-46561095D01*
X162776380Y-46465857D01*
X162776380Y-46227761D01*
X162824000Y-46132523D01*
X162871619Y-46084904D01*
X162966857Y-46037285D01*
X163062095Y-46037285D01*
X163204952Y-46084904D01*
X163776380Y-46656333D01*
X163776380Y-46037285D01*
%TO.C,D3*%
X188586904Y-98027380D02*
X188586904Y-97027380D01*
X188825000Y-97027380D01*
X188967857Y-97075000D01*
X189063095Y-97170238D01*
X189110714Y-97265476D01*
X189158333Y-97455952D01*
X189158333Y-97598809D01*
X189110714Y-97789285D01*
X189063095Y-97884523D01*
X188967857Y-97979761D01*
X188825000Y-98027380D01*
X188586904Y-98027380D01*
X189491666Y-97027380D02*
X190110714Y-97027380D01*
X189777380Y-97408333D01*
X189920238Y-97408333D01*
X190015476Y-97455952D01*
X190063095Y-97503571D01*
X190110714Y-97598809D01*
X190110714Y-97836904D01*
X190063095Y-97932142D01*
X190015476Y-97979761D01*
X189920238Y-98027380D01*
X189634523Y-98027380D01*
X189539285Y-97979761D01*
X189491666Y-97932142D01*
%TO.C,D4*%
X188536904Y-114639380D02*
X188536904Y-113639380D01*
X188775000Y-113639380D01*
X188917857Y-113687000D01*
X189013095Y-113782238D01*
X189060714Y-113877476D01*
X189108333Y-114067952D01*
X189108333Y-114210809D01*
X189060714Y-114401285D01*
X189013095Y-114496523D01*
X188917857Y-114591761D01*
X188775000Y-114639380D01*
X188536904Y-114639380D01*
X189965476Y-113972714D02*
X189965476Y-114639380D01*
X189727380Y-113591761D02*
X189489285Y-114306047D01*
X190108333Y-114306047D01*
%TO.C,D5*%
X112336904Y-124538380D02*
X112336904Y-123538380D01*
X112575000Y-123538380D01*
X112717857Y-123586000D01*
X112813095Y-123681238D01*
X112860714Y-123776476D01*
X112908333Y-123966952D01*
X112908333Y-124109809D01*
X112860714Y-124300285D01*
X112813095Y-124395523D01*
X112717857Y-124490761D01*
X112575000Y-124538380D01*
X112336904Y-124538380D01*
X113813095Y-123538380D02*
X113336904Y-123538380D01*
X113289285Y-124014571D01*
X113336904Y-123966952D01*
X113432142Y-123919333D01*
X113670238Y-123919333D01*
X113765476Y-123966952D01*
X113813095Y-124014571D01*
X113860714Y-124109809D01*
X113860714Y-124347904D01*
X113813095Y-124443142D01*
X113765476Y-124490761D01*
X113670238Y-124538380D01*
X113432142Y-124538380D01*
X113336904Y-124490761D01*
X113289285Y-124443142D01*
%TO.C,D6*%
X112291904Y-98496380D02*
X112291904Y-97496380D01*
X112530000Y-97496380D01*
X112672857Y-97544000D01*
X112768095Y-97639238D01*
X112815714Y-97734476D01*
X112863333Y-97924952D01*
X112863333Y-98067809D01*
X112815714Y-98258285D01*
X112768095Y-98353523D01*
X112672857Y-98448761D01*
X112530000Y-98496380D01*
X112291904Y-98496380D01*
X113720476Y-97496380D02*
X113530000Y-97496380D01*
X113434761Y-97544000D01*
X113387142Y-97591619D01*
X113291904Y-97734476D01*
X113244285Y-97924952D01*
X113244285Y-98305904D01*
X113291904Y-98401142D01*
X113339523Y-98448761D01*
X113434761Y-98496380D01*
X113625238Y-98496380D01*
X113720476Y-98448761D01*
X113768095Y-98401142D01*
X113815714Y-98305904D01*
X113815714Y-98067809D01*
X113768095Y-97972571D01*
X113720476Y-97924952D01*
X113625238Y-97877333D01*
X113434761Y-97877333D01*
X113339523Y-97924952D01*
X113291904Y-97972571D01*
X113244285Y-98067809D01*
%TO.C,D9*%
X111971904Y-50447380D02*
X111971904Y-49447380D01*
X112210000Y-49447380D01*
X112352857Y-49495000D01*
X112448095Y-49590238D01*
X112495714Y-49685476D01*
X112543333Y-49875952D01*
X112543333Y-50018809D01*
X112495714Y-50209285D01*
X112448095Y-50304523D01*
X112352857Y-50399761D01*
X112210000Y-50447380D01*
X111971904Y-50447380D01*
X113019523Y-50447380D02*
X113210000Y-50447380D01*
X113305238Y-50399761D01*
X113352857Y-50352142D01*
X113448095Y-50209285D01*
X113495714Y-50018809D01*
X113495714Y-49637857D01*
X113448095Y-49542619D01*
X113400476Y-49495000D01*
X113305238Y-49447380D01*
X113114761Y-49447380D01*
X113019523Y-49495000D01*
X112971904Y-49542619D01*
X112924285Y-49637857D01*
X112924285Y-49875952D01*
X112971904Y-49971190D01*
X113019523Y-50018809D01*
X113114761Y-50066428D01*
X113305238Y-50066428D01*
X113400476Y-50018809D01*
X113448095Y-49971190D01*
X113495714Y-49875952D01*
%TO.C,SC1*%
X127529761Y-62661904D02*
X127577380Y-62519047D01*
X127577380Y-62280952D01*
X127529761Y-62185714D01*
X127482142Y-62138095D01*
X127386904Y-62090476D01*
X127291666Y-62090476D01*
X127196428Y-62138095D01*
X127148809Y-62185714D01*
X127101190Y-62280952D01*
X127053571Y-62471428D01*
X127005952Y-62566666D01*
X126958333Y-62614285D01*
X126863095Y-62661904D01*
X126767857Y-62661904D01*
X126672619Y-62614285D01*
X126625000Y-62566666D01*
X126577380Y-62471428D01*
X126577380Y-62233333D01*
X126625000Y-62090476D01*
X127482142Y-61090476D02*
X127529761Y-61138095D01*
X127577380Y-61280952D01*
X127577380Y-61376190D01*
X127529761Y-61519047D01*
X127434523Y-61614285D01*
X127339285Y-61661904D01*
X127148809Y-61709523D01*
X127005952Y-61709523D01*
X126815476Y-61661904D01*
X126720238Y-61614285D01*
X126625000Y-61519047D01*
X126577380Y-61376190D01*
X126577380Y-61280952D01*
X126625000Y-61138095D01*
X126672619Y-61090476D01*
X127577380Y-60138095D02*
X127577380Y-60709523D01*
X127577380Y-60423809D02*
X126577380Y-60423809D01*
X126720238Y-60519047D01*
X126815476Y-60614285D01*
X126863095Y-60709523D01*
X124489761Y-65947619D02*
X124537380Y-65804761D01*
X124537380Y-65566666D01*
X124489761Y-65471428D01*
X124442142Y-65423809D01*
X124346904Y-65376190D01*
X124251666Y-65376190D01*
X124156428Y-65423809D01*
X124108809Y-65471428D01*
X124061190Y-65566666D01*
X124013571Y-65757142D01*
X123965952Y-65852380D01*
X123918333Y-65900000D01*
X123823095Y-65947619D01*
X123727857Y-65947619D01*
X123632619Y-65900000D01*
X123585000Y-65852380D01*
X123537380Y-65757142D01*
X123537380Y-65519047D01*
X123585000Y-65376190D01*
X124537380Y-64947619D02*
X123537380Y-64947619D01*
X124251666Y-64614285D01*
X123537380Y-64280952D01*
X124537380Y-64280952D01*
X124537380Y-63280952D02*
X124537380Y-63852380D01*
X124537380Y-63566666D02*
X123537380Y-63566666D01*
X123680238Y-63661904D01*
X123775476Y-63757142D01*
X123823095Y-63852380D01*
X123537380Y-62661904D02*
X123537380Y-62566666D01*
X123585000Y-62471428D01*
X123632619Y-62423809D01*
X123727857Y-62376190D01*
X123918333Y-62328571D01*
X124156428Y-62328571D01*
X124346904Y-62376190D01*
X124442142Y-62423809D01*
X124489761Y-62471428D01*
X124537380Y-62566666D01*
X124537380Y-62661904D01*
X124489761Y-62757142D01*
X124442142Y-62804761D01*
X124346904Y-62852380D01*
X124156428Y-62900000D01*
X123918333Y-62900000D01*
X123727857Y-62852380D01*
X123632619Y-62804761D01*
X123585000Y-62757142D01*
X123537380Y-62661904D01*
X124537380Y-61376190D02*
X124537380Y-61947619D01*
X124537380Y-61661904D02*
X123537380Y-61661904D01*
X123680238Y-61757142D01*
X123775476Y-61852380D01*
X123823095Y-61947619D01*
X124537380Y-60947619D02*
X123537380Y-60947619D01*
X124537380Y-60376190D02*
X123965952Y-60804761D01*
X123537380Y-60376190D02*
X124108809Y-60947619D01*
X123537380Y-59757142D02*
X123537380Y-59661904D01*
X123585000Y-59566666D01*
X123632619Y-59519047D01*
X123727857Y-59471428D01*
X123918333Y-59423809D01*
X124156428Y-59423809D01*
X124346904Y-59471428D01*
X124442142Y-59519047D01*
X124489761Y-59566666D01*
X124537380Y-59661904D01*
X124537380Y-59757142D01*
X124489761Y-59852380D01*
X124442142Y-59900000D01*
X124346904Y-59947619D01*
X124156428Y-59995238D01*
X123918333Y-59995238D01*
X123727857Y-59947619D01*
X123632619Y-59900000D01*
X123585000Y-59852380D01*
X123537380Y-59757142D01*
X123537380Y-59090476D02*
X123537380Y-58423809D01*
X124537380Y-58852380D01*
X123537380Y-58185714D02*
X123537380Y-57614285D01*
X124537380Y-57900000D02*
X123537380Y-57900000D01*
X124013571Y-56947619D02*
X124013571Y-57280952D01*
X124537380Y-57280952D02*
X123537380Y-57280952D01*
X123537380Y-56804761D01*
D11*
X130562142Y-52724285D02*
X132847857Y-52724285D01*
X121759285Y-53652857D02*
X121759285Y-51367142D01*
X122902142Y-52510000D02*
X120616428Y-52510000D01*
D10*
%TO.C,SC2*%
X176529761Y-62661904D02*
X176577380Y-62519047D01*
X176577380Y-62280952D01*
X176529761Y-62185714D01*
X176482142Y-62138095D01*
X176386904Y-62090476D01*
X176291666Y-62090476D01*
X176196428Y-62138095D01*
X176148809Y-62185714D01*
X176101190Y-62280952D01*
X176053571Y-62471428D01*
X176005952Y-62566666D01*
X175958333Y-62614285D01*
X175863095Y-62661904D01*
X175767857Y-62661904D01*
X175672619Y-62614285D01*
X175625000Y-62566666D01*
X175577380Y-62471428D01*
X175577380Y-62233333D01*
X175625000Y-62090476D01*
X176482142Y-61090476D02*
X176529761Y-61138095D01*
X176577380Y-61280952D01*
X176577380Y-61376190D01*
X176529761Y-61519047D01*
X176434523Y-61614285D01*
X176339285Y-61661904D01*
X176148809Y-61709523D01*
X176005952Y-61709523D01*
X175815476Y-61661904D01*
X175720238Y-61614285D01*
X175625000Y-61519047D01*
X175577380Y-61376190D01*
X175577380Y-61280952D01*
X175625000Y-61138095D01*
X175672619Y-61090476D01*
X175672619Y-60709523D02*
X175625000Y-60661904D01*
X175577380Y-60566666D01*
X175577380Y-60328571D01*
X175625000Y-60233333D01*
X175672619Y-60185714D01*
X175767857Y-60138095D01*
X175863095Y-60138095D01*
X176005952Y-60185714D01*
X176577380Y-60757142D01*
X176577380Y-60138095D01*
X173489761Y-65947619D02*
X173537380Y-65804761D01*
X173537380Y-65566666D01*
X173489761Y-65471428D01*
X173442142Y-65423809D01*
X173346904Y-65376190D01*
X173251666Y-65376190D01*
X173156428Y-65423809D01*
X173108809Y-65471428D01*
X173061190Y-65566666D01*
X173013571Y-65757142D01*
X172965952Y-65852380D01*
X172918333Y-65900000D01*
X172823095Y-65947619D01*
X172727857Y-65947619D01*
X172632619Y-65900000D01*
X172585000Y-65852380D01*
X172537380Y-65757142D01*
X172537380Y-65519047D01*
X172585000Y-65376190D01*
X173537380Y-64947619D02*
X172537380Y-64947619D01*
X173251666Y-64614285D01*
X172537380Y-64280952D01*
X173537380Y-64280952D01*
X173537380Y-63280952D02*
X173537380Y-63852380D01*
X173537380Y-63566666D02*
X172537380Y-63566666D01*
X172680238Y-63661904D01*
X172775476Y-63757142D01*
X172823095Y-63852380D01*
X172537380Y-62661904D02*
X172537380Y-62566666D01*
X172585000Y-62471428D01*
X172632619Y-62423809D01*
X172727857Y-62376190D01*
X172918333Y-62328571D01*
X173156428Y-62328571D01*
X173346904Y-62376190D01*
X173442142Y-62423809D01*
X173489761Y-62471428D01*
X173537380Y-62566666D01*
X173537380Y-62661904D01*
X173489761Y-62757142D01*
X173442142Y-62804761D01*
X173346904Y-62852380D01*
X173156428Y-62900000D01*
X172918333Y-62900000D01*
X172727857Y-62852380D01*
X172632619Y-62804761D01*
X172585000Y-62757142D01*
X172537380Y-62661904D01*
X173537380Y-61376190D02*
X173537380Y-61947619D01*
X173537380Y-61661904D02*
X172537380Y-61661904D01*
X172680238Y-61757142D01*
X172775476Y-61852380D01*
X172823095Y-61947619D01*
X173537380Y-60947619D02*
X172537380Y-60947619D01*
X173537380Y-60376190D02*
X172965952Y-60804761D01*
X172537380Y-60376190D02*
X173108809Y-60947619D01*
X172537380Y-59757142D02*
X172537380Y-59661904D01*
X172585000Y-59566666D01*
X172632619Y-59519047D01*
X172727857Y-59471428D01*
X172918333Y-59423809D01*
X173156428Y-59423809D01*
X173346904Y-59471428D01*
X173442142Y-59519047D01*
X173489761Y-59566666D01*
X173537380Y-59661904D01*
X173537380Y-59757142D01*
X173489761Y-59852380D01*
X173442142Y-59900000D01*
X173346904Y-59947619D01*
X173156428Y-59995238D01*
X172918333Y-59995238D01*
X172727857Y-59947619D01*
X172632619Y-59900000D01*
X172585000Y-59852380D01*
X172537380Y-59757142D01*
X172537380Y-59090476D02*
X172537380Y-58423809D01*
X173537380Y-58852380D01*
X172537380Y-58185714D02*
X172537380Y-57614285D01*
X173537380Y-57900000D02*
X172537380Y-57900000D01*
X173013571Y-56947619D02*
X173013571Y-57280952D01*
X173537380Y-57280952D02*
X172537380Y-57280952D01*
X172537380Y-56804761D01*
D11*
X170759285Y-53652857D02*
X170759285Y-51367142D01*
X171902142Y-52510000D02*
X169616428Y-52510000D01*
X179562142Y-52724285D02*
X181847857Y-52724285D01*
D10*
%TO.C,SC3*%
X167538095Y-97379761D02*
X167680952Y-97427380D01*
X167919047Y-97427380D01*
X168014285Y-97379761D01*
X168061904Y-97332142D01*
X168109523Y-97236904D01*
X168109523Y-97141666D01*
X168061904Y-97046428D01*
X168014285Y-96998809D01*
X167919047Y-96951190D01*
X167728571Y-96903571D01*
X167633333Y-96855952D01*
X167585714Y-96808333D01*
X167538095Y-96713095D01*
X167538095Y-96617857D01*
X167585714Y-96522619D01*
X167633333Y-96475000D01*
X167728571Y-96427380D01*
X167966666Y-96427380D01*
X168109523Y-96475000D01*
X169109523Y-97332142D02*
X169061904Y-97379761D01*
X168919047Y-97427380D01*
X168823809Y-97427380D01*
X168680952Y-97379761D01*
X168585714Y-97284523D01*
X168538095Y-97189285D01*
X168490476Y-96998809D01*
X168490476Y-96855952D01*
X168538095Y-96665476D01*
X168585714Y-96570238D01*
X168680952Y-96475000D01*
X168823809Y-96427380D01*
X168919047Y-96427380D01*
X169061904Y-96475000D01*
X169109523Y-96522619D01*
X169442857Y-96427380D02*
X170061904Y-96427380D01*
X169728571Y-96808333D01*
X169871428Y-96808333D01*
X169966666Y-96855952D01*
X170014285Y-96903571D01*
X170061904Y-96998809D01*
X170061904Y-97236904D01*
X170014285Y-97332142D01*
X169966666Y-97379761D01*
X169871428Y-97427380D01*
X169585714Y-97427380D01*
X169490476Y-97379761D01*
X169442857Y-97332142D01*
X164252380Y-100419761D02*
X164395238Y-100467380D01*
X164633333Y-100467380D01*
X164728571Y-100419761D01*
X164776190Y-100372142D01*
X164823809Y-100276904D01*
X164823809Y-100181666D01*
X164776190Y-100086428D01*
X164728571Y-100038809D01*
X164633333Y-99991190D01*
X164442857Y-99943571D01*
X164347619Y-99895952D01*
X164300000Y-99848333D01*
X164252380Y-99753095D01*
X164252380Y-99657857D01*
X164300000Y-99562619D01*
X164347619Y-99515000D01*
X164442857Y-99467380D01*
X164680952Y-99467380D01*
X164823809Y-99515000D01*
X165252380Y-100467380D02*
X165252380Y-99467380D01*
X165585714Y-100181666D01*
X165919047Y-99467380D01*
X165919047Y-100467380D01*
X166919047Y-100467380D02*
X166347619Y-100467380D01*
X166633333Y-100467380D02*
X166633333Y-99467380D01*
X166538095Y-99610238D01*
X166442857Y-99705476D01*
X166347619Y-99753095D01*
X167538095Y-99467380D02*
X167633333Y-99467380D01*
X167728571Y-99515000D01*
X167776190Y-99562619D01*
X167823809Y-99657857D01*
X167871428Y-99848333D01*
X167871428Y-100086428D01*
X167823809Y-100276904D01*
X167776190Y-100372142D01*
X167728571Y-100419761D01*
X167633333Y-100467380D01*
X167538095Y-100467380D01*
X167442857Y-100419761D01*
X167395238Y-100372142D01*
X167347619Y-100276904D01*
X167300000Y-100086428D01*
X167300000Y-99848333D01*
X167347619Y-99657857D01*
X167395238Y-99562619D01*
X167442857Y-99515000D01*
X167538095Y-99467380D01*
X168823809Y-100467380D02*
X168252380Y-100467380D01*
X168538095Y-100467380D02*
X168538095Y-99467380D01*
X168442857Y-99610238D01*
X168347619Y-99705476D01*
X168252380Y-99753095D01*
X169252380Y-100467380D02*
X169252380Y-99467380D01*
X169823809Y-100467380D02*
X169395238Y-99895952D01*
X169823809Y-99467380D02*
X169252380Y-100038809D01*
X170442857Y-99467380D02*
X170538095Y-99467380D01*
X170633333Y-99515000D01*
X170680952Y-99562619D01*
X170728571Y-99657857D01*
X170776190Y-99848333D01*
X170776190Y-100086428D01*
X170728571Y-100276904D01*
X170680952Y-100372142D01*
X170633333Y-100419761D01*
X170538095Y-100467380D01*
X170442857Y-100467380D01*
X170347619Y-100419761D01*
X170300000Y-100372142D01*
X170252380Y-100276904D01*
X170204761Y-100086428D01*
X170204761Y-99848333D01*
X170252380Y-99657857D01*
X170300000Y-99562619D01*
X170347619Y-99515000D01*
X170442857Y-99467380D01*
X171109523Y-99467380D02*
X171776190Y-99467380D01*
X171347619Y-100467380D01*
X172014285Y-99467380D02*
X172585714Y-99467380D01*
X172300000Y-100467380D02*
X172300000Y-99467380D01*
X173252380Y-99943571D02*
X172919047Y-99943571D01*
X172919047Y-100467380D02*
X172919047Y-99467380D01*
X173395238Y-99467380D01*
D11*
X158767142Y-102769285D02*
X161052857Y-102769285D01*
X159910000Y-103912142D02*
X159910000Y-101626428D01*
X160124285Y-93537857D02*
X160124285Y-91252142D01*
D10*
%TO.C,SC4*%
X167488095Y-119954761D02*
X167630952Y-120002380D01*
X167869047Y-120002380D01*
X167964285Y-119954761D01*
X168011904Y-119907142D01*
X168059523Y-119811904D01*
X168059523Y-119716666D01*
X168011904Y-119621428D01*
X167964285Y-119573809D01*
X167869047Y-119526190D01*
X167678571Y-119478571D01*
X167583333Y-119430952D01*
X167535714Y-119383333D01*
X167488095Y-119288095D01*
X167488095Y-119192857D01*
X167535714Y-119097619D01*
X167583333Y-119050000D01*
X167678571Y-119002380D01*
X167916666Y-119002380D01*
X168059523Y-119050000D01*
X169059523Y-119907142D02*
X169011904Y-119954761D01*
X168869047Y-120002380D01*
X168773809Y-120002380D01*
X168630952Y-119954761D01*
X168535714Y-119859523D01*
X168488095Y-119764285D01*
X168440476Y-119573809D01*
X168440476Y-119430952D01*
X168488095Y-119240476D01*
X168535714Y-119145238D01*
X168630952Y-119050000D01*
X168773809Y-119002380D01*
X168869047Y-119002380D01*
X169011904Y-119050000D01*
X169059523Y-119097619D01*
X169916666Y-119335714D02*
X169916666Y-120002380D01*
X169678571Y-118954761D02*
X169440476Y-119669047D01*
X170059523Y-119669047D01*
X164202380Y-122994761D02*
X164345238Y-123042380D01*
X164583333Y-123042380D01*
X164678571Y-122994761D01*
X164726190Y-122947142D01*
X164773809Y-122851904D01*
X164773809Y-122756666D01*
X164726190Y-122661428D01*
X164678571Y-122613809D01*
X164583333Y-122566190D01*
X164392857Y-122518571D01*
X164297619Y-122470952D01*
X164250000Y-122423333D01*
X164202380Y-122328095D01*
X164202380Y-122232857D01*
X164250000Y-122137619D01*
X164297619Y-122090000D01*
X164392857Y-122042380D01*
X164630952Y-122042380D01*
X164773809Y-122090000D01*
X165202380Y-123042380D02*
X165202380Y-122042380D01*
X165535714Y-122756666D01*
X165869047Y-122042380D01*
X165869047Y-123042380D01*
X166869047Y-123042380D02*
X166297619Y-123042380D01*
X166583333Y-123042380D02*
X166583333Y-122042380D01*
X166488095Y-122185238D01*
X166392857Y-122280476D01*
X166297619Y-122328095D01*
X167488095Y-122042380D02*
X167583333Y-122042380D01*
X167678571Y-122090000D01*
X167726190Y-122137619D01*
X167773809Y-122232857D01*
X167821428Y-122423333D01*
X167821428Y-122661428D01*
X167773809Y-122851904D01*
X167726190Y-122947142D01*
X167678571Y-122994761D01*
X167583333Y-123042380D01*
X167488095Y-123042380D01*
X167392857Y-122994761D01*
X167345238Y-122947142D01*
X167297619Y-122851904D01*
X167250000Y-122661428D01*
X167250000Y-122423333D01*
X167297619Y-122232857D01*
X167345238Y-122137619D01*
X167392857Y-122090000D01*
X167488095Y-122042380D01*
X168773809Y-123042380D02*
X168202380Y-123042380D01*
X168488095Y-123042380D02*
X168488095Y-122042380D01*
X168392857Y-122185238D01*
X168297619Y-122280476D01*
X168202380Y-122328095D01*
X169202380Y-123042380D02*
X169202380Y-122042380D01*
X169773809Y-123042380D02*
X169345238Y-122470952D01*
X169773809Y-122042380D02*
X169202380Y-122613809D01*
X170392857Y-122042380D02*
X170488095Y-122042380D01*
X170583333Y-122090000D01*
X170630952Y-122137619D01*
X170678571Y-122232857D01*
X170726190Y-122423333D01*
X170726190Y-122661428D01*
X170678571Y-122851904D01*
X170630952Y-122947142D01*
X170583333Y-122994761D01*
X170488095Y-123042380D01*
X170392857Y-123042380D01*
X170297619Y-122994761D01*
X170250000Y-122947142D01*
X170202380Y-122851904D01*
X170154761Y-122661428D01*
X170154761Y-122423333D01*
X170202380Y-122232857D01*
X170250000Y-122137619D01*
X170297619Y-122090000D01*
X170392857Y-122042380D01*
X171059523Y-122042380D02*
X171726190Y-122042380D01*
X171297619Y-123042380D01*
X171964285Y-122042380D02*
X172535714Y-122042380D01*
X172250000Y-123042380D02*
X172250000Y-122042380D01*
X173202380Y-122518571D02*
X172869047Y-122518571D01*
X172869047Y-123042380D02*
X172869047Y-122042380D01*
X173345238Y-122042380D01*
D11*
X158717142Y-125344285D02*
X161002857Y-125344285D01*
X159860000Y-126487142D02*
X159860000Y-124201428D01*
X160074285Y-116112857D02*
X160074285Y-113827142D01*
D10*
%TO.C,SC5*%
X131938095Y-120954761D02*
X132080952Y-121002380D01*
X132319047Y-121002380D01*
X132414285Y-120954761D01*
X132461904Y-120907142D01*
X132509523Y-120811904D01*
X132509523Y-120716666D01*
X132461904Y-120621428D01*
X132414285Y-120573809D01*
X132319047Y-120526190D01*
X132128571Y-120478571D01*
X132033333Y-120430952D01*
X131985714Y-120383333D01*
X131938095Y-120288095D01*
X131938095Y-120192857D01*
X131985714Y-120097619D01*
X132033333Y-120050000D01*
X132128571Y-120002380D01*
X132366666Y-120002380D01*
X132509523Y-120050000D01*
X133509523Y-120907142D02*
X133461904Y-120954761D01*
X133319047Y-121002380D01*
X133223809Y-121002380D01*
X133080952Y-120954761D01*
X132985714Y-120859523D01*
X132938095Y-120764285D01*
X132890476Y-120573809D01*
X132890476Y-120430952D01*
X132938095Y-120240476D01*
X132985714Y-120145238D01*
X133080952Y-120050000D01*
X133223809Y-120002380D01*
X133319047Y-120002380D01*
X133461904Y-120050000D01*
X133509523Y-120097619D01*
X134414285Y-120002380D02*
X133938095Y-120002380D01*
X133890476Y-120478571D01*
X133938095Y-120430952D01*
X134033333Y-120383333D01*
X134271428Y-120383333D01*
X134366666Y-120430952D01*
X134414285Y-120478571D01*
X134461904Y-120573809D01*
X134461904Y-120811904D01*
X134414285Y-120907142D01*
X134366666Y-120954761D01*
X134271428Y-121002380D01*
X134033333Y-121002380D01*
X133938095Y-120954761D01*
X133890476Y-120907142D01*
X128652380Y-117914761D02*
X128795238Y-117962380D01*
X129033333Y-117962380D01*
X129128571Y-117914761D01*
X129176190Y-117867142D01*
X129223809Y-117771904D01*
X129223809Y-117676666D01*
X129176190Y-117581428D01*
X129128571Y-117533809D01*
X129033333Y-117486190D01*
X128842857Y-117438571D01*
X128747619Y-117390952D01*
X128700000Y-117343333D01*
X128652380Y-117248095D01*
X128652380Y-117152857D01*
X128700000Y-117057619D01*
X128747619Y-117010000D01*
X128842857Y-116962380D01*
X129080952Y-116962380D01*
X129223809Y-117010000D01*
X129652380Y-117962380D02*
X129652380Y-116962380D01*
X129985714Y-117676666D01*
X130319047Y-116962380D01*
X130319047Y-117962380D01*
X131319047Y-117962380D02*
X130747619Y-117962380D01*
X131033333Y-117962380D02*
X131033333Y-116962380D01*
X130938095Y-117105238D01*
X130842857Y-117200476D01*
X130747619Y-117248095D01*
X131938095Y-116962380D02*
X132033333Y-116962380D01*
X132128571Y-117010000D01*
X132176190Y-117057619D01*
X132223809Y-117152857D01*
X132271428Y-117343333D01*
X132271428Y-117581428D01*
X132223809Y-117771904D01*
X132176190Y-117867142D01*
X132128571Y-117914761D01*
X132033333Y-117962380D01*
X131938095Y-117962380D01*
X131842857Y-117914761D01*
X131795238Y-117867142D01*
X131747619Y-117771904D01*
X131700000Y-117581428D01*
X131700000Y-117343333D01*
X131747619Y-117152857D01*
X131795238Y-117057619D01*
X131842857Y-117010000D01*
X131938095Y-116962380D01*
X133223809Y-117962380D02*
X132652380Y-117962380D01*
X132938095Y-117962380D02*
X132938095Y-116962380D01*
X132842857Y-117105238D01*
X132747619Y-117200476D01*
X132652380Y-117248095D01*
X133652380Y-117962380D02*
X133652380Y-116962380D01*
X134223809Y-117962380D02*
X133795238Y-117390952D01*
X134223809Y-116962380D02*
X133652380Y-117533809D01*
X134842857Y-116962380D02*
X134938095Y-116962380D01*
X135033333Y-117010000D01*
X135080952Y-117057619D01*
X135128571Y-117152857D01*
X135176190Y-117343333D01*
X135176190Y-117581428D01*
X135128571Y-117771904D01*
X135080952Y-117867142D01*
X135033333Y-117914761D01*
X134938095Y-117962380D01*
X134842857Y-117962380D01*
X134747619Y-117914761D01*
X134700000Y-117867142D01*
X134652380Y-117771904D01*
X134604761Y-117581428D01*
X134604761Y-117343333D01*
X134652380Y-117152857D01*
X134700000Y-117057619D01*
X134747619Y-117010000D01*
X134842857Y-116962380D01*
X135509523Y-116962380D02*
X136176190Y-116962380D01*
X135747619Y-117962380D01*
X136414285Y-116962380D02*
X136985714Y-116962380D01*
X136700000Y-117962380D02*
X136700000Y-116962380D01*
X137652380Y-117438571D02*
X137319047Y-117438571D01*
X137319047Y-117962380D02*
X137319047Y-116962380D01*
X137795238Y-116962380D01*
D11*
X142304285Y-126272857D02*
X142304285Y-123987142D01*
X140947142Y-115184285D02*
X143232857Y-115184285D01*
X142090000Y-116327142D02*
X142090000Y-114041428D01*
D10*
%TO.C,SC6*%
X132088095Y-98379761D02*
X132230952Y-98427380D01*
X132469047Y-98427380D01*
X132564285Y-98379761D01*
X132611904Y-98332142D01*
X132659523Y-98236904D01*
X132659523Y-98141666D01*
X132611904Y-98046428D01*
X132564285Y-97998809D01*
X132469047Y-97951190D01*
X132278571Y-97903571D01*
X132183333Y-97855952D01*
X132135714Y-97808333D01*
X132088095Y-97713095D01*
X132088095Y-97617857D01*
X132135714Y-97522619D01*
X132183333Y-97475000D01*
X132278571Y-97427380D01*
X132516666Y-97427380D01*
X132659523Y-97475000D01*
X133659523Y-98332142D02*
X133611904Y-98379761D01*
X133469047Y-98427380D01*
X133373809Y-98427380D01*
X133230952Y-98379761D01*
X133135714Y-98284523D01*
X133088095Y-98189285D01*
X133040476Y-97998809D01*
X133040476Y-97855952D01*
X133088095Y-97665476D01*
X133135714Y-97570238D01*
X133230952Y-97475000D01*
X133373809Y-97427380D01*
X133469047Y-97427380D01*
X133611904Y-97475000D01*
X133659523Y-97522619D01*
X134516666Y-97427380D02*
X134326190Y-97427380D01*
X134230952Y-97475000D01*
X134183333Y-97522619D01*
X134088095Y-97665476D01*
X134040476Y-97855952D01*
X134040476Y-98236904D01*
X134088095Y-98332142D01*
X134135714Y-98379761D01*
X134230952Y-98427380D01*
X134421428Y-98427380D01*
X134516666Y-98379761D01*
X134564285Y-98332142D01*
X134611904Y-98236904D01*
X134611904Y-97998809D01*
X134564285Y-97903571D01*
X134516666Y-97855952D01*
X134421428Y-97808333D01*
X134230952Y-97808333D01*
X134135714Y-97855952D01*
X134088095Y-97903571D01*
X134040476Y-97998809D01*
X128802380Y-95339761D02*
X128945238Y-95387380D01*
X129183333Y-95387380D01*
X129278571Y-95339761D01*
X129326190Y-95292142D01*
X129373809Y-95196904D01*
X129373809Y-95101666D01*
X129326190Y-95006428D01*
X129278571Y-94958809D01*
X129183333Y-94911190D01*
X128992857Y-94863571D01*
X128897619Y-94815952D01*
X128850000Y-94768333D01*
X128802380Y-94673095D01*
X128802380Y-94577857D01*
X128850000Y-94482619D01*
X128897619Y-94435000D01*
X128992857Y-94387380D01*
X129230952Y-94387380D01*
X129373809Y-94435000D01*
X129802380Y-95387380D02*
X129802380Y-94387380D01*
X130135714Y-95101666D01*
X130469047Y-94387380D01*
X130469047Y-95387380D01*
X131469047Y-95387380D02*
X130897619Y-95387380D01*
X131183333Y-95387380D02*
X131183333Y-94387380D01*
X131088095Y-94530238D01*
X130992857Y-94625476D01*
X130897619Y-94673095D01*
X132088095Y-94387380D02*
X132183333Y-94387380D01*
X132278571Y-94435000D01*
X132326190Y-94482619D01*
X132373809Y-94577857D01*
X132421428Y-94768333D01*
X132421428Y-95006428D01*
X132373809Y-95196904D01*
X132326190Y-95292142D01*
X132278571Y-95339761D01*
X132183333Y-95387380D01*
X132088095Y-95387380D01*
X131992857Y-95339761D01*
X131945238Y-95292142D01*
X131897619Y-95196904D01*
X131850000Y-95006428D01*
X131850000Y-94768333D01*
X131897619Y-94577857D01*
X131945238Y-94482619D01*
X131992857Y-94435000D01*
X132088095Y-94387380D01*
X133373809Y-95387380D02*
X132802380Y-95387380D01*
X133088095Y-95387380D02*
X133088095Y-94387380D01*
X132992857Y-94530238D01*
X132897619Y-94625476D01*
X132802380Y-94673095D01*
X133802380Y-95387380D02*
X133802380Y-94387380D01*
X134373809Y-95387380D02*
X133945238Y-94815952D01*
X134373809Y-94387380D02*
X133802380Y-94958809D01*
X134992857Y-94387380D02*
X135088095Y-94387380D01*
X135183333Y-94435000D01*
X135230952Y-94482619D01*
X135278571Y-94577857D01*
X135326190Y-94768333D01*
X135326190Y-95006428D01*
X135278571Y-95196904D01*
X135230952Y-95292142D01*
X135183333Y-95339761D01*
X135088095Y-95387380D01*
X134992857Y-95387380D01*
X134897619Y-95339761D01*
X134850000Y-95292142D01*
X134802380Y-95196904D01*
X134754761Y-95006428D01*
X134754761Y-94768333D01*
X134802380Y-94577857D01*
X134850000Y-94482619D01*
X134897619Y-94435000D01*
X134992857Y-94387380D01*
X135659523Y-94387380D02*
X136326190Y-94387380D01*
X135897619Y-95387380D01*
X136564285Y-94387380D02*
X137135714Y-94387380D01*
X136850000Y-95387380D02*
X136850000Y-94387380D01*
X137802380Y-94863571D02*
X137469047Y-94863571D01*
X137469047Y-95387380D02*
X137469047Y-94387380D01*
X137945238Y-94387380D01*
D11*
X142454285Y-103697857D02*
X142454285Y-101412142D01*
X141097142Y-92609285D02*
X143382857Y-92609285D01*
X142240000Y-93752142D02*
X142240000Y-91466428D01*
D10*
%TO.C,U2*%
X155770095Y-77938380D02*
X155770095Y-78747904D01*
X155817714Y-78843142D01*
X155865333Y-78890761D01*
X155960571Y-78938380D01*
X156151047Y-78938380D01*
X156246285Y-78890761D01*
X156293904Y-78843142D01*
X156341523Y-78747904D01*
X156341523Y-77938380D01*
X156770095Y-78033619D02*
X156817714Y-77986000D01*
X156912952Y-77938380D01*
X157151047Y-77938380D01*
X157246285Y-77986000D01*
X157293904Y-78033619D01*
X157341523Y-78128857D01*
X157341523Y-78224095D01*
X157293904Y-78366952D01*
X156722476Y-78938380D01*
X157341523Y-78938380D01*
X159000000Y-77807380D02*
X159000000Y-78045476D01*
X158761904Y-77950238D02*
X159000000Y-78045476D01*
X159238095Y-77950238D01*
X158857142Y-78235952D02*
X159000000Y-78045476D01*
X159142857Y-78235952D01*
%TO.C,R17*%
X162425142Y-76802380D02*
X162091809Y-76326190D01*
X161853714Y-76802380D02*
X161853714Y-75802380D01*
X162234666Y-75802380D01*
X162329904Y-75850000D01*
X162377523Y-75897619D01*
X162425142Y-75992857D01*
X162425142Y-76135714D01*
X162377523Y-76230952D01*
X162329904Y-76278571D01*
X162234666Y-76326190D01*
X161853714Y-76326190D01*
X163377523Y-76802380D02*
X162806095Y-76802380D01*
X163091809Y-76802380D02*
X163091809Y-75802380D01*
X162996571Y-75945238D01*
X162901333Y-76040476D01*
X162806095Y-76088095D01*
X163710857Y-75802380D02*
X164377523Y-75802380D01*
X163948952Y-76802380D01*
%TO.C,R15*%
X155747142Y-72212380D02*
X155413809Y-71736190D01*
X155175714Y-72212380D02*
X155175714Y-71212380D01*
X155556666Y-71212380D01*
X155651904Y-71260000D01*
X155699523Y-71307619D01*
X155747142Y-71402857D01*
X155747142Y-71545714D01*
X155699523Y-71640952D01*
X155651904Y-71688571D01*
X155556666Y-71736190D01*
X155175714Y-71736190D01*
X156699523Y-72212380D02*
X156128095Y-72212380D01*
X156413809Y-72212380D02*
X156413809Y-71212380D01*
X156318571Y-71355238D01*
X156223333Y-71450476D01*
X156128095Y-71498095D01*
X157604285Y-71212380D02*
X157128095Y-71212380D01*
X157080476Y-71688571D01*
X157128095Y-71640952D01*
X157223333Y-71593333D01*
X157461428Y-71593333D01*
X157556666Y-71640952D01*
X157604285Y-71688571D01*
X157651904Y-71783809D01*
X157651904Y-72021904D01*
X157604285Y-72117142D01*
X157556666Y-72164761D01*
X157461428Y-72212380D01*
X157223333Y-72212380D01*
X157128095Y-72164761D01*
X157080476Y-72117142D01*
%TO.C,L1*%
X163409333Y-78302380D02*
X162933142Y-78302380D01*
X162933142Y-77302380D01*
X164266476Y-78302380D02*
X163695047Y-78302380D01*
X163980761Y-78302380D02*
X163980761Y-77302380D01*
X163885523Y-77445238D01*
X163790285Y-77540476D01*
X163695047Y-77588095D01*
%TO.C,R16*%
X155787142Y-73482380D02*
X155453809Y-73006190D01*
X155215714Y-73482380D02*
X155215714Y-72482380D01*
X155596666Y-72482380D01*
X155691904Y-72530000D01*
X155739523Y-72577619D01*
X155787142Y-72672857D01*
X155787142Y-72815714D01*
X155739523Y-72910952D01*
X155691904Y-72958571D01*
X155596666Y-73006190D01*
X155215714Y-73006190D01*
X156739523Y-73482380D02*
X156168095Y-73482380D01*
X156453809Y-73482380D02*
X156453809Y-72482380D01*
X156358571Y-72625238D01*
X156263333Y-72720476D01*
X156168095Y-72768095D01*
X157596666Y-72482380D02*
X157406190Y-72482380D01*
X157310952Y-72530000D01*
X157263333Y-72577619D01*
X157168095Y-72720476D01*
X157120476Y-72910952D01*
X157120476Y-73291904D01*
X157168095Y-73387142D01*
X157215714Y-73434761D01*
X157310952Y-73482380D01*
X157501428Y-73482380D01*
X157596666Y-73434761D01*
X157644285Y-73387142D01*
X157691904Y-73291904D01*
X157691904Y-73053809D01*
X157644285Y-72958571D01*
X157596666Y-72910952D01*
X157501428Y-72863333D01*
X157310952Y-72863333D01*
X157215714Y-72910952D01*
X157168095Y-72958571D01*
X157120476Y-73053809D01*
%TO.C,L2*%
X163533333Y-75277380D02*
X163057142Y-75277380D01*
X163057142Y-74277380D01*
X163819047Y-74372619D02*
X163866666Y-74325000D01*
X163961904Y-74277380D01*
X164200000Y-74277380D01*
X164295238Y-74325000D01*
X164342857Y-74372619D01*
X164390476Y-74467857D01*
X164390476Y-74563095D01*
X164342857Y-74705952D01*
X163771428Y-75277380D01*
X164390476Y-75277380D01*
%TO.C,C4*%
X163155333Y-73497142D02*
X163107714Y-73544761D01*
X162964857Y-73592380D01*
X162869619Y-73592380D01*
X162726761Y-73544761D01*
X162631523Y-73449523D01*
X162583904Y-73354285D01*
X162536285Y-73163809D01*
X162536285Y-73020952D01*
X162583904Y-72830476D01*
X162631523Y-72735238D01*
X162726761Y-72640000D01*
X162869619Y-72592380D01*
X162964857Y-72592380D01*
X163107714Y-72640000D01*
X163155333Y-72687619D01*
X164012476Y-72925714D02*
X164012476Y-73592380D01*
X163774380Y-72544761D02*
X163536285Y-73259047D01*
X164155333Y-73259047D01*
%TO.C,R13*%
X148692142Y-71952380D02*
X148358809Y-71476190D01*
X148120714Y-71952380D02*
X148120714Y-70952380D01*
X148501666Y-70952380D01*
X148596904Y-71000000D01*
X148644523Y-71047619D01*
X148692142Y-71142857D01*
X148692142Y-71285714D01*
X148644523Y-71380952D01*
X148596904Y-71428571D01*
X148501666Y-71476190D01*
X148120714Y-71476190D01*
X149644523Y-71952380D02*
X149073095Y-71952380D01*
X149358809Y-71952380D02*
X149358809Y-70952380D01*
X149263571Y-71095238D01*
X149168333Y-71190476D01*
X149073095Y-71238095D01*
X149977857Y-70952380D02*
X150596904Y-70952380D01*
X150263571Y-71333333D01*
X150406428Y-71333333D01*
X150501666Y-71380952D01*
X150549285Y-71428571D01*
X150596904Y-71523809D01*
X150596904Y-71761904D01*
X150549285Y-71857142D01*
X150501666Y-71904761D01*
X150406428Y-71952380D01*
X150120714Y-71952380D01*
X150025476Y-71904761D01*
X149977857Y-71857142D01*
%TO.C,C5*%
X163383333Y-71682142D02*
X163335714Y-71729761D01*
X163192857Y-71777380D01*
X163097619Y-71777380D01*
X162954761Y-71729761D01*
X162859523Y-71634523D01*
X162811904Y-71539285D01*
X162764285Y-71348809D01*
X162764285Y-71205952D01*
X162811904Y-71015476D01*
X162859523Y-70920238D01*
X162954761Y-70825000D01*
X163097619Y-70777380D01*
X163192857Y-70777380D01*
X163335714Y-70825000D01*
X163383333Y-70872619D01*
X164288095Y-70777380D02*
X163811904Y-70777380D01*
X163764285Y-71253571D01*
X163811904Y-71205952D01*
X163907142Y-71158333D01*
X164145238Y-71158333D01*
X164240476Y-71205952D01*
X164288095Y-71253571D01*
X164335714Y-71348809D01*
X164335714Y-71586904D01*
X164288095Y-71682142D01*
X164240476Y-71729761D01*
X164145238Y-71777380D01*
X163907142Y-71777380D01*
X163811904Y-71729761D01*
X163764285Y-71682142D01*
%TO.C,C1*%
X146987333Y-74587642D02*
X146939714Y-74635261D01*
X146796857Y-74682880D01*
X146701619Y-74682880D01*
X146558761Y-74635261D01*
X146463523Y-74540023D01*
X146415904Y-74444785D01*
X146368285Y-74254309D01*
X146368285Y-74111452D01*
X146415904Y-73920976D01*
X146463523Y-73825738D01*
X146558761Y-73730500D01*
X146701619Y-73682880D01*
X146796857Y-73682880D01*
X146939714Y-73730500D01*
X146987333Y-73778119D01*
X147939714Y-74682880D02*
X147368285Y-74682880D01*
X147654000Y-74682880D02*
X147654000Y-73682880D01*
X147558761Y-73825738D01*
X147463523Y-73920976D01*
X147368285Y-73968595D01*
%TO.C,U1*%
X149592476Y-73816404D02*
X149592476Y-74464023D01*
X149630571Y-74540214D01*
X149668666Y-74578309D01*
X149744857Y-74616404D01*
X149897238Y-74616404D01*
X149973428Y-74578309D01*
X150011523Y-74540214D01*
X150049619Y-74464023D01*
X150049619Y-73816404D01*
X150849619Y-74616404D02*
X150392476Y-74616404D01*
X150621047Y-74616404D02*
X150621047Y-73816404D01*
X150544857Y-73930690D01*
X150468666Y-74006880D01*
X150392476Y-74044976D01*
%TO.C,R14*%
X148692142Y-73372380D02*
X148358809Y-72896190D01*
X148120714Y-73372380D02*
X148120714Y-72372380D01*
X148501666Y-72372380D01*
X148596904Y-72420000D01*
X148644523Y-72467619D01*
X148692142Y-72562857D01*
X148692142Y-72705714D01*
X148644523Y-72800952D01*
X148596904Y-72848571D01*
X148501666Y-72896190D01*
X148120714Y-72896190D01*
X149644523Y-73372380D02*
X149073095Y-73372380D01*
X149358809Y-73372380D02*
X149358809Y-72372380D01*
X149263571Y-72515238D01*
X149168333Y-72610476D01*
X149073095Y-72658095D01*
X150501666Y-72705714D02*
X150501666Y-73372380D01*
X150263571Y-72324761D02*
X150025476Y-73039047D01*
X150644523Y-73039047D01*
D12*
%TO.C,D1*%
X140775000Y-48575000D02*
X145525000Y-48575000D01*
X145525000Y-48575000D02*
X145525000Y-45675000D01*
X140775000Y-45675000D02*
X145525000Y-45675000D01*
X140775000Y-48575000D02*
X140775000Y-45675000D01*
X142718200Y-46312200D02*
X142718200Y-47861600D01*
G36*
X143658000Y-47836200D02*
G01*
X142845200Y-47099600D01*
X143658000Y-46490000D01*
X143658000Y-47836200D01*
G37*
D13*
X143658000Y-47836200D02*
X142845200Y-47099600D01*
X143658000Y-46490000D01*
X143658000Y-47836200D01*
D12*
%TO.C,D2*%
X161000000Y-48400000D02*
X161000000Y-45500000D01*
X158193200Y-46137200D02*
X158193200Y-47686600D01*
X156250000Y-48400000D02*
X156250000Y-45500000D01*
X156250000Y-48400000D02*
X161000000Y-48400000D01*
X156250000Y-45500000D02*
X161000000Y-45500000D01*
G36*
X159133000Y-47661200D02*
G01*
X158320200Y-46924600D01*
X159133000Y-46315000D01*
X159133000Y-47661200D01*
G37*
D13*
X159133000Y-47661200D02*
X158320200Y-46924600D01*
X159133000Y-46315000D01*
X159133000Y-47661200D01*
D12*
%TO.C,D3*%
X187950000Y-104500000D02*
X187950000Y-99750000D01*
X190850000Y-99750000D02*
X187950000Y-99750000D01*
X190850000Y-104500000D02*
X190850000Y-99750000D01*
X188587200Y-102556800D02*
X190136600Y-102556800D01*
X190850000Y-104500000D02*
X187950000Y-104500000D01*
G36*
X189374600Y-102429800D02*
G01*
X188765000Y-101617000D01*
X190111200Y-101617000D01*
X189374600Y-102429800D01*
G37*
D13*
X189374600Y-102429800D02*
X188765000Y-101617000D01*
X190111200Y-101617000D01*
X189374600Y-102429800D01*
D12*
%TO.C,D4*%
X187825000Y-122150000D02*
X187825000Y-117400000D01*
X190725000Y-117400000D02*
X187825000Y-117400000D01*
X188462200Y-120206800D02*
X190011600Y-120206800D01*
X190725000Y-122150000D02*
X187825000Y-122150000D01*
X190725000Y-122150000D02*
X190725000Y-117400000D01*
G36*
X189249600Y-120079800D02*
G01*
X188640000Y-119267000D01*
X189986200Y-119267000D01*
X189249600Y-120079800D01*
G37*
D13*
X189249600Y-120079800D02*
X188640000Y-119267000D01*
X189986200Y-119267000D01*
X189249600Y-120079800D01*
D12*
%TO.C,D5*%
X112262200Y-119056800D02*
X113811600Y-119056800D01*
X114525000Y-116250000D02*
X111625000Y-116250000D01*
X114525000Y-121000000D02*
X111625000Y-121000000D01*
X111625000Y-121000000D02*
X111625000Y-116250000D01*
X114525000Y-121000000D02*
X114525000Y-116250000D01*
G36*
X113049600Y-118929800D02*
G01*
X112440000Y-118117000D01*
X113786200Y-118117000D01*
X113049600Y-118929800D01*
G37*
D13*
X113049600Y-118929800D02*
X112440000Y-118117000D01*
X113786200Y-118117000D01*
X113049600Y-118929800D01*
D12*
%TO.C,D6*%
X114480000Y-105245000D02*
X111580000Y-105245000D01*
X111580000Y-105245000D02*
X111580000Y-100495000D01*
X114480000Y-105245000D02*
X114480000Y-100495000D01*
X112217200Y-103301800D02*
X113766600Y-103301800D01*
X114480000Y-100495000D02*
X111580000Y-100495000D01*
G36*
X113004600Y-103174800D02*
G01*
X112395000Y-102362000D01*
X113741200Y-102362000D01*
X113004600Y-103174800D01*
G37*
D13*
X113004600Y-103174800D02*
X112395000Y-102362000D01*
X113741200Y-102362000D01*
X113004600Y-103174800D01*
D12*
%TO.C,D9*%
X111897200Y-54871800D02*
X113446600Y-54871800D01*
X111260000Y-56815000D02*
X111260000Y-52065000D01*
X114160000Y-56815000D02*
X111260000Y-56815000D01*
X114160000Y-56815000D02*
X114160000Y-52065000D01*
X114160000Y-52065000D02*
X111260000Y-52065000D01*
G36*
X112684600Y-54744800D02*
G01*
X112075000Y-53932000D01*
X113421200Y-53932000D01*
X112684600Y-54744800D01*
G37*
D13*
X112684600Y-54744800D02*
X112075000Y-53932000D01*
X113421200Y-53932000D01*
X112684600Y-54744800D01*
D11*
%TO.C,SC1*%
X115625000Y-43900000D02*
X137625000Y-43900000D01*
X137625000Y-78900000D02*
X115625000Y-78900000D01*
X115625000Y-78900000D02*
X115625000Y-43900000D01*
X137625000Y-43900000D02*
X137625000Y-78900000D01*
%TO.C,SC2*%
X186625000Y-43900000D02*
X186625000Y-78900000D01*
X164625000Y-78900000D02*
X164625000Y-43900000D01*
X186625000Y-78900000D02*
X164625000Y-78900000D01*
X164625000Y-43900000D02*
X186625000Y-43900000D01*
%TO.C,SC3*%
X186300000Y-108475000D02*
X151300000Y-108475000D01*
X151300000Y-86475000D02*
X186300000Y-86475000D01*
X186300000Y-86475000D02*
X186300000Y-108475000D01*
X151300000Y-108475000D02*
X151300000Y-86475000D01*
%TO.C,SC4*%
X151250000Y-109050000D02*
X186250000Y-109050000D01*
X186250000Y-131050000D02*
X151250000Y-131050000D01*
X151250000Y-131050000D02*
X151250000Y-109050000D01*
X186250000Y-109050000D02*
X186250000Y-131050000D01*
%TO.C,SC5*%
X150700000Y-131050000D02*
X115700000Y-131050000D01*
X150700000Y-109050000D02*
X150700000Y-131050000D01*
X115700000Y-109050000D02*
X150700000Y-109050000D01*
X115700000Y-131050000D02*
X115700000Y-109050000D01*
%TO.C,SC6*%
X115850000Y-108475000D02*
X115850000Y-86475000D01*
X150850000Y-86475000D02*
X150850000Y-108475000D01*
X150850000Y-108475000D02*
X115850000Y-108475000D01*
X115850000Y-86475000D02*
X150850000Y-86475000D01*
D12*
%TO.C,U2*%
X158081999Y-74392001D02*
X154982001Y-74392001D01*
X154982001Y-77491999D02*
X158081999Y-77491999D01*
G36*
X153397401Y-77132501D02*
G01*
X153143401Y-77132501D01*
X153143401Y-76751501D01*
X153397401Y-76751501D01*
X153397401Y-77132501D01*
G37*
D13*
X153397401Y-77132501D02*
X153143401Y-77132501D01*
X153143401Y-76751501D01*
X153397401Y-76751501D01*
X153397401Y-77132501D01*
D12*
%TO.C,R17*%
X161028641Y-75970000D02*
X160721359Y-75970000D01*
X161028641Y-76730000D02*
X160721359Y-76730000D01*
%TO.C,R15*%
X153836359Y-71380000D02*
X154143641Y-71380000D01*
X153836359Y-72140000D02*
X154143641Y-72140000D01*
%TO.C,L1*%
X161612779Y-78435000D02*
X161287221Y-78435000D01*
X161612779Y-77415000D02*
X161287221Y-77415000D01*
%TO.C,R16*%
X154143641Y-73280000D02*
X153836359Y-73280000D01*
X154143641Y-72520000D02*
X153836359Y-72520000D01*
%TO.C,L2*%
X161594779Y-74357000D02*
X161269221Y-74357000D01*
X161594779Y-75377000D02*
X161269221Y-75377000D01*
%TO.C,C4*%
X160257836Y-73435000D02*
X160042164Y-73435000D01*
X160257836Y-72715000D02*
X160042164Y-72715000D01*
%TO.C,R13*%
X151963641Y-72140000D02*
X151656359Y-72140000D01*
X151963641Y-71380000D02*
X151656359Y-71380000D01*
%TO.C,C5*%
X161186252Y-72135000D02*
X160663748Y-72135000D01*
X161186252Y-70665000D02*
X160663748Y-70665000D01*
%TO.C,C1*%
X147410000Y-76099721D02*
X147410000Y-76425279D01*
X146390000Y-76099721D02*
X146390000Y-76425279D01*
D14*
%TO.C,U1*%
X149456000Y-77361500D02*
X151456000Y-77361500D01*
X149456000Y-75163500D02*
X151456000Y-75163500D01*
D15*
X148621000Y-75612500D02*
G75*
G03*
X148621000Y-75612500I-100000J0D01*
G01*
D12*
%TO.C,R14*%
X151656359Y-73300000D02*
X151963641Y-73300000D01*
X151656359Y-72540000D02*
X151963641Y-72540000D01*
%TD*%
%LPC*%
%TO.C,U2*%
G36*
X157455500Y-77095500D02*
G01*
X155608500Y-77095500D01*
X155608500Y-76535700D01*
X157455500Y-76535700D01*
X157455500Y-77095500D01*
G37*
D13*
X157455500Y-77095500D02*
X155608500Y-77095500D01*
X155608500Y-76535700D01*
X157455500Y-76535700D01*
X157455500Y-77095500D01*
G36*
X157455500Y-75348300D02*
G01*
X155608500Y-75348300D01*
X155608500Y-74788500D01*
X157455500Y-74788500D01*
X157455500Y-75348300D01*
G37*
X157455500Y-75348300D02*
X155608500Y-75348300D01*
X155608500Y-74788500D01*
X157455500Y-74788500D01*
X157455500Y-75348300D01*
G36*
X156725700Y-77095500D02*
G01*
X156338300Y-77095500D01*
X156338300Y-74788500D01*
X156725700Y-74788500D01*
X156725700Y-77095500D01*
G37*
X156725700Y-77095500D02*
X156338300Y-77095500D01*
X156338300Y-74788500D01*
X156725700Y-74788500D01*
X156725700Y-77095500D01*
G36*
X157455500Y-76135700D02*
G01*
X155608500Y-76135700D01*
X155608500Y-75748300D01*
X157455500Y-75748300D01*
X157455500Y-76135700D01*
G37*
X157455500Y-76135700D02*
X155608500Y-76135700D01*
X155608500Y-75748300D01*
X157455500Y-75748300D01*
X157455500Y-76135700D01*
G36*
X155938300Y-77095500D02*
G01*
X155608500Y-77095500D01*
X155608500Y-74788500D01*
X155938300Y-74788500D01*
X155938300Y-77095500D01*
G37*
X155938300Y-77095500D02*
X155608500Y-77095500D01*
X155608500Y-74788500D01*
X155938300Y-74788500D01*
X155938300Y-77095500D01*
G36*
X157455500Y-77095500D02*
G01*
X157125700Y-77095500D01*
X157125700Y-74788500D01*
X157455500Y-74788500D01*
X157455500Y-77095500D01*
G37*
X157455500Y-77095500D02*
X157125700Y-77095500D01*
X157125700Y-74788500D01*
X157455500Y-74788500D01*
X157455500Y-77095500D01*
%TD*%
D16*
%TO.C,D1*%
X141150000Y-47125000D03*
X145150000Y-47125000D03*
%TD*%
%TO.C,D2*%
X156625000Y-46950000D03*
X160625000Y-46950000D03*
%TD*%
D17*
%TO.C,D3*%
X189400000Y-104125000D03*
X189400000Y-100125000D03*
%TD*%
%TO.C,D4*%
X189275000Y-121775000D03*
X189275000Y-117775000D03*
%TD*%
%TO.C,D5*%
X113075000Y-120625000D03*
X113075000Y-116625000D03*
%TD*%
%TO.C,D6*%
X113030000Y-104870000D03*
X113030000Y-100870000D03*
%TD*%
%TO.C,D9*%
X112710000Y-56440000D03*
X112710000Y-52440000D03*
%TD*%
D18*
%TO.C,SC1*%
X122125000Y-48400000D03*
X131125000Y-48400000D03*
%TD*%
%TO.C,SC2*%
X171125000Y-48400000D03*
X180125000Y-48400000D03*
%TD*%
%TO.C,SC3*%
X155800000Y-101975000D03*
X155800000Y-92975000D03*
%TD*%
%TO.C,SC4*%
X155750000Y-124550000D03*
X155750000Y-115550000D03*
%TD*%
%TO.C,SC5*%
X146200000Y-115550000D03*
X146200000Y-124550000D03*
%TD*%
%TO.C,SC6*%
X146350000Y-92975000D03*
X146350000Y-101975000D03*
%TD*%
D19*
%TO.C,H1*%
X189660000Y-46150000D03*
D20*
X189660000Y-46150000D03*
%TD*%
%TO.C,H2*%
X151160000Y-46150000D03*
D19*
X151160000Y-46150000D03*
%TD*%
D20*
%TO.C,H3*%
X112660000Y-46150000D03*
D19*
X112660000Y-46150000D03*
%TD*%
%TO.C,H4*%
X112660000Y-93150000D03*
D20*
X112660000Y-93150000D03*
%TD*%
%TO.C,H5*%
X112660000Y-140150000D03*
D19*
X112660000Y-140150000D03*
%TD*%
%TO.C,H6*%
X151160000Y-140150000D03*
D20*
X151160000Y-140150000D03*
%TD*%
%TO.C,H7*%
X189660000Y-140150000D03*
D19*
X189660000Y-140150000D03*
%TD*%
D20*
%TO.C,H8*%
X189660000Y-93150000D03*
D19*
X189660000Y-93150000D03*
%TD*%
D21*
%TO.C,U2*%
X158706999Y-76942001D03*
X158706999Y-76441999D03*
X158706999Y-75942000D03*
X158706999Y-75442001D03*
X158706999Y-74941999D03*
X154357001Y-74941999D03*
X154357001Y-75442001D03*
X154357001Y-75942000D03*
X154357001Y-76441999D03*
X154357001Y-76942001D03*
%TD*%
D22*
%TO.C,R17*%
X161385000Y-76350000D03*
X160365000Y-76350000D03*
%TD*%
D23*
%TO.C,R15*%
X153480000Y-71760000D03*
X154500000Y-71760000D03*
%TD*%
D24*
%TO.C,L1*%
X162237500Y-77925000D03*
X160662500Y-77925000D03*
%TD*%
D22*
%TO.C,R16*%
X154500000Y-72900000D03*
X153480000Y-72900000D03*
%TD*%
D24*
%TO.C,L2*%
X162219500Y-74867000D03*
X160644500Y-74867000D03*
%TD*%
D25*
%TO.C,C4*%
X160630000Y-73075000D03*
X159670000Y-73075000D03*
%TD*%
D22*
%TO.C,R13*%
X152320000Y-71760000D03*
X151300000Y-71760000D03*
%TD*%
D26*
%TO.C,C5*%
X161875000Y-71400000D03*
X159975000Y-71400000D03*
%TD*%
D27*
%TO.C,C1*%
X146900000Y-75475000D03*
X146900000Y-77050000D03*
%TD*%
D28*
%TO.C,U1*%
X149461000Y-75612500D03*
X149461000Y-76262500D03*
X149461000Y-76912500D03*
X151451000Y-76912500D03*
X151451000Y-76262500D03*
X151451000Y-75612500D03*
D29*
X150456000Y-76262500D03*
%TD*%
D23*
%TO.C,R14*%
X151300000Y-72920000D03*
X152320000Y-72920000D03*
%TD*%
M02*
