%FSLAX45Y45*%
G04 Gerber Fmt 4.5, Leading zero omitted, Abs format (unit mm)*
G04 Created by KiCad (PCBNEW (6.0.4-0)) date 2022-05-09 11:39:19*
%MOMM*%
%LPD*%
G01*
G04 APERTURE LIST*
%TA.AperFunction,Profile*%
%ADD10C,0.050000*%
%TD*%
%ADD11C,0.200000*%
%ADD12C,0.040000*%
%ADD13C,0.220000*%
G04 APERTURE END LIST*
D10*
X19216000Y-4365000D02*
X11016000Y-4365000D01*
X13835000Y-6947000D02*
X13835000Y-6423000D01*
X11016000Y-14265000D02*
X19216000Y-14265000D01*
X13962000Y-6296000D02*
X15564000Y-6296000D01*
X19216000Y-4365000D02*
X19216000Y-14265000D01*
X13835000Y-6947000D02*
G75*
G03*
X13962000Y-7074000I127000J0D01*
G01*
X15691000Y-6423000D02*
G75*
G03*
X15564000Y-6296000I-127000J0D01*
G01*
X15564000Y-7074000D02*
X13962000Y-7074000D01*
X15564000Y-7074000D02*
G75*
G03*
X15691000Y-6947000I0J127000D01*
G01*
X15691000Y-6423000D02*
X15691000Y-6947000D01*
X11016000Y-4365000D02*
X11016000Y-14265000D01*
X13962000Y-6296000D02*
G75*
G03*
X13835000Y-6423000I0J-127000D01*
G01*
D11*
D12*
X11255000Y-5852000D02*
X11295000Y-5892000D01*
X11295000Y-5852000D02*
X11255000Y-5892000D01*
X11257000Y-6010000D02*
X11297000Y-6050000D01*
X11297000Y-6010000D02*
X11257000Y-6050000D01*
X11417500Y-13675000D02*
X11457500Y-13715000D01*
X11457500Y-13675000D02*
X11417500Y-13715000D01*
X11552500Y-13810000D02*
X11592500Y-13850000D01*
X11592500Y-13810000D02*
X11552500Y-13850000D01*
X12631000Y-12338000D02*
X12671000Y-12378000D01*
X12671000Y-12338000D02*
X12631000Y-12378000D01*
X12640000Y-12560000D02*
X12680000Y-12600000D01*
X12680000Y-12560000D02*
X12640000Y-12600000D01*
X12742000Y-12336000D02*
X12782000Y-12376000D01*
X12782000Y-12336000D02*
X12742000Y-12376000D01*
X13266000Y-7872050D02*
X13306000Y-7912050D01*
X13306000Y-7872050D02*
X13266000Y-7912050D01*
X13266000Y-8913450D02*
X13306000Y-8953450D01*
X13306000Y-8913450D02*
X13266000Y-8953450D01*
X13748600Y-7465650D02*
X13788600Y-7505650D01*
X13788600Y-7465650D02*
X13748600Y-7505650D01*
X13748600Y-8507050D02*
X13788600Y-8547050D01*
X13788600Y-8507050D02*
X13748600Y-8547050D01*
X14670000Y-7784050D02*
X14710000Y-7824050D01*
X14710000Y-7784050D02*
X14670000Y-7824050D01*
X15127200Y-7403050D02*
X15167200Y-7443050D01*
X15167200Y-7403050D02*
X15127200Y-7443050D01*
X15127200Y-7784050D02*
X15167200Y-7824050D01*
X15167200Y-7784050D02*
X15127200Y-7824050D01*
D11*
X12312500Y-4840000D02*
G75*
G03*
X12312500Y-4840000I-100000J0D01*
G01*
X13212500Y-4840000D02*
G75*
G03*
X13212500Y-4840000I-100000J0D01*
G01*
X14720000Y-11555000D02*
G75*
G03*
X14720000Y-11555000I-100000J0D01*
G01*
X14720000Y-12455000D02*
G75*
G03*
X14720000Y-12455000I-100000J0D01*
G01*
X14735000Y-9297500D02*
G75*
G03*
X14735000Y-9297500I-100000J0D01*
G01*
X14735000Y-10197500D02*
G75*
G03*
X14735000Y-10197500I-100000J0D01*
G01*
X15675000Y-11555000D02*
G75*
G03*
X15675000Y-11555000I-100000J0D01*
G01*
X15675000Y-12455000D02*
G75*
G03*
X15675000Y-12455000I-100000J0D01*
G01*
X15680000Y-9297500D02*
G75*
G03*
X15680000Y-9297500I-100000J0D01*
G01*
X15680000Y-10197500D02*
G75*
G03*
X15680000Y-10197500I-100000J0D01*
G01*
X17212500Y-4840000D02*
G75*
G03*
X17212500Y-4840000I-100000J0D01*
G01*
X18112500Y-4840000D02*
G75*
G03*
X18112500Y-4840000I-100000J0D01*
G01*
D13*
X11266000Y-4505000D02*
X11266000Y-4725000D01*
X11156000Y-4615000D02*
X11376000Y-4615000D01*
X11266000Y-9205000D02*
X11266000Y-9425000D01*
X11156000Y-9315000D02*
X11376000Y-9315000D01*
X11266000Y-13905000D02*
X11266000Y-14125000D01*
X11156000Y-14015000D02*
X11376000Y-14015000D01*
X15116000Y-4505000D02*
X15116000Y-4725000D01*
X15006000Y-4615000D02*
X15226000Y-4615000D01*
X15116000Y-13905000D02*
X15116000Y-14125000D01*
X15006000Y-14015000D02*
X15226000Y-14015000D01*
X18966000Y-4505000D02*
X18966000Y-4725000D01*
X18856000Y-4615000D02*
X19076000Y-4615000D01*
X18966000Y-9205000D02*
X18966000Y-9425000D01*
X18856000Y-9315000D02*
X19076000Y-9315000D01*
X18966000Y-13905000D02*
X18966000Y-14125000D01*
X18856000Y-14015000D02*
X19076000Y-14015000D01*
D11*
X11271119Y-14577976D02*
X11271119Y-14377976D01*
X11318738Y-14377976D01*
X11347309Y-14387500D01*
X11366357Y-14406548D01*
X11375881Y-14425595D01*
X11385405Y-14463690D01*
X11385405Y-14492262D01*
X11375881Y-14530357D01*
X11366357Y-14549405D01*
X11347309Y-14568452D01*
X11318738Y-14577976D01*
X11271119Y-14577976D01*
X11471119Y-14577976D02*
X11471119Y-14444643D01*
X11471119Y-14482738D02*
X11480643Y-14463690D01*
X11490167Y-14454167D01*
X11509214Y-14444643D01*
X11528262Y-14444643D01*
X11594928Y-14577976D02*
X11594928Y-14444643D01*
X11594928Y-14377976D02*
X11585405Y-14387500D01*
X11594928Y-14397024D01*
X11604452Y-14387500D01*
X11594928Y-14377976D01*
X11594928Y-14397024D01*
X11718738Y-14577976D02*
X11699690Y-14568452D01*
X11690167Y-14549405D01*
X11690167Y-14377976D01*
X11823500Y-14577976D02*
X11804452Y-14568452D01*
X11794928Y-14549405D01*
X11794928Y-14377976D01*
X12052071Y-14577976D02*
X12052071Y-14377976D01*
X12118738Y-14520833D01*
X12185405Y-14377976D01*
X12185405Y-14577976D01*
X12366357Y-14577976D02*
X12366357Y-14473214D01*
X12356833Y-14454167D01*
X12337786Y-14444643D01*
X12299690Y-14444643D01*
X12280643Y-14454167D01*
X12366357Y-14568452D02*
X12347309Y-14577976D01*
X12299690Y-14577976D01*
X12280643Y-14568452D01*
X12271119Y-14549405D01*
X12271119Y-14530357D01*
X12280643Y-14511309D01*
X12299690Y-14501786D01*
X12347309Y-14501786D01*
X12366357Y-14492262D01*
X12461595Y-14444643D02*
X12461595Y-14644643D01*
X12461595Y-14454167D02*
X12480643Y-14444643D01*
X12518738Y-14444643D01*
X12537786Y-14454167D01*
X12547309Y-14463690D01*
X12556833Y-14482738D01*
X12556833Y-14539881D01*
X12547309Y-14558928D01*
X12537786Y-14568452D01*
X12518738Y-14577976D01*
X12480643Y-14577976D01*
X12461595Y-14568452D01*
X12642548Y-14558928D02*
X12652071Y-14568452D01*
X12642548Y-14577976D01*
X12633024Y-14568452D01*
X12642548Y-14558928D01*
X12642548Y-14577976D01*
X12642548Y-14454167D02*
X12652071Y-14463690D01*
X12642548Y-14473214D01*
X12633024Y-14463690D01*
X12642548Y-14454167D01*
X12642548Y-14473214D01*
D12*
X10973500Y-14887500D02*
X11013500Y-14927500D01*
X11013500Y-14887500D02*
X10973500Y-14927500D01*
D11*
X11309214Y-14797976D02*
X11328262Y-14797976D01*
X11347309Y-14807500D01*
X11356833Y-14817024D01*
X11366357Y-14836071D01*
X11375881Y-14874167D01*
X11375881Y-14921786D01*
X11366357Y-14959881D01*
X11356833Y-14978928D01*
X11347309Y-14988452D01*
X11328262Y-14997976D01*
X11309214Y-14997976D01*
X11290167Y-14988452D01*
X11280643Y-14978928D01*
X11271119Y-14959881D01*
X11261595Y-14921786D01*
X11261595Y-14874167D01*
X11271119Y-14836071D01*
X11280643Y-14817024D01*
X11290167Y-14807500D01*
X11309214Y-14797976D01*
X11461595Y-14978928D02*
X11471119Y-14988452D01*
X11461595Y-14997976D01*
X11452071Y-14988452D01*
X11461595Y-14978928D01*
X11461595Y-14997976D01*
X11642548Y-14864643D02*
X11642548Y-14997976D01*
X11594928Y-14788452D02*
X11547309Y-14931309D01*
X11671119Y-14931309D01*
X11785405Y-14797976D02*
X11804452Y-14797976D01*
X11823500Y-14807500D01*
X11833024Y-14817024D01*
X11842548Y-14836071D01*
X11852071Y-14874167D01*
X11852071Y-14921786D01*
X11842548Y-14959881D01*
X11833024Y-14978928D01*
X11823500Y-14988452D01*
X11804452Y-14997976D01*
X11785405Y-14997976D01*
X11766357Y-14988452D01*
X11756833Y-14978928D01*
X11747309Y-14959881D01*
X11737786Y-14921786D01*
X11737786Y-14874167D01*
X11747309Y-14836071D01*
X11756833Y-14817024D01*
X11766357Y-14807500D01*
X11785405Y-14797976D01*
X11975881Y-14797976D02*
X11994928Y-14797976D01*
X12013976Y-14807500D01*
X12023500Y-14817024D01*
X12033024Y-14836071D01*
X12042548Y-14874167D01*
X12042548Y-14921786D01*
X12033024Y-14959881D01*
X12023500Y-14978928D01*
X12013976Y-14988452D01*
X11994928Y-14997976D01*
X11975881Y-14997976D01*
X11956833Y-14988452D01*
X11947309Y-14978928D01*
X11937786Y-14959881D01*
X11928262Y-14921786D01*
X11928262Y-14874167D01*
X11937786Y-14836071D01*
X11947309Y-14817024D01*
X11956833Y-14807500D01*
X11975881Y-14797976D01*
X12128262Y-14997976D02*
X12128262Y-14864643D01*
X12128262Y-14883690D02*
X12137786Y-14874167D01*
X12156833Y-14864643D01*
X12185405Y-14864643D01*
X12204452Y-14874167D01*
X12213976Y-14893214D01*
X12213976Y-14997976D01*
X12213976Y-14893214D02*
X12223500Y-14874167D01*
X12242548Y-14864643D01*
X12271119Y-14864643D01*
X12290167Y-14874167D01*
X12299690Y-14893214D01*
X12299690Y-14997976D01*
X12394928Y-14997976D02*
X12394928Y-14864643D01*
X12394928Y-14883690D02*
X12404452Y-14874167D01*
X12423500Y-14864643D01*
X12452071Y-14864643D01*
X12471119Y-14874167D01*
X12480643Y-14893214D01*
X12480643Y-14997976D01*
X12480643Y-14893214D02*
X12490167Y-14874167D01*
X12509214Y-14864643D01*
X12537786Y-14864643D01*
X12556833Y-14874167D01*
X12566357Y-14893214D01*
X12566357Y-14997976D01*
X12956833Y-14788452D02*
X12785405Y-15045595D01*
X13213976Y-14797976D02*
X13233024Y-14797976D01*
X13252071Y-14807500D01*
X13261595Y-14817024D01*
X13271119Y-14836071D01*
X13280643Y-14874167D01*
X13280643Y-14921786D01*
X13271119Y-14959881D01*
X13261595Y-14978928D01*
X13252071Y-14988452D01*
X13233024Y-14997976D01*
X13213976Y-14997976D01*
X13194928Y-14988452D01*
X13185405Y-14978928D01*
X13175881Y-14959881D01*
X13166357Y-14921786D01*
X13166357Y-14874167D01*
X13175881Y-14836071D01*
X13185405Y-14817024D01*
X13194928Y-14807500D01*
X13213976Y-14797976D01*
X13366357Y-14978928D02*
X13375881Y-14988452D01*
X13366357Y-14997976D01*
X13356833Y-14988452D01*
X13366357Y-14978928D01*
X13366357Y-14997976D01*
X13499690Y-14797976D02*
X13518738Y-14797976D01*
X13537786Y-14807500D01*
X13547309Y-14817024D01*
X13556833Y-14836071D01*
X13566357Y-14874167D01*
X13566357Y-14921786D01*
X13556833Y-14959881D01*
X13547309Y-14978928D01*
X13537786Y-14988452D01*
X13518738Y-14997976D01*
X13499690Y-14997976D01*
X13480643Y-14988452D01*
X13471119Y-14978928D01*
X13461595Y-14959881D01*
X13452071Y-14921786D01*
X13452071Y-14874167D01*
X13461595Y-14836071D01*
X13471119Y-14817024D01*
X13480643Y-14807500D01*
X13499690Y-14797976D01*
X13756833Y-14997976D02*
X13642548Y-14997976D01*
X13699690Y-14997976D02*
X13699690Y-14797976D01*
X13680643Y-14826548D01*
X13661595Y-14845595D01*
X13642548Y-14855119D01*
X13937786Y-14797976D02*
X13842548Y-14797976D01*
X13833024Y-14893214D01*
X13842548Y-14883690D01*
X13861595Y-14874167D01*
X13909214Y-14874167D01*
X13928262Y-14883690D01*
X13937786Y-14893214D01*
X13947309Y-14912262D01*
X13947309Y-14959881D01*
X13937786Y-14978928D01*
X13928262Y-14988452D01*
X13909214Y-14997976D01*
X13861595Y-14997976D01*
X13842548Y-14988452D01*
X13833024Y-14978928D01*
X14013976Y-14797976D02*
X14147309Y-14797976D01*
X14061595Y-14997976D01*
X14213976Y-14797976D02*
X14213976Y-14836071D01*
X14290167Y-14797976D02*
X14290167Y-14836071D01*
X14585405Y-15074167D02*
X14575881Y-15064643D01*
X14556833Y-15036071D01*
X14547309Y-15017024D01*
X14537786Y-14988452D01*
X14528262Y-14940833D01*
X14528262Y-14902738D01*
X14537786Y-14855119D01*
X14547309Y-14826548D01*
X14556833Y-14807500D01*
X14575881Y-14778928D01*
X14585405Y-14769405D01*
X14766357Y-14997976D02*
X14652071Y-14997976D01*
X14709214Y-14997976D02*
X14709214Y-14797976D01*
X14690167Y-14826548D01*
X14671119Y-14845595D01*
X14652071Y-14855119D01*
X14937786Y-14864643D02*
X14937786Y-14997976D01*
X14890167Y-14788452D02*
X14842548Y-14931309D01*
X14966357Y-14931309D01*
X15194928Y-14997976D02*
X15194928Y-14797976D01*
X15280643Y-14997976D02*
X15280643Y-14893214D01*
X15271119Y-14874167D01*
X15252071Y-14864643D01*
X15223500Y-14864643D01*
X15204452Y-14874167D01*
X15194928Y-14883690D01*
X15404452Y-14997976D02*
X15385405Y-14988452D01*
X15375881Y-14978928D01*
X15366357Y-14959881D01*
X15366357Y-14902738D01*
X15375881Y-14883690D01*
X15385405Y-14874167D01*
X15404452Y-14864643D01*
X15433024Y-14864643D01*
X15452071Y-14874167D01*
X15461595Y-14883690D01*
X15471119Y-14902738D01*
X15471119Y-14959881D01*
X15461595Y-14978928D01*
X15452071Y-14988452D01*
X15433024Y-14997976D01*
X15404452Y-14997976D01*
X15585405Y-14997976D02*
X15566357Y-14988452D01*
X15556833Y-14969405D01*
X15556833Y-14797976D01*
X15737786Y-14988452D02*
X15718738Y-14997976D01*
X15680643Y-14997976D01*
X15661595Y-14988452D01*
X15652071Y-14969405D01*
X15652071Y-14893214D01*
X15661595Y-14874167D01*
X15680643Y-14864643D01*
X15718738Y-14864643D01*
X15737786Y-14874167D01*
X15747309Y-14893214D01*
X15747309Y-14912262D01*
X15652071Y-14931309D01*
X15823500Y-14988452D02*
X15842548Y-14997976D01*
X15880643Y-14997976D01*
X15899690Y-14988452D01*
X15909214Y-14969405D01*
X15909214Y-14959881D01*
X15899690Y-14940833D01*
X15880643Y-14931309D01*
X15852071Y-14931309D01*
X15833024Y-14921786D01*
X15823500Y-14902738D01*
X15823500Y-14893214D01*
X15833024Y-14874167D01*
X15852071Y-14864643D01*
X15880643Y-14864643D01*
X15899690Y-14874167D01*
X15975881Y-15074167D02*
X15985405Y-15064643D01*
X16004452Y-15036071D01*
X16013976Y-15017024D01*
X16023500Y-14988452D01*
X16033024Y-14940833D01*
X16033024Y-14902738D01*
X16023500Y-14855119D01*
X16013976Y-14826548D01*
X16004452Y-14807500D01*
X15985405Y-14778928D01*
X15975881Y-14769405D01*
X11013500Y-15171500D02*
G75*
G03*
X11013500Y-15171500I-100000J0D01*
G01*
X11261595Y-15081024D02*
X11271119Y-15071500D01*
X11290167Y-15061976D01*
X11337786Y-15061976D01*
X11356833Y-15071500D01*
X11366357Y-15081024D01*
X11375881Y-15100071D01*
X11375881Y-15119119D01*
X11366357Y-15147690D01*
X11252071Y-15261976D01*
X11375881Y-15261976D01*
X11461595Y-15242928D02*
X11471119Y-15252452D01*
X11461595Y-15261976D01*
X11452071Y-15252452D01*
X11461595Y-15242928D01*
X11461595Y-15261976D01*
X11594928Y-15061976D02*
X11613976Y-15061976D01*
X11633024Y-15071500D01*
X11642548Y-15081024D01*
X11652071Y-15100071D01*
X11661595Y-15138167D01*
X11661595Y-15185786D01*
X11652071Y-15223881D01*
X11642548Y-15242928D01*
X11633024Y-15252452D01*
X11613976Y-15261976D01*
X11594928Y-15261976D01*
X11575881Y-15252452D01*
X11566357Y-15242928D01*
X11556833Y-15223881D01*
X11547309Y-15185786D01*
X11547309Y-15138167D01*
X11556833Y-15100071D01*
X11566357Y-15081024D01*
X11575881Y-15071500D01*
X11594928Y-15061976D01*
X11785405Y-15061976D02*
X11804452Y-15061976D01*
X11823500Y-15071500D01*
X11833024Y-15081024D01*
X11842548Y-15100071D01*
X11852071Y-15138167D01*
X11852071Y-15185786D01*
X11842548Y-15223881D01*
X11833024Y-15242928D01*
X11823500Y-15252452D01*
X11804452Y-15261976D01*
X11785405Y-15261976D01*
X11766357Y-15252452D01*
X11756833Y-15242928D01*
X11747309Y-15223881D01*
X11737786Y-15185786D01*
X11737786Y-15138167D01*
X11747309Y-15100071D01*
X11756833Y-15081024D01*
X11766357Y-15071500D01*
X11785405Y-15061976D01*
X11975881Y-15061976D02*
X11994928Y-15061976D01*
X12013976Y-15071500D01*
X12023500Y-15081024D01*
X12033024Y-15100071D01*
X12042548Y-15138167D01*
X12042548Y-15185786D01*
X12033024Y-15223881D01*
X12023500Y-15242928D01*
X12013976Y-15252452D01*
X11994928Y-15261976D01*
X11975881Y-15261976D01*
X11956833Y-15252452D01*
X11947309Y-15242928D01*
X11937786Y-15223881D01*
X11928262Y-15185786D01*
X11928262Y-15138167D01*
X11937786Y-15100071D01*
X11947309Y-15081024D01*
X11956833Y-15071500D01*
X11975881Y-15061976D01*
X12128262Y-15261976D02*
X12128262Y-15128643D01*
X12128262Y-15147690D02*
X12137786Y-15138167D01*
X12156833Y-15128643D01*
X12185405Y-15128643D01*
X12204452Y-15138167D01*
X12213976Y-15157214D01*
X12213976Y-15261976D01*
X12213976Y-15157214D02*
X12223500Y-15138167D01*
X12242548Y-15128643D01*
X12271119Y-15128643D01*
X12290167Y-15138167D01*
X12299690Y-15157214D01*
X12299690Y-15261976D01*
X12394928Y-15261976D02*
X12394928Y-15128643D01*
X12394928Y-15147690D02*
X12404452Y-15138167D01*
X12423500Y-15128643D01*
X12452071Y-15128643D01*
X12471119Y-15138167D01*
X12480643Y-15157214D01*
X12480643Y-15261976D01*
X12480643Y-15157214D02*
X12490167Y-15138167D01*
X12509214Y-15128643D01*
X12537786Y-15128643D01*
X12556833Y-15138167D01*
X12566357Y-15157214D01*
X12566357Y-15261976D01*
X12956833Y-15052452D02*
X12785405Y-15309595D01*
X13213976Y-15061976D02*
X13233024Y-15061976D01*
X13252071Y-15071500D01*
X13261595Y-15081024D01*
X13271119Y-15100071D01*
X13280643Y-15138167D01*
X13280643Y-15185786D01*
X13271119Y-15223881D01*
X13261595Y-15242928D01*
X13252071Y-15252452D01*
X13233024Y-15261976D01*
X13213976Y-15261976D01*
X13194928Y-15252452D01*
X13185405Y-15242928D01*
X13175881Y-15223881D01*
X13166357Y-15185786D01*
X13166357Y-15138167D01*
X13175881Y-15100071D01*
X13185405Y-15081024D01*
X13194928Y-15071500D01*
X13213976Y-15061976D01*
X13366357Y-15242928D02*
X13375881Y-15252452D01*
X13366357Y-15261976D01*
X13356833Y-15252452D01*
X13366357Y-15242928D01*
X13366357Y-15261976D01*
X13499690Y-15061976D02*
X13518738Y-15061976D01*
X13537786Y-15071500D01*
X13547309Y-15081024D01*
X13556833Y-15100071D01*
X13566357Y-15138167D01*
X13566357Y-15185786D01*
X13556833Y-15223881D01*
X13547309Y-15242928D01*
X13537786Y-15252452D01*
X13518738Y-15261976D01*
X13499690Y-15261976D01*
X13480643Y-15252452D01*
X13471119Y-15242928D01*
X13461595Y-15223881D01*
X13452071Y-15185786D01*
X13452071Y-15138167D01*
X13461595Y-15100071D01*
X13471119Y-15081024D01*
X13480643Y-15071500D01*
X13499690Y-15061976D01*
X13633024Y-15061976D02*
X13766357Y-15061976D01*
X13680643Y-15261976D01*
X13871119Y-15147690D02*
X13852071Y-15138167D01*
X13842548Y-15128643D01*
X13833024Y-15109595D01*
X13833024Y-15100071D01*
X13842548Y-15081024D01*
X13852071Y-15071500D01*
X13871119Y-15061976D01*
X13909214Y-15061976D01*
X13928262Y-15071500D01*
X13937786Y-15081024D01*
X13947309Y-15100071D01*
X13947309Y-15109595D01*
X13937786Y-15128643D01*
X13928262Y-15138167D01*
X13909214Y-15147690D01*
X13871119Y-15147690D01*
X13852071Y-15157214D01*
X13842548Y-15166738D01*
X13833024Y-15185786D01*
X13833024Y-15223881D01*
X13842548Y-15242928D01*
X13852071Y-15252452D01*
X13871119Y-15261976D01*
X13909214Y-15261976D01*
X13928262Y-15252452D01*
X13937786Y-15242928D01*
X13947309Y-15223881D01*
X13947309Y-15185786D01*
X13937786Y-15166738D01*
X13928262Y-15157214D01*
X13909214Y-15147690D01*
X14013976Y-15061976D02*
X14147309Y-15061976D01*
X14061595Y-15261976D01*
X14213976Y-15061976D02*
X14213976Y-15100071D01*
X14290167Y-15061976D02*
X14290167Y-15100071D01*
X14585405Y-15338167D02*
X14575881Y-15328643D01*
X14556833Y-15300071D01*
X14547309Y-15281024D01*
X14537786Y-15252452D01*
X14528262Y-15204833D01*
X14528262Y-15166738D01*
X14537786Y-15119119D01*
X14547309Y-15090548D01*
X14556833Y-15071500D01*
X14575881Y-15042928D01*
X14585405Y-15033405D01*
X14766357Y-15261976D02*
X14652071Y-15261976D01*
X14709214Y-15261976D02*
X14709214Y-15061976D01*
X14690167Y-15090548D01*
X14671119Y-15109595D01*
X14652071Y-15119119D01*
X14842548Y-15081024D02*
X14852071Y-15071500D01*
X14871119Y-15061976D01*
X14918738Y-15061976D01*
X14937786Y-15071500D01*
X14947309Y-15081024D01*
X14956833Y-15100071D01*
X14956833Y-15119119D01*
X14947309Y-15147690D01*
X14833024Y-15261976D01*
X14956833Y-15261976D01*
X15194928Y-15261976D02*
X15194928Y-15061976D01*
X15280643Y-15261976D02*
X15280643Y-15157214D01*
X15271119Y-15138167D01*
X15252071Y-15128643D01*
X15223500Y-15128643D01*
X15204452Y-15138167D01*
X15194928Y-15147690D01*
X15404452Y-15261976D02*
X15385405Y-15252452D01*
X15375881Y-15242928D01*
X15366357Y-15223881D01*
X15366357Y-15166738D01*
X15375881Y-15147690D01*
X15385405Y-15138167D01*
X15404452Y-15128643D01*
X15433024Y-15128643D01*
X15452071Y-15138167D01*
X15461595Y-15147690D01*
X15471119Y-15166738D01*
X15471119Y-15223881D01*
X15461595Y-15242928D01*
X15452071Y-15252452D01*
X15433024Y-15261976D01*
X15404452Y-15261976D01*
X15585405Y-15261976D02*
X15566357Y-15252452D01*
X15556833Y-15233405D01*
X15556833Y-15061976D01*
X15737786Y-15252452D02*
X15718738Y-15261976D01*
X15680643Y-15261976D01*
X15661595Y-15252452D01*
X15652071Y-15233405D01*
X15652071Y-15157214D01*
X15661595Y-15138167D01*
X15680643Y-15128643D01*
X15718738Y-15128643D01*
X15737786Y-15138167D01*
X15747309Y-15157214D01*
X15747309Y-15176262D01*
X15652071Y-15195309D01*
X15823500Y-15252452D02*
X15842548Y-15261976D01*
X15880643Y-15261976D01*
X15899690Y-15252452D01*
X15909214Y-15233405D01*
X15909214Y-15223881D01*
X15899690Y-15204833D01*
X15880643Y-15195309D01*
X15852071Y-15195309D01*
X15833024Y-15185786D01*
X15823500Y-15166738D01*
X15823500Y-15157214D01*
X15833024Y-15138167D01*
X15852071Y-15128643D01*
X15880643Y-15128643D01*
X15899690Y-15138167D01*
X15975881Y-15338167D02*
X15985405Y-15328643D01*
X16004452Y-15300071D01*
X16013976Y-15281024D01*
X16023500Y-15252452D01*
X16033024Y-15204833D01*
X16033024Y-15166738D01*
X16023500Y-15119119D01*
X16013976Y-15090548D01*
X16004452Y-15071500D01*
X15985405Y-15042928D01*
X15975881Y-15033405D01*
X10913500Y-15391500D02*
X10913500Y-15591500D01*
X10813500Y-15491500D02*
X11013500Y-15491500D01*
X11261595Y-15401024D02*
X11271119Y-15391500D01*
X11290167Y-15381976D01*
X11337786Y-15381976D01*
X11356833Y-15391500D01*
X11366357Y-15401024D01*
X11375881Y-15420071D01*
X11375881Y-15439119D01*
X11366357Y-15467690D01*
X11252071Y-15581976D01*
X11375881Y-15581976D01*
X11461595Y-15562928D02*
X11471119Y-15572452D01*
X11461595Y-15581976D01*
X11452071Y-15572452D01*
X11461595Y-15562928D01*
X11461595Y-15581976D01*
X11547309Y-15401024D02*
X11556833Y-15391500D01*
X11575881Y-15381976D01*
X11623500Y-15381976D01*
X11642548Y-15391500D01*
X11652071Y-15401024D01*
X11661595Y-15420071D01*
X11661595Y-15439119D01*
X11652071Y-15467690D01*
X11537786Y-15581976D01*
X11661595Y-15581976D01*
X11785405Y-15381976D02*
X11804452Y-15381976D01*
X11823500Y-15391500D01*
X11833024Y-15401024D01*
X11842548Y-15420071D01*
X11852071Y-15458167D01*
X11852071Y-15505786D01*
X11842548Y-15543881D01*
X11833024Y-15562928D01*
X11823500Y-15572452D01*
X11804452Y-15581976D01*
X11785405Y-15581976D01*
X11766357Y-15572452D01*
X11756833Y-15562928D01*
X11747309Y-15543881D01*
X11737786Y-15505786D01*
X11737786Y-15458167D01*
X11747309Y-15420071D01*
X11756833Y-15401024D01*
X11766357Y-15391500D01*
X11785405Y-15381976D01*
X11975881Y-15381976D02*
X11994928Y-15381976D01*
X12013976Y-15391500D01*
X12023500Y-15401024D01*
X12033024Y-15420071D01*
X12042548Y-15458167D01*
X12042548Y-15505786D01*
X12033024Y-15543881D01*
X12023500Y-15562928D01*
X12013976Y-15572452D01*
X11994928Y-15581976D01*
X11975881Y-15581976D01*
X11956833Y-15572452D01*
X11947309Y-15562928D01*
X11937786Y-15543881D01*
X11928262Y-15505786D01*
X11928262Y-15458167D01*
X11937786Y-15420071D01*
X11947309Y-15401024D01*
X11956833Y-15391500D01*
X11975881Y-15381976D01*
X12128262Y-15581976D02*
X12128262Y-15448643D01*
X12128262Y-15467690D02*
X12137786Y-15458167D01*
X12156833Y-15448643D01*
X12185405Y-15448643D01*
X12204452Y-15458167D01*
X12213976Y-15477214D01*
X12213976Y-15581976D01*
X12213976Y-15477214D02*
X12223500Y-15458167D01*
X12242548Y-15448643D01*
X12271119Y-15448643D01*
X12290167Y-15458167D01*
X12299690Y-15477214D01*
X12299690Y-15581976D01*
X12394928Y-15581976D02*
X12394928Y-15448643D01*
X12394928Y-15467690D02*
X12404452Y-15458167D01*
X12423500Y-15448643D01*
X12452071Y-15448643D01*
X12471119Y-15458167D01*
X12480643Y-15477214D01*
X12480643Y-15581976D01*
X12480643Y-15477214D02*
X12490167Y-15458167D01*
X12509214Y-15448643D01*
X12537786Y-15448643D01*
X12556833Y-15458167D01*
X12566357Y-15477214D01*
X12566357Y-15581976D01*
X12956833Y-15372452D02*
X12785405Y-15629595D01*
X13213976Y-15381976D02*
X13233024Y-15381976D01*
X13252071Y-15391500D01*
X13261595Y-15401024D01*
X13271119Y-15420071D01*
X13280643Y-15458167D01*
X13280643Y-15505786D01*
X13271119Y-15543881D01*
X13261595Y-15562928D01*
X13252071Y-15572452D01*
X13233024Y-15581976D01*
X13213976Y-15581976D01*
X13194928Y-15572452D01*
X13185405Y-15562928D01*
X13175881Y-15543881D01*
X13166357Y-15505786D01*
X13166357Y-15458167D01*
X13175881Y-15420071D01*
X13185405Y-15401024D01*
X13194928Y-15391500D01*
X13213976Y-15381976D01*
X13366357Y-15562928D02*
X13375881Y-15572452D01*
X13366357Y-15581976D01*
X13356833Y-15572452D01*
X13366357Y-15562928D01*
X13366357Y-15581976D01*
X13499690Y-15381976D02*
X13518738Y-15381976D01*
X13537786Y-15391500D01*
X13547309Y-15401024D01*
X13556833Y-15420071D01*
X13566357Y-15458167D01*
X13566357Y-15505786D01*
X13556833Y-15543881D01*
X13547309Y-15562928D01*
X13537786Y-15572452D01*
X13518738Y-15581976D01*
X13499690Y-15581976D01*
X13480643Y-15572452D01*
X13471119Y-15562928D01*
X13461595Y-15543881D01*
X13452071Y-15505786D01*
X13452071Y-15458167D01*
X13461595Y-15420071D01*
X13471119Y-15401024D01*
X13480643Y-15391500D01*
X13499690Y-15381976D01*
X13680643Y-15467690D02*
X13661595Y-15458167D01*
X13652071Y-15448643D01*
X13642548Y-15429595D01*
X13642548Y-15420071D01*
X13652071Y-15401024D01*
X13661595Y-15391500D01*
X13680643Y-15381976D01*
X13718738Y-15381976D01*
X13737786Y-15391500D01*
X13747309Y-15401024D01*
X13756833Y-15420071D01*
X13756833Y-15429595D01*
X13747309Y-15448643D01*
X13737786Y-15458167D01*
X13718738Y-15467690D01*
X13680643Y-15467690D01*
X13661595Y-15477214D01*
X13652071Y-15486738D01*
X13642548Y-15505786D01*
X13642548Y-15543881D01*
X13652071Y-15562928D01*
X13661595Y-15572452D01*
X13680643Y-15581976D01*
X13718738Y-15581976D01*
X13737786Y-15572452D01*
X13747309Y-15562928D01*
X13756833Y-15543881D01*
X13756833Y-15505786D01*
X13747309Y-15486738D01*
X13737786Y-15477214D01*
X13718738Y-15467690D01*
X13928262Y-15381976D02*
X13890167Y-15381976D01*
X13871119Y-15391500D01*
X13861595Y-15401024D01*
X13842548Y-15429595D01*
X13833024Y-15467690D01*
X13833024Y-15543881D01*
X13842548Y-15562928D01*
X13852071Y-15572452D01*
X13871119Y-15581976D01*
X13909214Y-15581976D01*
X13928262Y-15572452D01*
X13937786Y-15562928D01*
X13947309Y-15543881D01*
X13947309Y-15496262D01*
X13937786Y-15477214D01*
X13928262Y-15467690D01*
X13909214Y-15458167D01*
X13871119Y-15458167D01*
X13852071Y-15467690D01*
X13842548Y-15477214D01*
X13833024Y-15496262D01*
X14118738Y-15381976D02*
X14080643Y-15381976D01*
X14061595Y-15391500D01*
X14052071Y-15401024D01*
X14033024Y-15429595D01*
X14023500Y-15467690D01*
X14023500Y-15543881D01*
X14033024Y-15562928D01*
X14042548Y-15572452D01*
X14061595Y-15581976D01*
X14099690Y-15581976D01*
X14118738Y-15572452D01*
X14128262Y-15562928D01*
X14137786Y-15543881D01*
X14137786Y-15496262D01*
X14128262Y-15477214D01*
X14118738Y-15467690D01*
X14099690Y-15458167D01*
X14061595Y-15458167D01*
X14042548Y-15467690D01*
X14033024Y-15477214D01*
X14023500Y-15496262D01*
X14213976Y-15381976D02*
X14213976Y-15420071D01*
X14290167Y-15381976D02*
X14290167Y-15420071D01*
X14585405Y-15658167D02*
X14575881Y-15648643D01*
X14556833Y-15620071D01*
X14547309Y-15601024D01*
X14537786Y-15572452D01*
X14528262Y-15524833D01*
X14528262Y-15486738D01*
X14537786Y-15439119D01*
X14547309Y-15410548D01*
X14556833Y-15391500D01*
X14575881Y-15362928D01*
X14585405Y-15353405D01*
X14690167Y-15467690D02*
X14671119Y-15458167D01*
X14661595Y-15448643D01*
X14652071Y-15429595D01*
X14652071Y-15420071D01*
X14661595Y-15401024D01*
X14671119Y-15391500D01*
X14690167Y-15381976D01*
X14728262Y-15381976D01*
X14747309Y-15391500D01*
X14756833Y-15401024D01*
X14766357Y-15420071D01*
X14766357Y-15429595D01*
X14756833Y-15448643D01*
X14747309Y-15458167D01*
X14728262Y-15467690D01*
X14690167Y-15467690D01*
X14671119Y-15477214D01*
X14661595Y-15486738D01*
X14652071Y-15505786D01*
X14652071Y-15543881D01*
X14661595Y-15562928D01*
X14671119Y-15572452D01*
X14690167Y-15581976D01*
X14728262Y-15581976D01*
X14747309Y-15572452D01*
X14756833Y-15562928D01*
X14766357Y-15543881D01*
X14766357Y-15505786D01*
X14756833Y-15486738D01*
X14747309Y-15477214D01*
X14728262Y-15467690D01*
X15004452Y-15581976D02*
X15004452Y-15381976D01*
X15090167Y-15581976D02*
X15090167Y-15477214D01*
X15080643Y-15458167D01*
X15061595Y-15448643D01*
X15033024Y-15448643D01*
X15013976Y-15458167D01*
X15004452Y-15467690D01*
X15213976Y-15581976D02*
X15194928Y-15572452D01*
X15185405Y-15562928D01*
X15175881Y-15543881D01*
X15175881Y-15486738D01*
X15185405Y-15467690D01*
X15194928Y-15458167D01*
X15213976Y-15448643D01*
X15242548Y-15448643D01*
X15261595Y-15458167D01*
X15271119Y-15467690D01*
X15280643Y-15486738D01*
X15280643Y-15543881D01*
X15271119Y-15562928D01*
X15261595Y-15572452D01*
X15242548Y-15581976D01*
X15213976Y-15581976D01*
X15394928Y-15581976D02*
X15375881Y-15572452D01*
X15366357Y-15553405D01*
X15366357Y-15381976D01*
X15547309Y-15572452D02*
X15528262Y-15581976D01*
X15490167Y-15581976D01*
X15471119Y-15572452D01*
X15461595Y-15553405D01*
X15461595Y-15477214D01*
X15471119Y-15458167D01*
X15490167Y-15448643D01*
X15528262Y-15448643D01*
X15547309Y-15458167D01*
X15556833Y-15477214D01*
X15556833Y-15496262D01*
X15461595Y-15515309D01*
X15633024Y-15572452D02*
X15652071Y-15581976D01*
X15690167Y-15581976D01*
X15709214Y-15572452D01*
X15718738Y-15553405D01*
X15718738Y-15543881D01*
X15709214Y-15524833D01*
X15690167Y-15515309D01*
X15661595Y-15515309D01*
X15642548Y-15505786D01*
X15633024Y-15486738D01*
X15633024Y-15477214D01*
X15642548Y-15458167D01*
X15661595Y-15448643D01*
X15690167Y-15448643D01*
X15709214Y-15458167D01*
X15785405Y-15658167D02*
X15794928Y-15648643D01*
X15813976Y-15620071D01*
X15823500Y-15601024D01*
X15833024Y-15572452D01*
X15842548Y-15524833D01*
X15842548Y-15486738D01*
X15833024Y-15439119D01*
X15823500Y-15410548D01*
X15813976Y-15391500D01*
X15794928Y-15362928D01*
X15785405Y-15353405D01*
M02*
