%TF.GenerationSoftware,KiCad,Pcbnew,(6.0.4-0)*%
%TF.CreationDate,2022-05-09T11:38:03-07:00*%
%TF.ProjectId,solar-panel-side-X-minus,736f6c61-722d-4706-916e-656c2d736964,rev?*%
%TF.SameCoordinates,Original*%
%TF.FileFunction,Soldermask,Bot*%
%TF.FilePolarity,Negative*%
%FSLAX46Y46*%
G04 Gerber Fmt 4.6, Leading zero omitted, Abs format (unit mm)*
G04 Created by KiCad (PCBNEW (6.0.4-0)) date 2022-05-09 11:38:03*
%MOMM*%
%LPD*%
G01*
G04 APERTURE LIST*
G04 Aperture macros list*
%AMRoundRect*
0 Rectangle with rounded corners*
0 $1 Rounding radius*
0 $2 $3 $4 $5 $6 $7 $8 $9 X,Y pos of 4 corners*
0 Add a 4 corners polygon primitive as box body*
4,1,4,$2,$3,$4,$5,$6,$7,$8,$9,$2,$3,0*
0 Add four circle primitives for the rounded corners*
1,1,$1+$1,$2,$3*
1,1,$1+$1,$4,$5*
1,1,$1+$1,$6,$7*
1,1,$1+$1,$8,$9*
0 Add four rect primitives between the rounded corners*
20,1,$1+$1,$2,$3,$4,$5,0*
20,1,$1+$1,$4,$5,$6,$7,0*
20,1,$1+$1,$6,$7,$8,$9,0*
20,1,$1+$1,$8,$9,$2,$3,0*%
G04 Aperture macros list end*
%ADD10C,0.010000*%
%ADD11C,3.000000*%
%ADD12C,3.800000*%
%ADD13C,2.600000*%
%ADD14RoundRect,0.218750X0.256250X-0.218750X0.256250X0.218750X-0.256250X0.218750X-0.256250X-0.218750X0*%
%ADD15RoundRect,0.218750X-0.256250X0.218750X-0.256250X-0.218750X0.256250X-0.218750X0.256250X0.218750X0*%
%ADD16R,0.600000X0.400000*%
%ADD17R,0.650000X0.400000*%
G04 APERTURE END LIST*
%TO.C,J1*%
G36*
X122051200Y-63501200D02*
G01*
X120448800Y-63501200D01*
X120448800Y-62248800D01*
X122051200Y-62248800D01*
X122051200Y-63501200D01*
G37*
D10*
X122051200Y-63501200D02*
X120448800Y-63501200D01*
X120448800Y-62248800D01*
X122051200Y-62248800D01*
X122051200Y-63501200D01*
G36*
X128751200Y-52731200D02*
G01*
X125698800Y-52731200D01*
X125698800Y-51228800D01*
X128751200Y-51228800D01*
X128751200Y-52731200D01*
G37*
X128751200Y-52731200D02*
X125698800Y-52731200D01*
X125698800Y-51228800D01*
X128751200Y-51228800D01*
X128751200Y-52731200D01*
G36*
X122051200Y-55501200D02*
G01*
X120448800Y-55501200D01*
X120448800Y-54248800D01*
X122051200Y-54248800D01*
X122051200Y-55501200D01*
G37*
X122051200Y-55501200D02*
X120448800Y-55501200D01*
X120448800Y-54248800D01*
X122051200Y-54248800D01*
X122051200Y-55501200D01*
G36*
X122051200Y-57501200D02*
G01*
X120448800Y-57501200D01*
X120448800Y-56248800D01*
X122051200Y-56248800D01*
X122051200Y-57501200D01*
G37*
X122051200Y-57501200D02*
X120448800Y-57501200D01*
X120448800Y-56248800D01*
X122051200Y-56248800D01*
X122051200Y-57501200D01*
G36*
X128751200Y-68521200D02*
G01*
X125698800Y-68521200D01*
X125698800Y-67018800D01*
X128751200Y-67018800D01*
X128751200Y-68521200D01*
G37*
X128751200Y-68521200D02*
X125698800Y-68521200D01*
X125698800Y-67018800D01*
X128751200Y-67018800D01*
X128751200Y-68521200D01*
G36*
X122051200Y-59501200D02*
G01*
X120448800Y-59501200D01*
X120448800Y-58248800D01*
X122051200Y-58248800D01*
X122051200Y-59501200D01*
G37*
X122051200Y-59501200D02*
X120448800Y-59501200D01*
X120448800Y-58248800D01*
X122051200Y-58248800D01*
X122051200Y-59501200D01*
G36*
X122051200Y-65501200D02*
G01*
X120448800Y-65501200D01*
X120448800Y-64248800D01*
X122051200Y-64248800D01*
X122051200Y-65501200D01*
G37*
X122051200Y-65501200D02*
X120448800Y-65501200D01*
X120448800Y-64248800D01*
X122051200Y-64248800D01*
X122051200Y-65501200D01*
G36*
X122051200Y-61501200D02*
G01*
X120448800Y-61501200D01*
X120448800Y-60248800D01*
X122051200Y-60248800D01*
X122051200Y-61501200D01*
G37*
X122051200Y-61501200D02*
X120448800Y-61501200D01*
X120448800Y-60248800D01*
X122051200Y-60248800D01*
X122051200Y-61501200D01*
%TD*%
D11*
%TO.C,SC1*%
X122125000Y-48400000D03*
X131125000Y-48400000D03*
%TD*%
%TO.C,SC2*%
X171125000Y-48400000D03*
X180125000Y-48400000D03*
%TD*%
%TO.C,SC3*%
X155800000Y-101975000D03*
X155800000Y-92975000D03*
%TD*%
%TO.C,SC4*%
X155750000Y-124550000D03*
X155750000Y-115550000D03*
%TD*%
%TO.C,SC5*%
X146200000Y-115550000D03*
X146200000Y-124550000D03*
%TD*%
%TO.C,SC6*%
X146350000Y-92975000D03*
X146350000Y-101975000D03*
%TD*%
D12*
%TO.C,H1*%
X189660000Y-46150000D03*
D13*
X189660000Y-46150000D03*
%TD*%
%TO.C,H2*%
X151160000Y-46150000D03*
D12*
X151160000Y-46150000D03*
%TD*%
D13*
%TO.C,H3*%
X112660000Y-46150000D03*
D12*
X112660000Y-46150000D03*
%TD*%
D13*
%TO.C,H4*%
X112660000Y-93150000D03*
D12*
X112660000Y-93150000D03*
%TD*%
%TO.C,H5*%
X112660000Y-140150000D03*
D13*
X112660000Y-140150000D03*
%TD*%
D12*
%TO.C,H6*%
X151160000Y-140150000D03*
D13*
X151160000Y-140150000D03*
%TD*%
%TO.C,H7*%
X189660000Y-140150000D03*
D12*
X189660000Y-140150000D03*
%TD*%
%TO.C,H8*%
X189660000Y-93150000D03*
D13*
X189660000Y-93150000D03*
%TD*%
D14*
%TO.C,R12*%
X142758000Y-74085000D03*
X142758000Y-75660000D03*
%TD*%
%TO.C,R7*%
X131590000Y-87785000D03*
X131590000Y-89360000D03*
%TD*%
%TO.C,R8*%
X131590000Y-77499000D03*
X131590000Y-79074000D03*
%TD*%
D15*
%TO.C,R10*%
X138948000Y-78820000D03*
X138948000Y-77245000D03*
%TD*%
D14*
%TO.C,R11*%
X142758000Y-84508500D03*
X142758000Y-86083500D03*
%TD*%
D15*
%TO.C,R2*%
X138948000Y-75660000D03*
X138948000Y-74085000D03*
%TD*%
%TO.C,R1*%
X138948000Y-86083500D03*
X138948000Y-84508500D03*
%TD*%
D16*
%TO.C,Q3*%
X134196000Y-89222500D03*
X134196000Y-88572500D03*
X134196000Y-87922500D03*
X136096000Y-87922500D03*
X136096000Y-88572500D03*
X136096000Y-89222500D03*
%TD*%
%TO.C,Q4*%
X134196000Y-78936500D03*
X134196000Y-78286500D03*
X134196000Y-77636500D03*
X136096000Y-77636500D03*
X136096000Y-78286500D03*
X136096000Y-78936500D03*
%TD*%
D15*
%TO.C,C3*%
X142758000Y-78820000D03*
X142758000Y-77245000D03*
%TD*%
%TO.C,C2*%
X142758000Y-89106000D03*
X142758000Y-87531000D03*
%TD*%
D14*
%TO.C,R6*%
X140853000Y-77245000D03*
X140853000Y-78820000D03*
%TD*%
D17*
%TO.C,Q2*%
X134196000Y-75268500D03*
X134196000Y-74618500D03*
X134196000Y-73968500D03*
X136096000Y-73968500D03*
X136096000Y-74618500D03*
X136096000Y-75268500D03*
%TD*%
D15*
%TO.C,R5*%
X140853000Y-89106000D03*
X140853000Y-87531000D03*
%TD*%
D17*
%TO.C,Q1*%
X134196000Y-85554500D03*
X134196000Y-84904500D03*
X134196000Y-84254500D03*
X136096000Y-84254500D03*
X136096000Y-84904500D03*
X136096000Y-85554500D03*
%TD*%
D14*
%TO.C,R3*%
X140853000Y-84508500D03*
X140853000Y-86083500D03*
%TD*%
%TO.C,R4*%
X140853000Y-74085000D03*
X140853000Y-75660000D03*
%TD*%
%TO.C,R9*%
X138948000Y-89106000D03*
X138948000Y-87531000D03*
%TD*%
M02*
