G04 #@! TF.GenerationSoftware,KiCad,Pcbnew,(6.0.5)*
G04 #@! TF.CreationDate,2023-05-08T02:16:42-07:00*
G04 #@! TF.ProjectId,Coil_Panels_XY,436f696c-5f50-4616-9e65-6c735f58592e,rev?*
G04 #@! TF.SameCoordinates,Original*
G04 #@! TF.FileFunction,Copper,L3,Inr*
G04 #@! TF.FilePolarity,Positive*
%FSLAX46Y46*%
G04 Gerber Fmt 4.6, Leading zero omitted, Abs format (unit mm)*
G04 Created by KiCad (PCBNEW (6.0.5)) date 2023-05-08 02:16:42*
%MOMM*%
%LPD*%
G01*
G04 APERTURE LIST*
G04 #@! TA.AperFunction,ComponentPad*
%ADD10R,1.700000X1.700000*%
G04 #@! TD*
G04 #@! TA.AperFunction,ComponentPad*
%ADD11O,1.700000X1.700000*%
G04 #@! TD*
G04 #@! TA.AperFunction,ComponentPad*
%ADD12C,2.600000*%
G04 #@! TD*
G04 #@! TA.AperFunction,ViaPad*
%ADD13C,0.800000*%
G04 #@! TD*
G04 #@! TA.AperFunction,Conductor*
%ADD14C,0.306000*%
G04 #@! TD*
G04 APERTURE END LIST*
D10*
X151546000Y-60997997D03*
D11*
X149006000Y-60997997D03*
X146466000Y-60997997D03*
X143926000Y-60997997D03*
X141386000Y-60997997D03*
X138846000Y-60997997D03*
D12*
X192046000Y-139497997D03*
X137492000Y-123944000D03*
X145112000Y-123944000D03*
X192046000Y-45497997D03*
X115046000Y-45497997D03*
X115046000Y-139497997D03*
D13*
X135215999Y-126594000D03*
X116460000Y-144830000D03*
X134506000Y-145566000D03*
X136439999Y-126594000D03*
X132058000Y-145566000D03*
X138887999Y-126594000D03*
X130833999Y-145566000D03*
X137663999Y-126594000D03*
X133282000Y-145566000D03*
X140111999Y-126594000D03*
D14*
X173780000Y-127512000D02*
X173168000Y-128124000D01*
X186631999Y-140364000D02*
X186019999Y-140976000D01*
X177452000Y-132407999D02*
X130320000Y-132407999D01*
X117468000Y-40036000D02*
X118080000Y-39424000D01*
X186020000Y-139751999D02*
X185408000Y-140363999D01*
X127260000Y-49828000D02*
X127872000Y-49216000D01*
X122364000Y-140363999D02*
X121751999Y-139751999D01*
X128484000Y-49828000D02*
X178675999Y-49828000D01*
X188468000Y-143423999D02*
X119304000Y-143423999D01*
X122364000Y-43708000D02*
X184796000Y-43708000D01*
X129708000Y-52275999D02*
X129708000Y-131796000D01*
X123588000Y-46156000D02*
X124200000Y-45544000D01*
X124812000Y-46156000D02*
X182348000Y-46156000D01*
X181124000Y-134855999D02*
X180512000Y-135467999D01*
X132156000Y-53500000D02*
X175004000Y-53500000D01*
X187244000Y-142200000D02*
X120528000Y-142200000D01*
X133992000Y-55336000D02*
X173168000Y-55336000D01*
X181736000Y-136691999D02*
X126036000Y-136691999D01*
X186019999Y-42484000D02*
X186631999Y-43096000D01*
X173780000Y-54724000D02*
X174392000Y-55335999D01*
X118080000Y-39424000D02*
X189079999Y-39424000D01*
X119916000Y-42484000D02*
X119916000Y-141588000D01*
X118080000Y-40648000D02*
X118692000Y-40036000D01*
X177451999Y-52275999D02*
X177451999Y-131183999D01*
X186631999Y-43096000D02*
X186631999Y-140364000D01*
X181736000Y-47992000D02*
X181736000Y-135468000D01*
X176227999Y-131183999D02*
X131544000Y-131183999D01*
X131544000Y-54112000D02*
X132156000Y-53500000D01*
X189080000Y-142811999D02*
X188468000Y-143423999D01*
X122976000Y-44320000D02*
X184184000Y-44320000D01*
X176227999Y-52276000D02*
X176840000Y-52888000D01*
X178676000Y-132408000D02*
X178064000Y-133019999D01*
X181124000Y-136079999D02*
X126648000Y-136079999D01*
X174392000Y-128123999D02*
X173780000Y-128735999D01*
X128484000Y-51052000D02*
X128484000Y-133020000D01*
X180512000Y-135467999D02*
X127260000Y-135467999D01*
X122976000Y-45543999D02*
X123588000Y-44932000D01*
X184184000Y-137915999D02*
X183572000Y-138527999D01*
X182960000Y-46768000D02*
X182960000Y-136691999D01*
X186631999Y-41872000D02*
X187244000Y-42484000D01*
X124200000Y-138527999D02*
X123588000Y-137915999D01*
X119916000Y-41260000D02*
X187244000Y-41260000D01*
X182959999Y-45544000D02*
X183571999Y-46156000D01*
X122364000Y-44932000D02*
X122364000Y-139140000D01*
X174392000Y-54112000D02*
X175004000Y-54724000D01*
X130932000Y-52276000D02*
X176227999Y-52276000D01*
X179900000Y-133631999D02*
X179287999Y-134243999D01*
X120528000Y-41872000D02*
X186631999Y-41872000D01*
X127260000Y-48604000D02*
X179900000Y-48604000D01*
X180512000Y-49216000D02*
X180512000Y-134244000D01*
X179900000Y-134856000D02*
X127872000Y-134856000D01*
X124812000Y-47380000D02*
X124812000Y-136692000D01*
X132155999Y-130571999D02*
X131543999Y-129959999D01*
X127260000Y-135467999D02*
X126648000Y-134855999D01*
X118692000Y-41260000D02*
X119304000Y-40648000D01*
X173780000Y-128735999D02*
X133992000Y-128735999D01*
X182348000Y-137303999D02*
X125424000Y-137303999D01*
X179287999Y-50440000D02*
X179287999Y-133019999D01*
X184184000Y-139139999D02*
X123588000Y-139139999D01*
X124812000Y-137916000D02*
X124199999Y-137304000D01*
X133380000Y-55948000D02*
X133992000Y-55336000D01*
X187856000Y-41871999D02*
X187856000Y-141588000D01*
X184796000Y-44932000D02*
X184796000Y-138528000D01*
X185408000Y-43096000D02*
X186020000Y-43708000D01*
X188468000Y-40036000D02*
X189080000Y-40648000D01*
X184796000Y-138528000D02*
X184184000Y-139139999D01*
X182348000Y-46156000D02*
X182960000Y-46768000D01*
X182348000Y-136079999D02*
X181736000Y-136691999D01*
X121140000Y-43708000D02*
X121752000Y-43096000D01*
X175004000Y-128735999D02*
X174392000Y-129347999D01*
X119916000Y-42484000D02*
X120528000Y-41872000D01*
X126036000Y-136691999D02*
X125424000Y-136079999D01*
X131140000Y-144648000D02*
X132058000Y-145566000D01*
X121140000Y-141588000D02*
X120528000Y-140976000D01*
X128484000Y-51052000D02*
X129096000Y-50440000D01*
X124200000Y-46768000D02*
X124200000Y-137304000D01*
X126648000Y-136079999D02*
X126035999Y-135468000D01*
X187856000Y-141588000D02*
X187244000Y-142200000D01*
X133380000Y-54724000D02*
X173780000Y-54724000D01*
X127872000Y-134856000D02*
X127259999Y-134244000D01*
X173780000Y-55948000D02*
X173780000Y-127512000D01*
X126648000Y-49216000D02*
X126648000Y-134856000D01*
X124200000Y-46768000D02*
X124812000Y-46156000D01*
X187856000Y-40648000D02*
X188468000Y-41260000D01*
X133992000Y-128735999D02*
X133379999Y-128123999D01*
X178675999Y-133631999D02*
X129095999Y-133631999D01*
X179900000Y-48604000D02*
X180512000Y-49216000D01*
X182959999Y-137916000D02*
X124812000Y-137916000D01*
X181124000Y-47380000D02*
X181736000Y-47992000D01*
X185408000Y-139139999D02*
X184796000Y-139751999D01*
X183572000Y-44932000D02*
X184184000Y-45543999D01*
X117468000Y-144036000D02*
X118080000Y-144648000D01*
X189691999Y-40036000D02*
X189691999Y-143424000D01*
X173167999Y-56560000D02*
X173167999Y-126900000D01*
X178064000Y-131795999D02*
X177452000Y-132407999D01*
X133992000Y-56560000D02*
X133992000Y-127512000D01*
X175004000Y-53500000D02*
X175616000Y-54112000D01*
X131544000Y-52888000D02*
X175615999Y-52888000D01*
X132156000Y-54724000D02*
X132768000Y-54112000D01*
X181736000Y-135468000D02*
X181124000Y-136079999D01*
X176227999Y-53500000D02*
X176227999Y-129959999D01*
X121752000Y-44320000D02*
X122364000Y-43708000D01*
X182960000Y-136691999D02*
X182348000Y-137303999D01*
X121752000Y-43096000D02*
X185408000Y-43096000D01*
X123588000Y-46156000D02*
X123588000Y-137916000D01*
X130932000Y-53500000D02*
X130932000Y-130572000D01*
X182348000Y-47380000D02*
X182348000Y-136079999D01*
X132156000Y-54724000D02*
X132156000Y-129347999D01*
X121751999Y-140976000D02*
X121139999Y-140364000D01*
X176839999Y-131795999D02*
X130932000Y-131795999D01*
X130320000Y-52888000D02*
X130320000Y-131184000D01*
X133992000Y-56560000D02*
X134604000Y-55948000D01*
X180512000Y-134244000D02*
X179900000Y-134856000D01*
X175616000Y-54112000D02*
X175616000Y-129347999D01*
X129708000Y-52275999D02*
X130320000Y-51664000D01*
X124200000Y-45544000D02*
X182959999Y-45544000D01*
X186019999Y-140976000D02*
X121751999Y-140976000D01*
X118692000Y-41260000D02*
X118692000Y-142811999D01*
X189079999Y-39424000D02*
X189691999Y-40036000D01*
X185408000Y-140363999D02*
X122364000Y-140363999D01*
X172555999Y-127512000D02*
X138275999Y-127512000D01*
X173167999Y-126900000D02*
X172555999Y-127512000D01*
X177451999Y-131183999D02*
X176839999Y-131795999D01*
X178064000Y-51664000D02*
X178064000Y-131795999D01*
X118692000Y-40036000D02*
X188468000Y-40036000D01*
X187244000Y-42484000D02*
X187244000Y-140976000D01*
X128484000Y-134243999D02*
X127872000Y-133631999D01*
X122976000Y-139751999D02*
X122364000Y-139139999D01*
X178676000Y-51052000D02*
X178676000Y-132408000D01*
X126648000Y-47992000D02*
X180512000Y-47992000D01*
X131544000Y-131183999D02*
X130932000Y-130571999D01*
X189079999Y-144036000D02*
X118691999Y-144036000D01*
X123588000Y-44932000D02*
X183572000Y-44932000D01*
X188468000Y-142199999D02*
X187856000Y-142811999D01*
X175616000Y-129347999D02*
X175004000Y-129959999D01*
X130320000Y-132407999D02*
X129708000Y-131795999D01*
X119916000Y-142811999D02*
X119304000Y-142199999D01*
X120528000Y-43096000D02*
X121140000Y-42484000D01*
X129096000Y-51664000D02*
X129096000Y-132408000D01*
X176839999Y-51664000D02*
X177451999Y-52275999D01*
X118691999Y-144036000D02*
X118079999Y-143424000D01*
X138275999Y-127512000D02*
X137663999Y-126594000D01*
X184184000Y-45543999D02*
X184184000Y-137915999D01*
X132768000Y-129959999D02*
X132155999Y-129347999D01*
X176840000Y-130571999D02*
X176227999Y-131183999D01*
X123588000Y-139139999D02*
X122975999Y-138528000D01*
X126036000Y-48603999D02*
X126648000Y-47992000D01*
X121140000Y-43708000D02*
X121140000Y-140364000D01*
X127872000Y-50440000D02*
X127872000Y-133632000D01*
X177452000Y-51052000D02*
X178064000Y-51664000D01*
X133380000Y-55948000D02*
X133380000Y-128124000D01*
X127872000Y-50440000D02*
X128484000Y-49828000D01*
X174392000Y-129347999D02*
X133380000Y-129347999D01*
X183571999Y-46156000D02*
X183571999Y-137304000D01*
X181736000Y-46768000D02*
X182348000Y-47380000D01*
X176227999Y-129959999D02*
X175615999Y-130571999D01*
X179287999Y-134243999D02*
X128484000Y-134243999D01*
X120528000Y-43096000D02*
X120528000Y-140976000D01*
X184796000Y-139751999D02*
X122976000Y-139751999D01*
X186631999Y-141588000D02*
X121140000Y-141588000D01*
X175615999Y-130571999D02*
X132155999Y-130571999D01*
X126036000Y-48603999D02*
X126036000Y-135468000D01*
X125424000Y-46768000D02*
X181736000Y-46768000D01*
X125424000Y-47992000D02*
X125424000Y-136080000D01*
X124812000Y-47380000D02*
X125424000Y-46768000D01*
X176840000Y-52888000D02*
X176840000Y-130571999D01*
X185408000Y-44320000D02*
X185408000Y-139139999D01*
X130320000Y-52888000D02*
X130932000Y-52276000D01*
X126036000Y-47380000D02*
X181124000Y-47380000D01*
X187244000Y-140976000D02*
X186631999Y-141588000D01*
X180512000Y-47992000D02*
X181124000Y-48603999D01*
X179900000Y-49828000D02*
X179900000Y-133631999D01*
X179287999Y-133019999D02*
X178675999Y-133631999D01*
X122364000Y-44932000D02*
X122976000Y-44320000D01*
X119304000Y-40648000D02*
X187856000Y-40648000D01*
X130320000Y-51664000D02*
X176839999Y-51664000D01*
X133380000Y-129347999D02*
X132768000Y-128735999D01*
X175615999Y-52888000D02*
X176227999Y-53500000D01*
X117468000Y-40036000D02*
X117468000Y-144036000D01*
X121752000Y-44320000D02*
X121752000Y-139752000D01*
X118080000Y-144648000D02*
X131140000Y-144648000D01*
X187244000Y-41260000D02*
X187856000Y-41871999D01*
X172555999Y-55948000D02*
X173167999Y-56560000D01*
X125424000Y-137303999D02*
X124812000Y-136691999D01*
X129708000Y-51052000D02*
X177452000Y-51052000D01*
X189691999Y-143424000D02*
X189079999Y-144036000D01*
X126648000Y-49216000D02*
X127260000Y-48604000D01*
X132768000Y-54112000D02*
X174392000Y-54112000D01*
X130932000Y-53500000D02*
X131544000Y-52888000D01*
X129708000Y-133019999D02*
X129095999Y-132408000D01*
X183571999Y-137304000D02*
X182959999Y-137916000D01*
X120528000Y-142200000D02*
X119915999Y-141588000D01*
X129096000Y-51664000D02*
X129708000Y-51052000D01*
X175004000Y-54724000D02*
X175004000Y-128735999D01*
X127260000Y-49828000D02*
X127260000Y-134244000D01*
X129096000Y-50440000D02*
X178064000Y-50440000D01*
X119304000Y-143423999D02*
X118691999Y-142811999D01*
X119304000Y-41871999D02*
X119304000Y-142200000D01*
X173168000Y-55336000D02*
X173780000Y-55948000D01*
X121140000Y-42484000D02*
X186019999Y-42484000D01*
X129095999Y-133631999D02*
X128483999Y-133019999D01*
X122976000Y-45543999D02*
X122976000Y-138528000D01*
X134604000Y-128124000D02*
X133992000Y-127512000D01*
X178064000Y-50440000D02*
X178676000Y-51052000D01*
X187856000Y-142811999D02*
X119916000Y-142811999D01*
X118080000Y-40648000D02*
X118080000Y-143424000D01*
X134604000Y-55948000D02*
X172555999Y-55948000D01*
X186020000Y-43708000D02*
X186020000Y-139751999D01*
X181124000Y-48603999D02*
X181124000Y-134855999D01*
X175004000Y-129959999D02*
X132768000Y-129959999D01*
X178064000Y-133019999D02*
X129708000Y-133019999D01*
X188468000Y-41260000D02*
X188468000Y-142199999D01*
X179287999Y-49216000D02*
X179900000Y-49828000D01*
X130932000Y-131795999D02*
X130319999Y-131183999D01*
X119304000Y-41871999D02*
X119916000Y-41260000D01*
X184184000Y-44320000D02*
X184796000Y-44932000D01*
X174392000Y-55335999D02*
X174392000Y-128123999D01*
X184796000Y-43708000D02*
X185408000Y-44320000D01*
X183572000Y-138527999D02*
X124200000Y-138527999D01*
X131544000Y-54112000D02*
X131544000Y-129960000D01*
X178675999Y-49828000D02*
X179287999Y-50440000D01*
X125424000Y-47992000D02*
X126036000Y-47380000D01*
X132768000Y-55335999D02*
X133380000Y-54724000D01*
X173168000Y-128124000D02*
X134604000Y-128124000D01*
X127872000Y-49216000D02*
X179287999Y-49216000D01*
X189080000Y-40648000D02*
X189080000Y-142811999D01*
X132768000Y-55335999D02*
X132768000Y-128736000D01*
M02*
