G04 #@! TF.GenerationSoftware,KiCad,Pcbnew,(6.0.5)*
G04 #@! TF.CreationDate,2023-05-08T02:16:10-07:00*
G04 #@! TF.ProjectId,Coil_Panels_XY,436f696c-5f50-4616-9e65-6c735f58592e,rev?*
G04 #@! TF.SameCoordinates,Original*
G04 #@! TF.FileFunction,Soldermask,Bot*
G04 #@! TF.FilePolarity,Negative*
%FSLAX46Y46*%
G04 Gerber Fmt 4.6, Leading zero omitted, Abs format (unit mm)*
G04 Created by KiCad (PCBNEW (6.0.5)) date 2023-05-08 02:16:10*
%MOMM*%
%LPD*%
G01*
G04 APERTURE LIST*
%ADD10C,0.010000*%
%ADD11R,1.700000X1.700000*%
%ADD12O,1.700000X1.700000*%
%ADD13C,3.800000*%
%ADD14C,2.600000*%
G04 APERTURE END LIST*
G36*
X133771200Y-50406200D02*
G01*
X130718800Y-50406200D01*
X130718800Y-48903800D01*
X133771200Y-48903800D01*
X133771200Y-50406200D01*
G37*
D10*
X133771200Y-50406200D02*
X130718800Y-50406200D01*
X130718800Y-48903800D01*
X133771200Y-48903800D01*
X133771200Y-50406200D01*
G36*
X133771200Y-66196200D02*
G01*
X130718800Y-66196200D01*
X130718800Y-64693800D01*
X133771200Y-64693800D01*
X133771200Y-66196200D01*
G37*
X133771200Y-66196200D02*
X130718800Y-66196200D01*
X130718800Y-64693800D01*
X133771200Y-64693800D01*
X133771200Y-66196200D01*
G36*
X127071200Y-61176200D02*
G01*
X125468800Y-61176200D01*
X125468800Y-59923800D01*
X127071200Y-59923800D01*
X127071200Y-61176200D01*
G37*
X127071200Y-61176200D02*
X125468800Y-61176200D01*
X125468800Y-59923800D01*
X127071200Y-59923800D01*
X127071200Y-61176200D01*
G36*
X127071200Y-55176200D02*
G01*
X125468800Y-55176200D01*
X125468800Y-53923800D01*
X127071200Y-53923800D01*
X127071200Y-55176200D01*
G37*
X127071200Y-55176200D02*
X125468800Y-55176200D01*
X125468800Y-53923800D01*
X127071200Y-53923800D01*
X127071200Y-55176200D01*
G36*
X127071200Y-63176200D02*
G01*
X125468800Y-63176200D01*
X125468800Y-61923800D01*
X127071200Y-61923800D01*
X127071200Y-63176200D01*
G37*
X127071200Y-63176200D02*
X125468800Y-63176200D01*
X125468800Y-61923800D01*
X127071200Y-61923800D01*
X127071200Y-63176200D01*
G36*
X127071200Y-57176200D02*
G01*
X125468800Y-57176200D01*
X125468800Y-55923800D01*
X127071200Y-55923800D01*
X127071200Y-57176200D01*
G37*
X127071200Y-57176200D02*
X125468800Y-57176200D01*
X125468800Y-55923800D01*
X127071200Y-55923800D01*
X127071200Y-57176200D01*
G36*
X127071200Y-59176200D02*
G01*
X125468800Y-59176200D01*
X125468800Y-57923800D01*
X127071200Y-57923800D01*
X127071200Y-59176200D01*
G37*
X127071200Y-59176200D02*
X125468800Y-59176200D01*
X125468800Y-57923800D01*
X127071200Y-57923800D01*
X127071200Y-59176200D01*
G36*
X127071200Y-53176200D02*
G01*
X125468800Y-53176200D01*
X125468800Y-51923800D01*
X127071200Y-51923800D01*
X127071200Y-53176200D01*
G37*
X127071200Y-53176200D02*
X125468800Y-53176200D01*
X125468800Y-51923800D01*
X127071200Y-51923800D01*
X127071200Y-53176200D01*
D11*
X151546000Y-60997997D03*
D12*
X149006000Y-60997997D03*
X146466000Y-60997997D03*
X143926000Y-60997997D03*
X141386000Y-60997997D03*
X138846000Y-60997997D03*
D13*
X192046000Y-139497997D03*
D14*
X192046000Y-139497997D03*
X137492000Y-123944000D03*
X145112000Y-123944000D03*
D13*
X192046000Y-45497997D03*
D14*
X192046000Y-45497997D03*
D13*
X115046000Y-45497997D03*
D14*
X115046000Y-45497997D03*
X115046000Y-139497997D03*
D13*
X115046000Y-139497997D03*
M02*
