%TF.GenerationSoftware,KiCad,Pcbnew,(6.0.5)*%
%TF.CreationDate,2023-01-23T17:02:21-08:00*%
%TF.ProjectId,Coil_Panels_XY,436f696c-5f50-4616-9e65-6c735f58592e,rev?*%
%TF.SameCoordinates,Original*%
%TF.FileFunction,Soldermask,Bot*%
%TF.FilePolarity,Negative*%
%FSLAX46Y46*%
G04 Gerber Fmt 4.6, Leading zero omitted, Abs format (unit mm)*
G04 Created by KiCad (PCBNEW (6.0.5)) date 2023-01-23 17:02:21*
%MOMM*%
%LPD*%
G01*
G04 APERTURE LIST*
%ADD10C,0.010000*%
%ADD11R,1.700000X1.700000*%
%ADD12O,1.700000X1.700000*%
%ADD13C,3.800000*%
%ADD14C,2.600000*%
G04 APERTURE END LIST*
G36*
X124301200Y-53186200D02*
G01*
X122698800Y-53186200D01*
X122698800Y-51933800D01*
X124301200Y-51933800D01*
X124301200Y-53186200D01*
G37*
D10*
X124301200Y-53186200D02*
X122698800Y-53186200D01*
X122698800Y-51933800D01*
X124301200Y-51933800D01*
X124301200Y-53186200D01*
G36*
X124301200Y-59186200D02*
G01*
X122698800Y-59186200D01*
X122698800Y-57933800D01*
X124301200Y-57933800D01*
X124301200Y-59186200D01*
G37*
X124301200Y-59186200D02*
X122698800Y-59186200D01*
X122698800Y-57933800D01*
X124301200Y-57933800D01*
X124301200Y-59186200D01*
G36*
X124301200Y-57186200D02*
G01*
X122698800Y-57186200D01*
X122698800Y-55933800D01*
X124301200Y-55933800D01*
X124301200Y-57186200D01*
G37*
X124301200Y-57186200D02*
X122698800Y-57186200D01*
X122698800Y-55933800D01*
X124301200Y-55933800D01*
X124301200Y-57186200D01*
G36*
X124301200Y-63186200D02*
G01*
X122698800Y-63186200D01*
X122698800Y-61933800D01*
X124301200Y-61933800D01*
X124301200Y-63186200D01*
G37*
X124301200Y-63186200D02*
X122698800Y-63186200D01*
X122698800Y-61933800D01*
X124301200Y-61933800D01*
X124301200Y-63186200D01*
G36*
X124301200Y-55186200D02*
G01*
X122698800Y-55186200D01*
X122698800Y-53933800D01*
X124301200Y-53933800D01*
X124301200Y-55186200D01*
G37*
X124301200Y-55186200D02*
X122698800Y-55186200D01*
X122698800Y-53933800D01*
X124301200Y-53933800D01*
X124301200Y-55186200D01*
G36*
X124301200Y-61186200D02*
G01*
X122698800Y-61186200D01*
X122698800Y-59933800D01*
X124301200Y-59933800D01*
X124301200Y-61186200D01*
G37*
X124301200Y-61186200D02*
X122698800Y-61186200D01*
X122698800Y-59933800D01*
X124301200Y-59933800D01*
X124301200Y-61186200D01*
G36*
X131001200Y-66206200D02*
G01*
X127948800Y-66206200D01*
X127948800Y-64703800D01*
X131001200Y-64703800D01*
X131001200Y-66206200D01*
G37*
X131001200Y-66206200D02*
X127948800Y-66206200D01*
X127948800Y-64703800D01*
X131001200Y-64703800D01*
X131001200Y-66206200D01*
G36*
X131001200Y-50416200D02*
G01*
X127948800Y-50416200D01*
X127948800Y-48913800D01*
X131001200Y-48913800D01*
X131001200Y-50416200D01*
G37*
X131001200Y-50416200D02*
X127948800Y-50416200D01*
X127948800Y-48913800D01*
X131001200Y-48913800D01*
X131001200Y-50416200D01*
D11*
X115140000Y-50284000D03*
D12*
X115140000Y-52824000D03*
X115140000Y-55364000D03*
X115140000Y-57904000D03*
X115140000Y-60444000D03*
X115140000Y-62984000D03*
D13*
X115046000Y-45497997D03*
D14*
X115046000Y-45497997D03*
D13*
X192046000Y-139497997D03*
D14*
X192046000Y-139497997D03*
X115046000Y-139497997D03*
D13*
X115046000Y-139497997D03*
D14*
X137492000Y-123944000D03*
X145112000Y-123944000D03*
D13*
X192046000Y-45497997D03*
D14*
X192046000Y-45497997D03*
M02*
