%FSLAX45Y45*%
G04 Gerber Fmt 4.5, Leading zero omitted, Abs format (unit mm)*
G04 Created by KiCad (PCBNEW (6.0.5)) date 2023-05-08 02:16:14*
%MOMM*%
%LPD*%
G01*
G04 APERTURE LIST*
%TA.AperFunction,Profile*%
%ADD10C,0.100000*%
%TD*%
%TA.AperFunction,Profile*%
%ADD11C,0.050000*%
%TD*%
%ADD12C,0.200000*%
%ADD13C,0.040000*%
%ADD14C,0.100000*%
%ADD15C,0.130000*%
%ADD16C,0.220000*%
G04 APERTURE END LIST*
D10*
X17005400Y-12190000D02*
G75*
G03*
X17155400Y-12040000I0J150000D01*
G01*
X17155313Y-6459767D02*
G75*
G03*
X17005317Y-6309767I-149993J7D01*
G01*
D11*
X11254600Y-14649800D02*
X19454600Y-14649800D01*
X19454600Y-3849800D02*
X11254600Y-3849800D01*
D10*
X13553966Y-11090066D02*
X13554317Y-7409767D01*
X17155400Y-11090000D02*
X17155400Y-12040000D01*
X17005317Y-6309767D02*
X13703883Y-6309833D01*
X13703883Y-6309833D02*
G75*
G03*
X13553883Y-6459833I-3J-149997D01*
G01*
X17155317Y-6459767D02*
X17155317Y-7409767D01*
X13554317Y-7409767D02*
X13553883Y-6459833D01*
X13554400Y-12040000D02*
G75*
G03*
X13704400Y-12190000I150000J0D01*
G01*
D11*
X11254600Y-14649800D02*
X11254600Y-3849800D01*
D10*
X17155317Y-7409767D02*
X17155400Y-11090000D01*
X13554400Y-12040000D02*
X13553966Y-11090066D01*
D11*
X19454600Y-14649800D02*
X19454600Y-3849800D01*
D10*
X13704400Y-12190000D02*
X17005400Y-12190000D01*
D12*
D13*
X11626000Y-14463000D02*
X11666000Y-14503000D01*
X11666000Y-14463000D02*
X11626000Y-14503000D01*
X13063400Y-14536600D02*
X13103400Y-14576600D01*
X13103400Y-14536600D02*
X13063400Y-14576600D01*
X13185800Y-14536600D02*
X13225800Y-14576600D01*
X13225800Y-14536600D02*
X13185800Y-14576600D01*
X13308200Y-14536600D02*
X13348200Y-14576600D01*
X13348200Y-14536600D02*
X13308200Y-14576600D01*
X13430600Y-14536600D02*
X13470600Y-14576600D01*
X13470600Y-14536600D02*
X13430600Y-14576600D01*
X13501600Y-12639400D02*
X13541600Y-12679400D01*
X13541600Y-12639400D02*
X13501600Y-12679400D01*
X13624000Y-12639400D02*
X13664000Y-12679400D01*
X13664000Y-12639400D02*
X13624000Y-12679400D01*
X13746400Y-12639400D02*
X13786400Y-12679400D01*
X13786400Y-12639400D02*
X13746400Y-12679400D01*
X13868800Y-12639400D02*
X13908800Y-12679400D01*
X13908800Y-12639400D02*
X13868800Y-12679400D01*
X13991200Y-12639400D02*
X14031200Y-12679400D01*
X14031200Y-12639400D02*
X13991200Y-12679400D01*
D14*
X13934600Y-6099800D02*
G75*
G03*
X13934600Y-6099800I-50000J0D01*
G01*
X14188600Y-6099800D02*
G75*
G03*
X14188600Y-6099800I-50000J0D01*
G01*
X14442600Y-6099800D02*
G75*
G03*
X14442600Y-6099800I-50000J0D01*
G01*
X14696600Y-6099800D02*
G75*
G03*
X14696600Y-6099800I-50000J0D01*
G01*
X14950600Y-6099800D02*
G75*
G03*
X14950600Y-6099800I-50000J0D01*
G01*
X15204600Y-6099800D02*
G75*
G03*
X15204600Y-6099800I-50000J0D01*
G01*
D15*
X13749200Y-12329400D02*
X13749200Y-12459400D01*
X13684200Y-12394400D02*
X13814200Y-12394400D01*
X14511200Y-12329400D02*
X14511200Y-12459400D01*
X14446200Y-12394400D02*
X14576200Y-12394400D01*
D16*
X11582382Y-4627582D02*
X11582382Y-4472017D01*
X11426817Y-4472017D01*
X11426817Y-4627582D01*
X11582382Y-4627582D01*
X11582382Y-14027582D02*
X11582382Y-13872017D01*
X11426817Y-13872017D01*
X11426817Y-14027582D01*
X11582382Y-14027582D01*
X19282383Y-4627582D02*
X19282383Y-4472017D01*
X19126818Y-4472017D01*
X19126818Y-4627582D01*
X19282383Y-4627582D01*
X19282383Y-14027582D02*
X19282383Y-13872017D01*
X19126818Y-13872017D01*
X19126818Y-14027582D01*
X19282383Y-14027582D01*
D12*
X11509719Y-14962776D02*
X11509719Y-14762776D01*
X11557338Y-14762776D01*
X11585909Y-14772300D01*
X11604957Y-14791347D01*
X11614481Y-14810395D01*
X11624005Y-14848490D01*
X11624005Y-14877062D01*
X11614481Y-14915157D01*
X11604957Y-14934204D01*
X11585909Y-14953252D01*
X11557338Y-14962776D01*
X11509719Y-14962776D01*
X11709719Y-14962776D02*
X11709719Y-14829442D01*
X11709719Y-14867538D02*
X11719243Y-14848490D01*
X11728767Y-14838966D01*
X11747814Y-14829442D01*
X11766862Y-14829442D01*
X11833528Y-14962776D02*
X11833528Y-14829442D01*
X11833528Y-14762776D02*
X11824005Y-14772300D01*
X11833528Y-14781823D01*
X11843052Y-14772300D01*
X11833528Y-14762776D01*
X11833528Y-14781823D01*
X11957338Y-14962776D02*
X11938290Y-14953252D01*
X11928767Y-14934204D01*
X11928767Y-14762776D01*
X12062100Y-14962776D02*
X12043052Y-14953252D01*
X12033528Y-14934204D01*
X12033528Y-14762776D01*
X12290671Y-14962776D02*
X12290671Y-14762776D01*
X12357338Y-14905633D01*
X12424005Y-14762776D01*
X12424005Y-14962776D01*
X12604957Y-14962776D02*
X12604957Y-14858014D01*
X12595433Y-14838966D01*
X12576386Y-14829442D01*
X12538290Y-14829442D01*
X12519243Y-14838966D01*
X12604957Y-14953252D02*
X12585909Y-14962776D01*
X12538290Y-14962776D01*
X12519243Y-14953252D01*
X12509719Y-14934204D01*
X12509719Y-14915157D01*
X12519243Y-14896109D01*
X12538290Y-14886585D01*
X12585909Y-14886585D01*
X12604957Y-14877062D01*
X12700195Y-14829442D02*
X12700195Y-15029442D01*
X12700195Y-14838966D02*
X12719243Y-14829442D01*
X12757338Y-14829442D01*
X12776386Y-14838966D01*
X12785909Y-14848490D01*
X12795433Y-14867538D01*
X12795433Y-14924681D01*
X12785909Y-14943728D01*
X12776386Y-14953252D01*
X12757338Y-14962776D01*
X12719243Y-14962776D01*
X12700195Y-14953252D01*
X12881148Y-14943728D02*
X12890671Y-14953252D01*
X12881148Y-14962776D01*
X12871624Y-14953252D01*
X12881148Y-14943728D01*
X12881148Y-14962776D01*
X12881148Y-14838966D02*
X12890671Y-14848490D01*
X12881148Y-14858014D01*
X12871624Y-14848490D01*
X12881148Y-14838966D01*
X12881148Y-14858014D01*
D13*
X11212100Y-15272300D02*
X11252100Y-15312300D01*
X11252100Y-15272300D02*
X11212100Y-15312300D01*
D12*
X11547814Y-15182776D02*
X11566862Y-15182776D01*
X11585909Y-15192300D01*
X11595433Y-15201823D01*
X11604957Y-15220871D01*
X11614481Y-15258966D01*
X11614481Y-15306585D01*
X11604957Y-15344681D01*
X11595433Y-15363728D01*
X11585909Y-15373252D01*
X11566862Y-15382776D01*
X11547814Y-15382776D01*
X11528767Y-15373252D01*
X11519243Y-15363728D01*
X11509719Y-15344681D01*
X11500195Y-15306585D01*
X11500195Y-15258966D01*
X11509719Y-15220871D01*
X11519243Y-15201823D01*
X11528767Y-15192300D01*
X11547814Y-15182776D01*
X11700195Y-15363728D02*
X11709719Y-15373252D01*
X11700195Y-15382776D01*
X11690671Y-15373252D01*
X11700195Y-15363728D01*
X11700195Y-15382776D01*
X11881148Y-15249442D02*
X11881148Y-15382776D01*
X11833528Y-15173252D02*
X11785909Y-15316109D01*
X11909719Y-15316109D01*
X12024005Y-15182776D02*
X12043052Y-15182776D01*
X12062100Y-15192300D01*
X12071624Y-15201823D01*
X12081148Y-15220871D01*
X12090671Y-15258966D01*
X12090671Y-15306585D01*
X12081148Y-15344681D01*
X12071624Y-15363728D01*
X12062100Y-15373252D01*
X12043052Y-15382776D01*
X12024005Y-15382776D01*
X12004957Y-15373252D01*
X11995433Y-15363728D01*
X11985909Y-15344681D01*
X11976386Y-15306585D01*
X11976386Y-15258966D01*
X11985909Y-15220871D01*
X11995433Y-15201823D01*
X12004957Y-15192300D01*
X12024005Y-15182776D01*
X12214481Y-15182776D02*
X12233528Y-15182776D01*
X12252576Y-15192300D01*
X12262100Y-15201823D01*
X12271624Y-15220871D01*
X12281148Y-15258966D01*
X12281148Y-15306585D01*
X12271624Y-15344681D01*
X12262100Y-15363728D01*
X12252576Y-15373252D01*
X12233528Y-15382776D01*
X12214481Y-15382776D01*
X12195433Y-15373252D01*
X12185909Y-15363728D01*
X12176386Y-15344681D01*
X12166862Y-15306585D01*
X12166862Y-15258966D01*
X12176386Y-15220871D01*
X12185909Y-15201823D01*
X12195433Y-15192300D01*
X12214481Y-15182776D01*
X12366862Y-15382776D02*
X12366862Y-15249442D01*
X12366862Y-15268490D02*
X12376386Y-15258966D01*
X12395433Y-15249442D01*
X12424005Y-15249442D01*
X12443052Y-15258966D01*
X12452576Y-15278014D01*
X12452576Y-15382776D01*
X12452576Y-15278014D02*
X12462100Y-15258966D01*
X12481148Y-15249442D01*
X12509719Y-15249442D01*
X12528767Y-15258966D01*
X12538290Y-15278014D01*
X12538290Y-15382776D01*
X12633528Y-15382776D02*
X12633528Y-15249442D01*
X12633528Y-15268490D02*
X12643052Y-15258966D01*
X12662100Y-15249442D01*
X12690671Y-15249442D01*
X12709719Y-15258966D01*
X12719243Y-15278014D01*
X12719243Y-15382776D01*
X12719243Y-15278014D02*
X12728767Y-15258966D01*
X12747814Y-15249442D01*
X12776386Y-15249442D01*
X12795433Y-15258966D01*
X12804957Y-15278014D01*
X12804957Y-15382776D01*
X13195433Y-15173252D02*
X13024005Y-15430395D01*
X13452576Y-15182776D02*
X13471624Y-15182776D01*
X13490671Y-15192300D01*
X13500195Y-15201823D01*
X13509719Y-15220871D01*
X13519243Y-15258966D01*
X13519243Y-15306585D01*
X13509719Y-15344681D01*
X13500195Y-15363728D01*
X13490671Y-15373252D01*
X13471624Y-15382776D01*
X13452576Y-15382776D01*
X13433528Y-15373252D01*
X13424005Y-15363728D01*
X13414481Y-15344681D01*
X13404957Y-15306585D01*
X13404957Y-15258966D01*
X13414481Y-15220871D01*
X13424005Y-15201823D01*
X13433528Y-15192300D01*
X13452576Y-15182776D01*
X13604957Y-15363728D02*
X13614481Y-15373252D01*
X13604957Y-15382776D01*
X13595433Y-15373252D01*
X13604957Y-15363728D01*
X13604957Y-15382776D01*
X13738290Y-15182776D02*
X13757338Y-15182776D01*
X13776386Y-15192300D01*
X13785909Y-15201823D01*
X13795433Y-15220871D01*
X13804957Y-15258966D01*
X13804957Y-15306585D01*
X13795433Y-15344681D01*
X13785909Y-15363728D01*
X13776386Y-15373252D01*
X13757338Y-15382776D01*
X13738290Y-15382776D01*
X13719243Y-15373252D01*
X13709719Y-15363728D01*
X13700195Y-15344681D01*
X13690671Y-15306585D01*
X13690671Y-15258966D01*
X13700195Y-15220871D01*
X13709719Y-15201823D01*
X13719243Y-15192300D01*
X13738290Y-15182776D01*
X13995433Y-15382776D02*
X13881148Y-15382776D01*
X13938290Y-15382776D02*
X13938290Y-15182776D01*
X13919243Y-15211347D01*
X13900195Y-15230395D01*
X13881148Y-15239919D01*
X14176386Y-15182776D02*
X14081148Y-15182776D01*
X14071624Y-15278014D01*
X14081148Y-15268490D01*
X14100195Y-15258966D01*
X14147814Y-15258966D01*
X14166862Y-15268490D01*
X14176386Y-15278014D01*
X14185909Y-15297062D01*
X14185909Y-15344681D01*
X14176386Y-15363728D01*
X14166862Y-15373252D01*
X14147814Y-15382776D01*
X14100195Y-15382776D01*
X14081148Y-15373252D01*
X14071624Y-15363728D01*
X14252576Y-15182776D02*
X14385909Y-15182776D01*
X14300195Y-15382776D01*
X14452576Y-15182776D02*
X14452576Y-15220871D01*
X14528767Y-15182776D02*
X14528767Y-15220871D01*
X14824005Y-15458966D02*
X14814481Y-15449442D01*
X14795433Y-15420871D01*
X14785909Y-15401823D01*
X14776386Y-15373252D01*
X14766862Y-15325633D01*
X14766862Y-15287538D01*
X14776386Y-15239919D01*
X14785909Y-15211347D01*
X14795433Y-15192300D01*
X14814481Y-15163728D01*
X14824005Y-15154204D01*
X15004957Y-15382776D02*
X14890671Y-15382776D01*
X14947814Y-15382776D02*
X14947814Y-15182776D01*
X14928767Y-15211347D01*
X14909719Y-15230395D01*
X14890671Y-15239919D01*
X15128767Y-15182776D02*
X15147814Y-15182776D01*
X15166862Y-15192300D01*
X15176386Y-15201823D01*
X15185909Y-15220871D01*
X15195433Y-15258966D01*
X15195433Y-15306585D01*
X15185909Y-15344681D01*
X15176386Y-15363728D01*
X15166862Y-15373252D01*
X15147814Y-15382776D01*
X15128767Y-15382776D01*
X15109719Y-15373252D01*
X15100195Y-15363728D01*
X15090671Y-15344681D01*
X15081148Y-15306585D01*
X15081148Y-15258966D01*
X15090671Y-15220871D01*
X15100195Y-15201823D01*
X15109719Y-15192300D01*
X15128767Y-15182776D01*
X15433528Y-15382776D02*
X15433528Y-15182776D01*
X15519243Y-15382776D02*
X15519243Y-15278014D01*
X15509719Y-15258966D01*
X15490671Y-15249442D01*
X15462100Y-15249442D01*
X15443052Y-15258966D01*
X15433528Y-15268490D01*
X15643052Y-15382776D02*
X15624005Y-15373252D01*
X15614481Y-15363728D01*
X15604957Y-15344681D01*
X15604957Y-15287538D01*
X15614481Y-15268490D01*
X15624005Y-15258966D01*
X15643052Y-15249442D01*
X15671624Y-15249442D01*
X15690671Y-15258966D01*
X15700195Y-15268490D01*
X15709719Y-15287538D01*
X15709719Y-15344681D01*
X15700195Y-15363728D01*
X15690671Y-15373252D01*
X15671624Y-15382776D01*
X15643052Y-15382776D01*
X15824005Y-15382776D02*
X15804957Y-15373252D01*
X15795433Y-15354204D01*
X15795433Y-15182776D01*
X15976386Y-15373252D02*
X15957338Y-15382776D01*
X15919243Y-15382776D01*
X15900195Y-15373252D01*
X15890671Y-15354204D01*
X15890671Y-15278014D01*
X15900195Y-15258966D01*
X15919243Y-15249442D01*
X15957338Y-15249442D01*
X15976386Y-15258966D01*
X15985909Y-15278014D01*
X15985909Y-15297062D01*
X15890671Y-15316109D01*
X16062100Y-15373252D02*
X16081148Y-15382776D01*
X16119243Y-15382776D01*
X16138290Y-15373252D01*
X16147814Y-15354204D01*
X16147814Y-15344681D01*
X16138290Y-15325633D01*
X16119243Y-15316109D01*
X16090671Y-15316109D01*
X16071624Y-15306585D01*
X16062100Y-15287538D01*
X16062100Y-15278014D01*
X16071624Y-15258966D01*
X16090671Y-15249442D01*
X16119243Y-15249442D01*
X16138290Y-15258966D01*
X16214481Y-15458966D02*
X16224005Y-15449442D01*
X16243052Y-15420871D01*
X16252576Y-15401823D01*
X16262100Y-15373252D01*
X16271624Y-15325633D01*
X16271624Y-15287538D01*
X16262100Y-15239919D01*
X16252576Y-15211347D01*
X16243052Y-15192300D01*
X16224005Y-15163728D01*
X16214481Y-15154204D01*
D14*
X11252100Y-15556300D02*
G75*
G03*
X11252100Y-15556300I-50000J0D01*
G01*
D12*
X11614481Y-15646776D02*
X11500195Y-15646776D01*
X11557338Y-15646776D02*
X11557338Y-15446776D01*
X11538290Y-15475347D01*
X11519243Y-15494395D01*
X11500195Y-15503919D01*
X11700195Y-15627728D02*
X11709719Y-15637252D01*
X11700195Y-15646776D01*
X11690671Y-15637252D01*
X11700195Y-15627728D01*
X11700195Y-15646776D01*
X11833528Y-15446776D02*
X11852576Y-15446776D01*
X11871624Y-15456300D01*
X11881148Y-15465823D01*
X11890671Y-15484871D01*
X11900195Y-15522966D01*
X11900195Y-15570585D01*
X11890671Y-15608681D01*
X11881148Y-15627728D01*
X11871624Y-15637252D01*
X11852576Y-15646776D01*
X11833528Y-15646776D01*
X11814481Y-15637252D01*
X11804957Y-15627728D01*
X11795433Y-15608681D01*
X11785909Y-15570585D01*
X11785909Y-15522966D01*
X11795433Y-15484871D01*
X11804957Y-15465823D01*
X11814481Y-15456300D01*
X11833528Y-15446776D01*
X12024005Y-15446776D02*
X12043052Y-15446776D01*
X12062100Y-15456300D01*
X12071624Y-15465823D01*
X12081148Y-15484871D01*
X12090671Y-15522966D01*
X12090671Y-15570585D01*
X12081148Y-15608681D01*
X12071624Y-15627728D01*
X12062100Y-15637252D01*
X12043052Y-15646776D01*
X12024005Y-15646776D01*
X12004957Y-15637252D01*
X11995433Y-15627728D01*
X11985909Y-15608681D01*
X11976386Y-15570585D01*
X11976386Y-15522966D01*
X11985909Y-15484871D01*
X11995433Y-15465823D01*
X12004957Y-15456300D01*
X12024005Y-15446776D01*
X12214481Y-15446776D02*
X12233528Y-15446776D01*
X12252576Y-15456300D01*
X12262100Y-15465823D01*
X12271624Y-15484871D01*
X12281148Y-15522966D01*
X12281148Y-15570585D01*
X12271624Y-15608681D01*
X12262100Y-15627728D01*
X12252576Y-15637252D01*
X12233528Y-15646776D01*
X12214481Y-15646776D01*
X12195433Y-15637252D01*
X12185909Y-15627728D01*
X12176386Y-15608681D01*
X12166862Y-15570585D01*
X12166862Y-15522966D01*
X12176386Y-15484871D01*
X12185909Y-15465823D01*
X12195433Y-15456300D01*
X12214481Y-15446776D01*
X12366862Y-15646776D02*
X12366862Y-15513442D01*
X12366862Y-15532490D02*
X12376386Y-15522966D01*
X12395433Y-15513442D01*
X12424005Y-15513442D01*
X12443052Y-15522966D01*
X12452576Y-15542014D01*
X12452576Y-15646776D01*
X12452576Y-15542014D02*
X12462100Y-15522966D01*
X12481148Y-15513442D01*
X12509719Y-15513442D01*
X12528767Y-15522966D01*
X12538290Y-15542014D01*
X12538290Y-15646776D01*
X12633528Y-15646776D02*
X12633528Y-15513442D01*
X12633528Y-15532490D02*
X12643052Y-15522966D01*
X12662100Y-15513442D01*
X12690671Y-15513442D01*
X12709719Y-15522966D01*
X12719243Y-15542014D01*
X12719243Y-15646776D01*
X12719243Y-15542014D02*
X12728767Y-15522966D01*
X12747814Y-15513442D01*
X12776386Y-15513442D01*
X12795433Y-15522966D01*
X12804957Y-15542014D01*
X12804957Y-15646776D01*
X13195433Y-15437252D02*
X13024005Y-15694395D01*
X13452576Y-15446776D02*
X13471624Y-15446776D01*
X13490671Y-15456300D01*
X13500195Y-15465823D01*
X13509719Y-15484871D01*
X13519243Y-15522966D01*
X13519243Y-15570585D01*
X13509719Y-15608681D01*
X13500195Y-15627728D01*
X13490671Y-15637252D01*
X13471624Y-15646776D01*
X13452576Y-15646776D01*
X13433528Y-15637252D01*
X13424005Y-15627728D01*
X13414481Y-15608681D01*
X13404957Y-15570585D01*
X13404957Y-15522966D01*
X13414481Y-15484871D01*
X13424005Y-15465823D01*
X13433528Y-15456300D01*
X13452576Y-15446776D01*
X13604957Y-15627728D02*
X13614481Y-15637252D01*
X13604957Y-15646776D01*
X13595433Y-15637252D01*
X13604957Y-15627728D01*
X13604957Y-15646776D01*
X13738290Y-15446776D02*
X13757338Y-15446776D01*
X13776386Y-15456300D01*
X13785909Y-15465823D01*
X13795433Y-15484871D01*
X13804957Y-15522966D01*
X13804957Y-15570585D01*
X13795433Y-15608681D01*
X13785909Y-15627728D01*
X13776386Y-15637252D01*
X13757338Y-15646776D01*
X13738290Y-15646776D01*
X13719243Y-15637252D01*
X13709719Y-15627728D01*
X13700195Y-15608681D01*
X13690671Y-15570585D01*
X13690671Y-15522966D01*
X13700195Y-15484871D01*
X13709719Y-15465823D01*
X13719243Y-15456300D01*
X13738290Y-15446776D01*
X13871624Y-15446776D02*
X13995433Y-15446776D01*
X13928767Y-15522966D01*
X13957338Y-15522966D01*
X13976386Y-15532490D01*
X13985909Y-15542014D01*
X13995433Y-15561062D01*
X13995433Y-15608681D01*
X13985909Y-15627728D01*
X13976386Y-15637252D01*
X13957338Y-15646776D01*
X13900195Y-15646776D01*
X13881148Y-15637252D01*
X13871624Y-15627728D01*
X14090671Y-15646776D02*
X14128767Y-15646776D01*
X14147814Y-15637252D01*
X14157338Y-15627728D01*
X14176386Y-15599157D01*
X14185909Y-15561062D01*
X14185909Y-15484871D01*
X14176386Y-15465823D01*
X14166862Y-15456300D01*
X14147814Y-15446776D01*
X14109719Y-15446776D01*
X14090671Y-15456300D01*
X14081148Y-15465823D01*
X14071624Y-15484871D01*
X14071624Y-15532490D01*
X14081148Y-15551538D01*
X14090671Y-15561062D01*
X14109719Y-15570585D01*
X14147814Y-15570585D01*
X14166862Y-15561062D01*
X14176386Y-15551538D01*
X14185909Y-15532490D01*
X14357338Y-15513442D02*
X14357338Y-15646776D01*
X14309719Y-15437252D02*
X14262100Y-15580109D01*
X14385909Y-15580109D01*
X14452576Y-15446776D02*
X14452576Y-15484871D01*
X14528767Y-15446776D02*
X14528767Y-15484871D01*
X14824005Y-15722966D02*
X14814481Y-15713442D01*
X14795433Y-15684871D01*
X14785909Y-15665823D01*
X14776386Y-15637252D01*
X14766862Y-15589633D01*
X14766862Y-15551538D01*
X14776386Y-15503919D01*
X14785909Y-15475347D01*
X14795433Y-15456300D01*
X14814481Y-15427728D01*
X14824005Y-15418204D01*
X14985909Y-15446776D02*
X14947814Y-15446776D01*
X14928767Y-15456300D01*
X14919243Y-15465823D01*
X14900195Y-15494395D01*
X14890671Y-15532490D01*
X14890671Y-15608681D01*
X14900195Y-15627728D01*
X14909719Y-15637252D01*
X14928767Y-15646776D01*
X14966862Y-15646776D01*
X14985909Y-15637252D01*
X14995433Y-15627728D01*
X15004957Y-15608681D01*
X15004957Y-15561062D01*
X14995433Y-15542014D01*
X14985909Y-15532490D01*
X14966862Y-15522966D01*
X14928767Y-15522966D01*
X14909719Y-15532490D01*
X14900195Y-15542014D01*
X14890671Y-15561062D01*
X15243052Y-15646776D02*
X15243052Y-15446776D01*
X15328767Y-15646776D02*
X15328767Y-15542014D01*
X15319243Y-15522966D01*
X15300195Y-15513442D01*
X15271624Y-15513442D01*
X15252576Y-15522966D01*
X15243052Y-15532490D01*
X15452576Y-15646776D02*
X15433528Y-15637252D01*
X15424005Y-15627728D01*
X15414481Y-15608681D01*
X15414481Y-15551538D01*
X15424005Y-15532490D01*
X15433528Y-15522966D01*
X15452576Y-15513442D01*
X15481148Y-15513442D01*
X15500195Y-15522966D01*
X15509719Y-15532490D01*
X15519243Y-15551538D01*
X15519243Y-15608681D01*
X15509719Y-15627728D01*
X15500195Y-15637252D01*
X15481148Y-15646776D01*
X15452576Y-15646776D01*
X15633528Y-15646776D02*
X15614481Y-15637252D01*
X15604957Y-15618204D01*
X15604957Y-15446776D01*
X15785909Y-15637252D02*
X15766862Y-15646776D01*
X15728767Y-15646776D01*
X15709719Y-15637252D01*
X15700195Y-15618204D01*
X15700195Y-15542014D01*
X15709719Y-15522966D01*
X15728767Y-15513442D01*
X15766862Y-15513442D01*
X15785909Y-15522966D01*
X15795433Y-15542014D01*
X15795433Y-15561062D01*
X15700195Y-15580109D01*
X15871624Y-15637252D02*
X15890671Y-15646776D01*
X15928767Y-15646776D01*
X15947814Y-15637252D01*
X15957338Y-15618204D01*
X15957338Y-15608681D01*
X15947814Y-15589633D01*
X15928767Y-15580109D01*
X15900195Y-15580109D01*
X15881148Y-15570585D01*
X15871624Y-15551538D01*
X15871624Y-15542014D01*
X15881148Y-15522966D01*
X15900195Y-15513442D01*
X15928767Y-15513442D01*
X15947814Y-15522966D01*
X16024005Y-15722966D02*
X16033528Y-15713442D01*
X16052576Y-15684871D01*
X16062100Y-15665823D01*
X16071624Y-15637252D01*
X16081148Y-15589633D01*
X16081148Y-15551538D01*
X16071624Y-15503919D01*
X16062100Y-15475347D01*
X16052576Y-15456300D01*
X16033528Y-15427728D01*
X16024005Y-15418204D01*
D15*
X11187100Y-15755300D02*
X11187100Y-15885300D01*
X11122100Y-15820300D02*
X11252100Y-15820300D01*
D12*
X11614481Y-15910776D02*
X11500195Y-15910776D01*
X11557338Y-15910776D02*
X11557338Y-15710776D01*
X11538290Y-15739347D01*
X11519243Y-15758395D01*
X11500195Y-15767919D01*
X11700195Y-15891728D02*
X11709719Y-15901252D01*
X11700195Y-15910776D01*
X11690671Y-15901252D01*
X11700195Y-15891728D01*
X11700195Y-15910776D01*
X11776386Y-15710776D02*
X11900195Y-15710776D01*
X11833528Y-15786966D01*
X11862100Y-15786966D01*
X11881148Y-15796490D01*
X11890671Y-15806014D01*
X11900195Y-15825062D01*
X11900195Y-15872681D01*
X11890671Y-15891728D01*
X11881148Y-15901252D01*
X11862100Y-15910776D01*
X11804957Y-15910776D01*
X11785909Y-15901252D01*
X11776386Y-15891728D01*
X12024005Y-15710776D02*
X12043052Y-15710776D01*
X12062100Y-15720300D01*
X12071624Y-15729823D01*
X12081148Y-15748871D01*
X12090671Y-15786966D01*
X12090671Y-15834585D01*
X12081148Y-15872681D01*
X12071624Y-15891728D01*
X12062100Y-15901252D01*
X12043052Y-15910776D01*
X12024005Y-15910776D01*
X12004957Y-15901252D01*
X11995433Y-15891728D01*
X11985909Y-15872681D01*
X11976386Y-15834585D01*
X11976386Y-15786966D01*
X11985909Y-15748871D01*
X11995433Y-15729823D01*
X12004957Y-15720300D01*
X12024005Y-15710776D01*
X12214481Y-15710776D02*
X12233528Y-15710776D01*
X12252576Y-15720300D01*
X12262100Y-15729823D01*
X12271624Y-15748871D01*
X12281148Y-15786966D01*
X12281148Y-15834585D01*
X12271624Y-15872681D01*
X12262100Y-15891728D01*
X12252576Y-15901252D01*
X12233528Y-15910776D01*
X12214481Y-15910776D01*
X12195433Y-15901252D01*
X12185909Y-15891728D01*
X12176386Y-15872681D01*
X12166862Y-15834585D01*
X12166862Y-15786966D01*
X12176386Y-15748871D01*
X12185909Y-15729823D01*
X12195433Y-15720300D01*
X12214481Y-15710776D01*
X12366862Y-15910776D02*
X12366862Y-15777442D01*
X12366862Y-15796490D02*
X12376386Y-15786966D01*
X12395433Y-15777442D01*
X12424005Y-15777442D01*
X12443052Y-15786966D01*
X12452576Y-15806014D01*
X12452576Y-15910776D01*
X12452576Y-15806014D02*
X12462100Y-15786966D01*
X12481148Y-15777442D01*
X12509719Y-15777442D01*
X12528767Y-15786966D01*
X12538290Y-15806014D01*
X12538290Y-15910776D01*
X12633528Y-15910776D02*
X12633528Y-15777442D01*
X12633528Y-15796490D02*
X12643052Y-15786966D01*
X12662100Y-15777442D01*
X12690671Y-15777442D01*
X12709719Y-15786966D01*
X12719243Y-15806014D01*
X12719243Y-15910776D01*
X12719243Y-15806014D02*
X12728767Y-15786966D01*
X12747814Y-15777442D01*
X12776386Y-15777442D01*
X12795433Y-15786966D01*
X12804957Y-15806014D01*
X12804957Y-15910776D01*
X13195433Y-15701252D02*
X13024005Y-15958395D01*
X13452576Y-15710776D02*
X13471624Y-15710776D01*
X13490671Y-15720300D01*
X13500195Y-15729823D01*
X13509719Y-15748871D01*
X13519243Y-15786966D01*
X13519243Y-15834585D01*
X13509719Y-15872681D01*
X13500195Y-15891728D01*
X13490671Y-15901252D01*
X13471624Y-15910776D01*
X13452576Y-15910776D01*
X13433528Y-15901252D01*
X13424005Y-15891728D01*
X13414481Y-15872681D01*
X13404957Y-15834585D01*
X13404957Y-15786966D01*
X13414481Y-15748871D01*
X13424005Y-15729823D01*
X13433528Y-15720300D01*
X13452576Y-15710776D01*
X13604957Y-15891728D02*
X13614481Y-15901252D01*
X13604957Y-15910776D01*
X13595433Y-15901252D01*
X13604957Y-15891728D01*
X13604957Y-15910776D01*
X13738290Y-15710776D02*
X13757338Y-15710776D01*
X13776386Y-15720300D01*
X13785909Y-15729823D01*
X13795433Y-15748871D01*
X13804957Y-15786966D01*
X13804957Y-15834585D01*
X13795433Y-15872681D01*
X13785909Y-15891728D01*
X13776386Y-15901252D01*
X13757338Y-15910776D01*
X13738290Y-15910776D01*
X13719243Y-15901252D01*
X13709719Y-15891728D01*
X13700195Y-15872681D01*
X13690671Y-15834585D01*
X13690671Y-15786966D01*
X13700195Y-15748871D01*
X13709719Y-15729823D01*
X13719243Y-15720300D01*
X13738290Y-15710776D01*
X13985909Y-15710776D02*
X13890671Y-15710776D01*
X13881148Y-15806014D01*
X13890671Y-15796490D01*
X13909719Y-15786966D01*
X13957338Y-15786966D01*
X13976386Y-15796490D01*
X13985909Y-15806014D01*
X13995433Y-15825062D01*
X13995433Y-15872681D01*
X13985909Y-15891728D01*
X13976386Y-15901252D01*
X13957338Y-15910776D01*
X13909719Y-15910776D01*
X13890671Y-15901252D01*
X13881148Y-15891728D01*
X14185909Y-15910776D02*
X14071624Y-15910776D01*
X14128767Y-15910776D02*
X14128767Y-15710776D01*
X14109719Y-15739347D01*
X14090671Y-15758395D01*
X14071624Y-15767919D01*
X14262100Y-15729823D02*
X14271624Y-15720300D01*
X14290671Y-15710776D01*
X14338290Y-15710776D01*
X14357338Y-15720300D01*
X14366862Y-15729823D01*
X14376386Y-15748871D01*
X14376386Y-15767919D01*
X14366862Y-15796490D01*
X14252576Y-15910776D01*
X14376386Y-15910776D01*
X14452576Y-15710776D02*
X14452576Y-15748871D01*
X14528767Y-15710776D02*
X14528767Y-15748871D01*
X14824005Y-15986966D02*
X14814481Y-15977442D01*
X14795433Y-15948871D01*
X14785909Y-15929823D01*
X14776386Y-15901252D01*
X14766862Y-15853633D01*
X14766862Y-15815538D01*
X14776386Y-15767919D01*
X14785909Y-15739347D01*
X14795433Y-15720300D01*
X14814481Y-15691728D01*
X14824005Y-15682204D01*
X14890671Y-15729823D02*
X14900195Y-15720300D01*
X14919243Y-15710776D01*
X14966862Y-15710776D01*
X14985909Y-15720300D01*
X14995433Y-15729823D01*
X15004957Y-15748871D01*
X15004957Y-15767919D01*
X14995433Y-15796490D01*
X14881148Y-15910776D01*
X15004957Y-15910776D01*
X15243052Y-15910776D02*
X15243052Y-15710776D01*
X15328767Y-15910776D02*
X15328767Y-15806014D01*
X15319243Y-15786966D01*
X15300195Y-15777442D01*
X15271624Y-15777442D01*
X15252576Y-15786966D01*
X15243052Y-15796490D01*
X15452576Y-15910776D02*
X15433528Y-15901252D01*
X15424005Y-15891728D01*
X15414481Y-15872681D01*
X15414481Y-15815538D01*
X15424005Y-15796490D01*
X15433528Y-15786966D01*
X15452576Y-15777442D01*
X15481148Y-15777442D01*
X15500195Y-15786966D01*
X15509719Y-15796490D01*
X15519243Y-15815538D01*
X15519243Y-15872681D01*
X15509719Y-15891728D01*
X15500195Y-15901252D01*
X15481148Y-15910776D01*
X15452576Y-15910776D01*
X15633528Y-15910776D02*
X15614481Y-15901252D01*
X15604957Y-15882204D01*
X15604957Y-15710776D01*
X15785909Y-15901252D02*
X15766862Y-15910776D01*
X15728767Y-15910776D01*
X15709719Y-15901252D01*
X15700195Y-15882204D01*
X15700195Y-15806014D01*
X15709719Y-15786966D01*
X15728767Y-15777442D01*
X15766862Y-15777442D01*
X15785909Y-15786966D01*
X15795433Y-15806014D01*
X15795433Y-15825062D01*
X15700195Y-15844109D01*
X15871624Y-15901252D02*
X15890671Y-15910776D01*
X15928767Y-15910776D01*
X15947814Y-15901252D01*
X15957338Y-15882204D01*
X15957338Y-15872681D01*
X15947814Y-15853633D01*
X15928767Y-15844109D01*
X15900195Y-15844109D01*
X15881148Y-15834585D01*
X15871624Y-15815538D01*
X15871624Y-15806014D01*
X15881148Y-15786966D01*
X15900195Y-15777442D01*
X15928767Y-15777442D01*
X15947814Y-15786966D01*
X16024005Y-15986966D02*
X16033528Y-15977442D01*
X16052576Y-15948871D01*
X16062100Y-15929823D01*
X16071624Y-15901252D01*
X16081148Y-15853633D01*
X16081148Y-15815538D01*
X16071624Y-15767919D01*
X16062100Y-15739347D01*
X16052576Y-15720300D01*
X16033528Y-15691728D01*
X16024005Y-15682204D01*
X11222811Y-16155011D02*
X11222811Y-16013588D01*
X11081389Y-16013588D01*
X11081389Y-16155011D01*
X11222811Y-16155011D01*
X11500195Y-15993823D02*
X11509719Y-15984300D01*
X11528767Y-15974776D01*
X11576386Y-15974776D01*
X11595433Y-15984300D01*
X11604957Y-15993823D01*
X11614481Y-16012871D01*
X11614481Y-16031919D01*
X11604957Y-16060490D01*
X11490671Y-16174776D01*
X11614481Y-16174776D01*
X11700195Y-16155728D02*
X11709719Y-16165252D01*
X11700195Y-16174776D01*
X11690671Y-16165252D01*
X11700195Y-16155728D01*
X11700195Y-16174776D01*
X11785909Y-15993823D02*
X11795433Y-15984300D01*
X11814481Y-15974776D01*
X11862100Y-15974776D01*
X11881148Y-15984300D01*
X11890671Y-15993823D01*
X11900195Y-16012871D01*
X11900195Y-16031919D01*
X11890671Y-16060490D01*
X11776386Y-16174776D01*
X11900195Y-16174776D01*
X12024005Y-15974776D02*
X12043052Y-15974776D01*
X12062100Y-15984300D01*
X12071624Y-15993823D01*
X12081148Y-16012871D01*
X12090671Y-16050966D01*
X12090671Y-16098585D01*
X12081148Y-16136681D01*
X12071624Y-16155728D01*
X12062100Y-16165252D01*
X12043052Y-16174776D01*
X12024005Y-16174776D01*
X12004957Y-16165252D01*
X11995433Y-16155728D01*
X11985909Y-16136681D01*
X11976386Y-16098585D01*
X11976386Y-16050966D01*
X11985909Y-16012871D01*
X11995433Y-15993823D01*
X12004957Y-15984300D01*
X12024005Y-15974776D01*
X12214481Y-15974776D02*
X12233528Y-15974776D01*
X12252576Y-15984300D01*
X12262100Y-15993823D01*
X12271624Y-16012871D01*
X12281148Y-16050966D01*
X12281148Y-16098585D01*
X12271624Y-16136681D01*
X12262100Y-16155728D01*
X12252576Y-16165252D01*
X12233528Y-16174776D01*
X12214481Y-16174776D01*
X12195433Y-16165252D01*
X12185909Y-16155728D01*
X12176386Y-16136681D01*
X12166862Y-16098585D01*
X12166862Y-16050966D01*
X12176386Y-16012871D01*
X12185909Y-15993823D01*
X12195433Y-15984300D01*
X12214481Y-15974776D01*
X12366862Y-16174776D02*
X12366862Y-16041442D01*
X12366862Y-16060490D02*
X12376386Y-16050966D01*
X12395433Y-16041442D01*
X12424005Y-16041442D01*
X12443052Y-16050966D01*
X12452576Y-16070014D01*
X12452576Y-16174776D01*
X12452576Y-16070014D02*
X12462100Y-16050966D01*
X12481148Y-16041442D01*
X12509719Y-16041442D01*
X12528767Y-16050966D01*
X12538290Y-16070014D01*
X12538290Y-16174776D01*
X12633528Y-16174776D02*
X12633528Y-16041442D01*
X12633528Y-16060490D02*
X12643052Y-16050966D01*
X12662100Y-16041442D01*
X12690671Y-16041442D01*
X12709719Y-16050966D01*
X12719243Y-16070014D01*
X12719243Y-16174776D01*
X12719243Y-16070014D02*
X12728767Y-16050966D01*
X12747814Y-16041442D01*
X12776386Y-16041442D01*
X12795433Y-16050966D01*
X12804957Y-16070014D01*
X12804957Y-16174776D01*
X13195433Y-15965252D02*
X13024005Y-16222395D01*
X13452576Y-15974776D02*
X13471624Y-15974776D01*
X13490671Y-15984300D01*
X13500195Y-15993823D01*
X13509719Y-16012871D01*
X13519243Y-16050966D01*
X13519243Y-16098585D01*
X13509719Y-16136681D01*
X13500195Y-16155728D01*
X13490671Y-16165252D01*
X13471624Y-16174776D01*
X13452576Y-16174776D01*
X13433528Y-16165252D01*
X13424005Y-16155728D01*
X13414481Y-16136681D01*
X13404957Y-16098585D01*
X13404957Y-16050966D01*
X13414481Y-16012871D01*
X13424005Y-15993823D01*
X13433528Y-15984300D01*
X13452576Y-15974776D01*
X13604957Y-16155728D02*
X13614481Y-16165252D01*
X13604957Y-16174776D01*
X13595433Y-16165252D01*
X13604957Y-16155728D01*
X13604957Y-16174776D01*
X13738290Y-15974776D02*
X13757338Y-15974776D01*
X13776386Y-15984300D01*
X13785909Y-15993823D01*
X13795433Y-16012871D01*
X13804957Y-16050966D01*
X13804957Y-16098585D01*
X13795433Y-16136681D01*
X13785909Y-16155728D01*
X13776386Y-16165252D01*
X13757338Y-16174776D01*
X13738290Y-16174776D01*
X13719243Y-16165252D01*
X13709719Y-16155728D01*
X13700195Y-16136681D01*
X13690671Y-16098585D01*
X13690671Y-16050966D01*
X13700195Y-16012871D01*
X13709719Y-15993823D01*
X13719243Y-15984300D01*
X13738290Y-15974776D01*
X13919243Y-16060490D02*
X13900195Y-16050966D01*
X13890671Y-16041442D01*
X13881148Y-16022395D01*
X13881148Y-16012871D01*
X13890671Y-15993823D01*
X13900195Y-15984300D01*
X13919243Y-15974776D01*
X13957338Y-15974776D01*
X13976386Y-15984300D01*
X13985909Y-15993823D01*
X13995433Y-16012871D01*
X13995433Y-16022395D01*
X13985909Y-16041442D01*
X13976386Y-16050966D01*
X13957338Y-16060490D01*
X13919243Y-16060490D01*
X13900195Y-16070014D01*
X13890671Y-16079538D01*
X13881148Y-16098585D01*
X13881148Y-16136681D01*
X13890671Y-16155728D01*
X13900195Y-16165252D01*
X13919243Y-16174776D01*
X13957338Y-16174776D01*
X13976386Y-16165252D01*
X13985909Y-16155728D01*
X13995433Y-16136681D01*
X13995433Y-16098585D01*
X13985909Y-16079538D01*
X13976386Y-16070014D01*
X13957338Y-16060490D01*
X14166862Y-15974776D02*
X14128767Y-15974776D01*
X14109719Y-15984300D01*
X14100195Y-15993823D01*
X14081148Y-16022395D01*
X14071624Y-16060490D01*
X14071624Y-16136681D01*
X14081148Y-16155728D01*
X14090671Y-16165252D01*
X14109719Y-16174776D01*
X14147814Y-16174776D01*
X14166862Y-16165252D01*
X14176386Y-16155728D01*
X14185909Y-16136681D01*
X14185909Y-16089062D01*
X14176386Y-16070014D01*
X14166862Y-16060490D01*
X14147814Y-16050966D01*
X14109719Y-16050966D01*
X14090671Y-16060490D01*
X14081148Y-16070014D01*
X14071624Y-16089062D01*
X14357338Y-15974776D02*
X14319243Y-15974776D01*
X14300195Y-15984300D01*
X14290671Y-15993823D01*
X14271624Y-16022395D01*
X14262100Y-16060490D01*
X14262100Y-16136681D01*
X14271624Y-16155728D01*
X14281148Y-16165252D01*
X14300195Y-16174776D01*
X14338290Y-16174776D01*
X14357338Y-16165252D01*
X14366862Y-16155728D01*
X14376386Y-16136681D01*
X14376386Y-16089062D01*
X14366862Y-16070014D01*
X14357338Y-16060490D01*
X14338290Y-16050966D01*
X14300195Y-16050966D01*
X14281148Y-16060490D01*
X14271624Y-16070014D01*
X14262100Y-16089062D01*
X14452576Y-15974776D02*
X14452576Y-16012871D01*
X14528767Y-15974776D02*
X14528767Y-16012871D01*
X14824005Y-16250966D02*
X14814481Y-16241442D01*
X14795433Y-16212871D01*
X14785909Y-16193823D01*
X14776386Y-16165252D01*
X14766862Y-16117633D01*
X14766862Y-16079538D01*
X14776386Y-16031919D01*
X14785909Y-16003347D01*
X14795433Y-15984300D01*
X14814481Y-15955728D01*
X14824005Y-15946204D01*
X14985909Y-16041442D02*
X14985909Y-16174776D01*
X14938290Y-15965252D02*
X14890671Y-16108109D01*
X15014481Y-16108109D01*
X15243052Y-16174776D02*
X15243052Y-15974776D01*
X15328767Y-16174776D02*
X15328767Y-16070014D01*
X15319243Y-16050966D01*
X15300195Y-16041442D01*
X15271624Y-16041442D01*
X15252576Y-16050966D01*
X15243052Y-16060490D01*
X15452576Y-16174776D02*
X15433528Y-16165252D01*
X15424005Y-16155728D01*
X15414481Y-16136681D01*
X15414481Y-16079538D01*
X15424005Y-16060490D01*
X15433528Y-16050966D01*
X15452576Y-16041442D01*
X15481148Y-16041442D01*
X15500195Y-16050966D01*
X15509719Y-16060490D01*
X15519243Y-16079538D01*
X15519243Y-16136681D01*
X15509719Y-16155728D01*
X15500195Y-16165252D01*
X15481148Y-16174776D01*
X15452576Y-16174776D01*
X15633528Y-16174776D02*
X15614481Y-16165252D01*
X15604957Y-16146204D01*
X15604957Y-15974776D01*
X15785909Y-16165252D02*
X15766862Y-16174776D01*
X15728767Y-16174776D01*
X15709719Y-16165252D01*
X15700195Y-16146204D01*
X15700195Y-16070014D01*
X15709719Y-16050966D01*
X15728767Y-16041442D01*
X15766862Y-16041442D01*
X15785909Y-16050966D01*
X15795433Y-16070014D01*
X15795433Y-16089062D01*
X15700195Y-16108109D01*
X15871624Y-16165252D02*
X15890671Y-16174776D01*
X15928767Y-16174776D01*
X15947814Y-16165252D01*
X15957338Y-16146204D01*
X15957338Y-16136681D01*
X15947814Y-16117633D01*
X15928767Y-16108109D01*
X15900195Y-16108109D01*
X15881148Y-16098585D01*
X15871624Y-16079538D01*
X15871624Y-16070014D01*
X15881148Y-16050966D01*
X15900195Y-16041442D01*
X15928767Y-16041442D01*
X15947814Y-16050966D01*
X16024005Y-16250966D02*
X16033528Y-16241442D01*
X16052576Y-16212871D01*
X16062100Y-16193823D01*
X16071624Y-16165252D01*
X16081148Y-16117633D01*
X16081148Y-16079538D01*
X16071624Y-16031919D01*
X16062100Y-16003347D01*
X16052576Y-15984300D01*
X16033528Y-15955728D01*
X16024005Y-15946204D01*
M02*
