%FSLAX45Y45*%
G04 Gerber Fmt 4.5, Leading zero omitted, Abs format (unit mm)*
G04 Created by KiCad (PCBNEW (6.0.5)) date 2023-05-08 02:29:26*
%MOMM*%
%LPD*%
G01*
G04 APERTURE LIST*
%TA.AperFunction,Profile*%
%ADD10C,0.050000*%
%TD*%
%TA.AperFunction,Profile*%
%ADD11C,0.100000*%
%TD*%
%ADD12C,0.200000*%
%ADD13C,0.040000*%
%ADD14C,0.100000*%
%ADD15C,0.130000*%
%ADD16C,0.220000*%
G04 APERTURE END LIST*
D10*
X15938800Y-14068320D02*
X15938800Y-14168320D01*
X10751600Y-14068320D02*
X9624200Y-14068320D01*
D11*
X11249000Y-7551002D02*
G75*
G03*
X11048772Y-7751679I450J-200678D01*
G01*
D10*
X18193600Y-13016760D02*
X18193800Y-5587000D01*
X10751600Y-14168320D02*
X10751600Y-14068320D01*
D11*
X15433452Y-10952000D02*
X11249679Y-10951000D01*
D10*
X18193800Y-5587000D02*
X17066400Y-5587000D01*
X17066200Y-14068320D02*
X17066200Y-13016760D01*
X8497000Y-5587000D02*
X8496800Y-13016760D01*
D11*
X11049001Y-10750772D02*
G75*
G03*
X11249679Y-10951000I200679J452D01*
G01*
D10*
X9624400Y-5587000D02*
X9624400Y-4535440D01*
D11*
X11249000Y-7551000D02*
X15432000Y-7551320D01*
X11048772Y-7751679D02*
X11049000Y-10750772D01*
D10*
X18193600Y-13016760D02*
X17066200Y-13016760D01*
X10751800Y-4535440D02*
X10751800Y-4435440D01*
X17066400Y-4535440D02*
X15939000Y-4535440D01*
D11*
X15632679Y-7751548D02*
X15633680Y-10751321D01*
X15433452Y-10952000D02*
G75*
G03*
X15633680Y-10751321I-452J200680D01*
G01*
D10*
X17066400Y-5587000D02*
X17066400Y-4535440D01*
X10751800Y-4535440D02*
X9624400Y-4535440D01*
X15938800Y-14168320D02*
X10751600Y-14168320D01*
X15939000Y-4435440D02*
X15939000Y-4535440D01*
X15939000Y-4435440D02*
X10751800Y-4435440D01*
X9624200Y-13016760D02*
X8496800Y-13016760D01*
X17066200Y-14068320D02*
X15938800Y-14068320D01*
X9624200Y-14068320D02*
X9624200Y-13016760D01*
X9624400Y-5587000D02*
X8497000Y-5587000D01*
D11*
X15632679Y-7751548D02*
G75*
G03*
X15432000Y-7551320I-200680J-452D01*
G01*
D12*
D13*
X8561000Y-12937000D02*
X8601000Y-12977000D01*
X8601000Y-12937000D02*
X8561000Y-12977000D01*
X9961400Y-12914000D02*
X10001400Y-12954000D01*
X10001400Y-12914000D02*
X9961400Y-12954000D01*
X10206200Y-12914000D02*
X10246200Y-12954000D01*
X10246200Y-12914000D02*
X10206200Y-12954000D01*
X10460800Y-10955600D02*
X10500800Y-10995600D01*
X10500800Y-10955600D02*
X10460800Y-10995600D01*
X10583200Y-10955600D02*
X10623200Y-10995600D01*
X10623200Y-10955600D02*
X10583200Y-10995600D01*
X10705600Y-10955600D02*
X10745600Y-10995600D01*
X10745600Y-10955600D02*
X10705600Y-10995600D01*
X10828000Y-10955600D02*
X10868000Y-10995600D01*
X10868000Y-10955600D02*
X10828000Y-10995600D01*
D14*
X10675400Y-5528560D02*
G75*
G03*
X10675400Y-5528560I-50000J0D01*
G01*
X10929400Y-5528560D02*
G75*
G03*
X10929400Y-5528560I-50000J0D01*
G01*
X11183400Y-5528560D02*
G75*
G03*
X11183400Y-5528560I-50000J0D01*
G01*
X11437400Y-5528560D02*
G75*
G03*
X11437400Y-5528560I-50000J0D01*
G01*
X11691400Y-5528560D02*
G75*
G03*
X11691400Y-5528560I-50000J0D01*
G01*
X11945400Y-5528560D02*
G75*
G03*
X11945400Y-5528560I-50000J0D01*
G01*
X12199400Y-5528560D02*
G75*
G03*
X12199400Y-5528560I-50000J0D01*
G01*
X12453400Y-5528560D02*
G75*
G03*
X12453400Y-5528560I-50000J0D01*
G01*
D15*
X10897600Y-9456760D02*
X10897600Y-9586760D01*
X10832600Y-9521760D02*
X10962600Y-9521760D01*
X10897600Y-10218760D02*
X10897600Y-10348760D01*
X10832600Y-10283760D02*
X10962600Y-10283760D01*
D16*
X10676583Y-5129103D02*
X10676583Y-4973538D01*
X10521018Y-4973538D01*
X10521018Y-5129103D01*
X10676583Y-5129103D01*
X10676583Y-13629102D02*
X10676583Y-13473537D01*
X10521018Y-13473537D01*
X10521018Y-13629102D01*
X10676583Y-13629102D01*
X16343982Y-5129103D02*
X16343982Y-4973538D01*
X16188417Y-4973538D01*
X16188417Y-5129103D01*
X16343982Y-5129103D01*
X16343982Y-13629102D02*
X16343982Y-13473537D01*
X16188417Y-13473537D01*
X16188417Y-13629102D01*
X16343982Y-13629102D01*
D12*
X8751919Y-14481296D02*
X8751919Y-14281296D01*
X8799538Y-14281296D01*
X8828110Y-14290820D01*
X8847157Y-14309868D01*
X8856681Y-14328915D01*
X8866205Y-14367010D01*
X8866205Y-14395582D01*
X8856681Y-14433677D01*
X8847157Y-14452725D01*
X8828110Y-14471772D01*
X8799538Y-14481296D01*
X8751919Y-14481296D01*
X8951919Y-14481296D02*
X8951919Y-14347963D01*
X8951919Y-14386058D02*
X8961443Y-14367010D01*
X8970967Y-14357487D01*
X8990014Y-14347963D01*
X9009062Y-14347963D01*
X9075729Y-14481296D02*
X9075729Y-14347963D01*
X9075729Y-14281296D02*
X9066205Y-14290820D01*
X9075729Y-14300344D01*
X9085252Y-14290820D01*
X9075729Y-14281296D01*
X9075729Y-14300344D01*
X9199538Y-14481296D02*
X9180490Y-14471772D01*
X9170967Y-14452725D01*
X9170967Y-14281296D01*
X9304300Y-14481296D02*
X9285252Y-14471772D01*
X9275729Y-14452725D01*
X9275729Y-14281296D01*
X9532871Y-14481296D02*
X9532871Y-14281296D01*
X9599538Y-14424153D01*
X9666205Y-14281296D01*
X9666205Y-14481296D01*
X9847157Y-14481296D02*
X9847157Y-14376534D01*
X9837633Y-14357487D01*
X9818586Y-14347963D01*
X9780490Y-14347963D01*
X9761443Y-14357487D01*
X9847157Y-14471772D02*
X9828110Y-14481296D01*
X9780490Y-14481296D01*
X9761443Y-14471772D01*
X9751919Y-14452725D01*
X9751919Y-14433677D01*
X9761443Y-14414629D01*
X9780490Y-14405106D01*
X9828110Y-14405106D01*
X9847157Y-14395582D01*
X9942395Y-14347963D02*
X9942395Y-14547963D01*
X9942395Y-14357487D02*
X9961443Y-14347963D01*
X9999538Y-14347963D01*
X10018586Y-14357487D01*
X10028110Y-14367010D01*
X10037633Y-14386058D01*
X10037633Y-14443201D01*
X10028110Y-14462248D01*
X10018586Y-14471772D01*
X9999538Y-14481296D01*
X9961443Y-14481296D01*
X9942395Y-14471772D01*
X10123348Y-14462248D02*
X10132871Y-14471772D01*
X10123348Y-14481296D01*
X10113824Y-14471772D01*
X10123348Y-14462248D01*
X10123348Y-14481296D01*
X10123348Y-14357487D02*
X10132871Y-14367010D01*
X10123348Y-14376534D01*
X10113824Y-14367010D01*
X10123348Y-14357487D01*
X10123348Y-14376534D01*
D13*
X8454300Y-14790820D02*
X8494300Y-14830820D01*
X8494300Y-14790820D02*
X8454300Y-14830820D01*
D12*
X8790014Y-14701296D02*
X8809062Y-14701296D01*
X8828110Y-14710820D01*
X8837633Y-14720344D01*
X8847157Y-14739391D01*
X8856681Y-14777487D01*
X8856681Y-14825106D01*
X8847157Y-14863201D01*
X8837633Y-14882248D01*
X8828110Y-14891772D01*
X8809062Y-14901296D01*
X8790014Y-14901296D01*
X8770967Y-14891772D01*
X8761443Y-14882248D01*
X8751919Y-14863201D01*
X8742395Y-14825106D01*
X8742395Y-14777487D01*
X8751919Y-14739391D01*
X8761443Y-14720344D01*
X8770967Y-14710820D01*
X8790014Y-14701296D01*
X8942395Y-14882248D02*
X8951919Y-14891772D01*
X8942395Y-14901296D01*
X8932871Y-14891772D01*
X8942395Y-14882248D01*
X8942395Y-14901296D01*
X9123348Y-14767963D02*
X9123348Y-14901296D01*
X9075729Y-14691772D02*
X9028110Y-14834629D01*
X9151919Y-14834629D01*
X9266205Y-14701296D02*
X9285252Y-14701296D01*
X9304300Y-14710820D01*
X9313824Y-14720344D01*
X9323348Y-14739391D01*
X9332871Y-14777487D01*
X9332871Y-14825106D01*
X9323348Y-14863201D01*
X9313824Y-14882248D01*
X9304300Y-14891772D01*
X9285252Y-14901296D01*
X9266205Y-14901296D01*
X9247157Y-14891772D01*
X9237633Y-14882248D01*
X9228110Y-14863201D01*
X9218586Y-14825106D01*
X9218586Y-14777487D01*
X9228110Y-14739391D01*
X9237633Y-14720344D01*
X9247157Y-14710820D01*
X9266205Y-14701296D01*
X9456681Y-14701296D02*
X9475729Y-14701296D01*
X9494776Y-14710820D01*
X9504300Y-14720344D01*
X9513824Y-14739391D01*
X9523348Y-14777487D01*
X9523348Y-14825106D01*
X9513824Y-14863201D01*
X9504300Y-14882248D01*
X9494776Y-14891772D01*
X9475729Y-14901296D01*
X9456681Y-14901296D01*
X9437633Y-14891772D01*
X9428110Y-14882248D01*
X9418586Y-14863201D01*
X9409062Y-14825106D01*
X9409062Y-14777487D01*
X9418586Y-14739391D01*
X9428110Y-14720344D01*
X9437633Y-14710820D01*
X9456681Y-14701296D01*
X9609062Y-14901296D02*
X9609062Y-14767963D01*
X9609062Y-14787010D02*
X9618586Y-14777487D01*
X9637633Y-14767963D01*
X9666205Y-14767963D01*
X9685252Y-14777487D01*
X9694776Y-14796534D01*
X9694776Y-14901296D01*
X9694776Y-14796534D02*
X9704300Y-14777487D01*
X9723348Y-14767963D01*
X9751919Y-14767963D01*
X9770967Y-14777487D01*
X9780490Y-14796534D01*
X9780490Y-14901296D01*
X9875729Y-14901296D02*
X9875729Y-14767963D01*
X9875729Y-14787010D02*
X9885252Y-14777487D01*
X9904300Y-14767963D01*
X9932871Y-14767963D01*
X9951919Y-14777487D01*
X9961443Y-14796534D01*
X9961443Y-14901296D01*
X9961443Y-14796534D02*
X9970967Y-14777487D01*
X9990014Y-14767963D01*
X10018586Y-14767963D01*
X10037633Y-14777487D01*
X10047157Y-14796534D01*
X10047157Y-14901296D01*
X10437633Y-14691772D02*
X10266205Y-14948915D01*
X10694776Y-14701296D02*
X10713824Y-14701296D01*
X10732871Y-14710820D01*
X10742395Y-14720344D01*
X10751919Y-14739391D01*
X10761443Y-14777487D01*
X10761443Y-14825106D01*
X10751919Y-14863201D01*
X10742395Y-14882248D01*
X10732871Y-14891772D01*
X10713824Y-14901296D01*
X10694776Y-14901296D01*
X10675729Y-14891772D01*
X10666205Y-14882248D01*
X10656681Y-14863201D01*
X10647157Y-14825106D01*
X10647157Y-14777487D01*
X10656681Y-14739391D01*
X10666205Y-14720344D01*
X10675729Y-14710820D01*
X10694776Y-14701296D01*
X10847157Y-14882248D02*
X10856681Y-14891772D01*
X10847157Y-14901296D01*
X10837633Y-14891772D01*
X10847157Y-14882248D01*
X10847157Y-14901296D01*
X10980490Y-14701296D02*
X10999538Y-14701296D01*
X11018586Y-14710820D01*
X11028110Y-14720344D01*
X11037633Y-14739391D01*
X11047157Y-14777487D01*
X11047157Y-14825106D01*
X11037633Y-14863201D01*
X11028110Y-14882248D01*
X11018586Y-14891772D01*
X10999538Y-14901296D01*
X10980490Y-14901296D01*
X10961443Y-14891772D01*
X10951919Y-14882248D01*
X10942395Y-14863201D01*
X10932871Y-14825106D01*
X10932871Y-14777487D01*
X10942395Y-14739391D01*
X10951919Y-14720344D01*
X10961443Y-14710820D01*
X10980490Y-14701296D01*
X11237633Y-14901296D02*
X11123348Y-14901296D01*
X11180490Y-14901296D02*
X11180490Y-14701296D01*
X11161443Y-14729868D01*
X11142395Y-14748915D01*
X11123348Y-14758439D01*
X11418586Y-14701296D02*
X11323348Y-14701296D01*
X11313824Y-14796534D01*
X11323348Y-14787010D01*
X11342395Y-14777487D01*
X11390014Y-14777487D01*
X11409062Y-14787010D01*
X11418586Y-14796534D01*
X11428109Y-14815582D01*
X11428109Y-14863201D01*
X11418586Y-14882248D01*
X11409062Y-14891772D01*
X11390014Y-14901296D01*
X11342395Y-14901296D01*
X11323348Y-14891772D01*
X11313824Y-14882248D01*
X11494776Y-14701296D02*
X11628109Y-14701296D01*
X11542395Y-14901296D01*
X11694776Y-14701296D02*
X11694776Y-14739391D01*
X11770967Y-14701296D02*
X11770967Y-14739391D01*
X12066205Y-14977487D02*
X12056681Y-14967963D01*
X12037633Y-14939391D01*
X12028109Y-14920344D01*
X12018586Y-14891772D01*
X12009062Y-14844153D01*
X12009062Y-14806058D01*
X12018586Y-14758439D01*
X12028109Y-14729868D01*
X12037633Y-14710820D01*
X12056681Y-14682248D01*
X12066205Y-14672725D01*
X12123348Y-14701296D02*
X12256681Y-14701296D01*
X12170967Y-14901296D01*
X12485252Y-14901296D02*
X12485252Y-14701296D01*
X12570967Y-14901296D02*
X12570967Y-14796534D01*
X12561443Y-14777487D01*
X12542395Y-14767963D01*
X12513824Y-14767963D01*
X12494776Y-14777487D01*
X12485252Y-14787010D01*
X12694776Y-14901296D02*
X12675728Y-14891772D01*
X12666205Y-14882248D01*
X12656681Y-14863201D01*
X12656681Y-14806058D01*
X12666205Y-14787010D01*
X12675728Y-14777487D01*
X12694776Y-14767963D01*
X12723348Y-14767963D01*
X12742395Y-14777487D01*
X12751919Y-14787010D01*
X12761443Y-14806058D01*
X12761443Y-14863201D01*
X12751919Y-14882248D01*
X12742395Y-14891772D01*
X12723348Y-14901296D01*
X12694776Y-14901296D01*
X12875728Y-14901296D02*
X12856681Y-14891772D01*
X12847157Y-14872725D01*
X12847157Y-14701296D01*
X13028109Y-14891772D02*
X13009062Y-14901296D01*
X12970967Y-14901296D01*
X12951919Y-14891772D01*
X12942395Y-14872725D01*
X12942395Y-14796534D01*
X12951919Y-14777487D01*
X12970967Y-14767963D01*
X13009062Y-14767963D01*
X13028109Y-14777487D01*
X13037633Y-14796534D01*
X13037633Y-14815582D01*
X12942395Y-14834629D01*
X13113824Y-14891772D02*
X13132871Y-14901296D01*
X13170967Y-14901296D01*
X13190014Y-14891772D01*
X13199538Y-14872725D01*
X13199538Y-14863201D01*
X13190014Y-14844153D01*
X13170967Y-14834629D01*
X13142395Y-14834629D01*
X13123348Y-14825106D01*
X13113824Y-14806058D01*
X13113824Y-14796534D01*
X13123348Y-14777487D01*
X13142395Y-14767963D01*
X13170967Y-14767963D01*
X13190014Y-14777487D01*
X13266205Y-14977487D02*
X13275728Y-14967963D01*
X13294776Y-14939391D01*
X13304300Y-14920344D01*
X13313824Y-14891772D01*
X13323348Y-14844153D01*
X13323348Y-14806058D01*
X13313824Y-14758439D01*
X13304300Y-14729868D01*
X13294776Y-14710820D01*
X13275728Y-14682248D01*
X13266205Y-14672725D01*
D14*
X8494300Y-15074820D02*
G75*
G03*
X8494300Y-15074820I-50000J0D01*
G01*
D12*
X8856681Y-15165296D02*
X8742395Y-15165296D01*
X8799538Y-15165296D02*
X8799538Y-14965296D01*
X8780490Y-14993868D01*
X8761443Y-15012915D01*
X8742395Y-15022439D01*
X8942395Y-15146248D02*
X8951919Y-15155772D01*
X8942395Y-15165296D01*
X8932871Y-15155772D01*
X8942395Y-15146248D01*
X8942395Y-15165296D01*
X9075729Y-14965296D02*
X9094776Y-14965296D01*
X9113824Y-14974820D01*
X9123348Y-14984344D01*
X9132871Y-15003391D01*
X9142395Y-15041487D01*
X9142395Y-15089106D01*
X9132871Y-15127201D01*
X9123348Y-15146248D01*
X9113824Y-15155772D01*
X9094776Y-15165296D01*
X9075729Y-15165296D01*
X9056681Y-15155772D01*
X9047157Y-15146248D01*
X9037633Y-15127201D01*
X9028110Y-15089106D01*
X9028110Y-15041487D01*
X9037633Y-15003391D01*
X9047157Y-14984344D01*
X9056681Y-14974820D01*
X9075729Y-14965296D01*
X9266205Y-14965296D02*
X9285252Y-14965296D01*
X9304300Y-14974820D01*
X9313824Y-14984344D01*
X9323348Y-15003391D01*
X9332871Y-15041487D01*
X9332871Y-15089106D01*
X9323348Y-15127201D01*
X9313824Y-15146248D01*
X9304300Y-15155772D01*
X9285252Y-15165296D01*
X9266205Y-15165296D01*
X9247157Y-15155772D01*
X9237633Y-15146248D01*
X9228110Y-15127201D01*
X9218586Y-15089106D01*
X9218586Y-15041487D01*
X9228110Y-15003391D01*
X9237633Y-14984344D01*
X9247157Y-14974820D01*
X9266205Y-14965296D01*
X9456681Y-14965296D02*
X9475729Y-14965296D01*
X9494776Y-14974820D01*
X9504300Y-14984344D01*
X9513824Y-15003391D01*
X9523348Y-15041487D01*
X9523348Y-15089106D01*
X9513824Y-15127201D01*
X9504300Y-15146248D01*
X9494776Y-15155772D01*
X9475729Y-15165296D01*
X9456681Y-15165296D01*
X9437633Y-15155772D01*
X9428110Y-15146248D01*
X9418586Y-15127201D01*
X9409062Y-15089106D01*
X9409062Y-15041487D01*
X9418586Y-15003391D01*
X9428110Y-14984344D01*
X9437633Y-14974820D01*
X9456681Y-14965296D01*
X9609062Y-15165296D02*
X9609062Y-15031963D01*
X9609062Y-15051010D02*
X9618586Y-15041487D01*
X9637633Y-15031963D01*
X9666205Y-15031963D01*
X9685252Y-15041487D01*
X9694776Y-15060534D01*
X9694776Y-15165296D01*
X9694776Y-15060534D02*
X9704300Y-15041487D01*
X9723348Y-15031963D01*
X9751919Y-15031963D01*
X9770967Y-15041487D01*
X9780490Y-15060534D01*
X9780490Y-15165296D01*
X9875729Y-15165296D02*
X9875729Y-15031963D01*
X9875729Y-15051010D02*
X9885252Y-15041487D01*
X9904300Y-15031963D01*
X9932871Y-15031963D01*
X9951919Y-15041487D01*
X9961443Y-15060534D01*
X9961443Y-15165296D01*
X9961443Y-15060534D02*
X9970967Y-15041487D01*
X9990014Y-15031963D01*
X10018586Y-15031963D01*
X10037633Y-15041487D01*
X10047157Y-15060534D01*
X10047157Y-15165296D01*
X10437633Y-14955772D02*
X10266205Y-15212915D01*
X10694776Y-14965296D02*
X10713824Y-14965296D01*
X10732871Y-14974820D01*
X10742395Y-14984344D01*
X10751919Y-15003391D01*
X10761443Y-15041487D01*
X10761443Y-15089106D01*
X10751919Y-15127201D01*
X10742395Y-15146248D01*
X10732871Y-15155772D01*
X10713824Y-15165296D01*
X10694776Y-15165296D01*
X10675729Y-15155772D01*
X10666205Y-15146248D01*
X10656681Y-15127201D01*
X10647157Y-15089106D01*
X10647157Y-15041487D01*
X10656681Y-15003391D01*
X10666205Y-14984344D01*
X10675729Y-14974820D01*
X10694776Y-14965296D01*
X10847157Y-15146248D02*
X10856681Y-15155772D01*
X10847157Y-15165296D01*
X10837633Y-15155772D01*
X10847157Y-15146248D01*
X10847157Y-15165296D01*
X10980490Y-14965296D02*
X10999538Y-14965296D01*
X11018586Y-14974820D01*
X11028110Y-14984344D01*
X11037633Y-15003391D01*
X11047157Y-15041487D01*
X11047157Y-15089106D01*
X11037633Y-15127201D01*
X11028110Y-15146248D01*
X11018586Y-15155772D01*
X10999538Y-15165296D01*
X10980490Y-15165296D01*
X10961443Y-15155772D01*
X10951919Y-15146248D01*
X10942395Y-15127201D01*
X10932871Y-15089106D01*
X10932871Y-15041487D01*
X10942395Y-15003391D01*
X10951919Y-14984344D01*
X10961443Y-14974820D01*
X10980490Y-14965296D01*
X11113824Y-14965296D02*
X11237633Y-14965296D01*
X11170967Y-15041487D01*
X11199538Y-15041487D01*
X11218586Y-15051010D01*
X11228109Y-15060534D01*
X11237633Y-15079582D01*
X11237633Y-15127201D01*
X11228109Y-15146248D01*
X11218586Y-15155772D01*
X11199538Y-15165296D01*
X11142395Y-15165296D01*
X11123348Y-15155772D01*
X11113824Y-15146248D01*
X11332871Y-15165296D02*
X11370967Y-15165296D01*
X11390014Y-15155772D01*
X11399538Y-15146248D01*
X11418586Y-15117677D01*
X11428109Y-15079582D01*
X11428109Y-15003391D01*
X11418586Y-14984344D01*
X11409062Y-14974820D01*
X11390014Y-14965296D01*
X11351919Y-14965296D01*
X11332871Y-14974820D01*
X11323348Y-14984344D01*
X11313824Y-15003391D01*
X11313824Y-15051010D01*
X11323348Y-15070058D01*
X11332871Y-15079582D01*
X11351919Y-15089106D01*
X11390014Y-15089106D01*
X11409062Y-15079582D01*
X11418586Y-15070058D01*
X11428109Y-15051010D01*
X11599538Y-15031963D02*
X11599538Y-15165296D01*
X11551919Y-14955772D02*
X11504300Y-15098629D01*
X11628109Y-15098629D01*
X11694776Y-14965296D02*
X11694776Y-15003391D01*
X11770967Y-14965296D02*
X11770967Y-15003391D01*
X12066205Y-15241487D02*
X12056681Y-15231963D01*
X12037633Y-15203391D01*
X12028109Y-15184344D01*
X12018586Y-15155772D01*
X12009062Y-15108153D01*
X12009062Y-15070058D01*
X12018586Y-15022439D01*
X12028109Y-14993868D01*
X12037633Y-14974820D01*
X12056681Y-14946248D01*
X12066205Y-14936725D01*
X12170967Y-15051010D02*
X12151919Y-15041487D01*
X12142395Y-15031963D01*
X12132871Y-15012915D01*
X12132871Y-15003391D01*
X12142395Y-14984344D01*
X12151919Y-14974820D01*
X12170967Y-14965296D01*
X12209062Y-14965296D01*
X12228109Y-14974820D01*
X12237633Y-14984344D01*
X12247157Y-15003391D01*
X12247157Y-15012915D01*
X12237633Y-15031963D01*
X12228109Y-15041487D01*
X12209062Y-15051010D01*
X12170967Y-15051010D01*
X12151919Y-15060534D01*
X12142395Y-15070058D01*
X12132871Y-15089106D01*
X12132871Y-15127201D01*
X12142395Y-15146248D01*
X12151919Y-15155772D01*
X12170967Y-15165296D01*
X12209062Y-15165296D01*
X12228109Y-15155772D01*
X12237633Y-15146248D01*
X12247157Y-15127201D01*
X12247157Y-15089106D01*
X12237633Y-15070058D01*
X12228109Y-15060534D01*
X12209062Y-15051010D01*
X12485252Y-15165296D02*
X12485252Y-14965296D01*
X12570967Y-15165296D02*
X12570967Y-15060534D01*
X12561443Y-15041487D01*
X12542395Y-15031963D01*
X12513824Y-15031963D01*
X12494776Y-15041487D01*
X12485252Y-15051010D01*
X12694776Y-15165296D02*
X12675728Y-15155772D01*
X12666205Y-15146248D01*
X12656681Y-15127201D01*
X12656681Y-15070058D01*
X12666205Y-15051010D01*
X12675728Y-15041487D01*
X12694776Y-15031963D01*
X12723348Y-15031963D01*
X12742395Y-15041487D01*
X12751919Y-15051010D01*
X12761443Y-15070058D01*
X12761443Y-15127201D01*
X12751919Y-15146248D01*
X12742395Y-15155772D01*
X12723348Y-15165296D01*
X12694776Y-15165296D01*
X12875728Y-15165296D02*
X12856681Y-15155772D01*
X12847157Y-15136725D01*
X12847157Y-14965296D01*
X13028109Y-15155772D02*
X13009062Y-15165296D01*
X12970967Y-15165296D01*
X12951919Y-15155772D01*
X12942395Y-15136725D01*
X12942395Y-15060534D01*
X12951919Y-15041487D01*
X12970967Y-15031963D01*
X13009062Y-15031963D01*
X13028109Y-15041487D01*
X13037633Y-15060534D01*
X13037633Y-15079582D01*
X12942395Y-15098629D01*
X13113824Y-15155772D02*
X13132871Y-15165296D01*
X13170967Y-15165296D01*
X13190014Y-15155772D01*
X13199538Y-15136725D01*
X13199538Y-15127201D01*
X13190014Y-15108153D01*
X13170967Y-15098629D01*
X13142395Y-15098629D01*
X13123348Y-15089106D01*
X13113824Y-15070058D01*
X13113824Y-15060534D01*
X13123348Y-15041487D01*
X13142395Y-15031963D01*
X13170967Y-15031963D01*
X13190014Y-15041487D01*
X13266205Y-15241487D02*
X13275728Y-15231963D01*
X13294776Y-15203391D01*
X13304300Y-15184344D01*
X13313824Y-15155772D01*
X13323348Y-15108153D01*
X13323348Y-15070058D01*
X13313824Y-15022439D01*
X13304300Y-14993868D01*
X13294776Y-14974820D01*
X13275728Y-14946248D01*
X13266205Y-14936725D01*
D15*
X8429300Y-15273820D02*
X8429300Y-15403820D01*
X8364300Y-15338820D02*
X8494300Y-15338820D01*
D12*
X8856681Y-15429296D02*
X8742395Y-15429296D01*
X8799538Y-15429296D02*
X8799538Y-15229296D01*
X8780490Y-15257868D01*
X8761443Y-15276915D01*
X8742395Y-15286439D01*
X8942395Y-15410248D02*
X8951919Y-15419772D01*
X8942395Y-15429296D01*
X8932871Y-15419772D01*
X8942395Y-15410248D01*
X8942395Y-15429296D01*
X9018586Y-15229296D02*
X9142395Y-15229296D01*
X9075729Y-15305487D01*
X9104300Y-15305487D01*
X9123348Y-15315010D01*
X9132871Y-15324534D01*
X9142395Y-15343582D01*
X9142395Y-15391201D01*
X9132871Y-15410248D01*
X9123348Y-15419772D01*
X9104300Y-15429296D01*
X9047157Y-15429296D01*
X9028110Y-15419772D01*
X9018586Y-15410248D01*
X9266205Y-15229296D02*
X9285252Y-15229296D01*
X9304300Y-15238820D01*
X9313824Y-15248344D01*
X9323348Y-15267391D01*
X9332871Y-15305487D01*
X9332871Y-15353106D01*
X9323348Y-15391201D01*
X9313824Y-15410248D01*
X9304300Y-15419772D01*
X9285252Y-15429296D01*
X9266205Y-15429296D01*
X9247157Y-15419772D01*
X9237633Y-15410248D01*
X9228110Y-15391201D01*
X9218586Y-15353106D01*
X9218586Y-15305487D01*
X9228110Y-15267391D01*
X9237633Y-15248344D01*
X9247157Y-15238820D01*
X9266205Y-15229296D01*
X9456681Y-15229296D02*
X9475729Y-15229296D01*
X9494776Y-15238820D01*
X9504300Y-15248344D01*
X9513824Y-15267391D01*
X9523348Y-15305487D01*
X9523348Y-15353106D01*
X9513824Y-15391201D01*
X9504300Y-15410248D01*
X9494776Y-15419772D01*
X9475729Y-15429296D01*
X9456681Y-15429296D01*
X9437633Y-15419772D01*
X9428110Y-15410248D01*
X9418586Y-15391201D01*
X9409062Y-15353106D01*
X9409062Y-15305487D01*
X9418586Y-15267391D01*
X9428110Y-15248344D01*
X9437633Y-15238820D01*
X9456681Y-15229296D01*
X9609062Y-15429296D02*
X9609062Y-15295963D01*
X9609062Y-15315010D02*
X9618586Y-15305487D01*
X9637633Y-15295963D01*
X9666205Y-15295963D01*
X9685252Y-15305487D01*
X9694776Y-15324534D01*
X9694776Y-15429296D01*
X9694776Y-15324534D02*
X9704300Y-15305487D01*
X9723348Y-15295963D01*
X9751919Y-15295963D01*
X9770967Y-15305487D01*
X9780490Y-15324534D01*
X9780490Y-15429296D01*
X9875729Y-15429296D02*
X9875729Y-15295963D01*
X9875729Y-15315010D02*
X9885252Y-15305487D01*
X9904300Y-15295963D01*
X9932871Y-15295963D01*
X9951919Y-15305487D01*
X9961443Y-15324534D01*
X9961443Y-15429296D01*
X9961443Y-15324534D02*
X9970967Y-15305487D01*
X9990014Y-15295963D01*
X10018586Y-15295963D01*
X10037633Y-15305487D01*
X10047157Y-15324534D01*
X10047157Y-15429296D01*
X10437633Y-15219772D02*
X10266205Y-15476915D01*
X10694776Y-15229296D02*
X10713824Y-15229296D01*
X10732871Y-15238820D01*
X10742395Y-15248344D01*
X10751919Y-15267391D01*
X10761443Y-15305487D01*
X10761443Y-15353106D01*
X10751919Y-15391201D01*
X10742395Y-15410248D01*
X10732871Y-15419772D01*
X10713824Y-15429296D01*
X10694776Y-15429296D01*
X10675729Y-15419772D01*
X10666205Y-15410248D01*
X10656681Y-15391201D01*
X10647157Y-15353106D01*
X10647157Y-15305487D01*
X10656681Y-15267391D01*
X10666205Y-15248344D01*
X10675729Y-15238820D01*
X10694776Y-15229296D01*
X10847157Y-15410248D02*
X10856681Y-15419772D01*
X10847157Y-15429296D01*
X10837633Y-15419772D01*
X10847157Y-15410248D01*
X10847157Y-15429296D01*
X10980490Y-15229296D02*
X10999538Y-15229296D01*
X11018586Y-15238820D01*
X11028110Y-15248344D01*
X11037633Y-15267391D01*
X11047157Y-15305487D01*
X11047157Y-15353106D01*
X11037633Y-15391201D01*
X11028110Y-15410248D01*
X11018586Y-15419772D01*
X10999538Y-15429296D01*
X10980490Y-15429296D01*
X10961443Y-15419772D01*
X10951919Y-15410248D01*
X10942395Y-15391201D01*
X10932871Y-15353106D01*
X10932871Y-15305487D01*
X10942395Y-15267391D01*
X10951919Y-15248344D01*
X10961443Y-15238820D01*
X10980490Y-15229296D01*
X11228109Y-15229296D02*
X11132871Y-15229296D01*
X11123348Y-15324534D01*
X11132871Y-15315010D01*
X11151919Y-15305487D01*
X11199538Y-15305487D01*
X11218586Y-15315010D01*
X11228109Y-15324534D01*
X11237633Y-15343582D01*
X11237633Y-15391201D01*
X11228109Y-15410248D01*
X11218586Y-15419772D01*
X11199538Y-15429296D01*
X11151919Y-15429296D01*
X11132871Y-15419772D01*
X11123348Y-15410248D01*
X11428109Y-15429296D02*
X11313824Y-15429296D01*
X11370967Y-15429296D02*
X11370967Y-15229296D01*
X11351919Y-15257868D01*
X11332871Y-15276915D01*
X11313824Y-15286439D01*
X11504300Y-15248344D02*
X11513824Y-15238820D01*
X11532871Y-15229296D01*
X11580490Y-15229296D01*
X11599538Y-15238820D01*
X11609062Y-15248344D01*
X11618586Y-15267391D01*
X11618586Y-15286439D01*
X11609062Y-15315010D01*
X11494776Y-15429296D01*
X11618586Y-15429296D01*
X11694776Y-15229296D02*
X11694776Y-15267391D01*
X11770967Y-15229296D02*
X11770967Y-15267391D01*
X12066205Y-15505487D02*
X12056681Y-15495963D01*
X12037633Y-15467391D01*
X12028109Y-15448344D01*
X12018586Y-15419772D01*
X12009062Y-15372153D01*
X12009062Y-15334058D01*
X12018586Y-15286439D01*
X12028109Y-15257868D01*
X12037633Y-15238820D01*
X12056681Y-15210248D01*
X12066205Y-15200725D01*
X12132871Y-15248344D02*
X12142395Y-15238820D01*
X12161443Y-15229296D01*
X12209062Y-15229296D01*
X12228109Y-15238820D01*
X12237633Y-15248344D01*
X12247157Y-15267391D01*
X12247157Y-15286439D01*
X12237633Y-15315010D01*
X12123348Y-15429296D01*
X12247157Y-15429296D01*
X12485252Y-15429296D02*
X12485252Y-15229296D01*
X12570967Y-15429296D02*
X12570967Y-15324534D01*
X12561443Y-15305487D01*
X12542395Y-15295963D01*
X12513824Y-15295963D01*
X12494776Y-15305487D01*
X12485252Y-15315010D01*
X12694776Y-15429296D02*
X12675728Y-15419772D01*
X12666205Y-15410248D01*
X12656681Y-15391201D01*
X12656681Y-15334058D01*
X12666205Y-15315010D01*
X12675728Y-15305487D01*
X12694776Y-15295963D01*
X12723348Y-15295963D01*
X12742395Y-15305487D01*
X12751919Y-15315010D01*
X12761443Y-15334058D01*
X12761443Y-15391201D01*
X12751919Y-15410248D01*
X12742395Y-15419772D01*
X12723348Y-15429296D01*
X12694776Y-15429296D01*
X12875728Y-15429296D02*
X12856681Y-15419772D01*
X12847157Y-15400725D01*
X12847157Y-15229296D01*
X13028109Y-15419772D02*
X13009062Y-15429296D01*
X12970967Y-15429296D01*
X12951919Y-15419772D01*
X12942395Y-15400725D01*
X12942395Y-15324534D01*
X12951919Y-15305487D01*
X12970967Y-15295963D01*
X13009062Y-15295963D01*
X13028109Y-15305487D01*
X13037633Y-15324534D01*
X13037633Y-15343582D01*
X12942395Y-15362629D01*
X13113824Y-15419772D02*
X13132871Y-15429296D01*
X13170967Y-15429296D01*
X13190014Y-15419772D01*
X13199538Y-15400725D01*
X13199538Y-15391201D01*
X13190014Y-15372153D01*
X13170967Y-15362629D01*
X13142395Y-15362629D01*
X13123348Y-15353106D01*
X13113824Y-15334058D01*
X13113824Y-15324534D01*
X13123348Y-15305487D01*
X13142395Y-15295963D01*
X13170967Y-15295963D01*
X13190014Y-15305487D01*
X13266205Y-15505487D02*
X13275728Y-15495963D01*
X13294776Y-15467391D01*
X13304300Y-15448344D01*
X13313824Y-15419772D01*
X13323348Y-15372153D01*
X13323348Y-15334058D01*
X13313824Y-15286439D01*
X13304300Y-15257868D01*
X13294776Y-15238820D01*
X13275728Y-15210248D01*
X13266205Y-15200725D01*
X8465011Y-15673531D02*
X8465011Y-15532109D01*
X8323589Y-15532109D01*
X8323589Y-15673531D01*
X8465011Y-15673531D01*
X8742395Y-15512344D02*
X8751919Y-15502820D01*
X8770967Y-15493296D01*
X8818586Y-15493296D01*
X8837633Y-15502820D01*
X8847157Y-15512344D01*
X8856681Y-15531391D01*
X8856681Y-15550439D01*
X8847157Y-15579010D01*
X8732871Y-15693296D01*
X8856681Y-15693296D01*
X8942395Y-15674248D02*
X8951919Y-15683772D01*
X8942395Y-15693296D01*
X8932871Y-15683772D01*
X8942395Y-15674248D01*
X8942395Y-15693296D01*
X9028110Y-15512344D02*
X9037633Y-15502820D01*
X9056681Y-15493296D01*
X9104300Y-15493296D01*
X9123348Y-15502820D01*
X9132871Y-15512344D01*
X9142395Y-15531391D01*
X9142395Y-15550439D01*
X9132871Y-15579010D01*
X9018586Y-15693296D01*
X9142395Y-15693296D01*
X9266205Y-15493296D02*
X9285252Y-15493296D01*
X9304300Y-15502820D01*
X9313824Y-15512344D01*
X9323348Y-15531391D01*
X9332871Y-15569487D01*
X9332871Y-15617106D01*
X9323348Y-15655201D01*
X9313824Y-15674248D01*
X9304300Y-15683772D01*
X9285252Y-15693296D01*
X9266205Y-15693296D01*
X9247157Y-15683772D01*
X9237633Y-15674248D01*
X9228110Y-15655201D01*
X9218586Y-15617106D01*
X9218586Y-15569487D01*
X9228110Y-15531391D01*
X9237633Y-15512344D01*
X9247157Y-15502820D01*
X9266205Y-15493296D01*
X9456681Y-15493296D02*
X9475729Y-15493296D01*
X9494776Y-15502820D01*
X9504300Y-15512344D01*
X9513824Y-15531391D01*
X9523348Y-15569487D01*
X9523348Y-15617106D01*
X9513824Y-15655201D01*
X9504300Y-15674248D01*
X9494776Y-15683772D01*
X9475729Y-15693296D01*
X9456681Y-15693296D01*
X9437633Y-15683772D01*
X9428110Y-15674248D01*
X9418586Y-15655201D01*
X9409062Y-15617106D01*
X9409062Y-15569487D01*
X9418586Y-15531391D01*
X9428110Y-15512344D01*
X9437633Y-15502820D01*
X9456681Y-15493296D01*
X9609062Y-15693296D02*
X9609062Y-15559963D01*
X9609062Y-15579010D02*
X9618586Y-15569487D01*
X9637633Y-15559963D01*
X9666205Y-15559963D01*
X9685252Y-15569487D01*
X9694776Y-15588534D01*
X9694776Y-15693296D01*
X9694776Y-15588534D02*
X9704300Y-15569487D01*
X9723348Y-15559963D01*
X9751919Y-15559963D01*
X9770967Y-15569487D01*
X9780490Y-15588534D01*
X9780490Y-15693296D01*
X9875729Y-15693296D02*
X9875729Y-15559963D01*
X9875729Y-15579010D02*
X9885252Y-15569487D01*
X9904300Y-15559963D01*
X9932871Y-15559963D01*
X9951919Y-15569487D01*
X9961443Y-15588534D01*
X9961443Y-15693296D01*
X9961443Y-15588534D02*
X9970967Y-15569487D01*
X9990014Y-15559963D01*
X10018586Y-15559963D01*
X10037633Y-15569487D01*
X10047157Y-15588534D01*
X10047157Y-15693296D01*
X10437633Y-15483772D02*
X10266205Y-15740915D01*
X10694776Y-15493296D02*
X10713824Y-15493296D01*
X10732871Y-15502820D01*
X10742395Y-15512344D01*
X10751919Y-15531391D01*
X10761443Y-15569487D01*
X10761443Y-15617106D01*
X10751919Y-15655201D01*
X10742395Y-15674248D01*
X10732871Y-15683772D01*
X10713824Y-15693296D01*
X10694776Y-15693296D01*
X10675729Y-15683772D01*
X10666205Y-15674248D01*
X10656681Y-15655201D01*
X10647157Y-15617106D01*
X10647157Y-15569487D01*
X10656681Y-15531391D01*
X10666205Y-15512344D01*
X10675729Y-15502820D01*
X10694776Y-15493296D01*
X10847157Y-15674248D02*
X10856681Y-15683772D01*
X10847157Y-15693296D01*
X10837633Y-15683772D01*
X10847157Y-15674248D01*
X10847157Y-15693296D01*
X10980490Y-15493296D02*
X10999538Y-15493296D01*
X11018586Y-15502820D01*
X11028110Y-15512344D01*
X11037633Y-15531391D01*
X11047157Y-15569487D01*
X11047157Y-15617106D01*
X11037633Y-15655201D01*
X11028110Y-15674248D01*
X11018586Y-15683772D01*
X10999538Y-15693296D01*
X10980490Y-15693296D01*
X10961443Y-15683772D01*
X10951919Y-15674248D01*
X10942395Y-15655201D01*
X10932871Y-15617106D01*
X10932871Y-15569487D01*
X10942395Y-15531391D01*
X10951919Y-15512344D01*
X10961443Y-15502820D01*
X10980490Y-15493296D01*
X11161443Y-15579010D02*
X11142395Y-15569487D01*
X11132871Y-15559963D01*
X11123348Y-15540915D01*
X11123348Y-15531391D01*
X11132871Y-15512344D01*
X11142395Y-15502820D01*
X11161443Y-15493296D01*
X11199538Y-15493296D01*
X11218586Y-15502820D01*
X11228109Y-15512344D01*
X11237633Y-15531391D01*
X11237633Y-15540915D01*
X11228109Y-15559963D01*
X11218586Y-15569487D01*
X11199538Y-15579010D01*
X11161443Y-15579010D01*
X11142395Y-15588534D01*
X11132871Y-15598058D01*
X11123348Y-15617106D01*
X11123348Y-15655201D01*
X11132871Y-15674248D01*
X11142395Y-15683772D01*
X11161443Y-15693296D01*
X11199538Y-15693296D01*
X11218586Y-15683772D01*
X11228109Y-15674248D01*
X11237633Y-15655201D01*
X11237633Y-15617106D01*
X11228109Y-15598058D01*
X11218586Y-15588534D01*
X11199538Y-15579010D01*
X11409062Y-15493296D02*
X11370967Y-15493296D01*
X11351919Y-15502820D01*
X11342395Y-15512344D01*
X11323348Y-15540915D01*
X11313824Y-15579010D01*
X11313824Y-15655201D01*
X11323348Y-15674248D01*
X11332871Y-15683772D01*
X11351919Y-15693296D01*
X11390014Y-15693296D01*
X11409062Y-15683772D01*
X11418586Y-15674248D01*
X11428109Y-15655201D01*
X11428109Y-15607582D01*
X11418586Y-15588534D01*
X11409062Y-15579010D01*
X11390014Y-15569487D01*
X11351919Y-15569487D01*
X11332871Y-15579010D01*
X11323348Y-15588534D01*
X11313824Y-15607582D01*
X11599538Y-15493296D02*
X11561443Y-15493296D01*
X11542395Y-15502820D01*
X11532871Y-15512344D01*
X11513824Y-15540915D01*
X11504300Y-15579010D01*
X11504300Y-15655201D01*
X11513824Y-15674248D01*
X11523348Y-15683772D01*
X11542395Y-15693296D01*
X11580490Y-15693296D01*
X11599538Y-15683772D01*
X11609062Y-15674248D01*
X11618586Y-15655201D01*
X11618586Y-15607582D01*
X11609062Y-15588534D01*
X11599538Y-15579010D01*
X11580490Y-15569487D01*
X11542395Y-15569487D01*
X11523348Y-15579010D01*
X11513824Y-15588534D01*
X11504300Y-15607582D01*
X11694776Y-15493296D02*
X11694776Y-15531391D01*
X11770967Y-15493296D02*
X11770967Y-15531391D01*
X12066205Y-15769487D02*
X12056681Y-15759963D01*
X12037633Y-15731391D01*
X12028109Y-15712344D01*
X12018586Y-15683772D01*
X12009062Y-15636153D01*
X12009062Y-15598058D01*
X12018586Y-15550439D01*
X12028109Y-15521868D01*
X12037633Y-15502820D01*
X12056681Y-15474248D01*
X12066205Y-15464725D01*
X12228109Y-15559963D02*
X12228109Y-15693296D01*
X12180490Y-15483772D02*
X12132871Y-15626629D01*
X12256681Y-15626629D01*
X12485252Y-15693296D02*
X12485252Y-15493296D01*
X12570967Y-15693296D02*
X12570967Y-15588534D01*
X12561443Y-15569487D01*
X12542395Y-15559963D01*
X12513824Y-15559963D01*
X12494776Y-15569487D01*
X12485252Y-15579010D01*
X12694776Y-15693296D02*
X12675728Y-15683772D01*
X12666205Y-15674248D01*
X12656681Y-15655201D01*
X12656681Y-15598058D01*
X12666205Y-15579010D01*
X12675728Y-15569487D01*
X12694776Y-15559963D01*
X12723348Y-15559963D01*
X12742395Y-15569487D01*
X12751919Y-15579010D01*
X12761443Y-15598058D01*
X12761443Y-15655201D01*
X12751919Y-15674248D01*
X12742395Y-15683772D01*
X12723348Y-15693296D01*
X12694776Y-15693296D01*
X12875728Y-15693296D02*
X12856681Y-15683772D01*
X12847157Y-15664725D01*
X12847157Y-15493296D01*
X13028109Y-15683772D02*
X13009062Y-15693296D01*
X12970967Y-15693296D01*
X12951919Y-15683772D01*
X12942395Y-15664725D01*
X12942395Y-15588534D01*
X12951919Y-15569487D01*
X12970967Y-15559963D01*
X13009062Y-15559963D01*
X13028109Y-15569487D01*
X13037633Y-15588534D01*
X13037633Y-15607582D01*
X12942395Y-15626629D01*
X13113824Y-15683772D02*
X13132871Y-15693296D01*
X13170967Y-15693296D01*
X13190014Y-15683772D01*
X13199538Y-15664725D01*
X13199538Y-15655201D01*
X13190014Y-15636153D01*
X13170967Y-15626629D01*
X13142395Y-15626629D01*
X13123348Y-15617106D01*
X13113824Y-15598058D01*
X13113824Y-15588534D01*
X13123348Y-15569487D01*
X13142395Y-15559963D01*
X13170967Y-15559963D01*
X13190014Y-15569487D01*
X13266205Y-15769487D02*
X13275728Y-15759963D01*
X13294776Y-15731391D01*
X13304300Y-15712344D01*
X13313824Y-15683772D01*
X13323348Y-15636153D01*
X13323348Y-15598058D01*
X13313824Y-15550439D01*
X13304300Y-15521868D01*
X13294776Y-15502820D01*
X13275728Y-15474248D01*
X13266205Y-15464725D01*
M02*
